<?xml version="1.0"?>
<svg version="1.1" id="topsvg"
xmlns="http://www.w3.org/2000/svg" xmlns:xlink="http://www.w3.org/1999/xlink"
xmlns:cml="http://www.xml-cml.org/schema" x="0" y="0" width="200px" height="200px" viewBox="0 0 100 100">
<title>GD102.sdf - Open Babel Depiction</title>
<rect x="0" y="0" width="100" height="100" fill="white"/>
<g transform="translate(0,0)">
<svg width="100" height="100" x="0" y="0" viewBox="0 0 608.757 592.603"
font-family="sans-serif" stroke="rgb(0,0,0)" stroke-width="3"  stroke-linecap="round">
<line x1="305.4" y1="372.5" x2="305.4" y2="473.8" opacity="1.0" stroke="rgb(0,0,0)"  stroke-width="3"/>
<line x1="234.1" y1="176.7" x2="234.1" y2="137.3" opacity="1.0" stroke="rgb(0,0,0)"  stroke-width="3"/>
<line x1="118.8" y1="302.9" x2="79.4" y2="302.9" opacity="1.0" stroke="rgb(0,0,0)"  stroke-width="3"/>
<line x1="79.4" y1="302.9" x2="40.0" y2="302.9" opacity="1.0" stroke="rgb(0,0,0)"  stroke-width="3"/>
<line x1="59.7" y1="337.0" x2="79.4" y2="302.9" opacity="1.0" stroke="rgb(0,0,0)"  stroke-width="3"/>
<line x1="234.1" y1="137.3" x2="268.2" y2="117.6" opacity="1.0" stroke="rgb(0,0,0)"  stroke-width="3"/>
<line x1="200.0" y1="117.6" x2="234.1" y2="137.3" opacity="1.0" stroke="rgb(0,0,0)"  stroke-width="3"/>
<line x1="79.4" y1="302.9" x2="59.7" y2="268.8" opacity="1.0" stroke="rgb(0,0,0)"  stroke-width="3"/>
<line x1="234.1" y1="137.3" x2="234.1" y2="98.0" opacity="1.0" stroke="rgb(0,0,0)"  stroke-width="3"/>
<line x1="379.1" y1="128.7" x2="363.2" y2="107.7" opacity="1.0" stroke="rgb(0,0,0)"  stroke-width="3"/>
<line x1="339.5" y1="493.5" x2="373.6" y2="473.8" opacity="1.0" stroke="rgb(0,0,0)"  stroke-width="3"/>
<line x1="441.8" y1="434.5" x2="475.9" y2="414.8" opacity="1.0" stroke="rgb(0,0,0)"  stroke-width="3"/>
<line x1="510.1" y1="434.5" x2="520.4" y2="472.7" opacity="1.0" stroke="rgb(0,0,0)"  stroke-width="3"/>
<line x1="177.2" y1="267.7" x2="201.1" y2="236.4" opacity="1.0" stroke="rgb(0,0,0)"  stroke-width="3"/>
<line x1="201.1" y1="236.4" x2="235.5" y2="255.5" opacity="1.0" stroke="rgb(0,0,0)"  stroke-width="3"/>
<line x1="235.5" y1="255.5" x2="236.1" y2="281.8" opacity="1.0" stroke="rgb(0,0,0)"  stroke-width="3"/>
<line x1="223.5" y1="297.0" x2="197.5" y2="301.4" opacity="1.0" stroke="rgb(0,0,0)"  stroke-width="3"/>
<line x1="197.5" y1="301.4" x2="177.2" y2="267.7" opacity="1.0" stroke="rgb(0,0,0)"  stroke-width="3"/>
<line x1="200.6" y1="292.5" x2="186.4" y2="269.1" opacity="1.0" stroke="rgb(0,0,0)"  stroke-width="3"/>
<line x1="431.4" y1="267.3" x2="404.5" y2="238.5" opacity="1.0" stroke="rgb(0,0,0)"  stroke-width="3"/>
<line x1="404.5" y1="238.5" x2="368.8" y2="255.3" opacity="1.0" stroke="rgb(0,0,0)"  stroke-width="3"/>
<line x1="402.1" y1="247.6" x2="377.3" y2="259.2" opacity="1.0" stroke="rgb(0,0,0)"  stroke-width="3"/>
<line x1="368.8" y1="255.3" x2="372.1" y2="281.4" opacity="1.0" stroke="rgb(0,0,0)"  stroke-width="3"/>
<line x1="386.4" y1="296.8" x2="412.3" y2="301.8" opacity="1.0" stroke="rgb(0,0,0)"  stroke-width="3"/>
<line x1="412.3" y1="301.8" x2="431.4" y2="267.3" opacity="1.0" stroke="rgb(0,0,0)"  stroke-width="3"/>
<line x1="408.9" y1="293.0" x2="422.2" y2="269.1" opacity="1.0" stroke="rgb(0,0,0)"  stroke-width="3"/>
<line x1="426.3" y1="138.3" x2="400.0" y2="138.8" opacity="1.0" stroke="rgb(0,0,0)"  stroke-width="3"/>
<line x1="383.2" y1="151.5" x2="375.5" y2="176.8" opacity="1.0" stroke="rgb(0,0,0)"  stroke-width="3"/>
<line x1="375.5" y1="176.8" x2="407.8" y2="199.3" opacity="1.0" stroke="rgb(0,0,0)"  stroke-width="3"/>
<line x1="384.6" y1="174.3" x2="407.0" y2="190.0" opacity="1.0" stroke="rgb(0,0,0)"  stroke-width="3"/>
<line x1="407.8" y1="199.3" x2="439.2" y2="175.5" opacity="1.0" stroke="rgb(0,0,0)"  stroke-width="3"/>
<line x1="439.2" y1="175.5" x2="426.3" y2="138.3" opacity="1.0" stroke="rgb(0,0,0)"  stroke-width="3"/>
<line x1="430.5" y1="172.2" x2="421.5" y2="146.4" opacity="1.0" stroke="rgb(0,0,0)"  stroke-width="3"/>
<line x1="271.2" y1="353.1" x2="305.4" y2="372.5" opacity="1.0" stroke="rgb(0,0,0)"  stroke-width="3"/>
<line x1="305.4" y1="372.5" x2="339.4" y2="352.7" opacity="1.0" stroke="rgb(0,0,0)"  stroke-width="3"/>
<line x1="306.9" y1="363.3" x2="330.6" y2="349.5" opacity="1.0" stroke="rgb(0,0,0)"  stroke-width="3"/>
<line x1="339.4" y1="352.7" x2="339.1" y2="313.3" opacity="1.0" stroke="rgb(0,0,0)"  stroke-width="3"/>
<line x1="339.1" y1="313.3" x2="304.9" y2="293.8" opacity="1.0" stroke="rgb(0,0,0)"  stroke-width="3"/>
<line x1="330.4" y1="316.6" x2="306.6" y2="303.0" opacity="1.0" stroke="rgb(0,0,0)"  stroke-width="3"/>
<line x1="304.9" y1="293.8" x2="270.9" y2="313.7" opacity="1.0" stroke="rgb(0,0,0)"  stroke-width="3"/>
<line x1="270.9" y1="313.7" x2="271.2" y2="353.1" opacity="1.0" stroke="rgb(0,0,0)"  stroke-width="3"/>
<line x1="278.2" y1="319.6" x2="278.3" y2="347.0" opacity="1.0" stroke="rgb(0,0,0)"  stroke-width="3"/>
<line x1="304.1" y1="267.4" x2="304.9" y2="293.8" opacity="1.0" stroke="rgb(0,0,0)"  stroke-width="3"/>
<line x1="270.9" y1="313.7" x2="247.8" y2="301.1" opacity="1.0" stroke="rgb(0,0,0)"  stroke-width="3"/>
<line x1="235.5" y1="255.5" x2="269.3" y2="235.2" opacity="1.0" stroke="rgb(0,0,0)"  stroke-width="3"/>
<line x1="244.4" y1="258.6" x2="267.8" y2="244.5" opacity="1.0" stroke="rgb(0,0,0)"  stroke-width="3"/>
<line x1="269.3" y1="235.2" x2="292.3" y2="248.1" opacity="1.0" stroke="rgb(0,0,0)"  stroke-width="3"/>
<line x1="368.8" y1="255.3" x2="336.5" y2="232.7" opacity="1.0" stroke="rgb(0,0,0)"  stroke-width="3"/>
<line x1="336.5" y1="232.7" x2="314.5" y2="247.3" opacity="1.0" stroke="rgb(0,0,0)"  stroke-width="3"/>
<line x1="339.1" y1="313.3" x2="362.3" y2="300.6" opacity="1.0" stroke="rgb(0,0,0)"  stroke-width="3"/>
<line x1="139.1" y1="336.6" x2="178.5" y2="335.9" opacity="1.0" stroke="rgb(0,0,0)"  stroke-width="3"/>
<line x1="145.0" y1="329.3" x2="172.3" y2="328.8" opacity="1.0" stroke="rgb(0,0,0)"  stroke-width="3"/>
<line x1="178.5" y1="335.9" x2="197.5" y2="301.4" opacity="1.0" stroke="rgb(0,0,0)"  stroke-width="3"/>
<line x1="177.2" y1="267.7" x2="137.8" y2="268.4" opacity="1.0" stroke="rgb(0,0,0)"  stroke-width="3"/>
<line x1="137.8" y1="268.4" x2="118.8" y2="302.9" opacity="1.0" stroke="rgb(0,0,0)"  stroke-width="3"/>
<line x1="141.2" y1="277.2" x2="128.0" y2="301.1" opacity="1.0" stroke="rgb(0,0,0)"  stroke-width="3"/>
<line x1="118.8" y1="302.9" x2="139.1" y2="336.6" opacity="1.0" stroke="rgb(0,0,0)"  stroke-width="3"/>
<line x1="491.1" y1="300.3" x2="470.7" y2="266.5" opacity="1.0" stroke="rgb(0,0,0)"  stroke-width="3"/>
<line x1="481.8" y1="298.8" x2="467.7" y2="275.4" opacity="1.0" stroke="rgb(0,0,0)"  stroke-width="3"/>
<line x1="470.7" y1="266.5" x2="431.4" y2="267.3" opacity="1.0" stroke="rgb(0,0,0)"  stroke-width="3"/>
<line x1="412.3" y1="301.8" x2="432.7" y2="335.5" opacity="1.0" stroke="rgb(0,0,0)"  stroke-width="3"/>
<line x1="432.7" y1="335.5" x2="472.1" y2="334.7" opacity="1.0" stroke="rgb(0,0,0)"  stroke-width="3"/>
<line x1="438.5" y1="328.2" x2="465.9" y2="327.7" opacity="1.0" stroke="rgb(0,0,0)"  stroke-width="3"/>
<line x1="472.1" y1="334.7" x2="491.1" y2="300.3" opacity="1.0" stroke="rgb(0,0,0)"  stroke-width="3"/>
<line x1="375.5" y1="176.8" x2="339.9" y2="193.5" opacity="1.0" stroke="rgb(0,0,0)"  stroke-width="3"/>
<line x1="339.9" y1="193.5" x2="336.5" y2="232.7" opacity="1.0" stroke="rgb(0,0,0)"  stroke-width="3"/>
<line x1="346.5" y1="200.1" x2="344.2" y2="227.4" opacity="1.0" stroke="rgb(0,0,0)"  stroke-width="3"/>
<line x1="404.5" y1="238.5" x2="407.8" y2="199.3" opacity="1.0" stroke="rgb(0,0,0)"  stroke-width="3"/>
<line x1="490.8" y1="116.0" x2="452.1" y2="108.6" opacity="1.0" stroke="rgb(0,0,0)"  stroke-width="3"/>
<line x1="483.5" y1="121.9" x2="456.6" y2="116.8" opacity="1.0" stroke="rgb(0,0,0)"  stroke-width="3"/>
<line x1="452.1" y1="108.6" x2="426.3" y2="138.3" opacity="1.0" stroke="rgb(0,0,0)"  stroke-width="3"/>
<line x1="439.2" y1="175.5" x2="477.9" y2="183.0" opacity="1.0" stroke="rgb(0,0,0)"  stroke-width="3"/>
<line x1="477.9" y1="183.0" x2="503.7" y2="153.2" opacity="1.0" stroke="rgb(0,0,0)"  stroke-width="3"/>
<line x1="476.4" y1="173.7" x2="494.3" y2="153.0" opacity="1.0" stroke="rgb(0,0,0)"  stroke-width="3"/>
<line x1="503.7" y1="153.2" x2="490.8" y2="116.0" opacity="1.0" stroke="rgb(0,0,0)"  stroke-width="3"/>
<line x1="201.1" y1="236.4" x2="200.4" y2="197.0" opacity="1.0" stroke="rgb(0,0,0)"  stroke-width="3"/>
<line x1="208.2" y1="230.3" x2="207.7" y2="202.9" opacity="1.0" stroke="rgb(0,0,0)"  stroke-width="3"/>
<line x1="200.4" y1="197.0" x2="234.1" y2="176.7" opacity="1.0" stroke="rgb(0,0,0)"  stroke-width="3"/>
<line x1="234.1" y1="176.7" x2="268.6" y2="195.8" opacity="1.0" stroke="rgb(0,0,0)"  stroke-width="3"/>
<line x1="235.9" y1="185.9" x2="259.8" y2="199.2" opacity="1.0" stroke="rgb(0,0,0)"  stroke-width="3"/>
<line x1="268.6" y1="195.8" x2="269.3" y2="235.2" opacity="1.0" stroke="rgb(0,0,0)"  stroke-width="3"/>
<line x1="378.5" y1="71.4" x2="354.8" y2="40.0" opacity="1.0" stroke="rgb(0,0,0)"  stroke-width="3"/>
<line x1="354.8" y1="40.0" x2="315.7" y2="44.9" opacity="1.0" stroke="rgb(0,0,0)"  stroke-width="3"/>
<line x1="349.7" y1="47.9" x2="322.5" y2="51.3" opacity="1.0" stroke="rgb(0,0,0)"  stroke-width="3"/>
<line x1="315.7" y1="44.9" x2="300.4" y2="81.2" opacity="1.0" stroke="rgb(0,0,0)"  stroke-width="3"/>
<line x1="300.4" y1="81.2" x2="324.1" y2="112.6" opacity="1.0" stroke="rgb(0,0,0)"  stroke-width="3"/>
<line x1="309.7" y1="81.6" x2="326.2" y2="103.4" opacity="1.0" stroke="rgb(0,0,0)"  stroke-width="3"/>
<line x1="324.1" y1="112.6" x2="363.2" y2="107.7" opacity="1.0" stroke="rgb(0,0,0)"  stroke-width="3"/>
<line x1="363.2" y1="107.7" x2="378.5" y2="71.4" opacity="1.0" stroke="rgb(0,0,0)"  stroke-width="3"/>
<line x1="358.9" y1="99.4" x2="369.6" y2="74.1" opacity="1.0" stroke="rgb(0,0,0)"  stroke-width="3"/>
<line x1="271.3" y1="493.5" x2="271.3" y2="532.9" opacity="1.0" stroke="rgb(0,0,0)"  stroke-width="3"/>
<line x1="271.3" y1="532.9" x2="305.4" y2="552.6" opacity="1.0" stroke="rgb(0,0,0)"  stroke-width="3"/>
<line x1="280.1" y1="529.7" x2="303.8" y2="543.4" opacity="1.0" stroke="rgb(0,0,0)"  stroke-width="3"/>
<line x1="305.4" y1="552.6" x2="339.5" y2="532.9" opacity="1.0" stroke="rgb(0,0,0)"  stroke-width="3"/>
<line x1="339.5" y1="532.9" x2="339.5" y2="493.5" opacity="1.0" stroke="rgb(0,0,0)"  stroke-width="3"/>
<line x1="332.3" y1="526.9" x2="332.3" y2="499.5" opacity="1.0" stroke="rgb(0,0,0)"  stroke-width="3"/>
<line x1="339.5" y1="493.5" x2="305.4" y2="473.8" opacity="1.0" stroke="rgb(0,0,0)"  stroke-width="3"/>
<line x1="305.4" y1="473.8" x2="271.3" y2="493.5" opacity="1.0" stroke="rgb(0,0,0)"  stroke-width="3"/>
<line x1="303.8" y1="483.1" x2="280.1" y2="496.8" opacity="1.0" stroke="rgb(0,0,0)"  stroke-width="3"/>
<line x1="407.7" y1="493.5" x2="441.8" y2="473.8" opacity="1.0" stroke="rgb(0,0,0)"  stroke-width="3"/>
<line x1="441.8" y1="473.8" x2="441.8" y2="434.5" opacity="1.0" stroke="rgb(0,0,0)"  stroke-width="3"/>
<line x1="434.6" y1="467.8" x2="434.6" y2="440.5" opacity="1.0" stroke="rgb(0,0,0)"  stroke-width="3"/>
<line x1="441.8" y1="434.5" x2="407.7" y2="414.8" opacity="1.0" stroke="rgb(0,0,0)"  stroke-width="3"/>
<line x1="407.7" y1="414.8" x2="373.6" y2="434.5" opacity="1.0" stroke="rgb(0,0,0)"  stroke-width="3"/>
<line x1="406.1" y1="424.0" x2="382.4" y2="437.7" opacity="1.0" stroke="rgb(0,0,0)"  stroke-width="3"/>
<line x1="373.6" y1="434.5" x2="373.6" y2="473.8" opacity="1.0" stroke="rgb(0,0,0)"  stroke-width="3"/>
<line x1="373.6" y1="473.8" x2="407.7" y2="493.5" opacity="1.0" stroke="rgb(0,0,0)"  stroke-width="3"/>
<line x1="382.4" y1="470.6" x2="406.1" y2="484.3" opacity="1.0" stroke="rgb(0,0,0)"  stroke-width="3"/>
<line x1="339.5" y1="375.4" x2="339.5" y2="414.8" opacity="1.0" stroke="rgb(0,0,0)"  stroke-width="3"/>
<line x1="346.7" y1="381.4" x2="346.7" y2="408.8" opacity="1.0" stroke="rgb(0,0,0)"  stroke-width="3"/>
<line x1="339.5" y1="414.8" x2="373.6" y2="434.5" opacity="1.0" stroke="rgb(0,0,0)"  stroke-width="3"/>
<line x1="407.7" y1="414.8" x2="407.7" y2="375.4" opacity="1.0" stroke="rgb(0,0,0)"  stroke-width="3"/>
<line x1="407.7" y1="375.4" x2="373.6" y2="355.7" opacity="1.0" stroke="rgb(0,0,0)"  stroke-width="3"/>
<line x1="398.9" y1="378.6" x2="375.2" y2="364.9" opacity="1.0" stroke="rgb(0,0,0)"  stroke-width="3"/>
<line x1="373.6" y1="355.7" x2="339.5" y2="375.4" opacity="1.0" stroke="rgb(0,0,0)"  stroke-width="3"/>
<line x1="475.9" y1="532.9" x2="475.9" y2="493.5" opacity="1.0" stroke="rgb(0,0,0)"  stroke-width="3"/>
<line x1="468.7" y1="526.9" x2="468.7" y2="499.5" opacity="1.0" stroke="rgb(0,0,0)"  stroke-width="3"/>
<line x1="475.9" y1="493.5" x2="441.8" y2="473.8" opacity="1.0" stroke="rgb(0,0,0)"  stroke-width="3"/>
<line x1="407.7" y1="493.5" x2="407.7" y2="532.9" opacity="1.0" stroke="rgb(0,0,0)"  stroke-width="3"/>
<line x1="407.7" y1="532.9" x2="441.8" y2="552.6" opacity="1.0" stroke="rgb(0,0,0)"  stroke-width="3"/>
<line x1="416.5" y1="529.7" x2="440.2" y2="543.4" opacity="1.0" stroke="rgb(0,0,0)"  stroke-width="3"/>
<line x1="441.8" y1="552.6" x2="475.9" y2="532.9" opacity="1.0" stroke="rgb(0,0,0)"  stroke-width="3"/>
<line x1="510.1" y1="434.5" x2="544.4" y2="414.8" opacity="1.0" stroke="rgb(0,0,0)"  stroke-width="3"/>
<line x1="544.4" y1="414.8" x2="544.4" y2="375.2" opacity="1.0" stroke="rgb(0,0,0)"  stroke-width="3"/>
<line x1="537.2" y1="408.8" x2="537.2" y2="381.2" opacity="1.0" stroke="rgb(0,0,0)"  stroke-width="3"/>
<line x1="544.4" y1="375.2" x2="510.1" y2="355.5" opacity="1.0" stroke="rgb(0,0,0)"  stroke-width="3"/>
<line x1="510.1" y1="355.5" x2="475.9" y2="375.2" opacity="1.0" stroke="rgb(0,0,0)"  stroke-width="3"/>
<line x1="508.5" y1="364.7" x2="484.7" y2="378.5" opacity="1.0" stroke="rgb(0,0,0)"  stroke-width="3"/>
<line x1="475.9" y1="375.2" x2="475.9" y2="414.8" opacity="1.0" stroke="rgb(0,0,0)"  stroke-width="3"/>
<line x1="475.9" y1="414.8" x2="510.1" y2="434.5" opacity="1.0" stroke="rgb(0,0,0)"  stroke-width="3"/>
<line x1="484.7" y1="411.5" x2="508.5" y2="425.3" opacity="1.0" stroke="rgb(0,0,0)"  stroke-width="3"/>
<line x1="492.4" y1="500.6" x2="502.6" y2="538.8" opacity="1.0" stroke="rgb(0,0,0)"  stroke-width="3"/>
<line x1="502.6" y1="538.8" x2="540.8" y2="549.0" opacity="1.0" stroke="rgb(0,0,0)"  stroke-width="3"/>
<line x1="510.3" y1="533.4" x2="536.9" y2="540.5" opacity="1.0" stroke="rgb(0,0,0)"  stroke-width="3"/>
<line x1="540.8" y1="549.0" x2="568.8" y2="521.1" opacity="1.0" stroke="rgb(0,0,0)"  stroke-width="3"/>
<line x1="568.8" y1="521.1" x2="558.5" y2="482.9" opacity="1.0" stroke="rgb(0,0,0)"  stroke-width="3"/>
<line x1="560.2" y1="517.2" x2="553.1" y2="490.6" opacity="1.0" stroke="rgb(0,0,0)"  stroke-width="3"/>
<line x1="558.5" y1="482.9" x2="520.4" y2="472.7" opacity="1.0" stroke="rgb(0,0,0)"  stroke-width="3"/>
<line x1="520.4" y1="472.7" x2="492.4" y2="500.6" opacity="1.0" stroke="rgb(0,0,0)"  stroke-width="3"/>
<line x1="521.2" y1="482.0" x2="501.7" y2="501.5" opacity="1.0" stroke="rgb(0,0,0)"  stroke-width="3"/>
<text x="380.961776" y="147.095277" fill="rgb(12,12,255)" stroke-width="0" font-weight="bold" font-size="25.92" >N</text>
<text x="367.666921" y="302.332403" fill="rgb(12,12,255)" stroke-width="0" font-weight="bold" font-size="25.92" >N</text>
<text x="230.345193" y="302.846435" fill="rgb(12,12,255)" stroke-width="0" font-weight="bold" font-size="25.92" >N</text>
<text x="297.633747" y="262.427671" fill="rgb(255,181,181)" stroke-width="0" font-weight="bold" font-size="25.92" >B</text>
</svg>
</g>
</svg>
