<?xml version="1.0"?>
<svg version="1.1" id="topsvg"
xmlns="http://www.w3.org/2000/svg" xmlns:xlink="http://www.w3.org/1999/xlink"
xmlns:cml="http://www.xml-cml.org/schema" x="0" y="0" width="200px" height="200px" viewBox="0 0 100 100">
<title>GD107.sdf - Open Babel Depiction</title>
<rect x="0" y="0" width="100" height="100" fill="white"/>
<g transform="translate(0,0)">
<svg width="100" height="100" x="0" y="0" viewBox="0 0 505.128 592.047"
font-family="sans-serif" stroke="rgb(0,0,0)" stroke-width="3"  stroke-linecap="round">
<line x1="155.3" y1="176.6" x2="155.3" y2="137.1" opacity="1.0" stroke="rgb(0,0,0)"  stroke-width="3"/>
<line x1="226.4" y1="372.2" x2="226.4" y2="473.4" opacity="1.0" stroke="rgb(0,0,0)"  stroke-width="3"/>
<line x1="300.1" y1="128.6" x2="284.2" y2="107.6" opacity="1.0" stroke="rgb(0,0,0)"  stroke-width="3"/>
<line x1="260.5" y1="493.0" x2="294.5" y2="473.4" opacity="1.0" stroke="rgb(0,0,0)"  stroke-width="3"/>
<line x1="362.7" y1="434.0" x2="396.8" y2="414.4" opacity="1.0" stroke="rgb(0,0,0)"  stroke-width="3"/>
<line x1="98.3" y1="267.4" x2="122.2" y2="236.2" opacity="1.0" stroke="rgb(0,0,0)"  stroke-width="3"/>
<line x1="122.2" y1="236.2" x2="156.6" y2="255.2" opacity="1.0" stroke="rgb(0,0,0)"  stroke-width="3"/>
<line x1="156.6" y1="255.2" x2="157.2" y2="281.6" opacity="1.0" stroke="rgb(0,0,0)"  stroke-width="3"/>
<line x1="144.6" y1="296.7" x2="118.7" y2="301.1" opacity="1.0" stroke="rgb(0,0,0)"  stroke-width="3"/>
<line x1="118.7" y1="301.1" x2="98.3" y2="267.4" opacity="1.0" stroke="rgb(0,0,0)"  stroke-width="3"/>
<line x1="121.7" y1="292.3" x2="107.6" y2="268.8" opacity="1.0" stroke="rgb(0,0,0)"  stroke-width="3"/>
<line x1="352.3" y1="267.1" x2="325.4" y2="238.3" opacity="1.0" stroke="rgb(0,0,0)"  stroke-width="3"/>
<line x1="325.4" y1="238.3" x2="289.8" y2="255.0" opacity="1.0" stroke="rgb(0,0,0)"  stroke-width="3"/>
<line x1="323.0" y1="247.4" x2="298.2" y2="259.0" opacity="1.0" stroke="rgb(0,0,0)"  stroke-width="3"/>
<line x1="289.8" y1="255.0" x2="293.0" y2="281.2" opacity="1.0" stroke="rgb(0,0,0)"  stroke-width="3"/>
<line x1="307.4" y1="296.5" x2="333.3" y2="301.5" opacity="1.0" stroke="rgb(0,0,0)"  stroke-width="3"/>
<line x1="333.3" y1="301.5" x2="352.3" y2="267.1" opacity="1.0" stroke="rgb(0,0,0)"  stroke-width="3"/>
<line x1="329.9" y1="292.8" x2="343.1" y2="268.8" opacity="1.0" stroke="rgb(0,0,0)"  stroke-width="3"/>
<line x1="347.2" y1="138.2" x2="320.9" y2="138.7" opacity="1.0" stroke="rgb(0,0,0)"  stroke-width="3"/>
<line x1="304.1" y1="151.4" x2="296.5" y2="176.6" opacity="1.0" stroke="rgb(0,0,0)"  stroke-width="3"/>
<line x1="296.5" y1="176.6" x2="328.7" y2="199.1" opacity="1.0" stroke="rgb(0,0,0)"  stroke-width="3"/>
<line x1="305.5" y1="174.2" x2="327.9" y2="189.8" opacity="1.0" stroke="rgb(0,0,0)"  stroke-width="3"/>
<line x1="328.7" y1="199.1" x2="360.1" y2="175.4" opacity="1.0" stroke="rgb(0,0,0)"  stroke-width="3"/>
<line x1="360.1" y1="175.4" x2="347.2" y2="138.2" opacity="1.0" stroke="rgb(0,0,0)"  stroke-width="3"/>
<line x1="351.3" y1="172.1" x2="342.4" y2="146.3" opacity="1.0" stroke="rgb(0,0,0)"  stroke-width="3"/>
<line x1="189.3" y1="117.4" x2="155.3" y2="137.1" opacity="1.0" stroke="rgb(0,0,0)"  stroke-width="3"/>
<line x1="180.5" y1="114.2" x2="156.9" y2="127.9" opacity="1.0" stroke="rgb(0,0,0)"  stroke-width="3"/>
<line x1="155.3" y1="137.1" x2="121.2" y2="117.4" opacity="1.0" stroke="rgb(0,0,0)"  stroke-width="3"/>
<line x1="121.2" y1="117.4" x2="121.2" y2="78.1" opacity="1.0" stroke="rgb(0,0,0)"  stroke-width="3"/>
<line x1="128.4" y1="111.4" x2="128.4" y2="84.1" opacity="1.0" stroke="rgb(0,0,0)"  stroke-width="3"/>
<line x1="121.2" y1="78.1" x2="155.3" y2="58.4" opacity="1.0" stroke="rgb(0,0,0)"  stroke-width="3"/>
<line x1="155.3" y1="58.4" x2="189.3" y2="78.1" opacity="1.0" stroke="rgb(0,0,0)"  stroke-width="3"/>
<line x1="156.9" y1="67.7" x2="180.5" y2="81.3" opacity="1.0" stroke="rgb(0,0,0)"  stroke-width="3"/>
<line x1="189.3" y1="78.1" x2="189.3" y2="117.4" opacity="1.0" stroke="rgb(0,0,0)"  stroke-width="3"/>
<line x1="192.2" y1="352.7" x2="226.4" y2="372.2" opacity="1.0" stroke="rgb(0,0,0)"  stroke-width="3"/>
<line x1="226.4" y1="372.2" x2="260.4" y2="352.3" opacity="1.0" stroke="rgb(0,0,0)"  stroke-width="3"/>
<line x1="228.0" y1="362.9" x2="251.6" y2="349.1" opacity="1.0" stroke="rgb(0,0,0)"  stroke-width="3"/>
<line x1="260.4" y1="352.3" x2="260.1" y2="313.0" opacity="1.0" stroke="rgb(0,0,0)"  stroke-width="3"/>
<line x1="260.1" y1="313.0" x2="226.0" y2="293.5" opacity="1.0" stroke="rgb(0,0,0)"  stroke-width="3"/>
<line x1="251.4" y1="316.3" x2="227.6" y2="302.7" opacity="1.0" stroke="rgb(0,0,0)"  stroke-width="3"/>
<line x1="226.0" y1="293.5" x2="192.0" y2="313.4" opacity="1.0" stroke="rgb(0,0,0)"  stroke-width="3"/>
<line x1="192.0" y1="313.4" x2="192.2" y2="352.7" opacity="1.0" stroke="rgb(0,0,0)"  stroke-width="3"/>
<line x1="199.2" y1="319.3" x2="199.4" y2="346.7" opacity="1.0" stroke="rgb(0,0,0)"  stroke-width="3"/>
<line x1="225.1" y1="267.2" x2="226.0" y2="293.5" opacity="1.0" stroke="rgb(0,0,0)"  stroke-width="3"/>
<line x1="192.0" y1="313.4" x2="168.9" y2="300.8" opacity="1.0" stroke="rgb(0,0,0)"  stroke-width="3"/>
<line x1="156.6" y1="255.2" x2="190.3" y2="235.0" opacity="1.0" stroke="rgb(0,0,0)"  stroke-width="3"/>
<line x1="165.5" y1="258.3" x2="188.9" y2="244.2" opacity="1.0" stroke="rgb(0,0,0)"  stroke-width="3"/>
<line x1="190.3" y1="235.0" x2="213.3" y2="247.8" opacity="1.0" stroke="rgb(0,0,0)"  stroke-width="3"/>
<line x1="289.8" y1="255.0" x2="257.5" y2="232.5" opacity="1.0" stroke="rgb(0,0,0)"  stroke-width="3"/>
<line x1="257.5" y1="232.5" x2="235.5" y2="247.0" opacity="1.0" stroke="rgb(0,0,0)"  stroke-width="3"/>
<line x1="260.1" y1="313.0" x2="283.2" y2="300.3" opacity="1.0" stroke="rgb(0,0,0)"  stroke-width="3"/>
<line x1="60.3" y1="336.3" x2="99.7" y2="335.6" opacity="1.0" stroke="rgb(0,0,0)"  stroke-width="3"/>
<line x1="66.2" y1="329.0" x2="93.5" y2="328.5" opacity="1.0" stroke="rgb(0,0,0)"  stroke-width="3"/>
<line x1="99.7" y1="335.6" x2="118.7" y2="301.1" opacity="1.0" stroke="rgb(0,0,0)"  stroke-width="3"/>
<line x1="98.3" y1="267.4" x2="59.0" y2="268.2" opacity="1.0" stroke="rgb(0,0,0)"  stroke-width="3"/>
<line x1="59.0" y1="268.2" x2="40.0" y2="302.6" opacity="1.0" stroke="rgb(0,0,0)"  stroke-width="3"/>
<line x1="62.4" y1="276.9" x2="49.2" y2="300.9" opacity="1.0" stroke="rgb(0,0,0)"  stroke-width="3"/>
<line x1="40.0" y1="302.6" x2="60.3" y2="336.3" opacity="1.0" stroke="rgb(0,0,0)"  stroke-width="3"/>
<line x1="411.9" y1="300.0" x2="391.6" y2="266.3" opacity="1.0" stroke="rgb(0,0,0)"  stroke-width="3"/>
<line x1="402.7" y1="298.6" x2="388.5" y2="275.1" opacity="1.0" stroke="rgb(0,0,0)"  stroke-width="3"/>
<line x1="391.6" y1="266.3" x2="352.3" y2="267.1" opacity="1.0" stroke="rgb(0,0,0)"  stroke-width="3"/>
<line x1="333.3" y1="301.5" x2="353.6" y2="335.2" opacity="1.0" stroke="rgb(0,0,0)"  stroke-width="3"/>
<line x1="353.6" y1="335.2" x2="392.9" y2="334.4" opacity="1.0" stroke="rgb(0,0,0)"  stroke-width="3"/>
<line x1="359.4" y1="327.9" x2="386.8" y2="327.3" opacity="1.0" stroke="rgb(0,0,0)"  stroke-width="3"/>
<line x1="392.9" y1="334.4" x2="411.9" y2="300.0" opacity="1.0" stroke="rgb(0,0,0)"  stroke-width="3"/>
<line x1="296.5" y1="176.6" x2="260.9" y2="193.3" opacity="1.0" stroke="rgb(0,0,0)"  stroke-width="3"/>
<line x1="260.9" y1="193.3" x2="257.5" y2="232.5" opacity="1.0" stroke="rgb(0,0,0)"  stroke-width="3"/>
<line x1="267.5" y1="199.9" x2="265.2" y2="227.2" opacity="1.0" stroke="rgb(0,0,0)"  stroke-width="3"/>
<line x1="325.4" y1="238.3" x2="328.7" y2="199.1" opacity="1.0" stroke="rgb(0,0,0)"  stroke-width="3"/>
<line x1="411.6" y1="115.9" x2="373.0" y2="108.5" opacity="1.0" stroke="rgb(0,0,0)"  stroke-width="3"/>
<line x1="404.4" y1="121.9" x2="377.5" y2="116.7" opacity="1.0" stroke="rgb(0,0,0)"  stroke-width="3"/>
<line x1="373.0" y1="108.5" x2="347.2" y2="138.2" opacity="1.0" stroke="rgb(0,0,0)"  stroke-width="3"/>
<line x1="360.1" y1="175.4" x2="398.7" y2="182.8" opacity="1.0" stroke="rgb(0,0,0)"  stroke-width="3"/>
<line x1="398.7" y1="182.8" x2="424.5" y2="153.1" opacity="1.0" stroke="rgb(0,0,0)"  stroke-width="3"/>
<line x1="397.2" y1="173.6" x2="415.1" y2="152.9" opacity="1.0" stroke="rgb(0,0,0)"  stroke-width="3"/>
<line x1="424.5" y1="153.1" x2="411.6" y2="115.9" opacity="1.0" stroke="rgb(0,0,0)"  stroke-width="3"/>
<line x1="122.2" y1="236.2" x2="121.5" y2="196.8" opacity="1.0" stroke="rgb(0,0,0)"  stroke-width="3"/>
<line x1="129.3" y1="230.0" x2="128.8" y2="202.7" opacity="1.0" stroke="rgb(0,0,0)"  stroke-width="3"/>
<line x1="121.5" y1="196.8" x2="155.3" y2="176.6" opacity="1.0" stroke="rgb(0,0,0)"  stroke-width="3"/>
<line x1="155.3" y1="176.6" x2="189.7" y2="195.7" opacity="1.0" stroke="rgb(0,0,0)"  stroke-width="3"/>
<line x1="157.0" y1="185.8" x2="180.9" y2="199.0" opacity="1.0" stroke="rgb(0,0,0)"  stroke-width="3"/>
<line x1="189.7" y1="195.7" x2="190.3" y2="235.0" opacity="1.0" stroke="rgb(0,0,0)"  stroke-width="3"/>
<line x1="299.5" y1="71.4" x2="275.7" y2="40.0" opacity="1.0" stroke="rgb(0,0,0)"  stroke-width="3"/>
<line x1="275.7" y1="40.0" x2="236.7" y2="44.9" opacity="1.0" stroke="rgb(0,0,0)"  stroke-width="3"/>
<line x1="270.7" y1="47.9" x2="243.6" y2="51.3" opacity="1.0" stroke="rgb(0,0,0)"  stroke-width="3"/>
<line x1="236.7" y1="44.9" x2="221.4" y2="81.1" opacity="1.0" stroke="rgb(0,0,0)"  stroke-width="3"/>
<line x1="221.4" y1="81.1" x2="245.1" y2="112.5" opacity="1.0" stroke="rgb(0,0,0)"  stroke-width="3"/>
<line x1="230.8" y1="81.5" x2="247.3" y2="103.4" opacity="1.0" stroke="rgb(0,0,0)"  stroke-width="3"/>
<line x1="245.1" y1="112.5" x2="284.2" y2="107.6" opacity="1.0" stroke="rgb(0,0,0)"  stroke-width="3"/>
<line x1="284.2" y1="107.6" x2="299.5" y2="71.4" opacity="1.0" stroke="rgb(0,0,0)"  stroke-width="3"/>
<line x1="279.9" y1="99.3" x2="290.5" y2="74.1" opacity="1.0" stroke="rgb(0,0,0)"  stroke-width="3"/>
<line x1="192.3" y1="493.0" x2="192.3" y2="532.4" opacity="1.0" stroke="rgb(0,0,0)"  stroke-width="3"/>
<line x1="192.3" y1="532.4" x2="226.4" y2="552.0" opacity="1.0" stroke="rgb(0,0,0)"  stroke-width="3"/>
<line x1="201.1" y1="529.1" x2="224.8" y2="542.8" opacity="1.0" stroke="rgb(0,0,0)"  stroke-width="3"/>
<line x1="226.4" y1="552.0" x2="260.5" y2="532.4" opacity="1.0" stroke="rgb(0,0,0)"  stroke-width="3"/>
<line x1="260.5" y1="532.4" x2="260.5" y2="493.0" opacity="1.0" stroke="rgb(0,0,0)"  stroke-width="3"/>
<line x1="253.3" y1="526.4" x2="253.3" y2="499.0" opacity="1.0" stroke="rgb(0,0,0)"  stroke-width="3"/>
<line x1="260.5" y1="493.0" x2="226.4" y2="473.4" opacity="1.0" stroke="rgb(0,0,0)"  stroke-width="3"/>
<line x1="226.4" y1="473.4" x2="192.3" y2="493.0" opacity="1.0" stroke="rgb(0,0,0)"  stroke-width="3"/>
<line x1="224.8" y1="482.6" x2="201.1" y2="496.3" opacity="1.0" stroke="rgb(0,0,0)"  stroke-width="3"/>
<line x1="328.6" y1="493.0" x2="362.7" y2="473.4" opacity="1.0" stroke="rgb(0,0,0)"  stroke-width="3"/>
<line x1="362.7" y1="473.4" x2="362.7" y2="434.0" opacity="1.0" stroke="rgb(0,0,0)"  stroke-width="3"/>
<line x1="355.5" y1="467.4" x2="355.5" y2="440.0" opacity="1.0" stroke="rgb(0,0,0)"  stroke-width="3"/>
<line x1="362.7" y1="434.0" x2="328.6" y2="414.4" opacity="1.0" stroke="rgb(0,0,0)"  stroke-width="3"/>
<line x1="328.6" y1="414.4" x2="294.5" y2="434.0" opacity="1.0" stroke="rgb(0,0,0)"  stroke-width="3"/>
<line x1="327.0" y1="423.6" x2="303.3" y2="437.3" opacity="1.0" stroke="rgb(0,0,0)"  stroke-width="3"/>
<line x1="294.5" y1="434.0" x2="294.5" y2="473.4" opacity="1.0" stroke="rgb(0,0,0)"  stroke-width="3"/>
<line x1="294.5" y1="473.4" x2="328.6" y2="493.0" opacity="1.0" stroke="rgb(0,0,0)"  stroke-width="3"/>
<line x1="303.3" y1="470.1" x2="327.0" y2="483.8" opacity="1.0" stroke="rgb(0,0,0)"  stroke-width="3"/>
<line x1="260.5" y1="375.0" x2="260.5" y2="414.4" opacity="1.0" stroke="rgb(0,0,0)"  stroke-width="3"/>
<line x1="267.7" y1="381.0" x2="267.7" y2="408.4" opacity="1.0" stroke="rgb(0,0,0)"  stroke-width="3"/>
<line x1="260.5" y1="414.4" x2="294.5" y2="434.0" opacity="1.0" stroke="rgb(0,0,0)"  stroke-width="3"/>
<line x1="328.6" y1="414.4" x2="328.6" y2="375.0" opacity="1.0" stroke="rgb(0,0,0)"  stroke-width="3"/>
<line x1="328.6" y1="375.0" x2="294.5" y2="355.4" opacity="1.0" stroke="rgb(0,0,0)"  stroke-width="3"/>
<line x1="319.8" y1="378.3" x2="296.1" y2="364.6" opacity="1.0" stroke="rgb(0,0,0)"  stroke-width="3"/>
<line x1="294.5" y1="355.4" x2="260.5" y2="375.0" opacity="1.0" stroke="rgb(0,0,0)"  stroke-width="3"/>
<line x1="396.8" y1="532.4" x2="396.8" y2="493.0" opacity="1.0" stroke="rgb(0,0,0)"  stroke-width="3"/>
<line x1="389.6" y1="526.4" x2="389.6" y2="499.0" opacity="1.0" stroke="rgb(0,0,0)"  stroke-width="3"/>
<line x1="396.8" y1="493.0" x2="362.7" y2="473.4" opacity="1.0" stroke="rgb(0,0,0)"  stroke-width="3"/>
<line x1="328.6" y1="493.0" x2="328.6" y2="532.4" opacity="1.0" stroke="rgb(0,0,0)"  stroke-width="3"/>
<line x1="328.6" y1="532.4" x2="362.7" y2="552.0" opacity="1.0" stroke="rgb(0,0,0)"  stroke-width="3"/>
<line x1="337.4" y1="529.1" x2="361.1" y2="542.8" opacity="1.0" stroke="rgb(0,0,0)"  stroke-width="3"/>
<line x1="362.7" y1="552.0" x2="396.8" y2="532.4" opacity="1.0" stroke="rgb(0,0,0)"  stroke-width="3"/>
<line x1="430.9" y1="434.1" x2="465.1" y2="414.4" opacity="1.0" stroke="rgb(0,0,0)"  stroke-width="3"/>
<line x1="465.1" y1="414.4" x2="465.1" y2="374.9" opacity="1.0" stroke="rgb(0,0,0)"  stroke-width="3"/>
<line x1="457.9" y1="408.4" x2="457.9" y2="380.9" opacity="1.0" stroke="rgb(0,0,0)"  stroke-width="3"/>
<line x1="465.1" y1="374.9" x2="430.9" y2="355.1" opacity="1.0" stroke="rgb(0,0,0)"  stroke-width="3"/>
<line x1="430.9" y1="355.1" x2="396.8" y2="374.9" opacity="1.0" stroke="rgb(0,0,0)"  stroke-width="3"/>
<line x1="429.3" y1="364.4" x2="405.5" y2="378.1" opacity="1.0" stroke="rgb(0,0,0)"  stroke-width="3"/>
<line x1="396.8" y1="374.9" x2="396.8" y2="414.4" opacity="1.0" stroke="rgb(0,0,0)"  stroke-width="3"/>
<line x1="396.8" y1="414.4" x2="430.9" y2="434.1" opacity="1.0" stroke="rgb(0,0,0)"  stroke-width="3"/>
<line x1="405.5" y1="411.1" x2="429.3" y2="424.9" opacity="1.0" stroke="rgb(0,0,0)"  stroke-width="3"/>
<text x="288.627350" y="302.056695" fill="rgb(12,12,255)" stroke-width="0" font-weight="bold" font-size="25.92" >N</text>
<text x="151.454485" y="302.570170" fill="rgb(12,12,255)" stroke-width="0" font-weight="bold" font-size="25.92" >N</text>
<text x="218.670048" y="262.195222" fill="rgb(255,181,181)" stroke-width="0" font-weight="bold" font-size="25.92" >B</text>
<text x="301.907793" y="146.987854" fill="rgb(12,12,255)" stroke-width="0" font-weight="bold" font-size="25.92" >N</text>
</svg>
</g>
</svg>
