<?xml version="1.0"?>
<svg version="1.1" id="topsvg"
xmlns="http://www.w3.org/2000/svg" xmlns:xlink="http://www.w3.org/1999/xlink"
xmlns:cml="http://www.xml-cml.org/schema" x="0" y="0" width="200px" height="200px" viewBox="0 0 100 100">
<title>GD105.sdf - Open Babel Depiction</title>
<rect x="0" y="0" width="100" height="100" fill="white"/>
<g transform="translate(0,0)">
<svg width="100" height="100" x="0" y="0" viewBox="0 0 675.079 662.812"
font-family="sans-serif" stroke="rgb(0,0,0)" stroke-width="3"  stroke-linecap="round">
<line x1="300.1" y1="365.9" x2="300.1" y2="545.6" opacity="1.0" stroke="rgb(0,0,0)"  stroke-width="3"/>
<line x1="230.3" y1="174.0" x2="230.3" y2="135.4" opacity="1.0" stroke="rgb(0,0,0)"  stroke-width="3"/>
<line x1="117.2" y1="297.7" x2="78.6" y2="297.7" opacity="1.0" stroke="rgb(0,0,0)"  stroke-width="3"/>
<line x1="78.6" y1="297.7" x2="40.0" y2="297.7" opacity="1.0" stroke="rgb(0,0,0)"  stroke-width="3"/>
<line x1="59.3" y1="331.1" x2="78.6" y2="297.7" opacity="1.0" stroke="rgb(0,0,0)"  stroke-width="3"/>
<line x1="230.3" y1="135.4" x2="263.7" y2="116.1" opacity="1.0" stroke="rgb(0,0,0)"  stroke-width="3"/>
<line x1="196.9" y1="116.1" x2="230.3" y2="135.4" opacity="1.0" stroke="rgb(0,0,0)"  stroke-width="3"/>
<line x1="78.6" y1="297.7" x2="59.3" y2="264.3" opacity="1.0" stroke="rgb(0,0,0)"  stroke-width="3"/>
<line x1="230.3" y1="135.4" x2="230.3" y2="96.8" opacity="1.0" stroke="rgb(0,0,0)"  stroke-width="3"/>
<line x1="372.2" y1="126.8" x2="356.8" y2="106.3" opacity="1.0" stroke="rgb(0,0,0)"  stroke-width="3"/>
<line x1="333.5" y1="564.9" x2="367.0" y2="545.6" opacity="1.0" stroke="rgb(0,0,0)"  stroke-width="3"/>
<line x1="433.8" y1="507.0" x2="467.4" y2="487.6" opacity="1.0" stroke="rgb(0,0,0)"  stroke-width="3"/>
<line x1="534.4" y1="448.9" x2="568.0" y2="429.5" opacity="1.0" stroke="rgb(0,0,0)"  stroke-width="3"/>
<line x1="174.4" y1="263.2" x2="197.9" y2="232.5" opacity="1.0" stroke="rgb(0,0,0)"  stroke-width="3"/>
<line x1="197.9" y1="232.5" x2="231.6" y2="251.2" opacity="1.0" stroke="rgb(0,0,0)"  stroke-width="3"/>
<line x1="231.6" y1="251.2" x2="232.2" y2="276.8" opacity="1.0" stroke="rgb(0,0,0)"  stroke-width="3"/>
<line x1="219.6" y1="291.9" x2="194.4" y2="296.2" opacity="1.0" stroke="rgb(0,0,0)"  stroke-width="3"/>
<line x1="194.4" y1="296.2" x2="174.4" y2="263.2" opacity="1.0" stroke="rgb(0,0,0)"  stroke-width="3"/>
<line x1="197.4" y1="287.3" x2="183.7" y2="264.6" opacity="1.0" stroke="rgb(0,0,0)"  stroke-width="3"/>
<line x1="423.6" y1="262.8" x2="397.2" y2="234.6" opacity="1.0" stroke="rgb(0,0,0)"  stroke-width="3"/>
<line x1="397.2" y1="234.6" x2="362.3" y2="251.0" opacity="1.0" stroke="rgb(0,0,0)"  stroke-width="3"/>
<line x1="394.8" y1="243.7" x2="370.7" y2="254.9" opacity="1.0" stroke="rgb(0,0,0)"  stroke-width="3"/>
<line x1="362.3" y1="251.0" x2="365.4" y2="276.4" opacity="1.0" stroke="rgb(0,0,0)"  stroke-width="3"/>
<line x1="379.8" y1="291.7" x2="404.9" y2="296.6" opacity="1.0" stroke="rgb(0,0,0)"  stroke-width="3"/>
<line x1="404.9" y1="296.6" x2="423.6" y2="262.8" opacity="1.0" stroke="rgb(0,0,0)"  stroke-width="3"/>
<line x1="401.5" y1="287.8" x2="414.4" y2="264.6" opacity="1.0" stroke="rgb(0,0,0)"  stroke-width="3"/>
<line x1="418.7" y1="136.4" x2="393.1" y2="136.9" opacity="1.0" stroke="rgb(0,0,0)"  stroke-width="3"/>
<line x1="376.3" y1="149.6" x2="368.8" y2="174.1" opacity="1.0" stroke="rgb(0,0,0)"  stroke-width="3"/>
<line x1="368.8" y1="174.1" x2="400.5" y2="196.1" opacity="1.0" stroke="rgb(0,0,0)"  stroke-width="3"/>
<line x1="377.9" y1="171.6" x2="399.7" y2="186.8" opacity="1.0" stroke="rgb(0,0,0)"  stroke-width="3"/>
<line x1="400.5" y1="196.1" x2="431.3" y2="172.9" opacity="1.0" stroke="rgb(0,0,0)"  stroke-width="3"/>
<line x1="431.3" y1="172.9" x2="418.7" y2="136.4" opacity="1.0" stroke="rgb(0,0,0)"  stroke-width="3"/>
<line x1="422.5" y1="169.5" x2="413.8" y2="144.4" opacity="1.0" stroke="rgb(0,0,0)"  stroke-width="3"/>
<line x1="266.6" y1="346.8" x2="300.1" y2="365.9" opacity="1.0" stroke="rgb(0,0,0)"  stroke-width="3"/>
<line x1="300.1" y1="365.9" x2="333.4" y2="346.5" opacity="1.0" stroke="rgb(0,0,0)"  stroke-width="3"/>
<line x1="301.6" y1="356.7" x2="324.6" y2="343.3" opacity="1.0" stroke="rgb(0,0,0)"  stroke-width="3"/>
<line x1="333.4" y1="346.5" x2="333.2" y2="307.9" opacity="1.0" stroke="rgb(0,0,0)"  stroke-width="3"/>
<line x1="333.2" y1="307.9" x2="299.7" y2="288.7" opacity="1.0" stroke="rgb(0,0,0)"  stroke-width="3"/>
<line x1="324.4" y1="311.1" x2="301.3" y2="298.0" opacity="1.0" stroke="rgb(0,0,0)"  stroke-width="3"/>
<line x1="299.7" y1="288.7" x2="266.3" y2="308.2" opacity="1.0" stroke="rgb(0,0,0)"  stroke-width="3"/>
<line x1="266.3" y1="308.2" x2="266.6" y2="346.8" opacity="1.0" stroke="rgb(0,0,0)"  stroke-width="3"/>
<line x1="273.6" y1="314.2" x2="273.7" y2="340.8" opacity="1.0" stroke="rgb(0,0,0)"  stroke-width="3"/>
<line x1="298.8" y1="263.2" x2="299.7" y2="288.7" opacity="1.0" stroke="rgb(0,0,0)"  stroke-width="3"/>
<line x1="266.3" y1="308.2" x2="243.9" y2="296.0" opacity="1.0" stroke="rgb(0,0,0)"  stroke-width="3"/>
<line x1="231.6" y1="251.2" x2="264.7" y2="231.3" opacity="1.0" stroke="rgb(0,0,0)"  stroke-width="3"/>
<line x1="240.5" y1="254.3" x2="263.3" y2="240.6" opacity="1.0" stroke="rgb(0,0,0)"  stroke-width="3"/>
<line x1="264.7" y1="231.3" x2="287.1" y2="243.8" opacity="1.0" stroke="rgb(0,0,0)"  stroke-width="3"/>
<line x1="362.3" y1="251.0" x2="330.6" y2="228.9" opacity="1.0" stroke="rgb(0,0,0)"  stroke-width="3"/>
<line x1="330.6" y1="228.9" x2="309.2" y2="243.0" opacity="1.0" stroke="rgb(0,0,0)"  stroke-width="3"/>
<line x1="333.2" y1="307.9" x2="355.6" y2="295.5" opacity="1.0" stroke="rgb(0,0,0)"  stroke-width="3"/>
<line x1="137.1" y1="330.7" x2="175.7" y2="330.0" opacity="1.0" stroke="rgb(0,0,0)"  stroke-width="3"/>
<line x1="143.0" y1="323.4" x2="169.6" y2="322.9" opacity="1.0" stroke="rgb(0,0,0)"  stroke-width="3"/>
<line x1="175.7" y1="330.0" x2="194.4" y2="296.2" opacity="1.0" stroke="rgb(0,0,0)"  stroke-width="3"/>
<line x1="174.4" y1="263.2" x2="135.8" y2="263.9" opacity="1.0" stroke="rgb(0,0,0)"  stroke-width="3"/>
<line x1="135.8" y1="263.9" x2="117.2" y2="297.7" opacity="1.0" stroke="rgb(0,0,0)"  stroke-width="3"/>
<line x1="139.3" y1="272.6" x2="126.4" y2="295.9" opacity="1.0" stroke="rgb(0,0,0)"  stroke-width="3"/>
<line x1="117.2" y1="297.7" x2="137.1" y2="330.7" opacity="1.0" stroke="rgb(0,0,0)"  stroke-width="3"/>
<line x1="482.1" y1="295.1" x2="462.2" y2="262.0" opacity="1.0" stroke="rgb(0,0,0)"  stroke-width="3"/>
<line x1="472.9" y1="293.7" x2="459.1" y2="270.9" opacity="1.0" stroke="rgb(0,0,0)"  stroke-width="3"/>
<line x1="462.2" y1="262.0" x2="423.6" y2="262.8" opacity="1.0" stroke="rgb(0,0,0)"  stroke-width="3"/>
<line x1="404.9" y1="296.6" x2="424.9" y2="329.6" opacity="1.0" stroke="rgb(0,0,0)"  stroke-width="3"/>
<line x1="424.9" y1="329.6" x2="463.5" y2="328.9" opacity="1.0" stroke="rgb(0,0,0)"  stroke-width="3"/>
<line x1="430.7" y1="322.3" x2="457.3" y2="321.8" opacity="1.0" stroke="rgb(0,0,0)"  stroke-width="3"/>
<line x1="463.5" y1="328.9" x2="482.1" y2="295.1" opacity="1.0" stroke="rgb(0,0,0)"  stroke-width="3"/>
<line x1="368.8" y1="174.1" x2="333.9" y2="190.4" opacity="1.0" stroke="rgb(0,0,0)"  stroke-width="3"/>
<line x1="333.9" y1="190.4" x2="330.6" y2="228.9" opacity="1.0" stroke="rgb(0,0,0)"  stroke-width="3"/>
<line x1="340.6" y1="197.0" x2="338.3" y2="223.5" opacity="1.0" stroke="rgb(0,0,0)"  stroke-width="3"/>
<line x1="397.2" y1="234.6" x2="400.5" y2="196.1" opacity="1.0" stroke="rgb(0,0,0)"  stroke-width="3"/>
<line x1="481.8" y1="114.5" x2="443.9" y2="107.2" opacity="1.0" stroke="rgb(0,0,0)"  stroke-width="3"/>
<line x1="474.6" y1="120.4" x2="448.5" y2="115.4" opacity="1.0" stroke="rgb(0,0,0)"  stroke-width="3"/>
<line x1="443.9" y1="107.2" x2="418.7" y2="136.4" opacity="1.0" stroke="rgb(0,0,0)"  stroke-width="3"/>
<line x1="431.3" y1="172.9" x2="469.2" y2="180.2" opacity="1.0" stroke="rgb(0,0,0)"  stroke-width="3"/>
<line x1="469.2" y1="180.2" x2="494.5" y2="151.0" opacity="1.0" stroke="rgb(0,0,0)"  stroke-width="3"/>
<line x1="467.7" y1="170.9" x2="485.1" y2="150.8" opacity="1.0" stroke="rgb(0,0,0)"  stroke-width="3"/>
<line x1="494.5" y1="151.0" x2="481.8" y2="114.5" opacity="1.0" stroke="rgb(0,0,0)"  stroke-width="3"/>
<line x1="197.9" y1="232.5" x2="197.2" y2="193.9" opacity="1.0" stroke="rgb(0,0,0)"  stroke-width="3"/>
<line x1="205.0" y1="226.4" x2="204.5" y2="199.8" opacity="1.0" stroke="rgb(0,0,0)"  stroke-width="3"/>
<line x1="197.2" y1="193.9" x2="230.3" y2="174.0" opacity="1.0" stroke="rgb(0,0,0)"  stroke-width="3"/>
<line x1="230.3" y1="174.0" x2="264.0" y2="192.7" opacity="1.0" stroke="rgb(0,0,0)"  stroke-width="3"/>
<line x1="232.0" y1="183.2" x2="255.3" y2="196.1" opacity="1.0" stroke="rgb(0,0,0)"  stroke-width="3"/>
<line x1="264.0" y1="192.7" x2="264.7" y2="231.3" opacity="1.0" stroke="rgb(0,0,0)"  stroke-width="3"/>
<line x1="371.8" y1="70.8" x2="348.5" y2="40.0" opacity="1.0" stroke="rgb(0,0,0)"  stroke-width="3"/>
<line x1="348.5" y1="40.0" x2="310.2" y2="44.8" opacity="1.0" stroke="rgb(0,0,0)"  stroke-width="3"/>
<line x1="343.4" y1="47.9" x2="317.1" y2="51.2" opacity="1.0" stroke="rgb(0,0,0)"  stroke-width="3"/>
<line x1="310.2" y1="44.8" x2="295.2" y2="80.3" opacity="1.0" stroke="rgb(0,0,0)"  stroke-width="3"/>
<line x1="295.2" y1="80.3" x2="318.5" y2="111.1" opacity="1.0" stroke="rgb(0,0,0)"  stroke-width="3"/>
<line x1="304.6" y1="80.8" x2="320.6" y2="102.0" opacity="1.0" stroke="rgb(0,0,0)"  stroke-width="3"/>
<line x1="318.5" y1="111.1" x2="356.8" y2="106.3" opacity="1.0" stroke="rgb(0,0,0)"  stroke-width="3"/>
<line x1="356.8" y1="106.3" x2="371.8" y2="70.8" opacity="1.0" stroke="rgb(0,0,0)"  stroke-width="3"/>
<line x1="352.5" y1="98.0" x2="362.8" y2="73.5" opacity="1.0" stroke="rgb(0,0,0)"  stroke-width="3"/>
<line x1="266.7" y1="564.9" x2="266.7" y2="603.5" opacity="1.0" stroke="rgb(0,0,0)"  stroke-width="3"/>
<line x1="266.7" y1="603.5" x2="300.1" y2="622.8" opacity="1.0" stroke="rgb(0,0,0)"  stroke-width="3"/>
<line x1="275.5" y1="600.3" x2="298.5" y2="613.6" opacity="1.0" stroke="rgb(0,0,0)"  stroke-width="3"/>
<line x1="300.1" y1="622.8" x2="333.5" y2="603.5" opacity="1.0" stroke="rgb(0,0,0)"  stroke-width="3"/>
<line x1="333.5" y1="603.5" x2="333.5" y2="564.9" opacity="1.0" stroke="rgb(0,0,0)"  stroke-width="3"/>
<line x1="326.3" y1="597.5" x2="326.3" y2="570.9" opacity="1.0" stroke="rgb(0,0,0)"  stroke-width="3"/>
<line x1="333.5" y1="564.9" x2="300.1" y2="545.6" opacity="1.0" stroke="rgb(0,0,0)"  stroke-width="3"/>
<line x1="300.1" y1="545.6" x2="266.7" y2="564.9" opacity="1.0" stroke="rgb(0,0,0)"  stroke-width="3"/>
<line x1="298.5" y1="554.8" x2="275.5" y2="568.1" opacity="1.0" stroke="rgb(0,0,0)"  stroke-width="3"/>
<line x1="400.4" y1="564.9" x2="433.8" y2="545.6" opacity="1.0" stroke="rgb(0,0,0)"  stroke-width="3"/>
<line x1="433.8" y1="545.6" x2="433.8" y2="507.0" opacity="1.0" stroke="rgb(0,0,0)"  stroke-width="3"/>
<line x1="426.6" y1="539.6" x2="426.6" y2="513.0" opacity="1.0" stroke="rgb(0,0,0)"  stroke-width="3"/>
<line x1="433.8" y1="507.0" x2="400.4" y2="487.7" opacity="1.0" stroke="rgb(0,0,0)"  stroke-width="3"/>
<line x1="400.4" y1="487.7" x2="367.0" y2="507.0" opacity="1.0" stroke="rgb(0,0,0)"  stroke-width="3"/>
<line x1="398.8" y1="497.0" x2="375.8" y2="510.3" opacity="1.0" stroke="rgb(0,0,0)"  stroke-width="3"/>
<line x1="367.0" y1="507.0" x2="367.0" y2="545.6" opacity="1.0" stroke="rgb(0,0,0)"  stroke-width="3"/>
<line x1="367.0" y1="545.6" x2="400.4" y2="564.9" opacity="1.0" stroke="rgb(0,0,0)"  stroke-width="3"/>
<line x1="375.8" y1="542.4" x2="398.8" y2="555.7" opacity="1.0" stroke="rgb(0,0,0)"  stroke-width="3"/>
<line x1="500.9" y1="507.0" x2="534.4" y2="487.6" opacity="1.0" stroke="rgb(0,0,0)"  stroke-width="3"/>
<line x1="534.4" y1="487.6" x2="534.4" y2="448.9" opacity="1.0" stroke="rgb(0,0,0)"  stroke-width="3"/>
<line x1="527.2" y1="481.6" x2="527.2" y2="454.9" opacity="1.0" stroke="rgb(0,0,0)"  stroke-width="3"/>
<line x1="534.4" y1="448.9" x2="500.9" y2="429.5" opacity="1.0" stroke="rgb(0,0,0)"  stroke-width="3"/>
<line x1="500.9" y1="429.5" x2="467.4" y2="448.9" opacity="1.0" stroke="rgb(0,0,0)"  stroke-width="3"/>
<line x1="499.3" y1="438.8" x2="476.2" y2="452.2" opacity="1.0" stroke="rgb(0,0,0)"  stroke-width="3"/>
<line x1="467.4" y1="448.9" x2="467.4" y2="487.6" opacity="1.0" stroke="rgb(0,0,0)"  stroke-width="3"/>
<line x1="467.4" y1="487.6" x2="500.9" y2="507.0" opacity="1.0" stroke="rgb(0,0,0)"  stroke-width="3"/>
<line x1="476.2" y1="484.4" x2="499.3" y2="497.8" opacity="1.0" stroke="rgb(0,0,0)"  stroke-width="3"/>
<line x1="568.0" y1="545.7" x2="568.0" y2="507.0" opacity="1.0" stroke="rgb(0,0,0)"  stroke-width="3"/>
<line x1="560.8" y1="539.7" x2="560.8" y2="513.0" opacity="1.0" stroke="rgb(0,0,0)"  stroke-width="3"/>
<line x1="568.0" y1="507.0" x2="534.4" y2="487.6" opacity="1.0" stroke="rgb(0,0,0)"  stroke-width="3"/>
<line x1="500.9" y1="507.0" x2="500.9" y2="545.7" opacity="1.0" stroke="rgb(0,0,0)"  stroke-width="3"/>
<line x1="500.9" y1="545.7" x2="534.4" y2="565.1" opacity="1.0" stroke="rgb(0,0,0)"  stroke-width="3"/>
<line x1="509.7" y1="542.5" x2="532.8" y2="555.9" opacity="1.0" stroke="rgb(0,0,0)"  stroke-width="3"/>
<line x1="534.4" y1="565.1" x2="568.0" y2="545.7" opacity="1.0" stroke="rgb(0,0,0)"  stroke-width="3"/>
<line x1="433.8" y1="390.8" x2="433.8" y2="429.5" opacity="1.0" stroke="rgb(0,0,0)"  stroke-width="3"/>
<line x1="441.0" y1="396.8" x2="441.0" y2="423.5" opacity="1.0" stroke="rgb(0,0,0)"  stroke-width="3"/>
<line x1="433.8" y1="429.5" x2="467.4" y2="448.9" opacity="1.0" stroke="rgb(0,0,0)"  stroke-width="3"/>
<line x1="500.9" y1="429.5" x2="500.9" y2="390.8" opacity="1.0" stroke="rgb(0,0,0)"  stroke-width="3"/>
<line x1="500.9" y1="390.8" x2="467.4" y2="371.4" opacity="1.0" stroke="rgb(0,0,0)"  stroke-width="3"/>
<line x1="492.1" y1="394.1" x2="469.0" y2="380.7" opacity="1.0" stroke="rgb(0,0,0)"  stroke-width="3"/>
<line x1="467.4" y1="371.4" x2="433.8" y2="390.8" opacity="1.0" stroke="rgb(0,0,0)"  stroke-width="3"/>
<line x1="601.5" y1="448.9" x2="635.1" y2="429.5" opacity="1.0" stroke="rgb(0,0,0)"  stroke-width="3"/>
<line x1="635.1" y1="429.5" x2="635.1" y2="390.8" opacity="1.0" stroke="rgb(0,0,0)"  stroke-width="3"/>
<line x1="627.9" y1="423.5" x2="627.9" y2="396.8" opacity="1.0" stroke="rgb(0,0,0)"  stroke-width="3"/>
<line x1="635.1" y1="390.8" x2="601.5" y2="371.4" opacity="1.0" stroke="rgb(0,0,0)"  stroke-width="3"/>
<line x1="601.5" y1="371.4" x2="568.0" y2="390.8" opacity="1.0" stroke="rgb(0,0,0)"  stroke-width="3"/>
<line x1="599.9" y1="380.7" x2="576.8" y2="394.1" opacity="1.0" stroke="rgb(0,0,0)"  stroke-width="3"/>
<line x1="568.0" y1="390.8" x2="568.0" y2="429.5" opacity="1.0" stroke="rgb(0,0,0)"  stroke-width="3"/>
<line x1="568.0" y1="429.5" x2="601.5" y2="448.9" opacity="1.0" stroke="rgb(0,0,0)"  stroke-width="3"/>
<line x1="576.8" y1="426.3" x2="599.9" y2="439.7" opacity="1.0" stroke="rgb(0,0,0)"  stroke-width="3"/>
<text x="374.066740" y="145.125982" fill="rgb(12,12,255)" stroke-width="0" font-weight="bold" font-size="25.92" >N</text>
<text x="361.036091" y="297.278167" fill="rgb(12,12,255)" stroke-width="0" font-weight="bold" font-size="25.92" >N</text>
<text x="226.443322" y="297.781937" fill="rgb(12,12,255)" stroke-width="0" font-weight="bold" font-size="25.92" >N</text>
<text x="292.394668" y="258.166405" fill="rgb(255,181,181)" stroke-width="0" font-weight="bold" font-size="25.92" >B</text>
</svg>
</g>
</svg>
