<?xml version="1.0"?>
<svg version="1.1" id="topsvg"
xmlns="http://www.w3.org/2000/svg" xmlns:xlink="http://www.w3.org/1999/xlink"
xmlns:cml="http://www.xml-cml.org/schema" x="0" y="0" width="200px" height="200px" viewBox="0 0 100 100">
<title>GD103.sdf - Open Babel Depiction</title>
<rect x="0" y="0" width="100" height="100" fill="white"/>
<g transform="translate(0,0)">
<svg width="100" height="100" x="0" y="0" viewBox="0 0 590.855 534.25"
font-family="sans-serif" stroke="rgb(0,0,0)" stroke-width="3"  stroke-linecap="round">
<line x1="408.0" y1="272.5" x2="420.2" y2="310.2" opacity="1.0" stroke="rgb(0,0,0)"  stroke-width="3"/>
<line x1="473.3" y1="251.3" x2="434.5" y2="243.0" opacity="1.0" stroke="rgb(0,0,0)"  stroke-width="3"/>
<line x1="303.1" y1="335.7" x2="303.1" y2="375.3" opacity="1.0" stroke="rgb(0,0,0)"  stroke-width="3"/>
<line x1="268.7" y1="434.8" x2="234.4" y2="454.6" opacity="1.0" stroke="rgb(0,0,0)"  stroke-width="3"/>
<line x1="234.4" y1="454.6" x2="200.1" y2="434.8" opacity="1.0" stroke="rgb(0,0,0)"  stroke-width="3"/>
<line x1="234.4" y1="454.6" x2="234.4" y2="494.2" opacity="1.0" stroke="rgb(0,0,0)"  stroke-width="3"/>
<line x1="234.4" y1="454.6" x2="200.1" y2="474.4" opacity="1.0" stroke="rgb(0,0,0)"  stroke-width="3"/>
<line x1="337.4" y1="434.8" x2="371.8" y2="454.6" opacity="1.0" stroke="rgb(0,0,0)"  stroke-width="3"/>
<line x1="371.8" y1="454.6" x2="406.1" y2="434.8" opacity="1.0" stroke="rgb(0,0,0)"  stroke-width="3"/>
<line x1="371.8" y1="454.6" x2="371.8" y2="494.2" opacity="1.0" stroke="rgb(0,0,0)"  stroke-width="3"/>
<line x1="371.8" y1="454.6" x2="406.1" y2="474.4" opacity="1.0" stroke="rgb(0,0,0)"  stroke-width="3"/>
<line x1="131.8" y1="161.3" x2="108.7" y2="174.7" opacity="1.0" stroke="rgb(0,0,0)"  stroke-width="3"/>
<line x1="171.7" y1="243.0" x2="191.5" y2="208.7" opacity="1.0" stroke="rgb(0,0,0)"  stroke-width="3"/>
<line x1="191.5" y1="208.7" x2="230.3" y2="216.9" opacity="1.0" stroke="rgb(0,0,0)"  stroke-width="3"/>
<line x1="195.9" y1="217.0" x2="222.9" y2="222.7" opacity="1.0" stroke="rgb(0,0,0)"  stroke-width="3"/>
<line x1="230.3" y1="216.9" x2="233.1" y2="243.4" opacity="1.0" stroke="rgb(0,0,0)"  stroke-width="3"/>
<line x1="222.5" y1="261.6" x2="198.2" y2="272.5" opacity="1.0" stroke="rgb(0,0,0)"  stroke-width="3"/>
<line x1="198.2" y1="272.5" x2="171.7" y2="243.0" opacity="1.0" stroke="rgb(0,0,0)"  stroke-width="3"/>
<line x1="199.5" y1="263.2" x2="181.0" y2="242.7" opacity="1.0" stroke="rgb(0,0,0)"  stroke-width="3"/>
<line x1="147.2" y1="115.4" x2="185.9" y2="107.2" opacity="1.0" stroke="rgb(0,0,0)"  stroke-width="3"/>
<line x1="154.5" y1="121.2" x2="181.6" y2="115.5" opacity="1.0" stroke="rgb(0,0,0)"  stroke-width="3"/>
<line x1="185.9" y1="107.2" x2="205.8" y2="141.5" opacity="1.0" stroke="rgb(0,0,0)"  stroke-width="3"/>
<line x1="205.8" y1="141.5" x2="179.2" y2="171.0" opacity="1.0" stroke="rgb(0,0,0)"  stroke-width="3"/>
<line x1="196.4" y1="141.2" x2="177.9" y2="161.7" opacity="1.0" stroke="rgb(0,0,0)"  stroke-width="3"/>
<line x1="179.2" y1="171.0" x2="154.9" y2="160.1" opacity="1.0" stroke="rgb(0,0,0)"  stroke-width="3"/>
<line x1="144.4" y1="141.9" x2="147.2" y2="115.4" opacity="1.0" stroke="rgb(0,0,0)"  stroke-width="3"/>
<line x1="408.0" y1="272.5" x2="434.5" y2="243.0" opacity="1.0" stroke="rgb(0,0,0)"  stroke-width="3"/>
<line x1="406.6" y1="263.2" x2="425.1" y2="242.7" opacity="1.0" stroke="rgb(0,0,0)"  stroke-width="3"/>
<line x1="434.5" y1="243.0" x2="414.7" y2="208.7" opacity="1.0" stroke="rgb(0,0,0)"  stroke-width="3"/>
<line x1="414.7" y1="208.7" x2="375.9" y2="216.9" opacity="1.0" stroke="rgb(0,0,0)"  stroke-width="3"/>
<line x1="410.3" y1="217.0" x2="383.3" y2="222.7" opacity="1.0" stroke="rgb(0,0,0)"  stroke-width="3"/>
<line x1="375.9" y1="216.9" x2="373.1" y2="243.4" opacity="1.0" stroke="rgb(0,0,0)"  stroke-width="3"/>
<line x1="383.6" y1="261.6" x2="408.0" y2="272.5" opacity="1.0" stroke="rgb(0,0,0)"  stroke-width="3"/>
<line x1="268.7" y1="315.8" x2="303.1" y2="335.7" opacity="1.0" stroke="rgb(0,0,0)"  stroke-width="3"/>
<line x1="303.1" y1="335.7" x2="337.4" y2="315.8" opacity="1.0" stroke="rgb(0,0,0)"  stroke-width="3"/>
<line x1="304.7" y1="326.4" x2="328.6" y2="312.6" opacity="1.0" stroke="rgb(0,0,0)"  stroke-width="3"/>
<line x1="337.4" y1="315.8" x2="337.4" y2="276.2" opacity="1.0" stroke="rgb(0,0,0)"  stroke-width="3"/>
<line x1="337.4" y1="276.2" x2="303.1" y2="256.4" opacity="1.0" stroke="rgb(0,0,0)"  stroke-width="3"/>
<line x1="328.6" y1="279.4" x2="304.7" y2="265.6" opacity="1.0" stroke="rgb(0,0,0)"  stroke-width="3"/>
<line x1="303.1" y1="256.4" x2="268.7" y2="276.2" opacity="1.0" stroke="rgb(0,0,0)"  stroke-width="3"/>
<line x1="268.7" y1="276.2" x2="268.7" y2="315.8" opacity="1.0" stroke="rgb(0,0,0)"  stroke-width="3"/>
<line x1="275.9" y1="282.2" x2="275.9" y2="309.8" opacity="1.0" stroke="rgb(0,0,0)"  stroke-width="3"/>
<line x1="230.3" y1="216.9" x2="256.8" y2="187.5" opacity="1.0" stroke="rgb(0,0,0)"  stroke-width="3"/>
<line x1="256.8" y1="187.5" x2="292.1" y2="209.8" opacity="1.0" stroke="rgb(0,0,0)"  stroke-width="3"/>
<line x1="303.1" y1="229.7" x2="303.1" y2="256.4" opacity="1.0" stroke="rgb(0,0,0)"  stroke-width="3"/>
<line x1="268.7" y1="276.2" x2="245.7" y2="262.9" opacity="1.0" stroke="rgb(0,0,0)"  stroke-width="3"/>
<line x1="132.9" y1="48.2" x2="171.7" y2="40.0" opacity="1.0" stroke="rgb(0,0,0)"  stroke-width="3"/>
<line x1="171.7" y1="40.0" x2="198.2" y2="69.5" opacity="1.0" stroke="rgb(0,0,0)"  stroke-width="3"/>
<line x1="170.3" y1="49.3" x2="188.8" y2="69.8" opacity="1.0" stroke="rgb(0,0,0)"  stroke-width="3"/>
<line x1="198.2" y1="69.5" x2="185.9" y2="107.2" opacity="1.0" stroke="rgb(0,0,0)"  stroke-width="3"/>
<line x1="147.2" y1="115.4" x2="120.6" y2="86.0" opacity="1.0" stroke="rgb(0,0,0)"  stroke-width="3"/>
<line x1="120.6" y1="86.0" x2="132.9" y2="48.2" opacity="1.0" stroke="rgb(0,0,0)"  stroke-width="3"/>
<line x1="129.3" y1="82.5" x2="137.9" y2="56.2" opacity="1.0" stroke="rgb(0,0,0)"  stroke-width="3"/>
<line x1="337.4" y1="276.2" x2="360.5" y2="262.9" opacity="1.0" stroke="rgb(0,0,0)"  stroke-width="3"/>
<line x1="375.9" y1="216.9" x2="349.4" y2="187.5" opacity="1.0" stroke="rgb(0,0,0)"  stroke-width="3"/>
<line x1="349.4" y1="187.5" x2="314.1" y2="209.8" opacity="1.0" stroke="rgb(0,0,0)"  stroke-width="3"/>
<line x1="400.4" y1="141.5" x2="361.6" y2="149.8" opacity="1.0" stroke="rgb(0,0,0)"  stroke-width="3"/>
<line x1="361.6" y1="149.8" x2="349.4" y2="187.5" opacity="1.0" stroke="rgb(0,0,0)"  stroke-width="3"/>
<line x1="366.6" y1="157.7" x2="358.1" y2="184.0" opacity="1.0" stroke="rgb(0,0,0)"  stroke-width="3"/>
<line x1="414.7" y1="208.7" x2="426.9" y2="171.0" opacity="1.0" stroke="rgb(0,0,0)"  stroke-width="3"/>
<line x1="426.9" y1="171.0" x2="400.4" y2="141.5" opacity="1.0" stroke="rgb(0,0,0)"  stroke-width="3"/>
<line x1="417.6" y1="171.3" x2="399.1" y2="150.8" opacity="1.0" stroke="rgb(0,0,0)"  stroke-width="3"/>
<line x1="347.3" y1="82.6" x2="386.1" y2="74.3" opacity="1.0" stroke="rgb(0,0,0)"  stroke-width="3"/>
<line x1="386.1" y1="74.3" x2="412.7" y2="103.8" opacity="1.0" stroke="rgb(0,0,0)"  stroke-width="3"/>
<line x1="384.8" y1="83.6" x2="403.3" y2="104.2" opacity="1.0" stroke="rgb(0,0,0)"  stroke-width="3"/>
<line x1="412.7" y1="103.8" x2="400.4" y2="141.5" opacity="1.0" stroke="rgb(0,0,0)"  stroke-width="3"/>
<line x1="361.6" y1="149.8" x2="335.1" y2="120.3" opacity="1.0" stroke="rgb(0,0,0)"  stroke-width="3"/>
<line x1="335.1" y1="120.3" x2="347.3" y2="82.6" opacity="1.0" stroke="rgb(0,0,0)"  stroke-width="3"/>
<line x1="343.8" y1="116.8" x2="352.3" y2="90.5" opacity="1.0" stroke="rgb(0,0,0)"  stroke-width="3"/>
<line x1="268.7" y1="395.1" x2="268.7" y2="434.8" opacity="1.0" stroke="rgb(0,0,0)"  stroke-width="3"/>
<line x1="268.7" y1="434.8" x2="303.1" y2="454.6" opacity="1.0" stroke="rgb(0,0,0)"  stroke-width="3"/>
<line x1="277.5" y1="431.5" x2="301.5" y2="445.4" opacity="1.0" stroke="rgb(0,0,0)"  stroke-width="3"/>
<line x1="303.1" y1="454.6" x2="337.4" y2="434.8" opacity="1.0" stroke="rgb(0,0,0)"  stroke-width="3"/>
<line x1="337.4" y1="434.8" x2="337.4" y2="395.1" opacity="1.0" stroke="rgb(0,0,0)"  stroke-width="3"/>
<line x1="330.2" y1="428.8" x2="330.2" y2="401.1" opacity="1.0" stroke="rgb(0,0,0)"  stroke-width="3"/>
<line x1="337.4" y1="395.1" x2="303.1" y2="375.3" opacity="1.0" stroke="rgb(0,0,0)"  stroke-width="3"/>
<line x1="303.1" y1="375.3" x2="268.7" y2="395.1" opacity="1.0" stroke="rgb(0,0,0)"  stroke-width="3"/>
<line x1="301.5" y1="384.5" x2="277.5" y2="398.4" opacity="1.0" stroke="rgb(0,0,0)"  stroke-width="3"/>
<line x1="147.2" y1="318.4" x2="120.6" y2="289.0" opacity="1.0" stroke="rgb(0,0,0)"  stroke-width="3"/>
<line x1="120.6" y1="289.0" x2="132.9" y2="251.3" opacity="1.0" stroke="rgb(0,0,0)"  stroke-width="3"/>
<line x1="129.3" y1="285.5" x2="137.9" y2="259.2" opacity="1.0" stroke="rgb(0,0,0)"  stroke-width="3"/>
<line x1="132.9" y1="251.3" x2="171.7" y2="243.0" opacity="1.0" stroke="rgb(0,0,0)"  stroke-width="3"/>
<line x1="198.2" y1="272.5" x2="185.9" y2="310.2" opacity="1.0" stroke="rgb(0,0,0)"  stroke-width="3"/>
<line x1="185.9" y1="310.2" x2="147.2" y2="318.4" opacity="1.0" stroke="rgb(0,0,0)"  stroke-width="3"/>
<line x1="178.6" y1="304.4" x2="151.5" y2="310.1" opacity="1.0" stroke="rgb(0,0,0)"  stroke-width="3"/>
<line x1="191.5" y1="208.7" x2="179.2" y2="171.0" opacity="1.0" stroke="rgb(0,0,0)"  stroke-width="3"/>
<line x1="205.8" y1="141.5" x2="244.5" y2="149.8" opacity="1.0" stroke="rgb(0,0,0)"  stroke-width="3"/>
<line x1="244.5" y1="149.8" x2="256.8" y2="187.5" opacity="1.0" stroke="rgb(0,0,0)"  stroke-width="3"/>
<line x1="239.6" y1="157.7" x2="248.1" y2="184.0" opacity="1.0" stroke="rgb(0,0,0)"  stroke-width="3"/>
<line x1="393.7" y1="339.7" x2="406.0" y2="377.4" opacity="1.0" stroke="rgb(0,0,0)"  stroke-width="3"/>
<line x1="406.0" y1="377.4" x2="444.7" y2="385.6" opacity="1.0" stroke="rgb(0,0,0)"  stroke-width="3"/>
<line x1="413.3" y1="371.6" x2="440.4" y2="377.3" opacity="1.0" stroke="rgb(0,0,0)"  stroke-width="3"/>
<line x1="444.7" y1="385.6" x2="471.3" y2="356.1" opacity="1.0" stroke="rgb(0,0,0)"  stroke-width="3"/>
<line x1="471.3" y1="356.1" x2="459.0" y2="318.4" opacity="1.0" stroke="rgb(0,0,0)"  stroke-width="3"/>
<line x1="462.6" y1="352.7" x2="454.0" y2="326.4" opacity="1.0" stroke="rgb(0,0,0)"  stroke-width="3"/>
<line x1="459.0" y1="318.4" x2="420.2" y2="310.2" opacity="1.0" stroke="rgb(0,0,0)"  stroke-width="3"/>
<line x1="420.2" y1="310.2" x2="393.7" y2="339.7" opacity="1.0" stroke="rgb(0,0,0)"  stroke-width="3"/>
<line x1="421.6" y1="319.5" x2="403.1" y2="340.0" opacity="1.0" stroke="rgb(0,0,0)"  stroke-width="3"/>
<line x1="485.5" y1="289.0" x2="524.3" y2="297.2" opacity="1.0" stroke="rgb(0,0,0)"  stroke-width="3"/>
<line x1="524.3" y1="297.2" x2="550.9" y2="267.7" opacity="1.0" stroke="rgb(0,0,0)"  stroke-width="3"/>
<line x1="523.0" y1="287.9" x2="541.5" y2="267.4" opacity="1.0" stroke="rgb(0,0,0)"  stroke-width="3"/>
<line x1="550.9" y1="267.7" x2="538.6" y2="230.0" opacity="1.0" stroke="rgb(0,0,0)"  stroke-width="3"/>
<line x1="538.6" y1="230.0" x2="499.8" y2="221.8" opacity="1.0" stroke="rgb(0,0,0)"  stroke-width="3"/>
<line x1="531.2" y1="235.8" x2="504.2" y2="230.1" opacity="1.0" stroke="rgb(0,0,0)"  stroke-width="3"/>
<line x1="499.8" y1="221.8" x2="473.3" y2="251.3" opacity="1.0" stroke="rgb(0,0,0)"  stroke-width="3"/>
<line x1="473.3" y1="251.3" x2="485.5" y2="289.0" opacity="1.0" stroke="rgb(0,0,0)"  stroke-width="3"/>
<line x1="482.0" y1="254.7" x2="490.5" y2="281.0" opacity="1.0" stroke="rgb(0,0,0)"  stroke-width="3"/>
<line x1="74.3" y1="154.8" x2="40.0" y2="174.7" opacity="1.0" stroke="rgb(0,0,0)"  stroke-width="3"/>
<line x1="40.0" y1="174.7" x2="40.0" y2="214.3" opacity="1.0" stroke="rgb(0,0,0)"  stroke-width="3"/>
<line x1="47.2" y1="180.7" x2="47.2" y2="208.3" opacity="1.0" stroke="rgb(0,0,0)"  stroke-width="3"/>
<line x1="40.0" y1="214.3" x2="74.3" y2="234.1" opacity="1.0" stroke="rgb(0,0,0)"  stroke-width="3"/>
<line x1="74.3" y1="234.1" x2="108.7" y2="214.3" opacity="1.0" stroke="rgb(0,0,0)"  stroke-width="3"/>
<line x1="75.9" y1="224.9" x2="99.9" y2="211.1" opacity="1.0" stroke="rgb(0,0,0)"  stroke-width="3"/>
<line x1="108.7" y1="214.3" x2="108.7" y2="174.7" opacity="1.0" stroke="rgb(0,0,0)"  stroke-width="3"/>
<line x1="108.7" y1="174.7" x2="74.3" y2="154.8" opacity="1.0" stroke="rgb(0,0,0)"  stroke-width="3"/>
<line x1="99.9" y1="177.9" x2="75.9" y2="164.1" opacity="1.0" stroke="rgb(0,0,0)"  stroke-width="3"/>
<text x="297.083754" y="224.708903" fill="rgb(255,181,181)" stroke-width="0" font-weight="bold" font-size="25.92" >B</text>
<text x="137.010347" y="162.847820" fill="rgb(12,12,255)" stroke-width="0" font-weight="bold" font-size="25.92" >N</text>
<text x="365.757351" y="264.357572" fill="rgb(12,12,255)" stroke-width="0" font-weight="bold" font-size="25.92" >N</text>
<text x="228.410157" y="264.357572" fill="rgb(12,12,255)" stroke-width="0" font-weight="bold" font-size="25.92" >N</text>
</svg>
</g>
</svg>
