<?xml version="1.0"?>
<svg version="1.1" id="topsvg"
xmlns="http://www.w3.org/2000/svg" xmlns:xlink="http://www.w3.org/1999/xlink"
xmlns:cml="http://www.xml-cml.org/schema" x="0" y="0" width="200px" height="200px" viewBox="0 0 100 100">
<title>GD106.sdf - Open Babel Depiction</title>
<rect x="0" y="0" width="100" height="100" fill="white"/>
<g transform="translate(0,0)">
<svg width="100" height="100" x="0" y="0" viewBox="0 0 551.477 543.869"
font-family="sans-serif" stroke="rgb(0,0,0)" stroke-width="3"  stroke-linecap="round">
<line x1="236.1" y1="173.6" x2="236.1" y2="133.8" opacity="1.0" stroke="rgb(0,0,0)"  stroke-width="3"/>
<line x1="119.1" y1="313.6" x2="79.6" y2="317.8" opacity="1.0" stroke="rgb(0,0,0)"  stroke-width="3"/>
<line x1="305.1" y1="372.6" x2="305.1" y2="424.3" opacity="1.0" stroke="rgb(0,0,0)"  stroke-width="3"/>
<line x1="236.1" y1="133.8" x2="236.1" y2="94.0" opacity="1.0" stroke="rgb(0,0,0)"  stroke-width="3"/>
<line x1="270.6" y1="113.9" x2="236.1" y2="133.8" opacity="1.0" stroke="rgb(0,0,0)"  stroke-width="3"/>
<line x1="79.6" y1="317.8" x2="40.0" y2="321.9" opacity="1.0" stroke="rgb(0,0,0)"  stroke-width="3"/>
<line x1="63.4" y1="354.1" x2="79.6" y2="317.8" opacity="1.0" stroke="rgb(0,0,0)"  stroke-width="3"/>
<line x1="385.9" y1="130.1" x2="370.1" y2="108.5" opacity="1.0" stroke="rgb(0,0,0)"  stroke-width="3"/>
<line x1="236.1" y1="133.8" x2="201.7" y2="113.9" opacity="1.0" stroke="rgb(0,0,0)"  stroke-width="3"/>
<line x1="79.6" y1="317.8" x2="56.2" y2="285.6" opacity="1.0" stroke="rgb(0,0,0)"  stroke-width="3"/>
<line x1="270.6" y1="444.2" x2="236.1" y2="424.3" opacity="1.0" stroke="rgb(0,0,0)"  stroke-width="3"/>
<line x1="411.8" y1="305.3" x2="435.2" y2="273.1" opacity="1.0" stroke="rgb(0,0,0)"  stroke-width="3"/>
<line x1="435.2" y1="273.1" x2="411.8" y2="240.9" opacity="1.0" stroke="rgb(0,0,0)"  stroke-width="3"/>
<line x1="411.8" y1="240.9" x2="374.0" y2="253.2" opacity="1.0" stroke="rgb(0,0,0)"  stroke-width="3"/>
<line x1="408.3" y1="249.6" x2="381.9" y2="258.2" opacity="1.0" stroke="rgb(0,0,0)"  stroke-width="3"/>
<line x1="374.0" y1="253.2" x2="374.0" y2="280.0" opacity="1.0" stroke="rgb(0,0,0)"  stroke-width="3"/>
<line x1="386.3" y1="297.0" x2="411.8" y2="305.3" opacity="1.0" stroke="rgb(0,0,0)"  stroke-width="3"/>
<line x1="174.9" y1="273.1" x2="198.3" y2="305.3" opacity="1.0" stroke="rgb(0,0,0)"  stroke-width="3"/>
<line x1="184.3" y1="273.7" x2="200.6" y2="296.2" opacity="1.0" stroke="rgb(0,0,0)"  stroke-width="3"/>
<line x1="198.3" y1="305.3" x2="223.8" y2="297.0" opacity="1.0" stroke="rgb(0,0,0)"  stroke-width="3"/>
<line x1="236.1" y1="280.0" x2="236.1" y2="253.2" opacity="1.0" stroke="rgb(0,0,0)"  stroke-width="3"/>
<line x1="236.1" y1="253.2" x2="201.7" y2="233.3" opacity="1.0" stroke="rgb(0,0,0)"  stroke-width="3"/>
<line x1="227.3" y1="256.4" x2="203.3" y2="242.5" opacity="1.0" stroke="rgb(0,0,0)"  stroke-width="3"/>
<line x1="201.7" y1="233.3" x2="174.9" y2="273.1" opacity="1.0" stroke="rgb(0,0,0)"  stroke-width="3"/>
<line x1="433.4" y1="140.6" x2="406.6" y2="140.6" opacity="1.0" stroke="rgb(0,0,0)"  stroke-width="3"/>
<line x1="389.8" y1="153.0" x2="381.9" y2="178.2" opacity="1.0" stroke="rgb(0,0,0)"  stroke-width="3"/>
<line x1="381.9" y1="178.2" x2="414.4" y2="201.2" opacity="1.0" stroke="rgb(0,0,0)"  stroke-width="3"/>
<line x1="390.9" y1="175.8" x2="413.6" y2="191.8" opacity="1.0" stroke="rgb(0,0,0)"  stroke-width="3"/>
<line x1="414.4" y1="201.2" x2="446.2" y2="178.2" opacity="1.0" stroke="rgb(0,0,0)"  stroke-width="3"/>
<line x1="446.2" y1="178.2" x2="433.4" y2="140.6" opacity="1.0" stroke="rgb(0,0,0)"  stroke-width="3"/>
<line x1="437.5" y1="174.9" x2="428.5" y2="148.6" opacity="1.0" stroke="rgb(0,0,0)"  stroke-width="3"/>
<line x1="305.1" y1="372.6" x2="339.5" y2="352.7" opacity="1.0" stroke="rgb(0,0,0)"  stroke-width="3"/>
<line x1="306.6" y1="363.3" x2="330.7" y2="349.4" opacity="1.0" stroke="rgb(0,0,0)"  stroke-width="3"/>
<line x1="339.5" y1="352.7" x2="339.5" y2="312.9" opacity="1.0" stroke="rgb(0,0,0)"  stroke-width="3"/>
<line x1="339.5" y1="312.9" x2="305.1" y2="293.0" opacity="1.0" stroke="rgb(0,0,0)"  stroke-width="3"/>
<line x1="330.7" y1="316.1" x2="306.6" y2="302.2" opacity="1.0" stroke="rgb(0,0,0)"  stroke-width="3"/>
<line x1="305.1" y1="293.0" x2="270.6" y2="312.9" opacity="1.0" stroke="rgb(0,0,0)"  stroke-width="3"/>
<line x1="270.6" y1="312.9" x2="270.6" y2="352.7" opacity="1.0" stroke="rgb(0,0,0)"  stroke-width="3"/>
<line x1="277.8" y1="318.9" x2="277.8" y2="346.7" opacity="1.0" stroke="rgb(0,0,0)"  stroke-width="3"/>
<line x1="270.6" y1="352.7" x2="305.1" y2="372.6" opacity="1.0" stroke="rgb(0,0,0)"  stroke-width="3"/>
<line x1="339.5" y1="312.9" x2="362.7" y2="299.5" opacity="1.0" stroke="rgb(0,0,0)"  stroke-width="3"/>
<line x1="374.0" y1="253.2" x2="339.5" y2="233.3" opacity="1.0" stroke="rgb(0,0,0)"  stroke-width="3"/>
<line x1="339.5" y1="233.3" x2="316.3" y2="246.7" opacity="1.0" stroke="rgb(0,0,0)"  stroke-width="3"/>
<line x1="305.1" y1="266.2" x2="305.1" y2="293.0" opacity="1.0" stroke="rgb(0,0,0)"  stroke-width="3"/>
<line x1="491.0" y1="313.6" x2="474.8" y2="277.2" opacity="1.0" stroke="rgb(0,0,0)"  stroke-width="3"/>
<line x1="474.8" y1="277.2" x2="435.2" y2="273.1" opacity="1.0" stroke="rgb(0,0,0)"  stroke-width="3"/>
<line x1="468.1" y1="283.8" x2="440.4" y2="280.9" opacity="1.0" stroke="rgb(0,0,0)"  stroke-width="3"/>
<line x1="411.8" y1="305.3" x2="428.0" y2="341.6" opacity="1.0" stroke="rgb(0,0,0)"  stroke-width="3"/>
<line x1="420.8" y1="307.8" x2="432.1" y2="333.2" opacity="1.0" stroke="rgb(0,0,0)"  stroke-width="3"/>
<line x1="428.0" y1="341.6" x2="467.6" y2="345.8" opacity="1.0" stroke="rgb(0,0,0)"  stroke-width="3"/>
<line x1="467.6" y1="345.8" x2="491.0" y2="313.6" opacity="1.0" stroke="rgb(0,0,0)"  stroke-width="3"/>
<line x1="465.3" y1="336.7" x2="481.6" y2="314.2" opacity="1.0" stroke="rgb(0,0,0)"  stroke-width="3"/>
<line x1="498.7" y1="118.4" x2="459.6" y2="110.6" opacity="1.0" stroke="rgb(0,0,0)"  stroke-width="3"/>
<line x1="491.4" y1="124.3" x2="464.1" y2="118.9" opacity="1.0" stroke="rgb(0,0,0)"  stroke-width="3"/>
<line x1="459.6" y1="110.6" x2="433.4" y2="140.6" opacity="1.0" stroke="rgb(0,0,0)"  stroke-width="3"/>
<line x1="446.2" y1="178.2" x2="485.3" y2="186.0" opacity="1.0" stroke="rgb(0,0,0)"  stroke-width="3"/>
<line x1="485.3" y1="186.0" x2="511.5" y2="156.0" opacity="1.0" stroke="rgb(0,0,0)"  stroke-width="3"/>
<line x1="483.8" y1="176.7" x2="502.1" y2="155.8" opacity="1.0" stroke="rgb(0,0,0)"  stroke-width="3"/>
<line x1="511.5" y1="156.0" x2="498.7" y2="118.4" opacity="1.0" stroke="rgb(0,0,0)"  stroke-width="3"/>
<line x1="293.8" y1="246.7" x2="270.6" y2="233.3" opacity="1.0" stroke="rgb(0,0,0)"  stroke-width="3"/>
<line x1="270.6" y1="233.3" x2="236.1" y2="253.2" opacity="1.0" stroke="rgb(0,0,0)"  stroke-width="3"/>
<line x1="247.4" y1="299.5" x2="270.6" y2="312.9" opacity="1.0" stroke="rgb(0,0,0)"  stroke-width="3"/>
<line x1="201.7" y1="193.5" x2="201.7" y2="233.3" opacity="1.0" stroke="rgb(0,0,0)"  stroke-width="3"/>
<line x1="270.6" y1="233.3" x2="270.6" y2="193.5" opacity="1.0" stroke="rgb(0,0,0)"  stroke-width="3"/>
<line x1="263.4" y1="227.3" x2="263.4" y2="199.5" opacity="1.0" stroke="rgb(0,0,0)"  stroke-width="3"/>
<line x1="270.6" y1="193.5" x2="236.1" y2="173.6" opacity="1.0" stroke="rgb(0,0,0)"  stroke-width="3"/>
<line x1="236.1" y1="173.6" x2="201.7" y2="193.5" opacity="1.0" stroke="rgb(0,0,0)"  stroke-width="3"/>
<line x1="234.5" y1="182.8" x2="210.5" y2="196.7" opacity="1.0" stroke="rgb(0,0,0)"  stroke-width="3"/>
<line x1="345.3" y1="193.9" x2="339.5" y2="233.3" opacity="1.0" stroke="rgb(0,0,0)"  stroke-width="3"/>
<line x1="351.5" y1="200.9" x2="347.5" y2="228.4" opacity="1.0" stroke="rgb(0,0,0)"  stroke-width="3"/>
<line x1="411.8" y1="240.9" x2="414.4" y2="201.2" opacity="1.0" stroke="rgb(0,0,0)"  stroke-width="3"/>
<line x1="381.9" y1="178.2" x2="345.3" y2="193.9" opacity="1.0" stroke="rgb(0,0,0)"  stroke-width="3"/>
<line x1="142.5" y1="345.8" x2="119.1" y2="313.6" opacity="1.0" stroke="rgb(0,0,0)"  stroke-width="3"/>
<line x1="119.1" y1="313.6" x2="135.3" y2="277.2" opacity="1.0" stroke="rgb(0,0,0)"  stroke-width="3"/>
<line x1="128.2" y1="311.0" x2="139.5" y2="285.7" opacity="1.0" stroke="rgb(0,0,0)"  stroke-width="3"/>
<line x1="135.3" y1="277.2" x2="174.9" y2="273.1" opacity="1.0" stroke="rgb(0,0,0)"  stroke-width="3"/>
<line x1="198.3" y1="305.3" x2="182.1" y2="341.6" opacity="1.0" stroke="rgb(0,0,0)"  stroke-width="3"/>
<line x1="182.1" y1="341.6" x2="142.5" y2="345.8" opacity="1.0" stroke="rgb(0,0,0)"  stroke-width="3"/>
<line x1="175.4" y1="335.1" x2="147.7" y2="338.0" opacity="1.0" stroke="rgb(0,0,0)"  stroke-width="3"/>
<line x1="386.0" y1="72.1" x2="362.5" y2="40.0" opacity="1.0" stroke="rgb(0,0,0)"  stroke-width="3"/>
<line x1="362.5" y1="40.0" x2="322.9" y2="44.4" opacity="1.0" stroke="rgb(0,0,0)"  stroke-width="3"/>
<line x1="357.3" y1="47.8" x2="329.7" y2="50.9" opacity="1.0" stroke="rgb(0,0,0)"  stroke-width="3"/>
<line x1="322.9" y1="44.4" x2="306.9" y2="80.8" opacity="1.0" stroke="rgb(0,0,0)"  stroke-width="3"/>
<line x1="306.9" y1="80.8" x2="330.5" y2="112.9" opacity="1.0" stroke="rgb(0,0,0)"  stroke-width="3"/>
<line x1="316.3" y1="81.4" x2="332.8" y2="103.8" opacity="1.0" stroke="rgb(0,0,0)"  stroke-width="3"/>
<line x1="330.5" y1="112.9" x2="370.1" y2="108.5" opacity="1.0" stroke="rgb(0,0,0)"  stroke-width="3"/>
<line x1="370.1" y1="108.5" x2="386.0" y2="72.1" opacity="1.0" stroke="rgb(0,0,0)"  stroke-width="3"/>
<line x1="365.9" y1="100.1" x2="377.0" y2="74.7" opacity="1.0" stroke="rgb(0,0,0)"  stroke-width="3"/>
<line x1="270.6" y1="444.2" x2="270.6" y2="484.0" opacity="1.0" stroke="rgb(0,0,0)"  stroke-width="3"/>
<line x1="270.6" y1="484.0" x2="305.1" y2="503.9" opacity="1.0" stroke="rgb(0,0,0)"  stroke-width="3"/>
<line x1="279.4" y1="480.7" x2="303.5" y2="494.6" opacity="1.0" stroke="rgb(0,0,0)"  stroke-width="3"/>
<line x1="305.1" y1="503.9" x2="339.5" y2="484.0" opacity="1.0" stroke="rgb(0,0,0)"  stroke-width="3"/>
<line x1="339.5" y1="484.0" x2="339.5" y2="444.2" opacity="1.0" stroke="rgb(0,0,0)"  stroke-width="3"/>
<line x1="332.3" y1="478.0" x2="332.3" y2="450.2" opacity="1.0" stroke="rgb(0,0,0)"  stroke-width="3"/>
<line x1="339.5" y1="444.2" x2="305.1" y2="424.3" opacity="1.0" stroke="rgb(0,0,0)"  stroke-width="3"/>
<line x1="305.1" y1="424.3" x2="270.6" y2="444.2" opacity="1.0" stroke="rgb(0,0,0)"  stroke-width="3"/>
<line x1="303.5" y1="433.5" x2="279.4" y2="447.4" opacity="1.0" stroke="rgb(0,0,0)"  stroke-width="3"/>
<line x1="236.1" y1="384.5" x2="201.7" y2="364.6" opacity="1.0" stroke="rgb(0,0,0)"  stroke-width="3"/>
<line x1="201.7" y1="364.6" x2="167.2" y2="384.5" opacity="1.0" stroke="rgb(0,0,0)"  stroke-width="3"/>
<line x1="200.1" y1="373.8" x2="176.0" y2="387.7" opacity="1.0" stroke="rgb(0,0,0)"  stroke-width="3"/>
<line x1="167.2" y1="384.5" x2="167.2" y2="424.3" opacity="1.0" stroke="rgb(0,0,0)"  stroke-width="3"/>
<line x1="167.2" y1="424.3" x2="201.7" y2="444.2" opacity="1.0" stroke="rgb(0,0,0)"  stroke-width="3"/>
<line x1="201.7" y1="444.2" x2="236.1" y2="424.3" opacity="1.0" stroke="rgb(0,0,0)"  stroke-width="3"/>
<line x1="236.1" y1="424.3" x2="236.1" y2="384.5" opacity="1.0" stroke="rgb(0,0,0)"  stroke-width="3"/>
<line x1="228.9" y1="418.3" x2="228.9" y2="390.5" opacity="1.0" stroke="rgb(0,0,0)"  stroke-width="3"/>
<line x1="167.2" y1="503.9" x2="201.7" y2="484.0" opacity="1.0" stroke="rgb(0,0,0)"  stroke-width="3"/>
<line x1="201.7" y1="484.0" x2="201.7" y2="444.2" opacity="1.0" stroke="rgb(0,0,0)"  stroke-width="3"/>
<line x1="194.5" y1="478.0" x2="194.5" y2="450.2" opacity="1.0" stroke="rgb(0,0,0)"  stroke-width="3"/>
<line x1="167.2" y1="424.3" x2="132.8" y2="444.2" opacity="1.0" stroke="rgb(0,0,0)"  stroke-width="3"/>
<line x1="165.6" y1="433.5" x2="141.6" y2="447.4" opacity="1.0" stroke="rgb(0,0,0)"  stroke-width="3"/>
<line x1="132.8" y1="444.2" x2="132.8" y2="484.0" opacity="1.0" stroke="rgb(0,0,0)"  stroke-width="3"/>
<line x1="132.8" y1="484.0" x2="167.2" y2="503.9" opacity="1.0" stroke="rgb(0,0,0)"  stroke-width="3"/>
<line x1="141.6" y1="480.7" x2="165.6" y2="494.6" opacity="1.0" stroke="rgb(0,0,0)"  stroke-width="3"/>
<line x1="132.8" y1="444.2" x2="98.3" y2="424.3" opacity="1.0" stroke="rgb(0,0,0)"  stroke-width="3"/>
<line x1="98.3" y1="424.3" x2="98.3" y2="384.5" opacity="1.0" stroke="rgb(0,0,0)"  stroke-width="3"/>
<line x1="98.3" y1="384.5" x2="132.8" y2="364.6" opacity="1.0" stroke="rgb(0,0,0)"  stroke-width="3"/>
<line x1="107.1" y1="387.7" x2="131.2" y2="373.8" opacity="1.0" stroke="rgb(0,0,0)"  stroke-width="3"/>
<line x1="132.8" y1="364.6" x2="167.2" y2="384.5" opacity="1.0" stroke="rgb(0,0,0)"  stroke-width="3"/>
<line x1="98.3" y1="424.3" x2="63.8" y2="444.2" opacity="1.0" stroke="rgb(0,0,0)"  stroke-width="3"/>
<line x1="96.7" y1="433.5" x2="72.6" y2="447.4" opacity="1.0" stroke="rgb(0,0,0)"  stroke-width="3"/>
<line x1="63.8" y1="444.2" x2="63.8" y2="484.0" opacity="1.0" stroke="rgb(0,0,0)"  stroke-width="3"/>
<line x1="63.8" y1="484.0" x2="98.3" y2="503.9" opacity="1.0" stroke="rgb(0,0,0)"  stroke-width="3"/>
<line x1="72.6" y1="480.7" x2="96.7" y2="494.6" opacity="1.0" stroke="rgb(0,0,0)"  stroke-width="3"/>
<line x1="98.3" y1="503.9" x2="132.8" y2="484.0" opacity="1.0" stroke="rgb(0,0,0)"  stroke-width="3"/>
<text x="387.630173" y="148.561796" fill="rgb(12,12,255)" stroke-width="0" font-weight="bold" font-size="25.92" >N</text>
<text x="230.133599" y="300.978016" fill="rgb(12,12,255)" stroke-width="0" font-weight="bold" font-size="25.92" >N</text>
<text x="367.972310" y="300.978355" fill="rgb(12,12,255)" stroke-width="0" font-weight="bold" font-size="25.92" >N</text>
<text x="299.052906" y="261.187737" fill="rgb(255,181,181)" stroke-width="0" font-weight="bold" font-size="25.92" >B</text>
</svg>
</g>
</svg>
