<?xml version="1.0"?>
<svg version="1.1" id="topsvg"
xmlns="http://www.w3.org/2000/svg" xmlns:xlink="http://www.w3.org/1999/xlink"
xmlns:cml="http://www.xml-cml.org/schema" x="0" y="0" width="200px" height="200px" viewBox="0 0 100 100">
<title>GD104.sdf - Open Babel Depiction</title>
<rect x="0" y="0" width="100" height="100" fill="white"/>
<g transform="translate(0,0)">
<svg width="100" height="100" x="0" y="0" viewBox="0 0 606.774 661.47"
font-family="sans-serif" stroke="rgb(0,0,0)" stroke-width="3"  stroke-linecap="round">
<line x1="299.5" y1="365.2" x2="299.5" y2="544.4" opacity="1.0" stroke="rgb(0,0,0)"  stroke-width="3"/>
<line x1="229.8" y1="173.7" x2="229.8" y2="135.2" opacity="1.0" stroke="rgb(0,0,0)"  stroke-width="3"/>
<line x1="117.0" y1="297.1" x2="78.5" y2="297.1" opacity="1.0" stroke="rgb(0,0,0)"  stroke-width="3"/>
<line x1="78.5" y1="297.1" x2="40.0" y2="297.1" opacity="1.0" stroke="rgb(0,0,0)"  stroke-width="3"/>
<line x1="59.3" y1="330.4" x2="78.5" y2="297.1" opacity="1.0" stroke="rgb(0,0,0)"  stroke-width="3"/>
<line x1="229.8" y1="135.2" x2="263.2" y2="115.9" opacity="1.0" stroke="rgb(0,0,0)"  stroke-width="3"/>
<line x1="196.5" y1="115.9" x2="229.8" y2="135.2" opacity="1.0" stroke="rgb(0,0,0)"  stroke-width="3"/>
<line x1="78.5" y1="297.1" x2="59.3" y2="263.7" opacity="1.0" stroke="rgb(0,0,0)"  stroke-width="3"/>
<line x1="229.8" y1="135.2" x2="229.8" y2="96.7" opacity="1.0" stroke="rgb(0,0,0)"  stroke-width="3"/>
<line x1="371.4" y1="126.5" x2="356.1" y2="106.2" opacity="1.0" stroke="rgb(0,0,0)"  stroke-width="3"/>
<line x1="332.9" y1="563.7" x2="366.2" y2="544.4" opacity="1.0" stroke="rgb(0,0,0)"  stroke-width="3"/>
<line x1="432.9" y1="505.9" x2="466.4" y2="486.6" opacity="1.0" stroke="rgb(0,0,0)"  stroke-width="3"/>
<line x1="174.1" y1="262.6" x2="197.5" y2="232.0" opacity="1.0" stroke="rgb(0,0,0)"  stroke-width="3"/>
<line x1="197.5" y1="232.0" x2="231.2" y2="250.7" opacity="1.0" stroke="rgb(0,0,0)"  stroke-width="3"/>
<line x1="231.2" y1="250.7" x2="231.7" y2="276.2" opacity="1.0" stroke="rgb(0,0,0)"  stroke-width="3"/>
<line x1="219.2" y1="291.4" x2="194.0" y2="295.6" opacity="1.0" stroke="rgb(0,0,0)"  stroke-width="3"/>
<line x1="194.0" y1="295.6" x2="174.1" y2="262.6" opacity="1.0" stroke="rgb(0,0,0)"  stroke-width="3"/>
<line x1="197.1" y1="286.8" x2="183.4" y2="264.1" opacity="1.0" stroke="rgb(0,0,0)"  stroke-width="3"/>
<line x1="422.7" y1="262.3" x2="396.4" y2="234.2" opacity="1.0" stroke="rgb(0,0,0)"  stroke-width="3"/>
<line x1="396.4" y1="234.2" x2="361.5" y2="250.5" opacity="1.0" stroke="rgb(0,0,0)"  stroke-width="3"/>
<line x1="394.0" y1="243.2" x2="370.0" y2="254.5" opacity="1.0" stroke="rgb(0,0,0)"  stroke-width="3"/>
<line x1="361.5" y1="250.5" x2="364.7" y2="275.8" opacity="1.0" stroke="rgb(0,0,0)"  stroke-width="3"/>
<line x1="379.0" y1="291.2" x2="404.1" y2="296.0" opacity="1.0" stroke="rgb(0,0,0)"  stroke-width="3"/>
<line x1="404.1" y1="296.0" x2="422.7" y2="262.3" opacity="1.0" stroke="rgb(0,0,0)"  stroke-width="3"/>
<line x1="400.7" y1="287.3" x2="413.5" y2="264.0" opacity="1.0" stroke="rgb(0,0,0)"  stroke-width="3"/>
<line x1="417.8" y1="136.2" x2="392.3" y2="136.7" opacity="1.0" stroke="rgb(0,0,0)"  stroke-width="3"/>
<line x1="375.5" y1="149.3" x2="368.1" y2="173.8" opacity="1.0" stroke="rgb(0,0,0)"  stroke-width="3"/>
<line x1="368.1" y1="173.8" x2="399.7" y2="195.8" opacity="1.0" stroke="rgb(0,0,0)"  stroke-width="3"/>
<line x1="377.1" y1="171.3" x2="398.9" y2="186.4" opacity="1.0" stroke="rgb(0,0,0)"  stroke-width="3"/>
<line x1="399.7" y1="195.8" x2="430.4" y2="172.5" opacity="1.0" stroke="rgb(0,0,0)"  stroke-width="3"/>
<line x1="430.4" y1="172.5" x2="417.8" y2="136.2" opacity="1.0" stroke="rgb(0,0,0)"  stroke-width="3"/>
<line x1="421.6" y1="169.2" x2="412.9" y2="144.2" opacity="1.0" stroke="rgb(0,0,0)"  stroke-width="3"/>
<line x1="266.0" y1="346.1" x2="299.5" y2="365.2" opacity="1.0" stroke="rgb(0,0,0)"  stroke-width="3"/>
<line x1="299.5" y1="365.2" x2="332.7" y2="345.7" opacity="1.0" stroke="rgb(0,0,0)"  stroke-width="3"/>
<line x1="301.0" y1="355.9" x2="323.9" y2="342.6" opacity="1.0" stroke="rgb(0,0,0)"  stroke-width="3"/>
<line x1="332.7" y1="345.7" x2="332.5" y2="307.2" opacity="1.0" stroke="rgb(0,0,0)"  stroke-width="3"/>
<line x1="332.5" y1="307.2" x2="299.1" y2="288.2" opacity="1.0" stroke="rgb(0,0,0)"  stroke-width="3"/>
<line x1="323.7" y1="310.5" x2="300.7" y2="297.4" opacity="1.0" stroke="rgb(0,0,0)"  stroke-width="3"/>
<line x1="299.1" y1="288.2" x2="265.8" y2="307.6" opacity="1.0" stroke="rgb(0,0,0)"  stroke-width="3"/>
<line x1="265.8" y1="307.6" x2="266.0" y2="346.1" opacity="1.0" stroke="rgb(0,0,0)"  stroke-width="3"/>
<line x1="273.1" y1="313.6" x2="273.2" y2="340.1" opacity="1.0" stroke="rgb(0,0,0)"  stroke-width="3"/>
<line x1="298.2" y1="262.7" x2="299.1" y2="288.2" opacity="1.0" stroke="rgb(0,0,0)"  stroke-width="3"/>
<line x1="265.8" y1="307.6" x2="243.4" y2="295.4" opacity="1.0" stroke="rgb(0,0,0)"  stroke-width="3"/>
<line x1="231.2" y1="250.7" x2="264.2" y2="230.9" opacity="1.0" stroke="rgb(0,0,0)"  stroke-width="3"/>
<line x1="240.0" y1="253.8" x2="262.8" y2="240.1" opacity="1.0" stroke="rgb(0,0,0)"  stroke-width="3"/>
<line x1="264.2" y1="230.9" x2="286.5" y2="243.3" opacity="1.0" stroke="rgb(0,0,0)"  stroke-width="3"/>
<line x1="361.5" y1="250.5" x2="329.9" y2="228.5" opacity="1.0" stroke="rgb(0,0,0)"  stroke-width="3"/>
<line x1="329.9" y1="228.5" x2="308.6" y2="242.5" opacity="1.0" stroke="rgb(0,0,0)"  stroke-width="3"/>
<line x1="332.5" y1="307.2" x2="354.9" y2="295.0" opacity="1.0" stroke="rgb(0,0,0)"  stroke-width="3"/>
<line x1="136.9" y1="330.1" x2="175.4" y2="329.3" opacity="1.0" stroke="rgb(0,0,0)"  stroke-width="3"/>
<line x1="142.8" y1="322.8" x2="169.3" y2="322.2" opacity="1.0" stroke="rgb(0,0,0)"  stroke-width="3"/>
<line x1="175.4" y1="329.3" x2="194.0" y2="295.6" opacity="1.0" stroke="rgb(0,0,0)"  stroke-width="3"/>
<line x1="174.1" y1="262.6" x2="135.6" y2="263.4" opacity="1.0" stroke="rgb(0,0,0)"  stroke-width="3"/>
<line x1="135.6" y1="263.4" x2="117.0" y2="297.1" opacity="1.0" stroke="rgb(0,0,0)"  stroke-width="3"/>
<line x1="139.0" y1="272.1" x2="126.2" y2="295.3" opacity="1.0" stroke="rgb(0,0,0)"  stroke-width="3"/>
<line x1="117.0" y1="297.1" x2="136.9" y2="330.1" opacity="1.0" stroke="rgb(0,0,0)"  stroke-width="3"/>
<line x1="481.1" y1="294.5" x2="461.2" y2="261.5" opacity="1.0" stroke="rgb(0,0,0)"  stroke-width="3"/>
<line x1="471.8" y1="293.1" x2="458.1" y2="270.4" opacity="1.0" stroke="rgb(0,0,0)"  stroke-width="3"/>
<line x1="461.2" y1="261.5" x2="422.7" y2="262.3" opacity="1.0" stroke="rgb(0,0,0)"  stroke-width="3"/>
<line x1="404.1" y1="296.0" x2="424.0" y2="329.0" opacity="1.0" stroke="rgb(0,0,0)"  stroke-width="3"/>
<line x1="424.0" y1="329.0" x2="462.5" y2="328.2" opacity="1.0" stroke="rgb(0,0,0)"  stroke-width="3"/>
<line x1="429.9" y1="321.6" x2="456.4" y2="321.1" opacity="1.0" stroke="rgb(0,0,0)"  stroke-width="3"/>
<line x1="462.5" y1="328.2" x2="481.1" y2="294.5" opacity="1.0" stroke="rgb(0,0,0)"  stroke-width="3"/>
<line x1="368.1" y1="173.8" x2="333.2" y2="190.1" opacity="1.0" stroke="rgb(0,0,0)"  stroke-width="3"/>
<line x1="333.2" y1="190.1" x2="329.9" y2="228.5" opacity="1.0" stroke="rgb(0,0,0)"  stroke-width="3"/>
<line x1="339.9" y1="196.7" x2="337.6" y2="223.1" opacity="1.0" stroke="rgb(0,0,0)"  stroke-width="3"/>
<line x1="396.4" y1="234.2" x2="399.7" y2="195.8" opacity="1.0" stroke="rgb(0,0,0)"  stroke-width="3"/>
<line x1="480.8" y1="114.3" x2="443.0" y2="107.0" opacity="1.0" stroke="rgb(0,0,0)"  stroke-width="3"/>
<line x1="473.6" y1="120.3" x2="447.5" y2="115.3" opacity="1.0" stroke="rgb(0,0,0)"  stroke-width="3"/>
<line x1="443.0" y1="107.0" x2="417.8" y2="136.2" opacity="1.0" stroke="rgb(0,0,0)"  stroke-width="3"/>
<line x1="430.4" y1="172.5" x2="468.2" y2="179.8" opacity="1.0" stroke="rgb(0,0,0)"  stroke-width="3"/>
<line x1="468.2" y1="179.8" x2="493.4" y2="150.7" opacity="1.0" stroke="rgb(0,0,0)"  stroke-width="3"/>
<line x1="466.7" y1="170.6" x2="484.0" y2="150.5" opacity="1.0" stroke="rgb(0,0,0)"  stroke-width="3"/>
<line x1="493.4" y1="150.7" x2="480.8" y2="114.3" opacity="1.0" stroke="rgb(0,0,0)"  stroke-width="3"/>
<line x1="197.5" y1="232.0" x2="196.8" y2="193.5" opacity="1.0" stroke="rgb(0,0,0)"  stroke-width="3"/>
<line x1="204.6" y1="225.9" x2="204.1" y2="199.4" opacity="1.0" stroke="rgb(0,0,0)"  stroke-width="3"/>
<line x1="196.8" y1="193.5" x2="229.8" y2="173.7" opacity="1.0" stroke="rgb(0,0,0)"  stroke-width="3"/>
<line x1="229.8" y1="173.7" x2="263.5" y2="192.4" opacity="1.0" stroke="rgb(0,0,0)"  stroke-width="3"/>
<line x1="231.6" y1="182.9" x2="254.8" y2="195.8" opacity="1.0" stroke="rgb(0,0,0)"  stroke-width="3"/>
<line x1="263.5" y1="192.4" x2="264.2" y2="230.9" opacity="1.0" stroke="rgb(0,0,0)"  stroke-width="3"/>
<line x1="371.0" y1="70.7" x2="347.8" y2="40.0" opacity="1.0" stroke="rgb(0,0,0)"  stroke-width="3"/>
<line x1="347.8" y1="40.0" x2="309.6" y2="44.8" opacity="1.0" stroke="rgb(0,0,0)"  stroke-width="3"/>
<line x1="342.7" y1="47.9" x2="316.4" y2="51.2" opacity="1.0" stroke="rgb(0,0,0)"  stroke-width="3"/>
<line x1="309.6" y1="44.8" x2="294.6" y2="80.2" opacity="1.0" stroke="rgb(0,0,0)"  stroke-width="3"/>
<line x1="294.6" y1="80.2" x2="317.8" y2="111.0" opacity="1.0" stroke="rgb(0,0,0)"  stroke-width="3"/>
<line x1="304.0" y1="80.7" x2="320.0" y2="101.8" opacity="1.0" stroke="rgb(0,0,0)"  stroke-width="3"/>
<line x1="317.8" y1="111.0" x2="356.1" y2="106.2" opacity="1.0" stroke="rgb(0,0,0)"  stroke-width="3"/>
<line x1="356.1" y1="106.2" x2="371.0" y2="70.7" opacity="1.0" stroke="rgb(0,0,0)"  stroke-width="3"/>
<line x1="351.8" y1="97.9" x2="362.1" y2="73.4" opacity="1.0" stroke="rgb(0,0,0)"  stroke-width="3"/>
<line x1="266.2" y1="563.7" x2="266.2" y2="602.2" opacity="1.0" stroke="rgb(0,0,0)"  stroke-width="3"/>
<line x1="266.2" y1="602.2" x2="299.5" y2="621.5" opacity="1.0" stroke="rgb(0,0,0)"  stroke-width="3"/>
<line x1="274.9" y1="599.0" x2="297.9" y2="612.2" opacity="1.0" stroke="rgb(0,0,0)"  stroke-width="3"/>
<line x1="299.5" y1="621.5" x2="332.9" y2="602.2" opacity="1.0" stroke="rgb(0,0,0)"  stroke-width="3"/>
<line x1="332.9" y1="602.2" x2="332.9" y2="563.7" opacity="1.0" stroke="rgb(0,0,0)"  stroke-width="3"/>
<line x1="325.7" y1="596.2" x2="325.7" y2="569.7" opacity="1.0" stroke="rgb(0,0,0)"  stroke-width="3"/>
<line x1="332.9" y1="563.7" x2="299.5" y2="544.4" opacity="1.0" stroke="rgb(0,0,0)"  stroke-width="3"/>
<line x1="299.5" y1="544.4" x2="266.2" y2="563.7" opacity="1.0" stroke="rgb(0,0,0)"  stroke-width="3"/>
<line x1="297.9" y1="553.7" x2="274.9" y2="566.9" opacity="1.0" stroke="rgb(0,0,0)"  stroke-width="3"/>
<line x1="399.6" y1="563.7" x2="432.9" y2="544.4" opacity="1.0" stroke="rgb(0,0,0)"  stroke-width="3"/>
<line x1="432.9" y1="544.4" x2="432.9" y2="505.9" opacity="1.0" stroke="rgb(0,0,0)"  stroke-width="3"/>
<line x1="425.7" y1="538.4" x2="425.7" y2="511.9" opacity="1.0" stroke="rgb(0,0,0)"  stroke-width="3"/>
<line x1="432.9" y1="505.9" x2="399.6" y2="486.7" opacity="1.0" stroke="rgb(0,0,0)"  stroke-width="3"/>
<line x1="399.6" y1="486.7" x2="366.2" y2="505.9" opacity="1.0" stroke="rgb(0,0,0)"  stroke-width="3"/>
<line x1="398.0" y1="495.9" x2="375.0" y2="509.2" opacity="1.0" stroke="rgb(0,0,0)"  stroke-width="3"/>
<line x1="366.2" y1="505.9" x2="366.2" y2="544.4" opacity="1.0" stroke="rgb(0,0,0)"  stroke-width="3"/>
<line x1="366.2" y1="544.4" x2="399.6" y2="563.7" opacity="1.0" stroke="rgb(0,0,0)"  stroke-width="3"/>
<line x1="375.0" y1="541.2" x2="398.0" y2="554.5" opacity="1.0" stroke="rgb(0,0,0)"  stroke-width="3"/>
<line x1="499.8" y1="505.9" x2="533.3" y2="486.6" opacity="1.0" stroke="rgb(0,0,0)"  stroke-width="3"/>
<line x1="533.3" y1="486.6" x2="533.3" y2="448.0" opacity="1.0" stroke="rgb(0,0,0)"  stroke-width="3"/>
<line x1="526.1" y1="480.6" x2="526.1" y2="454.0" opacity="1.0" stroke="rgb(0,0,0)"  stroke-width="3"/>
<line x1="533.3" y1="448.0" x2="499.8" y2="428.7" opacity="1.0" stroke="rgb(0,0,0)"  stroke-width="3"/>
<line x1="499.8" y1="428.7" x2="466.4" y2="448.0" opacity="1.0" stroke="rgb(0,0,0)"  stroke-width="3"/>
<line x1="498.2" y1="437.9" x2="475.2" y2="451.2" opacity="1.0" stroke="rgb(0,0,0)"  stroke-width="3"/>
<line x1="466.4" y1="448.0" x2="466.4" y2="486.6" opacity="1.0" stroke="rgb(0,0,0)"  stroke-width="3"/>
<line x1="466.4" y1="486.6" x2="499.8" y2="505.9" opacity="1.0" stroke="rgb(0,0,0)"  stroke-width="3"/>
<line x1="475.2" y1="483.4" x2="498.2" y2="496.7" opacity="1.0" stroke="rgb(0,0,0)"  stroke-width="3"/>
<line x1="566.8" y1="544.6" x2="566.8" y2="505.9" opacity="1.0" stroke="rgb(0,0,0)"  stroke-width="3"/>
<line x1="559.6" y1="538.6" x2="559.6" y2="511.9" opacity="1.0" stroke="rgb(0,0,0)"  stroke-width="3"/>
<line x1="566.8" y1="505.9" x2="533.3" y2="486.6" opacity="1.0" stroke="rgb(0,0,0)"  stroke-width="3"/>
<line x1="499.8" y1="505.9" x2="499.8" y2="544.6" opacity="1.0" stroke="rgb(0,0,0)"  stroke-width="3"/>
<line x1="499.8" y1="544.6" x2="533.3" y2="563.9" opacity="1.0" stroke="rgb(0,0,0)"  stroke-width="3"/>
<line x1="508.6" y1="541.3" x2="531.7" y2="554.7" opacity="1.0" stroke="rgb(0,0,0)"  stroke-width="3"/>
<line x1="533.3" y1="563.9" x2="566.8" y2="544.6" opacity="1.0" stroke="rgb(0,0,0)"  stroke-width="3"/>
<line x1="432.9" y1="390.0" x2="432.9" y2="428.7" opacity="1.0" stroke="rgb(0,0,0)"  stroke-width="3"/>
<line x1="440.1" y1="396.0" x2="440.1" y2="422.7" opacity="1.0" stroke="rgb(0,0,0)"  stroke-width="3"/>
<line x1="432.9" y1="428.7" x2="466.4" y2="448.0" opacity="1.0" stroke="rgb(0,0,0)"  stroke-width="3"/>
<line x1="499.8" y1="428.7" x2="499.8" y2="390.0" opacity="1.0" stroke="rgb(0,0,0)"  stroke-width="3"/>
<line x1="499.8" y1="390.0" x2="466.4" y2="370.7" opacity="1.0" stroke="rgb(0,0,0)"  stroke-width="3"/>
<line x1="491.0" y1="393.2" x2="468.0" y2="379.9" opacity="1.0" stroke="rgb(0,0,0)"  stroke-width="3"/>
<line x1="466.4" y1="370.7" x2="432.9" y2="390.0" opacity="1.0" stroke="rgb(0,0,0)"  stroke-width="3"/>
<text x="373.283413" y="144.902257" fill="rgb(12,12,255)" stroke-width="0" font-weight="bold" font-size="25.92" >N</text>
<text x="360.282779" y="296.703967" fill="rgb(12,12,255)" stroke-width="0" font-weight="bold" font-size="25.92" >N</text>
<text x="226.000038" y="297.206576" fill="rgb(12,12,255)" stroke-width="0" font-weight="bold" font-size="25.92" >N</text>
<text x="291.799422" y="257.682297" fill="rgb(255,181,181)" stroke-width="0" font-weight="bold" font-size="25.92" >B</text>
</svg>
</g>
</svg>
