<?xml version="1.0"?>
<svg version="1.1" id="topsvg"
xmlns="http://www.w3.org/2000/svg" xmlns:xlink="http://www.w3.org/1999/xlink"
xmlns:cml="http://www.xml-cml.org/schema" x="0" y="0" width="200px" height="200px" viewBox="0 0 100 100">
<title>GD111.sdf - Open Babel Depiction</title>
<rect x="0" y="0" width="100" height="100" fill="white"/>
<g transform="translate(0,0)">
<svg width="100" height="100" x="0" y="0" viewBox="0 0 584.061 612.054"
font-family="sans-serif" stroke="rgb(0,0,0)" stroke-width="3"  stroke-linecap="round">
<line x1="236.9" y1="552.4" x2="214.1" y2="565.6" opacity="1.0" stroke="rgb(0,0,0)"  stroke-width="3"/>
<line x1="239.0" y1="556.0" x2="216.2" y2="569.2" opacity="1.0" stroke="rgb(0,0,0)"  stroke-width="3"/>
<line x1="234.8" y1="548.7" x2="212.0" y2="561.9" opacity="1.0" stroke="rgb(0,0,0)"  stroke-width="3"/>
<line x1="271.1" y1="532.6" x2="236.9" y2="552.4" opacity="1.0" stroke="rgb(0,0,0)"  stroke-width="3"/>
<line x1="305.2" y1="372.4" x2="305.2" y2="473.6" opacity="1.0" stroke="rgb(0,0,0)"  stroke-width="3"/>
<line x1="234.0" y1="176.6" x2="234.0" y2="137.3" opacity="1.0" stroke="rgb(0,0,0)"  stroke-width="3"/>
<line x1="118.7" y1="302.8" x2="79.4" y2="302.8" opacity="1.0" stroke="rgb(0,0,0)"  stroke-width="3"/>
<line x1="79.4" y1="302.8" x2="40.0" y2="302.8" opacity="1.0" stroke="rgb(0,0,0)"  stroke-width="3"/>
<line x1="59.7" y1="336.8" x2="79.4" y2="302.8" opacity="1.0" stroke="rgb(0,0,0)"  stroke-width="3"/>
<line x1="234.0" y1="137.3" x2="268.1" y2="117.6" opacity="1.0" stroke="rgb(0,0,0)"  stroke-width="3"/>
<line x1="199.9" y1="117.6" x2="234.0" y2="137.3" opacity="1.0" stroke="rgb(0,0,0)"  stroke-width="3"/>
<line x1="79.4" y1="302.8" x2="59.7" y2="268.7" opacity="1.0" stroke="rgb(0,0,0)"  stroke-width="3"/>
<line x1="234.0" y1="137.3" x2="234.0" y2="97.9" opacity="1.0" stroke="rgb(0,0,0)"  stroke-width="3"/>
<line x1="378.9" y1="128.7" x2="363.0" y2="107.6" opacity="1.0" stroke="rgb(0,0,0)"  stroke-width="3"/>
<line x1="339.3" y1="493.3" x2="373.4" y2="473.6" opacity="1.0" stroke="rgb(0,0,0)"  stroke-width="3"/>
<line x1="441.6" y1="434.2" x2="475.7" y2="414.6" opacity="1.0" stroke="rgb(0,0,0)"  stroke-width="3"/>
<line x1="177.1" y1="267.5" x2="201.0" y2="236.3" opacity="1.0" stroke="rgb(0,0,0)"  stroke-width="3"/>
<line x1="201.0" y1="236.3" x2="235.4" y2="255.3" opacity="1.0" stroke="rgb(0,0,0)"  stroke-width="3"/>
<line x1="235.4" y1="255.3" x2="236.0" y2="281.7" opacity="1.0" stroke="rgb(0,0,0)"  stroke-width="3"/>
<line x1="223.4" y1="296.9" x2="197.4" y2="301.2" opacity="1.0" stroke="rgb(0,0,0)"  stroke-width="3"/>
<line x1="197.4" y1="301.2" x2="177.1" y2="267.5" opacity="1.0" stroke="rgb(0,0,0)"  stroke-width="3"/>
<line x1="200.5" y1="292.4" x2="186.4" y2="269.0" opacity="1.0" stroke="rgb(0,0,0)"  stroke-width="3"/>
<line x1="431.1" y1="267.2" x2="404.2" y2="238.4" opacity="1.0" stroke="rgb(0,0,0)"  stroke-width="3"/>
<line x1="404.2" y1="238.4" x2="368.6" y2="255.1" opacity="1.0" stroke="rgb(0,0,0)"  stroke-width="3"/>
<line x1="401.9" y1="247.5" x2="377.1" y2="259.1" opacity="1.0" stroke="rgb(0,0,0)"  stroke-width="3"/>
<line x1="368.6" y1="255.1" x2="371.9" y2="281.3" opacity="1.0" stroke="rgb(0,0,0)"  stroke-width="3"/>
<line x1="386.2" y1="296.6" x2="412.1" y2="301.6" opacity="1.0" stroke="rgb(0,0,0)"  stroke-width="3"/>
<line x1="412.1" y1="301.6" x2="431.1" y2="267.2" opacity="1.0" stroke="rgb(0,0,0)"  stroke-width="3"/>
<line x1="408.7" y1="292.9" x2="421.9" y2="268.9" opacity="1.0" stroke="rgb(0,0,0)"  stroke-width="3"/>
<line x1="426.1" y1="138.3" x2="399.8" y2="138.8" opacity="1.0" stroke="rgb(0,0,0)"  stroke-width="3"/>
<line x1="383.0" y1="151.5" x2="375.3" y2="176.7" opacity="1.0" stroke="rgb(0,0,0)"  stroke-width="3"/>
<line x1="375.3" y1="176.7" x2="407.6" y2="199.2" opacity="1.0" stroke="rgb(0,0,0)"  stroke-width="3"/>
<line x1="384.4" y1="174.2" x2="406.8" y2="189.9" opacity="1.0" stroke="rgb(0,0,0)"  stroke-width="3"/>
<line x1="407.6" y1="199.2" x2="439.0" y2="175.5" opacity="1.0" stroke="rgb(0,0,0)"  stroke-width="3"/>
<line x1="439.0" y1="175.5" x2="426.1" y2="138.3" opacity="1.0" stroke="rgb(0,0,0)"  stroke-width="3"/>
<line x1="430.2" y1="172.2" x2="421.3" y2="146.3" opacity="1.0" stroke="rgb(0,0,0)"  stroke-width="3"/>
<line x1="271.0" y1="352.9" x2="305.2" y2="372.4" opacity="1.0" stroke="rgb(0,0,0)"  stroke-width="3"/>
<line x1="305.2" y1="372.4" x2="339.2" y2="352.5" opacity="1.0" stroke="rgb(0,0,0)"  stroke-width="3"/>
<line x1="306.8" y1="363.1" x2="330.4" y2="349.3" opacity="1.0" stroke="rgb(0,0,0)"  stroke-width="3"/>
<line x1="339.2" y1="352.5" x2="339.0" y2="313.1" opacity="1.0" stroke="rgb(0,0,0)"  stroke-width="3"/>
<line x1="339.0" y1="313.1" x2="304.8" y2="293.6" opacity="1.0" stroke="rgb(0,0,0)"  stroke-width="3"/>
<line x1="330.2" y1="316.4" x2="306.4" y2="302.9" opacity="1.0" stroke="rgb(0,0,0)"  stroke-width="3"/>
<line x1="304.8" y1="293.6" x2="270.8" y2="313.5" opacity="1.0" stroke="rgb(0,0,0)"  stroke-width="3"/>
<line x1="270.8" y1="313.5" x2="271.0" y2="352.9" opacity="1.0" stroke="rgb(0,0,0)"  stroke-width="3"/>
<line x1="278.0" y1="319.5" x2="278.2" y2="346.8" opacity="1.0" stroke="rgb(0,0,0)"  stroke-width="3"/>
<line x1="303.9" y1="267.3" x2="304.8" y2="293.6" opacity="1.0" stroke="rgb(0,0,0)"  stroke-width="3"/>
<line x1="270.8" y1="313.5" x2="247.7" y2="300.9" opacity="1.0" stroke="rgb(0,0,0)"  stroke-width="3"/>
<line x1="235.4" y1="255.3" x2="269.1" y2="235.1" opacity="1.0" stroke="rgb(0,0,0)"  stroke-width="3"/>
<line x1="244.2" y1="258.4" x2="267.7" y2="244.3" opacity="1.0" stroke="rgb(0,0,0)"  stroke-width="3"/>
<line x1="269.1" y1="235.1" x2="292.1" y2="248.0" opacity="1.0" stroke="rgb(0,0,0)"  stroke-width="3"/>
<line x1="368.6" y1="255.1" x2="336.3" y2="232.6" opacity="1.0" stroke="rgb(0,0,0)"  stroke-width="3"/>
<line x1="336.3" y1="232.6" x2="314.3" y2="247.1" opacity="1.0" stroke="rgb(0,0,0)"  stroke-width="3"/>
<line x1="339.0" y1="313.1" x2="362.1" y2="300.4" opacity="1.0" stroke="rgb(0,0,0)"  stroke-width="3"/>
<line x1="139.1" y1="336.5" x2="178.4" y2="335.7" opacity="1.0" stroke="rgb(0,0,0)"  stroke-width="3"/>
<line x1="144.9" y1="329.1" x2="172.3" y2="328.6" opacity="1.0" stroke="rgb(0,0,0)"  stroke-width="3"/>
<line x1="178.4" y1="335.7" x2="197.4" y2="301.2" opacity="1.0" stroke="rgb(0,0,0)"  stroke-width="3"/>
<line x1="177.1" y1="267.5" x2="137.7" y2="268.3" opacity="1.0" stroke="rgb(0,0,0)"  stroke-width="3"/>
<line x1="137.7" y1="268.3" x2="118.7" y2="302.8" opacity="1.0" stroke="rgb(0,0,0)"  stroke-width="3"/>
<line x1="141.1" y1="277.0" x2="127.9" y2="301.0" opacity="1.0" stroke="rgb(0,0,0)"  stroke-width="3"/>
<line x1="118.7" y1="302.8" x2="139.1" y2="336.5" opacity="1.0" stroke="rgb(0,0,0)"  stroke-width="3"/>
<line x1="490.8" y1="300.1" x2="470.5" y2="266.4" opacity="1.0" stroke="rgb(0,0,0)"  stroke-width="3"/>
<line x1="481.6" y1="298.7" x2="467.4" y2="275.3" opacity="1.0" stroke="rgb(0,0,0)"  stroke-width="3"/>
<line x1="470.5" y1="266.4" x2="431.1" y2="267.2" opacity="1.0" stroke="rgb(0,0,0)"  stroke-width="3"/>
<line x1="412.1" y1="301.6" x2="432.5" y2="335.3" opacity="1.0" stroke="rgb(0,0,0)"  stroke-width="3"/>
<line x1="432.5" y1="335.3" x2="471.8" y2="334.6" opacity="1.0" stroke="rgb(0,0,0)"  stroke-width="3"/>
<line x1="438.3" y1="328.0" x2="465.7" y2="327.5" opacity="1.0" stroke="rgb(0,0,0)"  stroke-width="3"/>
<line x1="471.8" y1="334.6" x2="490.8" y2="300.1" opacity="1.0" stroke="rgb(0,0,0)"  stroke-width="3"/>
<line x1="375.3" y1="176.7" x2="339.7" y2="193.4" opacity="1.0" stroke="rgb(0,0,0)"  stroke-width="3"/>
<line x1="339.7" y1="193.4" x2="336.3" y2="232.6" opacity="1.0" stroke="rgb(0,0,0)"  stroke-width="3"/>
<line x1="346.3" y1="200.0" x2="344.0" y2="227.2" opacity="1.0" stroke="rgb(0,0,0)"  stroke-width="3"/>
<line x1="404.2" y1="238.4" x2="407.6" y2="199.2" opacity="1.0" stroke="rgb(0,0,0)"  stroke-width="3"/>
<line x1="490.5" y1="116.0" x2="451.9" y2="108.5" opacity="1.0" stroke="rgb(0,0,0)"  stroke-width="3"/>
<line x1="483.3" y1="121.9" x2="456.4" y2="116.7" opacity="1.0" stroke="rgb(0,0,0)"  stroke-width="3"/>
<line x1="451.9" y1="108.5" x2="426.1" y2="138.3" opacity="1.0" stroke="rgb(0,0,0)"  stroke-width="3"/>
<line x1="439.0" y1="175.5" x2="477.6" y2="182.9" opacity="1.0" stroke="rgb(0,0,0)"  stroke-width="3"/>
<line x1="477.6" y1="182.9" x2="503.4" y2="153.2" opacity="1.0" stroke="rgb(0,0,0)"  stroke-width="3"/>
<line x1="476.1" y1="173.7" x2="494.0" y2="153.0" opacity="1.0" stroke="rgb(0,0,0)"  stroke-width="3"/>
<line x1="503.4" y1="153.2" x2="490.5" y2="116.0" opacity="1.0" stroke="rgb(0,0,0)"  stroke-width="3"/>
<line x1="201.0" y1="236.3" x2="200.3" y2="196.9" opacity="1.0" stroke="rgb(0,0,0)"  stroke-width="3"/>
<line x1="208.1" y1="230.1" x2="207.6" y2="202.8" opacity="1.0" stroke="rgb(0,0,0)"  stroke-width="3"/>
<line x1="200.3" y1="196.9" x2="234.0" y2="176.6" opacity="1.0" stroke="rgb(0,0,0)"  stroke-width="3"/>
<line x1="234.0" y1="176.6" x2="268.5" y2="195.7" opacity="1.0" stroke="rgb(0,0,0)"  stroke-width="3"/>
<line x1="235.8" y1="185.8" x2="259.7" y2="199.1" opacity="1.0" stroke="rgb(0,0,0)"  stroke-width="3"/>
<line x1="268.5" y1="195.7" x2="269.1" y2="235.1" opacity="1.0" stroke="rgb(0,0,0)"  stroke-width="3"/>
<line x1="378.3" y1="71.4" x2="354.6" y2="40.0" opacity="1.0" stroke="rgb(0,0,0)"  stroke-width="3"/>
<line x1="354.6" y1="40.0" x2="315.5" y2="44.9" opacity="1.0" stroke="rgb(0,0,0)"  stroke-width="3"/>
<line x1="349.5" y1="47.9" x2="322.4" y2="51.3" opacity="1.0" stroke="rgb(0,0,0)"  stroke-width="3"/>
<line x1="315.5" y1="44.9" x2="300.2" y2="81.1" opacity="1.0" stroke="rgb(0,0,0)"  stroke-width="3"/>
<line x1="300.2" y1="81.1" x2="324.0" y2="112.5" opacity="1.0" stroke="rgb(0,0,0)"  stroke-width="3"/>
<line x1="309.6" y1="81.6" x2="326.1" y2="103.4" opacity="1.0" stroke="rgb(0,0,0)"  stroke-width="3"/>
<line x1="324.0" y1="112.5" x2="363.0" y2="107.6" opacity="1.0" stroke="rgb(0,0,0)"  stroke-width="3"/>
<line x1="363.0" y1="107.6" x2="378.3" y2="71.4" opacity="1.0" stroke="rgb(0,0,0)"  stroke-width="3"/>
<line x1="358.7" y1="99.3" x2="369.4" y2="74.1" opacity="1.0" stroke="rgb(0,0,0)"  stroke-width="3"/>
<line x1="271.1" y1="493.3" x2="271.1" y2="532.6" opacity="1.0" stroke="rgb(0,0,0)"  stroke-width="3"/>
<line x1="271.1" y1="532.6" x2="305.2" y2="552.3" opacity="1.0" stroke="rgb(0,0,0)"  stroke-width="3"/>
<line x1="279.9" y1="529.4" x2="303.6" y2="543.1" opacity="1.0" stroke="rgb(0,0,0)"  stroke-width="3"/>
<line x1="305.2" y1="552.3" x2="339.3" y2="532.6" opacity="1.0" stroke="rgb(0,0,0)"  stroke-width="3"/>
<line x1="339.3" y1="532.6" x2="339.3" y2="493.3" opacity="1.0" stroke="rgb(0,0,0)"  stroke-width="3"/>
<line x1="332.1" y1="526.6" x2="332.1" y2="499.3" opacity="1.0" stroke="rgb(0,0,0)"  stroke-width="3"/>
<line x1="339.3" y1="493.3" x2="305.2" y2="473.6" opacity="1.0" stroke="rgb(0,0,0)"  stroke-width="3"/>
<line x1="305.2" y1="473.6" x2="271.1" y2="493.3" opacity="1.0" stroke="rgb(0,0,0)"  stroke-width="3"/>
<line x1="303.6" y1="482.8" x2="279.9" y2="496.5" opacity="1.0" stroke="rgb(0,0,0)"  stroke-width="3"/>
<line x1="407.5" y1="493.3" x2="441.6" y2="473.6" opacity="1.0" stroke="rgb(0,0,0)"  stroke-width="3"/>
<line x1="441.6" y1="473.6" x2="441.6" y2="434.2" opacity="1.0" stroke="rgb(0,0,0)"  stroke-width="3"/>
<line x1="434.4" y1="467.6" x2="434.4" y2="440.2" opacity="1.0" stroke="rgb(0,0,0)"  stroke-width="3"/>
<line x1="441.6" y1="434.2" x2="407.5" y2="414.6" opacity="1.0" stroke="rgb(0,0,0)"  stroke-width="3"/>
<line x1="407.5" y1="414.6" x2="373.4" y2="434.2" opacity="1.0" stroke="rgb(0,0,0)"  stroke-width="3"/>
<line x1="405.9" y1="423.8" x2="382.2" y2="437.5" opacity="1.0" stroke="rgb(0,0,0)"  stroke-width="3"/>
<line x1="373.4" y1="434.2" x2="373.4" y2="473.6" opacity="1.0" stroke="rgb(0,0,0)"  stroke-width="3"/>
<line x1="373.4" y1="473.6" x2="407.5" y2="493.3" opacity="1.0" stroke="rgb(0,0,0)"  stroke-width="3"/>
<line x1="382.2" y1="470.4" x2="405.9" y2="484.0" opacity="1.0" stroke="rgb(0,0,0)"  stroke-width="3"/>
<line x1="339.3" y1="375.2" x2="339.3" y2="414.6" opacity="1.0" stroke="rgb(0,0,0)"  stroke-width="3"/>
<line x1="346.5" y1="381.2" x2="346.5" y2="408.6" opacity="1.0" stroke="rgb(0,0,0)"  stroke-width="3"/>
<line x1="339.3" y1="414.6" x2="373.4" y2="434.2" opacity="1.0" stroke="rgb(0,0,0)"  stroke-width="3"/>
<line x1="407.5" y1="414.6" x2="407.5" y2="375.2" opacity="1.0" stroke="rgb(0,0,0)"  stroke-width="3"/>
<line x1="407.5" y1="375.2" x2="373.4" y2="355.5" opacity="1.0" stroke="rgb(0,0,0)"  stroke-width="3"/>
<line x1="398.7" y1="378.4" x2="375.0" y2="364.7" opacity="1.0" stroke="rgb(0,0,0)"  stroke-width="3"/>
<line x1="373.4" y1="355.5" x2="339.3" y2="375.2" opacity="1.0" stroke="rgb(0,0,0)"  stroke-width="3"/>
<line x1="475.7" y1="532.6" x2="475.7" y2="493.3" opacity="1.0" stroke="rgb(0,0,0)"  stroke-width="3"/>
<line x1="468.5" y1="526.6" x2="468.5" y2="499.3" opacity="1.0" stroke="rgb(0,0,0)"  stroke-width="3"/>
<line x1="475.7" y1="493.3" x2="441.6" y2="473.6" opacity="1.0" stroke="rgb(0,0,0)"  stroke-width="3"/>
<line x1="407.5" y1="493.3" x2="407.5" y2="532.6" opacity="1.0" stroke="rgb(0,0,0)"  stroke-width="3"/>
<line x1="407.5" y1="532.6" x2="441.6" y2="552.3" opacity="1.0" stroke="rgb(0,0,0)"  stroke-width="3"/>
<line x1="416.3" y1="529.4" x2="440.0" y2="543.1" opacity="1.0" stroke="rgb(0,0,0)"  stroke-width="3"/>
<line x1="441.6" y1="552.3" x2="475.7" y2="532.6" opacity="1.0" stroke="rgb(0,0,0)"  stroke-width="3"/>
<line x1="509.9" y1="434.3" x2="544.1" y2="414.6" opacity="1.0" stroke="rgb(0,0,0)"  stroke-width="3"/>
<line x1="544.1" y1="414.6" x2="544.1" y2="375.1" opacity="1.0" stroke="rgb(0,0,0)"  stroke-width="3"/>
<line x1="536.9" y1="408.6" x2="536.9" y2="381.1" opacity="1.0" stroke="rgb(0,0,0)"  stroke-width="3"/>
<line x1="544.1" y1="375.1" x2="509.9" y2="355.3" opacity="1.0" stroke="rgb(0,0,0)"  stroke-width="3"/>
<line x1="509.9" y1="355.3" x2="475.7" y2="375.1" opacity="1.0" stroke="rgb(0,0,0)"  stroke-width="3"/>
<line x1="508.3" y1="364.5" x2="484.4" y2="378.3" opacity="1.0" stroke="rgb(0,0,0)"  stroke-width="3"/>
<line x1="475.7" y1="375.1" x2="475.7" y2="414.6" opacity="1.0" stroke="rgb(0,0,0)"  stroke-width="3"/>
<line x1="475.7" y1="414.6" x2="509.9" y2="434.3" opacity="1.0" stroke="rgb(0,0,0)"  stroke-width="3"/>
<line x1="484.4" y1="411.3" x2="508.3" y2="425.1" opacity="1.0" stroke="rgb(0,0,0)"  stroke-width="3"/>
<text x="380.761151" y="147.038011" fill="rgb(12,12,255)" stroke-width="0" font-weight="bold" font-size="25.92" >N</text>
<text x="196.846710" y="580.054312" fill="rgb(12,12,255)" stroke-width="0" font-weight="bold" font-size="25.92" >N</text>
<text x="367.473985" y="302.185352" fill="rgb(12,12,255)" stroke-width="0" font-weight="bold" font-size="25.92" >N</text>
<text x="230.231680" y="302.699087" fill="rgb(12,12,255)" stroke-width="0" font-weight="bold" font-size="25.92" >N</text>
<text x="297.481269" y="262.303652" fill="rgb(255,181,181)" stroke-width="0" font-weight="bold" font-size="25.92" >B</text>
</svg>
</g>
</svg>
