<?xml version="1.0"?>
<svg version="1.1" id="topsvg"
xmlns="http://www.w3.org/2000/svg" xmlns:xlink="http://www.w3.org/1999/xlink"
xmlns:cml="http://www.xml-cml.org/schema" x="0" y="0" width="200px" height="200px" viewBox="0 0 100 100">
<title>GD116.sdf - Open Babel Depiction</title>
<rect x="0" y="0" width="100" height="100" fill="white"/>
<g transform="translate(0,0)">
<svg width="100" height="100" x="0" y="0" viewBox="0 0 563.158 464.774"
font-family="sans-serif" stroke="rgb(0,0,0)" stroke-width="3"  stroke-linecap="round">
<line x1="385.5" y1="242.5" x2="405.2" y2="276.6" opacity="1.0" stroke="rgb(0,0,0)"  stroke-width="3"/>
<line x1="444.5" y1="208.4" x2="405.2" y2="208.4" opacity="1.0" stroke="rgb(0,0,0)"  stroke-width="3"/>
<line x1="210.3" y1="118.7" x2="210.3" y2="79.3" opacity="1.0" stroke="rgb(0,0,0)"  stroke-width="3"/>
<line x1="210.3" y1="79.3" x2="244.4" y2="59.7" opacity="1.0" stroke="rgb(0,0,0)"  stroke-width="3"/>
<line x1="210.3" y1="79.3" x2="176.3" y2="59.7" opacity="1.0" stroke="rgb(0,0,0)"  stroke-width="3"/>
<line x1="210.3" y1="79.3" x2="210.3" y2="40.0" opacity="1.0" stroke="rgb(0,0,0)"  stroke-width="3"/>
<line x1="108.1" y1="295.7" x2="74.1" y2="315.3" opacity="1.0" stroke="rgb(0,0,0)"  stroke-width="3"/>
<line x1="74.1" y1="315.3" x2="40.0" y2="335.0" opacity="1.0" stroke="rgb(0,0,0)"  stroke-width="3"/>
<line x1="74.1" y1="315.3" x2="74.1" y2="354.7" opacity="1.0" stroke="rgb(0,0,0)"  stroke-width="3"/>
<line x1="74.1" y1="315.3" x2="40.0" y2="295.7" opacity="1.0" stroke="rgb(0,0,0)"  stroke-width="3"/>
<line x1="142.2" y1="236.7" x2="176.3" y2="177.7" opacity="1.0" stroke="rgb(0,0,0)"  stroke-width="3"/>
<line x1="176.3" y1="177.7" x2="210.3" y2="197.3" opacity="1.0" stroke="rgb(0,0,0)"  stroke-width="3"/>
<line x1="177.9" y1="186.9" x2="201.5" y2="200.6" opacity="1.0" stroke="rgb(0,0,0)"  stroke-width="3"/>
<line x1="210.3" y1="197.3" x2="210.3" y2="223.7" opacity="1.0" stroke="rgb(0,0,0)"  stroke-width="3"/>
<line x1="199.1" y1="243.2" x2="176.3" y2="256.3" opacity="1.0" stroke="rgb(0,0,0)"  stroke-width="3"/>
<line x1="176.3" y1="256.3" x2="142.2" y2="236.7" opacity="1.0" stroke="rgb(0,0,0)"  stroke-width="3"/>
<line x1="174.7" y1="247.1" x2="151.0" y2="233.4" opacity="1.0" stroke="rgb(0,0,0)"  stroke-width="3"/>
<line x1="385.5" y1="242.5" x2="405.2" y2="208.4" opacity="1.0" stroke="rgb(0,0,0)"  stroke-width="3"/>
<line x1="382.2" y1="233.7" x2="395.9" y2="210.0" opacity="1.0" stroke="rgb(0,0,0)"  stroke-width="3"/>
<line x1="405.2" y1="208.4" x2="380.7" y2="177.7" opacity="1.0" stroke="rgb(0,0,0)"  stroke-width="3"/>
<line x1="380.7" y1="177.7" x2="346.6" y2="197.3" opacity="1.0" stroke="rgb(0,0,0)"  stroke-width="3"/>
<line x1="379.1" y1="186.9" x2="355.4" y2="200.6" opacity="1.0" stroke="rgb(0,0,0)"  stroke-width="3"/>
<line x1="346.6" y1="197.3" x2="346.6" y2="223.7" opacity="1.0" stroke="rgb(0,0,0)"  stroke-width="3"/>
<line x1="359.4" y1="238.6" x2="385.5" y2="242.5" opacity="1.0" stroke="rgb(0,0,0)"  stroke-width="3"/>
<line x1="244.4" y1="295.7" x2="278.5" y2="315.3" opacity="1.0" stroke="rgb(0,0,0)"  stroke-width="3"/>
<line x1="278.5" y1="315.3" x2="312.5" y2="295.7" opacity="1.0" stroke="rgb(0,0,0)"  stroke-width="3"/>
<line x1="280.1" y1="306.1" x2="303.7" y2="292.4" opacity="1.0" stroke="rgb(0,0,0)"  stroke-width="3"/>
<line x1="312.5" y1="295.7" x2="312.5" y2="256.3" opacity="1.0" stroke="rgb(0,0,0)"  stroke-width="3"/>
<line x1="312.5" y1="256.3" x2="278.5" y2="236.7" opacity="1.0" stroke="rgb(0,0,0)"  stroke-width="3"/>
<line x1="303.7" y1="259.6" x2="280.1" y2="245.9" opacity="1.0" stroke="rgb(0,0,0)"  stroke-width="3"/>
<line x1="278.5" y1="236.7" x2="244.4" y2="256.3" opacity="1.0" stroke="rgb(0,0,0)"  stroke-width="3"/>
<line x1="244.4" y1="256.3" x2="244.4" y2="295.7" opacity="1.0" stroke="rgb(0,0,0)"  stroke-width="3"/>
<line x1="251.6" y1="262.3" x2="251.6" y2="289.7" opacity="1.0" stroke="rgb(0,0,0)"  stroke-width="3"/>
<line x1="210.3" y1="197.3" x2="244.4" y2="177.7" opacity="1.0" stroke="rgb(0,0,0)"  stroke-width="3"/>
<line x1="244.4" y1="177.7" x2="267.2" y2="190.8" opacity="1.0" stroke="rgb(0,0,0)"  stroke-width="3"/>
<line x1="278.5" y1="210.3" x2="278.5" y2="236.7" opacity="1.0" stroke="rgb(0,0,0)"  stroke-width="3"/>
<line x1="244.4" y1="256.3" x2="221.6" y2="243.2" opacity="1.0" stroke="rgb(0,0,0)"  stroke-width="3"/>
<line x1="312.5" y1="256.3" x2="335.3" y2="243.2" opacity="1.0" stroke="rgb(0,0,0)"  stroke-width="3"/>
<line x1="346.6" y1="197.3" x2="312.5" y2="177.7" opacity="1.0" stroke="rgb(0,0,0)"  stroke-width="3"/>
<line x1="312.5" y1="177.7" x2="289.7" y2="190.8" opacity="1.0" stroke="rgb(0,0,0)"  stroke-width="3"/>
<line x1="346.6" y1="118.7" x2="312.5" y2="138.3" opacity="1.0" stroke="rgb(0,0,0)"  stroke-width="3"/>
<line x1="312.5" y1="138.3" x2="312.5" y2="177.7" opacity="1.0" stroke="rgb(0,0,0)"  stroke-width="3"/>
<line x1="319.7" y1="144.3" x2="319.7" y2="171.7" opacity="1.0" stroke="rgb(0,0,0)"  stroke-width="3"/>
<line x1="380.7" y1="177.7" x2="380.7" y2="138.3" opacity="1.0" stroke="rgb(0,0,0)"  stroke-width="3"/>
<line x1="380.7" y1="138.3" x2="346.6" y2="118.7" opacity="1.0" stroke="rgb(0,0,0)"  stroke-width="3"/>
<line x1="371.9" y1="141.6" x2="348.2" y2="127.9" opacity="1.0" stroke="rgb(0,0,0)"  stroke-width="3"/>
<line x1="380.7" y1="59.7" x2="346.6" y2="79.3" opacity="1.0" stroke="rgb(0,0,0)"  stroke-width="3"/>
<line x1="379.1" y1="68.9" x2="355.4" y2="82.6" opacity="1.0" stroke="rgb(0,0,0)"  stroke-width="3"/>
<line x1="346.6" y1="79.3" x2="346.6" y2="118.7" opacity="1.0" stroke="rgb(0,0,0)"  stroke-width="3"/>
<line x1="380.7" y1="138.3" x2="414.7" y2="118.7" opacity="1.0" stroke="rgb(0,0,0)"  stroke-width="3"/>
<line x1="414.7" y1="118.7" x2="414.7" y2="79.3" opacity="1.0" stroke="rgb(0,0,0)"  stroke-width="3"/>
<line x1="407.5" y1="112.7" x2="407.5" y2="85.3" opacity="1.0" stroke="rgb(0,0,0)"  stroke-width="3"/>
<line x1="414.7" y1="79.3" x2="380.7" y2="59.7" opacity="1.0" stroke="rgb(0,0,0)"  stroke-width="3"/>
<line x1="108.1" y1="295.7" x2="142.2" y2="315.3" opacity="1.0" stroke="rgb(0,0,0)"  stroke-width="3"/>
<line x1="142.2" y1="315.3" x2="176.3" y2="295.7" opacity="1.0" stroke="rgb(0,0,0)"  stroke-width="3"/>
<line x1="143.8" y1="306.1" x2="167.5" y2="292.4" opacity="1.0" stroke="rgb(0,0,0)"  stroke-width="3"/>
<line x1="176.3" y1="295.7" x2="176.3" y2="256.3" opacity="1.0" stroke="rgb(0,0,0)"  stroke-width="3"/>
<line x1="142.2" y1="236.7" x2="108.1" y2="256.3" opacity="1.0" stroke="rgb(0,0,0)"  stroke-width="3"/>
<line x1="108.1" y1="256.3" x2="108.1" y2="295.7" opacity="1.0" stroke="rgb(0,0,0)"  stroke-width="3"/>
<line x1="115.3" y1="262.3" x2="115.3" y2="289.7" opacity="1.0" stroke="rgb(0,0,0)"  stroke-width="3"/>
<line x1="176.3" y1="177.7" x2="176.3" y2="138.3" opacity="1.0" stroke="rgb(0,0,0)"  stroke-width="3"/>
<line x1="176.3" y1="138.3" x2="210.3" y2="118.7" opacity="1.0" stroke="rgb(0,0,0)"  stroke-width="3"/>
<line x1="185.1" y1="141.6" x2="208.7" y2="127.9" opacity="1.0" stroke="rgb(0,0,0)"  stroke-width="3"/>
<line x1="210.3" y1="118.7" x2="244.4" y2="138.3" opacity="1.0" stroke="rgb(0,0,0)"  stroke-width="3"/>
<line x1="244.4" y1="138.3" x2="244.4" y2="177.7" opacity="1.0" stroke="rgb(0,0,0)"  stroke-width="3"/>
<line x1="237.2" y1="144.3" x2="237.2" y2="171.7" opacity="1.0" stroke="rgb(0,0,0)"  stroke-width="3"/>
<line x1="385.5" y1="310.6" x2="405.2" y2="344.7" opacity="1.0" stroke="rgb(0,0,0)"  stroke-width="3"/>
<line x1="405.2" y1="344.7" x2="444.5" y2="344.7" opacity="1.0" stroke="rgb(0,0,0)"  stroke-width="3"/>
<line x1="411.2" y1="337.5" x2="438.5" y2="337.5" opacity="1.0" stroke="rgb(0,0,0)"  stroke-width="3"/>
<line x1="444.5" y1="344.7" x2="464.2" y2="310.6" opacity="1.0" stroke="rgb(0,0,0)"  stroke-width="3"/>
<line x1="464.2" y1="310.6" x2="444.5" y2="276.6" opacity="1.0" stroke="rgb(0,0,0)"  stroke-width="3"/>
<line x1="454.9" y1="309.0" x2="441.3" y2="285.4" opacity="1.0" stroke="rgb(0,0,0)"  stroke-width="3"/>
<line x1="444.5" y1="276.6" x2="405.2" y2="276.6" opacity="1.0" stroke="rgb(0,0,0)"  stroke-width="3"/>
<line x1="405.2" y1="276.6" x2="385.5" y2="310.6" opacity="1.0" stroke="rgb(0,0,0)"  stroke-width="3"/>
<line x1="408.4" y1="285.4" x2="394.7" y2="309.0" opacity="1.0" stroke="rgb(0,0,0)"  stroke-width="3"/>
<line x1="464.2" y1="242.5" x2="503.5" y2="242.5" opacity="1.0" stroke="rgb(0,0,0)"  stroke-width="3"/>
<line x1="503.5" y1="242.5" x2="523.2" y2="208.4" opacity="1.0" stroke="rgb(0,0,0)"  stroke-width="3"/>
<line x1="500.3" y1="233.7" x2="513.9" y2="210.0" opacity="1.0" stroke="rgb(0,0,0)"  stroke-width="3"/>
<line x1="523.2" y1="208.4" x2="503.5" y2="174.4" opacity="1.0" stroke="rgb(0,0,0)"  stroke-width="3"/>
<line x1="503.5" y1="174.4" x2="464.2" y2="174.4" opacity="1.0" stroke="rgb(0,0,0)"  stroke-width="3"/>
<line x1="497.5" y1="181.6" x2="470.2" y2="181.6" opacity="1.0" stroke="rgb(0,0,0)"  stroke-width="3"/>
<line x1="464.2" y1="174.4" x2="444.5" y2="208.4" opacity="1.0" stroke="rgb(0,0,0)"  stroke-width="3"/>
<line x1="444.5" y1="208.4" x2="464.2" y2="242.5" opacity="1.0" stroke="rgb(0,0,0)"  stroke-width="3"/>
<line x1="453.7" y1="210.0" x2="467.4" y2="233.7" opacity="1.0" stroke="rgb(0,0,0)"  stroke-width="3"/>
<line x1="125.9" y1="416.6" x2="164.3" y2="424.8" opacity="1.0" stroke="rgb(0,0,0)"  stroke-width="3"/>
<line x1="133.2" y1="410.8" x2="160.0" y2="416.5" opacity="1.0" stroke="rgb(0,0,0)"  stroke-width="3"/>
<line x1="164.3" y1="424.8" x2="190.7" y2="395.5" opacity="1.0" stroke="rgb(0,0,0)"  stroke-width="3"/>
<line x1="190.7" y1="395.5" x2="178.5" y2="358.1" opacity="1.0" stroke="rgb(0,0,0)"  stroke-width="3"/>
<line x1="182.0" y1="392.1" x2="173.5" y2="366.1" opacity="1.0" stroke="rgb(0,0,0)"  stroke-width="3"/>
<line x1="178.5" y1="358.1" x2="140.0" y2="350.0" opacity="1.0" stroke="rgb(0,0,0)"  stroke-width="3"/>
<line x1="140.0" y1="350.0" x2="113.7" y2="379.2" opacity="1.0" stroke="rgb(0,0,0)"  stroke-width="3"/>
<line x1="141.4" y1="359.2" x2="123.1" y2="379.5" opacity="1.0" stroke="rgb(0,0,0)"  stroke-width="3"/>
<line x1="113.7" y1="379.2" x2="125.9" y2="416.6" opacity="1.0" stroke="rgb(0,0,0)"  stroke-width="3"/>
<line x1="306.9" y1="379.2" x2="280.6" y2="350.0" opacity="1.0" stroke="rgb(0,0,0)"  stroke-width="3"/>
<line x1="297.6" y1="379.5" x2="279.3" y2="359.2" opacity="1.0" stroke="rgb(0,0,0)"  stroke-width="3"/>
<line x1="280.6" y1="350.0" x2="242.1" y2="358.1" opacity="1.0" stroke="rgb(0,0,0)"  stroke-width="3"/>
<line x1="242.1" y1="358.1" x2="230.0" y2="395.5" opacity="1.0" stroke="rgb(0,0,0)"  stroke-width="3"/>
<line x1="247.1" y1="366.1" x2="238.7" y2="392.1" opacity="1.0" stroke="rgb(0,0,0)"  stroke-width="3"/>
<line x1="230.0" y1="395.5" x2="256.3" y2="424.8" opacity="1.0" stroke="rgb(0,0,0)"  stroke-width="3"/>
<line x1="256.3" y1="424.8" x2="294.8" y2="416.6" opacity="1.0" stroke="rgb(0,0,0)"  stroke-width="3"/>
<line x1="260.7" y1="416.5" x2="287.4" y2="410.8" opacity="1.0" stroke="rgb(0,0,0)"  stroke-width="3"/>
<line x1="294.8" y1="416.6" x2="306.9" y2="379.2" opacity="1.0" stroke="rgb(0,0,0)"  stroke-width="3"/>
<line x1="190.7" y1="395.5" x2="230.0" y2="395.5" opacity="1.0" stroke="rgb(0,0,0)"  stroke-width="3"/>
<line x1="242.1" y1="358.1" x2="210.3" y2="325.2" opacity="1.0" stroke="rgb(0,0,0)"  stroke-width="3"/>
<line x1="210.3" y1="325.2" x2="178.5" y2="358.1" opacity="1.0" stroke="rgb(0,0,0)"  stroke-width="3"/>
<line x1="176.3" y1="295.7" x2="210.3" y2="325.2" opacity="1.0" stroke="rgb(0,0,0)"  stroke-width="3"/>
<line x1="210.3" y1="325.2" x2="244.4" y2="295.7" opacity="1.0" stroke="rgb(0,0,0)"  stroke-width="3"/>
<text x="204.325288" y="244.674623" fill="rgb(12,12,255)" stroke-width="0" font-weight="bold" font-size="25.92" >N</text>
<text x="340.585452" y="244.674623" fill="rgb(12,12,255)" stroke-width="0" font-weight="bold" font-size="25.92" >N</text>
<text x="272.455346" y="205.339680" fill="rgb(255,181,181)" stroke-width="0" font-weight="bold" font-size="25.92" >B</text>
</svg>
</g>
</svg>
