<?xml version="1.0"?>
<svg version="1.1" id="topsvg"
xmlns="http://www.w3.org/2000/svg" xmlns:xlink="http://www.w3.org/1999/xlink"
xmlns:cml="http://www.xml-cml.org/schema" x="0" y="0" width="200px" height="200px" viewBox="0 0 100 100">
<title>GD119.sdf - Open Babel Depiction</title>
<rect x="0" y="0" width="100" height="100" fill="white"/>
<g transform="translate(0,0)">
<svg width="100" height="100" x="0" y="0" viewBox="0 0 504.448 586.006"
font-family="sans-serif" stroke="rgb(0,0,0)" stroke-width="3"  stroke-linecap="round">
<line x1="226.2" y1="366.3" x2="226.2" y2="467.4" opacity="1.0" stroke="rgb(0,0,0)"  stroke-width="3"/>
<line x1="260.2" y1="487.1" x2="294.3" y2="467.4" opacity="1.0" stroke="rgb(0,0,0)"  stroke-width="3"/>
<line x1="362.3" y1="428.1" x2="396.4" y2="408.5" opacity="1.0" stroke="rgb(0,0,0)"  stroke-width="3"/>
<line x1="300.8" y1="123.1" x2="320.0" y2="105.1" opacity="1.0" stroke="rgb(0,0,0)"  stroke-width="3"/>
<line x1="98.3" y1="261.7" x2="122.1" y2="230.5" opacity="1.0" stroke="rgb(0,0,0)"  stroke-width="3"/>
<line x1="122.1" y1="230.5" x2="156.5" y2="249.5" opacity="1.0" stroke="rgb(0,0,0)"  stroke-width="3"/>
<line x1="156.5" y1="249.5" x2="157.1" y2="275.8" opacity="1.0" stroke="rgb(0,0,0)"  stroke-width="3"/>
<line x1="144.5" y1="291.0" x2="118.6" y2="295.3" opacity="1.0" stroke="rgb(0,0,0)"  stroke-width="3"/>
<line x1="118.6" y1="295.3" x2="98.3" y2="261.7" opacity="1.0" stroke="rgb(0,0,0)"  stroke-width="3"/>
<line x1="121.6" y1="286.5" x2="107.5" y2="263.1" opacity="1.0" stroke="rgb(0,0,0)"  stroke-width="3"/>
<line x1="351.9" y1="261.3" x2="325.1" y2="232.6" opacity="1.0" stroke="rgb(0,0,0)"  stroke-width="3"/>
<line x1="325.1" y1="232.6" x2="289.5" y2="249.3" opacity="1.0" stroke="rgb(0,0,0)"  stroke-width="3"/>
<line x1="322.7" y1="241.7" x2="298.0" y2="253.3" opacity="1.0" stroke="rgb(0,0,0)"  stroke-width="3"/>
<line x1="289.5" y1="249.3" x2="292.8" y2="275.4" opacity="1.0" stroke="rgb(0,0,0)"  stroke-width="3"/>
<line x1="307.1" y1="290.7" x2="333.0" y2="295.7" opacity="1.0" stroke="rgb(0,0,0)"  stroke-width="3"/>
<line x1="333.0" y1="295.7" x2="351.9" y2="261.3" opacity="1.0" stroke="rgb(0,0,0)"  stroke-width="3"/>
<line x1="329.5" y1="287.0" x2="342.7" y2="263.1" opacity="1.0" stroke="rgb(0,0,0)"  stroke-width="3"/>
<line x1="252.8" y1="124.6" x2="278.6" y2="129.5" opacity="1.0" stroke="rgb(0,0,0)"  stroke-width="3"/>
<line x1="293.0" y1="144.9" x2="296.2" y2="171.0" opacity="1.0" stroke="rgb(0,0,0)"  stroke-width="3"/>
<line x1="296.2" y1="171.0" x2="260.6" y2="187.7" opacity="1.0" stroke="rgb(0,0,0)"  stroke-width="3"/>
<line x1="260.6" y1="187.7" x2="233.8" y2="159.0" opacity="1.0" stroke="rgb(0,0,0)"  stroke-width="3"/>
<line x1="233.8" y1="159.0" x2="252.8" y2="124.6" opacity="1.0" stroke="rgb(0,0,0)"  stroke-width="3"/>
<line x1="243.0" y1="157.2" x2="256.2" y2="133.3" opacity="1.0" stroke="rgb(0,0,0)"  stroke-width="3"/>
<line x1="192.1" y1="346.9" x2="226.2" y2="366.3" opacity="1.0" stroke="rgb(0,0,0)"  stroke-width="3"/>
<line x1="226.2" y1="366.3" x2="260.1" y2="346.5" opacity="1.0" stroke="rgb(0,0,0)"  stroke-width="3"/>
<line x1="227.8" y1="357.1" x2="251.3" y2="343.3" opacity="1.0" stroke="rgb(0,0,0)"  stroke-width="3"/>
<line x1="260.1" y1="346.5" x2="259.9" y2="307.2" opacity="1.0" stroke="rgb(0,0,0)"  stroke-width="3"/>
<line x1="259.9" y1="307.2" x2="225.8" y2="287.7" opacity="1.0" stroke="rgb(0,0,0)"  stroke-width="3"/>
<line x1="251.1" y1="310.5" x2="227.4" y2="297.0" opacity="1.0" stroke="rgb(0,0,0)"  stroke-width="3"/>
<line x1="225.8" y1="287.7" x2="191.8" y2="307.6" opacity="1.0" stroke="rgb(0,0,0)"  stroke-width="3"/>
<line x1="191.8" y1="307.6" x2="192.1" y2="346.9" opacity="1.0" stroke="rgb(0,0,0)"  stroke-width="3"/>
<line x1="199.1" y1="313.5" x2="199.2" y2="340.8" opacity="1.0" stroke="rgb(0,0,0)"  stroke-width="3"/>
<line x1="224.9" y1="261.5" x2="225.8" y2="287.7" opacity="1.0" stroke="rgb(0,0,0)"  stroke-width="3"/>
<line x1="191.8" y1="307.6" x2="168.8" y2="295.0" opacity="1.0" stroke="rgb(0,0,0)"  stroke-width="3"/>
<line x1="156.5" y1="249.5" x2="190.2" y2="229.3" opacity="1.0" stroke="rgb(0,0,0)"  stroke-width="3"/>
<line x1="165.3" y1="252.6" x2="188.7" y2="238.5" opacity="1.0" stroke="rgb(0,0,0)"  stroke-width="3"/>
<line x1="190.2" y1="229.3" x2="213.1" y2="242.1" opacity="1.0" stroke="rgb(0,0,0)"  stroke-width="3"/>
<line x1="289.5" y1="249.3" x2="257.3" y2="226.8" opacity="1.0" stroke="rgb(0,0,0)"  stroke-width="3"/>
<line x1="257.3" y1="226.8" x2="235.3" y2="241.3" opacity="1.0" stroke="rgb(0,0,0)"  stroke-width="3"/>
<line x1="259.9" y1="307.2" x2="283.0" y2="294.5" opacity="1.0" stroke="rgb(0,0,0)"  stroke-width="3"/>
<line x1="60.3" y1="330.5" x2="99.6" y2="329.7" opacity="1.0" stroke="rgb(0,0,0)"  stroke-width="3"/>
<line x1="66.2" y1="323.2" x2="93.5" y2="322.7" opacity="1.0" stroke="rgb(0,0,0)"  stroke-width="3"/>
<line x1="99.6" y1="329.7" x2="118.6" y2="295.3" opacity="1.0" stroke="rgb(0,0,0)"  stroke-width="3"/>
<line x1="98.3" y1="261.7" x2="59.0" y2="262.4" opacity="1.0" stroke="rgb(0,0,0)"  stroke-width="3"/>
<line x1="59.0" y1="262.4" x2="40.0" y2="296.8" opacity="1.0" stroke="rgb(0,0,0)"  stroke-width="3"/>
<line x1="62.4" y1="271.2" x2="49.2" y2="295.1" opacity="1.0" stroke="rgb(0,0,0)"  stroke-width="3"/>
<line x1="40.0" y1="296.8" x2="60.3" y2="330.5" opacity="1.0" stroke="rgb(0,0,0)"  stroke-width="3"/>
<line x1="411.5" y1="294.2" x2="391.2" y2="260.5" opacity="1.0" stroke="rgb(0,0,0)"  stroke-width="3"/>
<line x1="402.3" y1="292.8" x2="388.2" y2="269.4" opacity="1.0" stroke="rgb(0,0,0)"  stroke-width="3"/>
<line x1="391.2" y1="260.5" x2="351.9" y2="261.3" opacity="1.0" stroke="rgb(0,0,0)"  stroke-width="3"/>
<line x1="333.0" y1="295.7" x2="353.3" y2="329.4" opacity="1.0" stroke="rgb(0,0,0)"  stroke-width="3"/>
<line x1="353.3" y1="329.4" x2="392.5" y2="328.6" opacity="1.0" stroke="rgb(0,0,0)"  stroke-width="3"/>
<line x1="359.1" y1="322.0" x2="386.4" y2="321.5" opacity="1.0" stroke="rgb(0,0,0)"  stroke-width="3"/>
<line x1="392.5" y1="328.6" x2="411.5" y2="294.2" opacity="1.0" stroke="rgb(0,0,0)"  stroke-width="3"/>
<line x1="260.6" y1="187.7" x2="257.3" y2="226.8" opacity="1.0" stroke="rgb(0,0,0)"  stroke-width="3"/>
<line x1="267.3" y1="194.2" x2="265.0" y2="221.4" opacity="1.0" stroke="rgb(0,0,0)"  stroke-width="3"/>
<line x1="325.1" y1="232.6" x2="328.4" y2="193.5" opacity="1.0" stroke="rgb(0,0,0)"  stroke-width="3"/>
<line x1="328.4" y1="193.5" x2="296.2" y2="171.0" opacity="1.0" stroke="rgb(0,0,0)"  stroke-width="3"/>
<line x1="319.4" y1="195.9" x2="297.0" y2="180.3" opacity="1.0" stroke="rgb(0,0,0)"  stroke-width="3"/>
<line x1="122.1" y1="230.5" x2="121.4" y2="191.2" opacity="1.0" stroke="rgb(0,0,0)"  stroke-width="3"/>
<line x1="129.2" y1="224.3" x2="128.8" y2="197.0" opacity="1.0" stroke="rgb(0,0,0)"  stroke-width="3"/>
<line x1="121.4" y1="191.2" x2="155.1" y2="170.9" opacity="1.0" stroke="rgb(0,0,0)"  stroke-width="3"/>
<line x1="155.1" y1="170.9" x2="189.5" y2="190.0" opacity="1.0" stroke="rgb(0,0,0)"  stroke-width="3"/>
<line x1="156.9" y1="180.1" x2="180.8" y2="193.4" opacity="1.0" stroke="rgb(0,0,0)"  stroke-width="3"/>
<line x1="189.5" y1="190.0" x2="190.2" y2="229.3" opacity="1.0" stroke="rgb(0,0,0)"  stroke-width="3"/>
<line x1="174.2" y1="126.1" x2="194.5" y2="159.7" opacity="1.0" stroke="rgb(0,0,0)"  stroke-width="3"/>
<line x1="183.4" y1="127.5" x2="197.5" y2="150.9" opacity="1.0" stroke="rgb(0,0,0)"  stroke-width="3"/>
<line x1="194.5" y1="159.7" x2="233.8" y2="159.0" opacity="1.0" stroke="rgb(0,0,0)"  stroke-width="3"/>
<line x1="252.8" y1="124.6" x2="232.5" y2="90.9" opacity="1.0" stroke="rgb(0,0,0)"  stroke-width="3"/>
<line x1="232.5" y1="90.9" x2="193.2" y2="91.7" opacity="1.0" stroke="rgb(0,0,0)"  stroke-width="3"/>
<line x1="226.6" y1="98.2" x2="199.3" y2="98.7" opacity="1.0" stroke="rgb(0,0,0)"  stroke-width="3"/>
<line x1="193.2" y1="91.7" x2="174.2" y2="126.1" opacity="1.0" stroke="rgb(0,0,0)"  stroke-width="3"/>
<line x1="192.2" y1="487.1" x2="192.2" y2="526.4" opacity="1.0" stroke="rgb(0,0,0)"  stroke-width="3"/>
<line x1="192.2" y1="526.4" x2="226.2" y2="546.0" opacity="1.0" stroke="rgb(0,0,0)"  stroke-width="3"/>
<line x1="201.0" y1="523.1" x2="224.6" y2="536.8" opacity="1.0" stroke="rgb(0,0,0)"  stroke-width="3"/>
<line x1="226.2" y1="546.0" x2="260.2" y2="526.4" opacity="1.0" stroke="rgb(0,0,0)"  stroke-width="3"/>
<line x1="260.2" y1="526.4" x2="260.2" y2="487.1" opacity="1.0" stroke="rgb(0,0,0)"  stroke-width="3"/>
<line x1="253.0" y1="520.4" x2="253.0" y2="493.1" opacity="1.0" stroke="rgb(0,0,0)"  stroke-width="3"/>
<line x1="260.2" y1="487.1" x2="226.2" y2="467.4" opacity="1.0" stroke="rgb(0,0,0)"  stroke-width="3"/>
<line x1="226.2" y1="467.4" x2="192.2" y2="487.1" opacity="1.0" stroke="rgb(0,0,0)"  stroke-width="3"/>
<line x1="224.6" y1="476.6" x2="201.0" y2="490.3" opacity="1.0" stroke="rgb(0,0,0)"  stroke-width="3"/>
<line x1="328.3" y1="487.1" x2="362.3" y2="467.4" opacity="1.0" stroke="rgb(0,0,0)"  stroke-width="3"/>
<line x1="362.3" y1="467.4" x2="362.3" y2="428.1" opacity="1.0" stroke="rgb(0,0,0)"  stroke-width="3"/>
<line x1="355.1" y1="461.4" x2="355.1" y2="434.1" opacity="1.0" stroke="rgb(0,0,0)"  stroke-width="3"/>
<line x1="362.3" y1="428.1" x2="328.3" y2="408.5" opacity="1.0" stroke="rgb(0,0,0)"  stroke-width="3"/>
<line x1="328.3" y1="408.5" x2="294.3" y2="428.1" opacity="1.0" stroke="rgb(0,0,0)"  stroke-width="3"/>
<line x1="326.7" y1="417.7" x2="303.1" y2="431.3" opacity="1.0" stroke="rgb(0,0,0)"  stroke-width="3"/>
<line x1="294.3" y1="428.1" x2="294.3" y2="467.4" opacity="1.0" stroke="rgb(0,0,0)"  stroke-width="3"/>
<line x1="294.3" y1="467.4" x2="328.3" y2="487.1" opacity="1.0" stroke="rgb(0,0,0)"  stroke-width="3"/>
<line x1="303.1" y1="464.2" x2="326.7" y2="477.8" opacity="1.0" stroke="rgb(0,0,0)"  stroke-width="3"/>
<line x1="260.2" y1="369.2" x2="260.2" y2="408.5" opacity="1.0" stroke="rgb(0,0,0)"  stroke-width="3"/>
<line x1="267.4" y1="375.2" x2="267.4" y2="402.5" opacity="1.0" stroke="rgb(0,0,0)"  stroke-width="3"/>
<line x1="260.2" y1="408.5" x2="294.3" y2="428.1" opacity="1.0" stroke="rgb(0,0,0)"  stroke-width="3"/>
<line x1="328.3" y1="408.5" x2="328.3" y2="369.2" opacity="1.0" stroke="rgb(0,0,0)"  stroke-width="3"/>
<line x1="328.3" y1="369.2" x2="294.3" y2="349.5" opacity="1.0" stroke="rgb(0,0,0)"  stroke-width="3"/>
<line x1="319.5" y1="372.4" x2="295.9" y2="358.8" opacity="1.0" stroke="rgb(0,0,0)"  stroke-width="3"/>
<line x1="294.3" y1="349.5" x2="260.2" y2="369.2" opacity="1.0" stroke="rgb(0,0,0)"  stroke-width="3"/>
<line x1="396.4" y1="526.4" x2="396.4" y2="487.1" opacity="1.0" stroke="rgb(0,0,0)"  stroke-width="3"/>
<line x1="389.2" y1="520.4" x2="389.2" y2="493.1" opacity="1.0" stroke="rgb(0,0,0)"  stroke-width="3"/>
<line x1="396.4" y1="487.1" x2="362.3" y2="467.4" opacity="1.0" stroke="rgb(0,0,0)"  stroke-width="3"/>
<line x1="328.3" y1="487.1" x2="328.3" y2="526.4" opacity="1.0" stroke="rgb(0,0,0)"  stroke-width="3"/>
<line x1="328.3" y1="526.4" x2="362.3" y2="546.0" opacity="1.0" stroke="rgb(0,0,0)"  stroke-width="3"/>
<line x1="337.1" y1="523.1" x2="360.8" y2="536.8" opacity="1.0" stroke="rgb(0,0,0)"  stroke-width="3"/>
<line x1="362.3" y1="546.0" x2="396.4" y2="526.4" opacity="1.0" stroke="rgb(0,0,0)"  stroke-width="3"/>
<line x1="430.4" y1="428.1" x2="464.4" y2="408.5" opacity="1.0" stroke="rgb(0,0,0)"  stroke-width="3"/>
<line x1="464.4" y1="408.5" x2="464.4" y2="369.2" opacity="1.0" stroke="rgb(0,0,0)"  stroke-width="3"/>
<line x1="457.2" y1="402.5" x2="457.2" y2="375.2" opacity="1.0" stroke="rgb(0,0,0)"  stroke-width="3"/>
<line x1="464.4" y1="369.2" x2="430.4" y2="349.5" opacity="1.0" stroke="rgb(0,0,0)"  stroke-width="3"/>
<line x1="430.4" y1="349.5" x2="396.4" y2="369.2" opacity="1.0" stroke="rgb(0,0,0)"  stroke-width="3"/>
<line x1="428.8" y1="358.8" x2="405.2" y2="372.4" opacity="1.0" stroke="rgb(0,0,0)"  stroke-width="3"/>
<line x1="396.4" y1="369.2" x2="396.4" y2="408.5" opacity="1.0" stroke="rgb(0,0,0)"  stroke-width="3"/>
<line x1="396.4" y1="408.5" x2="430.4" y2="428.1" opacity="1.0" stroke="rgb(0,0,0)"  stroke-width="3"/>
<line x1="405.2" y1="405.2" x2="428.8" y2="418.9" opacity="1.0" stroke="rgb(0,0,0)"  stroke-width="3"/>
<line x1="357.6" y1="116.5" x2="386.3" y2="89.7" opacity="1.0" stroke="rgb(0,0,0)"  stroke-width="3"/>
<line x1="386.3" y1="89.7" x2="377.4" y2="51.4" opacity="1.0" stroke="rgb(0,0,0)"  stroke-width="3"/>
<line x1="378.0" y1="85.5" x2="371.8" y2="58.9" opacity="1.0" stroke="rgb(0,0,0)"  stroke-width="3"/>
<line x1="377.4" y1="51.4" x2="339.8" y2="40.0" opacity="1.0" stroke="rgb(0,0,0)"  stroke-width="3"/>
<line x1="339.8" y1="40.0" x2="311.1" y2="66.9" opacity="1.0" stroke="rgb(0,0,0)"  stroke-width="3"/>
<line x1="340.4" y1="49.4" x2="320.4" y2="68.0" opacity="1.0" stroke="rgb(0,0,0)"  stroke-width="3"/>
<line x1="311.1" y1="66.9" x2="320.0" y2="105.1" opacity="1.0" stroke="rgb(0,0,0)"  stroke-width="3"/>
<line x1="320.0" y1="105.1" x2="357.6" y2="116.5" opacity="1.0" stroke="rgb(0,0,0)"  stroke-width="3"/>
<line x1="327.9" y1="100.0" x2="354.0" y2="107.9" opacity="1.0" stroke="rgb(0,0,0)"  stroke-width="3"/>
<text x="285.347504" y="139.982077" fill="rgb(12,12,255)" stroke-width="0" font-weight="bold" font-size="25.92" >N</text>
<text x="151.332219" y="296.796855" fill="rgb(12,12,255)" stroke-width="0" font-weight="bold" font-size="25.92" >N</text>
<text x="288.362291" y="296.283914" fill="rgb(12,12,255)" stroke-width="0" font-weight="bold" font-size="25.92" >N</text>
<text x="218.477860" y="256.463840" fill="rgb(255,181,181)" stroke-width="0" font-weight="bold" font-size="25.92" >B</text>
</svg>
</g>
</svg>
