<?xml version="1.0"?>
<svg version="1.1" id="topsvg"
xmlns="http://www.w3.org/2000/svg" xmlns:xlink="http://www.w3.org/1999/xlink"
xmlns:cml="http://www.xml-cml.org/schema" x="0" y="0" width="200px" height="200px" viewBox="0 0 100 100">
<title>GD113.sdf - Open Babel Depiction</title>
<rect x="0" y="0" width="100" height="100" fill="white"/>
<g transform="translate(0,0)">
<svg width="100" height="100" x="0" y="0" viewBox="0 0 583.781 586.747"
font-family="sans-serif" stroke="rgb(0,0,0)" stroke-width="3"  stroke-linecap="round">
<line x1="305.2" y1="366.8" x2="305.2" y2="468.0" opacity="1.0" stroke="rgb(0,0,0)"  stroke-width="3"/>
<line x1="118.7" y1="297.2" x2="79.4" y2="297.2" opacity="1.0" stroke="rgb(0,0,0)"  stroke-width="3"/>
<line x1="79.4" y1="297.2" x2="40.0" y2="297.2" opacity="1.0" stroke="rgb(0,0,0)"  stroke-width="3"/>
<line x1="59.7" y1="331.3" x2="79.4" y2="297.2" opacity="1.0" stroke="rgb(0,0,0)"  stroke-width="3"/>
<line x1="79.4" y1="297.2" x2="59.7" y2="263.1" opacity="1.0" stroke="rgb(0,0,0)"  stroke-width="3"/>
<line x1="339.3" y1="487.7" x2="373.4" y2="468.0" opacity="1.0" stroke="rgb(0,0,0)"  stroke-width="3"/>
<line x1="441.5" y1="428.7" x2="475.6" y2="409.0" opacity="1.0" stroke="rgb(0,0,0)"  stroke-width="3"/>
<line x1="379.9" y1="123.2" x2="399.2" y2="105.2" opacity="1.0" stroke="rgb(0,0,0)"  stroke-width="3"/>
<line x1="234.0" y1="171.1" x2="220.6" y2="134.1" opacity="1.0" stroke="rgb(0,0,0)"  stroke-width="3"/>
<line x1="220.6" y1="134.1" x2="181.5" y2="129.6" opacity="1.0" stroke="rgb(0,0,0)"  stroke-width="3"/>
<line x1="220.6" y1="134.1" x2="202.9" y2="99.0" opacity="1.0" stroke="rgb(0,0,0)"  stroke-width="3"/>
<line x1="220.6" y1="134.1" x2="240.2" y2="100.1" opacity="1.0" stroke="rgb(0,0,0)"  stroke-width="3"/>
<line x1="177.1" y1="262.0" x2="201.0" y2="230.7" opacity="1.0" stroke="rgb(0,0,0)"  stroke-width="3"/>
<line x1="201.0" y1="230.7" x2="235.4" y2="249.8" opacity="1.0" stroke="rgb(0,0,0)"  stroke-width="3"/>
<line x1="235.4" y1="249.8" x2="235.9" y2="276.2" opacity="1.0" stroke="rgb(0,0,0)"  stroke-width="3"/>
<line x1="223.4" y1="291.3" x2="197.4" y2="295.7" opacity="1.0" stroke="rgb(0,0,0)"  stroke-width="3"/>
<line x1="197.4" y1="295.7" x2="177.1" y2="262.0" opacity="1.0" stroke="rgb(0,0,0)"  stroke-width="3"/>
<line x1="200.5" y1="286.8" x2="186.3" y2="263.4" opacity="1.0" stroke="rgb(0,0,0)"  stroke-width="3"/>
<line x1="431.1" y1="261.6" x2="404.2" y2="232.9" opacity="1.0" stroke="rgb(0,0,0)"  stroke-width="3"/>
<line x1="404.2" y1="232.9" x2="368.6" y2="249.6" opacity="1.0" stroke="rgb(0,0,0)"  stroke-width="3"/>
<line x1="401.8" y1="242.0" x2="377.1" y2="253.6" opacity="1.0" stroke="rgb(0,0,0)"  stroke-width="3"/>
<line x1="368.6" y1="249.6" x2="371.8" y2="275.7" opacity="1.0" stroke="rgb(0,0,0)"  stroke-width="3"/>
<line x1="386.2" y1="291.1" x2="412.1" y2="296.1" opacity="1.0" stroke="rgb(0,0,0)"  stroke-width="3"/>
<line x1="412.1" y1="296.1" x2="431.1" y2="261.6" opacity="1.0" stroke="rgb(0,0,0)"  stroke-width="3"/>
<line x1="408.7" y1="287.4" x2="421.9" y2="263.4" opacity="1.0" stroke="rgb(0,0,0)"  stroke-width="3"/>
<line x1="331.8" y1="124.7" x2="357.7" y2="129.7" opacity="1.0" stroke="rgb(0,0,0)"  stroke-width="3"/>
<line x1="372.0" y1="145.0" x2="375.3" y2="171.2" opacity="1.0" stroke="rgb(0,0,0)"  stroke-width="3"/>
<line x1="375.3" y1="171.2" x2="339.7" y2="187.9" opacity="1.0" stroke="rgb(0,0,0)"  stroke-width="3"/>
<line x1="339.7" y1="187.9" x2="312.8" y2="159.1" opacity="1.0" stroke="rgb(0,0,0)"  stroke-width="3"/>
<line x1="312.8" y1="159.1" x2="331.8" y2="124.7" opacity="1.0" stroke="rgb(0,0,0)"  stroke-width="3"/>
<line x1="322.0" y1="157.4" x2="335.2" y2="133.4" opacity="1.0" stroke="rgb(0,0,0)"  stroke-width="3"/>
<line x1="271.0" y1="347.3" x2="305.2" y2="366.8" opacity="1.0" stroke="rgb(0,0,0)"  stroke-width="3"/>
<line x1="305.2" y1="366.8" x2="339.2" y2="346.9" opacity="1.0" stroke="rgb(0,0,0)"  stroke-width="3"/>
<line x1="306.7" y1="357.6" x2="330.4" y2="343.8" opacity="1.0" stroke="rgb(0,0,0)"  stroke-width="3"/>
<line x1="339.2" y1="346.9" x2="338.9" y2="307.6" opacity="1.0" stroke="rgb(0,0,0)"  stroke-width="3"/>
<line x1="338.9" y1="307.6" x2="304.8" y2="288.1" opacity="1.0" stroke="rgb(0,0,0)"  stroke-width="3"/>
<line x1="330.2" y1="310.9" x2="306.4" y2="297.3" opacity="1.0" stroke="rgb(0,0,0)"  stroke-width="3"/>
<line x1="304.8" y1="288.1" x2="270.8" y2="308.0" opacity="1.0" stroke="rgb(0,0,0)"  stroke-width="3"/>
<line x1="270.8" y1="308.0" x2="271.0" y2="347.3" opacity="1.0" stroke="rgb(0,0,0)"  stroke-width="3"/>
<line x1="278.0" y1="313.9" x2="278.2" y2="341.3" opacity="1.0" stroke="rgb(0,0,0)"  stroke-width="3"/>
<line x1="303.9" y1="261.8" x2="304.8" y2="288.1" opacity="1.0" stroke="rgb(0,0,0)"  stroke-width="3"/>
<line x1="270.8" y1="308.0" x2="247.6" y2="295.4" opacity="1.0" stroke="rgb(0,0,0)"  stroke-width="3"/>
<line x1="235.4" y1="249.8" x2="269.1" y2="229.5" opacity="1.0" stroke="rgb(0,0,0)"  stroke-width="3"/>
<line x1="244.2" y1="252.9" x2="267.7" y2="238.8" opacity="1.0" stroke="rgb(0,0,0)"  stroke-width="3"/>
<line x1="269.1" y1="229.5" x2="292.1" y2="242.4" opacity="1.0" stroke="rgb(0,0,0)"  stroke-width="3"/>
<line x1="368.6" y1="249.6" x2="336.3" y2="227.1" opacity="1.0" stroke="rgb(0,0,0)"  stroke-width="3"/>
<line x1="336.3" y1="227.1" x2="314.3" y2="241.6" opacity="1.0" stroke="rgb(0,0,0)"  stroke-width="3"/>
<line x1="338.9" y1="307.6" x2="362.1" y2="294.9" opacity="1.0" stroke="rgb(0,0,0)"  stroke-width="3"/>
<line x1="139.0" y1="330.9" x2="178.4" y2="330.2" opacity="1.0" stroke="rgb(0,0,0)"  stroke-width="3"/>
<line x1="144.9" y1="323.6" x2="172.3" y2="323.1" opacity="1.0" stroke="rgb(0,0,0)"  stroke-width="3"/>
<line x1="178.4" y1="330.2" x2="197.4" y2="295.7" opacity="1.0" stroke="rgb(0,0,0)"  stroke-width="3"/>
<line x1="177.1" y1="262.0" x2="137.7" y2="262.8" opacity="1.0" stroke="rgb(0,0,0)"  stroke-width="3"/>
<line x1="137.7" y1="262.8" x2="118.7" y2="297.2" opacity="1.0" stroke="rgb(0,0,0)"  stroke-width="3"/>
<line x1="141.1" y1="271.5" x2="127.9" y2="295.5" opacity="1.0" stroke="rgb(0,0,0)"  stroke-width="3"/>
<line x1="118.7" y1="297.2" x2="139.0" y2="330.9" opacity="1.0" stroke="rgb(0,0,0)"  stroke-width="3"/>
<line x1="490.8" y1="294.6" x2="470.5" y2="260.9" opacity="1.0" stroke="rgb(0,0,0)"  stroke-width="3"/>
<line x1="481.5" y1="293.2" x2="467.4" y2="269.7" opacity="1.0" stroke="rgb(0,0,0)"  stroke-width="3"/>
<line x1="470.5" y1="260.9" x2="431.1" y2="261.6" opacity="1.0" stroke="rgb(0,0,0)"  stroke-width="3"/>
<line x1="412.1" y1="296.1" x2="432.4" y2="329.8" opacity="1.0" stroke="rgb(0,0,0)"  stroke-width="3"/>
<line x1="432.4" y1="329.8" x2="471.8" y2="329.0" opacity="1.0" stroke="rgb(0,0,0)"  stroke-width="3"/>
<line x1="438.3" y1="322.5" x2="465.6" y2="321.9" opacity="1.0" stroke="rgb(0,0,0)"  stroke-width="3"/>
<line x1="471.8" y1="329.0" x2="490.8" y2="294.6" opacity="1.0" stroke="rgb(0,0,0)"  stroke-width="3"/>
<line x1="339.7" y1="187.9" x2="336.3" y2="227.1" opacity="1.0" stroke="rgb(0,0,0)"  stroke-width="3"/>
<line x1="346.3" y1="194.5" x2="344.0" y2="221.7" opacity="1.0" stroke="rgb(0,0,0)"  stroke-width="3"/>
<line x1="404.2" y1="232.9" x2="407.6" y2="193.7" opacity="1.0" stroke="rgb(0,0,0)"  stroke-width="3"/>
<line x1="407.6" y1="193.7" x2="375.3" y2="171.2" opacity="1.0" stroke="rgb(0,0,0)"  stroke-width="3"/>
<line x1="398.5" y1="196.2" x2="376.1" y2="180.5" opacity="1.0" stroke="rgb(0,0,0)"  stroke-width="3"/>
<line x1="201.0" y1="230.7" x2="200.3" y2="191.4" opacity="1.0" stroke="rgb(0,0,0)"  stroke-width="3"/>
<line x1="208.1" y1="224.6" x2="207.6" y2="197.3" opacity="1.0" stroke="rgb(0,0,0)"  stroke-width="3"/>
<line x1="200.3" y1="191.4" x2="234.0" y2="171.1" opacity="1.0" stroke="rgb(0,0,0)"  stroke-width="3"/>
<line x1="234.0" y1="171.1" x2="268.4" y2="190.2" opacity="1.0" stroke="rgb(0,0,0)"  stroke-width="3"/>
<line x1="235.8" y1="180.3" x2="259.7" y2="193.6" opacity="1.0" stroke="rgb(0,0,0)"  stroke-width="3"/>
<line x1="268.4" y1="190.2" x2="269.1" y2="229.5" opacity="1.0" stroke="rgb(0,0,0)"  stroke-width="3"/>
<line x1="253.1" y1="126.2" x2="273.4" y2="159.9" opacity="1.0" stroke="rgb(0,0,0)"  stroke-width="3"/>
<line x1="262.3" y1="127.6" x2="276.5" y2="151.0" opacity="1.0" stroke="rgb(0,0,0)"  stroke-width="3"/>
<line x1="273.4" y1="159.9" x2="312.8" y2="159.1" opacity="1.0" stroke="rgb(0,0,0)"  stroke-width="3"/>
<line x1="331.8" y1="124.7" x2="311.4" y2="91.0" opacity="1.0" stroke="rgb(0,0,0)"  stroke-width="3"/>
<line x1="311.4" y1="91.0" x2="272.1" y2="91.7" opacity="1.0" stroke="rgb(0,0,0)"  stroke-width="3"/>
<line x1="305.6" y1="98.3" x2="278.2" y2="98.8" opacity="1.0" stroke="rgb(0,0,0)"  stroke-width="3"/>
<line x1="272.1" y1="91.7" x2="253.1" y2="126.2" opacity="1.0" stroke="rgb(0,0,0)"  stroke-width="3"/>
<line x1="271.1" y1="487.7" x2="271.1" y2="527.1" opacity="1.0" stroke="rgb(0,0,0)"  stroke-width="3"/>
<line x1="271.1" y1="527.1" x2="305.2" y2="546.7" opacity="1.0" stroke="rgb(0,0,0)"  stroke-width="3"/>
<line x1="279.9" y1="523.8" x2="303.6" y2="537.5" opacity="1.0" stroke="rgb(0,0,0)"  stroke-width="3"/>
<line x1="305.2" y1="546.7" x2="339.3" y2="527.1" opacity="1.0" stroke="rgb(0,0,0)"  stroke-width="3"/>
<line x1="339.3" y1="527.1" x2="339.3" y2="487.7" opacity="1.0" stroke="rgb(0,0,0)"  stroke-width="3"/>
<line x1="332.1" y1="521.1" x2="332.1" y2="493.7" opacity="1.0" stroke="rgb(0,0,0)"  stroke-width="3"/>
<line x1="339.3" y1="487.7" x2="305.2" y2="468.0" opacity="1.0" stroke="rgb(0,0,0)"  stroke-width="3"/>
<line x1="305.2" y1="468.0" x2="271.1" y2="487.7" opacity="1.0" stroke="rgb(0,0,0)"  stroke-width="3"/>
<line x1="303.6" y1="477.3" x2="279.9" y2="490.9" opacity="1.0" stroke="rgb(0,0,0)"  stroke-width="3"/>
<line x1="407.4" y1="487.7" x2="441.5" y2="468.0" opacity="1.0" stroke="rgb(0,0,0)"  stroke-width="3"/>
<line x1="441.5" y1="468.0" x2="441.5" y2="428.7" opacity="1.0" stroke="rgb(0,0,0)"  stroke-width="3"/>
<line x1="434.3" y1="462.0" x2="434.3" y2="434.7" opacity="1.0" stroke="rgb(0,0,0)"  stroke-width="3"/>
<line x1="441.5" y1="428.7" x2="407.4" y2="409.0" opacity="1.0" stroke="rgb(0,0,0)"  stroke-width="3"/>
<line x1="407.4" y1="409.0" x2="373.4" y2="428.7" opacity="1.0" stroke="rgb(0,0,0)"  stroke-width="3"/>
<line x1="405.9" y1="418.2" x2="382.2" y2="431.9" opacity="1.0" stroke="rgb(0,0,0)"  stroke-width="3"/>
<line x1="373.4" y1="428.7" x2="373.4" y2="468.0" opacity="1.0" stroke="rgb(0,0,0)"  stroke-width="3"/>
<line x1="373.4" y1="468.0" x2="407.4" y2="487.7" opacity="1.0" stroke="rgb(0,0,0)"  stroke-width="3"/>
<line x1="382.2" y1="464.8" x2="405.9" y2="478.5" opacity="1.0" stroke="rgb(0,0,0)"  stroke-width="3"/>
<line x1="339.3" y1="369.6" x2="339.3" y2="409.0" opacity="1.0" stroke="rgb(0,0,0)"  stroke-width="3"/>
<line x1="346.5" y1="375.6" x2="346.5" y2="403.0" opacity="1.0" stroke="rgb(0,0,0)"  stroke-width="3"/>
<line x1="339.3" y1="409.0" x2="373.4" y2="428.7" opacity="1.0" stroke="rgb(0,0,0)"  stroke-width="3"/>
<line x1="407.4" y1="409.0" x2="407.4" y2="369.6" opacity="1.0" stroke="rgb(0,0,0)"  stroke-width="3"/>
<line x1="407.4" y1="369.6" x2="373.4" y2="350.0" opacity="1.0" stroke="rgb(0,0,0)"  stroke-width="3"/>
<line x1="398.7" y1="372.9" x2="375.0" y2="359.2" opacity="1.0" stroke="rgb(0,0,0)"  stroke-width="3"/>
<line x1="373.4" y1="350.0" x2="339.3" y2="369.6" opacity="1.0" stroke="rgb(0,0,0)"  stroke-width="3"/>
<line x1="475.6" y1="527.1" x2="475.6" y2="487.7" opacity="1.0" stroke="rgb(0,0,0)"  stroke-width="3"/>
<line x1="468.4" y1="521.1" x2="468.4" y2="493.7" opacity="1.0" stroke="rgb(0,0,0)"  stroke-width="3"/>
<line x1="475.6" y1="487.7" x2="441.5" y2="468.0" opacity="1.0" stroke="rgb(0,0,0)"  stroke-width="3"/>
<line x1="407.4" y1="487.7" x2="407.4" y2="527.1" opacity="1.0" stroke="rgb(0,0,0)"  stroke-width="3"/>
<line x1="407.4" y1="527.1" x2="441.5" y2="546.7" opacity="1.0" stroke="rgb(0,0,0)"  stroke-width="3"/>
<line x1="416.2" y1="523.8" x2="439.9" y2="537.5" opacity="1.0" stroke="rgb(0,0,0)"  stroke-width="3"/>
<line x1="441.5" y1="546.7" x2="475.6" y2="527.1" opacity="1.0" stroke="rgb(0,0,0)"  stroke-width="3"/>
<line x1="509.7" y1="428.7" x2="543.8" y2="409.0" opacity="1.0" stroke="rgb(0,0,0)"  stroke-width="3"/>
<line x1="543.8" y1="409.0" x2="543.8" y2="369.6" opacity="1.0" stroke="rgb(0,0,0)"  stroke-width="3"/>
<line x1="536.6" y1="403.0" x2="536.6" y2="375.6" opacity="1.0" stroke="rgb(0,0,0)"  stroke-width="3"/>
<line x1="543.8" y1="369.6" x2="509.7" y2="350.0" opacity="1.0" stroke="rgb(0,0,0)"  stroke-width="3"/>
<line x1="509.7" y1="350.0" x2="475.6" y2="369.6" opacity="1.0" stroke="rgb(0,0,0)"  stroke-width="3"/>
<line x1="508.1" y1="359.2" x2="484.4" y2="372.9" opacity="1.0" stroke="rgb(0,0,0)"  stroke-width="3"/>
<line x1="475.6" y1="369.6" x2="475.6" y2="409.0" opacity="1.0" stroke="rgb(0,0,0)"  stroke-width="3"/>
<line x1="475.6" y1="409.0" x2="509.7" y2="428.7" opacity="1.0" stroke="rgb(0,0,0)"  stroke-width="3"/>
<line x1="484.4" y1="405.8" x2="508.1" y2="419.4" opacity="1.0" stroke="rgb(0,0,0)"  stroke-width="3"/>
<line x1="436.8" y1="116.7" x2="465.6" y2="89.8" opacity="1.0" stroke="rgb(0,0,0)"  stroke-width="3"/>
<line x1="465.6" y1="89.8" x2="456.6" y2="51.4" opacity="1.0" stroke="rgb(0,0,0)"  stroke-width="3"/>
<line x1="457.2" y1="85.6" x2="451.0" y2="58.9" opacity="1.0" stroke="rgb(0,0,0)"  stroke-width="3"/>
<line x1="456.6" y1="51.4" x2="419.0" y2="40.0" opacity="1.0" stroke="rgb(0,0,0)"  stroke-width="3"/>
<line x1="419.0" y1="40.0" x2="390.2" y2="66.9" opacity="1.0" stroke="rgb(0,0,0)"  stroke-width="3"/>
<line x1="419.5" y1="49.4" x2="399.5" y2="68.0" opacity="1.0" stroke="rgb(0,0,0)"  stroke-width="3"/>
<line x1="390.2" y1="66.9" x2="399.2" y2="105.2" opacity="1.0" stroke="rgb(0,0,0)"  stroke-width="3"/>
<line x1="399.2" y1="105.2" x2="436.8" y2="116.7" opacity="1.0" stroke="rgb(0,0,0)"  stroke-width="3"/>
<line x1="407.0" y1="100.1" x2="433.2" y2="108.0" opacity="1.0" stroke="rgb(0,0,0)"  stroke-width="3"/>
<text x="364.426763" y="140.116799" fill="rgb(12,12,255)" stroke-width="0" font-weight="bold" font-size="25.92" >N</text>
<text x="367.445965" y="296.647563" fill="rgb(12,12,255)" stroke-width="0" font-weight="bold" font-size="25.92" >N</text>
<text x="230.215192" y="297.161255" fill="rgb(12,12,255)" stroke-width="0" font-weight="bold" font-size="25.92" >N</text>
<text x="297.459178" y="256.769167" fill="rgb(255,181,181)" stroke-width="0" font-weight="bold" font-size="25.92" >B</text>
</svg>
</g>
</svg>
