<?xml version="1.0"?>
<svg version="1.1" id="topsvg"
xmlns="http://www.w3.org/2000/svg" xmlns:xlink="http://www.w3.org/1999/xlink"
xmlns:cml="http://www.xml-cml.org/schema" x="0" y="0" width="200px" height="200px" viewBox="0 0 100 100">
<title>GD110.sdf - Open Babel Depiction</title>
<rect x="0" y="0" width="100" height="100" fill="white"/>
<g transform="translate(0,0)">
<svg width="100" height="100" x="0" y="0" viewBox="0 0 564.024 583.651"
font-family="sans-serif" stroke="rgb(0,0,0)" stroke-width="3"  stroke-linecap="round">
<line x1="217.7" y1="172.0" x2="217.7" y2="132.7" opacity="1.0" stroke="rgb(0,0,0)"  stroke-width="3"/>
<line x1="102.2" y1="310.2" x2="63.1" y2="314.3" opacity="1.0" stroke="rgb(0,0,0)"  stroke-width="3"/>
<line x1="285.8" y1="368.4" x2="285.8" y2="465.1" opacity="1.0" stroke="rgb(0,0,0)"  stroke-width="3"/>
<line x1="217.7" y1="132.7" x2="251.8" y2="113.0" opacity="1.0" stroke="rgb(0,0,0)"  stroke-width="3"/>
<line x1="183.7" y1="113.0" x2="217.7" y2="132.7" opacity="1.0" stroke="rgb(0,0,0)"  stroke-width="3"/>
<line x1="63.1" y1="314.3" x2="40.0" y2="282.5" opacity="1.0" stroke="rgb(0,0,0)"  stroke-width="3"/>
<line x1="47.1" y1="350.2" x2="63.1" y2="314.3" opacity="1.0" stroke="rgb(0,0,0)"  stroke-width="3"/>
<line x1="365.6" y1="128.8" x2="350.0" y2="107.7" opacity="1.0" stroke="rgb(0,0,0)"  stroke-width="3"/>
<line x1="217.7" y1="132.7" x2="217.7" y2="93.4" opacity="1.0" stroke="rgb(0,0,0)"  stroke-width="3"/>
<line x1="63.1" y1="314.3" x2="79.1" y2="278.4" opacity="1.0" stroke="rgb(0,0,0)"  stroke-width="3"/>
<line x1="319.8" y1="484.7" x2="353.9" y2="465.1" opacity="1.0" stroke="rgb(0,0,0)"  stroke-width="3"/>
<line x1="391.2" y1="302.0" x2="414.3" y2="270.2" opacity="1.0" stroke="rgb(0,0,0)"  stroke-width="3"/>
<line x1="414.3" y1="270.2" x2="391.2" y2="238.4" opacity="1.0" stroke="rgb(0,0,0)"  stroke-width="3"/>
<line x1="391.2" y1="238.4" x2="353.9" y2="250.6" opacity="1.0" stroke="rgb(0,0,0)"  stroke-width="3"/>
<line x1="387.8" y1="247.1" x2="361.8" y2="255.5" opacity="1.0" stroke="rgb(0,0,0)"  stroke-width="3"/>
<line x1="353.9" y1="250.6" x2="353.9" y2="276.8" opacity="1.0" stroke="rgb(0,0,0)"  stroke-width="3"/>
<line x1="366.2" y1="293.9" x2="391.2" y2="302.0" opacity="1.0" stroke="rgb(0,0,0)"  stroke-width="3"/>
<line x1="157.2" y1="270.2" x2="180.3" y2="302.0" opacity="1.0" stroke="rgb(0,0,0)"  stroke-width="3"/>
<line x1="166.6" y1="270.8" x2="182.6" y2="292.9" opacity="1.0" stroke="rgb(0,0,0)"  stroke-width="3"/>
<line x1="180.3" y1="302.0" x2="205.4" y2="293.9" opacity="1.0" stroke="rgb(0,0,0)"  stroke-width="3"/>
<line x1="217.7" y1="276.8" x2="217.7" y2="250.6" opacity="1.0" stroke="rgb(0,0,0)"  stroke-width="3"/>
<line x1="217.7" y1="250.6" x2="183.7" y2="230.9" opacity="1.0" stroke="rgb(0,0,0)"  stroke-width="3"/>
<line x1="208.9" y1="253.8" x2="185.3" y2="240.1" opacity="1.0" stroke="rgb(0,0,0)"  stroke-width="3"/>
<line x1="183.7" y1="230.9" x2="157.2" y2="270.2" opacity="1.0" stroke="rgb(0,0,0)"  stroke-width="3"/>
<line x1="412.6" y1="139.3" x2="386.3" y2="139.3" opacity="1.0" stroke="rgb(0,0,0)"  stroke-width="3"/>
<line x1="369.4" y1="151.7" x2="361.6" y2="176.5" opacity="1.0" stroke="rgb(0,0,0)"  stroke-width="3"/>
<line x1="361.6" y1="176.5" x2="393.7" y2="199.2" opacity="1.0" stroke="rgb(0,0,0)"  stroke-width="3"/>
<line x1="370.7" y1="174.1" x2="393.0" y2="189.8" opacity="1.0" stroke="rgb(0,0,0)"  stroke-width="3"/>
<line x1="393.7" y1="199.2" x2="425.2" y2="176.5" opacity="1.0" stroke="rgb(0,0,0)"  stroke-width="3"/>
<line x1="425.2" y1="176.5" x2="412.6" y2="139.3" opacity="1.0" stroke="rgb(0,0,0)"  stroke-width="3"/>
<line x1="416.5" y1="173.2" x2="407.7" y2="147.3" opacity="1.0" stroke="rgb(0,0,0)"  stroke-width="3"/>
<line x1="285.8" y1="368.4" x2="319.8" y2="348.8" opacity="1.0" stroke="rgb(0,0,0)"  stroke-width="3"/>
<line x1="287.4" y1="359.2" x2="311.0" y2="345.6" opacity="1.0" stroke="rgb(0,0,0)"  stroke-width="3"/>
<line x1="319.8" y1="348.8" x2="319.8" y2="309.5" opacity="1.0" stroke="rgb(0,0,0)"  stroke-width="3"/>
<line x1="319.8" y1="309.5" x2="285.8" y2="289.8" opacity="1.0" stroke="rgb(0,0,0)"  stroke-width="3"/>
<line x1="311.0" y1="312.7" x2="287.4" y2="299.1" opacity="1.0" stroke="rgb(0,0,0)"  stroke-width="3"/>
<line x1="285.8" y1="289.8" x2="251.8" y2="309.5" opacity="1.0" stroke="rgb(0,0,0)"  stroke-width="3"/>
<line x1="251.8" y1="309.5" x2="251.8" y2="348.8" opacity="1.0" stroke="rgb(0,0,0)"  stroke-width="3"/>
<line x1="259.0" y1="315.5" x2="259.0" y2="342.8" opacity="1.0" stroke="rgb(0,0,0)"  stroke-width="3"/>
<line x1="251.8" y1="348.8" x2="285.8" y2="368.4" opacity="1.0" stroke="rgb(0,0,0)"  stroke-width="3"/>
<line x1="319.8" y1="309.5" x2="342.6" y2="296.3" opacity="1.0" stroke="rgb(0,0,0)"  stroke-width="3"/>
<line x1="353.9" y1="250.6" x2="319.8" y2="230.9" opacity="1.0" stroke="rgb(0,0,0)"  stroke-width="3"/>
<line x1="319.8" y1="230.9" x2="297.0" y2="244.1" opacity="1.0" stroke="rgb(0,0,0)"  stroke-width="3"/>
<line x1="285.8" y1="263.6" x2="285.8" y2="289.8" opacity="1.0" stroke="rgb(0,0,0)"  stroke-width="3"/>
<line x1="469.4" y1="310.2" x2="453.4" y2="274.3" opacity="1.0" stroke="rgb(0,0,0)"  stroke-width="3"/>
<line x1="453.4" y1="274.3" x2="414.3" y2="270.2" opacity="1.0" stroke="rgb(0,0,0)"  stroke-width="3"/>
<line x1="446.7" y1="280.8" x2="419.5" y2="278.0" opacity="1.0" stroke="rgb(0,0,0)"  stroke-width="3"/>
<line x1="391.2" y1="302.0" x2="407.2" y2="337.9" opacity="1.0" stroke="rgb(0,0,0)"  stroke-width="3"/>
<line x1="400.2" y1="304.5" x2="411.4" y2="329.5" opacity="1.0" stroke="rgb(0,0,0)"  stroke-width="3"/>
<line x1="407.2" y1="337.9" x2="446.3" y2="342.0" opacity="1.0" stroke="rgb(0,0,0)"  stroke-width="3"/>
<line x1="446.3" y1="342.0" x2="469.4" y2="310.2" opacity="1.0" stroke="rgb(0,0,0)"  stroke-width="3"/>
<line x1="444.0" y1="332.9" x2="460.0" y2="310.8" opacity="1.0" stroke="rgb(0,0,0)"  stroke-width="3"/>
<line x1="477.0" y1="117.4" x2="438.5" y2="109.8" opacity="1.0" stroke="rgb(0,0,0)"  stroke-width="3"/>
<line x1="469.7" y1="123.3" x2="442.9" y2="118.0" opacity="1.0" stroke="rgb(0,0,0)"  stroke-width="3"/>
<line x1="438.5" y1="109.8" x2="412.6" y2="139.3" opacity="1.0" stroke="rgb(0,0,0)"  stroke-width="3"/>
<line x1="425.2" y1="176.5" x2="463.8" y2="184.2" opacity="1.0" stroke="rgb(0,0,0)"  stroke-width="3"/>
<line x1="463.8" y1="184.2" x2="489.7" y2="154.6" opacity="1.0" stroke="rgb(0,0,0)"  stroke-width="3"/>
<line x1="462.3" y1="174.9" x2="480.3" y2="154.4" opacity="1.0" stroke="rgb(0,0,0)"  stroke-width="3"/>
<line x1="489.7" y1="154.6" x2="477.0" y2="117.4" opacity="1.0" stroke="rgb(0,0,0)"  stroke-width="3"/>
<line x1="274.5" y1="244.1" x2="251.8" y2="230.9" opacity="1.0" stroke="rgb(0,0,0)"  stroke-width="3"/>
<line x1="251.8" y1="230.9" x2="217.7" y2="250.6" opacity="1.0" stroke="rgb(0,0,0)"  stroke-width="3"/>
<line x1="229.0" y1="296.3" x2="251.8" y2="309.5" opacity="1.0" stroke="rgb(0,0,0)"  stroke-width="3"/>
<line x1="183.7" y1="191.6" x2="183.7" y2="230.9" opacity="1.0" stroke="rgb(0,0,0)"  stroke-width="3"/>
<line x1="251.8" y1="230.9" x2="251.8" y2="191.6" opacity="1.0" stroke="rgb(0,0,0)"  stroke-width="3"/>
<line x1="244.6" y1="224.9" x2="244.6" y2="197.6" opacity="1.0" stroke="rgb(0,0,0)"  stroke-width="3"/>
<line x1="251.8" y1="191.6" x2="217.7" y2="172.0" opacity="1.0" stroke="rgb(0,0,0)"  stroke-width="3"/>
<line x1="217.7" y1="172.0" x2="183.7" y2="191.6" opacity="1.0" stroke="rgb(0,0,0)"  stroke-width="3"/>
<line x1="216.1" y1="181.2" x2="192.5" y2="194.8" opacity="1.0" stroke="rgb(0,0,0)"  stroke-width="3"/>
<line x1="325.5" y1="192.0" x2="319.8" y2="230.9" opacity="1.0" stroke="rgb(0,0,0)"  stroke-width="3"/>
<line x1="331.8" y1="199.0" x2="327.8" y2="226.0" opacity="1.0" stroke="rgb(0,0,0)"  stroke-width="3"/>
<line x1="391.2" y1="238.4" x2="393.7" y2="199.2" opacity="1.0" stroke="rgb(0,0,0)"  stroke-width="3"/>
<line x1="361.6" y1="176.5" x2="325.5" y2="192.0" opacity="1.0" stroke="rgb(0,0,0)"  stroke-width="3"/>
<line x1="125.3" y1="342.0" x2="102.2" y2="310.2" opacity="1.0" stroke="rgb(0,0,0)"  stroke-width="3"/>
<line x1="102.2" y1="310.2" x2="118.2" y2="274.3" opacity="1.0" stroke="rgb(0,0,0)"  stroke-width="3"/>
<line x1="111.2" y1="307.7" x2="122.3" y2="282.7" opacity="1.0" stroke="rgb(0,0,0)"  stroke-width="3"/>
<line x1="118.2" y1="274.3" x2="157.2" y2="270.2" opacity="1.0" stroke="rgb(0,0,0)"  stroke-width="3"/>
<line x1="180.3" y1="302.0" x2="164.4" y2="337.9" opacity="1.0" stroke="rgb(0,0,0)"  stroke-width="3"/>
<line x1="164.4" y1="337.9" x2="125.3" y2="342.0" opacity="1.0" stroke="rgb(0,0,0)"  stroke-width="3"/>
<line x1="157.6" y1="331.4" x2="130.5" y2="334.2" opacity="1.0" stroke="rgb(0,0,0)"  stroke-width="3"/>
<line x1="365.8" y1="71.7" x2="342.5" y2="40.0" opacity="1.0" stroke="rgb(0,0,0)"  stroke-width="3"/>
<line x1="342.5" y1="40.0" x2="303.4" y2="44.3" opacity="1.0" stroke="rgb(0,0,0)"  stroke-width="3"/>
<line x1="337.3" y1="47.8" x2="310.2" y2="50.8" opacity="1.0" stroke="rgb(0,0,0)"  stroke-width="3"/>
<line x1="303.4" y1="44.3" x2="287.7" y2="80.3" opacity="1.0" stroke="rgb(0,0,0)"  stroke-width="3"/>
<line x1="287.7" y1="80.3" x2="310.9" y2="112.0" opacity="1.0" stroke="rgb(0,0,0)"  stroke-width="3"/>
<line x1="297.0" y1="80.9" x2="313.2" y2="102.9" opacity="1.0" stroke="rgb(0,0,0)"  stroke-width="3"/>
<line x1="310.9" y1="112.0" x2="350.0" y2="107.7" opacity="1.0" stroke="rgb(0,0,0)"  stroke-width="3"/>
<line x1="350.0" y1="107.7" x2="365.8" y2="71.7" opacity="1.0" stroke="rgb(0,0,0)"  stroke-width="3"/>
<line x1="345.8" y1="99.3" x2="356.8" y2="74.3" opacity="1.0" stroke="rgb(0,0,0)"  stroke-width="3"/>
<line x1="251.8" y1="484.7" x2="251.8" y2="524.0" opacity="1.0" stroke="rgb(0,0,0)"  stroke-width="3"/>
<line x1="251.8" y1="524.0" x2="285.8" y2="543.7" opacity="1.0" stroke="rgb(0,0,0)"  stroke-width="3"/>
<line x1="260.6" y1="520.8" x2="284.2" y2="534.4" opacity="1.0" stroke="rgb(0,0,0)"  stroke-width="3"/>
<line x1="285.8" y1="543.7" x2="319.8" y2="524.0" opacity="1.0" stroke="rgb(0,0,0)"  stroke-width="3"/>
<line x1="319.8" y1="524.0" x2="319.8" y2="484.7" opacity="1.0" stroke="rgb(0,0,0)"  stroke-width="3"/>
<line x1="312.6" y1="518.0" x2="312.6" y2="490.7" opacity="1.0" stroke="rgb(0,0,0)"  stroke-width="3"/>
<line x1="319.8" y1="484.7" x2="285.8" y2="465.1" opacity="1.0" stroke="rgb(0,0,0)"  stroke-width="3"/>
<line x1="285.8" y1="465.1" x2="251.8" y2="484.7" opacity="1.0" stroke="rgb(0,0,0)"  stroke-width="3"/>
<line x1="284.2" y1="474.3" x2="260.6" y2="487.9" opacity="1.0" stroke="rgb(0,0,0)"  stroke-width="3"/>
<line x1="387.9" y1="484.7" x2="421.9" y2="465.1" opacity="1.0" stroke="rgb(0,0,0)"  stroke-width="3"/>
<line x1="421.9" y1="465.1" x2="421.9" y2="425.8" opacity="1.0" stroke="rgb(0,0,0)"  stroke-width="3"/>
<line x1="414.7" y1="459.1" x2="414.7" y2="431.8" opacity="1.0" stroke="rgb(0,0,0)"  stroke-width="3"/>
<line x1="421.9" y1="425.8" x2="387.9" y2="406.1" opacity="1.0" stroke="rgb(0,0,0)"  stroke-width="3"/>
<line x1="387.9" y1="406.1" x2="353.9" y2="425.8" opacity="1.0" stroke="rgb(0,0,0)"  stroke-width="3"/>
<line x1="386.3" y1="415.3" x2="362.7" y2="429.0" opacity="1.0" stroke="rgb(0,0,0)"  stroke-width="3"/>
<line x1="353.9" y1="425.8" x2="353.9" y2="465.1" opacity="1.0" stroke="rgb(0,0,0)"  stroke-width="3"/>
<line x1="353.9" y1="465.1" x2="387.9" y2="484.7" opacity="1.0" stroke="rgb(0,0,0)"  stroke-width="3"/>
<line x1="362.7" y1="461.8" x2="386.3" y2="475.5" opacity="1.0" stroke="rgb(0,0,0)"  stroke-width="3"/>
<line x1="456.0" y1="524.0" x2="456.0" y2="484.7" opacity="1.0" stroke="rgb(0,0,0)"  stroke-width="3"/>
<line x1="448.8" y1="518.0" x2="448.8" y2="490.7" opacity="1.0" stroke="rgb(0,0,0)"  stroke-width="3"/>
<line x1="456.0" y1="484.7" x2="421.9" y2="465.1" opacity="1.0" stroke="rgb(0,0,0)"  stroke-width="3"/>
<line x1="387.9" y1="484.7" x2="387.9" y2="524.0" opacity="1.0" stroke="rgb(0,0,0)"  stroke-width="3"/>
<line x1="387.9" y1="524.0" x2="421.9" y2="543.7" opacity="1.0" stroke="rgb(0,0,0)"  stroke-width="3"/>
<line x1="396.7" y1="520.8" x2="420.3" y2="534.4" opacity="1.0" stroke="rgb(0,0,0)"  stroke-width="3"/>
<line x1="421.9" y1="543.7" x2="456.0" y2="524.0" opacity="1.0" stroke="rgb(0,0,0)"  stroke-width="3"/>
<line x1="490.0" y1="425.8" x2="456.0" y2="406.1" opacity="1.0" stroke="rgb(0,0,0)"  stroke-width="3"/>
<line x1="481.2" y1="429.0" x2="457.6" y2="415.3" opacity="1.0" stroke="rgb(0,0,0)"  stroke-width="3"/>
<line x1="456.0" y1="406.1" x2="421.9" y2="425.8" opacity="1.0" stroke="rgb(0,0,0)"  stroke-width="3"/>
<line x1="456.0" y1="484.7" x2="490.0" y2="465.1" opacity="1.0" stroke="rgb(0,0,0)"  stroke-width="3"/>
<line x1="490.0" y1="465.1" x2="490.0" y2="425.8" opacity="1.0" stroke="rgb(0,0,0)"  stroke-width="3"/>
<line x1="456.0" y1="524.0" x2="490.0" y2="543.7" opacity="1.0" stroke="rgb(0,0,0)"  stroke-width="3"/>
<line x1="490.0" y1="543.7" x2="524.0" y2="524.0" opacity="1.0" stroke="rgb(0,0,0)"  stroke-width="3"/>
<line x1="491.6" y1="534.4" x2="515.2" y2="520.8" opacity="1.0" stroke="rgb(0,0,0)"  stroke-width="3"/>
<line x1="524.0" y1="524.0" x2="524.0" y2="484.7" opacity="1.0" stroke="rgb(0,0,0)"  stroke-width="3"/>
<line x1="524.0" y1="484.7" x2="490.0" y2="465.1" opacity="1.0" stroke="rgb(0,0,0)"  stroke-width="3"/>
<line x1="515.2" y1="487.9" x2="491.6" y2="474.3" opacity="1.0" stroke="rgb(0,0,0)"  stroke-width="3"/>
<text x="367.271690" y="147.317964" fill="rgb(12,12,255)" stroke-width="0" font-weight="bold" font-size="25.92" >N</text>
<text x="211.723405" y="297.848769" fill="rgb(12,12,255)" stroke-width="0" font-weight="bold" font-size="25.92" >N</text>
<text x="347.857033" y="297.849103" fill="rgb(12,12,255)" stroke-width="0" font-weight="bold" font-size="25.92" >N</text>
<text x="279.790171" y="258.550684" fill="rgb(255,181,181)" stroke-width="0" font-weight="bold" font-size="25.92" >B</text>
</svg>
</g>
</svg>
