<?xml version="1.0"?>
<svg version="1.1" id="topsvg"
xmlns="http://www.w3.org/2000/svg" xmlns:xlink="http://www.w3.org/1999/xlink"
xmlns:cml="http://www.xml-cml.org/schema" x="0" y="0" width="200px" height="200px" viewBox="0 0 100 100">
<title>GD117.sdf - Open Babel Depiction</title>
<rect x="0" y="0" width="100" height="100" fill="white"/>
<g transform="translate(0,0)">
<svg width="100" height="100" x="0" y="0" viewBox="0 0 579.866 552.21"
font-family="sans-serif" stroke="rgb(0,0,0)" stroke-width="3"  stroke-linecap="round">
<line x1="399.9" y1="278.1" x2="419.9" y2="312.8" opacity="1.0" stroke="rgb(0,0,0)"  stroke-width="3"/>
<line x1="459.9" y1="243.5" x2="419.9" y2="243.5" opacity="1.0" stroke="rgb(0,0,0)"  stroke-width="3"/>
<line x1="144.7" y1="148.1" x2="118.3" y2="153.8" opacity="1.0" stroke="rgb(0,0,0)"  stroke-width="3"/>
<line x1="291.0" y1="352.2" x2="291.0" y2="392.2" opacity="1.0" stroke="rgb(0,0,0)"  stroke-width="3"/>
<line x1="256.4" y1="452.2" x2="221.7" y2="472.2" opacity="1.0" stroke="rgb(0,0,0)"  stroke-width="3"/>
<line x1="325.7" y1="452.2" x2="360.3" y2="472.2" opacity="1.0" stroke="rgb(0,0,0)"  stroke-width="3"/>
<line x1="221.7" y1="472.2" x2="187.1" y2="492.2" opacity="1.0" stroke="rgb(0,0,0)"  stroke-width="3"/>
<line x1="221.7" y1="472.2" x2="221.7" y2="512.2" opacity="1.0" stroke="rgb(0,0,0)"  stroke-width="3"/>
<line x1="221.7" y1="472.2" x2="187.1" y2="452.2" opacity="1.0" stroke="rgb(0,0,0)"  stroke-width="3"/>
<line x1="360.3" y1="472.2" x2="394.9" y2="492.2" opacity="1.0" stroke="rgb(0,0,0)"  stroke-width="3"/>
<line x1="360.3" y1="472.2" x2="360.3" y2="512.2" opacity="1.0" stroke="rgb(0,0,0)"  stroke-width="3"/>
<line x1="360.3" y1="472.2" x2="394.9" y2="452.2" opacity="1.0" stroke="rgb(0,0,0)"  stroke-width="3"/>
<line x1="162.2" y1="243.5" x2="187.1" y2="212.2" opacity="1.0" stroke="rgb(0,0,0)"  stroke-width="3"/>
<line x1="187.1" y1="212.2" x2="221.7" y2="232.2" opacity="1.0" stroke="rgb(0,0,0)"  stroke-width="3"/>
<line x1="221.7" y1="232.2" x2="221.7" y2="259.2" opacity="1.0" stroke="rgb(0,0,0)"  stroke-width="3"/>
<line x1="208.9" y1="274.1" x2="182.2" y2="278.1" opacity="1.0" stroke="rgb(0,0,0)"  stroke-width="3"/>
<line x1="182.2" y1="278.1" x2="162.2" y2="243.5" opacity="1.0" stroke="rgb(0,0,0)"  stroke-width="3"/>
<line x1="185.4" y1="269.3" x2="171.4" y2="245.1" opacity="1.0" stroke="rgb(0,0,0)"  stroke-width="3"/>
<line x1="173.6" y1="108.9" x2="213.4" y2="113.1" opacity="1.0" stroke="rgb(0,0,0)"  stroke-width="3"/>
<line x1="178.9" y1="116.7" x2="206.7" y2="119.6" opacity="1.0" stroke="rgb(0,0,0)"  stroke-width="3"/>
<line x1="213.4" y1="113.1" x2="221.7" y2="152.2" opacity="1.0" stroke="rgb(0,0,0)"  stroke-width="3"/>
<line x1="221.7" y1="152.2" x2="187.1" y2="172.2" opacity="1.0" stroke="rgb(0,0,0)"  stroke-width="3"/>
<line x1="187.1" y1="172.2" x2="167.0" y2="154.1" opacity="1.0" stroke="rgb(0,0,0)"  stroke-width="3"/>
<line x1="162.7" y1="133.6" x2="173.6" y2="108.9" opacity="1.0" stroke="rgb(0,0,0)"  stroke-width="3"/>
<line x1="419.9" y1="243.5" x2="394.9" y2="212.2" opacity="1.0" stroke="rgb(0,0,0)"  stroke-width="3"/>
<line x1="394.9" y1="212.2" x2="360.3" y2="232.2" opacity="1.0" stroke="rgb(0,0,0)"  stroke-width="3"/>
<line x1="360.3" y1="232.2" x2="360.3" y2="259.2" opacity="1.0" stroke="rgb(0,0,0)"  stroke-width="3"/>
<line x1="373.2" y1="274.1" x2="399.9" y2="278.1" opacity="1.0" stroke="rgb(0,0,0)"  stroke-width="3"/>
<line x1="399.9" y1="278.1" x2="419.9" y2="243.5" opacity="1.0" stroke="rgb(0,0,0)"  stroke-width="3"/>
<line x1="396.6" y1="269.3" x2="410.6" y2="245.1" opacity="1.0" stroke="rgb(0,0,0)"  stroke-width="3"/>
<line x1="256.4" y1="332.2" x2="291.0" y2="352.2" opacity="1.0" stroke="rgb(0,0,0)"  stroke-width="3"/>
<line x1="291.0" y1="352.2" x2="325.7" y2="332.2" opacity="1.0" stroke="rgb(0,0,0)"  stroke-width="3"/>
<line x1="292.6" y1="343.0" x2="316.9" y2="329.0" opacity="1.0" stroke="rgb(0,0,0)"  stroke-width="3"/>
<line x1="325.7" y1="332.2" x2="325.7" y2="292.2" opacity="1.0" stroke="rgb(0,0,0)"  stroke-width="3"/>
<line x1="325.7" y1="292.2" x2="291.0" y2="272.2" opacity="1.0" stroke="rgb(0,0,0)"  stroke-width="3"/>
<line x1="316.9" y1="295.4" x2="292.6" y2="281.4" opacity="1.0" stroke="rgb(0,0,0)"  stroke-width="3"/>
<line x1="291.0" y1="272.2" x2="256.4" y2="292.2" opacity="1.0" stroke="rgb(0,0,0)"  stroke-width="3"/>
<line x1="256.4" y1="292.2" x2="256.4" y2="332.2" opacity="1.0" stroke="rgb(0,0,0)"  stroke-width="3"/>
<line x1="263.6" y1="298.2" x2="263.6" y2="326.2" opacity="1.0" stroke="rgb(0,0,0)"  stroke-width="3"/>
<line x1="291.0" y1="245.2" x2="291.0" y2="272.2" opacity="1.0" stroke="rgb(0,0,0)"  stroke-width="3"/>
<line x1="256.4" y1="292.2" x2="233.0" y2="278.7" opacity="1.0" stroke="rgb(0,0,0)"  stroke-width="3"/>
<line x1="221.7" y1="232.2" x2="256.4" y2="212.2" opacity="1.0" stroke="rgb(0,0,0)"  stroke-width="3"/>
<line x1="230.5" y1="235.4" x2="254.8" y2="221.4" opacity="1.0" stroke="rgb(0,0,0)"  stroke-width="3"/>
<line x1="256.4" y1="212.2" x2="279.8" y2="225.7" opacity="1.0" stroke="rgb(0,0,0)"  stroke-width="3"/>
<line x1="180.9" y1="40.0" x2="220.7" y2="44.2" opacity="1.0" stroke="rgb(0,0,0)"  stroke-width="3"/>
<line x1="220.7" y1="44.2" x2="236.9" y2="80.7" opacity="1.0" stroke="rgb(0,0,0)"  stroke-width="3"/>
<line x1="216.5" y1="52.6" x2="227.9" y2="78.2" opacity="1.0" stroke="rgb(0,0,0)"  stroke-width="3"/>
<line x1="236.9" y1="80.7" x2="213.4" y2="113.1" opacity="1.0" stroke="rgb(0,0,0)"  stroke-width="3"/>
<line x1="173.6" y1="108.9" x2="157.4" y2="72.4" opacity="1.0" stroke="rgb(0,0,0)"  stroke-width="3"/>
<line x1="157.4" y1="72.4" x2="180.9" y2="40.0" opacity="1.0" stroke="rgb(0,0,0)"  stroke-width="3"/>
<line x1="166.7" y1="71.7" x2="183.2" y2="49.1" opacity="1.0" stroke="rgb(0,0,0)"  stroke-width="3"/>
<line x1="360.3" y1="232.2" x2="325.7" y2="212.2" opacity="1.0" stroke="rgb(0,0,0)"  stroke-width="3"/>
<line x1="351.5" y1="235.4" x2="327.3" y2="221.4" opacity="1.0" stroke="rgb(0,0,0)"  stroke-width="3"/>
<line x1="325.7" y1="212.2" x2="302.3" y2="225.7" opacity="1.0" stroke="rgb(0,0,0)"  stroke-width="3"/>
<line x1="325.7" y1="292.2" x2="349.1" y2="278.7" opacity="1.0" stroke="rgb(0,0,0)"  stroke-width="3"/>
<line x1="122.2" y1="312.8" x2="162.2" y2="312.8" opacity="1.0" stroke="rgb(0,0,0)"  stroke-width="3"/>
<line x1="128.2" y1="305.6" x2="156.2" y2="305.6" opacity="1.0" stroke="rgb(0,0,0)"  stroke-width="3"/>
<line x1="162.2" y1="312.8" x2="182.2" y2="278.1" opacity="1.0" stroke="rgb(0,0,0)"  stroke-width="3"/>
<line x1="162.2" y1="243.5" x2="122.2" y2="243.5" opacity="1.0" stroke="rgb(0,0,0)"  stroke-width="3"/>
<line x1="122.2" y1="243.5" x2="102.2" y2="278.1" opacity="1.0" stroke="rgb(0,0,0)"  stroke-width="3"/>
<line x1="125.4" y1="252.3" x2="111.4" y2="276.5" opacity="1.0" stroke="rgb(0,0,0)"  stroke-width="3"/>
<line x1="102.2" y1="278.1" x2="122.2" y2="312.8" opacity="1.0" stroke="rgb(0,0,0)"  stroke-width="3"/>
<line x1="360.3" y1="152.2" x2="325.7" y2="172.2" opacity="1.0" stroke="rgb(0,0,0)"  stroke-width="3"/>
<line x1="358.7" y1="161.4" x2="334.5" y2="175.4" opacity="1.0" stroke="rgb(0,0,0)"  stroke-width="3"/>
<line x1="325.7" y1="172.2" x2="325.7" y2="212.2" opacity="1.0" stroke="rgb(0,0,0)"  stroke-width="3"/>
<line x1="394.9" y1="212.2" x2="394.9" y2="172.2" opacity="1.0" stroke="rgb(0,0,0)"  stroke-width="3"/>
<line x1="387.7" y1="206.2" x2="387.7" y2="178.2" opacity="1.0" stroke="rgb(0,0,0)"  stroke-width="3"/>
<line x1="394.9" y1="172.2" x2="360.3" y2="152.2" opacity="1.0" stroke="rgb(0,0,0)"  stroke-width="3"/>
<line x1="187.1" y1="212.2" x2="187.1" y2="172.2" opacity="1.0" stroke="rgb(0,0,0)"  stroke-width="3"/>
<line x1="194.3" y1="206.2" x2="194.3" y2="178.2" opacity="1.0" stroke="rgb(0,0,0)"  stroke-width="3"/>
<line x1="221.7" y1="152.2" x2="256.4" y2="172.2" opacity="1.0" stroke="rgb(0,0,0)"  stroke-width="3"/>
<line x1="223.3" y1="161.4" x2="247.6" y2="175.4" opacity="1.0" stroke="rgb(0,0,0)"  stroke-width="3"/>
<line x1="256.4" y1="172.2" x2="256.4" y2="212.2" opacity="1.0" stroke="rgb(0,0,0)"  stroke-width="3"/>
<line x1="291.0" y1="112.2" x2="325.7" y2="92.2" opacity="1.0" stroke="rgb(0,0,0)"  stroke-width="3"/>
<line x1="325.7" y1="92.2" x2="360.3" y2="112.2" opacity="1.0" stroke="rgb(0,0,0)"  stroke-width="3"/>
<line x1="327.3" y1="101.4" x2="351.5" y2="115.4" opacity="1.0" stroke="rgb(0,0,0)"  stroke-width="3"/>
<line x1="360.3" y1="112.2" x2="360.3" y2="152.2" opacity="1.0" stroke="rgb(0,0,0)"  stroke-width="3"/>
<line x1="325.7" y1="172.2" x2="291.0" y2="152.2" opacity="1.0" stroke="rgb(0,0,0)"  stroke-width="3"/>
<line x1="291.0" y1="152.2" x2="291.0" y2="112.2" opacity="1.0" stroke="rgb(0,0,0)"  stroke-width="3"/>
<line x1="298.2" y1="146.2" x2="298.2" y2="118.2" opacity="1.0" stroke="rgb(0,0,0)"  stroke-width="3"/>
<line x1="91.5" y1="124.0" x2="52.4" y2="132.4" opacity="1.0" stroke="rgb(0,0,0)"  stroke-width="3"/>
<line x1="52.4" y1="132.4" x2="40.0" y2="170.4" opacity="1.0" stroke="rgb(0,0,0)"  stroke-width="3"/>
<line x1="57.4" y1="140.3" x2="48.7" y2="166.9" opacity="1.0" stroke="rgb(0,0,0)"  stroke-width="3"/>
<line x1="40.0" y1="170.4" x2="66.8" y2="200.1" opacity="1.0" stroke="rgb(0,0,0)"  stroke-width="3"/>
<line x1="66.8" y1="200.1" x2="105.9" y2="191.8" opacity="1.0" stroke="rgb(0,0,0)"  stroke-width="3"/>
<line x1="71.1" y1="191.8" x2="98.5" y2="186.0" opacity="1.0" stroke="rgb(0,0,0)"  stroke-width="3"/>
<line x1="105.9" y1="191.8" x2="118.3" y2="153.8" opacity="1.0" stroke="rgb(0,0,0)"  stroke-width="3"/>
<line x1="118.3" y1="153.8" x2="91.5" y2="124.0" opacity="1.0" stroke="rgb(0,0,0)"  stroke-width="3"/>
<line x1="108.9" y1="154.1" x2="90.2" y2="133.3" opacity="1.0" stroke="rgb(0,0,0)"  stroke-width="3"/>
<line x1="256.4" y1="412.2" x2="256.4" y2="452.2" opacity="1.0" stroke="rgb(0,0,0)"  stroke-width="3"/>
<line x1="256.4" y1="452.2" x2="291.0" y2="472.2" opacity="1.0" stroke="rgb(0,0,0)"  stroke-width="3"/>
<line x1="265.2" y1="449.0" x2="289.4" y2="463.0" opacity="1.0" stroke="rgb(0,0,0)"  stroke-width="3"/>
<line x1="291.0" y1="472.2" x2="325.7" y2="452.2" opacity="1.0" stroke="rgb(0,0,0)"  stroke-width="3"/>
<line x1="325.7" y1="452.2" x2="325.7" y2="412.2" opacity="1.0" stroke="rgb(0,0,0)"  stroke-width="3"/>
<line x1="318.5" y1="446.2" x2="318.5" y2="418.2" opacity="1.0" stroke="rgb(0,0,0)"  stroke-width="3"/>
<line x1="325.7" y1="412.2" x2="291.0" y2="392.2" opacity="1.0" stroke="rgb(0,0,0)"  stroke-width="3"/>
<line x1="291.0" y1="392.2" x2="256.4" y2="412.2" opacity="1.0" stroke="rgb(0,0,0)"  stroke-width="3"/>
<line x1="289.4" y1="401.4" x2="265.2" y2="415.4" opacity="1.0" stroke="rgb(0,0,0)"  stroke-width="3"/>
<line x1="399.9" y1="347.4" x2="419.9" y2="382.1" opacity="1.0" stroke="rgb(0,0,0)"  stroke-width="3"/>
<line x1="419.9" y1="382.1" x2="459.9" y2="382.1" opacity="1.0" stroke="rgb(0,0,0)"  stroke-width="3"/>
<line x1="425.9" y1="374.9" x2="453.9" y2="374.9" opacity="1.0" stroke="rgb(0,0,0)"  stroke-width="3"/>
<line x1="459.9" y1="382.1" x2="479.9" y2="347.4" opacity="1.0" stroke="rgb(0,0,0)"  stroke-width="3"/>
<line x1="479.9" y1="347.4" x2="459.9" y2="312.8" opacity="1.0" stroke="rgb(0,0,0)"  stroke-width="3"/>
<line x1="470.6" y1="345.8" x2="456.6" y2="321.6" opacity="1.0" stroke="rgb(0,0,0)"  stroke-width="3"/>
<line x1="459.9" y1="312.8" x2="419.9" y2="312.8" opacity="1.0" stroke="rgb(0,0,0)"  stroke-width="3"/>
<line x1="419.9" y1="312.8" x2="399.9" y2="347.4" opacity="1.0" stroke="rgb(0,0,0)"  stroke-width="3"/>
<line x1="423.1" y1="321.6" x2="409.1" y2="345.8" opacity="1.0" stroke="rgb(0,0,0)"  stroke-width="3"/>
<line x1="479.9" y1="278.1" x2="519.9" y2="278.1" opacity="1.0" stroke="rgb(0,0,0)"  stroke-width="3"/>
<line x1="519.9" y1="278.1" x2="539.9" y2="243.5" opacity="1.0" stroke="rgb(0,0,0)"  stroke-width="3"/>
<line x1="516.6" y1="269.3" x2="530.6" y2="245.1" opacity="1.0" stroke="rgb(0,0,0)"  stroke-width="3"/>
<line x1="539.9" y1="243.5" x2="519.9" y2="208.9" opacity="1.0" stroke="rgb(0,0,0)"  stroke-width="3"/>
<line x1="519.9" y1="208.9" x2="479.9" y2="208.9" opacity="1.0" stroke="rgb(0,0,0)"  stroke-width="3"/>
<line x1="513.9" y1="216.1" x2="485.9" y2="216.1" opacity="1.0" stroke="rgb(0,0,0)"  stroke-width="3"/>
<line x1="479.9" y1="208.9" x2="459.9" y2="243.5" opacity="1.0" stroke="rgb(0,0,0)"  stroke-width="3"/>
<line x1="459.9" y1="243.5" x2="479.9" y2="278.1" opacity="1.0" stroke="rgb(0,0,0)"  stroke-width="3"/>
<line x1="469.1" y1="245.1" x2="483.1" y2="269.3" opacity="1.0" stroke="rgb(0,0,0)"  stroke-width="3"/>
<text x="215.744270" y="280.209604" fill="rgb(12,12,255)" stroke-width="0" font-weight="bold" font-size="25.92" >N</text>
<text x="354.308474" y="280.210188" fill="rgb(12,12,255)" stroke-width="0" font-weight="bold" font-size="25.92" >N</text>
<text x="285.026397" y="240.209742" fill="rgb(255,181,181)" stroke-width="0" font-weight="bold" font-size="25.92" >B</text>
<text x="151.377779" y="153.444228" fill="rgb(12,12,255)" stroke-width="0" font-weight="bold" font-size="25.92" >N</text>
</svg>
</g>
</svg>
