<?xml version="1.0"?>
<svg version="1.1" id="topsvg"
xmlns="http://www.w3.org/2000/svg" xmlns:xlink="http://www.w3.org/1999/xlink"
xmlns:cml="http://www.xml-cml.org/schema" x="0" y="0" width="200px" height="200px" viewBox="0 0 100 100">
<title>GD112.sdf - Open Babel Depiction</title>
<rect x="0" y="0" width="100" height="100" fill="white"/>
<g transform="translate(0,0)">
<svg width="100" height="100" x="0" y="0" viewBox="0 0 584.222 626.636"
font-family="sans-serif" stroke="rgb(0,0,0)" stroke-width="3"  stroke-linecap="round">
<line x1="237.0" y1="552.5" x2="223.8" y2="529.7" opacity="1.0" stroke="rgb(0,0,0)"  stroke-width="3"/>
<line x1="237.0" y1="552.5" x2="214.2" y2="565.7" opacity="1.0" stroke="rgb(0,0,0)"  stroke-width="3"/>
<line x1="237.0" y1="552.5" x2="250.2" y2="575.4" opacity="1.0" stroke="rgb(0,0,0)"  stroke-width="3"/>
<line x1="271.2" y1="532.8" x2="237.0" y2="552.5" opacity="1.0" stroke="rgb(0,0,0)"  stroke-width="3"/>
<line x1="305.3" y1="372.5" x2="305.3" y2="473.7" opacity="1.0" stroke="rgb(0,0,0)"  stroke-width="3"/>
<line x1="234.1" y1="176.7" x2="234.1" y2="137.3" opacity="1.0" stroke="rgb(0,0,0)"  stroke-width="3"/>
<line x1="118.7" y1="302.8" x2="79.4" y2="302.8" opacity="1.0" stroke="rgb(0,0,0)"  stroke-width="3"/>
<line x1="79.4" y1="302.8" x2="40.0" y2="302.8" opacity="1.0" stroke="rgb(0,0,0)"  stroke-width="3"/>
<line x1="59.7" y1="336.9" x2="79.4" y2="302.8" opacity="1.0" stroke="rgb(0,0,0)"  stroke-width="3"/>
<line x1="234.1" y1="137.3" x2="268.2" y2="117.6" opacity="1.0" stroke="rgb(0,0,0)"  stroke-width="3"/>
<line x1="200.0" y1="117.6" x2="234.1" y2="137.3" opacity="1.0" stroke="rgb(0,0,0)"  stroke-width="3"/>
<line x1="79.4" y1="302.8" x2="59.7" y2="268.8" opacity="1.0" stroke="rgb(0,0,0)"  stroke-width="3"/>
<line x1="234.1" y1="137.3" x2="234.1" y2="97.9" opacity="1.0" stroke="rgb(0,0,0)"  stroke-width="3"/>
<line x1="379.0" y1="128.7" x2="363.1" y2="107.7" opacity="1.0" stroke="rgb(0,0,0)"  stroke-width="3"/>
<line x1="339.4" y1="493.4" x2="373.5" y2="473.7" opacity="1.0" stroke="rgb(0,0,0)"  stroke-width="3"/>
<line x1="441.7" y1="434.4" x2="475.8" y2="414.7" opacity="1.0" stroke="rgb(0,0,0)"  stroke-width="3"/>
<line x1="177.1" y1="267.6" x2="201.0" y2="236.3" opacity="1.0" stroke="rgb(0,0,0)"  stroke-width="3"/>
<line x1="201.0" y1="236.3" x2="235.5" y2="255.4" opacity="1.0" stroke="rgb(0,0,0)"  stroke-width="3"/>
<line x1="235.5" y1="255.4" x2="236.0" y2="281.8" opacity="1.0" stroke="rgb(0,0,0)"  stroke-width="3"/>
<line x1="223.5" y1="296.9" x2="197.5" y2="301.3" opacity="1.0" stroke="rgb(0,0,0)"  stroke-width="3"/>
<line x1="197.5" y1="301.3" x2="177.1" y2="267.6" opacity="1.0" stroke="rgb(0,0,0)"  stroke-width="3"/>
<line x1="200.5" y1="292.5" x2="186.4" y2="269.0" opacity="1.0" stroke="rgb(0,0,0)"  stroke-width="3"/>
<line x1="431.3" y1="267.2" x2="404.4" y2="238.5" opacity="1.0" stroke="rgb(0,0,0)"  stroke-width="3"/>
<line x1="404.4" y1="238.5" x2="368.7" y2="255.2" opacity="1.0" stroke="rgb(0,0,0)"  stroke-width="3"/>
<line x1="402.0" y1="247.6" x2="377.2" y2="259.2" opacity="1.0" stroke="rgb(0,0,0)"  stroke-width="3"/>
<line x1="368.7" y1="255.2" x2="372.0" y2="281.4" opacity="1.0" stroke="rgb(0,0,0)"  stroke-width="3"/>
<line x1="386.3" y1="296.7" x2="412.2" y2="301.7" opacity="1.0" stroke="rgb(0,0,0)"  stroke-width="3"/>
<line x1="412.2" y1="301.7" x2="431.3" y2="267.2" opacity="1.0" stroke="rgb(0,0,0)"  stroke-width="3"/>
<line x1="408.8" y1="293.0" x2="422.1" y2="269.0" opacity="1.0" stroke="rgb(0,0,0)"  stroke-width="3"/>
<line x1="426.2" y1="138.3" x2="399.9" y2="138.8" opacity="1.0" stroke="rgb(0,0,0)"  stroke-width="3"/>
<line x1="383.1" y1="151.5" x2="375.4" y2="176.7" opacity="1.0" stroke="rgb(0,0,0)"  stroke-width="3"/>
<line x1="375.4" y1="176.7" x2="407.7" y2="199.3" opacity="1.0" stroke="rgb(0,0,0)"  stroke-width="3"/>
<line x1="384.5" y1="174.3" x2="406.9" y2="189.9" opacity="1.0" stroke="rgb(0,0,0)"  stroke-width="3"/>
<line x1="407.7" y1="199.3" x2="439.1" y2="175.5" opacity="1.0" stroke="rgb(0,0,0)"  stroke-width="3"/>
<line x1="439.1" y1="175.5" x2="426.2" y2="138.3" opacity="1.0" stroke="rgb(0,0,0)"  stroke-width="3"/>
<line x1="430.4" y1="172.2" x2="421.4" y2="146.3" opacity="1.0" stroke="rgb(0,0,0)"  stroke-width="3"/>
<line x1="271.1" y1="353.0" x2="305.3" y2="372.5" opacity="1.0" stroke="rgb(0,0,0)"  stroke-width="3"/>
<line x1="305.3" y1="372.5" x2="339.3" y2="352.6" opacity="1.0" stroke="rgb(0,0,0)"  stroke-width="3"/>
<line x1="306.9" y1="363.2" x2="330.5" y2="349.4" opacity="1.0" stroke="rgb(0,0,0)"  stroke-width="3"/>
<line x1="339.3" y1="352.6" x2="339.1" y2="313.2" opacity="1.0" stroke="rgb(0,0,0)"  stroke-width="3"/>
<line x1="339.1" y1="313.2" x2="304.9" y2="293.7" opacity="1.0" stroke="rgb(0,0,0)"  stroke-width="3"/>
<line x1="330.3" y1="316.5" x2="306.5" y2="302.9" opacity="1.0" stroke="rgb(0,0,0)"  stroke-width="3"/>
<line x1="304.9" y1="293.7" x2="270.9" y2="313.6" opacity="1.0" stroke="rgb(0,0,0)"  stroke-width="3"/>
<line x1="270.9" y1="313.6" x2="271.1" y2="353.0" opacity="1.0" stroke="rgb(0,0,0)"  stroke-width="3"/>
<line x1="278.1" y1="319.6" x2="278.3" y2="346.9" opacity="1.0" stroke="rgb(0,0,0)"  stroke-width="3"/>
<line x1="304.0" y1="267.4" x2="304.9" y2="293.7" opacity="1.0" stroke="rgb(0,0,0)"  stroke-width="3"/>
<line x1="270.9" y1="313.6" x2="247.7" y2="301.0" opacity="1.0" stroke="rgb(0,0,0)"  stroke-width="3"/>
<line x1="235.5" y1="255.4" x2="269.2" y2="235.1" opacity="1.0" stroke="rgb(0,0,0)"  stroke-width="3"/>
<line x1="244.3" y1="258.5" x2="267.8" y2="244.4" opacity="1.0" stroke="rgb(0,0,0)"  stroke-width="3"/>
<line x1="269.2" y1="235.1" x2="292.2" y2="248.0" opacity="1.0" stroke="rgb(0,0,0)"  stroke-width="3"/>
<line x1="368.7" y1="255.2" x2="336.4" y2="232.7" opacity="1.0" stroke="rgb(0,0,0)"  stroke-width="3"/>
<line x1="336.4" y1="232.7" x2="314.4" y2="247.2" opacity="1.0" stroke="rgb(0,0,0)"  stroke-width="3"/>
<line x1="339.1" y1="313.2" x2="362.2" y2="300.5" opacity="1.0" stroke="rgb(0,0,0)"  stroke-width="3"/>
<line x1="139.1" y1="336.6" x2="178.4" y2="335.8" opacity="1.0" stroke="rgb(0,0,0)"  stroke-width="3"/>
<line x1="144.9" y1="329.2" x2="172.3" y2="328.7" opacity="1.0" stroke="rgb(0,0,0)"  stroke-width="3"/>
<line x1="178.4" y1="335.8" x2="197.5" y2="301.3" opacity="1.0" stroke="rgb(0,0,0)"  stroke-width="3"/>
<line x1="177.1" y1="267.6" x2="137.8" y2="268.4" opacity="1.0" stroke="rgb(0,0,0)"  stroke-width="3"/>
<line x1="137.8" y1="268.4" x2="118.7" y2="302.8" opacity="1.0" stroke="rgb(0,0,0)"  stroke-width="3"/>
<line x1="141.2" y1="277.1" x2="127.9" y2="301.1" opacity="1.0" stroke="rgb(0,0,0)"  stroke-width="3"/>
<line x1="118.7" y1="302.8" x2="139.1" y2="336.6" opacity="1.0" stroke="rgb(0,0,0)"  stroke-width="3"/>
<line x1="491.0" y1="300.2" x2="470.6" y2="266.5" opacity="1.0" stroke="rgb(0,0,0)"  stroke-width="3"/>
<line x1="481.7" y1="298.8" x2="467.6" y2="275.3" opacity="1.0" stroke="rgb(0,0,0)"  stroke-width="3"/>
<line x1="470.6" y1="266.5" x2="431.3" y2="267.2" opacity="1.0" stroke="rgb(0,0,0)"  stroke-width="3"/>
<line x1="412.2" y1="301.7" x2="432.6" y2="335.4" opacity="1.0" stroke="rgb(0,0,0)"  stroke-width="3"/>
<line x1="432.6" y1="335.4" x2="471.9" y2="334.7" opacity="1.0" stroke="rgb(0,0,0)"  stroke-width="3"/>
<line x1="438.4" y1="328.1" x2="465.8" y2="327.6" opacity="1.0" stroke="rgb(0,0,0)"  stroke-width="3"/>
<line x1="471.9" y1="334.7" x2="491.0" y2="300.2" opacity="1.0" stroke="rgb(0,0,0)"  stroke-width="3"/>
<line x1="375.4" y1="176.7" x2="339.8" y2="193.4" opacity="1.0" stroke="rgb(0,0,0)"  stroke-width="3"/>
<line x1="339.8" y1="193.4" x2="336.4" y2="232.7" opacity="1.0" stroke="rgb(0,0,0)"  stroke-width="3"/>
<line x1="346.4" y1="200.0" x2="344.1" y2="227.3" opacity="1.0" stroke="rgb(0,0,0)"  stroke-width="3"/>
<line x1="404.4" y1="238.5" x2="407.7" y2="199.3" opacity="1.0" stroke="rgb(0,0,0)"  stroke-width="3"/>
<line x1="490.7" y1="116.0" x2="452.0" y2="108.5" opacity="1.0" stroke="rgb(0,0,0)"  stroke-width="3"/>
<line x1="483.4" y1="121.9" x2="456.5" y2="116.8" opacity="1.0" stroke="rgb(0,0,0)"  stroke-width="3"/>
<line x1="452.0" y1="108.5" x2="426.2" y2="138.3" opacity="1.0" stroke="rgb(0,0,0)"  stroke-width="3"/>
<line x1="439.1" y1="175.5" x2="477.8" y2="183.0" opacity="1.0" stroke="rgb(0,0,0)"  stroke-width="3"/>
<line x1="477.8" y1="183.0" x2="503.6" y2="153.2" opacity="1.0" stroke="rgb(0,0,0)"  stroke-width="3"/>
<line x1="476.3" y1="173.7" x2="494.2" y2="153.0" opacity="1.0" stroke="rgb(0,0,0)"  stroke-width="3"/>
<line x1="503.6" y1="153.2" x2="490.7" y2="116.0" opacity="1.0" stroke="rgb(0,0,0)"  stroke-width="3"/>
<line x1="201.0" y1="236.3" x2="200.3" y2="197.0" opacity="1.0" stroke="rgb(0,0,0)"  stroke-width="3"/>
<line x1="208.1" y1="230.2" x2="207.6" y2="202.8" opacity="1.0" stroke="rgb(0,0,0)"  stroke-width="3"/>
<line x1="200.3" y1="197.0" x2="234.1" y2="176.7" opacity="1.0" stroke="rgb(0,0,0)"  stroke-width="3"/>
<line x1="234.1" y1="176.7" x2="268.5" y2="195.8" opacity="1.0" stroke="rgb(0,0,0)"  stroke-width="3"/>
<line x1="235.9" y1="185.9" x2="259.8" y2="199.2" opacity="1.0" stroke="rgb(0,0,0)"  stroke-width="3"/>
<line x1="268.5" y1="195.8" x2="269.2" y2="235.1" opacity="1.0" stroke="rgb(0,0,0)"  stroke-width="3"/>
<line x1="378.4" y1="71.4" x2="354.7" y2="40.0" opacity="1.0" stroke="rgb(0,0,0)"  stroke-width="3"/>
<line x1="354.7" y1="40.0" x2="315.6" y2="44.9" opacity="1.0" stroke="rgb(0,0,0)"  stroke-width="3"/>
<line x1="349.6" y1="47.9" x2="322.5" y2="51.3" opacity="1.0" stroke="rgb(0,0,0)"  stroke-width="3"/>
<line x1="315.6" y1="44.9" x2="300.3" y2="81.1" opacity="1.0" stroke="rgb(0,0,0)"  stroke-width="3"/>
<line x1="300.3" y1="81.1" x2="324.1" y2="112.5" opacity="1.0" stroke="rgb(0,0,0)"  stroke-width="3"/>
<line x1="309.7" y1="81.6" x2="326.2" y2="103.4" opacity="1.0" stroke="rgb(0,0,0)"  stroke-width="3"/>
<line x1="324.1" y1="112.5" x2="363.1" y2="107.7" opacity="1.0" stroke="rgb(0,0,0)"  stroke-width="3"/>
<line x1="363.1" y1="107.7" x2="378.4" y2="71.4" opacity="1.0" stroke="rgb(0,0,0)"  stroke-width="3"/>
<line x1="358.8" y1="99.3" x2="369.5" y2="74.1" opacity="1.0" stroke="rgb(0,0,0)"  stroke-width="3"/>
<line x1="271.2" y1="493.4" x2="271.2" y2="532.8" opacity="1.0" stroke="rgb(0,0,0)"  stroke-width="3"/>
<line x1="271.2" y1="532.8" x2="305.3" y2="552.5" opacity="1.0" stroke="rgb(0,0,0)"  stroke-width="3"/>
<line x1="280.0" y1="529.5" x2="303.7" y2="543.2" opacity="1.0" stroke="rgb(0,0,0)"  stroke-width="3"/>
<line x1="305.3" y1="552.5" x2="339.4" y2="532.8" opacity="1.0" stroke="rgb(0,0,0)"  stroke-width="3"/>
<line x1="339.4" y1="532.8" x2="339.4" y2="493.4" opacity="1.0" stroke="rgb(0,0,0)"  stroke-width="3"/>
<line x1="332.2" y1="526.8" x2="332.2" y2="499.4" opacity="1.0" stroke="rgb(0,0,0)"  stroke-width="3"/>
<line x1="339.4" y1="493.4" x2="305.3" y2="473.7" opacity="1.0" stroke="rgb(0,0,0)"  stroke-width="3"/>
<line x1="305.3" y1="473.7" x2="271.2" y2="493.4" opacity="1.0" stroke="rgb(0,0,0)"  stroke-width="3"/>
<line x1="303.7" y1="483.0" x2="280.0" y2="496.6" opacity="1.0" stroke="rgb(0,0,0)"  stroke-width="3"/>
<line x1="407.6" y1="493.4" x2="441.7" y2="473.7" opacity="1.0" stroke="rgb(0,0,0)"  stroke-width="3"/>
<line x1="441.7" y1="473.7" x2="441.7" y2="434.4" opacity="1.0" stroke="rgb(0,0,0)"  stroke-width="3"/>
<line x1="434.5" y1="467.7" x2="434.5" y2="440.4" opacity="1.0" stroke="rgb(0,0,0)"  stroke-width="3"/>
<line x1="441.7" y1="434.4" x2="407.6" y2="414.7" opacity="1.0" stroke="rgb(0,0,0)"  stroke-width="3"/>
<line x1="407.6" y1="414.7" x2="373.5" y2="434.4" opacity="1.0" stroke="rgb(0,0,0)"  stroke-width="3"/>
<line x1="406.0" y1="423.9" x2="382.3" y2="437.6" opacity="1.0" stroke="rgb(0,0,0)"  stroke-width="3"/>
<line x1="373.5" y1="434.4" x2="373.5" y2="473.7" opacity="1.0" stroke="rgb(0,0,0)"  stroke-width="3"/>
<line x1="373.5" y1="473.7" x2="407.6" y2="493.4" opacity="1.0" stroke="rgb(0,0,0)"  stroke-width="3"/>
<line x1="382.3" y1="470.5" x2="406.0" y2="484.2" opacity="1.0" stroke="rgb(0,0,0)"  stroke-width="3"/>
<line x1="339.4" y1="375.3" x2="339.4" y2="414.7" opacity="1.0" stroke="rgb(0,0,0)"  stroke-width="3"/>
<line x1="346.6" y1="381.3" x2="346.6" y2="408.7" opacity="1.0" stroke="rgb(0,0,0)"  stroke-width="3"/>
<line x1="339.4" y1="414.7" x2="373.5" y2="434.4" opacity="1.0" stroke="rgb(0,0,0)"  stroke-width="3"/>
<line x1="407.6" y1="414.7" x2="407.6" y2="375.3" opacity="1.0" stroke="rgb(0,0,0)"  stroke-width="3"/>
<line x1="407.6" y1="375.3" x2="373.5" y2="355.6" opacity="1.0" stroke="rgb(0,0,0)"  stroke-width="3"/>
<line x1="398.8" y1="378.5" x2="375.1" y2="364.8" opacity="1.0" stroke="rgb(0,0,0)"  stroke-width="3"/>
<line x1="373.5" y1="355.6" x2="339.4" y2="375.3" opacity="1.0" stroke="rgb(0,0,0)"  stroke-width="3"/>
<line x1="475.8" y1="532.8" x2="475.8" y2="493.4" opacity="1.0" stroke="rgb(0,0,0)"  stroke-width="3"/>
<line x1="468.6" y1="526.8" x2="468.6" y2="499.4" opacity="1.0" stroke="rgb(0,0,0)"  stroke-width="3"/>
<line x1="475.8" y1="493.4" x2="441.7" y2="473.7" opacity="1.0" stroke="rgb(0,0,0)"  stroke-width="3"/>
<line x1="407.6" y1="493.4" x2="407.6" y2="532.8" opacity="1.0" stroke="rgb(0,0,0)"  stroke-width="3"/>
<line x1="407.6" y1="532.8" x2="441.7" y2="552.5" opacity="1.0" stroke="rgb(0,0,0)"  stroke-width="3"/>
<line x1="416.4" y1="529.5" x2="440.1" y2="543.2" opacity="1.0" stroke="rgb(0,0,0)"  stroke-width="3"/>
<line x1="441.7" y1="552.5" x2="475.8" y2="532.8" opacity="1.0" stroke="rgb(0,0,0)"  stroke-width="3"/>
<line x1="510.0" y1="434.4" x2="544.2" y2="414.7" opacity="1.0" stroke="rgb(0,0,0)"  stroke-width="3"/>
<line x1="544.2" y1="414.7" x2="544.2" y2="375.2" opacity="1.0" stroke="rgb(0,0,0)"  stroke-width="3"/>
<line x1="537.0" y1="408.7" x2="537.0" y2="381.2" opacity="1.0" stroke="rgb(0,0,0)"  stroke-width="3"/>
<line x1="544.2" y1="375.2" x2="510.0" y2="355.4" opacity="1.0" stroke="rgb(0,0,0)"  stroke-width="3"/>
<line x1="510.0" y1="355.4" x2="475.8" y2="375.2" opacity="1.0" stroke="rgb(0,0,0)"  stroke-width="3"/>
<line x1="508.4" y1="364.6" x2="484.6" y2="378.4" opacity="1.0" stroke="rgb(0,0,0)"  stroke-width="3"/>
<line x1="475.8" y1="375.2" x2="475.8" y2="414.7" opacity="1.0" stroke="rgb(0,0,0)"  stroke-width="3"/>
<line x1="475.8" y1="414.7" x2="510.0" y2="434.4" opacity="1.0" stroke="rgb(0,0,0)"  stroke-width="3"/>
<line x1="484.6" y1="411.4" x2="508.4" y2="425.2" opacity="1.0" stroke="rgb(0,0,0)"  stroke-width="3"/>
<text x="380.872349" y="147.069771" fill="rgb(12,12,255)" stroke-width="0" font-weight="bold" font-size="25.92" >N</text>
<text x="250.681355" y="594.635863" fill="rgb(127,178,255)" stroke-width="0" font-weight="bold" font-size="25.92" >F</text>
<text x="196.898931" y="580.224833" fill="rgb(127,178,255)" stroke-width="0" font-weight="bold" font-size="25.92" >F</text>
<text x="211.309961" y="526.442410" fill="rgb(127,178,255)" stroke-width="0" font-weight="bold" font-size="25.92" >F</text>
<text x="367.580922" y="302.266863" fill="rgb(12,12,255)" stroke-width="0" font-weight="bold" font-size="25.92" >N</text>
<text x="230.294607" y="302.780763" fill="rgb(12,12,255)" stroke-width="0" font-weight="bold" font-size="25.92" >N</text>
<text x="297.565761" y="262.372374" fill="rgb(255,181,181)" stroke-width="0" font-weight="bold" font-size="25.92" >B</text>
</svg>
</g>
</svg>
