<?xml version="1.0"?>
<svg version="1.1" id="topsvg"
xmlns="http://www.w3.org/2000/svg" xmlns:xlink="http://www.w3.org/1999/xlink"
xmlns:cml="http://www.xml-cml.org/schema" x="0" y="0" width="200px" height="200px" viewBox="0 0 100 100">
<title>GD114.sdf - Open Babel Depiction</title>
<rect x="0" y="0" width="100" height="100" fill="white"/>
<g transform="translate(0,0)">
<svg width="100" height="100" x="0" y="0" viewBox="0 0 556.142 575.74"
font-family="sans-serif" stroke="rgb(0,0,0)" stroke-width="3"  stroke-linecap="round">
<line x1="373.3" y1="314.0" x2="385.5" y2="351.7" opacity="1.0" stroke="rgb(0,0,0)"  stroke-width="3"/>
<line x1="438.6" y1="292.8" x2="399.8" y2="284.5" opacity="1.0" stroke="rgb(0,0,0)"  stroke-width="3"/>
<line x1="268.4" y1="377.1" x2="268.4" y2="416.8" opacity="1.0" stroke="rgb(0,0,0)"  stroke-width="3"/>
<line x1="234.0" y1="476.3" x2="199.7" y2="496.1" opacity="1.0" stroke="rgb(0,0,0)"  stroke-width="3"/>
<line x1="199.7" y1="496.1" x2="165.4" y2="476.3" opacity="1.0" stroke="rgb(0,0,0)"  stroke-width="3"/>
<line x1="199.7" y1="496.1" x2="199.7" y2="535.7" opacity="1.0" stroke="rgb(0,0,0)"  stroke-width="3"/>
<line x1="199.7" y1="496.1" x2="165.4" y2="515.9" opacity="1.0" stroke="rgb(0,0,0)"  stroke-width="3"/>
<line x1="302.7" y1="476.3" x2="337.0" y2="496.1" opacity="1.0" stroke="rgb(0,0,0)"  stroke-width="3"/>
<line x1="337.0" y1="496.1" x2="371.4" y2="476.3" opacity="1.0" stroke="rgb(0,0,0)"  stroke-width="3"/>
<line x1="337.0" y1="496.1" x2="337.0" y2="535.7" opacity="1.0" stroke="rgb(0,0,0)"  stroke-width="3"/>
<line x1="337.0" y1="496.1" x2="371.4" y2="515.9" opacity="1.0" stroke="rgb(0,0,0)"  stroke-width="3"/>
<line x1="156.5" y1="136.8" x2="167.4" y2="112.4" opacity="1.0" stroke="rgb(0,0,0)"  stroke-width="3"/>
<line x1="136.9" y1="284.5" x2="156.8" y2="250.2" opacity="1.0" stroke="rgb(0,0,0)"  stroke-width="3"/>
<line x1="156.8" y1="250.2" x2="195.6" y2="258.4" opacity="1.0" stroke="rgb(0,0,0)"  stroke-width="3"/>
<line x1="161.1" y1="258.5" x2="188.2" y2="264.2" opacity="1.0" stroke="rgb(0,0,0)"  stroke-width="3"/>
<line x1="195.6" y1="258.4" x2="198.3" y2="284.9" opacity="1.0" stroke="rgb(0,0,0)"  stroke-width="3"/>
<line x1="187.8" y1="303.1" x2="163.5" y2="314.0" opacity="1.0" stroke="rgb(0,0,0)"  stroke-width="3"/>
<line x1="163.5" y1="314.0" x2="136.9" y2="284.5" opacity="1.0" stroke="rgb(0,0,0)"  stroke-width="3"/>
<line x1="164.8" y1="304.7" x2="146.3" y2="284.2" opacity="1.0" stroke="rgb(0,0,0)"  stroke-width="3"/>
<line x1="112.4" y1="156.9" x2="138.5" y2="151.4" opacity="1.0" stroke="rgb(0,0,0)"  stroke-width="3"/>
<line x1="157.7" y1="159.9" x2="171.0" y2="183.0" opacity="1.0" stroke="rgb(0,0,0)"  stroke-width="3"/>
<line x1="171.0" y1="183.0" x2="144.5" y2="212.5" opacity="1.0" stroke="rgb(0,0,0)"  stroke-width="3"/>
<line x1="161.7" y1="182.6" x2="143.2" y2="203.2" opacity="1.0" stroke="rgb(0,0,0)"  stroke-width="3"/>
<line x1="144.5" y1="212.5" x2="108.3" y2="196.3" opacity="1.0" stroke="rgb(0,0,0)"  stroke-width="3"/>
<line x1="108.3" y1="196.3" x2="112.4" y2="156.9" opacity="1.0" stroke="rgb(0,0,0)"  stroke-width="3"/>
<line x1="116.1" y1="191.1" x2="119.0" y2="163.6" opacity="1.0" stroke="rgb(0,0,0)"  stroke-width="3"/>
<line x1="373.3" y1="314.0" x2="399.8" y2="284.5" opacity="1.0" stroke="rgb(0,0,0)"  stroke-width="3"/>
<line x1="371.9" y1="304.7" x2="390.4" y2="284.2" opacity="1.0" stroke="rgb(0,0,0)"  stroke-width="3"/>
<line x1="399.8" y1="284.5" x2="380.0" y2="250.2" opacity="1.0" stroke="rgb(0,0,0)"  stroke-width="3"/>
<line x1="380.0" y1="250.2" x2="341.2" y2="258.4" opacity="1.0" stroke="rgb(0,0,0)"  stroke-width="3"/>
<line x1="375.6" y1="258.5" x2="348.6" y2="264.2" opacity="1.0" stroke="rgb(0,0,0)"  stroke-width="3"/>
<line x1="341.2" y1="258.4" x2="338.4" y2="284.9" opacity="1.0" stroke="rgb(0,0,0)"  stroke-width="3"/>
<line x1="348.9" y1="303.1" x2="373.3" y2="314.0" opacity="1.0" stroke="rgb(0,0,0)"  stroke-width="3"/>
<line x1="234.0" y1="357.3" x2="268.4" y2="377.1" opacity="1.0" stroke="rgb(0,0,0)"  stroke-width="3"/>
<line x1="268.4" y1="377.1" x2="302.7" y2="357.3" opacity="1.0" stroke="rgb(0,0,0)"  stroke-width="3"/>
<line x1="270.0" y1="367.9" x2="293.9" y2="354.1" opacity="1.0" stroke="rgb(0,0,0)"  stroke-width="3"/>
<line x1="302.7" y1="357.3" x2="302.7" y2="317.7" opacity="1.0" stroke="rgb(0,0,0)"  stroke-width="3"/>
<line x1="302.7" y1="317.7" x2="268.4" y2="297.8" opacity="1.0" stroke="rgb(0,0,0)"  stroke-width="3"/>
<line x1="293.9" y1="320.9" x2="270.0" y2="307.1" opacity="1.0" stroke="rgb(0,0,0)"  stroke-width="3"/>
<line x1="268.4" y1="297.8" x2="234.0" y2="317.7" opacity="1.0" stroke="rgb(0,0,0)"  stroke-width="3"/>
<line x1="234.0" y1="317.7" x2="234.0" y2="357.3" opacity="1.0" stroke="rgb(0,0,0)"  stroke-width="3"/>
<line x1="241.2" y1="323.7" x2="241.2" y2="351.3" opacity="1.0" stroke="rgb(0,0,0)"  stroke-width="3"/>
<line x1="195.6" y1="258.4" x2="222.1" y2="229.0" opacity="1.0" stroke="rgb(0,0,0)"  stroke-width="3"/>
<line x1="222.1" y1="229.0" x2="257.4" y2="251.3" opacity="1.0" stroke="rgb(0,0,0)"  stroke-width="3"/>
<line x1="268.4" y1="271.2" x2="268.4" y2="297.8" opacity="1.0" stroke="rgb(0,0,0)"  stroke-width="3"/>
<line x1="234.0" y1="317.7" x2="211.0" y2="304.3" opacity="1.0" stroke="rgb(0,0,0)"  stroke-width="3"/>
<line x1="302.7" y1="317.7" x2="325.8" y2="304.3" opacity="1.0" stroke="rgb(0,0,0)"  stroke-width="3"/>
<line x1="341.2" y1="258.4" x2="314.7" y2="229.0" opacity="1.0" stroke="rgb(0,0,0)"  stroke-width="3"/>
<line x1="314.7" y1="229.0" x2="279.4" y2="251.3" opacity="1.0" stroke="rgb(0,0,0)"  stroke-width="3"/>
<line x1="365.7" y1="183.0" x2="326.9" y2="191.2" opacity="1.0" stroke="rgb(0,0,0)"  stroke-width="3"/>
<line x1="326.9" y1="191.2" x2="314.7" y2="229.0" opacity="1.0" stroke="rgb(0,0,0)"  stroke-width="3"/>
<line x1="331.9" y1="199.2" x2="323.4" y2="225.5" opacity="1.0" stroke="rgb(0,0,0)"  stroke-width="3"/>
<line x1="380.0" y1="250.2" x2="392.2" y2="212.5" opacity="1.0" stroke="rgb(0,0,0)"  stroke-width="3"/>
<line x1="392.2" y1="212.5" x2="365.7" y2="183.0" opacity="1.0" stroke="rgb(0,0,0)"  stroke-width="3"/>
<line x1="382.9" y1="212.8" x2="364.4" y2="192.3" opacity="1.0" stroke="rgb(0,0,0)"  stroke-width="3"/>
<line x1="312.6" y1="124.1" x2="351.4" y2="115.8" opacity="1.0" stroke="rgb(0,0,0)"  stroke-width="3"/>
<line x1="351.4" y1="115.8" x2="377.9" y2="145.3" opacity="1.0" stroke="rgb(0,0,0)"  stroke-width="3"/>
<line x1="350.1" y1="125.1" x2="368.6" y2="145.7" opacity="1.0" stroke="rgb(0,0,0)"  stroke-width="3"/>
<line x1="377.9" y1="145.3" x2="365.7" y2="183.0" opacity="1.0" stroke="rgb(0,0,0)"  stroke-width="3"/>
<line x1="326.9" y1="191.2" x2="300.4" y2="161.8" opacity="1.0" stroke="rgb(0,0,0)"  stroke-width="3"/>
<line x1="300.4" y1="161.8" x2="312.6" y2="124.1" opacity="1.0" stroke="rgb(0,0,0)"  stroke-width="3"/>
<line x1="309.1" y1="158.3" x2="317.6" y2="132.0" opacity="1.0" stroke="rgb(0,0,0)"  stroke-width="3"/>
<line x1="234.0" y1="436.6" x2="234.0" y2="476.3" opacity="1.0" stroke="rgb(0,0,0)"  stroke-width="3"/>
<line x1="234.0" y1="476.3" x2="268.4" y2="496.1" opacity="1.0" stroke="rgb(0,0,0)"  stroke-width="3"/>
<line x1="242.8" y1="473.0" x2="266.8" y2="486.9" opacity="1.0" stroke="rgb(0,0,0)"  stroke-width="3"/>
<line x1="268.4" y1="496.1" x2="302.7" y2="476.3" opacity="1.0" stroke="rgb(0,0,0)"  stroke-width="3"/>
<line x1="302.7" y1="476.3" x2="302.7" y2="436.6" opacity="1.0" stroke="rgb(0,0,0)"  stroke-width="3"/>
<line x1="295.5" y1="470.3" x2="295.5" y2="442.6" opacity="1.0" stroke="rgb(0,0,0)"  stroke-width="3"/>
<line x1="302.7" y1="436.6" x2="268.4" y2="416.8" opacity="1.0" stroke="rgb(0,0,0)"  stroke-width="3"/>
<line x1="268.4" y1="416.8" x2="234.0" y2="436.6" opacity="1.0" stroke="rgb(0,0,0)"  stroke-width="3"/>
<line x1="266.8" y1="426.0" x2="242.8" y2="439.9" opacity="1.0" stroke="rgb(0,0,0)"  stroke-width="3"/>
<line x1="112.4" y1="359.9" x2="85.9" y2="330.5" opacity="1.0" stroke="rgb(0,0,0)"  stroke-width="3"/>
<line x1="85.9" y1="330.5" x2="98.2" y2="292.8" opacity="1.0" stroke="rgb(0,0,0)"  stroke-width="3"/>
<line x1="94.6" y1="327.0" x2="103.2" y2="300.7" opacity="1.0" stroke="rgb(0,0,0)"  stroke-width="3"/>
<line x1="98.2" y1="292.8" x2="136.9" y2="284.5" opacity="1.0" stroke="rgb(0,0,0)"  stroke-width="3"/>
<line x1="163.5" y1="314.0" x2="151.2" y2="351.7" opacity="1.0" stroke="rgb(0,0,0)"  stroke-width="3"/>
<line x1="151.2" y1="351.7" x2="112.4" y2="359.9" opacity="1.0" stroke="rgb(0,0,0)"  stroke-width="3"/>
<line x1="143.9" y1="345.9" x2="116.8" y2="351.6" opacity="1.0" stroke="rgb(0,0,0)"  stroke-width="3"/>
<line x1="156.8" y1="250.2" x2="144.5" y2="212.5" opacity="1.0" stroke="rgb(0,0,0)"  stroke-width="3"/>
<line x1="171.0" y1="183.0" x2="209.8" y2="191.2" opacity="1.0" stroke="rgb(0,0,0)"  stroke-width="3"/>
<line x1="209.8" y1="191.2" x2="222.1" y2="229.0" opacity="1.0" stroke="rgb(0,0,0)"  stroke-width="3"/>
<line x1="204.8" y1="199.2" x2="213.4" y2="225.5" opacity="1.0" stroke="rgb(0,0,0)"  stroke-width="3"/>
<line x1="359.0" y1="381.1" x2="371.2" y2="418.9" opacity="1.0" stroke="rgb(0,0,0)"  stroke-width="3"/>
<line x1="371.2" y1="418.9" x2="410.0" y2="427.1" opacity="1.0" stroke="rgb(0,0,0)"  stroke-width="3"/>
<line x1="378.6" y1="413.1" x2="405.6" y2="418.8" opacity="1.0" stroke="rgb(0,0,0)"  stroke-width="3"/>
<line x1="410.0" y1="427.1" x2="436.6" y2="397.6" opacity="1.0" stroke="rgb(0,0,0)"  stroke-width="3"/>
<line x1="436.6" y1="397.6" x2="424.3" y2="359.9" opacity="1.0" stroke="rgb(0,0,0)"  stroke-width="3"/>
<line x1="427.9" y1="394.2" x2="419.3" y2="367.9" opacity="1.0" stroke="rgb(0,0,0)"  stroke-width="3"/>
<line x1="424.3" y1="359.9" x2="385.5" y2="351.7" opacity="1.0" stroke="rgb(0,0,0)"  stroke-width="3"/>
<line x1="385.5" y1="351.7" x2="359.0" y2="381.1" opacity="1.0" stroke="rgb(0,0,0)"  stroke-width="3"/>
<line x1="386.9" y1="361.0" x2="368.4" y2="381.5" opacity="1.0" stroke="rgb(0,0,0)"  stroke-width="3"/>
<line x1="450.8" y1="330.5" x2="489.6" y2="338.7" opacity="1.0" stroke="rgb(0,0,0)"  stroke-width="3"/>
<line x1="489.6" y1="338.7" x2="516.1" y2="309.2" opacity="1.0" stroke="rgb(0,0,0)"  stroke-width="3"/>
<line x1="488.3" y1="329.4" x2="506.8" y2="308.9" opacity="1.0" stroke="rgb(0,0,0)"  stroke-width="3"/>
<line x1="516.1" y1="309.2" x2="503.9" y2="271.5" opacity="1.0" stroke="rgb(0,0,0)"  stroke-width="3"/>
<line x1="503.9" y1="271.5" x2="465.1" y2="263.3" opacity="1.0" stroke="rgb(0,0,0)"  stroke-width="3"/>
<line x1="496.5" y1="277.3" x2="469.5" y2="271.6" opacity="1.0" stroke="rgb(0,0,0)"  stroke-width="3"/>
<line x1="465.1" y1="263.3" x2="438.6" y2="292.8" opacity="1.0" stroke="rgb(0,0,0)"  stroke-width="3"/>
<line x1="438.6" y1="292.8" x2="450.8" y2="330.5" opacity="1.0" stroke="rgb(0,0,0)"  stroke-width="3"/>
<line x1="447.3" y1="296.2" x2="455.8" y2="322.5" opacity="1.0" stroke="rgb(0,0,0)"  stroke-width="3"/>
<line x1="40.0" y1="189.2" x2="72.1" y2="212.5" opacity="1.0" stroke="rgb(0,0,0)"  stroke-width="3"/>
<line x1="49.1" y1="186.9" x2="71.5" y2="203.1" opacity="1.0" stroke="rgb(0,0,0)"  stroke-width="3"/>
<line x1="72.1" y1="212.5" x2="108.3" y2="196.3" opacity="1.0" stroke="rgb(0,0,0)"  stroke-width="3"/>
<line x1="112.4" y1="156.9" x2="80.4" y2="133.6" opacity="1.0" stroke="rgb(0,0,0)"  stroke-width="3"/>
<line x1="80.4" y1="133.6" x2="44.1" y2="149.7" opacity="1.0" stroke="rgb(0,0,0)"  stroke-width="3"/>
<line x1="77.8" y1="142.6" x2="52.6" y2="153.9" opacity="1.0" stroke="rgb(0,0,0)"  stroke-width="3"/>
<line x1="44.1" y1="149.7" x2="40.0" y2="189.2" opacity="1.0" stroke="rgb(0,0,0)"  stroke-width="3"/>
<line x1="206.8" y1="108.3" x2="222.9" y2="72.1" opacity="1.0" stroke="rgb(0,0,0)"  stroke-width="3"/>
<line x1="222.9" y1="72.1" x2="199.6" y2="40.0" opacity="1.0" stroke="rgb(0,0,0)"  stroke-width="3"/>
<line x1="213.6" y1="71.5" x2="197.3" y2="49.1" opacity="1.0" stroke="rgb(0,0,0)"  stroke-width="3"/>
<line x1="199.6" y1="40.0" x2="160.2" y2="44.1" opacity="1.0" stroke="rgb(0,0,0)"  stroke-width="3"/>
<line x1="160.2" y1="44.1" x2="144.0" y2="80.4" opacity="1.0" stroke="rgb(0,0,0)"  stroke-width="3"/>
<line x1="164.3" y1="52.6" x2="153.1" y2="77.8" opacity="1.0" stroke="rgb(0,0,0)"  stroke-width="3"/>
<line x1="144.0" y1="80.4" x2="167.4" y2="112.4" opacity="1.0" stroke="rgb(0,0,0)"  stroke-width="3"/>
<line x1="167.4" y1="112.4" x2="206.8" y2="108.3" opacity="1.0" stroke="rgb(0,0,0)"  stroke-width="3"/>
<line x1="172.6" y1="104.7" x2="200.1" y2="101.8" opacity="1.0" stroke="rgb(0,0,0)"  stroke-width="3"/>
<text x="262.370802" y="266.198671" fill="rgb(255,181,181)" stroke-width="0" font-weight="bold" font-size="25.92" >B</text>
<text x="145.224170" y="156.662671" fill="rgb(12,12,255)" stroke-width="0" font-weight="bold" font-size="25.92" >N</text>
<text x="331.044352" y="305.847341" fill="rgb(12,12,255)" stroke-width="0" font-weight="bold" font-size="25.92" >N</text>
<text x="193.697155" y="305.847341" fill="rgb(12,12,255)" stroke-width="0" font-weight="bold" font-size="25.92" >N</text>
</svg>
</g>
</svg>
