<?xml version="1.0"?>
<svg version="1.1" id="topsvg"
xmlns="http://www.w3.org/2000/svg" xmlns:xlink="http://www.w3.org/1999/xlink"
xmlns:cml="http://www.xml-cml.org/schema" x="0" y="0" width="200px" height="200px" viewBox="0 0 100 100">
<title>GD115.sdf - Open Babel Depiction</title>
<rect x="0" y="0" width="100" height="100" fill="white"/>
<g transform="translate(0,0)">
<svg width="100" height="100" x="0" y="0" viewBox="0 0 547.672 614.172"
font-family="sans-serif" stroke="rgb(0,0,0)" stroke-width="3"  stroke-linecap="round">
<line x1="366.4" y1="306.4" x2="374.7" y2="344.2" opacity="1.0" stroke="rgb(0,0,0)"  stroke-width="3"/>
<line x1="430.6" y1="281.2" x2="392.1" y2="277.4" opacity="1.0" stroke="rgb(0,0,0)"  stroke-width="3"/>
<line x1="264.3" y1="368.8" x2="265.3" y2="496.7" opacity="1.0" stroke="rgb(0,0,0)"  stroke-width="3"/>
<line x1="153.5" y1="134.5" x2="163.8" y2="111.0" opacity="1.0" stroke="rgb(0,0,0)"  stroke-width="3"/>
<line x1="164.2" y1="439.4" x2="164.0" y2="400.6" opacity="1.0" stroke="rgb(0,0,0)"  stroke-width="3"/>
<line x1="164.0" y1="400.6" x2="197.4" y2="381.0" opacity="1.0" stroke="rgb(0,0,0)"  stroke-width="3"/>
<line x1="164.0" y1="400.6" x2="130.3" y2="381.5" opacity="1.0" stroke="rgb(0,0,0)"  stroke-width="3"/>
<line x1="164.0" y1="400.6" x2="163.7" y2="361.9" opacity="1.0" stroke="rgb(0,0,0)"  stroke-width="3"/>
<line x1="131.1" y1="497.7" x2="97.7" y2="517.3" opacity="1.0" stroke="rgb(0,0,0)"  stroke-width="3"/>
<line x1="97.7" y1="517.3" x2="98.0" y2="556.0" opacity="1.0" stroke="rgb(0,0,0)"  stroke-width="3"/>
<line x1="97.7" y1="517.3" x2="64.1" y2="498.2" opacity="1.0" stroke="rgb(0,0,0)"  stroke-width="3"/>
<line x1="97.7" y1="517.3" x2="64.3" y2="536.9" opacity="1.0" stroke="rgb(0,0,0)"  stroke-width="3"/>
<line x1="198.2" y1="497.2" x2="231.9" y2="516.3" opacity="1.0" stroke="rgb(0,0,0)"  stroke-width="3"/>
<line x1="135.3" y1="279.2" x2="154.5" y2="245.6" opacity="1.0" stroke="rgb(0,0,0)"  stroke-width="3"/>
<line x1="154.5" y1="245.6" x2="192.4" y2="253.3" opacity="1.0" stroke="rgb(0,0,0)"  stroke-width="3"/>
<line x1="158.9" y1="253.8" x2="185.1" y2="259.2" opacity="1.0" stroke="rgb(0,0,0)"  stroke-width="3"/>
<line x1="192.4" y1="253.3" x2="195.3" y2="278.9" opacity="1.0" stroke="rgb(0,0,0)"  stroke-width="3"/>
<line x1="184.9" y1="297.2" x2="161.5" y2="307.8" opacity="1.0" stroke="rgb(0,0,0)"  stroke-width="3"/>
<line x1="161.5" y1="307.8" x2="135.3" y2="279.2" opacity="1.0" stroke="rgb(0,0,0)"  stroke-width="3"/>
<line x1="162.7" y1="298.5" x2="144.7" y2="278.8" opacity="1.0" stroke="rgb(0,0,0)"  stroke-width="3"/>
<line x1="110.5" y1="154.8" x2="135.6" y2="149.3" opacity="1.0" stroke="rgb(0,0,0)"  stroke-width="3"/>
<line x1="154.9" y1="157.7" x2="167.9" y2="179.9" opacity="1.0" stroke="rgb(0,0,0)"  stroke-width="3"/>
<line x1="167.9" y1="179.9" x2="142.2" y2="208.8" opacity="1.0" stroke="rgb(0,0,0)"  stroke-width="3"/>
<line x1="158.6" y1="179.6" x2="140.8" y2="199.6" opacity="1.0" stroke="rgb(0,0,0)"  stroke-width="3"/>
<line x1="142.2" y1="208.8" x2="106.8" y2="193.3" opacity="1.0" stroke="rgb(0,0,0)"  stroke-width="3"/>
<line x1="106.8" y1="193.3" x2="110.5" y2="154.8" opacity="1.0" stroke="rgb(0,0,0)"  stroke-width="3"/>
<line x1="114.5" y1="188.1" x2="117.1" y2="161.5" opacity="1.0" stroke="rgb(0,0,0)"  stroke-width="3"/>
<line x1="366.4" y1="306.4" x2="392.1" y2="277.4" opacity="1.0" stroke="rgb(0,0,0)"  stroke-width="3"/>
<line x1="364.9" y1="297.1" x2="382.7" y2="277.1" opacity="1.0" stroke="rgb(0,0,0)"  stroke-width="3"/>
<line x1="392.1" y1="277.4" x2="372.5" y2="244.0" opacity="1.0" stroke="rgb(0,0,0)"  stroke-width="3"/>
<line x1="372.5" y1="244.0" x2="334.6" y2="252.3" opacity="1.0" stroke="rgb(0,0,0)"  stroke-width="3"/>
<line x1="368.1" y1="252.3" x2="342.0" y2="258.1" opacity="1.0" stroke="rgb(0,0,0)"  stroke-width="3"/>
<line x1="334.6" y1="252.3" x2="332.1" y2="277.9" opacity="1.0" stroke="rgb(0,0,0)"  stroke-width="3"/>
<line x1="342.8" y1="296.1" x2="366.4" y2="306.4" opacity="1.0" stroke="rgb(0,0,0)"  stroke-width="3"/>
<line x1="230.7" y1="349.7" x2="264.3" y2="368.8" opacity="1.0" stroke="rgb(0,0,0)"  stroke-width="3"/>
<line x1="264.3" y1="368.8" x2="297.7" y2="349.2" opacity="1.0" stroke="rgb(0,0,0)"  stroke-width="3"/>
<line x1="265.9" y1="359.5" x2="288.9" y2="346.0" opacity="1.0" stroke="rgb(0,0,0)"  stroke-width="3"/>
<line x1="297.7" y1="349.2" x2="297.5" y2="310.5" opacity="1.0" stroke="rgb(0,0,0)"  stroke-width="3"/>
<line x1="297.5" y1="310.5" x2="263.8" y2="291.3" opacity="1.0" stroke="rgb(0,0,0)"  stroke-width="3"/>
<line x1="288.7" y1="313.8" x2="265.5" y2="300.6" opacity="1.0" stroke="rgb(0,0,0)"  stroke-width="3"/>
<line x1="263.8" y1="291.3" x2="230.4" y2="310.9" opacity="1.0" stroke="rgb(0,0,0)"  stroke-width="3"/>
<line x1="230.4" y1="310.9" x2="230.7" y2="349.7" opacity="1.0" stroke="rgb(0,0,0)"  stroke-width="3"/>
<line x1="237.6" y1="316.9" x2="237.8" y2="343.6" opacity="1.0" stroke="rgb(0,0,0)"  stroke-width="3"/>
<line x1="192.4" y1="253.3" x2="218.1" y2="224.4" opacity="1.0" stroke="rgb(0,0,0)"  stroke-width="3"/>
<line x1="218.1" y1="224.4" x2="252.5" y2="245.8" opacity="1.0" stroke="rgb(0,0,0)"  stroke-width="3"/>
<line x1="263.6" y1="265.6" x2="263.8" y2="291.3" opacity="1.0" stroke="rgb(0,0,0)"  stroke-width="3"/>
<line x1="230.4" y1="310.9" x2="208.0" y2="298.2" opacity="1.0" stroke="rgb(0,0,0)"  stroke-width="3"/>
<line x1="297.5" y1="310.5" x2="319.7" y2="297.4" opacity="1.0" stroke="rgb(0,0,0)"  stroke-width="3"/>
<line x1="334.6" y1="252.3" x2="308.5" y2="223.7" opacity="1.0" stroke="rgb(0,0,0)"  stroke-width="3"/>
<line x1="308.5" y1="223.7" x2="274.5" y2="245.6" opacity="1.0" stroke="rgb(0,0,0)"  stroke-width="3"/>
<line x1="358.0" y1="178.5" x2="320.2" y2="186.8" opacity="1.0" stroke="rgb(0,0,0)"  stroke-width="3"/>
<line x1="320.2" y1="186.8" x2="308.5" y2="223.7" opacity="1.0" stroke="rgb(0,0,0)"  stroke-width="3"/>
<line x1="325.3" y1="194.7" x2="317.2" y2="220.2" opacity="1.0" stroke="rgb(0,0,0)"  stroke-width="3"/>
<line x1="372.5" y1="244.0" x2="384.2" y2="207.1" opacity="1.0" stroke="rgb(0,0,0)"  stroke-width="3"/>
<line x1="384.2" y1="207.1" x2="358.0" y2="178.5" opacity="1.0" stroke="rgb(0,0,0)"  stroke-width="3"/>
<line x1="374.8" y1="207.5" x2="356.8" y2="187.8" opacity="1.0" stroke="rgb(0,0,0)"  stroke-width="3"/>
<line x1="407.6" y1="133.3" x2="369.7" y2="141.6" opacity="1.0" stroke="rgb(0,0,0)"  stroke-width="3"/>
<line x1="403.2" y1="141.6" x2="377.2" y2="147.3" opacity="1.0" stroke="rgb(0,0,0)"  stroke-width="3"/>
<line x1="369.7" y1="141.6" x2="358.0" y2="178.5" opacity="1.0" stroke="rgb(0,0,0)"  stroke-width="3"/>
<line x1="384.2" y1="207.1" x2="422.0" y2="198.8" opacity="1.0" stroke="rgb(0,0,0)"  stroke-width="3"/>
<line x1="422.0" y1="198.8" x2="433.7" y2="161.9" opacity="1.0" stroke="rgb(0,0,0)"  stroke-width="3"/>
<line x1="416.9" y1="190.9" x2="425.0" y2="165.4" opacity="1.0" stroke="rgb(0,0,0)"  stroke-width="3"/>
<line x1="433.7" y1="161.9" x2="407.6" y2="133.3" opacity="1.0" stroke="rgb(0,0,0)"  stroke-width="3"/>
<line x1="231.9" y1="516.3" x2="232.1" y2="555.1" opacity="1.0" stroke="rgb(0,0,0)"  stroke-width="3"/>
<line x1="232.1" y1="555.1" x2="265.8" y2="574.2" opacity="1.0" stroke="rgb(0,0,0)"  stroke-width="3"/>
<line x1="240.9" y1="551.8" x2="264.2" y2="564.9" opacity="1.0" stroke="rgb(0,0,0)"  stroke-width="3"/>
<line x1="265.8" y1="574.2" x2="299.2" y2="554.6" opacity="1.0" stroke="rgb(0,0,0)"  stroke-width="3"/>
<line x1="299.2" y1="554.6" x2="298.9" y2="515.8" opacity="1.0" stroke="rgb(0,0,0)"  stroke-width="3"/>
<line x1="292.0" y1="548.6" x2="291.8" y2="521.9" opacity="1.0" stroke="rgb(0,0,0)"  stroke-width="3"/>
<line x1="298.9" y1="515.8" x2="265.3" y2="496.7" opacity="1.0" stroke="rgb(0,0,0)"  stroke-width="3"/>
<line x1="265.3" y1="496.7" x2="231.9" y2="516.3" opacity="1.0" stroke="rgb(0,0,0)"  stroke-width="3"/>
<line x1="263.7" y1="506.0" x2="240.7" y2="519.5" opacity="1.0" stroke="rgb(0,0,0)"  stroke-width="3"/>
<line x1="111.9" y1="353.1" x2="85.8" y2="324.5" opacity="1.0" stroke="rgb(0,0,0)"  stroke-width="3"/>
<line x1="85.8" y1="324.5" x2="97.5" y2="287.6" opacity="1.0" stroke="rgb(0,0,0)"  stroke-width="3"/>
<line x1="94.5" y1="320.9" x2="102.6" y2="295.5" opacity="1.0" stroke="rgb(0,0,0)"  stroke-width="3"/>
<line x1="97.5" y1="287.6" x2="135.3" y2="279.2" opacity="1.0" stroke="rgb(0,0,0)"  stroke-width="3"/>
<line x1="161.5" y1="307.8" x2="149.8" y2="344.7" opacity="1.0" stroke="rgb(0,0,0)"  stroke-width="3"/>
<line x1="149.8" y1="344.7" x2="111.9" y2="353.1" opacity="1.0" stroke="rgb(0,0,0)"  stroke-width="3"/>
<line x1="142.4" y1="339.0" x2="116.3" y2="344.7" opacity="1.0" stroke="rgb(0,0,0)"  stroke-width="3"/>
<line x1="154.5" y1="245.6" x2="142.2" y2="208.8" opacity="1.0" stroke="rgb(0,0,0)"  stroke-width="3"/>
<line x1="167.9" y1="179.9" x2="205.9" y2="187.6" opacity="1.0" stroke="rgb(0,0,0)"  stroke-width="3"/>
<line x1="205.9" y1="187.6" x2="218.1" y2="224.4" opacity="1.0" stroke="rgb(0,0,0)"  stroke-width="3"/>
<line x1="200.9" y1="195.6" x2="209.4" y2="221.0" opacity="1.0" stroke="rgb(0,0,0)"  stroke-width="3"/>
<line x1="346.1" y1="370.3" x2="354.4" y2="408.1" opacity="1.0" stroke="rgb(0,0,0)"  stroke-width="3"/>
<line x1="354.4" y1="408.1" x2="391.3" y2="419.8" opacity="1.0" stroke="rgb(0,0,0)"  stroke-width="3"/>
<line x1="362.3" y1="403.1" x2="387.8" y2="411.1" opacity="1.0" stroke="rgb(0,0,0)"  stroke-width="3"/>
<line x1="391.3" y1="419.8" x2="419.9" y2="393.7" opacity="1.0" stroke="rgb(0,0,0)"  stroke-width="3"/>
<line x1="419.9" y1="393.7" x2="411.6" y2="355.9" opacity="1.0" stroke="rgb(0,0,0)"  stroke-width="3"/>
<line x1="411.6" y1="389.4" x2="405.8" y2="363.3" opacity="1.0" stroke="rgb(0,0,0)"  stroke-width="3"/>
<line x1="411.6" y1="355.9" x2="374.7" y2="344.2" opacity="1.0" stroke="rgb(0,0,0)"  stroke-width="3"/>
<line x1="374.7" y1="344.2" x2="346.1" y2="370.3" opacity="1.0" stroke="rgb(0,0,0)"  stroke-width="3"/>
<line x1="375.1" y1="353.5" x2="355.4" y2="371.6" opacity="1.0" stroke="rgb(0,0,0)"  stroke-width="3"/>
<line x1="446.6" y1="316.4" x2="485.1" y2="320.2" opacity="1.0" stroke="rgb(0,0,0)"  stroke-width="3"/>
<line x1="485.1" y1="320.2" x2="507.7" y2="288.7" opacity="1.0" stroke="rgb(0,0,0)"  stroke-width="3"/>
<line x1="482.8" y1="311.1" x2="498.3" y2="289.4" opacity="1.0" stroke="rgb(0,0,0)"  stroke-width="3"/>
<line x1="507.7" y1="288.7" x2="491.7" y2="253.5" opacity="1.0" stroke="rgb(0,0,0)"  stroke-width="3"/>
<line x1="491.7" y1="253.5" x2="453.1" y2="249.7" opacity="1.0" stroke="rgb(0,0,0)"  stroke-width="3"/>
<line x1="485.0" y1="260.0" x2="458.4" y2="257.4" opacity="1.0" stroke="rgb(0,0,0)"  stroke-width="3"/>
<line x1="453.1" y1="249.7" x2="430.6" y2="281.2" opacity="1.0" stroke="rgb(0,0,0)"  stroke-width="3"/>
<line x1="430.6" y1="281.2" x2="446.6" y2="316.4" opacity="1.0" stroke="rgb(0,0,0)"  stroke-width="3"/>
<line x1="439.6" y1="283.7" x2="450.7" y2="308.0" opacity="1.0" stroke="rgb(0,0,0)"  stroke-width="3"/>
<line x1="40.0" y1="186.8" x2="71.5" y2="209.3" opacity="1.0" stroke="rgb(0,0,0)"  stroke-width="3"/>
<line x1="49.1" y1="184.4" x2="70.8" y2="200.0" opacity="1.0" stroke="rgb(0,0,0)"  stroke-width="3"/>
<line x1="71.5" y1="209.3" x2="106.8" y2="193.3" opacity="1.0" stroke="rgb(0,0,0)"  stroke-width="3"/>
<line x1="110.5" y1="154.8" x2="79.0" y2="132.2" opacity="1.0" stroke="rgb(0,0,0)"  stroke-width="3"/>
<line x1="79.0" y1="132.2" x2="43.8" y2="148.2" opacity="1.0" stroke="rgb(0,0,0)"  stroke-width="3"/>
<line x1="76.5" y1="141.3" x2="52.2" y2="152.3" opacity="1.0" stroke="rgb(0,0,0)"  stroke-width="3"/>
<line x1="43.8" y1="148.2" x2="40.0" y2="186.8" opacity="1.0" stroke="rgb(0,0,0)"  stroke-width="3"/>
<line x1="202.3" y1="106.7" x2="217.8" y2="71.2" opacity="1.0" stroke="rgb(0,0,0)"  stroke-width="3"/>
<line x1="217.8" y1="71.2" x2="194.8" y2="40.0" opacity="1.0" stroke="rgb(0,0,0)"  stroke-width="3"/>
<line x1="208.5" y1="70.6" x2="192.6" y2="49.1" opacity="1.0" stroke="rgb(0,0,0)"  stroke-width="3"/>
<line x1="194.8" y1="40.0" x2="156.4" y2="44.3" opacity="1.0" stroke="rgb(0,0,0)"  stroke-width="3"/>
<line x1="156.4" y1="44.3" x2="140.9" y2="79.8" opacity="1.0" stroke="rgb(0,0,0)"  stroke-width="3"/>
<line x1="160.6" y1="52.7" x2="149.9" y2="77.2" opacity="1.0" stroke="rgb(0,0,0)"  stroke-width="3"/>
<line x1="140.9" y1="79.8" x2="163.8" y2="111.0" opacity="1.0" stroke="rgb(0,0,0)"  stroke-width="3"/>
<line x1="163.8" y1="111.0" x2="202.3" y2="106.7" opacity="1.0" stroke="rgb(0,0,0)"  stroke-width="3"/>
<line x1="169.0" y1="103.1" x2="195.6" y2="100.2" opacity="1.0" stroke="rgb(0,0,0)"  stroke-width="3"/>
<line x1="197.9" y1="458.5" x2="164.2" y2="439.4" opacity="1.0" stroke="rgb(0,0,0)"  stroke-width="3"/>
<line x1="164.2" y1="439.4" x2="130.8" y2="459.0" opacity="1.0" stroke="rgb(0,0,0)"  stroke-width="3"/>
<line x1="162.7" y1="448.6" x2="139.7" y2="462.1" opacity="1.0" stroke="rgb(0,0,0)"  stroke-width="3"/>
<line x1="130.8" y1="459.0" x2="131.1" y2="497.7" opacity="1.0" stroke="rgb(0,0,0)"  stroke-width="3"/>
<line x1="131.1" y1="497.7" x2="164.8" y2="516.8" opacity="1.0" stroke="rgb(0,0,0)"  stroke-width="3"/>
<line x1="139.9" y1="494.4" x2="163.1" y2="507.6" opacity="1.0" stroke="rgb(0,0,0)"  stroke-width="3"/>
<line x1="164.8" y1="516.8" x2="198.2" y2="497.2" opacity="1.0" stroke="rgb(0,0,0)"  stroke-width="3"/>
<line x1="198.2" y1="497.2" x2="197.9" y2="458.5" opacity="1.0" stroke="rgb(0,0,0)"  stroke-width="3"/>
<line x1="190.9" y1="491.3" x2="190.8" y2="464.5" opacity="1.0" stroke="rgb(0,0,0)"  stroke-width="3"/>
<text x="142.343084" y="154.461541" fill="rgb(12,12,255)" stroke-width="0" font-weight="bold" font-size="25.92" >N</text>
<text x="324.862908" y="298.864380" fill="rgb(12,12,255)" stroke-width="0" font-weight="bold" font-size="25.92" >N</text>
<text x="257.517081" y="260.621164" fill="rgb(255,181,181)" stroke-width="0" font-weight="bold" font-size="25.92" >B</text>
<text x="190.724549" y="299.822649" fill="rgb(12,12,255)" stroke-width="0" font-weight="bold" font-size="25.92" >N</text>
</svg>
</g>
</svg>
