<?xml version="1.0"?>
<svg version="1.1" id="topsvg"
xmlns="http://www.w3.org/2000/svg" xmlns:xlink="http://www.w3.org/1999/xlink"
xmlns:cml="http://www.xml-cml.org/schema" x="0" y="0" width="200px" height="200px" viewBox="0 0 100 100">
<title>GD118.sdf - Open Babel Depiction</title>
<rect x="0" y="0" width="100" height="100" fill="white"/>
<g transform="translate(0,0)">
<svg width="100" height="100" x="0" y="0" viewBox="0 0 558.75 535.659"
font-family="sans-serif" stroke="rgb(0,0,0)" stroke-width="3"  stroke-linecap="round">
<line x1="374.1" y1="312.7" x2="382.6" y2="351.4" opacity="1.0" stroke="rgb(0,0,0)"  stroke-width="3"/>
<line x1="439.8" y1="286.9" x2="400.4" y2="283.0" opacity="1.0" stroke="rgb(0,0,0)"  stroke-width="3"/>
<line x1="156.1" y1="137.1" x2="166.8" y2="112.7" opacity="1.0" stroke="rgb(0,0,0)"  stroke-width="3"/>
<line x1="269.7" y1="376.6" x2="269.9" y2="403.4" opacity="1.0" stroke="rgb(0,0,0)"  stroke-width="3"/>
<line x1="258.7" y1="422.9" x2="235.6" y2="436.5" opacity="1.0" stroke="rgb(0,0,0)"  stroke-width="3"/>
<line x1="281.2" y1="422.8" x2="304.5" y2="436.0" opacity="1.0" stroke="rgb(0,0,0)"  stroke-width="3"/>
<line x1="137.6" y1="284.9" x2="157.2" y2="250.4" opacity="1.0" stroke="rgb(0,0,0)"  stroke-width="3"/>
<line x1="157.2" y1="250.4" x2="196.0" y2="258.4" opacity="1.0" stroke="rgb(0,0,0)"  stroke-width="3"/>
<line x1="161.6" y1="258.7" x2="188.7" y2="264.2" opacity="1.0" stroke="rgb(0,0,0)"  stroke-width="3"/>
<line x1="196.0" y1="258.4" x2="199.0" y2="284.9" opacity="1.0" stroke="rgb(0,0,0)"  stroke-width="3"/>
<line x1="188.6" y1="303.2" x2="164.3" y2="314.2" opacity="1.0" stroke="rgb(0,0,0)"  stroke-width="3"/>
<line x1="164.3" y1="314.2" x2="137.6" y2="284.9" opacity="1.0" stroke="rgb(0,0,0)"  stroke-width="3"/>
<line x1="165.6" y1="304.9" x2="147.0" y2="284.5" opacity="1.0" stroke="rgb(0,0,0)"  stroke-width="3"/>
<line x1="112.2" y1="157.5" x2="138.2" y2="151.8" opacity="1.0" stroke="rgb(0,0,0)"  stroke-width="3"/>
<line x1="157.5" y1="160.2" x2="171.0" y2="183.2" opacity="1.0" stroke="rgb(0,0,0)"  stroke-width="3"/>
<line x1="171.0" y1="183.2" x2="144.7" y2="212.8" opacity="1.0" stroke="rgb(0,0,0)"  stroke-width="3"/>
<line x1="161.6" y1="182.9" x2="143.3" y2="203.6" opacity="1.0" stroke="rgb(0,0,0)"  stroke-width="3"/>
<line x1="144.7" y1="212.8" x2="108.3" y2="197.0" opacity="1.0" stroke="rgb(0,0,0)"  stroke-width="3"/>
<line x1="108.3" y1="197.0" x2="112.2" y2="157.5" opacity="1.0" stroke="rgb(0,0,0)"  stroke-width="3"/>
<line x1="116.1" y1="191.7" x2="118.8" y2="164.2" opacity="1.0" stroke="rgb(0,0,0)"  stroke-width="3"/>
<line x1="374.1" y1="312.7" x2="400.4" y2="283.0" opacity="1.0" stroke="rgb(0,0,0)"  stroke-width="3"/>
<line x1="372.7" y1="303.4" x2="391.0" y2="282.7" opacity="1.0" stroke="rgb(0,0,0)"  stroke-width="3"/>
<line x1="400.4" y1="283.0" x2="380.3" y2="248.8" opacity="1.0" stroke="rgb(0,0,0)"  stroke-width="3"/>
<line x1="380.3" y1="248.8" x2="341.6" y2="257.4" opacity="1.0" stroke="rgb(0,0,0)"  stroke-width="3"/>
<line x1="376.0" y1="257.2" x2="349.0" y2="263.1" opacity="1.0" stroke="rgb(0,0,0)"  stroke-width="3"/>
<line x1="341.6" y1="257.4" x2="339.0" y2="283.9" opacity="1.0" stroke="rgb(0,0,0)"  stroke-width="3"/>
<line x1="349.7" y1="302.0" x2="374.1" y2="312.7" opacity="1.0" stroke="rgb(0,0,0)"  stroke-width="3"/>
<line x1="235.2" y1="357.0" x2="269.7" y2="376.6" opacity="1.0" stroke="rgb(0,0,0)"  stroke-width="3"/>
<line x1="269.7" y1="376.6" x2="303.8" y2="356.5" opacity="1.0" stroke="rgb(0,0,0)"  stroke-width="3"/>
<line x1="271.2" y1="367.3" x2="295.0" y2="353.3" opacity="1.0" stroke="rgb(0,0,0)"  stroke-width="3"/>
<line x1="303.8" y1="356.5" x2="303.6" y2="316.9" opacity="1.0" stroke="rgb(0,0,0)"  stroke-width="3"/>
<line x1="303.6" y1="316.9" x2="269.1" y2="297.3" opacity="1.0" stroke="rgb(0,0,0)"  stroke-width="3"/>
<line x1="294.8" y1="320.2" x2="270.8" y2="306.5" opacity="1.0" stroke="rgb(0,0,0)"  stroke-width="3"/>
<line x1="269.1" y1="297.3" x2="234.9" y2="317.4" opacity="1.0" stroke="rgb(0,0,0)"  stroke-width="3"/>
<line x1="234.9" y1="317.4" x2="235.2" y2="357.0" opacity="1.0" stroke="rgb(0,0,0)"  stroke-width="3"/>
<line x1="242.2" y1="323.3" x2="242.3" y2="351.0" opacity="1.0" stroke="rgb(0,0,0)"  stroke-width="3"/>
<line x1="196.0" y1="258.4" x2="222.3" y2="228.7" opacity="1.0" stroke="rgb(0,0,0)"  stroke-width="3"/>
<line x1="222.3" y1="228.7" x2="257.8" y2="250.8" opacity="1.0" stroke="rgb(0,0,0)"  stroke-width="3"/>
<line x1="268.9" y1="270.7" x2="269.1" y2="297.3" opacity="1.0" stroke="rgb(0,0,0)"  stroke-width="3"/>
<line x1="234.9" y1="317.4" x2="211.7" y2="304.2" opacity="1.0" stroke="rgb(0,0,0)"  stroke-width="3"/>
<line x1="303.6" y1="316.9" x2="326.5" y2="303.4" opacity="1.0" stroke="rgb(0,0,0)"  stroke-width="3"/>
<line x1="341.6" y1="257.4" x2="314.9" y2="228.1" opacity="1.0" stroke="rgb(0,0,0)"  stroke-width="3"/>
<line x1="314.9" y1="228.1" x2="279.8" y2="250.6" opacity="1.0" stroke="rgb(0,0,0)"  stroke-width="3"/>
<line x1="365.6" y1="181.8" x2="326.9" y2="190.3" opacity="1.0" stroke="rgb(0,0,0)"  stroke-width="3"/>
<line x1="326.9" y1="190.3" x2="314.9" y2="228.1" opacity="1.0" stroke="rgb(0,0,0)"  stroke-width="3"/>
<line x1="331.9" y1="198.2" x2="323.6" y2="224.5" opacity="1.0" stroke="rgb(0,0,0)"  stroke-width="3"/>
<line x1="380.3" y1="248.8" x2="392.3" y2="211.0" opacity="1.0" stroke="rgb(0,0,0)"  stroke-width="3"/>
<line x1="392.3" y1="211.0" x2="365.6" y2="181.8" opacity="1.0" stroke="rgb(0,0,0)"  stroke-width="3"/>
<line x1="382.9" y1="211.5" x2="364.3" y2="191.1" opacity="1.0" stroke="rgb(0,0,0)"  stroke-width="3"/>
<line x1="416.3" y1="135.5" x2="377.6" y2="144.0" opacity="1.0" stroke="rgb(0,0,0)"  stroke-width="3"/>
<line x1="412.0" y1="143.8" x2="385.0" y2="149.7" opacity="1.0" stroke="rgb(0,0,0)"  stroke-width="3"/>
<line x1="377.6" y1="144.0" x2="365.6" y2="181.8" opacity="1.0" stroke="rgb(0,0,0)"  stroke-width="3"/>
<line x1="392.3" y1="211.0" x2="431.0" y2="202.5" opacity="1.0" stroke="rgb(0,0,0)"  stroke-width="3"/>
<line x1="431.0" y1="202.5" x2="443.0" y2="164.7" opacity="1.0" stroke="rgb(0,0,0)"  stroke-width="3"/>
<line x1="426.0" y1="194.6" x2="434.3" y2="168.3" opacity="1.0" stroke="rgb(0,0,0)"  stroke-width="3"/>
<line x1="443.0" y1="164.7" x2="416.3" y2="135.5" opacity="1.0" stroke="rgb(0,0,0)"  stroke-width="3"/>
<line x1="113.6" y1="360.5" x2="86.9" y2="331.2" opacity="1.0" stroke="rgb(0,0,0)"  stroke-width="3"/>
<line x1="86.9" y1="331.2" x2="98.9" y2="293.4" opacity="1.0" stroke="rgb(0,0,0)"  stroke-width="3"/>
<line x1="95.6" y1="327.7" x2="103.9" y2="301.3" opacity="1.0" stroke="rgb(0,0,0)"  stroke-width="3"/>
<line x1="98.9" y1="293.4" x2="137.6" y2="284.9" opacity="1.0" stroke="rgb(0,0,0)"  stroke-width="3"/>
<line x1="164.3" y1="314.2" x2="152.4" y2="352.0" opacity="1.0" stroke="rgb(0,0,0)"  stroke-width="3"/>
<line x1="152.4" y1="352.0" x2="113.6" y2="360.5" opacity="1.0" stroke="rgb(0,0,0)"  stroke-width="3"/>
<line x1="145.0" y1="346.2" x2="118.0" y2="352.2" opacity="1.0" stroke="rgb(0,0,0)"  stroke-width="3"/>
<line x1="157.2" y1="250.4" x2="144.7" y2="212.8" opacity="1.0" stroke="rgb(0,0,0)"  stroke-width="3"/>
<line x1="171.0" y1="183.2" x2="209.8" y2="191.1" opacity="1.0" stroke="rgb(0,0,0)"  stroke-width="3"/>
<line x1="209.8" y1="191.1" x2="222.3" y2="228.7" opacity="1.0" stroke="rgb(0,0,0)"  stroke-width="3"/>
<line x1="204.9" y1="199.1" x2="213.6" y2="225.3" opacity="1.0" stroke="rgb(0,0,0)"  stroke-width="3"/>
<line x1="353.3" y1="378.1" x2="361.8" y2="416.8" opacity="1.0" stroke="rgb(0,0,0)"  stroke-width="3"/>
<line x1="361.8" y1="416.8" x2="399.6" y2="428.8" opacity="1.0" stroke="rgb(0,0,0)"  stroke-width="3"/>
<line x1="369.7" y1="411.8" x2="396.1" y2="420.1" opacity="1.0" stroke="rgb(0,0,0)"  stroke-width="3"/>
<line x1="399.6" y1="428.8" x2="428.9" y2="402.1" opacity="1.0" stroke="rgb(0,0,0)"  stroke-width="3"/>
<line x1="428.9" y1="402.1" x2="420.4" y2="363.4" opacity="1.0" stroke="rgb(0,0,0)"  stroke-width="3"/>
<line x1="420.6" y1="397.8" x2="414.6" y2="370.8" opacity="1.0" stroke="rgb(0,0,0)"  stroke-width="3"/>
<line x1="420.4" y1="363.4" x2="382.6" y2="351.4" opacity="1.0" stroke="rgb(0,0,0)"  stroke-width="3"/>
<line x1="382.6" y1="351.4" x2="353.3" y2="378.1" opacity="1.0" stroke="rgb(0,0,0)"  stroke-width="3"/>
<line x1="383.0" y1="360.7" x2="362.6" y2="379.4" opacity="1.0" stroke="rgb(0,0,0)"  stroke-width="3"/>
<line x1="456.2" y1="323.0" x2="495.7" y2="326.8" opacity="1.0" stroke="rgb(0,0,0)"  stroke-width="3"/>
<line x1="495.7" y1="326.8" x2="518.8" y2="294.6" opacity="1.0" stroke="rgb(0,0,0)"  stroke-width="3"/>
<line x1="493.3" y1="317.8" x2="509.4" y2="295.3" opacity="1.0" stroke="rgb(0,0,0)"  stroke-width="3"/>
<line x1="518.8" y1="294.6" x2="502.4" y2="258.5" opacity="1.0" stroke="rgb(0,0,0)"  stroke-width="3"/>
<line x1="502.4" y1="258.5" x2="462.9" y2="254.6" opacity="1.0" stroke="rgb(0,0,0)"  stroke-width="3"/>
<line x1="495.7" y1="265.1" x2="468.2" y2="262.4" opacity="1.0" stroke="rgb(0,0,0)"  stroke-width="3"/>
<line x1="462.9" y1="254.6" x2="439.8" y2="286.9" opacity="1.0" stroke="rgb(0,0,0)"  stroke-width="3"/>
<line x1="439.8" y1="286.9" x2="456.2" y2="323.0" opacity="1.0" stroke="rgb(0,0,0)"  stroke-width="3"/>
<line x1="448.9" y1="289.4" x2="460.3" y2="314.5" opacity="1.0" stroke="rgb(0,0,0)"  stroke-width="3"/>
<line x1="40.0" y1="190.3" x2="72.2" y2="213.3" opacity="1.0" stroke="rgb(0,0,0)"  stroke-width="3"/>
<line x1="49.1" y1="187.9" x2="71.5" y2="204.0" opacity="1.0" stroke="rgb(0,0,0)"  stroke-width="3"/>
<line x1="72.2" y1="213.3" x2="108.3" y2="197.0" opacity="1.0" stroke="rgb(0,0,0)"  stroke-width="3"/>
<line x1="112.2" y1="157.5" x2="80.0" y2="134.4" opacity="1.0" stroke="rgb(0,0,0)"  stroke-width="3"/>
<line x1="80.0" y1="134.4" x2="43.9" y2="150.8" opacity="1.0" stroke="rgb(0,0,0)"  stroke-width="3"/>
<line x1="77.5" y1="143.5" x2="52.3" y2="154.9" opacity="1.0" stroke="rgb(0,0,0)"  stroke-width="3"/>
<line x1="43.9" y1="150.8" x2="40.0" y2="190.3" opacity="1.0" stroke="rgb(0,0,0)"  stroke-width="3"/>
<line x1="206.2" y1="108.2" x2="222.0" y2="71.9" opacity="1.0" stroke="rgb(0,0,0)"  stroke-width="3"/>
<line x1="222.0" y1="71.9" x2="198.5" y2="40.0" opacity="1.0" stroke="rgb(0,0,0)"  stroke-width="3"/>
<line x1="212.7" y1="71.3" x2="196.3" y2="49.1" opacity="1.0" stroke="rgb(0,0,0)"  stroke-width="3"/>
<line x1="198.5" y1="40.0" x2="159.1" y2="44.4" opacity="1.0" stroke="rgb(0,0,0)"  stroke-width="3"/>
<line x1="159.1" y1="44.4" x2="143.2" y2="80.8" opacity="1.0" stroke="rgb(0,0,0)"  stroke-width="3"/>
<line x1="163.3" y1="52.8" x2="152.2" y2="78.1" opacity="1.0" stroke="rgb(0,0,0)"  stroke-width="3"/>
<line x1="143.2" y1="80.8" x2="166.8" y2="112.7" opacity="1.0" stroke="rgb(0,0,0)"  stroke-width="3"/>
<line x1="166.8" y1="112.7" x2="206.2" y2="108.2" opacity="1.0" stroke="rgb(0,0,0)"  stroke-width="3"/>
<line x1="171.9" y1="104.8" x2="199.4" y2="101.7" opacity="1.0" stroke="rgb(0,0,0)"  stroke-width="3"/>
<line x1="200.9" y1="417.1" x2="166.7" y2="436.5" opacity="1.0" stroke="rgb(0,0,0)"  stroke-width="3"/>
<line x1="166.7" y1="436.5" x2="166.7" y2="476.3" opacity="1.0" stroke="rgb(0,0,0)"  stroke-width="3"/>
<line x1="173.9" y1="442.5" x2="173.9" y2="470.3" opacity="1.0" stroke="rgb(0,0,0)"  stroke-width="3"/>
<line x1="166.7" y1="476.3" x2="200.9" y2="495.7" opacity="1.0" stroke="rgb(0,0,0)"  stroke-width="3"/>
<line x1="200.9" y1="495.7" x2="235.6" y2="476.3" opacity="1.0" stroke="rgb(0,0,0)"  stroke-width="3"/>
<line x1="202.6" y1="486.4" x2="226.9" y2="472.9" opacity="1.0" stroke="rgb(0,0,0)"  stroke-width="3"/>
<line x1="235.6" y1="476.3" x2="235.6" y2="436.5" opacity="1.0" stroke="rgb(0,0,0)"  stroke-width="3"/>
<line x1="235.6" y1="436.5" x2="200.9" y2="417.1" opacity="1.0" stroke="rgb(0,0,0)"  stroke-width="3"/>
<line x1="226.9" y1="439.8" x2="202.6" y2="426.3" opacity="1.0" stroke="rgb(0,0,0)"  stroke-width="3"/>
<line x1="305.0" y1="475.8" x2="339.6" y2="495.3" opacity="1.0" stroke="rgb(0,0,0)"  stroke-width="3"/>
<line x1="339.6" y1="495.3" x2="373.9" y2="475.8" opacity="1.0" stroke="rgb(0,0,0)"  stroke-width="3"/>
<line x1="341.3" y1="486.1" x2="365.1" y2="472.5" opacity="1.0" stroke="rgb(0,0,0)"  stroke-width="3"/>
<line x1="373.9" y1="475.8" x2="373.9" y2="436.0" opacity="1.0" stroke="rgb(0,0,0)"  stroke-width="3"/>
<line x1="373.9" y1="436.0" x2="339.6" y2="416.5" opacity="1.0" stroke="rgb(0,0,0)"  stroke-width="3"/>
<line x1="365.1" y1="439.3" x2="341.3" y2="425.7" opacity="1.0" stroke="rgb(0,0,0)"  stroke-width="3"/>
<line x1="339.6" y1="416.5" x2="304.5" y2="436.0" opacity="1.0" stroke="rgb(0,0,0)"  stroke-width="3"/>
<line x1="304.5" y1="436.0" x2="305.0" y2="475.8" opacity="1.0" stroke="rgb(0,0,0)"  stroke-width="3"/>
<line x1="311.8" y1="441.9" x2="312.1" y2="469.7" opacity="1.0" stroke="rgb(0,0,0)"  stroke-width="3"/>
<text x="144.909429" y="156.983366" fill="rgb(12,12,255)" stroke-width="0" font-weight="bold" font-size="25.92" >N</text>
<text x="263.945344" y="424.354200" fill="rgb(12,12,255)" stroke-width="0" font-weight="bold" font-size="25.92" >N</text>
<text x="194.436917" y="305.787674" fill="rgb(12,12,255)" stroke-width="0" font-weight="bold" font-size="25.92" >N</text>
<text x="331.752639" y="304.806658" fill="rgb(12,12,255)" stroke-width="0" font-weight="bold" font-size="25.92" >N</text>
<text x="262.811578" y="265.657567" fill="rgb(255,181,181)" stroke-width="0" font-weight="bold" font-size="25.92" >B</text>
</svg>
</g>
</svg>
