<?xml version="1.0"?>
<svg version="1.1" id="topsvg"
xmlns="http://www.w3.org/2000/svg" xmlns:xlink="http://www.w3.org/1999/xlink"
xmlns:cml="http://www.xml-cml.org/schema" x="0" y="0" width="200px" height="200px" viewBox="0 0 100 100">
<title>GD120.sdf - Open Babel Depiction</title>
<rect x="0" y="0" width="100" height="100" fill="white"/>
<g transform="translate(0,0)">
<svg width="100" height="100" x="0" y="0" viewBox="0 0 561.966 586.668"
font-family="sans-serif" stroke="rgb(0,0,0)" stroke-width="3"  stroke-linecap="round">
<line x1="283.4" y1="366.8" x2="283.4" y2="468.0" opacity="1.0" stroke="rgb(0,0,0)"  stroke-width="3"/>
<line x1="317.5" y1="487.6" x2="351.6" y2="468.0" opacity="1.0" stroke="rgb(0,0,0)"  stroke-width="3"/>
<line x1="419.7" y1="428.6" x2="453.8" y2="408.9" opacity="1.0" stroke="rgb(0,0,0)"  stroke-width="3"/>
<line x1="358.1" y1="123.2" x2="377.4" y2="105.2" opacity="1.0" stroke="rgb(0,0,0)"  stroke-width="3"/>
<line x1="117.3" y1="330.9" x2="98.2" y2="365.4" opacity="1.0" stroke="rgb(0,0,0)"  stroke-width="3"/>
<line x1="155.3" y1="262.0" x2="179.2" y2="230.7" opacity="1.0" stroke="rgb(0,0,0)"  stroke-width="3"/>
<line x1="179.2" y1="230.7" x2="213.6" y2="249.8" opacity="1.0" stroke="rgb(0,0,0)"  stroke-width="3"/>
<line x1="213.6" y1="249.8" x2="214.2" y2="276.1" opacity="1.0" stroke="rgb(0,0,0)"  stroke-width="3"/>
<line x1="201.6" y1="291.3" x2="175.6" y2="295.7" opacity="1.0" stroke="rgb(0,0,0)"  stroke-width="3"/>
<line x1="175.6" y1="295.7" x2="155.3" y2="262.0" opacity="1.0" stroke="rgb(0,0,0)"  stroke-width="3"/>
<line x1="178.7" y1="286.8" x2="164.6" y2="263.4" opacity="1.0" stroke="rgb(0,0,0)"  stroke-width="3"/>
<line x1="409.3" y1="261.6" x2="382.4" y2="232.9" opacity="1.0" stroke="rgb(0,0,0)"  stroke-width="3"/>
<line x1="382.4" y1="232.9" x2="346.8" y2="249.6" opacity="1.0" stroke="rgb(0,0,0)"  stroke-width="3"/>
<line x1="380.0" y1="241.9" x2="355.3" y2="253.5" opacity="1.0" stroke="rgb(0,0,0)"  stroke-width="3"/>
<line x1="346.8" y1="249.6" x2="350.0" y2="275.7" opacity="1.0" stroke="rgb(0,0,0)"  stroke-width="3"/>
<line x1="364.4" y1="291.1" x2="390.3" y2="296.0" opacity="1.0" stroke="rgb(0,0,0)"  stroke-width="3"/>
<line x1="390.3" y1="296.0" x2="409.3" y2="261.6" opacity="1.0" stroke="rgb(0,0,0)"  stroke-width="3"/>
<line x1="386.9" y1="287.3" x2="400.1" y2="263.4" opacity="1.0" stroke="rgb(0,0,0)"  stroke-width="3"/>
<line x1="310.0" y1="124.7" x2="335.9" y2="129.6" opacity="1.0" stroke="rgb(0,0,0)"  stroke-width="3"/>
<line x1="350.2" y1="145.0" x2="353.5" y2="171.1" opacity="1.0" stroke="rgb(0,0,0)"  stroke-width="3"/>
<line x1="353.5" y1="171.1" x2="317.9" y2="187.8" opacity="1.0" stroke="rgb(0,0,0)"  stroke-width="3"/>
<line x1="317.9" y1="187.8" x2="291.0" y2="159.1" opacity="1.0" stroke="rgb(0,0,0)"  stroke-width="3"/>
<line x1="291.0" y1="159.1" x2="310.0" y2="124.7" opacity="1.0" stroke="rgb(0,0,0)"  stroke-width="3"/>
<line x1="300.2" y1="157.3" x2="313.4" y2="133.4" opacity="1.0" stroke="rgb(0,0,0)"  stroke-width="3"/>
<line x1="249.2" y1="347.3" x2="283.4" y2="366.8" opacity="1.0" stroke="rgb(0,0,0)"  stroke-width="3"/>
<line x1="283.4" y1="366.8" x2="317.4" y2="346.9" opacity="1.0" stroke="rgb(0,0,0)"  stroke-width="3"/>
<line x1="285.0" y1="357.5" x2="308.6" y2="343.7" opacity="1.0" stroke="rgb(0,0,0)"  stroke-width="3"/>
<line x1="317.4" y1="346.9" x2="317.2" y2="307.5" opacity="1.0" stroke="rgb(0,0,0)"  stroke-width="3"/>
<line x1="317.2" y1="307.5" x2="283.0" y2="288.1" opacity="1.0" stroke="rgb(0,0,0)"  stroke-width="3"/>
<line x1="308.4" y1="310.8" x2="284.6" y2="297.3" opacity="1.0" stroke="rgb(0,0,0)"  stroke-width="3"/>
<line x1="283.0" y1="288.1" x2="249.0" y2="307.9" opacity="1.0" stroke="rgb(0,0,0)"  stroke-width="3"/>
<line x1="249.0" y1="307.9" x2="249.2" y2="347.3" opacity="1.0" stroke="rgb(0,0,0)"  stroke-width="3"/>
<line x1="256.2" y1="313.9" x2="256.4" y2="341.2" opacity="1.0" stroke="rgb(0,0,0)"  stroke-width="3"/>
<line x1="282.1" y1="261.7" x2="283.0" y2="288.1" opacity="1.0" stroke="rgb(0,0,0)"  stroke-width="3"/>
<line x1="249.0" y1="307.9" x2="225.9" y2="295.3" opacity="1.0" stroke="rgb(0,0,0)"  stroke-width="3"/>
<line x1="213.6" y1="249.8" x2="247.3" y2="229.5" opacity="1.0" stroke="rgb(0,0,0)"  stroke-width="3"/>
<line x1="222.5" y1="252.9" x2="245.9" y2="238.8" opacity="1.0" stroke="rgb(0,0,0)"  stroke-width="3"/>
<line x1="247.3" y1="229.5" x2="270.3" y2="242.4" opacity="1.0" stroke="rgb(0,0,0)"  stroke-width="3"/>
<line x1="346.8" y1="249.6" x2="314.5" y2="227.1" opacity="1.0" stroke="rgb(0,0,0)"  stroke-width="3"/>
<line x1="314.5" y1="227.1" x2="292.5" y2="241.6" opacity="1.0" stroke="rgb(0,0,0)"  stroke-width="3"/>
<line x1="317.2" y1="307.5" x2="340.3" y2="294.9" opacity="1.0" stroke="rgb(0,0,0)"  stroke-width="3"/>
<line x1="117.3" y1="330.9" x2="156.6" y2="330.1" opacity="1.0" stroke="rgb(0,0,0)"  stroke-width="3"/>
<line x1="123.2" y1="323.6" x2="150.5" y2="323.0" opacity="1.0" stroke="rgb(0,0,0)"  stroke-width="3"/>
<line x1="156.6" y1="330.1" x2="175.6" y2="295.7" opacity="1.0" stroke="rgb(0,0,0)"  stroke-width="3"/>
<line x1="155.3" y1="262.0" x2="116.0" y2="262.7" opacity="1.0" stroke="rgb(0,0,0)"  stroke-width="3"/>
<line x1="116.0" y1="262.7" x2="97.0" y2="297.2" opacity="1.0" stroke="rgb(0,0,0)"  stroke-width="3"/>
<line x1="119.4" y1="271.5" x2="106.2" y2="295.4" opacity="1.0" stroke="rgb(0,0,0)"  stroke-width="3"/>
<line x1="97.0" y1="297.2" x2="117.3" y2="330.9" opacity="1.0" stroke="rgb(0,0,0)"  stroke-width="3"/>
<line x1="469.0" y1="294.5" x2="448.7" y2="260.8" opacity="1.0" stroke="rgb(0,0,0)"  stroke-width="3"/>
<line x1="459.7" y1="293.1" x2="445.6" y2="269.7" opacity="1.0" stroke="rgb(0,0,0)"  stroke-width="3"/>
<line x1="448.7" y1="260.8" x2="409.3" y2="261.6" opacity="1.0" stroke="rgb(0,0,0)"  stroke-width="3"/>
<line x1="390.3" y1="296.0" x2="410.6" y2="329.7" opacity="1.0" stroke="rgb(0,0,0)"  stroke-width="3"/>
<line x1="410.6" y1="329.7" x2="450.0" y2="329.0" opacity="1.0" stroke="rgb(0,0,0)"  stroke-width="3"/>
<line x1="416.5" y1="322.4" x2="443.8" y2="321.9" opacity="1.0" stroke="rgb(0,0,0)"  stroke-width="3"/>
<line x1="450.0" y1="329.0" x2="469.0" y2="294.5" opacity="1.0" stroke="rgb(0,0,0)"  stroke-width="3"/>
<line x1="317.9" y1="187.8" x2="314.5" y2="227.1" opacity="1.0" stroke="rgb(0,0,0)"  stroke-width="3"/>
<line x1="324.5" y1="194.4" x2="322.2" y2="221.7" opacity="1.0" stroke="rgb(0,0,0)"  stroke-width="3"/>
<line x1="382.4" y1="232.9" x2="385.8" y2="193.7" opacity="1.0" stroke="rgb(0,0,0)"  stroke-width="3"/>
<line x1="385.8" y1="193.7" x2="353.5" y2="171.1" opacity="1.0" stroke="rgb(0,0,0)"  stroke-width="3"/>
<line x1="376.7" y1="196.1" x2="354.3" y2="180.5" opacity="1.0" stroke="rgb(0,0,0)"  stroke-width="3"/>
<line x1="179.2" y1="230.7" x2="178.5" y2="191.4" opacity="1.0" stroke="rgb(0,0,0)"  stroke-width="3"/>
<line x1="186.3" y1="224.6" x2="185.8" y2="197.2" opacity="1.0" stroke="rgb(0,0,0)"  stroke-width="3"/>
<line x1="178.5" y1="191.4" x2="212.2" y2="171.1" opacity="1.0" stroke="rgb(0,0,0)"  stroke-width="3"/>
<line x1="212.2" y1="171.1" x2="246.7" y2="190.2" opacity="1.0" stroke="rgb(0,0,0)"  stroke-width="3"/>
<line x1="214.0" y1="180.3" x2="237.9" y2="193.6" opacity="1.0" stroke="rgb(0,0,0)"  stroke-width="3"/>
<line x1="246.7" y1="190.2" x2="247.3" y2="229.5" opacity="1.0" stroke="rgb(0,0,0)"  stroke-width="3"/>
<line x1="231.3" y1="126.2" x2="251.6" y2="159.9" opacity="1.0" stroke="rgb(0,0,0)"  stroke-width="3"/>
<line x1="240.6" y1="127.6" x2="254.7" y2="151.0" opacity="1.0" stroke="rgb(0,0,0)"  stroke-width="3"/>
<line x1="251.6" y1="159.9" x2="291.0" y2="159.1" opacity="1.0" stroke="rgb(0,0,0)"  stroke-width="3"/>
<line x1="310.0" y1="124.7" x2="289.7" y2="91.0" opacity="1.0" stroke="rgb(0,0,0)"  stroke-width="3"/>
<line x1="289.7" y1="91.0" x2="250.3" y2="91.7" opacity="1.0" stroke="rgb(0,0,0)"  stroke-width="3"/>
<line x1="283.8" y1="98.3" x2="256.5" y2="98.8" opacity="1.0" stroke="rgb(0,0,0)"  stroke-width="3"/>
<line x1="250.3" y1="91.7" x2="231.3" y2="126.2" opacity="1.0" stroke="rgb(0,0,0)"  stroke-width="3"/>
<line x1="249.3" y1="487.6" x2="249.3" y2="527.0" opacity="1.0" stroke="rgb(0,0,0)"  stroke-width="3"/>
<line x1="249.3" y1="527.0" x2="283.4" y2="546.7" opacity="1.0" stroke="rgb(0,0,0)"  stroke-width="3"/>
<line x1="258.1" y1="523.8" x2="281.8" y2="537.4" opacity="1.0" stroke="rgb(0,0,0)"  stroke-width="3"/>
<line x1="283.4" y1="546.7" x2="317.5" y2="527.0" opacity="1.0" stroke="rgb(0,0,0)"  stroke-width="3"/>
<line x1="317.5" y1="527.0" x2="317.5" y2="487.6" opacity="1.0" stroke="rgb(0,0,0)"  stroke-width="3"/>
<line x1="310.3" y1="521.0" x2="310.3" y2="493.6" opacity="1.0" stroke="rgb(0,0,0)"  stroke-width="3"/>
<line x1="317.5" y1="487.6" x2="283.4" y2="468.0" opacity="1.0" stroke="rgb(0,0,0)"  stroke-width="3"/>
<line x1="283.4" y1="468.0" x2="249.3" y2="487.6" opacity="1.0" stroke="rgb(0,0,0)"  stroke-width="3"/>
<line x1="281.8" y1="477.2" x2="258.1" y2="490.9" opacity="1.0" stroke="rgb(0,0,0)"  stroke-width="3"/>
<line x1="385.7" y1="487.6" x2="419.7" y2="468.0" opacity="1.0" stroke="rgb(0,0,0)"  stroke-width="3"/>
<line x1="419.7" y1="468.0" x2="419.7" y2="428.6" opacity="1.0" stroke="rgb(0,0,0)"  stroke-width="3"/>
<line x1="412.5" y1="462.0" x2="412.5" y2="434.6" opacity="1.0" stroke="rgb(0,0,0)"  stroke-width="3"/>
<line x1="419.7" y1="428.6" x2="385.7" y2="408.9" opacity="1.0" stroke="rgb(0,0,0)"  stroke-width="3"/>
<line x1="385.7" y1="408.9" x2="351.6" y2="428.6" opacity="1.0" stroke="rgb(0,0,0)"  stroke-width="3"/>
<line x1="384.1" y1="418.2" x2="360.4" y2="431.9" opacity="1.0" stroke="rgb(0,0,0)"  stroke-width="3"/>
<line x1="351.6" y1="428.6" x2="351.6" y2="468.0" opacity="1.0" stroke="rgb(0,0,0)"  stroke-width="3"/>
<line x1="351.6" y1="468.0" x2="385.7" y2="487.6" opacity="1.0" stroke="rgb(0,0,0)"  stroke-width="3"/>
<line x1="360.4" y1="464.7" x2="384.1" y2="478.4" opacity="1.0" stroke="rgb(0,0,0)"  stroke-width="3"/>
<line x1="317.5" y1="369.6" x2="317.5" y2="408.9" opacity="1.0" stroke="rgb(0,0,0)"  stroke-width="3"/>
<line x1="324.7" y1="375.6" x2="324.7" y2="402.9" opacity="1.0" stroke="rgb(0,0,0)"  stroke-width="3"/>
<line x1="317.5" y1="408.9" x2="351.6" y2="428.6" opacity="1.0" stroke="rgb(0,0,0)"  stroke-width="3"/>
<line x1="385.7" y1="408.9" x2="385.7" y2="369.6" opacity="1.0" stroke="rgb(0,0,0)"  stroke-width="3"/>
<line x1="385.7" y1="369.6" x2="351.6" y2="349.9" opacity="1.0" stroke="rgb(0,0,0)"  stroke-width="3"/>
<line x1="376.9" y1="372.8" x2="353.2" y2="359.2" opacity="1.0" stroke="rgb(0,0,0)"  stroke-width="3"/>
<line x1="351.6" y1="349.9" x2="317.5" y2="369.6" opacity="1.0" stroke="rgb(0,0,0)"  stroke-width="3"/>
<line x1="453.8" y1="527.0" x2="453.8" y2="487.6" opacity="1.0" stroke="rgb(0,0,0)"  stroke-width="3"/>
<line x1="446.6" y1="521.0" x2="446.6" y2="493.6" opacity="1.0" stroke="rgb(0,0,0)"  stroke-width="3"/>
<line x1="453.8" y1="487.6" x2="419.7" y2="468.0" opacity="1.0" stroke="rgb(0,0,0)"  stroke-width="3"/>
<line x1="385.7" y1="487.6" x2="385.7" y2="527.0" opacity="1.0" stroke="rgb(0,0,0)"  stroke-width="3"/>
<line x1="385.7" y1="527.0" x2="419.7" y2="546.7" opacity="1.0" stroke="rgb(0,0,0)"  stroke-width="3"/>
<line x1="394.5" y1="523.8" x2="418.1" y2="537.4" opacity="1.0" stroke="rgb(0,0,0)"  stroke-width="3"/>
<line x1="419.7" y1="546.7" x2="453.8" y2="527.0" opacity="1.0" stroke="rgb(0,0,0)"  stroke-width="3"/>
<line x1="487.9" y1="428.6" x2="522.0" y2="408.9" opacity="1.0" stroke="rgb(0,0,0)"  stroke-width="3"/>
<line x1="522.0" y1="408.9" x2="522.0" y2="369.6" opacity="1.0" stroke="rgb(0,0,0)"  stroke-width="3"/>
<line x1="514.8" y1="402.9" x2="514.8" y2="375.6" opacity="1.0" stroke="rgb(0,0,0)"  stroke-width="3"/>
<line x1="522.0" y1="369.6" x2="487.9" y2="349.9" opacity="1.0" stroke="rgb(0,0,0)"  stroke-width="3"/>
<line x1="487.9" y1="349.9" x2="453.8" y2="369.6" opacity="1.0" stroke="rgb(0,0,0)"  stroke-width="3"/>
<line x1="486.3" y1="359.2" x2="462.6" y2="372.8" opacity="1.0" stroke="rgb(0,0,0)"  stroke-width="3"/>
<line x1="453.8" y1="369.6" x2="453.8" y2="408.9" opacity="1.0" stroke="rgb(0,0,0)"  stroke-width="3"/>
<line x1="453.8" y1="408.9" x2="487.9" y2="428.6" opacity="1.0" stroke="rgb(0,0,0)"  stroke-width="3"/>
<line x1="462.6" y1="405.7" x2="486.3" y2="419.4" opacity="1.0" stroke="rgb(0,0,0)"  stroke-width="3"/>
<line x1="415.0" y1="116.6" x2="443.7" y2="89.8" opacity="1.0" stroke="rgb(0,0,0)"  stroke-width="3"/>
<line x1="443.7" y1="89.8" x2="434.8" y2="51.4" opacity="1.0" stroke="rgb(0,0,0)"  stroke-width="3"/>
<line x1="435.4" y1="85.5" x2="429.2" y2="58.9" opacity="1.0" stroke="rgb(0,0,0)"  stroke-width="3"/>
<line x1="434.8" y1="51.4" x2="397.2" y2="40.0" opacity="1.0" stroke="rgb(0,0,0)"  stroke-width="3"/>
<line x1="397.2" y1="40.0" x2="368.4" y2="66.9" opacity="1.0" stroke="rgb(0,0,0)"  stroke-width="3"/>
<line x1="397.7" y1="49.4" x2="377.7" y2="68.0" opacity="1.0" stroke="rgb(0,0,0)"  stroke-width="3"/>
<line x1="368.4" y1="66.9" x2="377.4" y2="105.2" opacity="1.0" stroke="rgb(0,0,0)"  stroke-width="3"/>
<line x1="377.4" y1="105.2" x2="415.0" y2="116.6" opacity="1.0" stroke="rgb(0,0,0)"  stroke-width="3"/>
<line x1="385.2" y1="100.1" x2="411.4" y2="108.0" opacity="1.0" stroke="rgb(0,0,0)"  stroke-width="3"/>
<line x1="58.7" y1="366.6" x2="40.0" y2="401.4" opacity="1.0" stroke="rgb(0,0,0)"  stroke-width="3"/>
<line x1="40.0" y1="401.4" x2="58.7" y2="435.0" opacity="1.0" stroke="rgb(0,0,0)"  stroke-width="3"/>
<line x1="49.2" y1="403.1" x2="62.1" y2="426.2" opacity="1.0" stroke="rgb(0,0,0)"  stroke-width="3"/>
<line x1="58.7" y1="435.0" x2="98.2" y2="435.0" opacity="1.0" stroke="rgb(0,0,0)"  stroke-width="3"/>
<line x1="98.2" y1="435.0" x2="117.0" y2="401.4" opacity="1.0" stroke="rgb(0,0,0)"  stroke-width="3"/>
<line x1="94.8" y1="426.2" x2="107.7" y2="403.1" opacity="1.0" stroke="rgb(0,0,0)"  stroke-width="3"/>
<line x1="117.0" y1="401.4" x2="98.2" y2="365.4" opacity="1.0" stroke="rgb(0,0,0)"  stroke-width="3"/>
<line x1="98.2" y1="365.4" x2="58.7" y2="366.6" opacity="1.0" stroke="rgb(0,0,0)"  stroke-width="3"/>
<line x1="92.4" y1="372.8" x2="64.9" y2="373.6" opacity="1.0" stroke="rgb(0,0,0)"  stroke-width="3"/>
<text x="342.638893" y="140.102547" fill="rgb(12,12,255)" stroke-width="0" font-weight="bold" font-size="25.92" >N</text>
<text x="345.657628" y="296.609094" fill="rgb(12,12,255)" stroke-width="0" font-weight="bold" font-size="25.92" >N</text>
<text x="208.448087" y="297.122706" fill="rgb(12,12,255)" stroke-width="0" font-weight="bold" font-size="25.92" >N</text>
<text x="275.681621" y="256.736867" fill="rgb(255,181,181)" stroke-width="0" font-weight="bold" font-size="25.92" >B</text>
</svg>
</g>
</svg>
