<?xml version="1.0"?>
<svg version="1.1" id="topsvg"
xmlns="http://www.w3.org/2000/svg" xmlns:xlink="http://www.w3.org/1999/xlink"
xmlns:cml="http://www.xml-cml.org/schema" x="0" y="0" width="200px" height="200px" viewBox="0 0 100 100">
<title>GD126.sdf - Open Babel Depiction</title>
<rect x="0" y="0" width="100" height="100" fill="white"/>
<g transform="translate(0,0)">
<svg width="100" height="100" x="0" y="0" viewBox="0 0 583.253 647.064"
font-family="sans-serif" stroke="rgb(0,0,0)" stroke-width="3"  stroke-linecap="round">
<line x1="232.3" y1="175.4" x2="232.3" y2="136.4" opacity="1.0" stroke="rgb(0,0,0)"  stroke-width="3"/>
<line x1="118.0" y1="300.5" x2="79.0" y2="300.5" opacity="1.0" stroke="rgb(0,0,0)"  stroke-width="3"/>
<line x1="79.0" y1="300.5" x2="40.0" y2="300.5" opacity="1.0" stroke="rgb(0,0,0)"  stroke-width="3"/>
<line x1="59.5" y1="334.3" x2="79.0" y2="300.5" opacity="1.0" stroke="rgb(0,0,0)"  stroke-width="3"/>
<line x1="232.3" y1="136.4" x2="266.1" y2="116.9" opacity="1.0" stroke="rgb(0,0,0)"  stroke-width="3"/>
<line x1="198.5" y1="116.9" x2="232.3" y2="136.4" opacity="1.0" stroke="rgb(0,0,0)"  stroke-width="3"/>
<line x1="79.0" y1="300.5" x2="59.5" y2="266.7" opacity="1.0" stroke="rgb(0,0,0)"  stroke-width="3"/>
<line x1="232.3" y1="136.4" x2="232.3" y2="97.4" opacity="1.0" stroke="rgb(0,0,0)"  stroke-width="3"/>
<line x1="375.9" y1="127.8" x2="360.2" y2="107.1" opacity="1.0" stroke="rgb(0,0,0)"  stroke-width="3"/>
<line x1="456.2" y1="446.6" x2="480.4" y2="416.0" opacity="1.0" stroke="rgb(0,0,0)"  stroke-width="3"/>
<line x1="383.6" y1="538.4" x2="407.8" y2="507.8" opacity="1.0" stroke="rgb(0,0,0)"  stroke-width="3"/>
<line x1="302.9" y1="369.5" x2="324.2" y2="506.3" opacity="1.0" stroke="rgb(0,0,0)"  stroke-width="3"/>
<line x1="175.9" y1="265.6" x2="199.6" y2="234.5" opacity="1.0" stroke="rgb(0,0,0)"  stroke-width="3"/>
<line x1="199.6" y1="234.5" x2="233.7" y2="253.5" opacity="1.0" stroke="rgb(0,0,0)"  stroke-width="3"/>
<line x1="233.7" y1="253.5" x2="234.2" y2="279.5" opacity="1.0" stroke="rgb(0,0,0)"  stroke-width="3"/>
<line x1="221.7" y1="294.6" x2="196.0" y2="299.0" opacity="1.0" stroke="rgb(0,0,0)"  stroke-width="3"/>
<line x1="196.0" y1="299.0" x2="175.9" y2="265.6" opacity="1.0" stroke="rgb(0,0,0)"  stroke-width="3"/>
<line x1="199.1" y1="290.1" x2="185.2" y2="267.0" opacity="1.0" stroke="rgb(0,0,0)"  stroke-width="3"/>
<line x1="427.7" y1="265.2" x2="401.1" y2="236.7" opacity="1.0" stroke="rgb(0,0,0)"  stroke-width="3"/>
<line x1="401.1" y1="236.7" x2="365.7" y2="253.2" opacity="1.0" stroke="rgb(0,0,0)"  stroke-width="3"/>
<line x1="398.7" y1="245.8" x2="374.2" y2="257.2" opacity="1.0" stroke="rgb(0,0,0)"  stroke-width="3"/>
<line x1="365.7" y1="253.2" x2="369.0" y2="279.1" opacity="1.0" stroke="rgb(0,0,0)"  stroke-width="3"/>
<line x1="383.3" y1="294.4" x2="408.9" y2="299.3" opacity="1.0" stroke="rgb(0,0,0)"  stroke-width="3"/>
<line x1="408.9" y1="299.3" x2="427.7" y2="265.2" opacity="1.0" stroke="rgb(0,0,0)"  stroke-width="3"/>
<line x1="405.5" y1="290.6" x2="418.5" y2="267.0" opacity="1.0" stroke="rgb(0,0,0)"  stroke-width="3"/>
<line x1="422.7" y1="137.4" x2="396.7" y2="137.9" opacity="1.0" stroke="rgb(0,0,0)"  stroke-width="3"/>
<line x1="380.0" y1="150.6" x2="372.4" y2="175.5" opacity="1.0" stroke="rgb(0,0,0)"  stroke-width="3"/>
<line x1="372.4" y1="175.5" x2="404.4" y2="197.8" opacity="1.0" stroke="rgb(0,0,0)"  stroke-width="3"/>
<line x1="381.4" y1="173.0" x2="403.6" y2="188.5" opacity="1.0" stroke="rgb(0,0,0)"  stroke-width="3"/>
<line x1="404.4" y1="197.8" x2="435.5" y2="174.3" opacity="1.0" stroke="rgb(0,0,0)"  stroke-width="3"/>
<line x1="435.5" y1="174.3" x2="422.7" y2="137.4" opacity="1.0" stroke="rgb(0,0,0)"  stroke-width="3"/>
<line x1="426.7" y1="171.0" x2="417.9" y2="145.4" opacity="1.0" stroke="rgb(0,0,0)"  stroke-width="3"/>
<line x1="269.0" y1="350.1" x2="302.9" y2="369.5" opacity="1.0" stroke="rgb(0,0,0)"  stroke-width="3"/>
<line x1="302.9" y1="369.5" x2="336.6" y2="349.8" opacity="1.0" stroke="rgb(0,0,0)"  stroke-width="3"/>
<line x1="304.5" y1="360.2" x2="327.8" y2="346.6" opacity="1.0" stroke="rgb(0,0,0)"  stroke-width="3"/>
<line x1="336.6" y1="349.8" x2="336.4" y2="310.7" opacity="1.0" stroke="rgb(0,0,0)"  stroke-width="3"/>
<line x1="336.4" y1="310.7" x2="302.5" y2="291.4" opacity="1.0" stroke="rgb(0,0,0)"  stroke-width="3"/>
<line x1="327.6" y1="314.0" x2="304.1" y2="300.7" opacity="1.0" stroke="rgb(0,0,0)"  stroke-width="3"/>
<line x1="302.5" y1="291.4" x2="268.8" y2="311.1" opacity="1.0" stroke="rgb(0,0,0)"  stroke-width="3"/>
<line x1="268.8" y1="311.1" x2="269.0" y2="350.1" opacity="1.0" stroke="rgb(0,0,0)"  stroke-width="3"/>
<line x1="276.0" y1="317.1" x2="276.2" y2="344.1" opacity="1.0" stroke="rgb(0,0,0)"  stroke-width="3"/>
<line x1="301.6" y1="265.4" x2="302.5" y2="291.4" opacity="1.0" stroke="rgb(0,0,0)"  stroke-width="3"/>
<line x1="268.8" y1="311.1" x2="245.9" y2="298.7" opacity="1.0" stroke="rgb(0,0,0)"  stroke-width="3"/>
<line x1="233.7" y1="253.5" x2="267.1" y2="233.4" opacity="1.0" stroke="rgb(0,0,0)"  stroke-width="3"/>
<line x1="242.5" y1="256.6" x2="265.7" y2="242.6" opacity="1.0" stroke="rgb(0,0,0)"  stroke-width="3"/>
<line x1="267.1" y1="233.4" x2="289.8" y2="246.1" opacity="1.0" stroke="rgb(0,0,0)"  stroke-width="3"/>
<line x1="365.7" y1="253.2" x2="333.7" y2="230.9" opacity="1.0" stroke="rgb(0,0,0)"  stroke-width="3"/>
<line x1="333.7" y1="230.9" x2="312.0" y2="245.3" opacity="1.0" stroke="rgb(0,0,0)"  stroke-width="3"/>
<line x1="336.4" y1="310.7" x2="359.2" y2="298.2" opacity="1.0" stroke="rgb(0,0,0)"  stroke-width="3"/>
<line x1="138.2" y1="333.9" x2="177.2" y2="333.1" opacity="1.0" stroke="rgb(0,0,0)"  stroke-width="3"/>
<line x1="144.0" y1="326.6" x2="171.1" y2="326.0" opacity="1.0" stroke="rgb(0,0,0)"  stroke-width="3"/>
<line x1="177.2" y1="333.1" x2="196.0" y2="299.0" opacity="1.0" stroke="rgb(0,0,0)"  stroke-width="3"/>
<line x1="175.9" y1="265.6" x2="136.9" y2="266.3" opacity="1.0" stroke="rgb(0,0,0)"  stroke-width="3"/>
<line x1="136.9" y1="266.3" x2="118.0" y2="300.5" opacity="1.0" stroke="rgb(0,0,0)"  stroke-width="3"/>
<line x1="140.3" y1="275.0" x2="127.2" y2="298.7" opacity="1.0" stroke="rgb(0,0,0)"  stroke-width="3"/>
<line x1="118.0" y1="300.5" x2="138.2" y2="333.9" opacity="1.0" stroke="rgb(0,0,0)"  stroke-width="3"/>
<line x1="486.9" y1="297.8" x2="466.7" y2="264.4" opacity="1.0" stroke="rgb(0,0,0)"  stroke-width="3"/>
<line x1="477.6" y1="296.4" x2="463.7" y2="273.3" opacity="1.0" stroke="rgb(0,0,0)"  stroke-width="3"/>
<line x1="466.7" y1="264.4" x2="427.7" y2="265.2" opacity="1.0" stroke="rgb(0,0,0)"  stroke-width="3"/>
<line x1="408.9" y1="299.3" x2="429.0" y2="332.7" opacity="1.0" stroke="rgb(0,0,0)"  stroke-width="3"/>
<line x1="429.0" y1="332.7" x2="468.0" y2="332.0" opacity="1.0" stroke="rgb(0,0,0)"  stroke-width="3"/>
<line x1="434.9" y1="325.4" x2="461.9" y2="324.9" opacity="1.0" stroke="rgb(0,0,0)"  stroke-width="3"/>
<line x1="468.0" y1="332.0" x2="486.9" y2="297.8" opacity="1.0" stroke="rgb(0,0,0)"  stroke-width="3"/>
<line x1="372.4" y1="175.5" x2="337.1" y2="192.1" opacity="1.0" stroke="rgb(0,0,0)"  stroke-width="3"/>
<line x1="337.1" y1="192.1" x2="333.7" y2="230.9" opacity="1.0" stroke="rgb(0,0,0)"  stroke-width="3"/>
<line x1="343.7" y1="198.6" x2="341.4" y2="225.6" opacity="1.0" stroke="rgb(0,0,0)"  stroke-width="3"/>
<line x1="401.1" y1="236.7" x2="404.4" y2="197.8" opacity="1.0" stroke="rgb(0,0,0)"  stroke-width="3"/>
<line x1="486.6" y1="115.3" x2="448.3" y2="107.9" opacity="1.0" stroke="rgb(0,0,0)"  stroke-width="3"/>
<line x1="479.3" y1="121.2" x2="452.8" y2="116.1" opacity="1.0" stroke="rgb(0,0,0)"  stroke-width="3"/>
<line x1="448.3" y1="107.9" x2="422.7" y2="137.4" opacity="1.0" stroke="rgb(0,0,0)"  stroke-width="3"/>
<line x1="435.5" y1="174.3" x2="473.8" y2="181.7" opacity="1.0" stroke="rgb(0,0,0)"  stroke-width="3"/>
<line x1="473.8" y1="181.7" x2="499.4" y2="152.2" opacity="1.0" stroke="rgb(0,0,0)"  stroke-width="3"/>
<line x1="472.3" y1="172.4" x2="490.0" y2="152.0" opacity="1.0" stroke="rgb(0,0,0)"  stroke-width="3"/>
<line x1="499.4" y1="152.2" x2="486.6" y2="115.3" opacity="1.0" stroke="rgb(0,0,0)"  stroke-width="3"/>
<line x1="199.6" y1="234.5" x2="198.9" y2="195.5" opacity="1.0" stroke="rgb(0,0,0)"  stroke-width="3"/>
<line x1="206.7" y1="228.4" x2="206.2" y2="201.4" opacity="1.0" stroke="rgb(0,0,0)"  stroke-width="3"/>
<line x1="198.9" y1="195.5" x2="232.3" y2="175.4" opacity="1.0" stroke="rgb(0,0,0)"  stroke-width="3"/>
<line x1="232.3" y1="175.4" x2="266.5" y2="194.4" opacity="1.0" stroke="rgb(0,0,0)"  stroke-width="3"/>
<line x1="234.1" y1="184.7" x2="257.7" y2="197.8" opacity="1.0" stroke="rgb(0,0,0)"  stroke-width="3"/>
<line x1="266.5" y1="194.4" x2="267.1" y2="233.4" opacity="1.0" stroke="rgb(0,0,0)"  stroke-width="3"/>
<line x1="375.4" y1="71.1" x2="351.8" y2="40.0" opacity="1.0" stroke="rgb(0,0,0)"  stroke-width="3"/>
<line x1="351.8" y1="40.0" x2="313.1" y2="44.8" opacity="1.0" stroke="rgb(0,0,0)"  stroke-width="3"/>
<line x1="346.8" y1="47.9" x2="320.0" y2="51.2" opacity="1.0" stroke="rgb(0,0,0)"  stroke-width="3"/>
<line x1="313.1" y1="44.8" x2="297.9" y2="80.8" opacity="1.0" stroke="rgb(0,0,0)"  stroke-width="3"/>
<line x1="297.9" y1="80.8" x2="321.5" y2="111.9" opacity="1.0" stroke="rgb(0,0,0)"  stroke-width="3"/>
<line x1="307.3" y1="81.2" x2="323.6" y2="102.8" opacity="1.0" stroke="rgb(0,0,0)"  stroke-width="3"/>
<line x1="321.5" y1="111.9" x2="360.2" y2="107.1" opacity="1.0" stroke="rgb(0,0,0)"  stroke-width="3"/>
<line x1="360.2" y1="107.1" x2="375.4" y2="71.1" opacity="1.0" stroke="rgb(0,0,0)"  stroke-width="3"/>
<line x1="355.9" y1="98.7" x2="366.4" y2="73.8" opacity="1.0" stroke="rgb(0,0,0)"  stroke-width="3"/>
<line x1="446.4" y1="513.5" x2="470.6" y2="482.9" opacity="1.0" stroke="rgb(0,0,0)"  stroke-width="3"/>
<line x1="470.6" y1="482.9" x2="456.2" y2="446.6" opacity="1.0" stroke="rgb(0,0,0)"  stroke-width="3"/>
<line x1="461.7" y1="479.9" x2="451.8" y2="454.8" opacity="1.0" stroke="rgb(0,0,0)"  stroke-width="3"/>
<line x1="456.2" y1="446.6" x2="417.6" y2="440.9" opacity="1.0" stroke="rgb(0,0,0)"  stroke-width="3"/>
<line x1="417.6" y1="440.9" x2="393.4" y2="471.5" opacity="1.0" stroke="rgb(0,0,0)"  stroke-width="3"/>
<line x1="419.6" y1="450.1" x2="402.8" y2="471.3" opacity="1.0" stroke="rgb(0,0,0)"  stroke-width="3"/>
<line x1="393.4" y1="471.5" x2="407.8" y2="507.8" opacity="1.0" stroke="rgb(0,0,0)"  stroke-width="3"/>
<line x1="407.8" y1="507.8" x2="446.4" y2="513.5" opacity="1.0" stroke="rgb(0,0,0)"  stroke-width="3"/>
<line x1="414.8" y1="501.5" x2="441.5" y2="505.5" opacity="1.0" stroke="rgb(0,0,0)"  stroke-width="3"/>
<line x1="340.4" y1="429.6" x2="354.8" y2="465.9" opacity="1.0" stroke="rgb(0,0,0)"  stroke-width="3"/>
<line x1="349.3" y1="432.5" x2="359.3" y2="457.6" opacity="1.0" stroke="rgb(0,0,0)"  stroke-width="3"/>
<line x1="354.8" y1="465.9" x2="393.4" y2="471.5" opacity="1.0" stroke="rgb(0,0,0)"  stroke-width="3"/>
<line x1="417.6" y1="440.9" x2="403.2" y2="404.7" opacity="1.0" stroke="rgb(0,0,0)"  stroke-width="3"/>
<line x1="403.2" y1="404.7" x2="364.6" y2="399.0" opacity="1.0" stroke="rgb(0,0,0)"  stroke-width="3"/>
<line x1="396.3" y1="410.9" x2="369.5" y2="407.0" opacity="1.0" stroke="rgb(0,0,0)"  stroke-width="3"/>
<line x1="364.6" y1="399.0" x2="340.4" y2="429.6" opacity="1.0" stroke="rgb(0,0,0)"  stroke-width="3"/>
<line x1="523.6" y1="524.8" x2="509.2" y2="488.5" opacity="1.0" stroke="rgb(0,0,0)"  stroke-width="3"/>
<line x1="514.7" y1="521.9" x2="504.8" y2="496.7" opacity="1.0" stroke="rgb(0,0,0)"  stroke-width="3"/>
<line x1="509.2" y1="488.5" x2="470.6" y2="482.9" opacity="1.0" stroke="rgb(0,0,0)"  stroke-width="3"/>
<line x1="446.4" y1="513.5" x2="460.8" y2="549.7" opacity="1.0" stroke="rgb(0,0,0)"  stroke-width="3"/>
<line x1="460.8" y1="549.7" x2="499.4" y2="555.4" opacity="1.0" stroke="rgb(0,0,0)"  stroke-width="3"/>
<line x1="467.8" y1="543.5" x2="494.5" y2="547.4" opacity="1.0" stroke="rgb(0,0,0)"  stroke-width="3"/>
<line x1="499.4" y1="555.4" x2="523.6" y2="524.8" opacity="1.0" stroke="rgb(0,0,0)"  stroke-width="3"/>
<line x1="519.0" y1="421.7" x2="543.3" y2="391.1" opacity="1.0" stroke="rgb(0,0,0)"  stroke-width="3"/>
<line x1="543.3" y1="391.1" x2="528.9" y2="354.8" opacity="1.0" stroke="rgb(0,0,0)"  stroke-width="3"/>
<line x1="534.3" y1="388.1" x2="524.4" y2="363.0" opacity="1.0" stroke="rgb(0,0,0)"  stroke-width="3"/>
<line x1="528.9" y1="354.8" x2="490.3" y2="349.1" opacity="1.0" stroke="rgb(0,0,0)"  stroke-width="3"/>
<line x1="490.3" y1="349.1" x2="466.0" y2="379.7" opacity="1.0" stroke="rgb(0,0,0)"  stroke-width="3"/>
<line x1="492.2" y1="358.3" x2="475.4" y2="379.5" opacity="1.0" stroke="rgb(0,0,0)"  stroke-width="3"/>
<line x1="466.0" y1="379.7" x2="480.4" y2="416.0" opacity="1.0" stroke="rgb(0,0,0)"  stroke-width="3"/>
<line x1="480.4" y1="416.0" x2="519.0" y2="421.7" opacity="1.0" stroke="rgb(0,0,0)"  stroke-width="3"/>
<line x1="487.4" y1="409.7" x2="514.2" y2="413.7" opacity="1.0" stroke="rgb(0,0,0)"  stroke-width="3"/>
<line x1="285.2" y1="507.4" x2="266.6" y2="541.8" opacity="1.0" stroke="rgb(0,0,0)"  stroke-width="3"/>
<line x1="266.6" y1="541.8" x2="287.1" y2="575.0" opacity="1.0" stroke="rgb(0,0,0)"  stroke-width="3"/>
<line x1="275.9" y1="543.1" x2="290.1" y2="566.1" opacity="1.0" stroke="rgb(0,0,0)"  stroke-width="3"/>
<line x1="287.1" y1="575.0" x2="326.1" y2="573.9" opacity="1.0" stroke="rgb(0,0,0)"  stroke-width="3"/>
<line x1="326.1" y1="573.9" x2="344.6" y2="539.5" opacity="1.0" stroke="rgb(0,0,0)"  stroke-width="3"/>
<line x1="322.6" y1="565.2" x2="335.4" y2="541.4" opacity="1.0" stroke="rgb(0,0,0)"  stroke-width="3"/>
<line x1="344.6" y1="539.5" x2="324.2" y2="506.3" opacity="1.0" stroke="rgb(0,0,0)"  stroke-width="3"/>
<line x1="324.2" y1="506.3" x2="285.2" y2="507.4" opacity="1.0" stroke="rgb(0,0,0)"  stroke-width="3"/>
<line x1="318.4" y1="513.7" x2="291.4" y2="514.5" opacity="1.0" stroke="rgb(0,0,0)"  stroke-width="3"/>
<line x1="404.1" y1="571.6" x2="383.6" y2="538.4" opacity="1.0" stroke="rgb(0,0,0)"  stroke-width="3"/>
<line x1="394.8" y1="570.3" x2="380.6" y2="547.3" opacity="1.0" stroke="rgb(0,0,0)"  stroke-width="3"/>
<line x1="383.6" y1="538.4" x2="344.6" y2="539.5" opacity="1.0" stroke="rgb(0,0,0)"  stroke-width="3"/>
<line x1="326.1" y1="573.9" x2="346.6" y2="607.1" opacity="1.0" stroke="rgb(0,0,0)"  stroke-width="3"/>
<line x1="346.6" y1="607.1" x2="385.6" y2="605.9" opacity="1.0" stroke="rgb(0,0,0)"  stroke-width="3"/>
<line x1="352.4" y1="599.7" x2="379.4" y2="598.9" opacity="1.0" stroke="rgb(0,0,0)"  stroke-width="3"/>
<line x1="385.6" y1="605.9" x2="404.1" y2="571.6" opacity="1.0" stroke="rgb(0,0,0)"  stroke-width="3"/>
<text x="377.732515" y="146.173020" fill="rgb(12,12,255)" stroke-width="0" font-weight="bold" font-size="25.92" >N</text>
<text x="364.561399" y="299.965267" fill="rgb(12,12,255)" stroke-width="0" font-weight="bold" font-size="25.92" >N</text>
<text x="228.517759" y="300.474515" fill="rgb(12,12,255)" stroke-width="0" font-weight="bold" font-size="25.92" >N</text>
<text x="295.180042" y="260.431939" fill="rgb(255,181,181)" stroke-width="0" font-weight="bold" font-size="25.92" >B</text>
</svg>
</g>
</svg>
