<?xml version="1.0"?>
<svg version="1.1" id="topsvg"
xmlns="http://www.w3.org/2000/svg" xmlns:xlink="http://www.w3.org/1999/xlink"
xmlns:cml="http://www.xml-cml.org/schema" x="0" y="0" width="200px" height="200px" viewBox="0 0 100 100">
<title>GD125.sdf - Open Babel Depiction</title>
<rect x="0" y="0" width="100" height="100" fill="white"/>
<g transform="translate(0,0)">
<svg width="100" height="100" x="0" y="0" viewBox="0 0 574.036 587.862"
font-family="sans-serif" stroke="rgb(0,0,0)" stroke-width="3"  stroke-linecap="round">
<line x1="224.2" y1="172.6" x2="224.2" y2="134.1" opacity="1.0" stroke="rgb(0,0,0)"  stroke-width="3"/>
<line x1="224.2" y1="134.1" x2="257.5" y2="114.9" opacity="1.0" stroke="rgb(0,0,0)"  stroke-width="3"/>
<line x1="224.2" y1="134.1" x2="190.9" y2="114.9" opacity="1.0" stroke="rgb(0,0,0)"  stroke-width="3"/>
<line x1="224.2" y1="134.1" x2="224.2" y2="95.6" opacity="1.0" stroke="rgb(0,0,0)"  stroke-width="3"/>
<line x1="113.9" y1="322.1" x2="77.2" y2="333.6" opacity="1.0" stroke="rgb(0,0,0)"  stroke-width="3"/>
<line x1="77.2" y1="333.6" x2="40.0" y2="343.5" opacity="1.0" stroke="rgb(0,0,0)"  stroke-width="3"/>
<line x1="77.2" y1="333.6" x2="67.2" y2="370.8" opacity="1.0" stroke="rgb(0,0,0)"  stroke-width="3"/>
<line x1="77.2" y1="333.6" x2="50.0" y2="306.3" opacity="1.0" stroke="rgb(0,0,0)"  stroke-width="3"/>
<line x1="392.1" y1="128.7" x2="379.4" y2="106.7" opacity="1.0" stroke="rgb(0,0,0)"  stroke-width="3"/>
<line x1="290.6" y1="364.5" x2="290.6" y2="470.9" opacity="1.0" stroke="rgb(0,0,0)"  stroke-width="3"/>
<line x1="324.0" y1="490.1" x2="367.3" y2="465.1" opacity="1.0" stroke="rgb(0,0,0)"  stroke-width="3"/>
<line x1="434.0" y1="426.6" x2="467.4" y2="407.3" opacity="1.0" stroke="rgb(0,0,0)"  stroke-width="3"/>
<line x1="159.1" y1="273.1" x2="191.0" y2="230.2" opacity="1.0" stroke="rgb(0,0,0)"  stroke-width="3"/>
<line x1="191.0" y1="230.2" x2="224.2" y2="249.4" opacity="1.0" stroke="rgb(0,0,0)"  stroke-width="3"/>
<line x1="192.6" y1="239.4" x2="215.4" y2="252.6" opacity="1.0" stroke="rgb(0,0,0)"  stroke-width="3"/>
<line x1="224.2" y1="249.4" x2="224.2" y2="274.7" opacity="1.0" stroke="rgb(0,0,0)"  stroke-width="3"/>
<line x1="211.8" y1="291.6" x2="187.4" y2="299.2" opacity="1.0" stroke="rgb(0,0,0)"  stroke-width="3"/>
<line x1="187.4" y1="299.2" x2="159.1" y2="273.1" opacity="1.0" stroke="rgb(0,0,0)"  stroke-width="3"/>
<line x1="187.9" y1="289.8" x2="168.4" y2="271.9" opacity="1.0" stroke="rgb(0,0,0)"  stroke-width="3"/>
<line x1="422.3" y1="302.3" x2="385.5" y2="313.8" opacity="1.0" stroke="rgb(0,0,0)"  stroke-width="3"/>
<line x1="385.5" y1="313.8" x2="366.8" y2="296.5" opacity="1.0" stroke="rgb(0,0,0)"  stroke-width="3"/>
<line x1="360.1" y1="275.0" x2="365.7" y2="250.1" opacity="1.0" stroke="rgb(0,0,0)"  stroke-width="3"/>
<line x1="365.7" y1="250.1" x2="402.4" y2="238.6" opacity="1.0" stroke="rgb(0,0,0)"  stroke-width="3"/>
<line x1="373.5" y1="255.2" x2="398.8" y2="247.3" opacity="1.0" stroke="rgb(0,0,0)"  stroke-width="3"/>
<line x1="402.4" y1="238.6" x2="422.3" y2="302.3" opacity="1.0" stroke="rgb(0,0,0)"  stroke-width="3"/>
<line x1="436.9" y1="144.5" x2="411.6" y2="141.5" opacity="1.0" stroke="rgb(0,0,0)"  stroke-width="3"/>
<line x1="393.2" y1="151.8" x2="382.6" y2="175.0" opacity="1.0" stroke="rgb(0,0,0)"  stroke-width="3"/>
<line x1="382.6" y1="175.0" x2="410.9" y2="201.1" opacity="1.0" stroke="rgb(0,0,0)"  stroke-width="3"/>
<line x1="391.9" y1="173.8" x2="411.3" y2="191.7" opacity="1.0" stroke="rgb(0,0,0)"  stroke-width="3"/>
<line x1="410.9" y1="201.1" x2="444.4" y2="182.2" opacity="1.0" stroke="rgb(0,0,0)"  stroke-width="3"/>
<line x1="444.4" y1="182.2" x2="436.9" y2="144.5" opacity="1.0" stroke="rgb(0,0,0)"  stroke-width="3"/>
<line x1="436.2" y1="177.8" x2="431.0" y2="151.8" opacity="1.0" stroke="rgb(0,0,0)"  stroke-width="3"/>
<line x1="257.4" y1="345.3" x2="290.6" y2="364.5" opacity="1.0" stroke="rgb(0,0,0)"  stroke-width="3"/>
<line x1="290.6" y1="364.5" x2="323.9" y2="345.3" opacity="1.0" stroke="rgb(0,0,0)"  stroke-width="3"/>
<line x1="292.2" y1="355.2" x2="315.1" y2="342.0" opacity="1.0" stroke="rgb(0,0,0)"  stroke-width="3"/>
<line x1="323.9" y1="345.3" x2="323.9" y2="306.9" opacity="1.0" stroke="rgb(0,0,0)"  stroke-width="3"/>
<line x1="323.9" y1="306.9" x2="290.6" y2="287.7" opacity="1.0" stroke="rgb(0,0,0)"  stroke-width="3"/>
<line x1="315.1" y1="310.1" x2="292.2" y2="297.0" opacity="1.0" stroke="rgb(0,0,0)"  stroke-width="3"/>
<line x1="290.6" y1="287.7" x2="257.4" y2="306.9" opacity="1.0" stroke="rgb(0,0,0)"  stroke-width="3"/>
<line x1="257.4" y1="306.9" x2="257.4" y2="345.3" opacity="1.0" stroke="rgb(0,0,0)"  stroke-width="3"/>
<line x1="264.6" y1="312.9" x2="264.6" y2="339.3" opacity="1.0" stroke="rgb(0,0,0)"  stroke-width="3"/>
<line x1="290.6" y1="262.4" x2="290.6" y2="287.7" opacity="1.0" stroke="rgb(0,0,0)"  stroke-width="3"/>
<line x1="257.4" y1="306.9" x2="235.5" y2="294.2" opacity="1.0" stroke="rgb(0,0,0)"  stroke-width="3"/>
<line x1="224.2" y1="249.4" x2="257.4" y2="230.2" opacity="1.0" stroke="rgb(0,0,0)"  stroke-width="3"/>
<line x1="257.4" y1="230.2" x2="279.4" y2="242.9" opacity="1.0" stroke="rgb(0,0,0)"  stroke-width="3"/>
<line x1="142.2" y1="348.2" x2="113.9" y2="322.1" opacity="1.0" stroke="rgb(0,0,0)"  stroke-width="3"/>
<line x1="113.9" y1="322.1" x2="122.4" y2="284.5" opacity="1.0" stroke="rgb(0,0,0)"  stroke-width="3"/>
<line x1="122.3" y1="317.8" x2="128.1" y2="292.0" opacity="1.0" stroke="rgb(0,0,0)"  stroke-width="3"/>
<line x1="122.4" y1="284.5" x2="159.1" y2="273.1" opacity="1.0" stroke="rgb(0,0,0)"  stroke-width="3"/>
<line x1="187.4" y1="299.2" x2="179.0" y2="336.7" opacity="1.0" stroke="rgb(0,0,0)"  stroke-width="3"/>
<line x1="179.0" y1="336.7" x2="142.2" y2="348.2" opacity="1.0" stroke="rgb(0,0,0)"  stroke-width="3"/>
<line x1="171.1" y1="331.7" x2="145.8" y2="339.5" opacity="1.0" stroke="rgb(0,0,0)"  stroke-width="3"/>
<line x1="346.0" y1="294.2" x2="323.9" y2="306.9" opacity="1.0" stroke="rgb(0,0,0)"  stroke-width="3"/>
<line x1="302.1" y1="243.2" x2="337.4" y2="224.0" opacity="1.0" stroke="rgb(0,0,0)"  stroke-width="3"/>
<line x1="337.4" y1="224.0" x2="365.7" y2="250.1" opacity="1.0" stroke="rgb(0,0,0)"  stroke-width="3"/>
<line x1="442.1" y1="366.0" x2="405.4" y2="377.4" opacity="1.0" stroke="rgb(0,0,0)"  stroke-width="3"/>
<line x1="434.2" y1="360.9" x2="409.0" y2="368.8" opacity="1.0" stroke="rgb(0,0,0)"  stroke-width="3"/>
<line x1="405.4" y1="377.4" x2="377.1" y2="351.3" opacity="1.0" stroke="rgb(0,0,0)"  stroke-width="3"/>
<line x1="377.1" y1="351.3" x2="385.5" y2="313.8" opacity="1.0" stroke="rgb(0,0,0)"  stroke-width="3"/>
<line x1="385.4" y1="347.0" x2="391.2" y2="321.2" opacity="1.0" stroke="rgb(0,0,0)"  stroke-width="3"/>
<line x1="422.3" y1="302.3" x2="450.6" y2="328.4" opacity="1.0" stroke="rgb(0,0,0)"  stroke-width="3"/>
<line x1="421.8" y1="311.7" x2="441.3" y2="329.6" opacity="1.0" stroke="rgb(0,0,0)"  stroke-width="3"/>
<line x1="450.6" y1="328.4" x2="442.1" y2="366.0" opacity="1.0" stroke="rgb(0,0,0)"  stroke-width="3"/>
<line x1="191.0" y1="230.2" x2="191.0" y2="191.8" opacity="1.0" stroke="rgb(0,0,0)"  stroke-width="3"/>
<line x1="191.0" y1="191.8" x2="224.2" y2="172.6" opacity="1.0" stroke="rgb(0,0,0)"  stroke-width="3"/>
<line x1="199.8" y1="195.0" x2="222.6" y2="181.9" opacity="1.0" stroke="rgb(0,0,0)"  stroke-width="3"/>
<line x1="224.2" y1="172.6" x2="257.4" y2="191.8" opacity="1.0" stroke="rgb(0,0,0)"  stroke-width="3"/>
<line x1="257.4" y1="191.8" x2="257.4" y2="230.2" opacity="1.0" stroke="rgb(0,0,0)"  stroke-width="3"/>
<line x1="250.2" y1="197.8" x2="250.2" y2="224.2" opacity="1.0" stroke="rgb(0,0,0)"  stroke-width="3"/>
<line x1="382.6" y1="175.0" x2="345.8" y2="186.4" opacity="1.0" stroke="rgb(0,0,0)"  stroke-width="3"/>
<line x1="345.8" y1="186.4" x2="337.4" y2="224.0" opacity="1.0" stroke="rgb(0,0,0)"  stroke-width="3"/>
<line x1="351.5" y1="193.9" x2="345.7" y2="219.7" opacity="1.0" stroke="rgb(0,0,0)"  stroke-width="3"/>
<line x1="402.4" y1="238.6" x2="410.9" y2="201.1" opacity="1.0" stroke="rgb(0,0,0)"  stroke-width="3"/>
<line x1="502.3" y1="131.4" x2="465.8" y2="119.1" opacity="1.0" stroke="rgb(0,0,0)"  stroke-width="3"/>
<line x1="494.3" y1="136.3" x2="469.2" y2="127.8" opacity="1.0" stroke="rgb(0,0,0)"  stroke-width="3"/>
<line x1="465.8" y1="119.1" x2="436.9" y2="144.5" opacity="1.0" stroke="rgb(0,0,0)"  stroke-width="3"/>
<line x1="444.4" y1="182.2" x2="480.9" y2="194.6" opacity="1.0" stroke="rgb(0,0,0)"  stroke-width="3"/>
<line x1="480.9" y1="194.6" x2="509.8" y2="169.1" opacity="1.0" stroke="rgb(0,0,0)"  stroke-width="3"/>
<line x1="480.7" y1="185.2" x2="500.6" y2="167.7" opacity="1.0" stroke="rgb(0,0,0)"  stroke-width="3"/>
<line x1="509.8" y1="169.1" x2="502.3" y2="131.4" opacity="1.0" stroke="rgb(0,0,0)"  stroke-width="3"/>
<line x1="399.0" y1="73.5" x2="378.6" y2="40.0" opacity="1.0" stroke="rgb(0,0,0)"  stroke-width="3"/>
<line x1="378.6" y1="40.0" x2="340.1" y2="40.5" opacity="1.0" stroke="rgb(0,0,0)"  stroke-width="3"/>
<line x1="372.7" y1="47.3" x2="346.2" y2="47.6" opacity="1.0" stroke="rgb(0,0,0)"  stroke-width="3"/>
<line x1="340.1" y1="40.5" x2="320.5" y2="74.5" opacity="1.0" stroke="rgb(0,0,0)"  stroke-width="3"/>
<line x1="320.5" y1="74.5" x2="340.9" y2="107.1" opacity="1.0" stroke="rgb(0,0,0)"  stroke-width="3"/>
<line x1="329.8" y1="75.7" x2="343.8" y2="98.2" opacity="1.0" stroke="rgb(0,0,0)"  stroke-width="3"/>
<line x1="340.9" y1="107.1" x2="379.4" y2="106.7" opacity="1.0" stroke="rgb(0,0,0)"  stroke-width="3"/>
<line x1="379.4" y1="106.7" x2="399.0" y2="73.5" opacity="1.0" stroke="rgb(0,0,0)"  stroke-width="3"/>
<line x1="376.3" y1="97.8" x2="389.8" y2="75.0" opacity="1.0" stroke="rgb(0,0,0)"  stroke-width="3"/>
<line x1="324.0" y1="490.1" x2="324.0" y2="528.6" opacity="1.0" stroke="rgb(0,0,0)"  stroke-width="3"/>
<line x1="324.0" y1="528.6" x2="290.6" y2="547.9" opacity="1.0" stroke="rgb(0,0,0)"  stroke-width="3"/>
<line x1="315.2" y1="525.4" x2="292.2" y2="538.6" opacity="1.0" stroke="rgb(0,0,0)"  stroke-width="3"/>
<line x1="290.6" y1="547.9" x2="257.3" y2="528.6" opacity="1.0" stroke="rgb(0,0,0)"  stroke-width="3"/>
<line x1="257.3" y1="528.6" x2="257.3" y2="490.1" opacity="1.0" stroke="rgb(0,0,0)"  stroke-width="3"/>
<line x1="264.5" y1="522.6" x2="264.5" y2="496.1" opacity="1.0" stroke="rgb(0,0,0)"  stroke-width="3"/>
<line x1="257.3" y1="490.1" x2="290.6" y2="470.9" opacity="1.0" stroke="rgb(0,0,0)"  stroke-width="3"/>
<line x1="290.6" y1="470.9" x2="324.0" y2="490.1" opacity="1.0" stroke="rgb(0,0,0)"  stroke-width="3"/>
<line x1="292.2" y1="480.1" x2="315.2" y2="493.3" opacity="1.0" stroke="rgb(0,0,0)"  stroke-width="3"/>
<line x1="367.3" y1="426.6" x2="400.7" y2="407.3" opacity="1.0" stroke="rgb(0,0,0)"  stroke-width="3"/>
<line x1="400.7" y1="407.3" x2="434.0" y2="426.6" opacity="1.0" stroke="rgb(0,0,0)"  stroke-width="3"/>
<line x1="402.3" y1="416.6" x2="425.2" y2="429.8" opacity="1.0" stroke="rgb(0,0,0)"  stroke-width="3"/>
<line x1="434.0" y1="426.6" x2="434.0" y2="465.1" opacity="1.0" stroke="rgb(0,0,0)"  stroke-width="3"/>
<line x1="434.0" y1="465.1" x2="400.7" y2="484.3" opacity="1.0" stroke="rgb(0,0,0)"  stroke-width="3"/>
<line x1="425.2" y1="461.9" x2="402.3" y2="475.1" opacity="1.0" stroke="rgb(0,0,0)"  stroke-width="3"/>
<line x1="400.7" y1="484.3" x2="367.3" y2="465.1" opacity="1.0" stroke="rgb(0,0,0)"  stroke-width="3"/>
<line x1="367.3" y1="465.1" x2="367.3" y2="426.6" opacity="1.0" stroke="rgb(0,0,0)"  stroke-width="3"/>
<line x1="374.5" y1="459.1" x2="374.5" y2="432.6" opacity="1.0" stroke="rgb(0,0,0)"  stroke-width="3"/>
<line x1="434.0" y1="542.1" x2="400.7" y2="522.8" opacity="1.0" stroke="rgb(0,0,0)"  stroke-width="3"/>
<line x1="432.4" y1="532.9" x2="409.5" y2="519.6" opacity="1.0" stroke="rgb(0,0,0)"  stroke-width="3"/>
<line x1="400.7" y1="522.8" x2="400.7" y2="484.3" opacity="1.0" stroke="rgb(0,0,0)"  stroke-width="3"/>
<line x1="434.0" y1="465.1" x2="467.4" y2="484.3" opacity="1.0" stroke="rgb(0,0,0)"  stroke-width="3"/>
<line x1="467.4" y1="484.3" x2="467.4" y2="522.8" opacity="1.0" stroke="rgb(0,0,0)"  stroke-width="3"/>
<line x1="460.2" y1="490.3" x2="460.2" y2="516.8" opacity="1.0" stroke="rgb(0,0,0)"  stroke-width="3"/>
<line x1="467.4" y1="522.8" x2="434.0" y2="542.1" opacity="1.0" stroke="rgb(0,0,0)"  stroke-width="3"/>
<line x1="467.4" y1="368.8" x2="500.7" y2="349.6" opacity="1.0" stroke="rgb(0,0,0)"  stroke-width="3"/>
<line x1="500.7" y1="349.6" x2="534.0" y2="368.8" opacity="1.0" stroke="rgb(0,0,0)"  stroke-width="3"/>
<line x1="502.3" y1="358.8" x2="525.2" y2="372.1" opacity="1.0" stroke="rgb(0,0,0)"  stroke-width="3"/>
<line x1="534.0" y1="368.8" x2="534.0" y2="407.3" opacity="1.0" stroke="rgb(0,0,0)"  stroke-width="3"/>
<line x1="534.0" y1="407.3" x2="500.7" y2="426.6" opacity="1.0" stroke="rgb(0,0,0)"  stroke-width="3"/>
<line x1="525.2" y1="404.1" x2="502.3" y2="417.4" opacity="1.0" stroke="rgb(0,0,0)"  stroke-width="3"/>
<line x1="500.7" y1="426.6" x2="467.4" y2="407.3" opacity="1.0" stroke="rgb(0,0,0)"  stroke-width="3"/>
<line x1="467.4" y1="407.3" x2="467.4" y2="368.8" opacity="1.0" stroke="rgb(0,0,0)"  stroke-width="3"/>
<line x1="474.6" y1="401.3" x2="474.6" y2="374.8" opacity="1.0" stroke="rgb(0,0,0)"  stroke-width="3"/>
<text x="392.643056" y="147.998601" fill="rgb(12,12,255)" stroke-width="0" font-weight="bold" font-size="25.92" >N</text>
<text x="218.198794" y="295.725466" fill="rgb(12,12,255)" stroke-width="0" font-weight="bold" font-size="25.92" >N</text>
<text x="284.648622" y="257.360584" fill="rgb(255,181,181)" stroke-width="0" font-weight="bold" font-size="25.92" >B</text>
<text x="351.214302" y="295.658643" fill="rgb(12,12,255)" stroke-width="0" font-weight="bold" font-size="25.92" >N</text>
</svg>
</g>
</svg>
