<?xml version="1.0"?>
<svg version="1.1" id="topsvg"
xmlns="http://www.w3.org/2000/svg" xmlns:xlink="http://www.w3.org/1999/xlink"
xmlns:cml="http://www.xml-cml.org/schema" x="0" y="0" width="200px" height="200px" viewBox="0 0 100 100">
<title>GD136.sdf - Open Babel Depiction</title>
<rect x="0" y="0" width="100" height="100" fill="white"/>
<g transform="translate(0,0)">
<svg width="100" height="100" x="0" y="0" viewBox="0 0 591.327 654.391"
font-family="sans-serif" stroke="rgb(0,0,0)" stroke-width="3"  stroke-linecap="round">
<line x1="239.6" y1="174.4" x2="239.6" y2="134.4" opacity="1.0" stroke="rgb(0,0,0)"  stroke-width="3"/>
<line x1="120.0" y1="300.3" x2="80.0" y2="300.3" opacity="1.0" stroke="rgb(0,0,0)"  stroke-width="3"/>
<line x1="308.8" y1="374.4" x2="308.8" y2="414.4" opacity="1.0" stroke="rgb(0,0,0)"  stroke-width="3"/>
<line x1="239.6" y1="134.4" x2="239.6" y2="94.4" opacity="1.0" stroke="rgb(0,0,0)"  stroke-width="3"/>
<line x1="274.2" y1="114.4" x2="239.6" y2="134.4" opacity="1.0" stroke="rgb(0,0,0)"  stroke-width="3"/>
<line x1="80.0" y1="300.3" x2="40.0" y2="300.3" opacity="1.0" stroke="rgb(0,0,0)"  stroke-width="3"/>
<line x1="60.0" y1="335.0" x2="80.0" y2="300.3" opacity="1.0" stroke="rgb(0,0,0)"  stroke-width="3"/>
<line x1="390.1" y1="130.4" x2="373.9" y2="108.8" opacity="1.0" stroke="rgb(0,0,0)"  stroke-width="3"/>
<line x1="239.6" y1="134.4" x2="204.9" y2="114.4" opacity="1.0" stroke="rgb(0,0,0)"  stroke-width="3"/>
<line x1="80.0" y1="300.3" x2="60.0" y2="265.7" opacity="1.0" stroke="rgb(0,0,0)"  stroke-width="3"/>
<line x1="447.4" y1="534.4" x2="482.0" y2="554.4" opacity="1.0" stroke="rgb(0,0,0)"  stroke-width="3"/>
<line x1="378.1" y1="494.4" x2="343.5" y2="474.4" opacity="1.0" stroke="rgb(0,0,0)"  stroke-width="3"/>
<line x1="416.2" y1="306.8" x2="439.7" y2="274.4" opacity="1.0" stroke="rgb(0,0,0)"  stroke-width="3"/>
<line x1="439.7" y1="274.4" x2="416.2" y2="242.0" opacity="1.0" stroke="rgb(0,0,0)"  stroke-width="3"/>
<line x1="416.2" y1="242.0" x2="378.1" y2="254.4" opacity="1.0" stroke="rgb(0,0,0)"  stroke-width="3"/>
<line x1="412.7" y1="250.7" x2="386.1" y2="259.4" opacity="1.0" stroke="rgb(0,0,0)"  stroke-width="3"/>
<line x1="378.1" y1="254.4" x2="378.1" y2="281.4" opacity="1.0" stroke="rgb(0,0,0)"  stroke-width="3"/>
<line x1="390.5" y1="298.4" x2="416.2" y2="306.8" opacity="1.0" stroke="rgb(0,0,0)"  stroke-width="3"/>
<line x1="180.0" y1="265.7" x2="200.0" y2="300.3" opacity="1.0" stroke="rgb(0,0,0)"  stroke-width="3"/>
<line x1="189.2" y1="267.3" x2="203.2" y2="291.5" opacity="1.0" stroke="rgb(0,0,0)"  stroke-width="3"/>
<line x1="200.0" y1="300.3" x2="226.7" y2="296.3" opacity="1.0" stroke="rgb(0,0,0)"  stroke-width="3"/>
<line x1="239.6" y1="281.4" x2="239.6" y2="254.4" opacity="1.0" stroke="rgb(0,0,0)"  stroke-width="3"/>
<line x1="239.6" y1="254.4" x2="204.9" y2="234.4" opacity="1.0" stroke="rgb(0,0,0)"  stroke-width="3"/>
<line x1="230.8" y1="257.6" x2="206.5" y2="243.6" opacity="1.0" stroke="rgb(0,0,0)"  stroke-width="3"/>
<line x1="204.9" y1="234.4" x2="180.0" y2="265.7" opacity="1.0" stroke="rgb(0,0,0)"  stroke-width="3"/>
<line x1="437.9" y1="140.3" x2="410.9" y2="140.7" opacity="1.0" stroke="rgb(0,0,0)"  stroke-width="3"/>
<line x1="394.0" y1="153.3" x2="386.0" y2="179.0" opacity="1.0" stroke="rgb(0,0,0)"  stroke-width="3"/>
<line x1="386.0" y1="179.0" x2="418.7" y2="202.1" opacity="1.0" stroke="rgb(0,0,0)"  stroke-width="3"/>
<line x1="395.1" y1="176.6" x2="418.0" y2="192.8" opacity="1.0" stroke="rgb(0,0,0)"  stroke-width="3"/>
<line x1="418.7" y1="202.1" x2="450.8" y2="178.2" opacity="1.0" stroke="rgb(0,0,0)"  stroke-width="3"/>
<line x1="450.8" y1="178.2" x2="437.9" y2="140.3" opacity="1.0" stroke="rgb(0,0,0)"  stroke-width="3"/>
<line x1="442.0" y1="174.8" x2="433.0" y2="148.3" opacity="1.0" stroke="rgb(0,0,0)"  stroke-width="3"/>
<line x1="308.8" y1="374.4" x2="343.5" y2="354.4" opacity="1.0" stroke="rgb(0,0,0)"  stroke-width="3"/>
<line x1="310.4" y1="365.2" x2="334.7" y2="351.2" opacity="1.0" stroke="rgb(0,0,0)"  stroke-width="3"/>
<line x1="343.5" y1="354.4" x2="343.5" y2="314.4" opacity="1.0" stroke="rgb(0,0,0)"  stroke-width="3"/>
<line x1="343.5" y1="314.4" x2="308.8" y2="294.4" opacity="1.0" stroke="rgb(0,0,0)"  stroke-width="3"/>
<line x1="334.7" y1="317.6" x2="310.4" y2="303.6" opacity="1.0" stroke="rgb(0,0,0)"  stroke-width="3"/>
<line x1="308.8" y1="294.4" x2="274.2" y2="314.4" opacity="1.0" stroke="rgb(0,0,0)"  stroke-width="3"/>
<line x1="274.2" y1="314.4" x2="274.2" y2="354.4" opacity="1.0" stroke="rgb(0,0,0)"  stroke-width="3"/>
<line x1="281.4" y1="320.4" x2="281.4" y2="348.4" opacity="1.0" stroke="rgb(0,0,0)"  stroke-width="3"/>
<line x1="274.2" y1="354.4" x2="308.8" y2="374.4" opacity="1.0" stroke="rgb(0,0,0)"  stroke-width="3"/>
<line x1="343.5" y1="314.4" x2="366.9" y2="300.9" opacity="1.0" stroke="rgb(0,0,0)"  stroke-width="3"/>
<line x1="378.1" y1="254.4" x2="343.5" y2="234.4" opacity="1.0" stroke="rgb(0,0,0)"  stroke-width="3"/>
<line x1="343.5" y1="234.4" x2="320.1" y2="247.9" opacity="1.0" stroke="rgb(0,0,0)"  stroke-width="3"/>
<line x1="308.8" y1="267.4" x2="308.8" y2="294.4" opacity="1.0" stroke="rgb(0,0,0)"  stroke-width="3"/>
<line x1="495.7" y1="315.1" x2="479.5" y2="278.6" opacity="1.0" stroke="rgb(0,0,0)"  stroke-width="3"/>
<line x1="479.5" y1="278.6" x2="439.7" y2="274.4" opacity="1.0" stroke="rgb(0,0,0)"  stroke-width="3"/>
<line x1="472.7" y1="285.1" x2="444.9" y2="282.2" opacity="1.0" stroke="rgb(0,0,0)"  stroke-width="3"/>
<line x1="416.2" y1="306.8" x2="432.4" y2="343.3" opacity="1.0" stroke="rgb(0,0,0)"  stroke-width="3"/>
<line x1="425.2" y1="309.3" x2="436.6" y2="334.9" opacity="1.0" stroke="rgb(0,0,0)"  stroke-width="3"/>
<line x1="432.4" y1="343.3" x2="472.2" y2="347.5" opacity="1.0" stroke="rgb(0,0,0)"  stroke-width="3"/>
<line x1="472.2" y1="347.5" x2="495.7" y2="315.1" opacity="1.0" stroke="rgb(0,0,0)"  stroke-width="3"/>
<line x1="469.9" y1="338.4" x2="486.4" y2="315.7" opacity="1.0" stroke="rgb(0,0,0)"  stroke-width="3"/>
<line x1="503.5" y1="118.0" x2="464.2" y2="110.2" opacity="1.0" stroke="rgb(0,0,0)"  stroke-width="3"/>
<line x1="496.2" y1="123.9" x2="468.7" y2="118.4" opacity="1.0" stroke="rgb(0,0,0)"  stroke-width="3"/>
<line x1="464.2" y1="110.2" x2="437.9" y2="140.3" opacity="1.0" stroke="rgb(0,0,0)"  stroke-width="3"/>
<line x1="450.8" y1="178.2" x2="490.0" y2="185.9" opacity="1.0" stroke="rgb(0,0,0)"  stroke-width="3"/>
<line x1="490.0" y1="185.9" x2="516.4" y2="155.9" opacity="1.0" stroke="rgb(0,0,0)"  stroke-width="3"/>
<line x1="488.5" y1="176.7" x2="507.0" y2="155.6" opacity="1.0" stroke="rgb(0,0,0)"  stroke-width="3"/>
<line x1="516.4" y1="155.9" x2="503.5" y2="118.0" opacity="1.0" stroke="rgb(0,0,0)"  stroke-width="3"/>
<line x1="297.6" y1="247.9" x2="274.2" y2="234.4" opacity="1.0" stroke="rgb(0,0,0)"  stroke-width="3"/>
<line x1="274.2" y1="234.4" x2="239.6" y2="254.4" opacity="1.0" stroke="rgb(0,0,0)"  stroke-width="3"/>
<line x1="250.8" y1="300.9" x2="274.2" y2="314.4" opacity="1.0" stroke="rgb(0,0,0)"  stroke-width="3"/>
<line x1="204.9" y1="194.4" x2="204.9" y2="234.4" opacity="1.0" stroke="rgb(0,0,0)"  stroke-width="3"/>
<line x1="274.2" y1="234.4" x2="274.2" y2="194.4" opacity="1.0" stroke="rgb(0,0,0)"  stroke-width="3"/>
<line x1="267.0" y1="228.4" x2="267.0" y2="200.4" opacity="1.0" stroke="rgb(0,0,0)"  stroke-width="3"/>
<line x1="274.2" y1="194.4" x2="239.6" y2="174.4" opacity="1.0" stroke="rgb(0,0,0)"  stroke-width="3"/>
<line x1="239.6" y1="174.4" x2="204.9" y2="194.4" opacity="1.0" stroke="rgb(0,0,0)"  stroke-width="3"/>
<line x1="238.0" y1="183.6" x2="213.7" y2="197.6" opacity="1.0" stroke="rgb(0,0,0)"  stroke-width="3"/>
<line x1="349.3" y1="194.8" x2="343.5" y2="234.4" opacity="1.0" stroke="rgb(0,0,0)"  stroke-width="3"/>
<line x1="355.5" y1="201.8" x2="351.5" y2="229.5" opacity="1.0" stroke="rgb(0,0,0)"  stroke-width="3"/>
<line x1="416.2" y1="242.0" x2="418.7" y2="202.1" opacity="1.0" stroke="rgb(0,0,0)"  stroke-width="3"/>
<line x1="386.0" y1="179.0" x2="349.3" y2="194.8" opacity="1.0" stroke="rgb(0,0,0)"  stroke-width="3"/>
<line x1="140.0" y1="335.0" x2="120.0" y2="300.3" opacity="1.0" stroke="rgb(0,0,0)"  stroke-width="3"/>
<line x1="120.0" y1="300.3" x2="140.0" y2="265.7" opacity="1.0" stroke="rgb(0,0,0)"  stroke-width="3"/>
<line x1="129.2" y1="298.7" x2="143.2" y2="274.5" opacity="1.0" stroke="rgb(0,0,0)"  stroke-width="3"/>
<line x1="140.0" y1="265.7" x2="180.0" y2="265.7" opacity="1.0" stroke="rgb(0,0,0)"  stroke-width="3"/>
<line x1="200.0" y1="300.3" x2="180.0" y2="335.0" opacity="1.0" stroke="rgb(0,0,0)"  stroke-width="3"/>
<line x1="180.0" y1="335.0" x2="140.0" y2="335.0" opacity="1.0" stroke="rgb(0,0,0)"  stroke-width="3"/>
<line x1="174.0" y1="327.8" x2="146.0" y2="327.8" opacity="1.0" stroke="rgb(0,0,0)"  stroke-width="3"/>
<line x1="389.7" y1="72.0" x2="365.8" y2="40.0" opacity="1.0" stroke="rgb(0,0,0)"  stroke-width="3"/>
<line x1="365.8" y1="40.0" x2="326.0" y2="44.7" opacity="1.0" stroke="rgb(0,0,0)"  stroke-width="3"/>
<line x1="360.6" y1="47.9" x2="332.8" y2="51.2" opacity="1.0" stroke="rgb(0,0,0)"  stroke-width="3"/>
<line x1="326.0" y1="44.7" x2="310.3" y2="81.5" opacity="1.0" stroke="rgb(0,0,0)"  stroke-width="3"/>
<line x1="310.3" y1="81.5" x2="334.2" y2="113.5" opacity="1.0" stroke="rgb(0,0,0)"  stroke-width="3"/>
<line x1="319.6" y1="82.0" x2="336.4" y2="104.4" opacity="1.0" stroke="rgb(0,0,0)"  stroke-width="3"/>
<line x1="334.2" y1="113.5" x2="373.9" y2="108.8" opacity="1.0" stroke="rgb(0,0,0)"  stroke-width="3"/>
<line x1="373.9" y1="108.8" x2="389.7" y2="72.0" opacity="1.0" stroke="rgb(0,0,0)"  stroke-width="3"/>
<line x1="369.7" y1="100.4" x2="380.7" y2="74.7" opacity="1.0" stroke="rgb(0,0,0)"  stroke-width="3"/>
<line x1="343.5" y1="434.4" x2="343.5" y2="474.4" opacity="1.0" stroke="rgb(0,0,0)"  stroke-width="3"/>
<line x1="343.5" y1="474.4" x2="308.8" y2="494.4" opacity="1.0" stroke="rgb(0,0,0)"  stroke-width="3"/>
<line x1="334.7" y1="471.2" x2="310.4" y2="485.2" opacity="1.0" stroke="rgb(0,0,0)"  stroke-width="3"/>
<line x1="308.8" y1="494.4" x2="274.2" y2="474.4" opacity="1.0" stroke="rgb(0,0,0)"  stroke-width="3"/>
<line x1="274.2" y1="474.4" x2="274.2" y2="434.4" opacity="1.0" stroke="rgb(0,0,0)"  stroke-width="3"/>
<line x1="281.4" y1="468.4" x2="281.4" y2="440.4" opacity="1.0" stroke="rgb(0,0,0)"  stroke-width="3"/>
<line x1="274.2" y1="434.4" x2="308.8" y2="414.4" opacity="1.0" stroke="rgb(0,0,0)"  stroke-width="3"/>
<line x1="308.8" y1="414.4" x2="343.5" y2="434.4" opacity="1.0" stroke="rgb(0,0,0)"  stroke-width="3"/>
<line x1="310.4" y1="423.6" x2="334.7" y2="437.6" opacity="1.0" stroke="rgb(0,0,0)"  stroke-width="3"/>
<line x1="447.4" y1="494.4" x2="412.8" y2="474.4" opacity="1.0" stroke="rgb(0,0,0)"  stroke-width="3"/>
<line x1="438.6" y1="497.6" x2="414.4" y2="483.6" opacity="1.0" stroke="rgb(0,0,0)"  stroke-width="3"/>
<line x1="412.8" y1="474.4" x2="378.1" y2="494.4" opacity="1.0" stroke="rgb(0,0,0)"  stroke-width="3"/>
<line x1="378.1" y1="494.4" x2="378.1" y2="534.4" opacity="1.0" stroke="rgb(0,0,0)"  stroke-width="3"/>
<line x1="385.3" y1="500.4" x2="385.3" y2="528.4" opacity="1.0" stroke="rgb(0,0,0)"  stroke-width="3"/>
<line x1="378.1" y1="534.4" x2="412.8" y2="554.4" opacity="1.0" stroke="rgb(0,0,0)"  stroke-width="3"/>
<line x1="412.8" y1="554.4" x2="447.4" y2="534.4" opacity="1.0" stroke="rgb(0,0,0)"  stroke-width="3"/>
<line x1="414.4" y1="545.2" x2="438.6" y2="531.2" opacity="1.0" stroke="rgb(0,0,0)"  stroke-width="3"/>
<line x1="447.4" y1="534.4" x2="447.4" y2="494.4" opacity="1.0" stroke="rgb(0,0,0)"  stroke-width="3"/>
<line x1="343.5" y1="554.4" x2="343.5" y2="594.4" opacity="1.0" stroke="rgb(0,0,0)"  stroke-width="3"/>
<line x1="350.7" y1="560.4" x2="350.7" y2="588.4" opacity="1.0" stroke="rgb(0,0,0)"  stroke-width="3"/>
<line x1="343.5" y1="594.4" x2="378.1" y2="614.4" opacity="1.0" stroke="rgb(0,0,0)"  stroke-width="3"/>
<line x1="378.1" y1="614.4" x2="412.8" y2="594.4" opacity="1.0" stroke="rgb(0,0,0)"  stroke-width="3"/>
<line x1="379.7" y1="605.2" x2="404.0" y2="591.2" opacity="1.0" stroke="rgb(0,0,0)"  stroke-width="3"/>
<line x1="412.8" y1="594.4" x2="412.8" y2="554.4" opacity="1.0" stroke="rgb(0,0,0)"  stroke-width="3"/>
<line x1="378.1" y1="534.4" x2="343.5" y2="554.4" opacity="1.0" stroke="rgb(0,0,0)"  stroke-width="3"/>
<line x1="447.4" y1="414.4" x2="412.8" y2="434.4" opacity="1.0" stroke="rgb(0,0,0)"  stroke-width="3"/>
<line x1="445.8" y1="423.6" x2="421.6" y2="437.6" opacity="1.0" stroke="rgb(0,0,0)"  stroke-width="3"/>
<line x1="412.8" y1="434.4" x2="412.8" y2="474.4" opacity="1.0" stroke="rgb(0,0,0)"  stroke-width="3"/>
<line x1="447.4" y1="494.4" x2="482.0" y2="474.4" opacity="1.0" stroke="rgb(0,0,0)"  stroke-width="3"/>
<line x1="482.0" y1="474.4" x2="482.0" y2="434.4" opacity="1.0" stroke="rgb(0,0,0)"  stroke-width="3"/>
<line x1="474.8" y1="468.4" x2="474.8" y2="440.4" opacity="1.0" stroke="rgb(0,0,0)"  stroke-width="3"/>
<line x1="482.0" y1="434.4" x2="447.4" y2="414.4" opacity="1.0" stroke="rgb(0,0,0)"  stroke-width="3"/>
<line x1="482.0" y1="594.4" x2="516.7" y2="614.4" opacity="1.0" stroke="rgb(0,0,0)"  stroke-width="3"/>
<line x1="516.7" y1="614.4" x2="551.3" y2="594.4" opacity="1.0" stroke="rgb(0,0,0)"  stroke-width="3"/>
<line x1="518.3" y1="605.2" x2="542.5" y2="591.2" opacity="1.0" stroke="rgb(0,0,0)"  stroke-width="3"/>
<line x1="551.3" y1="594.4" x2="551.3" y2="554.4" opacity="1.0" stroke="rgb(0,0,0)"  stroke-width="3"/>
<line x1="551.3" y1="554.4" x2="516.7" y2="534.4" opacity="1.0" stroke="rgb(0,0,0)"  stroke-width="3"/>
<line x1="542.5" y1="557.6" x2="518.3" y2="543.6" opacity="1.0" stroke="rgb(0,0,0)"  stroke-width="3"/>
<line x1="516.7" y1="534.4" x2="482.0" y2="554.4" opacity="1.0" stroke="rgb(0,0,0)"  stroke-width="3"/>
<line x1="482.0" y1="554.4" x2="482.0" y2="594.4" opacity="1.0" stroke="rgb(0,0,0)"  stroke-width="3"/>
<line x1="489.2" y1="560.4" x2="489.2" y2="588.4" opacity="1.0" stroke="rgb(0,0,0)"  stroke-width="3"/>
<text x="391.883310" y="148.835424" fill="rgb(12,12,255)" stroke-width="0" font-weight="bold" font-size="25.92" >N</text>
<text x="372.121949" y="302.390369" fill="rgb(12,12,255)" stroke-width="0" font-weight="bold" font-size="25.92" >N</text>
<text x="233.557814" y="302.390369" fill="rgb(12,12,255)" stroke-width="0" font-weight="bold" font-size="25.92" >N</text>
<text x="302.839858" y="262.390402" fill="rgb(255,181,181)" stroke-width="0" font-weight="bold" font-size="25.92" >B</text>
</svg>
</g>
</svg>
