<?xml version="1.0"?>
<svg version="1.1" id="topsvg"
xmlns="http://www.w3.org/2000/svg" xmlns:xlink="http://www.w3.org/1999/xlink"
xmlns:cml="http://www.xml-cml.org/schema" x="0" y="0" width="200px" height="200px" viewBox="0 0 100 100">
<title>GD133.sdf - Open Babel Depiction</title>
<rect x="0" y="0" width="100" height="100" fill="white"/>
<g transform="translate(0,0)">
<svg width="100" height="100" x="0" y="0" viewBox="0 0 618.901 578.73"
font-family="sans-serif" stroke="rgb(0,0,0)" stroke-width="3"  stroke-linecap="round">
<line x1="237.0" y1="172.7" x2="237.0" y2="133.2" opacity="1.0" stroke="rgb(0,0,0)"  stroke-width="3"/>
<line x1="119.0" y1="297.0" x2="79.5" y2="297.0" opacity="1.0" stroke="rgb(0,0,0)"  stroke-width="3"/>
<line x1="305.4" y1="370.1" x2="305.4" y2="459.8" opacity="1.0" stroke="rgb(0,0,0)"  stroke-width="3"/>
<line x1="237.0" y1="133.2" x2="237.0" y2="93.7" opacity="1.0" stroke="rgb(0,0,0)"  stroke-width="3"/>
<line x1="271.2" y1="113.4" x2="237.0" y2="133.2" opacity="1.0" stroke="rgb(0,0,0)"  stroke-width="3"/>
<line x1="79.5" y1="297.0" x2="40.0" y2="297.0" opacity="1.0" stroke="rgb(0,0,0)"  stroke-width="3"/>
<line x1="59.7" y1="331.1" x2="79.5" y2="297.0" opacity="1.0" stroke="rgb(0,0,0)"  stroke-width="3"/>
<line x1="385.5" y1="129.1" x2="369.6" y2="107.9" opacity="1.0" stroke="rgb(0,0,0)"  stroke-width="3"/>
<line x1="237.0" y1="133.2" x2="202.8" y2="113.4" opacity="1.0" stroke="rgb(0,0,0)"  stroke-width="3"/>
<line x1="79.5" y1="297.0" x2="59.7" y2="262.8" opacity="1.0" stroke="rgb(0,0,0)"  stroke-width="3"/>
<line x1="373.7" y1="459.8" x2="339.6" y2="479.5" opacity="1.0" stroke="rgb(0,0,0)"  stroke-width="3"/>
<line x1="411.3" y1="303.3" x2="434.5" y2="271.4" opacity="1.0" stroke="rgb(0,0,0)"  stroke-width="3"/>
<line x1="434.5" y1="271.4" x2="411.3" y2="239.4" opacity="1.0" stroke="rgb(0,0,0)"  stroke-width="3"/>
<line x1="411.3" y1="239.4" x2="373.7" y2="251.6" opacity="1.0" stroke="rgb(0,0,0)"  stroke-width="3"/>
<line x1="407.8" y1="248.1" x2="381.7" y2="256.6" opacity="1.0" stroke="rgb(0,0,0)"  stroke-width="3"/>
<line x1="373.7" y1="251.6" x2="373.7" y2="278.1" opacity="1.0" stroke="rgb(0,0,0)"  stroke-width="3"/>
<line x1="386.1" y1="295.1" x2="411.3" y2="303.3" opacity="1.0" stroke="rgb(0,0,0)"  stroke-width="3"/>
<line x1="178.2" y1="262.8" x2="197.9" y2="297.0" opacity="1.0" stroke="rgb(0,0,0)"  stroke-width="3"/>
<line x1="187.4" y1="264.4" x2="201.2" y2="288.2" opacity="1.0" stroke="rgb(0,0,0)"  stroke-width="3"/>
<line x1="197.9" y1="297.0" x2="224.1" y2="293.0" opacity="1.0" stroke="rgb(0,0,0)"  stroke-width="3"/>
<line x1="237.0" y1="278.1" x2="237.0" y2="251.6" opacity="1.0" stroke="rgb(0,0,0)"  stroke-width="3"/>
<line x1="237.0" y1="251.6" x2="202.8" y2="231.9" opacity="1.0" stroke="rgb(0,0,0)"  stroke-width="3"/>
<line x1="228.2" y1="254.9" x2="204.4" y2="241.1" opacity="1.0" stroke="rgb(0,0,0)"  stroke-width="3"/>
<line x1="202.8" y1="231.9" x2="178.2" y2="262.8" opacity="1.0" stroke="rgb(0,0,0)"  stroke-width="3"/>
<line x1="432.7" y1="139.0" x2="406.2" y2="139.4" opacity="1.0" stroke="rgb(0,0,0)"  stroke-width="3"/>
<line x1="389.4" y1="151.9" x2="381.6" y2="177.2" opacity="1.0" stroke="rgb(0,0,0)"  stroke-width="3"/>
<line x1="381.6" y1="177.2" x2="413.8" y2="200.0" opacity="1.0" stroke="rgb(0,0,0)"  stroke-width="3"/>
<line x1="390.6" y1="174.8" x2="413.1" y2="190.7" opacity="1.0" stroke="rgb(0,0,0)"  stroke-width="3"/>
<line x1="413.8" y1="200.0" x2="445.4" y2="176.4" opacity="1.0" stroke="rgb(0,0,0)"  stroke-width="3"/>
<line x1="445.4" y1="176.4" x2="432.7" y2="139.0" opacity="1.0" stroke="rgb(0,0,0)"  stroke-width="3"/>
<line x1="436.7" y1="173.0" x2="427.8" y2="147.0" opacity="1.0" stroke="rgb(0,0,0)"  stroke-width="3"/>
<line x1="305.4" y1="370.1" x2="339.6" y2="350.3" opacity="1.0" stroke="rgb(0,0,0)"  stroke-width="3"/>
<line x1="307.0" y1="360.8" x2="330.8" y2="347.1" opacity="1.0" stroke="rgb(0,0,0)"  stroke-width="3"/>
<line x1="339.6" y1="350.3" x2="339.6" y2="310.8" opacity="1.0" stroke="rgb(0,0,0)"  stroke-width="3"/>
<line x1="339.6" y1="310.8" x2="305.4" y2="291.1" opacity="1.0" stroke="rgb(0,0,0)"  stroke-width="3"/>
<line x1="330.8" y1="314.1" x2="307.0" y2="300.3" opacity="1.0" stroke="rgb(0,0,0)"  stroke-width="3"/>
<line x1="305.4" y1="291.1" x2="271.2" y2="310.8" opacity="1.0" stroke="rgb(0,0,0)"  stroke-width="3"/>
<line x1="271.2" y1="310.8" x2="271.2" y2="350.3" opacity="1.0" stroke="rgb(0,0,0)"  stroke-width="3"/>
<line x1="278.4" y1="316.8" x2="278.4" y2="344.3" opacity="1.0" stroke="rgb(0,0,0)"  stroke-width="3"/>
<line x1="271.2" y1="350.3" x2="305.4" y2="370.1" opacity="1.0" stroke="rgb(0,0,0)"  stroke-width="3"/>
<line x1="339.6" y1="310.8" x2="362.5" y2="297.6" opacity="1.0" stroke="rgb(0,0,0)"  stroke-width="3"/>
<line x1="373.7" y1="251.6" x2="339.6" y2="231.9" opacity="1.0" stroke="rgb(0,0,0)"  stroke-width="3"/>
<line x1="339.6" y1="231.9" x2="316.6" y2="245.1" opacity="1.0" stroke="rgb(0,0,0)"  stroke-width="3"/>
<line x1="305.4" y1="264.6" x2="305.4" y2="291.1" opacity="1.0" stroke="rgb(0,0,0)"  stroke-width="3"/>
<line x1="489.8" y1="311.6" x2="473.8" y2="275.5" opacity="1.0" stroke="rgb(0,0,0)"  stroke-width="3"/>
<line x1="473.8" y1="275.5" x2="434.5" y2="271.4" opacity="1.0" stroke="rgb(0,0,0)"  stroke-width="3"/>
<line x1="467.0" y1="282.0" x2="439.7" y2="279.1" opacity="1.0" stroke="rgb(0,0,0)"  stroke-width="3"/>
<line x1="411.3" y1="303.3" x2="427.4" y2="339.4" opacity="1.0" stroke="rgb(0,0,0)"  stroke-width="3"/>
<line x1="420.3" y1="305.9" x2="431.5" y2="331.0" opacity="1.0" stroke="rgb(0,0,0)"  stroke-width="3"/>
<line x1="427.4" y1="339.4" x2="466.6" y2="343.5" opacity="1.0" stroke="rgb(0,0,0)"  stroke-width="3"/>
<line x1="466.6" y1="343.5" x2="489.8" y2="311.6" opacity="1.0" stroke="rgb(0,0,0)"  stroke-width="3"/>
<line x1="464.3" y1="334.4" x2="480.5" y2="312.2" opacity="1.0" stroke="rgb(0,0,0)"  stroke-width="3"/>
<line x1="497.5" y1="117.0" x2="458.7" y2="109.3" opacity="1.0" stroke="rgb(0,0,0)"  stroke-width="3"/>
<line x1="490.2" y1="122.9" x2="463.2" y2="117.5" opacity="1.0" stroke="rgb(0,0,0)"  stroke-width="3"/>
<line x1="458.7" y1="109.3" x2="432.7" y2="139.0" opacity="1.0" stroke="rgb(0,0,0)"  stroke-width="3"/>
<line x1="445.4" y1="176.4" x2="484.2" y2="184.1" opacity="1.0" stroke="rgb(0,0,0)"  stroke-width="3"/>
<line x1="484.2" y1="184.1" x2="510.2" y2="154.4" opacity="1.0" stroke="rgb(0,0,0)"  stroke-width="3"/>
<line x1="482.7" y1="174.8" x2="500.8" y2="154.1" opacity="1.0" stroke="rgb(0,0,0)"  stroke-width="3"/>
<line x1="510.2" y1="154.4" x2="497.5" y2="117.0" opacity="1.0" stroke="rgb(0,0,0)"  stroke-width="3"/>
<line x1="294.1" y1="245.1" x2="271.2" y2="231.9" opacity="1.0" stroke="rgb(0,0,0)"  stroke-width="3"/>
<line x1="271.2" y1="231.9" x2="237.0" y2="251.6" opacity="1.0" stroke="rgb(0,0,0)"  stroke-width="3"/>
<line x1="248.2" y1="297.6" x2="271.2" y2="310.8" opacity="1.0" stroke="rgb(0,0,0)"  stroke-width="3"/>
<line x1="202.8" y1="192.4" x2="202.8" y2="231.9" opacity="1.0" stroke="rgb(0,0,0)"  stroke-width="3"/>
<line x1="271.2" y1="231.9" x2="271.2" y2="192.4" opacity="1.0" stroke="rgb(0,0,0)"  stroke-width="3"/>
<line x1="264.0" y1="225.9" x2="264.0" y2="198.4" opacity="1.0" stroke="rgb(0,0,0)"  stroke-width="3"/>
<line x1="271.2" y1="192.4" x2="237.0" y2="172.7" opacity="1.0" stroke="rgb(0,0,0)"  stroke-width="3"/>
<line x1="237.0" y1="172.7" x2="202.8" y2="192.4" opacity="1.0" stroke="rgb(0,0,0)"  stroke-width="3"/>
<line x1="235.4" y1="181.9" x2="211.6" y2="195.6" opacity="1.0" stroke="rgb(0,0,0)"  stroke-width="3"/>
<line x1="345.3" y1="192.8" x2="339.6" y2="231.9" opacity="1.0" stroke="rgb(0,0,0)"  stroke-width="3"/>
<line x1="351.5" y1="199.8" x2="347.5" y2="227.0" opacity="1.0" stroke="rgb(0,0,0)"  stroke-width="3"/>
<line x1="411.3" y1="239.4" x2="413.8" y2="200.0" opacity="1.0" stroke="rgb(0,0,0)"  stroke-width="3"/>
<line x1="381.6" y1="177.2" x2="345.3" y2="192.8" opacity="1.0" stroke="rgb(0,0,0)"  stroke-width="3"/>
<line x1="138.7" y1="331.1" x2="119.0" y2="297.0" opacity="1.0" stroke="rgb(0,0,0)"  stroke-width="3"/>
<line x1="119.0" y1="297.0" x2="138.7" y2="262.8" opacity="1.0" stroke="rgb(0,0,0)"  stroke-width="3"/>
<line x1="128.2" y1="295.4" x2="141.9" y2="271.6" opacity="1.0" stroke="rgb(0,0,0)"  stroke-width="3"/>
<line x1="138.7" y1="262.8" x2="178.2" y2="262.8" opacity="1.0" stroke="rgb(0,0,0)"  stroke-width="3"/>
<line x1="197.9" y1="297.0" x2="178.2" y2="331.1" opacity="1.0" stroke="rgb(0,0,0)"  stroke-width="3"/>
<line x1="178.2" y1="331.1" x2="138.7" y2="331.1" opacity="1.0" stroke="rgb(0,0,0)"  stroke-width="3"/>
<line x1="172.2" y1="323.9" x2="144.7" y2="323.9" opacity="1.0" stroke="rgb(0,0,0)"  stroke-width="3"/>
<line x1="385.2" y1="71.6" x2="361.5" y2="40.0" opacity="1.0" stroke="rgb(0,0,0)"  stroke-width="3"/>
<line x1="361.5" y1="40.0" x2="322.3" y2="44.7" opacity="1.0" stroke="rgb(0,0,0)"  stroke-width="3"/>
<line x1="356.4" y1="47.9" x2="329.1" y2="51.1" opacity="1.0" stroke="rgb(0,0,0)"  stroke-width="3"/>
<line x1="322.3" y1="44.7" x2="306.8" y2="80.9" opacity="1.0" stroke="rgb(0,0,0)"  stroke-width="3"/>
<line x1="306.8" y1="80.9" x2="330.4" y2="112.6" opacity="1.0" stroke="rgb(0,0,0)"  stroke-width="3"/>
<line x1="316.1" y1="81.4" x2="332.6" y2="103.5" opacity="1.0" stroke="rgb(0,0,0)"  stroke-width="3"/>
<line x1="330.4" y1="112.6" x2="369.6" y2="107.9" opacity="1.0" stroke="rgb(0,0,0)"  stroke-width="3"/>
<line x1="369.6" y1="107.9" x2="385.2" y2="71.6" opacity="1.0" stroke="rgb(0,0,0)"  stroke-width="3"/>
<line x1="365.4" y1="99.6" x2="376.2" y2="74.3" opacity="1.0" stroke="rgb(0,0,0)"  stroke-width="3"/>
<line x1="339.6" y1="479.5" x2="339.6" y2="519.0" opacity="1.0" stroke="rgb(0,0,0)"  stroke-width="3"/>
<line x1="339.6" y1="519.0" x2="305.4" y2="538.7" opacity="1.0" stroke="rgb(0,0,0)"  stroke-width="3"/>
<line x1="330.8" y1="515.8" x2="307.0" y2="529.5" opacity="1.0" stroke="rgb(0,0,0)"  stroke-width="3"/>
<line x1="305.4" y1="538.7" x2="271.2" y2="519.0" opacity="1.0" stroke="rgb(0,0,0)"  stroke-width="3"/>
<line x1="271.2" y1="519.0" x2="271.2" y2="479.5" opacity="1.0" stroke="rgb(0,0,0)"  stroke-width="3"/>
<line x1="278.4" y1="513.0" x2="278.4" y2="485.5" opacity="1.0" stroke="rgb(0,0,0)"  stroke-width="3"/>
<line x1="271.2" y1="479.5" x2="305.4" y2="459.8" opacity="1.0" stroke="rgb(0,0,0)"  stroke-width="3"/>
<line x1="305.4" y1="459.8" x2="339.6" y2="479.5" opacity="1.0" stroke="rgb(0,0,0)"  stroke-width="3"/>
<line x1="307.0" y1="469.0" x2="330.8" y2="482.7" opacity="1.0" stroke="rgb(0,0,0)"  stroke-width="3"/>
<line x1="407.9" y1="400.5" x2="373.7" y2="420.3" opacity="1.0" stroke="rgb(0,0,0)"  stroke-width="3"/>
<line x1="406.3" y1="409.8" x2="382.5" y2="423.5" opacity="1.0" stroke="rgb(0,0,0)"  stroke-width="3"/>
<line x1="373.7" y1="420.3" x2="373.7" y2="459.8" opacity="1.0" stroke="rgb(0,0,0)"  stroke-width="3"/>
<line x1="373.7" y1="459.8" x2="407.9" y2="479.5" opacity="1.0" stroke="rgb(0,0,0)"  stroke-width="3"/>
<line x1="382.5" y1="456.5" x2="406.3" y2="470.3" opacity="1.0" stroke="rgb(0,0,0)"  stroke-width="3"/>
<line x1="407.9" y1="479.5" x2="442.1" y2="459.8" opacity="1.0" stroke="rgb(0,0,0)"  stroke-width="3"/>
<line x1="442.1" y1="459.8" x2="442.1" y2="420.3" opacity="1.0" stroke="rgb(0,0,0)"  stroke-width="3"/>
<line x1="434.9" y1="453.8" x2="434.9" y2="426.3" opacity="1.0" stroke="rgb(0,0,0)"  stroke-width="3"/>
<line x1="442.1" y1="420.3" x2="407.9" y2="400.5" opacity="1.0" stroke="rgb(0,0,0)"  stroke-width="3"/>
<line x1="510.5" y1="420.3" x2="476.3" y2="400.5" opacity="1.0" stroke="rgb(0,0,0)"  stroke-width="3"/>
<line x1="476.3" y1="400.5" x2="442.1" y2="420.3" opacity="1.0" stroke="rgb(0,0,0)"  stroke-width="3"/>
<line x1="442.1" y1="459.8" x2="476.3" y2="479.5" opacity="1.0" stroke="rgb(0,0,0)"  stroke-width="3"/>
<line x1="476.3" y1="479.5" x2="510.5" y2="459.8" opacity="1.0" stroke="rgb(0,0,0)"  stroke-width="3"/>
<line x1="510.5" y1="459.8" x2="510.5" y2="420.3" opacity="1.0" stroke="rgb(0,0,0)"  stroke-width="3"/>
<line x1="503.3" y1="453.8" x2="503.3" y2="426.3" opacity="1.0" stroke="rgb(0,0,0)"  stroke-width="3"/>
<line x1="407.9" y1="519.0" x2="442.1" y2="538.7" opacity="1.0" stroke="rgb(0,0,0)"  stroke-width="3"/>
<line x1="416.7" y1="515.8" x2="440.5" y2="529.5" opacity="1.0" stroke="rgb(0,0,0)"  stroke-width="3"/>
<line x1="442.1" y1="538.7" x2="476.3" y2="519.0" opacity="1.0" stroke="rgb(0,0,0)"  stroke-width="3"/>
<line x1="476.3" y1="519.0" x2="476.3" y2="479.5" opacity="1.0" stroke="rgb(0,0,0)"  stroke-width="3"/>
<line x1="469.1" y1="513.0" x2="469.1" y2="485.5" opacity="1.0" stroke="rgb(0,0,0)"  stroke-width="3"/>
<line x1="407.9" y1="479.5" x2="407.9" y2="519.0" opacity="1.0" stroke="rgb(0,0,0)"  stroke-width="3"/>
<line x1="578.9" y1="420.3" x2="544.7" y2="400.5" opacity="1.0" stroke="rgb(0,0,0)"  stroke-width="3"/>
<line x1="570.1" y1="423.5" x2="546.3" y2="409.8" opacity="1.0" stroke="rgb(0,0,0)"  stroke-width="3"/>
<line x1="544.7" y1="400.5" x2="510.5" y2="420.3" opacity="1.0" stroke="rgb(0,0,0)"  stroke-width="3"/>
<line x1="510.5" y1="459.8" x2="544.7" y2="479.5" opacity="1.0" stroke="rgb(0,0,0)"  stroke-width="3"/>
<line x1="544.7" y1="479.5" x2="578.9" y2="459.8" opacity="1.0" stroke="rgb(0,0,0)"  stroke-width="3"/>
<line x1="546.3" y1="470.3" x2="570.1" y2="456.5" opacity="1.0" stroke="rgb(0,0,0)"  stroke-width="3"/>
<line x1="578.9" y1="459.8" x2="578.9" y2="420.3" opacity="1.0" stroke="rgb(0,0,0)"  stroke-width="3"/>
<line x1="510.5" y1="341.3" x2="476.3" y2="361.1" opacity="1.0" stroke="rgb(0,0,0)"  stroke-width="3"/>
<line x1="476.3" y1="361.1" x2="476.3" y2="400.5" opacity="1.0" stroke="rgb(0,0,0)"  stroke-width="3"/>
<line x1="483.5" y1="367.1" x2="483.5" y2="394.5" opacity="1.0" stroke="rgb(0,0,0)"  stroke-width="3"/>
<line x1="544.7" y1="400.5" x2="544.7" y2="361.1" opacity="1.0" stroke="rgb(0,0,0)"  stroke-width="3"/>
<line x1="544.7" y1="361.1" x2="510.5" y2="341.3" opacity="1.0" stroke="rgb(0,0,0)"  stroke-width="3"/>
<line x1="535.9" y1="364.3" x2="512.1" y2="350.6" opacity="1.0" stroke="rgb(0,0,0)"  stroke-width="3"/>
<text x="387.250934" y="147.530228" fill="rgb(12,12,255)" stroke-width="0" font-weight="bold" font-size="25.92" >N</text>
<text x="367.745360" y="299.097586" fill="rgb(12,12,255)" stroke-width="0" font-weight="bold" font-size="25.92" >N</text>
<text x="230.974822" y="299.097586" fill="rgb(12,12,255)" stroke-width="0" font-weight="bold" font-size="25.92" >N</text>
<text x="299.360091" y="259.615372" fill="rgb(255,181,181)" stroke-width="0" font-weight="bold" font-size="25.92" >B</text>
</svg>
</g>
</svg>
