<?xml version="1.0"?>
<svg version="1.1" id="topsvg"
xmlns="http://www.w3.org/2000/svg" xmlns:xlink="http://www.w3.org/1999/xlink"
xmlns:cml="http://www.xml-cml.org/schema" x="0" y="0" width="200px" height="200px" viewBox="0 0 100 100">
<title>GD134.sdf - Open Babel Depiction</title>
<rect x="0" y="0" width="100" height="100" fill="white"/>
<g transform="translate(0,0)">
<svg width="100" height="100" x="0" y="0" viewBox="0 0 560.36 592.825"
font-family="sans-serif" stroke="rgb(0,0,0)" stroke-width="3"  stroke-linecap="round">
<line x1="355.3" y1="128.8" x2="339.4" y2="107.7" opacity="1.0" stroke="rgb(0,0,0)"  stroke-width="3"/>
<line x1="176.5" y1="197.1" x2="153.6" y2="183.9" opacity="1.0" stroke="rgb(0,0,0)"  stroke-width="3"/>
<line x1="142.4" y1="164.4" x2="142.4" y2="138.0" opacity="1.0" stroke="rgb(0,0,0)"  stroke-width="3"/>
<line x1="131.1" y1="183.9" x2="108.2" y2="197.1" opacity="1.0" stroke="rgb(0,0,0)"  stroke-width="3"/>
<line x1="281.5" y1="372.7" x2="281.5" y2="474.0" opacity="1.0" stroke="rgb(0,0,0)"  stroke-width="3"/>
<line x1="315.6" y1="493.7" x2="349.8" y2="474.0" opacity="1.0" stroke="rgb(0,0,0)"  stroke-width="3"/>
<line x1="418.0" y1="434.6" x2="452.1" y2="414.9" opacity="1.0" stroke="rgb(0,0,0)"  stroke-width="3"/>
<line x1="153.3" y1="267.8" x2="177.2" y2="236.5" opacity="1.0" stroke="rgb(0,0,0)"  stroke-width="3"/>
<line x1="177.2" y1="236.5" x2="211.6" y2="255.6" opacity="1.0" stroke="rgb(0,0,0)"  stroke-width="3"/>
<line x1="211.6" y1="255.6" x2="212.2" y2="282.0" opacity="1.0" stroke="rgb(0,0,0)"  stroke-width="3"/>
<line x1="199.6" y1="297.1" x2="173.6" y2="301.5" opacity="1.0" stroke="rgb(0,0,0)"  stroke-width="3"/>
<line x1="173.6" y1="301.5" x2="153.3" y2="267.8" opacity="1.0" stroke="rgb(0,0,0)"  stroke-width="3"/>
<line x1="176.7" y1="292.7" x2="162.5" y2="269.2" opacity="1.0" stroke="rgb(0,0,0)"  stroke-width="3"/>
<line x1="407.6" y1="267.4" x2="380.6" y2="238.6" opacity="1.0" stroke="rgb(0,0,0)"  stroke-width="3"/>
<line x1="380.6" y1="238.6" x2="345.0" y2="255.3" opacity="1.0" stroke="rgb(0,0,0)"  stroke-width="3"/>
<line x1="345.0" y1="255.3" x2="348.2" y2="281.5" opacity="1.0" stroke="rgb(0,0,0)"  stroke-width="3"/>
<line x1="362.6" y1="296.9" x2="388.5" y2="301.9" opacity="1.0" stroke="rgb(0,0,0)"  stroke-width="3"/>
<line x1="388.5" y1="301.9" x2="407.6" y2="267.4" opacity="1.0" stroke="rgb(0,0,0)"  stroke-width="3"/>
<line x1="385.1" y1="293.2" x2="398.4" y2="269.2" opacity="1.0" stroke="rgb(0,0,0)"  stroke-width="3"/>
<line x1="402.5" y1="138.4" x2="376.1" y2="138.9" opacity="1.0" stroke="rgb(0,0,0)"  stroke-width="3"/>
<line x1="359.4" y1="151.6" x2="351.7" y2="176.8" opacity="1.0" stroke="rgb(0,0,0)"  stroke-width="3"/>
<line x1="351.7" y1="176.8" x2="384.0" y2="199.4" opacity="1.0" stroke="rgb(0,0,0)"  stroke-width="3"/>
<line x1="384.0" y1="199.4" x2="415.4" y2="175.6" opacity="1.0" stroke="rgb(0,0,0)"  stroke-width="3"/>
<line x1="415.4" y1="175.6" x2="402.5" y2="138.4" opacity="1.0" stroke="rgb(0,0,0)"  stroke-width="3"/>
<line x1="406.7" y1="172.3" x2="397.7" y2="146.4" opacity="1.0" stroke="rgb(0,0,0)"  stroke-width="3"/>
<line x1="247.3" y1="353.2" x2="281.5" y2="372.7" opacity="1.0" stroke="rgb(0,0,0)"  stroke-width="3"/>
<line x1="281.5" y1="372.7" x2="315.5" y2="352.8" opacity="1.0" stroke="rgb(0,0,0)"  stroke-width="3"/>
<line x1="283.1" y1="363.4" x2="306.7" y2="349.6" opacity="1.0" stroke="rgb(0,0,0)"  stroke-width="3"/>
<line x1="315.5" y1="352.8" x2="315.3" y2="313.4" opacity="1.0" stroke="rgb(0,0,0)"  stroke-width="3"/>
<line x1="315.3" y1="313.4" x2="281.1" y2="293.9" opacity="1.0" stroke="rgb(0,0,0)"  stroke-width="3"/>
<line x1="306.5" y1="316.7" x2="282.7" y2="303.1" opacity="1.0" stroke="rgb(0,0,0)"  stroke-width="3"/>
<line x1="281.1" y1="293.9" x2="247.1" y2="313.8" opacity="1.0" stroke="rgb(0,0,0)"  stroke-width="3"/>
<line x1="247.1" y1="313.8" x2="247.3" y2="353.2" opacity="1.0" stroke="rgb(0,0,0)"  stroke-width="3"/>
<line x1="254.3" y1="319.7" x2="254.5" y2="347.1" opacity="1.0" stroke="rgb(0,0,0)"  stroke-width="3"/>
<line x1="280.2" y1="267.5" x2="281.1" y2="293.9" opacity="1.0" stroke="rgb(0,0,0)"  stroke-width="3"/>
<line x1="247.1" y1="313.8" x2="223.9" y2="301.2" opacity="1.0" stroke="rgb(0,0,0)"  stroke-width="3"/>
<line x1="211.6" y1="255.6" x2="245.4" y2="235.3" opacity="1.0" stroke="rgb(0,0,0)"  stroke-width="3"/>
<line x1="220.5" y1="258.6" x2="244.0" y2="244.5" opacity="1.0" stroke="rgb(0,0,0)"  stroke-width="3"/>
<line x1="245.4" y1="235.3" x2="268.4" y2="248.2" opacity="1.0" stroke="rgb(0,0,0)"  stroke-width="3"/>
<line x1="345.0" y1="255.3" x2="312.7" y2="232.8" opacity="1.0" stroke="rgb(0,0,0)"  stroke-width="3"/>
<line x1="335.9" y1="257.8" x2="313.5" y2="242.1" opacity="1.0" stroke="rgb(0,0,0)"  stroke-width="3"/>
<line x1="312.7" y1="232.8" x2="290.6" y2="247.4" opacity="1.0" stroke="rgb(0,0,0)"  stroke-width="3"/>
<line x1="315.3" y1="313.4" x2="338.4" y2="300.7" opacity="1.0" stroke="rgb(0,0,0)"  stroke-width="3"/>
<line x1="115.2" y1="336.8" x2="154.6" y2="336.0" opacity="1.0" stroke="rgb(0,0,0)"  stroke-width="3"/>
<line x1="121.0" y1="329.4" x2="148.4" y2="328.9" opacity="1.0" stroke="rgb(0,0,0)"  stroke-width="3"/>
<line x1="154.6" y1="336.0" x2="173.6" y2="301.5" opacity="1.0" stroke="rgb(0,0,0)"  stroke-width="3"/>
<line x1="153.3" y1="267.8" x2="113.9" y2="268.5" opacity="1.0" stroke="rgb(0,0,0)"  stroke-width="3"/>
<line x1="113.9" y1="268.5" x2="94.8" y2="303.0" opacity="1.0" stroke="rgb(0,0,0)"  stroke-width="3"/>
<line x1="117.3" y1="277.3" x2="104.0" y2="301.3" opacity="1.0" stroke="rgb(0,0,0)"  stroke-width="3"/>
<line x1="94.8" y1="303.0" x2="115.2" y2="336.8" opacity="1.0" stroke="rgb(0,0,0)"  stroke-width="3"/>
<line x1="467.3" y1="300.4" x2="447.0" y2="266.6" opacity="1.0" stroke="rgb(0,0,0)"  stroke-width="3"/>
<line x1="458.0" y1="299.0" x2="443.9" y2="275.5" opacity="1.0" stroke="rgb(0,0,0)"  stroke-width="3"/>
<line x1="447.0" y1="266.6" x2="407.6" y2="267.4" opacity="1.0" stroke="rgb(0,0,0)"  stroke-width="3"/>
<line x1="388.5" y1="301.9" x2="408.9" y2="335.6" opacity="1.0" stroke="rgb(0,0,0)"  stroke-width="3"/>
<line x1="408.9" y1="335.6" x2="448.3" y2="334.9" opacity="1.0" stroke="rgb(0,0,0)"  stroke-width="3"/>
<line x1="414.7" y1="328.3" x2="442.1" y2="327.8" opacity="1.0" stroke="rgb(0,0,0)"  stroke-width="3"/>
<line x1="448.3" y1="334.9" x2="467.3" y2="300.4" opacity="1.0" stroke="rgb(0,0,0)"  stroke-width="3"/>
<line x1="351.7" y1="176.8" x2="316.0" y2="193.6" opacity="1.0" stroke="rgb(0,0,0)"  stroke-width="3"/>
<line x1="349.3" y1="185.9" x2="324.5" y2="197.5" opacity="1.0" stroke="rgb(0,0,0)"  stroke-width="3"/>
<line x1="316.0" y1="193.6" x2="312.7" y2="232.8" opacity="1.0" stroke="rgb(0,0,0)"  stroke-width="3"/>
<line x1="380.6" y1="238.6" x2="384.0" y2="199.4" opacity="1.0" stroke="rgb(0,0,0)"  stroke-width="3"/>
<line x1="374.0" y1="232.0" x2="376.3" y2="204.7" opacity="1.0" stroke="rgb(0,0,0)"  stroke-width="3"/>
<line x1="467.0" y1="116.0" x2="428.3" y2="108.6" opacity="1.0" stroke="rgb(0,0,0)"  stroke-width="3"/>
<line x1="459.8" y1="122.0" x2="432.9" y2="116.8" opacity="1.0" stroke="rgb(0,0,0)"  stroke-width="3"/>
<line x1="428.3" y1="108.6" x2="402.5" y2="138.4" opacity="1.0" stroke="rgb(0,0,0)"  stroke-width="3"/>
<line x1="415.4" y1="175.6" x2="454.1" y2="183.1" opacity="1.0" stroke="rgb(0,0,0)"  stroke-width="3"/>
<line x1="454.1" y1="183.1" x2="479.9" y2="153.3" opacity="1.0" stroke="rgb(0,0,0)"  stroke-width="3"/>
<line x1="452.6" y1="173.8" x2="470.5" y2="153.1" opacity="1.0" stroke="rgb(0,0,0)"  stroke-width="3"/>
<line x1="479.9" y1="153.3" x2="467.0" y2="116.0" opacity="1.0" stroke="rgb(0,0,0)"  stroke-width="3"/>
<line x1="177.2" y1="236.5" x2="176.5" y2="197.1" opacity="1.0" stroke="rgb(0,0,0)"  stroke-width="3"/>
<line x1="184.3" y1="230.3" x2="183.8" y2="202.9" opacity="1.0" stroke="rgb(0,0,0)"  stroke-width="3"/>
<line x1="176.5" y1="197.1" x2="210.3" y2="176.8" opacity="1.0" stroke="rgb(0,0,0)"  stroke-width="3"/>
<line x1="210.3" y1="176.8" x2="244.7" y2="195.9" opacity="1.0" stroke="rgb(0,0,0)"  stroke-width="3"/>
<line x1="212.0" y1="186.0" x2="236.0" y2="199.3" opacity="1.0" stroke="rgb(0,0,0)"  stroke-width="3"/>
<line x1="244.7" y1="195.9" x2="245.4" y2="235.3" opacity="1.0" stroke="rgb(0,0,0)"  stroke-width="3"/>
<line x1="354.7" y1="71.4" x2="330.9" y2="40.0" opacity="1.0" stroke="rgb(0,0,0)"  stroke-width="3"/>
<line x1="330.9" y1="40.0" x2="291.8" y2="44.9" opacity="1.0" stroke="rgb(0,0,0)"  stroke-width="3"/>
<line x1="325.9" y1="47.9" x2="298.7" y2="51.3" opacity="1.0" stroke="rgb(0,0,0)"  stroke-width="3"/>
<line x1="291.8" y1="44.9" x2="276.5" y2="81.2" opacity="1.0" stroke="rgb(0,0,0)"  stroke-width="3"/>
<line x1="276.5" y1="81.2" x2="300.3" y2="112.6" opacity="1.0" stroke="rgb(0,0,0)"  stroke-width="3"/>
<line x1="285.9" y1="81.6" x2="302.4" y2="103.5" opacity="1.0" stroke="rgb(0,0,0)"  stroke-width="3"/>
<line x1="300.3" y1="112.6" x2="339.4" y2="107.7" opacity="1.0" stroke="rgb(0,0,0)"  stroke-width="3"/>
<line x1="339.4" y1="107.7" x2="354.7" y2="71.4" opacity="1.0" stroke="rgb(0,0,0)"  stroke-width="3"/>
<line x1="335.1" y1="99.4" x2="345.7" y2="74.1" opacity="1.0" stroke="rgb(0,0,0)"  stroke-width="3"/>
<line x1="74.1" y1="177.4" x2="40.0" y2="197.1" opacity="1.0" stroke="rgb(0,0,0)"  stroke-width="3"/>
<line x1="40.0" y1="197.1" x2="40.0" y2="236.5" opacity="1.0" stroke="rgb(0,0,0)"  stroke-width="3"/>
<line x1="47.2" y1="203.1" x2="47.2" y2="230.5" opacity="1.0" stroke="rgb(0,0,0)"  stroke-width="3"/>
<line x1="40.0" y1="236.5" x2="74.1" y2="256.2" opacity="1.0" stroke="rgb(0,0,0)"  stroke-width="3"/>
<line x1="74.1" y1="256.2" x2="108.2" y2="236.5" opacity="1.0" stroke="rgb(0,0,0)"  stroke-width="3"/>
<line x1="75.7" y1="246.9" x2="99.4" y2="233.2" opacity="1.0" stroke="rgb(0,0,0)"  stroke-width="3"/>
<line x1="108.2" y1="236.5" x2="108.2" y2="197.1" opacity="1.0" stroke="rgb(0,0,0)"  stroke-width="3"/>
<line x1="108.2" y1="197.1" x2="74.1" y2="177.4" opacity="1.0" stroke="rgb(0,0,0)"  stroke-width="3"/>
<line x1="99.4" y1="200.3" x2="75.7" y2="186.6" opacity="1.0" stroke="rgb(0,0,0)"  stroke-width="3"/>
<line x1="176.5" y1="118.3" x2="176.5" y2="78.9" opacity="1.0" stroke="rgb(0,0,0)"  stroke-width="3"/>
<line x1="176.5" y1="78.9" x2="142.4" y2="59.2" opacity="1.0" stroke="rgb(0,0,0)"  stroke-width="3"/>
<line x1="167.7" y1="82.1" x2="144.0" y2="68.4" opacity="1.0" stroke="rgb(0,0,0)"  stroke-width="3"/>
<line x1="142.4" y1="59.2" x2="108.2" y2="78.9" opacity="1.0" stroke="rgb(0,0,0)"  stroke-width="3"/>
<line x1="108.2" y1="78.9" x2="108.2" y2="118.3" opacity="1.0" stroke="rgb(0,0,0)"  stroke-width="3"/>
<line x1="115.4" y1="84.9" x2="115.4" y2="112.3" opacity="1.0" stroke="rgb(0,0,0)"  stroke-width="3"/>
<line x1="108.2" y1="118.3" x2="142.4" y2="138.0" opacity="1.0" stroke="rgb(0,0,0)"  stroke-width="3"/>
<line x1="142.4" y1="138.0" x2="176.5" y2="118.3" opacity="1.0" stroke="rgb(0,0,0)"  stroke-width="3"/>
<line x1="144.0" y1="128.7" x2="167.7" y2="115.0" opacity="1.0" stroke="rgb(0,0,0)"  stroke-width="3"/>
<line x1="247.4" y1="493.7" x2="247.4" y2="533.1" opacity="1.0" stroke="rgb(0,0,0)"  stroke-width="3"/>
<line x1="247.4" y1="533.1" x2="281.5" y2="552.8" opacity="1.0" stroke="rgb(0,0,0)"  stroke-width="3"/>
<line x1="256.2" y1="529.9" x2="279.9" y2="543.6" opacity="1.0" stroke="rgb(0,0,0)"  stroke-width="3"/>
<line x1="281.5" y1="552.8" x2="315.6" y2="533.1" opacity="1.0" stroke="rgb(0,0,0)"  stroke-width="3"/>
<line x1="315.6" y1="533.1" x2="315.6" y2="493.7" opacity="1.0" stroke="rgb(0,0,0)"  stroke-width="3"/>
<line x1="308.4" y1="527.1" x2="308.4" y2="499.7" opacity="1.0" stroke="rgb(0,0,0)"  stroke-width="3"/>
<line x1="315.6" y1="493.7" x2="281.5" y2="474.0" opacity="1.0" stroke="rgb(0,0,0)"  stroke-width="3"/>
<line x1="281.5" y1="474.0" x2="247.4" y2="493.7" opacity="1.0" stroke="rgb(0,0,0)"  stroke-width="3"/>
<line x1="279.9" y1="483.3" x2="256.2" y2="497.0" opacity="1.0" stroke="rgb(0,0,0)"  stroke-width="3"/>
<line x1="383.9" y1="493.7" x2="418.0" y2="474.0" opacity="1.0" stroke="rgb(0,0,0)"  stroke-width="3"/>
<line x1="418.0" y1="474.0" x2="418.0" y2="434.6" opacity="1.0" stroke="rgb(0,0,0)"  stroke-width="3"/>
<line x1="410.8" y1="468.0" x2="410.8" y2="440.6" opacity="1.0" stroke="rgb(0,0,0)"  stroke-width="3"/>
<line x1="418.0" y1="434.6" x2="383.9" y2="414.9" opacity="1.0" stroke="rgb(0,0,0)"  stroke-width="3"/>
<line x1="383.9" y1="414.9" x2="349.8" y2="434.6" opacity="1.0" stroke="rgb(0,0,0)"  stroke-width="3"/>
<line x1="382.3" y1="424.2" x2="358.6" y2="437.9" opacity="1.0" stroke="rgb(0,0,0)"  stroke-width="3"/>
<line x1="349.8" y1="434.6" x2="349.8" y2="474.0" opacity="1.0" stroke="rgb(0,0,0)"  stroke-width="3"/>
<line x1="349.8" y1="474.0" x2="383.9" y2="493.7" opacity="1.0" stroke="rgb(0,0,0)"  stroke-width="3"/>
<line x1="358.6" y1="470.8" x2="382.3" y2="484.5" opacity="1.0" stroke="rgb(0,0,0)"  stroke-width="3"/>
<line x1="452.1" y1="533.1" x2="452.1" y2="493.7" opacity="1.0" stroke="rgb(0,0,0)"  stroke-width="3"/>
<line x1="444.9" y1="527.1" x2="444.9" y2="499.7" opacity="1.0" stroke="rgb(0,0,0)"  stroke-width="3"/>
<line x1="452.1" y1="493.7" x2="418.0" y2="474.0" opacity="1.0" stroke="rgb(0,0,0)"  stroke-width="3"/>
<line x1="383.9" y1="493.7" x2="383.9" y2="533.1" opacity="1.0" stroke="rgb(0,0,0)"  stroke-width="3"/>
<line x1="383.9" y1="533.1" x2="418.0" y2="552.8" opacity="1.0" stroke="rgb(0,0,0)"  stroke-width="3"/>
<line x1="392.7" y1="529.9" x2="416.4" y2="543.6" opacity="1.0" stroke="rgb(0,0,0)"  stroke-width="3"/>
<line x1="418.0" y1="552.8" x2="452.1" y2="533.1" opacity="1.0" stroke="rgb(0,0,0)"  stroke-width="3"/>
<line x1="315.6" y1="375.5" x2="315.6" y2="414.9" opacity="1.0" stroke="rgb(0,0,0)"  stroke-width="3"/>
<line x1="322.8" y1="381.5" x2="322.8" y2="408.9" opacity="1.0" stroke="rgb(0,0,0)"  stroke-width="3"/>
<line x1="315.6" y1="414.9" x2="349.8" y2="434.6" opacity="1.0" stroke="rgb(0,0,0)"  stroke-width="3"/>
<line x1="383.9" y1="414.9" x2="383.9" y2="375.5" opacity="1.0" stroke="rgb(0,0,0)"  stroke-width="3"/>
<line x1="383.9" y1="375.5" x2="349.8" y2="355.8" opacity="1.0" stroke="rgb(0,0,0)"  stroke-width="3"/>
<line x1="375.1" y1="378.8" x2="351.4" y2="365.1" opacity="1.0" stroke="rgb(0,0,0)"  stroke-width="3"/>
<line x1="349.8" y1="355.8" x2="315.6" y2="375.5" opacity="1.0" stroke="rgb(0,0,0)"  stroke-width="3"/>
<line x1="486.2" y1="434.6" x2="520.4" y2="414.9" opacity="1.0" stroke="rgb(0,0,0)"  stroke-width="3"/>
<line x1="520.4" y1="414.9" x2="520.4" y2="375.5" opacity="1.0" stroke="rgb(0,0,0)"  stroke-width="3"/>
<line x1="513.2" y1="408.9" x2="513.2" y2="381.5" opacity="1.0" stroke="rgb(0,0,0)"  stroke-width="3"/>
<line x1="520.4" y1="375.5" x2="486.2" y2="355.8" opacity="1.0" stroke="rgb(0,0,0)"  stroke-width="3"/>
<line x1="486.2" y1="355.8" x2="452.1" y2="375.5" opacity="1.0" stroke="rgb(0,0,0)"  stroke-width="3"/>
<line x1="484.6" y1="365.1" x2="460.9" y2="378.8" opacity="1.0" stroke="rgb(0,0,0)"  stroke-width="3"/>
<line x1="452.1" y1="375.5" x2="452.1" y2="414.9" opacity="1.0" stroke="rgb(0,0,0)"  stroke-width="3"/>
<line x1="452.1" y1="414.9" x2="486.2" y2="434.6" opacity="1.0" stroke="rgb(0,0,0)"  stroke-width="3"/>
<line x1="460.9" y1="411.7" x2="484.6" y2="425.4" opacity="1.0" stroke="rgb(0,0,0)"  stroke-width="3"/>
<text x="136.360781" y="185.369410" fill="rgb(12,12,255)" stroke-width="0" font-weight="bold" font-size="25.92" >N</text>
<text x="343.838165" y="302.442548" fill="rgb(12,12,255)" stroke-width="0" font-weight="bold" font-size="25.92" >N</text>
<text x="206.456967" y="302.956803" fill="rgb(12,12,255)" stroke-width="0" font-weight="bold" font-size="25.92" >N</text>
<text x="273.774614" y="262.520535" fill="rgb(255,181,181)" stroke-width="0" font-weight="bold" font-size="25.92" >B</text>
<text x="357.138778" y="147.138193" fill="rgb(12,12,255)" stroke-width="0" font-weight="bold" font-size="25.92" >N</text>
</svg>
</g>
</svg>
