<?xml version="1.0"?>
<svg version="1.1" id="topsvg"
xmlns="http://www.w3.org/2000/svg" xmlns:xlink="http://www.w3.org/1999/xlink"
xmlns:cml="http://www.xml-cml.org/schema" x="0" y="0" width="200px" height="200px" viewBox="0 0 100 100">
<title>GD138.sdf - Open Babel Depiction</title>
<rect x="0" y="0" width="100" height="100" fill="white"/>
<g transform="translate(0,0)">
<svg width="100" height="100" x="0" y="0" viewBox="0 0 584.316 587.423"
font-family="sans-serif" stroke="rgb(0,0,0)" stroke-width="3"  stroke-linecap="round">
<line x1="510.2" y1="429.1" x2="510.2" y2="468.6" opacity="1.0" stroke="rgb(0,0,0)"  stroke-width="3"/>
<line x1="305.5" y1="367.2" x2="305.5" y2="468.5" opacity="1.0" stroke="rgb(0,0,0)"  stroke-width="3"/>
<line x1="118.8" y1="297.5" x2="79.4" y2="297.5" opacity="1.0" stroke="rgb(0,0,0)"  stroke-width="3"/>
<line x1="79.4" y1="297.5" x2="40.0" y2="297.5" opacity="1.0" stroke="rgb(0,0,0)"  stroke-width="3"/>
<line x1="59.7" y1="331.6" x2="79.4" y2="297.5" opacity="1.0" stroke="rgb(0,0,0)"  stroke-width="3"/>
<line x1="79.4" y1="297.5" x2="59.7" y2="263.4" opacity="1.0" stroke="rgb(0,0,0)"  stroke-width="3"/>
<line x1="339.6" y1="488.2" x2="373.7" y2="468.5" opacity="1.0" stroke="rgb(0,0,0)"  stroke-width="3"/>
<line x1="442.0" y1="429.1" x2="476.1" y2="409.4" opacity="1.0" stroke="rgb(0,0,0)"  stroke-width="3"/>
<line x1="380.3" y1="123.3" x2="399.5" y2="105.3" opacity="1.0" stroke="rgb(0,0,0)"  stroke-width="3"/>
<line x1="234.2" y1="171.3" x2="220.7" y2="134.2" opacity="1.0" stroke="rgb(0,0,0)"  stroke-width="3"/>
<line x1="220.7" y1="134.2" x2="181.6" y2="129.7" opacity="1.0" stroke="rgb(0,0,0)"  stroke-width="3"/>
<line x1="220.7" y1="134.2" x2="203.1" y2="99.0" opacity="1.0" stroke="rgb(0,0,0)"  stroke-width="3"/>
<line x1="220.7" y1="134.2" x2="240.4" y2="100.1" opacity="1.0" stroke="rgb(0,0,0)"  stroke-width="3"/>
<line x1="177.2" y1="262.2" x2="201.1" y2="230.9" opacity="1.0" stroke="rgb(0,0,0)"  stroke-width="3"/>
<line x1="201.1" y1="230.9" x2="235.6" y2="250.0" opacity="1.0" stroke="rgb(0,0,0)"  stroke-width="3"/>
<line x1="235.6" y1="250.0" x2="236.1" y2="276.4" opacity="1.0" stroke="rgb(0,0,0)"  stroke-width="3"/>
<line x1="223.6" y1="291.6" x2="197.6" y2="296.0" opacity="1.0" stroke="rgb(0,0,0)"  stroke-width="3"/>
<line x1="197.6" y1="296.0" x2="177.2" y2="262.2" opacity="1.0" stroke="rgb(0,0,0)"  stroke-width="3"/>
<line x1="200.6" y1="287.1" x2="186.5" y2="263.7" opacity="1.0" stroke="rgb(0,0,0)"  stroke-width="3"/>
<line x1="431.5" y1="261.9" x2="404.6" y2="233.1" opacity="1.0" stroke="rgb(0,0,0)"  stroke-width="3"/>
<line x1="404.6" y1="233.1" x2="368.9" y2="249.8" opacity="1.0" stroke="rgb(0,0,0)"  stroke-width="3"/>
<line x1="402.2" y1="242.2" x2="377.4" y2="253.8" opacity="1.0" stroke="rgb(0,0,0)"  stroke-width="3"/>
<line x1="368.9" y1="249.8" x2="372.2" y2="276.0" opacity="1.0" stroke="rgb(0,0,0)"  stroke-width="3"/>
<line x1="386.6" y1="291.4" x2="412.5" y2="296.4" opacity="1.0" stroke="rgb(0,0,0)"  stroke-width="3"/>
<line x1="412.5" y1="296.4" x2="431.5" y2="261.9" opacity="1.0" stroke="rgb(0,0,0)"  stroke-width="3"/>
<line x1="409.1" y1="287.6" x2="422.3" y2="263.6" opacity="1.0" stroke="rgb(0,0,0)"  stroke-width="3"/>
<line x1="332.1" y1="124.8" x2="358.0" y2="129.8" opacity="1.0" stroke="rgb(0,0,0)"  stroke-width="3"/>
<line x1="372.4" y1="145.1" x2="375.7" y2="171.3" opacity="1.0" stroke="rgb(0,0,0)"  stroke-width="3"/>
<line x1="375.7" y1="171.3" x2="340.0" y2="188.0" opacity="1.0" stroke="rgb(0,0,0)"  stroke-width="3"/>
<line x1="340.0" y1="188.0" x2="313.1" y2="159.3" opacity="1.0" stroke="rgb(0,0,0)"  stroke-width="3"/>
<line x1="313.1" y1="159.3" x2="332.1" y2="124.8" opacity="1.0" stroke="rgb(0,0,0)"  stroke-width="3"/>
<line x1="322.3" y1="157.5" x2="335.5" y2="133.5" opacity="1.0" stroke="rgb(0,0,0)"  stroke-width="3"/>
<line x1="476.1" y1="488.3" x2="510.2" y2="468.6" opacity="1.0" stroke="rgb(0,0,0)"  stroke-width="3"/>
<line x1="484.9" y1="491.6" x2="508.6" y2="477.9" opacity="1.0" stroke="rgb(0,0,0)"  stroke-width="3"/>
<line x1="510.2" y1="468.6" x2="544.3" y2="488.3" opacity="1.0" stroke="rgb(0,0,0)"  stroke-width="3"/>
<line x1="544.3" y1="488.3" x2="544.3" y2="527.7" opacity="1.0" stroke="rgb(0,0,0)"  stroke-width="3"/>
<line x1="537.1" y1="494.3" x2="537.1" y2="521.7" opacity="1.0" stroke="rgb(0,0,0)"  stroke-width="3"/>
<line x1="544.3" y1="527.7" x2="510.2" y2="547.4" opacity="1.0" stroke="rgb(0,0,0)"  stroke-width="3"/>
<line x1="510.2" y1="547.4" x2="476.1" y2="527.7" opacity="1.0" stroke="rgb(0,0,0)"  stroke-width="3"/>
<line x1="508.6" y1="538.2" x2="484.9" y2="524.5" opacity="1.0" stroke="rgb(0,0,0)"  stroke-width="3"/>
<line x1="476.1" y1="527.7" x2="476.1" y2="488.3" opacity="1.0" stroke="rgb(0,0,0)"  stroke-width="3"/>
<line x1="271.3" y1="347.7" x2="305.5" y2="367.2" opacity="1.0" stroke="rgb(0,0,0)"  stroke-width="3"/>
<line x1="305.5" y1="367.2" x2="339.5" y2="347.3" opacity="1.0" stroke="rgb(0,0,0)"  stroke-width="3"/>
<line x1="307.0" y1="357.9" x2="330.7" y2="344.1" opacity="1.0" stroke="rgb(0,0,0)"  stroke-width="3"/>
<line x1="339.5" y1="347.3" x2="339.3" y2="307.9" opacity="1.0" stroke="rgb(0,0,0)"  stroke-width="3"/>
<line x1="339.3" y1="307.9" x2="305.0" y2="288.4" opacity="1.0" stroke="rgb(0,0,0)"  stroke-width="3"/>
<line x1="330.5" y1="311.2" x2="306.7" y2="297.6" opacity="1.0" stroke="rgb(0,0,0)"  stroke-width="3"/>
<line x1="305.0" y1="288.4" x2="271.0" y2="308.3" opacity="1.0" stroke="rgb(0,0,0)"  stroke-width="3"/>
<line x1="271.0" y1="308.3" x2="271.3" y2="347.7" opacity="1.0" stroke="rgb(0,0,0)"  stroke-width="3"/>
<line x1="278.3" y1="314.2" x2="278.4" y2="341.6" opacity="1.0" stroke="rgb(0,0,0)"  stroke-width="3"/>
<line x1="304.2" y1="262.0" x2="305.0" y2="288.4" opacity="1.0" stroke="rgb(0,0,0)"  stroke-width="3"/>
<line x1="271.0" y1="308.3" x2="247.8" y2="295.6" opacity="1.0" stroke="rgb(0,0,0)"  stroke-width="3"/>
<line x1="235.6" y1="250.0" x2="269.4" y2="229.8" opacity="1.0" stroke="rgb(0,0,0)"  stroke-width="3"/>
<line x1="244.4" y1="253.1" x2="267.9" y2="239.0" opacity="1.0" stroke="rgb(0,0,0)"  stroke-width="3"/>
<line x1="269.4" y1="229.8" x2="292.4" y2="242.6" opacity="1.0" stroke="rgb(0,0,0)"  stroke-width="3"/>
<line x1="368.9" y1="249.8" x2="336.6" y2="227.3" opacity="1.0" stroke="rgb(0,0,0)"  stroke-width="3"/>
<line x1="336.6" y1="227.3" x2="314.6" y2="241.8" opacity="1.0" stroke="rgb(0,0,0)"  stroke-width="3"/>
<line x1="339.3" y1="307.9" x2="362.4" y2="295.2" opacity="1.0" stroke="rgb(0,0,0)"  stroke-width="3"/>
<line x1="139.1" y1="331.2" x2="178.5" y2="330.5" opacity="1.0" stroke="rgb(0,0,0)"  stroke-width="3"/>
<line x1="145.0" y1="323.9" x2="172.4" y2="323.4" opacity="1.0" stroke="rgb(0,0,0)"  stroke-width="3"/>
<line x1="178.5" y1="330.5" x2="197.6" y2="296.0" opacity="1.0" stroke="rgb(0,0,0)"  stroke-width="3"/>
<line x1="177.2" y1="262.2" x2="137.8" y2="263.0" opacity="1.0" stroke="rgb(0,0,0)"  stroke-width="3"/>
<line x1="137.8" y1="263.0" x2="118.8" y2="297.5" opacity="1.0" stroke="rgb(0,0,0)"  stroke-width="3"/>
<line x1="141.2" y1="271.7" x2="128.0" y2="295.7" opacity="1.0" stroke="rgb(0,0,0)"  stroke-width="3"/>
<line x1="118.8" y1="297.5" x2="139.1" y2="331.2" opacity="1.0" stroke="rgb(0,0,0)"  stroke-width="3"/>
<line x1="491.3" y1="294.8" x2="470.9" y2="261.1" opacity="1.0" stroke="rgb(0,0,0)"  stroke-width="3"/>
<line x1="482.0" y1="293.4" x2="467.8" y2="270.0" opacity="1.0" stroke="rgb(0,0,0)"  stroke-width="3"/>
<line x1="470.9" y1="261.1" x2="431.5" y2="261.9" opacity="1.0" stroke="rgb(0,0,0)"  stroke-width="3"/>
<line x1="412.5" y1="296.4" x2="432.8" y2="330.1" opacity="1.0" stroke="rgb(0,0,0)"  stroke-width="3"/>
<line x1="432.8" y1="330.1" x2="472.2" y2="329.3" opacity="1.0" stroke="rgb(0,0,0)"  stroke-width="3"/>
<line x1="438.7" y1="322.8" x2="466.1" y2="322.2" opacity="1.0" stroke="rgb(0,0,0)"  stroke-width="3"/>
<line x1="472.2" y1="329.3" x2="491.3" y2="294.8" opacity="1.0" stroke="rgb(0,0,0)"  stroke-width="3"/>
<line x1="340.0" y1="188.0" x2="336.6" y2="227.3" opacity="1.0" stroke="rgb(0,0,0)"  stroke-width="3"/>
<line x1="346.6" y1="194.6" x2="344.3" y2="221.9" opacity="1.0" stroke="rgb(0,0,0)"  stroke-width="3"/>
<line x1="404.6" y1="233.1" x2="408.0" y2="193.8" opacity="1.0" stroke="rgb(0,0,0)"  stroke-width="3"/>
<line x1="408.0" y1="193.8" x2="375.7" y2="171.3" opacity="1.0" stroke="rgb(0,0,0)"  stroke-width="3"/>
<line x1="398.9" y1="196.3" x2="376.5" y2="180.6" opacity="1.0" stroke="rgb(0,0,0)"  stroke-width="3"/>
<line x1="201.1" y1="230.9" x2="200.4" y2="191.5" opacity="1.0" stroke="rgb(0,0,0)"  stroke-width="3"/>
<line x1="208.2" y1="224.8" x2="207.8" y2="197.4" opacity="1.0" stroke="rgb(0,0,0)"  stroke-width="3"/>
<line x1="200.4" y1="191.5" x2="234.2" y2="171.3" opacity="1.0" stroke="rgb(0,0,0)"  stroke-width="3"/>
<line x1="234.2" y1="171.3" x2="268.7" y2="190.4" opacity="1.0" stroke="rgb(0,0,0)"  stroke-width="3"/>
<line x1="236.0" y1="180.5" x2="259.9" y2="193.7" opacity="1.0" stroke="rgb(0,0,0)"  stroke-width="3"/>
<line x1="268.7" y1="190.4" x2="269.4" y2="229.8" opacity="1.0" stroke="rgb(0,0,0)"  stroke-width="3"/>
<line x1="253.3" y1="126.3" x2="273.7" y2="160.0" opacity="1.0" stroke="rgb(0,0,0)"  stroke-width="3"/>
<line x1="262.6" y1="127.7" x2="276.7" y2="151.2" opacity="1.0" stroke="rgb(0,0,0)"  stroke-width="3"/>
<line x1="273.7" y1="160.0" x2="313.1" y2="159.3" opacity="1.0" stroke="rgb(0,0,0)"  stroke-width="3"/>
<line x1="332.1" y1="124.8" x2="311.7" y2="91.0" opacity="1.0" stroke="rgb(0,0,0)"  stroke-width="3"/>
<line x1="311.7" y1="91.0" x2="272.3" y2="91.8" opacity="1.0" stroke="rgb(0,0,0)"  stroke-width="3"/>
<line x1="305.9" y1="98.3" x2="278.5" y2="98.9" opacity="1.0" stroke="rgb(0,0,0)"  stroke-width="3"/>
<line x1="272.3" y1="91.8" x2="253.3" y2="126.3" opacity="1.0" stroke="rgb(0,0,0)"  stroke-width="3"/>
<line x1="271.4" y1="488.2" x2="271.4" y2="527.6" opacity="1.0" stroke="rgb(0,0,0)"  stroke-width="3"/>
<line x1="271.4" y1="527.6" x2="305.5" y2="547.3" opacity="1.0" stroke="rgb(0,0,0)"  stroke-width="3"/>
<line x1="280.2" y1="524.4" x2="303.9" y2="538.1" opacity="1.0" stroke="rgb(0,0,0)"  stroke-width="3"/>
<line x1="305.5" y1="547.3" x2="339.6" y2="527.6" opacity="1.0" stroke="rgb(0,0,0)"  stroke-width="3"/>
<line x1="339.6" y1="527.6" x2="339.6" y2="488.2" opacity="1.0" stroke="rgb(0,0,0)"  stroke-width="3"/>
<line x1="332.4" y1="521.6" x2="332.4" y2="494.2" opacity="1.0" stroke="rgb(0,0,0)"  stroke-width="3"/>
<line x1="339.6" y1="488.2" x2="305.5" y2="468.5" opacity="1.0" stroke="rgb(0,0,0)"  stroke-width="3"/>
<line x1="305.5" y1="468.5" x2="271.4" y2="488.2" opacity="1.0" stroke="rgb(0,0,0)"  stroke-width="3"/>
<line x1="303.9" y1="477.7" x2="280.2" y2="491.4" opacity="1.0" stroke="rgb(0,0,0)"  stroke-width="3"/>
<line x1="407.8" y1="488.2" x2="442.0" y2="468.5" opacity="1.0" stroke="rgb(0,0,0)"  stroke-width="3"/>
<line x1="442.0" y1="468.5" x2="442.0" y2="429.1" opacity="1.0" stroke="rgb(0,0,0)"  stroke-width="3"/>
<line x1="434.8" y1="462.5" x2="434.8" y2="435.1" opacity="1.0" stroke="rgb(0,0,0)"  stroke-width="3"/>
<line x1="442.0" y1="429.1" x2="407.8" y2="409.4" opacity="1.0" stroke="rgb(0,0,0)"  stroke-width="3"/>
<line x1="407.8" y1="409.4" x2="373.7" y2="429.1" opacity="1.0" stroke="rgb(0,0,0)"  stroke-width="3"/>
<line x1="406.2" y1="418.6" x2="382.5" y2="432.3" opacity="1.0" stroke="rgb(0,0,0)"  stroke-width="3"/>
<line x1="373.7" y1="429.1" x2="373.7" y2="468.5" opacity="1.0" stroke="rgb(0,0,0)"  stroke-width="3"/>
<line x1="373.7" y1="468.5" x2="407.8" y2="488.2" opacity="1.0" stroke="rgb(0,0,0)"  stroke-width="3"/>
<line x1="382.5" y1="465.3" x2="406.2" y2="479.0" opacity="1.0" stroke="rgb(0,0,0)"  stroke-width="3"/>
<line x1="339.6" y1="370.0" x2="339.6" y2="409.4" opacity="1.0" stroke="rgb(0,0,0)"  stroke-width="3"/>
<line x1="346.8" y1="376.0" x2="346.8" y2="403.4" opacity="1.0" stroke="rgb(0,0,0)"  stroke-width="3"/>
<line x1="339.6" y1="409.4" x2="373.7" y2="429.1" opacity="1.0" stroke="rgb(0,0,0)"  stroke-width="3"/>
<line x1="407.8" y1="409.4" x2="407.8" y2="370.0" opacity="1.0" stroke="rgb(0,0,0)"  stroke-width="3"/>
<line x1="407.8" y1="370.0" x2="373.7" y2="350.3" opacity="1.0" stroke="rgb(0,0,0)"  stroke-width="3"/>
<line x1="399.0" y1="373.2" x2="375.3" y2="359.5" opacity="1.0" stroke="rgb(0,0,0)"  stroke-width="3"/>
<line x1="373.7" y1="350.3" x2="339.6" y2="370.0" opacity="1.0" stroke="rgb(0,0,0)"  stroke-width="3"/>
<line x1="476.1" y1="527.6" x2="476.1" y2="488.2" opacity="1.0" stroke="rgb(0,0,0)"  stroke-width="3"/>
<line x1="468.9" y1="521.6" x2="468.9" y2="494.2" opacity="1.0" stroke="rgb(0,0,0)"  stroke-width="3"/>
<line x1="476.1" y1="488.2" x2="442.0" y2="468.5" opacity="1.0" stroke="rgb(0,0,0)"  stroke-width="3"/>
<line x1="407.8" y1="488.2" x2="407.8" y2="527.6" opacity="1.0" stroke="rgb(0,0,0)"  stroke-width="3"/>
<line x1="407.8" y1="527.6" x2="442.0" y2="547.3" opacity="1.0" stroke="rgb(0,0,0)"  stroke-width="3"/>
<line x1="416.6" y1="524.4" x2="440.4" y2="538.1" opacity="1.0" stroke="rgb(0,0,0)"  stroke-width="3"/>
<line x1="442.0" y1="547.3" x2="476.1" y2="527.6" opacity="1.0" stroke="rgb(0,0,0)"  stroke-width="3"/>
<line x1="510.2" y1="429.1" x2="544.3" y2="409.4" opacity="1.0" stroke="rgb(0,0,0)"  stroke-width="3"/>
<line x1="544.3" y1="409.4" x2="544.3" y2="370.0" opacity="1.0" stroke="rgb(0,0,0)"  stroke-width="3"/>
<line x1="537.1" y1="403.4" x2="537.1" y2="376.0" opacity="1.0" stroke="rgb(0,0,0)"  stroke-width="3"/>
<line x1="544.3" y1="370.0" x2="510.2" y2="350.3" opacity="1.0" stroke="rgb(0,0,0)"  stroke-width="3"/>
<line x1="510.2" y1="350.3" x2="476.1" y2="370.0" opacity="1.0" stroke="rgb(0,0,0)"  stroke-width="3"/>
<line x1="508.6" y1="359.5" x2="484.9" y2="373.2" opacity="1.0" stroke="rgb(0,0,0)"  stroke-width="3"/>
<line x1="476.1" y1="370.0" x2="476.1" y2="409.4" opacity="1.0" stroke="rgb(0,0,0)"  stroke-width="3"/>
<line x1="476.1" y1="409.4" x2="510.2" y2="429.1" opacity="1.0" stroke="rgb(0,0,0)"  stroke-width="3"/>
<line x1="484.9" y1="406.2" x2="508.6" y2="419.9" opacity="1.0" stroke="rgb(0,0,0)"  stroke-width="3"/>
<line x1="437.2" y1="116.7" x2="466.0" y2="89.8" opacity="1.0" stroke="rgb(0,0,0)"  stroke-width="3"/>
<line x1="466.0" y1="89.8" x2="457.1" y2="51.4" opacity="1.0" stroke="rgb(0,0,0)"  stroke-width="3"/>
<line x1="457.6" y1="85.6" x2="451.4" y2="58.9" opacity="1.0" stroke="rgb(0,0,0)"  stroke-width="3"/>
<line x1="457.1" y1="51.4" x2="419.4" y2="40.0" opacity="1.0" stroke="rgb(0,0,0)"  stroke-width="3"/>
<line x1="419.4" y1="40.0" x2="390.6" y2="66.9" opacity="1.0" stroke="rgb(0,0,0)"  stroke-width="3"/>
<line x1="419.9" y1="49.4" x2="399.9" y2="68.1" opacity="1.0" stroke="rgb(0,0,0)"  stroke-width="3"/>
<line x1="390.6" y1="66.9" x2="399.5" y2="105.3" opacity="1.0" stroke="rgb(0,0,0)"  stroke-width="3"/>
<line x1="399.5" y1="105.3" x2="437.2" y2="116.7" opacity="1.0" stroke="rgb(0,0,0)"  stroke-width="3"/>
<line x1="407.4" y1="100.1" x2="433.6" y2="108.1" opacity="1.0" stroke="rgb(0,0,0)"  stroke-width="3"/>
<text x="364.777939" y="140.214748" fill="rgb(12,12,255)" stroke-width="0" font-weight="bold" font-size="25.92" >N</text>
<text x="367.800350" y="296.911825" fill="rgb(12,12,255)" stroke-width="0" font-weight="bold" font-size="25.92" >N</text>
<text x="230.423729" y="297.426063" fill="rgb(12,12,255)" stroke-width="0" font-weight="bold" font-size="25.92" >N</text>
<text x="297.739181" y="256.991094" fill="rgb(255,181,181)" stroke-width="0" font-weight="bold" font-size="25.92" >B</text>
</svg>
</g>
</svg>
