<?xml version="1.0"?>
<svg version="1.1" id="topsvg"
xmlns="http://www.w3.org/2000/svg" xmlns:xlink="http://www.w3.org/1999/xlink"
xmlns:cml="http://www.xml-cml.org/schema" x="0" y="0" width="200px" height="200px" viewBox="0 0 100 100">
<title>GD137.sdf - Open Babel Depiction</title>
<rect x="0" y="0" width="100" height="100" fill="white"/>
<g transform="translate(0,0)">
<svg width="100" height="100" x="0" y="0" viewBox="0 0 549.774 586.533"
font-family="sans-serif" stroke="rgb(0,0,0)" stroke-width="3"  stroke-linecap="round">
<line x1="226.4" y1="366.7" x2="226.4" y2="467.9" opacity="1.0" stroke="rgb(0,0,0)"  stroke-width="3"/>
<line x1="260.5" y1="487.5" x2="294.5" y2="467.9" opacity="1.0" stroke="rgb(0,0,0)"  stroke-width="3"/>
<line x1="362.7" y1="428.5" x2="396.8" y2="408.8" opacity="1.0" stroke="rgb(0,0,0)"  stroke-width="3"/>
<line x1="301.1" y1="123.2" x2="320.3" y2="105.2" opacity="1.0" stroke="rgb(0,0,0)"  stroke-width="3"/>
<line x1="430.8" y1="428.5" x2="450.6" y2="462.7" opacity="1.0" stroke="rgb(0,0,0)"  stroke-width="3"/>
<line x1="98.3" y1="261.9" x2="122.2" y2="230.6" opacity="1.0" stroke="rgb(0,0,0)"  stroke-width="3"/>
<line x1="122.2" y1="230.6" x2="156.6" y2="249.7" opacity="1.0" stroke="rgb(0,0,0)"  stroke-width="3"/>
<line x1="156.6" y1="249.7" x2="157.2" y2="276.1" opacity="1.0" stroke="rgb(0,0,0)"  stroke-width="3"/>
<line x1="144.6" y1="291.2" x2="118.7" y2="295.6" opacity="1.0" stroke="rgb(0,0,0)"  stroke-width="3"/>
<line x1="118.7" y1="295.6" x2="98.3" y2="261.9" opacity="1.0" stroke="rgb(0,0,0)"  stroke-width="3"/>
<line x1="121.7" y1="286.7" x2="107.6" y2="263.3" opacity="1.0" stroke="rgb(0,0,0)"  stroke-width="3"/>
<line x1="352.3" y1="261.5" x2="325.4" y2="232.8" opacity="1.0" stroke="rgb(0,0,0)"  stroke-width="3"/>
<line x1="325.4" y1="232.8" x2="289.8" y2="249.5" opacity="1.0" stroke="rgb(0,0,0)"  stroke-width="3"/>
<line x1="323.0" y1="241.9" x2="298.2" y2="253.5" opacity="1.0" stroke="rgb(0,0,0)"  stroke-width="3"/>
<line x1="289.8" y1="249.5" x2="293.0" y2="275.6" opacity="1.0" stroke="rgb(0,0,0)"  stroke-width="3"/>
<line x1="307.4" y1="291.0" x2="333.3" y2="296.0" opacity="1.0" stroke="rgb(0,0,0)"  stroke-width="3"/>
<line x1="333.3" y1="296.0" x2="352.3" y2="261.5" opacity="1.0" stroke="rgb(0,0,0)"  stroke-width="3"/>
<line x1="329.9" y1="287.2" x2="343.1" y2="263.3" opacity="1.0" stroke="rgb(0,0,0)"  stroke-width="3"/>
<line x1="253.0" y1="124.6" x2="278.8" y2="129.6" opacity="1.0" stroke="rgb(0,0,0)"  stroke-width="3"/>
<line x1="293.2" y1="145.0" x2="296.5" y2="171.1" opacity="1.0" stroke="rgb(0,0,0)"  stroke-width="3"/>
<line x1="296.5" y1="171.1" x2="260.9" y2="187.8" opacity="1.0" stroke="rgb(0,0,0)"  stroke-width="3"/>
<line x1="260.9" y1="187.8" x2="234.0" y2="159.1" opacity="1.0" stroke="rgb(0,0,0)"  stroke-width="3"/>
<line x1="234.0" y1="159.1" x2="253.0" y2="124.6" opacity="1.0" stroke="rgb(0,0,0)"  stroke-width="3"/>
<line x1="243.2" y1="157.3" x2="256.4" y2="133.4" opacity="1.0" stroke="rgb(0,0,0)"  stroke-width="3"/>
<line x1="192.2" y1="347.2" x2="226.4" y2="366.7" opacity="1.0" stroke="rgb(0,0,0)"  stroke-width="3"/>
<line x1="226.4" y1="366.7" x2="260.4" y2="346.8" opacity="1.0" stroke="rgb(0,0,0)"  stroke-width="3"/>
<line x1="228.0" y1="357.4" x2="251.6" y2="343.6" opacity="1.0" stroke="rgb(0,0,0)"  stroke-width="3"/>
<line x1="260.4" y1="346.8" x2="260.1" y2="307.5" opacity="1.0" stroke="rgb(0,0,0)"  stroke-width="3"/>
<line x1="260.1" y1="307.5" x2="226.0" y2="288.0" opacity="1.0" stroke="rgb(0,0,0)"  stroke-width="3"/>
<line x1="251.4" y1="310.8" x2="227.6" y2="297.2" opacity="1.0" stroke="rgb(0,0,0)"  stroke-width="3"/>
<line x1="226.0" y1="288.0" x2="192.0" y2="307.9" opacity="1.0" stroke="rgb(0,0,0)"  stroke-width="3"/>
<line x1="192.0" y1="307.9" x2="192.2" y2="347.2" opacity="1.0" stroke="rgb(0,0,0)"  stroke-width="3"/>
<line x1="199.2" y1="313.8" x2="199.4" y2="341.2" opacity="1.0" stroke="rgb(0,0,0)"  stroke-width="3"/>
<line x1="225.1" y1="261.7" x2="226.0" y2="288.0" opacity="1.0" stroke="rgb(0,0,0)"  stroke-width="3"/>
<line x1="192.0" y1="307.9" x2="168.9" y2="295.3" opacity="1.0" stroke="rgb(0,0,0)"  stroke-width="3"/>
<line x1="156.6" y1="249.7" x2="190.3" y2="229.5" opacity="1.0" stroke="rgb(0,0,0)"  stroke-width="3"/>
<line x1="165.5" y1="252.8" x2="188.9" y2="238.7" opacity="1.0" stroke="rgb(0,0,0)"  stroke-width="3"/>
<line x1="190.3" y1="229.5" x2="213.3" y2="242.3" opacity="1.0" stroke="rgb(0,0,0)"  stroke-width="3"/>
<line x1="289.8" y1="249.5" x2="257.5" y2="227.0" opacity="1.0" stroke="rgb(0,0,0)"  stroke-width="3"/>
<line x1="257.5" y1="227.0" x2="235.5" y2="241.5" opacity="1.0" stroke="rgb(0,0,0)"  stroke-width="3"/>
<line x1="260.1" y1="307.5" x2="283.2" y2="294.8" opacity="1.0" stroke="rgb(0,0,0)"  stroke-width="3"/>
<line x1="60.3" y1="330.8" x2="99.7" y2="330.0" opacity="1.0" stroke="rgb(0,0,0)"  stroke-width="3"/>
<line x1="66.2" y1="323.5" x2="93.5" y2="323.0" opacity="1.0" stroke="rgb(0,0,0)"  stroke-width="3"/>
<line x1="99.7" y1="330.0" x2="118.7" y2="295.6" opacity="1.0" stroke="rgb(0,0,0)"  stroke-width="3"/>
<line x1="98.3" y1="261.9" x2="59.0" y2="262.7" opacity="1.0" stroke="rgb(0,0,0)"  stroke-width="3"/>
<line x1="59.0" y1="262.7" x2="40.0" y2="297.1" opacity="1.0" stroke="rgb(0,0,0)"  stroke-width="3"/>
<line x1="62.4" y1="271.4" x2="49.2" y2="295.3" opacity="1.0" stroke="rgb(0,0,0)"  stroke-width="3"/>
<line x1="40.0" y1="297.1" x2="60.3" y2="330.8" opacity="1.0" stroke="rgb(0,0,0)"  stroke-width="3"/>
<line x1="411.9" y1="294.5" x2="391.6" y2="260.8" opacity="1.0" stroke="rgb(0,0,0)"  stroke-width="3"/>
<line x1="402.7" y1="293.0" x2="388.5" y2="269.6" opacity="1.0" stroke="rgb(0,0,0)"  stroke-width="3"/>
<line x1="391.6" y1="260.8" x2="352.3" y2="261.5" opacity="1.0" stroke="rgb(0,0,0)"  stroke-width="3"/>
<line x1="333.3" y1="296.0" x2="353.6" y2="329.7" opacity="1.0" stroke="rgb(0,0,0)"  stroke-width="3"/>
<line x1="353.6" y1="329.7" x2="392.9" y2="328.9" opacity="1.0" stroke="rgb(0,0,0)"  stroke-width="3"/>
<line x1="359.4" y1="322.3" x2="386.8" y2="321.8" opacity="1.0" stroke="rgb(0,0,0)"  stroke-width="3"/>
<line x1="392.9" y1="328.9" x2="411.9" y2="294.5" opacity="1.0" stroke="rgb(0,0,0)"  stroke-width="3"/>
<line x1="260.9" y1="187.8" x2="257.5" y2="227.0" opacity="1.0" stroke="rgb(0,0,0)"  stroke-width="3"/>
<line x1="267.5" y1="194.4" x2="265.2" y2="221.6" opacity="1.0" stroke="rgb(0,0,0)"  stroke-width="3"/>
<line x1="325.4" y1="232.8" x2="328.7" y2="193.6" opacity="1.0" stroke="rgb(0,0,0)"  stroke-width="3"/>
<line x1="328.7" y1="193.6" x2="296.5" y2="171.1" opacity="1.0" stroke="rgb(0,0,0)"  stroke-width="3"/>
<line x1="319.7" y1="196.1" x2="297.3" y2="180.5" opacity="1.0" stroke="rgb(0,0,0)"  stroke-width="3"/>
<line x1="122.2" y1="230.6" x2="121.5" y2="191.3" opacity="1.0" stroke="rgb(0,0,0)"  stroke-width="3"/>
<line x1="129.3" y1="224.5" x2="128.8" y2="197.2" opacity="1.0" stroke="rgb(0,0,0)"  stroke-width="3"/>
<line x1="121.5" y1="191.3" x2="155.3" y2="171.1" opacity="1.0" stroke="rgb(0,0,0)"  stroke-width="3"/>
<line x1="155.3" y1="171.1" x2="189.7" y2="190.1" opacity="1.0" stroke="rgb(0,0,0)"  stroke-width="3"/>
<line x1="157.0" y1="180.3" x2="180.9" y2="193.5" opacity="1.0" stroke="rgb(0,0,0)"  stroke-width="3"/>
<line x1="189.7" y1="190.1" x2="190.3" y2="229.5" opacity="1.0" stroke="rgb(0,0,0)"  stroke-width="3"/>
<line x1="174.3" y1="126.2" x2="194.6" y2="159.8" opacity="1.0" stroke="rgb(0,0,0)"  stroke-width="3"/>
<line x1="183.6" y1="127.6" x2="197.7" y2="151.0" opacity="1.0" stroke="rgb(0,0,0)"  stroke-width="3"/>
<line x1="194.6" y1="159.8" x2="234.0" y2="159.1" opacity="1.0" stroke="rgb(0,0,0)"  stroke-width="3"/>
<line x1="253.0" y1="124.6" x2="232.7" y2="91.0" opacity="1.0" stroke="rgb(0,0,0)"  stroke-width="3"/>
<line x1="232.7" y1="91.0" x2="193.3" y2="91.7" opacity="1.0" stroke="rgb(0,0,0)"  stroke-width="3"/>
<line x1="226.8" y1="98.3" x2="199.5" y2="98.8" opacity="1.0" stroke="rgb(0,0,0)"  stroke-width="3"/>
<line x1="193.3" y1="91.7" x2="174.3" y2="126.2" opacity="1.0" stroke="rgb(0,0,0)"  stroke-width="3"/>
<line x1="192.3" y1="487.5" x2="192.3" y2="526.9" opacity="1.0" stroke="rgb(0,0,0)"  stroke-width="3"/>
<line x1="192.3" y1="526.9" x2="226.4" y2="546.5" opacity="1.0" stroke="rgb(0,0,0)"  stroke-width="3"/>
<line x1="201.1" y1="523.6" x2="224.8" y2="537.3" opacity="1.0" stroke="rgb(0,0,0)"  stroke-width="3"/>
<line x1="226.4" y1="546.5" x2="260.5" y2="526.9" opacity="1.0" stroke="rgb(0,0,0)"  stroke-width="3"/>
<line x1="260.5" y1="526.9" x2="260.5" y2="487.5" opacity="1.0" stroke="rgb(0,0,0)"  stroke-width="3"/>
<line x1="253.3" y1="520.9" x2="253.3" y2="493.5" opacity="1.0" stroke="rgb(0,0,0)"  stroke-width="3"/>
<line x1="260.5" y1="487.5" x2="226.4" y2="467.9" opacity="1.0" stroke="rgb(0,0,0)"  stroke-width="3"/>
<line x1="226.4" y1="467.9" x2="192.3" y2="487.5" opacity="1.0" stroke="rgb(0,0,0)"  stroke-width="3"/>
<line x1="224.8" y1="477.1" x2="201.1" y2="490.8" opacity="1.0" stroke="rgb(0,0,0)"  stroke-width="3"/>
<line x1="328.6" y1="487.5" x2="362.7" y2="467.9" opacity="1.0" stroke="rgb(0,0,0)"  stroke-width="3"/>
<line x1="362.7" y1="467.9" x2="362.7" y2="428.5" opacity="1.0" stroke="rgb(0,0,0)"  stroke-width="3"/>
<line x1="355.5" y1="461.9" x2="355.5" y2="434.5" opacity="1.0" stroke="rgb(0,0,0)"  stroke-width="3"/>
<line x1="362.7" y1="428.5" x2="328.6" y2="408.8" opacity="1.0" stroke="rgb(0,0,0)"  stroke-width="3"/>
<line x1="328.6" y1="408.8" x2="294.5" y2="428.5" opacity="1.0" stroke="rgb(0,0,0)"  stroke-width="3"/>
<line x1="327.0" y1="418.1" x2="303.3" y2="431.8" opacity="1.0" stroke="rgb(0,0,0)"  stroke-width="3"/>
<line x1="294.5" y1="428.5" x2="294.5" y2="467.9" opacity="1.0" stroke="rgb(0,0,0)"  stroke-width="3"/>
<line x1="294.5" y1="467.9" x2="328.6" y2="487.5" opacity="1.0" stroke="rgb(0,0,0)"  stroke-width="3"/>
<line x1="303.3" y1="464.6" x2="327.0" y2="478.3" opacity="1.0" stroke="rgb(0,0,0)"  stroke-width="3"/>
<line x1="260.5" y1="369.5" x2="260.5" y2="408.8" opacity="1.0" stroke="rgb(0,0,0)"  stroke-width="3"/>
<line x1="267.7" y1="375.5" x2="267.7" y2="402.8" opacity="1.0" stroke="rgb(0,0,0)"  stroke-width="3"/>
<line x1="260.5" y1="408.8" x2="294.5" y2="428.5" opacity="1.0" stroke="rgb(0,0,0)"  stroke-width="3"/>
<line x1="328.6" y1="408.8" x2="328.6" y2="369.5" opacity="1.0" stroke="rgb(0,0,0)"  stroke-width="3"/>
<line x1="328.6" y1="369.5" x2="294.5" y2="349.8" opacity="1.0" stroke="rgb(0,0,0)"  stroke-width="3"/>
<line x1="319.8" y1="372.7" x2="296.1" y2="359.1" opacity="1.0" stroke="rgb(0,0,0)"  stroke-width="3"/>
<line x1="294.5" y1="349.8" x2="260.5" y2="369.5" opacity="1.0" stroke="rgb(0,0,0)"  stroke-width="3"/>
<line x1="396.8" y1="526.9" x2="396.8" y2="487.5" opacity="1.0" stroke="rgb(0,0,0)"  stroke-width="3"/>
<line x1="389.6" y1="520.9" x2="389.6" y2="493.5" opacity="1.0" stroke="rgb(0,0,0)"  stroke-width="3"/>
<line x1="396.8" y1="487.5" x2="362.7" y2="467.9" opacity="1.0" stroke="rgb(0,0,0)"  stroke-width="3"/>
<line x1="328.6" y1="487.5" x2="328.6" y2="526.9" opacity="1.0" stroke="rgb(0,0,0)"  stroke-width="3"/>
<line x1="328.6" y1="526.9" x2="362.7" y2="546.5" opacity="1.0" stroke="rgb(0,0,0)"  stroke-width="3"/>
<line x1="337.4" y1="523.6" x2="361.1" y2="537.3" opacity="1.0" stroke="rgb(0,0,0)"  stroke-width="3"/>
<line x1="362.7" y1="546.5" x2="396.8" y2="526.9" opacity="1.0" stroke="rgb(0,0,0)"  stroke-width="3"/>
<line x1="430.8" y1="428.5" x2="464.9" y2="408.8" opacity="1.0" stroke="rgb(0,0,0)"  stroke-width="3"/>
<line x1="464.9" y1="408.8" x2="464.9" y2="369.5" opacity="1.0" stroke="rgb(0,0,0)"  stroke-width="3"/>
<line x1="457.7" y1="402.8" x2="457.7" y2="375.5" opacity="1.0" stroke="rgb(0,0,0)"  stroke-width="3"/>
<line x1="464.9" y1="369.5" x2="430.8" y2="349.8" opacity="1.0" stroke="rgb(0,0,0)"  stroke-width="3"/>
<line x1="430.8" y1="349.8" x2="396.8" y2="369.5" opacity="1.0" stroke="rgb(0,0,0)"  stroke-width="3"/>
<line x1="429.2" y1="359.1" x2="405.5" y2="372.7" opacity="1.0" stroke="rgb(0,0,0)"  stroke-width="3"/>
<line x1="396.8" y1="369.5" x2="396.8" y2="408.8" opacity="1.0" stroke="rgb(0,0,0)"  stroke-width="3"/>
<line x1="396.8" y1="408.8" x2="430.8" y2="428.5" opacity="1.0" stroke="rgb(0,0,0)"  stroke-width="3"/>
<line x1="405.5" y1="405.6" x2="429.2" y2="419.3" opacity="1.0" stroke="rgb(0,0,0)"  stroke-width="3"/>
<line x1="358.0" y1="116.6" x2="386.7" y2="89.7" opacity="1.0" stroke="rgb(0,0,0)"  stroke-width="3"/>
<line x1="386.7" y1="89.7" x2="377.8" y2="51.4" opacity="1.0" stroke="rgb(0,0,0)"  stroke-width="3"/>
<line x1="378.3" y1="85.5" x2="372.1" y2="58.9" opacity="1.0" stroke="rgb(0,0,0)"  stroke-width="3"/>
<line x1="377.8" y1="51.4" x2="340.1" y2="40.0" opacity="1.0" stroke="rgb(0,0,0)"  stroke-width="3"/>
<line x1="340.1" y1="40.0" x2="311.4" y2="66.9" opacity="1.0" stroke="rgb(0,0,0)"  stroke-width="3"/>
<line x1="340.7" y1="49.4" x2="320.7" y2="68.0" opacity="1.0" stroke="rgb(0,0,0)"  stroke-width="3"/>
<line x1="311.4" y1="66.9" x2="320.3" y2="105.2" opacity="1.0" stroke="rgb(0,0,0)"  stroke-width="3"/>
<line x1="320.3" y1="105.2" x2="358.0" y2="116.6" opacity="1.0" stroke="rgb(0,0,0)"  stroke-width="3"/>
<line x1="328.2" y1="100.1" x2="354.3" y2="108.0" opacity="1.0" stroke="rgb(0,0,0)"  stroke-width="3"/>
<line x1="430.8" y1="496.9" x2="450.6" y2="531.1" opacity="1.0" stroke="rgb(0,0,0)"  stroke-width="3"/>
<line x1="450.6" y1="531.1" x2="490.0" y2="531.1" opacity="1.0" stroke="rgb(0,0,0)"  stroke-width="3"/>
<line x1="456.6" y1="523.9" x2="484.0" y2="523.9" opacity="1.0" stroke="rgb(0,0,0)"  stroke-width="3"/>
<line x1="490.0" y1="531.1" x2="509.8" y2="496.9" opacity="1.0" stroke="rgb(0,0,0)"  stroke-width="3"/>
<line x1="509.8" y1="496.9" x2="490.0" y2="462.7" opacity="1.0" stroke="rgb(0,0,0)"  stroke-width="3"/>
<line x1="500.5" y1="495.3" x2="486.8" y2="471.5" opacity="1.0" stroke="rgb(0,0,0)"  stroke-width="3"/>
<line x1="490.0" y1="462.7" x2="450.6" y2="462.7" opacity="1.0" stroke="rgb(0,0,0)"  stroke-width="3"/>
<line x1="450.6" y1="462.7" x2="430.8" y2="496.9" opacity="1.0" stroke="rgb(0,0,0)"  stroke-width="3"/>
<line x1="453.8" y1="471.5" x2="440.1" y2="495.3" opacity="1.0" stroke="rgb(0,0,0)"  stroke-width="3"/>
<text x="285.609469" y="140.077927" fill="rgb(12,12,255)" stroke-width="0" font-weight="bold" font-size="25.92" >N</text>
<text x="288.627396" y="296.542638" fill="rgb(12,12,255)" stroke-width="0" font-weight="bold" font-size="25.92" >N</text>
<text x="151.454532" y="297.056113" fill="rgb(12,12,255)" stroke-width="0" font-weight="bold" font-size="25.92" >N</text>
<text x="218.670095" y="256.681070" fill="rgb(255,181,181)" stroke-width="0" font-weight="bold" font-size="25.92" >B</text>
</svg>
</g>
</svg>
