<?xml version="1.0"?>
<svg version="1.1" id="topsvg"
xmlns="http://www.w3.org/2000/svg" xmlns:xlink="http://www.w3.org/1999/xlink"
xmlns:cml="http://www.xml-cml.org/schema" x="0" y="0" width="200px" height="200px" viewBox="0 0 100 100">
<title>GD140.sdf - Open Babel Depiction</title>
<rect x="0" y="0" width="100" height="100" fill="white"/>
<g transform="translate(0,0)">
<svg width="100" height="100" x="0" y="0" viewBox="0 0 587.39 583.463"
font-family="sans-serif" stroke="rgb(0,0,0)" stroke-width="3"  stroke-linecap="round">
<line x1="437.4" y1="116.8" x2="447.6" y2="155.0" opacity="1.0" stroke="rgb(0,0,0)"  stroke-width="3"/>
<line x1="118.8" y1="297.6" x2="79.4" y2="297.6" opacity="1.0" stroke="rgb(0,0,0)"  stroke-width="3"/>
<line x1="79.4" y1="297.6" x2="40.0" y2="297.6" opacity="1.0" stroke="rgb(0,0,0)"  stroke-width="3"/>
<line x1="59.7" y1="331.7" x2="79.4" y2="297.6" opacity="1.0" stroke="rgb(0,0,0)"  stroke-width="3"/>
<line x1="79.4" y1="297.6" x2="59.7" y2="263.5" opacity="1.0" stroke="rgb(0,0,0)"  stroke-width="3"/>
<line x1="305.6" y1="367.3" x2="307.6" y2="464.4" opacity="1.0" stroke="rgb(0,0,0)"  stroke-width="3"/>
<line x1="380.4" y1="123.4" x2="399.7" y2="105.3" opacity="1.0" stroke="rgb(0,0,0)"  stroke-width="3"/>
<line x1="234.3" y1="171.3" x2="220.8" y2="134.3" opacity="1.0" stroke="rgb(0,0,0)"  stroke-width="3"/>
<line x1="220.8" y1="134.3" x2="205.2" y2="98.1" opacity="1.0" stroke="rgb(0,0,0)"  stroke-width="3"/>
<line x1="220.8" y1="134.3" x2="240.5" y2="100.1" opacity="1.0" stroke="rgb(0,0,0)"  stroke-width="3"/>
<line x1="220.8" y1="134.3" x2="181.5" y2="132.0" opacity="1.0" stroke="rgb(0,0,0)"  stroke-width="3"/>
<line x1="341.9" y1="484.1" x2="376.1" y2="464.4" opacity="1.0" stroke="rgb(0,0,0)"  stroke-width="3"/>
<line x1="444.6" y1="424.8" x2="478.9" y2="405.0" opacity="1.0" stroke="rgb(0,0,0)"  stroke-width="3"/>
<line x1="177.3" y1="262.3" x2="201.2" y2="231.0" opacity="1.0" stroke="rgb(0,0,0)"  stroke-width="3"/>
<line x1="201.2" y1="231.0" x2="235.7" y2="250.1" opacity="1.0" stroke="rgb(0,0,0)"  stroke-width="3"/>
<line x1="235.7" y1="250.1" x2="236.2" y2="276.5" opacity="1.0" stroke="rgb(0,0,0)"  stroke-width="3"/>
<line x1="223.7" y1="291.7" x2="197.6" y2="296.1" opacity="1.0" stroke="rgb(0,0,0)"  stroke-width="3"/>
<line x1="197.6" y1="296.1" x2="177.3" y2="262.3" opacity="1.0" stroke="rgb(0,0,0)"  stroke-width="3"/>
<line x1="200.7" y1="287.2" x2="186.5" y2="263.7" opacity="1.0" stroke="rgb(0,0,0)"  stroke-width="3"/>
<line x1="431.7" y1="261.9" x2="404.7" y2="233.2" opacity="1.0" stroke="rgb(0,0,0)"  stroke-width="3"/>
<line x1="404.7" y1="233.2" x2="369.0" y2="249.9" opacity="1.0" stroke="rgb(0,0,0)"  stroke-width="3"/>
<line x1="402.4" y1="242.2" x2="377.5" y2="253.9" opacity="1.0" stroke="rgb(0,0,0)"  stroke-width="3"/>
<line x1="369.0" y1="249.9" x2="372.3" y2="276.1" opacity="1.0" stroke="rgb(0,0,0)"  stroke-width="3"/>
<line x1="386.7" y1="291.5" x2="412.6" y2="296.5" opacity="1.0" stroke="rgb(0,0,0)"  stroke-width="3"/>
<line x1="412.6" y1="296.5" x2="431.7" y2="261.9" opacity="1.0" stroke="rgb(0,0,0)"  stroke-width="3"/>
<line x1="409.2" y1="287.7" x2="422.5" y2="263.7" opacity="1.0" stroke="rgb(0,0,0)"  stroke-width="3"/>
<line x1="332.2" y1="124.8" x2="358.1" y2="129.8" opacity="1.0" stroke="rgb(0,0,0)"  stroke-width="3"/>
<line x1="372.5" y1="145.1" x2="375.8" y2="171.4" opacity="1.0" stroke="rgb(0,0,0)"  stroke-width="3"/>
<line x1="375.8" y1="171.4" x2="340.1" y2="188.1" opacity="1.0" stroke="rgb(0,0,0)"  stroke-width="3"/>
<line x1="340.1" y1="188.1" x2="313.2" y2="159.3" opacity="1.0" stroke="rgb(0,0,0)"  stroke-width="3"/>
<line x1="313.2" y1="159.3" x2="332.2" y2="124.8" opacity="1.0" stroke="rgb(0,0,0)"  stroke-width="3"/>
<line x1="322.4" y1="157.5" x2="335.6" y2="133.5" opacity="1.0" stroke="rgb(0,0,0)"  stroke-width="3"/>
<line x1="419.7" y1="182.8" x2="447.6" y2="155.0" opacity="1.0" stroke="rgb(0,0,0)"  stroke-width="3"/>
<line x1="429.1" y1="183.7" x2="448.5" y2="164.3" opacity="1.0" stroke="rgb(0,0,0)"  stroke-width="3"/>
<line x1="447.6" y1="155.0" x2="485.7" y2="165.2" opacity="1.0" stroke="rgb(0,0,0)"  stroke-width="3"/>
<line x1="485.7" y1="165.2" x2="495.9" y2="203.2" opacity="1.0" stroke="rgb(0,0,0)"  stroke-width="3"/>
<line x1="480.3" y1="172.8" x2="487.4" y2="199.3" opacity="1.0" stroke="rgb(0,0,0)"  stroke-width="3"/>
<line x1="495.9" y1="203.2" x2="468.0" y2="231.1" opacity="1.0" stroke="rgb(0,0,0)"  stroke-width="3"/>
<line x1="468.0" y1="231.1" x2="429.9" y2="220.9" opacity="1.0" stroke="rgb(0,0,0)"  stroke-width="3"/>
<line x1="464.1" y1="222.6" x2="437.6" y2="215.5" opacity="1.0" stroke="rgb(0,0,0)"  stroke-width="3"/>
<line x1="429.9" y1="220.9" x2="419.7" y2="182.8" opacity="1.0" stroke="rgb(0,0,0)"  stroke-width="3"/>
<line x1="271.3" y1="347.8" x2="305.6" y2="367.3" opacity="1.0" stroke="rgb(0,0,0)"  stroke-width="3"/>
<line x1="305.6" y1="367.3" x2="339.6" y2="347.4" opacity="1.0" stroke="rgb(0,0,0)"  stroke-width="3"/>
<line x1="307.1" y1="358.0" x2="330.8" y2="344.2" opacity="1.0" stroke="rgb(0,0,0)"  stroke-width="3"/>
<line x1="339.6" y1="347.4" x2="339.4" y2="308.0" opacity="1.0" stroke="rgb(0,0,0)"  stroke-width="3"/>
<line x1="339.4" y1="308.0" x2="305.1" y2="288.5" opacity="1.0" stroke="rgb(0,0,0)"  stroke-width="3"/>
<line x1="330.6" y1="311.3" x2="306.8" y2="297.7" opacity="1.0" stroke="rgb(0,0,0)"  stroke-width="3"/>
<line x1="305.1" y1="288.5" x2="271.1" y2="308.4" opacity="1.0" stroke="rgb(0,0,0)"  stroke-width="3"/>
<line x1="271.1" y1="308.4" x2="271.3" y2="347.8" opacity="1.0" stroke="rgb(0,0,0)"  stroke-width="3"/>
<line x1="278.3" y1="314.3" x2="278.5" y2="341.7" opacity="1.0" stroke="rgb(0,0,0)"  stroke-width="3"/>
<line x1="304.3" y1="262.1" x2="305.1" y2="288.5" opacity="1.0" stroke="rgb(0,0,0)"  stroke-width="3"/>
<line x1="271.1" y1="308.4" x2="247.9" y2="295.7" opacity="1.0" stroke="rgb(0,0,0)"  stroke-width="3"/>
<line x1="235.7" y1="250.1" x2="269.4" y2="229.8" opacity="1.0" stroke="rgb(0,0,0)"  stroke-width="3"/>
<line x1="244.5" y1="253.2" x2="268.0" y2="239.1" opacity="1.0" stroke="rgb(0,0,0)"  stroke-width="3"/>
<line x1="269.4" y1="229.8" x2="292.5" y2="242.7" opacity="1.0" stroke="rgb(0,0,0)"  stroke-width="3"/>
<line x1="369.0" y1="249.9" x2="336.7" y2="227.3" opacity="1.0" stroke="rgb(0,0,0)"  stroke-width="3"/>
<line x1="336.7" y1="227.3" x2="314.7" y2="241.9" opacity="1.0" stroke="rgb(0,0,0)"  stroke-width="3"/>
<line x1="339.4" y1="308.0" x2="362.5" y2="295.3" opacity="1.0" stroke="rgb(0,0,0)"  stroke-width="3"/>
<line x1="139.2" y1="331.3" x2="178.6" y2="330.6" opacity="1.0" stroke="rgb(0,0,0)"  stroke-width="3"/>
<line x1="145.0" y1="324.0" x2="172.4" y2="323.5" opacity="1.0" stroke="rgb(0,0,0)"  stroke-width="3"/>
<line x1="178.6" y1="330.6" x2="197.6" y2="296.1" opacity="1.0" stroke="rgb(0,0,0)"  stroke-width="3"/>
<line x1="177.3" y1="262.3" x2="137.9" y2="263.1" opacity="1.0" stroke="rgb(0,0,0)"  stroke-width="3"/>
<line x1="137.9" y1="263.1" x2="118.8" y2="297.6" opacity="1.0" stroke="rgb(0,0,0)"  stroke-width="3"/>
<line x1="141.3" y1="271.8" x2="128.0" y2="295.8" opacity="1.0" stroke="rgb(0,0,0)"  stroke-width="3"/>
<line x1="118.8" y1="297.6" x2="139.2" y2="331.3" opacity="1.0" stroke="rgb(0,0,0)"  stroke-width="3"/>
<line x1="491.4" y1="294.9" x2="471.1" y2="261.2" opacity="1.0" stroke="rgb(0,0,0)"  stroke-width="3"/>
<line x1="482.2" y1="293.5" x2="468.0" y2="270.0" opacity="1.0" stroke="rgb(0,0,0)"  stroke-width="3"/>
<line x1="471.1" y1="261.2" x2="431.7" y2="261.9" opacity="1.0" stroke="rgb(0,0,0)"  stroke-width="3"/>
<line x1="412.6" y1="296.5" x2="433.0" y2="330.2" opacity="1.0" stroke="rgb(0,0,0)"  stroke-width="3"/>
<line x1="433.0" y1="330.2" x2="472.4" y2="329.4" opacity="1.0" stroke="rgb(0,0,0)"  stroke-width="3"/>
<line x1="438.8" y1="322.9" x2="466.2" y2="322.4" opacity="1.0" stroke="rgb(0,0,0)"  stroke-width="3"/>
<line x1="472.4" y1="329.4" x2="491.4" y2="294.9" opacity="1.0" stroke="rgb(0,0,0)"  stroke-width="3"/>
<line x1="340.1" y1="188.1" x2="336.7" y2="227.3" opacity="1.0" stroke="rgb(0,0,0)"  stroke-width="3"/>
<line x1="346.7" y1="194.7" x2="344.4" y2="222.0" opacity="1.0" stroke="rgb(0,0,0)"  stroke-width="3"/>
<line x1="404.7" y1="233.2" x2="408.1" y2="193.9" opacity="1.0" stroke="rgb(0,0,0)"  stroke-width="3"/>
<line x1="408.1" y1="193.9" x2="375.8" y2="171.4" opacity="1.0" stroke="rgb(0,0,0)"  stroke-width="3"/>
<line x1="399.1" y1="196.4" x2="376.6" y2="180.7" opacity="1.0" stroke="rgb(0,0,0)"  stroke-width="3"/>
<line x1="201.2" y1="231.0" x2="200.5" y2="191.6" opacity="1.0" stroke="rgb(0,0,0)"  stroke-width="3"/>
<line x1="208.3" y1="224.9" x2="207.8" y2="197.5" opacity="1.0" stroke="rgb(0,0,0)"  stroke-width="3"/>
<line x1="200.5" y1="191.6" x2="234.3" y2="171.3" opacity="1.0" stroke="rgb(0,0,0)"  stroke-width="3"/>
<line x1="234.3" y1="171.3" x2="268.8" y2="190.4" opacity="1.0" stroke="rgb(0,0,0)"  stroke-width="3"/>
<line x1="236.0" y1="180.5" x2="260.0" y2="193.8" opacity="1.0" stroke="rgb(0,0,0)"  stroke-width="3"/>
<line x1="268.8" y1="190.4" x2="269.4" y2="229.8" opacity="1.0" stroke="rgb(0,0,0)"  stroke-width="3"/>
<line x1="254.7" y1="124.8" x2="273.7" y2="159.3" opacity="1.0" stroke="rgb(0,0,0)"  stroke-width="3"/>
<line x1="263.9" y1="126.6" x2="277.2" y2="150.6" opacity="1.0" stroke="rgb(0,0,0)"  stroke-width="3"/>
<line x1="273.7" y1="159.3" x2="313.2" y2="159.3" opacity="1.0" stroke="rgb(0,0,0)"  stroke-width="3"/>
<line x1="332.2" y1="124.8" x2="313.2" y2="91.1" opacity="1.0" stroke="rgb(0,0,0)"  stroke-width="3"/>
<line x1="313.2" y1="91.1" x2="273.7" y2="91.1" opacity="1.0" stroke="rgb(0,0,0)"  stroke-width="3"/>
<line x1="307.2" y1="98.3" x2="279.7" y2="98.3" opacity="1.0" stroke="rgb(0,0,0)"  stroke-width="3"/>
<line x1="273.7" y1="91.1" x2="254.7" y2="124.8" opacity="1.0" stroke="rgb(0,0,0)"  stroke-width="3"/>
<line x1="437.4" y1="116.8" x2="466.2" y2="89.8" opacity="1.0" stroke="rgb(0,0,0)"  stroke-width="3"/>
<line x1="466.2" y1="89.8" x2="457.2" y2="51.5" opacity="1.0" stroke="rgb(0,0,0)"  stroke-width="3"/>
<line x1="457.8" y1="85.6" x2="451.6" y2="58.9" opacity="1.0" stroke="rgb(0,0,0)"  stroke-width="3"/>
<line x1="457.2" y1="51.5" x2="419.5" y2="40.0" opacity="1.0" stroke="rgb(0,0,0)"  stroke-width="3"/>
<line x1="419.5" y1="40.0" x2="390.7" y2="66.9" opacity="1.0" stroke="rgb(0,0,0)"  stroke-width="3"/>
<line x1="420.0" y1="49.4" x2="400.0" y2="68.1" opacity="1.0" stroke="rgb(0,0,0)"  stroke-width="3"/>
<line x1="390.7" y1="66.9" x2="399.7" y2="105.3" opacity="1.0" stroke="rgb(0,0,0)"  stroke-width="3"/>
<line x1="399.7" y1="105.3" x2="437.4" y2="116.8" opacity="1.0" stroke="rgb(0,0,0)"  stroke-width="3"/>
<line x1="407.5" y1="100.2" x2="433.7" y2="108.1" opacity="1.0" stroke="rgb(0,0,0)"  stroke-width="3"/>
<line x1="273.4" y1="484.1" x2="273.4" y2="523.7" opacity="1.0" stroke="rgb(0,0,0)"  stroke-width="3"/>
<line x1="273.4" y1="523.7" x2="307.6" y2="543.5" opacity="1.0" stroke="rgb(0,0,0)"  stroke-width="3"/>
<line x1="282.2" y1="520.5" x2="306.0" y2="534.2" opacity="1.0" stroke="rgb(0,0,0)"  stroke-width="3"/>
<line x1="307.6" y1="543.5" x2="341.9" y2="523.7" opacity="1.0" stroke="rgb(0,0,0)"  stroke-width="3"/>
<line x1="341.9" y1="523.7" x2="341.9" y2="484.1" opacity="1.0" stroke="rgb(0,0,0)"  stroke-width="3"/>
<line x1="334.7" y1="517.7" x2="334.7" y2="490.1" opacity="1.0" stroke="rgb(0,0,0)"  stroke-width="3"/>
<line x1="341.9" y1="484.1" x2="307.6" y2="464.4" opacity="1.0" stroke="rgb(0,0,0)"  stroke-width="3"/>
<line x1="307.6" y1="464.4" x2="273.4" y2="484.1" opacity="1.0" stroke="rgb(0,0,0)"  stroke-width="3"/>
<line x1="306.0" y1="473.6" x2="282.2" y2="487.4" opacity="1.0" stroke="rgb(0,0,0)"  stroke-width="3"/>
<line x1="410.4" y1="484.1" x2="444.6" y2="464.4" opacity="1.0" stroke="rgb(0,0,0)"  stroke-width="3"/>
<line x1="444.6" y1="464.4" x2="444.6" y2="424.8" opacity="1.0" stroke="rgb(0,0,0)"  stroke-width="3"/>
<line x1="437.4" y1="458.4" x2="437.4" y2="430.8" opacity="1.0" stroke="rgb(0,0,0)"  stroke-width="3"/>
<line x1="444.6" y1="424.8" x2="410.4" y2="405.0" opacity="1.0" stroke="rgb(0,0,0)"  stroke-width="3"/>
<line x1="410.4" y1="405.0" x2="376.1" y2="424.8" opacity="1.0" stroke="rgb(0,0,0)"  stroke-width="3"/>
<line x1="408.8" y1="414.3" x2="384.9" y2="428.1" opacity="1.0" stroke="rgb(0,0,0)"  stroke-width="3"/>
<line x1="376.1" y1="424.8" x2="376.1" y2="464.4" opacity="1.0" stroke="rgb(0,0,0)"  stroke-width="3"/>
<line x1="376.1" y1="464.4" x2="410.4" y2="484.1" opacity="1.0" stroke="rgb(0,0,0)"  stroke-width="3"/>
<line x1="384.9" y1="461.1" x2="408.8" y2="474.9" opacity="1.0" stroke="rgb(0,0,0)"  stroke-width="3"/>
<line x1="478.9" y1="523.7" x2="478.9" y2="484.1" opacity="1.0" stroke="rgb(0,0,0)"  stroke-width="3"/>
<line x1="471.7" y1="517.7" x2="471.7" y2="490.1" opacity="1.0" stroke="rgb(0,0,0)"  stroke-width="3"/>
<line x1="478.9" y1="484.1" x2="444.6" y2="464.4" opacity="1.0" stroke="rgb(0,0,0)"  stroke-width="3"/>
<line x1="410.4" y1="484.1" x2="410.4" y2="523.7" opacity="1.0" stroke="rgb(0,0,0)"  stroke-width="3"/>
<line x1="410.4" y1="523.7" x2="444.6" y2="543.5" opacity="1.0" stroke="rgb(0,0,0)"  stroke-width="3"/>
<line x1="419.2" y1="520.5" x2="443.0" y2="534.2" opacity="1.0" stroke="rgb(0,0,0)"  stroke-width="3"/>
<line x1="444.6" y1="543.5" x2="478.9" y2="523.7" opacity="1.0" stroke="rgb(0,0,0)"  stroke-width="3"/>
<line x1="341.9" y1="365.5" x2="341.9" y2="405.0" opacity="1.0" stroke="rgb(0,0,0)"  stroke-width="3"/>
<line x1="349.1" y1="371.5" x2="349.1" y2="399.0" opacity="1.0" stroke="rgb(0,0,0)"  stroke-width="3"/>
<line x1="341.9" y1="405.0" x2="376.1" y2="424.8" opacity="1.0" stroke="rgb(0,0,0)"  stroke-width="3"/>
<line x1="410.4" y1="405.0" x2="410.4" y2="365.5" opacity="1.0" stroke="rgb(0,0,0)"  stroke-width="3"/>
<line x1="410.4" y1="365.5" x2="376.1" y2="345.7" opacity="1.0" stroke="rgb(0,0,0)"  stroke-width="3"/>
<line x1="401.6" y1="368.7" x2="377.7" y2="355.0" opacity="1.0" stroke="rgb(0,0,0)"  stroke-width="3"/>
<line x1="376.1" y1="345.7" x2="341.9" y2="365.5" opacity="1.0" stroke="rgb(0,0,0)"  stroke-width="3"/>
<line x1="513.1" y1="424.8" x2="547.4" y2="405.0" opacity="1.0" stroke="rgb(0,0,0)"  stroke-width="3"/>
<line x1="547.4" y1="405.0" x2="547.4" y2="365.5" opacity="1.0" stroke="rgb(0,0,0)"  stroke-width="3"/>
<line x1="540.2" y1="399.0" x2="540.2" y2="371.5" opacity="1.0" stroke="rgb(0,0,0)"  stroke-width="3"/>
<line x1="547.4" y1="365.5" x2="513.1" y2="345.7" opacity="1.0" stroke="rgb(0,0,0)"  stroke-width="3"/>
<line x1="513.1" y1="345.7" x2="478.9" y2="365.5" opacity="1.0" stroke="rgb(0,0,0)"  stroke-width="3"/>
<line x1="511.5" y1="355.0" x2="487.7" y2="368.7" opacity="1.0" stroke="rgb(0,0,0)"  stroke-width="3"/>
<line x1="478.9" y1="365.5" x2="478.9" y2="405.0" opacity="1.0" stroke="rgb(0,0,0)"  stroke-width="3"/>
<line x1="478.9" y1="405.0" x2="513.1" y2="424.8" opacity="1.0" stroke="rgb(0,0,0)"  stroke-width="3"/>
<line x1="487.7" y1="401.8" x2="511.5" y2="415.6" opacity="1.0" stroke="rgb(0,0,0)"  stroke-width="3"/>
<text x="367.920315" y="297.001282" fill="rgb(12,12,255)" stroke-width="0" font-weight="bold" font-size="25.92" >N</text>
<text x="230.494322" y="297.515704" fill="rgb(12,12,255)" stroke-width="0" font-weight="bold" font-size="25.92" >N</text>
<text x="297.833919" y="257.066251" fill="rgb(255,181,181)" stroke-width="0" font-weight="bold" font-size="25.92" >B</text>
<text x="364.896770" y="140.247889" fill="rgb(12,12,255)" stroke-width="0" font-weight="bold" font-size="25.92" >N</text>
</svg>
</g>
</svg>
