<?xml version="1.0"?>
<svg version="1.1" id="topsvg"
xmlns="http://www.w3.org/2000/svg" xmlns:xlink="http://www.w3.org/1999/xlink"
xmlns:cml="http://www.xml-cml.org/schema" x="0" y="0" width="200px" height="200px" viewBox="0 0 100 100">
<title>GD141.sdf - Open Babel Depiction</title>
<rect x="0" y="0" width="100" height="100" fill="white"/>
<g transform="translate(0,0)">
<svg width="100" height="100" x="0" y="0" viewBox="0 0 614.9 592.478"
font-family="sans-serif" stroke="rgb(0,0,0)" stroke-width="3"  stroke-linecap="round">
<line x1="409.9" y1="128.7" x2="394.0" y2="107.7" opacity="1.0" stroke="rgb(0,0,0)"  stroke-width="3"/>
<line x1="336.2" y1="372.5" x2="336.2" y2="473.7" opacity="1.0" stroke="rgb(0,0,0)"  stroke-width="3"/>
<line x1="370.3" y1="493.4" x2="404.4" y2="473.7" opacity="1.0" stroke="rgb(0,0,0)"  stroke-width="3"/>
<line x1="472.6" y1="434.4" x2="506.7" y2="414.7" opacity="1.0" stroke="rgb(0,0,0)"  stroke-width="3"/>
<line x1="144.2" y1="366.3" x2="124.5" y2="400.5" opacity="1.0" stroke="rgb(0,0,0)"  stroke-width="3"/>
<line x1="144.2" y1="366.3" x2="178.4" y2="386.1" opacity="1.0" stroke="rgb(0,0,0)"  stroke-width="3"/>
<line x1="208.0" y1="267.6" x2="231.9" y2="236.3" opacity="1.0" stroke="rgb(0,0,0)"  stroke-width="3"/>
<line x1="231.9" y1="236.3" x2="266.4" y2="255.4" opacity="1.0" stroke="rgb(0,0,0)"  stroke-width="3"/>
<line x1="266.4" y1="255.4" x2="266.9" y2="281.8" opacity="1.0" stroke="rgb(0,0,0)"  stroke-width="3"/>
<line x1="254.4" y1="296.9" x2="228.4" y2="301.3" opacity="1.0" stroke="rgb(0,0,0)"  stroke-width="3"/>
<line x1="228.4" y1="301.3" x2="208.0" y2="267.6" opacity="1.0" stroke="rgb(0,0,0)"  stroke-width="3"/>
<line x1="231.4" y1="292.5" x2="217.3" y2="269.0" opacity="1.0" stroke="rgb(0,0,0)"  stroke-width="3"/>
<line x1="462.2" y1="267.2" x2="435.3" y2="238.5" opacity="1.0" stroke="rgb(0,0,0)"  stroke-width="3"/>
<line x1="435.3" y1="238.5" x2="399.6" y2="255.2" opacity="1.0" stroke="rgb(0,0,0)"  stroke-width="3"/>
<line x1="399.6" y1="255.2" x2="402.9" y2="281.4" opacity="1.0" stroke="rgb(0,0,0)"  stroke-width="3"/>
<line x1="417.3" y1="296.7" x2="443.2" y2="301.7" opacity="1.0" stroke="rgb(0,0,0)"  stroke-width="3"/>
<line x1="443.2" y1="301.7" x2="462.2" y2="267.2" opacity="1.0" stroke="rgb(0,0,0)"  stroke-width="3"/>
<line x1="439.8" y1="293.0" x2="453.0" y2="269.0" opacity="1.0" stroke="rgb(0,0,0)"  stroke-width="3"/>
<line x1="457.1" y1="138.3" x2="430.8" y2="138.8" opacity="1.0" stroke="rgb(0,0,0)"  stroke-width="3"/>
<line x1="414.0" y1="151.5" x2="406.3" y2="176.7" opacity="1.0" stroke="rgb(0,0,0)"  stroke-width="3"/>
<line x1="406.3" y1="176.7" x2="438.6" y2="199.3" opacity="1.0" stroke="rgb(0,0,0)"  stroke-width="3"/>
<line x1="438.6" y1="199.3" x2="470.0" y2="175.5" opacity="1.0" stroke="rgb(0,0,0)"  stroke-width="3"/>
<line x1="470.0" y1="175.5" x2="457.1" y2="138.3" opacity="1.0" stroke="rgb(0,0,0)"  stroke-width="3"/>
<line x1="461.3" y1="172.2" x2="452.3" y2="146.3" opacity="1.0" stroke="rgb(0,0,0)"  stroke-width="3"/>
<line x1="302.0" y1="353.0" x2="336.2" y2="372.5" opacity="1.0" stroke="rgb(0,0,0)"  stroke-width="3"/>
<line x1="336.2" y1="372.5" x2="370.2" y2="352.6" opacity="1.0" stroke="rgb(0,0,0)"  stroke-width="3"/>
<line x1="337.8" y1="363.2" x2="361.4" y2="349.4" opacity="1.0" stroke="rgb(0,0,0)"  stroke-width="3"/>
<line x1="370.2" y1="352.6" x2="370.0" y2="313.2" opacity="1.0" stroke="rgb(0,0,0)"  stroke-width="3"/>
<line x1="370.0" y1="313.2" x2="335.8" y2="293.7" opacity="1.0" stroke="rgb(0,0,0)"  stroke-width="3"/>
<line x1="361.2" y1="316.5" x2="337.4" y2="303.0" opacity="1.0" stroke="rgb(0,0,0)"  stroke-width="3"/>
<line x1="335.8" y1="293.7" x2="301.8" y2="313.6" opacity="1.0" stroke="rgb(0,0,0)"  stroke-width="3"/>
<line x1="301.8" y1="313.6" x2="302.0" y2="353.0" opacity="1.0" stroke="rgb(0,0,0)"  stroke-width="3"/>
<line x1="309.0" y1="319.6" x2="309.2" y2="346.9" opacity="1.0" stroke="rgb(0,0,0)"  stroke-width="3"/>
<line x1="334.9" y1="267.4" x2="335.8" y2="293.7" opacity="1.0" stroke="rgb(0,0,0)"  stroke-width="3"/>
<line x1="301.8" y1="313.6" x2="278.6" y2="301.0" opacity="1.0" stroke="rgb(0,0,0)"  stroke-width="3"/>
<line x1="266.4" y1="255.4" x2="300.1" y2="235.1" opacity="1.0" stroke="rgb(0,0,0)"  stroke-width="3"/>
<line x1="275.2" y1="258.5" x2="298.7" y2="244.4" opacity="1.0" stroke="rgb(0,0,0)"  stroke-width="3"/>
<line x1="300.1" y1="235.1" x2="323.1" y2="248.0" opacity="1.0" stroke="rgb(0,0,0)"  stroke-width="3"/>
<line x1="40.0" y1="345.2" x2="43.4" y2="306.0" opacity="1.0" stroke="rgb(0,0,0)"  stroke-width="3"/>
<line x1="43.4" y1="306.0" x2="79.0" y2="289.3" opacity="1.0" stroke="rgb(0,0,0)"  stroke-width="3"/>
<line x1="51.8" y1="309.9" x2="76.6" y2="298.3" opacity="1.0" stroke="rgb(0,0,0)"  stroke-width="3"/>
<line x1="79.0" y1="289.3" x2="111.3" y2="311.8" opacity="1.0" stroke="rgb(0,0,0)"  stroke-width="3"/>
<line x1="111.3" y1="311.8" x2="107.9" y2="351.0" opacity="1.0" stroke="rgb(0,0,0)"  stroke-width="3"/>
<line x1="103.6" y1="317.1" x2="101.3" y2="344.4" opacity="1.0" stroke="rgb(0,0,0)"  stroke-width="3"/>
<line x1="107.9" y1="351.0" x2="72.3" y2="367.7" opacity="1.0" stroke="rgb(0,0,0)"  stroke-width="3"/>
<line x1="72.3" y1="367.7" x2="40.0" y2="345.2" opacity="1.0" stroke="rgb(0,0,0)"  stroke-width="3"/>
<line x1="71.5" y1="358.4" x2="49.0" y2="342.7" opacity="1.0" stroke="rgb(0,0,0)"  stroke-width="3"/>
<line x1="399.6" y1="255.2" x2="367.3" y2="232.7" opacity="1.0" stroke="rgb(0,0,0)"  stroke-width="3"/>
<line x1="390.6" y1="257.7" x2="368.1" y2="242.0" opacity="1.0" stroke="rgb(0,0,0)"  stroke-width="3"/>
<line x1="367.3" y1="232.7" x2="345.3" y2="247.2" opacity="1.0" stroke="rgb(0,0,0)"  stroke-width="3"/>
<line x1="370.0" y1="313.2" x2="393.1" y2="300.5" opacity="1.0" stroke="rgb(0,0,0)"  stroke-width="3"/>
<line x1="170.0" y1="336.6" x2="209.4" y2="335.8" opacity="1.0" stroke="rgb(0,0,0)"  stroke-width="3"/>
<line x1="175.9" y1="329.2" x2="203.2" y2="328.7" opacity="1.0" stroke="rgb(0,0,0)"  stroke-width="3"/>
<line x1="209.4" y1="335.8" x2="228.4" y2="301.3" opacity="1.0" stroke="rgb(0,0,0)"  stroke-width="3"/>
<line x1="208.0" y1="267.6" x2="168.7" y2="268.4" opacity="1.0" stroke="rgb(0,0,0)"  stroke-width="3"/>
<line x1="168.7" y1="268.4" x2="149.7" y2="302.9" opacity="1.0" stroke="rgb(0,0,0)"  stroke-width="3"/>
<line x1="172.1" y1="277.1" x2="158.9" y2="301.1" opacity="1.0" stroke="rgb(0,0,0)"  stroke-width="3"/>
<line x1="149.7" y1="302.9" x2="170.0" y2="336.6" opacity="1.0" stroke="rgb(0,0,0)"  stroke-width="3"/>
<line x1="521.9" y1="300.2" x2="501.5" y2="266.5" opacity="1.0" stroke="rgb(0,0,0)"  stroke-width="3"/>
<line x1="512.6" y1="298.8" x2="498.5" y2="275.3" opacity="1.0" stroke="rgb(0,0,0)"  stroke-width="3"/>
<line x1="501.5" y1="266.5" x2="462.2" y2="267.2" opacity="1.0" stroke="rgb(0,0,0)"  stroke-width="3"/>
<line x1="443.2" y1="301.7" x2="463.5" y2="335.4" opacity="1.0" stroke="rgb(0,0,0)"  stroke-width="3"/>
<line x1="463.5" y1="335.4" x2="502.9" y2="334.7" opacity="1.0" stroke="rgb(0,0,0)"  stroke-width="3"/>
<line x1="469.4" y1="328.1" x2="496.7" y2="327.6" opacity="1.0" stroke="rgb(0,0,0)"  stroke-width="3"/>
<line x1="502.9" y1="334.7" x2="521.9" y2="300.2" opacity="1.0" stroke="rgb(0,0,0)"  stroke-width="3"/>
<line x1="406.3" y1="176.7" x2="370.7" y2="193.4" opacity="1.0" stroke="rgb(0,0,0)"  stroke-width="3"/>
<line x1="404.0" y1="185.8" x2="379.2" y2="197.4" opacity="1.0" stroke="rgb(0,0,0)"  stroke-width="3"/>
<line x1="370.7" y1="193.4" x2="367.3" y2="232.7" opacity="1.0" stroke="rgb(0,0,0)"  stroke-width="3"/>
<line x1="435.3" y1="238.5" x2="438.6" y2="199.3" opacity="1.0" stroke="rgb(0,0,0)"  stroke-width="3"/>
<line x1="428.6" y1="231.9" x2="431.0" y2="204.6" opacity="1.0" stroke="rgb(0,0,0)"  stroke-width="3"/>
<line x1="521.6" y1="116.0" x2="482.9" y2="108.6" opacity="1.0" stroke="rgb(0,0,0)"  stroke-width="3"/>
<line x1="514.3" y1="121.9" x2="487.5" y2="116.8" opacity="1.0" stroke="rgb(0,0,0)"  stroke-width="3"/>
<line x1="482.9" y1="108.6" x2="457.1" y2="138.3" opacity="1.0" stroke="rgb(0,0,0)"  stroke-width="3"/>
<line x1="470.0" y1="175.5" x2="508.7" y2="183.0" opacity="1.0" stroke="rgb(0,0,0)"  stroke-width="3"/>
<line x1="508.7" y1="183.0" x2="534.5" y2="153.2" opacity="1.0" stroke="rgb(0,0,0)"  stroke-width="3"/>
<line x1="507.2" y1="173.7" x2="525.1" y2="153.0" opacity="1.0" stroke="rgb(0,0,0)"  stroke-width="3"/>
<line x1="534.5" y1="153.2" x2="521.6" y2="116.0" opacity="1.0" stroke="rgb(0,0,0)"  stroke-width="3"/>
<line x1="231.9" y1="236.3" x2="231.3" y2="197.0" opacity="1.0" stroke="rgb(0,0,0)"  stroke-width="3"/>
<line x1="239.0" y1="230.2" x2="238.6" y2="202.8" opacity="1.0" stroke="rgb(0,0,0)"  stroke-width="3"/>
<line x1="231.3" y1="197.0" x2="265.0" y2="176.7" opacity="1.0" stroke="rgb(0,0,0)"  stroke-width="3"/>
<line x1="265.0" y1="176.7" x2="299.4" y2="195.8" opacity="1.0" stroke="rgb(0,0,0)"  stroke-width="3"/>
<line x1="266.8" y1="185.9" x2="290.7" y2="199.2" opacity="1.0" stroke="rgb(0,0,0)"  stroke-width="3"/>
<line x1="299.4" y1="195.8" x2="300.1" y2="235.1" opacity="1.0" stroke="rgb(0,0,0)"  stroke-width="3"/>
<line x1="409.4" y1="71.4" x2="385.6" y2="40.0" opacity="1.0" stroke="rgb(0,0,0)"  stroke-width="3"/>
<line x1="385.6" y1="40.0" x2="346.5" y2="44.9" opacity="1.0" stroke="rgb(0,0,0)"  stroke-width="3"/>
<line x1="380.5" y1="47.9" x2="353.4" y2="51.3" opacity="1.0" stroke="rgb(0,0,0)"  stroke-width="3"/>
<line x1="346.5" y1="44.9" x2="331.2" y2="81.1" opacity="1.0" stroke="rgb(0,0,0)"  stroke-width="3"/>
<line x1="331.2" y1="81.1" x2="355.0" y2="112.5" opacity="1.0" stroke="rgb(0,0,0)"  stroke-width="3"/>
<line x1="340.6" y1="81.6" x2="357.1" y2="103.4" opacity="1.0" stroke="rgb(0,0,0)"  stroke-width="3"/>
<line x1="355.0" y1="112.5" x2="394.0" y2="107.7" opacity="1.0" stroke="rgb(0,0,0)"  stroke-width="3"/>
<line x1="394.0" y1="107.7" x2="409.4" y2="71.4" opacity="1.0" stroke="rgb(0,0,0)"  stroke-width="3"/>
<line x1="389.7" y1="99.3" x2="400.4" y2="74.1" opacity="1.0" stroke="rgb(0,0,0)"  stroke-width="3"/>
<line x1="302.1" y1="493.4" x2="302.1" y2="532.8" opacity="1.0" stroke="rgb(0,0,0)"  stroke-width="3"/>
<line x1="302.1" y1="532.8" x2="336.2" y2="552.5" opacity="1.0" stroke="rgb(0,0,0)"  stroke-width="3"/>
<line x1="310.9" y1="529.6" x2="334.6" y2="543.2" opacity="1.0" stroke="rgb(0,0,0)"  stroke-width="3"/>
<line x1="336.2" y1="552.5" x2="370.3" y2="532.8" opacity="1.0" stroke="rgb(0,0,0)"  stroke-width="3"/>
<line x1="370.3" y1="532.8" x2="370.3" y2="493.4" opacity="1.0" stroke="rgb(0,0,0)"  stroke-width="3"/>
<line x1="363.1" y1="526.8" x2="363.1" y2="499.4" opacity="1.0" stroke="rgb(0,0,0)"  stroke-width="3"/>
<line x1="370.3" y1="493.4" x2="336.2" y2="473.7" opacity="1.0" stroke="rgb(0,0,0)"  stroke-width="3"/>
<line x1="336.2" y1="473.7" x2="302.1" y2="493.4" opacity="1.0" stroke="rgb(0,0,0)"  stroke-width="3"/>
<line x1="334.6" y1="483.0" x2="310.9" y2="496.7" opacity="1.0" stroke="rgb(0,0,0)"  stroke-width="3"/>
<line x1="438.5" y1="493.4" x2="472.6" y2="473.7" opacity="1.0" stroke="rgb(0,0,0)"  stroke-width="3"/>
<line x1="472.6" y1="473.7" x2="472.6" y2="434.4" opacity="1.0" stroke="rgb(0,0,0)"  stroke-width="3"/>
<line x1="465.4" y1="467.7" x2="465.4" y2="440.4" opacity="1.0" stroke="rgb(0,0,0)"  stroke-width="3"/>
<line x1="472.6" y1="434.4" x2="438.5" y2="414.7" opacity="1.0" stroke="rgb(0,0,0)"  stroke-width="3"/>
<line x1="438.5" y1="414.7" x2="404.4" y2="434.4" opacity="1.0" stroke="rgb(0,0,0)"  stroke-width="3"/>
<line x1="436.9" y1="423.9" x2="413.2" y2="437.6" opacity="1.0" stroke="rgb(0,0,0)"  stroke-width="3"/>
<line x1="404.4" y1="434.4" x2="404.4" y2="473.7" opacity="1.0" stroke="rgb(0,0,0)"  stroke-width="3"/>
<line x1="404.4" y1="473.7" x2="438.5" y2="493.4" opacity="1.0" stroke="rgb(0,0,0)"  stroke-width="3"/>
<line x1="413.2" y1="470.5" x2="436.9" y2="484.2" opacity="1.0" stroke="rgb(0,0,0)"  stroke-width="3"/>
<line x1="506.7" y1="532.8" x2="506.7" y2="493.4" opacity="1.0" stroke="rgb(0,0,0)"  stroke-width="3"/>
<line x1="499.5" y1="526.8" x2="499.5" y2="499.4" opacity="1.0" stroke="rgb(0,0,0)"  stroke-width="3"/>
<line x1="506.7" y1="493.4" x2="472.6" y2="473.7" opacity="1.0" stroke="rgb(0,0,0)"  stroke-width="3"/>
<line x1="438.5" y1="493.4" x2="438.5" y2="532.8" opacity="1.0" stroke="rgb(0,0,0)"  stroke-width="3"/>
<line x1="438.5" y1="532.8" x2="472.6" y2="552.5" opacity="1.0" stroke="rgb(0,0,0)"  stroke-width="3"/>
<line x1="447.3" y1="529.6" x2="471.0" y2="543.2" opacity="1.0" stroke="rgb(0,0,0)"  stroke-width="3"/>
<line x1="472.6" y1="552.5" x2="506.7" y2="532.8" opacity="1.0" stroke="rgb(0,0,0)"  stroke-width="3"/>
<line x1="370.3" y1="375.3" x2="370.3" y2="414.7" opacity="1.0" stroke="rgb(0,0,0)"  stroke-width="3"/>
<line x1="377.5" y1="381.3" x2="377.5" y2="408.7" opacity="1.0" stroke="rgb(0,0,0)"  stroke-width="3"/>
<line x1="370.3" y1="414.7" x2="404.4" y2="434.4" opacity="1.0" stroke="rgb(0,0,0)"  stroke-width="3"/>
<line x1="438.5" y1="414.7" x2="438.5" y2="375.3" opacity="1.0" stroke="rgb(0,0,0)"  stroke-width="3"/>
<line x1="438.5" y1="375.3" x2="404.4" y2="355.6" opacity="1.0" stroke="rgb(0,0,0)"  stroke-width="3"/>
<line x1="429.7" y1="378.5" x2="406.0" y2="364.9" opacity="1.0" stroke="rgb(0,0,0)"  stroke-width="3"/>
<line x1="404.4" y1="355.6" x2="370.3" y2="375.3" opacity="1.0" stroke="rgb(0,0,0)"  stroke-width="3"/>
<line x1="540.8" y1="434.4" x2="574.9" y2="414.7" opacity="1.0" stroke="rgb(0,0,0)"  stroke-width="3"/>
<line x1="574.9" y1="414.7" x2="574.9" y2="375.3" opacity="1.0" stroke="rgb(0,0,0)"  stroke-width="3"/>
<line x1="567.7" y1="408.7" x2="567.7" y2="381.3" opacity="1.0" stroke="rgb(0,0,0)"  stroke-width="3"/>
<line x1="574.9" y1="375.3" x2="540.8" y2="355.6" opacity="1.0" stroke="rgb(0,0,0)"  stroke-width="3"/>
<line x1="540.8" y1="355.6" x2="506.7" y2="375.3" opacity="1.0" stroke="rgb(0,0,0)"  stroke-width="3"/>
<line x1="539.2" y1="364.9" x2="515.5" y2="378.5" opacity="1.0" stroke="rgb(0,0,0)"  stroke-width="3"/>
<line x1="506.7" y1="375.3" x2="506.7" y2="414.7" opacity="1.0" stroke="rgb(0,0,0)"  stroke-width="3"/>
<line x1="506.7" y1="414.7" x2="540.8" y2="434.4" opacity="1.0" stroke="rgb(0,0,0)"  stroke-width="3"/>
<line x1="515.5" y1="411.4" x2="539.2" y2="425.1" opacity="1.0" stroke="rgb(0,0,0)"  stroke-width="3"/>
<line x1="111.3" y1="311.8" x2="149.7" y2="302.9" opacity="1.0" stroke="rgb(0,0,0)"  stroke-width="3"/>
<line x1="170.0" y1="336.6" x2="144.2" y2="366.3" opacity="1.0" stroke="rgb(0,0,0)"  stroke-width="3"/>
<line x1="144.2" y1="366.3" x2="107.9" y2="351.0" opacity="1.0" stroke="rgb(0,0,0)"  stroke-width="3"/>
<text x="398.493648" y="302.270465" fill="rgb(12,12,255)" stroke-width="0" font-weight="bold" font-size="25.92" >N</text>
<text x="261.205314" y="302.784372" fill="rgb(12,12,255)" stroke-width="0" font-weight="bold" font-size="25.92" >N</text>
<text x="328.477482" y="262.375452" fill="rgb(255,181,181)" stroke-width="0" font-weight="bold" font-size="25.92" >B</text>
<text x="411.785265" y="147.071145" fill="rgb(12,12,255)" stroke-width="0" font-weight="bold" font-size="25.92" >N</text>
</svg>
</g>
</svg>
