<?xml version="1.0"?>
<svg version="1.1" id="topsvg"
xmlns="http://www.w3.org/2000/svg" xmlns:xlink="http://www.w3.org/1999/xlink"
xmlns:cml="http://www.xml-cml.org/schema" x="0" y="0" width="200px" height="200px" viewBox="0 0 100 100">
<title>GD152.sdf - Open Babel Depiction</title>
<rect x="0" y="0" width="100" height="100" fill="white"/>
<g transform="translate(0,0)">
<svg width="100" height="100" x="0" y="0" viewBox="0 0 536.713 575.521"
font-family="sans-serif" stroke="rgb(0,0,0)" stroke-width="3"  stroke-linecap="round">
<line x1="228.4" y1="182.1" x2="228.4" y2="142.7" opacity="1.0" stroke="rgb(0,0,0)"  stroke-width="3"/>
<line x1="118.8" y1="313.5" x2="79.4" y2="313.5" opacity="1.0" stroke="rgb(0,0,0)"  stroke-width="3"/>
<line x1="371.1" y1="127.6" x2="354.2" y2="107.3" opacity="1.0" stroke="rgb(0,0,0)"  stroke-width="3"/>
<line x1="79.4" y1="313.5" x2="59.7" y2="347.6" opacity="1.0" stroke="rgb(0,0,0)"  stroke-width="3"/>
<line x1="79.4" y1="313.5" x2="40.0" y2="313.5" opacity="1.0" stroke="rgb(0,0,0)"  stroke-width="3"/>
<line x1="79.4" y1="313.5" x2="59.7" y2="279.3" opacity="1.0" stroke="rgb(0,0,0)"  stroke-width="3"/>
<line x1="228.4" y1="142.7" x2="194.3" y2="123.0" opacity="1.0" stroke="rgb(0,0,0)"  stroke-width="3"/>
<line x1="228.4" y1="142.7" x2="262.5" y2="123.0" opacity="1.0" stroke="rgb(0,0,0)"  stroke-width="3"/>
<line x1="228.4" y1="142.7" x2="228.4" y2="103.3" opacity="1.0" stroke="rgb(0,0,0)"  stroke-width="3"/>
<line x1="218.2" y1="388.5" x2="188.2" y2="414.0" opacity="1.0" stroke="rgb(0,0,0)"  stroke-width="3"/>
<line x1="218.2" y1="388.5" x2="243.9" y2="432.9" opacity="1.0" stroke="rgb(0,0,0)"  stroke-width="3"/>
<line x1="175.6" y1="275.6" x2="198.0" y2="243.2" opacity="1.0" stroke="rgb(0,0,0)"  stroke-width="3"/>
<line x1="198.0" y1="243.2" x2="233.3" y2="260.8" opacity="1.0" stroke="rgb(0,0,0)"  stroke-width="3"/>
<line x1="233.3" y1="260.8" x2="235.1" y2="287.1" opacity="1.0" stroke="rgb(0,0,0)"  stroke-width="3"/>
<line x1="223.2" y1="302.8" x2="197.4" y2="308.4" opacity="1.0" stroke="rgb(0,0,0)"  stroke-width="3"/>
<line x1="197.4" y1="308.4" x2="175.6" y2="275.6" opacity="1.0" stroke="rgb(0,0,0)"  stroke-width="3"/>
<line x1="200.1" y1="299.4" x2="184.9" y2="276.6" opacity="1.0" stroke="rgb(0,0,0)"  stroke-width="3"/>
<line x1="429.6" y1="263.7" x2="401.4" y2="236.2" opacity="1.0" stroke="rgb(0,0,0)"  stroke-width="3"/>
<line x1="401.4" y1="236.2" x2="366.5" y2="254.5" opacity="1.0" stroke="rgb(0,0,0)"  stroke-width="3"/>
<line x1="399.4" y1="245.3" x2="375.2" y2="258.1" opacity="1.0" stroke="rgb(0,0,0)"  stroke-width="3"/>
<line x1="366.5" y1="254.5" x2="371.0" y2="280.5" opacity="1.0" stroke="rgb(0,0,0)"  stroke-width="3"/>
<line x1="386.0" y1="295.2" x2="412.2" y2="299.0" opacity="1.0" stroke="rgb(0,0,0)"  stroke-width="3"/>
<line x1="412.2" y1="299.0" x2="429.6" y2="263.7" opacity="1.0" stroke="rgb(0,0,0)"  stroke-width="3"/>
<line x1="408.4" y1="290.4" x2="420.5" y2="265.9" opacity="1.0" stroke="rgb(0,0,0)"  stroke-width="3"/>
<line x1="418.7" y1="135.0" x2="392.4" y2="136.7" opacity="1.0" stroke="rgb(0,0,0)"  stroke-width="3"/>
<line x1="376.2" y1="150.2" x2="369.7" y2="175.8" opacity="1.0" stroke="rgb(0,0,0)"  stroke-width="3"/>
<line x1="369.7" y1="175.8" x2="403.0" y2="196.8" opacity="1.0" stroke="rgb(0,0,0)"  stroke-width="3"/>
<line x1="378.6" y1="172.9" x2="401.8" y2="187.5" opacity="1.0" stroke="rgb(0,0,0)"  stroke-width="3"/>
<line x1="403.0" y1="196.8" x2="433.3" y2="171.6" opacity="1.0" stroke="rgb(0,0,0)"  stroke-width="3"/>
<line x1="433.3" y1="171.6" x2="418.7" y2="135.0" opacity="1.0" stroke="rgb(0,0,0)"  stroke-width="3"/>
<line x1="424.4" y1="168.7" x2="414.3" y2="143.3" opacity="1.0" stroke="rgb(0,0,0)"  stroke-width="3"/>
<line x1="273.4" y1="356.7" x2="308.5" y2="374.6" opacity="1.0" stroke="rgb(0,0,0)"  stroke-width="3"/>
<line x1="308.5" y1="374.6" x2="341.5" y2="353.2" opacity="1.0" stroke="rgb(0,0,0)"  stroke-width="3"/>
<line x1="309.6" y1="365.3" x2="332.6" y2="350.4" opacity="1.0" stroke="rgb(0,0,0)"  stroke-width="3"/>
<line x1="341.5" y1="353.2" x2="339.5" y2="313.8" opacity="1.0" stroke="rgb(0,0,0)"  stroke-width="3"/>
<line x1="339.5" y1="313.8" x2="304.4" y2="295.9" opacity="1.0" stroke="rgb(0,0,0)"  stroke-width="3"/>
<line x1="330.9" y1="317.5" x2="306.5" y2="305.0" opacity="1.0" stroke="rgb(0,0,0)"  stroke-width="3"/>
<line x1="304.4" y1="295.9" x2="271.4" y2="317.3" opacity="1.0" stroke="rgb(0,0,0)"  stroke-width="3"/>
<line x1="271.4" y1="317.3" x2="273.4" y2="356.7" opacity="1.0" stroke="rgb(0,0,0)"  stroke-width="3"/>
<line x1="278.9" y1="322.9" x2="280.3" y2="350.3" opacity="1.0" stroke="rgb(0,0,0)"  stroke-width="3"/>
<line x1="302.4" y1="269.6" x2="304.4" y2="295.9" opacity="1.0" stroke="rgb(0,0,0)"  stroke-width="3"/>
<line x1="271.4" y1="317.3" x2="247.6" y2="305.8" opacity="1.0" stroke="rgb(0,0,0)"  stroke-width="3"/>
<line x1="233.3" y1="260.8" x2="266.1" y2="239.0" opacity="1.0" stroke="rgb(0,0,0)"  stroke-width="3"/>
<line x1="242.3" y1="263.4" x2="265.1" y2="248.3" opacity="1.0" stroke="rgb(0,0,0)"  stroke-width="3"/>
<line x1="266.1" y1="239.0" x2="289.7" y2="250.8" opacity="1.0" stroke="rgb(0,0,0)"  stroke-width="3"/>
<line x1="366.5" y1="254.5" x2="333.2" y2="233.4" opacity="1.0" stroke="rgb(0,0,0)"  stroke-width="3"/>
<line x1="333.2" y1="233.4" x2="311.9" y2="249.0" opacity="1.0" stroke="rgb(0,0,0)"  stroke-width="3"/>
<line x1="339.5" y1="313.8" x2="362.1" y2="300.1" opacity="1.0" stroke="rgb(0,0,0)"  stroke-width="3"/>
<line x1="118.8" y1="313.5" x2="136.3" y2="278.1" opacity="1.0" stroke="rgb(0,0,0)"  stroke-width="3"/>
<line x1="127.9" y1="311.3" x2="140.1" y2="286.7" opacity="1.0" stroke="rgb(0,0,0)"  stroke-width="3"/>
<line x1="136.3" y1="278.1" x2="175.6" y2="275.6" opacity="1.0" stroke="rgb(0,0,0)"  stroke-width="3"/>
<line x1="197.4" y1="308.4" x2="180.0" y2="343.7" opacity="1.0" stroke="rgb(0,0,0)"  stroke-width="3"/>
<line x1="180.0" y1="343.7" x2="140.7" y2="346.2" opacity="1.0" stroke="rgb(0,0,0)"  stroke-width="3"/>
<line x1="173.5" y1="336.9" x2="146.2" y2="338.7" opacity="1.0" stroke="rgb(0,0,0)"  stroke-width="3"/>
<line x1="140.7" y1="346.2" x2="118.8" y2="313.5" opacity="1.0" stroke="rgb(0,0,0)"  stroke-width="3"/>
<line x1="490.8" y1="293.9" x2="468.9" y2="261.2" opacity="1.0" stroke="rgb(0,0,0)"  stroke-width="3"/>
<line x1="481.5" y1="292.9" x2="466.3" y2="270.1" opacity="1.0" stroke="rgb(0,0,0)"  stroke-width="3"/>
<line x1="468.9" y1="261.2" x2="429.6" y2="263.7" opacity="1.0" stroke="rgb(0,0,0)"  stroke-width="3"/>
<line x1="412.2" y1="299.0" x2="434.0" y2="331.8" opacity="1.0" stroke="rgb(0,0,0)"  stroke-width="3"/>
<line x1="434.0" y1="331.8" x2="473.3" y2="329.3" opacity="1.0" stroke="rgb(0,0,0)"  stroke-width="3"/>
<line x1="439.5" y1="324.2" x2="466.9" y2="322.5" opacity="1.0" stroke="rgb(0,0,0)"  stroke-width="3"/>
<line x1="473.3" y1="329.3" x2="490.8" y2="293.9" opacity="1.0" stroke="rgb(0,0,0)"  stroke-width="3"/>
<line x1="369.7" y1="175.8" x2="334.8" y2="194.1" opacity="1.0" stroke="rgb(0,0,0)"  stroke-width="3"/>
<line x1="334.8" y1="194.1" x2="333.2" y2="233.4" opacity="1.0" stroke="rgb(0,0,0)"  stroke-width="3"/>
<line x1="341.8" y1="200.4" x2="340.7" y2="227.7" opacity="1.0" stroke="rgb(0,0,0)"  stroke-width="3"/>
<line x1="401.4" y1="236.2" x2="403.0" y2="196.8" opacity="1.0" stroke="rgb(0,0,0)"  stroke-width="3"/>
<line x1="482.1" y1="109.8" x2="443.2" y2="104.1" opacity="1.0" stroke="rgb(0,0,0)"  stroke-width="3"/>
<line x1="475.2" y1="116.1" x2="448.1" y2="112.1" opacity="1.0" stroke="rgb(0,0,0)"  stroke-width="3"/>
<line x1="443.2" y1="104.1" x2="418.7" y2="135.0" opacity="1.0" stroke="rgb(0,0,0)"  stroke-width="3"/>
<line x1="433.3" y1="171.6" x2="472.3" y2="177.3" opacity="1.0" stroke="rgb(0,0,0)"  stroke-width="3"/>
<line x1="472.3" y1="177.3" x2="496.7" y2="146.4" opacity="1.0" stroke="rgb(0,0,0)"  stroke-width="3"/>
<line x1="470.4" y1="168.2" x2="487.3" y2="146.7" opacity="1.0" stroke="rgb(0,0,0)"  stroke-width="3"/>
<line x1="496.7" y1="146.4" x2="482.1" y2="109.8" opacity="1.0" stroke="rgb(0,0,0)"  stroke-width="3"/>
<line x1="198.0" y1="243.2" x2="195.6" y2="203.9" opacity="1.0" stroke="rgb(0,0,0)"  stroke-width="3"/>
<line x1="204.9" y1="236.8" x2="203.1" y2="209.4" opacity="1.0" stroke="rgb(0,0,0)"  stroke-width="3"/>
<line x1="195.6" y1="203.9" x2="228.4" y2="182.1" opacity="1.0" stroke="rgb(0,0,0)"  stroke-width="3"/>
<line x1="228.4" y1="182.1" x2="263.7" y2="199.6" opacity="1.0" stroke="rgb(0,0,0)"  stroke-width="3"/>
<line x1="230.6" y1="191.2" x2="255.1" y2="203.4" opacity="1.0" stroke="rgb(0,0,0)"  stroke-width="3"/>
<line x1="263.7" y1="199.6" x2="266.1" y2="239.0" opacity="1.0" stroke="rgb(0,0,0)"  stroke-width="3"/>
<line x1="367.9" y1="70.3" x2="342.8" y2="40.0" opacity="1.0" stroke="rgb(0,0,0)"  stroke-width="3"/>
<line x1="342.8" y1="40.0" x2="303.9" y2="46.6" opacity="1.0" stroke="rgb(0,0,0)"  stroke-width="3"/>
<line x1="338.1" y1="48.1" x2="311.0" y2="52.7" opacity="1.0" stroke="rgb(0,0,0)"  stroke-width="3"/>
<line x1="303.9" y1="46.6" x2="290.2" y2="83.6" opacity="1.0" stroke="rgb(0,0,0)"  stroke-width="3"/>
<line x1="290.2" y1="83.6" x2="315.4" y2="113.9" opacity="1.0" stroke="rgb(0,0,0)"  stroke-width="3"/>
<line x1="299.6" y1="83.6" x2="317.1" y2="104.7" opacity="1.0" stroke="rgb(0,0,0)"  stroke-width="3"/>
<line x1="315.4" y1="113.9" x2="354.2" y2="107.3" opacity="1.0" stroke="rgb(0,0,0)"  stroke-width="3"/>
<line x1="354.2" y1="107.3" x2="367.9" y2="70.3" opacity="1.0" stroke="rgb(0,0,0)"  stroke-width="3"/>
<line x1="349.6" y1="99.1" x2="359.1" y2="73.4" opacity="1.0" stroke="rgb(0,0,0)"  stroke-width="3"/>
<line x1="195.2" y1="452.7" x2="188.2" y2="414.0" opacity="1.0" stroke="rgb(0,0,0)"  stroke-width="3"/>
<line x1="187.0" y1="448.1" x2="182.2" y2="421.1" opacity="1.0" stroke="rgb(0,0,0)"  stroke-width="3"/>
<line x1="188.2" y1="414.0" x2="151.1" y2="400.6" opacity="1.0" stroke="rgb(0,0,0)"  stroke-width="3"/>
<line x1="151.1" y1="400.6" x2="121.0" y2="426.1" opacity="1.0" stroke="rgb(0,0,0)"  stroke-width="3"/>
<line x1="151.2" y1="410.0" x2="130.3" y2="427.7" opacity="1.0" stroke="rgb(0,0,0)"  stroke-width="3"/>
<line x1="121.0" y1="426.1" x2="128.0" y2="464.9" opacity="1.0" stroke="rgb(0,0,0)"  stroke-width="3"/>
<line x1="128.0" y1="464.9" x2="165.1" y2="478.2" opacity="1.0" stroke="rgb(0,0,0)"  stroke-width="3"/>
<line x1="136.1" y1="460.1" x2="161.9" y2="469.4" opacity="1.0" stroke="rgb(0,0,0)"  stroke-width="3"/>
<line x1="165.1" y1="478.2" x2="195.2" y2="452.7" opacity="1.0" stroke="rgb(0,0,0)"  stroke-width="3"/>
<line x1="243.4" y1="501.2" x2="283.0" y2="501.2" opacity="1.0" stroke="rgb(0,0,0)"  stroke-width="3"/>
<line x1="283.0" y1="501.2" x2="302.8" y2="467.2" opacity="1.0" stroke="rgb(0,0,0)"  stroke-width="3"/>
<line x1="279.8" y1="492.4" x2="293.6" y2="468.7" opacity="1.0" stroke="rgb(0,0,0)"  stroke-width="3"/>
<line x1="302.8" y1="467.2" x2="283.3" y2="432.7" opacity="1.0" stroke="rgb(0,0,0)"  stroke-width="3"/>
<line x1="283.3" y1="432.7" x2="243.9" y2="432.9" opacity="1.0" stroke="rgb(0,0,0)"  stroke-width="3"/>
<line x1="277.3" y1="440.0" x2="249.9" y2="440.0" opacity="1.0" stroke="rgb(0,0,0)"  stroke-width="3"/>
<line x1="243.9" y1="432.9" x2="224.1" y2="466.9" opacity="1.0" stroke="rgb(0,0,0)"  stroke-width="3"/>
<line x1="224.1" y1="466.9" x2="243.4" y2="501.2" opacity="1.0" stroke="rgb(0,0,0)"  stroke-width="3"/>
<line x1="233.3" y1="468.6" x2="246.8" y2="492.5" opacity="1.0" stroke="rgb(0,0,0)"  stroke-width="3"/>
<line x1="361.8" y1="501.5" x2="342.2" y2="467.3" opacity="1.0" stroke="rgb(0,0,0)"  stroke-width="3"/>
<line x1="352.6" y1="499.8" x2="339.0" y2="476.1" opacity="1.0" stroke="rgb(0,0,0)"  stroke-width="3"/>
<line x1="342.2" y1="467.3" x2="302.8" y2="467.2" opacity="1.0" stroke="rgb(0,0,0)"  stroke-width="3"/>
<line x1="283.0" y1="501.2" x2="302.6" y2="535.4" opacity="1.0" stroke="rgb(0,0,0)"  stroke-width="3"/>
<line x1="302.6" y1="535.4" x2="342.0" y2="535.5" opacity="1.0" stroke="rgb(0,0,0)"  stroke-width="3"/>
<line x1="308.7" y1="528.2" x2="336.1" y2="528.3" opacity="1.0" stroke="rgb(0,0,0)"  stroke-width="3"/>
<line x1="342.0" y1="535.5" x2="361.8" y2="501.5" opacity="1.0" stroke="rgb(0,0,0)"  stroke-width="3"/>
<line x1="342.9" y1="398.8" x2="303.3" y2="398.6" opacity="1.0" stroke="rgb(0,0,0)"  stroke-width="3"/>
<line x1="336.8" y1="406.0" x2="309.2" y2="405.8" opacity="1.0" stroke="rgb(0,0,0)"  stroke-width="3"/>
<line x1="303.3" y1="398.6" x2="283.3" y2="432.7" opacity="1.0" stroke="rgb(0,0,0)"  stroke-width="3"/>
<line x1="342.2" y1="467.3" x2="362.5" y2="433.2" opacity="1.0" stroke="rgb(0,0,0)"  stroke-width="3"/>
<line x1="362.5" y1="433.2" x2="342.9" y2="398.8" opacity="1.0" stroke="rgb(0,0,0)"  stroke-width="3"/>
<line x1="421.0" y1="467.5" x2="401.4" y2="433.3" opacity="1.0" stroke="rgb(0,0,0)"  stroke-width="3"/>
<line x1="401.4" y1="433.3" x2="362.5" y2="433.2" opacity="1.0" stroke="rgb(0,0,0)"  stroke-width="3"/>
<line x1="395.4" y1="440.5" x2="368.4" y2="440.4" opacity="1.0" stroke="rgb(0,0,0)"  stroke-width="3"/>
<line x1="361.8" y1="501.5" x2="401.2" y2="501.6" opacity="1.0" stroke="rgb(0,0,0)"  stroke-width="3"/>
<line x1="401.2" y1="501.6" x2="421.0" y2="467.5" opacity="1.0" stroke="rgb(0,0,0)"  stroke-width="3"/>
<line x1="398.0" y1="492.8" x2="411.8" y2="469.1" opacity="1.0" stroke="rgb(0,0,0)"  stroke-width="3"/>
<line x1="273.4" y1="356.7" x2="218.2" y2="388.5" opacity="1.0" stroke="rgb(0,0,0)"  stroke-width="3"/>
<line x1="218.2" y1="388.5" x2="180.0" y2="343.7" opacity="1.0" stroke="rgb(0,0,0)"  stroke-width="3"/>
<text x="229.950298" y="308.072167" fill="rgb(12,12,255)" stroke-width="0" font-weight="bold" font-size="25.92" >N</text>
<text x="367.170139" y="301.329307" fill="rgb(12,12,255)" stroke-width="0" font-weight="bold" font-size="25.92" >N</text>
<text x="295.366106" y="264.624569" fill="rgb(255,181,181)" stroke-width="0" font-weight="bold" font-size="25.92" >B</text>
<text x="373.419386" y="145.582175" fill="rgb(12,12,255)" stroke-width="0" font-weight="bold" font-size="25.92" >N</text>
</svg>
</g>
</svg>
