<?xml version="1.0"?>
<svg version="1.1" id="topsvg"
xmlns="http://www.w3.org/2000/svg" xmlns:xlink="http://www.w3.org/1999/xlink"
xmlns:cml="http://www.xml-cml.org/schema" x="0" y="0" width="200px" height="200px" viewBox="0 0 100 100">
<title>GD159.sdf - Open Babel Depiction</title>
<rect x="0" y="0" width="100" height="100" fill="white"/>
<g transform="translate(0,0)">
<svg width="100" height="100" x="0" y="0" viewBox="0 0 583.772 586.499"
font-family="sans-serif" stroke="rgb(0,0,0)" stroke-width="3"  stroke-linecap="round">
<line x1="305.1" y1="366.7" x2="305.1" y2="467.8" opacity="1.0" stroke="rgb(0,0,0)"  stroke-width="3"/>
<line x1="118.7" y1="297.1" x2="79.3" y2="297.1" opacity="1.0" stroke="rgb(0,0,0)"  stroke-width="3"/>
<line x1="79.3" y1="297.1" x2="40.0" y2="297.1" opacity="1.0" stroke="rgb(0,0,0)"  stroke-width="3"/>
<line x1="59.7" y1="331.2" x2="79.3" y2="297.1" opacity="1.0" stroke="rgb(0,0,0)"  stroke-width="3"/>
<line x1="79.3" y1="297.1" x2="59.7" y2="263.0" opacity="1.0" stroke="rgb(0,0,0)"  stroke-width="3"/>
<line x1="339.1" y1="487.5" x2="373.2" y2="467.8" opacity="1.0" stroke="rgb(0,0,0)"  stroke-width="3"/>
<line x1="441.3" y1="428.5" x2="475.4" y2="408.8" opacity="1.0" stroke="rgb(0,0,0)"  stroke-width="3"/>
<line x1="379.8" y1="123.2" x2="399.0" y2="105.2" opacity="1.0" stroke="rgb(0,0,0)"  stroke-width="3"/>
<line x1="233.9" y1="171.1" x2="220.5" y2="134.1" opacity="1.0" stroke="rgb(0,0,0)"  stroke-width="3"/>
<line x1="220.5" y1="134.1" x2="181.4" y2="129.5" opacity="1.0" stroke="rgb(0,0,0)"  stroke-width="3"/>
<line x1="220.5" y1="134.1" x2="202.8" y2="98.9" opacity="1.0" stroke="rgb(0,0,0)"  stroke-width="3"/>
<line x1="220.5" y1="134.1" x2="240.1" y2="100.0" opacity="1.0" stroke="rgb(0,0,0)"  stroke-width="3"/>
<line x1="475.4" y1="408.8" x2="498.3" y2="422.1" opacity="1.0" stroke="rgb(0,0,0)"  stroke-width="3"/>
<line x1="520.8" y1="422.1" x2="543.8" y2="408.8" opacity="1.0" stroke="rgb(0,0,0)"  stroke-width="3"/>
<line x1="509.6" y1="441.6" x2="509.6" y2="468.0" opacity="1.0" stroke="rgb(0,0,0)"  stroke-width="3"/>
<line x1="509.6" y1="415.6" x2="509.6" y2="389.1" opacity="1.0" stroke="rgb(0,0,0)"  stroke-width="3"/>
<line x1="177.0" y1="261.9" x2="200.9" y2="230.6" opacity="1.0" stroke="rgb(0,0,0)"  stroke-width="3"/>
<line x1="200.9" y1="230.6" x2="235.3" y2="249.7" opacity="1.0" stroke="rgb(0,0,0)"  stroke-width="3"/>
<line x1="235.3" y1="249.7" x2="235.8" y2="276.0" opacity="1.0" stroke="rgb(0,0,0)"  stroke-width="3"/>
<line x1="223.3" y1="291.2" x2="197.3" y2="295.6" opacity="1.0" stroke="rgb(0,0,0)"  stroke-width="3"/>
<line x1="197.3" y1="295.6" x2="177.0" y2="261.9" opacity="1.0" stroke="rgb(0,0,0)"  stroke-width="3"/>
<line x1="200.4" y1="286.7" x2="186.3" y2="263.3" opacity="1.0" stroke="rgb(0,0,0)"  stroke-width="3"/>
<line x1="430.9" y1="261.5" x2="404.0" y2="232.8" opacity="1.0" stroke="rgb(0,0,0)"  stroke-width="3"/>
<line x1="404.0" y1="232.8" x2="368.4" y2="249.5" opacity="1.0" stroke="rgb(0,0,0)"  stroke-width="3"/>
<line x1="401.7" y1="241.9" x2="376.9" y2="253.5" opacity="1.0" stroke="rgb(0,0,0)"  stroke-width="3"/>
<line x1="368.4" y1="249.5" x2="371.7" y2="275.6" opacity="1.0" stroke="rgb(0,0,0)"  stroke-width="3"/>
<line x1="386.0" y1="291.0" x2="411.9" y2="296.0" opacity="1.0" stroke="rgb(0,0,0)"  stroke-width="3"/>
<line x1="411.9" y1="296.0" x2="430.9" y2="261.5" opacity="1.0" stroke="rgb(0,0,0)"  stroke-width="3"/>
<line x1="408.5" y1="287.2" x2="421.7" y2="263.3" opacity="1.0" stroke="rgb(0,0,0)"  stroke-width="3"/>
<line x1="331.6" y1="124.6" x2="357.5" y2="129.6" opacity="1.0" stroke="rgb(0,0,0)"  stroke-width="3"/>
<line x1="371.9" y1="145.0" x2="375.1" y2="171.1" opacity="1.0" stroke="rgb(0,0,0)"  stroke-width="3"/>
<line x1="375.1" y1="171.1" x2="339.5" y2="187.8" opacity="1.0" stroke="rgb(0,0,0)"  stroke-width="3"/>
<line x1="339.5" y1="187.8" x2="312.6" y2="159.1" opacity="1.0" stroke="rgb(0,0,0)"  stroke-width="3"/>
<line x1="312.6" y1="159.1" x2="331.6" y2="124.6" opacity="1.0" stroke="rgb(0,0,0)"  stroke-width="3"/>
<line x1="321.8" y1="157.3" x2="335.0" y2="133.4" opacity="1.0" stroke="rgb(0,0,0)"  stroke-width="3"/>
<line x1="270.9" y1="347.2" x2="305.1" y2="366.7" opacity="1.0" stroke="rgb(0,0,0)"  stroke-width="3"/>
<line x1="305.1" y1="366.7" x2="339.0" y2="346.8" opacity="1.0" stroke="rgb(0,0,0)"  stroke-width="3"/>
<line x1="306.6" y1="357.4" x2="330.2" y2="343.6" opacity="1.0" stroke="rgb(0,0,0)"  stroke-width="3"/>
<line x1="339.0" y1="346.8" x2="338.8" y2="307.5" opacity="1.0" stroke="rgb(0,0,0)"  stroke-width="3"/>
<line x1="338.8" y1="307.5" x2="304.6" y2="288.0" opacity="1.0" stroke="rgb(0,0,0)"  stroke-width="3"/>
<line x1="330.0" y1="310.7" x2="306.3" y2="297.2" opacity="1.0" stroke="rgb(0,0,0)"  stroke-width="3"/>
<line x1="304.6" y1="288.0" x2="270.7" y2="307.8" opacity="1.0" stroke="rgb(0,0,0)"  stroke-width="3"/>
<line x1="270.7" y1="307.8" x2="270.9" y2="347.2" opacity="1.0" stroke="rgb(0,0,0)"  stroke-width="3"/>
<line x1="277.9" y1="313.8" x2="278.1" y2="341.1" opacity="1.0" stroke="rgb(0,0,0)"  stroke-width="3"/>
<line x1="303.8" y1="261.7" x2="304.6" y2="288.0" opacity="1.0" stroke="rgb(0,0,0)"  stroke-width="3"/>
<line x1="270.7" y1="307.8" x2="247.5" y2="295.3" opacity="1.0" stroke="rgb(0,0,0)"  stroke-width="3"/>
<line x1="235.3" y1="249.7" x2="269.0" y2="229.5" opacity="1.0" stroke="rgb(0,0,0)"  stroke-width="3"/>
<line x1="244.1" y1="252.8" x2="267.6" y2="238.7" opacity="1.0" stroke="rgb(0,0,0)"  stroke-width="3"/>
<line x1="269.0" y1="229.5" x2="292.0" y2="242.3" opacity="1.0" stroke="rgb(0,0,0)"  stroke-width="3"/>
<line x1="368.4" y1="249.5" x2="336.2" y2="227.0" opacity="1.0" stroke="rgb(0,0,0)"  stroke-width="3"/>
<line x1="336.2" y1="227.0" x2="314.2" y2="241.5" opacity="1.0" stroke="rgb(0,0,0)"  stroke-width="3"/>
<line x1="338.8" y1="307.5" x2="361.9" y2="294.8" opacity="1.0" stroke="rgb(0,0,0)"  stroke-width="3"/>
<line x1="139.0" y1="330.8" x2="178.3" y2="330.0" opacity="1.0" stroke="rgb(0,0,0)"  stroke-width="3"/>
<line x1="144.9" y1="323.5" x2="172.2" y2="322.9" opacity="1.0" stroke="rgb(0,0,0)"  stroke-width="3"/>
<line x1="178.3" y1="330.0" x2="197.3" y2="295.6" opacity="1.0" stroke="rgb(0,0,0)"  stroke-width="3"/>
<line x1="177.0" y1="261.9" x2="137.7" y2="262.7" opacity="1.0" stroke="rgb(0,0,0)"  stroke-width="3"/>
<line x1="137.7" y1="262.7" x2="118.7" y2="297.1" opacity="1.0" stroke="rgb(0,0,0)"  stroke-width="3"/>
<line x1="141.1" y1="271.4" x2="127.9" y2="295.3" opacity="1.0" stroke="rgb(0,0,0)"  stroke-width="3"/>
<line x1="118.7" y1="297.1" x2="139.0" y2="330.8" opacity="1.0" stroke="rgb(0,0,0)"  stroke-width="3"/>
<line x1="490.6" y1="294.4" x2="470.2" y2="260.8" opacity="1.0" stroke="rgb(0,0,0)"  stroke-width="3"/>
<line x1="481.3" y1="293.0" x2="467.2" y2="269.6" opacity="1.0" stroke="rgb(0,0,0)"  stroke-width="3"/>
<line x1="470.2" y1="260.8" x2="430.9" y2="261.5" opacity="1.0" stroke="rgb(0,0,0)"  stroke-width="3"/>
<line x1="411.9" y1="296.0" x2="432.2" y2="329.6" opacity="1.0" stroke="rgb(0,0,0)"  stroke-width="3"/>
<line x1="432.2" y1="329.6" x2="471.6" y2="328.9" opacity="1.0" stroke="rgb(0,0,0)"  stroke-width="3"/>
<line x1="438.1" y1="322.3" x2="465.4" y2="321.8" opacity="1.0" stroke="rgb(0,0,0)"  stroke-width="3"/>
<line x1="471.6" y1="328.9" x2="490.6" y2="294.4" opacity="1.0" stroke="rgb(0,0,0)"  stroke-width="3"/>
<line x1="339.5" y1="187.8" x2="336.2" y2="227.0" opacity="1.0" stroke="rgb(0,0,0)"  stroke-width="3"/>
<line x1="346.2" y1="194.4" x2="343.8" y2="221.6" opacity="1.0" stroke="rgb(0,0,0)"  stroke-width="3"/>
<line x1="404.0" y1="232.8" x2="407.4" y2="193.6" opacity="1.0" stroke="rgb(0,0,0)"  stroke-width="3"/>
<line x1="407.4" y1="193.6" x2="375.1" y2="171.1" opacity="1.0" stroke="rgb(0,0,0)"  stroke-width="3"/>
<line x1="398.4" y1="196.1" x2="375.9" y2="180.4" opacity="1.0" stroke="rgb(0,0,0)"  stroke-width="3"/>
<line x1="200.9" y1="230.6" x2="200.2" y2="191.3" opacity="1.0" stroke="rgb(0,0,0)"  stroke-width="3"/>
<line x1="208.0" y1="224.5" x2="207.5" y2="197.2" opacity="1.0" stroke="rgb(0,0,0)"  stroke-width="3"/>
<line x1="200.2" y1="191.3" x2="233.9" y2="171.1" opacity="1.0" stroke="rgb(0,0,0)"  stroke-width="3"/>
<line x1="233.9" y1="171.1" x2="268.3" y2="190.1" opacity="1.0" stroke="rgb(0,0,0)"  stroke-width="3"/>
<line x1="235.7" y1="180.3" x2="259.6" y2="193.5" opacity="1.0" stroke="rgb(0,0,0)"  stroke-width="3"/>
<line x1="268.3" y1="190.1" x2="269.0" y2="229.5" opacity="1.0" stroke="rgb(0,0,0)"  stroke-width="3"/>
<line x1="253.0" y1="126.2" x2="273.3" y2="159.8" opacity="1.0" stroke="rgb(0,0,0)"  stroke-width="3"/>
<line x1="262.2" y1="127.6" x2="276.4" y2="151.0" opacity="1.0" stroke="rgb(0,0,0)"  stroke-width="3"/>
<line x1="273.3" y1="159.8" x2="312.6" y2="159.1" opacity="1.0" stroke="rgb(0,0,0)"  stroke-width="3"/>
<line x1="331.6" y1="124.6" x2="311.3" y2="91.0" opacity="1.0" stroke="rgb(0,0,0)"  stroke-width="3"/>
<line x1="311.3" y1="91.0" x2="272.0" y2="91.7" opacity="1.0" stroke="rgb(0,0,0)"  stroke-width="3"/>
<line x1="305.5" y1="98.3" x2="278.1" y2="98.8" opacity="1.0" stroke="rgb(0,0,0)"  stroke-width="3"/>
<line x1="272.0" y1="91.7" x2="253.0" y2="126.2" opacity="1.0" stroke="rgb(0,0,0)"  stroke-width="3"/>
<line x1="271.0" y1="487.5" x2="271.0" y2="526.8" opacity="1.0" stroke="rgb(0,0,0)"  stroke-width="3"/>
<line x1="271.0" y1="526.8" x2="305.1" y2="546.5" opacity="1.0" stroke="rgb(0,0,0)"  stroke-width="3"/>
<line x1="279.8" y1="523.6" x2="303.5" y2="537.3" opacity="1.0" stroke="rgb(0,0,0)"  stroke-width="3"/>
<line x1="305.1" y1="546.5" x2="339.1" y2="526.8" opacity="1.0" stroke="rgb(0,0,0)"  stroke-width="3"/>
<line x1="339.1" y1="526.8" x2="339.1" y2="487.5" opacity="1.0" stroke="rgb(0,0,0)"  stroke-width="3"/>
<line x1="331.9" y1="520.8" x2="331.9" y2="493.5" opacity="1.0" stroke="rgb(0,0,0)"  stroke-width="3"/>
<line x1="339.1" y1="487.5" x2="305.1" y2="467.8" opacity="1.0" stroke="rgb(0,0,0)"  stroke-width="3"/>
<line x1="305.1" y1="467.8" x2="271.0" y2="487.5" opacity="1.0" stroke="rgb(0,0,0)"  stroke-width="3"/>
<line x1="303.5" y1="477.1" x2="279.8" y2="490.7" opacity="1.0" stroke="rgb(0,0,0)"  stroke-width="3"/>
<line x1="407.3" y1="487.5" x2="441.3" y2="467.8" opacity="1.0" stroke="rgb(0,0,0)"  stroke-width="3"/>
<line x1="441.3" y1="467.8" x2="441.3" y2="428.5" opacity="1.0" stroke="rgb(0,0,0)"  stroke-width="3"/>
<line x1="434.1" y1="461.8" x2="434.1" y2="434.5" opacity="1.0" stroke="rgb(0,0,0)"  stroke-width="3"/>
<line x1="441.3" y1="428.5" x2="407.3" y2="408.8" opacity="1.0" stroke="rgb(0,0,0)"  stroke-width="3"/>
<line x1="407.3" y1="408.8" x2="373.2" y2="428.5" opacity="1.0" stroke="rgb(0,0,0)"  stroke-width="3"/>
<line x1="405.7" y1="418.1" x2="382.0" y2="431.7" opacity="1.0" stroke="rgb(0,0,0)"  stroke-width="3"/>
<line x1="373.2" y1="428.5" x2="373.2" y2="467.8" opacity="1.0" stroke="rgb(0,0,0)"  stroke-width="3"/>
<line x1="373.2" y1="467.8" x2="407.3" y2="487.5" opacity="1.0" stroke="rgb(0,0,0)"  stroke-width="3"/>
<line x1="382.0" y1="464.6" x2="405.7" y2="478.3" opacity="1.0" stroke="rgb(0,0,0)"  stroke-width="3"/>
<line x1="339.1" y1="369.5" x2="339.1" y2="408.8" opacity="1.0" stroke="rgb(0,0,0)"  stroke-width="3"/>
<line x1="346.3" y1="375.5" x2="346.3" y2="402.8" opacity="1.0" stroke="rgb(0,0,0)"  stroke-width="3"/>
<line x1="339.1" y1="408.8" x2="373.2" y2="428.5" opacity="1.0" stroke="rgb(0,0,0)"  stroke-width="3"/>
<line x1="407.3" y1="408.8" x2="407.3" y2="369.5" opacity="1.0" stroke="rgb(0,0,0)"  stroke-width="3"/>
<line x1="407.3" y1="369.5" x2="373.2" y2="349.8" opacity="1.0" stroke="rgb(0,0,0)"  stroke-width="3"/>
<line x1="398.5" y1="372.7" x2="374.8" y2="359.1" opacity="1.0" stroke="rgb(0,0,0)"  stroke-width="3"/>
<line x1="373.2" y1="349.8" x2="339.1" y2="369.5" opacity="1.0" stroke="rgb(0,0,0)"  stroke-width="3"/>
<line x1="475.4" y1="526.8" x2="475.4" y2="487.5" opacity="1.0" stroke="rgb(0,0,0)"  stroke-width="3"/>
<line x1="468.2" y1="520.8" x2="468.2" y2="493.5" opacity="1.0" stroke="rgb(0,0,0)"  stroke-width="3"/>
<line x1="475.4" y1="487.5" x2="441.3" y2="467.8" opacity="1.0" stroke="rgb(0,0,0)"  stroke-width="3"/>
<line x1="407.3" y1="487.5" x2="407.3" y2="526.8" opacity="1.0" stroke="rgb(0,0,0)"  stroke-width="3"/>
<line x1="407.3" y1="526.8" x2="441.3" y2="546.5" opacity="1.0" stroke="rgb(0,0,0)"  stroke-width="3"/>
<line x1="416.1" y1="523.6" x2="439.7" y2="537.3" opacity="1.0" stroke="rgb(0,0,0)"  stroke-width="3"/>
<line x1="441.3" y1="546.5" x2="475.4" y2="526.8" opacity="1.0" stroke="rgb(0,0,0)"  stroke-width="3"/>
<line x1="436.6" y1="116.6" x2="465.3" y2="89.7" opacity="1.0" stroke="rgb(0,0,0)"  stroke-width="3"/>
<line x1="465.3" y1="89.7" x2="456.4" y2="51.4" opacity="1.0" stroke="rgb(0,0,0)"  stroke-width="3"/>
<line x1="457.0" y1="85.5" x2="450.8" y2="58.9" opacity="1.0" stroke="rgb(0,0,0)"  stroke-width="3"/>
<line x1="456.4" y1="51.4" x2="418.8" y2="40.0" opacity="1.0" stroke="rgb(0,0,0)"  stroke-width="3"/>
<line x1="418.8" y1="40.0" x2="390.1" y2="66.9" opacity="1.0" stroke="rgb(0,0,0)"  stroke-width="3"/>
<line x1="419.3" y1="49.4" x2="399.4" y2="68.0" opacity="1.0" stroke="rgb(0,0,0)"  stroke-width="3"/>
<line x1="390.1" y1="66.9" x2="399.0" y2="105.2" opacity="1.0" stroke="rgb(0,0,0)"  stroke-width="3"/>
<line x1="399.0" y1="105.2" x2="436.6" y2="116.6" opacity="1.0" stroke="rgb(0,0,0)"  stroke-width="3"/>
<line x1="406.8" y1="100.0" x2="433.0" y2="108.0" opacity="1.0" stroke="rgb(0,0,0)"  stroke-width="3"/>
<text x="364.265334" y="140.071809" fill="rgb(12,12,255)" stroke-width="0" font-weight="bold" font-size="25.92" >N</text>
<text x="503.587248" y="436.558941" fill="rgb(127,153,153)" stroke-width="0" font-weight="bold" font-size="25.92" >Si</text>
<text x="367.283062" y="296.526123" fill="rgb(12,12,255)" stroke-width="0" font-weight="bold" font-size="25.92" >N</text>
<text x="230.119360" y="297.039564" fill="rgb(12,12,255)" stroke-width="0" font-weight="bold" font-size="25.92" >N</text>
<text x="297.330456" y="256.667204" fill="rgb(255,181,181)" stroke-width="0" font-weight="bold" font-size="25.92" >B</text>
</svg>
</g>
</svg>
