<?xml version="1.0"?>
<svg version="1.1" id="topsvg"
xmlns="http://www.w3.org/2000/svg" xmlns:xlink="http://www.w3.org/1999/xlink"
xmlns:cml="http://www.xml-cml.org/schema" x="0" y="0" width="200px" height="200px" viewBox="0 0 100 100">
<title>GD156.sdf - Open Babel Depiction</title>
<rect x="0" y="0" width="100" height="100" fill="white"/>
<g transform="translate(0,0)">
<svg width="100" height="100" x="0" y="0" viewBox="0 0 583.065 587.251"
font-family="sans-serif" stroke="rgb(0,0,0)" stroke-width="3"  stroke-linecap="round">
<line x1="304.2" y1="367.1" x2="304.2" y2="468.5" opacity="1.0" stroke="rgb(0,0,0)"  stroke-width="3"/>
<line x1="338.4" y1="488.2" x2="372.5" y2="468.5" opacity="1.0" stroke="rgb(0,0,0)"  stroke-width="3"/>
<line x1="440.7" y1="429.1" x2="474.8" y2="409.4" opacity="1.0" stroke="rgb(0,0,0)"  stroke-width="3"/>
<line x1="379.0" y1="123.3" x2="398.3" y2="105.3" opacity="1.0" stroke="rgb(0,0,0)"  stroke-width="3"/>
<line x1="233.0" y1="171.2" x2="219.5" y2="134.2" opacity="1.0" stroke="rgb(0,0,0)"  stroke-width="3"/>
<line x1="219.5" y1="134.2" x2="180.4" y2="129.7" opacity="1.0" stroke="rgb(0,0,0)"  stroke-width="3"/>
<line x1="219.5" y1="134.2" x2="201.8" y2="99.0" opacity="1.0" stroke="rgb(0,0,0)"  stroke-width="3"/>
<line x1="219.5" y1="134.2" x2="239.2" y2="100.1" opacity="1.0" stroke="rgb(0,0,0)"  stroke-width="3"/>
<line x1="78.2" y1="297.5" x2="40.0" y2="287.2" opacity="1.0" stroke="rgb(0,0,0)"  stroke-width="3"/>
<line x1="78.2" y1="297.5" x2="78.2" y2="257.9" opacity="1.0" stroke="rgb(0,0,0)"  stroke-width="3"/>
<line x1="117.6" y1="364.9" x2="107.3" y2="403.1" opacity="1.0" stroke="rgb(0,0,0)"  stroke-width="3"/>
<line x1="117.6" y1="364.9" x2="151.8" y2="384.7" opacity="1.0" stroke="rgb(0,0,0)"  stroke-width="3"/>
<line x1="176.0" y1="262.2" x2="199.9" y2="230.9" opacity="1.0" stroke="rgb(0,0,0)"  stroke-width="3"/>
<line x1="199.9" y1="230.9" x2="234.4" y2="250.0" opacity="1.0" stroke="rgb(0,0,0)"  stroke-width="3"/>
<line x1="234.4" y1="250.0" x2="234.9" y2="276.4" opacity="1.0" stroke="rgb(0,0,0)"  stroke-width="3"/>
<line x1="222.4" y1="291.6" x2="196.3" y2="296.0" opacity="1.0" stroke="rgb(0,0,0)"  stroke-width="3"/>
<line x1="196.3" y1="296.0" x2="176.0" y2="262.2" opacity="1.0" stroke="rgb(0,0,0)"  stroke-width="3"/>
<line x1="199.4" y1="287.1" x2="185.3" y2="263.6" opacity="1.0" stroke="rgb(0,0,0)"  stroke-width="3"/>
<line x1="430.3" y1="261.9" x2="403.4" y2="233.1" opacity="1.0" stroke="rgb(0,0,0)"  stroke-width="3"/>
<line x1="403.4" y1="233.1" x2="367.7" y2="249.8" opacity="1.0" stroke="rgb(0,0,0)"  stroke-width="3"/>
<line x1="401.0" y1="242.2" x2="376.2" y2="253.8" opacity="1.0" stroke="rgb(0,0,0)"  stroke-width="3"/>
<line x1="367.7" y1="249.8" x2="371.0" y2="276.0" opacity="1.0" stroke="rgb(0,0,0)"  stroke-width="3"/>
<line x1="385.3" y1="291.4" x2="411.2" y2="296.3" opacity="1.0" stroke="rgb(0,0,0)"  stroke-width="3"/>
<line x1="411.2" y1="296.3" x2="430.3" y2="261.9" opacity="1.0" stroke="rgb(0,0,0)"  stroke-width="3"/>
<line x1="407.8" y1="287.6" x2="421.1" y2="263.6" opacity="1.0" stroke="rgb(0,0,0)"  stroke-width="3"/>
<line x1="330.9" y1="124.8" x2="356.8" y2="129.8" opacity="1.0" stroke="rgb(0,0,0)"  stroke-width="3"/>
<line x1="371.1" y1="145.1" x2="374.4" y2="171.3" opacity="1.0" stroke="rgb(0,0,0)"  stroke-width="3"/>
<line x1="374.4" y1="171.3" x2="338.7" y2="188.0" opacity="1.0" stroke="rgb(0,0,0)"  stroke-width="3"/>
<line x1="338.7" y1="188.0" x2="311.8" y2="159.3" opacity="1.0" stroke="rgb(0,0,0)"  stroke-width="3"/>
<line x1="311.8" y1="159.3" x2="330.9" y2="124.8" opacity="1.0" stroke="rgb(0,0,0)"  stroke-width="3"/>
<line x1="321.0" y1="157.5" x2="334.3" y2="133.5" opacity="1.0" stroke="rgb(0,0,0)"  stroke-width="3"/>
<line x1="270.0" y1="347.6" x2="304.2" y2="367.1" opacity="1.0" stroke="rgb(0,0,0)"  stroke-width="3"/>
<line x1="304.2" y1="367.1" x2="338.3" y2="347.2" opacity="1.0" stroke="rgb(0,0,0)"  stroke-width="3"/>
<line x1="305.8" y1="357.9" x2="329.4" y2="344.1" opacity="1.0" stroke="rgb(0,0,0)"  stroke-width="3"/>
<line x1="338.3" y1="347.2" x2="338.0" y2="307.9" opacity="1.0" stroke="rgb(0,0,0)"  stroke-width="3"/>
<line x1="338.0" y1="307.9" x2="303.8" y2="288.4" opacity="1.0" stroke="rgb(0,0,0)"  stroke-width="3"/>
<line x1="329.3" y1="311.1" x2="305.4" y2="297.6" opacity="1.0" stroke="rgb(0,0,0)"  stroke-width="3"/>
<line x1="303.8" y1="288.4" x2="269.8" y2="308.2" opacity="1.0" stroke="rgb(0,0,0)"  stroke-width="3"/>
<line x1="269.8" y1="308.2" x2="270.0" y2="347.6" opacity="1.0" stroke="rgb(0,0,0)"  stroke-width="3"/>
<line x1="277.0" y1="314.2" x2="277.2" y2="341.6" opacity="1.0" stroke="rgb(0,0,0)"  stroke-width="3"/>
<line x1="302.9" y1="262.0" x2="303.8" y2="288.4" opacity="1.0" stroke="rgb(0,0,0)"  stroke-width="3"/>
<line x1="269.8" y1="308.2" x2="246.6" y2="295.6" opacity="1.0" stroke="rgb(0,0,0)"  stroke-width="3"/>
<line x1="234.4" y1="250.0" x2="268.1" y2="229.7" opacity="1.0" stroke="rgb(0,0,0)"  stroke-width="3"/>
<line x1="243.2" y1="253.1" x2="266.7" y2="239.0" opacity="1.0" stroke="rgb(0,0,0)"  stroke-width="3"/>
<line x1="268.1" y1="229.7" x2="291.2" y2="242.6" opacity="1.0" stroke="rgb(0,0,0)"  stroke-width="3"/>
<line x1="367.7" y1="249.8" x2="335.4" y2="227.3" opacity="1.0" stroke="rgb(0,0,0)"  stroke-width="3"/>
<line x1="335.4" y1="227.3" x2="313.4" y2="241.8" opacity="1.0" stroke="rgb(0,0,0)"  stroke-width="3"/>
<line x1="338.0" y1="307.9" x2="361.2" y2="295.2" opacity="1.0" stroke="rgb(0,0,0)"  stroke-width="3"/>
<line x1="137.9" y1="331.2" x2="177.3" y2="330.5" opacity="1.0" stroke="rgb(0,0,0)"  stroke-width="3"/>
<line x1="143.8" y1="323.9" x2="171.2" y2="323.4" opacity="1.0" stroke="rgb(0,0,0)"  stroke-width="3"/>
<line x1="177.3" y1="330.5" x2="196.3" y2="296.0" opacity="1.0" stroke="rgb(0,0,0)"  stroke-width="3"/>
<line x1="176.0" y1="262.2" x2="136.6" y2="263.0" opacity="1.0" stroke="rgb(0,0,0)"  stroke-width="3"/>
<line x1="136.6" y1="263.0" x2="117.6" y2="297.5" opacity="1.0" stroke="rgb(0,0,0)"  stroke-width="3"/>
<line x1="140.0" y1="271.7" x2="126.8" y2="295.7" opacity="1.0" stroke="rgb(0,0,0)"  stroke-width="3"/>
<line x1="117.6" y1="297.5" x2="137.9" y2="331.2" opacity="1.0" stroke="rgb(0,0,0)"  stroke-width="3"/>
<line x1="490.0" y1="294.8" x2="469.7" y2="261.1" opacity="1.0" stroke="rgb(0,0,0)"  stroke-width="3"/>
<line x1="480.8" y1="293.4" x2="466.6" y2="269.9" opacity="1.0" stroke="rgb(0,0,0)"  stroke-width="3"/>
<line x1="469.7" y1="261.1" x2="430.3" y2="261.9" opacity="1.0" stroke="rgb(0,0,0)"  stroke-width="3"/>
<line x1="411.2" y1="296.3" x2="431.6" y2="330.1" opacity="1.0" stroke="rgb(0,0,0)"  stroke-width="3"/>
<line x1="431.6" y1="330.1" x2="471.0" y2="329.3" opacity="1.0" stroke="rgb(0,0,0)"  stroke-width="3"/>
<line x1="437.5" y1="322.8" x2="464.8" y2="322.2" opacity="1.0" stroke="rgb(0,0,0)"  stroke-width="3"/>
<line x1="471.0" y1="329.3" x2="490.0" y2="294.8" opacity="1.0" stroke="rgb(0,0,0)"  stroke-width="3"/>
<line x1="338.7" y1="188.0" x2="335.4" y2="227.3" opacity="1.0" stroke="rgb(0,0,0)"  stroke-width="3"/>
<line x1="345.4" y1="194.6" x2="343.1" y2="221.9" opacity="1.0" stroke="rgb(0,0,0)"  stroke-width="3"/>
<line x1="403.4" y1="233.1" x2="406.7" y2="193.8" opacity="1.0" stroke="rgb(0,0,0)"  stroke-width="3"/>
<line x1="406.7" y1="193.8" x2="374.4" y2="171.3" opacity="1.0" stroke="rgb(0,0,0)"  stroke-width="3"/>
<line x1="397.7" y1="196.3" x2="375.2" y2="180.6" opacity="1.0" stroke="rgb(0,0,0)"  stroke-width="3"/>
<line x1="199.9" y1="230.9" x2="199.2" y2="191.5" opacity="1.0" stroke="rgb(0,0,0)"  stroke-width="3"/>
<line x1="207.0" y1="224.8" x2="206.5" y2="197.4" opacity="1.0" stroke="rgb(0,0,0)"  stroke-width="3"/>
<line x1="199.2" y1="191.5" x2="233.0" y2="171.2" opacity="1.0" stroke="rgb(0,0,0)"  stroke-width="3"/>
<line x1="233.0" y1="171.2" x2="267.4" y2="190.3" opacity="1.0" stroke="rgb(0,0,0)"  stroke-width="3"/>
<line x1="234.7" y1="180.5" x2="258.7" y2="193.7" opacity="1.0" stroke="rgb(0,0,0)"  stroke-width="3"/>
<line x1="267.4" y1="190.3" x2="268.1" y2="229.7" opacity="1.0" stroke="rgb(0,0,0)"  stroke-width="3"/>
<line x1="252.1" y1="126.3" x2="272.4" y2="160.0" opacity="1.0" stroke="rgb(0,0,0)"  stroke-width="3"/>
<line x1="261.3" y1="127.7" x2="275.5" y2="151.2" opacity="1.0" stroke="rgb(0,0,0)"  stroke-width="3"/>
<line x1="272.4" y1="160.0" x2="311.8" y2="159.3" opacity="1.0" stroke="rgb(0,0,0)"  stroke-width="3"/>
<line x1="330.9" y1="124.8" x2="310.5" y2="91.0" opacity="1.0" stroke="rgb(0,0,0)"  stroke-width="3"/>
<line x1="310.5" y1="91.0" x2="271.1" y2="91.8" opacity="1.0" stroke="rgb(0,0,0)"  stroke-width="3"/>
<line x1="304.6" y1="98.3" x2="277.3" y2="98.9" opacity="1.0" stroke="rgb(0,0,0)"  stroke-width="3"/>
<line x1="271.1" y1="91.8" x2="252.1" y2="126.3" opacity="1.0" stroke="rgb(0,0,0)"  stroke-width="3"/>
<line x1="270.1" y1="488.2" x2="270.1" y2="527.6" opacity="1.0" stroke="rgb(0,0,0)"  stroke-width="3"/>
<line x1="270.1" y1="527.6" x2="304.2" y2="547.3" opacity="1.0" stroke="rgb(0,0,0)"  stroke-width="3"/>
<line x1="278.9" y1="524.3" x2="302.7" y2="538.0" opacity="1.0" stroke="rgb(0,0,0)"  stroke-width="3"/>
<line x1="304.2" y1="547.3" x2="338.4" y2="527.6" opacity="1.0" stroke="rgb(0,0,0)"  stroke-width="3"/>
<line x1="338.4" y1="527.6" x2="338.4" y2="488.2" opacity="1.0" stroke="rgb(0,0,0)"  stroke-width="3"/>
<line x1="331.2" y1="521.6" x2="331.2" y2="494.2" opacity="1.0" stroke="rgb(0,0,0)"  stroke-width="3"/>
<line x1="338.4" y1="488.2" x2="304.2" y2="468.5" opacity="1.0" stroke="rgb(0,0,0)"  stroke-width="3"/>
<line x1="304.2" y1="468.5" x2="270.1" y2="488.2" opacity="1.0" stroke="rgb(0,0,0)"  stroke-width="3"/>
<line x1="302.7" y1="477.7" x2="278.9" y2="491.4" opacity="1.0" stroke="rgb(0,0,0)"  stroke-width="3"/>
<line x1="406.6" y1="488.2" x2="440.7" y2="468.5" opacity="1.0" stroke="rgb(0,0,0)"  stroke-width="3"/>
<line x1="440.7" y1="468.5" x2="440.7" y2="429.1" opacity="1.0" stroke="rgb(0,0,0)"  stroke-width="3"/>
<line x1="433.5" y1="462.5" x2="433.5" y2="435.1" opacity="1.0" stroke="rgb(0,0,0)"  stroke-width="3"/>
<line x1="440.7" y1="429.1" x2="406.6" y2="409.4" opacity="1.0" stroke="rgb(0,0,0)"  stroke-width="3"/>
<line x1="406.6" y1="409.4" x2="372.5" y2="429.1" opacity="1.0" stroke="rgb(0,0,0)"  stroke-width="3"/>
<line x1="405.0" y1="418.6" x2="381.3" y2="432.3" opacity="1.0" stroke="rgb(0,0,0)"  stroke-width="3"/>
<line x1="372.5" y1="429.1" x2="372.5" y2="468.5" opacity="1.0" stroke="rgb(0,0,0)"  stroke-width="3"/>
<line x1="372.5" y1="468.5" x2="406.6" y2="488.2" opacity="1.0" stroke="rgb(0,0,0)"  stroke-width="3"/>
<line x1="381.3" y1="465.2" x2="405.0" y2="478.9" opacity="1.0" stroke="rgb(0,0,0)"  stroke-width="3"/>
<line x1="338.4" y1="370.0" x2="338.4" y2="409.4" opacity="1.0" stroke="rgb(0,0,0)"  stroke-width="3"/>
<line x1="345.6" y1="376.0" x2="345.6" y2="403.4" opacity="1.0" stroke="rgb(0,0,0)"  stroke-width="3"/>
<line x1="338.4" y1="409.4" x2="372.5" y2="429.1" opacity="1.0" stroke="rgb(0,0,0)"  stroke-width="3"/>
<line x1="406.6" y1="409.4" x2="406.6" y2="370.0" opacity="1.0" stroke="rgb(0,0,0)"  stroke-width="3"/>
<line x1="406.6" y1="370.0" x2="372.5" y2="350.3" opacity="1.0" stroke="rgb(0,0,0)"  stroke-width="3"/>
<line x1="397.8" y1="373.2" x2="374.1" y2="359.5" opacity="1.0" stroke="rgb(0,0,0)"  stroke-width="3"/>
<line x1="372.5" y1="350.3" x2="338.4" y2="370.0" opacity="1.0" stroke="rgb(0,0,0)"  stroke-width="3"/>
<line x1="474.8" y1="527.6" x2="474.8" y2="488.2" opacity="1.0" stroke="rgb(0,0,0)"  stroke-width="3"/>
<line x1="467.6" y1="521.6" x2="467.6" y2="494.2" opacity="1.0" stroke="rgb(0,0,0)"  stroke-width="3"/>
<line x1="474.8" y1="488.2" x2="440.7" y2="468.5" opacity="1.0" stroke="rgb(0,0,0)"  stroke-width="3"/>
<line x1="406.6" y1="488.2" x2="406.6" y2="527.6" opacity="1.0" stroke="rgb(0,0,0)"  stroke-width="3"/>
<line x1="406.6" y1="527.6" x2="440.7" y2="547.3" opacity="1.0" stroke="rgb(0,0,0)"  stroke-width="3"/>
<line x1="415.4" y1="524.3" x2="439.1" y2="538.0" opacity="1.0" stroke="rgb(0,0,0)"  stroke-width="3"/>
<line x1="440.7" y1="547.3" x2="474.8" y2="527.6" opacity="1.0" stroke="rgb(0,0,0)"  stroke-width="3"/>
<line x1="508.9" y1="429.1" x2="543.1" y2="409.4" opacity="1.0" stroke="rgb(0,0,0)"  stroke-width="3"/>
<line x1="543.1" y1="409.4" x2="543.1" y2="370.0" opacity="1.0" stroke="rgb(0,0,0)"  stroke-width="3"/>
<line x1="535.9" y1="403.4" x2="535.9" y2="376.0" opacity="1.0" stroke="rgb(0,0,0)"  stroke-width="3"/>
<line x1="543.1" y1="370.0" x2="508.9" y2="350.3" opacity="1.0" stroke="rgb(0,0,0)"  stroke-width="3"/>
<line x1="508.9" y1="350.3" x2="474.8" y2="370.0" opacity="1.0" stroke="rgb(0,0,0)"  stroke-width="3"/>
<line x1="507.4" y1="359.5" x2="483.6" y2="373.2" opacity="1.0" stroke="rgb(0,0,0)"  stroke-width="3"/>
<line x1="474.8" y1="370.0" x2="474.8" y2="409.4" opacity="1.0" stroke="rgb(0,0,0)"  stroke-width="3"/>
<line x1="474.8" y1="409.4" x2="508.9" y2="429.1" opacity="1.0" stroke="rgb(0,0,0)"  stroke-width="3"/>
<line x1="483.6" y1="406.1" x2="507.4" y2="419.8" opacity="1.0" stroke="rgb(0,0,0)"  stroke-width="3"/>
<line x1="436.0" y1="116.7" x2="464.8" y2="89.8" opacity="1.0" stroke="rgb(0,0,0)"  stroke-width="3"/>
<line x1="464.8" y1="89.8" x2="455.8" y2="51.4" opacity="1.0" stroke="rgb(0,0,0)"  stroke-width="3"/>
<line x1="456.4" y1="85.6" x2="450.2" y2="58.9" opacity="1.0" stroke="rgb(0,0,0)"  stroke-width="3"/>
<line x1="455.8" y1="51.4" x2="418.1" y2="40.0" opacity="1.0" stroke="rgb(0,0,0)"  stroke-width="3"/>
<line x1="418.1" y1="40.0" x2="389.4" y2="66.9" opacity="1.0" stroke="rgb(0,0,0)"  stroke-width="3"/>
<line x1="418.7" y1="49.4" x2="398.7" y2="68.1" opacity="1.0" stroke="rgb(0,0,0)"  stroke-width="3"/>
<line x1="389.4" y1="66.9" x2="398.3" y2="105.3" opacity="1.0" stroke="rgb(0,0,0)"  stroke-width="3"/>
<line x1="398.3" y1="105.3" x2="436.0" y2="116.7" opacity="1.0" stroke="rgb(0,0,0)"  stroke-width="3"/>
<line x1="406.1" y1="100.1" x2="432.3" y2="108.1" opacity="1.0" stroke="rgb(0,0,0)"  stroke-width="3"/>
<line x1="78.2" y1="364.9" x2="117.6" y2="364.9" opacity="1.0" stroke="rgb(0,0,0)"  stroke-width="3"/>
<line x1="117.6" y1="364.9" x2="137.9" y2="331.2" opacity="1.0" stroke="rgb(0,0,0)"  stroke-width="3"/>
<line x1="117.6" y1="297.5" x2="78.2" y2="297.5" opacity="1.0" stroke="rgb(0,0,0)"  stroke-width="3"/>
<line x1="78.2" y1="297.5" x2="59.1" y2="331.2" opacity="1.0" stroke="rgb(0,0,0)"  stroke-width="3"/>
<line x1="59.1" y1="331.2" x2="78.2" y2="364.9" opacity="1.0" stroke="rgb(0,0,0)"  stroke-width="3"/>
<text x="363.538267" y="140.208409" fill="rgb(12,12,255)" stroke-width="0" font-weight="bold" font-size="25.92" >N</text>
<text x="366.560471" y="296.894842" fill="rgb(12,12,255)" stroke-width="0" font-weight="bold" font-size="25.92" >N</text>
<text x="229.193271" y="297.409045" fill="rgb(12,12,255)" stroke-width="0" font-weight="bold" font-size="25.92" >N</text>
<text x="296.504083" y="256.976787" fill="rgb(255,181,181)" stroke-width="0" font-weight="bold" font-size="25.92" >B</text>
</svg>
</g>
</svg>
