<?xml version="1.0"?>
<svg version="1.1" id="topsvg"
xmlns="http://www.w3.org/2000/svg" xmlns:xlink="http://www.w3.org/1999/xlink"
xmlns:cml="http://www.xml-cml.org/schema" x="0" y="0" width="200px" height="200px" viewBox="0 0 100 100">
<title>GD164.sdf - Open Babel Depiction</title>
<rect x="0" y="0" width="100" height="100" fill="white"/>
<g transform="translate(0,0)">
<svg width="100" height="100" x="0" y="0" viewBox="0 0 625.552 669.745"
font-family="sans-serif" stroke="rgb(0,0,0)" stroke-width="3"  stroke-linecap="round">
<line x1="424.7" y1="539.7" x2="461.8" y2="484.7" opacity="1.0" stroke="rgb(0,0,0)"  stroke-width="3"/>
<line x1="504.6" y1="421.3" x2="526.0" y2="389.6" opacity="1.0" stroke="rgb(0,0,0)"  stroke-width="3"/>
<line x1="370.8" y1="120.7" x2="389.3" y2="103.4" opacity="1.0" stroke="rgb(0,0,0)"  stroke-width="3"/>
<line x1="228.7" y1="167.5" x2="215.6" y2="131.5" opacity="1.0" stroke="rgb(0,0,0)"  stroke-width="3"/>
<line x1="215.6" y1="131.5" x2="177.6" y2="127.1" opacity="1.0" stroke="rgb(0,0,0)"  stroke-width="3"/>
<line x1="215.6" y1="131.5" x2="198.4" y2="97.3" opacity="1.0" stroke="rgb(0,0,0)"  stroke-width="3"/>
<line x1="215.6" y1="131.5" x2="234.7" y2="98.4" opacity="1.0" stroke="rgb(0,0,0)"  stroke-width="3"/>
<line x1="116.5" y1="290.1" x2="78.3" y2="290.1" opacity="1.0" stroke="rgb(0,0,0)"  stroke-width="3"/>
<line x1="78.3" y1="290.1" x2="59.1" y2="323.3" opacity="1.0" stroke="rgb(0,0,0)"  stroke-width="3"/>
<line x1="78.3" y1="290.1" x2="40.0" y2="290.1" opacity="1.0" stroke="rgb(0,0,0)"  stroke-width="3"/>
<line x1="78.3" y1="290.1" x2="59.1" y2="257.0" opacity="1.0" stroke="rgb(0,0,0)"  stroke-width="3"/>
<line x1="297.9" y1="357.8" x2="297.9" y2="549.5" opacity="1.0" stroke="rgb(0,0,0)"  stroke-width="3"/>
<line x1="173.3" y1="255.9" x2="196.5" y2="225.5" opacity="1.0" stroke="rgb(0,0,0)"  stroke-width="3"/>
<line x1="196.5" y1="225.5" x2="230.0" y2="244.0" opacity="1.0" stroke="rgb(0,0,0)"  stroke-width="3"/>
<line x1="230.0" y1="244.0" x2="230.5" y2="269.3" opacity="1.0" stroke="rgb(0,0,0)"  stroke-width="3"/>
<line x1="218.0" y1="284.5" x2="193.1" y2="288.7" opacity="1.0" stroke="rgb(0,0,0)"  stroke-width="3"/>
<line x1="193.1" y1="288.7" x2="173.3" y2="255.9" opacity="1.0" stroke="rgb(0,0,0)"  stroke-width="3"/>
<line x1="196.1" y1="279.8" x2="182.6" y2="257.3" opacity="1.0" stroke="rgb(0,0,0)"  stroke-width="3"/>
<line x1="420.3" y1="255.5" x2="394.2" y2="227.6" opacity="1.0" stroke="rgb(0,0,0)"  stroke-width="3"/>
<line x1="394.2" y1="227.6" x2="359.5" y2="243.8" opacity="1.0" stroke="rgb(0,0,0)"  stroke-width="3"/>
<line x1="391.8" y1="236.7" x2="368.0" y2="247.8" opacity="1.0" stroke="rgb(0,0,0)"  stroke-width="3"/>
<line x1="359.5" y1="243.8" x2="362.7" y2="268.9" opacity="1.0" stroke="rgb(0,0,0)"  stroke-width="3"/>
<line x1="377.0" y1="284.3" x2="401.9" y2="289.0" opacity="1.0" stroke="rgb(0,0,0)"  stroke-width="3"/>
<line x1="401.9" y1="289.0" x2="420.3" y2="255.5" opacity="1.0" stroke="rgb(0,0,0)"  stroke-width="3"/>
<line x1="398.4" y1="280.3" x2="411.1" y2="257.3" opacity="1.0" stroke="rgb(0,0,0)"  stroke-width="3"/>
<line x1="323.7" y1="122.3" x2="348.6" y2="127.1" opacity="1.0" stroke="rgb(0,0,0)"  stroke-width="3"/>
<line x1="362.9" y1="142.5" x2="366.1" y2="167.6" opacity="1.0" stroke="rgb(0,0,0)"  stroke-width="3"/>
<line x1="366.1" y1="167.6" x2="331.4" y2="183.8" opacity="1.0" stroke="rgb(0,0,0)"  stroke-width="3"/>
<line x1="331.4" y1="183.8" x2="305.3" y2="155.9" opacity="1.0" stroke="rgb(0,0,0)"  stroke-width="3"/>
<line x1="305.3" y1="155.9" x2="323.7" y2="122.3" opacity="1.0" stroke="rgb(0,0,0)"  stroke-width="3"/>
<line x1="314.5" y1="154.1" x2="327.2" y2="131.1" opacity="1.0" stroke="rgb(0,0,0)"  stroke-width="3"/>
<line x1="327.2" y1="574.1" x2="365.1" y2="568.8" opacity="1.0" stroke="rgb(0,0,0)"  stroke-width="3"/>
<line x1="365.1" y1="568.8" x2="381.9" y2="603.2" opacity="1.0" stroke="rgb(0,0,0)"  stroke-width="3"/>
<line x1="381.9" y1="603.2" x2="363.7" y2="620.7" opacity="1.0" stroke="rgb(0,0,0)"  stroke-width="3"/>
<line x1="342.9" y1="623.6" x2="320.6" y2="611.8" opacity="1.0" stroke="rgb(0,0,0)"  stroke-width="3"/>
<line x1="320.6" y1="611.8" x2="327.2" y2="574.1" opacity="1.0" stroke="rgb(0,0,0)"  stroke-width="3"/>
<line x1="328.7" y1="607.1" x2="333.3" y2="581.2" opacity="1.0" stroke="rgb(0,0,0)"  stroke-width="3"/>
<line x1="264.6" y1="338.9" x2="297.9" y2="357.8" opacity="1.0" stroke="rgb(0,0,0)"  stroke-width="3"/>
<line x1="297.9" y1="357.8" x2="330.9" y2="338.5" opacity="1.0" stroke="rgb(0,0,0)"  stroke-width="3"/>
<line x1="299.4" y1="348.6" x2="322.1" y2="335.3" opacity="1.0" stroke="rgb(0,0,0)"  stroke-width="3"/>
<line x1="330.9" y1="338.5" x2="330.7" y2="300.2" opacity="1.0" stroke="rgb(0,0,0)"  stroke-width="3"/>
<line x1="330.7" y1="300.2" x2="297.5" y2="281.3" opacity="1.0" stroke="rgb(0,0,0)"  stroke-width="3"/>
<line x1="321.9" y1="303.5" x2="299.1" y2="290.5" opacity="1.0" stroke="rgb(0,0,0)"  stroke-width="3"/>
<line x1="297.5" y1="281.3" x2="264.4" y2="300.6" opacity="1.0" stroke="rgb(0,0,0)"  stroke-width="3"/>
<line x1="264.4" y1="300.6" x2="264.6" y2="338.9" opacity="1.0" stroke="rgb(0,0,0)"  stroke-width="3"/>
<line x1="271.7" y1="306.6" x2="271.8" y2="332.8" opacity="1.0" stroke="rgb(0,0,0)"  stroke-width="3"/>
<line x1="296.6" y1="256.0" x2="297.5" y2="281.3" opacity="1.0" stroke="rgb(0,0,0)"  stroke-width="3"/>
<line x1="264.4" y1="300.6" x2="242.2" y2="288.5" opacity="1.0" stroke="rgb(0,0,0)"  stroke-width="3"/>
<line x1="230.0" y1="244.0" x2="262.8" y2="224.3" opacity="1.0" stroke="rgb(0,0,0)"  stroke-width="3"/>
<line x1="238.9" y1="247.1" x2="261.4" y2="233.6" opacity="1.0" stroke="rgb(0,0,0)"  stroke-width="3"/>
<line x1="262.8" y1="224.3" x2="284.9" y2="236.7" opacity="1.0" stroke="rgb(0,0,0)"  stroke-width="3"/>
<line x1="359.5" y1="243.8" x2="328.1" y2="221.9" opacity="1.0" stroke="rgb(0,0,0)"  stroke-width="3"/>
<line x1="328.1" y1="221.9" x2="307.1" y2="235.9" opacity="1.0" stroke="rgb(0,0,0)"  stroke-width="3"/>
<line x1="330.7" y1="300.2" x2="352.9" y2="288.1" opacity="1.0" stroke="rgb(0,0,0)"  stroke-width="3"/>
<line x1="136.3" y1="322.9" x2="174.6" y2="322.2" opacity="1.0" stroke="rgb(0,0,0)"  stroke-width="3"/>
<line x1="142.2" y1="315.6" x2="168.4" y2="315.1" opacity="1.0" stroke="rgb(0,0,0)"  stroke-width="3"/>
<line x1="174.6" y1="322.2" x2="193.1" y2="288.7" opacity="1.0" stroke="rgb(0,0,0)"  stroke-width="3"/>
<line x1="173.3" y1="255.9" x2="135.0" y2="256.6" opacity="1.0" stroke="rgb(0,0,0)"  stroke-width="3"/>
<line x1="135.0" y1="256.6" x2="116.5" y2="290.1" opacity="1.0" stroke="rgb(0,0,0)"  stroke-width="3"/>
<line x1="138.4" y1="265.4" x2="125.7" y2="288.4" opacity="1.0" stroke="rgb(0,0,0)"  stroke-width="3"/>
<line x1="116.5" y1="290.1" x2="136.3" y2="322.9" opacity="1.0" stroke="rgb(0,0,0)"  stroke-width="3"/>
<line x1="478.4" y1="287.6" x2="458.6" y2="254.8" opacity="1.0" stroke="rgb(0,0,0)"  stroke-width="3"/>
<line x1="469.1" y1="286.1" x2="455.5" y2="263.6" opacity="1.0" stroke="rgb(0,0,0)"  stroke-width="3"/>
<line x1="458.6" y1="254.8" x2="420.3" y2="255.5" opacity="1.0" stroke="rgb(0,0,0)"  stroke-width="3"/>
<line x1="401.9" y1="289.0" x2="421.6" y2="321.8" opacity="1.0" stroke="rgb(0,0,0)"  stroke-width="3"/>
<line x1="421.6" y1="321.8" x2="459.9" y2="321.1" opacity="1.0" stroke="rgb(0,0,0)"  stroke-width="3"/>
<line x1="427.5" y1="314.5" x2="453.7" y2="314.0" opacity="1.0" stroke="rgb(0,0,0)"  stroke-width="3"/>
<line x1="459.9" y1="321.1" x2="478.4" y2="287.6" opacity="1.0" stroke="rgb(0,0,0)"  stroke-width="3"/>
<line x1="331.4" y1="183.8" x2="328.1" y2="221.9" opacity="1.0" stroke="rgb(0,0,0)"  stroke-width="3"/>
<line x1="338.1" y1="190.4" x2="335.8" y2="216.6" opacity="1.0" stroke="rgb(0,0,0)"  stroke-width="3"/>
<line x1="394.2" y1="227.6" x2="397.5" y2="189.5" opacity="1.0" stroke="rgb(0,0,0)"  stroke-width="3"/>
<line x1="397.5" y1="189.5" x2="366.1" y2="167.6" opacity="1.0" stroke="rgb(0,0,0)"  stroke-width="3"/>
<line x1="388.4" y1="191.9" x2="366.9" y2="176.9" opacity="1.0" stroke="rgb(0,0,0)"  stroke-width="3"/>
<line x1="196.5" y1="225.5" x2="195.9" y2="187.2" opacity="1.0" stroke="rgb(0,0,0)"  stroke-width="3"/>
<line x1="203.6" y1="219.4" x2="203.2" y2="193.1" opacity="1.0" stroke="rgb(0,0,0)"  stroke-width="3"/>
<line x1="195.9" y1="187.2" x2="228.7" y2="167.5" opacity="1.0" stroke="rgb(0,0,0)"  stroke-width="3"/>
<line x1="228.7" y1="167.5" x2="262.1" y2="186.1" opacity="1.0" stroke="rgb(0,0,0)"  stroke-width="3"/>
<line x1="230.4" y1="176.7" x2="253.4" y2="189.5" opacity="1.0" stroke="rgb(0,0,0)"  stroke-width="3"/>
<line x1="262.1" y1="186.1" x2="262.8" y2="224.3" opacity="1.0" stroke="rgb(0,0,0)"  stroke-width="3"/>
<line x1="247.2" y1="123.8" x2="267.0" y2="156.6" opacity="1.0" stroke="rgb(0,0,0)"  stroke-width="3"/>
<line x1="256.5" y1="125.2" x2="270.1" y2="147.7" opacity="1.0" stroke="rgb(0,0,0)"  stroke-width="3"/>
<line x1="267.0" y1="156.6" x2="305.3" y2="155.9" opacity="1.0" stroke="rgb(0,0,0)"  stroke-width="3"/>
<line x1="323.7" y1="122.3" x2="304.0" y2="89.6" opacity="1.0" stroke="rgb(0,0,0)"  stroke-width="3"/>
<line x1="304.0" y1="89.6" x2="265.7" y2="90.3" opacity="1.0" stroke="rgb(0,0,0)"  stroke-width="3"/>
<line x1="298.1" y1="96.9" x2="271.9" y2="97.4" opacity="1.0" stroke="rgb(0,0,0)"  stroke-width="3"/>
<line x1="265.7" y1="90.3" x2="247.2" y2="123.8" opacity="1.0" stroke="rgb(0,0,0)"  stroke-width="3"/>
<line x1="386.5" y1="537.0" x2="365.1" y2="568.8" opacity="1.0" stroke="rgb(0,0,0)"  stroke-width="3"/>
<line x1="389.1" y1="546.0" x2="374.4" y2="567.8" opacity="1.0" stroke="rgb(0,0,0)"  stroke-width="3"/>
<line x1="381.9" y1="603.2" x2="420.1" y2="605.8" opacity="1.0" stroke="rgb(0,0,0)"  stroke-width="3"/>
<line x1="388.4" y1="596.4" x2="414.6" y2="598.2" opacity="1.0" stroke="rgb(0,0,0)"  stroke-width="3"/>
<line x1="420.1" y1="605.8" x2="441.5" y2="574.1" opacity="1.0" stroke="rgb(0,0,0)"  stroke-width="3"/>
<line x1="441.5" y1="574.1" x2="424.7" y2="539.7" opacity="1.0" stroke="rgb(0,0,0)"  stroke-width="3"/>
<line x1="432.4" y1="571.9" x2="420.9" y2="548.2" opacity="1.0" stroke="rgb(0,0,0)"  stroke-width="3"/>
<line x1="424.7" y1="539.7" x2="386.5" y2="537.0" opacity="1.0" stroke="rgb(0,0,0)"  stroke-width="3"/>
<line x1="255.3" y1="600.3" x2="261.9" y2="562.6" opacity="1.0" stroke="rgb(0,0,0)"  stroke-width="3"/>
<line x1="261.9" y1="562.6" x2="297.9" y2="549.5" opacity="1.0" stroke="rgb(0,0,0)"  stroke-width="3"/>
<line x1="270.0" y1="567.3" x2="294.7" y2="558.3" opacity="1.0" stroke="rgb(0,0,0)"  stroke-width="3"/>
<line x1="297.9" y1="549.5" x2="327.2" y2="574.1" opacity="1.0" stroke="rgb(0,0,0)"  stroke-width="3"/>
<line x1="320.6" y1="611.8" x2="284.6" y2="624.9" opacity="1.0" stroke="rgb(0,0,0)"  stroke-width="3"/>
<line x1="284.6" y1="624.9" x2="255.3" y2="600.3" opacity="1.0" stroke="rgb(0,0,0)"  stroke-width="3"/>
<line x1="284.6" y1="615.5" x2="264.5" y2="598.6" opacity="1.0" stroke="rgb(0,0,0)"  stroke-width="3"/>
<line x1="499.9" y1="487.4" x2="521.3" y2="455.7" opacity="1.0" stroke="rgb(0,0,0)"  stroke-width="3"/>
<line x1="521.3" y1="455.7" x2="504.6" y2="421.3" opacity="1.0" stroke="rgb(0,0,0)"  stroke-width="3"/>
<line x1="512.2" y1="453.4" x2="500.7" y2="429.8" opacity="1.0" stroke="rgb(0,0,0)"  stroke-width="3"/>
<line x1="504.6" y1="421.3" x2="466.4" y2="418.6" opacity="1.0" stroke="rgb(0,0,0)"  stroke-width="3"/>
<line x1="466.4" y1="418.6" x2="445.0" y2="450.3" opacity="1.0" stroke="rgb(0,0,0)"  stroke-width="3"/>
<line x1="469.0" y1="427.6" x2="454.3" y2="449.4" opacity="1.0" stroke="rgb(0,0,0)"  stroke-width="3"/>
<line x1="445.0" y1="450.3" x2="461.8" y2="484.7" opacity="1.0" stroke="rgb(0,0,0)"  stroke-width="3"/>
<line x1="461.8" y1="484.7" x2="499.9" y2="487.4" opacity="1.0" stroke="rgb(0,0,0)"  stroke-width="3"/>
<line x1="468.3" y1="478.0" x2="494.5" y2="479.8" opacity="1.0" stroke="rgb(0,0,0)"  stroke-width="3"/>
<line x1="390.0" y1="413.3" x2="406.8" y2="447.7" opacity="1.0" stroke="rgb(0,0,0)"  stroke-width="3"/>
<line x1="399.1" y1="415.5" x2="410.7" y2="439.1" opacity="1.0" stroke="rgb(0,0,0)"  stroke-width="3"/>
<line x1="406.8" y1="447.7" x2="445.0" y2="450.3" opacity="1.0" stroke="rgb(0,0,0)"  stroke-width="3"/>
<line x1="466.4" y1="418.6" x2="449.6" y2="384.2" opacity="1.0" stroke="rgb(0,0,0)"  stroke-width="3"/>
<line x1="449.6" y1="384.2" x2="411.4" y2="381.5" opacity="1.0" stroke="rgb(0,0,0)"  stroke-width="3"/>
<line x1="443.1" y1="391.0" x2="416.9" y2="389.1" opacity="1.0" stroke="rgb(0,0,0)"  stroke-width="3"/>
<line x1="411.4" y1="381.5" x2="390.0" y2="413.3" opacity="1.0" stroke="rgb(0,0,0)"  stroke-width="3"/>
<line x1="576.3" y1="492.8" x2="559.5" y2="458.4" opacity="1.0" stroke="rgb(0,0,0)"  stroke-width="3"/>
<line x1="567.2" y1="490.5" x2="555.7" y2="466.9" opacity="1.0" stroke="rgb(0,0,0)"  stroke-width="3"/>
<line x1="559.5" y1="458.4" x2="521.3" y2="455.7" opacity="1.0" stroke="rgb(0,0,0)"  stroke-width="3"/>
<line x1="499.9" y1="487.4" x2="516.7" y2="521.8" opacity="1.0" stroke="rgb(0,0,0)"  stroke-width="3"/>
<line x1="516.7" y1="521.8" x2="554.9" y2="524.5" opacity="1.0" stroke="rgb(0,0,0)"  stroke-width="3"/>
<line x1="523.2" y1="515.1" x2="549.4" y2="516.9" opacity="1.0" stroke="rgb(0,0,0)"  stroke-width="3"/>
<line x1="554.9" y1="524.5" x2="576.3" y2="492.8" opacity="1.0" stroke="rgb(0,0,0)"  stroke-width="3"/>
<line x1="564.2" y1="392.2" x2="585.6" y2="360.5" opacity="1.0" stroke="rgb(0,0,0)"  stroke-width="3"/>
<line x1="585.6" y1="360.5" x2="568.8" y2="326.1" opacity="1.0" stroke="rgb(0,0,0)"  stroke-width="3"/>
<line x1="576.5" y1="358.3" x2="564.9" y2="334.6" opacity="1.0" stroke="rgb(0,0,0)"  stroke-width="3"/>
<line x1="568.8" y1="326.1" x2="530.6" y2="323.4" opacity="1.0" stroke="rgb(0,0,0)"  stroke-width="3"/>
<line x1="530.6" y1="323.4" x2="509.2" y2="355.2" opacity="1.0" stroke="rgb(0,0,0)"  stroke-width="3"/>
<line x1="533.2" y1="332.4" x2="518.5" y2="354.2" opacity="1.0" stroke="rgb(0,0,0)"  stroke-width="3"/>
<line x1="509.2" y1="355.2" x2="526.0" y2="389.6" opacity="1.0" stroke="rgb(0,0,0)"  stroke-width="3"/>
<line x1="526.0" y1="389.6" x2="564.2" y2="392.2" opacity="1.0" stroke="rgb(0,0,0)"  stroke-width="3"/>
<line x1="532.5" y1="382.8" x2="558.7" y2="384.6" opacity="1.0" stroke="rgb(0,0,0)"  stroke-width="3"/>
<line x1="425.9" y1="114.6" x2="453.8" y2="88.4" opacity="1.0" stroke="rgb(0,0,0)"  stroke-width="3"/>
<line x1="453.8" y1="88.4" x2="445.2" y2="51.1" opacity="1.0" stroke="rgb(0,0,0)"  stroke-width="3"/>
<line x1="445.5" y1="84.2" x2="439.5" y2="58.6" opacity="1.0" stroke="rgb(0,0,0)"  stroke-width="3"/>
<line x1="445.2" y1="51.1" x2="408.5" y2="40.0" opacity="1.0" stroke="rgb(0,0,0)"  stroke-width="3"/>
<line x1="408.5" y1="40.0" x2="380.6" y2="66.2" opacity="1.0" stroke="rgb(0,0,0)"  stroke-width="3"/>
<line x1="409.1" y1="49.4" x2="389.9" y2="67.3" opacity="1.0" stroke="rgb(0,0,0)"  stroke-width="3"/>
<line x1="380.6" y1="66.2" x2="389.3" y2="103.4" opacity="1.0" stroke="rgb(0,0,0)"  stroke-width="3"/>
<line x1="389.3" y1="103.4" x2="425.9" y2="114.6" opacity="1.0" stroke="rgb(0,0,0)"  stroke-width="3"/>
<line x1="397.1" y1="98.3" x2="422.2" y2="105.9" opacity="1.0" stroke="rgb(0,0,0)"  stroke-width="3"/>
<text x="355.331643" y="137.581309" fill="rgb(12,12,255)" stroke-width="0" font-weight="bold" font-size="25.92" >N</text>
<text x="348.365563" y="637.744817" fill="rgb(255,12,12)" stroke-width="0" font-weight="bold" font-size="25.92" >O</text>
<text x="358.267741" y="289.803528" fill="rgb(12,12,255)" stroke-width="0" font-weight="bold" font-size="25.92" >N</text>
<text x="224.814323" y="290.303034" fill="rgb(12,12,255)" stroke-width="0" font-weight="bold" font-size="25.92" >N</text>
<text x="290.207357" y="251.022794" fill="rgb(255,181,181)" stroke-width="0" font-weight="bold" font-size="25.92" >B</text>
</svg>
</g>
</svg>
