<?xml version="1.0"?>
<svg version="1.1" id="topsvg"
xmlns="http://www.w3.org/2000/svg" xmlns:xlink="http://www.w3.org/1999/xlink"
xmlns:cml="http://www.xml-cml.org/schema" x="0" y="0" width="200px" height="200px" viewBox="0 0 100 100">
<title>GD163.sdf - Open Babel Depiction</title>
<rect x="0" y="0" width="100" height="100" fill="white"/>
<g transform="translate(0,0)">
<svg width="100" height="100" x="0" y="0" viewBox="0 0 589.805 554.026"
font-family="sans-serif" stroke="rgb(0,0,0)" stroke-width="3"  stroke-linecap="round">
<line x1="311.9" y1="435.5" x2="311.9" y2="322.8" opacity="1.0" stroke="rgb(0,0,0)"  stroke-width="3"/>
<line x1="447.9" y1="396.3" x2="481.8" y2="376.7" opacity="1.0" stroke="rgb(0,0,0)"  stroke-width="3"/>
<line x1="379.9" y1="435.5" x2="345.9" y2="455.2" opacity="1.0" stroke="rgb(0,0,0)"  stroke-width="3"/>
<line x1="210.0" y1="146.3" x2="176.0" y2="126.6" opacity="1.0" stroke="rgb(0,0,0)"  stroke-width="3"/>
<line x1="74.0" y1="67.8" x2="46.2" y2="40.0" opacity="1.0" stroke="rgb(0,0,0)"  stroke-width="3"/>
<line x1="74.0" y1="67.8" x2="108.0" y2="48.1" opacity="1.0" stroke="rgb(0,0,0)"  stroke-width="3"/>
<line x1="74.0" y1="146.3" x2="46.2" y2="174.0" opacity="1.0" stroke="rgb(0,0,0)"  stroke-width="3"/>
<line x1="74.0" y1="146.3" x2="101.8" y2="174.0" opacity="1.0" stroke="rgb(0,0,0)"  stroke-width="3"/>
<line x1="438.3" y1="216.2" x2="413.9" y2="185.5" opacity="1.0" stroke="rgb(0,0,0)"  stroke-width="3"/>
<line x1="413.9" y1="185.5" x2="379.9" y2="205.1" opacity="1.0" stroke="rgb(0,0,0)"  stroke-width="3"/>
<line x1="412.3" y1="194.7" x2="388.7" y2="208.4" opacity="1.0" stroke="rgb(0,0,0)"  stroke-width="3"/>
<line x1="379.9" y1="205.1" x2="379.9" y2="231.4" opacity="1.0" stroke="rgb(0,0,0)"  stroke-width="3"/>
<line x1="392.7" y1="246.3" x2="418.7" y2="250.2" opacity="1.0" stroke="rgb(0,0,0)"  stroke-width="3"/>
<line x1="418.7" y1="250.2" x2="438.3" y2="216.2" opacity="1.0" stroke="rgb(0,0,0)"  stroke-width="3"/>
<line x1="415.5" y1="241.4" x2="429.1" y2="217.8" opacity="1.0" stroke="rgb(0,0,0)"  stroke-width="3"/>
<line x1="410.2" y1="80.4" x2="384.5" y2="85.7" opacity="1.0" stroke="rgb(0,0,0)"  stroke-width="3"/>
<line x1="374.4" y1="101.0" x2="379.9" y2="126.6" opacity="1.0" stroke="rgb(0,0,0)"  stroke-width="3"/>
<line x1="379.9" y1="126.6" x2="413.9" y2="146.3" opacity="1.0" stroke="rgb(0,0,0)"  stroke-width="3"/>
<line x1="388.7" y1="123.4" x2="412.3" y2="137.0" opacity="1.0" stroke="rgb(0,0,0)"  stroke-width="3"/>
<line x1="413.9" y1="146.3" x2="433.2" y2="112.1" opacity="1.0" stroke="rgb(0,0,0)"  stroke-width="3"/>
<line x1="433.2" y1="112.1" x2="410.2" y2="80.4" opacity="1.0" stroke="rgb(0,0,0)"  stroke-width="3"/>
<line x1="423.9" y1="111.5" x2="407.9" y2="89.5" opacity="1.0" stroke="rgb(0,0,0)"  stroke-width="3"/>
<line x1="332.7" y1="84.2" x2="316.7" y2="120.0" opacity="1.0" stroke="rgb(0,0,0)"  stroke-width="3"/>
<line x1="336.8" y1="92.6" x2="325.8" y2="117.5" opacity="1.0" stroke="rgb(0,0,0)"  stroke-width="3"/>
<line x1="316.7" y1="120.0" x2="345.9" y2="146.3" opacity="1.0" stroke="rgb(0,0,0)"  stroke-width="3"/>
<line x1="345.9" y1="146.3" x2="379.9" y2="126.6" opacity="1.0" stroke="rgb(0,0,0)"  stroke-width="3"/>
<line x1="358.8" y1="86.9" x2="332.7" y2="84.2" opacity="1.0" stroke="rgb(0,0,0)"  stroke-width="3"/>
<line x1="345.9" y1="303.2" x2="311.9" y2="322.8" opacity="1.0" stroke="rgb(0,0,0)"  stroke-width="3"/>
<line x1="311.9" y1="322.8" x2="277.9" y2="303.2" opacity="1.0" stroke="rgb(0,0,0)"  stroke-width="3"/>
<line x1="310.3" y1="313.6" x2="286.7" y2="300.0" opacity="1.0" stroke="rgb(0,0,0)"  stroke-width="3"/>
<line x1="277.9" y1="303.2" x2="277.9" y2="264.0" opacity="1.0" stroke="rgb(0,0,0)"  stroke-width="3"/>
<line x1="277.9" y1="264.0" x2="311.9" y2="244.4" opacity="1.0" stroke="rgb(0,0,0)"  stroke-width="3"/>
<line x1="286.7" y1="267.2" x2="310.3" y2="253.6" opacity="1.0" stroke="rgb(0,0,0)"  stroke-width="3"/>
<line x1="311.9" y1="244.4" x2="345.9" y2="264.0" opacity="1.0" stroke="rgb(0,0,0)"  stroke-width="3"/>
<line x1="345.9" y1="264.0" x2="345.9" y2="303.2" opacity="1.0" stroke="rgb(0,0,0)"  stroke-width="3"/>
<line x1="338.7" y1="270.0" x2="338.7" y2="297.2" opacity="1.0" stroke="rgb(0,0,0)"  stroke-width="3"/>
<line x1="379.9" y1="205.1" x2="345.9" y2="185.5" opacity="1.0" stroke="rgb(0,0,0)"  stroke-width="3"/>
<line x1="345.9" y1="185.5" x2="323.2" y2="198.6" opacity="1.0" stroke="rgb(0,0,0)"  stroke-width="3"/>
<line x1="311.9" y1="218.1" x2="311.9" y2="244.4" opacity="1.0" stroke="rgb(0,0,0)"  stroke-width="3"/>
<line x1="345.9" y1="264.0" x2="368.6" y2="250.9" opacity="1.0" stroke="rgb(0,0,0)"  stroke-width="3"/>
<line x1="477.6" y1="284.2" x2="497.2" y2="250.2" opacity="1.0" stroke="rgb(0,0,0)"  stroke-width="3"/>
<line x1="497.2" y1="250.2" x2="477.6" y2="216.2" opacity="1.0" stroke="rgb(0,0,0)"  stroke-width="3"/>
<line x1="487.9" y1="248.6" x2="474.3" y2="225.0" opacity="1.0" stroke="rgb(0,0,0)"  stroke-width="3"/>
<line x1="477.6" y1="216.2" x2="438.3" y2="216.2" opacity="1.0" stroke="rgb(0,0,0)"  stroke-width="3"/>
<line x1="418.7" y1="250.2" x2="438.3" y2="284.2" opacity="1.0" stroke="rgb(0,0,0)"  stroke-width="3"/>
<line x1="438.3" y1="284.2" x2="477.6" y2="284.2" opacity="1.0" stroke="rgb(0,0,0)"  stroke-width="3"/>
<line x1="444.3" y1="277.0" x2="471.6" y2="277.0" opacity="1.0" stroke="rgb(0,0,0)"  stroke-width="3"/>
<line x1="244.0" y1="205.1" x2="244.0" y2="231.4" opacity="1.0" stroke="rgb(0,0,0)"  stroke-width="3"/>
<line x1="255.2" y1="250.9" x2="277.9" y2="264.0" opacity="1.0" stroke="rgb(0,0,0)"  stroke-width="3"/>
<line x1="300.7" y1="198.6" x2="277.9" y2="185.5" opacity="1.0" stroke="rgb(0,0,0)"  stroke-width="3"/>
<line x1="277.9" y1="185.5" x2="244.0" y2="205.1" opacity="1.0" stroke="rgb(0,0,0)"  stroke-width="3"/>
<line x1="244.0" y1="126.6" x2="277.9" y2="146.3" opacity="1.0" stroke="rgb(0,0,0)"  stroke-width="3"/>
<line x1="277.9" y1="146.3" x2="277.9" y2="185.5" opacity="1.0" stroke="rgb(0,0,0)"  stroke-width="3"/>
<line x1="270.7" y1="152.3" x2="270.7" y2="179.5" opacity="1.0" stroke="rgb(0,0,0)"  stroke-width="3"/>
<line x1="244.0" y1="205.1" x2="210.0" y2="185.5" opacity="1.0" stroke="rgb(0,0,0)"  stroke-width="3"/>
<line x1="242.4" y1="195.9" x2="218.8" y2="182.3" opacity="1.0" stroke="rgb(0,0,0)"  stroke-width="3"/>
<line x1="210.0" y1="185.5" x2="210.0" y2="146.3" opacity="1.0" stroke="rgb(0,0,0)"  stroke-width="3"/>
<line x1="210.0" y1="146.3" x2="244.0" y2="126.6" opacity="1.0" stroke="rgb(0,0,0)"  stroke-width="3"/>
<line x1="218.8" y1="149.5" x2="242.4" y2="135.9" opacity="1.0" stroke="rgb(0,0,0)"  stroke-width="3"/>
<line x1="413.9" y1="185.5" x2="413.9" y2="146.3" opacity="1.0" stroke="rgb(0,0,0)"  stroke-width="3"/>
<line x1="345.9" y1="146.3" x2="345.9" y2="185.5" opacity="1.0" stroke="rgb(0,0,0)"  stroke-width="3"/>
<line x1="353.1" y1="152.3" x2="353.1" y2="179.5" opacity="1.0" stroke="rgb(0,0,0)"  stroke-width="3"/>
<line x1="270.6" y1="56.5" x2="254.7" y2="92.4" opacity="1.0" stroke="rgb(0,0,0)"  stroke-width="3"/>
<line x1="254.7" y1="92.4" x2="277.7" y2="124.1" opacity="1.0" stroke="rgb(0,0,0)"  stroke-width="3"/>
<line x1="264.0" y1="93.0" x2="280.0" y2="115.0" opacity="1.0" stroke="rgb(0,0,0)"  stroke-width="3"/>
<line x1="277.7" y1="124.1" x2="316.7" y2="120.0" opacity="1.0" stroke="rgb(0,0,0)"  stroke-width="3"/>
<line x1="332.7" y1="84.2" x2="309.6" y2="52.4" opacity="1.0" stroke="rgb(0,0,0)"  stroke-width="3"/>
<line x1="309.6" y1="52.4" x2="270.6" y2="56.5" opacity="1.0" stroke="rgb(0,0,0)"  stroke-width="3"/>
<line x1="304.4" y1="60.2" x2="277.3" y2="63.0" opacity="1.0" stroke="rgb(0,0,0)"  stroke-width="3"/>
<line x1="277.9" y1="455.2" x2="277.9" y2="494.4" opacity="1.0" stroke="rgb(0,0,0)"  stroke-width="3"/>
<line x1="277.9" y1="494.4" x2="311.9" y2="514.0" opacity="1.0" stroke="rgb(0,0,0)"  stroke-width="3"/>
<line x1="286.7" y1="491.2" x2="310.3" y2="504.8" opacity="1.0" stroke="rgb(0,0,0)"  stroke-width="3"/>
<line x1="311.9" y1="514.0" x2="345.9" y2="494.4" opacity="1.0" stroke="rgb(0,0,0)"  stroke-width="3"/>
<line x1="345.9" y1="494.4" x2="345.9" y2="455.2" opacity="1.0" stroke="rgb(0,0,0)"  stroke-width="3"/>
<line x1="338.7" y1="488.4" x2="338.7" y2="461.2" opacity="1.0" stroke="rgb(0,0,0)"  stroke-width="3"/>
<line x1="345.9" y1="455.2" x2="311.9" y2="435.5" opacity="1.0" stroke="rgb(0,0,0)"  stroke-width="3"/>
<line x1="311.9" y1="435.5" x2="277.9" y2="455.2" opacity="1.0" stroke="rgb(0,0,0)"  stroke-width="3"/>
<line x1="310.3" y1="444.8" x2="286.7" y2="458.4" opacity="1.0" stroke="rgb(0,0,0)"  stroke-width="3"/>
<line x1="379.9" y1="396.3" x2="413.9" y2="376.7" opacity="1.0" stroke="rgb(0,0,0)"  stroke-width="3"/>
<line x1="413.9" y1="376.7" x2="447.9" y2="396.3" opacity="1.0" stroke="rgb(0,0,0)"  stroke-width="3"/>
<line x1="415.5" y1="385.9" x2="439.1" y2="399.5" opacity="1.0" stroke="rgb(0,0,0)"  stroke-width="3"/>
<line x1="447.9" y1="396.3" x2="447.9" y2="435.5" opacity="1.0" stroke="rgb(0,0,0)"  stroke-width="3"/>
<line x1="447.9" y1="435.5" x2="413.9" y2="455.2" opacity="1.0" stroke="rgb(0,0,0)"  stroke-width="3"/>
<line x1="439.1" y1="432.3" x2="415.5" y2="445.9" opacity="1.0" stroke="rgb(0,0,0)"  stroke-width="3"/>
<line x1="413.9" y1="455.2" x2="379.9" y2="435.5" opacity="1.0" stroke="rgb(0,0,0)"  stroke-width="3"/>
<line x1="379.9" y1="435.5" x2="379.9" y2="396.3" opacity="1.0" stroke="rgb(0,0,0)"  stroke-width="3"/>
<line x1="387.1" y1="429.5" x2="387.1" y2="402.3" opacity="1.0" stroke="rgb(0,0,0)"  stroke-width="3"/>
<line x1="447.9" y1="514.0" x2="413.9" y2="494.4" opacity="1.0" stroke="rgb(0,0,0)"  stroke-width="3"/>
<line x1="446.3" y1="504.8" x2="422.7" y2="491.2" opacity="1.0" stroke="rgb(0,0,0)"  stroke-width="3"/>
<line x1="413.9" y1="494.4" x2="413.9" y2="455.2" opacity="1.0" stroke="rgb(0,0,0)"  stroke-width="3"/>
<line x1="447.9" y1="435.5" x2="481.8" y2="455.2" opacity="1.0" stroke="rgb(0,0,0)"  stroke-width="3"/>
<line x1="481.8" y1="455.2" x2="481.8" y2="494.4" opacity="1.0" stroke="rgb(0,0,0)"  stroke-width="3"/>
<line x1="474.6" y1="461.2" x2="474.6" y2="488.4" opacity="1.0" stroke="rgb(0,0,0)"  stroke-width="3"/>
<line x1="481.8" y1="494.4" x2="447.9" y2="514.0" opacity="1.0" stroke="rgb(0,0,0)"  stroke-width="3"/>
<line x1="379.9" y1="317.8" x2="413.9" y2="337.4" opacity="1.0" stroke="rgb(0,0,0)"  stroke-width="3"/>
<line x1="381.5" y1="327.1" x2="405.1" y2="340.7" opacity="1.0" stroke="rgb(0,0,0)"  stroke-width="3"/>
<line x1="413.9" y1="337.4" x2="413.9" y2="376.7" opacity="1.0" stroke="rgb(0,0,0)"  stroke-width="3"/>
<line x1="379.9" y1="396.3" x2="345.9" y2="376.7" opacity="1.0" stroke="rgb(0,0,0)"  stroke-width="3"/>
<line x1="345.9" y1="376.7" x2="345.9" y2="337.4" opacity="1.0" stroke="rgb(0,0,0)"  stroke-width="3"/>
<line x1="353.1" y1="370.7" x2="353.1" y2="343.4" opacity="1.0" stroke="rgb(0,0,0)"  stroke-width="3"/>
<line x1="345.9" y1="337.4" x2="379.9" y2="317.8" opacity="1.0" stroke="rgb(0,0,0)"  stroke-width="3"/>
<line x1="515.8" y1="396.3" x2="549.8" y2="376.7" opacity="1.0" stroke="rgb(0,0,0)"  stroke-width="3"/>
<line x1="549.8" y1="376.7" x2="549.8" y2="337.4" opacity="1.0" stroke="rgb(0,0,0)"  stroke-width="3"/>
<line x1="542.6" y1="370.7" x2="542.6" y2="343.4" opacity="1.0" stroke="rgb(0,0,0)"  stroke-width="3"/>
<line x1="549.8" y1="337.4" x2="515.8" y2="317.8" opacity="1.0" stroke="rgb(0,0,0)"  stroke-width="3"/>
<line x1="515.8" y1="317.8" x2="481.8" y2="337.4" opacity="1.0" stroke="rgb(0,0,0)"  stroke-width="3"/>
<line x1="514.2" y1="327.1" x2="490.6" y2="340.7" opacity="1.0" stroke="rgb(0,0,0)"  stroke-width="3"/>
<line x1="481.8" y1="337.4" x2="481.8" y2="376.7" opacity="1.0" stroke="rgb(0,0,0)"  stroke-width="3"/>
<line x1="481.8" y1="376.7" x2="515.8" y2="396.3" opacity="1.0" stroke="rgb(0,0,0)"  stroke-width="3"/>
<line x1="490.6" y1="373.4" x2="514.2" y2="387.1" opacity="1.0" stroke="rgb(0,0,0)"  stroke-width="3"/>
<line x1="488.2" y1="72.2" x2="472.3" y2="108.0" opacity="1.0" stroke="rgb(0,0,0)"  stroke-width="3"/>
<line x1="479.2" y1="74.7" x2="468.1" y2="99.6" opacity="1.0" stroke="rgb(0,0,0)"  stroke-width="3"/>
<line x1="472.3" y1="108.0" x2="433.2" y2="112.1" opacity="1.0" stroke="rgb(0,0,0)"  stroke-width="3"/>
<line x1="410.2" y1="80.4" x2="426.1" y2="44.5" opacity="1.0" stroke="rgb(0,0,0)"  stroke-width="3"/>
<line x1="426.1" y1="44.5" x2="465.2" y2="40.4" opacity="1.0" stroke="rgb(0,0,0)"  stroke-width="3"/>
<line x1="432.9" y1="51.1" x2="459.9" y2="48.2" opacity="1.0" stroke="rgb(0,0,0)"  stroke-width="3"/>
<line x1="465.2" y1="40.4" x2="488.2" y2="72.2" opacity="1.0" stroke="rgb(0,0,0)"  stroke-width="3"/>
<line x1="176.0" y1="87.4" x2="142.0" y2="67.8" opacity="1.0" stroke="rgb(0,0,0)"  stroke-width="3"/>
<line x1="142.0" y1="67.8" x2="108.0" y2="87.4" opacity="1.0" stroke="rgb(0,0,0)"  stroke-width="3"/>
<line x1="140.4" y1="77.0" x2="116.8" y2="90.6" opacity="1.0" stroke="rgb(0,0,0)"  stroke-width="3"/>
<line x1="108.0" y1="87.4" x2="108.0" y2="126.6" opacity="1.0" stroke="rgb(0,0,0)"  stroke-width="3"/>
<line x1="108.0" y1="126.6" x2="142.0" y2="146.3" opacity="1.0" stroke="rgb(0,0,0)"  stroke-width="3"/>
<line x1="116.8" y1="123.4" x2="140.4" y2="137.0" opacity="1.0" stroke="rgb(0,0,0)"  stroke-width="3"/>
<line x1="142.0" y1="146.3" x2="176.0" y2="126.6" opacity="1.0" stroke="rgb(0,0,0)"  stroke-width="3"/>
<line x1="176.0" y1="126.6" x2="176.0" y2="87.4" opacity="1.0" stroke="rgb(0,0,0)"  stroke-width="3"/>
<line x1="168.8" y1="120.6" x2="168.8" y2="93.4" opacity="1.0" stroke="rgb(0,0,0)"  stroke-width="3"/>
<line x1="40.0" y1="126.6" x2="74.0" y2="146.3" opacity="1.0" stroke="rgb(0,0,0)"  stroke-width="3"/>
<line x1="74.0" y1="146.3" x2="108.0" y2="126.6" opacity="1.0" stroke="rgb(0,0,0)"  stroke-width="3"/>
<line x1="108.0" y1="87.4" x2="74.0" y2="67.8" opacity="1.0" stroke="rgb(0,0,0)"  stroke-width="3"/>
<line x1="74.0" y1="67.8" x2="40.0" y2="87.4" opacity="1.0" stroke="rgb(0,0,0)"  stroke-width="3"/>
<line x1="40.0" y1="87.4" x2="40.0" y2="126.6" opacity="1.0" stroke="rgb(0,0,0)"  stroke-width="3"/>
<text x="365.727817" y="96.259018" fill="rgb(12,12,255)" stroke-width="0" font-weight="bold" font-size="25.92" >N</text>
<text x="237.950612" y="252.364547" fill="rgb(255,12,12)" stroke-width="0" font-weight="bold" font-size="25.92" >O</text>
<text x="373.887554" y="252.364547" fill="rgb(12,12,255)" stroke-width="0" font-weight="bold" font-size="25.92" >N</text>
<text x="305.921462" y="213.121682" fill="rgb(255,181,181)" stroke-width="0" font-weight="bold" font-size="25.92" >B</text>
</svg>
</g>
</svg>
