<?xml version="1.0"?>
<svg version="1.1" id="topsvg"
xmlns="http://www.w3.org/2000/svg" xmlns:xlink="http://www.w3.org/1999/xlink"
xmlns:cml="http://www.xml-cml.org/schema" x="0" y="0" width="200px" height="200px" viewBox="0 0 100 100">
<title>GD175.sdf - Open Babel Depiction</title>
<rect x="0" y="0" width="100" height="100" fill="white"/>
<g transform="translate(0,0)">
<svg width="100" height="100" x="0" y="0" viewBox="0 0 668.658 605.541"
font-family="sans-serif" stroke="rgb(0,0,0)" stroke-width="3"  stroke-linecap="round">
<line x1="119.6" y1="305.5" x2="79.8" y2="305.5" opacity="1.0" stroke="rgb(0,0,0)"  stroke-width="3"/>
<line x1="79.8" y1="305.5" x2="40.0" y2="305.5" opacity="1.0" stroke="rgb(0,0,0)"  stroke-width="3"/>
<line x1="59.9" y1="340.0" x2="79.8" y2="305.5" opacity="1.0" stroke="rgb(0,0,0)"  stroke-width="3"/>
<line x1="79.8" y1="305.5" x2="59.9" y2="271.1" opacity="1.0" stroke="rgb(0,0,0)"  stroke-width="3"/>
<line x1="236.2" y1="178.0" x2="236.2" y2="138.2" opacity="1.0" stroke="rgb(0,0,0)"  stroke-width="3"/>
<line x1="236.2" y1="138.2" x2="236.2" y2="98.5" opacity="1.0" stroke="rgb(0,0,0)"  stroke-width="3"/>
<line x1="236.2" y1="138.2" x2="270.6" y2="118.3" opacity="1.0" stroke="rgb(0,0,0)"  stroke-width="3"/>
<line x1="236.2" y1="138.2" x2="201.7" y2="118.3" opacity="1.0" stroke="rgb(0,0,0)"  stroke-width="3"/>
<line x1="296.2" y1="443.8" x2="308.1" y2="375.9" opacity="1.0" stroke="rgb(0,0,0)"  stroke-width="3"/>
<line x1="414.5" y1="499.2" x2="450.2" y2="481.6" opacity="1.0" stroke="rgb(0,0,0)"  stroke-width="3"/>
<line x1="521.6" y1="446.4" x2="557.3" y2="428.8" opacity="1.0" stroke="rgb(0,0,0)"  stroke-width="3"/>
<line x1="382.9" y1="130.0" x2="366.9" y2="108.5" opacity="1.0" stroke="rgb(0,0,0)"  stroke-width="3"/>
<line x1="178.6" y1="269.9" x2="202.7" y2="238.3" opacity="1.0" stroke="rgb(0,0,0)"  stroke-width="3"/>
<line x1="202.7" y1="238.3" x2="237.5" y2="257.6" opacity="1.0" stroke="rgb(0,0,0)"  stroke-width="3"/>
<line x1="237.5" y1="257.6" x2="238.1" y2="284.4" opacity="1.0" stroke="rgb(0,0,0)"  stroke-width="3"/>
<line x1="225.6" y1="299.6" x2="199.2" y2="304.0" opacity="1.0" stroke="rgb(0,0,0)"  stroke-width="3"/>
<line x1="199.2" y1="304.0" x2="178.6" y2="269.9" opacity="1.0" stroke="rgb(0,0,0)"  stroke-width="3"/>
<line x1="202.2" y1="295.2" x2="187.9" y2="271.4" opacity="1.0" stroke="rgb(0,0,0)"  stroke-width="3"/>
<line x1="435.4" y1="269.6" x2="408.3" y2="240.5" opacity="1.0" stroke="rgb(0,0,0)"  stroke-width="3"/>
<line x1="408.3" y1="240.5" x2="372.2" y2="257.4" opacity="1.0" stroke="rgb(0,0,0)"  stroke-width="3"/>
<line x1="405.9" y1="249.6" x2="380.7" y2="261.4" opacity="1.0" stroke="rgb(0,0,0)"  stroke-width="3"/>
<line x1="372.2" y1="257.4" x2="375.5" y2="284.0" opacity="1.0" stroke="rgb(0,0,0)"  stroke-width="3"/>
<line x1="389.9" y1="299.3" x2="416.2" y2="304.4" opacity="1.0" stroke="rgb(0,0,0)"  stroke-width="3"/>
<line x1="416.2" y1="304.4" x2="435.4" y2="269.6" opacity="1.0" stroke="rgb(0,0,0)"  stroke-width="3"/>
<line x1="412.8" y1="295.7" x2="426.2" y2="271.3" opacity="1.0" stroke="rgb(0,0,0)"  stroke-width="3"/>
<line x1="430.4" y1="140.5" x2="403.6" y2="140.5" opacity="1.0" stroke="rgb(0,0,0)"  stroke-width="3"/>
<line x1="386.8" y1="152.9" x2="379.0" y2="178.1" opacity="1.0" stroke="rgb(0,0,0)"  stroke-width="3"/>
<line x1="379.0" y1="178.1" x2="411.7" y2="200.9" opacity="1.0" stroke="rgb(0,0,0)"  stroke-width="3"/>
<line x1="388.1" y1="175.6" x2="410.8" y2="191.5" opacity="1.0" stroke="rgb(0,0,0)"  stroke-width="3"/>
<line x1="411.7" y1="200.9" x2="443.4" y2="178.1" opacity="1.0" stroke="rgb(0,0,0)"  stroke-width="3"/>
<line x1="443.4" y1="178.1" x2="430.4" y2="140.5" opacity="1.0" stroke="rgb(0,0,0)"  stroke-width="3"/>
<line x1="434.6" y1="174.8" x2="425.5" y2="148.5" opacity="1.0" stroke="rgb(0,0,0)"  stroke-width="3"/>
<line x1="344.7" y1="533.7" x2="347.2" y2="494.8" opacity="1.0" stroke="rgb(0,0,0)"  stroke-width="3"/>
<line x1="337.9" y1="527.2" x2="339.6" y2="500.3" opacity="1.0" stroke="rgb(0,0,0)"  stroke-width="3"/>
<line x1="347.2" y1="494.8" x2="309.8" y2="481.2" opacity="1.0" stroke="rgb(0,0,0)"  stroke-width="3"/>
<line x1="309.8" y1="481.2" x2="284.2" y2="511.6" opacity="1.0" stroke="rgb(0,0,0)"  stroke-width="3"/>
<line x1="311.5" y1="490.4" x2="293.5" y2="511.7" opacity="1.0" stroke="rgb(0,0,0)"  stroke-width="3"/>
<line x1="284.2" y1="511.6" x2="298.6" y2="532.5" opacity="1.0" stroke="rgb(0,0,0)"  stroke-width="3"/>
<line x1="318.6" y1="540.1" x2="344.7" y2="533.7" opacity="1.0" stroke="rgb(0,0,0)"  stroke-width="3"/>
<line x1="273.6" y1="356.2" x2="308.1" y2="375.9" opacity="1.0" stroke="rgb(0,0,0)"  stroke-width="3"/>
<line x1="308.1" y1="375.9" x2="342.5" y2="355.8" opacity="1.0" stroke="rgb(0,0,0)"  stroke-width="3"/>
<line x1="309.7" y1="366.7" x2="333.7" y2="352.6" opacity="1.0" stroke="rgb(0,0,0)"  stroke-width="3"/>
<line x1="342.5" y1="355.8" x2="342.3" y2="316.0" opacity="1.0" stroke="rgb(0,0,0)"  stroke-width="3"/>
<line x1="342.3" y1="316.0" x2="307.7" y2="296.3" opacity="1.0" stroke="rgb(0,0,0)"  stroke-width="3"/>
<line x1="333.5" y1="319.3" x2="309.3" y2="305.5" opacity="1.0" stroke="rgb(0,0,0)"  stroke-width="3"/>
<line x1="307.7" y1="296.3" x2="273.3" y2="316.4" opacity="1.0" stroke="rgb(0,0,0)"  stroke-width="3"/>
<line x1="273.3" y1="316.4" x2="273.6" y2="356.2" opacity="1.0" stroke="rgb(0,0,0)"  stroke-width="3"/>
<line x1="280.6" y1="322.4" x2="280.7" y2="350.2" opacity="1.0" stroke="rgb(0,0,0)"  stroke-width="3"/>
<line x1="306.8" y1="269.5" x2="307.7" y2="296.3" opacity="1.0" stroke="rgb(0,0,0)"  stroke-width="3"/>
<line x1="273.3" y1="316.4" x2="249.8" y2="303.6" opacity="1.0" stroke="rgb(0,0,0)"  stroke-width="3"/>
<line x1="237.5" y1="257.6" x2="271.7" y2="237.1" opacity="1.0" stroke="rgb(0,0,0)"  stroke-width="3"/>
<line x1="246.4" y1="260.7" x2="270.2" y2="246.4" opacity="1.0" stroke="rgb(0,0,0)"  stroke-width="3"/>
<line x1="271.7" y1="237.1" x2="295.0" y2="250.2" opacity="1.0" stroke="rgb(0,0,0)"  stroke-width="3"/>
<line x1="372.2" y1="257.4" x2="339.6" y2="234.6" opacity="1.0" stroke="rgb(0,0,0)"  stroke-width="3"/>
<line x1="339.6" y1="234.6" x2="317.2" y2="249.4" opacity="1.0" stroke="rgb(0,0,0)"  stroke-width="3"/>
<line x1="342.3" y1="316.0" x2="365.7" y2="303.1" opacity="1.0" stroke="rgb(0,0,0)"  stroke-width="3"/>
<line x1="140.1" y1="339.6" x2="179.9" y2="338.8" opacity="1.0" stroke="rgb(0,0,0)"  stroke-width="3"/>
<line x1="146.0" y1="332.3" x2="173.8" y2="331.8" opacity="1.0" stroke="rgb(0,0,0)"  stroke-width="3"/>
<line x1="179.9" y1="338.8" x2="199.2" y2="304.0" opacity="1.0" stroke="rgb(0,0,0)"  stroke-width="3"/>
<line x1="178.6" y1="269.9" x2="138.8" y2="270.7" opacity="1.0" stroke="rgb(0,0,0)"  stroke-width="3"/>
<line x1="138.8" y1="270.7" x2="119.6" y2="305.5" opacity="1.0" stroke="rgb(0,0,0)"  stroke-width="3"/>
<line x1="142.2" y1="279.4" x2="128.8" y2="303.8" opacity="1.0" stroke="rgb(0,0,0)"  stroke-width="3"/>
<line x1="119.6" y1="305.5" x2="140.1" y2="339.6" opacity="1.0" stroke="rgb(0,0,0)"  stroke-width="3"/>
<line x1="495.8" y1="302.9" x2="475.2" y2="268.8" opacity="1.0" stroke="rgb(0,0,0)"  stroke-width="3"/>
<line x1="486.5" y1="301.4" x2="472.2" y2="277.6" opacity="1.0" stroke="rgb(0,0,0)"  stroke-width="3"/>
<line x1="475.2" y1="268.8" x2="435.4" y2="269.6" opacity="1.0" stroke="rgb(0,0,0)"  stroke-width="3"/>
<line x1="416.2" y1="304.4" x2="436.8" y2="338.5" opacity="1.0" stroke="rgb(0,0,0)"  stroke-width="3"/>
<line x1="436.8" y1="338.5" x2="476.6" y2="337.7" opacity="1.0" stroke="rgb(0,0,0)"  stroke-width="3"/>
<line x1="442.6" y1="331.2" x2="470.4" y2="330.6" opacity="1.0" stroke="rgb(0,0,0)"  stroke-width="3"/>
<line x1="476.6" y1="337.7" x2="495.8" y2="302.9" opacity="1.0" stroke="rgb(0,0,0)"  stroke-width="3"/>
<line x1="379.0" y1="178.1" x2="343.0" y2="195.0" opacity="1.0" stroke="rgb(0,0,0)"  stroke-width="3"/>
<line x1="343.0" y1="195.0" x2="339.6" y2="234.6" opacity="1.0" stroke="rgb(0,0,0)"  stroke-width="3"/>
<line x1="349.6" y1="201.6" x2="347.3" y2="229.3" opacity="1.0" stroke="rgb(0,0,0)"  stroke-width="3"/>
<line x1="408.3" y1="240.5" x2="411.7" y2="200.9" opacity="1.0" stroke="rgb(0,0,0)"  stroke-width="3"/>
<line x1="495.5" y1="117.9" x2="456.4" y2="110.4" opacity="1.0" stroke="rgb(0,0,0)"  stroke-width="3"/>
<line x1="488.2" y1="123.9" x2="460.9" y2="118.6" opacity="1.0" stroke="rgb(0,0,0)"  stroke-width="3"/>
<line x1="456.4" y1="110.4" x2="430.4" y2="140.5" opacity="1.0" stroke="rgb(0,0,0)"  stroke-width="3"/>
<line x1="443.4" y1="178.1" x2="482.5" y2="185.6" opacity="1.0" stroke="rgb(0,0,0)"  stroke-width="3"/>
<line x1="482.5" y1="185.6" x2="508.5" y2="155.5" opacity="1.0" stroke="rgb(0,0,0)"  stroke-width="3"/>
<line x1="480.9" y1="176.4" x2="499.1" y2="155.4" opacity="1.0" stroke="rgb(0,0,0)"  stroke-width="3"/>
<line x1="508.5" y1="155.5" x2="495.5" y2="117.9" opacity="1.0" stroke="rgb(0,0,0)"  stroke-width="3"/>
<line x1="202.7" y1="238.3" x2="202.1" y2="198.5" opacity="1.0" stroke="rgb(0,0,0)"  stroke-width="3"/>
<line x1="209.8" y1="232.2" x2="209.4" y2="204.4" opacity="1.0" stroke="rgb(0,0,0)"  stroke-width="3"/>
<line x1="202.1" y1="198.5" x2="236.2" y2="178.0" opacity="1.0" stroke="rgb(0,0,0)"  stroke-width="3"/>
<line x1="236.2" y1="178.0" x2="271.0" y2="197.3" opacity="1.0" stroke="rgb(0,0,0)"  stroke-width="3"/>
<line x1="237.9" y1="187.2" x2="262.2" y2="200.7" opacity="1.0" stroke="rgb(0,0,0)"  stroke-width="3"/>
<line x1="271.0" y1="197.3" x2="271.7" y2="237.1" opacity="1.0" stroke="rgb(0,0,0)"  stroke-width="3"/>
<line x1="309.8" y1="481.2" x2="296.2" y2="443.8" opacity="1.0" stroke="rgb(0,0,0)"  stroke-width="3"/>
<line x1="296.2" y1="443.8" x2="256.9" y2="436.8" opacity="1.0" stroke="rgb(0,0,0)"  stroke-width="3"/>
<line x1="289.0" y1="449.8" x2="261.5" y2="445.0" opacity="1.0" stroke="rgb(0,0,0)"  stroke-width="3"/>
<line x1="256.9" y1="436.8" x2="231.3" y2="467.5" opacity="1.0" stroke="rgb(0,0,0)"  stroke-width="3"/>
<line x1="231.3" y1="467.5" x2="244.9" y2="504.9" opacity="1.0" stroke="rgb(0,0,0)"  stroke-width="3"/>
<line x1="240.1" y1="470.6" x2="249.6" y2="496.8" opacity="1.0" stroke="rgb(0,0,0)"  stroke-width="3"/>
<line x1="244.9" y1="504.9" x2="284.2" y2="511.6" opacity="1.0" stroke="rgb(0,0,0)"  stroke-width="3"/>
<line x1="412.0" y1="538.1" x2="414.5" y2="499.2" opacity="1.0" stroke="rgb(0,0,0)"  stroke-width="3"/>
<line x1="414.5" y1="499.2" x2="382.1" y2="477.6" opacity="1.0" stroke="rgb(0,0,0)"  stroke-width="3"/>
<line x1="405.5" y1="501.9" x2="383.1" y2="486.9" opacity="1.0" stroke="rgb(0,0,0)"  stroke-width="3"/>
<line x1="382.1" y1="477.6" x2="347.2" y2="494.8" opacity="1.0" stroke="rgb(0,0,0)"  stroke-width="3"/>
<line x1="344.7" y1="533.7" x2="377.0" y2="555.3" opacity="1.0" stroke="rgb(0,0,0)"  stroke-width="3"/>
<line x1="377.0" y1="555.3" x2="412.0" y2="538.1" opacity="1.0" stroke="rgb(0,0,0)"  stroke-width="3"/>
<line x1="379.2" y1="546.2" x2="403.4" y2="534.3" opacity="1.0" stroke="rgb(0,0,0)"  stroke-width="3"/>
<line x1="483.3" y1="503.7" x2="519.0" y2="486.1" opacity="1.0" stroke="rgb(0,0,0)"  stroke-width="3"/>
<line x1="519.0" y1="486.1" x2="521.6" y2="446.4" opacity="1.0" stroke="rgb(0,0,0)"  stroke-width="3"/>
<line x1="512.2" y1="479.7" x2="514.0" y2="451.9" opacity="1.0" stroke="rgb(0,0,0)"  stroke-width="3"/>
<line x1="521.6" y1="446.4" x2="488.5" y2="424.3" opacity="1.0" stroke="rgb(0,0,0)"  stroke-width="3"/>
<line x1="488.5" y1="424.3" x2="452.8" y2="441.9" opacity="1.0" stroke="rgb(0,0,0)"  stroke-width="3"/>
<line x1="486.3" y1="433.4" x2="461.4" y2="445.7" opacity="1.0" stroke="rgb(0,0,0)"  stroke-width="3"/>
<line x1="452.8" y1="441.9" x2="450.2" y2="481.6" opacity="1.0" stroke="rgb(0,0,0)"  stroke-width="3"/>
<line x1="450.2" y1="481.6" x2="483.3" y2="503.7" opacity="1.0" stroke="rgb(0,0,0)"  stroke-width="3"/>
<line x1="459.2" y1="479.0" x2="482.3" y2="494.4" opacity="1.0" stroke="rgb(0,0,0)"  stroke-width="3"/>
<line x1="549.5" y1="547.9" x2="552.1" y2="508.2" opacity="1.0" stroke="rgb(0,0,0)"  stroke-width="3"/>
<line x1="542.7" y1="541.5" x2="544.5" y2="513.8" opacity="1.0" stroke="rgb(0,0,0)"  stroke-width="3"/>
<line x1="552.1" y1="508.2" x2="519.0" y2="486.1" opacity="1.0" stroke="rgb(0,0,0)"  stroke-width="3"/>
<line x1="483.3" y1="503.7" x2="480.7" y2="543.4" opacity="1.0" stroke="rgb(0,0,0)"  stroke-width="3"/>
<line x1="480.7" y1="543.4" x2="513.8" y2="565.5" opacity="1.0" stroke="rgb(0,0,0)"  stroke-width="3"/>
<line x1="489.7" y1="540.8" x2="512.8" y2="556.2" opacity="1.0" stroke="rgb(0,0,0)"  stroke-width="3"/>
<line x1="513.8" y1="565.5" x2="549.5" y2="547.9" opacity="1.0" stroke="rgb(0,0,0)"  stroke-width="3"/>
<line x1="422.3" y1="380.1" x2="419.7" y2="419.8" opacity="1.0" stroke="rgb(0,0,0)"  stroke-width="3"/>
<line x1="429.1" y1="386.6" x2="427.3" y2="414.3" opacity="1.0" stroke="rgb(0,0,0)"  stroke-width="3"/>
<line x1="419.7" y1="419.8" x2="452.8" y2="441.9" opacity="1.0" stroke="rgb(0,0,0)"  stroke-width="3"/>
<line x1="488.5" y1="424.3" x2="491.1" y2="384.6" opacity="1.0" stroke="rgb(0,0,0)"  stroke-width="3"/>
<line x1="491.1" y1="384.6" x2="458.0" y2="362.5" opacity="1.0" stroke="rgb(0,0,0)"  stroke-width="3"/>
<line x1="482.1" y1="387.3" x2="459.0" y2="371.8" opacity="1.0" stroke="rgb(0,0,0)"  stroke-width="3"/>
<line x1="458.0" y1="362.5" x2="422.3" y2="380.1" opacity="1.0" stroke="rgb(0,0,0)"  stroke-width="3"/>
<line x1="590.4" y1="450.9" x2="626.1" y2="433.3" opacity="1.0" stroke="rgb(0,0,0)"  stroke-width="3"/>
<line x1="626.1" y1="433.3" x2="628.7" y2="393.6" opacity="1.0" stroke="rgb(0,0,0)"  stroke-width="3"/>
<line x1="619.3" y1="426.9" x2="621.1" y2="399.1" opacity="1.0" stroke="rgb(0,0,0)"  stroke-width="3"/>
<line x1="628.7" y1="393.6" x2="595.6" y2="371.5" opacity="1.0" stroke="rgb(0,0,0)"  stroke-width="3"/>
<line x1="595.6" y1="371.5" x2="559.9" y2="389.1" opacity="1.0" stroke="rgb(0,0,0)"  stroke-width="3"/>
<line x1="593.4" y1="380.6" x2="568.4" y2="392.9" opacity="1.0" stroke="rgb(0,0,0)"  stroke-width="3"/>
<line x1="559.9" y1="389.1" x2="557.3" y2="428.8" opacity="1.0" stroke="rgb(0,0,0)"  stroke-width="3"/>
<line x1="557.3" y1="428.8" x2="590.4" y2="450.9" opacity="1.0" stroke="rgb(0,0,0)"  stroke-width="3"/>
<line x1="566.3" y1="426.2" x2="589.4" y2="441.6" opacity="1.0" stroke="rgb(0,0,0)"  stroke-width="3"/>
<line x1="382.8" y1="72.0" x2="359.2" y2="40.0" opacity="1.0" stroke="rgb(0,0,0)"  stroke-width="3"/>
<line x1="359.2" y1="40.0" x2="319.7" y2="44.5" opacity="1.0" stroke="rgb(0,0,0)"  stroke-width="3"/>
<line x1="354.0" y1="47.8" x2="326.4" y2="51.0" opacity="1.0" stroke="rgb(0,0,0)"  stroke-width="3"/>
<line x1="319.7" y1="44.5" x2="303.8" y2="81.0" opacity="1.0" stroke="rgb(0,0,0)"  stroke-width="3"/>
<line x1="303.8" y1="81.0" x2="327.4" y2="113.0" opacity="1.0" stroke="rgb(0,0,0)"  stroke-width="3"/>
<line x1="313.1" y1="81.5" x2="329.6" y2="103.9" opacity="1.0" stroke="rgb(0,0,0)"  stroke-width="3"/>
<line x1="327.4" y1="113.0" x2="366.9" y2="108.5" opacity="1.0" stroke="rgb(0,0,0)"  stroke-width="3"/>
<line x1="366.9" y1="108.5" x2="382.8" y2="72.0" opacity="1.0" stroke="rgb(0,0,0)"  stroke-width="3"/>
<line x1="362.7" y1="100.1" x2="373.8" y2="74.6" opacity="1.0" stroke="rgb(0,0,0)"  stroke-width="3"/>
<text x="300.005555" y="551.209673" fill="rgb(255,12,12)" stroke-width="0" font-weight="bold" font-size="25.92" >O</text>
<text x="384.578179" y="148.492356" fill="rgb(12,12,255)" stroke-width="0" font-weight="bold" font-size="25.92" >N</text>
<text x="371.144753" y="304.873225" fill="rgb(12,12,255)" stroke-width="0" font-weight="bold" font-size="25.92" >N</text>
<text x="232.391732" y="305.392615" fill="rgb(12,12,255)" stroke-width="0" font-weight="bold" font-size="25.92" >N</text>
<text x="300.381581" y="264.552570" fill="rgb(255,181,181)" stroke-width="0" font-weight="bold" font-size="25.92" >B</text>
</svg>
</g>
</svg>
