<?xml version="1.0"?>
<svg version="1.1" id="topsvg"
xmlns="http://www.w3.org/2000/svg" xmlns:xlink="http://www.w3.org/1999/xlink"
xmlns:cml="http://www.xml-cml.org/schema" x="0" y="0" width="200px" height="200px" viewBox="0 0 100 100">
<title>GD172.sdf - Open Babel Depiction</title>
<rect x="0" y="0" width="100" height="100" fill="white"/>
<g transform="translate(0,0)">
<svg width="100" height="100" x="0" y="0" viewBox="0 0 625.063 571.316"
font-family="sans-serif" stroke="rgb(0,0,0)" stroke-width="3"  stroke-linecap="round">
<line x1="335.4" y1="142.3" x2="355.1" y2="108.2" opacity="1.0" stroke="rgb(0,0,0)"  stroke-width="3"/>
<line x1="158.2" y1="244.6" x2="118.8" y2="244.6" opacity="1.0" stroke="rgb(0,0,0)"  stroke-width="3"/>
<line x1="458.9" y1="444.7" x2="441.1" y2="464.4" opacity="1.0" stroke="rgb(0,0,0)"  stroke-width="3"/>
<line x1="217.2" y1="210.5" x2="276.3" y2="176.4" opacity="1.0" stroke="rgb(0,0,0)"  stroke-width="3"/>
<line x1="276.3" y1="176.4" x2="296.0" y2="210.5" opacity="1.0" stroke="rgb(0,0,0)"  stroke-width="3"/>
<line x1="273.1" y1="185.2" x2="286.8" y2="208.9" opacity="1.0" stroke="rgb(0,0,0)"  stroke-width="3"/>
<line x1="296.0" y1="210.5" x2="282.8" y2="233.4" opacity="1.0" stroke="rgb(0,0,0)"  stroke-width="3"/>
<line x1="263.3" y1="244.6" x2="236.9" y2="244.6" opacity="1.0" stroke="rgb(0,0,0)"  stroke-width="3"/>
<line x1="236.9" y1="244.6" x2="217.2" y2="210.5" opacity="1.0" stroke="rgb(0,0,0)"  stroke-width="3"/>
<line x1="240.2" y1="235.8" x2="226.5" y2="212.1" opacity="1.0" stroke="rgb(0,0,0)"  stroke-width="3"/>
<line x1="459.4" y1="317.7" x2="425.3" y2="337.4" opacity="1.0" stroke="rgb(0,0,0)"  stroke-width="3"/>
<line x1="450.6" y1="314.5" x2="426.9" y2="328.2" opacity="1.0" stroke="rgb(0,0,0)"  stroke-width="3"/>
<line x1="425.3" y1="337.4" x2="404.6" y2="321.0" opacity="1.0" stroke="rgb(0,0,0)"  stroke-width="3"/>
<line x1="401.0" y1="301.6" x2="414.1" y2="278.8" opacity="1.0" stroke="rgb(0,0,0)"  stroke-width="3"/>
<line x1="414.1" y1="278.8" x2="453.5" y2="278.8" opacity="1.0" stroke="rgb(0,0,0)"  stroke-width="3"/>
<line x1="420.1" y1="286.0" x2="447.5" y2="286.0" opacity="1.0" stroke="rgb(0,0,0)"  stroke-width="3"/>
<line x1="453.5" y1="278.8" x2="459.4" y2="317.7" opacity="1.0" stroke="rgb(0,0,0)"  stroke-width="3"/>
<line x1="506.7" y1="439.1" x2="522.7" y2="403.1" opacity="1.0" stroke="rgb(0,0,0)"  stroke-width="3"/>
<line x1="502.6" y1="430.7" x2="513.7" y2="405.7" opacity="1.0" stroke="rgb(0,0,0)"  stroke-width="3"/>
<line x1="522.7" y1="403.1" x2="493.5" y2="376.8" opacity="1.0" stroke="rgb(0,0,0)"  stroke-width="3"/>
<line x1="493.5" y1="376.8" x2="459.4" y2="396.5" opacity="1.0" stroke="rgb(0,0,0)"  stroke-width="3"/>
<line x1="459.4" y1="396.5" x2="464.9" y2="422.3" opacity="1.0" stroke="rgb(0,0,0)"  stroke-width="3"/>
<line x1="480.5" y1="436.3" x2="506.7" y2="439.1" opacity="1.0" stroke="rgb(0,0,0)"  stroke-width="3"/>
<line x1="276.3" y1="312.9" x2="296.0" y2="347.0" opacity="1.0" stroke="rgb(0,0,0)"  stroke-width="3"/>
<line x1="296.0" y1="347.0" x2="335.4" y2="347.0" opacity="1.0" stroke="rgb(0,0,0)"  stroke-width="3"/>
<line x1="302.0" y1="339.8" x2="329.4" y2="339.8" opacity="1.0" stroke="rgb(0,0,0)"  stroke-width="3"/>
<line x1="335.4" y1="347.0" x2="355.1" y2="312.9" opacity="1.0" stroke="rgb(0,0,0)"  stroke-width="3"/>
<line x1="355.1" y1="312.9" x2="335.4" y2="278.8" opacity="1.0" stroke="rgb(0,0,0)"  stroke-width="3"/>
<line x1="345.8" y1="311.3" x2="332.1" y2="287.5" opacity="1.0" stroke="rgb(0,0,0)"  stroke-width="3"/>
<line x1="335.4" y1="278.8" x2="296.0" y2="278.8" opacity="1.0" stroke="rgb(0,0,0)"  stroke-width="3"/>
<line x1="296.0" y1="278.8" x2="276.3" y2="312.9" opacity="1.0" stroke="rgb(0,0,0)"  stroke-width="3"/>
<line x1="299.2" y1="287.5" x2="285.5" y2="311.3" opacity="1.0" stroke="rgb(0,0,0)"  stroke-width="3"/>
<line x1="296.0" y1="210.5" x2="335.4" y2="210.5" opacity="1.0" stroke="rgb(0,0,0)"  stroke-width="3"/>
<line x1="335.4" y1="210.5" x2="348.6" y2="233.4" opacity="1.0" stroke="rgb(0,0,0)"  stroke-width="3"/>
<line x1="348.6" y1="255.9" x2="335.4" y2="278.8" opacity="1.0" stroke="rgb(0,0,0)"  stroke-width="3"/>
<line x1="296.0" y1="278.8" x2="282.8" y2="255.9" opacity="1.0" stroke="rgb(0,0,0)"  stroke-width="3"/>
<line x1="158.2" y1="244.6" x2="177.8" y2="278.8" opacity="1.0" stroke="rgb(0,0,0)"  stroke-width="3"/>
<line x1="177.8" y1="278.8" x2="217.2" y2="278.8" opacity="1.0" stroke="rgb(0,0,0)"  stroke-width="3"/>
<line x1="183.8" y1="271.6" x2="211.2" y2="271.6" opacity="1.0" stroke="rgb(0,0,0)"  stroke-width="3"/>
<line x1="217.2" y1="278.8" x2="236.9" y2="244.6" opacity="1.0" stroke="rgb(0,0,0)"  stroke-width="3"/>
<line x1="217.2" y1="210.5" x2="177.8" y2="210.5" opacity="1.0" stroke="rgb(0,0,0)"  stroke-width="3"/>
<line x1="177.8" y1="210.5" x2="158.2" y2="244.6" opacity="1.0" stroke="rgb(0,0,0)"  stroke-width="3"/>
<line x1="181.1" y1="219.3" x2="167.4" y2="243.0" opacity="1.0" stroke="rgb(0,0,0)"  stroke-width="3"/>
<line x1="381.5" y1="312.9" x2="355.1" y2="312.9" opacity="1.0" stroke="rgb(0,0,0)"  stroke-width="3"/>
<line x1="368.1" y1="244.6" x2="394.5" y2="244.6" opacity="1.0" stroke="rgb(0,0,0)"  stroke-width="3"/>
<line x1="394.5" y1="244.6" x2="414.1" y2="278.8" opacity="1.0" stroke="rgb(0,0,0)"  stroke-width="3"/>
<line x1="459.4" y1="396.5" x2="425.3" y2="376.8" opacity="1.0" stroke="rgb(0,0,0)"  stroke-width="3"/>
<line x1="457.8" y1="387.2" x2="434.1" y2="373.5" opacity="1.0" stroke="rgb(0,0,0)"  stroke-width="3"/>
<line x1="425.3" y1="376.8" x2="425.3" y2="337.4" opacity="1.0" stroke="rgb(0,0,0)"  stroke-width="3"/>
<line x1="459.4" y1="317.7" x2="493.5" y2="337.4" opacity="1.0" stroke="rgb(0,0,0)"  stroke-width="3"/>
<line x1="493.5" y1="337.4" x2="493.5" y2="376.8" opacity="1.0" stroke="rgb(0,0,0)"  stroke-width="3"/>
<line x1="486.3" y1="343.4" x2="486.3" y2="370.8" opacity="1.0" stroke="rgb(0,0,0)"  stroke-width="3"/>
<line x1="453.5" y1="210.5" x2="414.1" y2="210.5" opacity="1.0" stroke="rgb(0,0,0)"  stroke-width="3"/>
<line x1="414.1" y1="210.5" x2="394.5" y2="244.6" opacity="1.0" stroke="rgb(0,0,0)"  stroke-width="3"/>
<line x1="417.4" y1="219.3" x2="403.7" y2="243.0" opacity="1.0" stroke="rgb(0,0,0)"  stroke-width="3"/>
<line x1="453.5" y1="278.8" x2="473.2" y2="244.6" opacity="1.0" stroke="rgb(0,0,0)"  stroke-width="3"/>
<line x1="473.2" y1="244.6" x2="453.5" y2="210.5" opacity="1.0" stroke="rgb(0,0,0)"  stroke-width="3"/>
<line x1="464.0" y1="243.0" x2="450.3" y2="219.3" opacity="1.0" stroke="rgb(0,0,0)"  stroke-width="3"/>
<line x1="276.3" y1="176.4" x2="296.0" y2="142.3" opacity="1.0" stroke="rgb(0,0,0)"  stroke-width="3"/>
<line x1="296.0" y1="142.3" x2="335.4" y2="142.3" opacity="1.0" stroke="rgb(0,0,0)"  stroke-width="3"/>
<line x1="302.0" y1="149.5" x2="329.4" y2="149.5" opacity="1.0" stroke="rgb(0,0,0)"  stroke-width="3"/>
<line x1="335.4" y1="142.3" x2="355.1" y2="176.4" opacity="1.0" stroke="rgb(0,0,0)"  stroke-width="3"/>
<line x1="355.1" y1="176.4" x2="335.4" y2="210.5" opacity="1.0" stroke="rgb(0,0,0)"  stroke-width="3"/>
<line x1="345.8" y1="178.0" x2="332.1" y2="201.7" opacity="1.0" stroke="rgb(0,0,0)"  stroke-width="3"/>
<line x1="394.5" y1="108.2" x2="414.1" y2="74.1" opacity="1.0" stroke="rgb(0,0,0)"  stroke-width="3"/>
<line x1="414.1" y1="74.1" x2="394.5" y2="40.0" opacity="1.0" stroke="rgb(0,0,0)"  stroke-width="3"/>
<line x1="404.9" y1="72.5" x2="391.2" y2="48.8" opacity="1.0" stroke="rgb(0,0,0)"  stroke-width="3"/>
<line x1="394.5" y1="40.0" x2="355.1" y2="40.0" opacity="1.0" stroke="rgb(0,0,0)"  stroke-width="3"/>
<line x1="355.1" y1="40.0" x2="335.4" y2="74.1" opacity="1.0" stroke="rgb(0,0,0)"  stroke-width="3"/>
<line x1="358.3" y1="48.8" x2="344.6" y2="72.5" opacity="1.0" stroke="rgb(0,0,0)"  stroke-width="3"/>
<line x1="335.4" y1="74.1" x2="355.1" y2="108.2" opacity="1.0" stroke="rgb(0,0,0)"  stroke-width="3"/>
<line x1="355.1" y1="108.2" x2="394.5" y2="108.2" opacity="1.0" stroke="rgb(0,0,0)"  stroke-width="3"/>
<line x1="361.1" y1="101.0" x2="388.5" y2="101.0" opacity="1.0" stroke="rgb(0,0,0)"  stroke-width="3"/>
<line x1="99.1" y1="210.5" x2="59.7" y2="210.5" opacity="1.0" stroke="rgb(0,0,0)"  stroke-width="3"/>
<line x1="59.7" y1="210.5" x2="40.0" y2="244.6" opacity="1.0" stroke="rgb(0,0,0)"  stroke-width="3"/>
<line x1="62.9" y1="219.3" x2="49.2" y2="243.0" opacity="1.0" stroke="rgb(0,0,0)"  stroke-width="3"/>
<line x1="40.0" y1="244.6" x2="59.7" y2="278.8" opacity="1.0" stroke="rgb(0,0,0)"  stroke-width="3"/>
<line x1="59.7" y1="278.8" x2="99.1" y2="278.8" opacity="1.0" stroke="rgb(0,0,0)"  stroke-width="3"/>
<line x1="65.7" y1="271.6" x2="93.1" y2="271.6" opacity="1.0" stroke="rgb(0,0,0)"  stroke-width="3"/>
<line x1="99.1" y1="278.8" x2="118.8" y2="244.6" opacity="1.0" stroke="rgb(0,0,0)"  stroke-width="3"/>
<line x1="118.8" y1="244.6" x2="99.1" y2="210.5" opacity="1.0" stroke="rgb(0,0,0)"  stroke-width="3"/>
<line x1="109.5" y1="243.0" x2="95.8" y2="219.3" opacity="1.0" stroke="rgb(0,0,0)"  stroke-width="3"/>
<line x1="113.0" y1="358.4" x2="142.3" y2="384.7" opacity="1.0" stroke="rgb(0,0,0)"  stroke-width="3"/>
<line x1="122.3" y1="357.0" x2="142.6" y2="375.4" opacity="1.0" stroke="rgb(0,0,0)"  stroke-width="3"/>
<line x1="142.3" y1="384.7" x2="179.7" y2="372.6" opacity="1.0" stroke="rgb(0,0,0)"  stroke-width="3"/>
<line x1="179.7" y1="372.6" x2="187.9" y2="334.0" opacity="1.0" stroke="rgb(0,0,0)"  stroke-width="3"/>
<line x1="173.9" y1="365.2" x2="179.6" y2="338.4" opacity="1.0" stroke="rgb(0,0,0)"  stroke-width="3"/>
<line x1="187.9" y1="334.0" x2="158.6" y2="307.7" opacity="1.0" stroke="rgb(0,0,0)"  stroke-width="3"/>
<line x1="158.6" y1="307.7" x2="121.2" y2="319.8" opacity="1.0" stroke="rgb(0,0,0)"  stroke-width="3"/>
<line x1="155.2" y1="316.4" x2="129.1" y2="324.8" opacity="1.0" stroke="rgb(0,0,0)"  stroke-width="3"/>
<line x1="121.2" y1="319.8" x2="113.0" y2="358.4" opacity="1.0" stroke="rgb(0,0,0)"  stroke-width="3"/>
<line x1="288.7" y1="416.6" x2="280.5" y2="378.1" opacity="1.0" stroke="rgb(0,0,0)"  stroke-width="3"/>
<line x1="280.4" y1="412.2" x2="274.8" y2="385.4" opacity="1.0" stroke="rgb(0,0,0)"  stroke-width="3"/>
<line x1="280.5" y1="378.1" x2="243.1" y2="365.9" opacity="1.0" stroke="rgb(0,0,0)"  stroke-width="3"/>
<line x1="243.1" y1="365.9" x2="213.8" y2="392.2" opacity="1.0" stroke="rgb(0,0,0)"  stroke-width="3"/>
<line x1="243.5" y1="375.3" x2="223.1" y2="393.6" opacity="1.0" stroke="rgb(0,0,0)"  stroke-width="3"/>
<line x1="213.8" y1="392.2" x2="222.0" y2="430.8" opacity="1.0" stroke="rgb(0,0,0)"  stroke-width="3"/>
<line x1="222.0" y1="430.8" x2="259.5" y2="442.9" opacity="1.0" stroke="rgb(0,0,0)"  stroke-width="3"/>
<line x1="229.9" y1="425.8" x2="256.0" y2="434.2" opacity="1.0" stroke="rgb(0,0,0)"  stroke-width="3"/>
<line x1="259.5" y1="442.9" x2="288.7" y2="416.6" opacity="1.0" stroke="rgb(0,0,0)"  stroke-width="3"/>
<line x1="585.1" y1="430.9" x2="561.9" y2="399.0" opacity="1.0" stroke="rgb(0,0,0)"  stroke-width="3"/>
<line x1="575.7" y1="430.3" x2="559.6" y2="408.1" opacity="1.0" stroke="rgb(0,0,0)"  stroke-width="3"/>
<line x1="561.9" y1="399.0" x2="522.7" y2="403.1" opacity="1.0" stroke="rgb(0,0,0)"  stroke-width="3"/>
<line x1="506.7" y1="439.1" x2="529.9" y2="471.0" opacity="1.0" stroke="rgb(0,0,0)"  stroke-width="3"/>
<line x1="529.9" y1="471.0" x2="569.0" y2="466.9" opacity="1.0" stroke="rgb(0,0,0)"  stroke-width="3"/>
<line x1="535.1" y1="463.2" x2="562.3" y2="460.3" opacity="1.0" stroke="rgb(0,0,0)"  stroke-width="3"/>
<line x1="569.0" y1="466.9" x2="585.1" y2="430.9" opacity="1.0" stroke="rgb(0,0,0)"  stroke-width="3"/>
<line x1="402.5" y1="456.1" x2="376.0" y2="485.5" opacity="1.0" stroke="rgb(0,0,0)"  stroke-width="3"/>
<line x1="376.0" y1="485.5" x2="388.2" y2="523.1" opacity="1.0" stroke="rgb(0,0,0)"  stroke-width="3"/>
<line x1="384.7" y1="489.0" x2="393.2" y2="515.2" opacity="1.0" stroke="rgb(0,0,0)"  stroke-width="3"/>
<line x1="388.2" y1="523.1" x2="426.9" y2="531.3" opacity="1.0" stroke="rgb(0,0,0)"  stroke-width="3"/>
<line x1="426.9" y1="531.3" x2="453.3" y2="501.9" opacity="1.0" stroke="rgb(0,0,0)"  stroke-width="3"/>
<line x1="425.5" y1="522.0" x2="444.0" y2="501.6" opacity="1.0" stroke="rgb(0,0,0)"  stroke-width="3"/>
<line x1="453.3" y1="501.9" x2="441.1" y2="464.4" opacity="1.0" stroke="rgb(0,0,0)"  stroke-width="3"/>
<line x1="441.1" y1="464.4" x2="402.5" y2="456.1" opacity="1.0" stroke="rgb(0,0,0)"  stroke-width="3"/>
<line x1="433.7" y1="470.2" x2="406.8" y2="464.4" opacity="1.0" stroke="rgb(0,0,0)"  stroke-width="3"/>
<line x1="179.7" y1="372.6" x2="213.8" y2="392.2" opacity="1.0" stroke="rgb(0,0,0)"  stroke-width="3"/>
<line x1="243.1" y1="365.9" x2="232.0" y2="321.4" opacity="1.0" stroke="rgb(0,0,0)"  stroke-width="3"/>
<line x1="232.0" y1="321.4" x2="187.9" y2="334.0" opacity="1.0" stroke="rgb(0,0,0)"  stroke-width="3"/>
<line x1="217.2" y1="278.8" x2="232.0" y2="321.4" opacity="1.0" stroke="rgb(0,0,0)"  stroke-width="3"/>
<line x1="232.0" y1="321.4" x2="276.3" y2="312.9" opacity="1.0" stroke="rgb(0,0,0)"  stroke-width="3"/>
<text x="461.558486" y="442.990072" fill="rgb(12,12,255)" stroke-width="0" font-weight="bold" font-size="25.92" >N</text>
<text x="349.069826" y="252.643823" fill="rgb(255,181,181)" stroke-width="0" font-weight="bold" font-size="25.92" >B</text>
<text x="388.453518" y="320.858494" fill="rgb(12,12,255)" stroke-width="0" font-weight="bold" font-size="25.92" >N</text>
<text x="270.302393" y="252.643823" fill="rgb(12,12,255)" stroke-width="0" font-weight="bold" font-size="25.92" >N</text>
</svg>
</g>
</svg>
