<?xml version="1.0"?>
<svg version="1.1" id="topsvg"
xmlns="http://www.w3.org/2000/svg" xmlns:xlink="http://www.w3.org/1999/xlink"
xmlns:cml="http://www.xml-cml.org/schema" x="0" y="0" width="200px" height="200px" viewBox="0 0 100 100">
<title>GD174.sdf - Open Babel Depiction</title>
<rect x="0" y="0" width="100" height="100" fill="white"/>
<g transform="translate(0,0)">
<svg width="100" height="100" x="0" y="0" viewBox="0 0 545.009 634.112"
font-family="sans-serif" stroke="rgb(0,0,0)" stroke-width="3"  stroke-linecap="round">
<line x1="75.7" y1="357.7" x2="111.5" y2="342.4" opacity="1.0" stroke="rgb(0,0,0)"  stroke-width="3"/>
<line x1="165.3" y1="184.3" x2="145.8" y2="150.6" opacity="1.0" stroke="rgb(0,0,0)"  stroke-width="3"/>
<line x1="145.8" y1="150.6" x2="126.4" y2="116.9" opacity="1.0" stroke="rgb(0,0,0)"  stroke-width="3"/>
<line x1="145.8" y1="150.6" x2="165.3" y2="116.9" opacity="1.0" stroke="rgb(0,0,0)"  stroke-width="3"/>
<line x1="145.8" y1="150.6" x2="106.9" y2="150.6" opacity="1.0" stroke="rgb(0,0,0)"  stroke-width="3"/>
<line x1="75.7" y1="357.7" x2="40.0" y2="373.1" opacity="1.0" stroke="rgb(0,0,0)"  stroke-width="3"/>
<line x1="75.7" y1="357.7" x2="71.2" y2="396.4" opacity="1.0" stroke="rgb(0,0,0)"  stroke-width="3"/>
<line x1="75.7" y1="357.7" x2="44.6" y2="334.5" opacity="1.0" stroke="rgb(0,0,0)"  stroke-width="3"/>
<line x1="390.6" y1="134.7" x2="380.1" y2="111.1" opacity="1.0" stroke="rgb(0,0,0)"  stroke-width="3"/>
<line x1="151.8" y1="288.4" x2="164.3" y2="251.6" opacity="1.0" stroke="rgb(0,0,0)"  stroke-width="3"/>
<line x1="164.3" y1="251.6" x2="203.2" y2="252.2" opacity="1.0" stroke="rgb(0,0,0)"  stroke-width="3"/>
<line x1="170.2" y1="258.9" x2="197.1" y2="259.3" opacity="1.0" stroke="rgb(0,0,0)"  stroke-width="3"/>
<line x1="203.2" y1="252.2" x2="210.9" y2="276.9" opacity="1.0" stroke="rgb(0,0,0)"  stroke-width="3"/>
<line x1="204.1" y1="296.8" x2="183.0" y2="311.7" opacity="1.0" stroke="rgb(0,0,0)"  stroke-width="3"/>
<line x1="183.0" y1="311.7" x2="151.8" y2="288.4" opacity="1.0" stroke="rgb(0,0,0)"  stroke-width="3"/>
<line x1="182.5" y1="302.4" x2="160.9" y2="286.3" opacity="1.0" stroke="rgb(0,0,0)"  stroke-width="3"/>
<line x1="409.9" y1="279.9" x2="383.9" y2="308.8" opacity="1.0" stroke="rgb(0,0,0)"  stroke-width="3"/>
<line x1="400.5" y1="279.5" x2="382.5" y2="299.5" opacity="1.0" stroke="rgb(0,0,0)"  stroke-width="3"/>
<line x1="383.9" y1="308.8" x2="360.2" y2="298.2" opacity="1.0" stroke="rgb(0,0,0)"  stroke-width="3"/>
<line x1="349.7" y1="280.0" x2="352.4" y2="254.3" opacity="1.0" stroke="rgb(0,0,0)"  stroke-width="3"/>
<line x1="352.4" y1="254.3" x2="390.5" y2="246.2" opacity="1.0" stroke="rgb(0,0,0)"  stroke-width="3"/>
<line x1="359.8" y1="260.1" x2="386.1" y2="254.5" opacity="1.0" stroke="rgb(0,0,0)"  stroke-width="3"/>
<line x1="390.5" y1="246.2" x2="409.9" y2="279.9" opacity="1.0" stroke="rgb(0,0,0)"  stroke-width="3"/>
<line x1="433.9" y1="154.7" x2="408.6" y2="149.3" opacity="1.0" stroke="rgb(0,0,0)"  stroke-width="3"/>
<line x1="389.4" y1="157.9" x2="376.5" y2="180.3" opacity="1.0" stroke="rgb(0,0,0)"  stroke-width="3"/>
<line x1="376.5" y1="180.3" x2="402.5" y2="209.2" opacity="1.0" stroke="rgb(0,0,0)"  stroke-width="3"/>
<line x1="385.8" y1="179.9" x2="403.8" y2="199.9" opacity="1.0" stroke="rgb(0,0,0)"  stroke-width="3"/>
<line x1="402.5" y1="209.2" x2="438.0" y2="193.4" opacity="1.0" stroke="rgb(0,0,0)"  stroke-width="3"/>
<line x1="438.0" y1="193.4" x2="433.9" y2="154.7" opacity="1.0" stroke="rgb(0,0,0)"  stroke-width="3"/>
<line x1="430.2" y1="188.1" x2="427.4" y2="161.4" opacity="1.0" stroke="rgb(0,0,0)"  stroke-width="3"/>
<line x1="261.5" y1="527.0" x2="281.5" y2="484.6" opacity="1.0" stroke="rgb(0,0,0)"  stroke-width="3"/>
<line x1="281.5" y1="484.6" x2="247.6" y2="465.7" opacity="1.0" stroke="rgb(0,0,0)"  stroke-width="3"/>
<line x1="247.6" y1="465.7" x2="225.3" y2="478.9" opacity="1.0" stroke="rgb(0,0,0)"  stroke-width="3"/>
<line x1="217.0" y1="498.2" x2="222.8" y2="523.5" opacity="1.0" stroke="rgb(0,0,0)"  stroke-width="3"/>
<line x1="222.8" y1="523.5" x2="261.5" y2="527.0" opacity="1.0" stroke="rgb(0,0,0)"  stroke-width="3"/>
<line x1="229.4" y1="516.9" x2="256.2" y2="519.3" opacity="1.0" stroke="rgb(0,0,0)"  stroke-width="3"/>
<line x1="246.3" y1="349.4" x2="279.4" y2="369.8" opacity="1.0" stroke="rgb(0,0,0)"  stroke-width="3"/>
<line x1="279.4" y1="369.8" x2="313.6" y2="351.3" opacity="1.0" stroke="rgb(0,0,0)"  stroke-width="3"/>
<line x1="281.3" y1="360.6" x2="304.9" y2="347.8" opacity="1.0" stroke="rgb(0,0,0)"  stroke-width="3"/>
<line x1="313.6" y1="351.3" x2="314.7" y2="312.4" opacity="1.0" stroke="rgb(0,0,0)"  stroke-width="3"/>
<line x1="314.7" y1="312.4" x2="281.5" y2="292.0" opacity="1.0" stroke="rgb(0,0,0)"  stroke-width="3"/>
<line x1="305.8" y1="315.4" x2="282.9" y2="301.3" opacity="1.0" stroke="rgb(0,0,0)"  stroke-width="3"/>
<line x1="281.5" y1="292.0" x2="247.3" y2="310.6" opacity="1.0" stroke="rgb(0,0,0)"  stroke-width="3"/>
<line x1="247.3" y1="310.6" x2="246.3" y2="349.4" opacity="1.0" stroke="rgb(0,0,0)"  stroke-width="3"/>
<line x1="254.4" y1="316.7" x2="253.6" y2="343.6" opacity="1.0" stroke="rgb(0,0,0)"  stroke-width="3"/>
<line x1="203.2" y1="252.2" x2="223.1" y2="218.7" opacity="1.0" stroke="rgb(0,0,0)"  stroke-width="3"/>
<line x1="223.1" y1="218.7" x2="270.3" y2="246.5" opacity="1.0" stroke="rgb(0,0,0)"  stroke-width="3"/>
<line x1="281.5" y1="266.1" x2="281.5" y2="292.0" opacity="1.0" stroke="rgb(0,0,0)"  stroke-width="3"/>
<line x1="247.3" y1="310.6" x2="225.6" y2="296.4" opacity="1.0" stroke="rgb(0,0,0)"  stroke-width="3"/>
<line x1="111.5" y1="342.4" x2="142.6" y2="365.7" opacity="1.0" stroke="rgb(0,0,0)"  stroke-width="3"/>
<line x1="142.6" y1="365.7" x2="178.4" y2="350.4" opacity="1.0" stroke="rgb(0,0,0)"  stroke-width="3"/>
<line x1="145.3" y1="356.7" x2="170.0" y2="346.1" opacity="1.0" stroke="rgb(0,0,0)"  stroke-width="3"/>
<line x1="178.4" y1="350.4" x2="183.0" y2="311.7" opacity="1.0" stroke="rgb(0,0,0)"  stroke-width="3"/>
<line x1="151.8" y1="288.4" x2="116.1" y2="303.8" opacity="1.0" stroke="rgb(0,0,0)"  stroke-width="3"/>
<line x1="116.1" y1="303.8" x2="111.5" y2="342.4" opacity="1.0" stroke="rgb(0,0,0)"  stroke-width="3"/>
<line x1="122.5" y1="310.6" x2="119.3" y2="337.3" opacity="1.0" stroke="rgb(0,0,0)"  stroke-width="3"/>
<line x1="337.1" y1="299.4" x2="314.7" y2="312.4" opacity="1.0" stroke="rgb(0,0,0)"  stroke-width="3"/>
<line x1="292.6" y1="246.3" x2="326.4" y2="225.4" opacity="1.0" stroke="rgb(0,0,0)"  stroke-width="3"/>
<line x1="326.4" y1="225.4" x2="352.4" y2="254.3" opacity="1.0" stroke="rgb(0,0,0)"  stroke-width="3"/>
<line x1="460.0" y1="324.9" x2="433.9" y2="353.8" opacity="1.0" stroke="rgb(0,0,0)"  stroke-width="3"/>
<line x1="433.9" y1="353.8" x2="395.9" y2="345.8" opacity="1.0" stroke="rgb(0,0,0)"  stroke-width="3"/>
<line x1="429.6" y1="345.5" x2="403.3" y2="340.0" opacity="1.0" stroke="rgb(0,0,0)"  stroke-width="3"/>
<line x1="395.9" y1="345.8" x2="383.9" y2="308.8" opacity="1.0" stroke="rgb(0,0,0)"  stroke-width="3"/>
<line x1="409.9" y1="279.9" x2="448.0" y2="287.9" opacity="1.0" stroke="rgb(0,0,0)"  stroke-width="3"/>
<line x1="448.0" y1="287.9" x2="460.0" y2="324.9" opacity="1.0" stroke="rgb(0,0,0)"  stroke-width="3"/>
<line x1="443.0" y1="295.9" x2="451.3" y2="321.5" opacity="1.0" stroke="rgb(0,0,0)"  stroke-width="3"/>
<line x1="376.5" y1="180.3" x2="338.4" y2="188.4" opacity="1.0" stroke="rgb(0,0,0)"  stroke-width="3"/>
<line x1="338.4" y1="188.4" x2="326.4" y2="225.4" opacity="1.0" stroke="rgb(0,0,0)"  stroke-width="3"/>
<line x1="343.4" y1="196.3" x2="335.1" y2="221.9" opacity="1.0" stroke="rgb(0,0,0)"  stroke-width="3"/>
<line x1="390.5" y1="246.2" x2="402.5" y2="209.2" opacity="1.0" stroke="rgb(0,0,0)"  stroke-width="3"/>
<line x1="500.9" y1="147.6" x2="465.4" y2="131.8" opacity="1.0" stroke="rgb(0,0,0)"  stroke-width="3"/>
<line x1="492.5" y1="151.8" x2="468.0" y2="140.8" opacity="1.0" stroke="rgb(0,0,0)"  stroke-width="3"/>
<line x1="465.4" y1="131.8" x2="433.9" y2="154.7" opacity="1.0" stroke="rgb(0,0,0)"  stroke-width="3"/>
<line x1="438.0" y1="193.4" x2="473.5" y2="209.2" opacity="1.0" stroke="rgb(0,0,0)"  stroke-width="3"/>
<line x1="473.5" y1="209.2" x2="505.0" y2="186.3" opacity="1.0" stroke="rgb(0,0,0)"  stroke-width="3"/>
<line x1="474.2" y1="199.8" x2="495.9" y2="184.0" opacity="1.0" stroke="rgb(0,0,0)"  stroke-width="3"/>
<line x1="505.0" y1="186.3" x2="500.9" y2="147.6" opacity="1.0" stroke="rgb(0,0,0)"  stroke-width="3"/>
<line x1="164.3" y1="251.6" x2="145.4" y2="217.7" opacity="1.0" stroke="rgb(0,0,0)"  stroke-width="3"/>
<line x1="145.4" y1="217.7" x2="165.3" y2="184.3" opacity="1.0" stroke="rgb(0,0,0)"  stroke-width="3"/>
<line x1="154.6" y1="216.2" x2="168.4" y2="193.1" opacity="1.0" stroke="rgb(0,0,0)"  stroke-width="3"/>
<line x1="165.3" y1="184.3" x2="204.2" y2="184.8" opacity="1.0" stroke="rgb(0,0,0)"  stroke-width="3"/>
<line x1="204.2" y1="184.8" x2="223.1" y2="218.7" opacity="1.0" stroke="rgb(0,0,0)"  stroke-width="3"/>
<line x1="200.8" y1="193.5" x2="213.9" y2="217.0" opacity="1.0" stroke="rgb(0,0,0)"  stroke-width="3"/>
<line x1="112.9" y1="467.5" x2="146.8" y2="486.5" opacity="1.0" stroke="rgb(0,0,0)"  stroke-width="3"/>
<line x1="121.6" y1="464.1" x2="145.1" y2="477.3" opacity="1.0" stroke="rgb(0,0,0)"  stroke-width="3"/>
<line x1="146.8" y1="486.5" x2="180.2" y2="466.6" opacity="1.0" stroke="rgb(0,0,0)"  stroke-width="3"/>
<line x1="180.2" y1="466.6" x2="179.7" y2="427.7" opacity="1.0" stroke="rgb(0,0,0)"  stroke-width="3"/>
<line x1="172.9" y1="460.7" x2="172.6" y2="433.8" opacity="1.0" stroke="rgb(0,0,0)"  stroke-width="3"/>
<line x1="179.7" y1="427.7" x2="145.8" y2="408.7" opacity="1.0" stroke="rgb(0,0,0)"  stroke-width="3"/>
<line x1="145.8" y1="408.7" x2="112.3" y2="428.6" opacity="1.0" stroke="rgb(0,0,0)"  stroke-width="3"/>
<line x1="144.3" y1="417.9" x2="121.2" y2="431.7" opacity="1.0" stroke="rgb(0,0,0)"  stroke-width="3"/>
<line x1="112.3" y1="428.6" x2="112.9" y2="467.5" opacity="1.0" stroke="rgb(0,0,0)"  stroke-width="3"/>
<line x1="314.4" y1="425.8" x2="280.5" y2="406.9" opacity="1.0" stroke="rgb(0,0,0)"  stroke-width="3"/>
<line x1="305.7" y1="429.2" x2="282.2" y2="416.1" opacity="1.0" stroke="rgb(0,0,0)"  stroke-width="3"/>
<line x1="280.5" y1="406.9" x2="247.1" y2="426.8" opacity="1.0" stroke="rgb(0,0,0)"  stroke-width="3"/>
<line x1="247.1" y1="426.8" x2="247.6" y2="465.7" opacity="1.0" stroke="rgb(0,0,0)"  stroke-width="3"/>
<line x1="254.3" y1="432.7" x2="254.7" y2="459.6" opacity="1.0" stroke="rgb(0,0,0)"  stroke-width="3"/>
<line x1="281.5" y1="484.6" x2="314.9" y2="464.7" opacity="1.0" stroke="rgb(0,0,0)"  stroke-width="3"/>
<line x1="283.0" y1="475.4" x2="306.1" y2="461.6" opacity="1.0" stroke="rgb(0,0,0)"  stroke-width="3"/>
<line x1="314.9" y1="464.7" x2="314.4" y2="425.8" opacity="1.0" stroke="rgb(0,0,0)"  stroke-width="3"/>
<line x1="255.4" y1="594.1" x2="277.8" y2="562.3" opacity="1.0" stroke="rgb(0,0,0)"  stroke-width="3"/>
<line x1="253.0" y1="585.1" x2="268.5" y2="563.1" opacity="1.0" stroke="rgb(0,0,0)"  stroke-width="3"/>
<line x1="277.8" y1="562.3" x2="261.5" y2="527.0" opacity="1.0" stroke="rgb(0,0,0)"  stroke-width="3"/>
<line x1="222.8" y1="523.5" x2="200.3" y2="555.3" opacity="1.0" stroke="rgb(0,0,0)"  stroke-width="3"/>
<line x1="200.3" y1="555.3" x2="216.6" y2="590.6" opacity="1.0" stroke="rgb(0,0,0)"  stroke-width="3"/>
<line x1="209.4" y1="557.7" x2="220.7" y2="582.1" opacity="1.0" stroke="rgb(0,0,0)"  stroke-width="3"/>
<line x1="216.6" y1="590.6" x2="255.4" y2="594.1" opacity="1.0" stroke="rgb(0,0,0)"  stroke-width="3"/>
<line x1="402.9" y1="79.6" x2="387.1" y2="44.1" opacity="1.0" stroke="rgb(0,0,0)"  stroke-width="3"/>
<line x1="387.1" y1="44.1" x2="348.4" y2="40.0" opacity="1.0" stroke="rgb(0,0,0)"  stroke-width="3"/>
<line x1="380.4" y1="50.6" x2="353.7" y2="47.8" opacity="1.0" stroke="rgb(0,0,0)"  stroke-width="3"/>
<line x1="348.4" y1="40.0" x2="325.6" y2="71.5" opacity="1.0" stroke="rgb(0,0,0)"  stroke-width="3"/>
<line x1="325.6" y1="71.5" x2="341.4" y2="107.0" opacity="1.0" stroke="rgb(0,0,0)"  stroke-width="3"/>
<line x1="334.6" y1="74.0" x2="345.5" y2="98.6" opacity="1.0" stroke="rgb(0,0,0)"  stroke-width="3"/>
<line x1="341.4" y1="107.0" x2="380.1" y2="111.1" opacity="1.0" stroke="rgb(0,0,0)"  stroke-width="3"/>
<line x1="380.1" y1="111.1" x2="402.9" y2="79.6" opacity="1.0" stroke="rgb(0,0,0)"  stroke-width="3"/>
<line x1="377.8" y1="102.0" x2="393.6" y2="80.2" opacity="1.0" stroke="rgb(0,0,0)"  stroke-width="3"/>
<line x1="178.4" y1="350.4" x2="212.8" y2="388.3" opacity="1.0" stroke="rgb(0,0,0)"  stroke-width="3"/>
<line x1="212.8" y1="388.3" x2="246.3" y2="349.4" opacity="1.0" stroke="rgb(0,0,0)"  stroke-width="3"/>
<line x1="180.2" y1="466.6" x2="202.8" y2="479.2" opacity="1.0" stroke="rgb(0,0,0)"  stroke-width="3"/>
<line x1="247.1" y1="426.8" x2="212.8" y2="388.3" opacity="1.0" stroke="rgb(0,0,0)"  stroke-width="3"/>
<line x1="212.8" y1="388.3" x2="179.7" y2="427.7" opacity="1.0" stroke="rgb(0,0,0)"  stroke-width="3"/>
<text x="389.901058" y="154.595232" fill="rgb(12,12,255)" stroke-width="0" font-weight="bold" font-size="25.92" >N</text>
<text x="208.170526" y="493.555075" fill="rgb(12,12,255)" stroke-width="0" font-weight="bold" font-size="25.92" >N</text>
<text x="342.350288" y="300.941324" fill="rgb(12,12,255)" stroke-width="0" font-weight="bold" font-size="25.92" >N</text>
<text x="208.748830" y="297.305542" fill="rgb(12,12,255)" stroke-width="0" font-weight="bold" font-size="25.92" >N</text>
<text x="275.524888" y="261.137904" fill="rgb(255,181,181)" stroke-width="0" font-weight="bold" font-size="25.92" >B</text>
</svg>
</g>
</svg>
