<?xml version="1.0"?>
<svg version="1.1" id="topsvg"
xmlns="http://www.w3.org/2000/svg" xmlns:xlink="http://www.w3.org/1999/xlink"
xmlns:cml="http://www.xml-cml.org/schema" x="0" y="0" width="200px" height="200px" viewBox="0 0 100 100">
<title>GD173.sdf - Open Babel Depiction</title>
<rect x="0" y="0" width="100" height="100" fill="white"/>
<g transform="translate(0,0)">
<svg width="100" height="100" x="0" y="0" viewBox="0 0 617.565 587.613"
font-family="sans-serif" stroke="rgb(0,0,0)" stroke-width="3"  stroke-linecap="round">
<line x1="304.4" y1="367.4" x2="304.4" y2="468.8" opacity="1.0" stroke="rgb(0,0,0)"  stroke-width="3"/>
<line x1="338.6" y1="488.5" x2="372.7" y2="468.8" opacity="1.0" stroke="rgb(0,0,0)"  stroke-width="3"/>
<line x1="441.0" y1="429.3" x2="475.1" y2="409.6" opacity="1.0" stroke="rgb(0,0,0)"  stroke-width="3"/>
<line x1="379.3" y1="123.4" x2="398.6" y2="105.3" opacity="1.0" stroke="rgb(0,0,0)"  stroke-width="3"/>
<line x1="233.1" y1="171.3" x2="219.6" y2="134.3" opacity="1.0" stroke="rgb(0,0,0)"  stroke-width="3"/>
<line x1="219.6" y1="134.3" x2="180.5" y2="129.7" opacity="1.0" stroke="rgb(0,0,0)"  stroke-width="3"/>
<line x1="219.6" y1="134.3" x2="202.0" y2="99.1" opacity="1.0" stroke="rgb(0,0,0)"  stroke-width="3"/>
<line x1="219.6" y1="134.3" x2="239.4" y2="100.2" opacity="1.0" stroke="rgb(0,0,0)"  stroke-width="3"/>
<line x1="78.2" y1="297.7" x2="40.0" y2="287.4" opacity="1.0" stroke="rgb(0,0,0)"  stroke-width="3"/>
<line x1="78.2" y1="297.7" x2="78.2" y2="258.1" opacity="1.0" stroke="rgb(0,0,0)"  stroke-width="3"/>
<line x1="117.6" y1="365.2" x2="107.4" y2="403.4" opacity="1.0" stroke="rgb(0,0,0)"  stroke-width="3"/>
<line x1="117.6" y1="365.2" x2="151.9" y2="385.0" opacity="1.0" stroke="rgb(0,0,0)"  stroke-width="3"/>
<line x1="176.1" y1="262.4" x2="200.0" y2="231.1" opacity="1.0" stroke="rgb(0,0,0)"  stroke-width="3"/>
<line x1="200.0" y1="231.1" x2="234.5" y2="250.2" opacity="1.0" stroke="rgb(0,0,0)"  stroke-width="3"/>
<line x1="234.5" y1="250.2" x2="235.1" y2="276.6" opacity="1.0" stroke="rgb(0,0,0)"  stroke-width="3"/>
<line x1="222.5" y1="291.7" x2="196.5" y2="296.1" opacity="1.0" stroke="rgb(0,0,0)"  stroke-width="3"/>
<line x1="196.5" y1="296.1" x2="176.1" y2="262.4" opacity="1.0" stroke="rgb(0,0,0)"  stroke-width="3"/>
<line x1="199.5" y1="287.3" x2="185.4" y2="263.8" opacity="1.0" stroke="rgb(0,0,0)"  stroke-width="3"/>
<line x1="430.6" y1="262.0" x2="403.6" y2="233.2" opacity="1.0" stroke="rgb(0,0,0)"  stroke-width="3"/>
<line x1="403.6" y1="233.2" x2="367.9" y2="250.0" opacity="1.0" stroke="rgb(0,0,0)"  stroke-width="3"/>
<line x1="401.2" y1="242.3" x2="376.4" y2="253.9" opacity="1.0" stroke="rgb(0,0,0)"  stroke-width="3"/>
<line x1="367.9" y1="250.0" x2="371.2" y2="276.2" opacity="1.0" stroke="rgb(0,0,0)"  stroke-width="3"/>
<line x1="385.6" y1="291.5" x2="411.5" y2="296.5" opacity="1.0" stroke="rgb(0,0,0)"  stroke-width="3"/>
<line x1="411.5" y1="296.5" x2="430.6" y2="262.0" opacity="1.0" stroke="rgb(0,0,0)"  stroke-width="3"/>
<line x1="408.1" y1="287.8" x2="421.4" y2="263.8" opacity="1.0" stroke="rgb(0,0,0)"  stroke-width="3"/>
<line x1="331.1" y1="124.8" x2="357.0" y2="129.8" opacity="1.0" stroke="rgb(0,0,0)"  stroke-width="3"/>
<line x1="371.4" y1="145.2" x2="374.6" y2="171.4" opacity="1.0" stroke="rgb(0,0,0)"  stroke-width="3"/>
<line x1="374.6" y1="171.4" x2="339.0" y2="188.1" opacity="1.0" stroke="rgb(0,0,0)"  stroke-width="3"/>
<line x1="339.0" y1="188.1" x2="312.0" y2="159.3" opacity="1.0" stroke="rgb(0,0,0)"  stroke-width="3"/>
<line x1="312.0" y1="159.3" x2="331.1" y2="124.8" opacity="1.0" stroke="rgb(0,0,0)"  stroke-width="3"/>
<line x1="321.2" y1="157.6" x2="334.5" y2="133.6" opacity="1.0" stroke="rgb(0,0,0)"  stroke-width="3"/>
<line x1="270.2" y1="347.9" x2="304.4" y2="367.4" opacity="1.0" stroke="rgb(0,0,0)"  stroke-width="3"/>
<line x1="304.4" y1="367.4" x2="338.5" y2="347.5" opacity="1.0" stroke="rgb(0,0,0)"  stroke-width="3"/>
<line x1="306.0" y1="358.1" x2="329.7" y2="344.3" opacity="1.0" stroke="rgb(0,0,0)"  stroke-width="3"/>
<line x1="338.5" y1="347.5" x2="338.2" y2="308.0" opacity="1.0" stroke="rgb(0,0,0)"  stroke-width="3"/>
<line x1="338.2" y1="308.0" x2="304.0" y2="288.5" opacity="1.0" stroke="rgb(0,0,0)"  stroke-width="3"/>
<line x1="329.5" y1="311.3" x2="305.6" y2="297.8" opacity="1.0" stroke="rgb(0,0,0)"  stroke-width="3"/>
<line x1="304.0" y1="288.5" x2="270.0" y2="308.4" opacity="1.0" stroke="rgb(0,0,0)"  stroke-width="3"/>
<line x1="270.0" y1="308.4" x2="270.2" y2="347.9" opacity="1.0" stroke="rgb(0,0,0)"  stroke-width="3"/>
<line x1="277.2" y1="314.4" x2="277.3" y2="341.8" opacity="1.0" stroke="rgb(0,0,0)"  stroke-width="3"/>
<line x1="303.1" y1="262.1" x2="304.0" y2="288.5" opacity="1.0" stroke="rgb(0,0,0)"  stroke-width="3"/>
<line x1="270.0" y1="308.4" x2="246.8" y2="295.8" opacity="1.0" stroke="rgb(0,0,0)"  stroke-width="3"/>
<line x1="234.5" y1="250.2" x2="268.3" y2="229.9" opacity="1.0" stroke="rgb(0,0,0)"  stroke-width="3"/>
<line x1="243.3" y1="253.3" x2="266.9" y2="239.1" opacity="1.0" stroke="rgb(0,0,0)"  stroke-width="3"/>
<line x1="268.3" y1="229.9" x2="291.3" y2="242.8" opacity="1.0" stroke="rgb(0,0,0)"  stroke-width="3"/>
<line x1="367.9" y1="250.0" x2="335.6" y2="227.4" opacity="1.0" stroke="rgb(0,0,0)"  stroke-width="3"/>
<line x1="335.6" y1="227.4" x2="313.5" y2="242.0" opacity="1.0" stroke="rgb(0,0,0)"  stroke-width="3"/>
<line x1="338.2" y1="308.0" x2="361.4" y2="295.3" opacity="1.0" stroke="rgb(0,0,0)"  stroke-width="3"/>
<line x1="138.0" y1="331.4" x2="177.4" y2="330.7" opacity="1.0" stroke="rgb(0,0,0)"  stroke-width="3"/>
<line x1="143.9" y1="324.1" x2="171.3" y2="323.6" opacity="1.0" stroke="rgb(0,0,0)"  stroke-width="3"/>
<line x1="177.4" y1="330.7" x2="196.5" y2="296.1" opacity="1.0" stroke="rgb(0,0,0)"  stroke-width="3"/>
<line x1="176.1" y1="262.4" x2="136.7" y2="263.1" opacity="1.0" stroke="rgb(0,0,0)"  stroke-width="3"/>
<line x1="136.7" y1="263.1" x2="117.6" y2="297.7" opacity="1.0" stroke="rgb(0,0,0)"  stroke-width="3"/>
<line x1="140.1" y1="271.9" x2="126.8" y2="295.9" opacity="1.0" stroke="rgb(0,0,0)"  stroke-width="3"/>
<line x1="117.6" y1="297.7" x2="138.0" y2="331.4" opacity="1.0" stroke="rgb(0,0,0)"  stroke-width="3"/>
<line x1="490.3" y1="295.0" x2="470.0" y2="261.2" opacity="1.0" stroke="rgb(0,0,0)"  stroke-width="3"/>
<line x1="481.1" y1="293.6" x2="466.9" y2="270.1" opacity="1.0" stroke="rgb(0,0,0)"  stroke-width="3"/>
<line x1="470.0" y1="261.2" x2="430.6" y2="262.0" opacity="1.0" stroke="rgb(0,0,0)"  stroke-width="3"/>
<line x1="411.5" y1="296.5" x2="431.9" y2="330.3" opacity="1.0" stroke="rgb(0,0,0)"  stroke-width="3"/>
<line x1="431.9" y1="330.3" x2="471.3" y2="329.5" opacity="1.0" stroke="rgb(0,0,0)"  stroke-width="3"/>
<line x1="437.7" y1="323.0" x2="465.2" y2="322.4" opacity="1.0" stroke="rgb(0,0,0)"  stroke-width="3"/>
<line x1="471.3" y1="329.5" x2="490.3" y2="295.0" opacity="1.0" stroke="rgb(0,0,0)"  stroke-width="3"/>
<line x1="339.0" y1="188.1" x2="335.6" y2="227.4" opacity="1.0" stroke="rgb(0,0,0)"  stroke-width="3"/>
<line x1="345.6" y1="194.7" x2="343.3" y2="222.0" opacity="1.0" stroke="rgb(0,0,0)"  stroke-width="3"/>
<line x1="403.6" y1="233.2" x2="407.0" y2="193.9" opacity="1.0" stroke="rgb(0,0,0)"  stroke-width="3"/>
<line x1="407.0" y1="193.9" x2="374.6" y2="171.4" opacity="1.0" stroke="rgb(0,0,0)"  stroke-width="3"/>
<line x1="397.9" y1="196.4" x2="375.5" y2="180.7" opacity="1.0" stroke="rgb(0,0,0)"  stroke-width="3"/>
<line x1="200.0" y1="231.1" x2="199.3" y2="191.6" opacity="1.0" stroke="rgb(0,0,0)"  stroke-width="3"/>
<line x1="207.1" y1="224.9" x2="206.6" y2="197.5" opacity="1.0" stroke="rgb(0,0,0)"  stroke-width="3"/>
<line x1="199.3" y1="191.6" x2="233.1" y2="171.3" opacity="1.0" stroke="rgb(0,0,0)"  stroke-width="3"/>
<line x1="233.1" y1="171.3" x2="267.6" y2="190.5" opacity="1.0" stroke="rgb(0,0,0)"  stroke-width="3"/>
<line x1="234.9" y1="180.5" x2="258.9" y2="193.8" opacity="1.0" stroke="rgb(0,0,0)"  stroke-width="3"/>
<line x1="267.6" y1="190.5" x2="268.3" y2="229.9" opacity="1.0" stroke="rgb(0,0,0)"  stroke-width="3"/>
<line x1="252.2" y1="126.3" x2="272.6" y2="160.1" opacity="1.0" stroke="rgb(0,0,0)"  stroke-width="3"/>
<line x1="261.5" y1="127.8" x2="275.7" y2="151.2" opacity="1.0" stroke="rgb(0,0,0)"  stroke-width="3"/>
<line x1="272.6" y1="160.1" x2="312.0" y2="159.3" opacity="1.0" stroke="rgb(0,0,0)"  stroke-width="3"/>
<line x1="331.1" y1="124.8" x2="310.7" y2="91.1" opacity="1.0" stroke="rgb(0,0,0)"  stroke-width="3"/>
<line x1="310.7" y1="91.1" x2="271.3" y2="91.8" opacity="1.0" stroke="rgb(0,0,0)"  stroke-width="3"/>
<line x1="304.8" y1="98.4" x2="277.4" y2="98.9" opacity="1.0" stroke="rgb(0,0,0)"  stroke-width="3"/>
<line x1="271.3" y1="91.8" x2="252.2" y2="126.3" opacity="1.0" stroke="rgb(0,0,0)"  stroke-width="3"/>
<line x1="270.3" y1="488.5" x2="270.3" y2="527.9" opacity="1.0" stroke="rgb(0,0,0)"  stroke-width="3"/>
<line x1="270.3" y1="527.9" x2="304.4" y2="547.6" opacity="1.0" stroke="rgb(0,0,0)"  stroke-width="3"/>
<line x1="279.1" y1="524.7" x2="302.8" y2="538.4" opacity="1.0" stroke="rgb(0,0,0)"  stroke-width="3"/>
<line x1="304.4" y1="547.6" x2="338.6" y2="527.9" opacity="1.0" stroke="rgb(0,0,0)"  stroke-width="3"/>
<line x1="338.6" y1="527.9" x2="338.6" y2="488.5" opacity="1.0" stroke="rgb(0,0,0)"  stroke-width="3"/>
<line x1="331.4" y1="521.9" x2="331.4" y2="494.5" opacity="1.0" stroke="rgb(0,0,0)"  stroke-width="3"/>
<line x1="338.6" y1="488.5" x2="304.4" y2="468.8" opacity="1.0" stroke="rgb(0,0,0)"  stroke-width="3"/>
<line x1="304.4" y1="468.8" x2="270.3" y2="488.5" opacity="1.0" stroke="rgb(0,0,0)"  stroke-width="3"/>
<line x1="302.8" y1="478.0" x2="279.1" y2="491.7" opacity="1.0" stroke="rgb(0,0,0)"  stroke-width="3"/>
<line x1="406.9" y1="488.5" x2="441.0" y2="468.8" opacity="1.0" stroke="rgb(0,0,0)"  stroke-width="3"/>
<line x1="441.0" y1="468.8" x2="441.0" y2="429.3" opacity="1.0" stroke="rgb(0,0,0)"  stroke-width="3"/>
<line x1="433.8" y1="462.8" x2="433.8" y2="435.3" opacity="1.0" stroke="rgb(0,0,0)"  stroke-width="3"/>
<line x1="441.0" y1="429.3" x2="406.9" y2="409.6" opacity="1.0" stroke="rgb(0,0,0)"  stroke-width="3"/>
<line x1="406.9" y1="409.6" x2="372.7" y2="429.3" opacity="1.0" stroke="rgb(0,0,0)"  stroke-width="3"/>
<line x1="405.3" y1="418.9" x2="381.5" y2="432.6" opacity="1.0" stroke="rgb(0,0,0)"  stroke-width="3"/>
<line x1="372.7" y1="429.3" x2="372.7" y2="468.8" opacity="1.0" stroke="rgb(0,0,0)"  stroke-width="3"/>
<line x1="372.7" y1="468.8" x2="406.9" y2="488.5" opacity="1.0" stroke="rgb(0,0,0)"  stroke-width="3"/>
<line x1="381.5" y1="465.5" x2="405.3" y2="479.2" opacity="1.0" stroke="rgb(0,0,0)"  stroke-width="3"/>
<line x1="338.6" y1="370.2" x2="338.6" y2="409.6" opacity="1.0" stroke="rgb(0,0,0)"  stroke-width="3"/>
<line x1="345.8" y1="376.2" x2="345.8" y2="403.6" opacity="1.0" stroke="rgb(0,0,0)"  stroke-width="3"/>
<line x1="338.6" y1="409.6" x2="372.7" y2="429.3" opacity="1.0" stroke="rgb(0,0,0)"  stroke-width="3"/>
<line x1="406.9" y1="409.6" x2="406.9" y2="370.2" opacity="1.0" stroke="rgb(0,0,0)"  stroke-width="3"/>
<line x1="406.9" y1="370.2" x2="372.7" y2="350.5" opacity="1.0" stroke="rgb(0,0,0)"  stroke-width="3"/>
<line x1="398.1" y1="373.4" x2="374.3" y2="359.7" opacity="1.0" stroke="rgb(0,0,0)"  stroke-width="3"/>
<line x1="372.7" y1="350.5" x2="338.6" y2="370.2" opacity="1.0" stroke="rgb(0,0,0)"  stroke-width="3"/>
<line x1="475.1" y1="527.9" x2="475.1" y2="488.5" opacity="1.0" stroke="rgb(0,0,0)"  stroke-width="3"/>
<line x1="467.9" y1="521.9" x2="467.9" y2="494.5" opacity="1.0" stroke="rgb(0,0,0)"  stroke-width="3"/>
<line x1="475.1" y1="488.5" x2="441.0" y2="468.8" opacity="1.0" stroke="rgb(0,0,0)"  stroke-width="3"/>
<line x1="406.9" y1="488.5" x2="406.9" y2="527.9" opacity="1.0" stroke="rgb(0,0,0)"  stroke-width="3"/>
<line x1="406.9" y1="527.9" x2="441.0" y2="547.6" opacity="1.0" stroke="rgb(0,0,0)"  stroke-width="3"/>
<line x1="415.7" y1="524.7" x2="439.4" y2="538.4" opacity="1.0" stroke="rgb(0,0,0)"  stroke-width="3"/>
<line x1="441.0" y1="547.6" x2="475.1" y2="527.9" opacity="1.0" stroke="rgb(0,0,0)"  stroke-width="3"/>
<line x1="509.3" y1="429.3" x2="543.4" y2="409.6" opacity="1.0" stroke="rgb(0,0,0)"  stroke-width="3"/>
<line x1="543.4" y1="409.6" x2="543.4" y2="370.2" opacity="1.0" stroke="rgb(0,0,0)"  stroke-width="3"/>
<line x1="536.2" y1="403.6" x2="536.2" y2="376.2" opacity="1.0" stroke="rgb(0,0,0)"  stroke-width="3"/>
<line x1="543.4" y1="370.2" x2="509.3" y2="350.5" opacity="1.0" stroke="rgb(0,0,0)"  stroke-width="3"/>
<line x1="509.3" y1="350.5" x2="475.1" y2="370.2" opacity="1.0" stroke="rgb(0,0,0)"  stroke-width="3"/>
<line x1="507.7" y1="359.7" x2="483.9" y2="373.4" opacity="1.0" stroke="rgb(0,0,0)"  stroke-width="3"/>
<line x1="475.1" y1="370.2" x2="475.1" y2="409.6" opacity="1.0" stroke="rgb(0,0,0)"  stroke-width="3"/>
<line x1="475.1" y1="409.6" x2="509.3" y2="429.3" opacity="1.0" stroke="rgb(0,0,0)"  stroke-width="3"/>
<line x1="483.9" y1="406.4" x2="507.7" y2="420.1" opacity="1.0" stroke="rgb(0,0,0)"  stroke-width="3"/>
<line x1="577.6" y1="468.8" x2="577.6" y2="429.3" opacity="1.0" stroke="rgb(0,0,0)"  stroke-width="3"/>
<line x1="570.4" y1="462.8" x2="570.4" y2="435.3" opacity="1.0" stroke="rgb(0,0,0)"  stroke-width="3"/>
<line x1="577.6" y1="429.3" x2="543.4" y2="409.6" opacity="1.0" stroke="rgb(0,0,0)"  stroke-width="3"/>
<line x1="509.3" y1="429.3" x2="509.3" y2="468.8" opacity="1.0" stroke="rgb(0,0,0)"  stroke-width="3"/>
<line x1="509.3" y1="468.8" x2="543.4" y2="488.5" opacity="1.0" stroke="rgb(0,0,0)"  stroke-width="3"/>
<line x1="518.1" y1="465.5" x2="541.8" y2="479.2" opacity="1.0" stroke="rgb(0,0,0)"  stroke-width="3"/>
<line x1="543.4" y1="488.5" x2="577.6" y2="468.8" opacity="1.0" stroke="rgb(0,0,0)"  stroke-width="3"/>
<line x1="436.3" y1="116.8" x2="465.1" y2="89.9" opacity="1.0" stroke="rgb(0,0,0)"  stroke-width="3"/>
<line x1="465.1" y1="89.9" x2="456.1" y2="51.5" opacity="1.0" stroke="rgb(0,0,0)"  stroke-width="3"/>
<line x1="456.7" y1="85.6" x2="450.5" y2="58.9" opacity="1.0" stroke="rgb(0,0,0)"  stroke-width="3"/>
<line x1="456.1" y1="51.5" x2="418.4" y2="40.0" opacity="1.0" stroke="rgb(0,0,0)"  stroke-width="3"/>
<line x1="418.4" y1="40.0" x2="389.6" y2="66.9" opacity="1.0" stroke="rgb(0,0,0)"  stroke-width="3"/>
<line x1="418.9" y1="49.4" x2="398.9" y2="68.1" opacity="1.0" stroke="rgb(0,0,0)"  stroke-width="3"/>
<line x1="389.6" y1="66.9" x2="398.6" y2="105.3" opacity="1.0" stroke="rgb(0,0,0)"  stroke-width="3"/>
<line x1="398.6" y1="105.3" x2="436.3" y2="116.8" opacity="1.0" stroke="rgb(0,0,0)"  stroke-width="3"/>
<line x1="406.4" y1="100.2" x2="432.6" y2="108.2" opacity="1.0" stroke="rgb(0,0,0)"  stroke-width="3"/>
<line x1="78.2" y1="365.2" x2="117.6" y2="365.2" opacity="1.0" stroke="rgb(0,0,0)"  stroke-width="3"/>
<line x1="117.6" y1="365.2" x2="138.0" y2="331.4" opacity="1.0" stroke="rgb(0,0,0)"  stroke-width="3"/>
<line x1="117.6" y1="297.7" x2="78.2" y2="297.7" opacity="1.0" stroke="rgb(0,0,0)"  stroke-width="3"/>
<line x1="78.2" y1="297.7" x2="59.2" y2="331.4" opacity="1.0" stroke="rgb(0,0,0)"  stroke-width="3"/>
<line x1="59.2" y1="331.4" x2="78.2" y2="365.2" opacity="1.0" stroke="rgb(0,0,0)"  stroke-width="3"/>
<text x="363.773709" y="140.274274" fill="rgb(12,12,255)" stroke-width="0" font-weight="bold" font-size="25.92" >N</text>
<text x="366.798072" y="297.072632" fill="rgb(12,12,255)" stroke-width="0" font-weight="bold" font-size="25.92" >N</text>
<text x="229.332700" y="297.587202" fill="rgb(12,12,255)" stroke-width="0" font-weight="bold" font-size="25.92" >N</text>
<text x="296.691641" y="257.126062" fill="rgb(255,181,181)" stroke-width="0" font-weight="bold" font-size="25.92" >B</text>
</svg>
</g>
</svg>
