<?xml version="1.0"?>
<svg version="1.1" id="topsvg"
xmlns="http://www.w3.org/2000/svg" xmlns:xlink="http://www.w3.org/1999/xlink"
xmlns:cml="http://www.xml-cml.org/schema" x="0" y="0" width="200px" height="200px" viewBox="0 0 100 100">
<title>GD179.sdf - Open Babel Depiction</title>
<rect x="0" y="0" width="100" height="100" fill="white"/>
<g transform="translate(0,0)">
<svg width="100" height="100" x="0" y="0" viewBox="0 0 575.026 508.537"
font-family="sans-serif" stroke="rgb(0,0,0)" stroke-width="3"  stroke-linecap="round">
<line x1="368.4" y1="114.5" x2="368.4" y2="77.3" opacity="1.0" stroke="rgb(0,0,0)"  stroke-width="3"/>
<line x1="368.4" y1="77.3" x2="336.1" y2="58.6" opacity="1.0" stroke="rgb(0,0,0)"  stroke-width="3"/>
<line x1="368.4" y1="77.3" x2="368.4" y2="40.0" opacity="1.0" stroke="rgb(0,0,0)"  stroke-width="3"/>
<line x1="368.4" y1="77.3" x2="400.7" y2="58.6" opacity="1.0" stroke="rgb(0,0,0)"  stroke-width="3"/>
<line x1="239.3" y1="114.5" x2="239.3" y2="77.3" opacity="1.0" stroke="rgb(0,0,0)"  stroke-width="3"/>
<line x1="239.3" y1="77.3" x2="239.3" y2="40.0" opacity="1.0" stroke="rgb(0,0,0)"  stroke-width="3"/>
<line x1="239.3" y1="77.3" x2="271.6" y2="58.6" opacity="1.0" stroke="rgb(0,0,0)"  stroke-width="3"/>
<line x1="239.3" y1="77.3" x2="207.0" y2="58.6" opacity="1.0" stroke="rgb(0,0,0)"  stroke-width="3"/>
<line x1="465.3" y1="282.3" x2="497.6" y2="300.9" opacity="1.0" stroke="rgb(0,0,0)"  stroke-width="3"/>
<line x1="497.6" y1="300.9" x2="497.6" y2="348.5" opacity="1.0" stroke="rgb(0,0,0)"  stroke-width="3"/>
<line x1="497.6" y1="300.9" x2="529.8" y2="319.6" opacity="1.0" stroke="rgb(0,0,0)"  stroke-width="3"/>
<line x1="497.6" y1="300.9" x2="529.8" y2="282.3" opacity="1.0" stroke="rgb(0,0,0)"  stroke-width="3"/>
<line x1="142.5" y1="282.3" x2="110.2" y2="300.9" opacity="1.0" stroke="rgb(0,0,0)"  stroke-width="3"/>
<line x1="110.2" y1="300.9" x2="77.9" y2="319.6" opacity="1.0" stroke="rgb(0,0,0)"  stroke-width="3"/>
<line x1="110.2" y1="300.9" x2="110.2" y2="338.2" opacity="1.0" stroke="rgb(0,0,0)"  stroke-width="3"/>
<line x1="110.2" y1="300.9" x2="77.9" y2="282.3" opacity="1.0" stroke="rgb(0,0,0)"  stroke-width="3"/>
<line x1="433.0" y1="226.4" x2="400.7" y2="170.5" opacity="1.0" stroke="rgb(0,0,0)"  stroke-width="3"/>
<line x1="400.7" y1="170.5" x2="368.4" y2="189.1" opacity="1.0" stroke="rgb(0,0,0)"  stroke-width="3"/>
<line x1="368.4" y1="189.1" x2="368.4" y2="213.4" opacity="1.0" stroke="rgb(0,0,0)"  stroke-width="3"/>
<line x1="379.7" y1="232.9" x2="400.7" y2="245.0" opacity="1.0" stroke="rgb(0,0,0)"  stroke-width="3"/>
<line x1="400.7" y1="245.0" x2="433.0" y2="226.4" opacity="1.0" stroke="rgb(0,0,0)"  stroke-width="3"/>
<line x1="402.3" y1="235.8" x2="424.2" y2="223.1" opacity="1.0" stroke="rgb(0,0,0)"  stroke-width="3"/>
<line x1="174.7" y1="226.4" x2="207.0" y2="170.5" opacity="1.0" stroke="rgb(0,0,0)"  stroke-width="3"/>
<line x1="207.0" y1="170.5" x2="239.3" y2="189.1" opacity="1.0" stroke="rgb(0,0,0)"  stroke-width="3"/>
<line x1="239.3" y1="189.1" x2="239.3" y2="213.4" opacity="1.0" stroke="rgb(0,0,0)"  stroke-width="3"/>
<line x1="228.0" y1="232.9" x2="207.0" y2="245.0" opacity="1.0" stroke="rgb(0,0,0)"  stroke-width="3"/>
<line x1="207.0" y1="245.0" x2="174.7" y2="226.4" opacity="1.0" stroke="rgb(0,0,0)"  stroke-width="3"/>
<line x1="205.4" y1="235.8" x2="183.5" y2="223.1" opacity="1.0" stroke="rgb(0,0,0)"  stroke-width="3"/>
<line x1="336.1" y1="282.3" x2="303.9" y2="300.9" opacity="1.0" stroke="rgb(0,0,0)"  stroke-width="3"/>
<line x1="303.9" y1="300.9" x2="271.6" y2="282.3" opacity="1.0" stroke="rgb(0,0,0)"  stroke-width="3"/>
<line x1="302.3" y1="291.7" x2="280.4" y2="279.1" opacity="1.0" stroke="rgb(0,0,0)"  stroke-width="3"/>
<line x1="271.6" y1="282.3" x2="271.6" y2="245.0" opacity="1.0" stroke="rgb(0,0,0)"  stroke-width="3"/>
<line x1="271.6" y1="245.0" x2="303.9" y2="226.4" opacity="1.0" stroke="rgb(0,0,0)"  stroke-width="3"/>
<line x1="280.4" y1="248.2" x2="302.3" y2="235.6" opacity="1.0" stroke="rgb(0,0,0)"  stroke-width="3"/>
<line x1="303.9" y1="226.4" x2="336.1" y2="245.0" opacity="1.0" stroke="rgb(0,0,0)"  stroke-width="3"/>
<line x1="336.1" y1="245.0" x2="336.1" y2="282.3" opacity="1.0" stroke="rgb(0,0,0)"  stroke-width="3"/>
<line x1="328.9" y1="251.0" x2="328.9" y2="276.3" opacity="1.0" stroke="rgb(0,0,0)"  stroke-width="3"/>
<line x1="303.9" y1="202.1" x2="303.9" y2="226.4" opacity="1.0" stroke="rgb(0,0,0)"  stroke-width="3"/>
<line x1="336.1" y1="245.0" x2="357.2" y2="232.9" opacity="1.0" stroke="rgb(0,0,0)"  stroke-width="3"/>
<line x1="368.4" y1="189.1" x2="336.1" y2="170.5" opacity="1.0" stroke="rgb(0,0,0)"  stroke-width="3"/>
<line x1="359.6" y1="192.3" x2="337.7" y2="179.7" opacity="1.0" stroke="rgb(0,0,0)"  stroke-width="3"/>
<line x1="336.1" y1="170.5" x2="315.1" y2="182.6" opacity="1.0" stroke="rgb(0,0,0)"  stroke-width="3"/>
<line x1="142.5" y1="282.3" x2="142.5" y2="245.0" opacity="1.0" stroke="rgb(0,0,0)"  stroke-width="3"/>
<line x1="149.7" y1="276.3" x2="149.7" y2="251.0" opacity="1.0" stroke="rgb(0,0,0)"  stroke-width="3"/>
<line x1="142.5" y1="245.0" x2="174.7" y2="226.4" opacity="1.0" stroke="rgb(0,0,0)"  stroke-width="3"/>
<line x1="207.0" y1="245.0" x2="207.0" y2="282.3" opacity="1.0" stroke="rgb(0,0,0)"  stroke-width="3"/>
<line x1="207.0" y1="282.3" x2="174.7" y2="300.9" opacity="1.0" stroke="rgb(0,0,0)"  stroke-width="3"/>
<line x1="198.2" y1="279.1" x2="176.3" y2="291.7" opacity="1.0" stroke="rgb(0,0,0)"  stroke-width="3"/>
<line x1="174.7" y1="300.9" x2="142.5" y2="282.3" opacity="1.0" stroke="rgb(0,0,0)"  stroke-width="3"/>
<line x1="239.3" y1="189.1" x2="271.6" y2="170.5" opacity="1.0" stroke="rgb(0,0,0)"  stroke-width="3"/>
<line x1="248.1" y1="192.3" x2="270.0" y2="179.7" opacity="1.0" stroke="rgb(0,0,0)"  stroke-width="3"/>
<line x1="271.6" y1="170.5" x2="292.6" y2="182.6" opacity="1.0" stroke="rgb(0,0,0)"  stroke-width="3"/>
<line x1="271.6" y1="245.0" x2="250.6" y2="232.9" opacity="1.0" stroke="rgb(0,0,0)"  stroke-width="3"/>
<line x1="239.3" y1="114.5" x2="271.6" y2="133.2" opacity="1.0" stroke="rgb(0,0,0)"  stroke-width="3"/>
<line x1="240.9" y1="123.8" x2="262.8" y2="136.4" opacity="1.0" stroke="rgb(0,0,0)"  stroke-width="3"/>
<line x1="271.6" y1="133.2" x2="271.6" y2="170.5" opacity="1.0" stroke="rgb(0,0,0)"  stroke-width="3"/>
<line x1="207.0" y1="170.5" x2="207.0" y2="133.2" opacity="1.0" stroke="rgb(0,0,0)"  stroke-width="3"/>
<line x1="214.2" y1="164.5" x2="214.2" y2="139.2" opacity="1.0" stroke="rgb(0,0,0)"  stroke-width="3"/>
<line x1="207.0" y1="133.2" x2="239.3" y2="114.5" opacity="1.0" stroke="rgb(0,0,0)"  stroke-width="3"/>
<line x1="400.7" y1="170.5" x2="400.7" y2="133.2" opacity="1.0" stroke="rgb(0,0,0)"  stroke-width="3"/>
<line x1="393.5" y1="164.5" x2="393.5" y2="139.2" opacity="1.0" stroke="rgb(0,0,0)"  stroke-width="3"/>
<line x1="400.7" y1="133.2" x2="368.4" y2="114.5" opacity="1.0" stroke="rgb(0,0,0)"  stroke-width="3"/>
<line x1="368.4" y1="114.5" x2="336.1" y2="133.2" opacity="1.0" stroke="rgb(0,0,0)"  stroke-width="3"/>
<line x1="366.8" y1="123.8" x2="344.9" y2="136.4" opacity="1.0" stroke="rgb(0,0,0)"  stroke-width="3"/>
<line x1="336.1" y1="133.2" x2="336.1" y2="170.5" opacity="1.0" stroke="rgb(0,0,0)"  stroke-width="3"/>
<line x1="465.3" y1="282.3" x2="433.0" y2="300.9" opacity="1.0" stroke="rgb(0,0,0)"  stroke-width="3"/>
<line x1="433.0" y1="300.9" x2="400.7" y2="282.3" opacity="1.0" stroke="rgb(0,0,0)"  stroke-width="3"/>
<line x1="431.4" y1="291.7" x2="409.5" y2="279.1" opacity="1.0" stroke="rgb(0,0,0)"  stroke-width="3"/>
<line x1="400.7" y1="282.3" x2="400.7" y2="245.0" opacity="1.0" stroke="rgb(0,0,0)"  stroke-width="3"/>
<line x1="433.0" y1="226.4" x2="465.3" y2="245.0" opacity="1.0" stroke="rgb(0,0,0)"  stroke-width="3"/>
<line x1="465.3" y1="245.0" x2="465.3" y2="282.3" opacity="1.0" stroke="rgb(0,0,0)"  stroke-width="3"/>
<line x1="458.1" y1="251.0" x2="458.1" y2="276.3" opacity="1.0" stroke="rgb(0,0,0)"  stroke-width="3"/>
<line x1="302.0" y1="440.8" x2="338.5" y2="448.6" opacity="1.0" stroke="rgb(0,0,0)"  stroke-width="3"/>
<line x1="309.4" y1="435.0" x2="334.1" y2="440.3" opacity="1.0" stroke="rgb(0,0,0)"  stroke-width="3"/>
<line x1="338.5" y1="448.6" x2="363.4" y2="420.9" opacity="1.0" stroke="rgb(0,0,0)"  stroke-width="3"/>
<line x1="363.4" y1="420.9" x2="351.9" y2="385.4" opacity="1.0" stroke="rgb(0,0,0)"  stroke-width="3"/>
<line x1="354.7" y1="417.4" x2="346.9" y2="393.4" opacity="1.0" stroke="rgb(0,0,0)"  stroke-width="3"/>
<line x1="351.9" y1="385.4" x2="315.4" y2="377.7" opacity="1.0" stroke="rgb(0,0,0)"  stroke-width="3"/>
<line x1="315.4" y1="377.7" x2="290.5" y2="405.4" opacity="1.0" stroke="rgb(0,0,0)"  stroke-width="3"/>
<line x1="316.8" y1="387.0" x2="299.9" y2="405.7" opacity="1.0" stroke="rgb(0,0,0)"  stroke-width="3"/>
<line x1="290.5" y1="405.4" x2="302.0" y2="440.8" opacity="1.0" stroke="rgb(0,0,0)"  stroke-width="3"/>
<line x1="473.6" y1="405.4" x2="448.7" y2="377.7" opacity="1.0" stroke="rgb(0,0,0)"  stroke-width="3"/>
<line x1="464.3" y1="405.7" x2="447.3" y2="387.0" opacity="1.0" stroke="rgb(0,0,0)"  stroke-width="3"/>
<line x1="448.7" y1="377.7" x2="412.2" y2="385.4" opacity="1.0" stroke="rgb(0,0,0)"  stroke-width="3"/>
<line x1="412.2" y1="385.4" x2="400.7" y2="420.9" opacity="1.0" stroke="rgb(0,0,0)"  stroke-width="3"/>
<line x1="417.2" y1="393.4" x2="409.4" y2="417.4" opacity="1.0" stroke="rgb(0,0,0)"  stroke-width="3"/>
<line x1="400.7" y1="420.9" x2="425.6" y2="448.6" opacity="1.0" stroke="rgb(0,0,0)"  stroke-width="3"/>
<line x1="425.6" y1="448.6" x2="462.1" y2="440.8" opacity="1.0" stroke="rgb(0,0,0)"  stroke-width="3"/>
<line x1="430.0" y1="440.3" x2="454.7" y2="435.0" opacity="1.0" stroke="rgb(0,0,0)"  stroke-width="3"/>
<line x1="462.1" y1="440.8" x2="473.6" y2="405.4" opacity="1.0" stroke="rgb(0,0,0)"  stroke-width="3"/>
<line x1="535.0" y1="425.3" x2="510.1" y2="397.6" opacity="1.0" stroke="rgb(0,0,0)"  stroke-width="3"/>
<line x1="525.7" y1="425.7" x2="508.7" y2="406.9" opacity="1.0" stroke="rgb(0,0,0)"  stroke-width="3"/>
<line x1="510.1" y1="397.6" x2="473.6" y2="405.4" opacity="1.0" stroke="rgb(0,0,0)"  stroke-width="3"/>
<line x1="462.1" y1="440.8" x2="487.0" y2="468.5" opacity="1.0" stroke="rgb(0,0,0)"  stroke-width="3"/>
<line x1="487.0" y1="468.5" x2="523.5" y2="460.8" opacity="1.0" stroke="rgb(0,0,0)"  stroke-width="3"/>
<line x1="491.4" y1="460.2" x2="516.1" y2="455.0" opacity="1.0" stroke="rgb(0,0,0)"  stroke-width="3"/>
<line x1="523.5" y1="460.8" x2="535.0" y2="425.3" opacity="1.0" stroke="rgb(0,0,0)"  stroke-width="3"/>
<line x1="276.6" y1="435.0" x2="264.0" y2="399.9" opacity="1.0" stroke="rgb(0,0,0)"  stroke-width="3"/>
<line x1="267.8" y1="431.8" x2="259.3" y2="408.0" opacity="1.0" stroke="rgb(0,0,0)"  stroke-width="3"/>
<line x1="264.0" y1="399.9" x2="227.4" y2="393.2" opacity="1.0" stroke="rgb(0,0,0)"  stroke-width="3"/>
<line x1="227.4" y1="393.2" x2="203.2" y2="421.6" opacity="1.0" stroke="rgb(0,0,0)"  stroke-width="3"/>
<line x1="229.0" y1="402.4" x2="212.6" y2="421.7" opacity="1.0" stroke="rgb(0,0,0)"  stroke-width="3"/>
<line x1="203.2" y1="421.6" x2="215.7" y2="456.7" opacity="1.0" stroke="rgb(0,0,0)"  stroke-width="3"/>
<line x1="215.7" y1="456.7" x2="252.4" y2="463.4" opacity="1.0" stroke="rgb(0,0,0)"  stroke-width="3"/>
<line x1="222.9" y1="450.7" x2="247.8" y2="455.3" opacity="1.0" stroke="rgb(0,0,0)"  stroke-width="3"/>
<line x1="252.4" y1="463.4" x2="276.6" y2="435.0" opacity="1.0" stroke="rgb(0,0,0)"  stroke-width="3"/>
<line x1="104.4" y1="402.5" x2="135.1" y2="423.5" opacity="1.0" stroke="rgb(0,0,0)"  stroke-width="3"/>
<line x1="113.4" y1="400.0" x2="134.3" y2="414.2" opacity="1.0" stroke="rgb(0,0,0)"  stroke-width="3"/>
<line x1="135.1" y1="423.5" x2="168.7" y2="407.4" opacity="1.0" stroke="rgb(0,0,0)"  stroke-width="3"/>
<line x1="168.7" y1="407.4" x2="171.6" y2="370.3" opacity="1.0" stroke="rgb(0,0,0)"  stroke-width="3"/>
<line x1="162.0" y1="400.9" x2="164.0" y2="375.7" opacity="1.0" stroke="rgb(0,0,0)"  stroke-width="3"/>
<line x1="171.6" y1="370.3" x2="140.8" y2="349.2" opacity="1.0" stroke="rgb(0,0,0)"  stroke-width="3"/>
<line x1="140.8" y1="349.2" x2="107.2" y2="365.3" opacity="1.0" stroke="rgb(0,0,0)"  stroke-width="3"/>
<line x1="138.5" y1="358.3" x2="115.7" y2="369.2" opacity="1.0" stroke="rgb(0,0,0)"  stroke-width="3"/>
<line x1="107.2" y1="365.3" x2="104.4" y2="402.5" opacity="1.0" stroke="rgb(0,0,0)"  stroke-width="3"/>
<line x1="40.0" y1="397.6" x2="70.8" y2="418.6" opacity="1.0" stroke="rgb(0,0,0)"  stroke-width="3"/>
<line x1="49.0" y1="395.0" x2="69.9" y2="409.3" opacity="1.0" stroke="rgb(0,0,0)"  stroke-width="3"/>
<line x1="70.8" y1="418.6" x2="104.4" y2="402.5" opacity="1.0" stroke="rgb(0,0,0)"  stroke-width="3"/>
<line x1="107.2" y1="365.3" x2="76.4" y2="344.3" opacity="1.0" stroke="rgb(0,0,0)"  stroke-width="3"/>
<line x1="76.4" y1="344.3" x2="42.8" y2="360.4" opacity="1.0" stroke="rgb(0,0,0)"  stroke-width="3"/>
<line x1="74.1" y1="353.4" x2="51.4" y2="364.3" opacity="1.0" stroke="rgb(0,0,0)"  stroke-width="3"/>
<line x1="42.8" y1="360.4" x2="40.0" y2="397.6" opacity="1.0" stroke="rgb(0,0,0)"  stroke-width="3"/>
<line x1="412.2" y1="385.4" x2="382.1" y2="344.9" opacity="1.0" stroke="rgb(0,0,0)"  stroke-width="3"/>
<line x1="382.1" y1="344.9" x2="351.9" y2="385.4" opacity="1.0" stroke="rgb(0,0,0)"  stroke-width="3"/>
<line x1="363.4" y1="420.9" x2="400.7" y2="420.9" opacity="1.0" stroke="rgb(0,0,0)"  stroke-width="3"/>
<line x1="168.7" y1="407.4" x2="203.2" y2="421.6" opacity="1.0" stroke="rgb(0,0,0)"  stroke-width="3"/>
<line x1="227.4" y1="393.2" x2="239.3" y2="300.9" opacity="1.0" stroke="rgb(0,0,0)"  stroke-width="3"/>
<line x1="239.3" y1="300.9" x2="171.6" y2="370.3" opacity="1.0" stroke="rgb(0,0,0)"  stroke-width="3"/>
<line x1="336.1" y1="282.3" x2="382.1" y2="344.9" opacity="1.0" stroke="rgb(0,0,0)"  stroke-width="3"/>
<line x1="382.1" y1="344.9" x2="400.7" y2="282.3" opacity="1.0" stroke="rgb(0,0,0)"  stroke-width="3"/>
<line x1="207.0" y1="282.3" x2="239.3" y2="300.9" opacity="1.0" stroke="rgb(0,0,0)"  stroke-width="3"/>
<line x1="239.3" y1="300.9" x2="271.6" y2="282.3" opacity="1.0" stroke="rgb(0,0,0)"  stroke-width="3"/>
<text x="233.303877" y="234.374648" fill="rgb(12,12,255)" stroke-width="0" font-weight="bold" font-size="25.92" >N</text>
<text x="362.428009" y="234.374648" fill="rgb(12,12,255)" stroke-width="0" font-weight="bold" font-size="25.92" >N</text>
<text x="297.865920" y="197.099700" fill="rgb(255,181,181)" stroke-width="0" font-weight="bold" font-size="25.92" >B</text>
</svg>
</g>
</svg>
