<?xml version="1.0"?>
<svg version="1.1" id="topsvg"
xmlns="http://www.w3.org/2000/svg" xmlns:xlink="http://www.w3.org/1999/xlink"
xmlns:cml="http://www.xml-cml.org/schema" x="0" y="0" width="200px" height="200px" viewBox="0 0 100 100">
<title>GD176.sdf - Open Babel Depiction</title>
<rect x="0" y="0" width="100" height="100" fill="white"/>
<g transform="translate(0,0)">
<svg width="100" height="100" x="0" y="0" viewBox="0 0 541.765 523.357"
font-family="sans-serif" stroke="rgb(0,0,0)" stroke-width="3"  stroke-linecap="round">
<line x1="75.5" y1="355.5" x2="111.0" y2="340.3" opacity="1.0" stroke="rgb(0,0,0)"  stroke-width="3"/>
<line x1="164.4" y1="183.3" x2="145.1" y2="149.8" opacity="1.0" stroke="rgb(0,0,0)"  stroke-width="3"/>
<line x1="145.1" y1="149.8" x2="125.8" y2="116.4" opacity="1.0" stroke="rgb(0,0,0)"  stroke-width="3"/>
<line x1="145.1" y1="149.8" x2="164.4" y2="116.4" opacity="1.0" stroke="rgb(0,0,0)"  stroke-width="3"/>
<line x1="145.1" y1="149.8" x2="106.5" y2="149.8" opacity="1.0" stroke="rgb(0,0,0)"  stroke-width="3"/>
<line x1="75.5" y1="355.5" x2="40.0" y2="370.8" opacity="1.0" stroke="rgb(0,0,0)"  stroke-width="3"/>
<line x1="75.5" y1="355.5" x2="70.9" y2="393.9" opacity="1.0" stroke="rgb(0,0,0)"  stroke-width="3"/>
<line x1="75.5" y1="355.5" x2="44.6" y2="332.4" opacity="1.0" stroke="rgb(0,0,0)"  stroke-width="3"/>
<line x1="388.1" y1="134.0" x2="377.7" y2="110.6" opacity="1.0" stroke="rgb(0,0,0)"  stroke-width="3"/>
<line x1="151.0" y1="286.7" x2="163.5" y2="250.1" opacity="1.0" stroke="rgb(0,0,0)"  stroke-width="3"/>
<line x1="163.5" y1="250.1" x2="202.1" y2="250.7" opacity="1.0" stroke="rgb(0,0,0)"  stroke-width="3"/>
<line x1="169.4" y1="257.4" x2="196.0" y2="257.8" opacity="1.0" stroke="rgb(0,0,0)"  stroke-width="3"/>
<line x1="202.1" y1="250.7" x2="209.7" y2="275.1" opacity="1.0" stroke="rgb(0,0,0)"  stroke-width="3"/>
<line x1="202.9" y1="295.1" x2="182.0" y2="309.8" opacity="1.0" stroke="rgb(0,0,0)"  stroke-width="3"/>
<line x1="182.0" y1="309.8" x2="151.0" y2="286.7" opacity="1.0" stroke="rgb(0,0,0)"  stroke-width="3"/>
<line x1="181.5" y1="300.5" x2="160.2" y2="284.5" opacity="1.0" stroke="rgb(0,0,0)"  stroke-width="3"/>
<line x1="407.3" y1="278.2" x2="381.5" y2="306.9" opacity="1.0" stroke="rgb(0,0,0)"  stroke-width="3"/>
<line x1="398.0" y1="277.8" x2="380.1" y2="297.6" opacity="1.0" stroke="rgb(0,0,0)"  stroke-width="3"/>
<line x1="381.5" y1="306.9" x2="358.1" y2="296.5" opacity="1.0" stroke="rgb(0,0,0)"  stroke-width="3"/>
<line x1="347.6" y1="278.2" x2="350.2" y2="252.8" opacity="1.0" stroke="rgb(0,0,0)"  stroke-width="3"/>
<line x1="350.2" y1="252.8" x2="388.0" y2="244.7" opacity="1.0" stroke="rgb(0,0,0)"  stroke-width="3"/>
<line x1="357.6" y1="258.6" x2="383.6" y2="253.0" opacity="1.0" stroke="rgb(0,0,0)"  stroke-width="3"/>
<line x1="388.0" y1="244.7" x2="407.3" y2="278.2" opacity="1.0" stroke="rgb(0,0,0)"  stroke-width="3"/>
<line x1="431.2" y1="153.9" x2="406.1" y2="148.6" opacity="1.0" stroke="rgb(0,0,0)"  stroke-width="3"/>
<line x1="386.9" y1="157.1" x2="374.1" y2="179.3" opacity="1.0" stroke="rgb(0,0,0)"  stroke-width="3"/>
<line x1="374.1" y1="179.3" x2="400.0" y2="208.0" opacity="1.0" stroke="rgb(0,0,0)"  stroke-width="3"/>
<line x1="383.5" y1="178.9" x2="401.3" y2="198.7" opacity="1.0" stroke="rgb(0,0,0)"  stroke-width="3"/>
<line x1="400.0" y1="208.0" x2="435.2" y2="192.3" opacity="1.0" stroke="rgb(0,0,0)"  stroke-width="3"/>
<line x1="435.2" y1="192.3" x2="431.2" y2="153.9" opacity="1.0" stroke="rgb(0,0,0)"  stroke-width="3"/>
<line x1="427.4" y1="187.1" x2="424.7" y2="160.6" opacity="1.0" stroke="rgb(0,0,0)"  stroke-width="3"/>
<line x1="244.8" y1="347.3" x2="277.7" y2="367.5" opacity="1.0" stroke="rgb(0,0,0)"  stroke-width="3"/>
<line x1="277.7" y1="367.5" x2="311.7" y2="349.1" opacity="1.0" stroke="rgb(0,0,0)"  stroke-width="3"/>
<line x1="279.6" y1="358.3" x2="303.0" y2="345.6" opacity="1.0" stroke="rgb(0,0,0)"  stroke-width="3"/>
<line x1="311.7" y1="349.1" x2="312.8" y2="310.5" opacity="1.0" stroke="rgb(0,0,0)"  stroke-width="3"/>
<line x1="312.8" y1="310.5" x2="279.8" y2="290.3" opacity="1.0" stroke="rgb(0,0,0)"  stroke-width="3"/>
<line x1="303.9" y1="313.5" x2="281.2" y2="299.5" opacity="1.0" stroke="rgb(0,0,0)"  stroke-width="3"/>
<line x1="279.8" y1="290.3" x2="245.9" y2="308.7" opacity="1.0" stroke="rgb(0,0,0)"  stroke-width="3"/>
<line x1="245.9" y1="308.7" x2="244.8" y2="347.3" opacity="1.0" stroke="rgb(0,0,0)"  stroke-width="3"/>
<line x1="252.9" y1="314.9" x2="252.2" y2="341.5" opacity="1.0" stroke="rgb(0,0,0)"  stroke-width="3"/>
<line x1="202.1" y1="250.7" x2="221.9" y2="217.5" opacity="1.0" stroke="rgb(0,0,0)"  stroke-width="3"/>
<line x1="221.9" y1="217.5" x2="268.6" y2="245.1" opacity="1.0" stroke="rgb(0,0,0)"  stroke-width="3"/>
<line x1="279.8" y1="264.7" x2="279.8" y2="290.3" opacity="1.0" stroke="rgb(0,0,0)"  stroke-width="3"/>
<line x1="245.9" y1="308.7" x2="224.4" y2="294.7" opacity="1.0" stroke="rgb(0,0,0)"  stroke-width="3"/>
<line x1="111.0" y1="340.3" x2="141.9" y2="363.4" opacity="1.0" stroke="rgb(0,0,0)"  stroke-width="3"/>
<line x1="141.9" y1="363.4" x2="177.4" y2="348.2" opacity="1.0" stroke="rgb(0,0,0)"  stroke-width="3"/>
<line x1="144.6" y1="354.4" x2="169.1" y2="343.9" opacity="1.0" stroke="rgb(0,0,0)"  stroke-width="3"/>
<line x1="177.4" y1="348.2" x2="182.0" y2="309.8" opacity="1.0" stroke="rgb(0,0,0)"  stroke-width="3"/>
<line x1="151.0" y1="286.7" x2="115.5" y2="301.9" opacity="1.0" stroke="rgb(0,0,0)"  stroke-width="3"/>
<line x1="115.5" y1="301.9" x2="111.0" y2="340.3" opacity="1.0" stroke="rgb(0,0,0)"  stroke-width="3"/>
<line x1="122.0" y1="308.8" x2="118.8" y2="335.2" opacity="1.0" stroke="rgb(0,0,0)"  stroke-width="3"/>
<line x1="334.9" y1="297.7" x2="312.8" y2="310.5" opacity="1.0" stroke="rgb(0,0,0)"  stroke-width="3"/>
<line x1="290.9" y1="244.8" x2="324.4" y2="224.1" opacity="1.0" stroke="rgb(0,0,0)"  stroke-width="3"/>
<line x1="324.4" y1="224.1" x2="350.2" y2="252.8" opacity="1.0" stroke="rgb(0,0,0)"  stroke-width="3"/>
<line x1="457.0" y1="322.9" x2="431.2" y2="351.6" opacity="1.0" stroke="rgb(0,0,0)"  stroke-width="3"/>
<line x1="431.2" y1="351.6" x2="393.4" y2="343.6" opacity="1.0" stroke="rgb(0,0,0)"  stroke-width="3"/>
<line x1="426.8" y1="343.4" x2="400.8" y2="337.8" opacity="1.0" stroke="rgb(0,0,0)"  stroke-width="3"/>
<line x1="393.4" y1="343.6" x2="381.5" y2="306.9" opacity="1.0" stroke="rgb(0,0,0)"  stroke-width="3"/>
<line x1="407.3" y1="278.2" x2="445.1" y2="286.2" opacity="1.0" stroke="rgb(0,0,0)"  stroke-width="3"/>
<line x1="445.1" y1="286.2" x2="457.0" y2="322.9" opacity="1.0" stroke="rgb(0,0,0)"  stroke-width="3"/>
<line x1="440.1" y1="294.1" x2="448.3" y2="319.5" opacity="1.0" stroke="rgb(0,0,0)"  stroke-width="3"/>
<line x1="374.1" y1="179.3" x2="336.3" y2="187.3" opacity="1.0" stroke="rgb(0,0,0)"  stroke-width="3"/>
<line x1="336.3" y1="187.3" x2="324.4" y2="224.1" opacity="1.0" stroke="rgb(0,0,0)"  stroke-width="3"/>
<line x1="341.3" y1="195.3" x2="333.1" y2="220.6" opacity="1.0" stroke="rgb(0,0,0)"  stroke-width="3"/>
<line x1="388.0" y1="244.7" x2="400.0" y2="208.0" opacity="1.0" stroke="rgb(0,0,0)"  stroke-width="3"/>
<line x1="497.7" y1="146.9" x2="462.4" y2="131.2" opacity="1.0" stroke="rgb(0,0,0)"  stroke-width="3"/>
<line x1="489.3" y1="151.0" x2="465.0" y2="140.2" opacity="1.0" stroke="rgb(0,0,0)"  stroke-width="3"/>
<line x1="462.4" y1="131.2" x2="431.2" y2="153.9" opacity="1.0" stroke="rgb(0,0,0)"  stroke-width="3"/>
<line x1="435.2" y1="192.3" x2="470.5" y2="208.0" opacity="1.0" stroke="rgb(0,0,0)"  stroke-width="3"/>
<line x1="470.5" y1="208.0" x2="501.8" y2="185.3" opacity="1.0" stroke="rgb(0,0,0)"  stroke-width="3"/>
<line x1="471.1" y1="198.7" x2="492.7" y2="183.0" opacity="1.0" stroke="rgb(0,0,0)"  stroke-width="3"/>
<line x1="501.8" y1="185.3" x2="497.7" y2="146.9" opacity="1.0" stroke="rgb(0,0,0)"  stroke-width="3"/>
<line x1="163.5" y1="250.1" x2="144.6" y2="216.4" opacity="1.0" stroke="rgb(0,0,0)"  stroke-width="3"/>
<line x1="144.6" y1="216.4" x2="164.4" y2="183.3" opacity="1.0" stroke="rgb(0,0,0)"  stroke-width="3"/>
<line x1="153.9" y1="215.0" x2="167.5" y2="192.1" opacity="1.0" stroke="rgb(0,0,0)"  stroke-width="3"/>
<line x1="164.4" y1="183.3" x2="203.0" y2="183.8" opacity="1.0" stroke="rgb(0,0,0)"  stroke-width="3"/>
<line x1="203.0" y1="183.8" x2="221.9" y2="217.5" opacity="1.0" stroke="rgb(0,0,0)"  stroke-width="3"/>
<line x1="199.7" y1="192.5" x2="212.6" y2="215.8" opacity="1.0" stroke="rgb(0,0,0)"  stroke-width="3"/>
<line x1="112.4" y1="464.5" x2="146.1" y2="483.4" opacity="1.0" stroke="rgb(0,0,0)"  stroke-width="3"/>
<line x1="121.1" y1="461.1" x2="144.3" y2="474.1" opacity="1.0" stroke="rgb(0,0,0)"  stroke-width="3"/>
<line x1="146.1" y1="483.4" x2="179.2" y2="463.6" opacity="1.0" stroke="rgb(0,0,0)"  stroke-width="3"/>
<line x1="179.2" y1="463.6" x2="178.7" y2="425.0" opacity="1.0" stroke="rgb(0,0,0)"  stroke-width="3"/>
<line x1="172.0" y1="457.7" x2="171.6" y2="431.1" opacity="1.0" stroke="rgb(0,0,0)"  stroke-width="3"/>
<line x1="178.7" y1="425.0" x2="145.0" y2="406.1" opacity="1.0" stroke="rgb(0,0,0)"  stroke-width="3"/>
<line x1="145.0" y1="406.1" x2="111.8" y2="425.9" opacity="1.0" stroke="rgb(0,0,0)"  stroke-width="3"/>
<line x1="143.5" y1="415.4" x2="120.7" y2="429.0" opacity="1.0" stroke="rgb(0,0,0)"  stroke-width="3"/>
<line x1="111.8" y1="425.9" x2="112.4" y2="464.5" opacity="1.0" stroke="rgb(0,0,0)"  stroke-width="3"/>
<line x1="312.5" y1="423.2" x2="278.8" y2="404.3" opacity="1.0" stroke="rgb(0,0,0)"  stroke-width="3"/>
<line x1="303.8" y1="426.5" x2="280.5" y2="413.5" opacity="1.0" stroke="rgb(0,0,0)"  stroke-width="3"/>
<line x1="278.8" y1="404.3" x2="245.6" y2="424.1" opacity="1.0" stroke="rgb(0,0,0)"  stroke-width="3"/>
<line x1="245.6" y1="424.1" x2="246.1" y2="462.7" opacity="1.0" stroke="rgb(0,0,0)"  stroke-width="3"/>
<line x1="252.9" y1="430.0" x2="253.3" y2="456.6" opacity="1.0" stroke="rgb(0,0,0)"  stroke-width="3"/>
<line x1="246.1" y1="462.7" x2="279.8" y2="481.5" opacity="1.0" stroke="rgb(0,0,0)"  stroke-width="3"/>
<line x1="279.8" y1="481.5" x2="313.0" y2="461.8" opacity="1.0" stroke="rgb(0,0,0)"  stroke-width="3"/>
<line x1="281.3" y1="472.3" x2="304.2" y2="458.7" opacity="1.0" stroke="rgb(0,0,0)"  stroke-width="3"/>
<line x1="313.0" y1="461.8" x2="312.5" y2="423.2" opacity="1.0" stroke="rgb(0,0,0)"  stroke-width="3"/>
<line x1="379.9" y1="423.2" x2="346.7" y2="404.3" opacity="1.0" stroke="rgb(0,0,0)"  stroke-width="3"/>
<line x1="371.1" y1="426.4" x2="348.4" y2="413.5" opacity="1.0" stroke="rgb(0,0,0)"  stroke-width="3"/>
<line x1="346.7" y1="404.3" x2="312.5" y2="423.2" opacity="1.0" stroke="rgb(0,0,0)"  stroke-width="3"/>
<line x1="313.0" y1="461.8" x2="346.7" y2="480.6" opacity="1.0" stroke="rgb(0,0,0)"  stroke-width="3"/>
<line x1="346.7" y1="480.6" x2="379.9" y2="461.8" opacity="1.0" stroke="rgb(0,0,0)"  stroke-width="3"/>
<line x1="348.4" y1="471.4" x2="371.1" y2="458.5" opacity="1.0" stroke="rgb(0,0,0)"  stroke-width="3"/>
<line x1="379.9" y1="461.8" x2="379.9" y2="423.2" opacity="1.0" stroke="rgb(0,0,0)"  stroke-width="3"/>
<line x1="400.4" y1="79.3" x2="384.7" y2="44.0" opacity="1.0" stroke="rgb(0,0,0)"  stroke-width="3"/>
<line x1="384.7" y1="44.0" x2="346.3" y2="40.0" opacity="1.0" stroke="rgb(0,0,0)"  stroke-width="3"/>
<line x1="378.0" y1="50.6" x2="351.5" y2="47.8" opacity="1.0" stroke="rgb(0,0,0)"  stroke-width="3"/>
<line x1="346.3" y1="40.0" x2="323.6" y2="71.2" opacity="1.0" stroke="rgb(0,0,0)"  stroke-width="3"/>
<line x1="323.6" y1="71.2" x2="339.3" y2="106.5" opacity="1.0" stroke="rgb(0,0,0)"  stroke-width="3"/>
<line x1="332.6" y1="73.8" x2="343.4" y2="98.1" opacity="1.0" stroke="rgb(0,0,0)"  stroke-width="3"/>
<line x1="339.3" y1="106.5" x2="377.7" y2="110.6" opacity="1.0" stroke="rgb(0,0,0)"  stroke-width="3"/>
<line x1="377.7" y1="110.6" x2="400.4" y2="79.3" opacity="1.0" stroke="rgb(0,0,0)"  stroke-width="3"/>
<line x1="375.4" y1="101.5" x2="391.1" y2="79.9" opacity="1.0" stroke="rgb(0,0,0)"  stroke-width="3"/>
<line x1="179.2" y1="463.6" x2="246.1" y2="462.7" opacity="1.0" stroke="rgb(0,0,0)"  stroke-width="3"/>
<line x1="245.6" y1="424.1" x2="211.6" y2="385.9" opacity="1.0" stroke="rgb(0,0,0)"  stroke-width="3"/>
<line x1="211.6" y1="385.9" x2="178.7" y2="425.0" opacity="1.0" stroke="rgb(0,0,0)"  stroke-width="3"/>
<line x1="177.4" y1="348.2" x2="211.6" y2="385.9" opacity="1.0" stroke="rgb(0,0,0)"  stroke-width="3"/>
<line x1="211.6" y1="385.9" x2="244.8" y2="347.3" opacity="1.0" stroke="rgb(0,0,0)"  stroke-width="3"/>
<text x="387.418131" y="153.851575" fill="rgb(12,12,255)" stroke-width="0" font-weight="bold" font-size="25.92" >N</text>
<text x="340.199097" y="299.176691" fill="rgb(12,12,255)" stroke-width="0" font-weight="bold" font-size="25.92" >N</text>
<text x="207.529703" y="295.566274" fill="rgb(12,12,255)" stroke-width="0" font-weight="bold" font-size="25.92" >N</text>
<text x="273.839900" y="259.650910" fill="rgb(255,181,181)" stroke-width="0" font-weight="bold" font-size="25.92" >B</text>
</svg>
</g>
</svg>
