<?xml version="1.0"?>
<svg version="1.1" id="topsvg"
xmlns="http://www.w3.org/2000/svg" xmlns:xlink="http://www.w3.org/1999/xlink"
xmlns:cml="http://www.xml-cml.org/schema" x="0" y="0" width="200px" height="200px" viewBox="0 0 100 100">
<title>GD178.sdf - Open Babel Depiction</title>
<rect x="0" y="0" width="100" height="100" fill="white"/>
<g transform="translate(0,0)">
<svg width="100" height="100" x="0" y="0" viewBox="0 0 539.089 592.958"
font-family="sans-serif" stroke="rgb(0,0,0)" stroke-width="3"  stroke-linecap="round">
<line x1="73.1" y1="364.1" x2="106.7" y2="347.1" opacity="1.0" stroke="rgb(0,0,0)"  stroke-width="3"/>
<line x1="149.0" y1="190.8" x2="128.6" y2="159.1" opacity="1.0" stroke="rgb(0,0,0)"  stroke-width="3"/>
<line x1="128.6" y1="159.1" x2="108.1" y2="127.4" opacity="1.0" stroke="rgb(0,0,0)"  stroke-width="3"/>
<line x1="128.6" y1="159.1" x2="145.8" y2="125.6" opacity="1.0" stroke="rgb(0,0,0)"  stroke-width="3"/>
<line x1="128.6" y1="159.1" x2="90.9" y2="161.0" opacity="1.0" stroke="rgb(0,0,0)"  stroke-width="3"/>
<line x1="73.1" y1="364.1" x2="40.0" y2="382.1" opacity="1.0" stroke="rgb(0,0,0)"  stroke-width="3"/>
<line x1="73.1" y1="364.1" x2="72.2" y2="401.8" opacity="1.0" stroke="rgb(0,0,0)"  stroke-width="3"/>
<line x1="73.1" y1="364.1" x2="40.9" y2="344.5" opacity="1.0" stroke="rgb(0,0,0)"  stroke-width="3"/>
<line x1="363.8" y1="128.7" x2="352.4" y2="106.8" opacity="1.0" stroke="rgb(0,0,0)"  stroke-width="3"/>
<line x1="302.4" y1="495.9" x2="335.0" y2="477.0" opacity="1.0" stroke="rgb(0,0,0)"  stroke-width="3"/>
<line x1="400.7" y1="440.0" x2="433.4" y2="421.2" opacity="1.0" stroke="rgb(0,0,0)"  stroke-width="3"/>
<line x1="142.4" y1="292.4" x2="152.3" y2="256.0" opacity="1.0" stroke="rgb(0,0,0)"  stroke-width="3"/>
<line x1="152.3" y1="256.0" x2="189.9" y2="254.1" opacity="1.0" stroke="rgb(0,0,0)"  stroke-width="3"/>
<line x1="158.6" y1="262.9" x2="184.3" y2="261.6" opacity="1.0" stroke="rgb(0,0,0)"  stroke-width="3"/>
<line x1="189.9" y1="254.1" x2="198.7" y2="277.2" opacity="1.0" stroke="rgb(0,0,0)"  stroke-width="3"/>
<line x1="193.2" y1="297.5" x2="174.0" y2="313.0" opacity="1.0" stroke="rgb(0,0,0)"  stroke-width="3"/>
<line x1="174.0" y1="313.0" x2="142.4" y2="292.4" opacity="1.0" stroke="rgb(0,0,0)"  stroke-width="3"/>
<line x1="172.9" y1="303.7" x2="151.4" y2="289.6" opacity="1.0" stroke="rgb(0,0,0)"  stroke-width="3"/>
<line x1="391.6" y1="268.2" x2="368.2" y2="297.8" opacity="1.0" stroke="rgb(0,0,0)"  stroke-width="3"/>
<line x1="382.2" y1="268.5" x2="366.2" y2="288.6" opacity="1.0" stroke="rgb(0,0,0)"  stroke-width="3"/>
<line x1="368.2" y1="297.8" x2="345.0" y2="289.2" opacity="1.0" stroke="rgb(0,0,0)"  stroke-width="3"/>
<line x1="333.4" y1="271.7" x2="334.4" y2="247.0" opacity="1.0" stroke="rgb(0,0,0)"  stroke-width="3"/>
<line x1="334.4" y1="247.0" x2="370.7" y2="236.9" opacity="1.0" stroke="rgb(0,0,0)"  stroke-width="3"/>
<line x1="342.1" y1="252.3" x2="366.8" y2="245.4" opacity="1.0" stroke="rgb(0,0,0)"  stroke-width="3"/>
<line x1="370.7" y1="236.9" x2="391.6" y2="268.2" opacity="1.0" stroke="rgb(0,0,0)"  stroke-width="3"/>
<line x1="407.1" y1="145.7" x2="382.7" y2="142.1" opacity="1.0" stroke="rgb(0,0,0)"  stroke-width="3"/>
<line x1="364.1" y1="151.8" x2="353.1" y2="174.0" opacity="1.0" stroke="rgb(0,0,0)"  stroke-width="3"/>
<line x1="353.1" y1="174.0" x2="380.0" y2="200.3" opacity="1.0" stroke="rgb(0,0,0)"  stroke-width="3"/>
<line x1="362.4" y1="173.0" x2="380.8" y2="191.0" opacity="1.0" stroke="rgb(0,0,0)"  stroke-width="3"/>
<line x1="380.0" y1="200.3" x2="413.4" y2="182.9" opacity="1.0" stroke="rgb(0,0,0)"  stroke-width="3"/>
<line x1="413.4" y1="182.9" x2="407.1" y2="145.7" opacity="1.0" stroke="rgb(0,0,0)"  stroke-width="3"/>
<line x1="405.3" y1="178.1" x2="401.0" y2="152.8" opacity="1.0" stroke="rgb(0,0,0)"  stroke-width="3"/>
<line x1="237.5" y1="345.6" x2="270.8" y2="363.2" opacity="1.0" stroke="rgb(0,0,0)"  stroke-width="3"/>
<line x1="270.8" y1="363.2" x2="302.8" y2="343.2" opacity="1.0" stroke="rgb(0,0,0)"  stroke-width="3"/>
<line x1="272.1" y1="354.0" x2="293.9" y2="340.3" opacity="1.0" stroke="rgb(0,0,0)"  stroke-width="3"/>
<line x1="302.8" y1="343.2" x2="301.4" y2="305.6" opacity="1.0" stroke="rgb(0,0,0)"  stroke-width="3"/>
<line x1="301.4" y1="305.6" x2="268.1" y2="287.9" opacity="1.0" stroke="rgb(0,0,0)"  stroke-width="3"/>
<line x1="292.8" y1="309.1" x2="270.0" y2="297.1" opacity="1.0" stroke="rgb(0,0,0)"  stroke-width="3"/>
<line x1="268.1" y1="287.9" x2="236.2" y2="307.9" opacity="1.0" stroke="rgb(0,0,0)"  stroke-width="3"/>
<line x1="236.2" y1="307.9" x2="237.5" y2="345.6" opacity="1.0" stroke="rgb(0,0,0)"  stroke-width="3"/>
<line x1="243.6" y1="313.7" x2="244.5" y2="339.3" opacity="1.0" stroke="rgb(0,0,0)"  stroke-width="3"/>
<line x1="189.9" y1="254.1" x2="207.1" y2="220.6" opacity="1.0" stroke="rgb(0,0,0)"  stroke-width="3"/>
<line x1="207.1" y1="220.6" x2="254.1" y2="244.4" opacity="1.0" stroke="rgb(0,0,0)"  stroke-width="3"/>
<line x1="266.6" y1="263.3" x2="268.1" y2="287.9" opacity="1.0" stroke="rgb(0,0,0)"  stroke-width="3"/>
<line x1="236.2" y1="307.9" x2="214.7" y2="295.8" opacity="1.0" stroke="rgb(0,0,0)"  stroke-width="3"/>
<line x1="106.7" y1="347.1" x2="138.3" y2="367.7" opacity="1.0" stroke="rgb(0,0,0)"  stroke-width="3"/>
<line x1="138.3" y1="367.7" x2="171.9" y2="350.6" opacity="1.0" stroke="rgb(0,0,0)"  stroke-width="3"/>
<line x1="140.4" y1="358.5" x2="163.3" y2="346.9" opacity="1.0" stroke="rgb(0,0,0)"  stroke-width="3"/>
<line x1="171.9" y1="350.6" x2="174.0" y2="313.0" opacity="1.0" stroke="rgb(0,0,0)"  stroke-width="3"/>
<line x1="142.4" y1="292.4" x2="108.8" y2="309.4" opacity="1.0" stroke="rgb(0,0,0)"  stroke-width="3"/>
<line x1="108.8" y1="309.4" x2="106.7" y2="347.1" opacity="1.0" stroke="rgb(0,0,0)"  stroke-width="3"/>
<line x1="115.7" y1="315.8" x2="114.2" y2="341.5" opacity="1.0" stroke="rgb(0,0,0)"  stroke-width="3"/>
<line x1="322.0" y1="291.9" x2="301.4" y2="305.6" opacity="1.0" stroke="rgb(0,0,0)"  stroke-width="3"/>
<line x1="276.3" y1="242.7" x2="307.4" y2="220.7" opacity="1.0" stroke="rgb(0,0,0)"  stroke-width="3"/>
<line x1="307.4" y1="220.7" x2="334.4" y2="247.0" opacity="1.0" stroke="rgb(0,0,0)"  stroke-width="3"/>
<line x1="442.8" y1="308.8" x2="419.3" y2="338.3" opacity="1.0" stroke="rgb(0,0,0)"  stroke-width="3"/>
<line x1="419.3" y1="338.3" x2="382.1" y2="332.8" opacity="1.0" stroke="rgb(0,0,0)"  stroke-width="3"/>
<line x1="414.5" y1="330.3" x2="389.0" y2="326.6" opacity="1.0" stroke="rgb(0,0,0)"  stroke-width="3"/>
<line x1="382.1" y1="332.8" x2="368.2" y2="297.8" opacity="1.0" stroke="rgb(0,0,0)"  stroke-width="3"/>
<line x1="391.6" y1="268.2" x2="428.9" y2="273.7" opacity="1.0" stroke="rgb(0,0,0)"  stroke-width="3"/>
<line x1="428.9" y1="273.7" x2="442.8" y2="308.8" opacity="1.0" stroke="rgb(0,0,0)"  stroke-width="3"/>
<line x1="424.4" y1="282.0" x2="433.8" y2="305.9" opacity="1.0" stroke="rgb(0,0,0)"  stroke-width="3"/>
<line x1="353.1" y1="174.0" x2="316.8" y2="184.1" opacity="1.0" stroke="rgb(0,0,0)"  stroke-width="3"/>
<line x1="316.8" y1="184.1" x2="307.4" y2="220.7" opacity="1.0" stroke="rgb(0,0,0)"  stroke-width="3"/>
<line x1="322.3" y1="191.7" x2="315.9" y2="216.6" opacity="1.0" stroke="rgb(0,0,0)"  stroke-width="3"/>
<line x1="370.7" y1="236.9" x2="380.0" y2="200.3" opacity="1.0" stroke="rgb(0,0,0)"  stroke-width="3"/>
<line x1="471.5" y1="134.8" x2="436.2" y2="121.6" opacity="1.0" stroke="rgb(0,0,0)"  stroke-width="3"/>
<line x1="463.4" y1="139.4" x2="439.3" y2="130.5" opacity="1.0" stroke="rgb(0,0,0)"  stroke-width="3"/>
<line x1="436.2" y1="121.6" x2="407.1" y2="145.7" opacity="1.0" stroke="rgb(0,0,0)"  stroke-width="3"/>
<line x1="413.4" y1="182.9" x2="448.8" y2="196.0" opacity="1.0" stroke="rgb(0,0,0)"  stroke-width="3"/>
<line x1="448.8" y1="196.0" x2="477.8" y2="171.9" opacity="1.0" stroke="rgb(0,0,0)"  stroke-width="3"/>
<line x1="448.8" y1="186.6" x2="468.6" y2="170.2" opacity="1.0" stroke="rgb(0,0,0)"  stroke-width="3"/>
<line x1="477.8" y1="171.9" x2="471.5" y2="134.8" opacity="1.0" stroke="rgb(0,0,0)"  stroke-width="3"/>
<line x1="152.3" y1="256.0" x2="131.8" y2="224.3" opacity="1.0" stroke="rgb(0,0,0)"  stroke-width="3"/>
<line x1="131.8" y1="224.3" x2="149.0" y2="190.8" opacity="1.0" stroke="rgb(0,0,0)"  stroke-width="3"/>
<line x1="141.0" y1="222.3" x2="152.7" y2="199.4" opacity="1.0" stroke="rgb(0,0,0)"  stroke-width="3"/>
<line x1="149.0" y1="190.8" x2="186.7" y2="188.9" opacity="1.0" stroke="rgb(0,0,0)"  stroke-width="3"/>
<line x1="186.7" y1="188.9" x2="207.1" y2="220.6" opacity="1.0" stroke="rgb(0,0,0)"  stroke-width="3"/>
<line x1="183.9" y1="197.9" x2="197.8" y2="219.4" opacity="1.0" stroke="rgb(0,0,0)"  stroke-width="3"/>
<line x1="106.6" y1="534.2" x2="139.3" y2="553.0" opacity="1.0" stroke="rgb(0,0,0)"  stroke-width="3"/>
<line x1="115.4" y1="530.9" x2="137.7" y2="543.7" opacity="1.0" stroke="rgb(0,0,0)"  stroke-width="3"/>
<line x1="139.3" y1="553.0" x2="171.9" y2="534.0" opacity="1.0" stroke="rgb(0,0,0)"  stroke-width="3"/>
<line x1="171.9" y1="534.0" x2="171.8" y2="496.3" opacity="1.0" stroke="rgb(0,0,0)"  stroke-width="3"/>
<line x1="164.7" y1="528.0" x2="164.6" y2="502.3" opacity="1.0" stroke="rgb(0,0,0)"  stroke-width="3"/>
<line x1="171.8" y1="496.3" x2="139.1" y2="477.6" opacity="1.0" stroke="rgb(0,0,0)"  stroke-width="3"/>
<line x1="139.1" y1="477.6" x2="106.5" y2="496.5" opacity="1.0" stroke="rgb(0,0,0)"  stroke-width="3"/>
<line x1="137.5" y1="486.8" x2="115.3" y2="499.7" opacity="1.0" stroke="rgb(0,0,0)"  stroke-width="3"/>
<line x1="106.5" y1="496.5" x2="106.6" y2="534.2" opacity="1.0" stroke="rgb(0,0,0)"  stroke-width="3"/>
<line x1="302.4" y1="495.9" x2="269.7" y2="477.2" opacity="1.0" stroke="rgb(0,0,0)"  stroke-width="3"/>
<line x1="293.6" y1="499.2" x2="271.3" y2="486.4" opacity="1.0" stroke="rgb(0,0,0)"  stroke-width="3"/>
<line x1="269.7" y1="477.2" x2="237.1" y2="496.1" opacity="1.0" stroke="rgb(0,0,0)"  stroke-width="3"/>
<line x1="237.1" y1="496.1" x2="237.2" y2="533.8" opacity="1.0" stroke="rgb(0,0,0)"  stroke-width="3"/>
<line x1="244.3" y1="502.1" x2="244.4" y2="527.8" opacity="1.0" stroke="rgb(0,0,0)"  stroke-width="3"/>
<line x1="237.2" y1="533.8" x2="269.9" y2="552.6" opacity="1.0" stroke="rgb(0,0,0)"  stroke-width="3"/>
<line x1="269.9" y1="552.6" x2="302.5" y2="533.6" opacity="1.0" stroke="rgb(0,0,0)"  stroke-width="3"/>
<line x1="271.5" y1="543.3" x2="293.7" y2="530.4" opacity="1.0" stroke="rgb(0,0,0)"  stroke-width="3"/>
<line x1="302.5" y1="533.6" x2="302.4" y2="495.9" opacity="1.0" stroke="rgb(0,0,0)"  stroke-width="3"/>
<line x1="372.5" y1="75.0" x2="355.1" y2="41.6" opacity="1.0" stroke="rgb(0,0,0)"  stroke-width="3"/>
<line x1="355.1" y1="41.6" x2="317.4" y2="40.0" opacity="1.0" stroke="rgb(0,0,0)"  stroke-width="3"/>
<line x1="348.8" y1="48.5" x2="323.1" y2="47.4" opacity="1.0" stroke="rgb(0,0,0)"  stroke-width="3"/>
<line x1="317.4" y1="40.0" x2="297.2" y2="71.8" opacity="1.0" stroke="rgb(0,0,0)"  stroke-width="3"/>
<line x1="297.2" y1="71.8" x2="314.7" y2="105.2" opacity="1.0" stroke="rgb(0,0,0)"  stroke-width="3"/>
<line x1="306.4" y1="73.8" x2="318.3" y2="96.6" opacity="1.0" stroke="rgb(0,0,0)"  stroke-width="3"/>
<line x1="314.7" y1="105.2" x2="352.4" y2="106.8" opacity="1.0" stroke="rgb(0,0,0)"  stroke-width="3"/>
<line x1="352.4" y1="106.8" x2="372.5" y2="75.0" opacity="1.0" stroke="rgb(0,0,0)"  stroke-width="3"/>
<line x1="349.5" y1="97.9" x2="363.2" y2="76.2" opacity="1.0" stroke="rgb(0,0,0)"  stroke-width="3"/>
<line x1="368.0" y1="495.3" x2="400.3" y2="477.7" opacity="1.0" stroke="rgb(0,0,0)"  stroke-width="3"/>
<line x1="400.3" y1="477.7" x2="400.7" y2="440.0" opacity="1.0" stroke="rgb(0,0,0)"  stroke-width="3"/>
<line x1="393.1" y1="471.6" x2="393.4" y2="445.9" opacity="1.0" stroke="rgb(0,0,0)"  stroke-width="3"/>
<line x1="400.7" y1="440.0" x2="368.7" y2="421.7" opacity="1.0" stroke="rgb(0,0,0)"  stroke-width="3"/>
<line x1="368.7" y1="421.7" x2="335.4" y2="439.3" opacity="1.0" stroke="rgb(0,0,0)"  stroke-width="3"/>
<line x1="366.8" y1="430.8" x2="344.1" y2="442.8" opacity="1.0" stroke="rgb(0,0,0)"  stroke-width="3"/>
<line x1="335.4" y1="439.3" x2="335.0" y2="477.0" opacity="1.0" stroke="rgb(0,0,0)"  stroke-width="3"/>
<line x1="335.0" y1="477.0" x2="368.0" y2="495.3" opacity="1.0" stroke="rgb(0,0,0)"  stroke-width="3"/>
<line x1="343.7" y1="473.6" x2="366.2" y2="486.1" opacity="1.0" stroke="rgb(0,0,0)"  stroke-width="3"/>
<line x1="431.8" y1="532.8" x2="432.2" y2="496.0" opacity="1.0" stroke="rgb(0,0,0)"  stroke-width="3"/>
<line x1="424.7" y1="526.7" x2="425.0" y2="501.9" opacity="1.0" stroke="rgb(0,0,0)"  stroke-width="3"/>
<line x1="432.2" y1="496.0" x2="400.3" y2="477.7" opacity="1.0" stroke="rgb(0,0,0)"  stroke-width="3"/>
<line x1="368.0" y1="495.3" x2="367.6" y2="532.1" opacity="1.0" stroke="rgb(0,0,0)"  stroke-width="3"/>
<line x1="367.6" y1="532.1" x2="399.5" y2="551.3" opacity="1.0" stroke="rgb(0,0,0)"  stroke-width="3"/>
<line x1="376.4" y1="529.0" x2="398.1" y2="542.0" opacity="1.0" stroke="rgb(0,0,0)"  stroke-width="3"/>
<line x1="399.5" y1="551.3" x2="431.8" y2="532.8" opacity="1.0" stroke="rgb(0,0,0)"  stroke-width="3"/>
<line x1="302.8" y1="383.3" x2="302.4" y2="421.0" opacity="1.0" stroke="rgb(0,0,0)"  stroke-width="3"/>
<line x1="310.0" y1="389.3" x2="309.7" y2="415.0" opacity="1.0" stroke="rgb(0,0,0)"  stroke-width="3"/>
<line x1="302.4" y1="421.0" x2="335.4" y2="439.3" opacity="1.0" stroke="rgb(0,0,0)"  stroke-width="3"/>
<line x1="368.7" y1="421.7" x2="369.1" y2="384.0" opacity="1.0" stroke="rgb(0,0,0)"  stroke-width="3"/>
<line x1="369.1" y1="384.0" x2="336.2" y2="363.9" opacity="1.0" stroke="rgb(0,0,0)"  stroke-width="3"/>
<line x1="360.3" y1="387.0" x2="337.6" y2="373.2" opacity="1.0" stroke="rgb(0,0,0)"  stroke-width="3"/>
<line x1="336.2" y1="363.9" x2="302.8" y2="383.3" opacity="1.0" stroke="rgb(0,0,0)"  stroke-width="3"/>
<line x1="466.1" y1="440.0" x2="498.7" y2="421.9" opacity="1.0" stroke="rgb(0,0,0)"  stroke-width="3"/>
<line x1="498.7" y1="421.9" x2="499.1" y2="384.2" opacity="1.0" stroke="rgb(0,0,0)"  stroke-width="3"/>
<line x1="491.6" y1="415.9" x2="491.8" y2="390.2" opacity="1.0" stroke="rgb(0,0,0)"  stroke-width="3"/>
<line x1="499.1" y1="384.2" x2="466.9" y2="365.5" opacity="1.0" stroke="rgb(0,0,0)"  stroke-width="3"/>
<line x1="466.9" y1="365.5" x2="433.8" y2="383.5" opacity="1.0" stroke="rgb(0,0,0)"  stroke-width="3"/>
<line x1="465.1" y1="374.7" x2="442.5" y2="387.0" opacity="1.0" stroke="rgb(0,0,0)"  stroke-width="3"/>
<line x1="433.8" y1="383.5" x2="433.4" y2="421.2" opacity="1.0" stroke="rgb(0,0,0)"  stroke-width="3"/>
<line x1="433.4" y1="421.2" x2="466.1" y2="440.0" opacity="1.0" stroke="rgb(0,0,0)"  stroke-width="3"/>
<line x1="442.2" y1="418.0" x2="464.5" y2="430.7" opacity="1.0" stroke="rgb(0,0,0)"  stroke-width="3"/>
<line x1="171.9" y1="534.0" x2="237.2" y2="533.8" opacity="1.0" stroke="rgb(0,0,0)"  stroke-width="3"/>
<line x1="237.1" y1="496.1" x2="204.3" y2="458.5" opacity="1.0" stroke="rgb(0,0,0)"  stroke-width="3"/>
<line x1="204.3" y1="458.5" x2="171.8" y2="496.3" opacity="1.0" stroke="rgb(0,0,0)"  stroke-width="3"/>
<line x1="171.9" y1="350.6" x2="204.3" y2="458.5" opacity="1.0" stroke="rgb(0,0,0)"  stroke-width="3"/>
<line x1="204.3" y1="458.5" x2="237.5" y2="345.6" opacity="1.0" stroke="rgb(0,0,0)"  stroke-width="3"/>
<text x="363.839711" y="148.201483" fill="rgb(12,12,255)" stroke-width="0" font-weight="bold" font-size="25.92" >N</text>
<text x="326.817392" y="292.681207" fill="rgb(12,12,255)" stroke-width="0" font-weight="bold" font-size="25.92" >N</text>
<text x="197.358867" y="297.357247" fill="rgb(12,12,255)" stroke-width="0" font-weight="bold" font-size="25.92" >N</text>
<text x="259.734794" y="258.276508" fill="rgb(255,181,181)" stroke-width="0" font-weight="bold" font-size="25.92" >B</text>
</svg>
</g>
</svg>
