<?xml version="1.0"?>
<svg version="1.1" id="topsvg"
xmlns="http://www.w3.org/2000/svg" xmlns:xlink="http://www.w3.org/1999/xlink"
xmlns:cml="http://www.xml-cml.org/schema" x="0" y="0" width="200px" height="200px" viewBox="0 0 100 100">
<title>GD177.sdf - Open Babel Depiction</title>
<rect x="0" y="0" width="100" height="100" fill="white"/>
<g transform="translate(0,0)">
<svg width="100" height="100" x="0" y="0" viewBox="0 0 583.522 587.712"
font-family="sans-serif" stroke="rgb(0,0,0)" stroke-width="3"  stroke-linecap="round">
<line x1="304.5" y1="367.4" x2="304.5" y2="468.9" opacity="1.0" stroke="rgb(0,0,0)"  stroke-width="3"/>
<line x1="338.6" y1="488.6" x2="372.8" y2="468.9" opacity="1.0" stroke="rgb(0,0,0)"  stroke-width="3"/>
<line x1="441.1" y1="429.4" x2="475.2" y2="409.7" opacity="1.0" stroke="rgb(0,0,0)"  stroke-width="3"/>
<line x1="379.3" y1="123.4" x2="398.6" y2="105.3" opacity="1.0" stroke="rgb(0,0,0)"  stroke-width="3"/>
<line x1="233.2" y1="171.4" x2="219.7" y2="134.3" opacity="1.0" stroke="rgb(0,0,0)"  stroke-width="3"/>
<line x1="219.7" y1="134.3" x2="180.5" y2="129.7" opacity="1.0" stroke="rgb(0,0,0)"  stroke-width="3"/>
<line x1="219.7" y1="134.3" x2="202.0" y2="99.1" opacity="1.0" stroke="rgb(0,0,0)"  stroke-width="3"/>
<line x1="219.7" y1="134.3" x2="239.4" y2="100.2" opacity="1.0" stroke="rgb(0,0,0)"  stroke-width="3"/>
<line x1="117.6" y1="297.7" x2="78.2" y2="297.7" opacity="1.0" stroke="rgb(0,0,0)"  stroke-width="3"/>
<line x1="78.2" y1="297.7" x2="59.2" y2="331.5" opacity="1.0" stroke="rgb(0,0,0)"  stroke-width="3"/>
<line x1="78.2" y1="297.7" x2="40.0" y2="287.5" opacity="1.0" stroke="rgb(0,0,0)"  stroke-width="3"/>
<line x1="78.2" y1="297.7" x2="78.2" y2="258.1" opacity="1.0" stroke="rgb(0,0,0)"  stroke-width="3"/>
<line x1="270.3" y1="488.6" x2="236.1" y2="468.8" opacity="1.0" stroke="rgb(0,0,0)"  stroke-width="3"/>
<line x1="133.3" y1="409.4" x2="99.0" y2="389.6" opacity="1.0" stroke="rgb(0,0,0)"  stroke-width="3"/>
<line x1="133.3" y1="409.4" x2="161.3" y2="381.5" opacity="1.0" stroke="rgb(0,0,0)"  stroke-width="3"/>
<line x1="133.3" y1="488.6" x2="105.3" y2="516.5" opacity="1.0" stroke="rgb(0,0,0)"  stroke-width="3"/>
<line x1="133.3" y1="488.6" x2="161.3" y2="516.5" opacity="1.0" stroke="rgb(0,0,0)"  stroke-width="3"/>
<line x1="176.1" y1="262.4" x2="200.0" y2="231.1" opacity="1.0" stroke="rgb(0,0,0)"  stroke-width="3"/>
<line x1="200.0" y1="231.1" x2="234.5" y2="250.2" opacity="1.0" stroke="rgb(0,0,0)"  stroke-width="3"/>
<line x1="234.5" y1="250.2" x2="235.1" y2="276.6" opacity="1.0" stroke="rgb(0,0,0)"  stroke-width="3"/>
<line x1="222.6" y1="291.8" x2="196.5" y2="296.2" opacity="1.0" stroke="rgb(0,0,0)"  stroke-width="3"/>
<line x1="196.5" y1="296.2" x2="176.1" y2="262.4" opacity="1.0" stroke="rgb(0,0,0)"  stroke-width="3"/>
<line x1="199.6" y1="287.3" x2="185.4" y2="263.8" opacity="1.0" stroke="rgb(0,0,0)"  stroke-width="3"/>
<line x1="430.6" y1="262.1" x2="403.7" y2="233.3" opacity="1.0" stroke="rgb(0,0,0)"  stroke-width="3"/>
<line x1="403.7" y1="233.3" x2="368.0" y2="250.0" opacity="1.0" stroke="rgb(0,0,0)"  stroke-width="3"/>
<line x1="401.3" y1="242.3" x2="376.5" y2="254.0" opacity="1.0" stroke="rgb(0,0,0)"  stroke-width="3"/>
<line x1="368.0" y1="250.0" x2="371.3" y2="276.2" opacity="1.0" stroke="rgb(0,0,0)"  stroke-width="3"/>
<line x1="385.6" y1="291.6" x2="411.6" y2="296.6" opacity="1.0" stroke="rgb(0,0,0)"  stroke-width="3"/>
<line x1="411.6" y1="296.6" x2="430.6" y2="262.1" opacity="1.0" stroke="rgb(0,0,0)"  stroke-width="3"/>
<line x1="408.2" y1="287.8" x2="421.4" y2="263.8" opacity="1.0" stroke="rgb(0,0,0)"  stroke-width="3"/>
<line x1="331.1" y1="124.8" x2="357.1" y2="129.8" opacity="1.0" stroke="rgb(0,0,0)"  stroke-width="3"/>
<line x1="371.4" y1="145.2" x2="374.7" y2="171.4" opacity="1.0" stroke="rgb(0,0,0)"  stroke-width="3"/>
<line x1="374.7" y1="171.4" x2="339.0" y2="188.1" opacity="1.0" stroke="rgb(0,0,0)"  stroke-width="3"/>
<line x1="339.0" y1="188.1" x2="312.1" y2="159.4" opacity="1.0" stroke="rgb(0,0,0)"  stroke-width="3"/>
<line x1="312.1" y1="159.4" x2="331.1" y2="124.8" opacity="1.0" stroke="rgb(0,0,0)"  stroke-width="3"/>
<line x1="321.3" y1="157.6" x2="334.5" y2="133.6" opacity="1.0" stroke="rgb(0,0,0)"  stroke-width="3"/>
<line x1="270.2" y1="347.9" x2="304.5" y2="367.4" opacity="1.0" stroke="rgb(0,0,0)"  stroke-width="3"/>
<line x1="304.5" y1="367.4" x2="338.5" y2="347.5" opacity="1.0" stroke="rgb(0,0,0)"  stroke-width="3"/>
<line x1="306.0" y1="358.2" x2="329.7" y2="344.3" opacity="1.0" stroke="rgb(0,0,0)"  stroke-width="3"/>
<line x1="338.5" y1="347.5" x2="338.3" y2="308.1" opacity="1.0" stroke="rgb(0,0,0)"  stroke-width="3"/>
<line x1="338.3" y1="308.1" x2="304.0" y2="288.6" opacity="1.0" stroke="rgb(0,0,0)"  stroke-width="3"/>
<line x1="329.5" y1="311.4" x2="305.7" y2="297.8" opacity="1.0" stroke="rgb(0,0,0)"  stroke-width="3"/>
<line x1="304.0" y1="288.6" x2="270.0" y2="308.5" opacity="1.0" stroke="rgb(0,0,0)"  stroke-width="3"/>
<line x1="270.0" y1="308.5" x2="270.2" y2="347.9" opacity="1.0" stroke="rgb(0,0,0)"  stroke-width="3"/>
<line x1="277.2" y1="314.4" x2="277.4" y2="341.9" opacity="1.0" stroke="rgb(0,0,0)"  stroke-width="3"/>
<line x1="303.2" y1="262.2" x2="304.0" y2="288.6" opacity="1.0" stroke="rgb(0,0,0)"  stroke-width="3"/>
<line x1="270.0" y1="308.5" x2="246.8" y2="295.9" opacity="1.0" stroke="rgb(0,0,0)"  stroke-width="3"/>
<line x1="234.5" y1="250.2" x2="268.3" y2="229.9" opacity="1.0" stroke="rgb(0,0,0)"  stroke-width="3"/>
<line x1="243.4" y1="253.3" x2="266.9" y2="239.2" opacity="1.0" stroke="rgb(0,0,0)"  stroke-width="3"/>
<line x1="268.3" y1="229.9" x2="291.4" y2="242.8" opacity="1.0" stroke="rgb(0,0,0)"  stroke-width="3"/>
<line x1="368.0" y1="250.0" x2="335.6" y2="227.4" opacity="1.0" stroke="rgb(0,0,0)"  stroke-width="3"/>
<line x1="335.6" y1="227.4" x2="313.6" y2="242.0" opacity="1.0" stroke="rgb(0,0,0)"  stroke-width="3"/>
<line x1="338.3" y1="308.1" x2="361.5" y2="295.4" opacity="1.0" stroke="rgb(0,0,0)"  stroke-width="3"/>
<line x1="138.0" y1="331.5" x2="177.4" y2="330.7" opacity="1.0" stroke="rgb(0,0,0)"  stroke-width="3"/>
<line x1="143.9" y1="324.2" x2="171.3" y2="323.6" opacity="1.0" stroke="rgb(0,0,0)"  stroke-width="3"/>
<line x1="177.4" y1="330.7" x2="196.5" y2="296.2" opacity="1.0" stroke="rgb(0,0,0)"  stroke-width="3"/>
<line x1="176.1" y1="262.4" x2="136.7" y2="263.2" opacity="1.0" stroke="rgb(0,0,0)"  stroke-width="3"/>
<line x1="136.7" y1="263.2" x2="117.6" y2="297.7" opacity="1.0" stroke="rgb(0,0,0)"  stroke-width="3"/>
<line x1="140.1" y1="271.9" x2="126.8" y2="295.9" opacity="1.0" stroke="rgb(0,0,0)"  stroke-width="3"/>
<line x1="117.6" y1="297.7" x2="138.0" y2="331.5" opacity="1.0" stroke="rgb(0,0,0)"  stroke-width="3"/>
<line x1="490.4" y1="295.1" x2="470.1" y2="261.3" opacity="1.0" stroke="rgb(0,0,0)"  stroke-width="3"/>
<line x1="481.2" y1="293.6" x2="467.0" y2="270.1" opacity="1.0" stroke="rgb(0,0,0)"  stroke-width="3"/>
<line x1="470.1" y1="261.3" x2="430.6" y2="262.1" opacity="1.0" stroke="rgb(0,0,0)"  stroke-width="3"/>
<line x1="411.6" y1="296.6" x2="432.0" y2="330.3" opacity="1.0" stroke="rgb(0,0,0)"  stroke-width="3"/>
<line x1="432.0" y1="330.3" x2="471.4" y2="329.6" opacity="1.0" stroke="rgb(0,0,0)"  stroke-width="3"/>
<line x1="437.8" y1="323.0" x2="465.2" y2="322.5" opacity="1.0" stroke="rgb(0,0,0)"  stroke-width="3"/>
<line x1="471.4" y1="329.6" x2="490.4" y2="295.1" opacity="1.0" stroke="rgb(0,0,0)"  stroke-width="3"/>
<line x1="339.0" y1="188.1" x2="335.6" y2="227.4" opacity="1.0" stroke="rgb(0,0,0)"  stroke-width="3"/>
<line x1="345.7" y1="194.7" x2="343.3" y2="222.1" opacity="1.0" stroke="rgb(0,0,0)"  stroke-width="3"/>
<line x1="403.7" y1="233.3" x2="407.1" y2="194.0" opacity="1.0" stroke="rgb(0,0,0)"  stroke-width="3"/>
<line x1="407.1" y1="194.0" x2="374.7" y2="171.4" opacity="1.0" stroke="rgb(0,0,0)"  stroke-width="3"/>
<line x1="398.0" y1="196.5" x2="375.5" y2="180.8" opacity="1.0" stroke="rgb(0,0,0)"  stroke-width="3"/>
<line x1="200.0" y1="231.1" x2="199.4" y2="191.7" opacity="1.0" stroke="rgb(0,0,0)"  stroke-width="3"/>
<line x1="207.1" y1="225.0" x2="206.7" y2="197.5" opacity="1.0" stroke="rgb(0,0,0)"  stroke-width="3"/>
<line x1="199.4" y1="191.7" x2="233.2" y2="171.4" opacity="1.0" stroke="rgb(0,0,0)"  stroke-width="3"/>
<line x1="233.2" y1="171.4" x2="267.7" y2="190.5" opacity="1.0" stroke="rgb(0,0,0)"  stroke-width="3"/>
<line x1="234.9" y1="180.6" x2="258.9" y2="193.9" opacity="1.0" stroke="rgb(0,0,0)"  stroke-width="3"/>
<line x1="267.7" y1="190.5" x2="268.3" y2="229.9" opacity="1.0" stroke="rgb(0,0,0)"  stroke-width="3"/>
<line x1="252.3" y1="126.4" x2="272.6" y2="160.1" opacity="1.0" stroke="rgb(0,0,0)"  stroke-width="3"/>
<line x1="261.5" y1="127.8" x2="275.7" y2="151.3" opacity="1.0" stroke="rgb(0,0,0)"  stroke-width="3"/>
<line x1="272.6" y1="160.1" x2="312.1" y2="159.4" opacity="1.0" stroke="rgb(0,0,0)"  stroke-width="3"/>
<line x1="331.1" y1="124.8" x2="310.7" y2="91.1" opacity="1.0" stroke="rgb(0,0,0)"  stroke-width="3"/>
<line x1="310.7" y1="91.1" x2="271.3" y2="91.8" opacity="1.0" stroke="rgb(0,0,0)"  stroke-width="3"/>
<line x1="304.9" y1="98.4" x2="277.5" y2="98.9" opacity="1.0" stroke="rgb(0,0,0)"  stroke-width="3"/>
<line x1="271.3" y1="91.8" x2="252.3" y2="126.4" opacity="1.0" stroke="rgb(0,0,0)"  stroke-width="3"/>
<line x1="270.3" y1="488.6" x2="270.3" y2="528.0" opacity="1.0" stroke="rgb(0,0,0)"  stroke-width="3"/>
<line x1="270.3" y1="528.0" x2="304.5" y2="547.7" opacity="1.0" stroke="rgb(0,0,0)"  stroke-width="3"/>
<line x1="279.1" y1="524.8" x2="302.9" y2="538.5" opacity="1.0" stroke="rgb(0,0,0)"  stroke-width="3"/>
<line x1="304.5" y1="547.7" x2="338.6" y2="528.0" opacity="1.0" stroke="rgb(0,0,0)"  stroke-width="3"/>
<line x1="338.6" y1="528.0" x2="338.6" y2="488.6" opacity="1.0" stroke="rgb(0,0,0)"  stroke-width="3"/>
<line x1="331.4" y1="522.0" x2="331.4" y2="494.6" opacity="1.0" stroke="rgb(0,0,0)"  stroke-width="3"/>
<line x1="338.6" y1="488.6" x2="304.5" y2="468.9" opacity="1.0" stroke="rgb(0,0,0)"  stroke-width="3"/>
<line x1="304.5" y1="468.9" x2="270.3" y2="488.6" opacity="1.0" stroke="rgb(0,0,0)"  stroke-width="3"/>
<line x1="302.9" y1="478.1" x2="279.1" y2="491.8" opacity="1.0" stroke="rgb(0,0,0)"  stroke-width="3"/>
<line x1="406.9" y1="488.6" x2="441.1" y2="468.9" opacity="1.0" stroke="rgb(0,0,0)"  stroke-width="3"/>
<line x1="441.1" y1="468.9" x2="441.1" y2="429.4" opacity="1.0" stroke="rgb(0,0,0)"  stroke-width="3"/>
<line x1="433.9" y1="462.9" x2="433.9" y2="435.4" opacity="1.0" stroke="rgb(0,0,0)"  stroke-width="3"/>
<line x1="441.1" y1="429.4" x2="406.9" y2="409.7" opacity="1.0" stroke="rgb(0,0,0)"  stroke-width="3"/>
<line x1="406.9" y1="409.7" x2="372.8" y2="429.4" opacity="1.0" stroke="rgb(0,0,0)"  stroke-width="3"/>
<line x1="405.3" y1="418.9" x2="381.6" y2="432.7" opacity="1.0" stroke="rgb(0,0,0)"  stroke-width="3"/>
<line x1="372.8" y1="429.4" x2="372.8" y2="468.9" opacity="1.0" stroke="rgb(0,0,0)"  stroke-width="3"/>
<line x1="372.8" y1="468.9" x2="406.9" y2="488.6" opacity="1.0" stroke="rgb(0,0,0)"  stroke-width="3"/>
<line x1="381.6" y1="465.6" x2="405.3" y2="479.3" opacity="1.0" stroke="rgb(0,0,0)"  stroke-width="3"/>
<line x1="338.6" y1="370.3" x2="338.6" y2="409.7" opacity="1.0" stroke="rgb(0,0,0)"  stroke-width="3"/>
<line x1="345.8" y1="376.3" x2="345.8" y2="403.7" opacity="1.0" stroke="rgb(0,0,0)"  stroke-width="3"/>
<line x1="338.6" y1="409.7" x2="372.8" y2="429.4" opacity="1.0" stroke="rgb(0,0,0)"  stroke-width="3"/>
<line x1="406.9" y1="409.7" x2="406.9" y2="370.3" opacity="1.0" stroke="rgb(0,0,0)"  stroke-width="3"/>
<line x1="406.9" y1="370.3" x2="372.8" y2="350.6" opacity="1.0" stroke="rgb(0,0,0)"  stroke-width="3"/>
<line x1="398.1" y1="373.5" x2="374.4" y2="359.8" opacity="1.0" stroke="rgb(0,0,0)"  stroke-width="3"/>
<line x1="372.8" y1="350.6" x2="338.6" y2="370.3" opacity="1.0" stroke="rgb(0,0,0)"  stroke-width="3"/>
<line x1="475.2" y1="528.0" x2="475.2" y2="488.6" opacity="1.0" stroke="rgb(0,0,0)"  stroke-width="3"/>
<line x1="468.0" y1="522.0" x2="468.0" y2="494.6" opacity="1.0" stroke="rgb(0,0,0)"  stroke-width="3"/>
<line x1="475.2" y1="488.6" x2="441.1" y2="468.9" opacity="1.0" stroke="rgb(0,0,0)"  stroke-width="3"/>
<line x1="406.9" y1="488.6" x2="406.9" y2="528.0" opacity="1.0" stroke="rgb(0,0,0)"  stroke-width="3"/>
<line x1="406.9" y1="528.0" x2="441.1" y2="547.7" opacity="1.0" stroke="rgb(0,0,0)"  stroke-width="3"/>
<line x1="415.7" y1="524.8" x2="439.5" y2="538.5" opacity="1.0" stroke="rgb(0,0,0)"  stroke-width="3"/>
<line x1="441.1" y1="547.7" x2="475.2" y2="528.0" opacity="1.0" stroke="rgb(0,0,0)"  stroke-width="3"/>
<line x1="509.4" y1="429.4" x2="543.5" y2="409.7" opacity="1.0" stroke="rgb(0,0,0)"  stroke-width="3"/>
<line x1="543.5" y1="409.7" x2="543.5" y2="370.3" opacity="1.0" stroke="rgb(0,0,0)"  stroke-width="3"/>
<line x1="536.3" y1="403.7" x2="536.3" y2="376.3" opacity="1.0" stroke="rgb(0,0,0)"  stroke-width="3"/>
<line x1="543.5" y1="370.3" x2="509.4" y2="350.6" opacity="1.0" stroke="rgb(0,0,0)"  stroke-width="3"/>
<line x1="509.4" y1="350.6" x2="475.2" y2="370.3" opacity="1.0" stroke="rgb(0,0,0)"  stroke-width="3"/>
<line x1="507.8" y1="359.8" x2="484.0" y2="373.5" opacity="1.0" stroke="rgb(0,0,0)"  stroke-width="3"/>
<line x1="475.2" y1="370.3" x2="475.2" y2="409.7" opacity="1.0" stroke="rgb(0,0,0)"  stroke-width="3"/>
<line x1="475.2" y1="409.7" x2="509.4" y2="429.4" opacity="1.0" stroke="rgb(0,0,0)"  stroke-width="3"/>
<line x1="484.0" y1="406.5" x2="507.8" y2="420.2" opacity="1.0" stroke="rgb(0,0,0)"  stroke-width="3"/>
<line x1="436.4" y1="116.8" x2="465.1" y2="89.9" opacity="1.0" stroke="rgb(0,0,0)"  stroke-width="3"/>
<line x1="465.1" y1="89.9" x2="456.2" y2="51.5" opacity="1.0" stroke="rgb(0,0,0)"  stroke-width="3"/>
<line x1="456.8" y1="85.7" x2="450.6" y2="58.9" opacity="1.0" stroke="rgb(0,0,0)"  stroke-width="3"/>
<line x1="456.2" y1="51.5" x2="418.5" y2="40.0" opacity="1.0" stroke="rgb(0,0,0)"  stroke-width="3"/>
<line x1="418.5" y1="40.0" x2="389.7" y2="66.9" opacity="1.0" stroke="rgb(0,0,0)"  stroke-width="3"/>
<line x1="419.0" y1="49.4" x2="399.0" y2="68.1" opacity="1.0" stroke="rgb(0,0,0)"  stroke-width="3"/>
<line x1="389.7" y1="66.9" x2="398.6" y2="105.3" opacity="1.0" stroke="rgb(0,0,0)"  stroke-width="3"/>
<line x1="398.6" y1="105.3" x2="436.4" y2="116.8" opacity="1.0" stroke="rgb(0,0,0)"  stroke-width="3"/>
<line x1="406.5" y1="100.2" x2="432.7" y2="108.2" opacity="1.0" stroke="rgb(0,0,0)"  stroke-width="3"/>
<line x1="236.1" y1="429.2" x2="201.8" y2="409.4" opacity="1.0" stroke="rgb(0,0,0)"  stroke-width="3"/>
<line x1="201.8" y1="409.4" x2="167.5" y2="429.2" opacity="1.0" stroke="rgb(0,0,0)"  stroke-width="3"/>
<line x1="200.2" y1="418.7" x2="176.3" y2="432.4" opacity="1.0" stroke="rgb(0,0,0)"  stroke-width="3"/>
<line x1="167.5" y1="429.2" x2="167.5" y2="468.8" opacity="1.0" stroke="rgb(0,0,0)"  stroke-width="3"/>
<line x1="167.5" y1="468.8" x2="201.8" y2="488.6" opacity="1.0" stroke="rgb(0,0,0)"  stroke-width="3"/>
<line x1="176.3" y1="465.5" x2="200.2" y2="479.3" opacity="1.0" stroke="rgb(0,0,0)"  stroke-width="3"/>
<line x1="201.8" y1="488.6" x2="236.1" y2="468.8" opacity="1.0" stroke="rgb(0,0,0)"  stroke-width="3"/>
<line x1="236.1" y1="468.8" x2="236.1" y2="429.2" opacity="1.0" stroke="rgb(0,0,0)"  stroke-width="3"/>
<line x1="228.9" y1="462.8" x2="228.9" y2="435.2" opacity="1.0" stroke="rgb(0,0,0)"  stroke-width="3"/>
<line x1="99.0" y1="468.8" x2="133.3" y2="488.6" opacity="1.0" stroke="rgb(0,0,0)"  stroke-width="3"/>
<line x1="133.3" y1="488.6" x2="167.5" y2="468.8" opacity="1.0" stroke="rgb(0,0,0)"  stroke-width="3"/>
<line x1="167.5" y1="429.2" x2="133.3" y2="409.4" opacity="1.0" stroke="rgb(0,0,0)"  stroke-width="3"/>
<line x1="133.3" y1="409.4" x2="99.0" y2="429.2" opacity="1.0" stroke="rgb(0,0,0)"  stroke-width="3"/>
<line x1="99.0" y1="429.2" x2="99.0" y2="468.8" opacity="1.0" stroke="rgb(0,0,0)"  stroke-width="3"/>
<text x="363.837637" y="140.292176" fill="rgb(12,12,255)" stroke-width="0" font-weight="bold" font-size="25.92" >N</text>
<text x="366.862587" y="297.120952" fill="rgb(12,12,255)" stroke-width="0" font-weight="bold" font-size="25.92" >N</text>
<text x="229.370595" y="297.635622" fill="rgb(12,12,255)" stroke-width="0" font-weight="bold" font-size="25.92" >N</text>
<text x="296.742555" y="257.166633" fill="rgb(255,181,181)" stroke-width="0" font-weight="bold" font-size="25.92" >B</text>
</svg>
</g>
</svg>
