<?xml version="1.0"?>
<svg version="1.1" id="topsvg"
xmlns="http://www.w3.org/2000/svg" xmlns:xlink="http://www.w3.org/1999/xlink"
xmlns:cml="http://www.xml-cml.org/schema" x="0" y="0" width="200px" height="200px" viewBox="0 0 100 100">
<title>GD189.sdf - Open Babel Depiction</title>
<rect x="0" y="0" width="100" height="100" fill="white"/>
<g transform="translate(0,0)">
<svg width="100" height="100" x="0" y="0" viewBox="0 0 576.347 587.663"
font-family="sans-serif" stroke="rgb(0,0,0)" stroke-width="3"  stroke-linecap="round">
<line x1="73.8" y1="368.7" x2="107.7" y2="349.2" opacity="1.0" stroke="rgb(0,0,0)"  stroke-width="3"/>
<line x1="209.1" y1="173.4" x2="189.6" y2="139.6" opacity="1.0" stroke="rgb(0,0,0)"  stroke-width="3"/>
<line x1="189.6" y1="139.6" x2="170.1" y2="105.8" opacity="1.0" stroke="rgb(0,0,0)"  stroke-width="3"/>
<line x1="189.6" y1="139.6" x2="209.1" y2="105.8" opacity="1.0" stroke="rgb(0,0,0)"  stroke-width="3"/>
<line x1="189.6" y1="139.6" x2="150.5" y2="139.6" opacity="1.0" stroke="rgb(0,0,0)"  stroke-width="3"/>
<line x1="73.8" y1="368.7" x2="40.0" y2="388.2" opacity="1.0" stroke="rgb(0,0,0)"  stroke-width="3"/>
<line x1="73.8" y1="368.7" x2="73.8" y2="407.8" opacity="1.0" stroke="rgb(0,0,0)"  stroke-width="3"/>
<line x1="73.8" y1="368.7" x2="40.0" y2="349.2" opacity="1.0" stroke="rgb(0,0,0)"  stroke-width="3"/>
<line x1="345.0" y1="125.5" x2="362.5" y2="106.2" opacity="1.0" stroke="rgb(0,0,0)"  stroke-width="3"/>
<line x1="307.1" y1="460.6" x2="345.3" y2="452.5" opacity="1.0" stroke="rgb(0,0,0)"  stroke-width="3"/>
<line x1="421.7" y1="436.2" x2="459.9" y2="428.1" opacity="1.0" stroke="rgb(0,0,0)"  stroke-width="3"/>
<line x1="141.5" y1="290.6" x2="175.3" y2="232.0" opacity="1.0" stroke="rgb(0,0,0)"  stroke-width="3"/>
<line x1="175.3" y1="232.0" x2="209.1" y2="251.5" opacity="1.0" stroke="rgb(0,0,0)"  stroke-width="3"/>
<line x1="176.9" y1="241.2" x2="200.3" y2="254.8" opacity="1.0" stroke="rgb(0,0,0)"  stroke-width="3"/>
<line x1="209.1" y1="251.5" x2="209.1" y2="277.6" opacity="1.0" stroke="rgb(0,0,0)"  stroke-width="3"/>
<line x1="197.9" y1="297.1" x2="175.3" y2="310.1" opacity="1.0" stroke="rgb(0,0,0)"  stroke-width="3"/>
<line x1="175.3" y1="310.1" x2="141.5" y2="290.6" opacity="1.0" stroke="rgb(0,0,0)"  stroke-width="3"/>
<line x1="173.7" y1="300.9" x2="150.3" y2="287.4" opacity="1.0" stroke="rgb(0,0,0)"  stroke-width="3"/>
<line x1="402.6" y1="262.6" x2="383.1" y2="296.4" opacity="1.0" stroke="rgb(0,0,0)"  stroke-width="3"/>
<line x1="393.4" y1="264.1" x2="379.8" y2="287.6" opacity="1.0" stroke="rgb(0,0,0)"  stroke-width="3"/>
<line x1="383.1" y1="296.4" x2="357.3" y2="292.5" opacity="1.0" stroke="rgb(0,0,0)"  stroke-width="3"/>
<line x1="344.4" y1="277.6" x2="344.4" y2="251.5" opacity="1.0" stroke="rgb(0,0,0)"  stroke-width="3"/>
<line x1="344.4" y1="251.5" x2="378.3" y2="232.0" opacity="1.0" stroke="rgb(0,0,0)"  stroke-width="3"/>
<line x1="353.2" y1="254.8" x2="376.7" y2="241.2" opacity="1.0" stroke="rgb(0,0,0)"  stroke-width="3"/>
<line x1="378.3" y1="232.0" x2="402.6" y2="262.6" opacity="1.0" stroke="rgb(0,0,0)"  stroke-width="3"/>
<line x1="297.5" y1="131.1" x2="323.4" y2="133.8" opacity="1.0" stroke="rgb(0,0,0)"  stroke-width="3"/>
<line x1="339.0" y1="147.9" x2="344.4" y2="173.4" opacity="1.0" stroke="rgb(0,0,0)"  stroke-width="3"/>
<line x1="344.4" y1="173.4" x2="310.6" y2="192.9" opacity="1.0" stroke="rgb(0,0,0)"  stroke-width="3"/>
<line x1="310.6" y1="192.9" x2="281.6" y2="166.8" opacity="1.0" stroke="rgb(0,0,0)"  stroke-width="3"/>
<line x1="281.6" y1="166.8" x2="297.5" y2="131.1" opacity="1.0" stroke="rgb(0,0,0)"  stroke-width="3"/>
<line x1="290.6" y1="164.2" x2="301.6" y2="139.5" opacity="1.0" stroke="rgb(0,0,0)"  stroke-width="3"/>
<line x1="243.0" y1="349.2" x2="276.8" y2="368.7" opacity="1.0" stroke="rgb(0,0,0)"  stroke-width="3"/>
<line x1="276.8" y1="368.7" x2="310.6" y2="349.2" opacity="1.0" stroke="rgb(0,0,0)"  stroke-width="3"/>
<line x1="278.4" y1="359.5" x2="301.8" y2="345.9" opacity="1.0" stroke="rgb(0,0,0)"  stroke-width="3"/>
<line x1="310.6" y1="349.2" x2="310.6" y2="310.1" opacity="1.0" stroke="rgb(0,0,0)"  stroke-width="3"/>
<line x1="310.6" y1="310.1" x2="276.8" y2="290.6" opacity="1.0" stroke="rgb(0,0,0)"  stroke-width="3"/>
<line x1="301.8" y1="313.3" x2="278.4" y2="299.8" opacity="1.0" stroke="rgb(0,0,0)"  stroke-width="3"/>
<line x1="276.8" y1="290.6" x2="243.0" y2="310.1" opacity="1.0" stroke="rgb(0,0,0)"  stroke-width="3"/>
<line x1="243.0" y1="310.1" x2="243.0" y2="349.2" opacity="1.0" stroke="rgb(0,0,0)"  stroke-width="3"/>
<line x1="250.2" y1="316.1" x2="250.2" y2="343.2" opacity="1.0" stroke="rgb(0,0,0)"  stroke-width="3"/>
<line x1="209.1" y1="251.5" x2="243.0" y2="232.0" opacity="1.0" stroke="rgb(0,0,0)"  stroke-width="3"/>
<line x1="243.0" y1="232.0" x2="265.5" y2="245.0" opacity="1.0" stroke="rgb(0,0,0)"  stroke-width="3"/>
<line x1="276.8" y1="264.5" x2="276.8" y2="290.6" opacity="1.0" stroke="rgb(0,0,0)"  stroke-width="3"/>
<line x1="243.0" y1="310.1" x2="220.4" y2="297.1" opacity="1.0" stroke="rgb(0,0,0)"  stroke-width="3"/>
<line x1="107.7" y1="349.2" x2="141.5" y2="368.7" opacity="1.0" stroke="rgb(0,0,0)"  stroke-width="3"/>
<line x1="141.5" y1="368.7" x2="175.3" y2="349.2" opacity="1.0" stroke="rgb(0,0,0)"  stroke-width="3"/>
<line x1="143.1" y1="359.5" x2="166.5" y2="345.9" opacity="1.0" stroke="rgb(0,0,0)"  stroke-width="3"/>
<line x1="175.3" y1="349.2" x2="175.3" y2="310.1" opacity="1.0" stroke="rgb(0,0,0)"  stroke-width="3"/>
<line x1="141.5" y1="290.6" x2="107.7" y2="310.1" opacity="1.0" stroke="rgb(0,0,0)"  stroke-width="3"/>
<line x1="107.7" y1="310.1" x2="107.7" y2="349.2" opacity="1.0" stroke="rgb(0,0,0)"  stroke-width="3"/>
<line x1="114.9" y1="316.1" x2="114.9" y2="343.2" opacity="1.0" stroke="rgb(0,0,0)"  stroke-width="3"/>
<line x1="333.2" y1="297.1" x2="310.6" y2="310.1" opacity="1.0" stroke="rgb(0,0,0)"  stroke-width="3"/>
<line x1="288.0" y1="245.0" x2="310.6" y2="232.0" opacity="1.0" stroke="rgb(0,0,0)"  stroke-width="3"/>
<line x1="310.6" y1="232.0" x2="344.4" y2="251.5" opacity="1.0" stroke="rgb(0,0,0)"  stroke-width="3"/>
<line x1="461.2" y1="296.4" x2="441.7" y2="330.2" opacity="1.0" stroke="rgb(0,0,0)"  stroke-width="3"/>
<line x1="441.7" y1="330.2" x2="402.6" y2="330.2" opacity="1.0" stroke="rgb(0,0,0)"  stroke-width="3"/>
<line x1="435.7" y1="323.0" x2="408.6" y2="323.0" opacity="1.0" stroke="rgb(0,0,0)"  stroke-width="3"/>
<line x1="402.6" y1="330.2" x2="383.1" y2="296.4" opacity="1.0" stroke="rgb(0,0,0)"  stroke-width="3"/>
<line x1="402.6" y1="262.6" x2="441.7" y2="262.6" opacity="1.0" stroke="rgb(0,0,0)"  stroke-width="3"/>
<line x1="441.7" y1="262.6" x2="461.2" y2="296.4" opacity="1.0" stroke="rgb(0,0,0)"  stroke-width="3"/>
<line x1="438.4" y1="271.3" x2="452.0" y2="294.8" opacity="1.0" stroke="rgb(0,0,0)"  stroke-width="3"/>
<line x1="310.6" y1="192.9" x2="310.6" y2="232.0" opacity="1.0" stroke="rgb(0,0,0)"  stroke-width="3"/>
<line x1="317.8" y1="198.9" x2="317.8" y2="226.0" opacity="1.0" stroke="rgb(0,0,0)"  stroke-width="3"/>
<line x1="378.3" y1="232.0" x2="378.3" y2="192.9" opacity="1.0" stroke="rgb(0,0,0)"  stroke-width="3"/>
<line x1="378.3" y1="192.9" x2="344.4" y2="173.4" opacity="1.0" stroke="rgb(0,0,0)"  stroke-width="3"/>
<line x1="369.5" y1="196.2" x2="346.0" y2="182.6" opacity="1.0" stroke="rgb(0,0,0)"  stroke-width="3"/>
<line x1="175.3" y1="232.0" x2="175.3" y2="192.9" opacity="1.0" stroke="rgb(0,0,0)"  stroke-width="3"/>
<line x1="175.3" y1="192.9" x2="209.1" y2="173.4" opacity="1.0" stroke="rgb(0,0,0)"  stroke-width="3"/>
<line x1="184.1" y1="196.2" x2="207.5" y2="182.6" opacity="1.0" stroke="rgb(0,0,0)"  stroke-width="3"/>
<line x1="209.1" y1="173.4" x2="243.0" y2="192.9" opacity="1.0" stroke="rgb(0,0,0)"  stroke-width="3"/>
<line x1="243.0" y1="192.9" x2="243.0" y2="232.0" opacity="1.0" stroke="rgb(0,0,0)"  stroke-width="3"/>
<line x1="235.8" y1="198.9" x2="235.8" y2="226.0" opacity="1.0" stroke="rgb(0,0,0)"  stroke-width="3"/>
<line x1="127.3" y1="497.7" x2="165.5" y2="505.8" opacity="1.0" stroke="rgb(0,0,0)"  stroke-width="3"/>
<line x1="134.7" y1="491.9" x2="161.1" y2="497.6" opacity="1.0" stroke="rgb(0,0,0)"  stroke-width="3"/>
<line x1="165.5" y1="505.8" x2="191.6" y2="476.8" opacity="1.0" stroke="rgb(0,0,0)"  stroke-width="3"/>
<line x1="191.6" y1="476.8" x2="179.6" y2="439.7" opacity="1.0" stroke="rgb(0,0,0)"  stroke-width="3"/>
<line x1="182.9" y1="473.3" x2="174.6" y2="447.6" opacity="1.0" stroke="rgb(0,0,0)"  stroke-width="3"/>
<line x1="179.6" y1="439.7" x2="141.4" y2="431.6" opacity="1.0" stroke="rgb(0,0,0)"  stroke-width="3"/>
<line x1="141.4" y1="431.6" x2="115.2" y2="460.6" opacity="1.0" stroke="rgb(0,0,0)"  stroke-width="3"/>
<line x1="142.7" y1="440.8" x2="124.6" y2="460.9" opacity="1.0" stroke="rgb(0,0,0)"  stroke-width="3"/>
<line x1="115.2" y1="460.6" x2="127.3" y2="497.7" opacity="1.0" stroke="rgb(0,0,0)"  stroke-width="3"/>
<line x1="307.1" y1="460.6" x2="281.0" y2="431.6" opacity="1.0" stroke="rgb(0,0,0)"  stroke-width="3"/>
<line x1="297.7" y1="460.9" x2="279.6" y2="440.8" opacity="1.0" stroke="rgb(0,0,0)"  stroke-width="3"/>
<line x1="281.0" y1="431.6" x2="242.8" y2="439.7" opacity="1.0" stroke="rgb(0,0,0)"  stroke-width="3"/>
<line x1="242.8" y1="439.7" x2="230.7" y2="476.8" opacity="1.0" stroke="rgb(0,0,0)"  stroke-width="3"/>
<line x1="247.8" y1="447.6" x2="239.4" y2="473.3" opacity="1.0" stroke="rgb(0,0,0)"  stroke-width="3"/>
<line x1="230.7" y1="476.8" x2="256.8" y2="505.8" opacity="1.0" stroke="rgb(0,0,0)"  stroke-width="3"/>
<line x1="256.8" y1="505.8" x2="295.0" y2="497.7" opacity="1.0" stroke="rgb(0,0,0)"  stroke-width="3"/>
<line x1="261.2" y1="497.6" x2="287.7" y2="491.9" opacity="1.0" stroke="rgb(0,0,0)"  stroke-width="3"/>
<line x1="295.0" y1="497.7" x2="307.1" y2="460.6" opacity="1.0" stroke="rgb(0,0,0)"  stroke-width="3"/>
<line x1="219.8" y1="139.3" x2="242.7" y2="170.9" opacity="1.0" stroke="rgb(0,0,0)"  stroke-width="3"/>
<line x1="229.1" y1="139.9" x2="245.0" y2="161.8" opacity="1.0" stroke="rgb(0,0,0)"  stroke-width="3"/>
<line x1="242.7" y1="170.9" x2="281.6" y2="166.8" opacity="1.0" stroke="rgb(0,0,0)"  stroke-width="3"/>
<line x1="297.5" y1="131.1" x2="274.5" y2="99.5" opacity="1.0" stroke="rgb(0,0,0)"  stroke-width="3"/>
<line x1="274.5" y1="99.5" x2="235.7" y2="103.6" opacity="1.0" stroke="rgb(0,0,0)"  stroke-width="3"/>
<line x1="269.3" y1="107.3" x2="242.4" y2="110.1" opacity="1.0" stroke="rgb(0,0,0)"  stroke-width="3"/>
<line x1="235.7" y1="103.6" x2="219.8" y2="139.3" opacity="1.0" stroke="rgb(0,0,0)"  stroke-width="3"/>
<line x1="400.7" y1="114.3" x2="426.8" y2="85.3" opacity="1.0" stroke="rgb(0,0,0)"  stroke-width="3"/>
<line x1="426.8" y1="85.3" x2="414.7" y2="48.1" opacity="1.0" stroke="rgb(0,0,0)"  stroke-width="3"/>
<line x1="418.1" y1="81.8" x2="409.7" y2="56.1" opacity="1.0" stroke="rgb(0,0,0)"  stroke-width="3"/>
<line x1="414.7" y1="48.1" x2="376.5" y2="40.0" opacity="1.0" stroke="rgb(0,0,0)"  stroke-width="3"/>
<line x1="376.5" y1="40.0" x2="350.4" y2="69.0" opacity="1.0" stroke="rgb(0,0,0)"  stroke-width="3"/>
<line x1="377.9" y1="49.3" x2="359.7" y2="69.4" opacity="1.0" stroke="rgb(0,0,0)"  stroke-width="3"/>
<line x1="350.4" y1="69.0" x2="362.5" y2="106.2" opacity="1.0" stroke="rgb(0,0,0)"  stroke-width="3"/>
<line x1="362.5" y1="106.2" x2="400.7" y2="114.3" opacity="1.0" stroke="rgb(0,0,0)"  stroke-width="3"/>
<line x1="369.8" y1="100.4" x2="396.3" y2="106.0" opacity="1.0" stroke="rgb(0,0,0)"  stroke-width="3"/>
<line x1="371.5" y1="481.5" x2="409.7" y2="473.4" opacity="1.0" stroke="rgb(0,0,0)"  stroke-width="3"/>
<line x1="409.7" y1="473.4" x2="421.7" y2="436.2" opacity="1.0" stroke="rgb(0,0,0)"  stroke-width="3"/>
<line x1="404.7" y1="465.4" x2="413.0" y2="439.7" opacity="1.0" stroke="rgb(0,0,0)"  stroke-width="3"/>
<line x1="421.7" y1="436.2" x2="395.6" y2="407.2" opacity="1.0" stroke="rgb(0,0,0)"  stroke-width="3"/>
<line x1="395.6" y1="407.2" x2="357.4" y2="415.3" opacity="1.0" stroke="rgb(0,0,0)"  stroke-width="3"/>
<line x1="391.2" y1="415.5" x2="364.7" y2="421.1" opacity="1.0" stroke="rgb(0,0,0)"  stroke-width="3"/>
<line x1="357.4" y1="415.3" x2="345.3" y2="452.5" opacity="1.0" stroke="rgb(0,0,0)"  stroke-width="3"/>
<line x1="345.3" y1="452.5" x2="371.5" y2="481.5" opacity="1.0" stroke="rgb(0,0,0)"  stroke-width="3"/>
<line x1="354.7" y1="452.1" x2="372.8" y2="472.2" opacity="1.0" stroke="rgb(0,0,0)"  stroke-width="3"/>
<line x1="423.7" y1="539.5" x2="435.8" y2="502.4" opacity="1.0" stroke="rgb(0,0,0)"  stroke-width="3"/>
<line x1="418.7" y1="531.6" x2="427.1" y2="505.9" opacity="1.0" stroke="rgb(0,0,0)"  stroke-width="3"/>
<line x1="435.8" y1="502.4" x2="409.7" y2="473.4" opacity="1.0" stroke="rgb(0,0,0)"  stroke-width="3"/>
<line x1="371.5" y1="481.5" x2="359.4" y2="518.6" opacity="1.0" stroke="rgb(0,0,0)"  stroke-width="3"/>
<line x1="359.4" y1="518.6" x2="385.5" y2="547.7" opacity="1.0" stroke="rgb(0,0,0)"  stroke-width="3"/>
<line x1="368.7" y1="518.3" x2="386.9" y2="538.4" opacity="1.0" stroke="rgb(0,0,0)"  stroke-width="3"/>
<line x1="385.5" y1="547.7" x2="423.7" y2="539.5" opacity="1.0" stroke="rgb(0,0,0)"  stroke-width="3"/>
<line x1="343.3" y1="349.1" x2="331.2" y2="386.3" opacity="1.0" stroke="rgb(0,0,0)"  stroke-width="3"/>
<line x1="348.3" y1="357.1" x2="339.9" y2="382.8" opacity="1.0" stroke="rgb(0,0,0)"  stroke-width="3"/>
<line x1="331.2" y1="386.3" x2="357.4" y2="415.3" opacity="1.0" stroke="rgb(0,0,0)"  stroke-width="3"/>
<line x1="395.6" y1="407.2" x2="407.7" y2="370.0" opacity="1.0" stroke="rgb(0,0,0)"  stroke-width="3"/>
<line x1="407.7" y1="370.0" x2="381.5" y2="341.0" opacity="1.0" stroke="rgb(0,0,0)"  stroke-width="3"/>
<line x1="398.3" y1="370.4" x2="380.2" y2="350.3" opacity="1.0" stroke="rgb(0,0,0)"  stroke-width="3"/>
<line x1="381.5" y1="341.0" x2="343.3" y2="349.1" opacity="1.0" stroke="rgb(0,0,0)"  stroke-width="3"/>
<line x1="486.1" y1="457.1" x2="524.3" y2="449.0" opacity="1.0" stroke="rgb(0,0,0)"  stroke-width="3"/>
<line x1="524.3" y1="449.0" x2="536.3" y2="411.9" opacity="1.0" stroke="rgb(0,0,0)"  stroke-width="3"/>
<line x1="519.3" y1="441.1" x2="527.6" y2="415.3" opacity="1.0" stroke="rgb(0,0,0)"  stroke-width="3"/>
<line x1="536.3" y1="411.9" x2="510.2" y2="382.8" opacity="1.0" stroke="rgb(0,0,0)"  stroke-width="3"/>
<line x1="510.2" y1="382.8" x2="472.0" y2="390.9" opacity="1.0" stroke="rgb(0,0,0)"  stroke-width="3"/>
<line x1="505.8" y1="391.1" x2="479.4" y2="396.7" opacity="1.0" stroke="rgb(0,0,0)"  stroke-width="3"/>
<line x1="472.0" y1="390.9" x2="459.9" y2="428.1" opacity="1.0" stroke="rgb(0,0,0)"  stroke-width="3"/>
<line x1="459.9" y1="428.1" x2="486.1" y2="457.1" opacity="1.0" stroke="rgb(0,0,0)"  stroke-width="3"/>
<line x1="469.3" y1="427.7" x2="487.4" y2="447.8" opacity="1.0" stroke="rgb(0,0,0)"  stroke-width="3"/>
<line x1="191.6" y1="476.8" x2="230.7" y2="476.8" opacity="1.0" stroke="rgb(0,0,0)"  stroke-width="3"/>
<line x1="242.8" y1="439.7" x2="209.1" y2="378.5" opacity="1.0" stroke="rgb(0,0,0)"  stroke-width="3"/>
<line x1="209.1" y1="378.5" x2="179.6" y2="439.7" opacity="1.0" stroke="rgb(0,0,0)"  stroke-width="3"/>
<line x1="175.3" y1="349.2" x2="209.1" y2="378.5" opacity="1.0" stroke="rgb(0,0,0)"  stroke-width="3"/>
<line x1="209.1" y1="378.5" x2="243.0" y2="349.2" opacity="1.0" stroke="rgb(0,0,0)"  stroke-width="3"/>
<text x="330.319888" y="143.200575" fill="rgb(12,12,255)" stroke-width="0" font-weight="bold" font-size="25.92" >N</text>
<text x="338.439378" y="298.586781" fill="rgb(12,12,255)" stroke-width="0" font-weight="bold" font-size="25.92" >N</text>
<text x="203.130863" y="298.586781" fill="rgb(12,12,255)" stroke-width="0" font-weight="bold" font-size="25.92" >N</text>
<text x="270.785121" y="259.524048" fill="rgb(255,181,181)" stroke-width="0" font-weight="bold" font-size="25.92" >B</text>
</svg>
</g>
</svg>
