<?xml version="1.0"?>
<svg version="1.1" id="topsvg"
xmlns="http://www.w3.org/2000/svg" xmlns:xlink="http://www.w3.org/1999/xlink"
xmlns:cml="http://www.xml-cml.org/schema" x="0" y="0" width="200px" height="200px" viewBox="0 0 100 100">
<title>GD184.sdf - Open Babel Depiction</title>
<rect x="0" y="0" width="100" height="100" fill="white"/>
<g transform="translate(0,0)">
<svg width="100" height="100" x="0" y="0" viewBox="0 0 579.669 564.366"
font-family="sans-serif" stroke="rgb(0,0,0)" stroke-width="3"  stroke-linecap="round">
<line x1="76.9" y1="299.7" x2="113.8" y2="283.9" opacity="1.0" stroke="rgb(0,0,0)"  stroke-width="3"/>
<line x1="169.2" y1="120.7" x2="149.2" y2="86.0" opacity="1.0" stroke="rgb(0,0,0)"  stroke-width="3"/>
<line x1="149.2" y1="86.0" x2="129.1" y2="51.2" opacity="1.0" stroke="rgb(0,0,0)"  stroke-width="3"/>
<line x1="149.2" y1="86.0" x2="169.2" y2="51.2" opacity="1.0" stroke="rgb(0,0,0)"  stroke-width="3"/>
<line x1="149.2" y1="86.0" x2="109.0" y2="86.0" opacity="1.0" stroke="rgb(0,0,0)"  stroke-width="3"/>
<line x1="76.9" y1="299.7" x2="40.0" y2="315.5" opacity="1.0" stroke="rgb(0,0,0)"  stroke-width="3"/>
<line x1="76.9" y1="299.7" x2="72.1" y2="339.6" opacity="1.0" stroke="rgb(0,0,0)"  stroke-width="3"/>
<line x1="76.9" y1="299.7" x2="44.7" y2="275.7" opacity="1.0" stroke="rgb(0,0,0)"  stroke-width="3"/>
<line x1="387.2" y1="116.6" x2="399.6" y2="78.3" opacity="1.0" stroke="rgb(0,0,0)"  stroke-width="3"/>
<line x1="399.6" y1="78.3" x2="372.7" y2="48.4" opacity="1.0" stroke="rgb(0,0,0)"  stroke-width="3"/>
<line x1="399.6" y1="78.3" x2="439.0" y2="69.9" opacity="1.0" stroke="rgb(0,0,0)"  stroke-width="3"/>
<line x1="399.6" y1="78.3" x2="412.0" y2="40.0" opacity="1.0" stroke="rgb(0,0,0)"  stroke-width="3"/>
<line x1="473.3" y1="265.9" x2="512.7" y2="274.2" opacity="1.0" stroke="rgb(0,0,0)"  stroke-width="3"/>
<line x1="512.7" y1="274.2" x2="539.7" y2="244.3" opacity="1.0" stroke="rgb(0,0,0)"  stroke-width="3"/>
<line x1="512.7" y1="274.2" x2="525.2" y2="312.5" opacity="1.0" stroke="rgb(0,0,0)"  stroke-width="3"/>
<line x1="512.7" y1="274.2" x2="500.3" y2="235.9" opacity="1.0" stroke="rgb(0,0,0)"  stroke-width="3"/>
<line x1="155.4" y1="228.2" x2="168.3" y2="190.2" opacity="1.0" stroke="rgb(0,0,0)"  stroke-width="3"/>
<line x1="168.3" y1="190.2" x2="208.4" y2="190.8" opacity="1.0" stroke="rgb(0,0,0)"  stroke-width="3"/>
<line x1="174.2" y1="197.5" x2="202.3" y2="197.9" opacity="1.0" stroke="rgb(0,0,0)"  stroke-width="3"/>
<line x1="208.4" y1="190.8" x2="216.5" y2="216.7" opacity="1.0" stroke="rgb(0,0,0)"  stroke-width="3"/>
<line x1="209.7" y1="236.6" x2="187.5" y2="252.2" opacity="1.0" stroke="rgb(0,0,0)"  stroke-width="3"/>
<line x1="187.5" y1="252.2" x2="155.4" y2="228.2" opacity="1.0" stroke="rgb(0,0,0)"  stroke-width="3"/>
<line x1="187.0" y1="242.9" x2="164.5" y2="226.0" opacity="1.0" stroke="rgb(0,0,0)"  stroke-width="3"/>
<line x1="421.7" y1="219.3" x2="394.8" y2="249.2" opacity="1.0" stroke="rgb(0,0,0)"  stroke-width="3"/>
<line x1="412.3" y1="219.0" x2="393.5" y2="239.9" opacity="1.0" stroke="rgb(0,0,0)"  stroke-width="3"/>
<line x1="394.8" y1="249.2" x2="370.0" y2="238.1" opacity="1.0" stroke="rgb(0,0,0)"  stroke-width="3"/>
<line x1="359.5" y1="219.9" x2="362.4" y2="192.9" opacity="1.0" stroke="rgb(0,0,0)"  stroke-width="3"/>
<line x1="362.4" y1="192.9" x2="401.6" y2="184.6" opacity="1.0" stroke="rgb(0,0,0)"  stroke-width="3"/>
<line x1="369.7" y1="198.7" x2="397.2" y2="192.9" opacity="1.0" stroke="rgb(0,0,0)"  stroke-width="3"/>
<line x1="401.6" y1="184.6" x2="421.7" y2="219.3" opacity="1.0" stroke="rgb(0,0,0)"  stroke-width="3"/>
<line x1="123.2" y1="457.0" x2="157.8" y2="464.4" opacity="1.0" stroke="rgb(0,0,0)"  stroke-width="3"/>
<line x1="130.6" y1="451.2" x2="153.5" y2="456.1" opacity="1.0" stroke="rgb(0,0,0)"  stroke-width="3"/>
<line x1="157.8" y1="464.4" x2="169.0" y2="445.0" opacity="1.0" stroke="rgb(0,0,0)"  stroke-width="3"/>
<line x1="166.9" y1="424.1" x2="151.9" y2="407.5" opacity="1.0" stroke="rgb(0,0,0)"  stroke-width="3"/>
<line x1="151.9" y1="407.5" x2="119.6" y2="421.8" opacity="1.0" stroke="rgb(0,0,0)"  stroke-width="3"/>
<line x1="119.6" y1="421.8" x2="123.2" y2="457.0" opacity="1.0" stroke="rgb(0,0,0)"  stroke-width="3"/>
<line x1="404.0" y1="422.1" x2="421.2" y2="407.8" opacity="1.0" stroke="rgb(0,0,0)"  stroke-width="3"/>
<line x1="421.2" y1="407.8" x2="454.3" y2="420.1" opacity="1.0" stroke="rgb(0,0,0)"  stroke-width="3"/>
<line x1="454.3" y1="420.1" x2="442.3" y2="461.0" opacity="1.0" stroke="rgb(0,0,0)"  stroke-width="3"/>
<line x1="442.3" y1="461.0" x2="407.0" y2="463.3" opacity="1.0" stroke="rgb(0,0,0)"  stroke-width="3"/>
<line x1="435.9" y1="454.2" x2="412.6" y2="455.7" opacity="1.0" stroke="rgb(0,0,0)"  stroke-width="3"/>
<line x1="407.0" y1="463.3" x2="398.8" y2="442.5" opacity="1.0" stroke="rgb(0,0,0)"  stroke-width="3"/>
<line x1="252.8" y1="291.1" x2="287.0" y2="312.1" opacity="1.0" stroke="rgb(0,0,0)"  stroke-width="3"/>
<line x1="287.0" y1="312.1" x2="322.3" y2="293.0" opacity="1.0" stroke="rgb(0,0,0)"  stroke-width="3"/>
<line x1="288.9" y1="303.0" x2="313.6" y2="289.6" opacity="1.0" stroke="rgb(0,0,0)"  stroke-width="3"/>
<line x1="322.3" y1="293.0" x2="323.4" y2="252.9" opacity="1.0" stroke="rgb(0,0,0)"  stroke-width="3"/>
<line x1="323.4" y1="252.9" x2="289.2" y2="231.9" opacity="1.0" stroke="rgb(0,0,0)"  stroke-width="3"/>
<line x1="314.5" y1="255.9" x2="290.6" y2="241.2" opacity="1.0" stroke="rgb(0,0,0)"  stroke-width="3"/>
<line x1="289.2" y1="231.9" x2="253.9" y2="251.0" opacity="1.0" stroke="rgb(0,0,0)"  stroke-width="3"/>
<line x1="253.9" y1="251.0" x2="252.8" y2="291.1" opacity="1.0" stroke="rgb(0,0,0)"  stroke-width="3"/>
<line x1="261.0" y1="257.2" x2="260.2" y2="285.3" opacity="1.0" stroke="rgb(0,0,0)"  stroke-width="3"/>
<line x1="208.4" y1="190.8" x2="229.0" y2="156.3" opacity="1.0" stroke="rgb(0,0,0)"  stroke-width="3"/>
<line x1="229.0" y1="156.3" x2="278.0" y2="185.2" opacity="1.0" stroke="rgb(0,0,0)"  stroke-width="3"/>
<line x1="289.2" y1="204.8" x2="289.2" y2="231.9" opacity="1.0" stroke="rgb(0,0,0)"  stroke-width="3"/>
<line x1="253.9" y1="251.0" x2="231.2" y2="236.2" opacity="1.0" stroke="rgb(0,0,0)"  stroke-width="3"/>
<line x1="113.8" y1="283.9" x2="145.9" y2="307.9" opacity="1.0" stroke="rgb(0,0,0)"  stroke-width="3"/>
<line x1="145.9" y1="307.9" x2="182.8" y2="292.1" opacity="1.0" stroke="rgb(0,0,0)"  stroke-width="3"/>
<line x1="148.6" y1="298.9" x2="174.4" y2="287.8" opacity="1.0" stroke="rgb(0,0,0)"  stroke-width="3"/>
<line x1="182.8" y1="292.1" x2="187.5" y2="252.2" opacity="1.0" stroke="rgb(0,0,0)"  stroke-width="3"/>
<line x1="155.4" y1="228.2" x2="118.5" y2="244.0" opacity="1.0" stroke="rgb(0,0,0)"  stroke-width="3"/>
<line x1="118.5" y1="244.0" x2="113.8" y2="283.9" opacity="1.0" stroke="rgb(0,0,0)"  stroke-width="3"/>
<line x1="124.9" y1="250.8" x2="121.6" y2="278.8" opacity="1.0" stroke="rgb(0,0,0)"  stroke-width="3"/>
<line x1="346.9" y1="239.3" x2="323.4" y2="252.9" opacity="1.0" stroke="rgb(0,0,0)"  stroke-width="3"/>
<line x1="300.3" y1="184.9" x2="335.5" y2="163.1" opacity="1.0" stroke="rgb(0,0,0)"  stroke-width="3"/>
<line x1="335.5" y1="163.1" x2="362.4" y2="192.9" opacity="1.0" stroke="rgb(0,0,0)"  stroke-width="3"/>
<line x1="473.3" y1="265.9" x2="446.5" y2="295.7" opacity="1.0" stroke="rgb(0,0,0)"  stroke-width="3"/>
<line x1="446.5" y1="295.7" x2="407.2" y2="287.3" opacity="1.0" stroke="rgb(0,0,0)"  stroke-width="3"/>
<line x1="442.1" y1="287.4" x2="414.6" y2="281.5" opacity="1.0" stroke="rgb(0,0,0)"  stroke-width="3"/>
<line x1="407.2" y1="287.3" x2="394.8" y2="249.2" opacity="1.0" stroke="rgb(0,0,0)"  stroke-width="3"/>
<line x1="421.7" y1="219.3" x2="460.9" y2="227.7" opacity="1.0" stroke="rgb(0,0,0)"  stroke-width="3"/>
<line x1="460.9" y1="227.7" x2="473.3" y2="265.9" opacity="1.0" stroke="rgb(0,0,0)"  stroke-width="3"/>
<line x1="455.9" y1="235.6" x2="464.6" y2="262.4" opacity="1.0" stroke="rgb(0,0,0)"  stroke-width="3"/>
<line x1="387.2" y1="116.6" x2="347.9" y2="124.9" opacity="1.0" stroke="rgb(0,0,0)"  stroke-width="3"/>
<line x1="347.9" y1="124.9" x2="335.5" y2="163.1" opacity="1.0" stroke="rgb(0,0,0)"  stroke-width="3"/>
<line x1="352.9" y1="132.9" x2="344.2" y2="159.6" opacity="1.0" stroke="rgb(0,0,0)"  stroke-width="3"/>
<line x1="401.6" y1="184.6" x2="414.0" y2="146.4" opacity="1.0" stroke="rgb(0,0,0)"  stroke-width="3"/>
<line x1="414.0" y1="146.4" x2="387.2" y2="116.6" opacity="1.0" stroke="rgb(0,0,0)"  stroke-width="3"/>
<line x1="404.6" y1="146.8" x2="385.8" y2="125.9" opacity="1.0" stroke="rgb(0,0,0)"  stroke-width="3"/>
<line x1="168.3" y1="190.2" x2="148.7" y2="155.2" opacity="1.0" stroke="rgb(0,0,0)"  stroke-width="3"/>
<line x1="148.7" y1="155.2" x2="169.2" y2="120.7" opacity="1.0" stroke="rgb(0,0,0)"  stroke-width="3"/>
<line x1="158.0" y1="153.7" x2="172.4" y2="129.6" opacity="1.0" stroke="rgb(0,0,0)"  stroke-width="3"/>
<line x1="169.2" y1="120.7" x2="209.4" y2="121.3" opacity="1.0" stroke="rgb(0,0,0)"  stroke-width="3"/>
<line x1="209.4" y1="121.3" x2="229.0" y2="156.3" opacity="1.0" stroke="rgb(0,0,0)"  stroke-width="3"/>
<line x1="206.0" y1="130.0" x2="219.8" y2="154.6" opacity="1.0" stroke="rgb(0,0,0)"  stroke-width="3"/>
<line x1="91.0" y1="401.0" x2="119.6" y2="421.8" opacity="1.0" stroke="rgb(0,0,0)"  stroke-width="3"/>
<line x1="100.1" y1="398.7" x2="119.0" y2="412.4" opacity="1.0" stroke="rgb(0,0,0)"  stroke-width="3"/>
<line x1="151.9" y1="407.5" x2="155.7" y2="372.3" opacity="1.0" stroke="rgb(0,0,0)"  stroke-width="3"/>
<line x1="145.4" y1="400.7" x2="147.9" y2="377.5" opacity="1.0" stroke="rgb(0,0,0)"  stroke-width="3"/>
<line x1="155.7" y1="372.3" x2="127.1" y2="351.5" opacity="1.0" stroke="rgb(0,0,0)"  stroke-width="3"/>
<line x1="127.1" y1="351.5" x2="94.8" y2="365.8" opacity="1.0" stroke="rgb(0,0,0)"  stroke-width="3"/>
<line x1="124.6" y1="360.5" x2="103.2" y2="370.0" opacity="1.0" stroke="rgb(0,0,0)"  stroke-width="3"/>
<line x1="94.8" y1="365.8" x2="91.0" y2="401.0" opacity="1.0" stroke="rgb(0,0,0)"  stroke-width="3"/>
<line x1="277.5" y1="385.3" x2="248.9" y2="364.5" opacity="1.0" stroke="rgb(0,0,0)"  stroke-width="3"/>
<line x1="268.4" y1="387.6" x2="249.5" y2="373.9" opacity="1.0" stroke="rgb(0,0,0)"  stroke-width="3"/>
<line x1="248.9" y1="364.5" x2="216.6" y2="378.8" opacity="1.0" stroke="rgb(0,0,0)"  stroke-width="3"/>
<line x1="216.6" y1="378.8" x2="212.8" y2="414.0" opacity="1.0" stroke="rgb(0,0,0)"  stroke-width="3"/>
<line x1="223.1" y1="385.6" x2="220.6" y2="408.8" opacity="1.0" stroke="rgb(0,0,0)"  stroke-width="3"/>
<line x1="212.8" y1="414.0" x2="241.4" y2="434.8" opacity="1.0" stroke="rgb(0,0,0)"  stroke-width="3"/>
<line x1="241.4" y1="434.8" x2="273.7" y2="420.5" opacity="1.0" stroke="rgb(0,0,0)"  stroke-width="3"/>
<line x1="244.0" y1="425.8" x2="265.3" y2="416.3" opacity="1.0" stroke="rgb(0,0,0)"  stroke-width="3"/>
<line x1="273.7" y1="420.5" x2="277.5" y2="385.3" opacity="1.0" stroke="rgb(0,0,0)"  stroke-width="3"/>
<line x1="145.0" y1="524.3" x2="168.7" y2="498.0" opacity="1.0" stroke="rgb(0,0,0)"  stroke-width="3"/>
<line x1="143.7" y1="515.0" x2="159.3" y2="497.7" opacity="1.0" stroke="rgb(0,0,0)"  stroke-width="3"/>
<line x1="168.7" y1="498.0" x2="157.8" y2="464.4" opacity="1.0" stroke="rgb(0,0,0)"  stroke-width="3"/>
<line x1="123.2" y1="457.0" x2="99.5" y2="483.2" opacity="1.0" stroke="rgb(0,0,0)"  stroke-width="3"/>
<line x1="99.5" y1="483.2" x2="110.4" y2="516.8" opacity="1.0" stroke="rgb(0,0,0)"  stroke-width="3"/>
<line x1="108.2" y1="486.7" x2="115.4" y2="508.9" opacity="1.0" stroke="rgb(0,0,0)"  stroke-width="3"/>
<line x1="110.4" y1="516.8" x2="145.0" y2="524.3" opacity="1.0" stroke="rgb(0,0,0)"  stroke-width="3"/>
<line x1="360.8" y1="418.1" x2="354.9" y2="383.3" opacity="1.0" stroke="rgb(0,0,0)"  stroke-width="3"/>
<line x1="352.7" y1="413.4" x2="348.8" y2="390.4" opacity="1.0" stroke="rgb(0,0,0)"  stroke-width="3"/>
<line x1="354.9" y1="383.3" x2="321.7" y2="371.0" opacity="1.0" stroke="rgb(0,0,0)"  stroke-width="3"/>
<line x1="321.7" y1="371.0" x2="294.5" y2="393.6" opacity="1.0" stroke="rgb(0,0,0)"  stroke-width="3"/>
<line x1="321.7" y1="380.4" x2="303.7" y2="395.3" opacity="1.0" stroke="rgb(0,0,0)"  stroke-width="3"/>
<line x1="294.5" y1="393.6" x2="300.4" y2="428.4" opacity="1.0" stroke="rgb(0,0,0)"  stroke-width="3"/>
<line x1="300.4" y1="428.4" x2="333.6" y2="440.7" opacity="1.0" stroke="rgb(0,0,0)"  stroke-width="3"/>
<line x1="308.6" y1="423.7" x2="330.5" y2="431.9" opacity="1.0" stroke="rgb(0,0,0)"  stroke-width="3"/>
<line x1="333.6" y1="440.7" x2="360.8" y2="418.1" opacity="1.0" stroke="rgb(0,0,0)"  stroke-width="3"/>
<line x1="475.6" y1="362.7" x2="442.5" y2="350.4" opacity="1.0" stroke="rgb(0,0,0)"  stroke-width="3"/>
<line x1="467.5" y1="367.4" x2="445.6" y2="359.2" opacity="1.0" stroke="rgb(0,0,0)"  stroke-width="3"/>
<line x1="442.5" y1="350.4" x2="415.2" y2="373.0" opacity="1.0" stroke="rgb(0,0,0)"  stroke-width="3"/>
<line x1="415.2" y1="373.0" x2="421.2" y2="407.8" opacity="1.0" stroke="rgb(0,0,0)"  stroke-width="3"/>
<line x1="423.3" y1="377.7" x2="427.3" y2="400.7" opacity="1.0" stroke="rgb(0,0,0)"  stroke-width="3"/>
<line x1="454.3" y1="420.1" x2="481.5" y2="397.5" opacity="1.0" stroke="rgb(0,0,0)"  stroke-width="3"/>
<line x1="454.4" y1="410.7" x2="472.3" y2="395.8" opacity="1.0" stroke="rgb(0,0,0)"  stroke-width="3"/>
<line x1="481.5" y1="397.5" x2="475.6" y2="362.7" opacity="1.0" stroke="rgb(0,0,0)"  stroke-width="3"/>
<line x1="446.2" y1="522.1" x2="410.9" y2="524.4" opacity="1.0" stroke="rgb(0,0,0)"  stroke-width="3"/>
<line x1="410.9" y1="524.4" x2="391.3" y2="494.9" opacity="1.0" stroke="rgb(0,0,0)"  stroke-width="3"/>
<line x1="413.6" y1="515.4" x2="400.7" y2="495.9" opacity="1.0" stroke="rgb(0,0,0)"  stroke-width="3"/>
<line x1="391.3" y1="494.9" x2="407.0" y2="463.3" opacity="1.0" stroke="rgb(0,0,0)"  stroke-width="3"/>
<line x1="442.3" y1="461.0" x2="461.9" y2="490.4" opacity="1.0" stroke="rgb(0,0,0)"  stroke-width="3"/>
<line x1="461.9" y1="490.4" x2="446.2" y2="522.1" opacity="1.0" stroke="rgb(0,0,0)"  stroke-width="3"/>
<line x1="452.8" y1="492.6" x2="442.4" y2="513.5" opacity="1.0" stroke="rgb(0,0,0)"  stroke-width="3"/>
<line x1="322.3" y1="293.0" x2="385.9" y2="357.6" opacity="1.0" stroke="rgb(0,0,0)"  stroke-width="3"/>
<line x1="385.9" y1="357.6" x2="407.2" y2="287.3" opacity="1.0" stroke="rgb(0,0,0)"  stroke-width="3"/>
<line x1="182.8" y1="292.1" x2="202.4" y2="339.6" opacity="1.0" stroke="rgb(0,0,0)"  stroke-width="3"/>
<line x1="202.4" y1="339.6" x2="252.8" y2="291.1" opacity="1.0" stroke="rgb(0,0,0)"  stroke-width="3"/>
<line x1="187.0" y1="427.7" x2="212.8" y2="414.0" opacity="1.0" stroke="rgb(0,0,0)"  stroke-width="3"/>
<line x1="216.6" y1="378.8" x2="202.4" y2="339.6" opacity="1.0" stroke="rgb(0,0,0)"  stroke-width="3"/>
<line x1="202.4" y1="339.6" x2="155.7" y2="372.3" opacity="1.0" stroke="rgb(0,0,0)"  stroke-width="3"/>
<line x1="415.2" y1="373.0" x2="385.9" y2="357.6" opacity="1.0" stroke="rgb(0,0,0)"  stroke-width="3"/>
<line x1="385.9" y1="357.6" x2="354.9" y2="383.3" opacity="1.0" stroke="rgb(0,0,0)"  stroke-width="3"/>
<line x1="360.8" y1="418.1" x2="381.8" y2="425.9" opacity="1.0" stroke="rgb(0,0,0)"  stroke-width="3"/>
<text x="169.548378" y="441.793910" fill="rgb(12,12,255)" stroke-width="0" font-weight="bold" font-size="25.92" >N</text>
<text x="387.967853" y="438.397149" fill="rgb(12,12,255)" stroke-width="0" font-weight="bold" font-size="25.92" >N</text>
<text x="352.159469" y="240.847455" fill="rgb(12,12,255)" stroke-width="0" font-weight="bold" font-size="25.92" >N</text>
<text x="214.307906" y="237.096012" fill="rgb(12,12,255)" stroke-width="0" font-weight="bold" font-size="25.92" >N</text>
<text x="283.208231" y="199.777767" fill="rgb(255,181,181)" stroke-width="0" font-weight="bold" font-size="25.92" >B</text>
</svg>
</g>
</svg>
