<?xml version="1.0"?>
<svg version="1.1" id="topsvg"
xmlns="http://www.w3.org/2000/svg" xmlns:xlink="http://www.w3.org/1999/xlink"
xmlns:cml="http://www.xml-cml.org/schema" x="0" y="0" width="200px" height="200px" viewBox="0 0 100 100">
<title>GD186.sdf - Open Babel Depiction</title>
<rect x="0" y="0" width="100" height="100" fill="white"/>
<g transform="translate(0,0)">
<svg width="100" height="100" x="0" y="0" viewBox="0 0 568.526 561.085"
font-family="sans-serif" stroke="rgb(0,0,0)" stroke-width="3"  stroke-linecap="round">
<line x1="218.6" y1="118.8" x2="220.0" y2="79.4" opacity="1.0" stroke="rgb(0,0,0)"  stroke-width="3"/>
<line x1="220.0" y1="79.4" x2="221.5" y2="40.0" opacity="1.0" stroke="rgb(0,0,0)"  stroke-width="3"/>
<line x1="220.0" y1="79.4" x2="254.9" y2="61.0" opacity="1.0" stroke="rgb(0,0,0)"  stroke-width="3"/>
<line x1="220.0" y1="79.4" x2="186.6" y2="58.4" opacity="1.0" stroke="rgb(0,0,0)"  stroke-width="3"/>
<line x1="109.7" y1="292.3" x2="74.8" y2="310.7" opacity="1.0" stroke="rgb(0,0,0)"  stroke-width="3"/>
<line x1="74.8" y1="310.7" x2="73.4" y2="350.1" opacity="1.0" stroke="rgb(0,0,0)"  stroke-width="3"/>
<line x1="74.8" y1="310.7" x2="40.0" y2="329.1" opacity="1.0" stroke="rgb(0,0,0)"  stroke-width="3"/>
<line x1="74.8" y1="310.7" x2="41.5" y2="289.7" opacity="1.0" stroke="rgb(0,0,0)"  stroke-width="3"/>
<line x1="410.4" y1="215.9" x2="449.7" y2="217.3" opacity="1.0" stroke="rgb(0,0,0)"  stroke-width="3"/>
<line x1="389.4" y1="249.3" x2="407.8" y2="284.1" opacity="1.0" stroke="rgb(0,0,0)"  stroke-width="3"/>
<line x1="212.0" y1="426.5" x2="220.7" y2="451.4" opacity="1.0" stroke="rgb(0,0,0)"  stroke-width="3"/>
<line x1="220.7" y1="451.4" x2="260.1" y2="452.9" opacity="1.0" stroke="rgb(0,0,0)"  stroke-width="3"/>
<line x1="227.0" y1="444.4" x2="254.4" y2="445.4" opacity="1.0" stroke="rgb(0,0,0)"  stroke-width="3"/>
<line x1="260.1" y1="452.9" x2="275.9" y2="416.7" opacity="1.0" stroke="rgb(0,0,0)"  stroke-width="3"/>
<line x1="275.9" y1="416.7" x2="242.5" y2="395.8" opacity="1.0" stroke="rgb(0,0,0)"  stroke-width="3"/>
<line x1="242.5" y1="395.8" x2="219.1" y2="408.1" opacity="1.0" stroke="rgb(0,0,0)"  stroke-width="3"/>
<line x1="182.3" y1="176.6" x2="215.7" y2="197.6" opacity="1.0" stroke="rgb(0,0,0)"  stroke-width="3"/>
<line x1="183.5" y1="185.9" x2="206.7" y2="200.5" opacity="1.0" stroke="rgb(0,0,0)"  stroke-width="3"/>
<line x1="215.7" y1="197.6" x2="214.7" y2="224.0" opacity="1.0" stroke="rgb(0,0,0)"  stroke-width="3"/>
<line x1="202.7" y1="243.0" x2="179.4" y2="255.4" opacity="1.0" stroke="rgb(0,0,0)"  stroke-width="3"/>
<line x1="179.4" y1="255.4" x2="146.0" y2="234.4" opacity="1.0" stroke="rgb(0,0,0)"  stroke-width="3"/>
<line x1="178.1" y1="246.1" x2="154.9" y2="231.5" opacity="1.0" stroke="rgb(0,0,0)"  stroke-width="3"/>
<line x1="146.0" y1="234.4" x2="182.3" y2="176.6" opacity="1.0" stroke="rgb(0,0,0)"  stroke-width="3"/>
<line x1="410.4" y1="215.9" x2="389.4" y2="249.3" opacity="1.0" stroke="rgb(0,0,0)"  stroke-width="3"/>
<line x1="401.1" y1="217.1" x2="386.5" y2="240.4" opacity="1.0" stroke="rgb(0,0,0)"  stroke-width="3"/>
<line x1="389.4" y1="249.3" x2="363.4" y2="244.4" opacity="1.0" stroke="rgb(0,0,0)"  stroke-width="3"/>
<line x1="351.1" y1="229.0" x2="352.1" y2="202.6" opacity="1.0" stroke="rgb(0,0,0)"  stroke-width="3"/>
<line x1="352.1" y1="202.6" x2="387.0" y2="184.2" opacity="1.0" stroke="rgb(0,0,0)"  stroke-width="3"/>
<line x1="360.8" y1="206.2" x2="385.0" y2="193.3" opacity="1.0" stroke="rgb(0,0,0)"  stroke-width="3"/>
<line x1="387.0" y1="184.2" x2="410.4" y2="215.9" opacity="1.0" stroke="rgb(0,0,0)"  stroke-width="3"/>
<line x1="199.8" y1="484.8" x2="220.7" y2="451.4" opacity="1.0" stroke="rgb(0,0,0)"  stroke-width="3"/>
<line x1="260.1" y1="452.9" x2="278.5" y2="487.7" opacity="1.0" stroke="rgb(0,0,0)"  stroke-width="3"/>
<line x1="278.5" y1="487.7" x2="257.6" y2="521.1" opacity="1.0" stroke="rgb(0,0,0)"  stroke-width="3"/>
<line x1="269.3" y1="489.0" x2="254.7" y2="512.2" opacity="1.0" stroke="rgb(0,0,0)"  stroke-width="3"/>
<line x1="257.6" y1="521.1" x2="218.2" y2="519.6" opacity="1.0" stroke="rgb(0,0,0)"  stroke-width="3"/>
<line x1="218.2" y1="519.6" x2="199.8" y2="484.8" opacity="1.0" stroke="rgb(0,0,0)"  stroke-width="3"/>
<line x1="221.8" y1="511.0" x2="208.9" y2="486.7" opacity="1.0" stroke="rgb(0,0,0)"  stroke-width="3"/>
<line x1="278.8" y1="338.0" x2="244.0" y2="356.4" opacity="1.0" stroke="rgb(0,0,0)"  stroke-width="3"/>
<line x1="244.0" y1="356.4" x2="242.5" y2="395.8" opacity="1.0" stroke="rgb(0,0,0)"  stroke-width="3"/>
<line x1="250.9" y1="362.6" x2="249.9" y2="390.0" opacity="1.0" stroke="rgb(0,0,0)"  stroke-width="3"/>
<line x1="275.9" y1="416.7" x2="310.7" y2="398.3" opacity="1.0" stroke="rgb(0,0,0)"  stroke-width="3"/>
<line x1="277.8" y1="407.6" x2="302.1" y2="394.7" opacity="1.0" stroke="rgb(0,0,0)"  stroke-width="3"/>
<line x1="310.7" y1="398.3" x2="312.2" y2="358.9" opacity="1.0" stroke="rgb(0,0,0)"  stroke-width="3"/>
<line x1="312.2" y1="358.9" x2="278.8" y2="338.0" opacity="1.0" stroke="rgb(0,0,0)"  stroke-width="3"/>
<line x1="303.3" y1="361.8" x2="280.0" y2="347.2" opacity="1.0" stroke="rgb(0,0,0)"  stroke-width="3"/>
<line x1="107.5" y1="351.3" x2="142.3" y2="332.9" opacity="1.0" stroke="rgb(0,0,0)"  stroke-width="3"/>
<line x1="142.3" y1="332.9" x2="175.7" y2="353.9" opacity="1.0" stroke="rgb(0,0,0)"  stroke-width="3"/>
<line x1="143.6" y1="342.2" x2="166.8" y2="356.8" opacity="1.0" stroke="rgb(0,0,0)"  stroke-width="3"/>
<line x1="175.7" y1="353.9" x2="174.3" y2="393.3" opacity="1.0" stroke="rgb(0,0,0)"  stroke-width="3"/>
<line x1="174.3" y1="393.3" x2="139.4" y2="411.7" opacity="1.0" stroke="rgb(0,0,0)"  stroke-width="3"/>
<line x1="165.6" y1="389.7" x2="141.4" y2="402.5" opacity="1.0" stroke="rgb(0,0,0)"  stroke-width="3"/>
<line x1="139.4" y1="411.7" x2="106.0" y2="390.7" opacity="1.0" stroke="rgb(0,0,0)"  stroke-width="3"/>
<line x1="106.0" y1="390.7" x2="107.5" y2="351.3" opacity="1.0" stroke="rgb(0,0,0)"  stroke-width="3"/>
<line x1="113.5" y1="385.0" x2="114.5" y2="357.6" opacity="1.0" stroke="rgb(0,0,0)"  stroke-width="3"/>
<line x1="279.5" y1="318.3" x2="314.4" y2="299.8" opacity="1.0" stroke="rgb(0,0,0)"  stroke-width="3"/>
<line x1="281.5" y1="309.1" x2="305.7" y2="296.3" opacity="1.0" stroke="rgb(0,0,0)"  stroke-width="3"/>
<line x1="314.4" y1="299.8" x2="315.8" y2="260.4" opacity="1.0" stroke="rgb(0,0,0)"  stroke-width="3"/>
<line x1="315.8" y1="260.4" x2="282.4" y2="239.5" opacity="1.0" stroke="rgb(0,0,0)"  stroke-width="3"/>
<line x1="306.9" y1="263.3" x2="283.7" y2="248.8" opacity="1.0" stroke="rgb(0,0,0)"  stroke-width="3"/>
<line x1="282.4" y1="239.5" x2="247.6" y2="257.9" opacity="1.0" stroke="rgb(0,0,0)"  stroke-width="3"/>
<line x1="247.6" y1="257.9" x2="246.1" y2="297.3" opacity="1.0" stroke="rgb(0,0,0)"  stroke-width="3"/>
<line x1="254.6" y1="264.2" x2="253.6" y2="291.6" opacity="1.0" stroke="rgb(0,0,0)"  stroke-width="3"/>
<line x1="246.1" y1="297.3" x2="279.5" y2="318.3" opacity="1.0" stroke="rgb(0,0,0)"  stroke-width="3"/>
<line x1="318.7" y1="181.6" x2="295.4" y2="194.0" opacity="1.0" stroke="rgb(0,0,0)"  stroke-width="3"/>
<line x1="283.4" y1="213.1" x2="282.4" y2="239.5" opacity="1.0" stroke="rgb(0,0,0)"  stroke-width="3"/>
<line x1="315.8" y1="260.4" x2="339.2" y2="248.1" opacity="1.0" stroke="rgb(0,0,0)"  stroke-width="3"/>
<line x1="352.1" y1="202.6" x2="318.7" y2="181.6" opacity="1.0" stroke="rgb(0,0,0)"  stroke-width="3"/>
<line x1="109.7" y1="292.3" x2="111.1" y2="252.9" opacity="1.0" stroke="rgb(0,0,0)"  stroke-width="3"/>
<line x1="117.1" y1="286.5" x2="118.1" y2="259.1" opacity="1.0" stroke="rgb(0,0,0)"  stroke-width="3"/>
<line x1="111.1" y1="252.9" x2="146.0" y2="234.4" opacity="1.0" stroke="rgb(0,0,0)"  stroke-width="3"/>
<line x1="179.4" y1="255.4" x2="177.9" y2="294.8" opacity="1.0" stroke="rgb(0,0,0)"  stroke-width="3"/>
<line x1="177.9" y1="294.8" x2="143.1" y2="313.2" opacity="1.0" stroke="rgb(0,0,0)"  stroke-width="3"/>
<line x1="169.2" y1="291.2" x2="145.0" y2="304.0" opacity="1.0" stroke="rgb(0,0,0)"  stroke-width="3"/>
<line x1="143.1" y1="313.2" x2="109.7" y2="292.3" opacity="1.0" stroke="rgb(0,0,0)"  stroke-width="3"/>
<line x1="388.4" y1="144.8" x2="355.0" y2="123.8" opacity="1.0" stroke="rgb(0,0,0)"  stroke-width="3"/>
<line x1="379.5" y1="147.7" x2="356.3" y2="133.1" opacity="1.0" stroke="rgb(0,0,0)"  stroke-width="3"/>
<line x1="355.0" y1="123.8" x2="320.2" y2="142.3" opacity="1.0" stroke="rgb(0,0,0)"  stroke-width="3"/>
<line x1="320.2" y1="142.3" x2="318.7" y2="181.6" opacity="1.0" stroke="rgb(0,0,0)"  stroke-width="3"/>
<line x1="327.2" y1="148.5" x2="326.1" y2="175.9" opacity="1.0" stroke="rgb(0,0,0)"  stroke-width="3"/>
<line x1="387.0" y1="184.2" x2="388.4" y2="144.8" opacity="1.0" stroke="rgb(0,0,0)"  stroke-width="3"/>
<line x1="218.6" y1="118.8" x2="252.0" y2="139.7" opacity="1.0" stroke="rgb(0,0,0)"  stroke-width="3"/>
<line x1="252.0" y1="139.7" x2="250.5" y2="179.1" opacity="1.0" stroke="rgb(0,0,0)"  stroke-width="3"/>
<line x1="244.5" y1="145.5" x2="243.5" y2="172.9" opacity="1.0" stroke="rgb(0,0,0)"  stroke-width="3"/>
<line x1="250.5" y1="179.1" x2="215.7" y2="197.6" opacity="1.0" stroke="rgb(0,0,0)"  stroke-width="3"/>
<line x1="182.3" y1="176.6" x2="183.7" y2="137.2" opacity="1.0" stroke="rgb(0,0,0)"  stroke-width="3"/>
<line x1="183.7" y1="137.2" x2="218.6" y2="118.8" opacity="1.0" stroke="rgb(0,0,0)"  stroke-width="3"/>
<line x1="192.4" y1="140.8" x2="216.6" y2="128.0" opacity="1.0" stroke="rgb(0,0,0)"  stroke-width="3"/>
<line x1="247.6" y1="257.9" x2="225.2" y2="243.9" opacity="1.0" stroke="rgb(0,0,0)"  stroke-width="3"/>
<line x1="250.5" y1="179.1" x2="272.9" y2="193.2" opacity="1.0" stroke="rgb(0,0,0)"  stroke-width="3"/>
<line x1="286.8" y1="121.3" x2="320.2" y2="142.3" opacity="1.0" stroke="rgb(0,0,0)"  stroke-width="3"/>
<line x1="355.0" y1="123.8" x2="356.5" y2="84.4" opacity="1.0" stroke="rgb(0,0,0)"  stroke-width="3"/>
<line x1="356.5" y1="84.4" x2="323.1" y2="63.5" opacity="1.0" stroke="rgb(0,0,0)"  stroke-width="3"/>
<line x1="347.6" y1="87.3" x2="324.3" y2="72.8" opacity="1.0" stroke="rgb(0,0,0)"  stroke-width="3"/>
<line x1="323.1" y1="63.5" x2="288.2" y2="81.9" opacity="1.0" stroke="rgb(0,0,0)"  stroke-width="3"/>
<line x1="288.2" y1="81.9" x2="286.8" y2="121.3" opacity="1.0" stroke="rgb(0,0,0)"  stroke-width="3"/>
<line x1="295.2" y1="88.2" x2="294.2" y2="115.6" opacity="1.0" stroke="rgb(0,0,0)"  stroke-width="3"/>
<line x1="470.7" y1="184.0" x2="449.7" y2="217.3" opacity="1.0" stroke="rgb(0,0,0)"  stroke-width="3"/>
<line x1="449.7" y1="217.3" x2="468.2" y2="252.2" opacity="1.0" stroke="rgb(0,0,0)"  stroke-width="3"/>
<line x1="458.9" y1="219.3" x2="471.7" y2="243.5" opacity="1.0" stroke="rgb(0,0,0)"  stroke-width="3"/>
<line x1="468.2" y1="252.2" x2="507.6" y2="253.6" opacity="1.0" stroke="rgb(0,0,0)"  stroke-width="3"/>
<line x1="507.6" y1="253.6" x2="528.5" y2="220.3" opacity="1.0" stroke="rgb(0,0,0)"  stroke-width="3"/>
<line x1="504.7" y1="244.7" x2="519.2" y2="221.5" opacity="1.0" stroke="rgb(0,0,0)"  stroke-width="3"/>
<line x1="528.5" y1="220.3" x2="510.1" y2="185.4" opacity="1.0" stroke="rgb(0,0,0)"  stroke-width="3"/>
<line x1="510.1" y1="185.4" x2="470.7" y2="184.0" opacity="1.0" stroke="rgb(0,0,0)"  stroke-width="3"/>
<line x1="503.8" y1="192.4" x2="476.4" y2="191.4" opacity="1.0" stroke="rgb(0,0,0)"  stroke-width="3"/>
<line x1="447.2" y1="285.6" x2="407.8" y2="284.1" opacity="1.0" stroke="rgb(0,0,0)"  stroke-width="3"/>
<line x1="407.8" y1="284.1" x2="386.9" y2="317.5" opacity="1.0" stroke="rgb(0,0,0)"  stroke-width="3"/>
<line x1="410.7" y1="293.0" x2="396.2" y2="316.2" opacity="1.0" stroke="rgb(0,0,0)"  stroke-width="3"/>
<line x1="386.9" y1="317.5" x2="405.3" y2="352.3" opacity="1.0" stroke="rgb(0,0,0)"  stroke-width="3"/>
<line x1="405.3" y1="352.3" x2="444.7" y2="353.8" opacity="1.0" stroke="rgb(0,0,0)"  stroke-width="3"/>
<line x1="411.6" y1="345.4" x2="439.0" y2="346.4" opacity="1.0" stroke="rgb(0,0,0)"  stroke-width="3"/>
<line x1="444.7" y1="353.8" x2="465.7" y2="320.4" opacity="1.0" stroke="rgb(0,0,0)"  stroke-width="3"/>
<line x1="465.7" y1="320.4" x2="447.2" y2="285.6" opacity="1.0" stroke="rgb(0,0,0)"  stroke-width="3"/>
<line x1="456.5" y1="318.5" x2="443.7" y2="294.2" opacity="1.0" stroke="rgb(0,0,0)"  stroke-width="3"/>
<line x1="210.9" y1="325.6" x2="175.7" y2="353.9" opacity="1.0" stroke="rgb(0,0,0)"  stroke-width="3"/>
<line x1="174.3" y1="393.3" x2="196.6" y2="407.3" opacity="1.0" stroke="rgb(0,0,0)"  stroke-width="3"/>
<line x1="244.0" y1="356.4" x2="210.9" y2="325.6" opacity="1.0" stroke="rgb(0,0,0)"  stroke-width="3"/>
<line x1="246.1" y1="297.3" x2="210.9" y2="325.6" opacity="1.0" stroke="rgb(0,0,0)"  stroke-width="3"/>
<line x1="210.9" y1="325.6" x2="177.9" y2="294.8" opacity="1.0" stroke="rgb(0,0,0)"  stroke-width="3"/>
<text x="201.658571" y="422.213628" fill="rgb(12,12,255)" stroke-width="0" font-weight="bold" font-size="25.92" >N</text>
<text x="208.203973" y="244.954516" fill="rgb(12,12,255)" stroke-width="0" font-weight="bold" font-size="25.92" >N</text>
<text x="277.885534" y="208.082909" fill="rgb(255,181,181)" stroke-width="0" font-weight="bold" font-size="25.92" >B</text>
<text x="344.658064" y="249.993204" fill="rgb(12,12,255)" stroke-width="0" font-weight="bold" font-size="25.92" >N</text>
</svg>
</g>
</svg>
