<?xml version="1.0"?>
<svg version="1.1" id="topsvg"
xmlns="http://www.w3.org/2000/svg" xmlns:xlink="http://www.w3.org/1999/xlink"
xmlns:cml="http://www.xml-cml.org/schema" x="0" y="0" width="200px" height="200px" viewBox="0 0 100 100">
<title>GD188.sdf - Open Babel Depiction</title>
<rect x="0" y="0" width="100" height="100" fill="white"/>
<g transform="translate(0,0)">
<svg width="100" height="100" x="0" y="0" viewBox="0 0 587.989 592.38"
font-family="sans-serif" stroke="rgb(0,0,0)" stroke-width="3"  stroke-linecap="round">
<line x1="301.1" y1="474.0" x2="301.1" y2="369.9" opacity="1.0" stroke="rgb(0,0,0)"  stroke-width="3"/>
<line x1="369.5" y1="125.9" x2="387.1" y2="106.4" opacity="1.0" stroke="rgb(0,0,0)"  stroke-width="3"/>
<line x1="335.1" y1="493.6" x2="369.0" y2="474.0" opacity="1.0" stroke="rgb(0,0,0)"  stroke-width="3"/>
<line x1="431.0" y1="460.8" x2="470.0" y2="464.9" opacity="1.0" stroke="rgb(0,0,0)"  stroke-width="3"/>
<line x1="118.0" y1="311.8" x2="79.0" y2="315.9" opacity="1.0" stroke="rgb(0,0,0)"  stroke-width="3"/>
<line x1="79.0" y1="315.9" x2="40.0" y2="320.0" opacity="1.0" stroke="rgb(0,0,0)"  stroke-width="3"/>
<line x1="79.0" y1="315.9" x2="63.0" y2="351.7" opacity="1.0" stroke="rgb(0,0,0)"  stroke-width="3"/>
<line x1="79.0" y1="315.9" x2="55.9" y2="284.2" opacity="1.0" stroke="rgb(0,0,0)"  stroke-width="3"/>
<line x1="233.2" y1="173.9" x2="219.8" y2="137.0" opacity="1.0" stroke="rgb(0,0,0)"  stroke-width="3"/>
<line x1="219.8" y1="137.0" x2="204.3" y2="101.1" opacity="1.0" stroke="rgb(0,0,0)"  stroke-width="3"/>
<line x1="219.8" y1="137.0" x2="239.4" y2="103.1" opacity="1.0" stroke="rgb(0,0,0)"  stroke-width="3"/>
<line x1="219.8" y1="137.0" x2="180.7" y2="134.8" opacity="1.0" stroke="rgb(0,0,0)"  stroke-width="3"/>
<line x1="427.4" y1="263.3" x2="402.9" y2="232.7" opacity="1.0" stroke="rgb(0,0,0)"  stroke-width="3"/>
<line x1="402.9" y1="232.7" x2="369.0" y2="252.3" opacity="1.0" stroke="rgb(0,0,0)"  stroke-width="3"/>
<line x1="401.4" y1="241.9" x2="377.8" y2="255.5" opacity="1.0" stroke="rgb(0,0,0)"  stroke-width="3"/>
<line x1="369.0" y1="252.3" x2="369.0" y2="278.5" opacity="1.0" stroke="rgb(0,0,0)"  stroke-width="3"/>
<line x1="381.9" y1="293.4" x2="407.8" y2="297.3" opacity="1.0" stroke="rgb(0,0,0)"  stroke-width="3"/>
<line x1="407.8" y1="297.3" x2="427.4" y2="263.3" opacity="1.0" stroke="rgb(0,0,0)"  stroke-width="3"/>
<line x1="404.5" y1="288.5" x2="418.1" y2="264.9" opacity="1.0" stroke="rgb(0,0,0)"  stroke-width="3"/>
<line x1="172.9" y1="271.9" x2="195.9" y2="303.6" opacity="1.0" stroke="rgb(0,0,0)"  stroke-width="3"/>
<line x1="182.2" y1="272.5" x2="198.2" y2="294.5" opacity="1.0" stroke="rgb(0,0,0)"  stroke-width="3"/>
<line x1="195.9" y1="303.6" x2="220.9" y2="295.5" opacity="1.0" stroke="rgb(0,0,0)"  stroke-width="3"/>
<line x1="233.2" y1="278.5" x2="233.2" y2="252.3" opacity="1.0" stroke="rgb(0,0,0)"  stroke-width="3"/>
<line x1="233.2" y1="252.3" x2="199.3" y2="232.7" opacity="1.0" stroke="rgb(0,0,0)"  stroke-width="3"/>
<line x1="224.4" y1="255.5" x2="200.9" y2="241.9" opacity="1.0" stroke="rgb(0,0,0)"  stroke-width="3"/>
<line x1="199.3" y1="232.7" x2="172.9" y2="271.9" opacity="1.0" stroke="rgb(0,0,0)"  stroke-width="3"/>
<line x1="321.9" y1="131.4" x2="305.9" y2="167.3" opacity="1.0" stroke="rgb(0,0,0)"  stroke-width="3"/>
<line x1="326.0" y1="139.9" x2="314.9" y2="164.7" opacity="1.0" stroke="rgb(0,0,0)"  stroke-width="3"/>
<line x1="305.9" y1="167.3" x2="335.1" y2="193.5" opacity="1.0" stroke="rgb(0,0,0)"  stroke-width="3"/>
<line x1="335.1" y1="193.5" x2="369.0" y2="173.9" opacity="1.0" stroke="rgb(0,0,0)"  stroke-width="3"/>
<line x1="369.0" y1="173.9" x2="363.6" y2="148.3" opacity="1.0" stroke="rgb(0,0,0)"  stroke-width="3"/>
<line x1="347.9" y1="134.2" x2="321.9" y2="131.4" opacity="1.0" stroke="rgb(0,0,0)"  stroke-width="3"/>
<line x1="373.1" y1="435.0" x2="411.4" y2="426.9" opacity="1.0" stroke="rgb(0,0,0)"  stroke-width="3"/>
<line x1="411.4" y1="426.9" x2="431.0" y2="460.8" opacity="1.0" stroke="rgb(0,0,0)"  stroke-width="3"/>
<line x1="431.0" y1="460.8" x2="404.8" y2="489.9" opacity="1.0" stroke="rgb(0,0,0)"  stroke-width="3"/>
<line x1="421.7" y1="460.4" x2="403.5" y2="480.7" opacity="1.0" stroke="rgb(0,0,0)"  stroke-width="3"/>
<line x1="404.8" y1="489.9" x2="369.0" y2="474.0" opacity="1.0" stroke="rgb(0,0,0)"  stroke-width="3"/>
<line x1="369.0" y1="474.0" x2="373.1" y2="435.0" opacity="1.0" stroke="rgb(0,0,0)"  stroke-width="3"/>
<line x1="376.8" y1="468.8" x2="379.6" y2="441.7" opacity="1.0" stroke="rgb(0,0,0)"  stroke-width="3"/>
<line x1="335.1" y1="350.3" x2="301.1" y2="369.9" opacity="1.0" stroke="rgb(0,0,0)"  stroke-width="3"/>
<line x1="301.1" y1="369.9" x2="267.2" y2="350.3" opacity="1.0" stroke="rgb(0,0,0)"  stroke-width="3"/>
<line x1="299.5" y1="360.6" x2="276.0" y2="347.0" opacity="1.0" stroke="rgb(0,0,0)"  stroke-width="3"/>
<line x1="267.2" y1="350.3" x2="267.2" y2="311.1" opacity="1.0" stroke="rgb(0,0,0)"  stroke-width="3"/>
<line x1="267.2" y1="311.1" x2="301.1" y2="291.5" opacity="1.0" stroke="rgb(0,0,0)"  stroke-width="3"/>
<line x1="276.0" y1="314.3" x2="299.5" y2="300.7" opacity="1.0" stroke="rgb(0,0,0)"  stroke-width="3"/>
<line x1="301.1" y1="291.5" x2="335.1" y2="311.1" opacity="1.0" stroke="rgb(0,0,0)"  stroke-width="3"/>
<line x1="335.1" y1="311.1" x2="335.1" y2="350.3" opacity="1.0" stroke="rgb(0,0,0)"  stroke-width="3"/>
<line x1="327.9" y1="317.1" x2="327.9" y2="344.3" opacity="1.0" stroke="rgb(0,0,0)"  stroke-width="3"/>
<line x1="369.0" y1="252.3" x2="335.1" y2="232.7" opacity="1.0" stroke="rgb(0,0,0)"  stroke-width="3"/>
<line x1="335.1" y1="232.7" x2="312.4" y2="245.8" opacity="1.0" stroke="rgb(0,0,0)"  stroke-width="3"/>
<line x1="301.1" y1="265.3" x2="301.1" y2="291.5" opacity="1.0" stroke="rgb(0,0,0)"  stroke-width="3"/>
<line x1="335.1" y1="311.1" x2="357.7" y2="298.0" opacity="1.0" stroke="rgb(0,0,0)"  stroke-width="3"/>
<line x1="466.6" y1="331.2" x2="486.2" y2="297.3" opacity="1.0" stroke="rgb(0,0,0)"  stroke-width="3"/>
<line x1="486.2" y1="297.3" x2="466.6" y2="263.3" opacity="1.0" stroke="rgb(0,0,0)"  stroke-width="3"/>
<line x1="476.9" y1="295.7" x2="463.3" y2="272.1" opacity="1.0" stroke="rgb(0,0,0)"  stroke-width="3"/>
<line x1="466.6" y1="263.3" x2="427.4" y2="263.3" opacity="1.0" stroke="rgb(0,0,0)"  stroke-width="3"/>
<line x1="407.8" y1="297.3" x2="427.4" y2="331.2" opacity="1.0" stroke="rgb(0,0,0)"  stroke-width="3"/>
<line x1="427.4" y1="331.2" x2="466.6" y2="331.2" opacity="1.0" stroke="rgb(0,0,0)"  stroke-width="3"/>
<line x1="433.4" y1="324.0" x2="460.6" y2="324.0" opacity="1.0" stroke="rgb(0,0,0)"  stroke-width="3"/>
<line x1="244.5" y1="298.0" x2="267.2" y2="311.1" opacity="1.0" stroke="rgb(0,0,0)"  stroke-width="3"/>
<line x1="289.8" y1="245.8" x2="267.2" y2="232.7" opacity="1.0" stroke="rgb(0,0,0)"  stroke-width="3"/>
<line x1="267.2" y1="232.7" x2="233.2" y2="252.3" opacity="1.0" stroke="rgb(0,0,0)"  stroke-width="3"/>
<line x1="233.2" y1="173.9" x2="267.2" y2="193.5" opacity="1.0" stroke="rgb(0,0,0)"  stroke-width="3"/>
<line x1="267.2" y1="193.5" x2="267.2" y2="232.7" opacity="1.0" stroke="rgb(0,0,0)"  stroke-width="3"/>
<line x1="260.0" y1="199.5" x2="260.0" y2="226.7" opacity="1.0" stroke="rgb(0,0,0)"  stroke-width="3"/>
<line x1="199.3" y1="232.7" x2="199.3" y2="193.5" opacity="1.0" stroke="rgb(0,0,0)"  stroke-width="3"/>
<line x1="199.3" y1="193.5" x2="233.2" y2="173.9" opacity="1.0" stroke="rgb(0,0,0)"  stroke-width="3"/>
<line x1="208.1" y1="196.7" x2="231.6" y2="183.1" opacity="1.0" stroke="rgb(0,0,0)"  stroke-width="3"/>
<line x1="141.0" y1="343.5" x2="118.0" y2="311.8" opacity="1.0" stroke="rgb(0,0,0)"  stroke-width="3"/>
<line x1="118.0" y1="311.8" x2="133.9" y2="276.0" opacity="1.0" stroke="rgb(0,0,0)"  stroke-width="3"/>
<line x1="127.0" y1="309.2" x2="138.0" y2="284.4" opacity="1.0" stroke="rgb(0,0,0)"  stroke-width="3"/>
<line x1="133.9" y1="276.0" x2="172.9" y2="271.9" opacity="1.0" stroke="rgb(0,0,0)"  stroke-width="3"/>
<line x1="195.9" y1="303.6" x2="180.0" y2="339.4" opacity="1.0" stroke="rgb(0,0,0)"  stroke-width="3"/>
<line x1="180.0" y1="339.4" x2="141.0" y2="343.5" opacity="1.0" stroke="rgb(0,0,0)"  stroke-width="3"/>
<line x1="173.3" y1="332.9" x2="146.2" y2="335.7" opacity="1.0" stroke="rgb(0,0,0)"  stroke-width="3"/>
<line x1="402.9" y1="232.7" x2="402.9" y2="193.5" opacity="1.0" stroke="rgb(0,0,0)"  stroke-width="3"/>
<line x1="402.9" y1="193.5" x2="369.0" y2="173.9" opacity="1.0" stroke="rgb(0,0,0)"  stroke-width="3"/>
<line x1="394.2" y1="196.7" x2="370.6" y2="183.1" opacity="1.0" stroke="rgb(0,0,0)"  stroke-width="3"/>
<line x1="335.1" y1="193.5" x2="335.1" y2="232.7" opacity="1.0" stroke="rgb(0,0,0)"  stroke-width="3"/>
<line x1="342.3" y1="199.5" x2="342.3" y2="226.7" opacity="1.0" stroke="rgb(0,0,0)"  stroke-width="3"/>
<line x1="259.8" y1="103.8" x2="243.9" y2="139.6" opacity="1.0" stroke="rgb(0,0,0)"  stroke-width="3"/>
<line x1="243.9" y1="139.6" x2="266.9" y2="171.3" opacity="1.0" stroke="rgb(0,0,0)"  stroke-width="3"/>
<line x1="253.3" y1="140.3" x2="269.2" y2="162.3" opacity="1.0" stroke="rgb(0,0,0)"  stroke-width="3"/>
<line x1="266.9" y1="171.3" x2="305.9" y2="167.3" opacity="1.0" stroke="rgb(0,0,0)"  stroke-width="3"/>
<line x1="321.9" y1="131.4" x2="298.8" y2="99.7" opacity="1.0" stroke="rgb(0,0,0)"  stroke-width="3"/>
<line x1="298.8" y1="99.7" x2="259.8" y2="103.8" opacity="1.0" stroke="rgb(0,0,0)"  stroke-width="3"/>
<line x1="293.6" y1="107.5" x2="266.6" y2="110.4" opacity="1.0" stroke="rgb(0,0,0)"  stroke-width="3"/>
<line x1="267.2" y1="493.6" x2="267.2" y2="532.8" opacity="1.0" stroke="rgb(0,0,0)"  stroke-width="3"/>
<line x1="267.2" y1="532.8" x2="301.1" y2="552.4" opacity="1.0" stroke="rgb(0,0,0)"  stroke-width="3"/>
<line x1="276.0" y1="529.5" x2="299.5" y2="543.1" opacity="1.0" stroke="rgb(0,0,0)"  stroke-width="3"/>
<line x1="301.1" y1="552.4" x2="335.1" y2="532.8" opacity="1.0" stroke="rgb(0,0,0)"  stroke-width="3"/>
<line x1="335.1" y1="532.8" x2="335.1" y2="493.6" opacity="1.0" stroke="rgb(0,0,0)"  stroke-width="3"/>
<line x1="327.9" y1="526.8" x2="327.9" y2="499.6" opacity="1.0" stroke="rgb(0,0,0)"  stroke-width="3"/>
<line x1="335.1" y1="493.6" x2="301.1" y2="474.0" opacity="1.0" stroke="rgb(0,0,0)"  stroke-width="3"/>
<line x1="301.1" y1="474.0" x2="267.2" y2="493.6" opacity="1.0" stroke="rgb(0,0,0)"  stroke-width="3"/>
<line x1="299.5" y1="483.2" x2="276.0" y2="496.8" opacity="1.0" stroke="rgb(0,0,0)"  stroke-width="3"/>
<line x1="425.4" y1="114.6" x2="387.1" y2="106.4" opacity="1.0" stroke="rgb(0,0,0)"  stroke-width="3"/>
<line x1="421.0" y1="106.3" x2="394.4" y2="100.6" opacity="1.0" stroke="rgb(0,0,0)"  stroke-width="3"/>
<line x1="387.1" y1="106.4" x2="375.0" y2="69.1" opacity="1.0" stroke="rgb(0,0,0)"  stroke-width="3"/>
<line x1="375.0" y1="69.1" x2="401.2" y2="40.0" opacity="1.0" stroke="rgb(0,0,0)"  stroke-width="3"/>
<line x1="384.3" y1="69.5" x2="402.5" y2="49.3" opacity="1.0" stroke="rgb(0,0,0)"  stroke-width="3"/>
<line x1="401.2" y1="40.0" x2="439.5" y2="48.1" opacity="1.0" stroke="rgb(0,0,0)"  stroke-width="3"/>
<line x1="439.5" y1="48.1" x2="451.7" y2="85.4" opacity="1.0" stroke="rgb(0,0,0)"  stroke-width="3"/>
<line x1="434.5" y1="56.1" x2="442.9" y2="81.9" opacity="1.0" stroke="rgb(0,0,0)"  stroke-width="3"/>
<line x1="451.7" y1="85.4" x2="425.4" y2="114.6" opacity="1.0" stroke="rgb(0,0,0)"  stroke-width="3"/>
<line x1="493.1" y1="433.2" x2="532.0" y2="437.3" opacity="1.0" stroke="rgb(0,0,0)"  stroke-width="3"/>
<line x1="532.0" y1="437.3" x2="548.0" y2="473.1" opacity="1.0" stroke="rgb(0,0,0)"  stroke-width="3"/>
<line x1="527.9" y1="445.7" x2="539.0" y2="470.5" opacity="1.0" stroke="rgb(0,0,0)"  stroke-width="3"/>
<line x1="548.0" y1="473.1" x2="524.9" y2="504.8" opacity="1.0" stroke="rgb(0,0,0)"  stroke-width="3"/>
<line x1="524.9" y1="504.8" x2="486.0" y2="500.7" opacity="1.0" stroke="rgb(0,0,0)"  stroke-width="3"/>
<line x1="519.7" y1="497.0" x2="492.7" y2="494.2" opacity="1.0" stroke="rgb(0,0,0)"  stroke-width="3"/>
<line x1="486.0" y1="500.7" x2="470.0" y2="464.9" opacity="1.0" stroke="rgb(0,0,0)"  stroke-width="3"/>
<line x1="470.0" y1="464.9" x2="493.1" y2="433.2" opacity="1.0" stroke="rgb(0,0,0)"  stroke-width="3"/>
<line x1="479.4" y1="464.3" x2="495.4" y2="442.3" opacity="1.0" stroke="rgb(0,0,0)"  stroke-width="3"/>
<line x1="374.4" y1="346.9" x2="412.5" y2="356.2" opacity="1.0" stroke="rgb(0,0,0)"  stroke-width="3"/>
<line x1="378.5" y1="355.3" x2="405.0" y2="361.8" opacity="1.0" stroke="rgb(0,0,0)"  stroke-width="3"/>
<line x1="412.5" y1="356.2" x2="429.0" y2="391.8" opacity="1.0" stroke="rgb(0,0,0)"  stroke-width="3"/>
<line x1="429.0" y1="391.8" x2="411.4" y2="426.9" opacity="1.0" stroke="rgb(0,0,0)"  stroke-width="3"/>
<line x1="419.8" y1="393.9" x2="407.7" y2="418.3" opacity="1.0" stroke="rgb(0,0,0)"  stroke-width="3"/>
<line x1="373.1" y1="435.0" x2="342.8" y2="410.1" opacity="1.0" stroke="rgb(0,0,0)"  stroke-width="3"/>
<line x1="342.8" y1="410.1" x2="343.4" y2="370.9" opacity="1.0" stroke="rgb(0,0,0)"  stroke-width="3"/>
<line x1="350.1" y1="404.2" x2="350.5" y2="377.0" opacity="1.0" stroke="rgb(0,0,0)"  stroke-width="3"/>
<line x1="343.4" y1="370.9" x2="374.4" y2="346.9" opacity="1.0" stroke="rgb(0,0,0)"  stroke-width="3"/>
<text x="227.213898" y="299.476273" fill="rgb(12,12,255)" stroke-width="0" font-weight="bold" font-size="25.92" >N</text>
<text x="363.000701" y="299.476273" fill="rgb(12,12,255)" stroke-width="0" font-weight="bold" font-size="25.92" >N</text>
<text x="354.850858" y="143.539831" fill="rgb(12,12,255)" stroke-width="0" font-weight="bold" font-size="25.92" >N</text>
<text x="295.107347" y="260.278038" fill="rgb(255,181,181)" stroke-width="0" font-weight="bold" font-size="25.92" >B</text>
</svg>
</g>
</svg>
