<?xml version="1.0"?>
<svg version="1.1" id="topsvg"
xmlns="http://www.w3.org/2000/svg" xmlns:xlink="http://www.w3.org/1999/xlink"
xmlns:cml="http://www.xml-cml.org/schema" x="0" y="0" width="200px" height="200px" viewBox="0 0 100 100">
<title>GD182.sdf - Open Babel Depiction</title>
<rect x="0" y="0" width="100" height="100" fill="white"/>
<g transform="translate(0,0)">
<svg width="100" height="100" x="0" y="0" viewBox="0 0 584.532 587.372"
font-family="sans-serif" stroke="rgb(0,0,0)" stroke-width="3"  stroke-linecap="round">
<line x1="305.7" y1="367.2" x2="305.7" y2="468.6" opacity="1.0" stroke="rgb(0,0,0)"  stroke-width="3"/>
<line x1="339.8" y1="488.3" x2="373.9" y2="468.6" opacity="1.0" stroke="rgb(0,0,0)"  stroke-width="3"/>
<line x1="442.2" y1="429.2" x2="476.3" y2="409.5" opacity="1.0" stroke="rgb(0,0,0)"  stroke-width="3"/>
<line x1="380.5" y1="123.3" x2="399.7" y2="105.3" opacity="1.0" stroke="rgb(0,0,0)"  stroke-width="3"/>
<line x1="234.4" y1="171.3" x2="220.9" y2="134.2" opacity="1.0" stroke="rgb(0,0,0)"  stroke-width="3"/>
<line x1="79.5" y1="297.5" x2="40.0" y2="297.5" opacity="1.0" stroke="rgb(0,0,0)"  stroke-width="3"/>
<line x1="79.5" y1="297.5" x2="89.8" y2="259.3" opacity="1.0" stroke="rgb(0,0,0)"  stroke-width="3"/>
<line x1="118.9" y1="365.0" x2="118.9" y2="404.6" opacity="1.0" stroke="rgb(0,0,0)"  stroke-width="3"/>
<line x1="118.9" y1="365.0" x2="158.5" y2="365.0" opacity="1.0" stroke="rgb(0,0,0)"  stroke-width="3"/>
<line x1="177.4" y1="262.3" x2="201.3" y2="231.0" opacity="1.0" stroke="rgb(0,0,0)"  stroke-width="3"/>
<line x1="201.3" y1="231.0" x2="235.7" y2="250.1" opacity="1.0" stroke="rgb(0,0,0)"  stroke-width="3"/>
<line x1="235.7" y1="250.1" x2="236.3" y2="276.5" opacity="1.0" stroke="rgb(0,0,0)"  stroke-width="3"/>
<line x1="223.8" y1="291.6" x2="197.7" y2="296.0" opacity="1.0" stroke="rgb(0,0,0)"  stroke-width="3"/>
<line x1="197.7" y1="296.0" x2="177.4" y2="262.3" opacity="1.0" stroke="rgb(0,0,0)"  stroke-width="3"/>
<line x1="200.8" y1="287.2" x2="186.6" y2="263.7" opacity="1.0" stroke="rgb(0,0,0)"  stroke-width="3"/>
<line x1="431.7" y1="261.9" x2="404.8" y2="233.1" opacity="1.0" stroke="rgb(0,0,0)"  stroke-width="3"/>
<line x1="404.8" y1="233.1" x2="369.1" y2="249.9" opacity="1.0" stroke="rgb(0,0,0)"  stroke-width="3"/>
<line x1="402.4" y1="242.2" x2="377.6" y2="253.8" opacity="1.0" stroke="rgb(0,0,0)"  stroke-width="3"/>
<line x1="369.1" y1="249.9" x2="372.4" y2="276.1" opacity="1.0" stroke="rgb(0,0,0)"  stroke-width="3"/>
<line x1="386.8" y1="291.4" x2="412.7" y2="296.4" opacity="1.0" stroke="rgb(0,0,0)"  stroke-width="3"/>
<line x1="412.7" y1="296.4" x2="431.7" y2="261.9" opacity="1.0" stroke="rgb(0,0,0)"  stroke-width="3"/>
<line x1="409.3" y1="287.7" x2="422.5" y2="263.7" opacity="1.0" stroke="rgb(0,0,0)"  stroke-width="3"/>
<line x1="332.3" y1="124.8" x2="358.2" y2="129.8" opacity="1.0" stroke="rgb(0,0,0)"  stroke-width="3"/>
<line x1="372.6" y1="145.1" x2="375.8" y2="171.3" opacity="1.0" stroke="rgb(0,0,0)"  stroke-width="3"/>
<line x1="375.8" y1="171.3" x2="340.2" y2="188.1" opacity="1.0" stroke="rgb(0,0,0)"  stroke-width="3"/>
<line x1="340.2" y1="188.1" x2="313.2" y2="159.3" opacity="1.0" stroke="rgb(0,0,0)"  stroke-width="3"/>
<line x1="313.2" y1="159.3" x2="332.3" y2="124.8" opacity="1.0" stroke="rgb(0,0,0)"  stroke-width="3"/>
<line x1="322.4" y1="157.5" x2="335.7" y2="133.5" opacity="1.0" stroke="rgb(0,0,0)"  stroke-width="3"/>
<line x1="271.4" y1="347.7" x2="305.7" y2="367.2" opacity="1.0" stroke="rgb(0,0,0)"  stroke-width="3"/>
<line x1="305.7" y1="367.2" x2="339.7" y2="347.3" opacity="1.0" stroke="rgb(0,0,0)"  stroke-width="3"/>
<line x1="307.2" y1="358.0" x2="330.9" y2="344.1" opacity="1.0" stroke="rgb(0,0,0)"  stroke-width="3"/>
<line x1="339.7" y1="347.3" x2="339.4" y2="307.9" opacity="1.0" stroke="rgb(0,0,0)"  stroke-width="3"/>
<line x1="339.4" y1="307.9" x2="305.2" y2="288.4" opacity="1.0" stroke="rgb(0,0,0)"  stroke-width="3"/>
<line x1="330.7" y1="311.2" x2="306.9" y2="297.6" opacity="1.0" stroke="rgb(0,0,0)"  stroke-width="3"/>
<line x1="305.2" y1="288.4" x2="271.2" y2="308.3" opacity="1.0" stroke="rgb(0,0,0)"  stroke-width="3"/>
<line x1="271.2" y1="308.3" x2="271.4" y2="347.7" opacity="1.0" stroke="rgb(0,0,0)"  stroke-width="3"/>
<line x1="278.4" y1="314.3" x2="278.6" y2="341.7" opacity="1.0" stroke="rgb(0,0,0)"  stroke-width="3"/>
<line x1="304.3" y1="262.0" x2="305.2" y2="288.4" opacity="1.0" stroke="rgb(0,0,0)"  stroke-width="3"/>
<line x1="271.2" y1="308.3" x2="248.0" y2="295.7" opacity="1.0" stroke="rgb(0,0,0)"  stroke-width="3"/>
<line x1="235.7" y1="250.1" x2="269.5" y2="229.8" opacity="1.0" stroke="rgb(0,0,0)"  stroke-width="3"/>
<line x1="244.6" y1="253.2" x2="268.1" y2="239.0" opacity="1.0" stroke="rgb(0,0,0)"  stroke-width="3"/>
<line x1="269.5" y1="229.8" x2="292.6" y2="242.7" opacity="1.0" stroke="rgb(0,0,0)"  stroke-width="3"/>
<line x1="369.1" y1="249.9" x2="336.8" y2="227.3" opacity="1.0" stroke="rgb(0,0,0)"  stroke-width="3"/>
<line x1="336.8" y1="227.3" x2="314.8" y2="241.9" opacity="1.0" stroke="rgb(0,0,0)"  stroke-width="3"/>
<line x1="339.4" y1="307.9" x2="362.6" y2="295.2" opacity="1.0" stroke="rgb(0,0,0)"  stroke-width="3"/>
<line x1="139.3" y1="331.3" x2="178.7" y2="330.5" opacity="1.0" stroke="rgb(0,0,0)"  stroke-width="3"/>
<line x1="145.2" y1="324.0" x2="172.6" y2="323.4" opacity="1.0" stroke="rgb(0,0,0)"  stroke-width="3"/>
<line x1="178.7" y1="330.5" x2="197.7" y2="296.0" opacity="1.0" stroke="rgb(0,0,0)"  stroke-width="3"/>
<line x1="177.4" y1="262.3" x2="138.0" y2="263.0" opacity="1.0" stroke="rgb(0,0,0)"  stroke-width="3"/>
<line x1="138.0" y1="263.0" x2="118.9" y2="297.5" opacity="1.0" stroke="rgb(0,0,0)"  stroke-width="3"/>
<line x1="141.4" y1="271.8" x2="128.1" y2="295.8" opacity="1.0" stroke="rgb(0,0,0)"  stroke-width="3"/>
<line x1="118.9" y1="297.5" x2="139.3" y2="331.3" opacity="1.0" stroke="rgb(0,0,0)"  stroke-width="3"/>
<line x1="491.5" y1="294.9" x2="471.1" y2="261.1" opacity="1.0" stroke="rgb(0,0,0)"  stroke-width="3"/>
<line x1="482.2" y1="293.5" x2="468.1" y2="270.0" opacity="1.0" stroke="rgb(0,0,0)"  stroke-width="3"/>
<line x1="471.1" y1="261.1" x2="431.7" y2="261.9" opacity="1.0" stroke="rgb(0,0,0)"  stroke-width="3"/>
<line x1="412.7" y1="296.4" x2="433.0" y2="330.1" opacity="1.0" stroke="rgb(0,0,0)"  stroke-width="3"/>
<line x1="433.0" y1="330.1" x2="472.4" y2="329.4" opacity="1.0" stroke="rgb(0,0,0)"  stroke-width="3"/>
<line x1="438.9" y1="322.8" x2="466.3" y2="322.3" opacity="1.0" stroke="rgb(0,0,0)"  stroke-width="3"/>
<line x1="472.4" y1="329.4" x2="491.5" y2="294.9" opacity="1.0" stroke="rgb(0,0,0)"  stroke-width="3"/>
<line x1="340.2" y1="188.1" x2="336.8" y2="227.3" opacity="1.0" stroke="rgb(0,0,0)"  stroke-width="3"/>
<line x1="346.8" y1="194.6" x2="344.5" y2="221.9" opacity="1.0" stroke="rgb(0,0,0)"  stroke-width="3"/>
<line x1="404.8" y1="233.1" x2="408.2" y2="193.9" opacity="1.0" stroke="rgb(0,0,0)"  stroke-width="3"/>
<line x1="408.2" y1="193.9" x2="375.8" y2="171.3" opacity="1.0" stroke="rgb(0,0,0)"  stroke-width="3"/>
<line x1="399.1" y1="196.3" x2="376.6" y2="180.7" opacity="1.0" stroke="rgb(0,0,0)"  stroke-width="3"/>
<line x1="201.3" y1="231.0" x2="200.6" y2="191.6" opacity="1.0" stroke="rgb(0,0,0)"  stroke-width="3"/>
<line x1="208.4" y1="224.8" x2="207.9" y2="197.4" opacity="1.0" stroke="rgb(0,0,0)"  stroke-width="3"/>
<line x1="200.6" y1="191.6" x2="234.4" y2="171.3" opacity="1.0" stroke="rgb(0,0,0)"  stroke-width="3"/>
<line x1="234.4" y1="171.3" x2="268.8" y2="190.4" opacity="1.0" stroke="rgb(0,0,0)"  stroke-width="3"/>
<line x1="236.1" y1="180.5" x2="260.1" y2="193.8" opacity="1.0" stroke="rgb(0,0,0)"  stroke-width="3"/>
<line x1="268.8" y1="190.4" x2="269.5" y2="229.8" opacity="1.0" stroke="rgb(0,0,0)"  stroke-width="3"/>
<line x1="253.5" y1="126.3" x2="273.8" y2="160.0" opacity="1.0" stroke="rgb(0,0,0)"  stroke-width="3"/>
<line x1="262.7" y1="127.7" x2="276.9" y2="151.2" opacity="1.0" stroke="rgb(0,0,0)"  stroke-width="3"/>
<line x1="273.8" y1="160.0" x2="313.2" y2="159.3" opacity="1.0" stroke="rgb(0,0,0)"  stroke-width="3"/>
<line x1="332.3" y1="124.8" x2="311.9" y2="91.0" opacity="1.0" stroke="rgb(0,0,0)"  stroke-width="3"/>
<line x1="311.9" y1="91.0" x2="272.5" y2="91.8" opacity="1.0" stroke="rgb(0,0,0)"  stroke-width="3"/>
<line x1="306.1" y1="98.4" x2="278.7" y2="98.9" opacity="1.0" stroke="rgb(0,0,0)"  stroke-width="3"/>
<line x1="272.5" y1="91.8" x2="253.5" y2="126.3" opacity="1.0" stroke="rgb(0,0,0)"  stroke-width="3"/>
<line x1="271.5" y1="488.3" x2="271.5" y2="527.7" opacity="1.0" stroke="rgb(0,0,0)"  stroke-width="3"/>
<line x1="271.5" y1="527.7" x2="305.7" y2="547.4" opacity="1.0" stroke="rgb(0,0,0)"  stroke-width="3"/>
<line x1="280.3" y1="524.4" x2="304.1" y2="538.1" opacity="1.0" stroke="rgb(0,0,0)"  stroke-width="3"/>
<line x1="305.7" y1="547.4" x2="339.8" y2="527.7" opacity="1.0" stroke="rgb(0,0,0)"  stroke-width="3"/>
<line x1="339.8" y1="527.7" x2="339.8" y2="488.3" opacity="1.0" stroke="rgb(0,0,0)"  stroke-width="3"/>
<line x1="332.6" y1="521.7" x2="332.6" y2="494.3" opacity="1.0" stroke="rgb(0,0,0)"  stroke-width="3"/>
<line x1="339.8" y1="488.3" x2="305.7" y2="468.6" opacity="1.0" stroke="rgb(0,0,0)"  stroke-width="3"/>
<line x1="305.7" y1="468.6" x2="271.5" y2="488.3" opacity="1.0" stroke="rgb(0,0,0)"  stroke-width="3"/>
<line x1="304.1" y1="477.8" x2="280.3" y2="491.5" opacity="1.0" stroke="rgb(0,0,0)"  stroke-width="3"/>
<line x1="408.0" y1="488.3" x2="442.2" y2="468.6" opacity="1.0" stroke="rgb(0,0,0)"  stroke-width="3"/>
<line x1="442.2" y1="468.6" x2="442.2" y2="429.2" opacity="1.0" stroke="rgb(0,0,0)"  stroke-width="3"/>
<line x1="435.0" y1="462.6" x2="435.0" y2="435.2" opacity="1.0" stroke="rgb(0,0,0)"  stroke-width="3"/>
<line x1="442.2" y1="429.2" x2="408.0" y2="409.5" opacity="1.0" stroke="rgb(0,0,0)"  stroke-width="3"/>
<line x1="408.0" y1="409.5" x2="373.9" y2="429.2" opacity="1.0" stroke="rgb(0,0,0)"  stroke-width="3"/>
<line x1="406.4" y1="418.7" x2="382.7" y2="432.4" opacity="1.0" stroke="rgb(0,0,0)"  stroke-width="3"/>
<line x1="373.9" y1="429.2" x2="373.9" y2="468.6" opacity="1.0" stroke="rgb(0,0,0)"  stroke-width="3"/>
<line x1="373.9" y1="468.6" x2="408.0" y2="488.3" opacity="1.0" stroke="rgb(0,0,0)"  stroke-width="3"/>
<line x1="382.7" y1="465.3" x2="406.4" y2="479.0" opacity="1.0" stroke="rgb(0,0,0)"  stroke-width="3"/>
<line x1="339.8" y1="370.1" x2="339.8" y2="409.5" opacity="1.0" stroke="rgb(0,0,0)"  stroke-width="3"/>
<line x1="347.0" y1="376.1" x2="347.0" y2="403.5" opacity="1.0" stroke="rgb(0,0,0)"  stroke-width="3"/>
<line x1="339.8" y1="409.5" x2="373.9" y2="429.2" opacity="1.0" stroke="rgb(0,0,0)"  stroke-width="3"/>
<line x1="408.0" y1="409.5" x2="408.0" y2="370.1" opacity="1.0" stroke="rgb(0,0,0)"  stroke-width="3"/>
<line x1="408.0" y1="370.1" x2="373.9" y2="350.4" opacity="1.0" stroke="rgb(0,0,0)"  stroke-width="3"/>
<line x1="399.2" y1="373.3" x2="375.5" y2="359.6" opacity="1.0" stroke="rgb(0,0,0)"  stroke-width="3"/>
<line x1="373.9" y1="350.4" x2="339.8" y2="370.1" opacity="1.0" stroke="rgb(0,0,0)"  stroke-width="3"/>
<line x1="476.3" y1="527.7" x2="476.3" y2="488.3" opacity="1.0" stroke="rgb(0,0,0)"  stroke-width="3"/>
<line x1="469.1" y1="521.7" x2="469.1" y2="494.3" opacity="1.0" stroke="rgb(0,0,0)"  stroke-width="3"/>
<line x1="476.3" y1="488.3" x2="442.2" y2="468.6" opacity="1.0" stroke="rgb(0,0,0)"  stroke-width="3"/>
<line x1="408.0" y1="488.3" x2="408.0" y2="527.7" opacity="1.0" stroke="rgb(0,0,0)"  stroke-width="3"/>
<line x1="408.0" y1="527.7" x2="442.2" y2="547.4" opacity="1.0" stroke="rgb(0,0,0)"  stroke-width="3"/>
<line x1="416.8" y1="524.4" x2="440.6" y2="538.1" opacity="1.0" stroke="rgb(0,0,0)"  stroke-width="3"/>
<line x1="442.2" y1="547.4" x2="476.3" y2="527.7" opacity="1.0" stroke="rgb(0,0,0)"  stroke-width="3"/>
<line x1="510.4" y1="429.2" x2="544.5" y2="409.5" opacity="1.0" stroke="rgb(0,0,0)"  stroke-width="3"/>
<line x1="544.5" y1="409.5" x2="544.5" y2="370.1" opacity="1.0" stroke="rgb(0,0,0)"  stroke-width="3"/>
<line x1="537.3" y1="403.5" x2="537.3" y2="376.1" opacity="1.0" stroke="rgb(0,0,0)"  stroke-width="3"/>
<line x1="544.5" y1="370.1" x2="510.4" y2="350.4" opacity="1.0" stroke="rgb(0,0,0)"  stroke-width="3"/>
<line x1="510.4" y1="350.4" x2="476.3" y2="370.1" opacity="1.0" stroke="rgb(0,0,0)"  stroke-width="3"/>
<line x1="508.8" y1="359.6" x2="485.1" y2="373.3" opacity="1.0" stroke="rgb(0,0,0)"  stroke-width="3"/>
<line x1="476.3" y1="370.1" x2="476.3" y2="409.5" opacity="1.0" stroke="rgb(0,0,0)"  stroke-width="3"/>
<line x1="476.3" y1="409.5" x2="510.4" y2="429.2" opacity="1.0" stroke="rgb(0,0,0)"  stroke-width="3"/>
<line x1="485.1" y1="406.2" x2="508.8" y2="419.9" opacity="1.0" stroke="rgb(0,0,0)"  stroke-width="3"/>
<line x1="437.4" y1="116.8" x2="466.2" y2="89.8" opacity="1.0" stroke="rgb(0,0,0)"  stroke-width="3"/>
<line x1="466.2" y1="89.8" x2="457.3" y2="51.5" opacity="1.0" stroke="rgb(0,0,0)"  stroke-width="3"/>
<line x1="457.8" y1="85.6" x2="451.6" y2="58.9" opacity="1.0" stroke="rgb(0,0,0)"  stroke-width="3"/>
<line x1="457.3" y1="51.5" x2="419.6" y2="40.0" opacity="1.0" stroke="rgb(0,0,0)"  stroke-width="3"/>
<line x1="419.6" y1="40.0" x2="390.8" y2="66.9" opacity="1.0" stroke="rgb(0,0,0)"  stroke-width="3"/>
<line x1="420.1" y1="49.4" x2="400.1" y2="68.1" opacity="1.0" stroke="rgb(0,0,0)"  stroke-width="3"/>
<line x1="390.8" y1="66.9" x2="399.7" y2="105.3" opacity="1.0" stroke="rgb(0,0,0)"  stroke-width="3"/>
<line x1="399.7" y1="105.3" x2="437.4" y2="116.8" opacity="1.0" stroke="rgb(0,0,0)"  stroke-width="3"/>
<line x1="407.6" y1="100.2" x2="433.8" y2="108.1" opacity="1.0" stroke="rgb(0,0,0)"  stroke-width="3"/>
<line x1="246.3" y1="104.0" x2="232.8" y2="66.8" opacity="1.0" stroke="rgb(0,0,0)"  stroke-width="3"/>
<line x1="232.8" y1="66.8" x2="193.9" y2="59.9" opacity="1.0" stroke="rgb(0,0,0)"  stroke-width="3"/>
<line x1="225.6" y1="72.9" x2="198.5" y2="68.1" opacity="1.0" stroke="rgb(0,0,0)"  stroke-width="3"/>
<line x1="193.9" y1="59.9" x2="168.4" y2="90.2" opacity="1.0" stroke="rgb(0,0,0)"  stroke-width="3"/>
<line x1="168.4" y1="90.2" x2="182.0" y2="127.4" opacity="1.0" stroke="rgb(0,0,0)"  stroke-width="3"/>
<line x1="177.3" y1="93.4" x2="186.7" y2="119.3" opacity="1.0" stroke="rgb(0,0,0)"  stroke-width="3"/>
<line x1="182.0" y1="127.4" x2="220.9" y2="134.2" opacity="1.0" stroke="rgb(0,0,0)"  stroke-width="3"/>
<line x1="220.9" y1="134.2" x2="246.3" y2="104.0" opacity="1.0" stroke="rgb(0,0,0)"  stroke-width="3"/>
<line x1="219.2" y1="125.0" x2="237.0" y2="103.9" opacity="1.0" stroke="rgb(0,0,0)"  stroke-width="3"/>
<line x1="79.5" y1="365.0" x2="118.9" y2="365.0" opacity="1.0" stroke="rgb(0,0,0)"  stroke-width="3"/>
<line x1="118.9" y1="365.0" x2="139.3" y2="331.3" opacity="1.0" stroke="rgb(0,0,0)"  stroke-width="3"/>
<line x1="118.9" y1="297.5" x2="79.5" y2="297.5" opacity="1.0" stroke="rgb(0,0,0)"  stroke-width="3"/>
<line x1="79.5" y1="297.5" x2="60.5" y2="331.3" opacity="1.0" stroke="rgb(0,0,0)"  stroke-width="3"/>
<line x1="60.5" y1="331.3" x2="79.5" y2="365.0" opacity="1.0" stroke="rgb(0,0,0)"  stroke-width="3"/>
<text x="364.964283" y="140.230412" fill="rgb(12,12,255)" stroke-width="0" font-weight="bold" font-size="25.92" >N</text>
<text x="367.987209" y="296.954236" fill="rgb(12,12,255)" stroke-width="0" font-weight="bold" font-size="25.92" >N</text>
<text x="230.587180" y="297.468562" fill="rgb(12,12,255)" stroke-width="0" font-weight="bold" font-size="25.92" >N</text>
<text x="297.914102" y="257.026655" fill="rgb(255,181,181)" stroke-width="0" font-weight="bold" font-size="25.92" >B</text>
</svg>
</g>
</svg>
