<?xml version="1.0"?>
<svg version="1.1" id="topsvg"
xmlns="http://www.w3.org/2000/svg" xmlns:xlink="http://www.w3.org/1999/xlink"
xmlns:cml="http://www.xml-cml.org/schema" x="0" y="0" width="200px" height="200px" viewBox="0 0 100 100">
<title>GD181.sdf - Open Babel Depiction</title>
<rect x="0" y="0" width="100" height="100" fill="white"/>
<g transform="translate(0,0)">
<svg width="100" height="100" x="0" y="0" viewBox="0 0 521.807 610.436"
font-family="sans-serif" stroke="rgb(0,0,0)" stroke-width="3"  stroke-linecap="round">
<line x1="75.7" y1="334.1" x2="111.5" y2="318.8" opacity="1.0" stroke="rgb(0,0,0)"  stroke-width="3"/>
<line x1="165.2" y1="160.7" x2="145.8" y2="127.0" opacity="1.0" stroke="rgb(0,0,0)"  stroke-width="3"/>
<line x1="145.8" y1="127.0" x2="126.3" y2="93.3" opacity="1.0" stroke="rgb(0,0,0)"  stroke-width="3"/>
<line x1="145.8" y1="127.0" x2="165.2" y2="93.3" opacity="1.0" stroke="rgb(0,0,0)"  stroke-width="3"/>
<line x1="145.8" y1="127.0" x2="106.9" y2="127.0" opacity="1.0" stroke="rgb(0,0,0)"  stroke-width="3"/>
<line x1="75.7" y1="334.1" x2="40.0" y2="349.5" opacity="1.0" stroke="rgb(0,0,0)"  stroke-width="3"/>
<line x1="75.7" y1="334.1" x2="71.1" y2="372.7" opacity="1.0" stroke="rgb(0,0,0)"  stroke-width="3"/>
<line x1="75.7" y1="334.1" x2="44.6" y2="310.8" opacity="1.0" stroke="rgb(0,0,0)"  stroke-width="3"/>
<line x1="391.7" y1="111.5" x2="414.2" y2="98.5" opacity="1.0" stroke="rgb(0,0,0)"  stroke-width="3"/>
<line x1="151.8" y1="264.9" x2="164.3" y2="228.0" opacity="1.0" stroke="rgb(0,0,0)"  stroke-width="3"/>
<line x1="164.3" y1="228.0" x2="203.2" y2="228.6" opacity="1.0" stroke="rgb(0,0,0)"  stroke-width="3"/>
<line x1="170.2" y1="235.3" x2="197.1" y2="235.7" opacity="1.0" stroke="rgb(0,0,0)"  stroke-width="3"/>
<line x1="203.2" y1="228.6" x2="210.9" y2="253.3" opacity="1.0" stroke="rgb(0,0,0)"  stroke-width="3"/>
<line x1="204.1" y1="273.2" x2="182.9" y2="288.1" opacity="1.0" stroke="rgb(0,0,0)"  stroke-width="3"/>
<line x1="182.9" y1="288.1" x2="151.8" y2="264.9" opacity="1.0" stroke="rgb(0,0,0)"  stroke-width="3"/>
<line x1="182.4" y1="278.8" x2="160.9" y2="262.7" opacity="1.0" stroke="rgb(0,0,0)"  stroke-width="3"/>
<line x1="409.8" y1="256.3" x2="383.8" y2="285.2" opacity="1.0" stroke="rgb(0,0,0)"  stroke-width="3"/>
<line x1="400.4" y1="255.9" x2="382.5" y2="275.9" opacity="1.0" stroke="rgb(0,0,0)"  stroke-width="3"/>
<line x1="383.8" y1="285.2" x2="360.1" y2="274.6" opacity="1.0" stroke="rgb(0,0,0)"  stroke-width="3"/>
<line x1="349.6" y1="256.4" x2="352.3" y2="230.7" opacity="1.0" stroke="rgb(0,0,0)"  stroke-width="3"/>
<line x1="352.3" y1="230.7" x2="390.4" y2="222.6" opacity="1.0" stroke="rgb(0,0,0)"  stroke-width="3"/>
<line x1="359.7" y1="236.5" x2="386.0" y2="230.9" opacity="1.0" stroke="rgb(0,0,0)"  stroke-width="3"/>
<line x1="390.4" y1="222.6" x2="409.8" y2="256.3" opacity="1.0" stroke="rgb(0,0,0)"  stroke-width="3"/>
<line x1="344.9" y1="102.2" x2="368.6" y2="112.8" opacity="1.0" stroke="rgb(0,0,0)"  stroke-width="3"/>
<line x1="379.1" y1="131.0" x2="376.4" y2="156.7" opacity="1.0" stroke="rgb(0,0,0)"  stroke-width="3"/>
<line x1="376.4" y1="156.7" x2="338.3" y2="164.8" opacity="1.0" stroke="rgb(0,0,0)"  stroke-width="3"/>
<line x1="338.3" y1="164.8" x2="318.9" y2="131.1" opacity="1.0" stroke="rgb(0,0,0)"  stroke-width="3"/>
<line x1="318.9" y1="131.1" x2="344.9" y2="102.2" opacity="1.0" stroke="rgb(0,0,0)"  stroke-width="3"/>
<line x1="328.3" y1="131.5" x2="346.2" y2="111.5" opacity="1.0" stroke="rgb(0,0,0)"  stroke-width="3"/>
<line x1="261.4" y1="503.4" x2="281.5" y2="461.0" opacity="1.0" stroke="rgb(0,0,0)"  stroke-width="3"/>
<line x1="281.5" y1="461.0" x2="247.5" y2="442.0" opacity="1.0" stroke="rgb(0,0,0)"  stroke-width="3"/>
<line x1="247.5" y1="442.0" x2="225.3" y2="455.3" opacity="1.0" stroke="rgb(0,0,0)"  stroke-width="3"/>
<line x1="217.0" y1="474.6" x2="222.7" y2="499.8" opacity="1.0" stroke="rgb(0,0,0)"  stroke-width="3"/>
<line x1="222.7" y1="499.8" x2="261.4" y2="503.4" opacity="1.0" stroke="rgb(0,0,0)"  stroke-width="3"/>
<line x1="229.4" y1="493.2" x2="256.1" y2="495.7" opacity="1.0" stroke="rgb(0,0,0)"  stroke-width="3"/>
<line x1="246.2" y1="325.8" x2="279.3" y2="346.2" opacity="1.0" stroke="rgb(0,0,0)"  stroke-width="3"/>
<line x1="279.3" y1="346.2" x2="313.5" y2="327.7" opacity="1.0" stroke="rgb(0,0,0)"  stroke-width="3"/>
<line x1="281.2" y1="337.0" x2="304.8" y2="324.2" opacity="1.0" stroke="rgb(0,0,0)"  stroke-width="3"/>
<line x1="313.5" y1="327.7" x2="314.6" y2="288.8" opacity="1.0" stroke="rgb(0,0,0)"  stroke-width="3"/>
<line x1="314.6" y1="288.8" x2="281.5" y2="268.4" opacity="1.0" stroke="rgb(0,0,0)"  stroke-width="3"/>
<line x1="305.7" y1="291.8" x2="282.8" y2="277.7" opacity="1.0" stroke="rgb(0,0,0)"  stroke-width="3"/>
<line x1="281.5" y1="268.4" x2="247.3" y2="287.0" opacity="1.0" stroke="rgb(0,0,0)"  stroke-width="3"/>
<line x1="247.3" y1="287.0" x2="246.2" y2="325.8" opacity="1.0" stroke="rgb(0,0,0)"  stroke-width="3"/>
<line x1="254.3" y1="293.1" x2="253.6" y2="320.0" opacity="1.0" stroke="rgb(0,0,0)"  stroke-width="3"/>
<line x1="203.2" y1="228.6" x2="223.1" y2="195.2" opacity="1.0" stroke="rgb(0,0,0)"  stroke-width="3"/>
<line x1="223.1" y1="195.2" x2="270.3" y2="223.0" opacity="1.0" stroke="rgb(0,0,0)"  stroke-width="3"/>
<line x1="281.5" y1="242.6" x2="281.5" y2="268.4" opacity="1.0" stroke="rgb(0,0,0)"  stroke-width="3"/>
<line x1="247.3" y1="287.0" x2="225.6" y2="272.8" opacity="1.0" stroke="rgb(0,0,0)"  stroke-width="3"/>
<line x1="111.5" y1="318.8" x2="142.6" y2="342.1" opacity="1.0" stroke="rgb(0,0,0)"  stroke-width="3"/>
<line x1="142.6" y1="342.1" x2="178.3" y2="326.7" opacity="1.0" stroke="rgb(0,0,0)"  stroke-width="3"/>
<line x1="145.3" y1="333.1" x2="170.0" y2="322.5" opacity="1.0" stroke="rgb(0,0,0)"  stroke-width="3"/>
<line x1="178.3" y1="326.7" x2="182.9" y2="288.1" opacity="1.0" stroke="rgb(0,0,0)"  stroke-width="3"/>
<line x1="151.8" y1="264.9" x2="116.1" y2="280.2" opacity="1.0" stroke="rgb(0,0,0)"  stroke-width="3"/>
<line x1="116.1" y1="280.2" x2="111.5" y2="318.8" opacity="1.0" stroke="rgb(0,0,0)"  stroke-width="3"/>
<line x1="122.5" y1="287.0" x2="119.3" y2="313.7" opacity="1.0" stroke="rgb(0,0,0)"  stroke-width="3"/>
<line x1="337.0" y1="275.8" x2="314.6" y2="288.8" opacity="1.0" stroke="rgb(0,0,0)"  stroke-width="3"/>
<line x1="292.5" y1="222.7" x2="326.3" y2="201.8" opacity="1.0" stroke="rgb(0,0,0)"  stroke-width="3"/>
<line x1="326.3" y1="201.8" x2="352.3" y2="230.7" opacity="1.0" stroke="rgb(0,0,0)"  stroke-width="3"/>
<line x1="459.9" y1="301.3" x2="433.8" y2="330.2" opacity="1.0" stroke="rgb(0,0,0)"  stroke-width="3"/>
<line x1="433.8" y1="330.2" x2="395.8" y2="322.1" opacity="1.0" stroke="rgb(0,0,0)"  stroke-width="3"/>
<line x1="429.5" y1="321.9" x2="403.2" y2="316.3" opacity="1.0" stroke="rgb(0,0,0)"  stroke-width="3"/>
<line x1="395.8" y1="322.1" x2="383.8" y2="285.2" opacity="1.0" stroke="rgb(0,0,0)"  stroke-width="3"/>
<line x1="409.8" y1="256.3" x2="447.8" y2="264.3" opacity="1.0" stroke="rgb(0,0,0)"  stroke-width="3"/>
<line x1="447.8" y1="264.3" x2="459.9" y2="301.3" opacity="1.0" stroke="rgb(0,0,0)"  stroke-width="3"/>
<line x1="442.9" y1="272.3" x2="451.2" y2="297.8" opacity="1.0" stroke="rgb(0,0,0)"  stroke-width="3"/>
<line x1="338.3" y1="164.8" x2="326.3" y2="201.8" opacity="1.0" stroke="rgb(0,0,0)"  stroke-width="3"/>
<line x1="343.3" y1="172.7" x2="335.0" y2="198.3" opacity="1.0" stroke="rgb(0,0,0)"  stroke-width="3"/>
<line x1="390.4" y1="222.6" x2="402.4" y2="185.6" opacity="1.0" stroke="rgb(0,0,0)"  stroke-width="3"/>
<line x1="402.4" y1="185.6" x2="376.4" y2="156.7" opacity="1.0" stroke="rgb(0,0,0)"  stroke-width="3"/>
<line x1="393.0" y1="186.0" x2="375.0" y2="166.0" opacity="1.0" stroke="rgb(0,0,0)"  stroke-width="3"/>
<line x1="164.3" y1="228.0" x2="145.3" y2="194.1" opacity="1.0" stroke="rgb(0,0,0)"  stroke-width="3"/>
<line x1="145.3" y1="194.1" x2="165.2" y2="160.7" opacity="1.0" stroke="rgb(0,0,0)"  stroke-width="3"/>
<line x1="154.6" y1="192.6" x2="168.3" y2="169.5" opacity="1.0" stroke="rgb(0,0,0)"  stroke-width="3"/>
<line x1="165.2" y1="160.7" x2="204.1" y2="161.2" opacity="1.0" stroke="rgb(0,0,0)"  stroke-width="3"/>
<line x1="204.1" y1="161.2" x2="223.1" y2="195.2" opacity="1.0" stroke="rgb(0,0,0)"  stroke-width="3"/>
<line x1="200.8" y1="170.0" x2="213.9" y2="193.4" opacity="1.0" stroke="rgb(0,0,0)"  stroke-width="3"/>
<line x1="112.8" y1="443.8" x2="146.8" y2="462.8" opacity="1.0" stroke="rgb(0,0,0)"  stroke-width="3"/>
<line x1="121.6" y1="440.5" x2="145.1" y2="453.6" opacity="1.0" stroke="rgb(0,0,0)"  stroke-width="3"/>
<line x1="146.8" y1="462.8" x2="180.2" y2="442.9" opacity="1.0" stroke="rgb(0,0,0)"  stroke-width="3"/>
<line x1="180.2" y1="442.9" x2="179.7" y2="404.0" opacity="1.0" stroke="rgb(0,0,0)"  stroke-width="3"/>
<line x1="172.9" y1="437.0" x2="172.5" y2="410.1" opacity="1.0" stroke="rgb(0,0,0)"  stroke-width="3"/>
<line x1="179.7" y1="404.0" x2="145.7" y2="385.1" opacity="1.0" stroke="rgb(0,0,0)"  stroke-width="3"/>
<line x1="145.7" y1="385.1" x2="112.3" y2="405.0" opacity="1.0" stroke="rgb(0,0,0)"  stroke-width="3"/>
<line x1="144.3" y1="394.3" x2="121.2" y2="408.1" opacity="1.0" stroke="rgb(0,0,0)"  stroke-width="3"/>
<line x1="112.3" y1="405.0" x2="112.8" y2="443.8" opacity="1.0" stroke="rgb(0,0,0)"  stroke-width="3"/>
<line x1="314.3" y1="402.2" x2="280.4" y2="383.2" opacity="1.0" stroke="rgb(0,0,0)"  stroke-width="3"/>
<line x1="305.6" y1="405.6" x2="282.1" y2="392.4" opacity="1.0" stroke="rgb(0,0,0)"  stroke-width="3"/>
<line x1="280.4" y1="383.2" x2="247.0" y2="403.1" opacity="1.0" stroke="rgb(0,0,0)"  stroke-width="3"/>
<line x1="247.0" y1="403.1" x2="247.5" y2="442.0" opacity="1.0" stroke="rgb(0,0,0)"  stroke-width="3"/>
<line x1="254.3" y1="409.0" x2="254.6" y2="435.9" opacity="1.0" stroke="rgb(0,0,0)"  stroke-width="3"/>
<line x1="281.5" y1="461.0" x2="314.9" y2="441.1" opacity="1.0" stroke="rgb(0,0,0)"  stroke-width="3"/>
<line x1="282.9" y1="451.7" x2="306.0" y2="438.0" opacity="1.0" stroke="rgb(0,0,0)"  stroke-width="3"/>
<line x1="314.9" y1="441.1" x2="314.3" y2="402.2" opacity="1.0" stroke="rgb(0,0,0)"  stroke-width="3"/>
<line x1="255.3" y1="570.4" x2="277.7" y2="538.7" opacity="1.0" stroke="rgb(0,0,0)"  stroke-width="3"/>
<line x1="252.9" y1="561.4" x2="268.4" y2="539.4" opacity="1.0" stroke="rgb(0,0,0)"  stroke-width="3"/>
<line x1="277.7" y1="538.7" x2="261.4" y2="503.4" opacity="1.0" stroke="rgb(0,0,0)"  stroke-width="3"/>
<line x1="222.7" y1="499.8" x2="200.3" y2="531.6" opacity="1.0" stroke="rgb(0,0,0)"  stroke-width="3"/>
<line x1="200.3" y1="531.6" x2="216.6" y2="566.9" opacity="1.0" stroke="rgb(0,0,0)"  stroke-width="3"/>
<line x1="209.4" y1="534.0" x2="220.6" y2="558.4" opacity="1.0" stroke="rgb(0,0,0)"  stroke-width="3"/>
<line x1="216.6" y1="566.9" x2="255.3" y2="570.4" opacity="1.0" stroke="rgb(0,0,0)"  stroke-width="3"/>
<line x1="268.8" y1="86.1" x2="280.9" y2="123.0" opacity="1.0" stroke="rgb(0,0,0)"  stroke-width="3"/>
<line x1="277.5" y1="89.5" x2="285.8" y2="115.1" opacity="1.0" stroke="rgb(0,0,0)"  stroke-width="3"/>
<line x1="280.9" y1="123.0" x2="318.9" y2="131.1" opacity="1.0" stroke="rgb(0,0,0)"  stroke-width="3"/>
<line x1="344.9" y1="102.2" x2="332.9" y2="65.2" opacity="1.0" stroke="rgb(0,0,0)"  stroke-width="3"/>
<line x1="332.9" y1="65.2" x2="294.9" y2="57.2" opacity="1.0" stroke="rgb(0,0,0)"  stroke-width="3"/>
<line x1="325.5" y1="71.0" x2="299.2" y2="65.4" opacity="1.0" stroke="rgb(0,0,0)"  stroke-width="3"/>
<line x1="294.9" y1="57.2" x2="268.8" y2="86.1" opacity="1.0" stroke="rgb(0,0,0)"  stroke-width="3"/>
<line x1="448.0" y1="118.0" x2="481.8" y2="98.5" opacity="1.0" stroke="rgb(0,0,0)"  stroke-width="3"/>
<line x1="481.8" y1="98.5" x2="481.8" y2="59.5" opacity="1.0" stroke="rgb(0,0,0)"  stroke-width="3"/>
<line x1="474.6" y1="92.5" x2="474.6" y2="65.5" opacity="1.0" stroke="rgb(0,0,0)"  stroke-width="3"/>
<line x1="481.8" y1="59.5" x2="448.0" y2="40.0" opacity="1.0" stroke="rgb(0,0,0)"  stroke-width="3"/>
<line x1="448.0" y1="40.0" x2="414.2" y2="59.5" opacity="1.0" stroke="rgb(0,0,0)"  stroke-width="3"/>
<line x1="446.4" y1="49.2" x2="423.0" y2="62.7" opacity="1.0" stroke="rgb(0,0,0)"  stroke-width="3"/>
<line x1="414.2" y1="59.5" x2="414.2" y2="98.5" opacity="1.0" stroke="rgb(0,0,0)"  stroke-width="3"/>
<line x1="414.2" y1="98.5" x2="448.0" y2="118.0" opacity="1.0" stroke="rgb(0,0,0)"  stroke-width="3"/>
<line x1="423.0" y1="95.3" x2="446.4" y2="108.8" opacity="1.0" stroke="rgb(0,0,0)"  stroke-width="3"/>
<line x1="178.3" y1="326.7" x2="212.8" y2="364.7" opacity="1.0" stroke="rgb(0,0,0)"  stroke-width="3"/>
<line x1="212.8" y1="364.7" x2="246.2" y2="325.8" opacity="1.0" stroke="rgb(0,0,0)"  stroke-width="3"/>
<line x1="180.2" y1="442.9" x2="202.8" y2="455.6" opacity="1.0" stroke="rgb(0,0,0)"  stroke-width="3"/>
<line x1="247.0" y1="403.1" x2="212.8" y2="364.7" opacity="1.0" stroke="rgb(0,0,0)"  stroke-width="3"/>
<line x1="212.8" y1="364.7" x2="179.7" y2="404.0" opacity="1.0" stroke="rgb(0,0,0)"  stroke-width="3"/>
<text x="208.125142" y="469.907381" fill="rgb(12,12,255)" stroke-width="0" font-weight="bold" font-size="25.92" >N</text>
<text x="374.430698" y="126.039311" fill="rgb(12,12,255)" stroke-width="0" font-weight="bold" font-size="25.92" >N</text>
<text x="342.269941" y="277.343820" fill="rgb(12,12,255)" stroke-width="0" font-weight="bold" font-size="25.92" >N</text>
<text x="208.703295" y="273.708985" fill="rgb(12,12,255)" stroke-width="0" font-weight="bold" font-size="25.92" >N</text>
<text x="275.461953" y="237.550724" fill="rgb(255,181,181)" stroke-width="0" font-weight="bold" font-size="25.92" >B</text>
</svg>
</g>
</svg>
