<?xml version="1.0"?>
<svg version="1.1" id="topsvg"
xmlns="http://www.w3.org/2000/svg" xmlns:xlink="http://www.w3.org/1999/xlink"
xmlns:cml="http://www.xml-cml.org/schema" x="0" y="0" width="200px" height="200px" viewBox="0 0 100 100">
<title>GD187.sdf - Open Babel Depiction</title>
<rect x="0" y="0" width="100" height="100" fill="white"/>
<g transform="translate(0,0)">
<svg width="100" height="100" x="0" y="0" viewBox="0 0 545.968 494.641"
font-family="sans-serif" stroke="rgb(0,0,0)" stroke-width="3"  stroke-linecap="round">
<line x1="317.1" y1="374.6" x2="317.1" y2="334.6" opacity="1.0" stroke="rgb(0,0,0)"  stroke-width="3"/>
<line x1="213.2" y1="154.6" x2="178.6" y2="134.6" opacity="1.0" stroke="rgb(0,0,0)"  stroke-width="3"/>
<line x1="74.6" y1="74.6" x2="54.6" y2="40.0" opacity="1.0" stroke="rgb(0,0,0)"  stroke-width="3"/>
<line x1="74.6" y1="74.6" x2="94.6" y2="40.0" opacity="1.0" stroke="rgb(0,0,0)"  stroke-width="3"/>
<line x1="74.6" y1="154.6" x2="54.6" y2="189.3" opacity="1.0" stroke="rgb(0,0,0)"  stroke-width="3"/>
<line x1="74.6" y1="154.6" x2="94.6" y2="189.3" opacity="1.0" stroke="rgb(0,0,0)"  stroke-width="3"/>
<line x1="282.5" y1="394.6" x2="247.8" y2="374.6" opacity="1.0" stroke="rgb(0,0,0)"  stroke-width="3"/>
<line x1="204.5" y1="326.5" x2="188.3" y2="290.0" opacity="1.0" stroke="rgb(0,0,0)"  stroke-width="3"/>
<line x1="446.0" y1="225.9" x2="421.1" y2="194.6" opacity="1.0" stroke="rgb(0,0,0)"  stroke-width="3"/>
<line x1="421.1" y1="194.6" x2="386.4" y2="214.6" opacity="1.0" stroke="rgb(0,0,0)"  stroke-width="3"/>
<line x1="419.5" y1="203.9" x2="395.2" y2="217.9" opacity="1.0" stroke="rgb(0,0,0)"  stroke-width="3"/>
<line x1="386.4" y1="214.6" x2="386.4" y2="241.6" opacity="1.0" stroke="rgb(0,0,0)"  stroke-width="3"/>
<line x1="399.3" y1="256.6" x2="426.0" y2="260.6" opacity="1.0" stroke="rgb(0,0,0)"  stroke-width="3"/>
<line x1="426.0" y1="260.6" x2="446.0" y2="225.9" opacity="1.0" stroke="rgb(0,0,0)"  stroke-width="3"/>
<line x1="422.7" y1="251.8" x2="436.7" y2="227.5" opacity="1.0" stroke="rgb(0,0,0)"  stroke-width="3"/>
<line x1="417.3" y1="87.5" x2="390.8" y2="92.9" opacity="1.0" stroke="rgb(0,0,0)"  stroke-width="3"/>
<line x1="380.8" y1="108.2" x2="386.4" y2="134.6" opacity="1.0" stroke="rgb(0,0,0)"  stroke-width="3"/>
<line x1="386.4" y1="134.6" x2="421.1" y2="154.6" opacity="1.0" stroke="rgb(0,0,0)"  stroke-width="3"/>
<line x1="395.2" y1="131.4" x2="419.5" y2="145.4" opacity="1.0" stroke="rgb(0,0,0)"  stroke-width="3"/>
<line x1="421.1" y1="154.6" x2="440.8" y2="119.9" opacity="1.0" stroke="rgb(0,0,0)"  stroke-width="3"/>
<line x1="440.8" y1="119.9" x2="417.3" y2="87.5" opacity="1.0" stroke="rgb(0,0,0)"  stroke-width="3"/>
<line x1="431.4" y1="119.2" x2="415.0" y2="96.6" opacity="1.0" stroke="rgb(0,0,0)"  stroke-width="3"/>
<line x1="338.3" y1="91.3" x2="322.0" y2="127.9" opacity="1.0" stroke="rgb(0,0,0)"  stroke-width="3"/>
<line x1="342.5" y1="99.7" x2="331.1" y2="125.3" opacity="1.0" stroke="rgb(0,0,0)"  stroke-width="3"/>
<line x1="322.0" y1="127.9" x2="351.8" y2="154.6" opacity="1.0" stroke="rgb(0,0,0)"  stroke-width="3"/>
<line x1="351.8" y1="154.6" x2="386.4" y2="134.6" opacity="1.0" stroke="rgb(0,0,0)"  stroke-width="3"/>
<line x1="365.2" y1="94.2" x2="338.3" y2="91.3" opacity="1.0" stroke="rgb(0,0,0)"  stroke-width="3"/>
<line x1="211.3" y1="390.9" x2="184.5" y2="361.2" opacity="1.0" stroke="rgb(0,0,0)"  stroke-width="3"/>
<line x1="184.5" y1="361.2" x2="204.5" y2="326.5" opacity="1.0" stroke="rgb(0,0,0)"  stroke-width="3"/>
<line x1="204.5" y1="326.5" x2="243.7" y2="334.9" opacity="1.0" stroke="rgb(0,0,0)"  stroke-width="3"/>
<line x1="208.9" y1="334.8" x2="236.3" y2="340.7" opacity="1.0" stroke="rgb(0,0,0)"  stroke-width="3"/>
<line x1="243.7" y1="334.9" x2="247.8" y2="374.6" opacity="1.0" stroke="rgb(0,0,0)"  stroke-width="3"/>
<line x1="247.8" y1="374.6" x2="211.3" y2="390.9" opacity="1.0" stroke="rgb(0,0,0)"  stroke-width="3"/>
<line x1="239.4" y1="370.5" x2="213.9" y2="381.9" opacity="1.0" stroke="rgb(0,0,0)"  stroke-width="3"/>
<line x1="351.8" y1="314.6" x2="317.1" y2="334.6" opacity="1.0" stroke="rgb(0,0,0)"  stroke-width="3"/>
<line x1="317.1" y1="334.6" x2="282.5" y2="314.6" opacity="1.0" stroke="rgb(0,0,0)"  stroke-width="3"/>
<line x1="315.5" y1="325.4" x2="291.3" y2="311.4" opacity="1.0" stroke="rgb(0,0,0)"  stroke-width="3"/>
<line x1="282.5" y1="314.6" x2="282.5" y2="274.6" opacity="1.0" stroke="rgb(0,0,0)"  stroke-width="3"/>
<line x1="282.5" y1="274.6" x2="317.1" y2="254.6" opacity="1.0" stroke="rgb(0,0,0)"  stroke-width="3"/>
<line x1="291.3" y1="277.9" x2="315.5" y2="263.9" opacity="1.0" stroke="rgb(0,0,0)"  stroke-width="3"/>
<line x1="317.1" y1="254.6" x2="351.8" y2="274.6" opacity="1.0" stroke="rgb(0,0,0)"  stroke-width="3"/>
<line x1="351.8" y1="274.6" x2="351.8" y2="314.6" opacity="1.0" stroke="rgb(0,0,0)"  stroke-width="3"/>
<line x1="344.6" y1="280.6" x2="344.6" y2="308.6" opacity="1.0" stroke="rgb(0,0,0)"  stroke-width="3"/>
<line x1="386.4" y1="214.6" x2="351.8" y2="194.6" opacity="1.0" stroke="rgb(0,0,0)"  stroke-width="3"/>
<line x1="351.8" y1="194.6" x2="328.4" y2="208.1" opacity="1.0" stroke="rgb(0,0,0)"  stroke-width="3"/>
<line x1="317.1" y1="227.6" x2="317.1" y2="254.6" opacity="1.0" stroke="rgb(0,0,0)"  stroke-width="3"/>
<line x1="351.8" y1="274.6" x2="375.2" y2="261.1" opacity="1.0" stroke="rgb(0,0,0)"  stroke-width="3"/>
<line x1="486.0" y1="295.2" x2="506.0" y2="260.6" opacity="1.0" stroke="rgb(0,0,0)"  stroke-width="3"/>
<line x1="506.0" y1="260.6" x2="486.0" y2="225.9" opacity="1.0" stroke="rgb(0,0,0)"  stroke-width="3"/>
<line x1="496.7" y1="259.0" x2="482.7" y2="234.7" opacity="1.0" stroke="rgb(0,0,0)"  stroke-width="3"/>
<line x1="486.0" y1="225.9" x2="446.0" y2="225.9" opacity="1.0" stroke="rgb(0,0,0)"  stroke-width="3"/>
<line x1="426.0" y1="260.6" x2="446.0" y2="295.2" opacity="1.0" stroke="rgb(0,0,0)"  stroke-width="3"/>
<line x1="446.0" y1="295.2" x2="486.0" y2="295.2" opacity="1.0" stroke="rgb(0,0,0)"  stroke-width="3"/>
<line x1="452.0" y1="288.0" x2="480.0" y2="288.0" opacity="1.0" stroke="rgb(0,0,0)"  stroke-width="3"/>
<line x1="247.8" y1="214.6" x2="247.8" y2="241.6" opacity="1.0" stroke="rgb(0,0,0)"  stroke-width="3"/>
<line x1="259.1" y1="261.1" x2="282.5" y2="274.6" opacity="1.0" stroke="rgb(0,0,0)"  stroke-width="3"/>
<line x1="305.9" y1="208.1" x2="282.5" y2="194.6" opacity="1.0" stroke="rgb(0,0,0)"  stroke-width="3"/>
<line x1="282.5" y1="194.6" x2="247.8" y2="214.6" opacity="1.0" stroke="rgb(0,0,0)"  stroke-width="3"/>
<line x1="247.8" y1="134.6" x2="282.5" y2="154.6" opacity="1.0" stroke="rgb(0,0,0)"  stroke-width="3"/>
<line x1="282.5" y1="154.6" x2="282.5" y2="194.6" opacity="1.0" stroke="rgb(0,0,0)"  stroke-width="3"/>
<line x1="275.3" y1="160.6" x2="275.3" y2="188.6" opacity="1.0" stroke="rgb(0,0,0)"  stroke-width="3"/>
<line x1="247.8" y1="214.6" x2="213.2" y2="194.6" opacity="1.0" stroke="rgb(0,0,0)"  stroke-width="3"/>
<line x1="246.2" y1="205.4" x2="222.0" y2="191.4" opacity="1.0" stroke="rgb(0,0,0)"  stroke-width="3"/>
<line x1="213.2" y1="194.6" x2="213.2" y2="154.6" opacity="1.0" stroke="rgb(0,0,0)"  stroke-width="3"/>
<line x1="213.2" y1="154.6" x2="247.8" y2="134.6" opacity="1.0" stroke="rgb(0,0,0)"  stroke-width="3"/>
<line x1="222.0" y1="157.9" x2="246.2" y2="143.9" opacity="1.0" stroke="rgb(0,0,0)"  stroke-width="3"/>
<line x1="421.1" y1="194.6" x2="421.1" y2="154.6" opacity="1.0" stroke="rgb(0,0,0)"  stroke-width="3"/>
<line x1="351.8" y1="154.6" x2="351.8" y2="194.6" opacity="1.0" stroke="rgb(0,0,0)"  stroke-width="3"/>
<line x1="359.0" y1="160.6" x2="359.0" y2="188.6" opacity="1.0" stroke="rgb(0,0,0)"  stroke-width="3"/>
<line x1="275.0" y1="63.2" x2="258.8" y2="99.7" opacity="1.0" stroke="rgb(0,0,0)"  stroke-width="3"/>
<line x1="258.8" y1="99.7" x2="282.3" y2="132.1" opacity="1.0" stroke="rgb(0,0,0)"  stroke-width="3"/>
<line x1="268.1" y1="100.3" x2="284.6" y2="123.0" opacity="1.0" stroke="rgb(0,0,0)"  stroke-width="3"/>
<line x1="282.3" y1="132.1" x2="322.0" y2="127.9" opacity="1.0" stroke="rgb(0,0,0)"  stroke-width="3"/>
<line x1="338.3" y1="91.3" x2="314.8" y2="59.0" opacity="1.0" stroke="rgb(0,0,0)"  stroke-width="3"/>
<line x1="314.8" y1="59.0" x2="275.0" y2="63.2" opacity="1.0" stroke="rgb(0,0,0)"  stroke-width="3"/>
<line x1="309.6" y1="66.8" x2="281.7" y2="69.7" opacity="1.0" stroke="rgb(0,0,0)"  stroke-width="3"/>
<line x1="351.8" y1="394.6" x2="351.8" y2="434.6" opacity="1.0" stroke="rgb(0,0,0)"  stroke-width="3"/>
<line x1="351.8" y1="434.6" x2="317.1" y2="454.6" opacity="1.0" stroke="rgb(0,0,0)"  stroke-width="3"/>
<line x1="343.0" y1="431.4" x2="318.7" y2="445.4" opacity="1.0" stroke="rgb(0,0,0)"  stroke-width="3"/>
<line x1="317.1" y1="454.6" x2="282.5" y2="434.6" opacity="1.0" stroke="rgb(0,0,0)"  stroke-width="3"/>
<line x1="282.5" y1="434.6" x2="282.5" y2="394.6" opacity="1.0" stroke="rgb(0,0,0)"  stroke-width="3"/>
<line x1="289.7" y1="428.6" x2="289.7" y2="400.6" opacity="1.0" stroke="rgb(0,0,0)"  stroke-width="3"/>
<line x1="282.5" y1="394.6" x2="317.1" y2="374.6" opacity="1.0" stroke="rgb(0,0,0)"  stroke-width="3"/>
<line x1="317.1" y1="374.6" x2="351.8" y2="394.6" opacity="1.0" stroke="rgb(0,0,0)"  stroke-width="3"/>
<line x1="318.7" y1="383.9" x2="343.0" y2="397.9" opacity="1.0" stroke="rgb(0,0,0)"  stroke-width="3"/>
<line x1="496.8" y1="79.1" x2="480.6" y2="115.7" opacity="1.0" stroke="rgb(0,0,0)"  stroke-width="3"/>
<line x1="487.8" y1="81.7" x2="476.4" y2="107.3" opacity="1.0" stroke="rgb(0,0,0)"  stroke-width="3"/>
<line x1="480.6" y1="115.7" x2="440.8" y2="119.9" opacity="1.0" stroke="rgb(0,0,0)"  stroke-width="3"/>
<line x1="417.3" y1="87.5" x2="433.6" y2="50.9" opacity="1.0" stroke="rgb(0,0,0)"  stroke-width="3"/>
<line x1="433.6" y1="50.9" x2="473.3" y2="46.8" opacity="1.0" stroke="rgb(0,0,0)"  stroke-width="3"/>
<line x1="440.3" y1="57.5" x2="468.1" y2="54.6" opacity="1.0" stroke="rgb(0,0,0)"  stroke-width="3"/>
<line x1="473.3" y1="46.8" x2="496.8" y2="79.1" opacity="1.0" stroke="rgb(0,0,0)"  stroke-width="3"/>
<line x1="178.6" y1="94.6" x2="143.9" y2="74.6" opacity="1.0" stroke="rgb(0,0,0)"  stroke-width="3"/>
<line x1="143.9" y1="74.6" x2="109.3" y2="94.6" opacity="1.0" stroke="rgb(0,0,0)"  stroke-width="3"/>
<line x1="142.3" y1="83.9" x2="118.1" y2="97.9" opacity="1.0" stroke="rgb(0,0,0)"  stroke-width="3"/>
<line x1="109.3" y1="94.6" x2="109.3" y2="134.6" opacity="1.0" stroke="rgb(0,0,0)"  stroke-width="3"/>
<line x1="109.3" y1="134.6" x2="143.9" y2="154.6" opacity="1.0" stroke="rgb(0,0,0)"  stroke-width="3"/>
<line x1="118.1" y1="131.4" x2="142.3" y2="145.4" opacity="1.0" stroke="rgb(0,0,0)"  stroke-width="3"/>
<line x1="143.9" y1="154.6" x2="178.6" y2="134.6" opacity="1.0" stroke="rgb(0,0,0)"  stroke-width="3"/>
<line x1="178.6" y1="134.6" x2="178.6" y2="94.6" opacity="1.0" stroke="rgb(0,0,0)"  stroke-width="3"/>
<line x1="171.4" y1="128.6" x2="171.4" y2="100.6" opacity="1.0" stroke="rgb(0,0,0)"  stroke-width="3"/>
<line x1="211.8" y1="257.6" x2="195.5" y2="221.1" opacity="1.0" stroke="rgb(0,0,0)"  stroke-width="3"/>
<line x1="195.5" y1="221.1" x2="155.7" y2="216.9" opacity="1.0" stroke="rgb(0,0,0)"  stroke-width="3"/>
<line x1="188.8" y1="227.6" x2="160.9" y2="224.7" opacity="1.0" stroke="rgb(0,0,0)"  stroke-width="3"/>
<line x1="155.7" y1="216.9" x2="132.2" y2="249.3" opacity="1.0" stroke="rgb(0,0,0)"  stroke-width="3"/>
<line x1="132.2" y1="249.3" x2="148.5" y2="285.8" opacity="1.0" stroke="rgb(0,0,0)"  stroke-width="3"/>
<line x1="141.2" y1="251.8" x2="152.6" y2="277.4" opacity="1.0" stroke="rgb(0,0,0)"  stroke-width="3"/>
<line x1="148.5" y1="285.8" x2="188.3" y2="290.0" opacity="1.0" stroke="rgb(0,0,0)"  stroke-width="3"/>
<line x1="188.3" y1="290.0" x2="211.8" y2="257.6" opacity="1.0" stroke="rgb(0,0,0)"  stroke-width="3"/>
<line x1="186.0" y1="280.9" x2="202.4" y2="258.3" opacity="1.0" stroke="rgb(0,0,0)"  stroke-width="3"/>
<line x1="132.8" y1="434.7" x2="121.6" y2="396.3" opacity="1.0" stroke="rgb(0,0,0)"  stroke-width="3"/>
<line x1="138.0" y1="426.9" x2="130.2" y2="400.0" opacity="1.0" stroke="rgb(0,0,0)"  stroke-width="3"/>
<line x1="121.6" y1="396.3" x2="144.6" y2="363.6" opacity="1.0" stroke="rgb(0,0,0)"  stroke-width="3"/>
<line x1="144.6" y1="363.6" x2="184.5" y2="361.2" opacity="1.0" stroke="rgb(0,0,0)"  stroke-width="3"/>
<line x1="151.0" y1="370.4" x2="179.0" y2="368.7" opacity="1.0" stroke="rgb(0,0,0)"  stroke-width="3"/>
<line x1="211.3" y1="390.9" x2="204.8" y2="430.4" opacity="1.0" stroke="rgb(0,0,0)"  stroke-width="3"/>
<line x1="204.8" y1="430.4" x2="169.8" y2="449.8" opacity="1.0" stroke="rgb(0,0,0)"  stroke-width="3"/>
<line x1="196.0" y1="427.0" x2="171.5" y2="440.6" opacity="1.0" stroke="rgb(0,0,0)"  stroke-width="3"/>
<line x1="169.8" y1="449.8" x2="132.8" y2="434.7" opacity="1.0" stroke="rgb(0,0,0)"  stroke-width="3"/>
<line x1="40.0" y1="134.6" x2="74.6" y2="154.6" opacity="1.0" stroke="rgb(0,0,0)"  stroke-width="3"/>
<line x1="74.6" y1="154.6" x2="109.3" y2="134.6" opacity="1.0" stroke="rgb(0,0,0)"  stroke-width="3"/>
<line x1="109.3" y1="94.6" x2="74.6" y2="74.6" opacity="1.0" stroke="rgb(0,0,0)"  stroke-width="3"/>
<line x1="74.6" y1="74.6" x2="40.0" y2="94.6" opacity="1.0" stroke="rgb(0,0,0)"  stroke-width="3"/>
<line x1="40.0" y1="94.6" x2="40.0" y2="134.6" opacity="1.0" stroke="rgb(0,0,0)"  stroke-width="3"/>
<text x="241.846142" y="262.641031" fill="rgb(255,12,12)" stroke-width="0" font-weight="bold" font-size="25.92" >O</text>
<text x="380.410286" y="262.641031" fill="rgb(12,12,255)" stroke-width="0" font-weight="bold" font-size="25.92" >N</text>
<text x="372.093751" y="103.515073" fill="rgb(12,12,255)" stroke-width="0" font-weight="bold" font-size="25.92" >N</text>
<text x="311.128238" y="222.641013" fill="rgb(255,181,181)" stroke-width="0" font-weight="bold" font-size="25.92" >B</text>
</svg>
</g>
</svg>
