<?xml version="1.0"?>
<svg version="1.1" id="topsvg"
xmlns="http://www.w3.org/2000/svg" xmlns:xlink="http://www.w3.org/1999/xlink"
xmlns:cml="http://www.xml-cml.org/schema" x="0" y="0" width="200px" height="200px" viewBox="0 0 100 100">
<title>GD180.sdf - Open Babel Depiction</title>
<rect x="0" y="0" width="100" height="100" fill="white"/>
<g transform="translate(0,0)">
<svg width="100" height="100" x="0" y="0" viewBox="0 0 504.722 542.12"
font-family="sans-serif" stroke="rgb(0,0,0)" stroke-width="3"  stroke-linecap="round">
<line x1="74.1" y1="371.5" x2="108.2" y2="351.8" opacity="1.0" stroke="rgb(0,0,0)"  stroke-width="3"/>
<line x1="210.6" y1="174.5" x2="190.9" y2="140.4" opacity="1.0" stroke="rgb(0,0,0)"  stroke-width="3"/>
<line x1="190.9" y1="140.4" x2="171.2" y2="106.3" opacity="1.0" stroke="rgb(0,0,0)"  stroke-width="3"/>
<line x1="190.9" y1="140.4" x2="210.6" y2="106.3" opacity="1.0" stroke="rgb(0,0,0)"  stroke-width="3"/>
<line x1="190.9" y1="140.4" x2="151.5" y2="140.4" opacity="1.0" stroke="rgb(0,0,0)"  stroke-width="3"/>
<line x1="74.1" y1="371.5" x2="40.0" y2="391.2" opacity="1.0" stroke="rgb(0,0,0)"  stroke-width="3"/>
<line x1="74.1" y1="371.5" x2="74.1" y2="410.9" opacity="1.0" stroke="rgb(0,0,0)"  stroke-width="3"/>
<line x1="74.1" y1="371.5" x2="40.0" y2="351.8" opacity="1.0" stroke="rgb(0,0,0)"  stroke-width="3"/>
<line x1="347.5" y1="126.3" x2="365.2" y2="106.7" opacity="1.0" stroke="rgb(0,0,0)"  stroke-width="3"/>
<line x1="142.3" y1="292.7" x2="176.4" y2="233.6" opacity="1.0" stroke="rgb(0,0,0)"  stroke-width="3"/>
<line x1="176.4" y1="233.6" x2="210.6" y2="253.3" opacity="1.0" stroke="rgb(0,0,0)"  stroke-width="3"/>
<line x1="178.0" y1="242.8" x2="201.8" y2="256.5" opacity="1.0" stroke="rgb(0,0,0)"  stroke-width="3"/>
<line x1="210.6" y1="253.3" x2="210.6" y2="279.7" opacity="1.0" stroke="rgb(0,0,0)"  stroke-width="3"/>
<line x1="199.3" y1="299.2" x2="176.4" y2="312.4" opacity="1.0" stroke="rgb(0,0,0)"  stroke-width="3"/>
<line x1="176.4" y1="312.4" x2="142.3" y2="292.7" opacity="1.0" stroke="rgb(0,0,0)"  stroke-width="3"/>
<line x1="174.8" y1="303.1" x2="151.1" y2="289.5" opacity="1.0" stroke="rgb(0,0,0)"  stroke-width="3"/>
<line x1="405.6" y1="264.4" x2="385.9" y2="298.5" opacity="1.0" stroke="rgb(0,0,0)"  stroke-width="3"/>
<line x1="396.4" y1="266.0" x2="382.7" y2="289.7" opacity="1.0" stroke="rgb(0,0,0)"  stroke-width="3"/>
<line x1="385.9" y1="298.5" x2="359.9" y2="294.6" opacity="1.0" stroke="rgb(0,0,0)"  stroke-width="3"/>
<line x1="347.0" y1="279.7" x2="347.0" y2="253.3" opacity="1.0" stroke="rgb(0,0,0)"  stroke-width="3"/>
<line x1="347.0" y1="253.3" x2="381.1" y2="233.6" opacity="1.0" stroke="rgb(0,0,0)"  stroke-width="3"/>
<line x1="355.8" y1="256.5" x2="379.5" y2="242.8" opacity="1.0" stroke="rgb(0,0,0)"  stroke-width="3"/>
<line x1="381.1" y1="233.6" x2="405.6" y2="264.4" opacity="1.0" stroke="rgb(0,0,0)"  stroke-width="3"/>
<line x1="299.6" y1="131.9" x2="325.9" y2="134.6" opacity="1.0" stroke="rgb(0,0,0)"  stroke-width="3"/>
<line x1="341.5" y1="148.7" x2="347.0" y2="174.5" opacity="1.0" stroke="rgb(0,0,0)"  stroke-width="3"/>
<line x1="347.0" y1="174.5" x2="312.9" y2="194.2" opacity="1.0" stroke="rgb(0,0,0)"  stroke-width="3"/>
<line x1="312.9" y1="194.2" x2="283.6" y2="167.9" opacity="1.0" stroke="rgb(0,0,0)"  stroke-width="3"/>
<line x1="283.6" y1="167.9" x2="299.6" y2="131.9" opacity="1.0" stroke="rgb(0,0,0)"  stroke-width="3"/>
<line x1="292.6" y1="165.3" x2="303.8" y2="140.3" opacity="1.0" stroke="rgb(0,0,0)"  stroke-width="3"/>
<line x1="244.7" y1="351.8" x2="278.8" y2="371.5" opacity="1.0" stroke="rgb(0,0,0)"  stroke-width="3"/>
<line x1="278.8" y1="371.5" x2="312.9" y2="351.8" opacity="1.0" stroke="rgb(0,0,0)"  stroke-width="3"/>
<line x1="280.4" y1="362.2" x2="304.1" y2="348.5" opacity="1.0" stroke="rgb(0,0,0)"  stroke-width="3"/>
<line x1="312.9" y1="351.8" x2="312.9" y2="312.4" opacity="1.0" stroke="rgb(0,0,0)"  stroke-width="3"/>
<line x1="312.9" y1="312.4" x2="278.8" y2="292.7" opacity="1.0" stroke="rgb(0,0,0)"  stroke-width="3"/>
<line x1="304.1" y1="315.6" x2="280.4" y2="301.9" opacity="1.0" stroke="rgb(0,0,0)"  stroke-width="3"/>
<line x1="278.8" y1="292.7" x2="244.7" y2="312.4" opacity="1.0" stroke="rgb(0,0,0)"  stroke-width="3"/>
<line x1="244.7" y1="312.4" x2="244.7" y2="351.8" opacity="1.0" stroke="rgb(0,0,0)"  stroke-width="3"/>
<line x1="251.9" y1="318.4" x2="251.9" y2="345.8" opacity="1.0" stroke="rgb(0,0,0)"  stroke-width="3"/>
<line x1="210.6" y1="253.3" x2="244.7" y2="233.6" opacity="1.0" stroke="rgb(0,0,0)"  stroke-width="3"/>
<line x1="244.7" y1="233.6" x2="267.5" y2="246.8" opacity="1.0" stroke="rgb(0,0,0)"  stroke-width="3"/>
<line x1="278.8" y1="266.3" x2="278.8" y2="292.7" opacity="1.0" stroke="rgb(0,0,0)"  stroke-width="3"/>
<line x1="244.7" y1="312.4" x2="221.8" y2="299.2" opacity="1.0" stroke="rgb(0,0,0)"  stroke-width="3"/>
<line x1="108.2" y1="351.8" x2="142.3" y2="371.5" opacity="1.0" stroke="rgb(0,0,0)"  stroke-width="3"/>
<line x1="142.3" y1="371.5" x2="176.4" y2="351.8" opacity="1.0" stroke="rgb(0,0,0)"  stroke-width="3"/>
<line x1="143.9" y1="362.2" x2="167.6" y2="348.5" opacity="1.0" stroke="rgb(0,0,0)"  stroke-width="3"/>
<line x1="176.4" y1="351.8" x2="176.4" y2="312.4" opacity="1.0" stroke="rgb(0,0,0)"  stroke-width="3"/>
<line x1="142.3" y1="292.7" x2="108.2" y2="312.4" opacity="1.0" stroke="rgb(0,0,0)"  stroke-width="3"/>
<line x1="108.2" y1="312.4" x2="108.2" y2="351.8" opacity="1.0" stroke="rgb(0,0,0)"  stroke-width="3"/>
<line x1="115.4" y1="318.4" x2="115.4" y2="345.8" opacity="1.0" stroke="rgb(0,0,0)"  stroke-width="3"/>
<line x1="335.7" y1="299.2" x2="312.9" y2="312.4" opacity="1.0" stroke="rgb(0,0,0)"  stroke-width="3"/>
<line x1="290.0" y1="246.8" x2="312.9" y2="233.6" opacity="1.0" stroke="rgb(0,0,0)"  stroke-width="3"/>
<line x1="312.9" y1="233.6" x2="347.0" y2="253.3" opacity="1.0" stroke="rgb(0,0,0)"  stroke-width="3"/>
<line x1="464.7" y1="298.5" x2="445.0" y2="332.6" opacity="1.0" stroke="rgb(0,0,0)"  stroke-width="3"/>
<line x1="445.0" y1="332.6" x2="405.6" y2="332.6" opacity="1.0" stroke="rgb(0,0,0)"  stroke-width="3"/>
<line x1="439.0" y1="325.4" x2="411.6" y2="325.4" opacity="1.0" stroke="rgb(0,0,0)"  stroke-width="3"/>
<line x1="405.6" y1="332.6" x2="385.9" y2="298.5" opacity="1.0" stroke="rgb(0,0,0)"  stroke-width="3"/>
<line x1="405.6" y1="264.4" x2="445.0" y2="264.4" opacity="1.0" stroke="rgb(0,0,0)"  stroke-width="3"/>
<line x1="445.0" y1="264.4" x2="464.7" y2="298.5" opacity="1.0" stroke="rgb(0,0,0)"  stroke-width="3"/>
<line x1="441.8" y1="273.2" x2="455.5" y2="296.9" opacity="1.0" stroke="rgb(0,0,0)"  stroke-width="3"/>
<line x1="312.9" y1="194.2" x2="312.9" y2="233.6" opacity="1.0" stroke="rgb(0,0,0)"  stroke-width="3"/>
<line x1="320.1" y1="200.2" x2="320.1" y2="227.6" opacity="1.0" stroke="rgb(0,0,0)"  stroke-width="3"/>
<line x1="381.1" y1="233.6" x2="381.1" y2="194.2" opacity="1.0" stroke="rgb(0,0,0)"  stroke-width="3"/>
<line x1="381.1" y1="194.2" x2="347.0" y2="174.5" opacity="1.0" stroke="rgb(0,0,0)"  stroke-width="3"/>
<line x1="372.3" y1="197.5" x2="348.6" y2="183.8" opacity="1.0" stroke="rgb(0,0,0)"  stroke-width="3"/>
<line x1="176.4" y1="233.6" x2="176.4" y2="194.2" opacity="1.0" stroke="rgb(0,0,0)"  stroke-width="3"/>
<line x1="176.4" y1="194.2" x2="210.6" y2="174.5" opacity="1.0" stroke="rgb(0,0,0)"  stroke-width="3"/>
<line x1="185.2" y1="197.5" x2="209.0" y2="183.8" opacity="1.0" stroke="rgb(0,0,0)"  stroke-width="3"/>
<line x1="210.6" y1="174.5" x2="244.7" y2="194.2" opacity="1.0" stroke="rgb(0,0,0)"  stroke-width="3"/>
<line x1="244.7" y1="194.2" x2="244.7" y2="233.6" opacity="1.0" stroke="rgb(0,0,0)"  stroke-width="3"/>
<line x1="237.5" y1="200.2" x2="237.5" y2="227.6" opacity="1.0" stroke="rgb(0,0,0)"  stroke-width="3"/>
<line x1="126.0" y1="472.9" x2="164.5" y2="481.0" opacity="1.0" stroke="rgb(0,0,0)"  stroke-width="3"/>
<line x1="133.3" y1="467.1" x2="160.1" y2="472.8" opacity="1.0" stroke="rgb(0,0,0)"  stroke-width="3"/>
<line x1="164.5" y1="481.0" x2="190.9" y2="451.8" opacity="1.0" stroke="rgb(0,0,0)"  stroke-width="3"/>
<line x1="190.9" y1="451.8" x2="178.7" y2="414.3" opacity="1.0" stroke="rgb(0,0,0)"  stroke-width="3"/>
<line x1="182.2" y1="448.3" x2="173.7" y2="422.2" opacity="1.0" stroke="rgb(0,0,0)"  stroke-width="3"/>
<line x1="178.7" y1="414.3" x2="140.2" y2="406.1" opacity="1.0" stroke="rgb(0,0,0)"  stroke-width="3"/>
<line x1="140.2" y1="406.1" x2="113.8" y2="435.4" opacity="1.0" stroke="rgb(0,0,0)"  stroke-width="3"/>
<line x1="141.5" y1="415.4" x2="123.2" y2="435.8" opacity="1.0" stroke="rgb(0,0,0)"  stroke-width="3"/>
<line x1="113.8" y1="435.4" x2="126.0" y2="472.9" opacity="1.0" stroke="rgb(0,0,0)"  stroke-width="3"/>
<line x1="307.3" y1="435.4" x2="280.9" y2="406.1" opacity="1.0" stroke="rgb(0,0,0)"  stroke-width="3"/>
<line x1="297.9" y1="435.8" x2="279.6" y2="415.4" opacity="1.0" stroke="rgb(0,0,0)"  stroke-width="3"/>
<line x1="280.9" y1="406.1" x2="242.4" y2="414.3" opacity="1.0" stroke="rgb(0,0,0)"  stroke-width="3"/>
<line x1="242.4" y1="414.3" x2="230.2" y2="451.8" opacity="1.0" stroke="rgb(0,0,0)"  stroke-width="3"/>
<line x1="247.4" y1="422.2" x2="238.9" y2="448.3" opacity="1.0" stroke="rgb(0,0,0)"  stroke-width="3"/>
<line x1="230.2" y1="451.8" x2="256.6" y2="481.0" opacity="1.0" stroke="rgb(0,0,0)"  stroke-width="3"/>
<line x1="256.6" y1="481.0" x2="295.1" y2="472.9" opacity="1.0" stroke="rgb(0,0,0)"  stroke-width="3"/>
<line x1="261.0" y1="472.8" x2="287.8" y2="467.1" opacity="1.0" stroke="rgb(0,0,0)"  stroke-width="3"/>
<line x1="295.1" y1="472.9" x2="307.3" y2="435.4" opacity="1.0" stroke="rgb(0,0,0)"  stroke-width="3"/>
<line x1="372.2" y1="456.5" x2="345.8" y2="427.2" opacity="1.0" stroke="rgb(0,0,0)"  stroke-width="3"/>
<line x1="362.8" y1="456.8" x2="344.5" y2="436.5" opacity="1.0" stroke="rgb(0,0,0)"  stroke-width="3"/>
<line x1="345.8" y1="427.2" x2="307.3" y2="435.4" opacity="1.0" stroke="rgb(0,0,0)"  stroke-width="3"/>
<line x1="295.1" y1="472.9" x2="321.5" y2="502.1" opacity="1.0" stroke="rgb(0,0,0)"  stroke-width="3"/>
<line x1="321.5" y1="502.1" x2="360.0" y2="493.9" opacity="1.0" stroke="rgb(0,0,0)"  stroke-width="3"/>
<line x1="325.9" y1="493.8" x2="352.6" y2="488.1" opacity="1.0" stroke="rgb(0,0,0)"  stroke-width="3"/>
<line x1="360.0" y1="493.9" x2="372.2" y2="456.5" opacity="1.0" stroke="rgb(0,0,0)"  stroke-width="3"/>
<line x1="221.3" y1="140.1" x2="244.4" y2="172.0" opacity="1.0" stroke="rgb(0,0,0)"  stroke-width="3"/>
<line x1="230.6" y1="140.7" x2="246.7" y2="162.9" opacity="1.0" stroke="rgb(0,0,0)"  stroke-width="3"/>
<line x1="244.4" y1="172.0" x2="283.6" y2="167.9" opacity="1.0" stroke="rgb(0,0,0)"  stroke-width="3"/>
<line x1="299.6" y1="131.9" x2="276.5" y2="100.0" opacity="1.0" stroke="rgb(0,0,0)"  stroke-width="3"/>
<line x1="276.5" y1="100.0" x2="237.3" y2="104.1" opacity="1.0" stroke="rgb(0,0,0)"  stroke-width="3"/>
<line x1="271.3" y1="107.8" x2="244.0" y2="110.7" opacity="1.0" stroke="rgb(0,0,0)"  stroke-width="3"/>
<line x1="237.3" y1="104.1" x2="221.3" y2="140.1" opacity="1.0" stroke="rgb(0,0,0)"  stroke-width="3"/>
<line x1="403.7" y1="114.9" x2="430.0" y2="85.6" opacity="1.0" stroke="rgb(0,0,0)"  stroke-width="3"/>
<line x1="430.0" y1="85.6" x2="417.9" y2="48.2" opacity="1.0" stroke="rgb(0,0,0)"  stroke-width="3"/>
<line x1="421.3" y1="82.2" x2="412.9" y2="56.1" opacity="1.0" stroke="rgb(0,0,0)"  stroke-width="3"/>
<line x1="417.9" y1="48.2" x2="379.3" y2="40.0" opacity="1.0" stroke="rgb(0,0,0)"  stroke-width="3"/>
<line x1="379.3" y1="40.0" x2="353.0" y2="69.3" opacity="1.0" stroke="rgb(0,0,0)"  stroke-width="3"/>
<line x1="380.7" y1="49.3" x2="362.4" y2="69.6" opacity="1.0" stroke="rgb(0,0,0)"  stroke-width="3"/>
<line x1="353.0" y1="69.3" x2="365.2" y2="106.7" opacity="1.0" stroke="rgb(0,0,0)"  stroke-width="3"/>
<line x1="365.2" y1="106.7" x2="403.7" y2="114.9" opacity="1.0" stroke="rgb(0,0,0)"  stroke-width="3"/>
<line x1="372.5" y1="100.9" x2="399.3" y2="106.6" opacity="1.0" stroke="rgb(0,0,0)"  stroke-width="3"/>
<line x1="190.9" y1="451.8" x2="230.2" y2="451.8" opacity="1.0" stroke="rgb(0,0,0)"  stroke-width="3"/>
<line x1="242.4" y1="414.3" x2="210.6" y2="381.3" opacity="1.0" stroke="rgb(0,0,0)"  stroke-width="3"/>
<line x1="210.6" y1="381.3" x2="178.7" y2="414.3" opacity="1.0" stroke="rgb(0,0,0)"  stroke-width="3"/>
<line x1="176.4" y1="351.8" x2="210.6" y2="381.3" opacity="1.0" stroke="rgb(0,0,0)"  stroke-width="3"/>
<line x1="210.6" y1="381.3" x2="244.7" y2="351.8" opacity="1.0" stroke="rgb(0,0,0)"  stroke-width="3"/>
<text x="332.807986" y="143.999941" fill="rgb(12,12,255)" stroke-width="0" font-weight="bold" font-size="25.92" >N</text>
<text x="340.995604" y="300.690873" fill="rgb(12,12,255)" stroke-width="0" font-weight="bold" font-size="25.92" >N</text>
<text x="204.550997" y="300.690873" fill="rgb(12,12,255)" stroke-width="0" font-weight="bold" font-size="25.92" >N</text>
<text x="272.773325" y="261.300096" fill="rgb(255,181,181)" stroke-width="0" font-weight="bold" font-size="25.92" >B</text>
</svg>
</g>
</svg>
