<?xml version="1.0"?>
<svg version="1.1" id="topsvg"
xmlns="http://www.w3.org/2000/svg" xmlns:xlink="http://www.w3.org/1999/xlink"
xmlns:cml="http://www.xml-cml.org/schema" x="0" y="0" width="200px" height="200px" viewBox="0 0 100 100">
<title>GD194.sdf - Open Babel Depiction</title>
<rect x="0" y="0" width="100" height="100" fill="white"/>
<g transform="translate(0,0)">
<svg width="100" height="100" x="0" y="0" viewBox="0 0 553.639 514.221"
font-family="sans-serif" stroke="rgb(0,0,0)" stroke-width="3"  stroke-linecap="round">
<line x1="179.3" y1="178.9" x2="156.9" y2="164.9" opacity="1.0" stroke="rgb(0,0,0)"  stroke-width="3"/>
<line x1="134.4" y1="164.0" x2="111.0" y2="176.4" opacity="1.0" stroke="rgb(0,0,0)"  stroke-width="3"/>
<line x1="146.4" y1="145.0" x2="147.4" y2="118.6" opacity="1.0" stroke="rgb(0,0,0)"  stroke-width="3"/>
<line x1="152.2" y1="248.0" x2="177.8" y2="218.2" opacity="1.0" stroke="rgb(0,0,0)"  stroke-width="3"/>
<line x1="177.8" y1="218.2" x2="211.0" y2="239.1" opacity="1.0" stroke="rgb(0,0,0)"  stroke-width="3"/>
<line x1="211.0" y1="239.1" x2="210.0" y2="265.4" opacity="1.0" stroke="rgb(0,0,0)"  stroke-width="3"/>
<line x1="196.6" y1="279.8" x2="170.5" y2="282.7" opacity="1.0" stroke="rgb(0,0,0)"  stroke-width="3"/>
<line x1="170.5" y1="282.7" x2="152.2" y2="248.0" opacity="1.0" stroke="rgb(0,0,0)"  stroke-width="3"/>
<line x1="174.1" y1="274.0" x2="161.3" y2="249.9" opacity="1.0" stroke="rgb(0,0,0)"  stroke-width="3"/>
<line x1="406.7" y1="266.1" x2="381.7" y2="225.9" opacity="1.0" stroke="rgb(0,0,0)"  stroke-width="3"/>
<line x1="381.7" y1="225.9" x2="347.0" y2="244.2" opacity="1.0" stroke="rgb(0,0,0)"  stroke-width="3"/>
<line x1="347.0" y1="244.2" x2="346.0" y2="270.5" opacity="1.0" stroke="rgb(0,0,0)"  stroke-width="3"/>
<line x1="357.7" y1="287.9" x2="382.4" y2="297.0" opacity="1.0" stroke="rgb(0,0,0)"  stroke-width="3"/>
<line x1="382.4" y1="297.0" x2="406.7" y2="266.1" opacity="1.0" stroke="rgb(0,0,0)"  stroke-width="3"/>
<line x1="380.4" y1="287.8" x2="397.3" y2="266.4" opacity="1.0" stroke="rgb(0,0,0)"  stroke-width="3"/>
<line x1="241.3" y1="338.5" x2="274.6" y2="359.4" opacity="1.0" stroke="rgb(0,0,0)"  stroke-width="3"/>
<line x1="274.6" y1="359.4" x2="309.3" y2="341.1" opacity="1.0" stroke="rgb(0,0,0)"  stroke-width="3"/>
<line x1="276.5" y1="350.2" x2="300.6" y2="337.5" opacity="1.0" stroke="rgb(0,0,0)"  stroke-width="3"/>
<line x1="309.3" y1="341.1" x2="310.8" y2="301.8" opacity="1.0" stroke="rgb(0,0,0)"  stroke-width="3"/>
<line x1="310.8" y1="301.8" x2="277.5" y2="280.9" opacity="1.0" stroke="rgb(0,0,0)"  stroke-width="3"/>
<line x1="301.9" y1="304.7" x2="278.8" y2="290.2" opacity="1.0" stroke="rgb(0,0,0)"  stroke-width="3"/>
<line x1="277.5" y1="280.9" x2="242.8" y2="299.2" opacity="1.0" stroke="rgb(0,0,0)"  stroke-width="3"/>
<line x1="242.8" y1="299.2" x2="241.3" y2="338.5" opacity="1.0" stroke="rgb(0,0,0)"  stroke-width="3"/>
<line x1="249.8" y1="305.5" x2="248.7" y2="332.8" opacity="1.0" stroke="rgb(0,0,0)"  stroke-width="3"/>
<line x1="278.5" y1="254.6" x2="277.5" y2="280.9" opacity="1.0" stroke="rgb(0,0,0)"  stroke-width="3"/>
<line x1="242.8" y1="299.2" x2="220.6" y2="285.3" opacity="1.0" stroke="rgb(0,0,0)"  stroke-width="3"/>
<line x1="211.0" y1="239.1" x2="245.8" y2="220.7" opacity="1.0" stroke="rgb(0,0,0)"  stroke-width="3"/>
<line x1="219.7" y1="242.7" x2="243.8" y2="229.9" opacity="1.0" stroke="rgb(0,0,0)"  stroke-width="3"/>
<line x1="245.8" y1="220.7" x2="268.0" y2="234.7" opacity="1.0" stroke="rgb(0,0,0)"  stroke-width="3"/>
<line x1="347.0" y1="244.2" x2="313.7" y2="223.3" opacity="1.0" stroke="rgb(0,0,0)"  stroke-width="3"/>
<line x1="338.1" y1="247.1" x2="315.0" y2="232.6" opacity="1.0" stroke="rgb(0,0,0)"  stroke-width="3"/>
<line x1="313.7" y1="223.3" x2="290.5" y2="235.6" opacity="1.0" stroke="rgb(0,0,0)"  stroke-width="3"/>
<line x1="310.8" y1="301.8" x2="334.0" y2="289.5" opacity="1.0" stroke="rgb(0,0,0)"  stroke-width="3"/>
<line x1="110.4" y1="314.5" x2="149.6" y2="316.0" opacity="1.0" stroke="rgb(0,0,0)"  stroke-width="3"/>
<line x1="116.6" y1="307.5" x2="143.9" y2="308.5" opacity="1.0" stroke="rgb(0,0,0)"  stroke-width="3"/>
<line x1="149.6" y1="316.0" x2="170.5" y2="282.7" opacity="1.0" stroke="rgb(0,0,0)"  stroke-width="3"/>
<line x1="152.2" y1="248.0" x2="112.9" y2="246.5" opacity="1.0" stroke="rgb(0,0,0)"  stroke-width="3"/>
<line x1="112.9" y1="246.5" x2="92.0" y2="279.7" opacity="1.0" stroke="rgb(0,0,0)"  stroke-width="3"/>
<line x1="115.8" y1="255.4" x2="101.3" y2="278.5" opacity="1.0" stroke="rgb(0,0,0)"  stroke-width="3"/>
<line x1="92.0" y1="279.7" x2="110.4" y2="314.5" opacity="1.0" stroke="rgb(0,0,0)"  stroke-width="3"/>
<line x1="513.6" y1="350.2" x2="499.0" y2="313.7" opacity="1.0" stroke="rgb(0,0,0)"  stroke-width="3"/>
<line x1="504.7" y1="347.3" x2="494.6" y2="322.0" opacity="1.0" stroke="rgb(0,0,0)"  stroke-width="3"/>
<line x1="499.0" y1="313.7" x2="460.1" y2="308.2" opacity="1.0" stroke="rgb(0,0,0)"  stroke-width="3"/>
<line x1="460.1" y1="308.2" x2="435.9" y2="339.0" opacity="1.0" stroke="rgb(0,0,0)"  stroke-width="3"/>
<line x1="435.9" y1="339.0" x2="450.5" y2="375.5" opacity="1.0" stroke="rgb(0,0,0)"  stroke-width="3"/>
<line x1="450.5" y1="375.5" x2="489.4" y2="381.1" opacity="1.0" stroke="rgb(0,0,0)"  stroke-width="3"/>
<line x1="457.5" y1="369.2" x2="484.5" y2="373.1" opacity="1.0" stroke="rgb(0,0,0)"  stroke-width="3"/>
<line x1="489.4" y1="381.1" x2="513.6" y2="350.2" opacity="1.0" stroke="rgb(0,0,0)"  stroke-width="3"/>
<line x1="350.0" y1="165.7" x2="315.2" y2="184.1" opacity="1.0" stroke="rgb(0,0,0)"  stroke-width="3"/>
<line x1="348.0" y1="174.9" x2="323.9" y2="187.6" opacity="1.0" stroke="rgb(0,0,0)"  stroke-width="3"/>
<line x1="315.2" y1="184.1" x2="313.7" y2="223.3" opacity="1.0" stroke="rgb(0,0,0)"  stroke-width="3"/>
<line x1="381.7" y1="225.9" x2="383.2" y2="186.6" opacity="1.0" stroke="rgb(0,0,0)"  stroke-width="3"/>
<line x1="374.8" y1="219.6" x2="375.8" y2="192.3" opacity="1.0" stroke="rgb(0,0,0)"  stroke-width="3"/>
<line x1="383.2" y1="186.6" x2="350.0" y2="165.7" opacity="1.0" stroke="rgb(0,0,0)"  stroke-width="3"/>
<line x1="177.8" y1="218.2" x2="179.3" y2="178.9" opacity="1.0" stroke="rgb(0,0,0)"  stroke-width="3"/>
<line x1="185.2" y1="212.5" x2="186.2" y2="185.2" opacity="1.0" stroke="rgb(0,0,0)"  stroke-width="3"/>
<line x1="179.3" y1="178.9" x2="214.0" y2="160.6" opacity="1.0" stroke="rgb(0,0,0)"  stroke-width="3"/>
<line x1="214.0" y1="160.6" x2="247.2" y2="181.5" opacity="1.0" stroke="rgb(0,0,0)"  stroke-width="3"/>
<line x1="215.2" y1="169.9" x2="238.3" y2="184.4" opacity="1.0" stroke="rgb(0,0,0)"  stroke-width="3"/>
<line x1="247.2" y1="181.5" x2="245.8" y2="220.7" opacity="1.0" stroke="rgb(0,0,0)"  stroke-width="3"/>
<line x1="460.1" y1="308.2" x2="445.5" y2="271.7" opacity="1.0" stroke="rgb(0,0,0)"  stroke-width="3"/>
<line x1="451.2" y1="305.3" x2="441.1" y2="279.9" opacity="1.0" stroke="rgb(0,0,0)"  stroke-width="3"/>
<line x1="445.5" y1="271.7" x2="406.7" y2="266.1" opacity="1.0" stroke="rgb(0,0,0)"  stroke-width="3"/>
<line x1="382.4" y1="297.0" x2="397.0" y2="333.5" opacity="1.0" stroke="rgb(0,0,0)"  stroke-width="3"/>
<line x1="397.0" y1="333.5" x2="435.9" y2="339.0" opacity="1.0" stroke="rgb(0,0,0)"  stroke-width="3"/>
<line x1="404.0" y1="327.2" x2="431.0" y2="331.1" opacity="1.0" stroke="rgb(0,0,0)"  stroke-width="3"/>
<line x1="251.6" y1="456.9" x2="289.4" y2="467.7" opacity="1.0" stroke="rgb(0,0,0)"  stroke-width="3"/>
<line x1="259.4" y1="451.6" x2="285.6" y2="459.2" opacity="1.0" stroke="rgb(0,0,0)"  stroke-width="3"/>
<line x1="289.4" y1="467.7" x2="317.6" y2="440.5" opacity="1.0" stroke="rgb(0,0,0)"  stroke-width="3"/>
<line x1="317.6" y1="440.5" x2="308.2" y2="402.4" opacity="1.0" stroke="rgb(0,0,0)"  stroke-width="3"/>
<line x1="309.2" y1="436.4" x2="302.6" y2="409.9" opacity="1.0" stroke="rgb(0,0,0)"  stroke-width="3"/>
<line x1="308.2" y1="402.4" x2="270.4" y2="391.5" opacity="1.0" stroke="rgb(0,0,0)"  stroke-width="3"/>
<line x1="270.4" y1="391.5" x2="242.1" y2="418.8" opacity="1.0" stroke="rgb(0,0,0)"  stroke-width="3"/>
<line x1="271.1" y1="400.8" x2="251.5" y2="419.8" opacity="1.0" stroke="rgb(0,0,0)"  stroke-width="3"/>
<line x1="242.1" y1="418.8" x2="251.6" y2="456.9" opacity="1.0" stroke="rgb(0,0,0)"  stroke-width="3"/>
<line x1="434.6" y1="432.4" x2="410.5" y2="401.4" opacity="1.0" stroke="rgb(0,0,0)"  stroke-width="3"/>
<line x1="425.2" y1="432.1" x2="408.5" y2="410.6" opacity="1.0" stroke="rgb(0,0,0)"  stroke-width="3"/>
<line x1="410.5" y1="401.4" x2="371.6" y2="406.8" opacity="1.0" stroke="rgb(0,0,0)"  stroke-width="3"/>
<line x1="371.6" y1="406.8" x2="356.8" y2="443.3" opacity="1.0" stroke="rgb(0,0,0)"  stroke-width="3"/>
<line x1="376.0" y1="415.1" x2="365.7" y2="440.4" opacity="1.0" stroke="rgb(0,0,0)"  stroke-width="3"/>
<line x1="356.8" y1="443.3" x2="381.0" y2="474.2" opacity="1.0" stroke="rgb(0,0,0)"  stroke-width="3"/>
<line x1="381.0" y1="474.2" x2="419.9" y2="468.8" opacity="1.0" stroke="rgb(0,0,0)"  stroke-width="3"/>
<line x1="385.9" y1="466.3" x2="412.9" y2="462.5" opacity="1.0" stroke="rgb(0,0,0)"  stroke-width="3"/>
<line x1="419.9" y1="468.8" x2="434.6" y2="432.4" opacity="1.0" stroke="rgb(0,0,0)"  stroke-width="3"/>
<line x1="78.5" y1="154.1" x2="43.0" y2="171.2" opacity="1.0" stroke="rgb(0,0,0)"  stroke-width="3"/>
<line x1="43.0" y1="171.2" x2="40.0" y2="210.5" opacity="1.0" stroke="rgb(0,0,0)"  stroke-width="3"/>
<line x1="49.7" y1="177.8" x2="47.6" y2="205.1" opacity="1.0" stroke="rgb(0,0,0)"  stroke-width="3"/>
<line x1="40.0" y1="210.5" x2="72.6" y2="232.8" opacity="1.0" stroke="rgb(0,0,0)"  stroke-width="3"/>
<line x1="72.6" y1="232.8" x2="108.1" y2="215.7" opacity="1.0" stroke="rgb(0,0,0)"  stroke-width="3"/>
<line x1="74.8" y1="223.7" x2="99.5" y2="211.8" opacity="1.0" stroke="rgb(0,0,0)"  stroke-width="3"/>
<line x1="108.1" y1="215.7" x2="111.0" y2="176.4" opacity="1.0" stroke="rgb(0,0,0)"  stroke-width="3"/>
<line x1="111.0" y1="176.4" x2="78.5" y2="154.1" opacity="1.0" stroke="rgb(0,0,0)"  stroke-width="3"/>
<line x1="102.0" y1="178.9" x2="79.4" y2="163.5" opacity="1.0" stroke="rgb(0,0,0)"  stroke-width="3"/>
<line x1="179.8" y1="96.2" x2="176.6" y2="56.9" opacity="1.0" stroke="rgb(0,0,0)"  stroke-width="3"/>
<line x1="176.6" y1="56.9" x2="141.0" y2="40.0" opacity="1.0" stroke="rgb(0,0,0)"  stroke-width="3"/>
<line x1="168.1" y1="60.8" x2="143.4" y2="49.1" opacity="1.0" stroke="rgb(0,0,0)"  stroke-width="3"/>
<line x1="141.0" y1="40.0" x2="108.6" y2="62.4" opacity="1.0" stroke="rgb(0,0,0)"  stroke-width="3"/>
<line x1="108.6" y1="62.4" x2="111.8" y2="101.7" opacity="1.0" stroke="rgb(0,0,0)"  stroke-width="3"/>
<line x1="116.3" y1="67.8" x2="118.5" y2="95.1" opacity="1.0" stroke="rgb(0,0,0)"  stroke-width="3"/>
<line x1="111.8" y1="101.7" x2="147.4" y2="118.6" opacity="1.0" stroke="rgb(0,0,0)"  stroke-width="3"/>
<line x1="147.4" y1="118.6" x2="179.8" y2="96.2" opacity="1.0" stroke="rgb(0,0,0)"  stroke-width="3"/>
<line x1="148.2" y1="109.2" x2="170.8" y2="93.7" opacity="1.0" stroke="rgb(0,0,0)"  stroke-width="3"/>
<line x1="317.6" y1="440.5" x2="356.8" y2="443.3" opacity="1.0" stroke="rgb(0,0,0)"  stroke-width="3"/>
<line x1="371.6" y1="406.8" x2="342.2" y2="371.8" opacity="1.0" stroke="rgb(0,0,0)"  stroke-width="3"/>
<line x1="342.2" y1="371.8" x2="308.2" y2="402.4" opacity="1.0" stroke="rgb(0,0,0)"  stroke-width="3"/>
<line x1="397.0" y1="333.5" x2="342.2" y2="371.8" opacity="1.0" stroke="rgb(0,0,0)"  stroke-width="3"/>
<line x1="342.2" y1="371.8" x2="309.3" y2="341.1" opacity="1.0" stroke="rgb(0,0,0)"  stroke-width="3"/>
<text x="139.892115" y="165.959391" fill="rgb(12,12,255)" stroke-width="0" font-weight="bold" font-size="25.92" >N</text>
<text x="273.013485" y="249.655509" fill="rgb(255,181,181)" stroke-width="0" font-weight="bold" font-size="25.92" >B</text>
<text x="203.551990" y="286.342823" fill="rgb(12,12,255)" stroke-width="0" font-weight="bold" font-size="25.92" >N</text>
<text x="339.515956" y="291.466902" fill="rgb(12,12,255)" stroke-width="0" font-weight="bold" font-size="25.92" >N</text>
</svg>
</g>
</svg>
