<?xml version="1.0"?>
<svg version="1.1" id="topsvg"
xmlns="http://www.w3.org/2000/svg" xmlns:xlink="http://www.w3.org/1999/xlink"
xmlns:cml="http://www.xml-cml.org/schema" x="0" y="0" width="200px" height="200px" viewBox="0 0 100 100">
<title>GD195.sdf - Open Babel Depiction</title>
<rect x="0" y="0" width="100" height="100" fill="white"/>
<g transform="translate(0,0)">
<svg width="100" height="100" x="0" y="0" viewBox="0 0 567.818 518.306"
font-family="sans-serif" stroke="rgb(0,0,0)" stroke-width="3"  stroke-linecap="round">
<line x1="178.6" y1="180.0" x2="155.2" y2="166.5" opacity="1.0" stroke="rgb(0,0,0)"  stroke-width="3"/>
<line x1="143.9" y1="147.0" x2="143.9" y2="120.0" opacity="1.0" stroke="rgb(0,0,0)"  stroke-width="3"/>
<line x1="132.7" y1="166.5" x2="109.3" y2="180.0" opacity="1.0" stroke="rgb(0,0,0)"  stroke-width="3"/>
<line x1="389.3" y1="182.3" x2="412.6" y2="168.8" opacity="1.0" stroke="rgb(0,0,0)"  stroke-width="3"/>
<line x1="435.2" y1="168.8" x2="458.5" y2="182.3" opacity="1.0" stroke="rgb(0,0,0)"  stroke-width="3"/>
<line x1="423.9" y1="149.3" x2="423.9" y2="122.3" opacity="1.0" stroke="rgb(0,0,0)"  stroke-width="3"/>
<line x1="285.2" y1="358.3" x2="285.2" y2="385.3" opacity="1.0" stroke="rgb(0,0,0)"  stroke-width="3"/>
<line x1="273.9" y1="404.8" x2="250.6" y2="418.3" opacity="1.0" stroke="rgb(0,0,0)"  stroke-width="3"/>
<line x1="319.8" y1="418.3" x2="296.5" y2="404.8" opacity="1.0" stroke="rgb(0,0,0)"  stroke-width="3"/>
<line x1="155.0" y1="251.8" x2="179.3" y2="220.0" opacity="1.0" stroke="rgb(0,0,0)"  stroke-width="3"/>
<line x1="179.3" y1="220.0" x2="214.2" y2="239.4" opacity="1.0" stroke="rgb(0,0,0)"  stroke-width="3"/>
<line x1="214.2" y1="239.4" x2="214.8" y2="266.4" opacity="1.0" stroke="rgb(0,0,0)"  stroke-width="3"/>
<line x1="202.3" y1="281.5" x2="175.6" y2="286.0" opacity="1.0" stroke="rgb(0,0,0)"  stroke-width="3"/>
<line x1="175.6" y1="286.0" x2="155.0" y2="251.8" opacity="1.0" stroke="rgb(0,0,0)"  stroke-width="3"/>
<line x1="178.7" y1="277.2" x2="164.2" y2="253.2" opacity="1.0" stroke="rgb(0,0,0)"  stroke-width="3"/>
<line x1="413.2" y1="251.4" x2="385.8" y2="222.2" opacity="1.0" stroke="rgb(0,0,0)"  stroke-width="3"/>
<line x1="385.8" y1="222.2" x2="349.6" y2="239.2" opacity="1.0" stroke="rgb(0,0,0)"  stroke-width="3"/>
<line x1="349.6" y1="239.2" x2="353.0" y2="266.0" opacity="1.0" stroke="rgb(0,0,0)"  stroke-width="3"/>
<line x1="367.3" y1="281.3" x2="393.8" y2="286.4" opacity="1.0" stroke="rgb(0,0,0)"  stroke-width="3"/>
<line x1="393.8" y1="286.4" x2="413.2" y2="251.4" opacity="1.0" stroke="rgb(0,0,0)"  stroke-width="3"/>
<line x1="390.4" y1="277.7" x2="404.0" y2="253.2" opacity="1.0" stroke="rgb(0,0,0)"  stroke-width="3"/>
<line x1="250.4" y1="338.5" x2="285.2" y2="358.3" opacity="1.0" stroke="rgb(0,0,0)"  stroke-width="3"/>
<line x1="285.2" y1="358.3" x2="319.7" y2="338.1" opacity="1.0" stroke="rgb(0,0,0)"  stroke-width="3"/>
<line x1="286.7" y1="349.1" x2="310.9" y2="334.9" opacity="1.0" stroke="rgb(0,0,0)"  stroke-width="3"/>
<line x1="319.7" y1="338.1" x2="319.5" y2="298.1" opacity="1.0" stroke="rgb(0,0,0)"  stroke-width="3"/>
<line x1="319.5" y1="298.1" x2="284.7" y2="278.3" opacity="1.0" stroke="rgb(0,0,0)"  stroke-width="3"/>
<line x1="310.7" y1="301.4" x2="286.4" y2="287.5" opacity="1.0" stroke="rgb(0,0,0)"  stroke-width="3"/>
<line x1="284.7" y1="278.3" x2="250.2" y2="298.5" opacity="1.0" stroke="rgb(0,0,0)"  stroke-width="3"/>
<line x1="250.2" y1="298.5" x2="250.4" y2="338.5" opacity="1.0" stroke="rgb(0,0,0)"  stroke-width="3"/>
<line x1="257.5" y1="304.5" x2="257.6" y2="332.5" opacity="1.0" stroke="rgb(0,0,0)"  stroke-width="3"/>
<line x1="283.9" y1="251.3" x2="284.7" y2="278.3" opacity="1.0" stroke="rgb(0,0,0)"  stroke-width="3"/>
<line x1="250.2" y1="298.5" x2="226.5" y2="285.6" opacity="1.0" stroke="rgb(0,0,0)"  stroke-width="3"/>
<line x1="214.2" y1="239.4" x2="248.5" y2="218.8" opacity="1.0" stroke="rgb(0,0,0)"  stroke-width="3"/>
<line x1="223.1" y1="242.5" x2="247.1" y2="228.1" opacity="1.0" stroke="rgb(0,0,0)"  stroke-width="3"/>
<line x1="248.5" y1="218.8" x2="272.1" y2="232.0" opacity="1.0" stroke="rgb(0,0,0)"  stroke-width="3"/>
<line x1="349.6" y1="239.2" x2="316.8" y2="216.3" opacity="1.0" stroke="rgb(0,0,0)"  stroke-width="3"/>
<line x1="340.6" y1="241.6" x2="317.6" y2="225.6" opacity="1.0" stroke="rgb(0,0,0)"  stroke-width="3"/>
<line x1="316.8" y1="216.3" x2="294.3" y2="231.2" opacity="1.0" stroke="rgb(0,0,0)"  stroke-width="3"/>
<line x1="319.5" y1="298.1" x2="343.2" y2="285.1" opacity="1.0" stroke="rgb(0,0,0)"  stroke-width="3"/>
<line x1="116.3" y1="321.8" x2="156.3" y2="321.1" opacity="1.0" stroke="rgb(0,0,0)"  stroke-width="3"/>
<line x1="122.2" y1="314.5" x2="150.2" y2="314.0" opacity="1.0" stroke="rgb(0,0,0)"  stroke-width="3"/>
<line x1="156.3" y1="321.1" x2="175.6" y2="286.0" opacity="1.0" stroke="rgb(0,0,0)"  stroke-width="3"/>
<line x1="155.0" y1="251.8" x2="115.0" y2="252.6" opacity="1.0" stroke="rgb(0,0,0)"  stroke-width="3"/>
<line x1="115.0" y1="252.6" x2="95.7" y2="287.6" opacity="1.0" stroke="rgb(0,0,0)"  stroke-width="3"/>
<line x1="118.4" y1="261.3" x2="104.9" y2="285.8" opacity="1.0" stroke="rgb(0,0,0)"  stroke-width="3"/>
<line x1="95.7" y1="287.6" x2="116.3" y2="321.8" opacity="1.0" stroke="rgb(0,0,0)"  stroke-width="3"/>
<line x1="473.8" y1="284.9" x2="453.2" y2="250.6" opacity="1.0" stroke="rgb(0,0,0)"  stroke-width="3"/>
<line x1="464.6" y1="283.5" x2="450.1" y2="259.5" opacity="1.0" stroke="rgb(0,0,0)"  stroke-width="3"/>
<line x1="453.2" y1="250.6" x2="413.2" y2="251.4" opacity="1.0" stroke="rgb(0,0,0)"  stroke-width="3"/>
<line x1="393.8" y1="286.4" x2="414.5" y2="320.7" opacity="1.0" stroke="rgb(0,0,0)"  stroke-width="3"/>
<line x1="414.5" y1="320.7" x2="454.5" y2="319.9" opacity="1.0" stroke="rgb(0,0,0)"  stroke-width="3"/>
<line x1="420.4" y1="313.4" x2="448.4" y2="312.8" opacity="1.0" stroke="rgb(0,0,0)"  stroke-width="3"/>
<line x1="454.5" y1="319.9" x2="473.8" y2="284.9" opacity="1.0" stroke="rgb(0,0,0)"  stroke-width="3"/>
<line x1="356.4" y1="159.5" x2="320.2" y2="176.4" opacity="1.0" stroke="rgb(0,0,0)"  stroke-width="3"/>
<line x1="354.1" y1="168.5" x2="328.7" y2="180.4" opacity="1.0" stroke="rgb(0,0,0)"  stroke-width="3"/>
<line x1="320.2" y1="176.4" x2="316.8" y2="216.3" opacity="1.0" stroke="rgb(0,0,0)"  stroke-width="3"/>
<line x1="385.8" y1="222.2" x2="389.3" y2="182.3" opacity="1.0" stroke="rgb(0,0,0)"  stroke-width="3"/>
<line x1="379.2" y1="215.6" x2="381.6" y2="187.7" opacity="1.0" stroke="rgb(0,0,0)"  stroke-width="3"/>
<line x1="389.3" y1="182.3" x2="356.4" y2="159.5" opacity="1.0" stroke="rgb(0,0,0)"  stroke-width="3"/>
<line x1="179.3" y1="220.0" x2="178.6" y2="180.0" opacity="1.0" stroke="rgb(0,0,0)"  stroke-width="3"/>
<line x1="186.4" y1="213.9" x2="185.9" y2="185.9" opacity="1.0" stroke="rgb(0,0,0)"  stroke-width="3"/>
<line x1="178.6" y1="180.0" x2="212.9" y2="159.4" opacity="1.0" stroke="rgb(0,0,0)"  stroke-width="3"/>
<line x1="212.9" y1="159.4" x2="247.8" y2="178.8" opacity="1.0" stroke="rgb(0,0,0)"  stroke-width="3"/>
<line x1="214.6" y1="168.6" x2="239.1" y2="182.2" opacity="1.0" stroke="rgb(0,0,0)"  stroke-width="3"/>
<line x1="247.8" y1="178.8" x2="248.5" y2="218.8" opacity="1.0" stroke="rgb(0,0,0)"  stroke-width="3"/>
<line x1="74.6" y1="160.0" x2="40.0" y2="180.0" opacity="1.0" stroke="rgb(0,0,0)"  stroke-width="3"/>
<line x1="40.0" y1="180.0" x2="40.0" y2="220.0" opacity="1.0" stroke="rgb(0,0,0)"  stroke-width="3"/>
<line x1="47.2" y1="186.0" x2="47.2" y2="214.0" opacity="1.0" stroke="rgb(0,0,0)"  stroke-width="3"/>
<line x1="40.0" y1="220.0" x2="74.6" y2="240.0" opacity="1.0" stroke="rgb(0,0,0)"  stroke-width="3"/>
<line x1="74.6" y1="240.0" x2="109.3" y2="220.0" opacity="1.0" stroke="rgb(0,0,0)"  stroke-width="3"/>
<line x1="76.2" y1="230.8" x2="100.5" y2="216.8" opacity="1.0" stroke="rgb(0,0,0)"  stroke-width="3"/>
<line x1="109.3" y1="220.0" x2="109.3" y2="180.0" opacity="1.0" stroke="rgb(0,0,0)"  stroke-width="3"/>
<line x1="109.3" y1="180.0" x2="74.6" y2="160.0" opacity="1.0" stroke="rgb(0,0,0)"  stroke-width="3"/>
<line x1="100.5" y1="183.2" x2="76.2" y2="169.2" opacity="1.0" stroke="rgb(0,0,0)"  stroke-width="3"/>
<line x1="178.6" y1="100.0" x2="178.6" y2="60.0" opacity="1.0" stroke="rgb(0,0,0)"  stroke-width="3"/>
<line x1="178.6" y1="60.0" x2="143.9" y2="40.0" opacity="1.0" stroke="rgb(0,0,0)"  stroke-width="3"/>
<line x1="169.8" y1="63.2" x2="145.5" y2="49.2" opacity="1.0" stroke="rgb(0,0,0)"  stroke-width="3"/>
<line x1="143.9" y1="40.0" x2="109.3" y2="60.0" opacity="1.0" stroke="rgb(0,0,0)"  stroke-width="3"/>
<line x1="109.3" y1="60.0" x2="109.3" y2="100.0" opacity="1.0" stroke="rgb(0,0,0)"  stroke-width="3"/>
<line x1="116.5" y1="66.0" x2="116.5" y2="94.0" opacity="1.0" stroke="rgb(0,0,0)"  stroke-width="3"/>
<line x1="109.3" y1="100.0" x2="143.9" y2="120.0" opacity="1.0" stroke="rgb(0,0,0)"  stroke-width="3"/>
<line x1="143.9" y1="120.0" x2="178.6" y2="100.0" opacity="1.0" stroke="rgb(0,0,0)"  stroke-width="3"/>
<line x1="145.5" y1="110.8" x2="169.8" y2="96.8" opacity="1.0" stroke="rgb(0,0,0)"  stroke-width="3"/>
<line x1="458.5" y1="102.3" x2="458.5" y2="62.3" opacity="1.0" stroke="rgb(0,0,0)"  stroke-width="3"/>
<line x1="458.5" y1="62.3" x2="423.9" y2="42.3" opacity="1.0" stroke="rgb(0,0,0)"  stroke-width="3"/>
<line x1="449.7" y1="65.6" x2="425.5" y2="51.6" opacity="1.0" stroke="rgb(0,0,0)"  stroke-width="3"/>
<line x1="423.9" y1="42.3" x2="389.3" y2="62.3" opacity="1.0" stroke="rgb(0,0,0)"  stroke-width="3"/>
<line x1="389.3" y1="62.3" x2="389.3" y2="102.3" opacity="1.0" stroke="rgb(0,0,0)"  stroke-width="3"/>
<line x1="396.5" y1="68.3" x2="396.5" y2="96.3" opacity="1.0" stroke="rgb(0,0,0)"  stroke-width="3"/>
<line x1="389.3" y1="102.3" x2="423.9" y2="122.3" opacity="1.0" stroke="rgb(0,0,0)"  stroke-width="3"/>
<line x1="423.9" y1="122.3" x2="458.5" y2="102.3" opacity="1.0" stroke="rgb(0,0,0)"  stroke-width="3"/>
<line x1="425.5" y1="113.1" x2="449.7" y2="99.1" opacity="1.0" stroke="rgb(0,0,0)"  stroke-width="3"/>
<line x1="458.5" y1="222.3" x2="493.2" y2="242.3" opacity="1.0" stroke="rgb(0,0,0)"  stroke-width="3"/>
<line x1="493.2" y1="242.3" x2="527.8" y2="222.3" opacity="1.0" stroke="rgb(0,0,0)"  stroke-width="3"/>
<line x1="494.8" y1="233.1" x2="519.0" y2="219.1" opacity="1.0" stroke="rgb(0,0,0)"  stroke-width="3"/>
<line x1="527.8" y1="222.3" x2="527.8" y2="182.3" opacity="1.0" stroke="rgb(0,0,0)"  stroke-width="3"/>
<line x1="527.8" y1="182.3" x2="493.2" y2="162.3" opacity="1.0" stroke="rgb(0,0,0)"  stroke-width="3"/>
<line x1="519.0" y1="185.6" x2="494.8" y2="171.6" opacity="1.0" stroke="rgb(0,0,0)"  stroke-width="3"/>
<line x1="493.2" y1="162.3" x2="458.5" y2="182.3" opacity="1.0" stroke="rgb(0,0,0)"  stroke-width="3"/>
<line x1="458.5" y1="182.3" x2="458.5" y2="222.3" opacity="1.0" stroke="rgb(0,0,0)"  stroke-width="3"/>
<line x1="465.7" y1="188.3" x2="465.7" y2="216.3" opacity="1.0" stroke="rgb(0,0,0)"  stroke-width="3"/>
<line x1="250.6" y1="458.3" x2="250.6" y2="418.3" opacity="1.0" stroke="rgb(0,0,0)"  stroke-width="3"/>
<line x1="243.4" y1="452.3" x2="243.4" y2="424.3" opacity="1.0" stroke="rgb(0,0,0)"  stroke-width="3"/>
<line x1="250.6" y1="418.3" x2="215.9" y2="398.3" opacity="1.0" stroke="rgb(0,0,0)"  stroke-width="3"/>
<line x1="215.9" y1="398.3" x2="181.3" y2="418.3" opacity="1.0" stroke="rgb(0,0,0)"  stroke-width="3"/>
<line x1="214.3" y1="407.5" x2="190.1" y2="421.5" opacity="1.0" stroke="rgb(0,0,0)"  stroke-width="3"/>
<line x1="181.3" y1="418.3" x2="181.3" y2="458.3" opacity="1.0" stroke="rgb(0,0,0)"  stroke-width="3"/>
<line x1="181.3" y1="458.3" x2="215.9" y2="478.3" opacity="1.0" stroke="rgb(0,0,0)"  stroke-width="3"/>
<line x1="190.1" y1="455.1" x2="214.3" y2="469.1" opacity="1.0" stroke="rgb(0,0,0)"  stroke-width="3"/>
<line x1="215.9" y1="478.3" x2="250.6" y2="458.3" opacity="1.0" stroke="rgb(0,0,0)"  stroke-width="3"/>
<line x1="319.8" y1="458.3" x2="354.5" y2="478.3" opacity="1.0" stroke="rgb(0,0,0)"  stroke-width="3"/>
<line x1="354.5" y1="478.3" x2="389.1" y2="458.3" opacity="1.0" stroke="rgb(0,0,0)"  stroke-width="3"/>
<line x1="356.1" y1="469.1" x2="380.3" y2="455.1" opacity="1.0" stroke="rgb(0,0,0)"  stroke-width="3"/>
<line x1="389.1" y1="458.3" x2="389.1" y2="418.3" opacity="1.0" stroke="rgb(0,0,0)"  stroke-width="3"/>
<line x1="389.1" y1="418.3" x2="354.5" y2="398.3" opacity="1.0" stroke="rgb(0,0,0)"  stroke-width="3"/>
<line x1="380.3" y1="421.5" x2="356.1" y2="407.5" opacity="1.0" stroke="rgb(0,0,0)"  stroke-width="3"/>
<line x1="354.5" y1="398.3" x2="319.8" y2="418.3" opacity="1.0" stroke="rgb(0,0,0)"  stroke-width="3"/>
<line x1="319.8" y1="418.3" x2="319.8" y2="458.3" opacity="1.0" stroke="rgb(0,0,0)"  stroke-width="3"/>
<line x1="327.0" y1="424.3" x2="327.0" y2="452.3" opacity="1.0" stroke="rgb(0,0,0)"  stroke-width="3"/>
<text x="417.894955" y="170.341842" fill="rgb(12,12,255)" stroke-width="0" font-weight="bold" font-size="25.92" >N</text>
<text x="279.204085" y="406.305653" fill="rgb(12,12,255)" stroke-width="0" font-weight="bold" font-size="25.92" >N</text>
<text x="209.089045" y="287.382029" fill="rgb(12,12,255)" stroke-width="0" font-weight="bold" font-size="25.92" >N</text>
<text x="348.567035" y="286.859926" fill="rgb(12,12,255)" stroke-width="0" font-weight="bold" font-size="25.92" >N</text>
<text x="277.434158" y="246.328565" fill="rgb(255,181,181)" stroke-width="0" font-weight="bold" font-size="25.92" >B</text>
<text x="137.923083" y="167.999990" fill="rgb(12,12,255)" stroke-width="0" font-weight="bold" font-size="25.92" >N</text>
</svg>
</g>
</svg>
