<?xml version="1.0"?>
<svg version="1.1" id="topsvg"
xmlns="http://www.w3.org/2000/svg" xmlns:xlink="http://www.w3.org/1999/xlink"
xmlns:cml="http://www.xml-cml.org/schema" x="0" y="0" width="200px" height="200px" viewBox="0 0 100 100">
<title>GD192.sdf - Open Babel Depiction</title>
<rect x="0" y="0" width="100" height="100" fill="white"/>
<g transform="translate(0,0)">
<svg width="100" height="100" x="0" y="0" viewBox="0 0 575.482 714.686"
font-family="sans-serif" stroke="rgb(0,0,0)" stroke-width="3"  stroke-linecap="round">
<line x1="117.5" y1="310.0" x2="78.7" y2="314.1" opacity="1.0" stroke="rgb(0,0,0)"  stroke-width="3"/>
<line x1="78.7" y1="314.1" x2="55.8" y2="282.6" opacity="1.0" stroke="rgb(0,0,0)"  stroke-width="3"/>
<line x1="78.7" y1="314.1" x2="62.9" y2="349.7" opacity="1.0" stroke="rgb(0,0,0)"  stroke-width="3"/>
<line x1="78.7" y1="314.1" x2="40.0" y2="318.2" opacity="1.0" stroke="rgb(0,0,0)"  stroke-width="3"/>
<line x1="299.4" y1="367.7" x2="299.4" y2="479.6" opacity="1.0" stroke="rgb(0,0,0)"  stroke-width="3"/>
<line x1="367.5" y1="125.3" x2="384.8" y2="106.0" opacity="1.0" stroke="rgb(0,0,0)"  stroke-width="3"/>
<line x1="333.1" y1="499.0" x2="366.9" y2="479.6" opacity="1.0" stroke="rgb(0,0,0)"  stroke-width="3"/>
<line x1="434.3" y1="440.6" x2="468.0" y2="421.2" opacity="1.0" stroke="rgb(0,0,0)"  stroke-width="3"/>
<line x1="224.2" y1="177.5" x2="216.5" y2="104.0" opacity="1.0" stroke="rgb(0,0,0)"  stroke-width="3"/>
<line x1="216.5" y1="104.0" x2="248.0" y2="81.1" opacity="1.0" stroke="rgb(0,0,0)"  stroke-width="3"/>
<line x1="216.5" y1="104.0" x2="212.4" y2="65.2" opacity="1.0" stroke="rgb(0,0,0)"  stroke-width="3"/>
<line x1="216.5" y1="104.0" x2="180.9" y2="88.1" opacity="1.0" stroke="rgb(0,0,0)"  stroke-width="3"/>
<line x1="299.4" y1="557.5" x2="299.4" y2="596.5" opacity="1.0" stroke="rgb(0,0,0)"  stroke-width="3"/>
<line x1="172.0" y1="270.4" x2="194.9" y2="238.9" opacity="1.0" stroke="rgb(0,0,0)"  stroke-width="3"/>
<line x1="194.9" y1="238.9" x2="232.0" y2="250.9" opacity="1.0" stroke="rgb(0,0,0)"  stroke-width="3"/>
<line x1="232.0" y1="250.9" x2="232.0" y2="276.8" opacity="1.0" stroke="rgb(0,0,0)"  stroke-width="3"/>
<line x1="219.6" y1="293.9" x2="194.9" y2="301.9" opacity="1.0" stroke="rgb(0,0,0)"  stroke-width="3"/>
<line x1="194.9" y1="301.9" x2="172.0" y2="270.4" opacity="1.0" stroke="rgb(0,0,0)"  stroke-width="3"/>
<line x1="424.8" y1="261.9" x2="405.4" y2="295.6" opacity="1.0" stroke="rgb(0,0,0)"  stroke-width="3"/>
<line x1="415.6" y1="263.5" x2="402.1" y2="286.8" opacity="1.0" stroke="rgb(0,0,0)"  stroke-width="3"/>
<line x1="405.4" y1="295.6" x2="379.7" y2="291.8" opacity="1.0" stroke="rgb(0,0,0)"  stroke-width="3"/>
<line x1="366.9" y1="276.8" x2="366.9" y2="250.9" opacity="1.0" stroke="rgb(0,0,0)"  stroke-width="3"/>
<line x1="366.9" y1="250.9" x2="400.6" y2="231.4" opacity="1.0" stroke="rgb(0,0,0)"  stroke-width="3"/>
<line x1="375.7" y1="254.1" x2="399.0" y2="240.7" opacity="1.0" stroke="rgb(0,0,0)"  stroke-width="3"/>
<line x1="400.6" y1="231.4" x2="424.8" y2="261.9" opacity="1.0" stroke="rgb(0,0,0)"  stroke-width="3"/>
<line x1="320.0" y1="130.8" x2="345.8" y2="133.6" opacity="1.0" stroke="rgb(0,0,0)"  stroke-width="3"/>
<line x1="361.5" y1="147.6" x2="366.9" y2="173.0" opacity="1.0" stroke="rgb(0,0,0)"  stroke-width="3"/>
<line x1="366.9" y1="173.0" x2="333.1" y2="192.5" opacity="1.0" stroke="rgb(0,0,0)"  stroke-width="3"/>
<line x1="333.1" y1="192.5" x2="304.2" y2="166.4" opacity="1.0" stroke="rgb(0,0,0)"  stroke-width="3"/>
<line x1="304.2" y1="166.4" x2="320.0" y2="130.8" opacity="1.0" stroke="rgb(0,0,0)"  stroke-width="3"/>
<line x1="313.2" y1="163.9" x2="324.2" y2="139.3" opacity="1.0" stroke="rgb(0,0,0)"  stroke-width="3"/>
<line x1="265.7" y1="348.3" x2="299.4" y2="367.7" opacity="1.0" stroke="rgb(0,0,0)"  stroke-width="3"/>
<line x1="299.4" y1="367.7" x2="333.1" y2="348.3" opacity="1.0" stroke="rgb(0,0,0)"  stroke-width="3"/>
<line x1="301.0" y1="358.5" x2="324.3" y2="345.0" opacity="1.0" stroke="rgb(0,0,0)"  stroke-width="3"/>
<line x1="333.1" y1="348.3" x2="333.1" y2="309.3" opacity="1.0" stroke="rgb(0,0,0)"  stroke-width="3"/>
<line x1="333.1" y1="309.3" x2="299.4" y2="289.8" opacity="1.0" stroke="rgb(0,0,0)"  stroke-width="3"/>
<line x1="324.3" y1="312.5" x2="301.0" y2="299.1" opacity="1.0" stroke="rgb(0,0,0)"  stroke-width="3"/>
<line x1="299.4" y1="289.8" x2="265.7" y2="309.3" opacity="1.0" stroke="rgb(0,0,0)"  stroke-width="3"/>
<line x1="265.7" y1="309.3" x2="265.7" y2="348.3" opacity="1.0" stroke="rgb(0,0,0)"  stroke-width="3"/>
<line x1="272.9" y1="315.3" x2="272.9" y2="342.3" opacity="1.0" stroke="rgb(0,0,0)"  stroke-width="3"/>
<line x1="232.0" y1="250.9" x2="265.7" y2="231.4" opacity="1.0" stroke="rgb(0,0,0)"  stroke-width="3"/>
<line x1="240.8" y1="254.1" x2="264.1" y2="240.7" opacity="1.0" stroke="rgb(0,0,0)"  stroke-width="3"/>
<line x1="265.7" y1="231.4" x2="288.1" y2="244.4" opacity="1.0" stroke="rgb(0,0,0)"  stroke-width="3"/>
<line x1="299.4" y1="263.9" x2="299.4" y2="289.8" opacity="1.0" stroke="rgb(0,0,0)"  stroke-width="3"/>
<line x1="265.7" y1="309.3" x2="243.2" y2="296.3" opacity="1.0" stroke="rgb(0,0,0)"  stroke-width="3"/>
<line x1="192.4" y1="200.0" x2="224.2" y2="177.5" opacity="1.0" stroke="rgb(0,0,0)"  stroke-width="3"/>
<line x1="224.2" y1="177.5" x2="260.0" y2="192.9" opacity="1.0" stroke="rgb(0,0,0)"  stroke-width="3"/>
<line x1="226.9" y1="186.5" x2="251.7" y2="197.1" opacity="1.0" stroke="rgb(0,0,0)"  stroke-width="3"/>
<line x1="260.0" y1="192.9" x2="265.7" y2="231.4" opacity="1.0" stroke="rgb(0,0,0)"  stroke-width="3"/>
<line x1="194.9" y1="238.9" x2="192.4" y2="200.0" opacity="1.0" stroke="rgb(0,0,0)"  stroke-width="3"/>
<line x1="201.7" y1="232.4" x2="200.0" y2="205.5" opacity="1.0" stroke="rgb(0,0,0)"  stroke-width="3"/>
<line x1="355.6" y1="296.3" x2="333.1" y2="309.3" opacity="1.0" stroke="rgb(0,0,0)"  stroke-width="3"/>
<line x1="310.7" y1="244.4" x2="333.1" y2="231.4" opacity="1.0" stroke="rgb(0,0,0)"  stroke-width="3"/>
<line x1="333.1" y1="231.4" x2="366.9" y2="250.9" opacity="1.0" stroke="rgb(0,0,0)"  stroke-width="3"/>
<line x1="483.3" y1="295.6" x2="463.8" y2="329.3" opacity="1.0" stroke="rgb(0,0,0)"  stroke-width="3"/>
<line x1="463.8" y1="329.3" x2="424.8" y2="329.3" opacity="1.0" stroke="rgb(0,0,0)"  stroke-width="3"/>
<line x1="457.8" y1="322.1" x2="430.8" y2="322.1" opacity="1.0" stroke="rgb(0,0,0)"  stroke-width="3"/>
<line x1="424.8" y1="329.3" x2="405.4" y2="295.6" opacity="1.0" stroke="rgb(0,0,0)"  stroke-width="3"/>
<line x1="424.8" y1="261.9" x2="463.8" y2="261.9" opacity="1.0" stroke="rgb(0,0,0)"  stroke-width="3"/>
<line x1="463.8" y1="261.9" x2="483.3" y2="295.6" opacity="1.0" stroke="rgb(0,0,0)"  stroke-width="3"/>
<line x1="460.5" y1="270.7" x2="474.0" y2="294.0" opacity="1.0" stroke="rgb(0,0,0)"  stroke-width="3"/>
<line x1="179.1" y1="337.4" x2="194.9" y2="301.9" opacity="1.0" stroke="rgb(0,0,0)"  stroke-width="3"/>
<line x1="174.9" y1="329.0" x2="185.9" y2="304.4" opacity="1.0" stroke="rgb(0,0,0)"  stroke-width="3"/>
<line x1="172.0" y1="270.4" x2="133.3" y2="274.4" opacity="1.0" stroke="rgb(0,0,0)"  stroke-width="3"/>
<line x1="166.8" y1="278.2" x2="140.0" y2="281.0" opacity="1.0" stroke="rgb(0,0,0)"  stroke-width="3"/>
<line x1="133.3" y1="274.4" x2="117.5" y2="310.0" opacity="1.0" stroke="rgb(0,0,0)"  stroke-width="3"/>
<line x1="117.5" y1="310.0" x2="140.3" y2="341.5" opacity="1.0" stroke="rgb(0,0,0)"  stroke-width="3"/>
<line x1="126.8" y1="310.6" x2="142.6" y2="332.4" opacity="1.0" stroke="rgb(0,0,0)"  stroke-width="3"/>
<line x1="140.3" y1="341.5" x2="179.1" y2="337.4" opacity="1.0" stroke="rgb(0,0,0)"  stroke-width="3"/>
<line x1="333.1" y1="192.5" x2="333.1" y2="231.4" opacity="1.0" stroke="rgb(0,0,0)"  stroke-width="3"/>
<line x1="340.3" y1="198.5" x2="340.3" y2="225.4" opacity="1.0" stroke="rgb(0,0,0)"  stroke-width="3"/>
<line x1="400.6" y1="231.4" x2="400.6" y2="192.5" opacity="1.0" stroke="rgb(0,0,0)"  stroke-width="3"/>
<line x1="400.6" y1="192.5" x2="366.9" y2="173.0" opacity="1.0" stroke="rgb(0,0,0)"  stroke-width="3"/>
<line x1="391.8" y1="195.7" x2="368.5" y2="182.2" opacity="1.0" stroke="rgb(0,0,0)"  stroke-width="3"/>
<line x1="265.7" y1="499.0" x2="265.7" y2="538.0" opacity="1.0" stroke="rgb(0,0,0)"  stroke-width="3"/>
<line x1="265.7" y1="538.0" x2="299.4" y2="557.5" opacity="1.0" stroke="rgb(0,0,0)"  stroke-width="3"/>
<line x1="274.5" y1="534.7" x2="297.8" y2="548.2" opacity="1.0" stroke="rgb(0,0,0)"  stroke-width="3"/>
<line x1="299.4" y1="557.5" x2="333.1" y2="538.0" opacity="1.0" stroke="rgb(0,0,0)"  stroke-width="3"/>
<line x1="333.1" y1="538.0" x2="333.1" y2="499.0" opacity="1.0" stroke="rgb(0,0,0)"  stroke-width="3"/>
<line x1="325.9" y1="532.0" x2="325.9" y2="505.0" opacity="1.0" stroke="rgb(0,0,0)"  stroke-width="3"/>
<line x1="333.1" y1="499.0" x2="299.4" y2="479.6" opacity="1.0" stroke="rgb(0,0,0)"  stroke-width="3"/>
<line x1="299.4" y1="479.6" x2="265.7" y2="499.0" opacity="1.0" stroke="rgb(0,0,0)"  stroke-width="3"/>
<line x1="297.8" y1="488.8" x2="274.5" y2="502.3" opacity="1.0" stroke="rgb(0,0,0)"  stroke-width="3"/>
<line x1="242.6" y1="139.0" x2="265.5" y2="170.5" opacity="1.0" stroke="rgb(0,0,0)"  stroke-width="3"/>
<line x1="251.9" y1="139.6" x2="267.8" y2="161.4" opacity="1.0" stroke="rgb(0,0,0)"  stroke-width="3"/>
<line x1="265.5" y1="170.5" x2="304.2" y2="166.4" opacity="1.0" stroke="rgb(0,0,0)"  stroke-width="3"/>
<line x1="320.0" y1="130.8" x2="297.1" y2="99.3" opacity="1.0" stroke="rgb(0,0,0)"  stroke-width="3"/>
<line x1="297.1" y1="99.3" x2="258.4" y2="103.4" opacity="1.0" stroke="rgb(0,0,0)"  stroke-width="3"/>
<line x1="291.9" y1="107.1" x2="265.1" y2="109.9" opacity="1.0" stroke="rgb(0,0,0)"  stroke-width="3"/>
<line x1="258.4" y1="103.4" x2="242.6" y2="139.0" opacity="1.0" stroke="rgb(0,0,0)"  stroke-width="3"/>
<line x1="422.9" y1="114.1" x2="449.0" y2="85.1" opacity="1.0" stroke="rgb(0,0,0)"  stroke-width="3"/>
<line x1="449.0" y1="85.1" x2="436.9" y2="48.1" opacity="1.0" stroke="rgb(0,0,0)"  stroke-width="3"/>
<line x1="440.3" y1="81.7" x2="431.9" y2="56.0" opacity="1.0" stroke="rgb(0,0,0)"  stroke-width="3"/>
<line x1="436.9" y1="48.1" x2="398.8" y2="40.0" opacity="1.0" stroke="rgb(0,0,0)"  stroke-width="3"/>
<line x1="398.8" y1="40.0" x2="372.8" y2="68.9" opacity="1.0" stroke="rgb(0,0,0)"  stroke-width="3"/>
<line x1="400.2" y1="49.3" x2="382.1" y2="69.3" opacity="1.0" stroke="rgb(0,0,0)"  stroke-width="3"/>
<line x1="372.8" y1="68.9" x2="384.8" y2="106.0" opacity="1.0" stroke="rgb(0,0,0)"  stroke-width="3"/>
<line x1="384.8" y1="106.0" x2="422.9" y2="114.1" opacity="1.0" stroke="rgb(0,0,0)"  stroke-width="3"/>
<line x1="392.2" y1="100.2" x2="418.5" y2="105.8" opacity="1.0" stroke="rgb(0,0,0)"  stroke-width="3"/>
<line x1="400.6" y1="499.0" x2="434.3" y2="479.6" opacity="1.0" stroke="rgb(0,0,0)"  stroke-width="3"/>
<line x1="434.3" y1="479.6" x2="434.3" y2="440.6" opacity="1.0" stroke="rgb(0,0,0)"  stroke-width="3"/>
<line x1="427.1" y1="473.6" x2="427.1" y2="446.6" opacity="1.0" stroke="rgb(0,0,0)"  stroke-width="3"/>
<line x1="434.3" y1="440.6" x2="400.6" y2="421.2" opacity="1.0" stroke="rgb(0,0,0)"  stroke-width="3"/>
<line x1="400.6" y1="421.2" x2="366.9" y2="440.6" opacity="1.0" stroke="rgb(0,0,0)"  stroke-width="3"/>
<line x1="399.0" y1="430.4" x2="375.7" y2="443.9" opacity="1.0" stroke="rgb(0,0,0)"  stroke-width="3"/>
<line x1="366.9" y1="440.6" x2="366.9" y2="479.6" opacity="1.0" stroke="rgb(0,0,0)"  stroke-width="3"/>
<line x1="366.9" y1="479.6" x2="400.6" y2="499.0" opacity="1.0" stroke="rgb(0,0,0)"  stroke-width="3"/>
<line x1="375.7" y1="476.3" x2="399.0" y2="489.8" opacity="1.0" stroke="rgb(0,0,0)"  stroke-width="3"/>
<line x1="468.0" y1="538.0" x2="468.0" y2="499.0" opacity="1.0" stroke="rgb(0,0,0)"  stroke-width="3"/>
<line x1="460.8" y1="532.0" x2="460.8" y2="505.0" opacity="1.0" stroke="rgb(0,0,0)"  stroke-width="3"/>
<line x1="468.0" y1="499.0" x2="434.3" y2="479.6" opacity="1.0" stroke="rgb(0,0,0)"  stroke-width="3"/>
<line x1="400.6" y1="499.0" x2="400.6" y2="538.0" opacity="1.0" stroke="rgb(0,0,0)"  stroke-width="3"/>
<line x1="400.6" y1="538.0" x2="434.3" y2="557.5" opacity="1.0" stroke="rgb(0,0,0)"  stroke-width="3"/>
<line x1="409.4" y1="534.7" x2="432.7" y2="548.2" opacity="1.0" stroke="rgb(0,0,0)"  stroke-width="3"/>
<line x1="434.3" y1="557.5" x2="468.0" y2="538.0" opacity="1.0" stroke="rgb(0,0,0)"  stroke-width="3"/>
<line x1="333.1" y1="382.2" x2="333.1" y2="421.2" opacity="1.0" stroke="rgb(0,0,0)"  stroke-width="3"/>
<line x1="340.3" y1="388.2" x2="340.3" y2="415.2" opacity="1.0" stroke="rgb(0,0,0)"  stroke-width="3"/>
<line x1="333.1" y1="421.2" x2="366.9" y2="440.6" opacity="1.0" stroke="rgb(0,0,0)"  stroke-width="3"/>
<line x1="400.6" y1="421.2" x2="400.6" y2="382.2" opacity="1.0" stroke="rgb(0,0,0)"  stroke-width="3"/>
<line x1="400.6" y1="382.2" x2="366.9" y2="362.7" opacity="1.0" stroke="rgb(0,0,0)"  stroke-width="3"/>
<line x1="391.8" y1="385.4" x2="368.5" y2="372.0" opacity="1.0" stroke="rgb(0,0,0)"  stroke-width="3"/>
<line x1="366.9" y1="362.7" x2="333.1" y2="382.2" opacity="1.0" stroke="rgb(0,0,0)"  stroke-width="3"/>
<line x1="501.8" y1="440.6" x2="535.5" y2="421.2" opacity="1.0" stroke="rgb(0,0,0)"  stroke-width="3"/>
<line x1="535.5" y1="421.2" x2="535.5" y2="382.2" opacity="1.0" stroke="rgb(0,0,0)"  stroke-width="3"/>
<line x1="528.3" y1="415.2" x2="528.3" y2="388.2" opacity="1.0" stroke="rgb(0,0,0)"  stroke-width="3"/>
<line x1="535.5" y1="382.2" x2="501.8" y2="362.7" opacity="1.0" stroke="rgb(0,0,0)"  stroke-width="3"/>
<line x1="501.8" y1="362.7" x2="468.0" y2="382.2" opacity="1.0" stroke="rgb(0,0,0)"  stroke-width="3"/>
<line x1="500.2" y1="372.0" x2="476.8" y2="385.4" opacity="1.0" stroke="rgb(0,0,0)"  stroke-width="3"/>
<line x1="468.0" y1="382.2" x2="468.0" y2="421.2" opacity="1.0" stroke="rgb(0,0,0)"  stroke-width="3"/>
<line x1="468.0" y1="421.2" x2="501.8" y2="440.6" opacity="1.0" stroke="rgb(0,0,0)"  stroke-width="3"/>
<line x1="476.8" y1="417.9" x2="500.2" y2="431.4" opacity="1.0" stroke="rgb(0,0,0)"  stroke-width="3"/>
<line x1="265.6" y1="616.1" x2="265.6" y2="655.1" opacity="1.0" stroke="rgb(0,0,0)"  stroke-width="3"/>
<line x1="265.6" y1="655.1" x2="299.4" y2="674.7" opacity="1.0" stroke="rgb(0,0,0)"  stroke-width="3"/>
<line x1="274.4" y1="651.9" x2="297.8" y2="665.5" opacity="1.0" stroke="rgb(0,0,0)"  stroke-width="3"/>
<line x1="299.4" y1="674.7" x2="333.2" y2="655.1" opacity="1.0" stroke="rgb(0,0,0)"  stroke-width="3"/>
<line x1="333.2" y1="655.1" x2="333.2" y2="616.1" opacity="1.0" stroke="rgb(0,0,0)"  stroke-width="3"/>
<line x1="326.0" y1="649.1" x2="326.0" y2="622.1" opacity="1.0" stroke="rgb(0,0,0)"  stroke-width="3"/>
<line x1="333.2" y1="616.1" x2="299.4" y2="596.5" opacity="1.0" stroke="rgb(0,0,0)"  stroke-width="3"/>
<line x1="299.4" y1="596.5" x2="265.6" y2="616.1" opacity="1.0" stroke="rgb(0,0,0)"  stroke-width="3"/>
<line x1="297.8" y1="605.8" x2="274.4" y2="619.3" opacity="1.0" stroke="rgb(0,0,0)"  stroke-width="3"/>
<text x="360.855893" y="297.836822" fill="rgb(12,12,255)" stroke-width="0" font-weight="bold" font-size="25.92" >N</text>
<text x="225.954277" y="297.836822" fill="rgb(12,12,255)" stroke-width="0" font-weight="bold" font-size="25.92" >N</text>
<text x="352.759227" y="142.916882" fill="rgb(12,12,255)" stroke-width="0" font-weight="bold" font-size="25.92" >N</text>
<text x="293.405061" y="258.894085" fill="rgb(255,181,181)" stroke-width="0" font-weight="bold" font-size="25.92" >B</text>
</svg>
</g>
</svg>
