<?xml version="1.0"?>
<svg version="1.1" id="topsvg"
xmlns="http://www.w3.org/2000/svg" xmlns:xlink="http://www.w3.org/1999/xlink"
xmlns:cml="http://www.xml-cml.org/schema" x="0" y="0" width="200px" height="200px" viewBox="0 0 100 100">
<title>GD197.sdf - Open Babel Depiction</title>
<rect x="0" y="0" width="100" height="100" fill="white"/>
<g transform="translate(0,0)">
<svg width="100" height="100" x="0" y="0" viewBox="0 0 617.787 514.811"
font-family="sans-serif" stroke="rgb(0,0,0)" stroke-width="3"  stroke-linecap="round">
<line x1="179.4" y1="179.1" x2="157.0" y2="165.0" opacity="1.0" stroke="rgb(0,0,0)"  stroke-width="3"/>
<line x1="134.5" y1="164.2" x2="111.1" y2="176.6" opacity="1.0" stroke="rgb(0,0,0)"  stroke-width="3"/>
<line x1="146.5" y1="145.1" x2="147.5" y2="118.7" opacity="1.0" stroke="rgb(0,0,0)"  stroke-width="3"/>
<line x1="499.7" y1="314.1" x2="460.7" y2="308.5" opacity="1.0" stroke="rgb(0,0,0)"  stroke-width="3"/>
<line x1="350.4" y1="165.9" x2="351.9" y2="126.4" opacity="1.0" stroke="rgb(0,0,0)"  stroke-width="3"/>
<line x1="152.3" y1="248.3" x2="178.0" y2="218.4" opacity="1.0" stroke="rgb(0,0,0)"  stroke-width="3"/>
<line x1="178.0" y1="218.4" x2="211.3" y2="239.4" opacity="1.0" stroke="rgb(0,0,0)"  stroke-width="3"/>
<line x1="211.3" y1="239.4" x2="210.3" y2="265.7" opacity="1.0" stroke="rgb(0,0,0)"  stroke-width="3"/>
<line x1="196.9" y1="280.1" x2="170.7" y2="283.0" opacity="1.0" stroke="rgb(0,0,0)"  stroke-width="3"/>
<line x1="170.7" y1="283.0" x2="152.3" y2="248.3" opacity="1.0" stroke="rgb(0,0,0)"  stroke-width="3"/>
<line x1="174.3" y1="274.4" x2="161.5" y2="250.2" opacity="1.0" stroke="rgb(0,0,0)"  stroke-width="3"/>
<line x1="407.2" y1="266.4" x2="382.2" y2="226.1" opacity="1.0" stroke="rgb(0,0,0)"  stroke-width="3"/>
<line x1="382.2" y1="226.1" x2="347.4" y2="244.5" opacity="1.0" stroke="rgb(0,0,0)"  stroke-width="3"/>
<line x1="347.4" y1="244.5" x2="346.4" y2="270.8" opacity="1.0" stroke="rgb(0,0,0)"  stroke-width="3"/>
<line x1="358.1" y1="288.3" x2="382.9" y2="297.4" opacity="1.0" stroke="rgb(0,0,0)"  stroke-width="3"/>
<line x1="382.9" y1="297.4" x2="407.2" y2="266.4" opacity="1.0" stroke="rgb(0,0,0)"  stroke-width="3"/>
<line x1="380.9" y1="288.2" x2="397.8" y2="266.7" opacity="1.0" stroke="rgb(0,0,0)"  stroke-width="3"/>
<line x1="241.6" y1="338.9" x2="274.9" y2="359.8" opacity="1.0" stroke="rgb(0,0,0)"  stroke-width="3"/>
<line x1="274.9" y1="359.8" x2="309.7" y2="341.5" opacity="1.0" stroke="rgb(0,0,0)"  stroke-width="3"/>
<line x1="276.8" y1="350.7" x2="301.0" y2="337.9" opacity="1.0" stroke="rgb(0,0,0)"  stroke-width="3"/>
<line x1="309.7" y1="341.5" x2="311.2" y2="302.2" opacity="1.0" stroke="rgb(0,0,0)"  stroke-width="3"/>
<line x1="311.2" y1="302.2" x2="277.9" y2="281.2" opacity="1.0" stroke="rgb(0,0,0)"  stroke-width="3"/>
<line x1="302.2" y1="305.1" x2="279.1" y2="290.5" opacity="1.0" stroke="rgb(0,0,0)"  stroke-width="3"/>
<line x1="277.9" y1="281.2" x2="243.1" y2="299.6" opacity="1.0" stroke="rgb(0,0,0)"  stroke-width="3"/>
<line x1="243.1" y1="299.6" x2="241.6" y2="338.9" opacity="1.0" stroke="rgb(0,0,0)"  stroke-width="3"/>
<line x1="250.0" y1="305.9" x2="249.0" y2="333.2" opacity="1.0" stroke="rgb(0,0,0)"  stroke-width="3"/>
<line x1="278.8" y1="254.9" x2="277.9" y2="281.2" opacity="1.0" stroke="rgb(0,0,0)"  stroke-width="3"/>
<line x1="243.1" y1="299.6" x2="220.8" y2="285.6" opacity="1.0" stroke="rgb(0,0,0)"  stroke-width="3"/>
<line x1="211.3" y1="239.4" x2="246.0" y2="221.0" opacity="1.0" stroke="rgb(0,0,0)"  stroke-width="3"/>
<line x1="219.9" y1="242.9" x2="244.1" y2="230.2" opacity="1.0" stroke="rgb(0,0,0)"  stroke-width="3"/>
<line x1="246.0" y1="221.0" x2="268.3" y2="235.0" opacity="1.0" stroke="rgb(0,0,0)"  stroke-width="3"/>
<line x1="347.4" y1="244.5" x2="314.1" y2="223.6" opacity="1.0" stroke="rgb(0,0,0)"  stroke-width="3"/>
<line x1="338.5" y1="247.4" x2="315.4" y2="232.8" opacity="1.0" stroke="rgb(0,0,0)"  stroke-width="3"/>
<line x1="314.1" y1="223.6" x2="290.8" y2="235.9" opacity="1.0" stroke="rgb(0,0,0)"  stroke-width="3"/>
<line x1="311.2" y1="302.2" x2="334.4" y2="289.9" opacity="1.0" stroke="rgb(0,0,0)"  stroke-width="3"/>
<line x1="110.5" y1="314.8" x2="149.8" y2="316.3" opacity="1.0" stroke="rgb(0,0,0)"  stroke-width="3"/>
<line x1="116.7" y1="307.9" x2="144.0" y2="308.9" opacity="1.0" stroke="rgb(0,0,0)"  stroke-width="3"/>
<line x1="149.8" y1="316.3" x2="170.7" y2="283.0" opacity="1.0" stroke="rgb(0,0,0)"  stroke-width="3"/>
<line x1="152.3" y1="248.3" x2="113.0" y2="246.8" opacity="1.0" stroke="rgb(0,0,0)"  stroke-width="3"/>
<line x1="113.0" y1="246.8" x2="92.1" y2="280.1" opacity="1.0" stroke="rgb(0,0,0)"  stroke-width="3"/>
<line x1="115.9" y1="255.7" x2="101.4" y2="278.8" opacity="1.0" stroke="rgb(0,0,0)"  stroke-width="3"/>
<line x1="92.1" y1="280.1" x2="110.5" y2="314.8" opacity="1.0" stroke="rgb(0,0,0)"  stroke-width="3"/>
<line x1="350.4" y1="165.9" x2="315.6" y2="184.3" opacity="1.0" stroke="rgb(0,0,0)"  stroke-width="3"/>
<line x1="348.4" y1="175.1" x2="324.3" y2="187.8" opacity="1.0" stroke="rgb(0,0,0)"  stroke-width="3"/>
<line x1="315.6" y1="184.3" x2="314.1" y2="223.6" opacity="1.0" stroke="rgb(0,0,0)"  stroke-width="3"/>
<line x1="382.2" y1="226.1" x2="383.7" y2="186.8" opacity="1.0" stroke="rgb(0,0,0)"  stroke-width="3"/>
<line x1="375.2" y1="219.9" x2="376.3" y2="192.5" opacity="1.0" stroke="rgb(0,0,0)"  stroke-width="3"/>
<line x1="383.7" y1="186.8" x2="350.4" y2="165.9" opacity="1.0" stroke="rgb(0,0,0)"  stroke-width="3"/>
<line x1="178.0" y1="218.4" x2="179.4" y2="179.1" opacity="1.0" stroke="rgb(0,0,0)"  stroke-width="3"/>
<line x1="185.4" y1="212.7" x2="186.4" y2="185.4" opacity="1.0" stroke="rgb(0,0,0)"  stroke-width="3"/>
<line x1="179.4" y1="179.1" x2="214.2" y2="160.8" opacity="1.0" stroke="rgb(0,0,0)"  stroke-width="3"/>
<line x1="214.2" y1="160.8" x2="247.5" y2="181.7" opacity="1.0" stroke="rgb(0,0,0)"  stroke-width="3"/>
<line x1="215.5" y1="170.0" x2="238.6" y2="184.6" opacity="1.0" stroke="rgb(0,0,0)"  stroke-width="3"/>
<line x1="247.5" y1="181.7" x2="246.0" y2="221.0" opacity="1.0" stroke="rgb(0,0,0)"  stroke-width="3"/>
<line x1="460.7" y1="308.5" x2="446.1" y2="272.0" opacity="1.0" stroke="rgb(0,0,0)"  stroke-width="3"/>
<line x1="451.8" y1="305.6" x2="441.6" y2="280.3" opacity="1.0" stroke="rgb(0,0,0)"  stroke-width="3"/>
<line x1="446.1" y1="272.0" x2="407.2" y2="266.4" opacity="1.0" stroke="rgb(0,0,0)"  stroke-width="3"/>
<line x1="382.9" y1="297.4" x2="397.5" y2="333.9" opacity="1.0" stroke="rgb(0,0,0)"  stroke-width="3"/>
<line x1="397.5" y1="333.9" x2="436.4" y2="339.4" opacity="1.0" stroke="rgb(0,0,0)"  stroke-width="3"/>
<line x1="404.4" y1="327.6" x2="431.5" y2="331.5" opacity="1.0" stroke="rgb(0,0,0)"  stroke-width="3"/>
<line x1="436.4" y1="339.4" x2="460.7" y2="308.5" opacity="1.0" stroke="rgb(0,0,0)"  stroke-width="3"/>
<line x1="251.9" y1="457.4" x2="289.7" y2="468.3" opacity="1.0" stroke="rgb(0,0,0)"  stroke-width="3"/>
<line x1="259.7" y1="452.2" x2="285.9" y2="459.7" opacity="1.0" stroke="rgb(0,0,0)"  stroke-width="3"/>
<line x1="289.7" y1="468.3" x2="318.0" y2="441.0" opacity="1.0" stroke="rgb(0,0,0)"  stroke-width="3"/>
<line x1="318.0" y1="441.0" x2="308.5" y2="402.9" opacity="1.0" stroke="rgb(0,0,0)"  stroke-width="3"/>
<line x1="309.6" y1="436.9" x2="303.0" y2="410.4" opacity="1.0" stroke="rgb(0,0,0)"  stroke-width="3"/>
<line x1="308.5" y1="402.9" x2="270.7" y2="392.0" opacity="1.0" stroke="rgb(0,0,0)"  stroke-width="3"/>
<line x1="270.7" y1="392.0" x2="242.4" y2="419.3" opacity="1.0" stroke="rgb(0,0,0)"  stroke-width="3"/>
<line x1="271.4" y1="401.3" x2="251.7" y2="420.3" opacity="1.0" stroke="rgb(0,0,0)"  stroke-width="3"/>
<line x1="242.4" y1="419.3" x2="251.9" y2="457.4" opacity="1.0" stroke="rgb(0,0,0)"  stroke-width="3"/>
<line x1="435.2" y1="432.9" x2="411.0" y2="401.9" opacity="1.0" stroke="rgb(0,0,0)"  stroke-width="3"/>
<line x1="425.8" y1="432.6" x2="409.0" y2="411.1" opacity="1.0" stroke="rgb(0,0,0)"  stroke-width="3"/>
<line x1="411.0" y1="401.9" x2="372.0" y2="407.3" opacity="1.0" stroke="rgb(0,0,0)"  stroke-width="3"/>
<line x1="372.0" y1="407.3" x2="357.2" y2="443.8" opacity="1.0" stroke="rgb(0,0,0)"  stroke-width="3"/>
<line x1="376.4" y1="415.6" x2="366.2" y2="440.9" opacity="1.0" stroke="rgb(0,0,0)"  stroke-width="3"/>
<line x1="357.2" y1="443.8" x2="381.4" y2="474.8" opacity="1.0" stroke="rgb(0,0,0)"  stroke-width="3"/>
<line x1="381.4" y1="474.8" x2="420.4" y2="469.4" opacity="1.0" stroke="rgb(0,0,0)"  stroke-width="3"/>
<line x1="386.4" y1="466.9" x2="413.5" y2="463.1" opacity="1.0" stroke="rgb(0,0,0)"  stroke-width="3"/>
<line x1="420.4" y1="469.4" x2="435.2" y2="432.9" opacity="1.0" stroke="rgb(0,0,0)"  stroke-width="3"/>
<line x1="78.5" y1="154.3" x2="43.0" y2="171.4" opacity="1.0" stroke="rgb(0,0,0)"  stroke-width="3"/>
<line x1="43.0" y1="171.4" x2="40.0" y2="210.8" opacity="1.0" stroke="rgb(0,0,0)"  stroke-width="3"/>
<line x1="49.7" y1="177.9" x2="47.6" y2="205.3" opacity="1.0" stroke="rgb(0,0,0)"  stroke-width="3"/>
<line x1="40.0" y1="210.8" x2="72.6" y2="233.0" opacity="1.0" stroke="rgb(0,0,0)"  stroke-width="3"/>
<line x1="72.6" y1="233.0" x2="108.2" y2="215.9" opacity="1.0" stroke="rgb(0,0,0)"  stroke-width="3"/>
<line x1="74.9" y1="223.9" x2="99.6" y2="212.0" opacity="1.0" stroke="rgb(0,0,0)"  stroke-width="3"/>
<line x1="108.2" y1="215.9" x2="111.1" y2="176.6" opacity="1.0" stroke="rgb(0,0,0)"  stroke-width="3"/>
<line x1="111.1" y1="176.6" x2="78.5" y2="154.3" opacity="1.0" stroke="rgb(0,0,0)"  stroke-width="3"/>
<line x1="102.1" y1="179.1" x2="79.4" y2="163.6" opacity="1.0" stroke="rgb(0,0,0)"  stroke-width="3"/>
<line x1="180.0" y1="96.3" x2="176.8" y2="56.9" opacity="1.0" stroke="rgb(0,0,0)"  stroke-width="3"/>
<line x1="176.8" y1="56.9" x2="141.2" y2="40.0" opacity="1.0" stroke="rgb(0,0,0)"  stroke-width="3"/>
<line x1="168.3" y1="60.9" x2="143.5" y2="49.1" opacity="1.0" stroke="rgb(0,0,0)"  stroke-width="3"/>
<line x1="141.2" y1="40.0" x2="108.7" y2="62.4" opacity="1.0" stroke="rgb(0,0,0)"  stroke-width="3"/>
<line x1="108.7" y1="62.4" x2="111.9" y2="101.8" opacity="1.0" stroke="rgb(0,0,0)"  stroke-width="3"/>
<line x1="116.4" y1="67.8" x2="118.6" y2="95.2" opacity="1.0" stroke="rgb(0,0,0)"  stroke-width="3"/>
<line x1="111.9" y1="101.8" x2="147.5" y2="118.7" opacity="1.0" stroke="rgb(0,0,0)"  stroke-width="3"/>
<line x1="147.5" y1="118.7" x2="180.0" y2="96.3" opacity="1.0" stroke="rgb(0,0,0)"  stroke-width="3"/>
<line x1="148.4" y1="109.3" x2="171.0" y2="93.7" opacity="1.0" stroke="rgb(0,0,0)"  stroke-width="3"/>
<line x1="384.3" y1="104.0" x2="381.2" y2="64.7" opacity="1.0" stroke="rgb(0,0,0)"  stroke-width="3"/>
<line x1="381.2" y1="64.7" x2="345.5" y2="47.8" opacity="1.0" stroke="rgb(0,0,0)"  stroke-width="3"/>
<line x1="372.7" y1="68.6" x2="347.9" y2="56.8" opacity="1.0" stroke="rgb(0,0,0)"  stroke-width="3"/>
<line x1="345.5" y1="47.8" x2="313.0" y2="70.2" opacity="1.0" stroke="rgb(0,0,0)"  stroke-width="3"/>
<line x1="313.0" y1="70.2" x2="316.2" y2="109.5" opacity="1.0" stroke="rgb(0,0,0)"  stroke-width="3"/>
<line x1="320.7" y1="75.6" x2="322.9" y2="103.0" opacity="1.0" stroke="rgb(0,0,0)"  stroke-width="3"/>
<line x1="316.2" y1="109.5" x2="351.9" y2="126.4" opacity="1.0" stroke="rgb(0,0,0)"  stroke-width="3"/>
<line x1="351.9" y1="126.4" x2="384.3" y2="104.0" opacity="1.0" stroke="rgb(0,0,0)"  stroke-width="3"/>
<line x1="352.7" y1="117.1" x2="375.3" y2="101.5" opacity="1.0" stroke="rgb(0,0,0)"  stroke-width="3"/>
<line x1="514.3" y1="350.7" x2="553.4" y2="356.3" opacity="1.0" stroke="rgb(0,0,0)"  stroke-width="3"/>
<line x1="553.4" y1="356.3" x2="577.8" y2="325.3" opacity="1.0" stroke="rgb(0,0,0)"  stroke-width="3"/>
<line x1="551.4" y1="347.2" x2="568.4" y2="325.6" opacity="1.0" stroke="rgb(0,0,0)"  stroke-width="3"/>
<line x1="577.8" y1="325.3" x2="563.1" y2="288.7" opacity="1.0" stroke="rgb(0,0,0)"  stroke-width="3"/>
<line x1="563.1" y1="288.7" x2="524.0" y2="283.1" opacity="1.0" stroke="rgb(0,0,0)"  stroke-width="3"/>
<line x1="556.1" y1="294.9" x2="529.0" y2="291.0" opacity="1.0" stroke="rgb(0,0,0)"  stroke-width="3"/>
<line x1="524.0" y1="283.1" x2="499.7" y2="314.1" opacity="1.0" stroke="rgb(0,0,0)"  stroke-width="3"/>
<line x1="499.7" y1="314.1" x2="514.3" y2="350.7" opacity="1.0" stroke="rgb(0,0,0)"  stroke-width="3"/>
<line x1="508.6" y1="317.0" x2="518.8" y2="342.5" opacity="1.0" stroke="rgb(0,0,0)"  stroke-width="3"/>
<line x1="318.0" y1="441.0" x2="357.2" y2="443.8" opacity="1.0" stroke="rgb(0,0,0)"  stroke-width="3"/>
<line x1="372.0" y1="407.3" x2="342.6" y2="372.2" opacity="1.0" stroke="rgb(0,0,0)"  stroke-width="3"/>
<line x1="342.6" y1="372.2" x2="308.5" y2="402.9" opacity="1.0" stroke="rgb(0,0,0)"  stroke-width="3"/>
<line x1="397.5" y1="333.9" x2="342.6" y2="372.2" opacity="1.0" stroke="rgb(0,0,0)"  stroke-width="3"/>
<line x1="342.6" y1="372.2" x2="309.7" y2="341.5" opacity="1.0" stroke="rgb(0,0,0)"  stroke-width="3"/>
<text x="140.036099" y="166.119783" fill="rgb(12,12,255)" stroke-width="0" font-weight="bold" font-size="25.92" >N</text>
<text x="203.782582" y="286.666904" fill="rgb(12,12,255)" stroke-width="0" font-weight="bold" font-size="25.92" >N</text>
<text x="339.931421" y="291.797950" fill="rgb(12,12,255)" stroke-width="0" font-weight="bold" font-size="25.92" >N</text>
<text x="273.338525" y="249.929705" fill="rgb(255,181,181)" stroke-width="0" font-weight="bold" font-size="25.92" >B</text>
</svg>
</g>
</svg>
