<?xml version="1.0"?>
<svg version="1.1" id="topsvg"
xmlns="http://www.w3.org/2000/svg" xmlns:xlink="http://www.w3.org/1999/xlink"
xmlns:cml="http://www.xml-cml.org/schema" x="0" y="0" width="200px" height="200px" viewBox="0 0 100 100">
<title>GD191.sdf - Open Babel Depiction</title>
<rect x="0" y="0" width="100" height="100" fill="white"/>
<g transform="translate(0,0)">
<svg width="100" height="100" x="0" y="0" viewBox="0 0 602.116 648.343"
font-family="sans-serif" stroke="rgb(0,0,0)" stroke-width="3"  stroke-linecap="round">
<line x1="118.4" y1="313.4" x2="79.2" y2="317.5" opacity="1.0" stroke="rgb(0,0,0)"  stroke-width="3"/>
<line x1="79.2" y1="317.5" x2="56.0" y2="285.6" opacity="1.0" stroke="rgb(0,0,0)"  stroke-width="3"/>
<line x1="79.2" y1="317.5" x2="63.2" y2="353.5" opacity="1.0" stroke="rgb(0,0,0)"  stroke-width="3"/>
<line x1="79.2" y1="317.5" x2="40.0" y2="321.6" opacity="1.0" stroke="rgb(0,0,0)"  stroke-width="3"/>
<line x1="371.4" y1="126.4" x2="389.1" y2="106.8" opacity="1.0" stroke="rgb(0,0,0)"  stroke-width="3"/>
<line x1="336.8" y1="549.2" x2="391.4" y2="517.7" opacity="1.0" stroke="rgb(0,0,0)"  stroke-width="3"/>
<line x1="459.7" y1="478.2" x2="493.8" y2="458.5" opacity="1.0" stroke="rgb(0,0,0)"  stroke-width="3"/>
<line x1="226.5" y1="179.2" x2="218.7" y2="104.7" opacity="1.0" stroke="rgb(0,0,0)"  stroke-width="3"/>
<line x1="218.7" y1="104.7" x2="250.6" y2="81.6" opacity="1.0" stroke="rgb(0,0,0)"  stroke-width="3"/>
<line x1="218.7" y1="104.7" x2="214.6" y2="65.5" opacity="1.0" stroke="rgb(0,0,0)"  stroke-width="3"/>
<line x1="218.7" y1="104.7" x2="182.7" y2="88.7" opacity="1.0" stroke="rgb(0,0,0)"  stroke-width="3"/>
<line x1="302.6" y1="371.8" x2="302.6" y2="411.2" opacity="1.0" stroke="rgb(0,0,0)"  stroke-width="3"/>
<line x1="302.6" y1="490.1" x2="302.6" y2="529.5" opacity="1.0" stroke="rgb(0,0,0)"  stroke-width="3"/>
<line x1="173.7" y1="273.2" x2="196.8" y2="241.3" opacity="1.0" stroke="rgb(0,0,0)"  stroke-width="3"/>
<line x1="196.8" y1="241.3" x2="234.3" y2="253.5" opacity="1.0" stroke="rgb(0,0,0)"  stroke-width="3"/>
<line x1="234.3" y1="253.5" x2="234.3" y2="279.9" opacity="1.0" stroke="rgb(0,0,0)"  stroke-width="3"/>
<line x1="222.0" y1="297.0" x2="196.8" y2="305.1" opacity="1.0" stroke="rgb(0,0,0)"  stroke-width="3"/>
<line x1="196.8" y1="305.1" x2="173.7" y2="273.2" opacity="1.0" stroke="rgb(0,0,0)"  stroke-width="3"/>
<line x1="429.6" y1="264.6" x2="409.9" y2="298.8" opacity="1.0" stroke="rgb(0,0,0)"  stroke-width="3"/>
<line x1="420.4" y1="266.2" x2="406.7" y2="290.0" opacity="1.0" stroke="rgb(0,0,0)"  stroke-width="3"/>
<line x1="409.9" y1="298.8" x2="383.8" y2="294.9" opacity="1.0" stroke="rgb(0,0,0)"  stroke-width="3"/>
<line x1="370.9" y1="279.9" x2="370.9" y2="253.5" opacity="1.0" stroke="rgb(0,0,0)"  stroke-width="3"/>
<line x1="370.9" y1="253.5" x2="405.1" y2="233.8" opacity="1.0" stroke="rgb(0,0,0)"  stroke-width="3"/>
<line x1="379.7" y1="256.7" x2="403.5" y2="243.0" opacity="1.0" stroke="rgb(0,0,0)"  stroke-width="3"/>
<line x1="405.1" y1="233.8" x2="429.6" y2="264.6" opacity="1.0" stroke="rgb(0,0,0)"  stroke-width="3"/>
<line x1="323.5" y1="132.0" x2="349.8" y2="134.7" opacity="1.0" stroke="rgb(0,0,0)"  stroke-width="3"/>
<line x1="365.4" y1="148.8" x2="370.9" y2="174.7" opacity="1.0" stroke="rgb(0,0,0)"  stroke-width="3"/>
<line x1="370.9" y1="174.7" x2="336.8" y2="194.4" opacity="1.0" stroke="rgb(0,0,0)"  stroke-width="3"/>
<line x1="336.8" y1="194.4" x2="307.5" y2="168.0" opacity="1.0" stroke="rgb(0,0,0)"  stroke-width="3"/>
<line x1="307.5" y1="168.0" x2="323.5" y2="132.0" opacity="1.0" stroke="rgb(0,0,0)"  stroke-width="3"/>
<line x1="316.5" y1="165.4" x2="327.6" y2="140.4" opacity="1.0" stroke="rgb(0,0,0)"  stroke-width="3"/>
<line x1="268.5" y1="352.1" x2="302.6" y2="371.8" opacity="1.0" stroke="rgb(0,0,0)"  stroke-width="3"/>
<line x1="302.6" y1="371.8" x2="336.8" y2="352.1" opacity="1.0" stroke="rgb(0,0,0)"  stroke-width="3"/>
<line x1="304.2" y1="362.6" x2="328.0" y2="348.8" opacity="1.0" stroke="rgb(0,0,0)"  stroke-width="3"/>
<line x1="336.8" y1="352.1" x2="336.8" y2="312.6" opacity="1.0" stroke="rgb(0,0,0)"  stroke-width="3"/>
<line x1="336.8" y1="312.6" x2="302.6" y2="292.9" opacity="1.0" stroke="rgb(0,0,0)"  stroke-width="3"/>
<line x1="328.0" y1="315.9" x2="304.2" y2="302.2" opacity="1.0" stroke="rgb(0,0,0)"  stroke-width="3"/>
<line x1="302.6" y1="292.9" x2="268.5" y2="312.6" opacity="1.0" stroke="rgb(0,0,0)"  stroke-width="3"/>
<line x1="268.5" y1="312.6" x2="268.5" y2="352.1" opacity="1.0" stroke="rgb(0,0,0)"  stroke-width="3"/>
<line x1="275.7" y1="318.6" x2="275.7" y2="346.1" opacity="1.0" stroke="rgb(0,0,0)"  stroke-width="3"/>
<line x1="234.3" y1="253.5" x2="268.5" y2="233.8" opacity="1.0" stroke="rgb(0,0,0)"  stroke-width="3"/>
<line x1="243.1" y1="256.7" x2="266.9" y2="243.0" opacity="1.0" stroke="rgb(0,0,0)"  stroke-width="3"/>
<line x1="268.5" y1="233.8" x2="291.4" y2="247.0" opacity="1.0" stroke="rgb(0,0,0)"  stroke-width="3"/>
<line x1="302.6" y1="266.5" x2="302.6" y2="292.9" opacity="1.0" stroke="rgb(0,0,0)"  stroke-width="3"/>
<line x1="268.5" y1="312.6" x2="245.6" y2="299.4" opacity="1.0" stroke="rgb(0,0,0)"  stroke-width="3"/>
<line x1="194.3" y1="202.0" x2="226.5" y2="179.2" opacity="1.0" stroke="rgb(0,0,0)"  stroke-width="3"/>
<line x1="226.5" y1="179.2" x2="262.8" y2="194.8" opacity="1.0" stroke="rgb(0,0,0)"  stroke-width="3"/>
<line x1="229.2" y1="188.2" x2="254.4" y2="199.0" opacity="1.0" stroke="rgb(0,0,0)"  stroke-width="3"/>
<line x1="262.8" y1="194.8" x2="268.5" y2="233.8" opacity="1.0" stroke="rgb(0,0,0)"  stroke-width="3"/>
<line x1="196.8" y1="241.3" x2="194.3" y2="202.0" opacity="1.0" stroke="rgb(0,0,0)"  stroke-width="3"/>
<line x1="203.6" y1="234.9" x2="201.9" y2="207.5" opacity="1.0" stroke="rgb(0,0,0)"  stroke-width="3"/>
<line x1="359.7" y1="299.4" x2="336.8" y2="312.6" opacity="1.0" stroke="rgb(0,0,0)"  stroke-width="3"/>
<line x1="313.9" y1="247.0" x2="336.8" y2="233.8" opacity="1.0" stroke="rgb(0,0,0)"  stroke-width="3"/>
<line x1="336.8" y1="233.8" x2="370.9" y2="253.5" opacity="1.0" stroke="rgb(0,0,0)"  stroke-width="3"/>
<line x1="488.8" y1="298.8" x2="469.0" y2="332.9" opacity="1.0" stroke="rgb(0,0,0)"  stroke-width="3"/>
<line x1="469.0" y1="332.9" x2="429.6" y2="332.9" opacity="1.0" stroke="rgb(0,0,0)"  stroke-width="3"/>
<line x1="463.0" y1="325.7" x2="435.6" y2="325.7" opacity="1.0" stroke="rgb(0,0,0)"  stroke-width="3"/>
<line x1="429.6" y1="332.9" x2="409.9" y2="298.8" opacity="1.0" stroke="rgb(0,0,0)"  stroke-width="3"/>
<line x1="429.6" y1="264.6" x2="469.0" y2="264.6" opacity="1.0" stroke="rgb(0,0,0)"  stroke-width="3"/>
<line x1="469.0" y1="264.6" x2="488.8" y2="298.8" opacity="1.0" stroke="rgb(0,0,0)"  stroke-width="3"/>
<line x1="465.8" y1="273.4" x2="479.5" y2="297.2" opacity="1.0" stroke="rgb(0,0,0)"  stroke-width="3"/>
<line x1="180.8" y1="341.1" x2="196.8" y2="305.1" opacity="1.0" stroke="rgb(0,0,0)"  stroke-width="3"/>
<line x1="176.7" y1="332.7" x2="187.8" y2="307.7" opacity="1.0" stroke="rgb(0,0,0)"  stroke-width="3"/>
<line x1="173.7" y1="273.2" x2="134.5" y2="277.3" opacity="1.0" stroke="rgb(0,0,0)"  stroke-width="3"/>
<line x1="168.5" y1="281.0" x2="141.2" y2="283.9" opacity="1.0" stroke="rgb(0,0,0)"  stroke-width="3"/>
<line x1="134.5" y1="277.3" x2="118.4" y2="313.4" opacity="1.0" stroke="rgb(0,0,0)"  stroke-width="3"/>
<line x1="118.4" y1="313.4" x2="141.6" y2="345.3" opacity="1.0" stroke="rgb(0,0,0)"  stroke-width="3"/>
<line x1="127.8" y1="314.0" x2="143.9" y2="336.2" opacity="1.0" stroke="rgb(0,0,0)"  stroke-width="3"/>
<line x1="141.6" y1="345.3" x2="180.8" y2="341.1" opacity="1.0" stroke="rgb(0,0,0)"  stroke-width="3"/>
<line x1="336.8" y1="194.4" x2="336.8" y2="233.8" opacity="1.0" stroke="rgb(0,0,0)"  stroke-width="3"/>
<line x1="344.0" y1="200.4" x2="344.0" y2="227.8" opacity="1.0" stroke="rgb(0,0,0)"  stroke-width="3"/>
<line x1="405.1" y1="233.8" x2="405.1" y2="194.4" opacity="1.0" stroke="rgb(0,0,0)"  stroke-width="3"/>
<line x1="405.1" y1="194.4" x2="370.9" y2="174.7" opacity="1.0" stroke="rgb(0,0,0)"  stroke-width="3"/>
<line x1="396.3" y1="197.6" x2="372.5" y2="183.9" opacity="1.0" stroke="rgb(0,0,0)"  stroke-width="3"/>
<line x1="268.5" y1="549.2" x2="268.5" y2="588.6" opacity="1.0" stroke="rgb(0,0,0)"  stroke-width="3"/>
<line x1="268.5" y1="588.6" x2="302.6" y2="608.3" opacity="1.0" stroke="rgb(0,0,0)"  stroke-width="3"/>
<line x1="277.3" y1="585.4" x2="301.0" y2="599.1" opacity="1.0" stroke="rgb(0,0,0)"  stroke-width="3"/>
<line x1="302.6" y1="608.3" x2="336.8" y2="588.6" opacity="1.0" stroke="rgb(0,0,0)"  stroke-width="3"/>
<line x1="336.8" y1="588.6" x2="336.8" y2="549.2" opacity="1.0" stroke="rgb(0,0,0)"  stroke-width="3"/>
<line x1="329.6" y1="582.6" x2="329.6" y2="555.2" opacity="1.0" stroke="rgb(0,0,0)"  stroke-width="3"/>
<line x1="336.8" y1="549.2" x2="302.6" y2="529.5" opacity="1.0" stroke="rgb(0,0,0)"  stroke-width="3"/>
<line x1="302.6" y1="529.5" x2="268.5" y2="549.2" opacity="1.0" stroke="rgb(0,0,0)"  stroke-width="3"/>
<line x1="301.0" y1="538.7" x2="277.3" y2="552.4" opacity="1.0" stroke="rgb(0,0,0)"  stroke-width="3"/>
<line x1="245.1" y1="140.2" x2="268.3" y2="172.1" opacity="1.0" stroke="rgb(0,0,0)"  stroke-width="3"/>
<line x1="254.4" y1="140.8" x2="270.6" y2="163.0" opacity="1.0" stroke="rgb(0,0,0)"  stroke-width="3"/>
<line x1="268.3" y1="172.1" x2="307.5" y2="168.0" opacity="1.0" stroke="rgb(0,0,0)"  stroke-width="3"/>
<line x1="323.5" y1="132.0" x2="300.3" y2="100.1" opacity="1.0" stroke="rgb(0,0,0)"  stroke-width="3"/>
<line x1="300.3" y1="100.1" x2="261.1" y2="104.2" opacity="1.0" stroke="rgb(0,0,0)"  stroke-width="3"/>
<line x1="295.1" y1="107.9" x2="267.8" y2="110.7" opacity="1.0" stroke="rgb(0,0,0)"  stroke-width="3"/>
<line x1="261.1" y1="104.2" x2="245.1" y2="140.2" opacity="1.0" stroke="rgb(0,0,0)"  stroke-width="3"/>
<line x1="427.7" y1="115.0" x2="454.0" y2="85.7" opacity="1.0" stroke="rgb(0,0,0)"  stroke-width="3"/>
<line x1="454.0" y1="85.7" x2="441.9" y2="48.2" opacity="1.0" stroke="rgb(0,0,0)"  stroke-width="3"/>
<line x1="445.3" y1="82.2" x2="436.9" y2="56.1" opacity="1.0" stroke="rgb(0,0,0)"  stroke-width="3"/>
<line x1="441.9" y1="48.2" x2="403.3" y2="40.0" opacity="1.0" stroke="rgb(0,0,0)"  stroke-width="3"/>
<line x1="403.3" y1="40.0" x2="376.9" y2="69.3" opacity="1.0" stroke="rgb(0,0,0)"  stroke-width="3"/>
<line x1="404.6" y1="49.3" x2="386.3" y2="69.7" opacity="1.0" stroke="rgb(0,0,0)"  stroke-width="3"/>
<line x1="376.9" y1="69.3" x2="389.1" y2="106.8" opacity="1.0" stroke="rgb(0,0,0)"  stroke-width="3"/>
<line x1="389.1" y1="106.8" x2="427.7" y2="115.0" opacity="1.0" stroke="rgb(0,0,0)"  stroke-width="3"/>
<line x1="396.5" y1="101.0" x2="423.3" y2="106.7" opacity="1.0" stroke="rgb(0,0,0)"  stroke-width="3"/>
<line x1="425.5" y1="537.4" x2="459.7" y2="517.7" opacity="1.0" stroke="rgb(0,0,0)"  stroke-width="3"/>
<line x1="459.7" y1="517.7" x2="459.7" y2="478.2" opacity="1.0" stroke="rgb(0,0,0)"  stroke-width="3"/>
<line x1="452.5" y1="511.7" x2="452.5" y2="484.2" opacity="1.0" stroke="rgb(0,0,0)"  stroke-width="3"/>
<line x1="459.7" y1="478.2" x2="425.5" y2="458.5" opacity="1.0" stroke="rgb(0,0,0)"  stroke-width="3"/>
<line x1="425.5" y1="458.5" x2="391.4" y2="478.2" opacity="1.0" stroke="rgb(0,0,0)"  stroke-width="3"/>
<line x1="423.9" y1="467.8" x2="400.2" y2="481.5" opacity="1.0" stroke="rgb(0,0,0)"  stroke-width="3"/>
<line x1="391.4" y1="478.2" x2="391.4" y2="517.7" opacity="1.0" stroke="rgb(0,0,0)"  stroke-width="3"/>
<line x1="391.4" y1="517.7" x2="425.5" y2="537.4" opacity="1.0" stroke="rgb(0,0,0)"  stroke-width="3"/>
<line x1="400.2" y1="514.4" x2="423.9" y2="528.1" opacity="1.0" stroke="rgb(0,0,0)"  stroke-width="3"/>
<line x1="493.8" y1="576.8" x2="493.8" y2="537.4" opacity="1.0" stroke="rgb(0,0,0)"  stroke-width="3"/>
<line x1="486.6" y1="570.8" x2="486.6" y2="543.4" opacity="1.0" stroke="rgb(0,0,0)"  stroke-width="3"/>
<line x1="493.8" y1="537.4" x2="459.7" y2="517.7" opacity="1.0" stroke="rgb(0,0,0)"  stroke-width="3"/>
<line x1="425.5" y1="537.4" x2="425.5" y2="576.8" opacity="1.0" stroke="rgb(0,0,0)"  stroke-width="3"/>
<line x1="425.5" y1="576.8" x2="459.7" y2="596.5" opacity="1.0" stroke="rgb(0,0,0)"  stroke-width="3"/>
<line x1="434.3" y1="573.6" x2="458.1" y2="587.3" opacity="1.0" stroke="rgb(0,0,0)"  stroke-width="3"/>
<line x1="459.7" y1="596.5" x2="493.8" y2="576.8" opacity="1.0" stroke="rgb(0,0,0)"  stroke-width="3"/>
<line x1="357.3" y1="419.1" x2="357.3" y2="458.5" opacity="1.0" stroke="rgb(0,0,0)"  stroke-width="3"/>
<line x1="364.5" y1="425.1" x2="364.5" y2="452.5" opacity="1.0" stroke="rgb(0,0,0)"  stroke-width="3"/>
<line x1="357.3" y1="458.5" x2="391.4" y2="478.2" opacity="1.0" stroke="rgb(0,0,0)"  stroke-width="3"/>
<line x1="425.5" y1="458.5" x2="425.5" y2="419.1" opacity="1.0" stroke="rgb(0,0,0)"  stroke-width="3"/>
<line x1="425.5" y1="419.1" x2="391.4" y2="399.4" opacity="1.0" stroke="rgb(0,0,0)"  stroke-width="3"/>
<line x1="416.7" y1="422.3" x2="393.0" y2="408.6" opacity="1.0" stroke="rgb(0,0,0)"  stroke-width="3"/>
<line x1="391.4" y1="399.4" x2="357.3" y2="419.1" opacity="1.0" stroke="rgb(0,0,0)"  stroke-width="3"/>
<line x1="528.0" y1="478.2" x2="562.1" y2="458.5" opacity="1.0" stroke="rgb(0,0,0)"  stroke-width="3"/>
<line x1="562.1" y1="458.5" x2="562.1" y2="419.1" opacity="1.0" stroke="rgb(0,0,0)"  stroke-width="3"/>
<line x1="554.9" y1="452.5" x2="554.9" y2="425.1" opacity="1.0" stroke="rgb(0,0,0)"  stroke-width="3"/>
<line x1="562.1" y1="419.1" x2="528.0" y2="399.4" opacity="1.0" stroke="rgb(0,0,0)"  stroke-width="3"/>
<line x1="528.0" y1="399.4" x2="493.8" y2="419.1" opacity="1.0" stroke="rgb(0,0,0)"  stroke-width="3"/>
<line x1="526.4" y1="408.6" x2="502.6" y2="422.3" opacity="1.0" stroke="rgb(0,0,0)"  stroke-width="3"/>
<line x1="493.8" y1="419.1" x2="493.8" y2="458.5" opacity="1.0" stroke="rgb(0,0,0)"  stroke-width="3"/>
<line x1="493.8" y1="458.5" x2="528.0" y2="478.2" opacity="1.0" stroke="rgb(0,0,0)"  stroke-width="3"/>
<line x1="502.6" y1="455.3" x2="526.4" y2="469.0" opacity="1.0" stroke="rgb(0,0,0)"  stroke-width="3"/>
<line x1="268.5" y1="430.9" x2="268.5" y2="470.4" opacity="1.0" stroke="rgb(0,0,0)"  stroke-width="3"/>
<line x1="268.5" y1="470.4" x2="302.6" y2="490.1" opacity="1.0" stroke="rgb(0,0,0)"  stroke-width="3"/>
<line x1="277.3" y1="467.1" x2="301.0" y2="480.8" opacity="1.0" stroke="rgb(0,0,0)"  stroke-width="3"/>
<line x1="302.6" y1="490.1" x2="336.8" y2="470.4" opacity="1.0" stroke="rgb(0,0,0)"  stroke-width="3"/>
<line x1="336.8" y1="470.4" x2="336.8" y2="430.9" opacity="1.0" stroke="rgb(0,0,0)"  stroke-width="3"/>
<line x1="329.6" y1="464.4" x2="329.6" y2="436.9" opacity="1.0" stroke="rgb(0,0,0)"  stroke-width="3"/>
<line x1="336.8" y1="430.9" x2="302.6" y2="411.2" opacity="1.0" stroke="rgb(0,0,0)"  stroke-width="3"/>
<line x1="302.6" y1="411.2" x2="268.5" y2="430.9" opacity="1.0" stroke="rgb(0,0,0)"  stroke-width="3"/>
<line x1="301.0" y1="420.4" x2="277.3" y2="434.2" opacity="1.0" stroke="rgb(0,0,0)"  stroke-width="3"/>
<text x="364.910687" y="300.936245" fill="rgb(12,12,255)" stroke-width="0" font-weight="bold" font-size="25.92" >N</text>
<text x="228.335584" y="300.936245" fill="rgb(12,12,255)" stroke-width="0" font-weight="bold" font-size="25.92" >N</text>
<text x="356.713626" y="144.094431" fill="rgb(12,12,255)" stroke-width="0" font-weight="bold" font-size="25.92" >N</text>
<text x="296.623136" y="261.510400" fill="rgb(255,181,181)" stroke-width="0" font-weight="bold" font-size="25.92" >B</text>
</svg>
</g>
</svg>
