<?xml version="1.0"?>
<svg version="1.1" id="topsvg"
xmlns="http://www.w3.org/2000/svg" xmlns:xlink="http://www.w3.org/1999/xlink"
xmlns:cml="http://www.xml-cml.org/schema" x="0" y="0" width="200px" height="200px" viewBox="0 0 100 100">
<title>GD190.sdf - Open Babel Depiction</title>
<rect x="0" y="0" width="100" height="100" fill="white"/>
<g transform="translate(0,0)">
<svg width="100" height="100" x="0" y="0" viewBox="0 0 627.748 639.751"
font-family="sans-serif" stroke="rgb(0,0,0)" stroke-width="3"  stroke-linecap="round">
<line x1="195.8" y1="123.0" x2="176.7" y2="89.9" opacity="1.0" stroke="rgb(0,0,0)"  stroke-width="3"/>
<line x1="176.7" y1="89.9" x2="157.6" y2="56.7" opacity="1.0" stroke="rgb(0,0,0)"  stroke-width="3"/>
<line x1="176.7" y1="89.9" x2="195.8" y2="56.7" opacity="1.0" stroke="rgb(0,0,0)"  stroke-width="3"/>
<line x1="176.7" y1="89.9" x2="138.4" y2="89.9" opacity="1.0" stroke="rgb(0,0,0)"  stroke-width="3"/>
<line x1="403.6" y1="113.5" x2="414.4" y2="76.7" opacity="1.0" stroke="rgb(0,0,0)"  stroke-width="3"/>
<line x1="414.4" y1="76.7" x2="387.3" y2="49.7" opacity="1.0" stroke="rgb(0,0,0)"  stroke-width="3"/>
<line x1="414.4" y1="76.7" x2="451.6" y2="67.7" opacity="1.0" stroke="rgb(0,0,0)"  stroke-width="3"/>
<line x1="414.4" y1="76.7" x2="425.3" y2="40.0" opacity="1.0" stroke="rgb(0,0,0)"  stroke-width="3"/>
<line x1="515.4" y1="331.9" x2="551.6" y2="319.4" opacity="1.0" stroke="rgb(0,0,0)"  stroke-width="3"/>
<line x1="512.2" y1="507.4" x2="538.3" y2="535.4" opacity="1.0" stroke="rgb(0,0,0)"  stroke-width="3"/>
<line x1="538.3" y1="535.4" x2="527.2" y2="572.0" opacity="1.0" stroke="rgb(0,0,0)"  stroke-width="3"/>
<line x1="538.3" y1="535.4" x2="565.4" y2="562.5" opacity="1.0" stroke="rgb(0,0,0)"  stroke-width="3"/>
<line x1="538.3" y1="535.4" x2="575.3" y2="525.5" opacity="1.0" stroke="rgb(0,0,0)"  stroke-width="3"/>
<line x1="161.6" y1="527.8" x2="174.7" y2="563.8" opacity="1.0" stroke="rgb(0,0,0)"  stroke-width="3"/>
<line x1="174.7" y1="563.8" x2="150.1" y2="593.1" opacity="1.0" stroke="rgb(0,0,0)"  stroke-width="3"/>
<line x1="174.7" y1="563.8" x2="187.8" y2="599.8" opacity="1.0" stroke="rgb(0,0,0)"  stroke-width="3"/>
<line x1="174.7" y1="563.8" x2="212.4" y2="570.4" opacity="1.0" stroke="rgb(0,0,0)"  stroke-width="3"/>
<line x1="489.6" y1="253.6" x2="525.7" y2="240.8" opacity="1.0" stroke="rgb(0,0,0)"  stroke-width="3"/>
<line x1="525.7" y1="240.8" x2="558.7" y2="260.2" opacity="1.0" stroke="rgb(0,0,0)"  stroke-width="3"/>
<line x1="525.7" y1="240.8" x2="530.5" y2="202.8" opacity="1.0" stroke="rgb(0,0,0)"  stroke-width="3"/>
<line x1="525.7" y1="240.8" x2="560.1" y2="223.8" opacity="1.0" stroke="rgb(0,0,0)"  stroke-width="3"/>
<line x1="147.2" y1="280.1" x2="109.0" y2="276.6" opacity="1.0" stroke="rgb(0,0,0)"  stroke-width="3"/>
<line x1="109.0" y1="276.6" x2="86.9" y2="307.9" opacity="1.0" stroke="rgb(0,0,0)"  stroke-width="3"/>
<line x1="109.0" y1="276.6" x2="70.9" y2="273.1" opacity="1.0" stroke="rgb(0,0,0)"  stroke-width="3"/>
<line x1="109.0" y1="276.6" x2="93.0" y2="241.9" opacity="1.0" stroke="rgb(0,0,0)"  stroke-width="3"/>
<line x1="115.4" y1="353.8" x2="77.7" y2="347.2" opacity="1.0" stroke="rgb(0,0,0)"  stroke-width="3"/>
<line x1="77.7" y1="347.2" x2="53.1" y2="376.5" opacity="1.0" stroke="rgb(0,0,0)"  stroke-width="3"/>
<line x1="77.7" y1="347.2" x2="40.0" y2="340.5" opacity="1.0" stroke="rgb(0,0,0)"  stroke-width="3"/>
<line x1="77.7" y1="347.2" x2="64.6" y2="311.2" opacity="1.0" stroke="rgb(0,0,0)"  stroke-width="3"/>
<line x1="551.6" y1="319.4" x2="580.5" y2="344.5" opacity="1.0" stroke="rgb(0,0,0)"  stroke-width="3"/>
<line x1="551.6" y1="319.4" x2="558.8" y2="281.8" opacity="1.0" stroke="rgb(0,0,0)"  stroke-width="3"/>
<line x1="551.6" y1="319.4" x2="587.7" y2="306.9" opacity="1.0" stroke="rgb(0,0,0)"  stroke-width="3"/>
<line x1="185.4" y1="225.9" x2="196.7" y2="189.3" opacity="1.0" stroke="rgb(0,0,0)"  stroke-width="3"/>
<line x1="196.7" y1="189.3" x2="235.0" y2="188.8" opacity="1.0" stroke="rgb(0,0,0)"  stroke-width="3"/>
<line x1="202.8" y1="196.5" x2="229.1" y2="196.1" opacity="1.0" stroke="rgb(0,0,0)"  stroke-width="3"/>
<line x1="235.0" y1="188.8" x2="243.2" y2="212.8" opacity="1.0" stroke="rgb(0,0,0)"  stroke-width="3"/>
<line x1="236.9" y1="232.9" x2="216.7" y2="248.0" opacity="1.0" stroke="rgb(0,0,0)"  stroke-width="3"/>
<line x1="216.7" y1="248.0" x2="185.4" y2="225.9" opacity="1.0" stroke="rgb(0,0,0)"  stroke-width="3"/>
<line x1="215.9" y1="238.7" x2="194.5" y2="223.5" opacity="1.0" stroke="rgb(0,0,0)"  stroke-width="3"/>
<line x1="439.2" y1="210.6" x2="414.3" y2="239.7" opacity="1.0" stroke="rgb(0,0,0)"  stroke-width="3"/>
<line x1="429.8" y1="210.4" x2="412.7" y2="230.5" opacity="1.0" stroke="rgb(0,0,0)"  stroke-width="3"/>
<line x1="414.3" y1="239.7" x2="391.0" y2="230.0" opacity="1.0" stroke="rgb(0,0,0)"  stroke-width="3"/>
<line x1="379.9" y1="212.1" x2="381.9" y2="186.9" opacity="1.0" stroke="rgb(0,0,0)"  stroke-width="3"/>
<line x1="381.9" y1="186.9" x2="419.1" y2="177.9" opacity="1.0" stroke="rgb(0,0,0)"  stroke-width="3"/>
<line x1="389.4" y1="192.5" x2="415.0" y2="186.3" opacity="1.0" stroke="rgb(0,0,0)"  stroke-width="3"/>
<line x1="419.1" y1="177.9" x2="439.2" y2="210.6" opacity="1.0" stroke="rgb(0,0,0)"  stroke-width="3"/>
<line x1="141.6" y1="453.9" x2="178.6" y2="463.7" opacity="1.0" stroke="rgb(0,0,0)"  stroke-width="3"/>
<line x1="149.2" y1="448.5" x2="174.6" y2="455.2" opacity="1.0" stroke="rgb(0,0,0)"  stroke-width="3"/>
<line x1="178.6" y1="463.7" x2="192.3" y2="442.4" opacity="1.0" stroke="rgb(0,0,0)"  stroke-width="3"/>
<line x1="191.1" y1="421.4" x2="175.1" y2="401.8" opacity="1.0" stroke="rgb(0,0,0)"  stroke-width="3"/>
<line x1="175.1" y1="401.8" x2="139.4" y2="415.7" opacity="1.0" stroke="rgb(0,0,0)"  stroke-width="3"/>
<line x1="139.4" y1="415.7" x2="141.6" y2="453.9" opacity="1.0" stroke="rgb(0,0,0)"  stroke-width="3"/>
<line x1="448.6" y1="408.9" x2="465.2" y2="389.8" opacity="1.0" stroke="rgb(0,0,0)"  stroke-width="3"/>
<line x1="465.2" y1="389.8" x2="502.8" y2="397.0" opacity="1.0" stroke="rgb(0,0,0)"  stroke-width="3"/>
<line x1="502.8" y1="397.0" x2="497.2" y2="442.8" opacity="1.0" stroke="rgb(0,0,0)"  stroke-width="3"/>
<line x1="497.2" y1="442.8" x2="459.9" y2="451.5" opacity="1.0" stroke="rgb(0,0,0)"  stroke-width="3"/>
<line x1="489.7" y1="437.2" x2="464.1" y2="443.1" opacity="1.0" stroke="rgb(0,0,0)"  stroke-width="3"/>
<line x1="459.9" y1="451.5" x2="446.8" y2="429.8" opacity="1.0" stroke="rgb(0,0,0)"  stroke-width="3"/>
<line x1="280.0" y1="283.4" x2="313.1" y2="302.6" opacity="1.0" stroke="rgb(0,0,0)"  stroke-width="3"/>
<line x1="313.1" y1="302.6" x2="346.3" y2="283.4" opacity="1.0" stroke="rgb(0,0,0)"  stroke-width="3"/>
<line x1="314.7" y1="293.3" x2="337.5" y2="280.2" opacity="1.0" stroke="rgb(0,0,0)"  stroke-width="3"/>
<line x1="346.3" y1="283.4" x2="346.3" y2="245.1" opacity="1.0" stroke="rgb(0,0,0)"  stroke-width="3"/>
<line x1="346.3" y1="245.1" x2="313.1" y2="226.0" opacity="1.0" stroke="rgb(0,0,0)"  stroke-width="3"/>
<line x1="337.5" y1="248.4" x2="314.7" y2="235.2" opacity="1.0" stroke="rgb(0,0,0)"  stroke-width="3"/>
<line x1="313.1" y1="226.0" x2="280.0" y2="245.1" opacity="1.0" stroke="rgb(0,0,0)"  stroke-width="3"/>
<line x1="280.0" y1="245.1" x2="280.0" y2="283.4" opacity="1.0" stroke="rgb(0,0,0)"  stroke-width="3"/>
<line x1="287.2" y1="251.1" x2="287.2" y2="277.4" opacity="1.0" stroke="rgb(0,0,0)"  stroke-width="3"/>
<line x1="235.0" y1="188.8" x2="253.7" y2="155.4" opacity="1.0" stroke="rgb(0,0,0)"  stroke-width="3"/>
<line x1="253.7" y1="155.4" x2="300.7" y2="181.4" opacity="1.0" stroke="rgb(0,0,0)"  stroke-width="3"/>
<line x1="312.5" y1="200.7" x2="313.1" y2="226.0" opacity="1.0" stroke="rgb(0,0,0)"  stroke-width="3"/>
<line x1="280.0" y1="245.1" x2="258.4" y2="231.9" opacity="1.0" stroke="rgb(0,0,0)"  stroke-width="3"/>
<line x1="147.2" y1="280.1" x2="178.4" y2="302.2" opacity="1.0" stroke="rgb(0,0,0)"  stroke-width="3"/>
<line x1="178.4" y1="302.2" x2="213.2" y2="286.1" opacity="1.0" stroke="rgb(0,0,0)"  stroke-width="3"/>
<line x1="180.9" y1="293.1" x2="204.7" y2="282.1" opacity="1.0" stroke="rgb(0,0,0)"  stroke-width="3"/>
<line x1="213.2" y1="286.1" x2="216.7" y2="248.0" opacity="1.0" stroke="rgb(0,0,0)"  stroke-width="3"/>
<line x1="185.4" y1="225.9" x2="150.6" y2="242.0" opacity="1.0" stroke="rgb(0,0,0)"  stroke-width="3"/>
<line x1="150.6" y1="242.0" x2="147.2" y2="280.1" opacity="1.0" stroke="rgb(0,0,0)"  stroke-width="3"/>
<line x1="157.3" y1="248.6" x2="154.9" y2="274.8" opacity="1.0" stroke="rgb(0,0,0)"  stroke-width="3"/>
<line x1="367.9" y1="231.9" x2="346.3" y2="245.1" opacity="1.0" stroke="rgb(0,0,0)"  stroke-width="3"/>
<line x1="323.0" y1="180.6" x2="355.5" y2="159.2" opacity="1.0" stroke="rgb(0,0,0)"  stroke-width="3"/>
<line x1="355.5" y1="159.2" x2="381.9" y2="186.9" opacity="1.0" stroke="rgb(0,0,0)"  stroke-width="3"/>
<line x1="489.6" y1="253.6" x2="464.8" y2="282.7" opacity="1.0" stroke="rgb(0,0,0)"  stroke-width="3"/>
<line x1="464.8" y1="282.7" x2="427.2" y2="275.8" opacity="1.0" stroke="rgb(0,0,0)"  stroke-width="3"/>
<line x1="460.2" y1="274.5" x2="434.4" y2="269.8" opacity="1.0" stroke="rgb(0,0,0)"  stroke-width="3"/>
<line x1="427.2" y1="275.8" x2="414.3" y2="239.7" opacity="1.0" stroke="rgb(0,0,0)"  stroke-width="3"/>
<line x1="439.2" y1="210.6" x2="476.8" y2="217.5" opacity="1.0" stroke="rgb(0,0,0)"  stroke-width="3"/>
<line x1="476.8" y1="217.5" x2="489.6" y2="253.6" opacity="1.0" stroke="rgb(0,0,0)"  stroke-width="3"/>
<line x1="472.1" y1="225.6" x2="480.9" y2="250.3" opacity="1.0" stroke="rgb(0,0,0)"  stroke-width="3"/>
<line x1="403.6" y1="113.5" x2="366.4" y2="122.4" opacity="1.0" stroke="rgb(0,0,0)"  stroke-width="3"/>
<line x1="366.4" y1="122.4" x2="355.5" y2="159.2" opacity="1.0" stroke="rgb(0,0,0)"  stroke-width="3"/>
<line x1="371.6" y1="130.2" x2="364.1" y2="155.4" opacity="1.0" stroke="rgb(0,0,0)"  stroke-width="3"/>
<line x1="419.1" y1="177.9" x2="430.0" y2="141.2" opacity="1.0" stroke="rgb(0,0,0)"  stroke-width="3"/>
<line x1="430.0" y1="141.2" x2="403.6" y2="113.5" opacity="1.0" stroke="rgb(0,0,0)"  stroke-width="3"/>
<line x1="420.6" y1="141.8" x2="402.5" y2="122.8" opacity="1.0" stroke="rgb(0,0,0)"  stroke-width="3"/>
<line x1="196.7" y1="189.3" x2="177.2" y2="156.5" opacity="1.0" stroke="rgb(0,0,0)"  stroke-width="3"/>
<line x1="177.2" y1="156.5" x2="195.8" y2="123.0" opacity="1.0" stroke="rgb(0,0,0)"  stroke-width="3"/>
<line x1="186.4" y1="154.7" x2="199.2" y2="131.8" opacity="1.0" stroke="rgb(0,0,0)"  stroke-width="3"/>
<line x1="195.8" y1="123.0" x2="234.1" y2="122.5" opacity="1.0" stroke="rgb(0,0,0)"  stroke-width="3"/>
<line x1="234.1" y1="122.5" x2="253.7" y2="155.4" opacity="1.0" stroke="rgb(0,0,0)"  stroke-width="3"/>
<line x1="231.0" y1="131.4" x2="244.5" y2="153.9" opacity="1.0" stroke="rgb(0,0,0)"  stroke-width="3"/>
<line x1="109.6" y1="391.7" x2="139.4" y2="415.7" opacity="1.0" stroke="rgb(0,0,0)"  stroke-width="3"/>
<line x1="118.8" y1="389.8" x2="139.2" y2="406.3" opacity="1.0" stroke="rgb(0,0,0)"  stroke-width="3"/>
<line x1="175.1" y1="401.8" x2="181.0" y2="364.0" opacity="1.0" stroke="rgb(0,0,0)"  stroke-width="3"/>
<line x1="168.9" y1="394.8" x2="172.9" y2="368.8" opacity="1.0" stroke="rgb(0,0,0)"  stroke-width="3"/>
<line x1="181.0" y1="364.0" x2="151.1" y2="340.0" opacity="1.0" stroke="rgb(0,0,0)"  stroke-width="3"/>
<line x1="151.1" y1="340.0" x2="115.4" y2="353.8" opacity="1.0" stroke="rgb(0,0,0)"  stroke-width="3"/>
<line x1="148.1" y1="348.9" x2="123.6" y2="358.4" opacity="1.0" stroke="rgb(0,0,0)"  stroke-width="3"/>
<line x1="115.4" y1="353.8" x2="109.6" y2="391.7" opacity="1.0" stroke="rgb(0,0,0)"  stroke-width="3"/>
<line x1="312.0" y1="384.2" x2="282.2" y2="360.2" opacity="1.0" stroke="rgb(0,0,0)"  stroke-width="3"/>
<line x1="302.9" y1="386.1" x2="282.4" y2="369.6" opacity="1.0" stroke="rgb(0,0,0)"  stroke-width="3"/>
<line x1="282.2" y1="360.2" x2="246.5" y2="374.1" opacity="1.0" stroke="rgb(0,0,0)"  stroke-width="3"/>
<line x1="246.5" y1="374.1" x2="240.7" y2="411.9" opacity="1.0" stroke="rgb(0,0,0)"  stroke-width="3"/>
<line x1="252.7" y1="381.1" x2="248.7" y2="407.1" opacity="1.0" stroke="rgb(0,0,0)"  stroke-width="3"/>
<line x1="240.7" y1="411.9" x2="270.5" y2="435.9" opacity="1.0" stroke="rgb(0,0,0)"  stroke-width="3"/>
<line x1="270.5" y1="435.9" x2="306.2" y2="422.1" opacity="1.0" stroke="rgb(0,0,0)"  stroke-width="3"/>
<line x1="273.5" y1="427.0" x2="298.0" y2="417.5" opacity="1.0" stroke="rgb(0,0,0)"  stroke-width="3"/>
<line x1="306.2" y1="422.1" x2="312.0" y2="384.2" opacity="1.0" stroke="rgb(0,0,0)"  stroke-width="3"/>
<line x1="161.6" y1="527.8" x2="188.6" y2="500.6" opacity="1.0" stroke="rgb(0,0,0)"  stroke-width="3"/>
<line x1="160.8" y1="518.5" x2="179.3" y2="499.8" opacity="1.0" stroke="rgb(0,0,0)"  stroke-width="3"/>
<line x1="188.6" y1="500.6" x2="178.6" y2="463.7" opacity="1.0" stroke="rgb(0,0,0)"  stroke-width="3"/>
<line x1="141.6" y1="453.9" x2="114.6" y2="481.1" opacity="1.0" stroke="rgb(0,0,0)"  stroke-width="3"/>
<line x1="114.6" y1="481.1" x2="124.6" y2="518.0" opacity="1.0" stroke="rgb(0,0,0)"  stroke-width="3"/>
<line x1="123.1" y1="485.0" x2="130.0" y2="510.3" opacity="1.0" stroke="rgb(0,0,0)"  stroke-width="3"/>
<line x1="124.6" y1="518.0" x2="161.6" y2="527.8" opacity="1.0" stroke="rgb(0,0,0)"  stroke-width="3"/>
<line x1="402.5" y1="411.4" x2="390.0" y2="375.3" opacity="1.0" stroke="rgb(0,0,0)"  stroke-width="3"/>
<line x1="393.8" y1="408.1" x2="385.2" y2="383.3" opacity="1.0" stroke="rgb(0,0,0)"  stroke-width="3"/>
<line x1="390.0" y1="375.3" x2="352.4" y2="368.0" opacity="1.0" stroke="rgb(0,0,0)"  stroke-width="3"/>
<line x1="352.4" y1="368.0" x2="327.3" y2="396.9" opacity="1.0" stroke="rgb(0,0,0)"  stroke-width="3"/>
<line x1="353.9" y1="377.3" x2="336.7" y2="397.1" opacity="1.0" stroke="rgb(0,0,0)"  stroke-width="3"/>
<line x1="327.3" y1="396.9" x2="339.8" y2="433.1" opacity="1.0" stroke="rgb(0,0,0)"  stroke-width="3"/>
<line x1="339.8" y1="433.1" x2="377.4" y2="440.4" opacity="1.0" stroke="rgb(0,0,0)"  stroke-width="3"/>
<line x1="347.1" y1="427.2" x2="372.9" y2="432.2" opacity="1.0" stroke="rgb(0,0,0)"  stroke-width="3"/>
<line x1="377.4" y1="440.4" x2="402.5" y2="411.4" opacity="1.0" stroke="rgb(0,0,0)"  stroke-width="3"/>
<line x1="515.4" y1="331.9" x2="477.8" y2="324.7" opacity="1.0" stroke="rgb(0,0,0)"  stroke-width="3"/>
<line x1="508.1" y1="337.8" x2="482.3" y2="332.9" opacity="1.0" stroke="rgb(0,0,0)"  stroke-width="3"/>
<line x1="477.8" y1="324.7" x2="452.7" y2="353.6" opacity="1.0" stroke="rgb(0,0,0)"  stroke-width="3"/>
<line x1="452.7" y1="353.6" x2="465.2" y2="389.8" opacity="1.0" stroke="rgb(0,0,0)"  stroke-width="3"/>
<line x1="461.5" y1="356.9" x2="470.0" y2="381.8" opacity="1.0" stroke="rgb(0,0,0)"  stroke-width="3"/>
<line x1="502.8" y1="397.0" x2="527.9" y2="368.1" opacity="1.0" stroke="rgb(0,0,0)"  stroke-width="3"/>
<line x1="501.3" y1="387.8" x2="518.5" y2="367.9" opacity="1.0" stroke="rgb(0,0,0)"  stroke-width="3"/>
<line x1="527.9" y1="368.1" x2="515.4" y2="331.9" opacity="1.0" stroke="rgb(0,0,0)"  stroke-width="3"/>
<line x1="512.2" y1="507.4" x2="474.9" y2="516.1" opacity="1.0" stroke="rgb(0,0,0)"  stroke-width="3"/>
<line x1="474.9" y1="516.1" x2="448.7" y2="488.1" opacity="1.0" stroke="rgb(0,0,0)"  stroke-width="3"/>
<line x1="476.0" y1="506.8" x2="458.1" y2="487.6" opacity="1.0" stroke="rgb(0,0,0)"  stroke-width="3"/>
<line x1="448.7" y1="488.1" x2="459.9" y2="451.5" opacity="1.0" stroke="rgb(0,0,0)"  stroke-width="3"/>
<line x1="497.2" y1="442.8" x2="523.3" y2="470.8" opacity="1.0" stroke="rgb(0,0,0)"  stroke-width="3"/>
<line x1="523.3" y1="470.8" x2="512.2" y2="507.4" opacity="1.0" stroke="rgb(0,0,0)"  stroke-width="3"/>
<line x1="514.7" y1="474.5" x2="507.0" y2="499.6" opacity="1.0" stroke="rgb(0,0,0)"  stroke-width="3"/>
<line x1="346.3" y1="283.4" x2="418.6" y2="342.3" opacity="1.0" stroke="rgb(0,0,0)"  stroke-width="3"/>
<line x1="418.6" y1="342.3" x2="427.2" y2="275.8" opacity="1.0" stroke="rgb(0,0,0)"  stroke-width="3"/>
<line x1="213.2" y1="286.1" x2="233.2" y2="331.0" opacity="1.0" stroke="rgb(0,0,0)"  stroke-width="3"/>
<line x1="233.2" y1="331.0" x2="280.0" y2="283.4" opacity="1.0" stroke="rgb(0,0,0)"  stroke-width="3"/>
<line x1="211.1" y1="425.9" x2="240.7" y2="411.9" opacity="1.0" stroke="rgb(0,0,0)"  stroke-width="3"/>
<line x1="246.5" y1="374.1" x2="233.2" y2="331.0" opacity="1.0" stroke="rgb(0,0,0)"  stroke-width="3"/>
<line x1="233.2" y1="331.0" x2="181.0" y2="364.0" opacity="1.0" stroke="rgb(0,0,0)"  stroke-width="3"/>
<line x1="452.7" y1="353.6" x2="418.6" y2="342.3" opacity="1.0" stroke="rgb(0,0,0)"  stroke-width="3"/>
<line x1="418.6" y1="342.3" x2="390.0" y2="375.3" opacity="1.0" stroke="rgb(0,0,0)"  stroke-width="3"/>
<line x1="402.5" y1="411.4" x2="427.4" y2="416.2" opacity="1.0" stroke="rgb(0,0,0)"  stroke-width="3"/>
<text x="193.315214" y="439.469524" fill="rgb(12,12,255)" stroke-width="0" font-weight="bold" font-size="25.92" >N</text>
<text x="434.118385" y="426.707437" fill="rgb(12,12,255)" stroke-width="0" font-weight="bold" font-size="25.92" >N</text>
<text x="372.941941" y="233.080644" fill="rgb(12,12,255)" stroke-width="0" font-weight="bold" font-size="25.92" >N</text>
<text x="241.362210" y="233.080644" fill="rgb(12,12,255)" stroke-width="0" font-weight="bold" font-size="25.92" >N</text>
<text x="306.111121" y="195.699346" fill="rgb(255,181,181)" stroke-width="0" font-weight="bold" font-size="25.92" >B</text>
</svg>
</g>
</svg>
