<?xml version="1.0"?>
<svg version="1.1" id="topsvg"
xmlns="http://www.w3.org/2000/svg" xmlns:xlink="http://www.w3.org/1999/xlink"
xmlns:cml="http://www.xml-cml.org/schema" x="0" y="0" width="200px" height="200px" viewBox="0 0 100 100">
<title>GD198.sdf - Open Babel Depiction</title>
<rect x="0" y="0" width="100" height="100" fill="white"/>
<g transform="translate(0,0)">
<svg width="100" height="100" x="0" y="0" viewBox="0 0 561.99 601.756"
font-family="sans-serif" stroke="rgb(0,0,0)" stroke-width="3"  stroke-linecap="round">
<line x1="284.0" y1="370.4" x2="284.0" y2="483.2" opacity="1.0" stroke="rgb(0,0,0)"  stroke-width="3"/>
<line x1="352.5" y1="126.0" x2="370.1" y2="106.5" opacity="1.0" stroke="rgb(0,0,0)"  stroke-width="3"/>
<line x1="318.0" y1="502.9" x2="352.0" y2="483.2" opacity="1.0" stroke="rgb(0,0,0)"  stroke-width="3"/>
<line x1="420.0" y1="444.0" x2="454.0" y2="424.3" opacity="1.0" stroke="rgb(0,0,0)"  stroke-width="3"/>
<line x1="176.1" y1="201.3" x2="152.3" y2="189.9" opacity="1.0" stroke="rgb(0,0,0)"  stroke-width="3"/>
<line x1="129.8" y1="191.7" x2="108.0" y2="206.6" opacity="1.0" stroke="rgb(0,0,0)"  stroke-width="3"/>
<line x1="139.5" y1="171.4" x2="137.5" y2="145.0" opacity="1.0" stroke="rgb(0,0,0)"  stroke-width="3"/>
<line x1="155.5" y1="272.3" x2="178.6" y2="240.5" opacity="1.0" stroke="rgb(0,0,0)"  stroke-width="3"/>
<line x1="178.6" y1="240.5" x2="215.9" y2="252.6" opacity="1.0" stroke="rgb(0,0,0)"  stroke-width="3"/>
<line x1="215.9" y1="252.6" x2="215.9" y2="278.9" opacity="1.0" stroke="rgb(0,0,0)"  stroke-width="3"/>
<line x1="203.6" y1="295.9" x2="178.6" y2="304.0" opacity="1.0" stroke="rgb(0,0,0)"  stroke-width="3"/>
<line x1="178.6" y1="304.0" x2="155.5" y2="272.3" opacity="1.0" stroke="rgb(0,0,0)"  stroke-width="3"/>
<line x1="410.4" y1="263.7" x2="390.8" y2="297.7" opacity="1.0" stroke="rgb(0,0,0)"  stroke-width="3"/>
<line x1="401.2" y1="265.3" x2="387.6" y2="288.9" opacity="1.0" stroke="rgb(0,0,0)"  stroke-width="3"/>
<line x1="390.8" y1="297.7" x2="364.8" y2="293.8" opacity="1.0" stroke="rgb(0,0,0)"  stroke-width="3"/>
<line x1="352.0" y1="278.9" x2="352.0" y2="252.6" opacity="1.0" stroke="rgb(0,0,0)"  stroke-width="3"/>
<line x1="352.0" y1="252.6" x2="386.0" y2="233.0" opacity="1.0" stroke="rgb(0,0,0)"  stroke-width="3"/>
<line x1="360.8" y1="255.9" x2="384.4" y2="242.2" opacity="1.0" stroke="rgb(0,0,0)"  stroke-width="3"/>
<line x1="386.0" y1="233.0" x2="410.4" y2="263.7" opacity="1.0" stroke="rgb(0,0,0)"  stroke-width="3"/>
<line x1="304.7" y1="131.6" x2="330.9" y2="134.3" opacity="1.0" stroke="rgb(0,0,0)"  stroke-width="3"/>
<line x1="346.5" y1="148.4" x2="352.0" y2="174.1" opacity="1.0" stroke="rgb(0,0,0)"  stroke-width="3"/>
<line x1="352.0" y1="174.1" x2="318.0" y2="193.7" opacity="1.0" stroke="rgb(0,0,0)"  stroke-width="3"/>
<line x1="318.0" y1="193.7" x2="288.8" y2="167.5" opacity="1.0" stroke="rgb(0,0,0)"  stroke-width="3"/>
<line x1="288.8" y1="167.5" x2="304.7" y2="131.6" opacity="1.0" stroke="rgb(0,0,0)"  stroke-width="3"/>
<line x1="297.8" y1="164.9" x2="308.9" y2="140.0" opacity="1.0" stroke="rgb(0,0,0)"  stroke-width="3"/>
<line x1="249.9" y1="350.8" x2="284.0" y2="370.4" opacity="1.0" stroke="rgb(0,0,0)"  stroke-width="3"/>
<line x1="284.0" y1="370.4" x2="318.0" y2="350.8" opacity="1.0" stroke="rgb(0,0,0)"  stroke-width="3"/>
<line x1="285.5" y1="361.2" x2="309.2" y2="347.6" opacity="1.0" stroke="rgb(0,0,0)"  stroke-width="3"/>
<line x1="318.0" y1="350.8" x2="318.0" y2="311.5" opacity="1.0" stroke="rgb(0,0,0)"  stroke-width="3"/>
<line x1="318.0" y1="311.5" x2="284.0" y2="291.9" opacity="1.0" stroke="rgb(0,0,0)"  stroke-width="3"/>
<line x1="309.2" y1="314.8" x2="285.5" y2="301.1" opacity="1.0" stroke="rgb(0,0,0)"  stroke-width="3"/>
<line x1="284.0" y1="291.9" x2="249.9" y2="311.5" opacity="1.0" stroke="rgb(0,0,0)"  stroke-width="3"/>
<line x1="249.9" y1="311.5" x2="249.9" y2="350.8" opacity="1.0" stroke="rgb(0,0,0)"  stroke-width="3"/>
<line x1="257.1" y1="317.5" x2="257.1" y2="344.8" opacity="1.0" stroke="rgb(0,0,0)"  stroke-width="3"/>
<line x1="215.9" y1="252.6" x2="249.9" y2="233.0" opacity="1.0" stroke="rgb(0,0,0)"  stroke-width="3"/>
<line x1="224.7" y1="255.9" x2="248.3" y2="242.2" opacity="1.0" stroke="rgb(0,0,0)"  stroke-width="3"/>
<line x1="249.9" y1="233.0" x2="272.7" y2="246.1" opacity="1.0" stroke="rgb(0,0,0)"  stroke-width="3"/>
<line x1="284.0" y1="265.6" x2="284.0" y2="291.9" opacity="1.0" stroke="rgb(0,0,0)"  stroke-width="3"/>
<line x1="249.9" y1="311.5" x2="227.2" y2="298.4" opacity="1.0" stroke="rgb(0,0,0)"  stroke-width="3"/>
<line x1="176.1" y1="201.3" x2="208.2" y2="178.7" opacity="1.0" stroke="rgb(0,0,0)"  stroke-width="3"/>
<line x1="208.2" y1="178.7" x2="244.3" y2="194.2" opacity="1.0" stroke="rgb(0,0,0)"  stroke-width="3"/>
<line x1="210.8" y1="187.7" x2="235.9" y2="198.4" opacity="1.0" stroke="rgb(0,0,0)"  stroke-width="3"/>
<line x1="244.3" y1="194.2" x2="249.9" y2="233.0" opacity="1.0" stroke="rgb(0,0,0)"  stroke-width="3"/>
<line x1="178.6" y1="240.5" x2="176.1" y2="201.3" opacity="1.0" stroke="rgb(0,0,0)"  stroke-width="3"/>
<line x1="185.4" y1="234.1" x2="183.7" y2="206.9" opacity="1.0" stroke="rgb(0,0,0)"  stroke-width="3"/>
<line x1="340.7" y1="298.4" x2="318.0" y2="311.5" opacity="1.0" stroke="rgb(0,0,0)"  stroke-width="3"/>
<line x1="295.2" y1="246.1" x2="318.0" y2="233.0" opacity="1.0" stroke="rgb(0,0,0)"  stroke-width="3"/>
<line x1="318.0" y1="233.0" x2="352.0" y2="252.6" opacity="1.0" stroke="rgb(0,0,0)"  stroke-width="3"/>
<line x1="469.3" y1="297.7" x2="449.7" y2="331.7" opacity="1.0" stroke="rgb(0,0,0)"  stroke-width="3"/>
<line x1="449.7" y1="331.7" x2="410.4" y2="331.7" opacity="1.0" stroke="rgb(0,0,0)"  stroke-width="3"/>
<line x1="443.7" y1="324.5" x2="416.4" y2="324.5" opacity="1.0" stroke="rgb(0,0,0)"  stroke-width="3"/>
<line x1="410.4" y1="331.7" x2="390.8" y2="297.7" opacity="1.0" stroke="rgb(0,0,0)"  stroke-width="3"/>
<line x1="410.4" y1="263.7" x2="449.7" y2="263.7" opacity="1.0" stroke="rgb(0,0,0)"  stroke-width="3"/>
<line x1="449.7" y1="263.7" x2="469.3" y2="297.7" opacity="1.0" stroke="rgb(0,0,0)"  stroke-width="3"/>
<line x1="446.5" y1="272.5" x2="460.1" y2="296.1" opacity="1.0" stroke="rgb(0,0,0)"  stroke-width="3"/>
<line x1="162.6" y1="339.9" x2="178.6" y2="304.0" opacity="1.0" stroke="rgb(0,0,0)"  stroke-width="3"/>
<line x1="158.5" y1="331.5" x2="169.6" y2="306.6" opacity="1.0" stroke="rgb(0,0,0)"  stroke-width="3"/>
<line x1="155.5" y1="272.3" x2="116.5" y2="276.4" opacity="1.0" stroke="rgb(0,0,0)"  stroke-width="3"/>
<line x1="150.3" y1="280.1" x2="123.2" y2="282.9" opacity="1.0" stroke="rgb(0,0,0)"  stroke-width="3"/>
<line x1="116.5" y1="276.4" x2="100.5" y2="312.3" opacity="1.0" stroke="rgb(0,0,0)"  stroke-width="3"/>
<line x1="100.5" y1="312.3" x2="123.6" y2="344.0" opacity="1.0" stroke="rgb(0,0,0)"  stroke-width="3"/>
<line x1="109.8" y1="312.9" x2="125.9" y2="334.9" opacity="1.0" stroke="rgb(0,0,0)"  stroke-width="3"/>
<line x1="123.6" y1="344.0" x2="162.6" y2="339.9" opacity="1.0" stroke="rgb(0,0,0)"  stroke-width="3"/>
<line x1="318.0" y1="193.7" x2="318.0" y2="233.0" opacity="1.0" stroke="rgb(0,0,0)"  stroke-width="3"/>
<line x1="325.2" y1="199.7" x2="325.2" y2="227.0" opacity="1.0" stroke="rgb(0,0,0)"  stroke-width="3"/>
<line x1="386.0" y1="233.0" x2="386.0" y2="193.7" opacity="1.0" stroke="rgb(0,0,0)"  stroke-width="3"/>
<line x1="386.0" y1="193.7" x2="352.0" y2="174.1" opacity="1.0" stroke="rgb(0,0,0)"  stroke-width="3"/>
<line x1="377.2" y1="197.0" x2="353.6" y2="183.3" opacity="1.0" stroke="rgb(0,0,0)"  stroke-width="3"/>
<line x1="249.9" y1="502.9" x2="249.9" y2="542.1" opacity="1.0" stroke="rgb(0,0,0)"  stroke-width="3"/>
<line x1="249.9" y1="542.1" x2="284.0" y2="561.8" opacity="1.0" stroke="rgb(0,0,0)"  stroke-width="3"/>
<line x1="258.7" y1="538.9" x2="282.4" y2="552.5" opacity="1.0" stroke="rgb(0,0,0)"  stroke-width="3"/>
<line x1="284.0" y1="561.8" x2="318.0" y2="542.1" opacity="1.0" stroke="rgb(0,0,0)"  stroke-width="3"/>
<line x1="318.0" y1="542.1" x2="318.0" y2="502.9" opacity="1.0" stroke="rgb(0,0,0)"  stroke-width="3"/>
<line x1="310.8" y1="536.1" x2="310.8" y2="508.9" opacity="1.0" stroke="rgb(0,0,0)"  stroke-width="3"/>
<line x1="318.0" y1="502.9" x2="284.0" y2="483.2" opacity="1.0" stroke="rgb(0,0,0)"  stroke-width="3"/>
<line x1="284.0" y1="483.2" x2="249.9" y2="502.9" opacity="1.0" stroke="rgb(0,0,0)"  stroke-width="3"/>
<line x1="282.4" y1="492.5" x2="258.7" y2="506.1" opacity="1.0" stroke="rgb(0,0,0)"  stroke-width="3"/>
<line x1="226.6" y1="139.8" x2="249.7" y2="171.6" opacity="1.0" stroke="rgb(0,0,0)"  stroke-width="3"/>
<line x1="236.0" y1="140.4" x2="252.0" y2="162.5" opacity="1.0" stroke="rgb(0,0,0)"  stroke-width="3"/>
<line x1="249.7" y1="171.6" x2="288.8" y2="167.5" opacity="1.0" stroke="rgb(0,0,0)"  stroke-width="3"/>
<line x1="304.7" y1="131.6" x2="281.7" y2="99.8" opacity="1.0" stroke="rgb(0,0,0)"  stroke-width="3"/>
<line x1="281.7" y1="99.8" x2="242.6" y2="103.9" opacity="1.0" stroke="rgb(0,0,0)"  stroke-width="3"/>
<line x1="276.5" y1="107.6" x2="249.3" y2="110.5" opacity="1.0" stroke="rgb(0,0,0)"  stroke-width="3"/>
<line x1="242.6" y1="103.9" x2="226.6" y2="139.8" opacity="1.0" stroke="rgb(0,0,0)"  stroke-width="3"/>
<line x1="408.5" y1="114.7" x2="434.8" y2="85.5" opacity="1.0" stroke="rgb(0,0,0)"  stroke-width="3"/>
<line x1="434.8" y1="85.5" x2="422.6" y2="48.2" opacity="1.0" stroke="rgb(0,0,0)"  stroke-width="3"/>
<line x1="426.1" y1="82.0" x2="417.6" y2="56.1" opacity="1.0" stroke="rgb(0,0,0)"  stroke-width="3"/>
<line x1="422.6" y1="48.2" x2="384.2" y2="40.0" opacity="1.0" stroke="rgb(0,0,0)"  stroke-width="3"/>
<line x1="384.2" y1="40.0" x2="357.9" y2="69.2" opacity="1.0" stroke="rgb(0,0,0)"  stroke-width="3"/>
<line x1="385.5" y1="49.3" x2="367.3" y2="69.5" opacity="1.0" stroke="rgb(0,0,0)"  stroke-width="3"/>
<line x1="357.9" y1="69.2" x2="370.1" y2="106.5" opacity="1.0" stroke="rgb(0,0,0)"  stroke-width="3"/>
<line x1="370.1" y1="106.5" x2="408.5" y2="114.7" opacity="1.0" stroke="rgb(0,0,0)"  stroke-width="3"/>
<line x1="377.4" y1="100.7" x2="404.1" y2="106.4" opacity="1.0" stroke="rgb(0,0,0)"  stroke-width="3"/>
<line x1="386.0" y1="502.9" x2="420.0" y2="483.2" opacity="1.0" stroke="rgb(0,0,0)"  stroke-width="3"/>
<line x1="420.0" y1="483.2" x2="420.0" y2="444.0" opacity="1.0" stroke="rgb(0,0,0)"  stroke-width="3"/>
<line x1="412.8" y1="477.2" x2="412.8" y2="450.0" opacity="1.0" stroke="rgb(0,0,0)"  stroke-width="3"/>
<line x1="420.0" y1="444.0" x2="386.0" y2="424.3" opacity="1.0" stroke="rgb(0,0,0)"  stroke-width="3"/>
<line x1="386.0" y1="424.3" x2="352.0" y2="444.0" opacity="1.0" stroke="rgb(0,0,0)"  stroke-width="3"/>
<line x1="384.4" y1="433.6" x2="360.8" y2="447.2" opacity="1.0" stroke="rgb(0,0,0)"  stroke-width="3"/>
<line x1="352.0" y1="444.0" x2="352.0" y2="483.2" opacity="1.0" stroke="rgb(0,0,0)"  stroke-width="3"/>
<line x1="352.0" y1="483.2" x2="386.0" y2="502.9" opacity="1.0" stroke="rgb(0,0,0)"  stroke-width="3"/>
<line x1="360.8" y1="480.0" x2="384.4" y2="493.6" opacity="1.0" stroke="rgb(0,0,0)"  stroke-width="3"/>
<line x1="454.0" y1="542.1" x2="454.0" y2="502.9" opacity="1.0" stroke="rgb(0,0,0)"  stroke-width="3"/>
<line x1="446.8" y1="536.1" x2="446.8" y2="508.9" opacity="1.0" stroke="rgb(0,0,0)"  stroke-width="3"/>
<line x1="454.0" y1="502.9" x2="420.0" y2="483.2" opacity="1.0" stroke="rgb(0,0,0)"  stroke-width="3"/>
<line x1="386.0" y1="502.9" x2="386.0" y2="542.1" opacity="1.0" stroke="rgb(0,0,0)"  stroke-width="3"/>
<line x1="386.0" y1="542.1" x2="420.0" y2="561.8" opacity="1.0" stroke="rgb(0,0,0)"  stroke-width="3"/>
<line x1="394.8" y1="538.9" x2="418.4" y2="552.5" opacity="1.0" stroke="rgb(0,0,0)"  stroke-width="3"/>
<line x1="420.0" y1="561.8" x2="454.0" y2="542.1" opacity="1.0" stroke="rgb(0,0,0)"  stroke-width="3"/>
<line x1="318.0" y1="385.1" x2="318.0" y2="424.3" opacity="1.0" stroke="rgb(0,0,0)"  stroke-width="3"/>
<line x1="325.2" y1="391.1" x2="325.2" y2="418.3" opacity="1.0" stroke="rgb(0,0,0)"  stroke-width="3"/>
<line x1="318.0" y1="424.3" x2="352.0" y2="444.0" opacity="1.0" stroke="rgb(0,0,0)"  stroke-width="3"/>
<line x1="386.0" y1="424.3" x2="386.0" y2="385.1" opacity="1.0" stroke="rgb(0,0,0)"  stroke-width="3"/>
<line x1="386.0" y1="385.1" x2="352.0" y2="365.4" opacity="1.0" stroke="rgb(0,0,0)"  stroke-width="3"/>
<line x1="377.2" y1="388.3" x2="353.6" y2="374.7" opacity="1.0" stroke="rgb(0,0,0)"  stroke-width="3"/>
<line x1="352.0" y1="365.4" x2="318.0" y2="385.1" opacity="1.0" stroke="rgb(0,0,0)"  stroke-width="3"/>
<line x1="488.0" y1="444.0" x2="522.0" y2="424.3" opacity="1.0" stroke="rgb(0,0,0)"  stroke-width="3"/>
<line x1="522.0" y1="424.3" x2="522.0" y2="385.1" opacity="1.0" stroke="rgb(0,0,0)"  stroke-width="3"/>
<line x1="514.8" y1="418.3" x2="514.8" y2="391.1" opacity="1.0" stroke="rgb(0,0,0)"  stroke-width="3"/>
<line x1="522.0" y1="385.1" x2="488.0" y2="365.4" opacity="1.0" stroke="rgb(0,0,0)"  stroke-width="3"/>
<line x1="488.0" y1="365.4" x2="454.0" y2="385.1" opacity="1.0" stroke="rgb(0,0,0)"  stroke-width="3"/>
<line x1="486.4" y1="374.7" x2="462.8" y2="388.3" opacity="1.0" stroke="rgb(0,0,0)"  stroke-width="3"/>
<line x1="454.0" y1="385.1" x2="454.0" y2="424.3" opacity="1.0" stroke="rgb(0,0,0)"  stroke-width="3"/>
<line x1="454.0" y1="424.3" x2="488.0" y2="444.0" opacity="1.0" stroke="rgb(0,0,0)"  stroke-width="3"/>
<line x1="462.8" y1="421.1" x2="486.4" y2="434.7" opacity="1.0" stroke="rgb(0,0,0)"  stroke-width="3"/>
<line x1="72.5" y1="189.6" x2="40.0" y2="211.9" opacity="1.0" stroke="rgb(0,0,0)"  stroke-width="3"/>
<line x1="40.0" y1="211.9" x2="43.1" y2="251.2" opacity="1.0" stroke="rgb(0,0,0)"  stroke-width="3"/>
<line x1="47.6" y1="217.3" x2="49.8" y2="244.6" opacity="1.0" stroke="rgb(0,0,0)"  stroke-width="3"/>
<line x1="43.1" y1="251.2" x2="78.6" y2="268.2" opacity="1.0" stroke="rgb(0,0,0)"  stroke-width="3"/>
<line x1="78.6" y1="268.2" x2="111.1" y2="245.9" opacity="1.0" stroke="rgb(0,0,0)"  stroke-width="3"/>
<line x1="79.5" y1="258.9" x2="102.1" y2="243.4" opacity="1.0" stroke="rgb(0,0,0)"  stroke-width="3"/>
<line x1="111.1" y1="245.9" x2="108.0" y2="206.6" opacity="1.0" stroke="rgb(0,0,0)"  stroke-width="3"/>
<line x1="108.0" y1="206.6" x2="72.5" y2="189.6" opacity="1.0" stroke="rgb(0,0,0)"  stroke-width="3"/>
<line x1="99.5" y1="210.5" x2="74.8" y2="198.7" opacity="1.0" stroke="rgb(0,0,0)"  stroke-width="3"/>
<line x1="170.0" y1="122.8" x2="166.9" y2="83.5" opacity="1.0" stroke="rgb(0,0,0)"  stroke-width="3"/>
<line x1="166.9" y1="83.5" x2="131.4" y2="66.5" opacity="1.0" stroke="rgb(0,0,0)"  stroke-width="3"/>
<line x1="158.4" y1="87.4" x2="133.7" y2="75.6" opacity="1.0" stroke="rgb(0,0,0)"  stroke-width="3"/>
<line x1="131.4" y1="66.5" x2="98.9" y2="88.8" opacity="1.0" stroke="rgb(0,0,0)"  stroke-width="3"/>
<line x1="98.9" y1="88.8" x2="101.9" y2="128.0" opacity="1.0" stroke="rgb(0,0,0)"  stroke-width="3"/>
<line x1="106.5" y1="94.2" x2="108.7" y2="121.5" opacity="1.0" stroke="rgb(0,0,0)"  stroke-width="3"/>
<line x1="101.9" y1="128.0" x2="137.5" y2="145.0" opacity="1.0" stroke="rgb(0,0,0)"  stroke-width="3"/>
<line x1="137.5" y1="145.0" x2="170.0" y2="122.8" opacity="1.0" stroke="rgb(0,0,0)"  stroke-width="3"/>
<line x1="138.4" y1="135.7" x2="161.0" y2="120.2" opacity="1.0" stroke="rgb(0,0,0)"  stroke-width="3"/>
<text x="134.537947" y="192.330461" fill="rgb(12,12,255)" stroke-width="0" font-weight="bold" font-size="25.92" >N</text>
<text x="345.963756" y="299.913228" fill="rgb(12,12,255)" stroke-width="0" font-weight="bold" font-size="25.92" >N</text>
<text x="209.939019" y="299.913228" fill="rgb(12,12,255)" stroke-width="0" font-weight="bold" font-size="25.92" >N</text>
<text x="337.796540" y="143.709260" fill="rgb(12,12,255)" stroke-width="0" font-weight="bold" font-size="25.92" >N</text>
<text x="277.951387" y="260.648504" fill="rgb(255,181,181)" stroke-width="0" font-weight="bold" font-size="25.92" >B</text>
</svg>
</g>
</svg>
