<?xml version="1.0"?>
<svg version="1.1" id="topsvg"
xmlns="http://www.w3.org/2000/svg" xmlns:xlink="http://www.w3.org/1999/xlink"
xmlns:cml="http://www.xml-cml.org/schema" x="0" y="0" width="200px" height="200px" viewBox="0 0 100 100">
<title>GD209.sdf - Open Babel Depiction</title>
<rect x="0" y="0" width="100" height="100" fill="white"/>
<g transform="translate(0,0)">
<svg width="100" height="100" x="0" y="0" viewBox="0 0 565.95 565.494"
font-family="sans-serif" stroke="rgb(0,0,0)" stroke-width="3"  stroke-linecap="round">
<line x1="119.8" y1="301.2" x2="79.9" y2="301.2" opacity="1.0" stroke="rgb(0,0,0)"  stroke-width="3"/>
<line x1="79.9" y1="301.2" x2="40.0" y2="301.2" opacity="1.0" stroke="rgb(0,0,0)"  stroke-width="3"/>
<line x1="60.0" y1="335.7" x2="79.9" y2="301.2" opacity="1.0" stroke="rgb(0,0,0)"  stroke-width="3"/>
<line x1="79.9" y1="301.2" x2="60.0" y2="266.6" opacity="1.0" stroke="rgb(0,0,0)"  stroke-width="3"/>
<line x1="384.6" y1="124.9" x2="404.3" y2="106.4" opacity="1.0" stroke="rgb(0,0,0)"  stroke-width="3"/>
<line x1="236.8" y1="173.3" x2="202.1" y2="153.3" opacity="1.0" stroke="rgb(0,0,0)"  stroke-width="3"/>
<line x1="202.1" y1="153.3" x2="167.4" y2="173.3" opacity="1.0" stroke="rgb(0,0,0)"  stroke-width="3"/>
<line x1="202.1" y1="153.3" x2="202.1" y2="113.2" opacity="1.0" stroke="rgb(0,0,0)"  stroke-width="3"/>
<line x1="202.1" y1="153.3" x2="236.8" y2="133.2" opacity="1.0" stroke="rgb(0,0,0)"  stroke-width="3"/>
<line x1="308.9" y1="371.8" x2="309.1" y2="398.8" opacity="1.0" stroke="rgb(0,0,0)"  stroke-width="3"/>
<line x1="179.0" y1="265.5" x2="203.2" y2="233.7" opacity="1.0" stroke="rgb(0,0,0)"  stroke-width="3"/>
<line x1="203.2" y1="233.7" x2="238.1" y2="253.1" opacity="1.0" stroke="rgb(0,0,0)"  stroke-width="3"/>
<line x1="238.1" y1="253.1" x2="238.7" y2="280.0" opacity="1.0" stroke="rgb(0,0,0)"  stroke-width="3"/>
<line x1="226.2" y1="295.2" x2="199.6" y2="299.6" opacity="1.0" stroke="rgb(0,0,0)"  stroke-width="3"/>
<line x1="199.6" y1="299.6" x2="179.0" y2="265.5" opacity="1.0" stroke="rgb(0,0,0)"  stroke-width="3"/>
<line x1="202.7" y1="290.8" x2="188.3" y2="266.9" opacity="1.0" stroke="rgb(0,0,0)"  stroke-width="3"/>
<line x1="436.6" y1="265.1" x2="409.4" y2="235.9" opacity="1.0" stroke="rgb(0,0,0)"  stroke-width="3"/>
<line x1="409.4" y1="235.9" x2="373.2" y2="252.9" opacity="1.0" stroke="rgb(0,0,0)"  stroke-width="3"/>
<line x1="407.0" y1="245.0" x2="381.7" y2="256.9" opacity="1.0" stroke="rgb(0,0,0)"  stroke-width="3"/>
<line x1="373.2" y1="252.9" x2="376.5" y2="279.6" opacity="1.0" stroke="rgb(0,0,0)"  stroke-width="3"/>
<line x1="390.9" y1="294.9" x2="417.3" y2="300.0" opacity="1.0" stroke="rgb(0,0,0)"  stroke-width="3"/>
<line x1="417.3" y1="300.0" x2="436.6" y2="265.1" opacity="1.0" stroke="rgb(0,0,0)"  stroke-width="3"/>
<line x1="413.9" y1="291.3" x2="427.4" y2="266.9" opacity="1.0" stroke="rgb(0,0,0)"  stroke-width="3"/>
<line x1="335.9" y1="126.2" x2="362.3" y2="131.3" opacity="1.0" stroke="rgb(0,0,0)"  stroke-width="3"/>
<line x1="376.7" y1="146.6" x2="380.0" y2="173.3" opacity="1.0" stroke="rgb(0,0,0)"  stroke-width="3"/>
<line x1="380.0" y1="173.3" x2="343.9" y2="190.3" opacity="1.0" stroke="rgb(0,0,0)"  stroke-width="3"/>
<line x1="343.9" y1="190.3" x2="316.6" y2="161.1" opacity="1.0" stroke="rgb(0,0,0)"  stroke-width="3"/>
<line x1="316.6" y1="161.1" x2="335.9" y2="126.2" opacity="1.0" stroke="rgb(0,0,0)"  stroke-width="3"/>
<line x1="325.8" y1="159.4" x2="339.3" y2="134.9" opacity="1.0" stroke="rgb(0,0,0)"  stroke-width="3"/>
<line x1="276.5" y1="435.0" x2="288.5" y2="473.2" opacity="1.0" stroke="rgb(0,0,0)"  stroke-width="3"/>
<line x1="285.2" y1="438.6" x2="293.6" y2="465.3" opacity="1.0" stroke="rgb(0,0,0)"  stroke-width="3"/>
<line x1="288.5" y1="473.2" x2="328.6" y2="473.2" opacity="1.0" stroke="rgb(0,0,0)"  stroke-width="3"/>
<line x1="328.6" y1="473.2" x2="341.3" y2="435.0" opacity="1.0" stroke="rgb(0,0,0)"  stroke-width="3"/>
<line x1="323.6" y1="465.3" x2="332.6" y2="438.4" opacity="1.0" stroke="rgb(0,0,0)"  stroke-width="3"/>
<line x1="341.3" y1="435.0" x2="319.7" y2="419.4" opacity="1.0" stroke="rgb(0,0,0)"  stroke-width="3"/>
<line x1="298.6" y1="419.3" x2="276.5" y2="435.0" opacity="1.0" stroke="rgb(0,0,0)"  stroke-width="3"/>
<line x1="274.3" y1="352.0" x2="308.9" y2="371.8" opacity="1.0" stroke="rgb(0,0,0)"  stroke-width="3"/>
<line x1="308.9" y1="371.8" x2="343.4" y2="351.6" opacity="1.0" stroke="rgb(0,0,0)"  stroke-width="3"/>
<line x1="310.5" y1="362.5" x2="334.6" y2="348.4" opacity="1.0" stroke="rgb(0,0,0)"  stroke-width="3"/>
<line x1="343.4" y1="351.6" x2="343.2" y2="311.7" opacity="1.0" stroke="rgb(0,0,0)"  stroke-width="3"/>
<line x1="343.2" y1="311.7" x2="308.5" y2="291.9" opacity="1.0" stroke="rgb(0,0,0)"  stroke-width="3"/>
<line x1="334.4" y1="315.0" x2="310.1" y2="301.2" opacity="1.0" stroke="rgb(0,0,0)"  stroke-width="3"/>
<line x1="308.5" y1="291.9" x2="274.0" y2="312.1" opacity="1.0" stroke="rgb(0,0,0)"  stroke-width="3"/>
<line x1="274.0" y1="312.1" x2="274.3" y2="352.0" opacity="1.0" stroke="rgb(0,0,0)"  stroke-width="3"/>
<line x1="281.3" y1="318.0" x2="281.4" y2="346.0" opacity="1.0" stroke="rgb(0,0,0)"  stroke-width="3"/>
<line x1="307.6" y1="265.0" x2="308.5" y2="291.9" opacity="1.0" stroke="rgb(0,0,0)"  stroke-width="3"/>
<line x1="274.0" y1="312.1" x2="250.4" y2="299.2" opacity="1.0" stroke="rgb(0,0,0)"  stroke-width="3"/>
<line x1="238.1" y1="253.1" x2="272.3" y2="232.6" opacity="1.0" stroke="rgb(0,0,0)"  stroke-width="3"/>
<line x1="247.0" y1="256.2" x2="270.9" y2="241.8" opacity="1.0" stroke="rgb(0,0,0)"  stroke-width="3"/>
<line x1="272.3" y1="232.6" x2="295.8" y2="245.7" opacity="1.0" stroke="rgb(0,0,0)"  stroke-width="3"/>
<line x1="373.2" y1="252.9" x2="340.5" y2="230.0" opacity="1.0" stroke="rgb(0,0,0)"  stroke-width="3"/>
<line x1="340.5" y1="230.0" x2="318.0" y2="244.9" opacity="1.0" stroke="rgb(0,0,0)"  stroke-width="3"/>
<line x1="343.2" y1="311.7" x2="366.8" y2="298.7" opacity="1.0" stroke="rgb(0,0,0)"  stroke-width="3"/>
<line x1="140.4" y1="335.4" x2="180.3" y2="334.6" opacity="1.0" stroke="rgb(0,0,0)"  stroke-width="3"/>
<line x1="146.3" y1="328.0" x2="174.2" y2="327.5" opacity="1.0" stroke="rgb(0,0,0)"  stroke-width="3"/>
<line x1="180.3" y1="334.6" x2="199.6" y2="299.6" opacity="1.0" stroke="rgb(0,0,0)"  stroke-width="3"/>
<line x1="179.0" y1="265.5" x2="139.1" y2="266.2" opacity="1.0" stroke="rgb(0,0,0)"  stroke-width="3"/>
<line x1="139.1" y1="266.2" x2="119.8" y2="301.2" opacity="1.0" stroke="rgb(0,0,0)"  stroke-width="3"/>
<line x1="142.5" y1="275.0" x2="129.0" y2="299.4" opacity="1.0" stroke="rgb(0,0,0)"  stroke-width="3"/>
<line x1="119.8" y1="301.2" x2="140.4" y2="335.4" opacity="1.0" stroke="rgb(0,0,0)"  stroke-width="3"/>
<line x1="497.2" y1="298.5" x2="476.5" y2="264.3" opacity="1.0" stroke="rgb(0,0,0)"  stroke-width="3"/>
<line x1="487.9" y1="297.1" x2="473.5" y2="273.2" opacity="1.0" stroke="rgb(0,0,0)"  stroke-width="3"/>
<line x1="476.5" y1="264.3" x2="436.6" y2="265.1" opacity="1.0" stroke="rgb(0,0,0)"  stroke-width="3"/>
<line x1="417.3" y1="300.0" x2="438.0" y2="334.2" opacity="1.0" stroke="rgb(0,0,0)"  stroke-width="3"/>
<line x1="438.0" y1="334.2" x2="477.9" y2="333.4" opacity="1.0" stroke="rgb(0,0,0)"  stroke-width="3"/>
<line x1="443.8" y1="326.9" x2="471.7" y2="326.3" opacity="1.0" stroke="rgb(0,0,0)"  stroke-width="3"/>
<line x1="477.9" y1="333.4" x2="497.2" y2="298.5" opacity="1.0" stroke="rgb(0,0,0)"  stroke-width="3"/>
<line x1="343.9" y1="190.3" x2="340.5" y2="230.0" opacity="1.0" stroke="rgb(0,0,0)"  stroke-width="3"/>
<line x1="350.5" y1="196.9" x2="348.2" y2="224.7" opacity="1.0" stroke="rgb(0,0,0)"  stroke-width="3"/>
<line x1="409.4" y1="235.9" x2="412.8" y2="196.2" opacity="1.0" stroke="rgb(0,0,0)"  stroke-width="3"/>
<line x1="412.8" y1="196.2" x2="380.0" y2="173.3" opacity="1.0" stroke="rgb(0,0,0)"  stroke-width="3"/>
<line x1="403.7" y1="198.7" x2="380.8" y2="182.7" opacity="1.0" stroke="rgb(0,0,0)"  stroke-width="3"/>
<line x1="203.2" y1="233.7" x2="202.5" y2="193.8" opacity="1.0" stroke="rgb(0,0,0)"  stroke-width="3"/>
<line x1="210.3" y1="227.6" x2="209.8" y2="199.7" opacity="1.0" stroke="rgb(0,0,0)"  stroke-width="3"/>
<line x1="202.5" y1="193.8" x2="236.8" y2="173.3" opacity="1.0" stroke="rgb(0,0,0)"  stroke-width="3"/>
<line x1="236.8" y1="173.3" x2="271.7" y2="192.6" opacity="1.0" stroke="rgb(0,0,0)"  stroke-width="3"/>
<line x1="238.5" y1="182.5" x2="262.9" y2="196.0" opacity="1.0" stroke="rgb(0,0,0)"  stroke-width="3"/>
<line x1="271.7" y1="192.6" x2="272.3" y2="232.6" opacity="1.0" stroke="rgb(0,0,0)"  stroke-width="3"/>
<line x1="257.4" y1="126.2" x2="276.7" y2="161.1" opacity="1.0" stroke="rgb(0,0,0)"  stroke-width="3"/>
<line x1="266.6" y1="128.0" x2="280.1" y2="152.4" opacity="1.0" stroke="rgb(0,0,0)"  stroke-width="3"/>
<line x1="276.7" y1="161.1" x2="316.6" y2="161.1" opacity="1.0" stroke="rgb(0,0,0)"  stroke-width="3"/>
<line x1="335.9" y1="126.2" x2="316.6" y2="92.0" opacity="1.0" stroke="rgb(0,0,0)"  stroke-width="3"/>
<line x1="316.6" y1="92.0" x2="276.7" y2="92.0" opacity="1.0" stroke="rgb(0,0,0)"  stroke-width="3"/>
<line x1="310.6" y1="99.2" x2="282.7" y2="99.2" opacity="1.0" stroke="rgb(0,0,0)"  stroke-width="3"/>
<line x1="276.7" y1="92.0" x2="257.4" y2="126.2" opacity="1.0" stroke="rgb(0,0,0)"  stroke-width="3"/>
<line x1="442.7" y1="118.0" x2="471.9" y2="90.6" opacity="1.0" stroke="rgb(0,0,0)"  stroke-width="3"/>
<line x1="471.9" y1="90.6" x2="462.8" y2="51.6" opacity="1.0" stroke="rgb(0,0,0)"  stroke-width="3"/>
<line x1="463.5" y1="86.4" x2="457.2" y2="59.1" opacity="1.0" stroke="rgb(0,0,0)"  stroke-width="3"/>
<line x1="462.8" y1="51.6" x2="424.5" y2="40.0" opacity="1.0" stroke="rgb(0,0,0)"  stroke-width="3"/>
<line x1="424.5" y1="40.0" x2="395.3" y2="67.4" opacity="1.0" stroke="rgb(0,0,0)"  stroke-width="3"/>
<line x1="425.0" y1="49.4" x2="404.6" y2="68.5" opacity="1.0" stroke="rgb(0,0,0)"  stroke-width="3"/>
<line x1="395.3" y1="67.4" x2="404.3" y2="106.4" opacity="1.0" stroke="rgb(0,0,0)"  stroke-width="3"/>
<line x1="404.3" y1="106.4" x2="442.7" y2="118.0" opacity="1.0" stroke="rgb(0,0,0)"  stroke-width="3"/>
<line x1="412.2" y1="101.2" x2="439.0" y2="109.4" opacity="1.0" stroke="rgb(0,0,0)"  stroke-width="3"/>
<line x1="222.3" y1="494.0" x2="261.4" y2="502.7" opacity="1.0" stroke="rgb(0,0,0)"  stroke-width="3"/>
<line x1="229.8" y1="488.3" x2="257.1" y2="494.4" opacity="1.0" stroke="rgb(0,0,0)"  stroke-width="3"/>
<line x1="261.4" y1="502.7" x2="288.5" y2="473.2" opacity="1.0" stroke="rgb(0,0,0)"  stroke-width="3"/>
<line x1="276.5" y1="435.0" x2="237.4" y2="426.3" opacity="1.0" stroke="rgb(0,0,0)"  stroke-width="3"/>
<line x1="237.4" y1="426.3" x2="210.3" y2="455.8" opacity="1.0" stroke="rgb(0,0,0)"  stroke-width="3"/>
<line x1="238.7" y1="435.6" x2="219.7" y2="456.2" opacity="1.0" stroke="rgb(0,0,0)"  stroke-width="3"/>
<line x1="210.3" y1="455.8" x2="222.3" y2="494.0" opacity="1.0" stroke="rgb(0,0,0)"  stroke-width="3"/>
<line x1="407.5" y1="457.1" x2="380.8" y2="427.0" opacity="1.0" stroke="rgb(0,0,0)"  stroke-width="3"/>
<line x1="398.2" y1="457.4" x2="379.4" y2="436.2" opacity="1.0" stroke="rgb(0,0,0)"  stroke-width="3"/>
<line x1="380.8" y1="427.0" x2="341.3" y2="435.0" opacity="1.0" stroke="rgb(0,0,0)"  stroke-width="3"/>
<line x1="328.6" y1="473.2" x2="355.3" y2="503.4" opacity="1.0" stroke="rgb(0,0,0)"  stroke-width="3"/>
<line x1="355.3" y1="503.4" x2="394.8" y2="495.3" opacity="1.0" stroke="rgb(0,0,0)"  stroke-width="3"/>
<line x1="359.7" y1="495.1" x2="387.4" y2="489.5" opacity="1.0" stroke="rgb(0,0,0)"  stroke-width="3"/>
<line x1="394.8" y1="495.3" x2="407.5" y2="457.1" opacity="1.0" stroke="rgb(0,0,0)"  stroke-width="3"/>
<line x1="433.0" y1="380.7" x2="393.6" y2="388.7" opacity="1.0" stroke="rgb(0,0,0)"  stroke-width="3"/>
<line x1="428.6" y1="388.9" x2="400.9" y2="394.6" opacity="1.0" stroke="rgb(0,0,0)"  stroke-width="3"/>
<line x1="393.6" y1="388.7" x2="380.8" y2="427.0" opacity="1.0" stroke="rgb(0,0,0)"  stroke-width="3"/>
<line x1="407.5" y1="457.1" x2="447.0" y2="449.1" opacity="1.0" stroke="rgb(0,0,0)"  stroke-width="3"/>
<line x1="447.0" y1="449.1" x2="459.8" y2="410.9" opacity="1.0" stroke="rgb(0,0,0)"  stroke-width="3"/>
<line x1="459.8" y1="410.9" x2="433.0" y2="380.7" opacity="1.0" stroke="rgb(0,0,0)"  stroke-width="3"/>
<line x1="447.0" y1="449.1" x2="473.7" y2="479.2" opacity="1.0" stroke="rgb(0,0,0)"  stroke-width="3"/>
<line x1="445.6" y1="458.3" x2="464.3" y2="479.5" opacity="1.0" stroke="rgb(0,0,0)"  stroke-width="3"/>
<line x1="473.7" y1="479.2" x2="460.9" y2="517.4" opacity="1.0" stroke="rgb(0,0,0)"  stroke-width="3"/>
<line x1="460.9" y1="517.4" x2="421.5" y2="525.5" opacity="1.0" stroke="rgb(0,0,0)"  stroke-width="3"/>
<line x1="453.6" y1="511.6" x2="425.9" y2="517.2" opacity="1.0" stroke="rgb(0,0,0)"  stroke-width="3"/>
<line x1="421.5" y1="525.5" x2="394.8" y2="495.3" opacity="1.0" stroke="rgb(0,0,0)"  stroke-width="3"/>
<line x1="525.9" y1="433.0" x2="499.2" y2="402.8" opacity="1.0" stroke="rgb(0,0,0)"  stroke-width="3"/>
<line x1="499.2" y1="402.8" x2="459.8" y2="410.9" opacity="1.0" stroke="rgb(0,0,0)"  stroke-width="3"/>
<line x1="494.8" y1="411.1" x2="467.1" y2="416.7" opacity="1.0" stroke="rgb(0,0,0)"  stroke-width="3"/>
<line x1="473.7" y1="479.2" x2="513.2" y2="471.2" opacity="1.0" stroke="rgb(0,0,0)"  stroke-width="3"/>
<line x1="513.2" y1="471.2" x2="525.9" y2="433.0" opacity="1.0" stroke="rgb(0,0,0)"  stroke-width="3"/>
<line x1="508.3" y1="463.2" x2="517.2" y2="436.4" opacity="1.0" stroke="rgb(0,0,0)"  stroke-width="3"/>
<text x="303.171172" y="419.800905" fill="rgb(12,12,255)" stroke-width="0" font-weight="bold" font-size="25.92" >N</text>
<text x="232.984616" y="301.003420" fill="rgb(12,12,255)" stroke-width="0" font-weight="bold" font-size="25.92" >N</text>
<text x="372.152294" y="300.482478" fill="rgb(12,12,255)" stroke-width="0" font-weight="bold" font-size="25.92" >N</text>
<text x="301.177698" y="260.041278" fill="rgb(255,181,181)" stroke-width="0" font-weight="bold" font-size="25.92" >B</text>
<text x="369.090430" y="141.742405" fill="rgb(12,12,255)" stroke-width="0" font-weight="bold" font-size="25.92" >N</text>
</svg>
</g>
</svg>
