<?xml version="1.0"?>
<svg version="1.1" id="topsvg"
xmlns="http://www.w3.org/2000/svg" xmlns:xlink="http://www.w3.org/1999/xlink"
xmlns:cml="http://www.xml-cml.org/schema" x="0" y="0" width="200px" height="200px" viewBox="0 0 100 100">
<title>GD206.sdf - Open Babel Depiction</title>
<rect x="0" y="0" width="100" height="100" fill="white"/>
<g transform="translate(0,0)">
<svg width="100" height="100" x="0" y="0" viewBox="0 0 582.44 480.615"
font-family="sans-serif" stroke="rgb(0,0,0)" stroke-width="3"  stroke-linecap="round">
<line x1="438.6" y1="147.4" x2="464.7" y2="153.0" opacity="1.0" stroke="rgb(0,0,0)"  stroke-width="3"/>
<line x1="114.0" y1="358.5" x2="153.1" y2="365.1" opacity="1.0" stroke="rgb(0,0,0)"  stroke-width="3"/>
<line x1="114.0" y1="358.5" x2="107.4" y2="397.6" opacity="1.0" stroke="rgb(0,0,0)"  stroke-width="3"/>
<line x1="67.9" y1="293.7" x2="74.5" y2="254.6" opacity="1.0" stroke="rgb(0,0,0)"  stroke-width="3"/>
<line x1="67.9" y1="293.7" x2="40.0" y2="287.0" opacity="1.0" stroke="rgb(0,0,0)"  stroke-width="3"/>
<line x1="163.5" y1="250.1" x2="187.2" y2="218.2" opacity="1.0" stroke="rgb(0,0,0)"  stroke-width="3"/>
<line x1="187.2" y1="218.2" x2="224.8" y2="230.8" opacity="1.0" stroke="rgb(0,0,0)"  stroke-width="3"/>
<line x1="190.6" y1="226.9" x2="216.8" y2="235.8" opacity="1.0" stroke="rgb(0,0,0)"  stroke-width="3"/>
<line x1="224.8" y1="230.8" x2="224.5" y2="257.6" opacity="1.0" stroke="rgb(0,0,0)"  stroke-width="3"/>
<line x1="212.0" y1="274.5" x2="186.5" y2="282.5" opacity="1.0" stroke="rgb(0,0,0)"  stroke-width="3"/>
<line x1="186.5" y1="282.5" x2="163.5" y2="250.1" opacity="1.0" stroke="rgb(0,0,0)"  stroke-width="3"/>
<line x1="188.9" y1="273.4" x2="172.8" y2="250.8" opacity="1.0" stroke="rgb(0,0,0)"  stroke-width="3"/>
<line x1="396.4" y1="211.0" x2="362.0" y2="230.8" opacity="1.0" stroke="rgb(0,0,0)"  stroke-width="3"/>
<line x1="394.8" y1="220.2" x2="370.8" y2="234.1" opacity="1.0" stroke="rgb(0,0,0)"  stroke-width="3"/>
<line x1="362.0" y1="230.8" x2="362.0" y2="257.6" opacity="1.0" stroke="rgb(0,0,0)"  stroke-width="3"/>
<line x1="373.2" y1="277.1" x2="396.4" y2="290.4" opacity="1.0" stroke="rgb(0,0,0)"  stroke-width="3"/>
<line x1="396.4" y1="290.4" x2="430.8" y2="270.6" opacity="1.0" stroke="rgb(0,0,0)"  stroke-width="3"/>
<line x1="430.8" y1="270.6" x2="396.4" y2="211.0" opacity="1.0" stroke="rgb(0,0,0)"  stroke-width="3"/>
<line x1="409.7" y1="108.4" x2="420.6" y2="132.8" opacity="1.0" stroke="rgb(0,0,0)"  stroke-width="3"/>
<line x1="416.2" y1="153.4" x2="396.4" y2="171.3" opacity="1.0" stroke="rgb(0,0,0)"  stroke-width="3"/>
<line x1="396.4" y1="171.3" x2="362.0" y2="151.4" opacity="1.0" stroke="rgb(0,0,0)"  stroke-width="3"/>
<line x1="394.8" y1="162.0" x2="370.8" y2="148.2" opacity="1.0" stroke="rgb(0,0,0)"  stroke-width="3"/>
<line x1="362.0" y1="151.4" x2="370.2" y2="112.6" opacity="1.0" stroke="rgb(0,0,0)"  stroke-width="3"/>
<line x1="370.2" y1="112.6" x2="409.7" y2="108.4" opacity="1.0" stroke="rgb(0,0,0)"  stroke-width="3"/>
<line x1="377.0" y1="119.1" x2="404.5" y2="116.2" opacity="1.0" stroke="rgb(0,0,0)"  stroke-width="3"/>
<line x1="258.8" y1="330.1" x2="293.2" y2="350.0" opacity="1.0" stroke="rgb(0,0,0)"  stroke-width="3"/>
<line x1="293.2" y1="350.0" x2="327.6" y2="330.1" opacity="1.0" stroke="rgb(0,0,0)"  stroke-width="3"/>
<line x1="294.8" y1="340.8" x2="318.8" y2="326.9" opacity="1.0" stroke="rgb(0,0,0)"  stroke-width="3"/>
<line x1="327.6" y1="330.1" x2="327.6" y2="290.4" opacity="1.0" stroke="rgb(0,0,0)"  stroke-width="3"/>
<line x1="327.6" y1="290.4" x2="293.2" y2="270.6" opacity="1.0" stroke="rgb(0,0,0)"  stroke-width="3"/>
<line x1="318.8" y1="293.6" x2="294.8" y2="279.8" opacity="1.0" stroke="rgb(0,0,0)"  stroke-width="3"/>
<line x1="293.2" y1="270.6" x2="258.8" y2="290.4" opacity="1.0" stroke="rgb(0,0,0)"  stroke-width="3"/>
<line x1="258.8" y1="290.4" x2="258.8" y2="330.1" opacity="1.0" stroke="rgb(0,0,0)"  stroke-width="3"/>
<line x1="266.0" y1="296.4" x2="266.0" y2="324.1" opacity="1.0" stroke="rgb(0,0,0)"  stroke-width="3"/>
<line x1="293.2" y1="243.8" x2="293.2" y2="270.6" opacity="1.0" stroke="rgb(0,0,0)"  stroke-width="3"/>
<line x1="258.8" y1="290.4" x2="235.7" y2="277.1" opacity="1.0" stroke="rgb(0,0,0)"  stroke-width="3"/>
<line x1="224.8" y1="230.8" x2="254.6" y2="204.6" opacity="1.0" stroke="rgb(0,0,0)"  stroke-width="3"/>
<line x1="254.6" y1="204.6" x2="282.5" y2="223.5" opacity="1.0" stroke="rgb(0,0,0)"  stroke-width="3"/>
<line x1="465.2" y1="290.4" x2="430.8" y2="270.6" opacity="1.0" stroke="rgb(0,0,0)"  stroke-width="3"/>
<line x1="456.4" y1="293.6" x2="432.4" y2="279.8" opacity="1.0" stroke="rgb(0,0,0)"  stroke-width="3"/>
<line x1="396.4" y1="290.4" x2="396.4" y2="330.1" opacity="1.0" stroke="rgb(0,0,0)"  stroke-width="3"/>
<line x1="403.6" y1="296.4" x2="403.6" y2="324.1" opacity="1.0" stroke="rgb(0,0,0)"  stroke-width="3"/>
<line x1="396.4" y1="330.1" x2="430.8" y2="350.0" opacity="1.0" stroke="rgb(0,0,0)"  stroke-width="3"/>
<line x1="430.8" y1="350.0" x2="465.2" y2="330.1" opacity="1.0" stroke="rgb(0,0,0)"  stroke-width="3"/>
<line x1="432.4" y1="340.8" x2="456.4" y2="326.9" opacity="1.0" stroke="rgb(0,0,0)"  stroke-width="3"/>
<line x1="465.2" y1="330.1" x2="465.2" y2="290.4" opacity="1.0" stroke="rgb(0,0,0)"  stroke-width="3"/>
<line x1="327.6" y1="211.0" x2="304.5" y2="224.3" opacity="1.0" stroke="rgb(0,0,0)"  stroke-width="3"/>
<line x1="327.6" y1="290.4" x2="350.7" y2="277.1" opacity="1.0" stroke="rgb(0,0,0)"  stroke-width="3"/>
<line x1="362.0" y1="230.8" x2="327.6" y2="211.0" opacity="1.0" stroke="rgb(0,0,0)"  stroke-width="3"/>
<line x1="396.4" y1="171.3" x2="396.4" y2="211.0" opacity="1.0" stroke="rgb(0,0,0)"  stroke-width="3"/>
<line x1="327.6" y1="211.0" x2="327.6" y2="171.3" opacity="1.0" stroke="rgb(0,0,0)"  stroke-width="3"/>
<line x1="334.8" y1="205.0" x2="334.8" y2="177.3" opacity="1.0" stroke="rgb(0,0,0)"  stroke-width="3"/>
<line x1="327.6" y1="171.3" x2="362.0" y2="151.4" opacity="1.0" stroke="rgb(0,0,0)"  stroke-width="3"/>
<line x1="363.1" y1="44.2" x2="346.9" y2="80.4" opacity="1.0" stroke="rgb(0,0,0)"  stroke-width="3"/>
<line x1="367.2" y1="52.6" x2="355.9" y2="77.9" opacity="1.0" stroke="rgb(0,0,0)"  stroke-width="3"/>
<line x1="346.9" y1="80.4" x2="370.2" y2="112.6" opacity="1.0" stroke="rgb(0,0,0)"  stroke-width="3"/>
<line x1="409.7" y1="108.4" x2="425.9" y2="72.1" opacity="1.0" stroke="rgb(0,0,0)"  stroke-width="3"/>
<line x1="425.9" y1="72.1" x2="402.6" y2="40.0" opacity="1.0" stroke="rgb(0,0,0)"  stroke-width="3"/>
<line x1="416.5" y1="71.5" x2="400.3" y2="49.1" opacity="1.0" stroke="rgb(0,0,0)"  stroke-width="3"/>
<line x1="402.6" y1="40.0" x2="363.1" y2="44.2" opacity="1.0" stroke="rgb(0,0,0)"  stroke-width="3"/>
<line x1="477.0" y1="190.7" x2="515.9" y2="199.0" opacity="1.0" stroke="rgb(0,0,0)"  stroke-width="3"/>
<line x1="515.9" y1="199.0" x2="542.4" y2="169.5" opacity="1.0" stroke="rgb(0,0,0)"  stroke-width="3"/>
<line x1="514.5" y1="189.7" x2="533.1" y2="169.1" opacity="1.0" stroke="rgb(0,0,0)"  stroke-width="3"/>
<line x1="542.4" y1="169.5" x2="530.2" y2="131.7" opacity="1.0" stroke="rgb(0,0,0)"  stroke-width="3"/>
<line x1="530.2" y1="131.7" x2="491.3" y2="123.4" opacity="1.0" stroke="rgb(0,0,0)"  stroke-width="3"/>
<line x1="522.8" y1="137.5" x2="495.7" y2="131.7" opacity="1.0" stroke="rgb(0,0,0)"  stroke-width="3"/>
<line x1="491.3" y1="123.4" x2="464.7" y2="153.0" opacity="1.0" stroke="rgb(0,0,0)"  stroke-width="3"/>
<line x1="464.7" y1="153.0" x2="477.0" y2="190.7" opacity="1.0" stroke="rgb(0,0,0)"  stroke-width="3"/>
<line x1="473.4" y1="156.4" x2="482.0" y2="182.8" opacity="1.0" stroke="rgb(0,0,0)"  stroke-width="3"/>
<line x1="459.5" y1="394.6" x2="433.0" y2="365.1" opacity="1.0" stroke="rgb(0,0,0)"  stroke-width="3"/>
<line x1="450.2" y1="394.9" x2="431.6" y2="374.3" opacity="1.0" stroke="rgb(0,0,0)"  stroke-width="3"/>
<line x1="433.0" y1="365.1" x2="394.1" y2="373.3" opacity="1.0" stroke="rgb(0,0,0)"  stroke-width="3"/>
<line x1="394.1" y1="373.3" x2="381.8" y2="411.1" opacity="1.0" stroke="rgb(0,0,0)"  stroke-width="3"/>
<line x1="399.1" y1="381.3" x2="390.5" y2="407.6" opacity="1.0" stroke="rgb(0,0,0)"  stroke-width="3"/>
<line x1="381.8" y1="411.1" x2="408.4" y2="440.6" opacity="1.0" stroke="rgb(0,0,0)"  stroke-width="3"/>
<line x1="408.4" y1="440.6" x2="447.3" y2="432.4" opacity="1.0" stroke="rgb(0,0,0)"  stroke-width="3"/>
<line x1="412.8" y1="432.3" x2="439.9" y2="426.6" opacity="1.0" stroke="rgb(0,0,0)"  stroke-width="3"/>
<line x1="447.3" y1="432.4" x2="459.5" y2="394.6" opacity="1.0" stroke="rgb(0,0,0)"  stroke-width="3"/>
<line x1="276.7" y1="432.4" x2="315.6" y2="440.6" opacity="1.0" stroke="rgb(0,0,0)"  stroke-width="3"/>
<line x1="284.1" y1="426.6" x2="311.2" y2="432.3" opacity="1.0" stroke="rgb(0,0,0)"  stroke-width="3"/>
<line x1="315.6" y1="440.6" x2="342.1" y2="411.1" opacity="1.0" stroke="rgb(0,0,0)"  stroke-width="3"/>
<line x1="342.1" y1="411.1" x2="329.9" y2="373.3" opacity="1.0" stroke="rgb(0,0,0)"  stroke-width="3"/>
<line x1="333.4" y1="407.6" x2="324.9" y2="381.3" opacity="1.0" stroke="rgb(0,0,0)"  stroke-width="3"/>
<line x1="329.9" y1="373.3" x2="291.0" y2="365.1" opacity="1.0" stroke="rgb(0,0,0)"  stroke-width="3"/>
<line x1="291.0" y1="365.1" x2="264.4" y2="394.6" opacity="1.0" stroke="rgb(0,0,0)"  stroke-width="3"/>
<line x1="292.3" y1="374.3" x2="273.8" y2="394.9" opacity="1.0" stroke="rgb(0,0,0)"  stroke-width="3"/>
<line x1="264.4" y1="394.6" x2="276.7" y2="432.4" opacity="1.0" stroke="rgb(0,0,0)"  stroke-width="3"/>
<line x1="124.0" y1="253.9" x2="107.4" y2="290.0" opacity="1.0" stroke="rgb(0,0,0)"  stroke-width="3"/>
<line x1="128.0" y1="262.3" x2="116.5" y2="287.5" opacity="1.0" stroke="rgb(0,0,0)"  stroke-width="3"/>
<line x1="107.4" y1="290.0" x2="130.5" y2="322.3" opacity="1.0" stroke="rgb(0,0,0)"  stroke-width="3"/>
<line x1="130.5" y1="322.3" x2="170.0" y2="318.6" opacity="1.0" stroke="rgb(0,0,0)"  stroke-width="3"/>
<line x1="135.8" y1="314.6" x2="163.4" y2="312.0" opacity="1.0" stroke="rgb(0,0,0)"  stroke-width="3"/>
<line x1="170.0" y1="318.6" x2="186.5" y2="282.5" opacity="1.0" stroke="rgb(0,0,0)"  stroke-width="3"/>
<line x1="163.5" y1="250.1" x2="124.0" y2="253.9" opacity="1.0" stroke="rgb(0,0,0)"  stroke-width="3"/>
<line x1="209.1" y1="153.0" x2="246.7" y2="165.6" opacity="1.0" stroke="rgb(0,0,0)"  stroke-width="3"/>
<line x1="246.7" y1="165.6" x2="254.6" y2="204.6" opacity="1.0" stroke="rgb(0,0,0)"  stroke-width="3"/>
<line x1="240.8" y1="172.9" x2="246.3" y2="200.1" opacity="1.0" stroke="rgb(0,0,0)"  stroke-width="3"/>
<line x1="187.2" y1="218.2" x2="179.3" y2="179.3" opacity="1.0" stroke="rgb(0,0,0)"  stroke-width="3"/>
<line x1="179.3" y1="179.3" x2="209.1" y2="153.0" opacity="1.0" stroke="rgb(0,0,0)"  stroke-width="3"/>
<line x1="188.5" y1="180.7" x2="209.3" y2="162.4" opacity="1.0" stroke="rgb(0,0,0)"  stroke-width="3"/>
<line x1="231.0" y1="87.8" x2="268.6" y2="100.4" opacity="1.0" stroke="rgb(0,0,0)"  stroke-width="3"/>
<line x1="268.6" y1="100.4" x2="276.5" y2="139.4" opacity="1.0" stroke="rgb(0,0,0)"  stroke-width="3"/>
<line x1="262.7" y1="107.7" x2="268.2" y2="134.9" opacity="1.0" stroke="rgb(0,0,0)"  stroke-width="3"/>
<line x1="276.5" y1="139.4" x2="246.7" y2="165.6" opacity="1.0" stroke="rgb(0,0,0)"  stroke-width="3"/>
<line x1="209.1" y1="153.0" x2="201.2" y2="114.1" opacity="1.0" stroke="rgb(0,0,0)"  stroke-width="3"/>
<line x1="201.2" y1="114.1" x2="231.0" y2="87.8" opacity="1.0" stroke="rgb(0,0,0)"  stroke-width="3"/>
<line x1="210.4" y1="115.5" x2="231.2" y2="97.1" opacity="1.0" stroke="rgb(0,0,0)"  stroke-width="3"/>
<line x1="342.1" y1="411.1" x2="381.8" y2="411.1" opacity="1.0" stroke="rgb(0,0,0)"  stroke-width="3"/>
<line x1="394.1" y1="373.3" x2="362.0" y2="350.0" opacity="1.0" stroke="rgb(0,0,0)"  stroke-width="3"/>
<line x1="362.0" y1="350.0" x2="329.9" y2="373.3" opacity="1.0" stroke="rgb(0,0,0)"  stroke-width="3"/>
<line x1="327.6" y1="330.1" x2="362.0" y2="350.0" opacity="1.0" stroke="rgb(0,0,0)"  stroke-width="3"/>
<line x1="362.0" y1="350.0" x2="396.4" y2="330.1" opacity="1.0" stroke="rgb(0,0,0)"  stroke-width="3"/>
<line x1="74.4" y1="362.2" x2="114.0" y2="358.5" opacity="1.0" stroke="rgb(0,0,0)"  stroke-width="3"/>
<line x1="114.0" y1="358.5" x2="130.5" y2="322.3" opacity="1.0" stroke="rgb(0,0,0)"  stroke-width="3"/>
<line x1="107.4" y1="290.0" x2="67.9" y2="293.7" opacity="1.0" stroke="rgb(0,0,0)"  stroke-width="3"/>
<line x1="67.9" y1="293.7" x2="51.4" y2="329.9" opacity="1.0" stroke="rgb(0,0,0)"  stroke-width="3"/>
<line x1="51.4" y1="329.9" x2="74.4" y2="362.2" opacity="1.0" stroke="rgb(0,0,0)"  stroke-width="3"/>
<text x="218.413641" y="278.555371" fill="rgb(12,12,255)" stroke-width="0" font-weight="bold" font-size="25.92" >N</text>
<text x="355.990660" y="278.555371" fill="rgb(12,12,255)" stroke-width="0" font-weight="bold" font-size="25.92" >N</text>
<text x="287.202199" y="238.840309" fill="rgb(255,181,181)" stroke-width="0" font-weight="bold" font-size="25.92" >B</text>
<text x="419.898983" y="152.693188" fill="rgb(12,12,255)" stroke-width="0" font-weight="bold" font-size="25.92" >N</text>
</svg>
</g>
</svg>
