<?xml version="1.0"?>
<svg version="1.1" id="topsvg"
xmlns="http://www.w3.org/2000/svg" xmlns:xlink="http://www.w3.org/1999/xlink"
xmlns:cml="http://www.xml-cml.org/schema" x="0" y="0" width="200px" height="200px" viewBox="0 0 100 100">
<title>GD203.sdf - Open Babel Depiction</title>
<rect x="0" y="0" width="100" height="100" fill="white"/>
<g transform="translate(0,0)">
<svg width="100" height="100" x="0" y="0" viewBox="0 0 593.162 561.658"
font-family="sans-serif" stroke="rgb(0,0,0)" stroke-width="3"  stroke-linecap="round">
<line x1="413.0" y1="293.2" x2="428.8" y2="330.0" opacity="1.0" stroke="rgb(0,0,0)"  stroke-width="3"/>
<line x1="473.4" y1="255.1" x2="433.5" y2="258.8" opacity="1.0" stroke="rgb(0,0,0)"  stroke-width="3"/>
<line x1="302.0" y1="361.5" x2="302.0" y2="401.5" opacity="1.0" stroke="rgb(0,0,0)"  stroke-width="3"/>
<line x1="236.2" y1="160.1" x2="236.2" y2="120.1" opacity="1.0" stroke="rgb(0,0,0)"  stroke-width="3"/>
<line x1="74.7" y1="283.2" x2="40.0" y2="263.2" opacity="1.0" stroke="rgb(0,0,0)"  stroke-width="3"/>
<line x1="74.7" y1="283.2" x2="74.7" y2="243.1" opacity="1.0" stroke="rgb(0,0,0)"  stroke-width="3"/>
<line x1="112.4" y1="353.0" x2="112.4" y2="393.1" opacity="1.0" stroke="rgb(0,0,0)"  stroke-width="3"/>
<line x1="112.4" y1="353.0" x2="147.1" y2="373.0" opacity="1.0" stroke="rgb(0,0,0)"  stroke-width="3"/>
<line x1="336.7" y1="461.6" x2="371.3" y2="481.6" opacity="1.0" stroke="rgb(0,0,0)"  stroke-width="3"/>
<line x1="371.3" y1="481.6" x2="406.0" y2="501.6" opacity="1.0" stroke="rgb(0,0,0)"  stroke-width="3"/>
<line x1="371.3" y1="481.6" x2="371.3" y2="521.7" opacity="1.0" stroke="rgb(0,0,0)"  stroke-width="3"/>
<line x1="371.3" y1="481.6" x2="406.0" y2="461.6" opacity="1.0" stroke="rgb(0,0,0)"  stroke-width="3"/>
<line x1="267.3" y1="461.6" x2="232.6" y2="481.6" opacity="1.0" stroke="rgb(0,0,0)"  stroke-width="3"/>
<line x1="232.6" y1="481.6" x2="198.0" y2="501.6" opacity="1.0" stroke="rgb(0,0,0)"  stroke-width="3"/>
<line x1="232.6" y1="481.6" x2="232.6" y2="521.7" opacity="1.0" stroke="rgb(0,0,0)"  stroke-width="3"/>
<line x1="232.6" y1="481.6" x2="198.0" y2="461.6" opacity="1.0" stroke="rgb(0,0,0)"  stroke-width="3"/>
<line x1="175.2" y1="250.6" x2="200.5" y2="219.6" opacity="1.0" stroke="rgb(0,0,0)"  stroke-width="3"/>
<line x1="200.5" y1="219.6" x2="234.9" y2="240.2" opacity="1.0" stroke="rgb(0,0,0)"  stroke-width="3"/>
<line x1="234.9" y1="240.2" x2="234.6" y2="267.2" opacity="1.0" stroke="rgb(0,0,0)"  stroke-width="3"/>
<line x1="221.6" y1="282.0" x2="194.8" y2="285.6" opacity="1.0" stroke="rgb(0,0,0)"  stroke-width="3"/>
<line x1="194.8" y1="285.6" x2="175.2" y2="250.6" opacity="1.0" stroke="rgb(0,0,0)"  stroke-width="3"/>
<line x1="198.1" y1="276.8" x2="184.4" y2="252.4" opacity="1.0" stroke="rgb(0,0,0)"  stroke-width="3"/>
<line x1="433.5" y1="258.8" x2="407.2" y2="228.6" opacity="1.0" stroke="rgb(0,0,0)"  stroke-width="3"/>
<line x1="407.2" y1="228.6" x2="370.4" y2="244.4" opacity="1.0" stroke="rgb(0,0,0)"  stroke-width="3"/>
<line x1="404.5" y1="237.6" x2="378.7" y2="248.7" opacity="1.0" stroke="rgb(0,0,0)"  stroke-width="3"/>
<line x1="370.4" y1="244.4" x2="372.8" y2="271.4" opacity="1.0" stroke="rgb(0,0,0)"  stroke-width="3"/>
<line x1="386.7" y1="287.2" x2="413.0" y2="293.2" opacity="1.0" stroke="rgb(0,0,0)"  stroke-width="3"/>
<line x1="413.0" y1="293.2" x2="433.5" y2="258.8" opacity="1.0" stroke="rgb(0,0,0)"  stroke-width="3"/>
<line x1="409.9" y1="284.3" x2="424.3" y2="260.2" opacity="1.0" stroke="rgb(0,0,0)"  stroke-width="3"/>
<line x1="267.9" y1="340.5" x2="302.0" y2="361.5" opacity="1.0" stroke="rgb(0,0,0)"  stroke-width="3"/>
<line x1="302.0" y1="361.5" x2="337.2" y2="342.4" opacity="1.0" stroke="rgb(0,0,0)"  stroke-width="3"/>
<line x1="303.8" y1="352.3" x2="328.5" y2="339.0" opacity="1.0" stroke="rgb(0,0,0)"  stroke-width="3"/>
<line x1="337.2" y1="342.4" x2="338.3" y2="302.4" opacity="1.0" stroke="rgb(0,0,0)"  stroke-width="3"/>
<line x1="338.3" y1="302.4" x2="304.2" y2="281.4" opacity="1.0" stroke="rgb(0,0,0)"  stroke-width="3"/>
<line x1="329.4" y1="305.4" x2="305.5" y2="290.7" opacity="1.0" stroke="rgb(0,0,0)"  stroke-width="3"/>
<line x1="304.2" y1="281.4" x2="269.0" y2="300.5" opacity="1.0" stroke="rgb(0,0,0)"  stroke-width="3"/>
<line x1="269.0" y1="300.5" x2="267.9" y2="340.5" opacity="1.0" stroke="rgb(0,0,0)"  stroke-width="3"/>
<line x1="276.0" y1="306.7" x2="275.2" y2="334.7" opacity="1.0" stroke="rgb(0,0,0)"  stroke-width="3"/>
<line x1="304.2" y1="254.4" x2="304.2" y2="281.4" opacity="1.0" stroke="rgb(0,0,0)"  stroke-width="3"/>
<line x1="269.0" y1="300.5" x2="245.6" y2="286.8" opacity="1.0" stroke="rgb(0,0,0)"  stroke-width="3"/>
<line x1="234.9" y1="240.2" x2="269.9" y2="220.7" opacity="1.0" stroke="rgb(0,0,0)"  stroke-width="3"/>
<line x1="243.7" y1="243.6" x2="268.2" y2="229.9" opacity="1.0" stroke="rgb(0,0,0)"  stroke-width="3"/>
<line x1="269.9" y1="220.7" x2="293.0" y2="234.7" opacity="1.0" stroke="rgb(0,0,0)"  stroke-width="3"/>
<line x1="370.4" y1="244.4" x2="338.3" y2="220.5" opacity="1.0" stroke="rgb(0,0,0)"  stroke-width="3"/>
<line x1="338.3" y1="220.5" x2="315.2" y2="234.6" opacity="1.0" stroke="rgb(0,0,0)"  stroke-width="3"/>
<line x1="338.3" y1="302.4" x2="362.4" y2="290.2" opacity="1.0" stroke="rgb(0,0,0)"  stroke-width="3"/>
<line x1="134.2" y1="319.4" x2="174.3" y2="320.0" opacity="1.0" stroke="rgb(0,0,0)"  stroke-width="3"/>
<line x1="140.3" y1="312.3" x2="168.4" y2="312.7" opacity="1.0" stroke="rgb(0,0,0)"  stroke-width="3"/>
<line x1="174.3" y1="320.0" x2="194.8" y2="285.6" opacity="1.0" stroke="rgb(0,0,0)"  stroke-width="3"/>
<line x1="175.2" y1="250.6" x2="135.2" y2="250.1" opacity="1.0" stroke="rgb(0,0,0)"  stroke-width="3"/>
<line x1="135.2" y1="250.1" x2="114.7" y2="284.5" opacity="1.0" stroke="rgb(0,0,0)"  stroke-width="3"/>
<line x1="138.3" y1="258.9" x2="123.9" y2="283.0" opacity="1.0" stroke="rgb(0,0,0)"  stroke-width="3"/>
<line x1="114.7" y1="284.5" x2="134.2" y2="319.4" opacity="1.0" stroke="rgb(0,0,0)"  stroke-width="3"/>
<line x1="379.8" y1="164.9" x2="343.0" y2="180.7" opacity="1.0" stroke="rgb(0,0,0)"  stroke-width="3"/>
<line x1="343.0" y1="180.7" x2="338.3" y2="220.5" opacity="1.0" stroke="rgb(0,0,0)"  stroke-width="3"/>
<line x1="349.5" y1="187.5" x2="346.1" y2="215.3" opacity="1.0" stroke="rgb(0,0,0)"  stroke-width="3"/>
<line x1="407.2" y1="228.6" x2="411.9" y2="188.9" opacity="1.0" stroke="rgb(0,0,0)"  stroke-width="3"/>
<line x1="411.9" y1="188.9" x2="379.8" y2="164.9" opacity="1.0" stroke="rgb(0,0,0)"  stroke-width="3"/>
<line x1="402.8" y1="191.1" x2="380.3" y2="174.3" opacity="1.0" stroke="rgb(0,0,0)"  stroke-width="3"/>
<line x1="200.5" y1="219.6" x2="201.2" y2="179.6" opacity="1.0" stroke="rgb(0,0,0)"  stroke-width="3"/>
<line x1="207.8" y1="213.7" x2="208.3" y2="185.7" opacity="1.0" stroke="rgb(0,0,0)"  stroke-width="3"/>
<line x1="201.2" y1="179.6" x2="236.2" y2="160.1" opacity="1.0" stroke="rgb(0,0,0)"  stroke-width="3"/>
<line x1="236.2" y1="160.1" x2="270.5" y2="180.7" opacity="1.0" stroke="rgb(0,0,0)"  stroke-width="3"/>
<line x1="237.6" y1="169.4" x2="261.7" y2="183.8" opacity="1.0" stroke="rgb(0,0,0)"  stroke-width="3"/>
<line x1="270.5" y1="180.7" x2="269.9" y2="220.7" opacity="1.0" stroke="rgb(0,0,0)"  stroke-width="3"/>
<line x1="315.7" y1="117.0" x2="352.5" y2="101.2" opacity="1.0" stroke="rgb(0,0,0)"  stroke-width="3"/>
<line x1="352.5" y1="101.2" x2="384.5" y2="125.1" opacity="1.0" stroke="rgb(0,0,0)"  stroke-width="3"/>
<line x1="353.0" y1="110.5" x2="375.4" y2="127.3" opacity="1.0" stroke="rgb(0,0,0)"  stroke-width="3"/>
<line x1="384.5" y1="125.1" x2="379.8" y2="164.9" opacity="1.0" stroke="rgb(0,0,0)"  stroke-width="3"/>
<line x1="343.0" y1="180.7" x2="310.9" y2="156.7" opacity="1.0" stroke="rgb(0,0,0)"  stroke-width="3"/>
<line x1="310.9" y1="156.7" x2="315.7" y2="117.0" opacity="1.0" stroke="rgb(0,0,0)"  stroke-width="3"/>
<line x1="318.8" y1="151.6" x2="322.1" y2="123.8" opacity="1.0" stroke="rgb(0,0,0)"  stroke-width="3"/>
<line x1="267.3" y1="421.6" x2="267.3" y2="461.6" opacity="1.0" stroke="rgb(0,0,0)"  stroke-width="3"/>
<line x1="267.3" y1="461.6" x2="302.0" y2="481.6" opacity="1.0" stroke="rgb(0,0,0)"  stroke-width="3"/>
<line x1="276.1" y1="458.4" x2="300.4" y2="472.4" opacity="1.0" stroke="rgb(0,0,0)"  stroke-width="3"/>
<line x1="302.0" y1="481.6" x2="336.7" y2="461.6" opacity="1.0" stroke="rgb(0,0,0)"  stroke-width="3"/>
<line x1="336.7" y1="461.6" x2="336.7" y2="421.6" opacity="1.0" stroke="rgb(0,0,0)"  stroke-width="3"/>
<line x1="329.5" y1="455.6" x2="329.5" y2="427.6" opacity="1.0" stroke="rgb(0,0,0)"  stroke-width="3"/>
<line x1="336.7" y1="421.6" x2="302.0" y2="401.5" opacity="1.0" stroke="rgb(0,0,0)"  stroke-width="3"/>
<line x1="302.0" y1="401.5" x2="267.3" y2="421.6" opacity="1.0" stroke="rgb(0,0,0)"  stroke-width="3"/>
<line x1="300.4" y1="410.8" x2="276.1" y2="424.8" opacity="1.0" stroke="rgb(0,0,0)"  stroke-width="3"/>
<line x1="270.8" y1="100.1" x2="270.8" y2="60.0" opacity="1.0" stroke="rgb(0,0,0)"  stroke-width="3"/>
<line x1="270.8" y1="60.0" x2="236.2" y2="40.0" opacity="1.0" stroke="rgb(0,0,0)"  stroke-width="3"/>
<line x1="262.0" y1="63.3" x2="237.7" y2="49.2" opacity="1.0" stroke="rgb(0,0,0)"  stroke-width="3"/>
<line x1="236.2" y1="40.0" x2="201.5" y2="60.0" opacity="1.0" stroke="rgb(0,0,0)"  stroke-width="3"/>
<line x1="201.5" y1="60.0" x2="201.5" y2="100.1" opacity="1.0" stroke="rgb(0,0,0)"  stroke-width="3"/>
<line x1="208.7" y1="66.0" x2="208.7" y2="94.1" opacity="1.0" stroke="rgb(0,0,0)"  stroke-width="3"/>
<line x1="201.5" y1="100.1" x2="236.2" y2="120.1" opacity="1.0" stroke="rgb(0,0,0)"  stroke-width="3"/>
<line x1="236.2" y1="120.1" x2="270.8" y2="100.1" opacity="1.0" stroke="rgb(0,0,0)"  stroke-width="3"/>
<line x1="237.7" y1="110.8" x2="262.0" y2="96.8" opacity="1.0" stroke="rgb(0,0,0)"  stroke-width="3"/>
<line x1="405.5" y1="362.5" x2="422.0" y2="399.0" opacity="1.0" stroke="rgb(0,0,0)"  stroke-width="3"/>
<line x1="422.0" y1="399.0" x2="461.6" y2="404.5" opacity="1.0" stroke="rgb(0,0,0)"  stroke-width="3"/>
<line x1="428.9" y1="392.7" x2="456.7" y2="396.5" opacity="1.0" stroke="rgb(0,0,0)"  stroke-width="3"/>
<line x1="461.6" y1="404.5" x2="484.7" y2="373.5" opacity="1.0" stroke="rgb(0,0,0)"  stroke-width="3"/>
<line x1="484.7" y1="373.5" x2="468.5" y2="335.4" opacity="1.0" stroke="rgb(0,0,0)"  stroke-width="3"/>
<line x1="475.8" y1="370.8" x2="464.2" y2="343.8" opacity="1.0" stroke="rgb(0,0,0)"  stroke-width="3"/>
<line x1="468.5" y1="335.4" x2="428.8" y2="330.0" opacity="1.0" stroke="rgb(0,0,0)"  stroke-width="3"/>
<line x1="428.8" y1="330.0" x2="405.5" y2="362.5" opacity="1.0" stroke="rgb(0,0,0)"  stroke-width="3"/>
<line x1="431.2" y1="339.0" x2="414.8" y2="361.8" opacity="1.0" stroke="rgb(0,0,0)"  stroke-width="3"/>
<line x1="497.5" y1="287.1" x2="537.3" y2="283.5" opacity="1.0" stroke="rgb(0,0,0)"  stroke-width="3"/>
<line x1="537.3" y1="283.5" x2="553.2" y2="247.8" opacity="1.0" stroke="rgb(0,0,0)"  stroke-width="3"/>
<line x1="533.2" y1="275.1" x2="544.1" y2="250.4" opacity="1.0" stroke="rgb(0,0,0)"  stroke-width="3"/>
<line x1="553.2" y1="247.8" x2="531.1" y2="215.6" opacity="1.0" stroke="rgb(0,0,0)"  stroke-width="3"/>
<line x1="531.1" y1="215.6" x2="491.3" y2="219.3" opacity="1.0" stroke="rgb(0,0,0)"  stroke-width="3"/>
<line x1="525.8" y1="223.3" x2="497.9" y2="225.9" opacity="1.0" stroke="rgb(0,0,0)"  stroke-width="3"/>
<line x1="491.3" y1="219.3" x2="473.4" y2="255.1" opacity="1.0" stroke="rgb(0,0,0)"  stroke-width="3"/>
<line x1="473.4" y1="255.1" x2="497.5" y2="287.1" opacity="1.0" stroke="rgb(0,0,0)"  stroke-width="3"/>
<line x1="482.8" y1="255.6" x2="499.6" y2="278.0" opacity="1.0" stroke="rgb(0,0,0)"  stroke-width="3"/>
<line x1="72.4" y1="351.7" x2="112.4" y2="353.0" opacity="1.0" stroke="rgb(0,0,0)"  stroke-width="3"/>
<line x1="112.4" y1="353.0" x2="134.2" y2="319.4" opacity="1.0" stroke="rgb(0,0,0)"  stroke-width="3"/>
<line x1="114.7" y1="284.5" x2="74.7" y2="283.2" opacity="1.0" stroke="rgb(0,0,0)"  stroke-width="3"/>
<line x1="74.7" y1="283.2" x2="54.2" y2="316.8" opacity="1.0" stroke="rgb(0,0,0)"  stroke-width="3"/>
<line x1="54.2" y1="316.8" x2="72.4" y2="351.7" opacity="1.0" stroke="rgb(0,0,0)"  stroke-width="3"/>
<text x="228.440667" y="288.229130" fill="rgb(12,12,255)" stroke-width="0" font-weight="bold" font-size="25.92" >N</text>
<text x="368.000652" y="292.297952" fill="rgb(12,12,255)" stroke-width="0" font-weight="bold" font-size="25.92" >N</text>
<text x="298.168864" y="249.406230" fill="rgb(255,181,181)" stroke-width="0" font-weight="bold" font-size="25.92" >B</text>
</svg>
</g>
</svg>
