<?xml version="1.0"?>
<svg version="1.1" id="topsvg"
xmlns="http://www.w3.org/2000/svg" xmlns:xlink="http://www.w3.org/1999/xlink"
xmlns:cml="http://www.xml-cml.org/schema" x="0" y="0" width="200px" height="200px" viewBox="0 0 100 100">
<title>GD205.sdf - Open Babel Depiction</title>
<rect x="0" y="0" width="100" height="100" fill="white"/>
<g transform="translate(0,0)">
<svg width="100" height="100" x="0" y="0" viewBox="0 0 525.045 576.771"
font-family="sans-serif" stroke="rgb(0,0,0)" stroke-width="3"  stroke-linecap="round">
<line x1="366.0" y1="127.8" x2="384.0" y2="107.7" opacity="1.0" stroke="rgb(0,0,0)"  stroke-width="3"/>
<line x1="296.4" y1="376.3" x2="296.4" y2="416.5" opacity="1.0" stroke="rgb(0,0,0)"  stroke-width="3"/>
<line x1="261.6" y1="476.6" x2="226.9" y2="496.7" opacity="1.0" stroke="rgb(0,0,0)"  stroke-width="3"/>
<line x1="331.1" y1="476.6" x2="365.8" y2="496.7" opacity="1.0" stroke="rgb(0,0,0)"  stroke-width="3"/>
<line x1="365.8" y1="496.7" x2="400.6" y2="476.6" opacity="1.0" stroke="rgb(0,0,0)"  stroke-width="3"/>
<line x1="365.8" y1="496.7" x2="365.8" y2="536.8" opacity="1.0" stroke="rgb(0,0,0)"  stroke-width="3"/>
<line x1="365.8" y1="496.7" x2="365.8" y2="456.6" opacity="1.0" stroke="rgb(0,0,0)"  stroke-width="3"/>
<line x1="226.9" y1="496.7" x2="192.2" y2="476.6" opacity="1.0" stroke="rgb(0,0,0)"  stroke-width="3"/>
<line x1="226.9" y1="496.7" x2="226.9" y2="536.8" opacity="1.0" stroke="rgb(0,0,0)"  stroke-width="3"/>
<line x1="226.9" y1="496.7" x2="226.9" y2="456.6" opacity="1.0" stroke="rgb(0,0,0)"  stroke-width="3"/>
<line x1="142.2" y1="185.1" x2="116.4" y2="193.4" opacity="1.0" stroke="rgb(0,0,0)"  stroke-width="3"/>
<line x1="165.6" y1="276.4" x2="189.1" y2="244.1" opacity="1.0" stroke="rgb(0,0,0)"  stroke-width="3"/>
<line x1="189.1" y1="244.1" x2="227.1" y2="256.4" opacity="1.0" stroke="rgb(0,0,0)"  stroke-width="3"/>
<line x1="227.1" y1="256.4" x2="227.1" y2="283.4" opacity="1.0" stroke="rgb(0,0,0)"  stroke-width="3"/>
<line x1="214.8" y1="300.4" x2="189.1" y2="308.8" opacity="1.0" stroke="rgb(0,0,0)"  stroke-width="3"/>
<line x1="189.1" y1="308.8" x2="165.6" y2="276.4" opacity="1.0" stroke="rgb(0,0,0)"  stroke-width="3"/>
<line x1="167.4" y1="143.0" x2="207.4" y2="143.0" opacity="1.0" stroke="rgb(0,0,0)"  stroke-width="3"/>
<line x1="173.4" y1="150.2" x2="201.4" y2="150.2" opacity="1.0" stroke="rgb(0,0,0)"  stroke-width="3"/>
<line x1="207.4" y1="143.0" x2="219.2" y2="181.2" opacity="1.0" stroke="rgb(0,0,0)"  stroke-width="3"/>
<line x1="219.2" y1="181.2" x2="186.6" y2="204.2" opacity="1.0" stroke="rgb(0,0,0)"  stroke-width="3"/>
<line x1="186.6" y1="204.2" x2="165.1" y2="188.8" opacity="1.0" stroke="rgb(0,0,0)"  stroke-width="3"/>
<line x1="158.7" y1="168.8" x2="167.4" y2="143.0" opacity="1.0" stroke="rgb(0,0,0)"  stroke-width="3"/>
<line x1="425.1" y1="267.7" x2="405.1" y2="302.3" opacity="1.0" stroke="rgb(0,0,0)"  stroke-width="3"/>
<line x1="415.9" y1="269.3" x2="401.9" y2="293.5" opacity="1.0" stroke="rgb(0,0,0)"  stroke-width="3"/>
<line x1="405.1" y1="302.3" x2="378.4" y2="298.3" opacity="1.0" stroke="rgb(0,0,0)"  stroke-width="3"/>
<line x1="365.6" y1="283.4" x2="365.6" y2="256.4" opacity="1.0" stroke="rgb(0,0,0)"  stroke-width="3"/>
<line x1="365.6" y1="256.4" x2="400.2" y2="236.5" opacity="1.0" stroke="rgb(0,0,0)"  stroke-width="3"/>
<line x1="374.4" y1="259.7" x2="398.6" y2="245.7" opacity="1.0" stroke="rgb(0,0,0)"  stroke-width="3"/>
<line x1="400.2" y1="236.5" x2="425.1" y2="267.7" opacity="1.0" stroke="rgb(0,0,0)"  stroke-width="3"/>
<line x1="317.5" y1="133.2" x2="344.3" y2="136.1" opacity="1.0" stroke="rgb(0,0,0)"  stroke-width="3"/>
<line x1="360.0" y1="150.1" x2="365.6" y2="176.5" opacity="1.0" stroke="rgb(0,0,0)"  stroke-width="3"/>
<line x1="365.6" y1="176.5" x2="331.0" y2="196.5" opacity="1.0" stroke="rgb(0,0,0)"  stroke-width="3"/>
<line x1="331.0" y1="196.5" x2="301.3" y2="169.7" opacity="1.0" stroke="rgb(0,0,0)"  stroke-width="3"/>
<line x1="301.3" y1="169.7" x2="317.5" y2="133.2" opacity="1.0" stroke="rgb(0,0,0)"  stroke-width="3"/>
<line x1="310.3" y1="167.2" x2="321.7" y2="141.6" opacity="1.0" stroke="rgb(0,0,0)"  stroke-width="3"/>
<line x1="261.7" y1="356.4" x2="296.4" y2="376.3" opacity="1.0" stroke="rgb(0,0,0)"  stroke-width="3"/>
<line x1="296.4" y1="376.3" x2="331.0" y2="356.4" opacity="1.0" stroke="rgb(0,0,0)"  stroke-width="3"/>
<line x1="298.0" y1="367.1" x2="322.2" y2="353.1" opacity="1.0" stroke="rgb(0,0,0)"  stroke-width="3"/>
<line x1="331.0" y1="356.4" x2="331.0" y2="316.4" opacity="1.0" stroke="rgb(0,0,0)"  stroke-width="3"/>
<line x1="331.0" y1="316.4" x2="296.4" y2="296.4" opacity="1.0" stroke="rgb(0,0,0)"  stroke-width="3"/>
<line x1="322.2" y1="319.6" x2="298.0" y2="305.6" opacity="1.0" stroke="rgb(0,0,0)"  stroke-width="3"/>
<line x1="296.4" y1="296.4" x2="261.7" y2="316.4" opacity="1.0" stroke="rgb(0,0,0)"  stroke-width="3"/>
<line x1="261.7" y1="316.4" x2="261.7" y2="356.4" opacity="1.0" stroke="rgb(0,0,0)"  stroke-width="3"/>
<line x1="268.9" y1="322.4" x2="268.9" y2="350.4" opacity="1.0" stroke="rgb(0,0,0)"  stroke-width="3"/>
<line x1="227.1" y1="256.4" x2="261.7" y2="236.5" opacity="1.0" stroke="rgb(0,0,0)"  stroke-width="3"/>
<line x1="235.9" y1="259.7" x2="260.1" y2="245.7" opacity="1.0" stroke="rgb(0,0,0)"  stroke-width="3"/>
<line x1="261.7" y1="236.5" x2="285.1" y2="249.9" opacity="1.0" stroke="rgb(0,0,0)"  stroke-width="3"/>
<line x1="296.4" y1="269.4" x2="296.4" y2="296.4" opacity="1.0" stroke="rgb(0,0,0)"  stroke-width="3"/>
<line x1="261.7" y1="316.4" x2="238.4" y2="302.9" opacity="1.0" stroke="rgb(0,0,0)"  stroke-width="3"/>
<line x1="219.2" y1="181.2" x2="256.0" y2="196.9" opacity="1.0" stroke="rgb(0,0,0)"  stroke-width="3"/>
<line x1="221.9" y1="190.1" x2="247.6" y2="201.2" opacity="1.0" stroke="rgb(0,0,0)"  stroke-width="3"/>
<line x1="256.0" y1="196.9" x2="261.7" y2="236.5" opacity="1.0" stroke="rgb(0,0,0)"  stroke-width="3"/>
<line x1="189.1" y1="244.1" x2="186.6" y2="204.2" opacity="1.0" stroke="rgb(0,0,0)"  stroke-width="3"/>
<line x1="195.9" y1="237.6" x2="194.1" y2="209.7" opacity="1.0" stroke="rgb(0,0,0)"  stroke-width="3"/>
<line x1="167.4" y1="73.8" x2="207.4" y2="73.8" opacity="1.0" stroke="rgb(0,0,0)"  stroke-width="3"/>
<line x1="207.4" y1="73.8" x2="227.4" y2="108.4" opacity="1.0" stroke="rgb(0,0,0)"  stroke-width="3"/>
<line x1="204.1" y1="82.6" x2="218.1" y2="106.8" opacity="1.0" stroke="rgb(0,0,0)"  stroke-width="3"/>
<line x1="227.4" y1="108.4" x2="207.4" y2="143.0" opacity="1.0" stroke="rgb(0,0,0)"  stroke-width="3"/>
<line x1="167.4" y1="143.0" x2="147.4" y2="108.4" opacity="1.0" stroke="rgb(0,0,0)"  stroke-width="3"/>
<line x1="147.4" y1="108.4" x2="167.4" y2="73.8" opacity="1.0" stroke="rgb(0,0,0)"  stroke-width="3"/>
<line x1="156.7" y1="106.8" x2="170.7" y2="82.6" opacity="1.0" stroke="rgb(0,0,0)"  stroke-width="3"/>
<line x1="354.3" y1="302.9" x2="331.0" y2="316.4" opacity="1.0" stroke="rgb(0,0,0)"  stroke-width="3"/>
<line x1="307.6" y1="249.9" x2="331.0" y2="236.5" opacity="1.0" stroke="rgb(0,0,0)"  stroke-width="3"/>
<line x1="331.0" y1="236.5" x2="365.6" y2="256.4" opacity="1.0" stroke="rgb(0,0,0)"  stroke-width="3"/>
<line x1="485.0" y1="302.3" x2="465.1" y2="337.0" opacity="1.0" stroke="rgb(0,0,0)"  stroke-width="3"/>
<line x1="465.1" y1="337.0" x2="425.1" y2="337.0" opacity="1.0" stroke="rgb(0,0,0)"  stroke-width="3"/>
<line x1="459.1" y1="329.8" x2="431.1" y2="329.8" opacity="1.0" stroke="rgb(0,0,0)"  stroke-width="3"/>
<line x1="425.1" y1="337.0" x2="405.1" y2="302.3" opacity="1.0" stroke="rgb(0,0,0)"  stroke-width="3"/>
<line x1="425.1" y1="267.7" x2="465.1" y2="267.7" opacity="1.0" stroke="rgb(0,0,0)"  stroke-width="3"/>
<line x1="465.1" y1="267.7" x2="485.0" y2="302.3" opacity="1.0" stroke="rgb(0,0,0)"  stroke-width="3"/>
<line x1="461.8" y1="276.5" x2="475.8" y2="300.7" opacity="1.0" stroke="rgb(0,0,0)"  stroke-width="3"/>
<line x1="172.9" y1="345.3" x2="189.1" y2="308.8" opacity="1.0" stroke="rgb(0,0,0)"  stroke-width="3"/>
<line x1="168.7" y1="336.9" x2="180.1" y2="311.3" opacity="1.0" stroke="rgb(0,0,0)"  stroke-width="3"/>
<line x1="165.6" y1="276.4" x2="125.9" y2="280.6" opacity="1.0" stroke="rgb(0,0,0)"  stroke-width="3"/>
<line x1="160.4" y1="284.2" x2="132.6" y2="287.1" opacity="1.0" stroke="rgb(0,0,0)"  stroke-width="3"/>
<line x1="125.9" y1="280.6" x2="109.6" y2="317.1" opacity="1.0" stroke="rgb(0,0,0)"  stroke-width="3"/>
<line x1="109.6" y1="317.1" x2="133.1" y2="349.5" opacity="1.0" stroke="rgb(0,0,0)"  stroke-width="3"/>
<line x1="119.0" y1="317.7" x2="135.4" y2="340.4" opacity="1.0" stroke="rgb(0,0,0)"  stroke-width="3"/>
<line x1="133.1" y1="349.5" x2="172.9" y2="345.3" opacity="1.0" stroke="rgb(0,0,0)"  stroke-width="3"/>
<line x1="331.0" y1="196.5" x2="331.0" y2="236.5" opacity="1.0" stroke="rgb(0,0,0)"  stroke-width="3"/>
<line x1="338.2" y1="202.5" x2="338.2" y2="230.5" opacity="1.0" stroke="rgb(0,0,0)"  stroke-width="3"/>
<line x1="400.2" y1="236.5" x2="400.2" y2="196.5" opacity="1.0" stroke="rgb(0,0,0)"  stroke-width="3"/>
<line x1="400.2" y1="196.5" x2="365.6" y2="176.5" opacity="1.0" stroke="rgb(0,0,0)"  stroke-width="3"/>
<line x1="391.4" y1="199.7" x2="367.2" y2="185.7" opacity="1.0" stroke="rgb(0,0,0)"  stroke-width="3"/>
<line x1="238.0" y1="141.6" x2="261.5" y2="173.9" opacity="1.0" stroke="rgb(0,0,0)"  stroke-width="3"/>
<line x1="247.4" y1="142.2" x2="263.8" y2="164.8" opacity="1.0" stroke="rgb(0,0,0)"  stroke-width="3"/>
<line x1="261.5" y1="173.9" x2="301.3" y2="169.7" opacity="1.0" stroke="rgb(0,0,0)"  stroke-width="3"/>
<line x1="317.5" y1="133.2" x2="294.0" y2="100.9" opacity="1.0" stroke="rgb(0,0,0)"  stroke-width="3"/>
<line x1="294.0" y1="100.9" x2="254.3" y2="105.1" opacity="1.0" stroke="rgb(0,0,0)"  stroke-width="3"/>
<line x1="288.8" y1="108.7" x2="261.0" y2="111.6" opacity="1.0" stroke="rgb(0,0,0)"  stroke-width="3"/>
<line x1="254.3" y1="105.1" x2="238.0" y2="141.6" opacity="1.0" stroke="rgb(0,0,0)"  stroke-width="3"/>
<line x1="423.1" y1="116.0" x2="449.9" y2="86.3" opacity="1.0" stroke="rgb(0,0,0)"  stroke-width="3"/>
<line x1="449.9" y1="86.3" x2="437.5" y2="48.3" opacity="1.0" stroke="rgb(0,0,0)"  stroke-width="3"/>
<line x1="441.2" y1="82.8" x2="432.5" y2="56.2" opacity="1.0" stroke="rgb(0,0,0)"  stroke-width="3"/>
<line x1="437.5" y1="48.3" x2="398.4" y2="40.0" opacity="1.0" stroke="rgb(0,0,0)"  stroke-width="3"/>
<line x1="398.4" y1="40.0" x2="371.7" y2="69.7" opacity="1.0" stroke="rgb(0,0,0)"  stroke-width="3"/>
<line x1="399.7" y1="49.3" x2="381.0" y2="70.1" opacity="1.0" stroke="rgb(0,0,0)"  stroke-width="3"/>
<line x1="371.7" y1="69.7" x2="384.0" y2="107.7" opacity="1.0" stroke="rgb(0,0,0)"  stroke-width="3"/>
<line x1="384.0" y1="107.7" x2="423.1" y2="116.0" opacity="1.0" stroke="rgb(0,0,0)"  stroke-width="3"/>
<line x1="391.4" y1="101.9" x2="418.7" y2="107.7" opacity="1.0" stroke="rgb(0,0,0)"  stroke-width="3"/>
<line x1="261.6" y1="436.5" x2="261.6" y2="476.6" opacity="1.0" stroke="rgb(0,0,0)"  stroke-width="3"/>
<line x1="261.6" y1="476.6" x2="296.4" y2="496.7" opacity="1.0" stroke="rgb(0,0,0)"  stroke-width="3"/>
<line x1="270.4" y1="473.4" x2="294.8" y2="487.4" opacity="1.0" stroke="rgb(0,0,0)"  stroke-width="3"/>
<line x1="296.4" y1="496.7" x2="331.1" y2="476.6" opacity="1.0" stroke="rgb(0,0,0)"  stroke-width="3"/>
<line x1="331.1" y1="476.6" x2="331.1" y2="436.5" opacity="1.0" stroke="rgb(0,0,0)"  stroke-width="3"/>
<line x1="323.9" y1="470.6" x2="323.9" y2="442.5" opacity="1.0" stroke="rgb(0,0,0)"  stroke-width="3"/>
<line x1="331.1" y1="436.5" x2="296.4" y2="416.5" opacity="1.0" stroke="rgb(0,0,0)"  stroke-width="3"/>
<line x1="296.4" y1="416.5" x2="261.6" y2="436.5" opacity="1.0" stroke="rgb(0,0,0)"  stroke-width="3"/>
<line x1="294.8" y1="425.7" x2="270.4" y2="439.7" opacity="1.0" stroke="rgb(0,0,0)"  stroke-width="3"/>
<line x1="86.7" y1="166.5" x2="48.5" y2="178.8" opacity="1.0" stroke="rgb(0,0,0)"  stroke-width="3"/>
<line x1="48.5" y1="178.8" x2="40.0" y2="218.0" opacity="1.0" stroke="rgb(0,0,0)"  stroke-width="3"/>
<line x1="54.2" y1="186.1" x2="48.3" y2="213.6" opacity="1.0" stroke="rgb(0,0,0)"  stroke-width="3"/>
<line x1="40.0" y1="218.0" x2="69.7" y2="244.9" opacity="1.0" stroke="rgb(0,0,0)"  stroke-width="3"/>
<line x1="69.7" y1="244.9" x2="107.9" y2="232.6" opacity="1.0" stroke="rgb(0,0,0)"  stroke-width="3"/>
<line x1="73.2" y1="236.2" x2="100.0" y2="227.6" opacity="1.0" stroke="rgb(0,0,0)"  stroke-width="3"/>
<line x1="107.9" y1="232.6" x2="116.4" y2="193.4" opacity="1.0" stroke="rgb(0,0,0)"  stroke-width="3"/>
<line x1="116.4" y1="193.4" x2="86.7" y2="166.5" opacity="1.0" stroke="rgb(0,0,0)"  stroke-width="3"/>
<line x1="107.1" y1="194.7" x2="86.3" y2="175.8" opacity="1.0" stroke="rgb(0,0,0)"  stroke-width="3"/>
<text x="148.555000" y="189.156746" fill="rgb(12,12,255)" stroke-width="0" font-weight="bold" font-size="25.92" >N</text>
<text x="359.585238" y="304.411758" fill="rgb(12,12,255)" stroke-width="0" font-weight="bold" font-size="25.92" >N</text>
<text x="221.131402" y="304.411758" fill="rgb(12,12,255)" stroke-width="0" font-weight="bold" font-size="25.92" >N</text>
<text x="351.272208" y="145.413512" fill="rgb(12,12,255)" stroke-width="0" font-weight="bold" font-size="25.92" >N</text>
<text x="290.358320" y="264.440999" fill="rgb(255,181,181)" stroke-width="0" font-weight="bold" font-size="25.92" >B</text>
</svg>
</g>
</svg>
