<?xml version="1.0"?>
<svg version="1.1" id="topsvg"
xmlns="http://www.w3.org/2000/svg" xmlns:xlink="http://www.w3.org/1999/xlink"
xmlns:cml="http://www.xml-cml.org/schema" x="0" y="0" width="200px" height="200px" viewBox="0 0 100 100">
<title>GD213.sdf - Open Babel Depiction</title>
<rect x="0" y="0" width="100" height="100" fill="white"/>
<g transform="translate(0,0)">
<svg width="100" height="100" x="0" y="0" viewBox="0 0 623.277 581.152"
font-family="sans-serif" stroke="rgb(0,0,0)" stroke-width="3"  stroke-linecap="round">
<line x1="209.8" y1="236.0" x2="209.8" y2="185.1" opacity="1.0" stroke="rgb(0,0,0)"  stroke-width="3"/>
<line x1="209.8" y1="185.1" x2="243.7" y2="165.5" opacity="1.0" stroke="rgb(0,0,0)"  stroke-width="3"/>
<line x1="209.8" y1="185.1" x2="175.8" y2="165.5" opacity="1.0" stroke="rgb(0,0,0)"  stroke-width="3"/>
<line x1="209.8" y1="185.1" x2="209.8" y2="145.9" opacity="1.0" stroke="rgb(0,0,0)"  stroke-width="3"/>
<line x1="107.9" y1="412.5" x2="74.0" y2="432.1" opacity="1.0" stroke="rgb(0,0,0)"  stroke-width="3"/>
<line x1="74.0" y1="432.1" x2="40.0" y2="451.7" opacity="1.0" stroke="rgb(0,0,0)"  stroke-width="3"/>
<line x1="74.0" y1="432.1" x2="40.0" y2="412.5" opacity="1.0" stroke="rgb(0,0,0)"  stroke-width="3"/>
<line x1="74.0" y1="432.1" x2="74.0" y2="471.3" opacity="1.0" stroke="rgb(0,0,0)"  stroke-width="3"/>
<line x1="515.4" y1="294.8" x2="549.3" y2="314.5" opacity="1.0" stroke="rgb(0,0,0)"  stroke-width="3"/>
<line x1="549.3" y1="314.5" x2="549.3" y2="353.7" opacity="1.0" stroke="rgb(0,0,0)"  stroke-width="3"/>
<line x1="549.3" y1="314.5" x2="583.3" y2="294.8" opacity="1.0" stroke="rgb(0,0,0)"  stroke-width="3"/>
<line x1="549.3" y1="314.5" x2="583.3" y2="334.1" opacity="1.0" stroke="rgb(0,0,0)"  stroke-width="3"/>
<line x1="413.5" y1="118.4" x2="413.5" y2="79.2" opacity="1.0" stroke="rgb(0,0,0)"  stroke-width="3"/>
<line x1="413.5" y1="79.2" x2="413.5" y2="40.0" opacity="1.0" stroke="rgb(0,0,0)"  stroke-width="3"/>
<line x1="413.5" y1="79.2" x2="447.5" y2="59.6" opacity="1.0" stroke="rgb(0,0,0)"  stroke-width="3"/>
<line x1="413.5" y1="79.2" x2="379.5" y2="59.6" opacity="1.0" stroke="rgb(0,0,0)"  stroke-width="3"/>
<line x1="481.4" y1="432.1" x2="520.6" y2="432.1" opacity="1.0" stroke="rgb(0,0,0)"  stroke-width="3"/>
<line x1="481.4" y1="432.1" x2="501.0" y2="398.1" opacity="1.0" stroke="rgb(0,0,0)"  stroke-width="3"/>
<line x1="413.5" y1="471.3" x2="374.3" y2="471.3" opacity="1.0" stroke="rgb(0,0,0)"  stroke-width="3"/>
<line x1="413.5" y1="471.3" x2="393.9" y2="505.2" opacity="1.0" stroke="rgb(0,0,0)"  stroke-width="3"/>
<line x1="141.9" y1="353.7" x2="175.8" y2="294.8" opacity="1.0" stroke="rgb(0,0,0)"  stroke-width="3"/>
<line x1="175.8" y1="294.8" x2="209.8" y2="314.5" opacity="1.0" stroke="rgb(0,0,0)"  stroke-width="3"/>
<line x1="177.4" y1="304.1" x2="201.0" y2="317.7" opacity="1.0" stroke="rgb(0,0,0)"  stroke-width="3"/>
<line x1="209.8" y1="314.5" x2="209.8" y2="340.7" opacity="1.0" stroke="rgb(0,0,0)"  stroke-width="3"/>
<line x1="198.5" y1="360.2" x2="175.8" y2="373.3" opacity="1.0" stroke="rgb(0,0,0)"  stroke-width="3"/>
<line x1="175.8" y1="373.3" x2="141.9" y2="353.7" opacity="1.0" stroke="rgb(0,0,0)"  stroke-width="3"/>
<line x1="174.2" y1="364.0" x2="150.7" y2="350.4" opacity="1.0" stroke="rgb(0,0,0)"  stroke-width="3"/>
<line x1="447.5" y1="177.2" x2="481.4" y2="236.0" opacity="1.0" stroke="rgb(0,0,0)"  stroke-width="3"/>
<line x1="481.4" y1="236.0" x2="447.5" y2="255.6" opacity="1.0" stroke="rgb(0,0,0)"  stroke-width="3"/>
<line x1="472.6" y1="232.8" x2="449.1" y2="246.4" opacity="1.0" stroke="rgb(0,0,0)"  stroke-width="3"/>
<line x1="447.5" y1="255.6" x2="424.8" y2="242.5" opacity="1.0" stroke="rgb(0,0,0)"  stroke-width="3"/>
<line x1="413.5" y1="223.0" x2="413.5" y2="196.8" opacity="1.0" stroke="rgb(0,0,0)"  stroke-width="3"/>
<line x1="413.5" y1="196.8" x2="447.5" y2="177.2" opacity="1.0" stroke="rgb(0,0,0)"  stroke-width="3"/>
<line x1="422.3" y1="200.1" x2="445.9" y2="186.5" opacity="1.0" stroke="rgb(0,0,0)"  stroke-width="3"/>
<line x1="243.7" y1="412.5" x2="277.7" y2="432.1" opacity="1.0" stroke="rgb(0,0,0)"  stroke-width="3"/>
<line x1="277.7" y1="432.1" x2="311.6" y2="412.5" opacity="1.0" stroke="rgb(0,0,0)"  stroke-width="3"/>
<line x1="279.3" y1="422.8" x2="302.8" y2="409.2" opacity="1.0" stroke="rgb(0,0,0)"  stroke-width="3"/>
<line x1="311.6" y1="412.5" x2="311.6" y2="373.3" opacity="1.0" stroke="rgb(0,0,0)"  stroke-width="3"/>
<line x1="311.6" y1="373.3" x2="277.7" y2="353.7" opacity="1.0" stroke="rgb(0,0,0)"  stroke-width="3"/>
<line x1="302.8" y1="376.5" x2="279.3" y2="362.9" opacity="1.0" stroke="rgb(0,0,0)"  stroke-width="3"/>
<line x1="277.7" y1="353.7" x2="243.7" y2="373.3" opacity="1.0" stroke="rgb(0,0,0)"  stroke-width="3"/>
<line x1="243.7" y1="373.3" x2="243.7" y2="412.5" opacity="1.0" stroke="rgb(0,0,0)"  stroke-width="3"/>
<line x1="250.9" y1="379.3" x2="250.9" y2="406.5" opacity="1.0" stroke="rgb(0,0,0)"  stroke-width="3"/>
<line x1="209.8" y1="314.5" x2="243.7" y2="294.8" opacity="1.0" stroke="rgb(0,0,0)"  stroke-width="3"/>
<line x1="243.7" y1="294.8" x2="266.4" y2="308.0" opacity="1.0" stroke="rgb(0,0,0)"  stroke-width="3"/>
<line x1="277.7" y1="327.5" x2="277.7" y2="353.7" opacity="1.0" stroke="rgb(0,0,0)"  stroke-width="3"/>
<line x1="243.7" y1="373.3" x2="221.0" y2="360.2" opacity="1.0" stroke="rgb(0,0,0)"  stroke-width="3"/>
<line x1="107.9" y1="412.5" x2="141.9" y2="432.1" opacity="1.0" stroke="rgb(0,0,0)"  stroke-width="3"/>
<line x1="141.9" y1="432.1" x2="175.8" y2="412.5" opacity="1.0" stroke="rgb(0,0,0)"  stroke-width="3"/>
<line x1="143.5" y1="422.8" x2="167.0" y2="409.2" opacity="1.0" stroke="rgb(0,0,0)"  stroke-width="3"/>
<line x1="175.8" y1="412.5" x2="175.8" y2="373.3" opacity="1.0" stroke="rgb(0,0,0)"  stroke-width="3"/>
<line x1="141.9" y1="353.7" x2="107.9" y2="373.3" opacity="1.0" stroke="rgb(0,0,0)"  stroke-width="3"/>
<line x1="107.9" y1="373.3" x2="107.9" y2="412.5" opacity="1.0" stroke="rgb(0,0,0)"  stroke-width="3"/>
<line x1="115.1" y1="379.3" x2="115.1" y2="406.5" opacity="1.0" stroke="rgb(0,0,0)"  stroke-width="3"/>
<line x1="345.6" y1="314.5" x2="345.6" y2="340.7" opacity="1.0" stroke="rgb(0,0,0)"  stroke-width="3"/>
<line x1="334.3" y1="360.2" x2="311.6" y2="373.3" opacity="1.0" stroke="rgb(0,0,0)"  stroke-width="3"/>
<line x1="288.9" y1="308.0" x2="311.6" y2="294.8" opacity="1.0" stroke="rgb(0,0,0)"  stroke-width="3"/>
<line x1="311.6" y1="294.8" x2="345.6" y2="314.5" opacity="1.0" stroke="rgb(0,0,0)"  stroke-width="3"/>
<line x1="413.5" y1="327.5" x2="413.5" y2="353.7" opacity="1.0" stroke="rgb(0,0,0)"  stroke-width="3"/>
<line x1="413.5" y1="353.7" x2="379.5" y2="373.3" opacity="1.0" stroke="rgb(0,0,0)"  stroke-width="3"/>
<line x1="379.5" y1="373.3" x2="356.9" y2="360.2" opacity="1.0" stroke="rgb(0,0,0)"  stroke-width="3"/>
<line x1="345.6" y1="314.5" x2="379.5" y2="294.8" opacity="1.0" stroke="rgb(0,0,0)"  stroke-width="3"/>
<line x1="354.4" y1="317.7" x2="378.0" y2="304.1" opacity="1.0" stroke="rgb(0,0,0)"  stroke-width="3"/>
<line x1="379.5" y1="294.8" x2="402.2" y2="308.0" opacity="1.0" stroke="rgb(0,0,0)"  stroke-width="3"/>
<line x1="175.8" y1="294.8" x2="175.8" y2="255.6" opacity="1.0" stroke="rgb(0,0,0)"  stroke-width="3"/>
<line x1="175.8" y1="255.6" x2="209.8" y2="236.0" opacity="1.0" stroke="rgb(0,0,0)"  stroke-width="3"/>
<line x1="184.6" y1="258.9" x2="208.2" y2="245.3" opacity="1.0" stroke="rgb(0,0,0)"  stroke-width="3"/>
<line x1="209.8" y1="236.0" x2="243.7" y2="255.6" opacity="1.0" stroke="rgb(0,0,0)"  stroke-width="3"/>
<line x1="243.7" y1="255.6" x2="243.7" y2="294.8" opacity="1.0" stroke="rgb(0,0,0)"  stroke-width="3"/>
<line x1="236.5" y1="261.6" x2="236.5" y2="288.8" opacity="1.0" stroke="rgb(0,0,0)"  stroke-width="3"/>
<line x1="306.1" y1="495.7" x2="279.8" y2="466.6" opacity="1.0" stroke="rgb(0,0,0)"  stroke-width="3"/>
<line x1="296.7" y1="496.1" x2="278.5" y2="475.9" opacity="1.0" stroke="rgb(0,0,0)"  stroke-width="3"/>
<line x1="279.8" y1="466.6" x2="241.5" y2="474.7" opacity="1.0" stroke="rgb(0,0,0)"  stroke-width="3"/>
<line x1="241.5" y1="474.7" x2="229.4" y2="512.0" opacity="1.0" stroke="rgb(0,0,0)"  stroke-width="3"/>
<line x1="246.5" y1="482.7" x2="238.1" y2="508.5" opacity="1.0" stroke="rgb(0,0,0)"  stroke-width="3"/>
<line x1="229.4" y1="512.0" x2="255.6" y2="541.2" opacity="1.0" stroke="rgb(0,0,0)"  stroke-width="3"/>
<line x1="255.6" y1="541.2" x2="294.0" y2="533.0" opacity="1.0" stroke="rgb(0,0,0)"  stroke-width="3"/>
<line x1="260.0" y1="532.9" x2="286.6" y2="527.2" opacity="1.0" stroke="rgb(0,0,0)"  stroke-width="3"/>
<line x1="294.0" y1="533.0" x2="306.1" y2="495.7" opacity="1.0" stroke="rgb(0,0,0)"  stroke-width="3"/>
<line x1="125.6" y1="533.0" x2="163.9" y2="541.2" opacity="1.0" stroke="rgb(0,0,0)"  stroke-width="3"/>
<line x1="133.0" y1="527.2" x2="159.6" y2="532.9" opacity="1.0" stroke="rgb(0,0,0)"  stroke-width="3"/>
<line x1="163.9" y1="541.2" x2="190.2" y2="512.0" opacity="1.0" stroke="rgb(0,0,0)"  stroke-width="3"/>
<line x1="190.2" y1="512.0" x2="178.1" y2="474.7" opacity="1.0" stroke="rgb(0,0,0)"  stroke-width="3"/>
<line x1="181.5" y1="508.5" x2="173.1" y2="482.7" opacity="1.0" stroke="rgb(0,0,0)"  stroke-width="3"/>
<line x1="178.1" y1="474.7" x2="139.7" y2="466.6" opacity="1.0" stroke="rgb(0,0,0)"  stroke-width="3"/>
<line x1="139.7" y1="466.6" x2="113.5" y2="495.7" opacity="1.0" stroke="rgb(0,0,0)"  stroke-width="3"/>
<line x1="141.0" y1="475.9" x2="122.8" y2="496.1" opacity="1.0" stroke="rgb(0,0,0)"  stroke-width="3"/>
<line x1="113.5" y1="495.7" x2="125.6" y2="533.0" opacity="1.0" stroke="rgb(0,0,0)"  stroke-width="3"/>
<line x1="447.5" y1="412.5" x2="447.5" y2="373.3" opacity="1.0" stroke="rgb(0,0,0)"  stroke-width="3"/>
<line x1="447.5" y1="373.3" x2="413.5" y2="353.7" opacity="1.0" stroke="rgb(0,0,0)"  stroke-width="3"/>
<line x1="438.7" y1="376.5" x2="415.1" y2="362.9" opacity="1.0" stroke="rgb(0,0,0)"  stroke-width="3"/>
<line x1="379.5" y1="373.3" x2="379.5" y2="412.5" opacity="1.0" stroke="rgb(0,0,0)"  stroke-width="3"/>
<line x1="386.7" y1="379.3" x2="386.7" y2="406.5" opacity="1.0" stroke="rgb(0,0,0)"  stroke-width="3"/>
<line x1="379.5" y1="412.5" x2="413.5" y2="432.1" opacity="1.0" stroke="rgb(0,0,0)"  stroke-width="3"/>
<line x1="413.5" y1="432.1" x2="447.5" y2="412.5" opacity="1.0" stroke="rgb(0,0,0)"  stroke-width="3"/>
<line x1="415.1" y1="422.8" x2="438.7" y2="409.2" opacity="1.0" stroke="rgb(0,0,0)"  stroke-width="3"/>
<line x1="379.5" y1="255.6" x2="345.6" y2="236.0" opacity="1.0" stroke="rgb(0,0,0)"  stroke-width="3"/>
<line x1="370.8" y1="258.9" x2="347.2" y2="245.3" opacity="1.0" stroke="rgb(0,0,0)"  stroke-width="3"/>
<line x1="345.6" y1="236.0" x2="311.6" y2="255.6" opacity="1.0" stroke="rgb(0,0,0)"  stroke-width="3"/>
<line x1="311.6" y1="255.6" x2="311.6" y2="294.8" opacity="1.0" stroke="rgb(0,0,0)"  stroke-width="3"/>
<line x1="318.8" y1="261.6" x2="318.8" y2="288.8" opacity="1.0" stroke="rgb(0,0,0)"  stroke-width="3"/>
<line x1="379.5" y1="294.8" x2="379.5" y2="255.6" opacity="1.0" stroke="rgb(0,0,0)"  stroke-width="3"/>
<line x1="413.5" y1="118.4" x2="379.5" y2="138.0" opacity="1.0" stroke="rgb(0,0,0)"  stroke-width="3"/>
<line x1="379.5" y1="138.0" x2="379.5" y2="177.2" opacity="1.0" stroke="rgb(0,0,0)"  stroke-width="3"/>
<line x1="386.7" y1="144.0" x2="386.7" y2="171.2" opacity="1.0" stroke="rgb(0,0,0)"  stroke-width="3"/>
<line x1="379.5" y1="177.2" x2="413.5" y2="196.8" opacity="1.0" stroke="rgb(0,0,0)"  stroke-width="3"/>
<line x1="447.5" y1="177.2" x2="447.5" y2="138.0" opacity="1.0" stroke="rgb(0,0,0)"  stroke-width="3"/>
<line x1="447.5" y1="138.0" x2="413.5" y2="118.4" opacity="1.0" stroke="rgb(0,0,0)"  stroke-width="3"/>
<line x1="438.7" y1="141.3" x2="415.1" y2="127.7" opacity="1.0" stroke="rgb(0,0,0)"  stroke-width="3"/>
<line x1="447.5" y1="255.6" x2="447.5" y2="294.8" opacity="1.0" stroke="rgb(0,0,0)"  stroke-width="3"/>
<line x1="447.5" y1="294.8" x2="424.8" y2="308.0" opacity="1.0" stroke="rgb(0,0,0)"  stroke-width="3"/>
<line x1="379.5" y1="255.6" x2="402.2" y2="242.5" opacity="1.0" stroke="rgb(0,0,0)"  stroke-width="3"/>
<line x1="481.4" y1="236.0" x2="515.4" y2="255.6" opacity="1.0" stroke="rgb(0,0,0)"  stroke-width="3"/>
<line x1="515.4" y1="255.6" x2="515.4" y2="294.8" opacity="1.0" stroke="rgb(0,0,0)"  stroke-width="3"/>
<line x1="508.2" y1="261.6" x2="508.2" y2="288.8" opacity="1.0" stroke="rgb(0,0,0)"  stroke-width="3"/>
<line x1="515.4" y1="294.8" x2="481.4" y2="314.5" opacity="1.0" stroke="rgb(0,0,0)"  stroke-width="3"/>
<line x1="481.4" y1="314.5" x2="447.5" y2="294.8" opacity="1.0" stroke="rgb(0,0,0)"  stroke-width="3"/>
<line x1="479.8" y1="305.2" x2="456.3" y2="291.6" opacity="1.0" stroke="rgb(0,0,0)"  stroke-width="3"/>
<line x1="259.3" y1="258.2" x2="297.7" y2="250.1" opacity="1.0" stroke="rgb(0,0,0)"  stroke-width="3"/>
<line x1="263.7" y1="249.9" x2="290.3" y2="244.3" opacity="1.0" stroke="rgb(0,0,0)"  stroke-width="3"/>
<line x1="297.7" y1="250.1" x2="309.8" y2="212.8" opacity="1.0" stroke="rgb(0,0,0)"  stroke-width="3"/>
<line x1="309.8" y1="212.8" x2="283.5" y2="183.6" opacity="1.0" stroke="rgb(0,0,0)"  stroke-width="3"/>
<line x1="300.4" y1="213.1" x2="282.2" y2="192.9" opacity="1.0" stroke="rgb(0,0,0)"  stroke-width="3"/>
<line x1="283.5" y1="183.6" x2="245.2" y2="191.8" opacity="1.0" stroke="rgb(0,0,0)"  stroke-width="3"/>
<line x1="245.2" y1="191.8" x2="233.1" y2="229.1" opacity="1.0" stroke="rgb(0,0,0)"  stroke-width="3"/>
<line x1="250.2" y1="199.7" x2="241.8" y2="225.6" opacity="1.0" stroke="rgb(0,0,0)"  stroke-width="3"/>
<line x1="233.1" y1="229.1" x2="259.3" y2="258.2" opacity="1.0" stroke="rgb(0,0,0)"  stroke-width="3"/>
<line x1="317.3" y1="83.3" x2="291.0" y2="112.4" opacity="1.0" stroke="rgb(0,0,0)"  stroke-width="3"/>
<line x1="318.6" y1="92.5" x2="300.4" y2="112.8" opacity="1.0" stroke="rgb(0,0,0)"  stroke-width="3"/>
<line x1="291.0" y1="112.4" x2="303.1" y2="149.7" opacity="1.0" stroke="rgb(0,0,0)"  stroke-width="3"/>
<line x1="303.1" y1="149.7" x2="341.5" y2="157.8" opacity="1.0" stroke="rgb(0,0,0)"  stroke-width="3"/>
<line x1="310.5" y1="143.9" x2="337.1" y2="149.5" opacity="1.0" stroke="rgb(0,0,0)"  stroke-width="3"/>
<line x1="341.5" y1="157.8" x2="367.7" y2="128.7" opacity="1.0" stroke="rgb(0,0,0)"  stroke-width="3"/>
<line x1="367.7" y1="128.7" x2="355.6" y2="91.4" opacity="1.0" stroke="rgb(0,0,0)"  stroke-width="3"/>
<line x1="359.0" y1="125.2" x2="350.6" y2="99.3" opacity="1.0" stroke="rgb(0,0,0)"  stroke-width="3"/>
<line x1="355.6" y1="91.4" x2="317.3" y2="83.3" opacity="1.0" stroke="rgb(0,0,0)"  stroke-width="3"/>
<line x1="190.2" y1="512.0" x2="229.4" y2="512.0" opacity="1.0" stroke="rgb(0,0,0)"  stroke-width="3"/>
<line x1="241.5" y1="474.7" x2="209.8" y2="441.9" opacity="1.0" stroke="rgb(0,0,0)"  stroke-width="3"/>
<line x1="209.8" y1="441.9" x2="178.1" y2="474.7" opacity="1.0" stroke="rgb(0,0,0)"  stroke-width="3"/>
<line x1="303.1" y1="149.7" x2="283.5" y2="183.6" opacity="1.0" stroke="rgb(0,0,0)"  stroke-width="3"/>
<line x1="309.8" y1="212.8" x2="345.6" y2="196.8" opacity="1.0" stroke="rgb(0,0,0)"  stroke-width="3"/>
<line x1="345.6" y1="196.8" x2="341.5" y2="157.8" opacity="1.0" stroke="rgb(0,0,0)"  stroke-width="3"/>
<line x1="175.8" y1="412.5" x2="209.8" y2="441.9" opacity="1.0" stroke="rgb(0,0,0)"  stroke-width="3"/>
<line x1="209.8" y1="441.9" x2="243.7" y2="412.5" opacity="1.0" stroke="rgb(0,0,0)"  stroke-width="3"/>
<line x1="379.5" y1="177.2" x2="345.6" y2="196.8" opacity="1.0" stroke="rgb(0,0,0)"  stroke-width="3"/>
<line x1="345.6" y1="196.8" x2="345.6" y2="236.0" opacity="1.0" stroke="rgb(0,0,0)"  stroke-width="3"/>
<line x1="481.4" y1="471.3" x2="481.4" y2="432.1" opacity="1.0" stroke="rgb(0,0,0)"  stroke-width="3"/>
<line x1="481.4" y1="432.1" x2="447.5" y2="412.5" opacity="1.0" stroke="rgb(0,0,0)"  stroke-width="3"/>
<line x1="413.5" y1="432.1" x2="413.5" y2="471.3" opacity="1.0" stroke="rgb(0,0,0)"  stroke-width="3"/>
<line x1="413.5" y1="471.3" x2="447.5" y2="490.9" opacity="1.0" stroke="rgb(0,0,0)"  stroke-width="3"/>
<line x1="447.5" y1="490.9" x2="481.4" y2="471.3" opacity="1.0" stroke="rgb(0,0,0)"  stroke-width="3"/>
<text x="407.503030" y="244.038168" fill="rgb(12,12,255)" stroke-width="0" font-weight="bold" font-size="25.92" >N</text>
<text x="407.503030" y="322.453521" fill="rgb(255,181,181)" stroke-width="0" font-weight="bold" font-size="25.92" >B</text>
<text x="271.683729" y="322.453521" fill="rgb(255,181,181)" stroke-width="0" font-weight="bold" font-size="25.92" >B</text>
<text x="203.774078" y="361.661174" fill="rgb(12,12,255)" stroke-width="0" font-weight="bold" font-size="25.92" >N</text>
<text x="339.593379" y="361.661174" fill="rgb(12,12,255)" stroke-width="0" font-weight="bold" font-size="25.92" >N</text>
</svg>
</g>
</svg>
