<?xml version="1.0"?>
<svg version="1.1" id="topsvg"
xmlns="http://www.w3.org/2000/svg" xmlns:xlink="http://www.w3.org/1999/xlink"
xmlns:cml="http://www.xml-cml.org/schema" x="0" y="0" width="200px" height="200px" viewBox="0 0 100 100">
<title>GD210.sdf - Open Babel Depiction</title>
<rect x="0" y="0" width="100" height="100" fill="white"/>
<g transform="translate(0,0)">
<svg width="100" height="100" x="0" y="0" viewBox="0 0 624.999 585.666"
font-family="sans-serif" stroke="rgb(0,0,0)" stroke-width="3"  stroke-linecap="round">
<line x1="119.8" y1="300.8" x2="79.9" y2="300.8" opacity="1.0" stroke="rgb(0,0,0)"  stroke-width="3"/>
<line x1="79.9" y1="300.8" x2="40.0" y2="300.8" opacity="1.0" stroke="rgb(0,0,0)"  stroke-width="3"/>
<line x1="59.9" y1="335.3" x2="79.9" y2="300.8" opacity="1.0" stroke="rgb(0,0,0)"  stroke-width="3"/>
<line x1="79.9" y1="300.8" x2="59.9" y2="266.2" opacity="1.0" stroke="rgb(0,0,0)"  stroke-width="3"/>
<line x1="384.5" y1="124.5" x2="404.1" y2="106.1" opacity="1.0" stroke="rgb(0,0,0)"  stroke-width="3"/>
<line x1="236.7" y1="172.9" x2="223.0" y2="135.4" opacity="1.0" stroke="rgb(0,0,0)"  stroke-width="3"/>
<line x1="223.0" y1="135.4" x2="183.4" y2="130.8" opacity="1.0" stroke="rgb(0,0,0)"  stroke-width="3"/>
<line x1="223.0" y1="135.4" x2="205.1" y2="99.8" opacity="1.0" stroke="rgb(0,0,0)"  stroke-width="3"/>
<line x1="223.0" y1="135.4" x2="243.0" y2="100.9" opacity="1.0" stroke="rgb(0,0,0)"  stroke-width="3"/>
<line x1="363.0" y1="472.0" x2="400.0" y2="457.0" opacity="1.0" stroke="rgb(0,0,0)"  stroke-width="3"/>
<line x1="474.0" y1="427.1" x2="511.0" y2="412.2" opacity="1.0" stroke="rgb(0,0,0)"  stroke-width="3"/>
<line x1="308.9" y1="410.2" x2="308.9" y2="371.3" opacity="1.0" stroke="rgb(0,0,0)"  stroke-width="3"/>
<line x1="179.0" y1="265.1" x2="203.2" y2="233.4" opacity="1.0" stroke="rgb(0,0,0)"  stroke-width="3"/>
<line x1="203.2" y1="233.4" x2="238.1" y2="252.7" opacity="1.0" stroke="rgb(0,0,0)"  stroke-width="3"/>
<line x1="238.1" y1="252.7" x2="238.6" y2="279.6" opacity="1.0" stroke="rgb(0,0,0)"  stroke-width="3"/>
<line x1="226.1" y1="294.8" x2="199.6" y2="299.2" opacity="1.0" stroke="rgb(0,0,0)"  stroke-width="3"/>
<line x1="199.6" y1="299.2" x2="179.0" y2="265.1" opacity="1.0" stroke="rgb(0,0,0)"  stroke-width="3"/>
<line x1="202.6" y1="290.4" x2="188.2" y2="266.5" opacity="1.0" stroke="rgb(0,0,0)"  stroke-width="3"/>
<line x1="436.5" y1="264.7" x2="409.2" y2="235.6" opacity="1.0" stroke="rgb(0,0,0)"  stroke-width="3"/>
<line x1="409.2" y1="235.6" x2="373.1" y2="252.5" opacity="1.0" stroke="rgb(0,0,0)"  stroke-width="3"/>
<line x1="406.9" y1="244.6" x2="381.6" y2="256.5" opacity="1.0" stroke="rgb(0,0,0)"  stroke-width="3"/>
<line x1="373.1" y1="252.5" x2="376.4" y2="279.2" opacity="1.0" stroke="rgb(0,0,0)"  stroke-width="3"/>
<line x1="390.8" y1="294.5" x2="417.2" y2="299.6" opacity="1.0" stroke="rgb(0,0,0)"  stroke-width="3"/>
<line x1="417.2" y1="299.6" x2="436.5" y2="264.7" opacity="1.0" stroke="rgb(0,0,0)"  stroke-width="3"/>
<line x1="413.8" y1="290.9" x2="427.3" y2="266.5" opacity="1.0" stroke="rgb(0,0,0)"  stroke-width="3"/>
<line x1="335.8" y1="125.8" x2="362.2" y2="130.9" opacity="1.0" stroke="rgb(0,0,0)"  stroke-width="3"/>
<line x1="376.6" y1="146.3" x2="379.9" y2="173.0" opacity="1.0" stroke="rgb(0,0,0)"  stroke-width="3"/>
<line x1="379.9" y1="173.0" x2="343.8" y2="189.9" opacity="1.0" stroke="rgb(0,0,0)"  stroke-width="3"/>
<line x1="343.8" y1="189.9" x2="316.5" y2="160.8" opacity="1.0" stroke="rgb(0,0,0)"  stroke-width="3"/>
<line x1="316.5" y1="160.8" x2="335.8" y2="125.8" opacity="1.0" stroke="rgb(0,0,0)"  stroke-width="3"/>
<line x1="325.7" y1="159.0" x2="339.2" y2="134.6" opacity="1.0" stroke="rgb(0,0,0)"  stroke-width="3"/>
<line x1="295.4" y1="486.3" x2="260.9" y2="466.4" opacity="1.0" stroke="rgb(0,0,0)"  stroke-width="3"/>
<line x1="260.9" y1="466.4" x2="269.2" y2="427.4" opacity="1.0" stroke="rgb(0,0,0)"  stroke-width="3"/>
<line x1="269.2" y1="462.0" x2="275.0" y2="434.7" opacity="1.0" stroke="rgb(0,0,0)"  stroke-width="3"/>
<line x1="269.2" y1="427.4" x2="295.9" y2="424.6" opacity="1.0" stroke="rgb(0,0,0)"  stroke-width="3"/>
<line x1="314.1" y1="435.1" x2="325.1" y2="459.6" opacity="1.0" stroke="rgb(0,0,0)"  stroke-width="3"/>
<line x1="325.1" y1="459.6" x2="295.4" y2="486.3" opacity="1.0" stroke="rgb(0,0,0)"  stroke-width="3"/>
<line x1="315.8" y1="458.3" x2="295.1" y2="477.0" opacity="1.0" stroke="rgb(0,0,0)"  stroke-width="3"/>
<line x1="274.2" y1="351.6" x2="308.9" y2="371.3" opacity="1.0" stroke="rgb(0,0,0)"  stroke-width="3"/>
<line x1="308.9" y1="371.3" x2="343.3" y2="351.2" opacity="1.0" stroke="rgb(0,0,0)"  stroke-width="3"/>
<line x1="310.4" y1="362.1" x2="334.5" y2="348.0" opacity="1.0" stroke="rgb(0,0,0)"  stroke-width="3"/>
<line x1="343.3" y1="351.2" x2="343.1" y2="311.3" opacity="1.0" stroke="rgb(0,0,0)"  stroke-width="3"/>
<line x1="343.1" y1="311.3" x2="308.4" y2="291.5" opacity="1.0" stroke="rgb(0,0,0)"  stroke-width="3"/>
<line x1="334.3" y1="314.6" x2="310.1" y2="300.8" opacity="1.0" stroke="rgb(0,0,0)"  stroke-width="3"/>
<line x1="308.4" y1="291.5" x2="274.0" y2="311.7" opacity="1.0" stroke="rgb(0,0,0)"  stroke-width="3"/>
<line x1="274.0" y1="311.7" x2="274.2" y2="351.6" opacity="1.0" stroke="rgb(0,0,0)"  stroke-width="3"/>
<line x1="281.2" y1="317.6" x2="281.4" y2="345.5" opacity="1.0" stroke="rgb(0,0,0)"  stroke-width="3"/>
<line x1="307.5" y1="264.6" x2="308.4" y2="291.5" opacity="1.0" stroke="rgb(0,0,0)"  stroke-width="3"/>
<line x1="274.0" y1="311.7" x2="250.3" y2="298.8" opacity="1.0" stroke="rgb(0,0,0)"  stroke-width="3"/>
<line x1="238.1" y1="252.7" x2="272.3" y2="232.2" opacity="1.0" stroke="rgb(0,0,0)"  stroke-width="3"/>
<line x1="246.9" y1="255.8" x2="270.8" y2="241.4" opacity="1.0" stroke="rgb(0,0,0)"  stroke-width="3"/>
<line x1="272.3" y1="232.2" x2="295.8" y2="245.3" opacity="1.0" stroke="rgb(0,0,0)"  stroke-width="3"/>
<line x1="373.1" y1="252.5" x2="340.4" y2="229.7" opacity="1.0" stroke="rgb(0,0,0)"  stroke-width="3"/>
<line x1="340.4" y1="229.7" x2="317.9" y2="244.5" opacity="1.0" stroke="rgb(0,0,0)"  stroke-width="3"/>
<line x1="343.1" y1="311.3" x2="366.7" y2="298.3" opacity="1.0" stroke="rgb(0,0,0)"  stroke-width="3"/>
<line x1="140.4" y1="334.9" x2="180.3" y2="334.2" opacity="1.0" stroke="rgb(0,0,0)"  stroke-width="3"/>
<line x1="146.3" y1="327.6" x2="174.2" y2="327.1" opacity="1.0" stroke="rgb(0,0,0)"  stroke-width="3"/>
<line x1="180.3" y1="334.2" x2="199.6" y2="299.2" opacity="1.0" stroke="rgb(0,0,0)"  stroke-width="3"/>
<line x1="179.0" y1="265.1" x2="139.1" y2="265.8" opacity="1.0" stroke="rgb(0,0,0)"  stroke-width="3"/>
<line x1="139.1" y1="265.8" x2="119.8" y2="300.8" opacity="1.0" stroke="rgb(0,0,0)"  stroke-width="3"/>
<line x1="142.5" y1="274.6" x2="129.0" y2="299.0" opacity="1.0" stroke="rgb(0,0,0)"  stroke-width="3"/>
<line x1="119.8" y1="300.8" x2="140.4" y2="334.9" opacity="1.0" stroke="rgb(0,0,0)"  stroke-width="3"/>
<line x1="497.0" y1="298.1" x2="476.4" y2="263.9" opacity="1.0" stroke="rgb(0,0,0)"  stroke-width="3"/>
<line x1="487.7" y1="296.7" x2="473.3" y2="272.8" opacity="1.0" stroke="rgb(0,0,0)"  stroke-width="3"/>
<line x1="476.4" y1="263.9" x2="436.5" y2="264.7" opacity="1.0" stroke="rgb(0,0,0)"  stroke-width="3"/>
<line x1="417.2" y1="299.6" x2="437.8" y2="333.8" opacity="1.0" stroke="rgb(0,0,0)"  stroke-width="3"/>
<line x1="437.8" y1="333.8" x2="477.7" y2="333.0" opacity="1.0" stroke="rgb(0,0,0)"  stroke-width="3"/>
<line x1="443.7" y1="326.5" x2="471.6" y2="325.9" opacity="1.0" stroke="rgb(0,0,0)"  stroke-width="3"/>
<line x1="477.7" y1="333.0" x2="497.0" y2="298.1" opacity="1.0" stroke="rgb(0,0,0)"  stroke-width="3"/>
<line x1="343.8" y1="189.9" x2="340.4" y2="229.7" opacity="1.0" stroke="rgb(0,0,0)"  stroke-width="3"/>
<line x1="350.5" y1="196.5" x2="348.1" y2="224.3" opacity="1.0" stroke="rgb(0,0,0)"  stroke-width="3"/>
<line x1="409.2" y1="235.6" x2="412.6" y2="195.8" opacity="1.0" stroke="rgb(0,0,0)"  stroke-width="3"/>
<line x1="412.6" y1="195.8" x2="379.9" y2="173.0" opacity="1.0" stroke="rgb(0,0,0)"  stroke-width="3"/>
<line x1="403.6" y1="198.3" x2="380.7" y2="182.3" opacity="1.0" stroke="rgb(0,0,0)"  stroke-width="3"/>
<line x1="203.2" y1="233.4" x2="202.5" y2="193.5" opacity="1.0" stroke="rgb(0,0,0)"  stroke-width="3"/>
<line x1="210.3" y1="227.2" x2="209.8" y2="199.3" opacity="1.0" stroke="rgb(0,0,0)"  stroke-width="3"/>
<line x1="202.5" y1="193.5" x2="236.7" y2="172.9" opacity="1.0" stroke="rgb(0,0,0)"  stroke-width="3"/>
<line x1="236.7" y1="172.9" x2="271.6" y2="192.3" opacity="1.0" stroke="rgb(0,0,0)"  stroke-width="3"/>
<line x1="238.5" y1="182.1" x2="262.8" y2="195.7" opacity="1.0" stroke="rgb(0,0,0)"  stroke-width="3"/>
<line x1="271.6" y1="192.3" x2="272.3" y2="232.2" opacity="1.0" stroke="rgb(0,0,0)"  stroke-width="3"/>
<line x1="257.4" y1="125.8" x2="276.6" y2="160.8" opacity="1.0" stroke="rgb(0,0,0)"  stroke-width="3"/>
<line x1="266.6" y1="127.6" x2="280.0" y2="152.0" opacity="1.0" stroke="rgb(0,0,0)"  stroke-width="3"/>
<line x1="276.6" y1="160.8" x2="316.5" y2="160.8" opacity="1.0" stroke="rgb(0,0,0)"  stroke-width="3"/>
<line x1="335.8" y1="125.8" x2="316.5" y2="91.7" opacity="1.0" stroke="rgb(0,0,0)"  stroke-width="3"/>
<line x1="316.5" y1="91.7" x2="276.6" y2="91.7" opacity="1.0" stroke="rgb(0,0,0)"  stroke-width="3"/>
<line x1="310.5" y1="98.9" x2="282.6" y2="98.9" opacity="1.0" stroke="rgb(0,0,0)"  stroke-width="3"/>
<line x1="276.6" y1="91.7" x2="257.4" y2="125.8" opacity="1.0" stroke="rgb(0,0,0)"  stroke-width="3"/>
<line x1="239.5" y1="400.7" x2="201.6" y2="413.0" opacity="1.0" stroke="rgb(0,0,0)"  stroke-width="3"/>
<line x1="236.0" y1="409.4" x2="209.5" y2="418.0" opacity="1.0" stroke="rgb(0,0,0)"  stroke-width="3"/>
<line x1="201.6" y1="413.0" x2="193.3" y2="452.0" opacity="1.0" stroke="rgb(0,0,0)"  stroke-width="3"/>
<line x1="193.3" y1="452.0" x2="222.9" y2="478.7" opacity="1.0" stroke="rgb(0,0,0)"  stroke-width="3"/>
<line x1="202.6" y1="450.7" x2="223.3" y2="469.4" opacity="1.0" stroke="rgb(0,0,0)"  stroke-width="3"/>
<line x1="222.9" y1="478.7" x2="260.9" y2="466.4" opacity="1.0" stroke="rgb(0,0,0)"  stroke-width="3"/>
<line x1="269.2" y1="427.4" x2="239.5" y2="400.7" opacity="1.0" stroke="rgb(0,0,0)"  stroke-width="3"/>
<line x1="371.3" y1="511.0" x2="341.7" y2="537.7" opacity="1.0" stroke="rgb(0,0,0)"  stroke-width="3"/>
<line x1="341.7" y1="537.7" x2="303.7" y2="525.4" opacity="1.0" stroke="rgb(0,0,0)"  stroke-width="3"/>
<line x1="338.2" y1="529.0" x2="311.7" y2="520.4" opacity="1.0" stroke="rgb(0,0,0)"  stroke-width="3"/>
<line x1="303.7" y1="525.4" x2="295.4" y2="486.3" opacity="1.0" stroke="rgb(0,0,0)"  stroke-width="3"/>
<line x1="325.1" y1="459.6" x2="363.0" y2="472.0" opacity="1.0" stroke="rgb(0,0,0)"  stroke-width="3"/>
<line x1="363.0" y1="472.0" x2="371.3" y2="511.0" opacity="1.0" stroke="rgb(0,0,0)"  stroke-width="3"/>
<line x1="357.2" y1="479.3" x2="363.0" y2="506.6" opacity="1.0" stroke="rgb(0,0,0)"  stroke-width="3"/>
<line x1="442.3" y1="117.7" x2="471.4" y2="90.5" opacity="1.0" stroke="rgb(0,0,0)"  stroke-width="3"/>
<line x1="471.4" y1="90.5" x2="462.4" y2="51.6" opacity="1.0" stroke="rgb(0,0,0)"  stroke-width="3"/>
<line x1="463.1" y1="86.2" x2="456.7" y2="59.1" opacity="1.0" stroke="rgb(0,0,0)"  stroke-width="3"/>
<line x1="462.4" y1="51.6" x2="424.2" y2="40.0" opacity="1.0" stroke="rgb(0,0,0)"  stroke-width="3"/>
<line x1="424.2" y1="40.0" x2="395.1" y2="67.3" opacity="1.0" stroke="rgb(0,0,0)"  stroke-width="3"/>
<line x1="424.7" y1="49.4" x2="404.4" y2="68.4" opacity="1.0" stroke="rgb(0,0,0)"  stroke-width="3"/>
<line x1="395.1" y1="67.3" x2="404.1" y2="106.1" opacity="1.0" stroke="rgb(0,0,0)"  stroke-width="3"/>
<line x1="404.1" y1="106.1" x2="442.3" y2="117.7" opacity="1.0" stroke="rgb(0,0,0)"  stroke-width="3"/>
<line x1="412.0" y1="101.0" x2="438.6" y2="109.1" opacity="1.0" stroke="rgb(0,0,0)"  stroke-width="3"/>
<line x1="431.5" y1="481.6" x2="468.5" y2="466.6" opacity="1.0" stroke="rgb(0,0,0)"  stroke-width="3"/>
<line x1="468.5" y1="466.6" x2="474.0" y2="427.1" opacity="1.0" stroke="rgb(0,0,0)"  stroke-width="3"/>
<line x1="462.2" y1="459.7" x2="466.1" y2="432.1" opacity="1.0" stroke="rgb(0,0,0)"  stroke-width="3"/>
<line x1="474.0" y1="427.1" x2="442.6" y2="402.6" opacity="1.0" stroke="rgb(0,0,0)"  stroke-width="3"/>
<line x1="442.6" y1="402.6" x2="405.6" y2="417.5" opacity="1.0" stroke="rgb(0,0,0)"  stroke-width="3"/>
<line x1="439.7" y1="411.5" x2="413.8" y2="421.9" opacity="1.0" stroke="rgb(0,0,0)"  stroke-width="3"/>
<line x1="405.6" y1="417.5" x2="400.0" y2="457.0" opacity="1.0" stroke="rgb(0,0,0)"  stroke-width="3"/>
<line x1="400.0" y1="457.0" x2="431.5" y2="481.6" opacity="1.0" stroke="rgb(0,0,0)"  stroke-width="3"/>
<line x1="409.2" y1="455.0" x2="431.2" y2="472.2" opacity="1.0" stroke="rgb(0,0,0)"  stroke-width="3"/>
<line x1="494.4" y1="530.7" x2="499.9" y2="491.2" opacity="1.0" stroke="rgb(0,0,0)"  stroke-width="3"/>
<line x1="488.1" y1="523.8" x2="491.9" y2="496.1" opacity="1.0" stroke="rgb(0,0,0)"  stroke-width="3"/>
<line x1="499.9" y1="491.2" x2="468.5" y2="466.6" opacity="1.0" stroke="rgb(0,0,0)"  stroke-width="3"/>
<line x1="431.5" y1="481.6" x2="425.9" y2="521.1" opacity="1.0" stroke="rgb(0,0,0)"  stroke-width="3"/>
<line x1="425.9" y1="521.1" x2="457.4" y2="545.7" opacity="1.0" stroke="rgb(0,0,0)"  stroke-width="3"/>
<line x1="435.1" y1="519.1" x2="457.1" y2="536.3" opacity="1.0" stroke="rgb(0,0,0)"  stroke-width="3"/>
<line x1="457.4" y1="545.7" x2="494.4" y2="530.7" opacity="1.0" stroke="rgb(0,0,0)"  stroke-width="3"/>
<line x1="379.7" y1="353.4" x2="374.1" y2="393.0" opacity="1.0" stroke="rgb(0,0,0)"  stroke-width="3"/>
<line x1="386.0" y1="360.4" x2="382.1" y2="388.0" opacity="1.0" stroke="rgb(0,0,0)"  stroke-width="3"/>
<line x1="374.1" y1="393.0" x2="405.6" y2="417.5" opacity="1.0" stroke="rgb(0,0,0)"  stroke-width="3"/>
<line x1="442.6" y1="402.6" x2="448.1" y2="363.1" opacity="1.0" stroke="rgb(0,0,0)"  stroke-width="3"/>
<line x1="448.1" y1="363.1" x2="416.7" y2="338.5" opacity="1.0" stroke="rgb(0,0,0)"  stroke-width="3"/>
<line x1="439.0" y1="365.0" x2="417.0" y2="347.9" opacity="1.0" stroke="rgb(0,0,0)"  stroke-width="3"/>
<line x1="416.7" y1="338.5" x2="379.7" y2="353.4" opacity="1.0" stroke="rgb(0,0,0)"  stroke-width="3"/>
<line x1="542.5" y1="436.8" x2="579.4" y2="421.8" opacity="1.0" stroke="rgb(0,0,0)"  stroke-width="3"/>
<line x1="579.4" y1="421.8" x2="585.0" y2="382.3" opacity="1.0" stroke="rgb(0,0,0)"  stroke-width="3"/>
<line x1="573.2" y1="414.9" x2="577.0" y2="387.2" opacity="1.0" stroke="rgb(0,0,0)"  stroke-width="3"/>
<line x1="585.0" y1="382.3" x2="553.6" y2="357.7" opacity="1.0" stroke="rgb(0,0,0)"  stroke-width="3"/>
<line x1="553.6" y1="357.7" x2="516.6" y2="372.7" opacity="1.0" stroke="rgb(0,0,0)"  stroke-width="3"/>
<line x1="550.7" y1="366.7" x2="524.8" y2="377.1" opacity="1.0" stroke="rgb(0,0,0)"  stroke-width="3"/>
<line x1="516.6" y1="372.7" x2="511.0" y2="412.2" opacity="1.0" stroke="rgb(0,0,0)"  stroke-width="3"/>
<line x1="511.0" y1="412.2" x2="542.5" y2="436.8" opacity="1.0" stroke="rgb(0,0,0)"  stroke-width="3"/>
<line x1="520.2" y1="410.2" x2="542.2" y2="427.4" opacity="1.0" stroke="rgb(0,0,0)"  stroke-width="3"/>
<text x="302.862246" y="431.194320" fill="rgb(12,12,255)" stroke-width="0" font-weight="bold" font-size="25.92" >N</text>
<text x="368.989018" y="141.388684" fill="rgb(12,12,255)" stroke-width="0" font-weight="bold" font-size="25.92" >N</text>
<text x="372.049956" y="300.080717" fill="rgb(12,12,255)" stroke-width="0" font-weight="bold" font-size="25.92" >N</text>
<text x="232.924395" y="300.601453" fill="rgb(12,12,255)" stroke-width="0" font-weight="bold" font-size="25.92" >N</text>
<text x="301.096791" y="259.651755" fill="rgb(255,181,181)" stroke-width="0" font-weight="bold" font-size="25.92" >B</text>
</svg>
</g>
</svg>
