<?xml version="1.0"?>
<svg version="1.1" id="topsvg"
xmlns="http://www.w3.org/2000/svg" xmlns:xlink="http://www.w3.org/1999/xlink"
xmlns:cml="http://www.xml-cml.org/schema" x="0" y="0" width="200px" height="200px" viewBox="0 0 100 100">
<title>GD219.sdf - Open Babel Depiction</title>
<rect x="0" y="0" width="100" height="100" fill="white"/>
<g transform="translate(0,0)">
<svg width="100" height="100" x="0" y="0" viewBox="0 0 634.949 617.859"
font-family="sans-serif" stroke="rgb(0,0,0)" stroke-width="3"  stroke-linecap="round">
<line x1="305.5" y1="367.5" x2="305.5" y2="466.5" opacity="1.0" stroke="rgb(0,0,0)"  stroke-width="3"/>
<line x1="118.8" y1="297.8" x2="79.4" y2="297.8" opacity="1.0" stroke="rgb(0,0,0)"  stroke-width="3"/>
<line x1="79.4" y1="297.8" x2="40.0" y2="297.8" opacity="1.0" stroke="rgb(0,0,0)"  stroke-width="3"/>
<line x1="59.7" y1="332.0" x2="79.4" y2="297.8" opacity="1.0" stroke="rgb(0,0,0)"  stroke-width="3"/>
<line x1="79.4" y1="297.8" x2="59.7" y2="263.7" opacity="1.0" stroke="rgb(0,0,0)"  stroke-width="3"/>
<line x1="380.3" y1="123.7" x2="399.7" y2="105.5" opacity="1.0" stroke="rgb(0,0,0)"  stroke-width="3"/>
<line x1="234.2" y1="171.6" x2="200.0" y2="151.8" opacity="1.0" stroke="rgb(0,0,0)"  stroke-width="3"/>
<line x1="200.0" y1="151.8" x2="165.8" y2="171.6" opacity="1.0" stroke="rgb(0,0,0)"  stroke-width="3"/>
<line x1="200.0" y1="151.8" x2="200.0" y2="112.3" opacity="1.0" stroke="rgb(0,0,0)"  stroke-width="3"/>
<line x1="200.0" y1="151.8" x2="234.2" y2="132.0" opacity="1.0" stroke="rgb(0,0,0)"  stroke-width="3"/>
<line x1="439.4" y1="510.0" x2="462.7" y2="478.0" opacity="1.0" stroke="rgb(0,0,0)"  stroke-width="3"/>
<line x1="509.2" y1="414.0" x2="532.4" y2="382.0" opacity="1.0" stroke="rgb(0,0,0)"  stroke-width="3"/>
<line x1="177.2" y1="262.6" x2="201.1" y2="231.3" opacity="1.0" stroke="rgb(0,0,0)"  stroke-width="3"/>
<line x1="201.1" y1="231.3" x2="235.6" y2="250.4" opacity="1.0" stroke="rgb(0,0,0)"  stroke-width="3"/>
<line x1="235.6" y1="250.4" x2="236.2" y2="276.8" opacity="1.0" stroke="rgb(0,0,0)"  stroke-width="3"/>
<line x1="223.6" y1="291.9" x2="197.6" y2="296.3" opacity="1.0" stroke="rgb(0,0,0)"  stroke-width="3"/>
<line x1="197.6" y1="296.3" x2="177.2" y2="262.6" opacity="1.0" stroke="rgb(0,0,0)"  stroke-width="3"/>
<line x1="200.6" y1="287.5" x2="186.5" y2="264.0" opacity="1.0" stroke="rgb(0,0,0)"  stroke-width="3"/>
<line x1="431.5" y1="262.2" x2="404.6" y2="233.4" opacity="1.0" stroke="rgb(0,0,0)"  stroke-width="3"/>
<line x1="404.6" y1="233.4" x2="368.9" y2="250.2" opacity="1.0" stroke="rgb(0,0,0)"  stroke-width="3"/>
<line x1="402.2" y1="242.5" x2="377.4" y2="254.1" opacity="1.0" stroke="rgb(0,0,0)"  stroke-width="3"/>
<line x1="368.9" y1="250.2" x2="372.2" y2="276.3" opacity="1.0" stroke="rgb(0,0,0)"  stroke-width="3"/>
<line x1="386.6" y1="291.7" x2="412.5" y2="296.7" opacity="1.0" stroke="rgb(0,0,0)"  stroke-width="3"/>
<line x1="412.5" y1="296.7" x2="431.5" y2="262.2" opacity="1.0" stroke="rgb(0,0,0)"  stroke-width="3"/>
<line x1="409.1" y1="288.0" x2="422.3" y2="264.0" opacity="1.0" stroke="rgb(0,0,0)"  stroke-width="3"/>
<line x1="332.1" y1="125.1" x2="358.0" y2="130.1" opacity="1.0" stroke="rgb(0,0,0)"  stroke-width="3"/>
<line x1="372.4" y1="145.4" x2="375.7" y2="171.6" opacity="1.0" stroke="rgb(0,0,0)"  stroke-width="3"/>
<line x1="375.7" y1="171.6" x2="340.0" y2="188.4" opacity="1.0" stroke="rgb(0,0,0)"  stroke-width="3"/>
<line x1="340.0" y1="188.4" x2="313.1" y2="159.6" opacity="1.0" stroke="rgb(0,0,0)"  stroke-width="3"/>
<line x1="313.1" y1="159.6" x2="332.1" y2="125.1" opacity="1.0" stroke="rgb(0,0,0)"  stroke-width="3"/>
<line x1="322.3" y1="157.8" x2="335.5" y2="133.8" opacity="1.0" stroke="rgb(0,0,0)"  stroke-width="3"/>
<line x1="400.2" y1="505.9" x2="384.7" y2="484.5" opacity="1.0" stroke="rgb(0,0,0)"  stroke-width="3"/>
<line x1="364.7" y1="478.0" x2="339.6" y2="486.2" opacity="1.0" stroke="rgb(0,0,0)"  stroke-width="3"/>
<line x1="339.6" y1="486.2" x2="339.6" y2="525.6" opacity="1.0" stroke="rgb(0,0,0)"  stroke-width="3"/>
<line x1="346.8" y1="492.2" x2="346.8" y2="519.6" opacity="1.0" stroke="rgb(0,0,0)"  stroke-width="3"/>
<line x1="339.6" y1="525.6" x2="377.1" y2="537.7" opacity="1.0" stroke="rgb(0,0,0)"  stroke-width="3"/>
<line x1="377.1" y1="537.7" x2="400.2" y2="505.9" opacity="1.0" stroke="rgb(0,0,0)"  stroke-width="3"/>
<line x1="374.8" y1="528.7" x2="390.9" y2="506.5" opacity="1.0" stroke="rgb(0,0,0)"  stroke-width="3"/>
<line x1="271.3" y1="348.0" x2="305.5" y2="367.5" opacity="1.0" stroke="rgb(0,0,0)"  stroke-width="3"/>
<line x1="305.5" y1="367.5" x2="339.5" y2="347.6" opacity="1.0" stroke="rgb(0,0,0)"  stroke-width="3"/>
<line x1="307.0" y1="358.3" x2="330.7" y2="344.4" opacity="1.0" stroke="rgb(0,0,0)"  stroke-width="3"/>
<line x1="339.5" y1="347.6" x2="339.3" y2="308.2" opacity="1.0" stroke="rgb(0,0,0)"  stroke-width="3"/>
<line x1="339.3" y1="308.2" x2="305.1" y2="288.7" opacity="1.0" stroke="rgb(0,0,0)"  stroke-width="3"/>
<line x1="330.5" y1="311.5" x2="306.7" y2="297.9" opacity="1.0" stroke="rgb(0,0,0)"  stroke-width="3"/>
<line x1="305.1" y1="288.7" x2="271.0" y2="308.6" opacity="1.0" stroke="rgb(0,0,0)"  stroke-width="3"/>
<line x1="271.0" y1="308.6" x2="271.3" y2="348.0" opacity="1.0" stroke="rgb(0,0,0)"  stroke-width="3"/>
<line x1="278.3" y1="314.6" x2="278.4" y2="342.0" opacity="1.0" stroke="rgb(0,0,0)"  stroke-width="3"/>
<line x1="304.2" y1="262.3" x2="305.1" y2="288.7" opacity="1.0" stroke="rgb(0,0,0)"  stroke-width="3"/>
<line x1="271.0" y1="308.6" x2="247.9" y2="296.0" opacity="1.0" stroke="rgb(0,0,0)"  stroke-width="3"/>
<line x1="235.6" y1="250.4" x2="269.4" y2="230.1" opacity="1.0" stroke="rgb(0,0,0)"  stroke-width="3"/>
<line x1="244.4" y1="253.5" x2="267.9" y2="239.3" opacity="1.0" stroke="rgb(0,0,0)"  stroke-width="3"/>
<line x1="269.4" y1="230.1" x2="292.4" y2="243.0" opacity="1.0" stroke="rgb(0,0,0)"  stroke-width="3"/>
<line x1="368.9" y1="250.2" x2="336.6" y2="227.6" opacity="1.0" stroke="rgb(0,0,0)"  stroke-width="3"/>
<line x1="336.6" y1="227.6" x2="314.6" y2="242.2" opacity="1.0" stroke="rgb(0,0,0)"  stroke-width="3"/>
<line x1="339.3" y1="308.2" x2="362.4" y2="295.5" opacity="1.0" stroke="rgb(0,0,0)"  stroke-width="3"/>
<line x1="139.2" y1="331.6" x2="178.5" y2="330.8" opacity="1.0" stroke="rgb(0,0,0)"  stroke-width="3"/>
<line x1="145.0" y1="324.3" x2="172.4" y2="323.7" opacity="1.0" stroke="rgb(0,0,0)"  stroke-width="3"/>
<line x1="178.5" y1="330.8" x2="197.6" y2="296.3" opacity="1.0" stroke="rgb(0,0,0)"  stroke-width="3"/>
<line x1="177.2" y1="262.6" x2="137.8" y2="263.3" opacity="1.0" stroke="rgb(0,0,0)"  stroke-width="3"/>
<line x1="137.8" y1="263.3" x2="118.8" y2="297.8" opacity="1.0" stroke="rgb(0,0,0)"  stroke-width="3"/>
<line x1="141.2" y1="272.1" x2="128.0" y2="296.1" opacity="1.0" stroke="rgb(0,0,0)"  stroke-width="3"/>
<line x1="118.8" y1="297.8" x2="139.2" y2="331.6" opacity="1.0" stroke="rgb(0,0,0)"  stroke-width="3"/>
<line x1="491.3" y1="295.2" x2="470.9" y2="261.4" opacity="1.0" stroke="rgb(0,0,0)"  stroke-width="3"/>
<line x1="482.0" y1="293.8" x2="467.9" y2="270.3" opacity="1.0" stroke="rgb(0,0,0)"  stroke-width="3"/>
<line x1="470.9" y1="261.4" x2="431.5" y2="262.2" opacity="1.0" stroke="rgb(0,0,0)"  stroke-width="3"/>
<line x1="412.5" y1="296.7" x2="432.9" y2="330.4" opacity="1.0" stroke="rgb(0,0,0)"  stroke-width="3"/>
<line x1="432.9" y1="330.4" x2="472.3" y2="329.7" opacity="1.0" stroke="rgb(0,0,0)"  stroke-width="3"/>
<line x1="438.7" y1="323.1" x2="466.1" y2="322.6" opacity="1.0" stroke="rgb(0,0,0)"  stroke-width="3"/>
<line x1="472.3" y1="329.7" x2="491.3" y2="295.2" opacity="1.0" stroke="rgb(0,0,0)"  stroke-width="3"/>
<line x1="340.0" y1="188.4" x2="336.6" y2="227.6" opacity="1.0" stroke="rgb(0,0,0)"  stroke-width="3"/>
<line x1="346.7" y1="194.9" x2="344.3" y2="222.2" opacity="1.0" stroke="rgb(0,0,0)"  stroke-width="3"/>
<line x1="404.6" y1="233.4" x2="408.0" y2="194.2" opacity="1.0" stroke="rgb(0,0,0)"  stroke-width="3"/>
<line x1="408.0" y1="194.2" x2="375.7" y2="171.6" opacity="1.0" stroke="rgb(0,0,0)"  stroke-width="3"/>
<line x1="398.9" y1="196.7" x2="376.5" y2="181.0" opacity="1.0" stroke="rgb(0,0,0)"  stroke-width="3"/>
<line x1="201.1" y1="231.3" x2="200.5" y2="191.9" opacity="1.0" stroke="rgb(0,0,0)"  stroke-width="3"/>
<line x1="208.2" y1="225.1" x2="207.8" y2="197.7" opacity="1.0" stroke="rgb(0,0,0)"  stroke-width="3"/>
<line x1="200.5" y1="191.9" x2="234.2" y2="171.6" opacity="1.0" stroke="rgb(0,0,0)"  stroke-width="3"/>
<line x1="234.2" y1="171.6" x2="268.7" y2="190.7" opacity="1.0" stroke="rgb(0,0,0)"  stroke-width="3"/>
<line x1="236.0" y1="180.8" x2="260.0" y2="194.1" opacity="1.0" stroke="rgb(0,0,0)"  stroke-width="3"/>
<line x1="268.7" y1="190.7" x2="269.4" y2="230.1" opacity="1.0" stroke="rgb(0,0,0)"  stroke-width="3"/>
<line x1="254.6" y1="125.1" x2="273.7" y2="159.6" opacity="1.0" stroke="rgb(0,0,0)"  stroke-width="3"/>
<line x1="263.8" y1="126.9" x2="277.1" y2="150.9" opacity="1.0" stroke="rgb(0,0,0)"  stroke-width="3"/>
<line x1="273.7" y1="159.6" x2="313.1" y2="159.6" opacity="1.0" stroke="rgb(0,0,0)"  stroke-width="3"/>
<line x1="332.1" y1="125.1" x2="313.1" y2="91.4" opacity="1.0" stroke="rgb(0,0,0)"  stroke-width="3"/>
<line x1="313.1" y1="91.4" x2="273.7" y2="91.4" opacity="1.0" stroke="rgb(0,0,0)"  stroke-width="3"/>
<line x1="307.1" y1="98.6" x2="279.7" y2="98.6" opacity="1.0" stroke="rgb(0,0,0)"  stroke-width="3"/>
<line x1="273.7" y1="91.4" x2="254.6" y2="125.1" opacity="1.0" stroke="rgb(0,0,0)"  stroke-width="3"/>
<line x1="271.4" y1="486.2" x2="271.4" y2="525.6" opacity="1.0" stroke="rgb(0,0,0)"  stroke-width="3"/>
<line x1="271.4" y1="525.6" x2="305.5" y2="545.3" opacity="1.0" stroke="rgb(0,0,0)"  stroke-width="3"/>
<line x1="280.2" y1="522.3" x2="303.9" y2="536.0" opacity="1.0" stroke="rgb(0,0,0)"  stroke-width="3"/>
<line x1="305.5" y1="545.3" x2="339.6" y2="525.6" opacity="1.0" stroke="rgb(0,0,0)"  stroke-width="3"/>
<line x1="339.6" y1="486.2" x2="305.5" y2="466.5" opacity="1.0" stroke="rgb(0,0,0)"  stroke-width="3"/>
<line x1="305.5" y1="466.5" x2="271.4" y2="486.2" opacity="1.0" stroke="rgb(0,0,0)"  stroke-width="3"/>
<line x1="303.9" y1="475.7" x2="280.2" y2="489.4" opacity="1.0" stroke="rgb(0,0,0)"  stroke-width="3"/>
<line x1="455.5" y1="546.0" x2="439.4" y2="510.0" opacity="1.0" stroke="rgb(0,0,0)"  stroke-width="3"/>
<line x1="446.4" y1="543.4" x2="435.3" y2="518.4" opacity="1.0" stroke="rgb(0,0,0)"  stroke-width="3"/>
<line x1="439.4" y1="510.0" x2="400.2" y2="505.9" opacity="1.0" stroke="rgb(0,0,0)"  stroke-width="3"/>
<line x1="377.1" y1="537.7" x2="393.1" y2="573.7" opacity="1.0" stroke="rgb(0,0,0)"  stroke-width="3"/>
<line x1="393.1" y1="573.7" x2="432.3" y2="577.9" opacity="1.0" stroke="rgb(0,0,0)"  stroke-width="3"/>
<line x1="399.8" y1="567.2" x2="427.1" y2="570.1" opacity="1.0" stroke="rgb(0,0,0)"  stroke-width="3"/>
<line x1="432.3" y1="577.9" x2="455.5" y2="546.0" opacity="1.0" stroke="rgb(0,0,0)"  stroke-width="3"/>
<line x1="437.5" y1="117.0" x2="466.4" y2="90.0" opacity="1.0" stroke="rgb(0,0,0)"  stroke-width="3"/>
<line x1="466.4" y1="90.0" x2="457.4" y2="51.5" opacity="1.0" stroke="rgb(0,0,0)"  stroke-width="3"/>
<line x1="458.0" y1="85.8" x2="451.7" y2="59.0" opacity="1.0" stroke="rgb(0,0,0)"  stroke-width="3"/>
<line x1="457.4" y1="51.5" x2="419.6" y2="40.0" opacity="1.0" stroke="rgb(0,0,0)"  stroke-width="3"/>
<line x1="419.6" y1="40.0" x2="390.7" y2="67.0" opacity="1.0" stroke="rgb(0,0,0)"  stroke-width="3"/>
<line x1="420.1" y1="49.4" x2="400.0" y2="68.2" opacity="1.0" stroke="rgb(0,0,0)"  stroke-width="3"/>
<line x1="390.7" y1="67.0" x2="399.7" y2="105.5" opacity="1.0" stroke="rgb(0,0,0)"  stroke-width="3"/>
<line x1="399.7" y1="105.5" x2="437.5" y2="117.0" opacity="1.0" stroke="rgb(0,0,0)"  stroke-width="3"/>
<line x1="407.5" y1="100.4" x2="433.8" y2="108.4" opacity="1.0" stroke="rgb(0,0,0)"  stroke-width="3"/>
<line x1="502.0" y1="482.1" x2="525.2" y2="450.2" opacity="1.0" stroke="rgb(0,0,0)"  stroke-width="3"/>
<line x1="525.2" y1="450.2" x2="509.2" y2="414.0" opacity="1.0" stroke="rgb(0,0,0)"  stroke-width="3"/>
<line x1="516.2" y1="447.6" x2="505.0" y2="422.4" opacity="1.0" stroke="rgb(0,0,0)"  stroke-width="3"/>
<line x1="509.2" y1="414.0" x2="469.8" y2="409.9" opacity="1.0" stroke="rgb(0,0,0)"  stroke-width="3"/>
<line x1="469.8" y1="409.9" x2="446.6" y2="441.9" opacity="1.0" stroke="rgb(0,0,0)"  stroke-width="3"/>
<line x1="472.1" y1="419.0" x2="455.9" y2="441.3" opacity="1.0" stroke="rgb(0,0,0)"  stroke-width="3"/>
<line x1="446.6" y1="441.9" x2="462.7" y2="478.0" opacity="1.0" stroke="rgb(0,0,0)"  stroke-width="3"/>
<line x1="462.7" y1="478.0" x2="502.0" y2="482.1" opacity="1.0" stroke="rgb(0,0,0)"  stroke-width="3"/>
<line x1="469.4" y1="471.5" x2="496.8" y2="474.3" opacity="1.0" stroke="rgb(0,0,0)"  stroke-width="3"/>
<line x1="580.6" y1="490.4" x2="564.6" y2="454.3" opacity="1.0" stroke="rgb(0,0,0)"  stroke-width="3"/>
<line x1="571.6" y1="487.9" x2="560.4" y2="462.7" opacity="1.0" stroke="rgb(0,0,0)"  stroke-width="3"/>
<line x1="564.6" y1="454.3" x2="525.2" y2="450.2" opacity="1.0" stroke="rgb(0,0,0)"  stroke-width="3"/>
<line x1="502.0" y1="482.1" x2="518.1" y2="518.3" opacity="1.0" stroke="rgb(0,0,0)"  stroke-width="3"/>
<line x1="518.1" y1="518.3" x2="557.4" y2="522.4" opacity="1.0" stroke="rgb(0,0,0)"  stroke-width="3"/>
<line x1="524.8" y1="511.7" x2="552.2" y2="514.6" opacity="1.0" stroke="rgb(0,0,0)"  stroke-width="3"/>
<line x1="557.4" y1="522.4" x2="580.6" y2="490.4" opacity="1.0" stroke="rgb(0,0,0)"  stroke-width="3"/>
<line x1="391.2" y1="401.6" x2="407.3" y2="437.8" opacity="1.0" stroke="rgb(0,0,0)"  stroke-width="3"/>
<line x1="400.2" y1="404.2" x2="411.4" y2="429.3" opacity="1.0" stroke="rgb(0,0,0)"  stroke-width="3"/>
<line x1="407.3" y1="437.8" x2="446.6" y2="441.9" opacity="1.0" stroke="rgb(0,0,0)"  stroke-width="3"/>
<line x1="469.8" y1="409.9" x2="453.7" y2="373.8" opacity="1.0" stroke="rgb(0,0,0)"  stroke-width="3"/>
<line x1="453.7" y1="373.8" x2="414.4" y2="369.6" opacity="1.0" stroke="rgb(0,0,0)"  stroke-width="3"/>
<line x1="447.0" y1="380.3" x2="419.6" y2="377.4" opacity="1.0" stroke="rgb(0,0,0)"  stroke-width="3"/>
<line x1="414.4" y1="369.6" x2="391.2" y2="401.6" opacity="1.0" stroke="rgb(0,0,0)"  stroke-width="3"/>
<line x1="571.7" y1="386.2" x2="594.9" y2="354.2" opacity="1.0" stroke="rgb(0,0,0)"  stroke-width="3"/>
<line x1="594.9" y1="354.2" x2="578.9" y2="318.1" opacity="1.0" stroke="rgb(0,0,0)"  stroke-width="3"/>
<line x1="585.9" y1="351.6" x2="574.7" y2="326.5" opacity="1.0" stroke="rgb(0,0,0)"  stroke-width="3"/>
<line x1="578.9" y1="318.1" x2="539.5" y2="313.9" opacity="1.0" stroke="rgb(0,0,0)"  stroke-width="3"/>
<line x1="539.5" y1="313.9" x2="516.3" y2="345.9" opacity="1.0" stroke="rgb(0,0,0)"  stroke-width="3"/>
<line x1="541.8" y1="323.0" x2="525.7" y2="345.3" opacity="1.0" stroke="rgb(0,0,0)"  stroke-width="3"/>
<line x1="516.3" y1="345.9" x2="532.4" y2="382.0" opacity="1.0" stroke="rgb(0,0,0)"  stroke-width="3"/>
<line x1="532.4" y1="382.0" x2="571.7" y2="386.2" opacity="1.0" stroke="rgb(0,0,0)"  stroke-width="3"/>
<line x1="539.1" y1="375.5" x2="566.5" y2="378.4" opacity="1.0" stroke="rgb(0,0,0)"  stroke-width="3"/>
<text x="371.090268" y="481.997689" fill="rgb(255,12,12)" stroke-width="0" font-weight="bold" font-size="25.92" >O</text>
<text x="364.797139" y="140.541393" fill="rgb(12,12,255)" stroke-width="0" font-weight="bold" font-size="25.92" >N</text>
<text x="367.819773" y="297.247636" fill="rgb(12,12,255)" stroke-width="0" font-weight="bold" font-size="25.92" >N</text>
<text x="230.435158" y="297.761856" fill="rgb(12,12,255)" stroke-width="0" font-weight="bold" font-size="25.92" >N</text>
<text x="297.754528" y="257.324582" fill="rgb(255,181,181)" stroke-width="0" font-weight="bold" font-size="25.92" >B</text>
</svg>
</g>
</svg>
