<?xml version="1.0"?>
<svg version="1.1" id="topsvg"
xmlns="http://www.w3.org/2000/svg" xmlns:xlink="http://www.w3.org/1999/xlink"
xmlns:cml="http://www.xml-cml.org/schema" x="0" y="0" width="200px" height="200px" viewBox="0 0 100 100">
<title>GD217.sdf - Open Babel Depiction</title>
<rect x="0" y="0" width="100" height="100" fill="white"/>
<g transform="translate(0,0)">
<svg width="100" height="100" x="0" y="0" viewBox="0 0 562.897 606.893"
font-family="sans-serif" stroke="rgb(0,0,0)" stroke-width="3"  stroke-linecap="round">
<line x1="335.5" y1="127.8" x2="351.8" y2="107.3" opacity="1.0" stroke="rgb(0,0,0)"  stroke-width="3"/>
<line x1="114.2" y1="347.5" x2="96.7" y2="382.6" opacity="1.0" stroke="rgb(0,0,0)"  stroke-width="3"/>
<line x1="282.0" y1="376.0" x2="288.9" y2="488.5" opacity="1.0" stroke="rgb(0,0,0)"  stroke-width="3"/>
<line x1="324.1" y1="506.0" x2="356.8" y2="484.3" opacity="1.0" stroke="rgb(0,0,0)"  stroke-width="3"/>
<line x1="422.3" y1="441.0" x2="455.0" y2="419.3" opacity="1.0" stroke="rgb(0,0,0)"  stroke-width="3"/>
<line x1="149.2" y1="277.2" x2="171.8" y2="245.0" opacity="1.0" stroke="rgb(0,0,0)"  stroke-width="3"/>
<line x1="171.8" y1="245.0" x2="206.9" y2="262.5" opacity="1.0" stroke="rgb(0,0,0)"  stroke-width="3"/>
<line x1="173.9" y1="254.1" x2="198.3" y2="266.3" opacity="1.0" stroke="rgb(0,0,0)"  stroke-width="3"/>
<line x1="206.9" y1="262.5" x2="208.5" y2="288.8" opacity="1.0" stroke="rgb(0,0,0)"  stroke-width="3"/>
<line x1="196.6" y1="304.4" x2="170.9" y2="309.9" opacity="1.0" stroke="rgb(0,0,0)"  stroke-width="3"/>
<line x1="170.9" y1="309.9" x2="149.2" y2="277.2" opacity="1.0" stroke="rgb(0,0,0)"  stroke-width="3"/>
<line x1="173.6" y1="300.9" x2="158.6" y2="278.2" opacity="1.0" stroke="rgb(0,0,0)"  stroke-width="3"/>
<line x1="401.7" y1="261.7" x2="384.2" y2="296.8" opacity="1.0" stroke="rgb(0,0,0)"  stroke-width="3"/>
<line x1="392.6" y1="263.9" x2="380.4" y2="288.3" opacity="1.0" stroke="rgb(0,0,0)"  stroke-width="3"/>
<line x1="384.2" y1="296.8" x2="358.0" y2="294.5" opacity="1.0" stroke="rgb(0,0,0)"  stroke-width="3"/>
<line x1="344.3" y1="280.4" x2="342.7" y2="254.2" opacity="1.0" stroke="rgb(0,0,0)"  stroke-width="3"/>
<line x1="342.7" y1="254.2" x2="375.4" y2="232.5" opacity="1.0" stroke="rgb(0,0,0)"  stroke-width="3"/>
<line x1="351.7" y1="256.9" x2="374.4" y2="241.9" opacity="1.0" stroke="rgb(0,0,0)"  stroke-width="3"/>
<line x1="375.4" y1="232.5" x2="401.7" y2="261.7" opacity="1.0" stroke="rgb(0,0,0)"  stroke-width="3"/>
<line x1="288.1" y1="136.3" x2="314.4" y2="137.4" opacity="1.0" stroke="rgb(0,0,0)"  stroke-width="3"/>
<line x1="330.9" y1="150.5" x2="337.9" y2="175.8" opacity="1.0" stroke="rgb(0,0,0)"  stroke-width="3"/>
<line x1="337.9" y1="175.8" x2="305.1" y2="197.5" opacity="1.0" stroke="rgb(0,0,0)"  stroke-width="3"/>
<line x1="305.1" y1="197.5" x2="274.4" y2="173.1" opacity="1.0" stroke="rgb(0,0,0)"  stroke-width="3"/>
<line x1="274.4" y1="173.1" x2="288.1" y2="136.3" opacity="1.0" stroke="rgb(0,0,0)"  stroke-width="3"/>
<line x1="283.2" y1="170.0" x2="292.8" y2="144.4" opacity="1.0" stroke="rgb(0,0,0)"  stroke-width="3"/>
<line x1="246.9" y1="358.4" x2="282.0" y2="376.0" opacity="1.0" stroke="rgb(0,0,0)"  stroke-width="3"/>
<line x1="282.0" y1="376.0" x2="314.8" y2="354.3" opacity="1.0" stroke="rgb(0,0,0)"  stroke-width="3"/>
<line x1="283.0" y1="366.6" x2="305.8" y2="351.6" opacity="1.0" stroke="rgb(0,0,0)"  stroke-width="3"/>
<line x1="314.8" y1="354.3" x2="312.3" y2="315.1" opacity="1.0" stroke="rgb(0,0,0)"  stroke-width="3"/>
<line x1="312.3" y1="315.1" x2="277.2" y2="297.6" opacity="1.0" stroke="rgb(0,0,0)"  stroke-width="3"/>
<line x1="303.8" y1="318.9" x2="279.4" y2="306.7" opacity="1.0" stroke="rgb(0,0,0)"  stroke-width="3"/>
<line x1="277.2" y1="297.6" x2="244.5" y2="319.2" opacity="1.0" stroke="rgb(0,0,0)"  stroke-width="3"/>
<line x1="244.5" y1="319.2" x2="246.9" y2="358.4" opacity="1.0" stroke="rgb(0,0,0)"  stroke-width="3"/>
<line x1="252.0" y1="324.8" x2="253.7" y2="352.0" opacity="1.0" stroke="rgb(0,0,0)"  stroke-width="3"/>
<line x1="206.9" y1="262.5" x2="239.7" y2="240.9" opacity="1.0" stroke="rgb(0,0,0)"  stroke-width="3"/>
<line x1="239.7" y1="240.9" x2="263.2" y2="252.6" opacity="1.0" stroke="rgb(0,0,0)"  stroke-width="3"/>
<line x1="275.6" y1="271.4" x2="277.2" y2="297.6" opacity="1.0" stroke="rgb(0,0,0)"  stroke-width="3"/>
<line x1="244.5" y1="319.2" x2="221.0" y2="307.5" opacity="1.0" stroke="rgb(0,0,0)"  stroke-width="3"/>
<line x1="131.8" y1="149.1" x2="164.6" y2="127.5" opacity="1.0" stroke="rgb(0,0,0)"  stroke-width="3"/>
<line x1="164.6" y1="127.5" x2="199.7" y2="145.0" opacity="1.0" stroke="rgb(0,0,0)"  stroke-width="3"/>
<line x1="166.7" y1="136.6" x2="191.1" y2="148.7" opacity="1.0" stroke="rgb(0,0,0)"  stroke-width="3"/>
<line x1="199.7" y1="145.0" x2="202.1" y2="184.2" opacity="1.0" stroke="rgb(0,0,0)"  stroke-width="3"/>
<line x1="202.1" y1="184.2" x2="169.4" y2="205.8" opacity="1.0" stroke="rgb(0,0,0)"  stroke-width="3"/>
<line x1="193.1" y1="181.5" x2="170.4" y2="196.5" opacity="1.0" stroke="rgb(0,0,0)"  stroke-width="3"/>
<line x1="169.4" y1="205.8" x2="134.2" y2="188.3" opacity="1.0" stroke="rgb(0,0,0)"  stroke-width="3"/>
<line x1="134.2" y1="188.3" x2="131.8" y2="149.1" opacity="1.0" stroke="rgb(0,0,0)"  stroke-width="3"/>
<line x1="141.1" y1="181.9" x2="139.4" y2="154.7" opacity="1.0" stroke="rgb(0,0,0)"  stroke-width="3"/>
<line x1="114.2" y1="347.5" x2="92.5" y2="314.7" opacity="1.0" stroke="rgb(0,0,0)"  stroke-width="3"/>
<line x1="92.5" y1="314.7" x2="110.1" y2="279.6" opacity="1.0" stroke="rgb(0,0,0)"  stroke-width="3"/>
<line x1="101.7" y1="312.6" x2="113.8" y2="288.2" opacity="1.0" stroke="rgb(0,0,0)"  stroke-width="3"/>
<line x1="110.1" y1="279.6" x2="149.2" y2="277.2" opacity="1.0" stroke="rgb(0,0,0)"  stroke-width="3"/>
<line x1="170.9" y1="309.9" x2="153.4" y2="345.1" opacity="1.0" stroke="rgb(0,0,0)"  stroke-width="3"/>
<line x1="153.4" y1="345.1" x2="114.2" y2="347.5" opacity="1.0" stroke="rgb(0,0,0)"  stroke-width="3"/>
<line x1="147.0" y1="338.2" x2="119.8" y2="339.9" opacity="1.0" stroke="rgb(0,0,0)"  stroke-width="3"/>
<line x1="334.2" y1="300.6" x2="312.3" y2="315.1" opacity="1.0" stroke="rgb(0,0,0)"  stroke-width="3"/>
<line x1="285.6" y1="251.2" x2="307.5" y2="236.7" opacity="1.0" stroke="rgb(0,0,0)"  stroke-width="3"/>
<line x1="307.5" y1="236.7" x2="342.7" y2="254.2" opacity="1.0" stroke="rgb(0,0,0)"  stroke-width="3"/>
<line x1="462.6" y1="292.0" x2="445.1" y2="327.2" opacity="1.0" stroke="rgb(0,0,0)"  stroke-width="3"/>
<line x1="445.1" y1="327.2" x2="405.9" y2="329.6" opacity="1.0" stroke="rgb(0,0,0)"  stroke-width="3"/>
<line x1="438.6" y1="320.4" x2="411.4" y2="322.0" opacity="1.0" stroke="rgb(0,0,0)"  stroke-width="3"/>
<line x1="405.9" y1="329.6" x2="384.2" y2="296.8" opacity="1.0" stroke="rgb(0,0,0)"  stroke-width="3"/>
<line x1="401.7" y1="261.7" x2="440.9" y2="259.3" opacity="1.0" stroke="rgb(0,0,0)"  stroke-width="3"/>
<line x1="440.9" y1="259.3" x2="462.6" y2="292.0" opacity="1.0" stroke="rgb(0,0,0)"  stroke-width="3"/>
<line x1="438.2" y1="268.3" x2="453.3" y2="291.0" opacity="1.0" stroke="rgb(0,0,0)"  stroke-width="3"/>
<line x1="171.8" y1="245.0" x2="169.4" y2="205.8" opacity="1.0" stroke="rgb(0,0,0)"  stroke-width="3"/>
<line x1="202.1" y1="184.2" x2="237.3" y2="201.7" opacity="1.0" stroke="rgb(0,0,0)"  stroke-width="3"/>
<line x1="237.3" y1="201.7" x2="239.7" y2="240.9" opacity="1.0" stroke="rgb(0,0,0)"  stroke-width="3"/>
<line x1="230.4" y1="208.1" x2="232.1" y2="235.3" opacity="1.0" stroke="rgb(0,0,0)"  stroke-width="3"/>
<line x1="305.1" y1="197.5" x2="307.5" y2="236.7" opacity="1.0" stroke="rgb(0,0,0)"  stroke-width="3"/>
<line x1="312.7" y1="203.1" x2="314.4" y2="230.3" opacity="1.0" stroke="rgb(0,0,0)"  stroke-width="3"/>
<line x1="375.4" y1="232.5" x2="373.0" y2="193.3" opacity="1.0" stroke="rgb(0,0,0)"  stroke-width="3"/>
<line x1="373.0" y1="193.3" x2="337.9" y2="175.8" opacity="1.0" stroke="rgb(0,0,0)"  stroke-width="3"/>
<line x1="364.4" y1="197.1" x2="340.0" y2="185.0" opacity="1.0" stroke="rgb(0,0,0)"  stroke-width="3"/>
<line x1="210.7" y1="149.3" x2="235.7" y2="179.6" opacity="1.0" stroke="rgb(0,0,0)"  stroke-width="3"/>
<line x1="220.1" y1="149.3" x2="237.4" y2="170.3" opacity="1.0" stroke="rgb(0,0,0)"  stroke-width="3"/>
<line x1="235.7" y1="179.6" x2="274.4" y2="173.1" opacity="1.0" stroke="rgb(0,0,0)"  stroke-width="3"/>
<line x1="288.1" y1="136.3" x2="263.2" y2="106.0" opacity="1.0" stroke="rgb(0,0,0)"  stroke-width="3"/>
<line x1="263.2" y1="106.0" x2="224.4" y2="112.5" opacity="1.0" stroke="rgb(0,0,0)"  stroke-width="3"/>
<line x1="258.4" y1="114.1" x2="231.5" y2="118.6" opacity="1.0" stroke="rgb(0,0,0)"  stroke-width="3"/>
<line x1="224.4" y1="112.5" x2="210.7" y2="149.3" opacity="1.0" stroke="rgb(0,0,0)"  stroke-width="3"/>
<line x1="390.6" y1="113.1" x2="415.1" y2="82.3" opacity="1.0" stroke="rgb(0,0,0)"  stroke-width="3"/>
<line x1="415.1" y1="82.3" x2="400.7" y2="45.8" opacity="1.0" stroke="rgb(0,0,0)"  stroke-width="3"/>
<line x1="406.2" y1="79.4" x2="396.2" y2="54.0" opacity="1.0" stroke="rgb(0,0,0)"  stroke-width="3"/>
<line x1="400.7" y1="45.8" x2="361.9" y2="40.0" opacity="1.0" stroke="rgb(0,0,0)"  stroke-width="3"/>
<line x1="361.9" y1="40.0" x2="337.4" y2="70.7" opacity="1.0" stroke="rgb(0,0,0)"  stroke-width="3"/>
<line x1="363.8" y1="49.2" x2="346.8" y2="70.5" opacity="1.0" stroke="rgb(0,0,0)"  stroke-width="3"/>
<line x1="337.4" y1="70.7" x2="351.8" y2="107.3" opacity="1.0" stroke="rgb(0,0,0)"  stroke-width="3"/>
<line x1="351.8" y1="107.3" x2="390.6" y2="113.1" opacity="1.0" stroke="rgb(0,0,0)"  stroke-width="3"/>
<line x1="358.8" y1="101.0" x2="385.8" y2="105.1" opacity="1.0" stroke="rgb(0,0,0)"  stroke-width="3"/>
<line x1="57.5" y1="385.0" x2="40.0" y2="420.2" opacity="1.0" stroke="rgb(0,0,0)"  stroke-width="3"/>
<line x1="40.0" y1="420.2" x2="61.7" y2="452.9" opacity="1.0" stroke="rgb(0,0,0)"  stroke-width="3"/>
<line x1="49.3" y1="421.2" x2="64.4" y2="443.9" opacity="1.0" stroke="rgb(0,0,0)"  stroke-width="3"/>
<line x1="61.7" y1="452.9" x2="100.9" y2="450.5" opacity="1.0" stroke="rgb(0,0,0)"  stroke-width="3"/>
<line x1="100.9" y1="450.5" x2="118.4" y2="415.4" opacity="1.0" stroke="rgb(0,0,0)"  stroke-width="3"/>
<line x1="97.1" y1="441.9" x2="109.3" y2="417.5" opacity="1.0" stroke="rgb(0,0,0)"  stroke-width="3"/>
<line x1="118.4" y1="415.4" x2="96.7" y2="382.6" opacity="1.0" stroke="rgb(0,0,0)"  stroke-width="3"/>
<line x1="96.7" y1="382.6" x2="57.5" y2="385.0" opacity="1.0" stroke="rgb(0,0,0)"  stroke-width="3"/>
<line x1="91.2" y1="390.2" x2="63.9" y2="391.8" opacity="1.0" stroke="rgb(0,0,0)"  stroke-width="3"/>
<line x1="256.2" y1="510.2" x2="258.6" y2="549.4" opacity="1.0" stroke="rgb(0,0,0)"  stroke-width="3"/>
<line x1="258.6" y1="549.4" x2="293.7" y2="566.9" opacity="1.0" stroke="rgb(0,0,0)"  stroke-width="3"/>
<line x1="267.2" y1="545.6" x2="291.6" y2="557.8" opacity="1.0" stroke="rgb(0,0,0)"  stroke-width="3"/>
<line x1="293.7" y1="566.9" x2="326.5" y2="545.2" opacity="1.0" stroke="rgb(0,0,0)"  stroke-width="3"/>
<line x1="326.5" y1="545.2" x2="324.1" y2="506.0" opacity="1.0" stroke="rgb(0,0,0)"  stroke-width="3"/>
<line x1="318.9" y1="539.7" x2="317.2" y2="512.5" opacity="1.0" stroke="rgb(0,0,0)"  stroke-width="3"/>
<line x1="324.1" y1="506.0" x2="288.9" y2="488.5" opacity="1.0" stroke="rgb(0,0,0)"  stroke-width="3"/>
<line x1="288.9" y1="488.5" x2="256.2" y2="510.2" opacity="1.0" stroke="rgb(0,0,0)"  stroke-width="3"/>
<line x1="287.9" y1="497.8" x2="265.2" y2="512.9" opacity="1.0" stroke="rgb(0,0,0)"  stroke-width="3"/>
<line x1="391.9" y1="501.9" x2="424.7" y2="480.2" opacity="1.0" stroke="rgb(0,0,0)"  stroke-width="3"/>
<line x1="424.7" y1="480.2" x2="422.3" y2="441.0" opacity="1.0" stroke="rgb(0,0,0)"  stroke-width="3"/>
<line x1="417.1" y1="474.6" x2="415.5" y2="447.4" opacity="1.0" stroke="rgb(0,0,0)"  stroke-width="3"/>
<line x1="422.3" y1="441.0" x2="387.1" y2="423.5" opacity="1.0" stroke="rgb(0,0,0)"  stroke-width="3"/>
<line x1="387.1" y1="423.5" x2="354.4" y2="445.2" opacity="1.0" stroke="rgb(0,0,0)"  stroke-width="3"/>
<line x1="386.1" y1="432.8" x2="363.4" y2="447.8" opacity="1.0" stroke="rgb(0,0,0)"  stroke-width="3"/>
<line x1="354.4" y1="445.2" x2="356.8" y2="484.3" opacity="1.0" stroke="rgb(0,0,0)"  stroke-width="3"/>
<line x1="356.8" y1="484.3" x2="391.9" y2="501.9" opacity="1.0" stroke="rgb(0,0,0)"  stroke-width="3"/>
<line x1="365.4" y1="480.6" x2="389.8" y2="492.7" opacity="1.0" stroke="rgb(0,0,0)"  stroke-width="3"/>
<line x1="462.2" y1="536.9" x2="459.8" y2="497.7" opacity="1.0" stroke="rgb(0,0,0)"  stroke-width="3"/>
<line x1="454.7" y1="531.3" x2="453.0" y2="504.1" opacity="1.0" stroke="rgb(0,0,0)"  stroke-width="3"/>
<line x1="459.8" y1="497.7" x2="424.7" y2="480.2" opacity="1.0" stroke="rgb(0,0,0)"  stroke-width="3"/>
<line x1="391.9" y1="501.9" x2="394.3" y2="541.1" opacity="1.0" stroke="rgb(0,0,0)"  stroke-width="3"/>
<line x1="394.3" y1="541.1" x2="429.5" y2="558.6" opacity="1.0" stroke="rgb(0,0,0)"  stroke-width="3"/>
<line x1="402.9" y1="537.3" x2="427.3" y2="549.4" opacity="1.0" stroke="rgb(0,0,0)"  stroke-width="3"/>
<line x1="429.5" y1="558.6" x2="462.2" y2="536.9" opacity="1.0" stroke="rgb(0,0,0)"  stroke-width="3"/>
<line x1="316.8" y1="388.4" x2="319.3" y2="427.6" opacity="1.0" stroke="rgb(0,0,0)"  stroke-width="3"/>
<line x1="324.4" y1="394.0" x2="326.1" y2="421.2" opacity="1.0" stroke="rgb(0,0,0)"  stroke-width="3"/>
<line x1="319.3" y1="427.6" x2="354.4" y2="445.2" opacity="1.0" stroke="rgb(0,0,0)"  stroke-width="3"/>
<line x1="387.1" y1="423.5" x2="384.7" y2="384.3" opacity="1.0" stroke="rgb(0,0,0)"  stroke-width="3"/>
<line x1="384.7" y1="384.3" x2="349.6" y2="366.8" opacity="1.0" stroke="rgb(0,0,0)"  stroke-width="3"/>
<line x1="376.1" y1="388.1" x2="351.7" y2="375.9" opacity="1.0" stroke="rgb(0,0,0)"  stroke-width="3"/>
<line x1="349.6" y1="366.8" x2="316.8" y2="388.4" opacity="1.0" stroke="rgb(0,0,0)"  stroke-width="3"/>
<line x1="490.2" y1="436.8" x2="522.9" y2="415.1" opacity="1.0" stroke="rgb(0,0,0)"  stroke-width="3"/>
<line x1="522.9" y1="415.1" x2="520.5" y2="376.0" opacity="1.0" stroke="rgb(0,0,0)"  stroke-width="3"/>
<line x1="515.3" y1="409.6" x2="513.7" y2="382.4" opacity="1.0" stroke="rgb(0,0,0)"  stroke-width="3"/>
<line x1="520.5" y1="376.0" x2="485.4" y2="358.4" opacity="1.0" stroke="rgb(0,0,0)"  stroke-width="3"/>
<line x1="485.4" y1="358.4" x2="452.6" y2="380.1" opacity="1.0" stroke="rgb(0,0,0)"  stroke-width="3"/>
<line x1="484.3" y1="367.8" x2="461.6" y2="382.8" opacity="1.0" stroke="rgb(0,0,0)"  stroke-width="3"/>
<line x1="452.6" y1="380.1" x2="455.0" y2="419.3" opacity="1.0" stroke="rgb(0,0,0)"  stroke-width="3"/>
<line x1="455.0" y1="419.3" x2="490.2" y2="436.8" opacity="1.0" stroke="rgb(0,0,0)"  stroke-width="3"/>
<line x1="463.6" y1="415.5" x2="488.0" y2="427.7" opacity="1.0" stroke="rgb(0,0,0)"  stroke-width="3"/>
<text x="268.802532" y="266.378592" fill="rgb(255,181,181)" stroke-width="0" font-weight="bold" font-size="25.92" >B</text>
<text x="203.325227" y="309.733748" fill="rgb(12,12,255)" stroke-width="0" font-weight="bold" font-size="25.92" >N</text>
<text x="321.376025" y="145.997074" fill="rgb(12,12,255)" stroke-width="0" font-weight="bold" font-size="25.92" >N</text>
<text x="339.087852" y="301.405985" fill="rgb(12,12,255)" stroke-width="0" font-weight="bold" font-size="25.92" >N</text>
</svg>
</g>
</svg>
