<?xml version="1.0"?>
<svg version="1.1" id="topsvg"
xmlns="http://www.w3.org/2000/svg" xmlns:xlink="http://www.w3.org/1999/xlink"
xmlns:cml="http://www.xml-cml.org/schema" x="0" y="0" width="200px" height="200px" viewBox="0 0 100 100">
<title>GD211.sdf - Open Babel Depiction</title>
<rect x="0" y="0" width="100" height="100" fill="white"/>
<g transform="translate(0,0)">
<svg width="100" height="100" x="0" y="0" viewBox="0 0 562.927 501.965"
font-family="sans-serif" stroke="rgb(0,0,0)" stroke-width="3"  stroke-linecap="round">
<line x1="157.2" y1="236.8" x2="118.2" y2="235.3" opacity="1.0" stroke="rgb(0,0,0)"  stroke-width="3"/>
<line x1="154.7" y1="304.4" x2="175.5" y2="271.3" opacity="1.0" stroke="rgb(0,0,0)"  stroke-width="3"/>
<line x1="432.9" y1="164.3" x2="455.1" y2="178.3" opacity="1.0" stroke="rgb(0,0,0)"  stroke-width="3"/>
<line x1="157.2" y1="236.8" x2="182.7" y2="207.1" opacity="1.0" stroke="rgb(0,0,0)"  stroke-width="3"/>
<line x1="182.7" y1="207.1" x2="215.8" y2="227.9" opacity="1.0" stroke="rgb(0,0,0)"  stroke-width="3"/>
<line x1="215.8" y1="227.9" x2="214.8" y2="254.0" opacity="1.0" stroke="rgb(0,0,0)"  stroke-width="3"/>
<line x1="201.4" y1="268.5" x2="175.5" y2="271.3" opacity="1.0" stroke="rgb(0,0,0)"  stroke-width="3"/>
<line x1="175.5" y1="271.3" x2="157.2" y2="236.8" opacity="1.0" stroke="rgb(0,0,0)"  stroke-width="3"/>
<line x1="179.1" y1="262.7" x2="166.4" y2="238.7" opacity="1.0" stroke="rgb(0,0,0)"  stroke-width="3"/>
<line x1="410.5" y1="254.8" x2="385.7" y2="214.8" opacity="1.0" stroke="rgb(0,0,0)"  stroke-width="3"/>
<line x1="385.7" y1="214.8" x2="351.2" y2="233.0" opacity="1.0" stroke="rgb(0,0,0)"  stroke-width="3"/>
<line x1="351.2" y1="233.0" x2="350.2" y2="259.1" opacity="1.0" stroke="rgb(0,0,0)"  stroke-width="3"/>
<line x1="361.9" y1="276.6" x2="386.4" y2="285.6" opacity="1.0" stroke="rgb(0,0,0)"  stroke-width="3"/>
<line x1="386.4" y1="285.6" x2="410.5" y2="254.8" opacity="1.0" stroke="rgb(0,0,0)"  stroke-width="3"/>
<line x1="384.4" y1="276.4" x2="401.2" y2="255.1" opacity="1.0" stroke="rgb(0,0,0)"  stroke-width="3"/>
<line x1="423.4" y1="118.2" x2="387.9" y2="101.4" opacity="1.0" stroke="rgb(0,0,0)"  stroke-width="3"/>
<line x1="387.9" y1="101.4" x2="354.1" y2="154.9" opacity="1.0" stroke="rgb(0,0,0)"  stroke-width="3"/>
<line x1="354.1" y1="154.9" x2="387.2" y2="175.7" opacity="1.0" stroke="rgb(0,0,0)"  stroke-width="3"/>
<line x1="387.2" y1="175.7" x2="410.4" y2="163.5" opacity="1.0" stroke="rgb(0,0,0)"  stroke-width="3"/>
<line x1="422.4" y1="144.4" x2="423.4" y2="118.2" opacity="1.0" stroke="rgb(0,0,0)"  stroke-width="3"/>
<line x1="246.0" y1="326.9" x2="279.1" y2="347.7" opacity="1.0" stroke="rgb(0,0,0)"  stroke-width="3"/>
<line x1="279.1" y1="347.7" x2="313.6" y2="329.4" opacity="1.0" stroke="rgb(0,0,0)"  stroke-width="3"/>
<line x1="281.0" y1="338.5" x2="305.0" y2="325.9" opacity="1.0" stroke="rgb(0,0,0)"  stroke-width="3"/>
<line x1="313.6" y1="329.4" x2="315.1" y2="290.4" opacity="1.0" stroke="rgb(0,0,0)"  stroke-width="3"/>
<line x1="315.1" y1="290.4" x2="282.0" y2="269.6" opacity="1.0" stroke="rgb(0,0,0)"  stroke-width="3"/>
<line x1="306.2" y1="293.3" x2="283.3" y2="278.8" opacity="1.0" stroke="rgb(0,0,0)"  stroke-width="3"/>
<line x1="282.0" y1="269.6" x2="247.5" y2="287.8" opacity="1.0" stroke="rgb(0,0,0)"  stroke-width="3"/>
<line x1="247.5" y1="287.8" x2="246.0" y2="326.9" opacity="1.0" stroke="rgb(0,0,0)"  stroke-width="3"/>
<line x1="254.4" y1="294.1" x2="253.4" y2="321.2" opacity="1.0" stroke="rgb(0,0,0)"  stroke-width="3"/>
<line x1="283.0" y1="243.5" x2="282.0" y2="269.6" opacity="1.0" stroke="rgb(0,0,0)"  stroke-width="3"/>
<line x1="247.5" y1="287.8" x2="225.4" y2="273.9" opacity="1.0" stroke="rgb(0,0,0)"  stroke-width="3"/>
<line x1="215.8" y1="227.9" x2="250.4" y2="209.7" opacity="1.0" stroke="rgb(0,0,0)"  stroke-width="3"/>
<line x1="224.5" y1="231.5" x2="248.5" y2="218.9" opacity="1.0" stroke="rgb(0,0,0)"  stroke-width="3"/>
<line x1="250.4" y1="209.7" x2="272.5" y2="223.6" opacity="1.0" stroke="rgb(0,0,0)"  stroke-width="3"/>
<line x1="351.2" y1="233.0" x2="318.1" y2="212.2" opacity="1.0" stroke="rgb(0,0,0)"  stroke-width="3"/>
<line x1="342.2" y1="235.9" x2="319.3" y2="221.5" opacity="1.0" stroke="rgb(0,0,0)"  stroke-width="3"/>
<line x1="318.1" y1="212.2" x2="295.0" y2="224.4" opacity="1.0" stroke="rgb(0,0,0)"  stroke-width="3"/>
<line x1="315.1" y1="290.4" x2="338.2" y2="278.2" opacity="1.0" stroke="rgb(0,0,0)"  stroke-width="3"/>
<line x1="354.1" y1="154.9" x2="319.5" y2="173.2" opacity="1.0" stroke="rgb(0,0,0)"  stroke-width="3"/>
<line x1="352.2" y1="164.1" x2="328.2" y2="176.7" opacity="1.0" stroke="rgb(0,0,0)"  stroke-width="3"/>
<line x1="319.5" y1="173.2" x2="318.1" y2="212.2" opacity="1.0" stroke="rgb(0,0,0)"  stroke-width="3"/>
<line x1="385.7" y1="214.8" x2="387.2" y2="175.7" opacity="1.0" stroke="rgb(0,0,0)"  stroke-width="3"/>
<line x1="378.7" y1="208.5" x2="379.8" y2="181.4" opacity="1.0" stroke="rgb(0,0,0)"  stroke-width="3"/>
<line x1="182.7" y1="207.1" x2="184.2" y2="168.1" opacity="1.0" stroke="rgb(0,0,0)"  stroke-width="3"/>
<line x1="190.2" y1="201.4" x2="191.2" y2="174.3" opacity="1.0" stroke="rgb(0,0,0)"  stroke-width="3"/>
<line x1="184.2" y1="168.1" x2="218.8" y2="149.8" opacity="1.0" stroke="rgb(0,0,0)"  stroke-width="3"/>
<line x1="218.8" y1="149.8" x2="251.9" y2="170.6" opacity="1.0" stroke="rgb(0,0,0)"  stroke-width="3"/>
<line x1="220.0" y1="159.1" x2="243.0" y2="173.5" opacity="1.0" stroke="rgb(0,0,0)"  stroke-width="3"/>
<line x1="251.9" y1="170.6" x2="250.4" y2="209.7" opacity="1.0" stroke="rgb(0,0,0)"  stroke-width="3"/>
<line x1="251.9" y1="92.5" x2="286.4" y2="113.3" opacity="1.0" stroke="rgb(0,0,0)"  stroke-width="3"/>
<line x1="286.4" y1="113.3" x2="286.4" y2="152.4" opacity="1.0" stroke="rgb(0,0,0)"  stroke-width="3"/>
<line x1="279.2" y1="119.3" x2="279.2" y2="146.4" opacity="1.0" stroke="rgb(0,0,0)"  stroke-width="3"/>
<line x1="286.4" y1="152.4" x2="251.9" y2="170.6" opacity="1.0" stroke="rgb(0,0,0)"  stroke-width="3"/>
<line x1="218.8" y1="149.8" x2="218.8" y2="110.8" opacity="1.0" stroke="rgb(0,0,0)"  stroke-width="3"/>
<line x1="218.8" y1="110.8" x2="251.9" y2="92.5" opacity="1.0" stroke="rgb(0,0,0)"  stroke-width="3"/>
<line x1="227.5" y1="114.2" x2="250.1" y2="101.7" opacity="1.0" stroke="rgb(0,0,0)"  stroke-width="3"/>
<line x1="463.8" y1="296.7" x2="449.2" y2="260.4" opacity="1.0" stroke="rgb(0,0,0)"  stroke-width="3"/>
<line x1="454.9" y1="293.8" x2="444.8" y2="268.6" opacity="1.0" stroke="rgb(0,0,0)"  stroke-width="3"/>
<line x1="449.2" y1="260.4" x2="410.5" y2="254.8" opacity="1.0" stroke="rgb(0,0,0)"  stroke-width="3"/>
<line x1="386.4" y1="285.6" x2="400.9" y2="321.9" opacity="1.0" stroke="rgb(0,0,0)"  stroke-width="3"/>
<line x1="400.9" y1="321.9" x2="439.6" y2="327.4" opacity="1.0" stroke="rgb(0,0,0)"  stroke-width="3"/>
<line x1="407.9" y1="315.6" x2="434.7" y2="319.4" opacity="1.0" stroke="rgb(0,0,0)"  stroke-width="3"/>
<line x1="439.6" y1="327.4" x2="463.8" y2="296.7" opacity="1.0" stroke="rgb(0,0,0)"  stroke-width="3"/>
<line x1="256.2" y1="444.7" x2="293.8" y2="455.5" opacity="1.0" stroke="rgb(0,0,0)"  stroke-width="3"/>
<line x1="264.0" y1="439.4" x2="290.0" y2="446.9" opacity="1.0" stroke="rgb(0,0,0)"  stroke-width="3"/>
<line x1="293.8" y1="455.5" x2="321.9" y2="428.4" opacity="1.0" stroke="rgb(0,0,0)"  stroke-width="3"/>
<line x1="321.9" y1="428.4" x2="312.5" y2="390.4" opacity="1.0" stroke="rgb(0,0,0)"  stroke-width="3"/>
<line x1="313.5" y1="424.3" x2="307.0" y2="398.0" opacity="1.0" stroke="rgb(0,0,0)"  stroke-width="3"/>
<line x1="312.5" y1="390.4" x2="274.9" y2="379.6" opacity="1.0" stroke="rgb(0,0,0)"  stroke-width="3"/>
<line x1="274.9" y1="379.6" x2="246.8" y2="406.8" opacity="1.0" stroke="rgb(0,0,0)"  stroke-width="3"/>
<line x1="275.6" y1="389.0" x2="256.1" y2="407.8" opacity="1.0" stroke="rgb(0,0,0)"  stroke-width="3"/>
<line x1="246.8" y1="406.8" x2="256.2" y2="444.7" opacity="1.0" stroke="rgb(0,0,0)"  stroke-width="3"/>
<line x1="438.4" y1="420.3" x2="414.3" y2="389.5" opacity="1.0" stroke="rgb(0,0,0)"  stroke-width="3"/>
<line x1="429.0" y1="420.0" x2="412.3" y2="398.7" opacity="1.0" stroke="rgb(0,0,0)"  stroke-width="3"/>
<line x1="414.3" y1="389.5" x2="375.6" y2="394.9" opacity="1.0" stroke="rgb(0,0,0)"  stroke-width="3"/>
<line x1="375.6" y1="394.9" x2="360.9" y2="431.1" opacity="1.0" stroke="rgb(0,0,0)"  stroke-width="3"/>
<line x1="380.0" y1="403.2" x2="369.9" y2="428.3" opacity="1.0" stroke="rgb(0,0,0)"  stroke-width="3"/>
<line x1="360.9" y1="431.1" x2="385.0" y2="462.0" opacity="1.0" stroke="rgb(0,0,0)"  stroke-width="3"/>
<line x1="385.0" y1="462.0" x2="423.7" y2="456.6" opacity="1.0" stroke="rgb(0,0,0)"  stroke-width="3"/>
<line x1="389.9" y1="454.0" x2="416.7" y2="450.3" opacity="1.0" stroke="rgb(0,0,0)"  stroke-width="3"/>
<line x1="423.7" y1="456.6" x2="438.4" y2="420.3" opacity="1.0" stroke="rgb(0,0,0)"  stroke-width="3"/>
<line x1="417.0" y1="40.0" x2="384.8" y2="62.3" opacity="1.0" stroke="rgb(0,0,0)"  stroke-width="3"/>
<line x1="384.8" y1="62.3" x2="387.9" y2="101.4" opacity="1.0" stroke="rgb(0,0,0)"  stroke-width="3"/>
<line x1="392.4" y1="67.7" x2="394.6" y2="94.8" opacity="1.0" stroke="rgb(0,0,0)"  stroke-width="3"/>
<line x1="423.4" y1="118.2" x2="455.6" y2="95.9" opacity="1.0" stroke="rgb(0,0,0)"  stroke-width="3"/>
<line x1="424.2" y1="108.9" x2="446.6" y2="93.4" opacity="1.0" stroke="rgb(0,0,0)"  stroke-width="3"/>
<line x1="455.6" y1="95.9" x2="452.5" y2="56.8" opacity="1.0" stroke="rgb(0,0,0)"  stroke-width="3"/>
<line x1="452.5" y1="56.8" x2="417.0" y2="40.0" opacity="1.0" stroke="rgb(0,0,0)"  stroke-width="3"/>
<line x1="444.0" y1="60.8" x2="419.4" y2="49.1" opacity="1.0" stroke="rgb(0,0,0)"  stroke-width="3"/>
<line x1="452.9" y1="217.5" x2="485.7" y2="238.9" opacity="1.0" stroke="rgb(0,0,0)"  stroke-width="3"/>
<line x1="485.7" y1="238.9" x2="520.7" y2="221.2" opacity="1.0" stroke="rgb(0,0,0)"  stroke-width="3"/>
<line x1="487.8" y1="229.8" x2="512.1" y2="217.5" opacity="1.0" stroke="rgb(0,0,0)"  stroke-width="3"/>
<line x1="520.7" y1="221.2" x2="522.9" y2="182.1" opacity="1.0" stroke="rgb(0,0,0)"  stroke-width="3"/>
<line x1="522.9" y1="182.1" x2="490.1" y2="160.6" opacity="1.0" stroke="rgb(0,0,0)"  stroke-width="3"/>
<line x1="514.0" y1="184.8" x2="491.2" y2="169.9" opacity="1.0" stroke="rgb(0,0,0)"  stroke-width="3"/>
<line x1="490.1" y1="160.6" x2="455.1" y2="178.3" opacity="1.0" stroke="rgb(0,0,0)"  stroke-width="3"/>
<line x1="455.1" y1="178.3" x2="452.9" y2="217.5" opacity="1.0" stroke="rgb(0,0,0)"  stroke-width="3"/>
<line x1="461.9" y1="184.7" x2="460.4" y2="211.9" opacity="1.0" stroke="rgb(0,0,0)"  stroke-width="3"/>
<line x1="98.5" y1="201.6" x2="59.4" y2="201.6" opacity="1.0" stroke="rgb(0,0,0)"  stroke-width="3"/>
<line x1="59.4" y1="201.6" x2="40.0" y2="235.3" opacity="1.0" stroke="rgb(0,0,0)"  stroke-width="3"/>
<line x1="62.6" y1="210.3" x2="49.2" y2="233.7" opacity="1.0" stroke="rgb(0,0,0)"  stroke-width="3"/>
<line x1="40.0" y1="235.3" x2="59.4" y2="269.1" opacity="1.0" stroke="rgb(0,0,0)"  stroke-width="3"/>
<line x1="59.4" y1="269.1" x2="98.5" y2="269.1" opacity="1.0" stroke="rgb(0,0,0)"  stroke-width="3"/>
<line x1="65.4" y1="261.9" x2="92.5" y2="261.9" opacity="1.0" stroke="rgb(0,0,0)"  stroke-width="3"/>
<line x1="98.5" y1="269.1" x2="118.2" y2="235.3" opacity="1.0" stroke="rgb(0,0,0)"  stroke-width="3"/>
<line x1="118.2" y1="235.3" x2="98.5" y2="201.6" opacity="1.0" stroke="rgb(0,0,0)"  stroke-width="3"/>
<line x1="108.9" y1="233.8" x2="95.3" y2="210.4" opacity="1.0" stroke="rgb(0,0,0)"  stroke-width="3"/>
<line x1="115.7" y1="302.3" x2="94.3" y2="335.0" opacity="1.0" stroke="rgb(0,0,0)"  stroke-width="3"/>
<line x1="94.3" y1="335.0" x2="111.9" y2="369.9" opacity="1.0" stroke="rgb(0,0,0)"  stroke-width="3"/>
<line x1="103.4" y1="337.1" x2="115.6" y2="361.3" opacity="1.0" stroke="rgb(0,0,0)"  stroke-width="3"/>
<line x1="111.9" y1="369.9" x2="150.9" y2="372.0" opacity="1.0" stroke="rgb(0,0,0)"  stroke-width="3"/>
<line x1="150.9" y1="372.0" x2="172.3" y2="339.3" opacity="1.0" stroke="rgb(0,0,0)"  stroke-width="3"/>
<line x1="148.2" y1="363.1" x2="163.0" y2="340.4" opacity="1.0" stroke="rgb(0,0,0)"  stroke-width="3"/>
<line x1="172.3" y1="339.3" x2="154.7" y2="304.4" opacity="1.0" stroke="rgb(0,0,0)"  stroke-width="3"/>
<line x1="154.7" y1="304.4" x2="115.7" y2="302.3" opacity="1.0" stroke="rgb(0,0,0)"  stroke-width="3"/>
<line x1="148.3" y1="311.3" x2="121.3" y2="309.8" opacity="1.0" stroke="rgb(0,0,0)"  stroke-width="3"/>
<line x1="321.9" y1="428.4" x2="360.9" y2="431.1" opacity="1.0" stroke="rgb(0,0,0)"  stroke-width="3"/>
<line x1="375.6" y1="394.9" x2="346.4" y2="360.0" opacity="1.0" stroke="rgb(0,0,0)"  stroke-width="3"/>
<line x1="346.4" y1="360.0" x2="312.5" y2="390.4" opacity="1.0" stroke="rgb(0,0,0)"  stroke-width="3"/>
<line x1="400.9" y1="321.9" x2="346.4" y2="360.0" opacity="1.0" stroke="rgb(0,0,0)"  stroke-width="3"/>
<line x1="346.4" y1="360.0" x2="313.6" y2="329.4" opacity="1.0" stroke="rgb(0,0,0)"  stroke-width="3"/>
<text x="415.879149" y="165.404691" fill="rgb(12,12,255)" stroke-width="0" font-weight="bold" font-size="25.92" >N</text>
<text x="208.358380" y="275.011247" fill="rgb(12,12,255)" stroke-width="0" font-weight="bold" font-size="25.92" >N</text>
<text x="343.679841" y="280.108615" fill="rgb(12,12,255)" stroke-width="0" font-weight="bold" font-size="25.92" >N</text>
<text x="277.490776" y="238.497968" fill="rgb(255,181,181)" stroke-width="0" font-weight="bold" font-size="25.92" >B</text>
</svg>
</g>
</svg>
