<?xml version="1.0"?>
<svg version="1.1" id="topsvg"
xmlns="http://www.w3.org/2000/svg" xmlns:xlink="http://www.w3.org/1999/xlink"
xmlns:cml="http://www.xml-cml.org/schema" x="0" y="0" width="200px" height="200px" viewBox="0 0 100 100">
<title>GD235.sdf - Open Babel Depiction</title>
<rect x="0" y="0" width="100" height="100" fill="white"/>
<g transform="translate(0,0)">
<svg width="100" height="100" x="0" y="0" viewBox="0 0 595.106 549.162"
font-family="sans-serif" stroke="rgb(0,0,0)" stroke-width="3"  stroke-linecap="round">
<line x1="410.8" y1="265.5" x2="420.2" y2="304.1" opacity="1.0" stroke="rgb(0,0,0)"  stroke-width="3"/>
<line x1="476.0" y1="238.3" x2="436.5" y2="235.3" opacity="1.0" stroke="rgb(0,0,0)"  stroke-width="3"/>
<line x1="307.8" y1="331.8" x2="308.9" y2="371.4" opacity="1.0" stroke="rgb(0,0,0)"  stroke-width="3"/>
<line x1="131.4" y1="162.5" x2="108.7" y2="176.5" opacity="1.0" stroke="rgb(0,0,0)"  stroke-width="3"/>
<line x1="173.6" y1="243.0" x2="192.5" y2="208.1" opacity="1.0" stroke="rgb(0,0,0)"  stroke-width="3"/>
<line x1="192.5" y1="208.1" x2="231.5" y2="215.2" opacity="1.0" stroke="rgb(0,0,0)"  stroke-width="3"/>
<line x1="197.1" y1="216.2" x2="224.3" y2="221.2" opacity="1.0" stroke="rgb(0,0,0)"  stroke-width="3"/>
<line x1="231.5" y1="215.2" x2="235.0" y2="241.6" opacity="1.0" stroke="rgb(0,0,0)"  stroke-width="3"/>
<line x1="225.1" y1="260.1" x2="201.0" y2="271.7" opacity="1.0" stroke="rgb(0,0,0)"  stroke-width="3"/>
<line x1="201.0" y1="271.7" x2="173.6" y2="243.0" opacity="1.0" stroke="rgb(0,0,0)"  stroke-width="3"/>
<line x1="202.1" y1="262.4" x2="183.0" y2="242.4" opacity="1.0" stroke="rgb(0,0,0)"  stroke-width="3"/>
<line x1="145.4" y1="116.1" x2="183.9" y2="106.7" opacity="1.0" stroke="rgb(0,0,0)"  stroke-width="3"/>
<line x1="152.9" y1="121.7" x2="179.8" y2="115.2" opacity="1.0" stroke="rgb(0,0,0)"  stroke-width="3"/>
<line x1="183.9" y1="106.7" x2="204.8" y2="140.5" opacity="1.0" stroke="rgb(0,0,0)"  stroke-width="3"/>
<line x1="204.8" y1="140.5" x2="179.1" y2="170.7" opacity="1.0" stroke="rgb(0,0,0)"  stroke-width="3"/>
<line x1="195.4" y1="140.4" x2="177.5" y2="161.5" opacity="1.0" stroke="rgb(0,0,0)"  stroke-width="3"/>
<line x1="179.1" y1="170.7" x2="154.4" y2="160.6" opacity="1.0" stroke="rgb(0,0,0)"  stroke-width="3"/>
<line x1="143.4" y1="142.7" x2="145.4" y2="116.1" opacity="1.0" stroke="rgb(0,0,0)"  stroke-width="3"/>
<line x1="410.8" y1="265.5" x2="436.5" y2="235.3" opacity="1.0" stroke="rgb(0,0,0)"  stroke-width="3"/>
<line x1="409.2" y1="256.3" x2="427.1" y2="235.2" opacity="1.0" stroke="rgb(0,0,0)"  stroke-width="3"/>
<line x1="436.5" y1="235.3" x2="415.6" y2="201.5" opacity="1.0" stroke="rgb(0,0,0)"  stroke-width="3"/>
<line x1="415.6" y1="201.5" x2="377.1" y2="210.9" opacity="1.0" stroke="rgb(0,0,0)"  stroke-width="3"/>
<line x1="411.5" y1="210.0" x2="384.6" y2="216.5" opacity="1.0" stroke="rgb(0,0,0)"  stroke-width="3"/>
<line x1="377.1" y1="210.9" x2="375.1" y2="237.5" opacity="1.0" stroke="rgb(0,0,0)"  stroke-width="3"/>
<line x1="386.1" y1="255.4" x2="410.8" y2="265.5" opacity="1.0" stroke="rgb(0,0,0)"  stroke-width="3"/>
<line x1="272.9" y1="313.0" x2="307.8" y2="331.8" opacity="1.0" stroke="rgb(0,0,0)"  stroke-width="3"/>
<line x1="307.8" y1="331.8" x2="341.5" y2="310.9" opacity="1.0" stroke="rgb(0,0,0)"  stroke-width="3"/>
<line x1="309.1" y1="322.5" x2="332.6" y2="308.0" opacity="1.0" stroke="rgb(0,0,0)"  stroke-width="3"/>
<line x1="341.5" y1="310.9" x2="340.4" y2="271.3" opacity="1.0" stroke="rgb(0,0,0)"  stroke-width="3"/>
<line x1="340.4" y1="271.3" x2="305.4" y2="252.5" opacity="1.0" stroke="rgb(0,0,0)"  stroke-width="3"/>
<line x1="331.7" y1="274.8" x2="307.3" y2="261.7" opacity="1.0" stroke="rgb(0,0,0)"  stroke-width="3"/>
<line x1="305.4" y1="252.5" x2="271.7" y2="273.3" opacity="1.0" stroke="rgb(0,0,0)"  stroke-width="3"/>
<line x1="271.7" y1="273.3" x2="272.9" y2="313.0" opacity="1.0" stroke="rgb(0,0,0)"  stroke-width="3"/>
<line x1="279.1" y1="279.1" x2="279.9" y2="306.7" opacity="1.0" stroke="rgb(0,0,0)"  stroke-width="3"/>
<line x1="231.5" y1="215.2" x2="257.1" y2="185.0" opacity="1.0" stroke="rgb(0,0,0)"  stroke-width="3"/>
<line x1="257.1" y1="185.0" x2="293.1" y2="206.2" opacity="1.0" stroke="rgb(0,0,0)"  stroke-width="3"/>
<line x1="304.7" y1="225.8" x2="305.4" y2="252.5" opacity="1.0" stroke="rgb(0,0,0)"  stroke-width="3"/>
<line x1="271.7" y1="273.3" x2="248.2" y2="260.7" opacity="1.0" stroke="rgb(0,0,0)"  stroke-width="3"/>
<line x1="129.2" y1="49.4" x2="167.7" y2="40.0" opacity="1.0" stroke="rgb(0,0,0)"  stroke-width="3"/>
<line x1="167.7" y1="40.0" x2="195.1" y2="68.7" opacity="1.0" stroke="rgb(0,0,0)"  stroke-width="3"/>
<line x1="166.6" y1="49.3" x2="185.7" y2="69.3" opacity="1.0" stroke="rgb(0,0,0)"  stroke-width="3"/>
<line x1="195.1" y1="68.7" x2="183.9" y2="106.7" opacity="1.0" stroke="rgb(0,0,0)"  stroke-width="3"/>
<line x1="145.4" y1="116.1" x2="118.0" y2="87.4" opacity="1.0" stroke="rgb(0,0,0)"  stroke-width="3"/>
<line x1="118.0" y1="87.4" x2="129.2" y2="49.4" opacity="1.0" stroke="rgb(0,0,0)"  stroke-width="3"/>
<line x1="126.6" y1="83.7" x2="134.4" y2="57.2" opacity="1.0" stroke="rgb(0,0,0)"  stroke-width="3"/>
<line x1="340.4" y1="271.3" x2="363.0" y2="257.3" opacity="1.0" stroke="rgb(0,0,0)"  stroke-width="3"/>
<line x1="377.1" y1="210.9" x2="349.7" y2="182.2" opacity="1.0" stroke="rgb(0,0,0)"  stroke-width="3"/>
<line x1="349.7" y1="182.2" x2="315.1" y2="205.6" opacity="1.0" stroke="rgb(0,0,0)"  stroke-width="3"/>
<line x1="399.4" y1="134.8" x2="360.9" y2="144.2" opacity="1.0" stroke="rgb(0,0,0)"  stroke-width="3"/>
<line x1="360.9" y1="144.2" x2="349.7" y2="182.2" opacity="1.0" stroke="rgb(0,0,0)"  stroke-width="3"/>
<line x1="366.1" y1="152.0" x2="358.3" y2="178.5" opacity="1.0" stroke="rgb(0,0,0)"  stroke-width="3"/>
<line x1="415.6" y1="201.5" x2="426.8" y2="163.5" opacity="1.0" stroke="rgb(0,0,0)"  stroke-width="3"/>
<line x1="426.8" y1="163.5" x2="399.4" y2="134.8" opacity="1.0" stroke="rgb(0,0,0)"  stroke-width="3"/>
<line x1="417.4" y1="164.1" x2="398.3" y2="144.1" opacity="1.0" stroke="rgb(0,0,0)"  stroke-width="3"/>
<line x1="344.6" y1="77.4" x2="383.1" y2="68.1" opacity="1.0" stroke="rgb(0,0,0)"  stroke-width="3"/>
<line x1="383.1" y1="68.1" x2="410.5" y2="96.7" opacity="1.0" stroke="rgb(0,0,0)"  stroke-width="3"/>
<line x1="382.1" y1="77.4" x2="401.2" y2="97.4" opacity="1.0" stroke="rgb(0,0,0)"  stroke-width="3"/>
<line x1="410.5" y1="96.7" x2="399.4" y2="134.8" opacity="1.0" stroke="rgb(0,0,0)"  stroke-width="3"/>
<line x1="360.9" y1="144.2" x2="333.5" y2="115.5" opacity="1.0" stroke="rgb(0,0,0)"  stroke-width="3"/>
<line x1="333.5" y1="115.5" x2="344.6" y2="77.4" opacity="1.0" stroke="rgb(0,0,0)"  stroke-width="3"/>
<line x1="342.1" y1="111.8" x2="349.8" y2="85.2" opacity="1.0" stroke="rgb(0,0,0)"  stroke-width="3"/>
<line x1="275.2" y1="392.2" x2="276.3" y2="431.9" opacity="1.0" stroke="rgb(0,0,0)"  stroke-width="3"/>
<line x1="276.3" y1="431.9" x2="311.2" y2="450.7" opacity="1.0" stroke="rgb(0,0,0)"  stroke-width="3"/>
<line x1="285.0" y1="428.4" x2="309.4" y2="441.5" opacity="1.0" stroke="rgb(0,0,0)"  stroke-width="3"/>
<line x1="311.2" y1="450.7" x2="345.0" y2="429.9" opacity="1.0" stroke="rgb(0,0,0)"  stroke-width="3"/>
<line x1="345.0" y1="429.9" x2="343.8" y2="390.2" opacity="1.0" stroke="rgb(0,0,0)"  stroke-width="3"/>
<line x1="337.6" y1="424.1" x2="336.8" y2="396.4" opacity="1.0" stroke="rgb(0,0,0)"  stroke-width="3"/>
<line x1="343.8" y1="390.2" x2="308.9" y2="371.4" opacity="1.0" stroke="rgb(0,0,0)"  stroke-width="3"/>
<line x1="308.9" y1="371.4" x2="275.2" y2="392.2" opacity="1.0" stroke="rgb(0,0,0)"  stroke-width="3"/>
<line x1="307.6" y1="380.7" x2="284.1" y2="395.2" opacity="1.0" stroke="rgb(0,0,0)"  stroke-width="3"/>
<line x1="276.3" y1="509.2" x2="311.2" y2="490.3" opacity="1.0" stroke="rgb(0,0,0)"  stroke-width="3"/>
<line x1="278.2" y1="500.0" x2="302.6" y2="486.9" opacity="1.0" stroke="rgb(0,0,0)"  stroke-width="3"/>
<line x1="311.2" y1="490.3" x2="311.2" y2="450.7" opacity="1.0" stroke="rgb(0,0,0)"  stroke-width="3"/>
<line x1="276.3" y1="431.9" x2="242.6" y2="450.7" opacity="1.0" stroke="rgb(0,0,0)"  stroke-width="3"/>
<line x1="242.6" y1="450.7" x2="242.6" y2="490.3" opacity="1.0" stroke="rgb(0,0,0)"  stroke-width="3"/>
<line x1="249.8" y1="456.7" x2="249.8" y2="484.3" opacity="1.0" stroke="rgb(0,0,0)"  stroke-width="3"/>
<line x1="242.6" y1="490.3" x2="276.3" y2="509.2" opacity="1.0" stroke="rgb(0,0,0)"  stroke-width="3"/>
<line x1="151.4" y1="319.1" x2="124.0" y2="290.4" opacity="1.0" stroke="rgb(0,0,0)"  stroke-width="3"/>
<line x1="124.0" y1="290.4" x2="135.1" y2="252.4" opacity="1.0" stroke="rgb(0,0,0)"  stroke-width="3"/>
<line x1="132.6" y1="286.7" x2="140.3" y2="260.2" opacity="1.0" stroke="rgb(0,0,0)"  stroke-width="3"/>
<line x1="135.1" y1="252.4" x2="173.6" y2="243.0" opacity="1.0" stroke="rgb(0,0,0)"  stroke-width="3"/>
<line x1="201.0" y1="271.7" x2="189.9" y2="309.7" opacity="1.0" stroke="rgb(0,0,0)"  stroke-width="3"/>
<line x1="189.9" y1="309.7" x2="151.4" y2="319.1" opacity="1.0" stroke="rgb(0,0,0)"  stroke-width="3"/>
<line x1="182.4" y1="304.2" x2="155.5" y2="310.7" opacity="1.0" stroke="rgb(0,0,0)"  stroke-width="3"/>
<line x1="192.5" y1="208.1" x2="179.1" y2="170.7" opacity="1.0" stroke="rgb(0,0,0)"  stroke-width="3"/>
<line x1="204.8" y1="140.5" x2="243.8" y2="147.6" opacity="1.0" stroke="rgb(0,0,0)"  stroke-width="3"/>
<line x1="243.8" y1="147.6" x2="257.1" y2="185.0" opacity="1.0" stroke="rgb(0,0,0)"  stroke-width="3"/>
<line x1="239.0" y1="155.7" x2="248.3" y2="181.7" opacity="1.0" stroke="rgb(0,0,0)"  stroke-width="3"/>
<line x1="391.5" y1="331.5" x2="400.9" y2="370.0" opacity="1.0" stroke="rgb(0,0,0)"  stroke-width="3"/>
<line x1="400.9" y1="370.0" x2="438.9" y2="381.1" opacity="1.0" stroke="rgb(0,0,0)"  stroke-width="3"/>
<line x1="408.7" y1="364.8" x2="435.2" y2="372.5" opacity="1.0" stroke="rgb(0,0,0)"  stroke-width="3"/>
<line x1="438.9" y1="381.1" x2="467.6" y2="353.8" opacity="1.0" stroke="rgb(0,0,0)"  stroke-width="3"/>
<line x1="467.6" y1="353.8" x2="458.2" y2="315.2" opacity="1.0" stroke="rgb(0,0,0)"  stroke-width="3"/>
<line x1="459.2" y1="349.6" x2="452.7" y2="322.7" opacity="1.0" stroke="rgb(0,0,0)"  stroke-width="3"/>
<line x1="458.2" y1="315.2" x2="420.2" y2="304.1" opacity="1.0" stroke="rgb(0,0,0)"  stroke-width="3"/>
<line x1="420.2" y1="304.1" x2="391.5" y2="331.5" opacity="1.0" stroke="rgb(0,0,0)"  stroke-width="3"/>
<line x1="420.8" y1="313.4" x2="400.8" y2="332.5" opacity="1.0" stroke="rgb(0,0,0)"  stroke-width="3"/>
<line x1="493.2" y1="274.0" x2="532.7" y2="277.0" opacity="1.0" stroke="rgb(0,0,0)"  stroke-width="3"/>
<line x1="532.7" y1="277.0" x2="555.1" y2="244.3" opacity="1.0" stroke="rgb(0,0,0)"  stroke-width="3"/>
<line x1="530.2" y1="268.0" x2="545.8" y2="245.2" opacity="1.0" stroke="rgb(0,0,0)"  stroke-width="3"/>
<line x1="555.1" y1="244.3" x2="537.9" y2="208.5" opacity="1.0" stroke="rgb(0,0,0)"  stroke-width="3"/>
<line x1="537.9" y1="208.5" x2="498.4" y2="205.5" opacity="1.0" stroke="rgb(0,0,0)"  stroke-width="3"/>
<line x1="531.4" y1="215.2" x2="503.8" y2="213.2" opacity="1.0" stroke="rgb(0,0,0)"  stroke-width="3"/>
<line x1="498.4" y1="205.5" x2="476.0" y2="238.3" opacity="1.0" stroke="rgb(0,0,0)"  stroke-width="3"/>
<line x1="476.0" y1="238.3" x2="493.2" y2="274.0" opacity="1.0" stroke="rgb(0,0,0)"  stroke-width="3"/>
<line x1="485.1" y1="240.6" x2="497.1" y2="265.5" opacity="1.0" stroke="rgb(0,0,0)"  stroke-width="3"/>
<line x1="73.8" y1="157.7" x2="40.0" y2="178.5" opacity="1.0" stroke="rgb(0,0,0)"  stroke-width="3"/>
<line x1="40.0" y1="178.5" x2="41.2" y2="218.2" opacity="1.0" stroke="rgb(0,0,0)"  stroke-width="3"/>
<line x1="47.4" y1="184.3" x2="48.2" y2="211.9" opacity="1.0" stroke="rgb(0,0,0)"  stroke-width="3"/>
<line x1="41.2" y1="218.2" x2="76.1" y2="237.0" opacity="1.0" stroke="rgb(0,0,0)"  stroke-width="3"/>
<line x1="76.1" y1="237.0" x2="109.8" y2="216.1" opacity="1.0" stroke="rgb(0,0,0)"  stroke-width="3"/>
<line x1="77.4" y1="227.7" x2="100.9" y2="213.2" opacity="1.0" stroke="rgb(0,0,0)"  stroke-width="3"/>
<line x1="109.8" y1="216.1" x2="108.7" y2="176.5" opacity="1.0" stroke="rgb(0,0,0)"  stroke-width="3"/>
<line x1="108.7" y1="176.5" x2="73.8" y2="157.7" opacity="1.0" stroke="rgb(0,0,0)"  stroke-width="3"/>
<line x1="100.0" y1="180.0" x2="75.6" y2="166.9" opacity="1.0" stroke="rgb(0,0,0)"  stroke-width="3"/>
<text x="298.282548" y="220.838460" fill="rgb(255,181,181)" stroke-width="0" font-weight="bold" font-size="25.92" >B</text>
<text x="136.417186" y="163.672724" fill="rgb(12,12,255)" stroke-width="0" font-weight="bold" font-size="25.92" >N</text>
<text x="368.108814" y="258.471170" fill="rgb(12,12,255)" stroke-width="0" font-weight="bold" font-size="25.92" >N</text>
<text x="230.778470" y="262.493381" fill="rgb(12,12,255)" stroke-width="0" font-weight="bold" font-size="25.92" >N</text>
</svg>
</g>
</svg>
