<?xml version="1.0"?>
<svg version="1.1" id="topsvg"
xmlns="http://www.w3.org/2000/svg" xmlns:xlink="http://www.w3.org/1999/xlink"
xmlns:cml="http://www.xml-cml.org/schema" x="0" y="0" width="200px" height="200px" viewBox="0 0 100 100">
<title>GD239.sdf - Open Babel Depiction</title>
<rect x="0" y="0" width="100" height="100" fill="white"/>
<g transform="translate(0,0)">
<svg width="100" height="100" x="0" y="0" viewBox="0 0 593.159 521.755"
font-family="sans-serif" stroke="rgb(0,0,0)" stroke-width="3"  stroke-linecap="round">
<line x1="413.0" y1="253.3" x2="428.8" y2="290.0" opacity="1.0" stroke="rgb(0,0,0)"  stroke-width="3"/>
<line x1="473.4" y1="215.2" x2="433.5" y2="218.9" opacity="1.0" stroke="rgb(0,0,0)"  stroke-width="3"/>
<line x1="302.0" y1="321.6" x2="302.0" y2="361.6" opacity="1.0" stroke="rgb(0,0,0)"  stroke-width="3"/>
<line x1="236.2" y1="120.2" x2="236.2" y2="80.2" opacity="1.0" stroke="rgb(0,0,0)"  stroke-width="3"/>
<line x1="74.7" y1="243.3" x2="40.0" y2="223.3" opacity="1.0" stroke="rgb(0,0,0)"  stroke-width="3"/>
<line x1="74.7" y1="243.3" x2="74.7" y2="203.2" opacity="1.0" stroke="rgb(0,0,0)"  stroke-width="3"/>
<line x1="112.4" y1="313.1" x2="112.4" y2="353.2" opacity="1.0" stroke="rgb(0,0,0)"  stroke-width="3"/>
<line x1="112.4" y1="313.1" x2="147.1" y2="333.1" opacity="1.0" stroke="rgb(0,0,0)"  stroke-width="3"/>
<line x1="236.2" y1="80.2" x2="270.8" y2="60.2" opacity="1.0" stroke="rgb(0,0,0)"  stroke-width="3"/>
<line x1="201.5" y1="60.2" x2="236.2" y2="80.2" opacity="1.0" stroke="rgb(0,0,0)"  stroke-width="3"/>
<line x1="336.7" y1="421.7" x2="371.3" y2="441.7" opacity="1.0" stroke="rgb(0,0,0)"  stroke-width="3"/>
<line x1="371.3" y1="441.7" x2="406.0" y2="461.7" opacity="1.0" stroke="rgb(0,0,0)"  stroke-width="3"/>
<line x1="371.3" y1="441.7" x2="371.3" y2="481.8" opacity="1.0" stroke="rgb(0,0,0)"  stroke-width="3"/>
<line x1="371.3" y1="441.7" x2="406.0" y2="421.7" opacity="1.0" stroke="rgb(0,0,0)"  stroke-width="3"/>
<line x1="267.3" y1="421.7" x2="232.6" y2="441.7" opacity="1.0" stroke="rgb(0,0,0)"  stroke-width="3"/>
<line x1="232.6" y1="441.7" x2="198.0" y2="461.7" opacity="1.0" stroke="rgb(0,0,0)"  stroke-width="3"/>
<line x1="232.6" y1="441.7" x2="232.6" y2="481.8" opacity="1.0" stroke="rgb(0,0,0)"  stroke-width="3"/>
<line x1="232.6" y1="441.7" x2="198.0" y2="421.7" opacity="1.0" stroke="rgb(0,0,0)"  stroke-width="3"/>
<line x1="236.2" y1="80.2" x2="236.2" y2="40.0" opacity="1.0" stroke="rgb(0,0,0)"  stroke-width="3"/>
<line x1="175.2" y1="210.7" x2="200.5" y2="179.7" opacity="1.0" stroke="rgb(0,0,0)"  stroke-width="3"/>
<line x1="200.5" y1="179.7" x2="234.9" y2="200.3" opacity="1.0" stroke="rgb(0,0,0)"  stroke-width="3"/>
<line x1="234.9" y1="200.3" x2="234.6" y2="227.3" opacity="1.0" stroke="rgb(0,0,0)"  stroke-width="3"/>
<line x1="221.6" y1="242.1" x2="194.8" y2="245.7" opacity="1.0" stroke="rgb(0,0,0)"  stroke-width="3"/>
<line x1="194.8" y1="245.7" x2="175.2" y2="210.7" opacity="1.0" stroke="rgb(0,0,0)"  stroke-width="3"/>
<line x1="198.1" y1="236.9" x2="184.4" y2="212.5" opacity="1.0" stroke="rgb(0,0,0)"  stroke-width="3"/>
<line x1="433.5" y1="218.9" x2="407.2" y2="188.7" opacity="1.0" stroke="rgb(0,0,0)"  stroke-width="3"/>
<line x1="407.2" y1="188.7" x2="370.4" y2="204.5" opacity="1.0" stroke="rgb(0,0,0)"  stroke-width="3"/>
<line x1="404.5" y1="197.7" x2="378.7" y2="208.8" opacity="1.0" stroke="rgb(0,0,0)"  stroke-width="3"/>
<line x1="370.4" y1="204.5" x2="372.8" y2="231.4" opacity="1.0" stroke="rgb(0,0,0)"  stroke-width="3"/>
<line x1="386.7" y1="247.3" x2="413.0" y2="253.3" opacity="1.0" stroke="rgb(0,0,0)"  stroke-width="3"/>
<line x1="413.0" y1="253.3" x2="433.5" y2="218.9" opacity="1.0" stroke="rgb(0,0,0)"  stroke-width="3"/>
<line x1="409.9" y1="244.4" x2="424.3" y2="220.3" opacity="1.0" stroke="rgb(0,0,0)"  stroke-width="3"/>
<line x1="267.9" y1="300.6" x2="302.0" y2="321.6" opacity="1.0" stroke="rgb(0,0,0)"  stroke-width="3"/>
<line x1="302.0" y1="321.6" x2="337.2" y2="302.5" opacity="1.0" stroke="rgb(0,0,0)"  stroke-width="3"/>
<line x1="303.8" y1="312.4" x2="328.5" y2="299.1" opacity="1.0" stroke="rgb(0,0,0)"  stroke-width="3"/>
<line x1="337.2" y1="302.5" x2="338.3" y2="262.5" opacity="1.0" stroke="rgb(0,0,0)"  stroke-width="3"/>
<line x1="338.3" y1="262.5" x2="304.2" y2="241.5" opacity="1.0" stroke="rgb(0,0,0)"  stroke-width="3"/>
<line x1="329.4" y1="265.5" x2="305.5" y2="250.8" opacity="1.0" stroke="rgb(0,0,0)"  stroke-width="3"/>
<line x1="304.2" y1="241.5" x2="269.0" y2="260.6" opacity="1.0" stroke="rgb(0,0,0)"  stroke-width="3"/>
<line x1="269.0" y1="260.6" x2="267.9" y2="300.6" opacity="1.0" stroke="rgb(0,0,0)"  stroke-width="3"/>
<line x1="276.0" y1="266.8" x2="275.2" y2="294.8" opacity="1.0" stroke="rgb(0,0,0)"  stroke-width="3"/>
<line x1="304.2" y1="214.5" x2="304.2" y2="241.5" opacity="1.0" stroke="rgb(0,0,0)"  stroke-width="3"/>
<line x1="269.0" y1="260.6" x2="245.6" y2="246.9" opacity="1.0" stroke="rgb(0,0,0)"  stroke-width="3"/>
<line x1="234.9" y1="200.3" x2="269.9" y2="180.8" opacity="1.0" stroke="rgb(0,0,0)"  stroke-width="3"/>
<line x1="243.7" y1="203.7" x2="268.1" y2="190.0" opacity="1.0" stroke="rgb(0,0,0)"  stroke-width="3"/>
<line x1="269.9" y1="180.8" x2="293.0" y2="194.8" opacity="1.0" stroke="rgb(0,0,0)"  stroke-width="3"/>
<line x1="370.4" y1="204.5" x2="338.3" y2="180.5" opacity="1.0" stroke="rgb(0,0,0)"  stroke-width="3"/>
<line x1="338.3" y1="180.5" x2="315.2" y2="194.7" opacity="1.0" stroke="rgb(0,0,0)"  stroke-width="3"/>
<line x1="338.3" y1="262.5" x2="362.4" y2="250.3" opacity="1.0" stroke="rgb(0,0,0)"  stroke-width="3"/>
<line x1="134.2" y1="279.5" x2="174.3" y2="280.1" opacity="1.0" stroke="rgb(0,0,0)"  stroke-width="3"/>
<line x1="140.3" y1="272.4" x2="168.4" y2="272.8" opacity="1.0" stroke="rgb(0,0,0)"  stroke-width="3"/>
<line x1="174.3" y1="280.1" x2="194.8" y2="245.7" opacity="1.0" stroke="rgb(0,0,0)"  stroke-width="3"/>
<line x1="175.2" y1="210.7" x2="135.2" y2="210.2" opacity="1.0" stroke="rgb(0,0,0)"  stroke-width="3"/>
<line x1="135.2" y1="210.2" x2="114.7" y2="244.6" opacity="1.0" stroke="rgb(0,0,0)"  stroke-width="3"/>
<line x1="138.3" y1="219.0" x2="123.9" y2="243.1" opacity="1.0" stroke="rgb(0,0,0)"  stroke-width="3"/>
<line x1="114.7" y1="244.6" x2="134.2" y2="279.5" opacity="1.0" stroke="rgb(0,0,0)"  stroke-width="3"/>
<line x1="379.8" y1="125.0" x2="343.0" y2="140.8" opacity="1.0" stroke="rgb(0,0,0)"  stroke-width="3"/>
<line x1="343.0" y1="140.8" x2="338.3" y2="180.5" opacity="1.0" stroke="rgb(0,0,0)"  stroke-width="3"/>
<line x1="349.5" y1="147.6" x2="346.1" y2="175.4" opacity="1.0" stroke="rgb(0,0,0)"  stroke-width="3"/>
<line x1="407.2" y1="188.7" x2="411.9" y2="149.0" opacity="1.0" stroke="rgb(0,0,0)"  stroke-width="3"/>
<line x1="411.9" y1="149.0" x2="379.8" y2="125.0" opacity="1.0" stroke="rgb(0,0,0)"  stroke-width="3"/>
<line x1="402.8" y1="151.1" x2="380.3" y2="134.4" opacity="1.0" stroke="rgb(0,0,0)"  stroke-width="3"/>
<line x1="200.5" y1="179.7" x2="201.2" y2="139.7" opacity="1.0" stroke="rgb(0,0,0)"  stroke-width="3"/>
<line x1="207.8" y1="173.8" x2="208.3" y2="145.8" opacity="1.0" stroke="rgb(0,0,0)"  stroke-width="3"/>
<line x1="201.2" y1="139.7" x2="236.2" y2="120.2" opacity="1.0" stroke="rgb(0,0,0)"  stroke-width="3"/>
<line x1="236.2" y1="120.2" x2="270.5" y2="140.8" opacity="1.0" stroke="rgb(0,0,0)"  stroke-width="3"/>
<line x1="237.6" y1="129.5" x2="261.7" y2="143.9" opacity="1.0" stroke="rgb(0,0,0)"  stroke-width="3"/>
<line x1="270.5" y1="140.8" x2="269.9" y2="180.8" opacity="1.0" stroke="rgb(0,0,0)"  stroke-width="3"/>
<line x1="315.7" y1="77.1" x2="352.5" y2="61.3" opacity="1.0" stroke="rgb(0,0,0)"  stroke-width="3"/>
<line x1="352.5" y1="61.3" x2="384.5" y2="85.2" opacity="1.0" stroke="rgb(0,0,0)"  stroke-width="3"/>
<line x1="353.0" y1="70.6" x2="375.4" y2="87.4" opacity="1.0" stroke="rgb(0,0,0)"  stroke-width="3"/>
<line x1="384.5" y1="85.2" x2="379.8" y2="125.0" opacity="1.0" stroke="rgb(0,0,0)"  stroke-width="3"/>
<line x1="343.0" y1="140.8" x2="310.9" y2="116.8" opacity="1.0" stroke="rgb(0,0,0)"  stroke-width="3"/>
<line x1="310.9" y1="116.8" x2="315.7" y2="77.1" opacity="1.0" stroke="rgb(0,0,0)"  stroke-width="3"/>
<line x1="318.8" y1="111.7" x2="322.1" y2="83.9" opacity="1.0" stroke="rgb(0,0,0)"  stroke-width="3"/>
<line x1="267.3" y1="381.7" x2="267.3" y2="421.7" opacity="1.0" stroke="rgb(0,0,0)"  stroke-width="3"/>
<line x1="267.3" y1="421.7" x2="302.0" y2="441.7" opacity="1.0" stroke="rgb(0,0,0)"  stroke-width="3"/>
<line x1="276.1" y1="418.5" x2="300.4" y2="432.5" opacity="1.0" stroke="rgb(0,0,0)"  stroke-width="3"/>
<line x1="302.0" y1="441.7" x2="336.7" y2="421.7" opacity="1.0" stroke="rgb(0,0,0)"  stroke-width="3"/>
<line x1="336.7" y1="421.7" x2="336.7" y2="381.7" opacity="1.0" stroke="rgb(0,0,0)"  stroke-width="3"/>
<line x1="329.5" y1="415.7" x2="329.5" y2="387.7" opacity="1.0" stroke="rgb(0,0,0)"  stroke-width="3"/>
<line x1="336.7" y1="381.7" x2="302.0" y2="361.6" opacity="1.0" stroke="rgb(0,0,0)"  stroke-width="3"/>
<line x1="302.0" y1="361.6" x2="267.3" y2="381.7" opacity="1.0" stroke="rgb(0,0,0)"  stroke-width="3"/>
<line x1="300.4" y1="370.9" x2="276.1" y2="384.9" opacity="1.0" stroke="rgb(0,0,0)"  stroke-width="3"/>
<line x1="405.5" y1="322.6" x2="422.0" y2="359.1" opacity="1.0" stroke="rgb(0,0,0)"  stroke-width="3"/>
<line x1="422.0" y1="359.1" x2="461.6" y2="364.5" opacity="1.0" stroke="rgb(0,0,0)"  stroke-width="3"/>
<line x1="428.9" y1="352.8" x2="456.7" y2="356.6" opacity="1.0" stroke="rgb(0,0,0)"  stroke-width="3"/>
<line x1="461.6" y1="364.5" x2="484.7" y2="333.6" opacity="1.0" stroke="rgb(0,0,0)"  stroke-width="3"/>
<line x1="484.7" y1="333.6" x2="468.5" y2="295.5" opacity="1.0" stroke="rgb(0,0,0)"  stroke-width="3"/>
<line x1="475.8" y1="330.9" x2="464.2" y2="303.9" opacity="1.0" stroke="rgb(0,0,0)"  stroke-width="3"/>
<line x1="468.5" y1="295.5" x2="428.8" y2="290.0" opacity="1.0" stroke="rgb(0,0,0)"  stroke-width="3"/>
<line x1="428.8" y1="290.0" x2="405.5" y2="322.6" opacity="1.0" stroke="rgb(0,0,0)"  stroke-width="3"/>
<line x1="431.2" y1="299.1" x2="414.8" y2="321.9" opacity="1.0" stroke="rgb(0,0,0)"  stroke-width="3"/>
<line x1="497.5" y1="247.2" x2="537.3" y2="243.6" opacity="1.0" stroke="rgb(0,0,0)"  stroke-width="3"/>
<line x1="537.3" y1="243.6" x2="553.2" y2="207.9" opacity="1.0" stroke="rgb(0,0,0)"  stroke-width="3"/>
<line x1="533.2" y1="235.2" x2="544.1" y2="210.5" opacity="1.0" stroke="rgb(0,0,0)"  stroke-width="3"/>
<line x1="553.2" y1="207.9" x2="531.1" y2="175.7" opacity="1.0" stroke="rgb(0,0,0)"  stroke-width="3"/>
<line x1="531.1" y1="175.7" x2="491.3" y2="179.3" opacity="1.0" stroke="rgb(0,0,0)"  stroke-width="3"/>
<line x1="525.8" y1="183.4" x2="497.9" y2="186.0" opacity="1.0" stroke="rgb(0,0,0)"  stroke-width="3"/>
<line x1="491.3" y1="179.3" x2="473.4" y2="215.2" opacity="1.0" stroke="rgb(0,0,0)"  stroke-width="3"/>
<line x1="473.4" y1="215.2" x2="497.5" y2="247.2" opacity="1.0" stroke="rgb(0,0,0)"  stroke-width="3"/>
<line x1="482.8" y1="215.7" x2="499.6" y2="238.1" opacity="1.0" stroke="rgb(0,0,0)"  stroke-width="3"/>
<line x1="72.4" y1="311.8" x2="112.4" y2="313.1" opacity="1.0" stroke="rgb(0,0,0)"  stroke-width="3"/>
<line x1="112.4" y1="313.1" x2="134.2" y2="279.5" opacity="1.0" stroke="rgb(0,0,0)"  stroke-width="3"/>
<line x1="114.7" y1="244.6" x2="74.7" y2="243.3" opacity="1.0" stroke="rgb(0,0,0)"  stroke-width="3"/>
<line x1="74.7" y1="243.3" x2="54.2" y2="276.9" opacity="1.0" stroke="rgb(0,0,0)"  stroke-width="3"/>
<line x1="54.2" y1="276.9" x2="72.4" y2="311.8" opacity="1.0" stroke="rgb(0,0,0)"  stroke-width="3"/>
<text x="228.439566" y="248.327255" fill="rgb(12,12,255)" stroke-width="0" font-weight="bold" font-size="25.92" >N</text>
<text x="367.998761" y="252.396054" fill="rgb(12,12,255)" stroke-width="0" font-weight="bold" font-size="25.92" >N</text>
<text x="298.167369" y="209.504574" fill="rgb(255,181,181)" stroke-width="0" font-weight="bold" font-size="25.92" >B</text>
</svg>
</g>
</svg>
