<?xml version="1.0"?>
<svg version="1.1" id="topsvg"
xmlns="http://www.w3.org/2000/svg" xmlns:xlink="http://www.w3.org/1999/xlink"
xmlns:cml="http://www.xml-cml.org/schema" x="0" y="0" width="200px" height="200px" viewBox="0 0 100 100">
<title>GD238.sdf - Open Babel Depiction</title>
<rect x="0" y="0" width="100" height="100" fill="white"/>
<g transform="translate(0,0)">
<svg width="100" height="100" x="0" y="0" viewBox="0 0 626.048 500.002"
font-family="sans-serif" stroke="rgb(0,0,0)" stroke-width="3"  stroke-linecap="round">
<line x1="446.2" y1="231.7" x2="461.9" y2="268.4" opacity="1.0" stroke="rgb(0,0,0)"  stroke-width="3"/>
<line x1="506.4" y1="193.7" x2="466.6" y2="197.3" opacity="1.0" stroke="rgb(0,0,0)"  stroke-width="3"/>
<line x1="335.3" y1="299.9" x2="335.3" y2="339.9" opacity="1.0" stroke="rgb(0,0,0)"  stroke-width="3"/>
<line x1="300.7" y1="399.8" x2="265.9" y2="419.9" opacity="1.0" stroke="rgb(0,0,0)"  stroke-width="3"/>
<line x1="369.9" y1="399.8" x2="404.7" y2="419.9" opacity="1.0" stroke="rgb(0,0,0)"  stroke-width="3"/>
<line x1="404.7" y1="419.9" x2="439.4" y2="399.8" opacity="1.0" stroke="rgb(0,0,0)"  stroke-width="3"/>
<line x1="404.7" y1="419.9" x2="404.7" y2="460.0" opacity="1.0" stroke="rgb(0,0,0)"  stroke-width="3"/>
<line x1="404.7" y1="419.9" x2="404.7" y2="379.8" opacity="1.0" stroke="rgb(0,0,0)"  stroke-width="3"/>
<line x1="265.9" y1="419.9" x2="231.2" y2="399.8" opacity="1.0" stroke="rgb(0,0,0)"  stroke-width="3"/>
<line x1="265.9" y1="419.9" x2="265.9" y2="460.0" opacity="1.0" stroke="rgb(0,0,0)"  stroke-width="3"/>
<line x1="265.9" y1="419.9" x2="265.9" y2="379.8" opacity="1.0" stroke="rgb(0,0,0)"  stroke-width="3"/>
<line x1="142.5" y1="299.6" x2="116.6" y2="307.6" opacity="1.0" stroke="rgb(0,0,0)"  stroke-width="3"/>
<line x1="208.7" y1="189.2" x2="234.0" y2="158.3" opacity="1.0" stroke="rgb(0,0,0)"  stroke-width="3"/>
<line x1="234.0" y1="158.3" x2="268.3" y2="178.8" opacity="1.0" stroke="rgb(0,0,0)"  stroke-width="3"/>
<line x1="268.3" y1="178.8" x2="268.0" y2="205.8" opacity="1.0" stroke="rgb(0,0,0)"  stroke-width="3"/>
<line x1="255.0" y1="220.5" x2="228.2" y2="224.1" opacity="1.0" stroke="rgb(0,0,0)"  stroke-width="3"/>
<line x1="228.2" y1="224.1" x2="208.7" y2="189.2" opacity="1.0" stroke="rgb(0,0,0)"  stroke-width="3"/>
<line x1="231.6" y1="215.4" x2="217.9" y2="190.9" opacity="1.0" stroke="rgb(0,0,0)"  stroke-width="3"/>
<line x1="466.6" y1="197.3" x2="440.3" y2="167.3" opacity="1.0" stroke="rgb(0,0,0)"  stroke-width="3"/>
<line x1="440.3" y1="167.3" x2="403.5" y2="183.0" opacity="1.0" stroke="rgb(0,0,0)"  stroke-width="3"/>
<line x1="437.6" y1="176.2" x2="411.9" y2="187.3" opacity="1.0" stroke="rgb(0,0,0)"  stroke-width="3"/>
<line x1="403.5" y1="183.0" x2="406.0" y2="209.9" opacity="1.0" stroke="rgb(0,0,0)"  stroke-width="3"/>
<line x1="419.9" y1="225.7" x2="446.2" y2="231.7" opacity="1.0" stroke="rgb(0,0,0)"  stroke-width="3"/>
<line x1="446.2" y1="231.7" x2="466.6" y2="197.3" opacity="1.0" stroke="rgb(0,0,0)"  stroke-width="3"/>
<line x1="443.1" y1="222.8" x2="457.4" y2="198.8" opacity="1.0" stroke="rgb(0,0,0)"  stroke-width="3"/>
<line x1="187.0" y1="319.7" x2="219.6" y2="295.8" opacity="1.0" stroke="rgb(0,0,0)"  stroke-width="3"/>
<line x1="187.5" y1="310.3" x2="210.5" y2="293.5" opacity="1.0" stroke="rgb(0,0,0)"  stroke-width="3"/>
<line x1="219.6" y1="295.8" x2="207.8" y2="258.5" opacity="1.0" stroke="rgb(0,0,0)"  stroke-width="3"/>
<line x1="207.8" y1="258.5" x2="167.8" y2="257.9" opacity="1.0" stroke="rgb(0,0,0)"  stroke-width="3"/>
<line x1="201.7" y1="265.6" x2="173.7" y2="265.2" opacity="1.0" stroke="rgb(0,0,0)"  stroke-width="3"/>
<line x1="167.8" y1="257.9" x2="159.1" y2="283.4" opacity="1.0" stroke="rgb(0,0,0)"  stroke-width="3"/>
<line x1="165.4" y1="303.5" x2="187.0" y2="319.7" opacity="1.0" stroke="rgb(0,0,0)"  stroke-width="3"/>
<line x1="301.2" y1="279.0" x2="335.3" y2="299.9" opacity="1.0" stroke="rgb(0,0,0)"  stroke-width="3"/>
<line x1="335.3" y1="299.9" x2="370.4" y2="280.9" opacity="1.0" stroke="rgb(0,0,0)"  stroke-width="3"/>
<line x1="337.1" y1="290.7" x2="361.7" y2="277.4" opacity="1.0" stroke="rgb(0,0,0)"  stroke-width="3"/>
<line x1="370.4" y1="280.9" x2="371.5" y2="240.9" opacity="1.0" stroke="rgb(0,0,0)"  stroke-width="3"/>
<line x1="371.5" y1="240.9" x2="337.5" y2="220.0" opacity="1.0" stroke="rgb(0,0,0)"  stroke-width="3"/>
<line x1="362.6" y1="243.9" x2="338.8" y2="229.3" opacity="1.0" stroke="rgb(0,0,0)"  stroke-width="3"/>
<line x1="337.5" y1="220.0" x2="302.3" y2="239.0" opacity="1.0" stroke="rgb(0,0,0)"  stroke-width="3"/>
<line x1="302.3" y1="239.0" x2="301.2" y2="279.0" opacity="1.0" stroke="rgb(0,0,0)"  stroke-width="3"/>
<line x1="309.4" y1="245.2" x2="308.6" y2="273.2" opacity="1.0" stroke="rgb(0,0,0)"  stroke-width="3"/>
<line x1="337.5" y1="193.0" x2="337.5" y2="220.0" opacity="1.0" stroke="rgb(0,0,0)"  stroke-width="3"/>
<line x1="302.3" y1="239.0" x2="279.1" y2="225.4" opacity="1.0" stroke="rgb(0,0,0)"  stroke-width="3"/>
<line x1="268.3" y1="178.8" x2="303.2" y2="159.3" opacity="1.0" stroke="rgb(0,0,0)"  stroke-width="3"/>
<line x1="277.1" y1="182.2" x2="301.5" y2="168.6" opacity="1.0" stroke="rgb(0,0,0)"  stroke-width="3"/>
<line x1="303.2" y1="159.3" x2="326.3" y2="173.3" opacity="1.0" stroke="rgb(0,0,0)"  stroke-width="3"/>
<line x1="403.5" y1="183.0" x2="371.5" y2="159.1" opacity="1.0" stroke="rgb(0,0,0)"  stroke-width="3"/>
<line x1="371.5" y1="159.1" x2="348.5" y2="173.2" opacity="1.0" stroke="rgb(0,0,0)"  stroke-width="3"/>
<line x1="371.5" y1="240.9" x2="395.6" y2="228.7" opacity="1.0" stroke="rgb(0,0,0)"  stroke-width="3"/>
<line x1="207.8" y1="258.5" x2="228.2" y2="224.1" opacity="1.0" stroke="rgb(0,0,0)"  stroke-width="3"/>
<line x1="208.7" y1="189.2" x2="168.8" y2="188.7" opacity="1.0" stroke="rgb(0,0,0)"  stroke-width="3"/>
<line x1="168.8" y1="188.7" x2="148.3" y2="223.0" opacity="1.0" stroke="rgb(0,0,0)"  stroke-width="3"/>
<line x1="171.9" y1="197.5" x2="157.6" y2="221.6" opacity="1.0" stroke="rgb(0,0,0)"  stroke-width="3"/>
<line x1="148.3" y1="223.0" x2="167.8" y2="257.9" opacity="1.0" stroke="rgb(0,0,0)"  stroke-width="3"/>
<line x1="413.0" y1="103.6" x2="376.2" y2="119.4" opacity="1.0" stroke="rgb(0,0,0)"  stroke-width="3"/>
<line x1="376.2" y1="119.4" x2="371.5" y2="159.1" opacity="1.0" stroke="rgb(0,0,0)"  stroke-width="3"/>
<line x1="382.7" y1="126.2" x2="379.4" y2="154.0" opacity="1.0" stroke="rgb(0,0,0)"  stroke-width="3"/>
<line x1="440.3" y1="167.3" x2="445.0" y2="127.6" opacity="1.0" stroke="rgb(0,0,0)"  stroke-width="3"/>
<line x1="445.0" y1="127.6" x2="413.0" y2="103.6" opacity="1.0" stroke="rgb(0,0,0)"  stroke-width="3"/>
<line x1="435.9" y1="129.7" x2="413.5" y2="113.0" opacity="1.0" stroke="rgb(0,0,0)"  stroke-width="3"/>
<line x1="234.0" y1="158.3" x2="234.6" y2="118.3" opacity="1.0" stroke="rgb(0,0,0)"  stroke-width="3"/>
<line x1="241.3" y1="152.4" x2="241.7" y2="124.4" opacity="1.0" stroke="rgb(0,0,0)"  stroke-width="3"/>
<line x1="234.6" y1="118.3" x2="269.6" y2="98.9" opacity="1.0" stroke="rgb(0,0,0)"  stroke-width="3"/>
<line x1="269.6" y1="98.9" x2="303.9" y2="119.4" opacity="1.0" stroke="rgb(0,0,0)"  stroke-width="3"/>
<line x1="271.0" y1="108.1" x2="295.0" y2="122.5" opacity="1.0" stroke="rgb(0,0,0)"  stroke-width="3"/>
<line x1="303.9" y1="119.4" x2="303.2" y2="159.3" opacity="1.0" stroke="rgb(0,0,0)"  stroke-width="3"/>
<line x1="349.0" y1="55.8" x2="385.7" y2="40.0" opacity="1.0" stroke="rgb(0,0,0)"  stroke-width="3"/>
<line x1="385.7" y1="40.0" x2="417.7" y2="63.9" opacity="1.0" stroke="rgb(0,0,0)"  stroke-width="3"/>
<line x1="386.2" y1="49.4" x2="408.6" y2="66.1" opacity="1.0" stroke="rgb(0,0,0)"  stroke-width="3"/>
<line x1="417.7" y1="63.9" x2="413.0" y2="103.6" opacity="1.0" stroke="rgb(0,0,0)"  stroke-width="3"/>
<line x1="376.2" y1="119.4" x2="344.2" y2="95.5" opacity="1.0" stroke="rgb(0,0,0)"  stroke-width="3"/>
<line x1="344.2" y1="95.5" x2="349.0" y2="55.8" opacity="1.0" stroke="rgb(0,0,0)"  stroke-width="3"/>
<line x1="352.1" y1="90.3" x2="355.4" y2="62.6" opacity="1.0" stroke="rgb(0,0,0)"  stroke-width="3"/>
<line x1="261.1" y1="352.3" x2="256.7" y2="312.1" opacity="1.0" stroke="rgb(0,0,0)"  stroke-width="3"/>
<line x1="253.3" y1="347.1" x2="250.2" y2="318.8" opacity="1.0" stroke="rgb(0,0,0)"  stroke-width="3"/>
<line x1="256.7" y1="312.1" x2="219.6" y2="295.8" opacity="1.0" stroke="rgb(0,0,0)"  stroke-width="3"/>
<line x1="187.0" y1="319.7" x2="191.4" y2="359.9" opacity="1.0" stroke="rgb(0,0,0)"  stroke-width="3"/>
<line x1="191.4" y1="359.9" x2="228.4" y2="376.3" opacity="1.0" stroke="rgb(0,0,0)"  stroke-width="3"/>
<line x1="199.8" y1="355.8" x2="225.8" y2="367.2" opacity="1.0" stroke="rgb(0,0,0)"  stroke-width="3"/>
<line x1="228.4" y1="376.3" x2="261.1" y2="352.3" opacity="1.0" stroke="rgb(0,0,0)"  stroke-width="3"/>
<line x1="300.7" y1="359.9" x2="300.7" y2="399.8" opacity="1.0" stroke="rgb(0,0,0)"  stroke-width="3"/>
<line x1="300.7" y1="399.8" x2="335.3" y2="419.8" opacity="1.0" stroke="rgb(0,0,0)"  stroke-width="3"/>
<line x1="309.5" y1="396.6" x2="333.7" y2="410.6" opacity="1.0" stroke="rgb(0,0,0)"  stroke-width="3"/>
<line x1="335.3" y1="419.8" x2="369.9" y2="399.8" opacity="1.0" stroke="rgb(0,0,0)"  stroke-width="3"/>
<line x1="369.9" y1="399.8" x2="369.9" y2="359.9" opacity="1.0" stroke="rgb(0,0,0)"  stroke-width="3"/>
<line x1="362.7" y1="393.8" x2="362.7" y2="365.9" opacity="1.0" stroke="rgb(0,0,0)"  stroke-width="3"/>
<line x1="369.9" y1="359.9" x2="335.3" y2="339.9" opacity="1.0" stroke="rgb(0,0,0)"  stroke-width="3"/>
<line x1="335.3" y1="339.9" x2="300.7" y2="359.9" opacity="1.0" stroke="rgb(0,0,0)"  stroke-width="3"/>
<line x1="333.7" y1="349.1" x2="309.5" y2="363.1" opacity="1.0" stroke="rgb(0,0,0)"  stroke-width="3"/>
<line x1="438.6" y1="300.9" x2="455.1" y2="337.3" opacity="1.0" stroke="rgb(0,0,0)"  stroke-width="3"/>
<line x1="455.1" y1="337.3" x2="494.6" y2="342.8" opacity="1.0" stroke="rgb(0,0,0)"  stroke-width="3"/>
<line x1="462.0" y1="331.0" x2="489.7" y2="334.8" opacity="1.0" stroke="rgb(0,0,0)"  stroke-width="3"/>
<line x1="494.6" y1="342.8" x2="517.7" y2="311.8" opacity="1.0" stroke="rgb(0,0,0)"  stroke-width="3"/>
<line x1="517.7" y1="311.8" x2="501.5" y2="273.9" opacity="1.0" stroke="rgb(0,0,0)"  stroke-width="3"/>
<line x1="508.8" y1="309.2" x2="497.2" y2="282.2" opacity="1.0" stroke="rgb(0,0,0)"  stroke-width="3"/>
<line x1="501.5" y1="273.9" x2="461.9" y2="268.4" opacity="1.0" stroke="rgb(0,0,0)"  stroke-width="3"/>
<line x1="461.9" y1="268.4" x2="438.6" y2="300.9" opacity="1.0" stroke="rgb(0,0,0)"  stroke-width="3"/>
<line x1="464.3" y1="277.5" x2="448.0" y2="300.2" opacity="1.0" stroke="rgb(0,0,0)"  stroke-width="3"/>
<line x1="530.4" y1="225.7" x2="570.3" y2="222.0" opacity="1.0" stroke="rgb(0,0,0)"  stroke-width="3"/>
<line x1="570.3" y1="222.0" x2="586.0" y2="186.4" opacity="1.0" stroke="rgb(0,0,0)"  stroke-width="3"/>
<line x1="566.1" y1="213.6" x2="577.0" y2="189.0" opacity="1.0" stroke="rgb(0,0,0)"  stroke-width="3"/>
<line x1="586.0" y1="186.4" x2="564.1" y2="154.2" opacity="1.0" stroke="rgb(0,0,0)"  stroke-width="3"/>
<line x1="564.1" y1="154.2" x2="524.3" y2="157.9" opacity="1.0" stroke="rgb(0,0,0)"  stroke-width="3"/>
<line x1="558.7" y1="162.0" x2="530.9" y2="164.5" opacity="1.0" stroke="rgb(0,0,0)"  stroke-width="3"/>
<line x1="524.3" y1="157.9" x2="506.4" y2="193.7" opacity="1.0" stroke="rgb(0,0,0)"  stroke-width="3"/>
<line x1="506.4" y1="193.7" x2="530.4" y2="225.7" opacity="1.0" stroke="rgb(0,0,0)"  stroke-width="3"/>
<line x1="515.8" y1="194.2" x2="532.6" y2="216.5" opacity="1.0" stroke="rgb(0,0,0)"  stroke-width="3"/>
<line x1="87.2" y1="280.4" x2="48.9" y2="292.3" opacity="1.0" stroke="rgb(0,0,0)"  stroke-width="3"/>
<line x1="48.9" y1="292.3" x2="40.0" y2="331.4" opacity="1.0" stroke="rgb(0,0,0)"  stroke-width="3"/>
<line x1="54.6" y1="299.7" x2="48.3" y2="327.1" opacity="1.0" stroke="rgb(0,0,0)"  stroke-width="3"/>
<line x1="40.0" y1="331.4" x2="69.4" y2="358.6" opacity="1.0" stroke="rgb(0,0,0)"  stroke-width="3"/>
<line x1="69.4" y1="358.6" x2="107.8" y2="346.8" opacity="1.0" stroke="rgb(0,0,0)"  stroke-width="3"/>
<line x1="73.0" y1="350.0" x2="99.9" y2="341.7" opacity="1.0" stroke="rgb(0,0,0)"  stroke-width="3"/>
<line x1="107.8" y1="346.8" x2="116.6" y2="307.6" opacity="1.0" stroke="rgb(0,0,0)"  stroke-width="3"/>
<line x1="116.6" y1="307.6" x2="87.2" y2="280.4" opacity="1.0" stroke="rgb(0,0,0)"  stroke-width="3"/>
<line x1="107.3" y1="308.8" x2="86.7" y2="289.7" opacity="1.0" stroke="rgb(0,0,0)"  stroke-width="3"/>
<text x="148.945215" y="303.757603" fill="rgb(12,12,255)" stroke-width="0" font-weight="bold" font-size="25.92" >N</text>
<text x="261.855011" y="226.763523" fill="rgb(12,12,255)" stroke-width="0" font-weight="bold" font-size="25.92" >N</text>
<text x="401.184035" y="230.825611" fill="rgb(12,12,255)" stroke-width="0" font-weight="bold" font-size="25.92" >N</text>
<text x="331.467813" y="188.004871" fill="rgb(255,181,181)" stroke-width="0" font-weight="bold" font-size="25.92" >B</text>
</svg>
</g>
</svg>
