<?xml version="1.0"?>
<svg version="1.1" id="topsvg"
xmlns="http://www.w3.org/2000/svg" xmlns:xlink="http://www.w3.org/1999/xlink"
xmlns:cml="http://www.xml-cml.org/schema" x="0" y="0" width="200px" height="200px" viewBox="0 0 100 100">
<title>GD237.sdf - Open Babel Depiction</title>
<rect x="0" y="0" width="100" height="100" fill="white"/>
<g transform="translate(0,0)">
<svg width="100" height="100" x="0" y="0" viewBox="0 0 689.945 569.598"
font-family="sans-serif" stroke="rgb(0,0,0)" stroke-width="3"  stroke-linecap="round">
<line x1="393.9" y1="282.1" x2="409.4" y2="318.3" opacity="1.0" stroke="rgb(0,0,0)"  stroke-width="3"/>
<line x1="453.3" y1="244.7" x2="414.0" y2="248.3" opacity="1.0" stroke="rgb(0,0,0)"  stroke-width="3"/>
<line x1="284.5" y1="349.4" x2="284.5" y2="450.8" opacity="1.0" stroke="rgb(0,0,0)"  stroke-width="3"/>
<line x1="182.1" y1="391.7" x2="182.1" y2="352.2" opacity="1.0" stroke="rgb(0,0,0)"  stroke-width="3"/>
<line x1="182.1" y1="352.2" x2="182.1" y2="312.8" opacity="1.0" stroke="rgb(0,0,0)"  stroke-width="3"/>
<line x1="182.1" y1="352.2" x2="148.0" y2="332.5" opacity="1.0" stroke="rgb(0,0,0)"  stroke-width="3"/>
<line x1="182.1" y1="352.2" x2="216.3" y2="332.5" opacity="1.0" stroke="rgb(0,0,0)"  stroke-width="3"/>
<line x1="148.0" y1="450.8" x2="113.9" y2="470.5" opacity="1.0" stroke="rgb(0,0,0)"  stroke-width="3"/>
<line x1="113.9" y1="470.5" x2="79.7" y2="490.2" opacity="1.0" stroke="rgb(0,0,0)"  stroke-width="3"/>
<line x1="113.9" y1="470.5" x2="79.7" y2="450.8" opacity="1.0" stroke="rgb(0,0,0)"  stroke-width="3"/>
<line x1="113.9" y1="470.5" x2="113.9" y2="509.9" opacity="1.0" stroke="rgb(0,0,0)"  stroke-width="3"/>
<line x1="250.4" y1="470.5" x2="216.3" y2="450.8" opacity="1.0" stroke="rgb(0,0,0)"  stroke-width="3"/>
<line x1="531.8" y1="237.5" x2="571.2" y2="233.9" opacity="1.0" stroke="rgb(0,0,0)"  stroke-width="3"/>
<line x1="441.7" y1="391.7" x2="456.9" y2="428.2" opacity="1.0" stroke="rgb(0,0,0)"  stroke-width="3"/>
<line x1="143.7" y1="146.0" x2="117.6" y2="151.1" opacity="1.0" stroke="rgb(0,0,0)"  stroke-width="3"/>
<line x1="159.8" y1="240.3" x2="184.7" y2="209.8" opacity="1.0" stroke="rgb(0,0,0)"  stroke-width="3"/>
<line x1="184.7" y1="209.8" x2="218.5" y2="230.0" opacity="1.0" stroke="rgb(0,0,0)"  stroke-width="3"/>
<line x1="218.5" y1="230.0" x2="218.2" y2="256.4" opacity="1.0" stroke="rgb(0,0,0)"  stroke-width="3"/>
<line x1="205.2" y1="271.1" x2="179.0" y2="274.7" opacity="1.0" stroke="rgb(0,0,0)"  stroke-width="3"/>
<line x1="179.0" y1="274.7" x2="159.8" y2="240.3" opacity="1.0" stroke="rgb(0,0,0)"  stroke-width="3"/>
<line x1="182.4" y1="265.9" x2="169.0" y2="242.0" opacity="1.0" stroke="rgb(0,0,0)"  stroke-width="3"/>
<line x1="173.0" y1="107.8" x2="212.1" y2="112.5" opacity="1.0" stroke="rgb(0,0,0)"  stroke-width="3"/>
<line x1="178.1" y1="115.6" x2="205.3" y2="118.9" opacity="1.0" stroke="rgb(0,0,0)"  stroke-width="3"/>
<line x1="212.1" y1="112.5" x2="219.7" y2="151.2" opacity="1.0" stroke="rgb(0,0,0)"  stroke-width="3"/>
<line x1="219.7" y1="151.2" x2="185.3" y2="170.3" opacity="1.0" stroke="rgb(0,0,0)"  stroke-width="3"/>
<line x1="185.3" y1="170.3" x2="166.0" y2="152.4" opacity="1.0" stroke="rgb(0,0,0)"  stroke-width="3"/>
<line x1="161.9" y1="131.7" x2="173.0" y2="107.8" opacity="1.0" stroke="rgb(0,0,0)"  stroke-width="3"/>
<line x1="414.0" y1="248.3" x2="388.1" y2="218.6" opacity="1.0" stroke="rgb(0,0,0)"  stroke-width="3"/>
<line x1="388.1" y1="218.6" x2="351.8" y2="234.2" opacity="1.0" stroke="rgb(0,0,0)"  stroke-width="3"/>
<line x1="385.4" y1="227.6" x2="360.2" y2="238.4" opacity="1.0" stroke="rgb(0,0,0)"  stroke-width="3"/>
<line x1="351.8" y1="234.2" x2="354.2" y2="260.5" opacity="1.0" stroke="rgb(0,0,0)"  stroke-width="3"/>
<line x1="368.1" y1="276.3" x2="393.9" y2="282.1" opacity="1.0" stroke="rgb(0,0,0)"  stroke-width="3"/>
<line x1="393.9" y1="282.1" x2="414.0" y2="248.3" opacity="1.0" stroke="rgb(0,0,0)"  stroke-width="3"/>
<line x1="390.8" y1="273.3" x2="404.8" y2="249.7" opacity="1.0" stroke="rgb(0,0,0)"  stroke-width="3"/>
<line x1="251.0" y1="328.8" x2="284.5" y2="349.4" opacity="1.0" stroke="rgb(0,0,0)"  stroke-width="3"/>
<line x1="284.5" y1="349.4" x2="319.2" y2="330.6" opacity="1.0" stroke="rgb(0,0,0)"  stroke-width="3"/>
<line x1="286.4" y1="340.2" x2="310.5" y2="327.2" opacity="1.0" stroke="rgb(0,0,0)"  stroke-width="3"/>
<line x1="319.2" y1="330.6" x2="320.3" y2="291.2" opacity="1.0" stroke="rgb(0,0,0)"  stroke-width="3"/>
<line x1="320.3" y1="291.2" x2="286.7" y2="270.6" opacity="1.0" stroke="rgb(0,0,0)"  stroke-width="3"/>
<line x1="311.4" y1="294.2" x2="288.0" y2="279.9" opacity="1.0" stroke="rgb(0,0,0)"  stroke-width="3"/>
<line x1="286.7" y1="270.6" x2="252.0" y2="289.4" opacity="1.0" stroke="rgb(0,0,0)"  stroke-width="3"/>
<line x1="252.0" y1="289.4" x2="251.0" y2="328.8" opacity="1.0" stroke="rgb(0,0,0)"  stroke-width="3"/>
<line x1="259.1" y1="295.6" x2="258.3" y2="323.0" opacity="1.0" stroke="rgb(0,0,0)"  stroke-width="3"/>
<line x1="286.7" y1="244.2" x2="286.7" y2="270.6" opacity="1.0" stroke="rgb(0,0,0)"  stroke-width="3"/>
<line x1="252.0" y1="289.4" x2="229.3" y2="276.0" opacity="1.0" stroke="rgb(0,0,0)"  stroke-width="3"/>
<line x1="218.5" y1="230.0" x2="252.9" y2="210.8" opacity="1.0" stroke="rgb(0,0,0)"  stroke-width="3"/>
<line x1="227.3" y1="233.4" x2="251.2" y2="220.0" opacity="1.0" stroke="rgb(0,0,0)"  stroke-width="3"/>
<line x1="252.9" y1="210.8" x2="275.6" y2="224.5" opacity="1.0" stroke="rgb(0,0,0)"  stroke-width="3"/>
<line x1="181.2" y1="40.0" x2="220.3" y2="44.7" opacity="1.0" stroke="rgb(0,0,0)"  stroke-width="3"/>
<line x1="220.3" y1="44.7" x2="235.8" y2="81.0" opacity="1.0" stroke="rgb(0,0,0)"  stroke-width="3"/>
<line x1="216.1" y1="53.1" x2="226.8" y2="78.3" opacity="1.0" stroke="rgb(0,0,0)"  stroke-width="3"/>
<line x1="235.8" y1="81.0" x2="212.1" y2="112.5" opacity="1.0" stroke="rgb(0,0,0)"  stroke-width="3"/>
<line x1="173.0" y1="107.8" x2="157.6" y2="71.5" opacity="1.0" stroke="rgb(0,0,0)"  stroke-width="3"/>
<line x1="157.6" y1="71.5" x2="181.2" y2="40.0" opacity="1.0" stroke="rgb(0,0,0)"  stroke-width="3"/>
<line x1="166.9" y1="71.0" x2="183.4" y2="49.1" opacity="1.0" stroke="rgb(0,0,0)"  stroke-width="3"/>
<line x1="351.8" y1="234.2" x2="320.3" y2="210.6" opacity="1.0" stroke="rgb(0,0,0)"  stroke-width="3"/>
<line x1="320.3" y1="210.6" x2="297.8" y2="224.4" opacity="1.0" stroke="rgb(0,0,0)"  stroke-width="3"/>
<line x1="320.3" y1="291.2" x2="343.8" y2="279.3" opacity="1.0" stroke="rgb(0,0,0)"  stroke-width="3"/>
<line x1="119.4" y1="308.0" x2="158.8" y2="308.5" opacity="1.0" stroke="rgb(0,0,0)"  stroke-width="3"/>
<line x1="125.5" y1="300.9" x2="152.9" y2="301.3" opacity="1.0" stroke="rgb(0,0,0)"  stroke-width="3"/>
<line x1="158.8" y1="308.5" x2="179.0" y2="274.7" opacity="1.0" stroke="rgb(0,0,0)"  stroke-width="3"/>
<line x1="159.8" y1="240.3" x2="120.3" y2="239.7" opacity="1.0" stroke="rgb(0,0,0)"  stroke-width="3"/>
<line x1="120.3" y1="239.7" x2="100.2" y2="273.6" opacity="1.0" stroke="rgb(0,0,0)"  stroke-width="3"/>
<line x1="123.5" y1="248.6" x2="109.4" y2="272.1" opacity="1.0" stroke="rgb(0,0,0)"  stroke-width="3"/>
<line x1="100.2" y1="273.6" x2="119.4" y2="308.0" opacity="1.0" stroke="rgb(0,0,0)"  stroke-width="3"/>
<line x1="361.1" y1="155.9" x2="324.9" y2="171.4" opacity="1.0" stroke="rgb(0,0,0)"  stroke-width="3"/>
<line x1="324.9" y1="171.4" x2="320.3" y2="210.6" opacity="1.0" stroke="rgb(0,0,0)"  stroke-width="3"/>
<line x1="331.4" y1="178.2" x2="328.1" y2="205.5" opacity="1.0" stroke="rgb(0,0,0)"  stroke-width="3"/>
<line x1="388.1" y1="218.6" x2="392.7" y2="179.5" opacity="1.0" stroke="rgb(0,0,0)"  stroke-width="3"/>
<line x1="392.7" y1="179.5" x2="361.1" y2="155.9" opacity="1.0" stroke="rgb(0,0,0)"  stroke-width="3"/>
<line x1="383.6" y1="181.7" x2="361.6" y2="165.2" opacity="1.0" stroke="rgb(0,0,0)"  stroke-width="3"/>
<line x1="184.7" y1="209.8" x2="185.3" y2="170.3" opacity="1.0" stroke="rgb(0,0,0)"  stroke-width="3"/>
<line x1="192.0" y1="203.9" x2="192.4" y2="176.5" opacity="1.0" stroke="rgb(0,0,0)"  stroke-width="3"/>
<line x1="219.7" y1="151.2" x2="253.6" y2="171.4" opacity="1.0" stroke="rgb(0,0,0)"  stroke-width="3"/>
<line x1="221.2" y1="160.4" x2="244.7" y2="174.5" opacity="1.0" stroke="rgb(0,0,0)"  stroke-width="3"/>
<line x1="253.6" y1="171.4" x2="252.9" y2="210.8" opacity="1.0" stroke="rgb(0,0,0)"  stroke-width="3"/>
<line x1="298.0" y1="108.7" x2="334.2" y2="93.1" opacity="1.0" stroke="rgb(0,0,0)"  stroke-width="3"/>
<line x1="334.2" y1="93.1" x2="365.8" y2="116.7" opacity="1.0" stroke="rgb(0,0,0)"  stroke-width="3"/>
<line x1="334.7" y1="102.5" x2="356.7" y2="118.9" opacity="1.0" stroke="rgb(0,0,0)"  stroke-width="3"/>
<line x1="365.8" y1="116.7" x2="361.1" y2="155.9" opacity="1.0" stroke="rgb(0,0,0)"  stroke-width="3"/>
<line x1="324.9" y1="171.4" x2="293.4" y2="147.8" opacity="1.0" stroke="rgb(0,0,0)"  stroke-width="3"/>
<line x1="293.4" y1="147.8" x2="298.0" y2="108.7" opacity="1.0" stroke="rgb(0,0,0)"  stroke-width="3"/>
<line x1="301.2" y1="142.7" x2="304.5" y2="115.5" opacity="1.0" stroke="rgb(0,0,0)"  stroke-width="3"/>
<line x1="318.7" y1="470.5" x2="318.7" y2="509.9" opacity="1.0" stroke="rgb(0,0,0)"  stroke-width="3"/>
<line x1="318.7" y1="509.9" x2="284.5" y2="529.6" opacity="1.0" stroke="rgb(0,0,0)"  stroke-width="3"/>
<line x1="309.9" y1="506.7" x2="286.1" y2="520.4" opacity="1.0" stroke="rgb(0,0,0)"  stroke-width="3"/>
<line x1="284.5" y1="529.6" x2="250.4" y2="509.9" opacity="1.0" stroke="rgb(0,0,0)"  stroke-width="3"/>
<line x1="250.4" y1="509.9" x2="250.4" y2="470.5" opacity="1.0" stroke="rgb(0,0,0)"  stroke-width="3"/>
<line x1="257.6" y1="503.9" x2="257.6" y2="476.5" opacity="1.0" stroke="rgb(0,0,0)"  stroke-width="3"/>
<line x1="250.4" y1="470.5" x2="284.5" y2="450.8" opacity="1.0" stroke="rgb(0,0,0)"  stroke-width="3"/>
<line x1="284.5" y1="450.8" x2="318.7" y2="470.5" opacity="1.0" stroke="rgb(0,0,0)"  stroke-width="3"/>
<line x1="286.1" y1="460.0" x2="309.9" y2="473.7" opacity="1.0" stroke="rgb(0,0,0)"  stroke-width="3"/>
<line x1="386.4" y1="350.4" x2="402.7" y2="386.3" opacity="1.0" stroke="rgb(0,0,0)"  stroke-width="3"/>
<line x1="402.7" y1="386.3" x2="441.7" y2="391.7" opacity="1.0" stroke="rgb(0,0,0)"  stroke-width="3"/>
<line x1="409.6" y1="380.0" x2="436.7" y2="383.7" opacity="1.0" stroke="rgb(0,0,0)"  stroke-width="3"/>
<line x1="441.7" y1="391.7" x2="464.4" y2="361.2" opacity="1.0" stroke="rgb(0,0,0)"  stroke-width="3"/>
<line x1="464.4" y1="361.2" x2="448.4" y2="323.8" opacity="1.0" stroke="rgb(0,0,0)"  stroke-width="3"/>
<line x1="455.5" y1="358.5" x2="444.2" y2="332.1" opacity="1.0" stroke="rgb(0,0,0)"  stroke-width="3"/>
<line x1="448.4" y1="323.8" x2="409.4" y2="318.3" opacity="1.0" stroke="rgb(0,0,0)"  stroke-width="3"/>
<line x1="409.4" y1="318.3" x2="386.4" y2="350.4" opacity="1.0" stroke="rgb(0,0,0)"  stroke-width="3"/>
<line x1="411.8" y1="327.4" x2="395.8" y2="349.7" opacity="1.0" stroke="rgb(0,0,0)"  stroke-width="3"/>
<line x1="477.0" y1="276.2" x2="516.2" y2="272.6" opacity="1.0" stroke="rgb(0,0,0)"  stroke-width="3"/>
<line x1="516.2" y1="272.6" x2="531.8" y2="237.5" opacity="1.0" stroke="rgb(0,0,0)"  stroke-width="3"/>
<line x1="512.1" y1="264.2" x2="522.8" y2="240.1" opacity="1.0" stroke="rgb(0,0,0)"  stroke-width="3"/>
<line x1="531.8" y1="237.5" x2="510.1" y2="205.8" opacity="1.0" stroke="rgb(0,0,0)"  stroke-width="3"/>
<line x1="510.1" y1="205.8" x2="470.9" y2="209.4" opacity="1.0" stroke="rgb(0,0,0)"  stroke-width="3"/>
<line x1="504.8" y1="213.5" x2="477.5" y2="216.0" opacity="1.0" stroke="rgb(0,0,0)"  stroke-width="3"/>
<line x1="470.9" y1="209.4" x2="453.3" y2="244.7" opacity="1.0" stroke="rgb(0,0,0)"  stroke-width="3"/>
<line x1="453.3" y1="244.7" x2="477.0" y2="276.2" opacity="1.0" stroke="rgb(0,0,0)"  stroke-width="3"/>
<line x1="462.6" y1="245.2" x2="479.1" y2="267.1" opacity="1.0" stroke="rgb(0,0,0)"  stroke-width="3"/>
<line x1="182.1" y1="470.5" x2="148.0" y2="450.8" opacity="1.0" stroke="rgb(0,0,0)"  stroke-width="3"/>
<line x1="148.0" y1="450.8" x2="148.0" y2="411.4" opacity="1.0" stroke="rgb(0,0,0)"  stroke-width="3"/>
<line x1="155.2" y1="444.8" x2="155.2" y2="417.4" opacity="1.0" stroke="rgb(0,0,0)"  stroke-width="3"/>
<line x1="148.0" y1="411.4" x2="182.1" y2="391.7" opacity="1.0" stroke="rgb(0,0,0)"  stroke-width="3"/>
<line x1="182.1" y1="391.7" x2="216.3" y2="411.4" opacity="1.0" stroke="rgb(0,0,0)"  stroke-width="3"/>
<line x1="183.7" y1="400.9" x2="207.5" y2="414.6" opacity="1.0" stroke="rgb(0,0,0)"  stroke-width="3"/>
<line x1="216.3" y1="411.4" x2="216.3" y2="450.8" opacity="1.0" stroke="rgb(0,0,0)"  stroke-width="3"/>
<line x1="216.3" y1="450.8" x2="182.1" y2="470.5" opacity="1.0" stroke="rgb(0,0,0)"  stroke-width="3"/>
<line x1="207.5" y1="447.5" x2="183.7" y2="461.2" opacity="1.0" stroke="rgb(0,0,0)"  stroke-width="3"/>
<line x1="594.0" y1="266.2" x2="633.4" y2="262.6" opacity="1.0" stroke="rgb(0,0,0)"  stroke-width="3"/>
<line x1="633.4" y1="262.6" x2="649.9" y2="226.7" opacity="1.0" stroke="rgb(0,0,0)"  stroke-width="3"/>
<line x1="629.3" y1="254.2" x2="640.9" y2="229.1" opacity="1.0" stroke="rgb(0,0,0)"  stroke-width="3"/>
<line x1="649.9" y1="226.7" x2="627.1" y2="194.4" opacity="1.0" stroke="rgb(0,0,0)"  stroke-width="3"/>
<line x1="627.1" y1="194.4" x2="587.7" y2="198.0" opacity="1.0" stroke="rgb(0,0,0)"  stroke-width="3"/>
<line x1="621.8" y1="202.1" x2="594.4" y2="204.6" opacity="1.0" stroke="rgb(0,0,0)"  stroke-width="3"/>
<line x1="587.7" y1="198.0" x2="571.2" y2="233.9" opacity="1.0" stroke="rgb(0,0,0)"  stroke-width="3"/>
<line x1="571.2" y1="233.9" x2="594.0" y2="266.2" opacity="1.0" stroke="rgb(0,0,0)"  stroke-width="3"/>
<line x1="580.5" y1="234.7" x2="596.4" y2="257.2" opacity="1.0" stroke="rgb(0,0,0)"  stroke-width="3"/>
<line x1="432.9" y1="459.6" x2="448.2" y2="496.1" opacity="1.0" stroke="rgb(0,0,0)"  stroke-width="3"/>
<line x1="448.2" y1="496.1" x2="487.4" y2="501.2" opacity="1.0" stroke="rgb(0,0,0)"  stroke-width="3"/>
<line x1="455.1" y1="489.7" x2="482.4" y2="493.2" opacity="1.0" stroke="rgb(0,0,0)"  stroke-width="3"/>
<line x1="487.4" y1="501.2" x2="511.4" y2="469.7" opacity="1.0" stroke="rgb(0,0,0)"  stroke-width="3"/>
<line x1="511.4" y1="469.7" x2="496.2" y2="433.2" opacity="1.0" stroke="rgb(0,0,0)"  stroke-width="3"/>
<line x1="502.4" y1="466.9" x2="491.8" y2="441.5" opacity="1.0" stroke="rgb(0,0,0)"  stroke-width="3"/>
<line x1="496.2" y1="433.2" x2="456.9" y2="428.2" opacity="1.0" stroke="rgb(0,0,0)"  stroke-width="3"/>
<line x1="456.9" y1="428.2" x2="432.9" y2="459.6" opacity="1.0" stroke="rgb(0,0,0)"  stroke-width="3"/>
<line x1="459.0" y1="437.3" x2="442.3" y2="459.2" opacity="1.0" stroke="rgb(0,0,0)"  stroke-width="3"/>
<line x1="91.6" y1="121.3" x2="52.8" y2="129.0" opacity="1.0" stroke="rgb(0,0,0)"  stroke-width="3"/>
<line x1="52.8" y1="129.0" x2="40.0" y2="166.4" opacity="1.0" stroke="rgb(0,0,0)"  stroke-width="3"/>
<line x1="57.7" y1="137.0" x2="48.8" y2="163.0" opacity="1.0" stroke="rgb(0,0,0)"  stroke-width="3"/>
<line x1="40.0" y1="166.4" x2="66.0" y2="196.2" opacity="1.0" stroke="rgb(0,0,0)"  stroke-width="3"/>
<line x1="66.0" y1="196.2" x2="104.8" y2="188.6" opacity="1.0" stroke="rgb(0,0,0)"  stroke-width="3"/>
<line x1="70.5" y1="188.0" x2="97.5" y2="182.7" opacity="1.0" stroke="rgb(0,0,0)"  stroke-width="3"/>
<line x1="104.8" y1="188.6" x2="117.6" y2="151.1" opacity="1.0" stroke="rgb(0,0,0)"  stroke-width="3"/>
<line x1="117.6" y1="151.1" x2="91.6" y2="121.3" opacity="1.0" stroke="rgb(0,0,0)"  stroke-width="3"/>
<line x1="108.2" y1="151.4" x2="90.1" y2="130.6" opacity="1.0" stroke="rgb(0,0,0)"  stroke-width="3"/>
<text x="150.429073" y="151.524347" fill="rgb(12,12,255)" stroke-width="0" font-weight="bold" font-size="25.92" >N</text>
<text x="349.429188" y="281.409794" fill="rgb(12,12,255)" stroke-width="0" font-weight="bold" font-size="25.92" >N</text>
<text x="212.054385" y="277.404680" fill="rgb(12,12,255)" stroke-width="0" font-weight="bold" font-size="25.92" >N</text>
<text x="280.690850" y="239.189703" fill="rgb(255,181,181)" stroke-width="0" font-weight="bold" font-size="25.92" >B</text>
</svg>
</g>
</svg>
