<?xml version="1.0"?>
<svg version="1.1" id="topsvg"
xmlns="http://www.w3.org/2000/svg" xmlns:xlink="http://www.w3.org/1999/xlink"
xmlns:cml="http://www.xml-cml.org/schema" x="0" y="0" width="200px" height="200px" viewBox="0 0 100 100">
<title>GD243.sdf - Open Babel Depiction</title>
<rect x="0" y="0" width="100" height="100" fill="white"/>
<g transform="translate(0,0)">
<svg width="100" height="100" x="0" y="0" viewBox="0 0 621.688 551.472"
font-family="sans-serif" stroke="rgb(0,0,0)" stroke-width="3"  stroke-linecap="round">
<line x1="206.4" y1="472.1" x2="240.2" y2="492.2" opacity="1.0" stroke="rgb(0,0,0)"  stroke-width="3"/>
<line x1="206.4" y1="472.1" x2="205.7" y2="511.5" opacity="1.0" stroke="rgb(0,0,0)"  stroke-width="3"/>
<line x1="139.1" y1="431.8" x2="129.6" y2="393.6" opacity="1.0" stroke="rgb(0,0,0)"  stroke-width="3"/>
<line x1="139.1" y1="431.8" x2="99.8" y2="431.1" opacity="1.0" stroke="rgb(0,0,0)"  stroke-width="3"/>
<line x1="108.2" y1="293.7" x2="73.7" y2="312.6" opacity="1.0" stroke="rgb(0,0,0)"  stroke-width="3"/>
<line x1="73.7" y1="312.6" x2="40.0" y2="292.2" opacity="1.0" stroke="rgb(0,0,0)"  stroke-width="3"/>
<line x1="73.7" y1="312.6" x2="72.8" y2="352.0" opacity="1.0" stroke="rgb(0,0,0)"  stroke-width="3"/>
<line x1="73.7" y1="312.6" x2="74.5" y2="273.3" opacity="1.0" stroke="rgb(0,0,0)"  stroke-width="3"/>
<line x1="415.2" y1="241.2" x2="415.9" y2="201.9" opacity="1.0" stroke="rgb(0,0,0)"  stroke-width="3"/>
<line x1="415.9" y1="201.9" x2="382.2" y2="181.5" opacity="1.0" stroke="rgb(0,0,0)"  stroke-width="3"/>
<line x1="415.9" y1="201.9" x2="450.4" y2="182.8" opacity="1.0" stroke="rgb(0,0,0)"  stroke-width="3"/>
<line x1="415.9" y1="201.9" x2="416.7" y2="162.5" opacity="1.0" stroke="rgb(0,0,0)"  stroke-width="3"/>
<line x1="513.5" y1="420.4" x2="547.3" y2="440.6" opacity="1.0" stroke="rgb(0,0,0)"  stroke-width="3"/>
<line x1="547.3" y1="440.6" x2="581.7" y2="421.5" opacity="1.0" stroke="rgb(0,0,0)"  stroke-width="3"/>
<line x1="547.3" y1="440.6" x2="546.6" y2="480.0" opacity="1.0" stroke="rgb(0,0,0)"  stroke-width="3"/>
<line x1="547.3" y1="440.6" x2="547.9" y2="401.3" opacity="1.0" stroke="rgb(0,0,0)"  stroke-width="3"/>
<line x1="214.0" y1="118.7" x2="214.8" y2="79.4" opacity="1.0" stroke="rgb(0,0,0)"  stroke-width="3"/>
<line x1="214.8" y1="79.4" x2="181.0" y2="59.0" opacity="1.0" stroke="rgb(0,0,0)"  stroke-width="3"/>
<line x1="214.8" y1="79.4" x2="249.2" y2="60.3" opacity="1.0" stroke="rgb(0,0,0)"  stroke-width="3"/>
<line x1="214.8" y1="79.4" x2="215.5" y2="40.0" opacity="1.0" stroke="rgb(0,0,0)"  stroke-width="3"/>
<line x1="178.9" y1="177.0" x2="212.5" y2="197.4" opacity="1.0" stroke="rgb(0,0,0)"  stroke-width="3"/>
<line x1="212.5" y1="197.4" x2="211.9" y2="223.8" opacity="1.0" stroke="rgb(0,0,0)"  stroke-width="3"/>
<line x1="200.2" y1="243.0" x2="177.1" y2="255.6" opacity="1.0" stroke="rgb(0,0,0)"  stroke-width="3"/>
<line x1="177.1" y1="255.6" x2="143.6" y2="235.0" opacity="1.0" stroke="rgb(0,0,0)"  stroke-width="3"/>
<line x1="175.7" y1="246.3" x2="152.4" y2="232.0" opacity="1.0" stroke="rgb(0,0,0)"  stroke-width="3"/>
<line x1="143.6" y1="235.0" x2="178.9" y2="177.0" opacity="1.0" stroke="rgb(0,0,0)"  stroke-width="3"/>
<line x1="480.4" y1="360.5" x2="448.1" y2="300.8" opacity="1.0" stroke="rgb(0,0,0)"  stroke-width="3"/>
<line x1="448.1" y1="300.8" x2="413.7" y2="319.9" opacity="1.0" stroke="rgb(0,0,0)"  stroke-width="3"/>
<line x1="446.4" y1="310.0" x2="422.5" y2="323.3" opacity="1.0" stroke="rgb(0,0,0)"  stroke-width="3"/>
<line x1="413.7" y1="319.9" x2="413.1" y2="346.3" opacity="1.0" stroke="rgb(0,0,0)"  stroke-width="3"/>
<line x1="423.9" y1="366.0" x2="446.4" y2="379.8" opacity="1.0" stroke="rgb(0,0,0)"  stroke-width="3"/>
<line x1="446.4" y1="379.8" x2="480.4" y2="360.5" opacity="1.0" stroke="rgb(0,0,0)"  stroke-width="3"/>
<line x1="312.2" y1="298.1" x2="313.1" y2="258.9" opacity="1.0" stroke="rgb(0,0,0)"  stroke-width="3"/>
<line x1="313.1" y1="258.9" x2="279.6" y2="238.5" opacity="1.0" stroke="rgb(0,0,0)"  stroke-width="3"/>
<line x1="304.3" y1="261.9" x2="281.0" y2="247.7" opacity="1.0" stroke="rgb(0,0,0)"  stroke-width="3"/>
<line x1="279.6" y1="238.5" x2="245.2" y2="257.3" opacity="1.0" stroke="rgb(0,0,0)"  stroke-width="3"/>
<line x1="245.2" y1="257.3" x2="244.3" y2="296.5" opacity="1.0" stroke="rgb(0,0,0)"  stroke-width="3"/>
<line x1="252.3" y1="263.4" x2="251.6" y2="290.6" opacity="1.0" stroke="rgb(0,0,0)"  stroke-width="3"/>
<line x1="244.3" y1="296.5" x2="277.8" y2="316.9" opacity="1.0" stroke="rgb(0,0,0)"  stroke-width="3"/>
<line x1="277.8" y1="316.9" x2="312.2" y2="298.1" opacity="1.0" stroke="rgb(0,0,0)"  stroke-width="3"/>
<line x1="279.6" y1="307.7" x2="303.5" y2="294.6" opacity="1.0" stroke="rgb(0,0,0)"  stroke-width="3"/>
<line x1="265.4" y1="362.3" x2="242.4" y2="374.9" opacity="1.0" stroke="rgb(0,0,0)"  stroke-width="3"/>
<line x1="242.4" y1="374.9" x2="208.9" y2="354.5" opacity="1.0" stroke="rgb(0,0,0)"  stroke-width="3"/>
<line x1="241.0" y1="365.6" x2="217.8" y2="351.4" opacity="1.0" stroke="rgb(0,0,0)"  stroke-width="3"/>
<line x1="208.9" y1="354.5" x2="209.5" y2="328.3" opacity="1.0" stroke="rgb(0,0,0)"  stroke-width="3"/>
<line x1="221.1" y1="309.1" x2="244.3" y2="296.5" opacity="1.0" stroke="rgb(0,0,0)"  stroke-width="3"/>
<line x1="277.8" y1="316.9" x2="277.1" y2="343.1" opacity="1.0" stroke="rgb(0,0,0)"  stroke-width="3"/>
<line x1="207.0" y1="432.9" x2="173.6" y2="412.5" opacity="1.0" stroke="rgb(0,0,0)"  stroke-width="3"/>
<line x1="173.6" y1="412.5" x2="174.5" y2="373.3" opacity="1.0" stroke="rgb(0,0,0)"  stroke-width="3"/>
<line x1="180.9" y1="406.7" x2="181.5" y2="379.4" opacity="1.0" stroke="rgb(0,0,0)"  stroke-width="3"/>
<line x1="174.5" y1="373.3" x2="208.9" y2="354.5" opacity="1.0" stroke="rgb(0,0,0)"  stroke-width="3"/>
<line x1="242.4" y1="374.9" x2="241.5" y2="414.1" opacity="1.0" stroke="rgb(0,0,0)"  stroke-width="3"/>
<line x1="241.5" y1="414.1" x2="207.0" y2="432.9" opacity="1.0" stroke="rgb(0,0,0)"  stroke-width="3"/>
<line x1="232.8" y1="410.7" x2="208.9" y2="423.7" opacity="1.0" stroke="rgb(0,0,0)"  stroke-width="3"/>
<line x1="287.9" y1="362.9" x2="310.3" y2="376.5" opacity="1.0" stroke="rgb(0,0,0)"  stroke-width="3"/>
<line x1="310.3" y1="376.5" x2="344.8" y2="357.7" opacity="1.0" stroke="rgb(0,0,0)"  stroke-width="3"/>
<line x1="344.8" y1="357.7" x2="345.4" y2="331.4" opacity="1.0" stroke="rgb(0,0,0)"  stroke-width="3"/>
<line x1="334.6" y1="311.6" x2="312.2" y2="298.1" opacity="1.0" stroke="rgb(0,0,0)"  stroke-width="3"/>
<line x1="377.3" y1="417.3" x2="378.2" y2="378.1" opacity="1.0" stroke="rgb(0,0,0)"  stroke-width="3"/>
<line x1="378.2" y1="378.1" x2="344.8" y2="357.7" opacity="1.0" stroke="rgb(0,0,0)"  stroke-width="3"/>
<line x1="369.4" y1="381.2" x2="346.1" y2="367.0" opacity="1.0" stroke="rgb(0,0,0)"  stroke-width="3"/>
<line x1="310.3" y1="376.5" x2="309.4" y2="415.7" opacity="1.0" stroke="rgb(0,0,0)"  stroke-width="3"/>
<line x1="317.4" y1="382.7" x2="316.7" y2="409.9" opacity="1.0" stroke="rgb(0,0,0)"  stroke-width="3"/>
<line x1="309.4" y1="415.7" x2="342.9" y2="436.1" opacity="1.0" stroke="rgb(0,0,0)"  stroke-width="3"/>
<line x1="342.9" y1="436.1" x2="377.3" y2="417.3" opacity="1.0" stroke="rgb(0,0,0)"  stroke-width="3"/>
<line x1="344.7" y1="426.9" x2="368.6" y2="413.9" opacity="1.0" stroke="rgb(0,0,0)"  stroke-width="3"/>
<line x1="413.7" y1="319.9" x2="380.1" y2="299.5" opacity="1.0" stroke="rgb(0,0,0)"  stroke-width="3"/>
<line x1="380.1" y1="299.5" x2="357.1" y2="312.1" opacity="1.0" stroke="rgb(0,0,0)"  stroke-width="3"/>
<line x1="378.2" y1="378.1" x2="401.4" y2="365.5" opacity="1.0" stroke="rgb(0,0,0)"  stroke-width="3"/>
<line x1="222.7" y1="243.5" x2="245.2" y2="257.3" opacity="1.0" stroke="rgb(0,0,0)"  stroke-width="3"/>
<line x1="198.6" y1="308.6" x2="176.3" y2="295.0" opacity="1.0" stroke="rgb(0,0,0)"  stroke-width="3"/>
<line x1="176.3" y1="295.0" x2="177.1" y2="255.6" opacity="1.0" stroke="rgb(0,0,0)"  stroke-width="3"/>
<line x1="214.0" y1="118.7" x2="247.7" y2="138.9" opacity="1.0" stroke="rgb(0,0,0)"  stroke-width="3"/>
<line x1="215.5" y1="128.0" x2="238.8" y2="142.0" opacity="1.0" stroke="rgb(0,0,0)"  stroke-width="3"/>
<line x1="247.7" y1="138.9" x2="246.9" y2="178.3" opacity="1.0" stroke="rgb(0,0,0)"  stroke-width="3"/>
<line x1="246.9" y1="178.3" x2="212.5" y2="197.4" opacity="1.0" stroke="rgb(0,0,0)"  stroke-width="3"/>
<line x1="238.2" y1="174.9" x2="214.3" y2="188.2" opacity="1.0" stroke="rgb(0,0,0)"  stroke-width="3"/>
<line x1="178.9" y1="177.0" x2="179.6" y2="137.7" opacity="1.0" stroke="rgb(0,0,0)"  stroke-width="3"/>
<line x1="186.2" y1="171.1" x2="186.7" y2="143.8" opacity="1.0" stroke="rgb(0,0,0)"  stroke-width="3"/>
<line x1="179.6" y1="137.7" x2="214.0" y2="118.7" opacity="1.0" stroke="rgb(0,0,0)"  stroke-width="3"/>
<line x1="513.5" y1="420.4" x2="514.3" y2="381.0" opacity="1.0" stroke="rgb(0,0,0)"  stroke-width="3"/>
<line x1="514.3" y1="381.0" x2="480.4" y2="360.5" opacity="1.0" stroke="rgb(0,0,0)"  stroke-width="3"/>
<line x1="505.4" y1="384.1" x2="481.8" y2="369.7" opacity="1.0" stroke="rgb(0,0,0)"  stroke-width="3"/>
<line x1="446.4" y1="379.8" x2="445.4" y2="419.1" opacity="1.0" stroke="rgb(0,0,0)"  stroke-width="3"/>
<line x1="453.4" y1="385.9" x2="452.7" y2="413.3" opacity="1.0" stroke="rgb(0,0,0)"  stroke-width="3"/>
<line x1="445.4" y1="419.1" x2="478.9" y2="439.7" opacity="1.0" stroke="rgb(0,0,0)"  stroke-width="3"/>
<line x1="478.9" y1="439.7" x2="513.5" y2="420.4" opacity="1.0" stroke="rgb(0,0,0)"  stroke-width="3"/>
<line x1="480.7" y1="430.5" x2="504.8" y2="417.0" opacity="1.0" stroke="rgb(0,0,0)"  stroke-width="3"/>
<line x1="108.2" y1="293.7" x2="142.1" y2="314.4" opacity="1.0" stroke="rgb(0,0,0)"  stroke-width="3"/>
<line x1="142.1" y1="314.4" x2="176.3" y2="295.0" opacity="1.0" stroke="rgb(0,0,0)"  stroke-width="3"/>
<line x1="143.7" y1="305.1" x2="167.6" y2="291.7" opacity="1.0" stroke="rgb(0,0,0)"  stroke-width="3"/>
<line x1="143.6" y1="235.0" x2="108.9" y2="254.3" opacity="1.0" stroke="rgb(0,0,0)"  stroke-width="3"/>
<line x1="108.9" y1="254.3" x2="108.2" y2="293.7" opacity="1.0" stroke="rgb(0,0,0)"  stroke-width="3"/>
<line x1="116.0" y1="260.5" x2="115.5" y2="287.8" opacity="1.0" stroke="rgb(0,0,0)"  stroke-width="3"/>
<line x1="415.2" y1="241.2" x2="380.8" y2="260.2" opacity="1.0" stroke="rgb(0,0,0)"  stroke-width="3"/>
<line x1="380.8" y1="260.2" x2="380.1" y2="299.5" opacity="1.0" stroke="rgb(0,0,0)"  stroke-width="3"/>
<line x1="387.9" y1="266.3" x2="387.4" y2="293.7" opacity="1.0" stroke="rgb(0,0,0)"  stroke-width="3"/>
<line x1="448.1" y1="300.8" x2="448.9" y2="261.4" opacity="1.0" stroke="rgb(0,0,0)"  stroke-width="3"/>
<line x1="448.9" y1="261.4" x2="415.2" y2="241.2" opacity="1.0" stroke="rgb(0,0,0)"  stroke-width="3"/>
<line x1="440.0" y1="264.5" x2="416.6" y2="250.5" opacity="1.0" stroke="rgb(0,0,0)"  stroke-width="3"/>
<line x1="172.2" y1="491.4" x2="138.5" y2="471.0" opacity="1.0" stroke="rgb(0,0,0)"  stroke-width="3"/>
<line x1="138.5" y1="471.0" x2="139.1" y2="431.8" opacity="1.0" stroke="rgb(0,0,0)"  stroke-width="3"/>
<line x1="139.1" y1="431.8" x2="173.6" y2="412.5" opacity="1.0" stroke="rgb(0,0,0)"  stroke-width="3"/>
<line x1="207.0" y1="432.9" x2="206.4" y2="472.1" opacity="1.0" stroke="rgb(0,0,0)"  stroke-width="3"/>
<line x1="206.4" y1="472.1" x2="172.2" y2="491.4" opacity="1.0" stroke="rgb(0,0,0)"  stroke-width="3"/>
<text x="270.834041" y="364.093130" fill="rgb(12,12,255)" stroke-width="0" font-weight="bold" font-size="25.92" >N</text>
<text x="406.791136" y="367.266741" fill="rgb(12,12,255)" stroke-width="0" font-weight="bold" font-size="25.92" >N</text>
<text x="205.603892" y="244.763968" fill="rgb(12,12,255)" stroke-width="0" font-weight="bold" font-size="25.92" >N</text>
<text x="203.730517" y="323.326254" fill="rgb(255,181,181)" stroke-width="0" font-weight="bold" font-size="25.92" >B</text>
<text x="339.690951" y="326.363225" fill="rgb(255,181,181)" stroke-width="0" font-weight="bold" font-size="25.92" >B</text>
</svg>
</g>
</svg>
