<?xml version="1.0"?>
<svg version="1.1" id="topsvg"
xmlns="http://www.w3.org/2000/svg" xmlns:xlink="http://www.w3.org/1999/xlink"
xmlns:cml="http://www.xml-cml.org/schema" x="0" y="0" width="200px" height="200px" viewBox="0 0 100 100">
<title>GD245.sdf - Open Babel Depiction</title>
<rect x="0" y="0" width="100" height="100" fill="white"/>
<g transform="translate(0,0)">
<svg width="100" height="100" x="0" y="0" viewBox="0 0 889.005 522.567"
font-family="sans-serif" stroke="rgb(0,0,0)" stroke-width="3"  stroke-linecap="round">
<line x1="211.3" y1="264.4" x2="186.8" y2="255.0" opacity="1.0" stroke="rgb(0,0,0)"  stroke-width="3"/>
<line x1="594.8" y1="286.7" x2="619.4" y2="296.1" opacity="1.0" stroke="rgb(0,0,0)"  stroke-width="3"/>
<line x1="180.6" y1="216.3" x2="171.9" y2="159.9" opacity="1.0" stroke="rgb(0,0,0)"  stroke-width="3"/>
<line x1="139.8" y1="100.0" x2="106.4" y2="79.3" opacity="1.0" stroke="rgb(0,0,0)"  stroke-width="3"/>
<line x1="106.4" y1="79.3" x2="71.8" y2="97.8" opacity="1.0" stroke="rgb(0,0,0)"  stroke-width="3"/>
<line x1="106.4" y1="79.3" x2="107.6" y2="40.0" opacity="1.0" stroke="rgb(0,0,0)"  stroke-width="3"/>
<line x1="106.4" y1="79.3" x2="73.0" y2="58.6" opacity="1.0" stroke="rgb(0,0,0)"  stroke-width="3"/>
<line x1="207.8" y1="102.1" x2="242.4" y2="83.5" opacity="1.0" stroke="rgb(0,0,0)"  stroke-width="3"/>
<line x1="242.4" y1="83.5" x2="243.6" y2="44.3" opacity="1.0" stroke="rgb(0,0,0)"  stroke-width="3"/>
<line x1="242.4" y1="83.5" x2="275.8" y2="104.2" opacity="1.0" stroke="rgb(0,0,0)"  stroke-width="3"/>
<line x1="242.4" y1="83.5" x2="209.0" y2="62.8" opacity="1.0" stroke="rgb(0,0,0)"  stroke-width="3"/>
<line x1="346.7" y1="171.7" x2="382.6" y2="187.6" opacity="1.0" stroke="rgb(0,0,0)"  stroke-width="3"/>
<line x1="346.7" y1="171.7" x2="378.4" y2="148.5" opacity="1.0" stroke="rgb(0,0,0)"  stroke-width="3"/>
<line x1="113.4" y1="227.0" x2="76.7" y2="213.0" opacity="1.0" stroke="rgb(0,0,0)"  stroke-width="3"/>
<line x1="76.7" y1="213.0" x2="70.5" y2="174.2" opacity="1.0" stroke="rgb(0,0,0)"  stroke-width="3"/>
<line x1="76.7" y1="213.0" x2="46.2" y2="237.7" opacity="1.0" stroke="rgb(0,0,0)"  stroke-width="3"/>
<line x1="76.7" y1="213.0" x2="40.0" y2="198.9" opacity="1.0" stroke="rgb(0,0,0)"  stroke-width="3"/>
<line x1="692.8" y1="324.2" x2="729.5" y2="338.2" opacity="1.0" stroke="rgb(0,0,0)"  stroke-width="3"/>
<line x1="729.5" y1="338.2" x2="735.6" y2="377.0" opacity="1.0" stroke="rgb(0,0,0)"  stroke-width="3"/>
<line x1="729.5" y1="338.2" x2="759.9" y2="313.4" opacity="1.0" stroke="rgb(0,0,0)"  stroke-width="3"/>
<line x1="729.5" y1="338.2" x2="723.3" y2="299.4" opacity="1.0" stroke="rgb(0,0,0)"  stroke-width="3"/>
<line x1="649.9" y1="271.4" x2="713.4" y2="228.5" opacity="1.0" stroke="rgb(0,0,0)"  stroke-width="3"/>
<line x1="781.2" y1="222.8" x2="816.8" y2="239.5" opacity="1.0" stroke="rgb(0,0,0)"  stroke-width="3"/>
<line x1="816.8" y1="239.5" x2="820.1" y2="278.7" opacity="1.0" stroke="rgb(0,0,0)"  stroke-width="3"/>
<line x1="816.8" y1="239.5" x2="849.0" y2="217.1" opacity="1.0" stroke="rgb(0,0,0)"  stroke-width="3"/>
<line x1="816.8" y1="239.5" x2="813.5" y2="200.4" opacity="1.0" stroke="rgb(0,0,0)"  stroke-width="3"/>
<line x1="742.4" y1="167.0" x2="739.1" y2="127.8" opacity="1.0" stroke="rgb(0,0,0)"  stroke-width="3"/>
<line x1="739.1" y1="127.8" x2="703.5" y2="111.1" opacity="1.0" stroke="rgb(0,0,0)"  stroke-width="3"/>
<line x1="739.1" y1="127.8" x2="771.3" y2="105.4" opacity="1.0" stroke="rgb(0,0,0)"  stroke-width="3"/>
<line x1="739.1" y1="127.8" x2="735.8" y2="88.7" opacity="1.0" stroke="rgb(0,0,0)"  stroke-width="3"/>
<line x1="557.9" y1="127.0" x2="521.2" y2="112.9" opacity="1.0" stroke="rgb(0,0,0)"  stroke-width="3"/>
<line x1="557.9" y1="127.0" x2="551.7" y2="88.2" opacity="1.0" stroke="rgb(0,0,0)"  stroke-width="3"/>
<line x1="278.2" y1="141.5" x2="250.5" y2="113.7" opacity="1.0" stroke="rgb(0,0,0)"  stroke-width="3"/>
<line x1="278.2" y1="141.5" x2="240.3" y2="151.7" opacity="1.0" stroke="rgb(0,0,0)"  stroke-width="3"/>
<line x1="636.5" y1="150.3" x2="674.4" y2="140.1" opacity="1.0" stroke="rgb(0,0,0)"  stroke-width="3"/>
<line x1="636.5" y1="150.3" x2="646.7" y2="188.2" opacity="1.0" stroke="rgb(0,0,0)"  stroke-width="3"/>
<line x1="438.1" y1="265.6" x2="398.9" y2="263.6" opacity="1.0" stroke="rgb(0,0,0)"  stroke-width="3"/>
<line x1="431.8" y1="272.5" x2="404.5" y2="271.1" opacity="1.0" stroke="rgb(0,0,0)"  stroke-width="3"/>
<line x1="398.9" y1="263.6" x2="384.9" y2="300.3" opacity="1.0" stroke="rgb(0,0,0)"  stroke-width="3"/>
<line x1="384.9" y1="300.3" x2="415.4" y2="325.0" opacity="1.0" stroke="rgb(0,0,0)"  stroke-width="3"/>
<line x1="415.4" y1="325.0" x2="437.4" y2="310.7" opacity="1.0" stroke="rgb(0,0,0)"  stroke-width="3"/>
<line x1="445.0" y1="291.0" x2="438.1" y2="265.6" opacity="1.0" stroke="rgb(0,0,0)"  stroke-width="3"/>
<line x1="372.7" y1="377.9" x2="342.1" y2="353.3" opacity="1.0" stroke="rgb(0,0,0)"  stroke-width="3"/>
<line x1="363.5" y1="379.8" x2="342.3" y2="362.6" opacity="1.0" stroke="rgb(0,0,0)"  stroke-width="3"/>
<line x1="342.1" y1="353.3" x2="320.1" y2="367.6" opacity="1.0" stroke="rgb(0,0,0)"  stroke-width="3"/>
<line x1="312.6" y1="387.2" x2="319.4" y2="412.6" opacity="1.0" stroke="rgb(0,0,0)"  stroke-width="3"/>
<line x1="319.4" y1="412.6" x2="358.7" y2="414.6" opacity="1.0" stroke="rgb(0,0,0)"  stroke-width="3"/>
<line x1="325.8" y1="405.7" x2="353.0" y2="407.1" opacity="1.0" stroke="rgb(0,0,0)"  stroke-width="3"/>
<line x1="358.7" y1="414.6" x2="372.7" y2="377.9" opacity="1.0" stroke="rgb(0,0,0)"  stroke-width="3"/>
<line x1="372.7" y1="377.9" x2="409.3" y2="363.8" opacity="1.0" stroke="rgb(0,0,0)"  stroke-width="3"/>
<line x1="409.3" y1="363.8" x2="415.4" y2="325.0" opacity="1.0" stroke="rgb(0,0,0)"  stroke-width="3"/>
<line x1="403.2" y1="356.8" x2="407.4" y2="329.8" opacity="1.0" stroke="rgb(0,0,0)"  stroke-width="3"/>
<line x1="384.9" y1="300.3" x2="348.2" y2="314.5" opacity="1.0" stroke="rgb(0,0,0)"  stroke-width="3"/>
<line x1="381.9" y1="309.2" x2="356.4" y2="319.0" opacity="1.0" stroke="rgb(0,0,0)"  stroke-width="3"/>
<line x1="348.2" y1="314.5" x2="342.1" y2="353.3" opacity="1.0" stroke="rgb(0,0,0)"  stroke-width="3"/>
<line x1="297.1" y1="370.1" x2="272.5" y2="360.7" opacity="1.0" stroke="rgb(0,0,0)"  stroke-width="3"/>
<line x1="272.5" y1="360.7" x2="266.3" y2="321.9" opacity="1.0" stroke="rgb(0,0,0)"  stroke-width="3"/>
<line x1="278.7" y1="353.6" x2="274.4" y2="326.7" opacity="1.0" stroke="rgb(0,0,0)"  stroke-width="3"/>
<line x1="266.3" y1="321.9" x2="286.7" y2="305.3" opacity="1.0" stroke="rgb(0,0,0)"  stroke-width="3"/>
<line x1="309.1" y1="301.3" x2="348.2" y2="314.5" opacity="1.0" stroke="rgb(0,0,0)"  stroke-width="3"/>
<line x1="205.3" y1="371.4" x2="199.2" y2="332.6" opacity="1.0" stroke="rgb(0,0,0)"  stroke-width="3"/>
<line x1="199.2" y1="332.6" x2="229.6" y2="307.9" opacity="1.0" stroke="rgb(0,0,0)"  stroke-width="3"/>
<line x1="208.3" y1="334.4" x2="229.5" y2="317.2" opacity="1.0" stroke="rgb(0,0,0)"  stroke-width="3"/>
<line x1="229.6" y1="307.9" x2="266.3" y2="321.9" opacity="1.0" stroke="rgb(0,0,0)"  stroke-width="3"/>
<line x1="272.5" y1="360.7" x2="242.0" y2="385.4" opacity="1.0" stroke="rgb(0,0,0)"  stroke-width="3"/>
<line x1="242.0" y1="385.4" x2="205.3" y2="371.4" opacity="1.0" stroke="rgb(0,0,0)"  stroke-width="3"/>
<line x1="239.0" y1="376.6" x2="213.5" y2="366.8" opacity="1.0" stroke="rgb(0,0,0)"  stroke-width="3"/>
<line x1="253.9" y1="244.3" x2="290.6" y2="258.3" opacity="1.0" stroke="rgb(0,0,0)"  stroke-width="3"/>
<line x1="257.0" y1="253.2" x2="282.4" y2="262.9" opacity="1.0" stroke="rgb(0,0,0)"  stroke-width="3"/>
<line x1="290.6" y1="258.3" x2="294.8" y2="284.3" opacity="1.0" stroke="rgb(0,0,0)"  stroke-width="3"/>
<line x1="229.6" y1="307.9" x2="225.5" y2="281.9" opacity="1.0" stroke="rgb(0,0,0)"  stroke-width="3"/>
<line x1="233.5" y1="260.9" x2="253.9" y2="244.3" opacity="1.0" stroke="rgb(0,0,0)"  stroke-width="3"/>
<line x1="576.5" y1="243.3" x2="539.8" y2="229.3" opacity="1.0" stroke="rgb(0,0,0)"  stroke-width="3"/>
<line x1="539.8" y1="229.3" x2="519.4" y2="245.9" opacity="1.0" stroke="rgb(0,0,0)"  stroke-width="3"/>
<line x1="511.4" y1="266.9" x2="515.5" y2="292.8" opacity="1.0" stroke="rgb(0,0,0)"  stroke-width="3"/>
<line x1="515.5" y1="292.8" x2="552.2" y2="306.9" opacity="1.0" stroke="rgb(0,0,0)"  stroke-width="3"/>
<line x1="523.7" y1="288.3" x2="549.2" y2="298.0" opacity="1.0" stroke="rgb(0,0,0)"  stroke-width="3"/>
<line x1="552.2" y1="306.9" x2="572.6" y2="290.3" opacity="1.0" stroke="rgb(0,0,0)"  stroke-width="3"/>
<line x1="580.6" y1="269.3" x2="576.5" y2="243.3" opacity="1.0" stroke="rgb(0,0,0)"  stroke-width="3"/>
<line x1="355.2" y1="482.6" x2="376.5" y2="449.6" opacity="1.0" stroke="rgb(0,0,0)"  stroke-width="3"/>
<line x1="352.4" y1="473.6" x2="367.2" y2="450.7" opacity="1.0" stroke="rgb(0,0,0)"  stroke-width="3"/>
<line x1="376.5" y1="449.6" x2="358.7" y2="414.6" opacity="1.0" stroke="rgb(0,0,0)"  stroke-width="3"/>
<line x1="319.4" y1="412.6" x2="298.1" y2="445.6" opacity="1.0" stroke="rgb(0,0,0)"  stroke-width="3"/>
<line x1="298.1" y1="445.6" x2="316.0" y2="480.6" opacity="1.0" stroke="rgb(0,0,0)"  stroke-width="3"/>
<line x1="307.2" y1="447.7" x2="319.6" y2="471.9" opacity="1.0" stroke="rgb(0,0,0)"  stroke-width="3"/>
<line x1="316.0" y1="480.6" x2="355.2" y2="482.6" opacity="1.0" stroke="rgb(0,0,0)"  stroke-width="3"/>
<line x1="402.4" y1="195.7" x2="381.0" y2="228.7" opacity="1.0" stroke="rgb(0,0,0)"  stroke-width="3"/>
<line x1="405.1" y1="204.6" x2="390.3" y2="227.5" opacity="1.0" stroke="rgb(0,0,0)"  stroke-width="3"/>
<line x1="381.0" y1="228.7" x2="398.9" y2="263.6" opacity="1.0" stroke="rgb(0,0,0)"  stroke-width="3"/>
<line x1="438.1" y1="265.6" x2="459.5" y2="232.7" opacity="1.0" stroke="rgb(0,0,0)"  stroke-width="3"/>
<line x1="459.5" y1="232.7" x2="441.6" y2="197.7" opacity="1.0" stroke="rgb(0,0,0)"  stroke-width="3"/>
<line x1="450.3" y1="230.6" x2="437.9" y2="206.3" opacity="1.0" stroke="rgb(0,0,0)"  stroke-width="3"/>
<line x1="441.6" y1="197.7" x2="402.4" y2="195.7" opacity="1.0" stroke="rgb(0,0,0)"  stroke-width="3"/>
<line x1="485.0" y1="317.6" x2="515.5" y2="292.8" opacity="1.0" stroke="rgb(0,0,0)"  stroke-width="3"/>
<line x1="497.4" y1="248.9" x2="459.5" y2="232.7" opacity="1.0" stroke="rgb(0,0,0)"  stroke-width="3"/>
<line x1="460.5" y1="308.2" x2="485.0" y2="317.6" opacity="1.0" stroke="rgb(0,0,0)"  stroke-width="3"/>
<line x1="558.4" y1="345.6" x2="552.2" y2="306.9" opacity="1.0" stroke="rgb(0,0,0)"  stroke-width="3"/>
<line x1="485.0" y1="317.6" x2="491.2" y2="356.4" opacity="1.0" stroke="rgb(0,0,0)"  stroke-width="3"/>
<line x1="493.1" y1="322.4" x2="497.4" y2="349.3" opacity="1.0" stroke="rgb(0,0,0)"  stroke-width="3"/>
<line x1="491.2" y1="356.4" x2="527.9" y2="370.4" opacity="1.0" stroke="rgb(0,0,0)"  stroke-width="3"/>
<line x1="527.9" y1="370.4" x2="558.4" y2="345.6" opacity="1.0" stroke="rgb(0,0,0)"  stroke-width="3"/>
<line x1="528.0" y1="361.0" x2="549.2" y2="343.8" opacity="1.0" stroke="rgb(0,0,0)"  stroke-width="3"/>
<line x1="278.2" y1="180.8" x2="314.9" y2="194.8" opacity="1.0" stroke="rgb(0,0,0)"  stroke-width="3"/>
<line x1="314.9" y1="194.8" x2="321.1" y2="233.6" opacity="1.0" stroke="rgb(0,0,0)"  stroke-width="3"/>
<line x1="308.8" y1="201.9" x2="313.1" y2="228.8" opacity="1.0" stroke="rgb(0,0,0)"  stroke-width="3"/>
<line x1="321.1" y1="233.6" x2="290.6" y2="258.3" opacity="1.0" stroke="rgb(0,0,0)"  stroke-width="3"/>
<line x1="253.9" y1="244.3" x2="247.7" y2="205.5" opacity="1.0" stroke="rgb(0,0,0)"  stroke-width="3"/>
<line x1="247.7" y1="205.5" x2="278.2" y2="180.8" opacity="1.0" stroke="rgb(0,0,0)"  stroke-width="3"/>
<line x1="256.9" y1="207.3" x2="278.1" y2="190.1" opacity="1.0" stroke="rgb(0,0,0)"  stroke-width="3"/>
<line x1="180.6" y1="216.3" x2="143.9" y2="202.2" opacity="1.0" stroke="rgb(0,0,0)"  stroke-width="3"/>
<line x1="143.9" y1="202.2" x2="113.4" y2="227.0" opacity="1.0" stroke="rgb(0,0,0)"  stroke-width="3"/>
<line x1="143.7" y1="211.6" x2="122.6" y2="228.8" opacity="1.0" stroke="rgb(0,0,0)"  stroke-width="3"/>
<line x1="113.4" y1="227.0" x2="119.6" y2="265.8" opacity="1.0" stroke="rgb(0,0,0)"  stroke-width="3"/>
<line x1="119.6" y1="265.8" x2="156.3" y2="279.8" opacity="1.0" stroke="rgb(0,0,0)"  stroke-width="3"/>
<line x1="127.8" y1="261.2" x2="153.2" y2="270.9" opacity="1.0" stroke="rgb(0,0,0)"  stroke-width="3"/>
<line x1="156.3" y1="279.8" x2="186.8" y2="255.0" opacity="1.0" stroke="rgb(0,0,0)"  stroke-width="3"/>
<line x1="186.8" y1="255.0" x2="180.6" y2="216.3" opacity="1.0" stroke="rgb(0,0,0)"  stroke-width="3"/>
<line x1="178.7" y1="250.3" x2="174.4" y2="223.3" opacity="1.0" stroke="rgb(0,0,0)"  stroke-width="3"/>
<line x1="564.1" y1="165.7" x2="533.6" y2="190.5" opacity="1.0" stroke="rgb(0,0,0)"  stroke-width="3"/>
<line x1="533.6" y1="190.5" x2="539.8" y2="229.3" opacity="1.0" stroke="rgb(0,0,0)"  stroke-width="3"/>
<line x1="541.7" y1="195.3" x2="546.0" y2="222.2" opacity="1.0" stroke="rgb(0,0,0)"  stroke-width="3"/>
<line x1="576.5" y1="243.3" x2="607.0" y2="218.6" opacity="1.0" stroke="rgb(0,0,0)"  stroke-width="3"/>
<line x1="576.6" y1="233.9" x2="597.8" y2="216.7" opacity="1.0" stroke="rgb(0,0,0)"  stroke-width="3"/>
<line x1="607.0" y1="218.6" x2="600.8" y2="179.8" opacity="1.0" stroke="rgb(0,0,0)"  stroke-width="3"/>
<line x1="600.8" y1="179.8" x2="564.1" y2="165.7" opacity="1.0" stroke="rgb(0,0,0)"  stroke-width="3"/>
<line x1="592.6" y1="184.3" x2="567.1" y2="174.6" opacity="1.0" stroke="rgb(0,0,0)"  stroke-width="3"/>
<line x1="625.6" y1="334.9" x2="662.3" y2="348.9" opacity="1.0" stroke="rgb(0,0,0)"  stroke-width="3"/>
<line x1="662.3" y1="348.9" x2="692.8" y2="324.2" opacity="1.0" stroke="rgb(0,0,0)"  stroke-width="3"/>
<line x1="662.4" y1="339.6" x2="683.6" y2="322.4" opacity="1.0" stroke="rgb(0,0,0)"  stroke-width="3"/>
<line x1="692.8" y1="324.2" x2="686.6" y2="285.4" opacity="1.0" stroke="rgb(0,0,0)"  stroke-width="3"/>
<line x1="686.6" y1="285.4" x2="649.9" y2="271.4" opacity="1.0" stroke="rgb(0,0,0)"  stroke-width="3"/>
<line x1="678.4" y1="290.0" x2="652.9" y2="280.2" opacity="1.0" stroke="rgb(0,0,0)"  stroke-width="3"/>
<line x1="649.9" y1="271.4" x2="619.4" y2="296.1" opacity="1.0" stroke="rgb(0,0,0)"  stroke-width="3"/>
<line x1="619.4" y1="296.1" x2="625.6" y2="334.9" opacity="1.0" stroke="rgb(0,0,0)"  stroke-width="3"/>
<line x1="627.4" y1="300.9" x2="631.7" y2="327.8" opacity="1.0" stroke="rgb(0,0,0)"  stroke-width="3"/>
<line x1="206.5" y1="141.3" x2="207.8" y2="102.1" opacity="1.0" stroke="rgb(0,0,0)"  stroke-width="3"/>
<line x1="207.8" y1="102.1" x2="174.4" y2="81.4" opacity="1.0" stroke="rgb(0,0,0)"  stroke-width="3"/>
<line x1="198.9" y1="105.0" x2="175.7" y2="90.7" opacity="1.0" stroke="rgb(0,0,0)"  stroke-width="3"/>
<line x1="174.4" y1="81.4" x2="139.8" y2="100.0" opacity="1.0" stroke="rgb(0,0,0)"  stroke-width="3"/>
<line x1="139.8" y1="100.0" x2="138.5" y2="139.2" opacity="1.0" stroke="rgb(0,0,0)"  stroke-width="3"/>
<line x1="146.8" y1="106.2" x2="145.9" y2="133.4" opacity="1.0" stroke="rgb(0,0,0)"  stroke-width="3"/>
<line x1="138.5" y1="139.2" x2="171.9" y2="159.9" opacity="1.0" stroke="rgb(0,0,0)"  stroke-width="3"/>
<line x1="171.9" y1="159.9" x2="206.5" y2="141.3" opacity="1.0" stroke="rgb(0,0,0)"  stroke-width="3"/>
<line x1="173.8" y1="150.7" x2="197.9" y2="137.8" opacity="1.0" stroke="rgb(0,0,0)"  stroke-width="3"/>
<line x1="749.0" y1="245.2" x2="781.2" y2="222.8" opacity="1.0" stroke="rgb(0,0,0)"  stroke-width="3"/>
<line x1="781.2" y1="222.8" x2="777.9" y2="183.7" opacity="1.0" stroke="rgb(0,0,0)"  stroke-width="3"/>
<line x1="773.5" y1="217.4" x2="771.2" y2="190.3" opacity="1.0" stroke="rgb(0,0,0)"  stroke-width="3"/>
<line x1="777.9" y1="183.7" x2="742.4" y2="167.0" opacity="1.0" stroke="rgb(0,0,0)"  stroke-width="3"/>
<line x1="742.4" y1="167.0" x2="710.1" y2="189.4" opacity="1.0" stroke="rgb(0,0,0)"  stroke-width="3"/>
<line x1="741.6" y1="176.3" x2="719.2" y2="191.9" opacity="1.0" stroke="rgb(0,0,0)"  stroke-width="3"/>
<line x1="710.1" y1="189.4" x2="713.4" y2="228.5" opacity="1.0" stroke="rgb(0,0,0)"  stroke-width="3"/>
<line x1="713.4" y1="228.5" x2="749.0" y2="245.2" opacity="1.0" stroke="rgb(0,0,0)"  stroke-width="3"/>
<line x1="721.9" y1="224.6" x2="746.6" y2="236.2" opacity="1.0" stroke="rgb(0,0,0)"  stroke-width="3"/>
<line x1="306.0" y1="113.7" x2="342.5" y2="132.6" opacity="1.0" stroke="rgb(0,0,0)"  stroke-width="3"/>
<line x1="342.5" y1="132.6" x2="346.7" y2="171.7" opacity="1.0" stroke="rgb(0,0,0)"  stroke-width="3"/>
<line x1="346.7" y1="171.7" x2="314.9" y2="194.8" opacity="1.0" stroke="rgb(0,0,0)"  stroke-width="3"/>
<line x1="278.2" y1="180.8" x2="278.2" y2="141.5" opacity="1.0" stroke="rgb(0,0,0)"  stroke-width="3"/>
<line x1="278.2" y1="141.5" x2="306.0" y2="113.7" opacity="1.0" stroke="rgb(0,0,0)"  stroke-width="3"/>
<line x1="626.3" y1="112.4" x2="588.4" y2="102.2" opacity="1.0" stroke="rgb(0,0,0)"  stroke-width="3"/>
<line x1="588.4" y1="102.2" x2="557.9" y2="127.0" opacity="1.0" stroke="rgb(0,0,0)"  stroke-width="3"/>
<line x1="557.9" y1="127.0" x2="564.1" y2="165.7" opacity="1.0" stroke="rgb(0,0,0)"  stroke-width="3"/>
<line x1="600.8" y1="179.8" x2="636.5" y2="150.3" opacity="1.0" stroke="rgb(0,0,0)"  stroke-width="3"/>
<line x1="636.5" y1="150.3" x2="626.3" y2="112.4" opacity="1.0" stroke="rgb(0,0,0)"  stroke-width="3"/>
<text x="503.319908" y="262.047055" fill="rgb(255,181,181)" stroke-width="0" font-weight="bold" font-size="25.92" >B</text>
<text x="442.338756" y="311.568222" fill="rgb(12,12,255)" stroke-width="0" font-weight="bold" font-size="25.92" >N</text>
<text x="303.215969" y="382.696998" fill="rgb(12,12,255)" stroke-width="0" font-weight="bold" font-size="25.92" >N</text>
<text x="576.697003" y="290.097682" fill="rgb(12,12,255)" stroke-width="0" font-weight="bold" font-size="25.92" >N</text>
<text x="290.819977" y="305.125203" fill="rgb(255,181,181)" stroke-width="0" font-weight="bold" font-size="25.92" >B</text>
<text x="217.442834" y="277.074528" fill="rgb(12,12,255)" stroke-width="0" font-weight="bold" font-size="25.92" >N</text>
</svg>
</g>
</svg>
