<?xml version="1.0"?>
<svg version="1.1" id="topsvg"
xmlns="http://www.w3.org/2000/svg" xmlns:xlink="http://www.w3.org/1999/xlink"
xmlns:cml="http://www.xml-cml.org/schema" x="0" y="0" width="200px" height="200px" viewBox="0 0 100 100">
<title>GD248.sdf - Open Babel Depiction</title>
<rect x="0" y="0" width="100" height="100" fill="white"/>
<g transform="translate(0,0)">
<svg width="100" height="100" x="0" y="0" viewBox="0 0 634.754 475.652"
font-family="sans-serif" stroke="rgb(0,0,0)" stroke-width="3"  stroke-linecap="round">
<line x1="395.2" y1="152.1" x2="407.3" y2="114.7" opacity="1.0" stroke="rgb(0,0,0)"  stroke-width="3"/>
<line x1="479.5" y1="298.1" x2="517.9" y2="306.3" opacity="1.0" stroke="rgb(0,0,0)"  stroke-width="3"/>
<line x1="168.6" y1="252.6" x2="188.2" y2="218.6" opacity="1.0" stroke="rgb(0,0,0)"  stroke-width="3"/>
<line x1="188.2" y1="218.6" x2="226.6" y2="226.8" opacity="1.0" stroke="rgb(0,0,0)"  stroke-width="3"/>
<line x1="192.6" y1="226.9" x2="219.2" y2="232.6" opacity="1.0" stroke="rgb(0,0,0)"  stroke-width="3"/>
<line x1="226.6" y1="226.8" x2="229.4" y2="252.9" opacity="1.0" stroke="rgb(0,0,0)"  stroke-width="3"/>
<line x1="218.8" y1="271.1" x2="194.8" y2="281.8" opacity="1.0" stroke="rgb(0,0,0)"  stroke-width="3"/>
<line x1="194.8" y1="281.8" x2="168.6" y2="252.6" opacity="1.0" stroke="rgb(0,0,0)"  stroke-width="3"/>
<line x1="196.2" y1="272.5" x2="177.9" y2="252.3" opacity="1.0" stroke="rgb(0,0,0)"  stroke-width="3"/>
<line x1="142.0" y1="122.3" x2="176.1" y2="102.7" opacity="1.0" stroke="rgb(0,0,0)"  stroke-width="3"/>
<line x1="150.8" y1="125.6" x2="174.5" y2="111.9" opacity="1.0" stroke="rgb(0,0,0)"  stroke-width="3"/>
<line x1="176.1" y1="102.7" x2="202.3" y2="152.1" opacity="1.0" stroke="rgb(0,0,0)"  stroke-width="3"/>
<line x1="202.3" y1="152.1" x2="176.1" y2="181.3" opacity="1.0" stroke="rgb(0,0,0)"  stroke-width="3"/>
<line x1="193.0" y1="151.7" x2="174.7" y2="172.0" opacity="1.0" stroke="rgb(0,0,0)"  stroke-width="3"/>
<line x1="176.1" y1="181.3" x2="153.3" y2="168.1" opacity="1.0" stroke="rgb(0,0,0)"  stroke-width="3"/>
<line x1="142.0" y1="148.6" x2="142.0" y2="122.3" opacity="1.0" stroke="rgb(0,0,0)"  stroke-width="3"/>
<line x1="428.9" y1="252.6" x2="402.7" y2="281.8" opacity="1.0" stroke="rgb(0,0,0)"  stroke-width="3"/>
<line x1="419.6" y1="252.3" x2="401.3" y2="272.5" opacity="1.0" stroke="rgb(0,0,0)"  stroke-width="3"/>
<line x1="402.7" y1="281.8" x2="378.7" y2="271.1" opacity="1.0" stroke="rgb(0,0,0)"  stroke-width="3"/>
<line x1="368.1" y1="252.9" x2="370.9" y2="226.8" opacity="1.0" stroke="rgb(0,0,0)"  stroke-width="3"/>
<line x1="370.9" y1="226.8" x2="409.3" y2="218.6" opacity="1.0" stroke="rgb(0,0,0)"  stroke-width="3"/>
<line x1="378.3" y1="232.6" x2="404.9" y2="226.9" opacity="1.0" stroke="rgb(0,0,0)"  stroke-width="3"/>
<line x1="409.3" y1="218.6" x2="428.9" y2="252.6" opacity="1.0" stroke="rgb(0,0,0)"  stroke-width="3"/>
<line x1="264.7" y1="324.7" x2="298.8" y2="344.4" opacity="1.0" stroke="rgb(0,0,0)"  stroke-width="3"/>
<line x1="298.8" y1="344.4" x2="332.8" y2="324.7" opacity="1.0" stroke="rgb(0,0,0)"  stroke-width="3"/>
<line x1="300.3" y1="335.2" x2="324.0" y2="321.5" opacity="1.0" stroke="rgb(0,0,0)"  stroke-width="3"/>
<line x1="332.8" y1="324.7" x2="332.8" y2="285.5" opacity="1.0" stroke="rgb(0,0,0)"  stroke-width="3"/>
<line x1="332.8" y1="285.5" x2="298.8" y2="265.8" opacity="1.0" stroke="rgb(0,0,0)"  stroke-width="3"/>
<line x1="324.0" y1="288.7" x2="300.3" y2="275.1" opacity="1.0" stroke="rgb(0,0,0)"  stroke-width="3"/>
<line x1="298.8" y1="265.8" x2="264.7" y2="285.5" opacity="1.0" stroke="rgb(0,0,0)"  stroke-width="3"/>
<line x1="264.7" y1="285.5" x2="264.7" y2="324.7" opacity="1.0" stroke="rgb(0,0,0)"  stroke-width="3"/>
<line x1="271.9" y1="291.5" x2="271.9" y2="318.7" opacity="1.0" stroke="rgb(0,0,0)"  stroke-width="3"/>
<line x1="226.6" y1="226.8" x2="252.9" y2="197.6" opacity="1.0" stroke="rgb(0,0,0)"  stroke-width="3"/>
<line x1="252.9" y1="197.6" x2="287.8" y2="219.6" opacity="1.0" stroke="rgb(0,0,0)"  stroke-width="3"/>
<line x1="298.8" y1="239.6" x2="298.8" y2="265.8" opacity="1.0" stroke="rgb(0,0,0)"  stroke-width="3"/>
<line x1="264.7" y1="285.5" x2="242.0" y2="272.3" opacity="1.0" stroke="rgb(0,0,0)"  stroke-width="3"/>
<line x1="108.0" y1="63.4" x2="142.0" y2="43.8" opacity="1.0" stroke="rgb(0,0,0)"  stroke-width="3"/>
<line x1="142.0" y1="43.8" x2="176.1" y2="63.4" opacity="1.0" stroke="rgb(0,0,0)"  stroke-width="3"/>
<line x1="143.6" y1="53.0" x2="167.3" y2="66.7" opacity="1.0" stroke="rgb(0,0,0)"  stroke-width="3"/>
<line x1="176.1" y1="63.4" x2="176.1" y2="102.7" opacity="1.0" stroke="rgb(0,0,0)"  stroke-width="3"/>
<line x1="142.0" y1="122.3" x2="108.0" y2="102.7" opacity="1.0" stroke="rgb(0,0,0)"  stroke-width="3"/>
<line x1="108.0" y1="102.7" x2="108.0" y2="63.4" opacity="1.0" stroke="rgb(0,0,0)"  stroke-width="3"/>
<line x1="115.2" y1="96.7" x2="115.2" y2="69.4" opacity="1.0" stroke="rgb(0,0,0)"  stroke-width="3"/>
<line x1="355.5" y1="272.3" x2="332.8" y2="285.5" opacity="1.0" stroke="rgb(0,0,0)"  stroke-width="3"/>
<line x1="309.7" y1="219.6" x2="344.6" y2="197.6" opacity="1.0" stroke="rgb(0,0,0)"  stroke-width="3"/>
<line x1="344.6" y1="197.6" x2="370.9" y2="226.8" opacity="1.0" stroke="rgb(0,0,0)"  stroke-width="3"/>
<line x1="479.5" y1="298.1" x2="453.2" y2="327.3" opacity="1.0" stroke="rgb(0,0,0)"  stroke-width="3"/>
<line x1="453.2" y1="327.3" x2="414.8" y2="319.2" opacity="1.0" stroke="rgb(0,0,0)"  stroke-width="3"/>
<line x1="448.8" y1="319.0" x2="422.2" y2="313.4" opacity="1.0" stroke="rgb(0,0,0)"  stroke-width="3"/>
<line x1="414.8" y1="319.2" x2="402.7" y2="281.8" opacity="1.0" stroke="rgb(0,0,0)"  stroke-width="3"/>
<line x1="428.9" y1="252.6" x2="467.4" y2="260.8" opacity="1.0" stroke="rgb(0,0,0)"  stroke-width="3"/>
<line x1="467.4" y1="260.8" x2="479.5" y2="298.1" opacity="1.0" stroke="rgb(0,0,0)"  stroke-width="3"/>
<line x1="462.4" y1="268.7" x2="470.8" y2="294.7" opacity="1.0" stroke="rgb(0,0,0)"  stroke-width="3"/>
<line x1="144.3" y1="327.3" x2="118.0" y2="298.1" opacity="1.0" stroke="rgb(0,0,0)"  stroke-width="3"/>
<line x1="118.0" y1="298.1" x2="130.1" y2="260.8" opacity="1.0" stroke="rgb(0,0,0)"  stroke-width="3"/>
<line x1="126.7" y1="294.7" x2="135.1" y2="268.7" opacity="1.0" stroke="rgb(0,0,0)"  stroke-width="3"/>
<line x1="130.1" y1="260.8" x2="168.6" y2="252.6" opacity="1.0" stroke="rgb(0,0,0)"  stroke-width="3"/>
<line x1="194.8" y1="281.8" x2="182.7" y2="319.2" opacity="1.0" stroke="rgb(0,0,0)"  stroke-width="3"/>
<line x1="182.7" y1="319.2" x2="144.3" y2="327.3" opacity="1.0" stroke="rgb(0,0,0)"  stroke-width="3"/>
<line x1="175.3" y1="313.4" x2="148.7" y2="319.0" opacity="1.0" stroke="rgb(0,0,0)"  stroke-width="3"/>
<line x1="188.2" y1="218.6" x2="176.1" y2="181.3" opacity="1.0" stroke="rgb(0,0,0)"  stroke-width="3"/>
<line x1="202.3" y1="152.1" x2="240.8" y2="160.2" opacity="1.0" stroke="rgb(0,0,0)"  stroke-width="3"/>
<line x1="240.8" y1="160.2" x2="252.9" y2="197.6" opacity="1.0" stroke="rgb(0,0,0)"  stroke-width="3"/>
<line x1="235.8" y1="168.2" x2="244.2" y2="194.1" opacity="1.0" stroke="rgb(0,0,0)"  stroke-width="3"/>
<line x1="40.0" y1="220.5" x2="74.0" y2="240.2" opacity="1.0" stroke="rgb(0,0,0)"  stroke-width="3"/>
<line x1="74.0" y1="240.2" x2="108.0" y2="220.5" opacity="1.0" stroke="rgb(0,0,0)"  stroke-width="3"/>
<line x1="75.6" y1="230.9" x2="99.2" y2="217.3" opacity="1.0" stroke="rgb(0,0,0)"  stroke-width="3"/>
<line x1="108.0" y1="220.5" x2="108.0" y2="181.3" opacity="1.0" stroke="rgb(0,0,0)"  stroke-width="3"/>
<line x1="108.0" y1="181.3" x2="74.0" y2="161.6" opacity="1.0" stroke="rgb(0,0,0)"  stroke-width="3"/>
<line x1="99.2" y1="184.5" x2="75.6" y2="170.8" opacity="1.0" stroke="rgb(0,0,0)"  stroke-width="3"/>
<line x1="74.0" y1="161.6" x2="40.0" y2="181.3" opacity="1.0" stroke="rgb(0,0,0)"  stroke-width="3"/>
<line x1="40.0" y1="181.3" x2="40.0" y2="220.5" opacity="1.0" stroke="rgb(0,0,0)"  stroke-width="3"/>
<line x1="47.2" y1="187.3" x2="47.2" y2="214.5" opacity="1.0" stroke="rgb(0,0,0)"  stroke-width="3"/>
<line x1="395.2" y1="152.1" x2="356.7" y2="160.2" opacity="1.0" stroke="rgb(0,0,0)"  stroke-width="3"/>
<line x1="356.7" y1="160.2" x2="344.6" y2="197.6" opacity="1.0" stroke="rgb(0,0,0)"  stroke-width="3"/>
<line x1="361.7" y1="168.2" x2="353.3" y2="194.1" opacity="1.0" stroke="rgb(0,0,0)"  stroke-width="3"/>
<line x1="409.3" y1="218.6" x2="421.4" y2="181.3" opacity="1.0" stroke="rgb(0,0,0)"  stroke-width="3"/>
<line x1="421.4" y1="181.3" x2="395.2" y2="152.1" opacity="1.0" stroke="rgb(0,0,0)"  stroke-width="3"/>
<line x1="412.1" y1="181.6" x2="393.8" y2="161.3" opacity="1.0" stroke="rgb(0,0,0)"  stroke-width="3"/>
<line x1="285.5" y1="428.9" x2="324.2" y2="435.7" opacity="1.0" stroke="rgb(0,0,0)"  stroke-width="3"/>
<line x1="292.7" y1="422.8" x2="319.5" y2="427.5" opacity="1.0" stroke="rgb(0,0,0)"  stroke-width="3"/>
<line x1="324.2" y1="435.7" x2="349.4" y2="405.5" opacity="1.0" stroke="rgb(0,0,0)"  stroke-width="3"/>
<line x1="349.4" y1="405.5" x2="335.9" y2="368.6" opacity="1.0" stroke="rgb(0,0,0)"  stroke-width="3"/>
<line x1="340.6" y1="402.4" x2="331.2" y2="376.7" opacity="1.0" stroke="rgb(0,0,0)"  stroke-width="3"/>
<line x1="335.9" y1="368.6" x2="297.2" y2="361.9" opacity="1.0" stroke="rgb(0,0,0)"  stroke-width="3"/>
<line x1="297.2" y1="361.9" x2="272.0" y2="392.0" opacity="1.0" stroke="rgb(0,0,0)"  stroke-width="3"/>
<line x1="298.9" y1="371.1" x2="281.4" y2="392.0" opacity="1.0" stroke="rgb(0,0,0)"  stroke-width="3"/>
<line x1="272.0" y1="392.0" x2="285.5" y2="428.9" opacity="1.0" stroke="rgb(0,0,0)"  stroke-width="3"/>
<line x1="463.3" y1="387.3" x2="436.7" y2="359.5" opacity="1.0" stroke="rgb(0,0,0)"  stroke-width="3"/>
<line x1="453.9" y1="387.9" x2="435.6" y2="368.8" opacity="1.0" stroke="rgb(0,0,0)"  stroke-width="3"/>
<line x1="436.7" y1="359.5" x2="399.4" y2="368.6" opacity="1.0" stroke="rgb(0,0,0)"  stroke-width="3"/>
<line x1="399.4" y1="368.6" x2="388.6" y2="405.5" opacity="1.0" stroke="rgb(0,0,0)"  stroke-width="3"/>
<line x1="404.6" y1="376.4" x2="397.2" y2="401.8" opacity="1.0" stroke="rgb(0,0,0)"  stroke-width="3"/>
<line x1="388.6" y1="405.5" x2="415.2" y2="433.3" opacity="1.0" stroke="rgb(0,0,0)"  stroke-width="3"/>
<line x1="415.2" y1="433.3" x2="452.5" y2="424.1" opacity="1.0" stroke="rgb(0,0,0)"  stroke-width="3"/>
<line x1="419.3" y1="424.8" x2="445.0" y2="418.6" opacity="1.0" stroke="rgb(0,0,0)"  stroke-width="3"/>
<line x1="452.5" y1="424.1" x2="463.3" y2="387.3" opacity="1.0" stroke="rgb(0,0,0)"  stroke-width="3"/>
<line x1="445.7" y1="106.5" x2="457.9" y2="69.2" opacity="1.0" stroke="rgb(0,0,0)"  stroke-width="3"/>
<line x1="457.9" y1="69.2" x2="431.6" y2="40.0" opacity="1.0" stroke="rgb(0,0,0)"  stroke-width="3"/>
<line x1="448.5" y1="69.5" x2="430.2" y2="49.3" opacity="1.0" stroke="rgb(0,0,0)"  stroke-width="3"/>
<line x1="431.6" y1="40.0" x2="393.2" y2="48.2" opacity="1.0" stroke="rgb(0,0,0)"  stroke-width="3"/>
<line x1="393.2" y1="48.2" x2="381.0" y2="85.5" opacity="1.0" stroke="rgb(0,0,0)"  stroke-width="3"/>
<line x1="398.1" y1="56.1" x2="389.7" y2="82.0" opacity="1.0" stroke="rgb(0,0,0)"  stroke-width="3"/>
<line x1="381.0" y1="85.5" x2="407.3" y2="114.7" opacity="1.0" stroke="rgb(0,0,0)"  stroke-width="3"/>
<line x1="407.3" y1="114.7" x2="445.7" y2="106.5" opacity="1.0" stroke="rgb(0,0,0)"  stroke-width="3"/>
<line x1="411.7" y1="106.4" x2="438.3" y2="100.7" opacity="1.0" stroke="rgb(0,0,0)"  stroke-width="3"/>
<line x1="530.1" y1="343.7" x2="568.5" y2="351.8" opacity="1.0" stroke="rgb(0,0,0)"  stroke-width="3"/>
<line x1="568.5" y1="351.8" x2="594.8" y2="322.6" opacity="1.0" stroke="rgb(0,0,0)"  stroke-width="3"/>
<line x1="567.1" y1="342.6" x2="585.4" y2="322.3" opacity="1.0" stroke="rgb(0,0,0)"  stroke-width="3"/>
<line x1="594.8" y1="322.6" x2="582.6" y2="285.3" opacity="1.0" stroke="rgb(0,0,0)"  stroke-width="3"/>
<line x1="582.6" y1="285.3" x2="544.2" y2="277.1" opacity="1.0" stroke="rgb(0,0,0)"  stroke-width="3"/>
<line x1="575.3" y1="291.1" x2="548.6" y2="285.4" opacity="1.0" stroke="rgb(0,0,0)"  stroke-width="3"/>
<line x1="544.2" y1="277.1" x2="517.9" y2="306.3" opacity="1.0" stroke="rgb(0,0,0)"  stroke-width="3"/>
<line x1="517.9" y1="306.3" x2="530.1" y2="343.7" opacity="1.0" stroke="rgb(0,0,0)"  stroke-width="3"/>
<line x1="526.6" y1="309.8" x2="535.0" y2="335.7" opacity="1.0" stroke="rgb(0,0,0)"  stroke-width="3"/>
<line x1="108.0" y1="220.5" x2="130.1" y2="260.8" opacity="1.0" stroke="rgb(0,0,0)"  stroke-width="3"/>
<line x1="130.8" y1="168.1" x2="108.0" y2="181.3" opacity="1.0" stroke="rgb(0,0,0)"  stroke-width="3"/>
<line x1="349.4" y1="405.5" x2="388.6" y2="405.5" opacity="1.0" stroke="rgb(0,0,0)"  stroke-width="3"/>
<line x1="399.4" y1="368.6" x2="366.8" y2="344.4" opacity="1.0" stroke="rgb(0,0,0)"  stroke-width="3"/>
<line x1="366.8" y1="344.4" x2="335.9" y2="368.6" opacity="1.0" stroke="rgb(0,0,0)"  stroke-width="3"/>
<line x1="332.8" y1="324.7" x2="366.8" y2="344.4" opacity="1.0" stroke="rgb(0,0,0)"  stroke-width="3"/>
<line x1="366.8" y1="344.4" x2="414.8" y2="319.2" opacity="1.0" stroke="rgb(0,0,0)"  stroke-width="3"/>
<text x="136.044428" y="169.613663" fill="rgb(12,12,255)" stroke-width="0" font-weight="bold" font-size="25.92" >N</text>
<text x="360.779897" y="273.834604" fill="rgb(12,12,255)" stroke-width="0" font-weight="bold" font-size="25.92" >N</text>
<text x="224.720660" y="273.834604" fill="rgb(12,12,255)" stroke-width="0" font-weight="bold" font-size="25.92" >N</text>
<text x="292.750278" y="234.557688" fill="rgb(255,181,181)" stroke-width="0" font-weight="bold" font-size="25.92" >B</text>
</svg>
</g>
</svg>
