<?xml version="1.0"?>
<svg version="1.1" id="topsvg"
xmlns="http://www.w3.org/2000/svg" xmlns:xlink="http://www.w3.org/1999/xlink"
xmlns:cml="http://www.xml-cml.org/schema" x="0" y="0" width="200px" height="200px" viewBox="0 0 100 100">
<title>GD257.sdf - Open Babel Depiction</title>
<rect x="0" y="0" width="100" height="100" fill="white"/>
<g transform="translate(0,0)">
<svg width="100" height="100" x="0" y="0" viewBox="0 0 532.663 631.271"
font-family="sans-serif" stroke="rgb(0,0,0)" stroke-width="3"  stroke-linecap="round">
<line x1="190.6" y1="158.8" x2="178.3" y2="121.1" opacity="1.0" stroke="rgb(0,0,0)"  stroke-width="3"/>
<line x1="178.3" y1="121.1" x2="204.9" y2="91.6" opacity="1.0" stroke="rgb(0,0,0)"  stroke-width="3"/>
<line x1="178.3" y1="121.1" x2="139.5" y2="112.8" opacity="1.0" stroke="rgb(0,0,0)"  stroke-width="3"/>
<line x1="178.3" y1="121.1" x2="166.1" y2="83.4" opacity="1.0" stroke="rgb(0,0,0)"  stroke-width="3"/>
<line x1="105.4" y1="306.4" x2="66.6" y2="314.7" opacity="1.0" stroke="rgb(0,0,0)"  stroke-width="3"/>
<line x1="66.6" y1="314.7" x2="40.0" y2="285.2" opacity="1.0" stroke="rgb(0,0,0)"  stroke-width="3"/>
<line x1="66.6" y1="314.7" x2="54.3" y2="352.4" opacity="1.0" stroke="rgb(0,0,0)"  stroke-width="3"/>
<line x1="66.6" y1="314.7" x2="78.8" y2="276.9" opacity="1.0" stroke="rgb(0,0,0)"  stroke-width="3"/>
<line x1="400.8" y1="112.9" x2="423.9" y2="99.5" opacity="1.0" stroke="rgb(0,0,0)"  stroke-width="3"/>
<line x1="288.0" y1="353.2" x2="288.0" y2="392.8" opacity="1.0" stroke="rgb(0,0,0)"  stroke-width="3"/>
<line x1="356.7" y1="472.2" x2="391.1" y2="452.4" opacity="1.0" stroke="rgb(0,0,0)"  stroke-width="3"/>
<line x1="288.0" y1="511.9" x2="253.6" y2="531.7" opacity="1.0" stroke="rgb(0,0,0)"  stroke-width="3"/>
<line x1="156.5" y1="260.4" x2="176.3" y2="226.1" opacity="1.0" stroke="rgb(0,0,0)"  stroke-width="3"/>
<line x1="176.3" y1="226.1" x2="215.1" y2="234.3" opacity="1.0" stroke="rgb(0,0,0)"  stroke-width="3"/>
<line x1="180.7" y1="234.4" x2="207.7" y2="240.1" opacity="1.0" stroke="rgb(0,0,0)"  stroke-width="3"/>
<line x1="215.1" y1="234.3" x2="217.9" y2="260.9" opacity="1.0" stroke="rgb(0,0,0)"  stroke-width="3"/>
<line x1="207.4" y1="279.1" x2="183.0" y2="289.9" opacity="1.0" stroke="rgb(0,0,0)"  stroke-width="3"/>
<line x1="183.0" y1="289.9" x2="156.5" y2="260.4" opacity="1.0" stroke="rgb(0,0,0)"  stroke-width="3"/>
<line x1="184.3" y1="280.7" x2="165.8" y2="260.1" opacity="1.0" stroke="rgb(0,0,0)"  stroke-width="3"/>
<line x1="419.5" y1="260.4" x2="393.0" y2="289.9" opacity="1.0" stroke="rgb(0,0,0)"  stroke-width="3"/>
<line x1="410.2" y1="260.1" x2="391.7" y2="280.7" opacity="1.0" stroke="rgb(0,0,0)"  stroke-width="3"/>
<line x1="393.0" y1="289.9" x2="368.6" y2="279.1" opacity="1.0" stroke="rgb(0,0,0)"  stroke-width="3"/>
<line x1="358.1" y1="260.9" x2="360.9" y2="234.3" opacity="1.0" stroke="rgb(0,0,0)"  stroke-width="3"/>
<line x1="360.9" y1="234.3" x2="399.7" y2="226.1" opacity="1.0" stroke="rgb(0,0,0)"  stroke-width="3"/>
<line x1="368.2" y1="240.1" x2="395.3" y2="234.4" opacity="1.0" stroke="rgb(0,0,0)"  stroke-width="3"/>
<line x1="399.7" y1="226.1" x2="419.5" y2="260.4" opacity="1.0" stroke="rgb(0,0,0)"  stroke-width="3"/>
<line x1="353.3" y1="103.2" x2="377.7" y2="114.1" opacity="1.0" stroke="rgb(0,0,0)"  stroke-width="3"/>
<line x1="388.2" y1="132.3" x2="385.4" y2="158.8" opacity="1.0" stroke="rgb(0,0,0)"  stroke-width="3"/>
<line x1="385.4" y1="158.8" x2="346.6" y2="167.1" opacity="1.0" stroke="rgb(0,0,0)"  stroke-width="3"/>
<line x1="346.6" y1="167.1" x2="326.7" y2="132.7" opacity="1.0" stroke="rgb(0,0,0)"  stroke-width="3"/>
<line x1="326.7" y1="132.7" x2="353.3" y2="103.2" opacity="1.0" stroke="rgb(0,0,0)"  stroke-width="3"/>
<line x1="336.1" y1="133.1" x2="354.6" y2="112.5" opacity="1.0" stroke="rgb(0,0,0)"  stroke-width="3"/>
<line x1="253.6" y1="333.3" x2="288.0" y2="353.2" opacity="1.0" stroke="rgb(0,0,0)"  stroke-width="3"/>
<line x1="288.0" y1="353.2" x2="322.4" y2="333.3" opacity="1.0" stroke="rgb(0,0,0)"  stroke-width="3"/>
<line x1="289.6" y1="343.9" x2="313.6" y2="330.1" opacity="1.0" stroke="rgb(0,0,0)"  stroke-width="3"/>
<line x1="322.4" y1="333.3" x2="322.4" y2="293.6" opacity="1.0" stroke="rgb(0,0,0)"  stroke-width="3"/>
<line x1="322.4" y1="293.6" x2="288.0" y2="273.8" opacity="1.0" stroke="rgb(0,0,0)"  stroke-width="3"/>
<line x1="313.6" y1="296.9" x2="289.6" y2="283.0" opacity="1.0" stroke="rgb(0,0,0)"  stroke-width="3"/>
<line x1="288.0" y1="273.8" x2="253.6" y2="293.6" opacity="1.0" stroke="rgb(0,0,0)"  stroke-width="3"/>
<line x1="253.6" y1="293.6" x2="253.6" y2="333.3" opacity="1.0" stroke="rgb(0,0,0)"  stroke-width="3"/>
<line x1="260.8" y1="299.6" x2="260.8" y2="327.3" opacity="1.0" stroke="rgb(0,0,0)"  stroke-width="3"/>
<line x1="215.1" y1="234.3" x2="241.7" y2="204.8" opacity="1.0" stroke="rgb(0,0,0)"  stroke-width="3"/>
<line x1="241.7" y1="204.8" x2="277.0" y2="227.2" opacity="1.0" stroke="rgb(0,0,0)"  stroke-width="3"/>
<line x1="288.0" y1="247.1" x2="288.0" y2="273.8" opacity="1.0" stroke="rgb(0,0,0)"  stroke-width="3"/>
<line x1="253.6" y1="293.6" x2="230.5" y2="280.3" opacity="1.0" stroke="rgb(0,0,0)"  stroke-width="3"/>
<line x1="131.9" y1="335.9" x2="105.4" y2="306.4" opacity="1.0" stroke="rgb(0,0,0)"  stroke-width="3"/>
<line x1="105.4" y1="306.4" x2="117.6" y2="268.7" opacity="1.0" stroke="rgb(0,0,0)"  stroke-width="3"/>
<line x1="114.1" y1="303.0" x2="122.6" y2="276.6" opacity="1.0" stroke="rgb(0,0,0)"  stroke-width="3"/>
<line x1="117.6" y1="268.7" x2="156.5" y2="260.4" opacity="1.0" stroke="rgb(0,0,0)"  stroke-width="3"/>
<line x1="183.0" y1="289.9" x2="170.7" y2="327.7" opacity="1.0" stroke="rgb(0,0,0)"  stroke-width="3"/>
<line x1="170.7" y1="327.7" x2="131.9" y2="335.9" opacity="1.0" stroke="rgb(0,0,0)"  stroke-width="3"/>
<line x1="163.4" y1="321.9" x2="136.3" y2="327.6" opacity="1.0" stroke="rgb(0,0,0)"  stroke-width="3"/>
<line x1="345.5" y1="280.3" x2="322.4" y2="293.6" opacity="1.0" stroke="rgb(0,0,0)"  stroke-width="3"/>
<line x1="299.0" y1="227.2" x2="334.3" y2="204.8" opacity="1.0" stroke="rgb(0,0,0)"  stroke-width="3"/>
<line x1="334.3" y1="204.8" x2="360.9" y2="234.3" opacity="1.0" stroke="rgb(0,0,0)"  stroke-width="3"/>
<line x1="470.6" y1="306.4" x2="444.1" y2="335.9" opacity="1.0" stroke="rgb(0,0,0)"  stroke-width="3"/>
<line x1="444.1" y1="335.9" x2="405.3" y2="327.7" opacity="1.0" stroke="rgb(0,0,0)"  stroke-width="3"/>
<line x1="439.7" y1="327.6" x2="412.6" y2="321.9" opacity="1.0" stroke="rgb(0,0,0)"  stroke-width="3"/>
<line x1="405.3" y1="327.7" x2="393.0" y2="289.9" opacity="1.0" stroke="rgb(0,0,0)"  stroke-width="3"/>
<line x1="419.5" y1="260.4" x2="458.4" y2="268.7" opacity="1.0" stroke="rgb(0,0,0)"  stroke-width="3"/>
<line x1="458.4" y1="268.7" x2="470.6" y2="306.4" opacity="1.0" stroke="rgb(0,0,0)"  stroke-width="3"/>
<line x1="453.4" y1="276.6" x2="461.9" y2="303.0" opacity="1.0" stroke="rgb(0,0,0)"  stroke-width="3"/>
<line x1="346.6" y1="167.1" x2="334.3" y2="204.8" opacity="1.0" stroke="rgb(0,0,0)"  stroke-width="3"/>
<line x1="351.6" y1="175.0" x2="343.0" y2="201.3" opacity="1.0" stroke="rgb(0,0,0)"  stroke-width="3"/>
<line x1="399.7" y1="226.1" x2="412.0" y2="188.3" opacity="1.0" stroke="rgb(0,0,0)"  stroke-width="3"/>
<line x1="412.0" y1="188.3" x2="385.4" y2="158.8" opacity="1.0" stroke="rgb(0,0,0)"  stroke-width="3"/>
<line x1="402.6" y1="188.7" x2="384.1" y2="168.1" opacity="1.0" stroke="rgb(0,0,0)"  stroke-width="3"/>
<line x1="176.3" y1="226.1" x2="164.0" y2="188.3" opacity="1.0" stroke="rgb(0,0,0)"  stroke-width="3"/>
<line x1="164.0" y1="188.3" x2="190.6" y2="158.8" opacity="1.0" stroke="rgb(0,0,0)"  stroke-width="3"/>
<line x1="173.4" y1="188.7" x2="191.9" y2="168.1" opacity="1.0" stroke="rgb(0,0,0)"  stroke-width="3"/>
<line x1="190.6" y1="158.8" x2="229.4" y2="167.1" opacity="1.0" stroke="rgb(0,0,0)"  stroke-width="3"/>
<line x1="229.4" y1="167.1" x2="241.7" y2="204.8" opacity="1.0" stroke="rgb(0,0,0)"  stroke-width="3"/>
<line x1="224.4" y1="175.0" x2="233.0" y2="201.3" opacity="1.0" stroke="rgb(0,0,0)"  stroke-width="3"/>
<line x1="275.7" y1="86.7" x2="287.9" y2="124.5" opacity="1.0" stroke="rgb(0,0,0)"  stroke-width="3"/>
<line x1="284.4" y1="90.2" x2="292.9" y2="116.5" opacity="1.0" stroke="rgb(0,0,0)"  stroke-width="3"/>
<line x1="287.9" y1="124.5" x2="326.7" y2="132.7" opacity="1.0" stroke="rgb(0,0,0)"  stroke-width="3"/>
<line x1="353.3" y1="103.2" x2="341.0" y2="65.5" opacity="1.0" stroke="rgb(0,0,0)"  stroke-width="3"/>
<line x1="341.0" y1="65.5" x2="302.2" y2="57.2" opacity="1.0" stroke="rgb(0,0,0)"  stroke-width="3"/>
<line x1="333.7" y1="71.3" x2="306.6" y2="65.5" opacity="1.0" stroke="rgb(0,0,0)"  stroke-width="3"/>
<line x1="302.2" y1="57.2" x2="275.7" y2="86.7" opacity="1.0" stroke="rgb(0,0,0)"  stroke-width="3"/>
<line x1="458.3" y1="119.4" x2="492.7" y2="99.5" opacity="1.0" stroke="rgb(0,0,0)"  stroke-width="3"/>
<line x1="492.7" y1="99.5" x2="492.7" y2="59.8" opacity="1.0" stroke="rgb(0,0,0)"  stroke-width="3"/>
<line x1="485.5" y1="93.5" x2="485.5" y2="65.8" opacity="1.0" stroke="rgb(0,0,0)"  stroke-width="3"/>
<line x1="492.7" y1="59.8" x2="458.3" y2="40.0" opacity="1.0" stroke="rgb(0,0,0)"  stroke-width="3"/>
<line x1="458.3" y1="40.0" x2="423.9" y2="59.8" opacity="1.0" stroke="rgb(0,0,0)"  stroke-width="3"/>
<line x1="456.7" y1="49.2" x2="432.7" y2="63.1" opacity="1.0" stroke="rgb(0,0,0)"  stroke-width="3"/>
<line x1="423.9" y1="59.8" x2="423.9" y2="99.5" opacity="1.0" stroke="rgb(0,0,0)"  stroke-width="3"/>
<line x1="423.9" y1="99.5" x2="458.3" y2="119.4" opacity="1.0" stroke="rgb(0,0,0)"  stroke-width="3"/>
<line x1="432.7" y1="96.3" x2="456.7" y2="110.1" opacity="1.0" stroke="rgb(0,0,0)"  stroke-width="3"/>
<line x1="253.6" y1="412.7" x2="253.6" y2="452.4" opacity="1.0" stroke="rgb(0,0,0)"  stroke-width="3"/>
<line x1="253.6" y1="452.4" x2="288.0" y2="472.2" opacity="1.0" stroke="rgb(0,0,0)"  stroke-width="3"/>
<line x1="262.4" y1="449.1" x2="286.4" y2="463.0" opacity="1.0" stroke="rgb(0,0,0)"  stroke-width="3"/>
<line x1="288.0" y1="472.2" x2="322.4" y2="452.4" opacity="1.0" stroke="rgb(0,0,0)"  stroke-width="3"/>
<line x1="322.4" y1="452.4" x2="322.4" y2="412.7" opacity="1.0" stroke="rgb(0,0,0)"  stroke-width="3"/>
<line x1="315.2" y1="446.4" x2="315.2" y2="418.7" opacity="1.0" stroke="rgb(0,0,0)"  stroke-width="3"/>
<line x1="322.4" y1="412.7" x2="288.0" y2="392.8" opacity="1.0" stroke="rgb(0,0,0)"  stroke-width="3"/>
<line x1="288.0" y1="392.8" x2="253.6" y2="412.7" opacity="1.0" stroke="rgb(0,0,0)"  stroke-width="3"/>
<line x1="286.4" y1="402.1" x2="262.4" y2="415.9" opacity="1.0" stroke="rgb(0,0,0)"  stroke-width="3"/>
<line x1="356.7" y1="511.9" x2="356.7" y2="472.2" opacity="1.0" stroke="rgb(0,0,0)"  stroke-width="3"/>
<line x1="349.5" y1="505.9" x2="349.5" y2="478.2" opacity="1.0" stroke="rgb(0,0,0)"  stroke-width="3"/>
<line x1="356.7" y1="472.2" x2="322.4" y2="452.4" opacity="1.0" stroke="rgb(0,0,0)"  stroke-width="3"/>
<line x1="288.0" y1="472.2" x2="288.0" y2="511.9" opacity="1.0" stroke="rgb(0,0,0)"  stroke-width="3"/>
<line x1="288.0" y1="511.9" x2="322.4" y2="531.7" opacity="1.0" stroke="rgb(0,0,0)"  stroke-width="3"/>
<line x1="296.8" y1="508.7" x2="320.8" y2="522.5" opacity="1.0" stroke="rgb(0,0,0)"  stroke-width="3"/>
<line x1="322.4" y1="531.7" x2="356.7" y2="511.9" opacity="1.0" stroke="rgb(0,0,0)"  stroke-width="3"/>
<line x1="391.1" y1="571.4" x2="391.1" y2="531.7" opacity="1.0" stroke="rgb(0,0,0)"  stroke-width="3"/>
<line x1="383.9" y1="565.4" x2="383.9" y2="537.7" opacity="1.0" stroke="rgb(0,0,0)"  stroke-width="3"/>
<line x1="391.1" y1="531.7" x2="356.7" y2="511.9" opacity="1.0" stroke="rgb(0,0,0)"  stroke-width="3"/>
<line x1="322.4" y1="531.7" x2="322.4" y2="571.4" opacity="1.0" stroke="rgb(0,0,0)"  stroke-width="3"/>
<line x1="322.4" y1="571.4" x2="356.7" y2="591.3" opacity="1.0" stroke="rgb(0,0,0)"  stroke-width="3"/>
<line x1="331.2" y1="568.2" x2="355.1" y2="582.0" opacity="1.0" stroke="rgb(0,0,0)"  stroke-width="3"/>
<line x1="356.7" y1="591.3" x2="391.1" y2="571.4" opacity="1.0" stroke="rgb(0,0,0)"  stroke-width="3"/>
<line x1="219.3" y1="511.9" x2="184.9" y2="531.7" opacity="1.0" stroke="rgb(0,0,0)"  stroke-width="3"/>
<line x1="184.9" y1="531.7" x2="184.9" y2="571.4" opacity="1.0" stroke="rgb(0,0,0)"  stroke-width="3"/>
<line x1="192.1" y1="537.7" x2="192.1" y2="565.4" opacity="1.0" stroke="rgb(0,0,0)"  stroke-width="3"/>
<line x1="184.9" y1="571.4" x2="219.3" y2="591.3" opacity="1.0" stroke="rgb(0,0,0)"  stroke-width="3"/>
<line x1="219.3" y1="591.3" x2="253.6" y2="571.4" opacity="1.0" stroke="rgb(0,0,0)"  stroke-width="3"/>
<line x1="220.9" y1="582.0" x2="244.8" y2="568.2" opacity="1.0" stroke="rgb(0,0,0)"  stroke-width="3"/>
<line x1="253.6" y1="571.4" x2="253.6" y2="531.7" opacity="1.0" stroke="rgb(0,0,0)"  stroke-width="3"/>
<line x1="253.6" y1="531.7" x2="219.3" y2="511.9" opacity="1.0" stroke="rgb(0,0,0)"  stroke-width="3"/>
<line x1="244.8" y1="535.0" x2="220.9" y2="521.1" opacity="1.0" stroke="rgb(0,0,0)"  stroke-width="3"/>
<line x1="425.5" y1="472.2" x2="459.8" y2="452.4" opacity="1.0" stroke="rgb(0,0,0)"  stroke-width="3"/>
<line x1="459.8" y1="452.4" x2="459.8" y2="412.7" opacity="1.0" stroke="rgb(0,0,0)"  stroke-width="3"/>
<line x1="452.6" y1="446.4" x2="452.6" y2="418.7" opacity="1.0" stroke="rgb(0,0,0)"  stroke-width="3"/>
<line x1="459.8" y1="412.7" x2="425.5" y2="392.8" opacity="1.0" stroke="rgb(0,0,0)"  stroke-width="3"/>
<line x1="425.5" y1="392.8" x2="391.1" y2="412.7" opacity="1.0" stroke="rgb(0,0,0)"  stroke-width="3"/>
<line x1="423.9" y1="402.1" x2="399.9" y2="415.9" opacity="1.0" stroke="rgb(0,0,0)"  stroke-width="3"/>
<line x1="391.1" y1="412.7" x2="391.1" y2="452.4" opacity="1.0" stroke="rgb(0,0,0)"  stroke-width="3"/>
<line x1="391.1" y1="452.4" x2="425.5" y2="472.2" opacity="1.0" stroke="rgb(0,0,0)"  stroke-width="3"/>
<line x1="399.9" y1="449.1" x2="423.9" y2="463.0" opacity="1.0" stroke="rgb(0,0,0)"  stroke-width="3"/>
<text x="281.998441" y="242.105651" fill="rgb(255,181,181)" stroke-width="0" font-weight="bold" font-size="25.92" >B</text>
<text x="383.558042" y="127.370045" fill="rgb(12,12,255)" stroke-width="0" font-weight="bold" font-size="25.92" >N</text>
<text x="350.734921" y="281.790626" fill="rgb(12,12,255)" stroke-width="0" font-weight="bold" font-size="25.92" >N</text>
<text x="213.261961" y="281.790674" fill="rgb(12,12,255)" stroke-width="0" font-weight="bold" font-size="25.92" >N</text>
</svg>
</g>
</svg>
