<?xml version="1.0"?>
<svg version="1.1" id="topsvg"
xmlns="http://www.w3.org/2000/svg" xmlns:xlink="http://www.w3.org/1999/xlink"
xmlns:cml="http://www.xml-cml.org/schema" x="0" y="0" width="200px" height="200px" viewBox="0 0 100 100">
<title>GD252.sdf - Open Babel Depiction</title>
<rect x="0" y="0" width="100" height="100" fill="white"/>
<g transform="translate(0,0)">
<svg width="100" height="100" x="0" y="0" viewBox="0 0 453.854 530.806"
font-family="sans-serif" stroke="rgb(0,0,0)" stroke-width="3"  stroke-linecap="round">
<line x1="329.9" y1="105.9" x2="291.8" y2="110.2" opacity="1.0" stroke="rgb(0,0,0)"  stroke-width="3"/>
<line x1="324.7" y1="113.7" x2="298.6" y2="116.7" opacity="1.0" stroke="rgb(0,0,0)"  stroke-width="3"/>
<line x1="291.8" y1="110.2" x2="284.2" y2="147.7" opacity="1.0" stroke="rgb(0,0,0)"  stroke-width="3"/>
<line x1="284.2" y1="147.7" x2="317.5" y2="166.6" opacity="1.0" stroke="rgb(0,0,0)"  stroke-width="3"/>
<line x1="293.0" y1="144.4" x2="315.9" y2="157.4" opacity="1.0" stroke="rgb(0,0,0)"  stroke-width="3"/>
<line x1="317.5" y1="166.6" x2="336.2" y2="149.5" opacity="1.0" stroke="rgb(0,0,0)"  stroke-width="3"/>
<line x1="340.4" y1="128.9" x2="329.9" y2="105.9" opacity="1.0" stroke="rgb(0,0,0)"  stroke-width="3"/>
<line x1="119.0" y1="206.7" x2="152.3" y2="225.5" opacity="1.0" stroke="rgb(0,0,0)"  stroke-width="3"/>
<line x1="120.6" y1="215.9" x2="143.5" y2="228.8" opacity="1.0" stroke="rgb(0,0,0)"  stroke-width="3"/>
<line x1="152.3" y1="225.5" x2="152.5" y2="250.8" opacity="1.0" stroke="rgb(0,0,0)"  stroke-width="3"/>
<line x1="141.4" y1="270.4" x2="119.7" y2="283.3" opacity="1.0" stroke="rgb(0,0,0)"  stroke-width="3"/>
<line x1="119.7" y1="283.3" x2="86.3" y2="264.4" opacity="1.0" stroke="rgb(0,0,0)"  stroke-width="3"/>
<line x1="118.0" y1="274.0" x2="95.1" y2="261.1" opacity="1.0" stroke="rgb(0,0,0)"  stroke-width="3"/>
<line x1="86.3" y1="264.4" x2="119.0" y2="206.7" opacity="1.0" stroke="rgb(0,0,0)"  stroke-width="3"/>
<line x1="318.6" y1="281.4" x2="351.6" y2="262.0" opacity="1.0" stroke="rgb(0,0,0)"  stroke-width="3"/>
<line x1="320.1" y1="272.2" x2="342.7" y2="258.8" opacity="1.0" stroke="rgb(0,0,0)"  stroke-width="3"/>
<line x1="351.6" y1="262.0" x2="317.9" y2="204.9" opacity="1.0" stroke="rgb(0,0,0)"  stroke-width="3"/>
<line x1="317.9" y1="204.9" x2="284.9" y2="224.3" opacity="1.0" stroke="rgb(0,0,0)"  stroke-width="3"/>
<line x1="316.4" y1="214.1" x2="293.7" y2="227.5" opacity="1.0" stroke="rgb(0,0,0)"  stroke-width="3"/>
<line x1="284.9" y1="224.3" x2="285.1" y2="249.6" opacity="1.0" stroke="rgb(0,0,0)"  stroke-width="3"/>
<line x1="296.6" y1="269.0" x2="318.6" y2="281.4" opacity="1.0" stroke="rgb(0,0,0)"  stroke-width="3"/>
<line x1="151.6" y1="149.0" x2="143.3" y2="111.6" opacity="1.0" stroke="rgb(0,0,0)"  stroke-width="3"/>
<line x1="143.3" y1="111.6" x2="105.2" y2="107.9" opacity="1.0" stroke="rgb(0,0,0)"  stroke-width="3"/>
<line x1="136.6" y1="118.2" x2="110.5" y2="115.7" opacity="1.0" stroke="rgb(0,0,0)"  stroke-width="3"/>
<line x1="105.2" y1="107.9" x2="95.1" y2="131.1" opacity="1.0" stroke="rgb(0,0,0)"  stroke-width="3"/>
<line x1="99.7" y1="151.7" x2="118.6" y2="168.4" opacity="1.0" stroke="rgb(0,0,0)"  stroke-width="3"/>
<line x1="118.6" y1="168.4" x2="151.6" y2="149.0" opacity="1.0" stroke="rgb(0,0,0)"  stroke-width="3"/>
<line x1="120.1" y1="159.2" x2="142.8" y2="145.8" opacity="1.0" stroke="rgb(0,0,0)"  stroke-width="3"/>
<line x1="204.9" y1="387.6" x2="166.7" y2="389.3" opacity="1.0" stroke="rgb(0,0,0)"  stroke-width="3"/>
<line x1="166.7" y1="389.3" x2="149.0" y2="423.3" opacity="1.0" stroke="rgb(0,0,0)"  stroke-width="3"/>
<line x1="170.3" y1="397.9" x2="158.2" y2="421.3" opacity="1.0" stroke="rgb(0,0,0)"  stroke-width="3"/>
<line x1="149.0" y1="423.3" x2="169.6" y2="455.5" opacity="1.0" stroke="rgb(0,0,0)"  stroke-width="3"/>
<line x1="169.6" y1="455.5" x2="207.8" y2="453.9" opacity="1.0" stroke="rgb(0,0,0)"  stroke-width="3"/>
<line x1="175.3" y1="448.1" x2="201.5" y2="446.9" opacity="1.0" stroke="rgb(0,0,0)"  stroke-width="3"/>
<line x1="207.8" y1="453.9" x2="225.5" y2="419.9" opacity="1.0" stroke="rgb(0,0,0)"  stroke-width="3"/>
<line x1="225.5" y1="419.9" x2="204.9" y2="387.6" opacity="1.0" stroke="rgb(0,0,0)"  stroke-width="3"/>
<line x1="216.2" y1="418.7" x2="202.1" y2="396.5" opacity="1.0" stroke="rgb(0,0,0)"  stroke-width="3"/>
<line x1="40.0" y1="388.9" x2="70.0" y2="365.1" opacity="1.0" stroke="rgb(0,0,0)"  stroke-width="3"/>
<line x1="49.2" y1="390.8" x2="69.7" y2="374.5" opacity="1.0" stroke="rgb(0,0,0)"  stroke-width="3"/>
<line x1="70.0" y1="365.1" x2="105.6" y2="379.1" opacity="1.0" stroke="rgb(0,0,0)"  stroke-width="3"/>
<line x1="105.6" y1="379.1" x2="111.3" y2="417.0" opacity="1.0" stroke="rgb(0,0,0)"  stroke-width="3"/>
<line x1="99.3" y1="386.1" x2="103.2" y2="412.1" opacity="1.0" stroke="rgb(0,0,0)"  stroke-width="3"/>
<line x1="111.3" y1="417.0" x2="81.3" y2="440.8" opacity="1.0" stroke="rgb(0,0,0)"  stroke-width="3"/>
<line x1="81.3" y1="440.8" x2="45.7" y2="426.8" opacity="1.0" stroke="rgb(0,0,0)"  stroke-width="3"/>
<line x1="78.4" y1="431.9" x2="53.9" y2="422.3" opacity="1.0" stroke="rgb(0,0,0)"  stroke-width="3"/>
<line x1="45.7" y1="426.8" x2="40.0" y2="388.9" opacity="1.0" stroke="rgb(0,0,0)"  stroke-width="3"/>
<line x1="219.6" y1="339.8" x2="252.6" y2="320.3" opacity="1.0" stroke="rgb(0,0,0)"  stroke-width="3"/>
<line x1="221.2" y1="330.5" x2="243.8" y2="317.2" opacity="1.0" stroke="rgb(0,0,0)"  stroke-width="3"/>
<line x1="252.6" y1="320.3" x2="252.3" y2="282.0" opacity="1.0" stroke="rgb(0,0,0)"  stroke-width="3"/>
<line x1="252.3" y1="282.0" x2="218.9" y2="263.2" opacity="1.0" stroke="rgb(0,0,0)"  stroke-width="3"/>
<line x1="243.5" y1="285.4" x2="220.6" y2="272.4" opacity="1.0" stroke="rgb(0,0,0)"  stroke-width="3"/>
<line x1="218.9" y1="263.2" x2="186.0" y2="282.6" opacity="1.0" stroke="rgb(0,0,0)"  stroke-width="3"/>
<line x1="186.0" y1="282.6" x2="186.3" y2="320.9" opacity="1.0" stroke="rgb(0,0,0)"  stroke-width="3"/>
<line x1="193.2" y1="288.6" x2="193.5" y2="314.9" opacity="1.0" stroke="rgb(0,0,0)"  stroke-width="3"/>
<line x1="186.3" y1="320.9" x2="219.6" y2="339.8" opacity="1.0" stroke="rgb(0,0,0)"  stroke-width="3"/>
<line x1="384.9" y1="280.8" x2="351.6" y2="262.0" opacity="1.0" stroke="rgb(0,0,0)"  stroke-width="3"/>
<line x1="318.6" y1="281.4" x2="318.9" y2="319.7" opacity="1.0" stroke="rgb(0,0,0)"  stroke-width="3"/>
<line x1="318.9" y1="319.7" x2="352.3" y2="338.6" opacity="1.0" stroke="rgb(0,0,0)"  stroke-width="3"/>
<line x1="327.7" y1="316.4" x2="350.6" y2="329.3" opacity="1.0" stroke="rgb(0,0,0)"  stroke-width="3"/>
<line x1="352.3" y1="338.6" x2="385.2" y2="319.1" opacity="1.0" stroke="rgb(0,0,0)"  stroke-width="3"/>
<line x1="385.2" y1="319.1" x2="384.9" y2="280.8" opacity="1.0" stroke="rgb(0,0,0)"  stroke-width="3"/>
<line x1="378.0" y1="313.2" x2="377.7" y2="286.9" opacity="1.0" stroke="rgb(0,0,0)"  stroke-width="3"/>
<line x1="284.2" y1="147.7" x2="251.2" y2="167.2" opacity="1.0" stroke="rgb(0,0,0)"  stroke-width="3"/>
<line x1="251.2" y1="167.2" x2="251.6" y2="205.5" opacity="1.0" stroke="rgb(0,0,0)"  stroke-width="3"/>
<line x1="258.5" y1="173.1" x2="258.7" y2="199.4" opacity="1.0" stroke="rgb(0,0,0)"  stroke-width="3"/>
<line x1="251.6" y1="205.5" x2="284.9" y2="224.3" opacity="1.0" stroke="rgb(0,0,0)"  stroke-width="3"/>
<line x1="317.9" y1="204.9" x2="317.5" y2="166.6" opacity="1.0" stroke="rgb(0,0,0)"  stroke-width="3"/>
<line x1="53.7" y1="322.1" x2="53.4" y2="283.9" opacity="1.0" stroke="rgb(0,0,0)"  stroke-width="3"/>
<line x1="60.8" y1="316.1" x2="60.6" y2="289.8" opacity="1.0" stroke="rgb(0,0,0)"  stroke-width="3"/>
<line x1="53.4" y1="283.9" x2="86.3" y2="264.4" opacity="1.0" stroke="rgb(0,0,0)"  stroke-width="3"/>
<line x1="119.7" y1="283.3" x2="120.0" y2="321.5" opacity="1.0" stroke="rgb(0,0,0)"  stroke-width="3"/>
<line x1="120.0" y1="321.5" x2="90.2" y2="338.4" opacity="1.0" stroke="rgb(0,0,0)"  stroke-width="3"/>
<line x1="111.2" y1="318.2" x2="91.9" y2="329.2" opacity="1.0" stroke="rgb(0,0,0)"  stroke-width="3"/>
<line x1="90.2" y1="338.4" x2="53.7" y2="322.1" opacity="1.0" stroke="rgb(0,0,0)"  stroke-width="3"/>
<line x1="251.6" y1="205.5" x2="229.8" y2="218.3" opacity="1.0" stroke="rgb(0,0,0)"  stroke-width="3"/>
<line x1="218.7" y1="237.9" x2="218.9" y2="263.2" opacity="1.0" stroke="rgb(0,0,0)"  stroke-width="3"/>
<line x1="252.3" y1="282.0" x2="274.1" y2="269.2" opacity="1.0" stroke="rgb(0,0,0)"  stroke-width="3"/>
<line x1="372.7" y1="365.9" x2="342.7" y2="389.6" opacity="1.0" stroke="rgb(0,0,0)"  stroke-width="3"/>
<line x1="342.7" y1="389.6" x2="348.2" y2="427.5" opacity="1.0" stroke="rgb(0,0,0)"  stroke-width="3"/>
<line x1="350.7" y1="394.5" x2="354.5" y2="420.5" opacity="1.0" stroke="rgb(0,0,0)"  stroke-width="3"/>
<line x1="348.2" y1="427.5" x2="383.8" y2="441.6" opacity="1.0" stroke="rgb(0,0,0)"  stroke-width="3"/>
<line x1="383.8" y1="441.6" x2="413.9" y2="417.9" opacity="1.0" stroke="rgb(0,0,0)"  stroke-width="3"/>
<line x1="384.1" y1="432.3" x2="404.7" y2="416.0" opacity="1.0" stroke="rgb(0,0,0)"  stroke-width="3"/>
<line x1="413.9" y1="417.9" x2="408.3" y2="380.0" opacity="1.0" stroke="rgb(0,0,0)"  stroke-width="3"/>
<line x1="408.3" y1="380.0" x2="372.7" y2="365.9" opacity="1.0" stroke="rgb(0,0,0)"  stroke-width="3"/>
<line x1="400.1" y1="384.5" x2="375.7" y2="374.8" opacity="1.0" stroke="rgb(0,0,0)"  stroke-width="3"/>
<line x1="239.7" y1="463.4" x2="250.1" y2="426.6" opacity="1.0" stroke="rgb(0,0,0)"  stroke-width="3"/>
<line x1="248.3" y1="459.6" x2="255.4" y2="434.3" opacity="1.0" stroke="rgb(0,0,0)"  stroke-width="3"/>
<line x1="250.1" y1="426.6" x2="287.2" y2="417.1" opacity="1.0" stroke="rgb(0,0,0)"  stroke-width="3"/>
<line x1="287.2" y1="417.1" x2="313.9" y2="444.5" opacity="1.0" stroke="rgb(0,0,0)"  stroke-width="3"/>
<line x1="286.2" y1="426.4" x2="304.6" y2="445.2" opacity="1.0" stroke="rgb(0,0,0)"  stroke-width="3"/>
<line x1="313.9" y1="444.5" x2="303.6" y2="481.3" opacity="1.0" stroke="rgb(0,0,0)"  stroke-width="3"/>
<line x1="303.6" y1="481.3" x2="266.5" y2="490.8" opacity="1.0" stroke="rgb(0,0,0)"  stroke-width="3"/>
<line x1="296.0" y1="475.8" x2="270.5" y2="482.3" opacity="1.0" stroke="rgb(0,0,0)"  stroke-width="3"/>
<line x1="266.5" y1="490.8" x2="239.7" y2="463.4" opacity="1.0" stroke="rgb(0,0,0)"  stroke-width="3"/>
<line x1="345.1" y1="70.8" x2="329.9" y2="105.9" opacity="1.0" stroke="rgb(0,0,0)"  stroke-width="3"/>
<line x1="291.8" y1="110.2" x2="269.0" y2="79.5" opacity="1.0" stroke="rgb(0,0,0)"  stroke-width="3"/>
<line x1="269.0" y1="79.5" x2="284.3" y2="44.4" opacity="1.0" stroke="rgb(0,0,0)"  stroke-width="3"/>
<line x1="278.0" y1="76.8" x2="288.5" y2="52.7" opacity="1.0" stroke="rgb(0,0,0)"  stroke-width="3"/>
<line x1="284.3" y1="44.4" x2="322.3" y2="40.0" opacity="1.0" stroke="rgb(0,0,0)"  stroke-width="3"/>
<line x1="322.3" y1="40.0" x2="345.1" y2="70.8" opacity="1.0" stroke="rgb(0,0,0)"  stroke-width="3"/>
<line x1="320.1" y1="49.1" x2="335.7" y2="70.2" opacity="1.0" stroke="rgb(0,0,0)"  stroke-width="3"/>
<line x1="165.5" y1="80.4" x2="143.3" y2="111.6" opacity="1.0" stroke="rgb(0,0,0)"  stroke-width="3"/>
<line x1="105.2" y1="107.9" x2="89.3" y2="73.1" opacity="1.0" stroke="rgb(0,0,0)"  stroke-width="3"/>
<line x1="89.3" y1="73.1" x2="111.5" y2="41.9" opacity="1.0" stroke="rgb(0,0,0)"  stroke-width="3"/>
<line x1="98.6" y1="72.4" x2="113.9" y2="51.0" opacity="1.0" stroke="rgb(0,0,0)"  stroke-width="3"/>
<line x1="111.5" y1="41.9" x2="149.6" y2="45.6" opacity="1.0" stroke="rgb(0,0,0)"  stroke-width="3"/>
<line x1="149.6" y1="45.6" x2="165.5" y2="80.4" opacity="1.0" stroke="rgb(0,0,0)"  stroke-width="3"/>
<line x1="145.6" y1="54.0" x2="156.5" y2="77.9" opacity="1.0" stroke="rgb(0,0,0)"  stroke-width="3"/>
<line x1="152.3" y1="225.5" x2="185.3" y2="206.1" opacity="1.0" stroke="rgb(0,0,0)"  stroke-width="3"/>
<line x1="185.3" y1="206.1" x2="184.9" y2="167.8" opacity="1.0" stroke="rgb(0,0,0)"  stroke-width="3"/>
<line x1="178.0" y1="200.2" x2="177.8" y2="173.9" opacity="1.0" stroke="rgb(0,0,0)"  stroke-width="3"/>
<line x1="184.9" y1="167.8" x2="151.6" y2="149.0" opacity="1.0" stroke="rgb(0,0,0)"  stroke-width="3"/>
<line x1="118.6" y1="168.4" x2="119.0" y2="206.7" opacity="1.0" stroke="rgb(0,0,0)"  stroke-width="3"/>
<line x1="207.3" y1="218.5" x2="185.3" y2="206.1" opacity="1.0" stroke="rgb(0,0,0)"  stroke-width="3"/>
<line x1="164.0" y1="270.2" x2="186.0" y2="282.6" opacity="1.0" stroke="rgb(0,0,0)"  stroke-width="3"/>
<line x1="153.3" y1="340.4" x2="166.7" y2="389.3" opacity="1.0" stroke="rgb(0,0,0)"  stroke-width="3"/>
<line x1="149.0" y1="423.3" x2="111.3" y2="417.0" opacity="1.0" stroke="rgb(0,0,0)"  stroke-width="3"/>
<line x1="105.6" y1="379.1" x2="153.3" y2="340.4" opacity="1.0" stroke="rgb(0,0,0)"  stroke-width="3"/>
<line x1="305.0" y1="383.2" x2="342.7" y2="389.6" opacity="1.0" stroke="rgb(0,0,0)"  stroke-width="3"/>
<line x1="348.2" y1="427.5" x2="313.9" y2="444.5" opacity="1.0" stroke="rgb(0,0,0)"  stroke-width="3"/>
<line x1="287.2" y1="417.1" x2="305.0" y2="383.2" opacity="1.0" stroke="rgb(0,0,0)"  stroke-width="3"/>
<line x1="186.3" y1="320.9" x2="153.3" y2="340.4" opacity="1.0" stroke="rgb(0,0,0)"  stroke-width="3"/>
<line x1="153.3" y1="340.4" x2="120.0" y2="321.5" opacity="1.0" stroke="rgb(0,0,0)"  stroke-width="3"/>
<line x1="252.6" y1="320.3" x2="305.0" y2="383.2" opacity="1.0" stroke="rgb(0,0,0)"  stroke-width="3"/>
<line x1="305.0" y1="383.2" x2="318.9" y2="319.7" opacity="1.0" stroke="rgb(0,0,0)"  stroke-width="3"/>
<text x="212.595456" y="232.922224" fill="rgb(255,181,181)" stroke-width="0" font-weight="bold" font-size="25.92" >B</text>
<text x="339.746618" y="148.711490" fill="rgb(255,12,12)" stroke-width="0" font-weight="bold" font-size="25.92" >O</text>
<text x="279.253395" y="270.598215" fill="rgb(12,12,255)" stroke-width="0" font-weight="bold" font-size="25.92" >N</text>
<text x="83.924489" y="151.052502" fill="rgb(255,12,12)" stroke-width="0" font-weight="bold" font-size="25.92" >O</text>
<text x="146.638163" y="271.811749" fill="rgb(12,12,255)" stroke-width="0" font-weight="bold" font-size="25.92" >N</text>
</svg>
</g>
</svg>
