<?xml version="1.0"?>
<svg version="1.1" id="topsvg"
xmlns="http://www.w3.org/2000/svg" xmlns:xlink="http://www.w3.org/1999/xlink"
xmlns:cml="http://www.xml-cml.org/schema" x="0" y="0" width="200px" height="200px" viewBox="0 0 100 100">
<title>GD253.sdf - Open Babel Depiction</title>
<rect x="0" y="0" width="100" height="100" fill="white"/>
<g transform="translate(0,0)">
<svg width="100" height="100" x="0" y="0" viewBox="0 0 594.609 609.563"
font-family="sans-serif" stroke="rgb(0,0,0)" stroke-width="3"  stroke-linecap="round">
<line x1="410.4" y1="265.3" x2="419.8" y2="303.8" opacity="1.0" stroke="rgb(0,0,0)"  stroke-width="3"/>
<line x1="475.6" y1="238.1" x2="436.1" y2="235.1" opacity="1.0" stroke="rgb(0,0,0)"  stroke-width="3"/>
<line x1="307.5" y1="331.5" x2="308.7" y2="371.1" opacity="1.0" stroke="rgb(0,0,0)"  stroke-width="3"/>
<line x1="131.3" y1="162.4" x2="108.6" y2="176.4" opacity="1.0" stroke="rgb(0,0,0)"  stroke-width="3"/>
<line x1="311.0" y1="450.3" x2="312.2" y2="490.0" opacity="1.0" stroke="rgb(0,0,0)"  stroke-width="3"/>
<line x1="173.5" y1="242.8" x2="192.3" y2="207.9" opacity="1.0" stroke="rgb(0,0,0)"  stroke-width="3"/>
<line x1="192.3" y1="207.9" x2="231.3" y2="215.0" opacity="1.0" stroke="rgb(0,0,0)"  stroke-width="3"/>
<line x1="196.9" y1="216.1" x2="224.1" y2="221.0" opacity="1.0" stroke="rgb(0,0,0)"  stroke-width="3"/>
<line x1="231.3" y1="215.0" x2="234.9" y2="241.4" opacity="1.0" stroke="rgb(0,0,0)"  stroke-width="3"/>
<line x1="224.9" y1="259.9" x2="200.9" y2="271.5" opacity="1.0" stroke="rgb(0,0,0)"  stroke-width="3"/>
<line x1="200.9" y1="271.5" x2="173.5" y2="242.8" opacity="1.0" stroke="rgb(0,0,0)"  stroke-width="3"/>
<line x1="201.9" y1="262.1" x2="182.9" y2="242.2" opacity="1.0" stroke="rgb(0,0,0)"  stroke-width="3"/>
<line x1="145.3" y1="116.1" x2="183.8" y2="106.7" opacity="1.0" stroke="rgb(0,0,0)"  stroke-width="3"/>
<line x1="152.8" y1="121.6" x2="179.7" y2="115.1" opacity="1.0" stroke="rgb(0,0,0)"  stroke-width="3"/>
<line x1="183.8" y1="106.7" x2="204.6" y2="140.4" opacity="1.0" stroke="rgb(0,0,0)"  stroke-width="3"/>
<line x1="204.6" y1="140.4" x2="179.0" y2="170.6" opacity="1.0" stroke="rgb(0,0,0)"  stroke-width="3"/>
<line x1="195.2" y1="140.3" x2="177.4" y2="161.4" opacity="1.0" stroke="rgb(0,0,0)"  stroke-width="3"/>
<line x1="179.0" y1="170.6" x2="154.3" y2="160.5" opacity="1.0" stroke="rgb(0,0,0)"  stroke-width="3"/>
<line x1="143.3" y1="142.6" x2="145.3" y2="116.1" opacity="1.0" stroke="rgb(0,0,0)"  stroke-width="3"/>
<line x1="410.4" y1="265.3" x2="436.1" y2="235.1" opacity="1.0" stroke="rgb(0,0,0)"  stroke-width="3"/>
<line x1="408.8" y1="256.1" x2="426.7" y2="235.0" opacity="1.0" stroke="rgb(0,0,0)"  stroke-width="3"/>
<line x1="436.1" y1="235.1" x2="415.3" y2="201.4" opacity="1.0" stroke="rgb(0,0,0)"  stroke-width="3"/>
<line x1="415.3" y1="201.4" x2="376.8" y2="210.8" opacity="1.0" stroke="rgb(0,0,0)"  stroke-width="3"/>
<line x1="411.1" y1="209.8" x2="384.3" y2="216.3" opacity="1.0" stroke="rgb(0,0,0)"  stroke-width="3"/>
<line x1="376.8" y1="210.8" x2="374.8" y2="237.3" opacity="1.0" stroke="rgb(0,0,0)"  stroke-width="3"/>
<line x1="385.8" y1="255.2" x2="410.4" y2="265.3" opacity="1.0" stroke="rgb(0,0,0)"  stroke-width="3"/>
<line x1="272.6" y1="312.7" x2="307.5" y2="331.5" opacity="1.0" stroke="rgb(0,0,0)"  stroke-width="3"/>
<line x1="307.5" y1="331.5" x2="341.2" y2="310.7" opacity="1.0" stroke="rgb(0,0,0)"  stroke-width="3"/>
<line x1="308.8" y1="322.2" x2="332.3" y2="307.7" opacity="1.0" stroke="rgb(0,0,0)"  stroke-width="3"/>
<line x1="341.2" y1="310.7" x2="340.1" y2="271.1" opacity="1.0" stroke="rgb(0,0,0)"  stroke-width="3"/>
<line x1="340.1" y1="271.1" x2="305.2" y2="252.3" opacity="1.0" stroke="rgb(0,0,0)"  stroke-width="3"/>
<line x1="331.4" y1="274.6" x2="307.1" y2="261.5" opacity="1.0" stroke="rgb(0,0,0)"  stroke-width="3"/>
<line x1="305.2" y1="252.3" x2="271.5" y2="273.1" opacity="1.0" stroke="rgb(0,0,0)"  stroke-width="3"/>
<line x1="271.5" y1="273.1" x2="272.6" y2="312.7" opacity="1.0" stroke="rgb(0,0,0)"  stroke-width="3"/>
<line x1="278.8" y1="278.9" x2="279.6" y2="306.5" opacity="1.0" stroke="rgb(0,0,0)"  stroke-width="3"/>
<line x1="231.3" y1="215.0" x2="256.9" y2="184.8" opacity="1.0" stroke="rgb(0,0,0)"  stroke-width="3"/>
<line x1="256.9" y1="184.8" x2="292.8" y2="206.1" opacity="1.0" stroke="rgb(0,0,0)"  stroke-width="3"/>
<line x1="304.4" y1="225.7" x2="305.2" y2="252.3" opacity="1.0" stroke="rgb(0,0,0)"  stroke-width="3"/>
<line x1="271.5" y1="273.1" x2="248.0" y2="260.5" opacity="1.0" stroke="rgb(0,0,0)"  stroke-width="3"/>
<line x1="129.1" y1="49.4" x2="167.6" y2="40.0" opacity="1.0" stroke="rgb(0,0,0)"  stroke-width="3"/>
<line x1="167.6" y1="40.0" x2="194.9" y2="68.7" opacity="1.0" stroke="rgb(0,0,0)"  stroke-width="3"/>
<line x1="166.5" y1="49.3" x2="185.6" y2="69.3" opacity="1.0" stroke="rgb(0,0,0)"  stroke-width="3"/>
<line x1="194.9" y1="68.7" x2="183.8" y2="106.7" opacity="1.0" stroke="rgb(0,0,0)"  stroke-width="3"/>
<line x1="145.3" y1="116.1" x2="117.9" y2="87.4" opacity="1.0" stroke="rgb(0,0,0)"  stroke-width="3"/>
<line x1="117.9" y1="87.4" x2="129.1" y2="49.4" opacity="1.0" stroke="rgb(0,0,0)"  stroke-width="3"/>
<line x1="126.5" y1="83.7" x2="134.3" y2="57.2" opacity="1.0" stroke="rgb(0,0,0)"  stroke-width="3"/>
<line x1="340.1" y1="271.1" x2="362.7" y2="257.1" opacity="1.0" stroke="rgb(0,0,0)"  stroke-width="3"/>
<line x1="376.8" y1="210.8" x2="349.4" y2="182.1" opacity="1.0" stroke="rgb(0,0,0)"  stroke-width="3"/>
<line x1="349.4" y1="182.1" x2="314.8" y2="205.4" opacity="1.0" stroke="rgb(0,0,0)"  stroke-width="3"/>
<line x1="399.0" y1="134.7" x2="360.5" y2="144.1" opacity="1.0" stroke="rgb(0,0,0)"  stroke-width="3"/>
<line x1="360.5" y1="144.1" x2="349.4" y2="182.1" opacity="1.0" stroke="rgb(0,0,0)"  stroke-width="3"/>
<line x1="365.8" y1="151.9" x2="358.0" y2="178.4" opacity="1.0" stroke="rgb(0,0,0)"  stroke-width="3"/>
<line x1="415.3" y1="201.4" x2="426.4" y2="163.4" opacity="1.0" stroke="rgb(0,0,0)"  stroke-width="3"/>
<line x1="426.4" y1="163.4" x2="399.0" y2="134.7" opacity="1.0" stroke="rgb(0,0,0)"  stroke-width="3"/>
<line x1="417.1" y1="164.0" x2="398.0" y2="144.0" opacity="1.0" stroke="rgb(0,0,0)"  stroke-width="3"/>
<line x1="344.3" y1="77.4" x2="382.8" y2="68.0" opacity="1.0" stroke="rgb(0,0,0)"  stroke-width="3"/>
<line x1="382.8" y1="68.0" x2="410.2" y2="96.7" opacity="1.0" stroke="rgb(0,0,0)"  stroke-width="3"/>
<line x1="381.8" y1="77.3" x2="400.8" y2="97.3" opacity="1.0" stroke="rgb(0,0,0)"  stroke-width="3"/>
<line x1="410.2" y1="96.7" x2="399.0" y2="134.7" opacity="1.0" stroke="rgb(0,0,0)"  stroke-width="3"/>
<line x1="360.5" y1="144.1" x2="333.2" y2="115.4" opacity="1.0" stroke="rgb(0,0,0)"  stroke-width="3"/>
<line x1="333.2" y1="115.4" x2="344.3" y2="77.4" opacity="1.0" stroke="rgb(0,0,0)"  stroke-width="3"/>
<line x1="341.8" y1="111.7" x2="349.5" y2="85.2" opacity="1.0" stroke="rgb(0,0,0)"  stroke-width="3"/>
<line x1="274.9" y1="391.9" x2="276.1" y2="431.5" opacity="1.0" stroke="rgb(0,0,0)"  stroke-width="3"/>
<line x1="276.1" y1="431.5" x2="311.0" y2="450.3" opacity="1.0" stroke="rgb(0,0,0)"  stroke-width="3"/>
<line x1="284.8" y1="428.0" x2="309.1" y2="441.1" opacity="1.0" stroke="rgb(0,0,0)"  stroke-width="3"/>
<line x1="311.0" y1="450.3" x2="344.7" y2="429.5" opacity="1.0" stroke="rgb(0,0,0)"  stroke-width="3"/>
<line x1="344.7" y1="429.5" x2="343.5" y2="389.9" opacity="1.0" stroke="rgb(0,0,0)"  stroke-width="3"/>
<line x1="337.3" y1="423.7" x2="336.5" y2="396.1" opacity="1.0" stroke="rgb(0,0,0)"  stroke-width="3"/>
<line x1="343.5" y1="389.9" x2="308.7" y2="371.1" opacity="1.0" stroke="rgb(0,0,0)"  stroke-width="3"/>
<line x1="308.7" y1="371.1" x2="274.9" y2="391.9" opacity="1.0" stroke="rgb(0,0,0)"  stroke-width="3"/>
<line x1="307.3" y1="380.4" x2="283.8" y2="394.9" opacity="1.0" stroke="rgb(0,0,0)"  stroke-width="3"/>
<line x1="151.2" y1="318.8" x2="123.9" y2="290.2" opacity="1.0" stroke="rgb(0,0,0)"  stroke-width="3"/>
<line x1="123.9" y1="290.2" x2="135.0" y2="252.2" opacity="1.0" stroke="rgb(0,0,0)"  stroke-width="3"/>
<line x1="132.5" y1="286.5" x2="140.2" y2="259.9" opacity="1.0" stroke="rgb(0,0,0)"  stroke-width="3"/>
<line x1="135.0" y1="252.2" x2="173.5" y2="242.8" opacity="1.0" stroke="rgb(0,0,0)"  stroke-width="3"/>
<line x1="200.9" y1="271.5" x2="189.7" y2="309.5" opacity="1.0" stroke="rgb(0,0,0)"  stroke-width="3"/>
<line x1="189.7" y1="309.5" x2="151.2" y2="318.8" opacity="1.0" stroke="rgb(0,0,0)"  stroke-width="3"/>
<line x1="182.2" y1="303.9" x2="155.4" y2="310.4" opacity="1.0" stroke="rgb(0,0,0)"  stroke-width="3"/>
<line x1="192.3" y1="207.9" x2="179.0" y2="170.6" opacity="1.0" stroke="rgb(0,0,0)"  stroke-width="3"/>
<line x1="204.6" y1="140.4" x2="243.6" y2="147.5" opacity="1.0" stroke="rgb(0,0,0)"  stroke-width="3"/>
<line x1="243.6" y1="147.5" x2="256.9" y2="184.8" opacity="1.0" stroke="rgb(0,0,0)"  stroke-width="3"/>
<line x1="238.8" y1="155.6" x2="248.1" y2="181.6" opacity="1.0" stroke="rgb(0,0,0)"  stroke-width="3"/>
<line x1="391.2" y1="331.2" x2="400.5" y2="369.7" opacity="1.0" stroke="rgb(0,0,0)"  stroke-width="3"/>
<line x1="400.5" y1="369.7" x2="438.5" y2="380.8" opacity="1.0" stroke="rgb(0,0,0)"  stroke-width="3"/>
<line x1="408.3" y1="364.5" x2="434.8" y2="372.2" opacity="1.0" stroke="rgb(0,0,0)"  stroke-width="3"/>
<line x1="438.5" y1="380.8" x2="467.2" y2="353.5" opacity="1.0" stroke="rgb(0,0,0)"  stroke-width="3"/>
<line x1="467.2" y1="353.5" x2="457.8" y2="315.0" opacity="1.0" stroke="rgb(0,0,0)"  stroke-width="3"/>
<line x1="458.8" y1="349.3" x2="452.3" y2="322.5" opacity="1.0" stroke="rgb(0,0,0)"  stroke-width="3"/>
<line x1="457.8" y1="315.0" x2="419.8" y2="303.8" opacity="1.0" stroke="rgb(0,0,0)"  stroke-width="3"/>
<line x1="419.8" y1="303.8" x2="391.2" y2="331.2" opacity="1.0" stroke="rgb(0,0,0)"  stroke-width="3"/>
<line x1="420.4" y1="313.2" x2="400.5" y2="332.2" opacity="1.0" stroke="rgb(0,0,0)"  stroke-width="3"/>
<line x1="492.8" y1="273.8" x2="532.3" y2="276.8" opacity="1.0" stroke="rgb(0,0,0)"  stroke-width="3"/>
<line x1="532.3" y1="276.8" x2="554.6" y2="244.1" opacity="1.0" stroke="rgb(0,0,0)"  stroke-width="3"/>
<line x1="529.7" y1="267.8" x2="545.3" y2="245.0" opacity="1.0" stroke="rgb(0,0,0)"  stroke-width="3"/>
<line x1="554.6" y1="244.1" x2="537.4" y2="208.4" opacity="1.0" stroke="rgb(0,0,0)"  stroke-width="3"/>
<line x1="537.4" y1="208.4" x2="497.9" y2="205.4" opacity="1.0" stroke="rgb(0,0,0)"  stroke-width="3"/>
<line x1="530.9" y1="215.1" x2="503.4" y2="213.0" opacity="1.0" stroke="rgb(0,0,0)"  stroke-width="3"/>
<line x1="497.9" y1="205.4" x2="475.6" y2="238.1" opacity="1.0" stroke="rgb(0,0,0)"  stroke-width="3"/>
<line x1="475.6" y1="238.1" x2="492.8" y2="273.8" opacity="1.0" stroke="rgb(0,0,0)"  stroke-width="3"/>
<line x1="484.7" y1="240.4" x2="496.6" y2="265.3" opacity="1.0" stroke="rgb(0,0,0)"  stroke-width="3"/>
<line x1="73.7" y1="157.6" x2="40.0" y2="178.4" opacity="1.0" stroke="rgb(0,0,0)"  stroke-width="3"/>
<line x1="40.0" y1="178.4" x2="41.2" y2="218.0" opacity="1.0" stroke="rgb(0,0,0)"  stroke-width="3"/>
<line x1="47.4" y1="184.2" x2="48.2" y2="211.8" opacity="1.0" stroke="rgb(0,0,0)"  stroke-width="3"/>
<line x1="41.2" y1="218.0" x2="76.0" y2="236.8" opacity="1.0" stroke="rgb(0,0,0)"  stroke-width="3"/>
<line x1="76.0" y1="236.8" x2="109.8" y2="216.0" opacity="1.0" stroke="rgb(0,0,0)"  stroke-width="3"/>
<line x1="77.4" y1="227.5" x2="100.9" y2="213.0" opacity="1.0" stroke="rgb(0,0,0)"  stroke-width="3"/>
<line x1="109.8" y1="216.0" x2="108.6" y2="176.4" opacity="1.0" stroke="rgb(0,0,0)"  stroke-width="3"/>
<line x1="108.6" y1="176.4" x2="73.7" y2="157.6" opacity="1.0" stroke="rgb(0,0,0)"  stroke-width="3"/>
<line x1="99.9" y1="179.9" x2="75.6" y2="166.8" opacity="1.0" stroke="rgb(0,0,0)"  stroke-width="3"/>
<line x1="277.5" y1="509.5" x2="277.5" y2="549.2" opacity="1.0" stroke="rgb(0,0,0)"  stroke-width="3"/>
<line x1="277.5" y1="549.2" x2="312.2" y2="569.6" opacity="1.0" stroke="rgb(0,0,0)"  stroke-width="3"/>
<line x1="286.3" y1="546.0" x2="310.6" y2="560.3" opacity="1.0" stroke="rgb(0,0,0)"  stroke-width="3"/>
<line x1="312.2" y1="569.6" x2="346.9" y2="549.2" opacity="1.0" stroke="rgb(0,0,0)"  stroke-width="3"/>
<line x1="346.9" y1="549.2" x2="346.9" y2="509.5" opacity="1.0" stroke="rgb(0,0,0)"  stroke-width="3"/>
<line x1="339.7" y1="543.2" x2="339.7" y2="515.5" opacity="1.0" stroke="rgb(0,0,0)"  stroke-width="3"/>
<line x1="346.9" y1="509.5" x2="312.2" y2="490.0" opacity="1.0" stroke="rgb(0,0,0)"  stroke-width="3"/>
<line x1="312.2" y1="490.0" x2="277.5" y2="509.5" opacity="1.0" stroke="rgb(0,0,0)"  stroke-width="3"/>
<line x1="310.4" y1="499.3" x2="286.2" y2="512.8" opacity="1.0" stroke="rgb(0,0,0)"  stroke-width="3"/>
<text x="136.318343" y="163.561136" fill="rgb(12,12,255)" stroke-width="0" font-weight="bold" font-size="25.92" >N</text>
<text x="298.027488" y="220.671654" fill="rgb(255,181,181)" stroke-width="0" font-weight="bold" font-size="25.92" >B</text>
<text x="367.786365" y="258.268044" fill="rgb(12,12,255)" stroke-width="0" font-weight="bold" font-size="25.92" >N</text>
<text x="230.588559" y="262.286373" fill="rgb(12,12,255)" stroke-width="0" font-weight="bold" font-size="25.92" >N</text>
</svg>
</g>
</svg>
