<?xml version="1.0"?>
<svg version="1.1" id="topsvg"
xmlns="http://www.w3.org/2000/svg" xmlns:xlink="http://www.w3.org/1999/xlink"
xmlns:cml="http://www.xml-cml.org/schema" x="0" y="0" width="200px" height="200px" viewBox="0 0 100 100">
<title>GD255.sdf - Open Babel Depiction</title>
<rect x="0" y="0" width="100" height="100" fill="white"/>
<g transform="translate(0,0)">
<svg width="100" height="100" x="0" y="0" viewBox="0 0 584.586 576.129"
font-family="sans-serif" stroke="rgb(0,0,0)" stroke-width="3"  stroke-linecap="round">
<line x1="406.8" y1="288.9" x2="422.3" y2="325.1" opacity="1.0" stroke="rgb(0,0,0)"  stroke-width="3"/>
<line x1="466.2" y1="251.5" x2="427.0" y2="255.1" opacity="1.0" stroke="rgb(0,0,0)"  stroke-width="3"/>
<line x1="297.6" y1="356.1" x2="297.6" y2="457.4" opacity="1.0" stroke="rgb(0,0,0)"  stroke-width="3"/>
<line x1="232.9" y1="158.1" x2="232.9" y2="118.7" opacity="1.0" stroke="rgb(0,0,0)"  stroke-width="3"/>
<line x1="74.1" y1="279.1" x2="40.0" y2="259.4" opacity="1.0" stroke="rgb(0,0,0)"  stroke-width="3"/>
<line x1="74.1" y1="279.1" x2="74.1" y2="239.7" opacity="1.0" stroke="rgb(0,0,0)"  stroke-width="3"/>
<line x1="111.2" y1="347.8" x2="111.2" y2="387.2" opacity="1.0" stroke="rgb(0,0,0)"  stroke-width="3"/>
<line x1="111.2" y1="347.8" x2="145.3" y2="367.5" opacity="1.0" stroke="rgb(0,0,0)"  stroke-width="3"/>
<line x1="195.3" y1="398.3" x2="195.3" y2="359.0" opacity="1.0" stroke="rgb(0,0,0)"  stroke-width="3"/>
<line x1="195.3" y1="359.0" x2="195.3" y2="319.6" opacity="1.0" stroke="rgb(0,0,0)"  stroke-width="3"/>
<line x1="195.3" y1="359.0" x2="161.2" y2="339.3" opacity="1.0" stroke="rgb(0,0,0)"  stroke-width="3"/>
<line x1="195.3" y1="359.0" x2="229.4" y2="339.3" opacity="1.0" stroke="rgb(0,0,0)"  stroke-width="3"/>
<line x1="161.2" y1="457.4" x2="127.1" y2="477.1" opacity="1.0" stroke="rgb(0,0,0)"  stroke-width="3"/>
<line x1="127.1" y1="477.1" x2="93.0" y2="496.8" opacity="1.0" stroke="rgb(0,0,0)"  stroke-width="3"/>
<line x1="127.1" y1="477.1" x2="93.0" y2="457.4" opacity="1.0" stroke="rgb(0,0,0)"  stroke-width="3"/>
<line x1="127.1" y1="477.1" x2="127.1" y2="516.4" opacity="1.0" stroke="rgb(0,0,0)"  stroke-width="3"/>
<line x1="263.5" y1="477.1" x2="229.4" y2="457.4" opacity="1.0" stroke="rgb(0,0,0)"  stroke-width="3"/>
<line x1="173.0" y1="247.1" x2="197.9" y2="216.6" opacity="1.0" stroke="rgb(0,0,0)"  stroke-width="3"/>
<line x1="197.9" y1="216.6" x2="231.6" y2="236.8" opacity="1.0" stroke="rgb(0,0,0)"  stroke-width="3"/>
<line x1="231.6" y1="236.8" x2="231.3" y2="263.2" opacity="1.0" stroke="rgb(0,0,0)"  stroke-width="3"/>
<line x1="218.3" y1="278.0" x2="192.2" y2="281.5" opacity="1.0" stroke="rgb(0,0,0)"  stroke-width="3"/>
<line x1="192.2" y1="281.5" x2="173.0" y2="247.1" opacity="1.0" stroke="rgb(0,0,0)"  stroke-width="3"/>
<line x1="195.5" y1="272.7" x2="182.2" y2="248.8" opacity="1.0" stroke="rgb(0,0,0)"  stroke-width="3"/>
<line x1="427.0" y1="255.1" x2="401.0" y2="225.5" opacity="1.0" stroke="rgb(0,0,0)"  stroke-width="3"/>
<line x1="401.0" y1="225.5" x2="364.8" y2="241.0" opacity="1.0" stroke="rgb(0,0,0)"  stroke-width="3"/>
<line x1="398.3" y1="234.5" x2="373.2" y2="245.3" opacity="1.0" stroke="rgb(0,0,0)"  stroke-width="3"/>
<line x1="364.8" y1="241.0" x2="367.2" y2="267.3" opacity="1.0" stroke="rgb(0,0,0)"  stroke-width="3"/>
<line x1="381.1" y1="283.1" x2="406.8" y2="288.9" opacity="1.0" stroke="rgb(0,0,0)"  stroke-width="3"/>
<line x1="406.8" y1="288.9" x2="427.0" y2="255.1" opacity="1.0" stroke="rgb(0,0,0)"  stroke-width="3"/>
<line x1="403.7" y1="280.1" x2="417.7" y2="256.6" opacity="1.0" stroke="rgb(0,0,0)"  stroke-width="3"/>
<line x1="264.1" y1="335.5" x2="297.6" y2="356.1" opacity="1.0" stroke="rgb(0,0,0)"  stroke-width="3"/>
<line x1="297.6" y1="356.1" x2="332.2" y2="337.4" opacity="1.0" stroke="rgb(0,0,0)"  stroke-width="3"/>
<line x1="299.5" y1="346.9" x2="323.5" y2="333.9" opacity="1.0" stroke="rgb(0,0,0)"  stroke-width="3"/>
<line x1="332.2" y1="337.4" x2="333.3" y2="298.0" opacity="1.0" stroke="rgb(0,0,0)"  stroke-width="3"/>
<line x1="333.3" y1="298.0" x2="299.8" y2="277.4" opacity="1.0" stroke="rgb(0,0,0)"  stroke-width="3"/>
<line x1="324.4" y1="301.0" x2="301.1" y2="286.7" opacity="1.0" stroke="rgb(0,0,0)"  stroke-width="3"/>
<line x1="299.8" y1="277.4" x2="265.1" y2="296.2" opacity="1.0" stroke="rgb(0,0,0)"  stroke-width="3"/>
<line x1="265.1" y1="296.2" x2="264.1" y2="335.5" opacity="1.0" stroke="rgb(0,0,0)"  stroke-width="3"/>
<line x1="272.2" y1="302.4" x2="271.4" y2="329.7" opacity="1.0" stroke="rgb(0,0,0)"  stroke-width="3"/>
<line x1="299.8" y1="251.0" x2="299.8" y2="277.4" opacity="1.0" stroke="rgb(0,0,0)"  stroke-width="3"/>
<line x1="265.1" y1="296.2" x2="242.4" y2="282.8" opacity="1.0" stroke="rgb(0,0,0)"  stroke-width="3"/>
<line x1="231.6" y1="236.8" x2="266.0" y2="217.7" opacity="1.0" stroke="rgb(0,0,0)"  stroke-width="3"/>
<line x1="240.4" y1="240.2" x2="264.3" y2="226.9" opacity="1.0" stroke="rgb(0,0,0)"  stroke-width="3"/>
<line x1="266.0" y1="217.7" x2="288.6" y2="231.3" opacity="1.0" stroke="rgb(0,0,0)"  stroke-width="3"/>
<line x1="364.8" y1="241.0" x2="333.3" y2="217.4" opacity="1.0" stroke="rgb(0,0,0)"  stroke-width="3"/>
<line x1="333.3" y1="217.4" x2="310.8" y2="231.2" opacity="1.0" stroke="rgb(0,0,0)"  stroke-width="3"/>
<line x1="333.3" y1="298.0" x2="356.8" y2="286.1" opacity="1.0" stroke="rgb(0,0,0)"  stroke-width="3"/>
<line x1="132.7" y1="314.8" x2="172.0" y2="315.3" opacity="1.0" stroke="rgb(0,0,0)"  stroke-width="3"/>
<line x1="138.8" y1="307.7" x2="166.1" y2="308.0" opacity="1.0" stroke="rgb(0,0,0)"  stroke-width="3"/>
<line x1="172.0" y1="315.3" x2="192.2" y2="281.5" opacity="1.0" stroke="rgb(0,0,0)"  stroke-width="3"/>
<line x1="173.0" y1="247.1" x2="133.6" y2="246.6" opacity="1.0" stroke="rgb(0,0,0)"  stroke-width="3"/>
<line x1="133.6" y1="246.6" x2="113.4" y2="280.4" opacity="1.0" stroke="rgb(0,0,0)"  stroke-width="3"/>
<line x1="136.7" y1="255.4" x2="122.7" y2="278.9" opacity="1.0" stroke="rgb(0,0,0)"  stroke-width="3"/>
<line x1="113.4" y1="280.4" x2="132.7" y2="314.8" opacity="1.0" stroke="rgb(0,0,0)"  stroke-width="3"/>
<line x1="374.1" y1="162.8" x2="337.9" y2="178.3" opacity="1.0" stroke="rgb(0,0,0)"  stroke-width="3"/>
<line x1="337.9" y1="178.3" x2="333.3" y2="217.4" opacity="1.0" stroke="rgb(0,0,0)"  stroke-width="3"/>
<line x1="344.4" y1="185.1" x2="341.2" y2="212.3" opacity="1.0" stroke="rgb(0,0,0)"  stroke-width="3"/>
<line x1="401.0" y1="225.5" x2="405.7" y2="186.4" opacity="1.0" stroke="rgb(0,0,0)"  stroke-width="3"/>
<line x1="405.7" y1="186.4" x2="374.1" y2="162.8" opacity="1.0" stroke="rgb(0,0,0)"  stroke-width="3"/>
<line x1="396.5" y1="188.6" x2="374.6" y2="172.2" opacity="1.0" stroke="rgb(0,0,0)"  stroke-width="3"/>
<line x1="197.9" y1="216.6" x2="198.5" y2="177.3" opacity="1.0" stroke="rgb(0,0,0)"  stroke-width="3"/>
<line x1="205.2" y1="210.7" x2="205.6" y2="183.4" opacity="1.0" stroke="rgb(0,0,0)"  stroke-width="3"/>
<line x1="198.5" y1="177.3" x2="232.9" y2="158.1" opacity="1.0" stroke="rgb(0,0,0)"  stroke-width="3"/>
<line x1="232.9" y1="158.1" x2="266.7" y2="178.3" opacity="1.0" stroke="rgb(0,0,0)"  stroke-width="3"/>
<line x1="234.3" y1="167.4" x2="257.8" y2="181.4" opacity="1.0" stroke="rgb(0,0,0)"  stroke-width="3"/>
<line x1="266.7" y1="178.3" x2="266.0" y2="217.7" opacity="1.0" stroke="rgb(0,0,0)"  stroke-width="3"/>
<line x1="311.1" y1="115.7" x2="347.2" y2="100.1" opacity="1.0" stroke="rgb(0,0,0)"  stroke-width="3"/>
<line x1="347.2" y1="100.1" x2="378.8" y2="123.7" opacity="1.0" stroke="rgb(0,0,0)"  stroke-width="3"/>
<line x1="347.7" y1="109.5" x2="369.7" y2="125.9" opacity="1.0" stroke="rgb(0,0,0)"  stroke-width="3"/>
<line x1="378.8" y1="123.7" x2="374.1" y2="162.8" opacity="1.0" stroke="rgb(0,0,0)"  stroke-width="3"/>
<line x1="337.9" y1="178.3" x2="306.4" y2="154.8" opacity="1.0" stroke="rgb(0,0,0)"  stroke-width="3"/>
<line x1="306.4" y1="154.8" x2="311.1" y2="115.7" opacity="1.0" stroke="rgb(0,0,0)"  stroke-width="3"/>
<line x1="314.3" y1="149.7" x2="317.5" y2="122.5" opacity="1.0" stroke="rgb(0,0,0)"  stroke-width="3"/>
<line x1="331.7" y1="477.1" x2="331.7" y2="516.4" opacity="1.0" stroke="rgb(0,0,0)"  stroke-width="3"/>
<line x1="331.7" y1="516.4" x2="297.6" y2="536.1" opacity="1.0" stroke="rgb(0,0,0)"  stroke-width="3"/>
<line x1="322.9" y1="513.2" x2="299.2" y2="526.9" opacity="1.0" stroke="rgb(0,0,0)"  stroke-width="3"/>
<line x1="297.6" y1="536.1" x2="263.5" y2="516.4" opacity="1.0" stroke="rgb(0,0,0)"  stroke-width="3"/>
<line x1="263.5" y1="516.4" x2="263.5" y2="477.1" opacity="1.0" stroke="rgb(0,0,0)"  stroke-width="3"/>
<line x1="270.7" y1="510.4" x2="270.7" y2="483.1" opacity="1.0" stroke="rgb(0,0,0)"  stroke-width="3"/>
<line x1="263.5" y1="477.1" x2="297.6" y2="457.4" opacity="1.0" stroke="rgb(0,0,0)"  stroke-width="3"/>
<line x1="297.6" y1="457.4" x2="331.7" y2="477.1" opacity="1.0" stroke="rgb(0,0,0)"  stroke-width="3"/>
<line x1="299.2" y1="466.6" x2="322.9" y2="480.3" opacity="1.0" stroke="rgb(0,0,0)"  stroke-width="3"/>
<line x1="267.0" y1="99.1" x2="267.0" y2="59.7" opacity="1.0" stroke="rgb(0,0,0)"  stroke-width="3"/>
<line x1="267.0" y1="59.7" x2="232.9" y2="40.0" opacity="1.0" stroke="rgb(0,0,0)"  stroke-width="3"/>
<line x1="258.2" y1="62.9" x2="234.5" y2="49.2" opacity="1.0" stroke="rgb(0,0,0)"  stroke-width="3"/>
<line x1="232.9" y1="40.0" x2="198.8" y2="59.7" opacity="1.0" stroke="rgb(0,0,0)"  stroke-width="3"/>
<line x1="198.8" y1="59.7" x2="198.8" y2="99.1" opacity="1.0" stroke="rgb(0,0,0)"  stroke-width="3"/>
<line x1="206.0" y1="65.7" x2="206.0" y2="93.1" opacity="1.0" stroke="rgb(0,0,0)"  stroke-width="3"/>
<line x1="198.8" y1="99.1" x2="232.9" y2="118.7" opacity="1.0" stroke="rgb(0,0,0)"  stroke-width="3"/>
<line x1="232.9" y1="118.7" x2="267.0" y2="99.1" opacity="1.0" stroke="rgb(0,0,0)"  stroke-width="3"/>
<line x1="234.5" y1="109.5" x2="258.2" y2="95.8" opacity="1.0" stroke="rgb(0,0,0)"  stroke-width="3"/>
<line x1="399.4" y1="357.1" x2="415.6" y2="393.0" opacity="1.0" stroke="rgb(0,0,0)"  stroke-width="3"/>
<line x1="415.6" y1="393.0" x2="454.6" y2="398.4" opacity="1.0" stroke="rgb(0,0,0)"  stroke-width="3"/>
<line x1="422.5" y1="386.7" x2="449.6" y2="390.4" opacity="1.0" stroke="rgb(0,0,0)"  stroke-width="3"/>
<line x1="454.6" y1="398.4" x2="477.3" y2="367.9" opacity="1.0" stroke="rgb(0,0,0)"  stroke-width="3"/>
<line x1="477.3" y1="367.9" x2="461.3" y2="330.5" opacity="1.0" stroke="rgb(0,0,0)"  stroke-width="3"/>
<line x1="468.3" y1="365.2" x2="457.1" y2="338.9" opacity="1.0" stroke="rgb(0,0,0)"  stroke-width="3"/>
<line x1="461.3" y1="330.5" x2="422.3" y2="325.1" opacity="1.0" stroke="rgb(0,0,0)"  stroke-width="3"/>
<line x1="422.3" y1="325.1" x2="399.4" y2="357.1" opacity="1.0" stroke="rgb(0,0,0)"  stroke-width="3"/>
<line x1="424.7" y1="334.2" x2="408.7" y2="356.4" opacity="1.0" stroke="rgb(0,0,0)"  stroke-width="3"/>
<line x1="489.8" y1="283.0" x2="529.0" y2="279.4" opacity="1.0" stroke="rgb(0,0,0)"  stroke-width="3"/>
<line x1="529.0" y1="279.4" x2="544.6" y2="244.4" opacity="1.0" stroke="rgb(0,0,0)"  stroke-width="3"/>
<line x1="524.9" y1="271.0" x2="535.6" y2="246.9" opacity="1.0" stroke="rgb(0,0,0)"  stroke-width="3"/>
<line x1="544.6" y1="244.4" x2="522.9" y2="212.7" opacity="1.0" stroke="rgb(0,0,0)"  stroke-width="3"/>
<line x1="522.9" y1="212.7" x2="483.7" y2="216.3" opacity="1.0" stroke="rgb(0,0,0)"  stroke-width="3"/>
<line x1="517.6" y1="220.4" x2="490.4" y2="222.9" opacity="1.0" stroke="rgb(0,0,0)"  stroke-width="3"/>
<line x1="483.7" y1="216.3" x2="466.2" y2="251.5" opacity="1.0" stroke="rgb(0,0,0)"  stroke-width="3"/>
<line x1="466.2" y1="251.5" x2="489.8" y2="283.0" opacity="1.0" stroke="rgb(0,0,0)"  stroke-width="3"/>
<line x1="475.5" y1="252.0" x2="492.0" y2="273.9" opacity="1.0" stroke="rgb(0,0,0)"  stroke-width="3"/>
<line x1="195.3" y1="477.1" x2="161.2" y2="457.4" opacity="1.0" stroke="rgb(0,0,0)"  stroke-width="3"/>
<line x1="161.2" y1="457.4" x2="161.2" y2="418.0" opacity="1.0" stroke="rgb(0,0,0)"  stroke-width="3"/>
<line x1="168.4" y1="451.4" x2="168.4" y2="424.0" opacity="1.0" stroke="rgb(0,0,0)"  stroke-width="3"/>
<line x1="161.2" y1="418.0" x2="195.3" y2="398.3" opacity="1.0" stroke="rgb(0,0,0)"  stroke-width="3"/>
<line x1="195.3" y1="398.3" x2="229.4" y2="418.0" opacity="1.0" stroke="rgb(0,0,0)"  stroke-width="3"/>
<line x1="196.9" y1="407.6" x2="220.6" y2="421.3" opacity="1.0" stroke="rgb(0,0,0)"  stroke-width="3"/>
<line x1="229.4" y1="418.0" x2="229.4" y2="457.4" opacity="1.0" stroke="rgb(0,0,0)"  stroke-width="3"/>
<line x1="229.4" y1="457.4" x2="195.3" y2="477.1" opacity="1.0" stroke="rgb(0,0,0)"  stroke-width="3"/>
<line x1="220.6" y1="454.2" x2="196.9" y2="467.8" opacity="1.0" stroke="rgb(0,0,0)"  stroke-width="3"/>
<line x1="71.9" y1="346.5" x2="111.2" y2="347.8" opacity="1.0" stroke="rgb(0,0,0)"  stroke-width="3"/>
<line x1="111.2" y1="347.8" x2="132.7" y2="314.8" opacity="1.0" stroke="rgb(0,0,0)"  stroke-width="3"/>
<line x1="113.4" y1="280.4" x2="74.1" y2="279.1" opacity="1.0" stroke="rgb(0,0,0)"  stroke-width="3"/>
<line x1="74.1" y1="279.1" x2="54.0" y2="312.2" opacity="1.0" stroke="rgb(0,0,0)"  stroke-width="3"/>
<line x1="54.0" y1="312.2" x2="71.9" y2="346.5" opacity="1.0" stroke="rgb(0,0,0)"  stroke-width="3"/>
<text x="362.418845" y="288.215253" fill="rgb(12,12,255)" stroke-width="0" font-weight="bold" font-size="25.92" >N</text>
<text x="225.191181" y="284.214430" fill="rgb(12,12,255)" stroke-width="0" font-weight="bold" font-size="25.92" >N</text>
<text x="293.754131" y="246.040384" fill="rgb(255,181,181)" stroke-width="0" font-weight="bold" font-size="25.92" >B</text>
</svg>
</g>
</svg>
