<?xml version="1.0"?>
<svg version="1.1" id="topsvg"
xmlns="http://www.w3.org/2000/svg" xmlns:xlink="http://www.w3.org/1999/xlink"
xmlns:cml="http://www.xml-cml.org/schema" x="0" y="0" width="200px" height="200px" viewBox="0 0 100 100">
<title>GD256.sdf - Open Babel Depiction</title>
<rect x="0" y="0" width="100" height="100" fill="white"/>
<g transform="translate(0,0)">
<svg width="100" height="100" x="0" y="0" viewBox="0 0 512.089 617.232"
font-family="sans-serif" stroke="rgb(0,0,0)" stroke-width="3"  stroke-linecap="round">
<line x1="226.0" y1="372.7" x2="217.0" y2="423.6" opacity="1.0" stroke="rgb(0,0,0)"  stroke-width="3"/>
<line x1="306.9" y1="130.1" x2="291.0" y2="108.5" opacity="1.0" stroke="rgb(0,0,0)"  stroke-width="3"/>
<line x1="236.9" y1="458.1" x2="276.1" y2="465.0" opacity="1.0" stroke="rgb(0,0,0)"  stroke-width="3"/>
<line x1="354.5" y1="478.8" x2="393.7" y2="485.8" opacity="1.0" stroke="rgb(0,0,0)"  stroke-width="3"/>
<line x1="332.8" y1="305.4" x2="356.2" y2="273.2" opacity="1.0" stroke="rgb(0,0,0)"  stroke-width="3"/>
<line x1="356.2" y1="273.2" x2="332.8" y2="241.0" opacity="1.0" stroke="rgb(0,0,0)"  stroke-width="3"/>
<line x1="332.8" y1="241.0" x2="294.9" y2="253.3" opacity="1.0" stroke="rgb(0,0,0)"  stroke-width="3"/>
<line x1="329.3" y1="249.7" x2="302.8" y2="258.3" opacity="1.0" stroke="rgb(0,0,0)"  stroke-width="3"/>
<line x1="294.9" y1="253.3" x2="294.9" y2="280.1" opacity="1.0" stroke="rgb(0,0,0)"  stroke-width="3"/>
<line x1="307.3" y1="297.1" x2="332.8" y2="305.4" opacity="1.0" stroke="rgb(0,0,0)"  stroke-width="3"/>
<line x1="95.8" y1="273.2" x2="119.2" y2="305.4" opacity="1.0" stroke="rgb(0,0,0)"  stroke-width="3"/>
<line x1="105.1" y1="273.8" x2="121.5" y2="296.3" opacity="1.0" stroke="rgb(0,0,0)"  stroke-width="3"/>
<line x1="119.2" y1="305.4" x2="144.7" y2="297.1" opacity="1.0" stroke="rgb(0,0,0)"  stroke-width="3"/>
<line x1="157.0" y1="280.1" x2="157.0" y2="253.3" opacity="1.0" stroke="rgb(0,0,0)"  stroke-width="3"/>
<line x1="157.0" y1="253.3" x2="122.6" y2="233.4" opacity="1.0" stroke="rgb(0,0,0)"  stroke-width="3"/>
<line x1="148.2" y1="256.5" x2="124.2" y2="242.6" opacity="1.0" stroke="rgb(0,0,0)"  stroke-width="3"/>
<line x1="122.6" y1="233.4" x2="95.8" y2="273.2" opacity="1.0" stroke="rgb(0,0,0)"  stroke-width="3"/>
<line x1="354.4" y1="140.6" x2="327.6" y2="140.6" opacity="1.0" stroke="rgb(0,0,0)"  stroke-width="3"/>
<line x1="310.7" y1="153.0" x2="302.8" y2="178.3" opacity="1.0" stroke="rgb(0,0,0)"  stroke-width="3"/>
<line x1="302.8" y1="178.3" x2="335.3" y2="201.2" opacity="1.0" stroke="rgb(0,0,0)"  stroke-width="3"/>
<line x1="311.9" y1="175.9" x2="334.6" y2="191.9" opacity="1.0" stroke="rgb(0,0,0)"  stroke-width="3"/>
<line x1="335.3" y1="201.2" x2="367.2" y2="178.3" opacity="1.0" stroke="rgb(0,0,0)"  stroke-width="3"/>
<line x1="367.2" y1="178.3" x2="354.4" y2="140.6" opacity="1.0" stroke="rgb(0,0,0)"  stroke-width="3"/>
<line x1="358.4" y1="174.9" x2="349.5" y2="148.6" opacity="1.0" stroke="rgb(0,0,0)"  stroke-width="3"/>
<line x1="226.0" y1="372.7" x2="260.4" y2="352.8" opacity="1.0" stroke="rgb(0,0,0)"  stroke-width="3"/>
<line x1="227.6" y1="363.4" x2="251.6" y2="349.5" opacity="1.0" stroke="rgb(0,0,0)"  stroke-width="3"/>
<line x1="260.4" y1="352.8" x2="260.4" y2="313.0" opacity="1.0" stroke="rgb(0,0,0)"  stroke-width="3"/>
<line x1="260.4" y1="313.0" x2="226.0" y2="293.1" opacity="1.0" stroke="rgb(0,0,0)"  stroke-width="3"/>
<line x1="251.6" y1="316.2" x2="227.6" y2="302.3" opacity="1.0" stroke="rgb(0,0,0)"  stroke-width="3"/>
<line x1="226.0" y1="293.1" x2="191.5" y2="313.0" opacity="1.0" stroke="rgb(0,0,0)"  stroke-width="3"/>
<line x1="191.5" y1="313.0" x2="191.5" y2="352.8" opacity="1.0" stroke="rgb(0,0,0)"  stroke-width="3"/>
<line x1="198.7" y1="319.0" x2="198.7" y2="346.8" opacity="1.0" stroke="rgb(0,0,0)"  stroke-width="3"/>
<line x1="191.5" y1="352.8" x2="226.0" y2="372.7" opacity="1.0" stroke="rgb(0,0,0)"  stroke-width="3"/>
<line x1="260.4" y1="313.0" x2="283.7" y2="299.6" opacity="1.0" stroke="rgb(0,0,0)"  stroke-width="3"/>
<line x1="294.9" y1="253.3" x2="260.4" y2="233.4" opacity="1.0" stroke="rgb(0,0,0)"  stroke-width="3"/>
<line x1="260.4" y1="233.4" x2="237.2" y2="246.8" opacity="1.0" stroke="rgb(0,0,0)"  stroke-width="3"/>
<line x1="226.0" y1="266.3" x2="226.0" y2="293.1" opacity="1.0" stroke="rgb(0,0,0)"  stroke-width="3"/>
<line x1="411.9" y1="313.7" x2="395.8" y2="277.3" opacity="1.0" stroke="rgb(0,0,0)"  stroke-width="3"/>
<line x1="395.8" y1="277.3" x2="356.2" y2="273.2" opacity="1.0" stroke="rgb(0,0,0)"  stroke-width="3"/>
<line x1="389.0" y1="283.9" x2="361.4" y2="281.0" opacity="1.0" stroke="rgb(0,0,0)"  stroke-width="3"/>
<line x1="332.8" y1="305.4" x2="349.0" y2="341.7" opacity="1.0" stroke="rgb(0,0,0)"  stroke-width="3"/>
<line x1="341.8" y1="307.9" x2="353.1" y2="333.3" opacity="1.0" stroke="rgb(0,0,0)"  stroke-width="3"/>
<line x1="349.0" y1="341.7" x2="388.5" y2="345.9" opacity="1.0" stroke="rgb(0,0,0)"  stroke-width="3"/>
<line x1="388.5" y1="345.9" x2="411.9" y2="313.7" opacity="1.0" stroke="rgb(0,0,0)"  stroke-width="3"/>
<line x1="386.3" y1="336.8" x2="402.6" y2="314.3" opacity="1.0" stroke="rgb(0,0,0)"  stroke-width="3"/>
<line x1="419.7" y1="118.4" x2="380.6" y2="110.7" opacity="1.0" stroke="rgb(0,0,0)"  stroke-width="3"/>
<line x1="412.4" y1="124.3" x2="385.1" y2="118.9" opacity="1.0" stroke="rgb(0,0,0)"  stroke-width="3"/>
<line x1="380.6" y1="110.7" x2="354.4" y2="140.6" opacity="1.0" stroke="rgb(0,0,0)"  stroke-width="3"/>
<line x1="367.2" y1="178.3" x2="406.2" y2="186.0" opacity="1.0" stroke="rgb(0,0,0)"  stroke-width="3"/>
<line x1="406.2" y1="186.0" x2="432.5" y2="156.1" opacity="1.0" stroke="rgb(0,0,0)"  stroke-width="3"/>
<line x1="404.8" y1="176.8" x2="423.1" y2="155.9" opacity="1.0" stroke="rgb(0,0,0)"  stroke-width="3"/>
<line x1="432.5" y1="156.1" x2="419.7" y2="118.4" opacity="1.0" stroke="rgb(0,0,0)"  stroke-width="3"/>
<line x1="214.7" y1="246.8" x2="191.5" y2="233.4" opacity="1.0" stroke="rgb(0,0,0)"  stroke-width="3"/>
<line x1="191.5" y1="233.4" x2="157.0" y2="253.3" opacity="1.0" stroke="rgb(0,0,0)"  stroke-width="3"/>
<line x1="168.3" y1="299.6" x2="191.5" y2="313.0" opacity="1.0" stroke="rgb(0,0,0)"  stroke-width="3"/>
<line x1="122.6" y1="193.6" x2="122.6" y2="233.4" opacity="1.0" stroke="rgb(0,0,0)"  stroke-width="3"/>
<line x1="191.5" y1="233.4" x2="191.5" y2="193.6" opacity="1.0" stroke="rgb(0,0,0)"  stroke-width="3"/>
<line x1="184.3" y1="227.4" x2="184.3" y2="199.6" opacity="1.0" stroke="rgb(0,0,0)"  stroke-width="3"/>
<line x1="191.5" y1="193.6" x2="157.0" y2="173.7" opacity="1.0" stroke="rgb(0,0,0)"  stroke-width="3"/>
<line x1="157.0" y1="173.7" x2="122.6" y2="193.6" opacity="1.0" stroke="rgb(0,0,0)"  stroke-width="3"/>
<line x1="155.4" y1="182.9" x2="131.4" y2="196.8" opacity="1.0" stroke="rgb(0,0,0)"  stroke-width="3"/>
<line x1="266.2" y1="194.0" x2="260.4" y2="233.4" opacity="1.0" stroke="rgb(0,0,0)"  stroke-width="3"/>
<line x1="272.5" y1="201.0" x2="268.4" y2="228.5" opacity="1.0" stroke="rgb(0,0,0)"  stroke-width="3"/>
<line x1="332.8" y1="241.0" x2="335.3" y2="201.2" opacity="1.0" stroke="rgb(0,0,0)"  stroke-width="3"/>
<line x1="302.8" y1="178.3" x2="266.2" y2="194.0" opacity="1.0" stroke="rgb(0,0,0)"  stroke-width="3"/>
<line x1="63.4" y1="345.9" x2="40.0" y2="313.7" opacity="1.0" stroke="rgb(0,0,0)"  stroke-width="3"/>
<line x1="40.0" y1="313.7" x2="56.2" y2="277.3" opacity="1.0" stroke="rgb(0,0,0)"  stroke-width="3"/>
<line x1="49.0" y1="311.1" x2="60.3" y2="285.7" opacity="1.0" stroke="rgb(0,0,0)"  stroke-width="3"/>
<line x1="56.2" y1="277.3" x2="95.8" y2="273.2" opacity="1.0" stroke="rgb(0,0,0)"  stroke-width="3"/>
<line x1="119.2" y1="305.4" x2="103.0" y2="341.7" opacity="1.0" stroke="rgb(0,0,0)"  stroke-width="3"/>
<line x1="103.0" y1="341.7" x2="63.4" y2="345.9" opacity="1.0" stroke="rgb(0,0,0)"  stroke-width="3"/>
<line x1="96.3" y1="335.2" x2="68.6" y2="338.1" opacity="1.0" stroke="rgb(0,0,0)"  stroke-width="3"/>
<line x1="191.5" y1="113.9" x2="157.0" y2="133.8" opacity="1.0" stroke="rgb(0,0,0)"  stroke-width="3"/>
<line x1="189.9" y1="123.2" x2="165.8" y2="137.1" opacity="1.0" stroke="rgb(0,0,0)"  stroke-width="3"/>
<line x1="157.0" y1="133.8" x2="157.0" y2="173.7" opacity="1.0" stroke="rgb(0,0,0)"  stroke-width="3"/>
<line x1="191.5" y1="193.6" x2="226.0" y2="173.7" opacity="1.0" stroke="rgb(0,0,0)"  stroke-width="3"/>
<line x1="226.0" y1="173.7" x2="226.0" y2="133.8" opacity="1.0" stroke="rgb(0,0,0)"  stroke-width="3"/>
<line x1="218.8" y1="167.7" x2="218.8" y2="139.8" opacity="1.0" stroke="rgb(0,0,0)"  stroke-width="3"/>
<line x1="226.0" y1="133.8" x2="191.5" y2="113.9" opacity="1.0" stroke="rgb(0,0,0)"  stroke-width="3"/>
<line x1="307.0" y1="72.1" x2="283.4" y2="40.0" opacity="1.0" stroke="rgb(0,0,0)"  stroke-width="3"/>
<line x1="283.4" y1="40.0" x2="243.9" y2="44.4" opacity="1.0" stroke="rgb(0,0,0)"  stroke-width="3"/>
<line x1="278.2" y1="47.8" x2="250.6" y2="50.9" opacity="1.0" stroke="rgb(0,0,0)"  stroke-width="3"/>
<line x1="243.9" y1="44.4" x2="227.9" y2="80.8" opacity="1.0" stroke="rgb(0,0,0)"  stroke-width="3"/>
<line x1="227.9" y1="80.8" x2="251.4" y2="112.9" opacity="1.0" stroke="rgb(0,0,0)"  stroke-width="3"/>
<line x1="237.2" y1="81.4" x2="253.7" y2="103.8" opacity="1.0" stroke="rgb(0,0,0)"  stroke-width="3"/>
<line x1="251.4" y1="112.9" x2="291.0" y2="108.5" opacity="1.0" stroke="rgb(0,0,0)"  stroke-width="3"/>
<line x1="291.0" y1="108.5" x2="307.0" y2="72.1" opacity="1.0" stroke="rgb(0,0,0)"  stroke-width="3"/>
<line x1="286.8" y1="100.1" x2="298.0" y2="74.7" opacity="1.0" stroke="rgb(0,0,0)"  stroke-width="3"/>
<line x1="177.2" y1="423.6" x2="157.3" y2="458.1" opacity="1.0" stroke="rgb(0,0,0)"  stroke-width="3"/>
<line x1="157.3" y1="458.1" x2="177.2" y2="492.6" opacity="1.0" stroke="rgb(0,0,0)"  stroke-width="3"/>
<line x1="166.5" y1="459.7" x2="180.4" y2="483.8" opacity="1.0" stroke="rgb(0,0,0)"  stroke-width="3"/>
<line x1="177.2" y1="492.6" x2="217.0" y2="492.6" opacity="1.0" stroke="rgb(0,0,0)"  stroke-width="3"/>
<line x1="217.0" y1="492.6" x2="236.9" y2="458.1" opacity="1.0" stroke="rgb(0,0,0)"  stroke-width="3"/>
<line x1="213.8" y1="483.8" x2="227.7" y2="459.7" opacity="1.0" stroke="rgb(0,0,0)"  stroke-width="3"/>
<line x1="236.9" y1="458.1" x2="217.0" y2="423.6" opacity="1.0" stroke="rgb(0,0,0)"  stroke-width="3"/>
<line x1="217.0" y1="423.6" x2="177.2" y2="423.6" opacity="1.0" stroke="rgb(0,0,0)"  stroke-width="3"/>
<line x1="211.0" y1="430.8" x2="183.2" y2="430.8" opacity="1.0" stroke="rgb(0,0,0)"  stroke-width="3"/>
<line x1="289.7" y1="502.4" x2="328.9" y2="509.3" opacity="1.0" stroke="rgb(0,0,0)"  stroke-width="3"/>
<line x1="328.9" y1="509.3" x2="354.5" y2="478.8" opacity="1.0" stroke="rgb(0,0,0)"  stroke-width="3"/>
<line x1="327.2" y1="500.1" x2="345.1" y2="478.8" opacity="1.0" stroke="rgb(0,0,0)"  stroke-width="3"/>
<line x1="354.5" y1="478.8" x2="340.9" y2="441.4" opacity="1.0" stroke="rgb(0,0,0)"  stroke-width="3"/>
<line x1="340.9" y1="441.4" x2="301.7" y2="434.5" opacity="1.0" stroke="rgb(0,0,0)"  stroke-width="3"/>
<line x1="333.7" y1="447.5" x2="306.3" y2="442.7" opacity="1.0" stroke="rgb(0,0,0)"  stroke-width="3"/>
<line x1="301.7" y1="434.5" x2="276.1" y2="465.0" opacity="1.0" stroke="rgb(0,0,0)"  stroke-width="3"/>
<line x1="276.1" y1="465.0" x2="289.7" y2="502.4" opacity="1.0" stroke="rgb(0,0,0)"  stroke-width="3"/>
<line x1="284.9" y1="468.2" x2="294.4" y2="494.3" opacity="1.0" stroke="rgb(0,0,0)"  stroke-width="3"/>
<line x1="316.9" y1="577.2" x2="342.5" y2="546.7" opacity="1.0" stroke="rgb(0,0,0)"  stroke-width="3"/>
<line x1="315.3" y1="568.0" x2="333.1" y2="546.7" opacity="1.0" stroke="rgb(0,0,0)"  stroke-width="3"/>
<line x1="342.5" y1="546.7" x2="328.9" y2="509.3" opacity="1.0" stroke="rgb(0,0,0)"  stroke-width="3"/>
<line x1="289.7" y1="502.4" x2="264.1" y2="532.9" opacity="1.0" stroke="rgb(0,0,0)"  stroke-width="3"/>
<line x1="264.1" y1="532.9" x2="277.7" y2="570.3" opacity="1.0" stroke="rgb(0,0,0)"  stroke-width="3"/>
<line x1="272.9" y1="536.1" x2="282.4" y2="562.2" opacity="1.0" stroke="rgb(0,0,0)"  stroke-width="3"/>
<line x1="277.7" y1="570.3" x2="316.9" y2="577.2" opacity="1.0" stroke="rgb(0,0,0)"  stroke-width="3"/>
<line x1="314.2" y1="366.4" x2="288.7" y2="396.6" opacity="1.0" stroke="rgb(0,0,0)"  stroke-width="3"/>
<line x1="315.9" y1="375.7" x2="298.1" y2="396.7" opacity="1.0" stroke="rgb(0,0,0)"  stroke-width="3"/>
<line x1="288.7" y1="396.6" x2="301.7" y2="434.5" opacity="1.0" stroke="rgb(0,0,0)"  stroke-width="3"/>
<line x1="340.9" y1="441.4" x2="366.5" y2="410.9" opacity="1.0" stroke="rgb(0,0,0)"  stroke-width="3"/>
<line x1="366.5" y1="410.9" x2="353.4" y2="373.6" opacity="1.0" stroke="rgb(0,0,0)"  stroke-width="3"/>
<line x1="357.7" y1="407.7" x2="348.6" y2="381.7" opacity="1.0" stroke="rgb(0,0,0)"  stroke-width="3"/>
<line x1="353.4" y1="373.6" x2="314.2" y2="366.4" opacity="1.0" stroke="rgb(0,0,0)"  stroke-width="3"/>
<line x1="407.8" y1="523.0" x2="447.0" y2="529.9" opacity="1.0" stroke="rgb(0,0,0)"  stroke-width="3"/>
<line x1="447.0" y1="529.9" x2="472.1" y2="499.6" opacity="1.0" stroke="rgb(0,0,0)"  stroke-width="3"/>
<line x1="445.2" y1="520.7" x2="462.7" y2="499.6" opacity="1.0" stroke="rgb(0,0,0)"  stroke-width="3"/>
<line x1="472.1" y1="499.6" x2="458.8" y2="462.5" opacity="1.0" stroke="rgb(0,0,0)"  stroke-width="3"/>
<line x1="458.8" y1="462.5" x2="419.6" y2="455.6" opacity="1.0" stroke="rgb(0,0,0)"  stroke-width="3"/>
<line x1="451.7" y1="468.5" x2="424.3" y2="463.7" opacity="1.0" stroke="rgb(0,0,0)"  stroke-width="3"/>
<line x1="419.6" y1="455.6" x2="393.7" y2="485.8" opacity="1.0" stroke="rgb(0,0,0)"  stroke-width="3"/>
<line x1="393.7" y1="485.8" x2="407.8" y2="523.0" opacity="1.0" stroke="rgb(0,0,0)"  stroke-width="3"/>
<line x1="402.5" y1="488.8" x2="412.4" y2="514.8" opacity="1.0" stroke="rgb(0,0,0)"  stroke-width="3"/>
<text x="308.581400" y="148.597083" fill="rgb(12,12,255)" stroke-width="0" font-weight="bold" font-size="25.92" >N</text>
<text x="151.029458" y="301.066835" fill="rgb(12,12,255)" stroke-width="0" font-weight="bold" font-size="25.92" >N</text>
<text x="288.916669" y="301.067174" fill="rgb(12,12,255)" stroke-width="0" font-weight="bold" font-size="25.92" >N</text>
<text x="219.973015" y="261.262556" fill="rgb(255,181,181)" stroke-width="0" font-weight="bold" font-size="25.92" >B</text>
</svg>
</g>
</svg>
