<?xml version="1.0"?>
<svg version="1.1" id="topsvg"
xmlns="http://www.w3.org/2000/svg" xmlns:xlink="http://www.w3.org/1999/xlink"
xmlns:cml="http://www.xml-cml.org/schema" x="0" y="0" width="200px" height="200px" viewBox="0 0 100 100">
<title>GD269.sdf - Open Babel Depiction</title>
<rect x="0" y="0" width="100" height="100" fill="white"/>
<g transform="translate(0,0)">
<svg width="100" height="100" x="0" y="0" viewBox="0 0 593.012 602.105"
font-family="sans-serif" stroke="rgb(0,0,0)" stroke-width="3"  stroke-linecap="round">
<line x1="412.9" y1="253.2" x2="428.7" y2="290.0" opacity="1.0" stroke="rgb(0,0,0)"  stroke-width="3"/>
<line x1="473.3" y1="215.2" x2="433.4" y2="218.8" opacity="1.0" stroke="rgb(0,0,0)"  stroke-width="3"/>
<line x1="301.9" y1="321.5" x2="301.9" y2="361.5" opacity="1.0" stroke="rgb(0,0,0)"  stroke-width="3"/>
<line x1="236.1" y1="120.2" x2="236.1" y2="80.2" opacity="1.0" stroke="rgb(0,0,0)"  stroke-width="3"/>
<line x1="74.7" y1="243.2" x2="40.0" y2="223.2" opacity="1.0" stroke="rgb(0,0,0)"  stroke-width="3"/>
<line x1="74.7" y1="243.2" x2="74.7" y2="203.2" opacity="1.0" stroke="rgb(0,0,0)"  stroke-width="3"/>
<line x1="112.4" y1="313.0" x2="112.4" y2="353.1" opacity="1.0" stroke="rgb(0,0,0)"  stroke-width="3"/>
<line x1="112.4" y1="313.0" x2="147.1" y2="333.1" opacity="1.0" stroke="rgb(0,0,0)"  stroke-width="3"/>
<line x1="236.1" y1="80.2" x2="270.8" y2="60.2" opacity="1.0" stroke="rgb(0,0,0)"  stroke-width="3"/>
<line x1="201.4" y1="60.2" x2="236.1" y2="80.2" opacity="1.0" stroke="rgb(0,0,0)"  stroke-width="3"/>
<line x1="236.1" y1="80.2" x2="236.1" y2="40.0" opacity="1.0" stroke="rgb(0,0,0)"  stroke-width="3"/>
<line x1="301.9" y1="441.6" x2="301.9" y2="481.8" opacity="1.0" stroke="rgb(0,0,0)"  stroke-width="3"/>
<line x1="175.2" y1="210.7" x2="200.5" y2="179.7" opacity="1.0" stroke="rgb(0,0,0)"  stroke-width="3"/>
<line x1="200.5" y1="179.7" x2="234.8" y2="200.2" opacity="1.0" stroke="rgb(0,0,0)"  stroke-width="3"/>
<line x1="234.8" y1="200.2" x2="234.5" y2="227.3" opacity="1.0" stroke="rgb(0,0,0)"  stroke-width="3"/>
<line x1="221.5" y1="242.0" x2="194.7" y2="245.6" opacity="1.0" stroke="rgb(0,0,0)"  stroke-width="3"/>
<line x1="194.7" y1="245.6" x2="175.2" y2="210.7" opacity="1.0" stroke="rgb(0,0,0)"  stroke-width="3"/>
<line x1="198.1" y1="236.9" x2="184.4" y2="212.4" opacity="1.0" stroke="rgb(0,0,0)"  stroke-width="3"/>
<line x1="433.4" y1="218.8" x2="407.0" y2="188.7" opacity="1.0" stroke="rgb(0,0,0)"  stroke-width="3"/>
<line x1="407.0" y1="188.7" x2="370.3" y2="204.5" opacity="1.0" stroke="rgb(0,0,0)"  stroke-width="3"/>
<line x1="404.4" y1="197.7" x2="378.6" y2="208.7" opacity="1.0" stroke="rgb(0,0,0)"  stroke-width="3"/>
<line x1="370.3" y1="204.5" x2="372.7" y2="231.4" opacity="1.0" stroke="rgb(0,0,0)"  stroke-width="3"/>
<line x1="386.6" y1="247.2" x2="412.9" y2="253.2" opacity="1.0" stroke="rgb(0,0,0)"  stroke-width="3"/>
<line x1="412.9" y1="253.2" x2="433.4" y2="218.8" opacity="1.0" stroke="rgb(0,0,0)"  stroke-width="3"/>
<line x1="409.8" y1="244.4" x2="424.2" y2="220.3" opacity="1.0" stroke="rgb(0,0,0)"  stroke-width="3"/>
<line x1="267.8" y1="300.6" x2="301.9" y2="321.5" opacity="1.0" stroke="rgb(0,0,0)"  stroke-width="3"/>
<line x1="301.9" y1="321.5" x2="337.1" y2="302.5" opacity="1.0" stroke="rgb(0,0,0)"  stroke-width="3"/>
<line x1="303.8" y1="312.3" x2="328.4" y2="299.0" opacity="1.0" stroke="rgb(0,0,0)"  stroke-width="3"/>
<line x1="337.1" y1="302.5" x2="338.2" y2="262.4" opacity="1.0" stroke="rgb(0,0,0)"  stroke-width="3"/>
<line x1="338.2" y1="262.4" x2="304.1" y2="241.5" opacity="1.0" stroke="rgb(0,0,0)"  stroke-width="3"/>
<line x1="329.3" y1="265.4" x2="305.4" y2="250.8" opacity="1.0" stroke="rgb(0,0,0)"  stroke-width="3"/>
<line x1="304.1" y1="241.5" x2="268.9" y2="260.6" opacity="1.0" stroke="rgb(0,0,0)"  stroke-width="3"/>
<line x1="268.9" y1="260.6" x2="267.8" y2="300.6" opacity="1.0" stroke="rgb(0,0,0)"  stroke-width="3"/>
<line x1="275.9" y1="266.7" x2="275.2" y2="294.8" opacity="1.0" stroke="rgb(0,0,0)"  stroke-width="3"/>
<line x1="304.1" y1="214.5" x2="304.1" y2="241.5" opacity="1.0" stroke="rgb(0,0,0)"  stroke-width="3"/>
<line x1="268.9" y1="260.6" x2="245.6" y2="246.9" opacity="1.0" stroke="rgb(0,0,0)"  stroke-width="3"/>
<line x1="234.8" y1="200.2" x2="269.8" y2="180.8" opacity="1.0" stroke="rgb(0,0,0)"  stroke-width="3"/>
<line x1="243.6" y1="203.6" x2="268.1" y2="190.0" opacity="1.0" stroke="rgb(0,0,0)"  stroke-width="3"/>
<line x1="269.8" y1="180.8" x2="293.0" y2="194.7" opacity="1.0" stroke="rgb(0,0,0)"  stroke-width="3"/>
<line x1="370.3" y1="204.5" x2="338.2" y2="180.5" opacity="1.0" stroke="rgb(0,0,0)"  stroke-width="3"/>
<line x1="338.2" y1="180.5" x2="315.2" y2="194.7" opacity="1.0" stroke="rgb(0,0,0)"  stroke-width="3"/>
<line x1="338.2" y1="262.4" x2="362.3" y2="250.2" opacity="1.0" stroke="rgb(0,0,0)"  stroke-width="3"/>
<line x1="134.2" y1="279.5" x2="174.2" y2="280.0" opacity="1.0" stroke="rgb(0,0,0)"  stroke-width="3"/>
<line x1="140.3" y1="272.4" x2="168.3" y2="272.7" opacity="1.0" stroke="rgb(0,0,0)"  stroke-width="3"/>
<line x1="174.2" y1="280.0" x2="194.7" y2="245.6" opacity="1.0" stroke="rgb(0,0,0)"  stroke-width="3"/>
<line x1="175.2" y1="210.7" x2="135.1" y2="210.1" opacity="1.0" stroke="rgb(0,0,0)"  stroke-width="3"/>
<line x1="135.1" y1="210.1" x2="114.7" y2="244.5" opacity="1.0" stroke="rgb(0,0,0)"  stroke-width="3"/>
<line x1="138.3" y1="219.0" x2="123.9" y2="243.1" opacity="1.0" stroke="rgb(0,0,0)"  stroke-width="3"/>
<line x1="114.7" y1="244.5" x2="134.2" y2="279.5" opacity="1.0" stroke="rgb(0,0,0)"  stroke-width="3"/>
<line x1="379.7" y1="125.0" x2="342.9" y2="140.8" opacity="1.0" stroke="rgb(0,0,0)"  stroke-width="3"/>
<line x1="342.9" y1="140.8" x2="338.2" y2="180.5" opacity="1.0" stroke="rgb(0,0,0)"  stroke-width="3"/>
<line x1="349.4" y1="147.6" x2="346.1" y2="175.4" opacity="1.0" stroke="rgb(0,0,0)"  stroke-width="3"/>
<line x1="407.0" y1="188.7" x2="411.8" y2="148.9" opacity="1.0" stroke="rgb(0,0,0)"  stroke-width="3"/>
<line x1="411.8" y1="148.9" x2="379.7" y2="125.0" opacity="1.0" stroke="rgb(0,0,0)"  stroke-width="3"/>
<line x1="402.7" y1="151.1" x2="380.2" y2="134.3" opacity="1.0" stroke="rgb(0,0,0)"  stroke-width="3"/>
<line x1="200.5" y1="179.7" x2="201.1" y2="139.7" opacity="1.0" stroke="rgb(0,0,0)"  stroke-width="3"/>
<line x1="207.8" y1="173.8" x2="208.2" y2="145.8" opacity="1.0" stroke="rgb(0,0,0)"  stroke-width="3"/>
<line x1="201.1" y1="139.7" x2="236.1" y2="120.2" opacity="1.0" stroke="rgb(0,0,0)"  stroke-width="3"/>
<line x1="236.1" y1="120.2" x2="270.4" y2="140.7" opacity="1.0" stroke="rgb(0,0,0)"  stroke-width="3"/>
<line x1="237.5" y1="129.5" x2="261.6" y2="143.8" opacity="1.0" stroke="rgb(0,0,0)"  stroke-width="3"/>
<line x1="270.4" y1="140.7" x2="269.8" y2="180.8" opacity="1.0" stroke="rgb(0,0,0)"  stroke-width="3"/>
<line x1="315.6" y1="77.0" x2="352.4" y2="61.3" opacity="1.0" stroke="rgb(0,0,0)"  stroke-width="3"/>
<line x1="352.4" y1="61.3" x2="384.4" y2="85.2" opacity="1.0" stroke="rgb(0,0,0)"  stroke-width="3"/>
<line x1="352.9" y1="70.6" x2="375.3" y2="87.4" opacity="1.0" stroke="rgb(0,0,0)"  stroke-width="3"/>
<line x1="384.4" y1="85.2" x2="379.7" y2="125.0" opacity="1.0" stroke="rgb(0,0,0)"  stroke-width="3"/>
<line x1="342.9" y1="140.8" x2="310.9" y2="116.8" opacity="1.0" stroke="rgb(0,0,0)"  stroke-width="3"/>
<line x1="310.9" y1="116.8" x2="315.6" y2="77.0" opacity="1.0" stroke="rgb(0,0,0)"  stroke-width="3"/>
<line x1="318.7" y1="111.7" x2="322.0" y2="83.9" opacity="1.0" stroke="rgb(0,0,0)"  stroke-width="3"/>
<line x1="267.2" y1="381.6" x2="267.2" y2="421.6" opacity="1.0" stroke="rgb(0,0,0)"  stroke-width="3"/>
<line x1="267.2" y1="421.6" x2="301.9" y2="441.6" opacity="1.0" stroke="rgb(0,0,0)"  stroke-width="3"/>
<line x1="276.0" y1="418.4" x2="300.3" y2="432.4" opacity="1.0" stroke="rgb(0,0,0)"  stroke-width="3"/>
<line x1="301.9" y1="441.6" x2="336.6" y2="421.6" opacity="1.0" stroke="rgb(0,0,0)"  stroke-width="3"/>
<line x1="336.6" y1="421.6" x2="336.6" y2="381.6" opacity="1.0" stroke="rgb(0,0,0)"  stroke-width="3"/>
<line x1="329.4" y1="415.6" x2="329.4" y2="387.6" opacity="1.0" stroke="rgb(0,0,0)"  stroke-width="3"/>
<line x1="336.6" y1="381.6" x2="301.9" y2="361.5" opacity="1.0" stroke="rgb(0,0,0)"  stroke-width="3"/>
<line x1="301.9" y1="361.5" x2="267.2" y2="381.6" opacity="1.0" stroke="rgb(0,0,0)"  stroke-width="3"/>
<line x1="300.3" y1="370.8" x2="276.0" y2="384.8" opacity="1.0" stroke="rgb(0,0,0)"  stroke-width="3"/>
<line x1="405.4" y1="322.5" x2="421.9" y2="359.0" opacity="1.0" stroke="rgb(0,0,0)"  stroke-width="3"/>
<line x1="421.9" y1="359.0" x2="461.5" y2="364.5" opacity="1.0" stroke="rgb(0,0,0)"  stroke-width="3"/>
<line x1="428.8" y1="352.7" x2="456.5" y2="356.5" opacity="1.0" stroke="rgb(0,0,0)"  stroke-width="3"/>
<line x1="461.5" y1="364.5" x2="484.6" y2="333.5" opacity="1.0" stroke="rgb(0,0,0)"  stroke-width="3"/>
<line x1="484.6" y1="333.5" x2="468.3" y2="295.5" opacity="1.0" stroke="rgb(0,0,0)"  stroke-width="3"/>
<line x1="475.6" y1="330.8" x2="464.1" y2="303.8" opacity="1.0" stroke="rgb(0,0,0)"  stroke-width="3"/>
<line x1="468.3" y1="295.5" x2="428.7" y2="290.0" opacity="1.0" stroke="rgb(0,0,0)"  stroke-width="3"/>
<line x1="428.7" y1="290.0" x2="405.4" y2="322.5" opacity="1.0" stroke="rgb(0,0,0)"  stroke-width="3"/>
<line x1="431.1" y1="299.1" x2="414.7" y2="321.8" opacity="1.0" stroke="rgb(0,0,0)"  stroke-width="3"/>
<line x1="497.3" y1="247.2" x2="537.2" y2="243.5" opacity="1.0" stroke="rgb(0,0,0)"  stroke-width="3"/>
<line x1="537.2" y1="243.5" x2="553.0" y2="207.9" opacity="1.0" stroke="rgb(0,0,0)"  stroke-width="3"/>
<line x1="533.0" y1="235.1" x2="544.0" y2="210.4" opacity="1.0" stroke="rgb(0,0,0)"  stroke-width="3"/>
<line x1="553.0" y1="207.9" x2="531.0" y2="175.7" opacity="1.0" stroke="rgb(0,0,0)"  stroke-width="3"/>
<line x1="531.0" y1="175.7" x2="491.1" y2="179.3" opacity="1.0" stroke="rgb(0,0,0)"  stroke-width="3"/>
<line x1="525.7" y1="183.4" x2="497.8" y2="185.9" opacity="1.0" stroke="rgb(0,0,0)"  stroke-width="3"/>
<line x1="491.1" y1="179.3" x2="473.3" y2="215.2" opacity="1.0" stroke="rgb(0,0,0)"  stroke-width="3"/>
<line x1="473.3" y1="215.2" x2="497.3" y2="247.2" opacity="1.0" stroke="rgb(0,0,0)"  stroke-width="3"/>
<line x1="482.6" y1="215.6" x2="499.5" y2="238.1" opacity="1.0" stroke="rgb(0,0,0)"  stroke-width="3"/>
<line x1="267.1" y1="501.9" x2="267.1" y2="542.0" opacity="1.0" stroke="rgb(0,0,0)"  stroke-width="3"/>
<line x1="267.1" y1="542.0" x2="301.9" y2="562.1" opacity="1.0" stroke="rgb(0,0,0)"  stroke-width="3"/>
<line x1="275.9" y1="538.8" x2="300.3" y2="552.9" opacity="1.0" stroke="rgb(0,0,0)"  stroke-width="3"/>
<line x1="301.9" y1="562.1" x2="336.7" y2="542.0" opacity="1.0" stroke="rgb(0,0,0)"  stroke-width="3"/>
<line x1="336.7" y1="542.0" x2="336.7" y2="501.9" opacity="1.0" stroke="rgb(0,0,0)"  stroke-width="3"/>
<line x1="329.5" y1="536.0" x2="329.5" y2="507.9" opacity="1.0" stroke="rgb(0,0,0)"  stroke-width="3"/>
<line x1="336.7" y1="501.9" x2="301.9" y2="481.8" opacity="1.0" stroke="rgb(0,0,0)"  stroke-width="3"/>
<line x1="301.9" y1="481.8" x2="267.1" y2="501.9" opacity="1.0" stroke="rgb(0,0,0)"  stroke-width="3"/>
<line x1="300.3" y1="491.0" x2="275.9" y2="505.1" opacity="1.0" stroke="rgb(0,0,0)"  stroke-width="3"/>
<line x1="72.4" y1="311.7" x2="112.4" y2="313.0" opacity="1.0" stroke="rgb(0,0,0)"  stroke-width="3"/>
<line x1="112.4" y1="313.0" x2="134.2" y2="279.5" opacity="1.0" stroke="rgb(0,0,0)"  stroke-width="3"/>
<line x1="114.7" y1="244.5" x2="74.7" y2="243.2" opacity="1.0" stroke="rgb(0,0,0)"  stroke-width="3"/>
<line x1="74.7" y1="243.2" x2="54.2" y2="276.8" opacity="1.0" stroke="rgb(0,0,0)"  stroke-width="3"/>
<line x1="54.2" y1="276.8" x2="72.4" y2="311.7" opacity="1.0" stroke="rgb(0,0,0)"  stroke-width="3"/>
<text x="367.903434" y="252.337717" fill="rgb(12,12,255)" stroke-width="0" font-weight="bold" font-size="25.92" >N</text>
<text x="228.384070" y="248.270079" fill="rgb(12,12,255)" stroke-width="0" font-weight="bold" font-size="25.92" >N</text>
<text x="298.091972" y="209.458479" fill="rgb(255,181,181)" stroke-width="0" font-weight="bold" font-size="25.92" >B</text>
</svg>
</g>
</svg>
