<?xml version="1.0"?>
<svg version="1.1" id="topsvg"
xmlns="http://www.w3.org/2000/svg" xmlns:xlink="http://www.w3.org/1999/xlink"
xmlns:cml="http://www.xml-cml.org/schema" x="0" y="0" width="200px" height="200px" viewBox="0 0 100 100">
<title>GD260.sdf - Open Babel Depiction</title>
<rect x="0" y="0" width="100" height="100" fill="white"/>
<g transform="translate(0,0)">
<svg width="100" height="100" x="0" y="0" viewBox="0 0 631.149 565.088"
font-family="sans-serif" stroke="rgb(0,0,0)" stroke-width="3"  stroke-linecap="round">
<line x1="187.8" y1="114.1" x2="175.8" y2="77.1" opacity="1.0" stroke="rgb(0,0,0)"  stroke-width="3"/>
<line x1="175.8" y1="77.1" x2="201.9" y2="48.1" opacity="1.0" stroke="rgb(0,0,0)"  stroke-width="3"/>
<line x1="175.8" y1="77.1" x2="137.7" y2="69.0" opacity="1.0" stroke="rgb(0,0,0)"  stroke-width="3"/>
<line x1="175.8" y1="77.1" x2="163.8" y2="40.0" opacity="1.0" stroke="rgb(0,0,0)"  stroke-width="3"/>
<line x1="104.2" y1="259.0" x2="66.1" y2="267.1" opacity="1.0" stroke="rgb(0,0,0)"  stroke-width="3"/>
<line x1="66.1" y1="267.1" x2="40.0" y2="238.2" opacity="1.0" stroke="rgb(0,0,0)"  stroke-width="3"/>
<line x1="66.1" y1="267.1" x2="54.0" y2="304.2" opacity="1.0" stroke="rgb(0,0,0)"  stroke-width="3"/>
<line x1="66.1" y1="267.1" x2="78.1" y2="230.1" opacity="1.0" stroke="rgb(0,0,0)"  stroke-width="3"/>
<line x1="386.6" y1="242.8" x2="398.6" y2="279.9" opacity="1.0" stroke="rgb(0,0,0)"  stroke-width="3"/>
<line x1="450.7" y1="222.0" x2="412.6" y2="213.9" opacity="1.0" stroke="rgb(0,0,0)"  stroke-width="3"/>
<line x1="422.7" y1="354.0" x2="434.7" y2="391.0" opacity="1.0" stroke="rgb(0,0,0)"  stroke-width="3"/>
<line x1="434.7" y1="391.0" x2="408.7" y2="420.0" opacity="1.0" stroke="rgb(0,0,0)"  stroke-width="3"/>
<line x1="434.7" y1="391.0" x2="472.8" y2="399.1" opacity="1.0" stroke="rgb(0,0,0)"  stroke-width="3"/>
<line x1="434.7" y1="391.0" x2="460.8" y2="362.1" opacity="1.0" stroke="rgb(0,0,0)"  stroke-width="3"/>
<line x1="527.0" y1="238.2" x2="565.1" y2="246.3" opacity="1.0" stroke="rgb(0,0,0)"  stroke-width="3"/>
<line x1="565.1" y1="246.3" x2="591.1" y2="217.3" opacity="1.0" stroke="rgb(0,0,0)"  stroke-width="3"/>
<line x1="565.1" y1="246.3" x2="577.1" y2="283.3" opacity="1.0" stroke="rgb(0,0,0)"  stroke-width="3"/>
<line x1="565.1" y1="246.3" x2="553.0" y2="209.2" opacity="1.0" stroke="rgb(0,0,0)"  stroke-width="3"/>
<line x1="154.3" y1="213.9" x2="173.8" y2="180.1" opacity="1.0" stroke="rgb(0,0,0)"  stroke-width="3"/>
<line x1="173.8" y1="180.1" x2="211.9" y2="188.2" opacity="1.0" stroke="rgb(0,0,0)"  stroke-width="3"/>
<line x1="178.2" y1="188.4" x2="204.6" y2="194.0" opacity="1.0" stroke="rgb(0,0,0)"  stroke-width="3"/>
<line x1="211.9" y1="188.2" x2="214.6" y2="214.0" opacity="1.0" stroke="rgb(0,0,0)"  stroke-width="3"/>
<line x1="204.1" y1="232.3" x2="180.4" y2="242.8" opacity="1.0" stroke="rgb(0,0,0)"  stroke-width="3"/>
<line x1="180.4" y1="242.8" x2="154.3" y2="213.9" opacity="1.0" stroke="rgb(0,0,0)"  stroke-width="3"/>
<line x1="181.7" y1="233.5" x2="163.7" y2="213.5" opacity="1.0" stroke="rgb(0,0,0)"  stroke-width="3"/>
<line x1="412.6" y1="213.9" x2="386.6" y2="242.8" opacity="1.0" stroke="rgb(0,0,0)"  stroke-width="3"/>
<line x1="403.3" y1="213.5" x2="385.2" y2="233.5" opacity="1.0" stroke="rgb(0,0,0)"  stroke-width="3"/>
<line x1="386.6" y1="242.8" x2="362.8" y2="232.3" opacity="1.0" stroke="rgb(0,0,0)"  stroke-width="3"/>
<line x1="352.3" y1="214.0" x2="355.0" y2="188.2" opacity="1.0" stroke="rgb(0,0,0)"  stroke-width="3"/>
<line x1="355.0" y1="188.2" x2="393.2" y2="180.1" opacity="1.0" stroke="rgb(0,0,0)"  stroke-width="3"/>
<line x1="362.4" y1="194.0" x2="388.8" y2="188.4" opacity="1.0" stroke="rgb(0,0,0)"  stroke-width="3"/>
<line x1="393.2" y1="180.1" x2="412.6" y2="213.9" opacity="1.0" stroke="rgb(0,0,0)"  stroke-width="3"/>
<line x1="249.2" y1="453.9" x2="210.5" y2="458.0" opacity="1.0" stroke="rgb(0,0,0)"  stroke-width="3"/>
<line x1="242.5" y1="447.4" x2="215.7" y2="450.2" opacity="1.0" stroke="rgb(0,0,0)"  stroke-width="3"/>
<line x1="210.5" y1="458.0" x2="199.9" y2="434.3" opacity="1.0" stroke="rgb(0,0,0)"  stroke-width="3"/>
<line x1="204.3" y1="413.7" x2="223.6" y2="396.3" opacity="1.0" stroke="rgb(0,0,0)"  stroke-width="3"/>
<line x1="223.6" y1="396.3" x2="257.3" y2="415.8" opacity="1.0" stroke="rgb(0,0,0)"  stroke-width="3"/>
<line x1="257.3" y1="415.8" x2="249.2" y2="453.9" opacity="1.0" stroke="rgb(0,0,0)"  stroke-width="3"/>
<line x1="249.7" y1="285.4" x2="283.5" y2="304.9" opacity="1.0" stroke="rgb(0,0,0)"  stroke-width="3"/>
<line x1="283.5" y1="304.9" x2="317.2" y2="285.4" opacity="1.0" stroke="rgb(0,0,0)"  stroke-width="3"/>
<line x1="285.1" y1="295.7" x2="308.4" y2="282.2" opacity="1.0" stroke="rgb(0,0,0)"  stroke-width="3"/>
<line x1="317.2" y1="285.4" x2="317.2" y2="246.5" opacity="1.0" stroke="rgb(0,0,0)"  stroke-width="3"/>
<line x1="317.2" y1="246.5" x2="283.5" y2="227.0" opacity="1.0" stroke="rgb(0,0,0)"  stroke-width="3"/>
<line x1="308.4" y1="249.7" x2="285.1" y2="236.2" opacity="1.0" stroke="rgb(0,0,0)"  stroke-width="3"/>
<line x1="283.5" y1="227.0" x2="249.7" y2="246.5" opacity="1.0" stroke="rgb(0,0,0)"  stroke-width="3"/>
<line x1="249.7" y1="246.5" x2="249.7" y2="285.4" opacity="1.0" stroke="rgb(0,0,0)"  stroke-width="3"/>
<line x1="256.9" y1="252.5" x2="256.9" y2="279.4" opacity="1.0" stroke="rgb(0,0,0)"  stroke-width="3"/>
<line x1="211.9" y1="188.2" x2="238.0" y2="159.3" opacity="1.0" stroke="rgb(0,0,0)"  stroke-width="3"/>
<line x1="238.0" y1="159.3" x2="272.5" y2="181.1" opacity="1.0" stroke="rgb(0,0,0)"  stroke-width="3"/>
<line x1="283.5" y1="201.0" x2="283.5" y2="227.0" opacity="1.0" stroke="rgb(0,0,0)"  stroke-width="3"/>
<line x1="249.7" y1="246.5" x2="227.3" y2="233.5" opacity="1.0" stroke="rgb(0,0,0)"  stroke-width="3"/>
<line x1="104.2" y1="259.0" x2="130.3" y2="288.0" opacity="1.0" stroke="rgb(0,0,0)"  stroke-width="3"/>
<line x1="130.3" y1="288.0" x2="168.4" y2="279.9" opacity="1.0" stroke="rgb(0,0,0)"  stroke-width="3"/>
<line x1="134.6" y1="279.7" x2="161.0" y2="274.1" opacity="1.0" stroke="rgb(0,0,0)"  stroke-width="3"/>
<line x1="168.4" y1="279.9" x2="180.4" y2="242.8" opacity="1.0" stroke="rgb(0,0,0)"  stroke-width="3"/>
<line x1="154.3" y1="213.9" x2="116.2" y2="222.0" opacity="1.0" stroke="rgb(0,0,0)"  stroke-width="3"/>
<line x1="116.2" y1="222.0" x2="104.2" y2="259.0" opacity="1.0" stroke="rgb(0,0,0)"  stroke-width="3"/>
<line x1="121.2" y1="229.9" x2="112.9" y2="255.5" opacity="1.0" stroke="rgb(0,0,0)"  stroke-width="3"/>
<line x1="339.7" y1="233.5" x2="317.2" y2="246.5" opacity="1.0" stroke="rgb(0,0,0)"  stroke-width="3"/>
<line x1="294.5" y1="181.1" x2="329.0" y2="159.3" opacity="1.0" stroke="rgb(0,0,0)"  stroke-width="3"/>
<line x1="329.0" y1="159.3" x2="355.0" y2="188.2" opacity="1.0" stroke="rgb(0,0,0)"  stroke-width="3"/>
<line x1="173.8" y1="180.1" x2="161.8" y2="143.1" opacity="1.0" stroke="rgb(0,0,0)"  stroke-width="3"/>
<line x1="161.8" y1="143.1" x2="187.8" y2="114.1" opacity="1.0" stroke="rgb(0,0,0)"  stroke-width="3"/>
<line x1="171.1" y1="143.4" x2="189.2" y2="123.4" opacity="1.0" stroke="rgb(0,0,0)"  stroke-width="3"/>
<line x1="187.8" y1="114.1" x2="226.0" y2="122.2" opacity="1.0" stroke="rgb(0,0,0)"  stroke-width="3"/>
<line x1="226.0" y1="122.2" x2="238.0" y2="159.3" opacity="1.0" stroke="rgb(0,0,0)"  stroke-width="3"/>
<line x1="221.0" y1="130.1" x2="229.3" y2="155.8" opacity="1.0" stroke="rgb(0,0,0)"  stroke-width="3"/>
<line x1="379.1" y1="114.1" x2="341.0" y2="122.2" opacity="1.0" stroke="rgb(0,0,0)"  stroke-width="3"/>
<line x1="341.0" y1="122.2" x2="329.0" y2="159.3" opacity="1.0" stroke="rgb(0,0,0)"  stroke-width="3"/>
<line x1="346.0" y1="130.1" x2="337.7" y2="155.8" opacity="1.0" stroke="rgb(0,0,0)"  stroke-width="3"/>
<line x1="393.2" y1="180.1" x2="405.2" y2="143.1" opacity="1.0" stroke="rgb(0,0,0)"  stroke-width="3"/>
<line x1="405.2" y1="143.1" x2="379.1" y2="114.1" opacity="1.0" stroke="rgb(0,0,0)"  stroke-width="3"/>
<line x1="395.8" y1="143.4" x2="377.8" y2="123.4" opacity="1.0" stroke="rgb(0,0,0)"  stroke-width="3"/>
<line x1="327.0" y1="56.2" x2="365.1" y2="48.1" opacity="1.0" stroke="rgb(0,0,0)"  stroke-width="3"/>
<line x1="365.1" y1="48.1" x2="391.2" y2="77.1" opacity="1.0" stroke="rgb(0,0,0)"  stroke-width="3"/>
<line x1="363.8" y1="57.4" x2="381.8" y2="77.4" opacity="1.0" stroke="rgb(0,0,0)"  stroke-width="3"/>
<line x1="391.2" y1="77.1" x2="379.1" y2="114.1" opacity="1.0" stroke="rgb(0,0,0)"  stroke-width="3"/>
<line x1="341.0" y1="122.2" x2="314.9" y2="93.3" opacity="1.0" stroke="rgb(0,0,0)"  stroke-width="3"/>
<line x1="314.9" y1="93.3" x2="327.0" y2="56.2" opacity="1.0" stroke="rgb(0,0,0)"  stroke-width="3"/>
<line x1="323.6" y1="89.8" x2="332.0" y2="64.1" opacity="1.0" stroke="rgb(0,0,0)"  stroke-width="3"/>
<line x1="158.9" y1="392.8" x2="154.4" y2="354.1" opacity="1.0" stroke="rgb(0,0,0)"  stroke-width="3"/>
<line x1="151.1" y1="387.7" x2="147.9" y2="360.9" opacity="1.0" stroke="rgb(0,0,0)"  stroke-width="3"/>
<line x1="154.4" y1="354.1" x2="118.6" y2="338.6" opacity="1.0" stroke="rgb(0,0,0)"  stroke-width="3"/>
<line x1="118.6" y1="338.6" x2="87.4" y2="361.9" opacity="1.0" stroke="rgb(0,0,0)"  stroke-width="3"/>
<line x1="118.1" y1="348.0" x2="96.5" y2="364.1" opacity="1.0" stroke="rgb(0,0,0)"  stroke-width="3"/>
<line x1="87.4" y1="361.9" x2="91.9" y2="400.6" opacity="1.0" stroke="rgb(0,0,0)"  stroke-width="3"/>
<line x1="91.9" y1="400.6" x2="127.6" y2="416.0" opacity="1.0" stroke="rgb(0,0,0)"  stroke-width="3"/>
<line x1="100.2" y1="396.4" x2="125.0" y2="407.1" opacity="1.0" stroke="rgb(0,0,0)"  stroke-width="3"/>
<line x1="127.6" y1="416.0" x2="158.9" y2="392.8" opacity="1.0" stroke="rgb(0,0,0)"  stroke-width="3"/>
<line x1="291.1" y1="357.3" x2="257.3" y2="337.9" opacity="1.0" stroke="rgb(0,0,0)"  stroke-width="3"/>
<line x1="282.3" y1="360.6" x2="258.9" y2="347.1" opacity="1.0" stroke="rgb(0,0,0)"  stroke-width="3"/>
<line x1="257.3" y1="337.9" x2="223.6" y2="357.3" opacity="1.0" stroke="rgb(0,0,0)"  stroke-width="3"/>
<line x1="223.6" y1="357.3" x2="223.6" y2="396.3" opacity="1.0" stroke="rgb(0,0,0)"  stroke-width="3"/>
<line x1="230.8" y1="363.3" x2="230.8" y2="390.3" opacity="1.0" stroke="rgb(0,0,0)"  stroke-width="3"/>
<line x1="257.3" y1="415.8" x2="291.1" y2="396.3" opacity="1.0" stroke="rgb(0,0,0)"  stroke-width="3"/>
<line x1="258.9" y1="406.6" x2="282.3" y2="393.1" opacity="1.0" stroke="rgb(0,0,0)"  stroke-width="3"/>
<line x1="291.1" y1="396.3" x2="291.1" y2="357.3" opacity="1.0" stroke="rgb(0,0,0)"  stroke-width="3"/>
<line x1="256.3" y1="521.0" x2="217.5" y2="525.1" opacity="1.0" stroke="rgb(0,0,0)"  stroke-width="3"/>
<line x1="217.5" y1="525.1" x2="194.6" y2="493.6" opacity="1.0" stroke="rgb(0,0,0)"  stroke-width="3"/>
<line x1="219.8" y1="516.0" x2="204.0" y2="494.2" opacity="1.0" stroke="rgb(0,0,0)"  stroke-width="3"/>
<line x1="194.6" y1="493.6" x2="210.5" y2="458.0" opacity="1.0" stroke="rgb(0,0,0)"  stroke-width="3"/>
<line x1="249.2" y1="453.9" x2="272.1" y2="485.4" opacity="1.0" stroke="rgb(0,0,0)"  stroke-width="3"/>
<line x1="272.1" y1="485.4" x2="256.3" y2="521.0" opacity="1.0" stroke="rgb(0,0,0)"  stroke-width="3"/>
<line x1="263.1" y1="488.0" x2="252.1" y2="512.6" opacity="1.0" stroke="rgb(0,0,0)"  stroke-width="3"/>
<line x1="372.5" y1="308.8" x2="384.6" y2="345.9" opacity="1.0" stroke="rgb(0,0,0)"  stroke-width="3"/>
<line x1="384.6" y1="345.9" x2="422.7" y2="354.0" opacity="1.0" stroke="rgb(0,0,0)"  stroke-width="3"/>
<line x1="391.9" y1="340.1" x2="418.3" y2="345.7" opacity="1.0" stroke="rgb(0,0,0)"  stroke-width="3"/>
<line x1="422.7" y1="354.0" x2="448.8" y2="325.0" opacity="1.0" stroke="rgb(0,0,0)"  stroke-width="3"/>
<line x1="448.8" y1="325.0" x2="436.7" y2="288.0" opacity="1.0" stroke="rgb(0,0,0)"  stroke-width="3"/>
<line x1="440.1" y1="321.5" x2="431.7" y2="295.9" opacity="1.0" stroke="rgb(0,0,0)"  stroke-width="3"/>
<line x1="436.7" y1="288.0" x2="398.6" y2="279.9" opacity="1.0" stroke="rgb(0,0,0)"  stroke-width="3"/>
<line x1="398.6" y1="279.9" x2="372.5" y2="308.8" opacity="1.0" stroke="rgb(0,0,0)"  stroke-width="3"/>
<line x1="399.9" y1="289.2" x2="381.9" y2="309.2" opacity="1.0" stroke="rgb(0,0,0)"  stroke-width="3"/>
<line x1="462.8" y1="259.0" x2="500.9" y2="267.1" opacity="1.0" stroke="rgb(0,0,0)"  stroke-width="3"/>
<line x1="500.9" y1="267.1" x2="527.0" y2="238.2" opacity="1.0" stroke="rgb(0,0,0)"  stroke-width="3"/>
<line x1="499.6" y1="257.8" x2="517.6" y2="237.8" opacity="1.0" stroke="rgb(0,0,0)"  stroke-width="3"/>
<line x1="527.0" y1="238.2" x2="514.9" y2="201.1" opacity="1.0" stroke="rgb(0,0,0)"  stroke-width="3"/>
<line x1="514.9" y1="201.1" x2="476.8" y2="193.0" opacity="1.0" stroke="rgb(0,0,0)"  stroke-width="3"/>
<line x1="507.6" y1="206.9" x2="481.2" y2="201.3" opacity="1.0" stroke="rgb(0,0,0)"  stroke-width="3"/>
<line x1="476.8" y1="193.0" x2="450.7" y2="222.0" opacity="1.0" stroke="rgb(0,0,0)"  stroke-width="3"/>
<line x1="450.7" y1="222.0" x2="462.8" y2="259.0" opacity="1.0" stroke="rgb(0,0,0)"  stroke-width="3"/>
<line x1="459.4" y1="225.4" x2="467.8" y2="251.1" opacity="1.0" stroke="rgb(0,0,0)"  stroke-width="3"/>
<line x1="168.4" y1="279.9" x2="189.8" y2="337.9" opacity="1.0" stroke="rgb(0,0,0)"  stroke-width="3"/>
<line x1="189.8" y1="337.9" x2="249.7" y2="285.4" opacity="1.0" stroke="rgb(0,0,0)"  stroke-width="3"/>
<line x1="189.8" y1="337.9" x2="154.4" y2="354.1" opacity="1.0" stroke="rgb(0,0,0)"  stroke-width="3"/>
<line x1="158.9" y1="392.8" x2="184.6" y2="414.1" opacity="1.0" stroke="rgb(0,0,0)"  stroke-width="3"/>
<line x1="223.6" y1="357.3" x2="189.8" y2="337.9" opacity="1.0" stroke="rgb(0,0,0)"  stroke-width="3"/>
<text x="188.614634" y="430.379074" fill="rgb(12,12,255)" stroke-width="0" font-weight="bold" font-size="25.92" >N</text>
<text x="209.998247" y="234.971221" fill="rgb(12,12,255)" stroke-width="0" font-weight="bold" font-size="25.92" >N</text>
<text x="277.483283" y="196.008719" fill="rgb(255,181,181)" stroke-width="0" font-weight="bold" font-size="25.92" >B</text>
<text x="344.968318" y="234.971173" fill="rgb(12,12,255)" stroke-width="0" font-weight="bold" font-size="25.92" >N</text>
</svg>
</g>
</svg>
