<?xml version="1.0"?>
<svg version="1.1" id="topsvg"
xmlns="http://www.w3.org/2000/svg" xmlns:xlink="http://www.w3.org/1999/xlink"
xmlns:cml="http://www.xml-cml.org/schema" x="0" y="0" width="200px" height="200px" viewBox="0 0 100 100">
<title>GD267.sdf - Open Babel Depiction</title>
<rect x="0" y="0" width="100" height="100" fill="white"/>
<g transform="translate(0,0)">
<svg width="100" height="100" x="0" y="0" viewBox="0 0 596.367 602.291"
font-family="sans-serif" stroke="rgb(0,0,0)" stroke-width="3"  stroke-linecap="round">
<line x1="201.8" y1="158.0" x2="189.6" y2="120.6" opacity="1.0" stroke="rgb(0,0,0)"  stroke-width="3"/>
<line x1="189.6" y1="120.6" x2="217.5" y2="92.7" opacity="1.0" stroke="rgb(0,0,0)"  stroke-width="3"/>
<line x1="189.6" y1="120.6" x2="151.5" y2="110.4" opacity="1.0" stroke="rgb(0,0,0)"  stroke-width="3"/>
<line x1="189.6" y1="120.6" x2="179.4" y2="82.5" opacity="1.0" stroke="rgb(0,0,0)"  stroke-width="3"/>
<line x1="117.1" y1="304.7" x2="78.6" y2="312.9" opacity="1.0" stroke="rgb(0,0,0)"  stroke-width="3"/>
<line x1="78.6" y1="312.9" x2="40.0" y2="321.0" opacity="1.0" stroke="rgb(0,0,0)"  stroke-width="3"/>
<line x1="78.6" y1="312.9" x2="66.4" y2="350.3" opacity="1.0" stroke="rgb(0,0,0)"  stroke-width="3"/>
<line x1="78.6" y1="312.9" x2="52.2" y2="283.6" opacity="1.0" stroke="rgb(0,0,0)"  stroke-width="3"/>
<line x1="410.7" y1="112.3" x2="433.5" y2="99.1" opacity="1.0" stroke="rgb(0,0,0)"  stroke-width="3"/>
<line x1="438.7" y1="462.5" x2="478.0" y2="466.6" opacity="1.0" stroke="rgb(0,0,0)"  stroke-width="3"/>
<line x1="360.3" y1="454.3" x2="317.1" y2="449.0" opacity="1.0" stroke="rgb(0,0,0)"  stroke-width="3"/>
<line x1="298.5" y1="351.1" x2="297.4" y2="414.9" opacity="1.0" stroke="rgb(0,0,0)"  stroke-width="3"/>
<line x1="167.9" y1="259.0" x2="187.6" y2="224.8" opacity="1.0" stroke="rgb(0,0,0)"  stroke-width="3"/>
<line x1="187.6" y1="224.8" x2="226.1" y2="233.0" opacity="1.0" stroke="rgb(0,0,0)"  stroke-width="3"/>
<line x1="191.9" y1="233.1" x2="218.8" y2="238.8" opacity="1.0" stroke="rgb(0,0,0)"  stroke-width="3"/>
<line x1="226.1" y1="233.0" x2="228.9" y2="259.3" opacity="1.0" stroke="rgb(0,0,0)"  stroke-width="3"/>
<line x1="218.4" y1="277.5" x2="194.2" y2="288.3" opacity="1.0" stroke="rgb(0,0,0)"  stroke-width="3"/>
<line x1="194.2" y1="288.3" x2="167.9" y2="259.0" opacity="1.0" stroke="rgb(0,0,0)"  stroke-width="3"/>
<line x1="195.6" y1="279.0" x2="177.2" y2="258.6" opacity="1.0" stroke="rgb(0,0,0)"  stroke-width="3"/>
<line x1="429.2" y1="259.0" x2="402.8" y2="288.3" opacity="1.0" stroke="rgb(0,0,0)"  stroke-width="3"/>
<line x1="419.8" y1="258.6" x2="401.5" y2="279.0" opacity="1.0" stroke="rgb(0,0,0)"  stroke-width="3"/>
<line x1="402.8" y1="288.3" x2="378.7" y2="277.5" opacity="1.0" stroke="rgb(0,0,0)"  stroke-width="3"/>
<line x1="368.2" y1="259.3" x2="370.9" y2="233.0" opacity="1.0" stroke="rgb(0,0,0)"  stroke-width="3"/>
<line x1="370.9" y1="233.0" x2="409.5" y2="224.8" opacity="1.0" stroke="rgb(0,0,0)"  stroke-width="3"/>
<line x1="378.3" y1="238.8" x2="405.1" y2="233.1" opacity="1.0" stroke="rgb(0,0,0)"  stroke-width="3"/>
<line x1="409.5" y1="224.8" x2="429.2" y2="259.0" opacity="1.0" stroke="rgb(0,0,0)"  stroke-width="3"/>
<line x1="363.4" y1="102.8" x2="387.5" y2="113.6" opacity="1.0" stroke="rgb(0,0,0)"  stroke-width="3"/>
<line x1="398.0" y1="131.8" x2="395.3" y2="158.0" opacity="1.0" stroke="rgb(0,0,0)"  stroke-width="3"/>
<line x1="395.3" y1="158.0" x2="356.7" y2="166.2" opacity="1.0" stroke="rgb(0,0,0)"  stroke-width="3"/>
<line x1="356.7" y1="166.2" x2="337.0" y2="132.1" opacity="1.0" stroke="rgb(0,0,0)"  stroke-width="3"/>
<line x1="337.0" y1="132.1" x2="363.4" y2="102.8" opacity="1.0" stroke="rgb(0,0,0)"  stroke-width="3"/>
<line x1="346.4" y1="132.5" x2="364.7" y2="112.1" opacity="1.0" stroke="rgb(0,0,0)"  stroke-width="3"/>
<line x1="264.4" y1="331.4" x2="298.5" y2="351.1" opacity="1.0" stroke="rgb(0,0,0)"  stroke-width="3"/>
<line x1="298.5" y1="351.1" x2="332.7" y2="331.4" opacity="1.0" stroke="rgb(0,0,0)"  stroke-width="3"/>
<line x1="300.1" y1="341.8" x2="323.9" y2="328.1" opacity="1.0" stroke="rgb(0,0,0)"  stroke-width="3"/>
<line x1="332.7" y1="331.4" x2="332.7" y2="291.9" opacity="1.0" stroke="rgb(0,0,0)"  stroke-width="3"/>
<line x1="332.7" y1="291.9" x2="298.5" y2="272.2" opacity="1.0" stroke="rgb(0,0,0)"  stroke-width="3"/>
<line x1="323.9" y1="295.2" x2="300.1" y2="281.5" opacity="1.0" stroke="rgb(0,0,0)"  stroke-width="3"/>
<line x1="298.5" y1="272.2" x2="264.4" y2="291.9" opacity="1.0" stroke="rgb(0,0,0)"  stroke-width="3"/>
<line x1="264.4" y1="291.9" x2="264.4" y2="331.4" opacity="1.0" stroke="rgb(0,0,0)"  stroke-width="3"/>
<line x1="271.6" y1="297.9" x2="271.6" y2="325.4" opacity="1.0" stroke="rgb(0,0,0)"  stroke-width="3"/>
<line x1="226.1" y1="233.0" x2="252.5" y2="203.7" opacity="1.0" stroke="rgb(0,0,0)"  stroke-width="3"/>
<line x1="252.5" y1="203.7" x2="287.5" y2="225.9" opacity="1.0" stroke="rgb(0,0,0)"  stroke-width="3"/>
<line x1="298.5" y1="245.8" x2="298.5" y2="272.2" opacity="1.0" stroke="rgb(0,0,0)"  stroke-width="3"/>
<line x1="264.4" y1="291.9" x2="241.5" y2="278.7" opacity="1.0" stroke="rgb(0,0,0)"  stroke-width="3"/>
<line x1="143.5" y1="334.0" x2="117.1" y2="304.7" opacity="1.0" stroke="rgb(0,0,0)"  stroke-width="3"/>
<line x1="117.1" y1="304.7" x2="129.3" y2="267.2" opacity="1.0" stroke="rgb(0,0,0)"  stroke-width="3"/>
<line x1="125.8" y1="301.2" x2="134.3" y2="275.1" opacity="1.0" stroke="rgb(0,0,0)"  stroke-width="3"/>
<line x1="129.3" y1="267.2" x2="167.9" y2="259.0" opacity="1.0" stroke="rgb(0,0,0)"  stroke-width="3"/>
<line x1="194.2" y1="288.3" x2="182.1" y2="325.8" opacity="1.0" stroke="rgb(0,0,0)"  stroke-width="3"/>
<line x1="182.1" y1="325.8" x2="143.5" y2="334.0" opacity="1.0" stroke="rgb(0,0,0)"  stroke-width="3"/>
<line x1="174.7" y1="320.0" x2="147.9" y2="325.7" opacity="1.0" stroke="rgb(0,0,0)"  stroke-width="3"/>
<line x1="355.5" y1="278.7" x2="332.7" y2="291.9" opacity="1.0" stroke="rgb(0,0,0)"  stroke-width="3"/>
<line x1="309.5" y1="225.9" x2="344.5" y2="203.7" opacity="1.0" stroke="rgb(0,0,0)"  stroke-width="3"/>
<line x1="344.5" y1="203.7" x2="370.9" y2="233.0" opacity="1.0" stroke="rgb(0,0,0)"  stroke-width="3"/>
<line x1="479.9" y1="304.7" x2="453.6" y2="334.0" opacity="1.0" stroke="rgb(0,0,0)"  stroke-width="3"/>
<line x1="453.6" y1="334.0" x2="415.0" y2="325.8" opacity="1.0" stroke="rgb(0,0,0)"  stroke-width="3"/>
<line x1="449.2" y1="325.7" x2="422.4" y2="320.0" opacity="1.0" stroke="rgb(0,0,0)"  stroke-width="3"/>
<line x1="415.0" y1="325.8" x2="402.8" y2="288.3" opacity="1.0" stroke="rgb(0,0,0)"  stroke-width="3"/>
<line x1="429.2" y1="259.0" x2="467.7" y2="267.2" opacity="1.0" stroke="rgb(0,0,0)"  stroke-width="3"/>
<line x1="467.7" y1="267.2" x2="479.9" y2="304.7" opacity="1.0" stroke="rgb(0,0,0)"  stroke-width="3"/>
<line x1="462.8" y1="275.1" x2="471.2" y2="301.2" opacity="1.0" stroke="rgb(0,0,0)"  stroke-width="3"/>
<line x1="356.7" y1="166.2" x2="344.5" y2="203.7" opacity="1.0" stroke="rgb(0,0,0)"  stroke-width="3"/>
<line x1="361.7" y1="174.2" x2="353.2" y2="200.2" opacity="1.0" stroke="rgb(0,0,0)"  stroke-width="3"/>
<line x1="409.5" y1="224.8" x2="421.7" y2="187.3" opacity="1.0" stroke="rgb(0,0,0)"  stroke-width="3"/>
<line x1="421.7" y1="187.3" x2="395.3" y2="158.0" opacity="1.0" stroke="rgb(0,0,0)"  stroke-width="3"/>
<line x1="412.3" y1="187.7" x2="393.9" y2="167.3" opacity="1.0" stroke="rgb(0,0,0)"  stroke-width="3"/>
<line x1="187.6" y1="224.8" x2="175.4" y2="187.3" opacity="1.0" stroke="rgb(0,0,0)"  stroke-width="3"/>
<line x1="175.4" y1="187.3" x2="201.8" y2="158.0" opacity="1.0" stroke="rgb(0,0,0)"  stroke-width="3"/>
<line x1="184.8" y1="187.7" x2="203.1" y2="167.3" opacity="1.0" stroke="rgb(0,0,0)"  stroke-width="3"/>
<line x1="201.8" y1="158.0" x2="240.3" y2="166.2" opacity="1.0" stroke="rgb(0,0,0)"  stroke-width="3"/>
<line x1="240.3" y1="166.2" x2="252.5" y2="203.7" opacity="1.0" stroke="rgb(0,0,0)"  stroke-width="3"/>
<line x1="235.3" y1="174.2" x2="243.8" y2="200.2" opacity="1.0" stroke="rgb(0,0,0)"  stroke-width="3"/>
<line x1="286.3" y1="86.4" x2="298.5" y2="123.9" opacity="1.0" stroke="rgb(0,0,0)"  stroke-width="3"/>
<line x1="295.0" y1="89.9" x2="303.5" y2="116.0" opacity="1.0" stroke="rgb(0,0,0)"  stroke-width="3"/>
<line x1="298.5" y1="123.9" x2="337.0" y2="132.1" opacity="1.0" stroke="rgb(0,0,0)"  stroke-width="3"/>
<line x1="363.4" y1="102.8" x2="351.2" y2="65.3" opacity="1.0" stroke="rgb(0,0,0)"  stroke-width="3"/>
<line x1="351.2" y1="65.3" x2="312.7" y2="57.1" opacity="1.0" stroke="rgb(0,0,0)"  stroke-width="3"/>
<line x1="343.8" y1="71.1" x2="317.0" y2="65.4" opacity="1.0" stroke="rgb(0,0,0)"  stroke-width="3"/>
<line x1="312.7" y1="57.1" x2="286.3" y2="86.4" opacity="1.0" stroke="rgb(0,0,0)"  stroke-width="3"/>
<line x1="467.7" y1="118.8" x2="501.8" y2="99.1" opacity="1.0" stroke="rgb(0,0,0)"  stroke-width="3"/>
<line x1="501.8" y1="99.1" x2="501.8" y2="59.7" opacity="1.0" stroke="rgb(0,0,0)"  stroke-width="3"/>
<line x1="494.6" y1="93.1" x2="494.6" y2="65.7" opacity="1.0" stroke="rgb(0,0,0)"  stroke-width="3"/>
<line x1="501.8" y1="59.7" x2="467.7" y2="40.0" opacity="1.0" stroke="rgb(0,0,0)"  stroke-width="3"/>
<line x1="467.7" y1="40.0" x2="433.5" y2="59.7" opacity="1.0" stroke="rgb(0,0,0)"  stroke-width="3"/>
<line x1="466.1" y1="49.2" x2="442.3" y2="62.9" opacity="1.0" stroke="rgb(0,0,0)"  stroke-width="3"/>
<line x1="433.5" y1="59.7" x2="433.5" y2="99.1" opacity="1.0" stroke="rgb(0,0,0)"  stroke-width="3"/>
<line x1="433.5" y1="99.1" x2="467.7" y2="118.8" opacity="1.0" stroke="rgb(0,0,0)"  stroke-width="3"/>
<line x1="442.3" y1="95.9" x2="466.1" y2="109.6" opacity="1.0" stroke="rgb(0,0,0)"  stroke-width="3"/>
<line x1="429.8" y1="358.6" x2="390.6" y2="354.5" opacity="1.0" stroke="rgb(0,0,0)"  stroke-width="3"/>
<line x1="423.1" y1="365.1" x2="395.8" y2="362.3" opacity="1.0" stroke="rgb(0,0,0)"  stroke-width="3"/>
<line x1="390.6" y1="354.5" x2="367.4" y2="386.4" opacity="1.0" stroke="rgb(0,0,0)"  stroke-width="3"/>
<line x1="367.4" y1="386.4" x2="383.5" y2="422.4" opacity="1.0" stroke="rgb(0,0,0)"  stroke-width="3"/>
<line x1="376.5" y1="388.9" x2="387.6" y2="414.0" opacity="1.0" stroke="rgb(0,0,0)"  stroke-width="3"/>
<line x1="383.5" y1="422.4" x2="422.7" y2="426.5" opacity="1.0" stroke="rgb(0,0,0)"  stroke-width="3"/>
<line x1="422.7" y1="426.5" x2="445.9" y2="394.6" opacity="1.0" stroke="rgb(0,0,0)"  stroke-width="3"/>
<line x1="420.4" y1="417.4" x2="436.5" y2="395.2" opacity="1.0" stroke="rgb(0,0,0)"  stroke-width="3"/>
<line x1="445.9" y1="394.6" x2="429.8" y2="358.6" opacity="1.0" stroke="rgb(0,0,0)"  stroke-width="3"/>
<line x1="360.3" y1="454.3" x2="383.5" y2="422.4" opacity="1.0" stroke="rgb(0,0,0)"  stroke-width="3"/>
<line x1="422.7" y1="426.5" x2="438.7" y2="462.5" opacity="1.0" stroke="rgb(0,0,0)"  stroke-width="3"/>
<line x1="438.7" y1="462.5" x2="415.6" y2="494.4" opacity="1.0" stroke="rgb(0,0,0)"  stroke-width="3"/>
<line x1="429.4" y1="463.1" x2="413.3" y2="485.3" opacity="1.0" stroke="rgb(0,0,0)"  stroke-width="3"/>
<line x1="415.6" y1="494.4" x2="376.4" y2="490.3" opacity="1.0" stroke="rgb(0,0,0)"  stroke-width="3"/>
<line x1="376.4" y1="490.3" x2="360.3" y2="454.3" opacity="1.0" stroke="rgb(0,0,0)"  stroke-width="3"/>
<line x1="380.5" y1="481.9" x2="369.4" y2="456.8" opacity="1.0" stroke="rgb(0,0,0)"  stroke-width="3"/>
<line x1="408.5" y1="562.3" x2="369.3" y2="558.2" opacity="1.0" stroke="rgb(0,0,0)"  stroke-width="3"/>
<line x1="369.3" y1="558.2" x2="353.2" y2="522.2" opacity="1.0" stroke="rgb(0,0,0)"  stroke-width="3"/>
<line x1="373.4" y1="549.8" x2="362.2" y2="524.7" opacity="1.0" stroke="rgb(0,0,0)"  stroke-width="3"/>
<line x1="353.2" y1="522.2" x2="376.4" y2="490.3" opacity="1.0" stroke="rgb(0,0,0)"  stroke-width="3"/>
<line x1="415.6" y1="494.4" x2="431.6" y2="530.4" opacity="1.0" stroke="rgb(0,0,0)"  stroke-width="3"/>
<line x1="431.6" y1="530.4" x2="408.5" y2="562.3" opacity="1.0" stroke="rgb(0,0,0)"  stroke-width="3"/>
<line x1="422.3" y1="531.0" x2="406.2" y2="553.2" opacity="1.0" stroke="rgb(0,0,0)"  stroke-width="3"/>
<line x1="317.1" y1="449.0" x2="297.4" y2="414.9" opacity="1.0" stroke="rgb(0,0,0)"  stroke-width="3"/>
<line x1="307.9" y1="447.4" x2="294.2" y2="423.7" opacity="1.0" stroke="rgb(0,0,0)"  stroke-width="3"/>
<line x1="297.4" y1="414.9" x2="258.0" y2="414.9" opacity="1.0" stroke="rgb(0,0,0)"  stroke-width="3"/>
<line x1="258.0" y1="414.9" x2="238.3" y2="449.0" opacity="1.0" stroke="rgb(0,0,0)"  stroke-width="3"/>
<line x1="261.2" y1="423.7" x2="247.5" y2="447.4" opacity="1.0" stroke="rgb(0,0,0)"  stroke-width="3"/>
<line x1="238.3" y1="449.0" x2="258.0" y2="483.2" opacity="1.0" stroke="rgb(0,0,0)"  stroke-width="3"/>
<line x1="258.0" y1="483.2" x2="297.4" y2="483.2" opacity="1.0" stroke="rgb(0,0,0)"  stroke-width="3"/>
<line x1="264.0" y1="476.0" x2="291.4" y2="476.0" opacity="1.0" stroke="rgb(0,0,0)"  stroke-width="3"/>
<line x1="297.4" y1="483.2" x2="317.1" y2="449.0" opacity="1.0" stroke="rgb(0,0,0)"  stroke-width="3"/>
<line x1="297.4" y1="551.5" x2="317.1" y2="517.3" opacity="1.0" stroke="rgb(0,0,0)"  stroke-width="3"/>
<line x1="294.2" y1="542.7" x2="307.9" y2="518.9" opacity="1.0" stroke="rgb(0,0,0)"  stroke-width="3"/>
<line x1="317.1" y1="517.3" x2="297.4" y2="483.2" opacity="1.0" stroke="rgb(0,0,0)"  stroke-width="3"/>
<line x1="258.0" y1="483.2" x2="238.3" y2="517.3" opacity="1.0" stroke="rgb(0,0,0)"  stroke-width="3"/>
<line x1="238.3" y1="517.3" x2="258.0" y2="551.5" opacity="1.0" stroke="rgb(0,0,0)"  stroke-width="3"/>
<line x1="247.5" y1="518.9" x2="261.2" y2="542.7" opacity="1.0" stroke="rgb(0,0,0)"  stroke-width="3"/>
<line x1="258.0" y1="551.5" x2="297.4" y2="551.5" opacity="1.0" stroke="rgb(0,0,0)"  stroke-width="3"/>
<line x1="494.0" y1="502.6" x2="533.2" y2="506.7" opacity="1.0" stroke="rgb(0,0,0)"  stroke-width="3"/>
<line x1="533.2" y1="506.7" x2="556.4" y2="474.8" opacity="1.0" stroke="rgb(0,0,0)"  stroke-width="3"/>
<line x1="530.9" y1="497.6" x2="547.0" y2="475.4" opacity="1.0" stroke="rgb(0,0,0)"  stroke-width="3"/>
<line x1="556.4" y1="474.8" x2="540.3" y2="438.8" opacity="1.0" stroke="rgb(0,0,0)"  stroke-width="3"/>
<line x1="540.3" y1="438.8" x2="501.1" y2="434.7" opacity="1.0" stroke="rgb(0,0,0)"  stroke-width="3"/>
<line x1="533.6" y1="445.3" x2="506.3" y2="442.5" opacity="1.0" stroke="rgb(0,0,0)"  stroke-width="3"/>
<line x1="501.1" y1="434.7" x2="478.0" y2="466.6" opacity="1.0" stroke="rgb(0,0,0)"  stroke-width="3"/>
<line x1="478.0" y1="466.6" x2="494.0" y2="502.6" opacity="1.0" stroke="rgb(0,0,0)"  stroke-width="3"/>
<line x1="487.0" y1="469.1" x2="498.1" y2="494.2" opacity="1.0" stroke="rgb(0,0,0)"  stroke-width="3"/>
<text x="292.524277" y="240.809778" fill="rgb(255,181,181)" stroke-width="0" font-weight="bold" font-size="25.92" >B</text>
<text x="360.801857" y="280.229818" fill="rgb(12,12,255)" stroke-width="0" font-weight="bold" font-size="25.92" >N</text>
<text x="224.246650" y="280.229866" fill="rgb(12,12,255)" stroke-width="0" font-weight="bold" font-size="25.92" >N</text>
<text x="393.405843" y="126.840128" fill="rgb(12,12,255)" stroke-width="0" font-weight="bold" font-size="25.92" >N</text>
</svg>
</g>
</svg>
