<?xml version="1.0"?>
<svg version="1.1" id="topsvg"
xmlns="http://www.w3.org/2000/svg" xmlns:xlink="http://www.w3.org/1999/xlink"
xmlns:cml="http://www.xml-cml.org/schema" x="0" y="0" width="200px" height="200px" viewBox="0 0 100 100">
<title>GD266.sdf - Open Babel Depiction</title>
<rect x="0" y="0" width="100" height="100" fill="white"/>
<g transform="translate(0,0)">
<svg width="100" height="100" x="0" y="0" viewBox="0 0 587.998 574.742"
font-family="sans-serif" stroke="rgb(0,0,0)" stroke-width="3"  stroke-linecap="round">
<line x1="130.4" y1="160.5" x2="107.9" y2="173.9" opacity="1.0" stroke="rgb(0,0,0)"  stroke-width="3"/>
<line x1="302.0" y1="330.8" x2="302.5" y2="412.9" opacity="1.0" stroke="rgb(0,0,0)"  stroke-width="3"/>
<line x1="405.0" y1="267.1" x2="410.7" y2="306.9" opacity="1.0" stroke="rgb(0,0,0)"  stroke-width="3"/>
<line x1="430.9" y1="237.6" x2="469.9" y2="241.3" opacity="1.0" stroke="rgb(0,0,0)"  stroke-width="3"/>
<line x1="268.8" y1="432.9" x2="229.6" y2="432.9" opacity="1.0" stroke="rgb(0,0,0)"  stroke-width="3"/>
<line x1="170.8" y1="398.9" x2="151.2" y2="365.0" opacity="1.0" stroke="rgb(0,0,0)"  stroke-width="3"/>
<line x1="151.2" y1="365.0" x2="111.9" y2="365.0" opacity="1.0" stroke="rgb(0,0,0)"  stroke-width="3"/>
<line x1="151.2" y1="365.0" x2="170.8" y2="331.0" opacity="1.0" stroke="rgb(0,0,0)"  stroke-width="3"/>
<line x1="151.2" y1="365.0" x2="131.6" y2="331.0" opacity="1.0" stroke="rgb(0,0,0)"  stroke-width="3"/>
<line x1="170.8" y1="466.8" x2="151.2" y2="500.8" opacity="1.0" stroke="rgb(0,0,0)"  stroke-width="3"/>
<line x1="151.2" y1="500.8" x2="111.9" y2="500.8" opacity="1.0" stroke="rgb(0,0,0)"  stroke-width="3"/>
<line x1="151.2" y1="500.8" x2="170.8" y2="534.7" opacity="1.0" stroke="rgb(0,0,0)"  stroke-width="3"/>
<line x1="151.2" y1="500.8" x2="131.6" y2="534.7" opacity="1.0" stroke="rgb(0,0,0)"  stroke-width="3"/>
<line x1="171.0" y1="240.7" x2="190.2" y2="206.6" opacity="1.0" stroke="rgb(0,0,0)"  stroke-width="3"/>
<line x1="190.2" y1="206.6" x2="228.6" y2="214.2" opacity="1.0" stroke="rgb(0,0,0)"  stroke-width="3"/>
<line x1="194.7" y1="214.8" x2="221.3" y2="220.1" opacity="1.0" stroke="rgb(0,0,0)"  stroke-width="3"/>
<line x1="228.6" y1="214.2" x2="231.7" y2="240.3" opacity="1.0" stroke="rgb(0,0,0)"  stroke-width="3"/>
<line x1="221.4" y1="258.6" x2="197.6" y2="269.6" opacity="1.0" stroke="rgb(0,0,0)"  stroke-width="3"/>
<line x1="197.6" y1="269.6" x2="171.0" y2="240.7" opacity="1.0" stroke="rgb(0,0,0)"  stroke-width="3"/>
<line x1="198.8" y1="260.3" x2="180.3" y2="240.3" opacity="1.0" stroke="rgb(0,0,0)"  stroke-width="3"/>
<line x1="145.3" y1="114.9" x2="183.5" y2="106.3" opacity="1.0" stroke="rgb(0,0,0)"  stroke-width="3"/>
<line x1="152.7" y1="120.6" x2="179.2" y2="114.6" opacity="1.0" stroke="rgb(0,0,0)"  stroke-width="3"/>
<line x1="183.5" y1="106.3" x2="203.5" y2="140.0" opacity="1.0" stroke="rgb(0,0,0)"  stroke-width="3"/>
<line x1="203.5" y1="140.0" x2="177.6" y2="169.4" opacity="1.0" stroke="rgb(0,0,0)"  stroke-width="3"/>
<line x1="194.1" y1="139.7" x2="176.2" y2="160.2" opacity="1.0" stroke="rgb(0,0,0)"  stroke-width="3"/>
<line x1="177.6" y1="169.4" x2="153.6" y2="159.0" opacity="1.0" stroke="rgb(0,0,0)"  stroke-width="3"/>
<line x1="142.8" y1="141.0" x2="145.3" y2="114.9" opacity="1.0" stroke="rgb(0,0,0)"  stroke-width="3"/>
<line x1="405.0" y1="267.1" x2="430.9" y2="237.6" opacity="1.0" stroke="rgb(0,0,0)"  stroke-width="3"/>
<line x1="403.6" y1="257.8" x2="421.5" y2="237.4" opacity="1.0" stroke="rgb(0,0,0)"  stroke-width="3"/>
<line x1="430.9" y1="237.6" x2="410.9" y2="203.9" opacity="1.0" stroke="rgb(0,0,0)"  stroke-width="3"/>
<line x1="410.9" y1="203.9" x2="372.6" y2="212.5" opacity="1.0" stroke="rgb(0,0,0)"  stroke-width="3"/>
<line x1="406.6" y1="212.3" x2="380.1" y2="218.2" opacity="1.0" stroke="rgb(0,0,0)"  stroke-width="3"/>
<line x1="372.6" y1="212.5" x2="370.2" y2="238.6" opacity="1.0" stroke="rgb(0,0,0)"  stroke-width="3"/>
<line x1="380.9" y1="256.7" x2="405.0" y2="267.1" opacity="1.0" stroke="rgb(0,0,0)"  stroke-width="3"/>
<line x1="267.8" y1="311.6" x2="302.0" y2="330.8" opacity="1.0" stroke="rgb(0,0,0)"  stroke-width="3"/>
<line x1="302.0" y1="330.8" x2="335.7" y2="310.8" opacity="1.0" stroke="rgb(0,0,0)"  stroke-width="3"/>
<line x1="303.5" y1="321.5" x2="326.9" y2="307.7" opacity="1.0" stroke="rgb(0,0,0)"  stroke-width="3"/>
<line x1="335.7" y1="310.8" x2="335.3" y2="271.6" opacity="1.0" stroke="rgb(0,0,0)"  stroke-width="3"/>
<line x1="335.3" y1="271.6" x2="301.1" y2="252.4" opacity="1.0" stroke="rgb(0,0,0)"  stroke-width="3"/>
<line x1="326.5" y1="274.9" x2="302.8" y2="261.6" opacity="1.0" stroke="rgb(0,0,0)"  stroke-width="3"/>
<line x1="301.1" y1="252.4" x2="267.4" y2="272.4" opacity="1.0" stroke="rgb(0,0,0)"  stroke-width="3"/>
<line x1="267.4" y1="272.4" x2="267.8" y2="311.6" opacity="1.0" stroke="rgb(0,0,0)"  stroke-width="3"/>
<line x1="274.6" y1="278.3" x2="275.0" y2="305.5" opacity="1.0" stroke="rgb(0,0,0)"  stroke-width="3"/>
<line x1="228.6" y1="214.2" x2="254.5" y2="184.8" opacity="1.0" stroke="rgb(0,0,0)"  stroke-width="3"/>
<line x1="254.5" y1="184.8" x2="289.6" y2="206.4" opacity="1.0" stroke="rgb(0,0,0)"  stroke-width="3"/>
<line x1="300.8" y1="226.2" x2="301.1" y2="252.4" opacity="1.0" stroke="rgb(0,0,0)"  stroke-width="3"/>
<line x1="267.4" y1="272.4" x2="244.5" y2="259.6" opacity="1.0" stroke="rgb(0,0,0)"  stroke-width="3"/>
<line x1="130.3" y1="48.6" x2="168.6" y2="40.0" opacity="1.0" stroke="rgb(0,0,0)"  stroke-width="3"/>
<line x1="168.6" y1="40.0" x2="195.2" y2="68.8" opacity="1.0" stroke="rgb(0,0,0)"  stroke-width="3"/>
<line x1="167.4" y1="49.3" x2="185.8" y2="69.3" opacity="1.0" stroke="rgb(0,0,0)"  stroke-width="3"/>
<line x1="195.2" y1="68.8" x2="183.5" y2="106.3" opacity="1.0" stroke="rgb(0,0,0)"  stroke-width="3"/>
<line x1="145.3" y1="114.9" x2="118.7" y2="86.0" opacity="1.0" stroke="rgb(0,0,0)"  stroke-width="3"/>
<line x1="118.7" y1="86.0" x2="130.3" y2="48.6" opacity="1.0" stroke="rgb(0,0,0)"  stroke-width="3"/>
<line x1="127.3" y1="82.5" x2="135.4" y2="56.5" opacity="1.0" stroke="rgb(0,0,0)"  stroke-width="3"/>
<line x1="335.3" y1="271.6" x2="357.8" y2="258.2" opacity="1.0" stroke="rgb(0,0,0)"  stroke-width="3"/>
<line x1="372.6" y1="212.5" x2="346.0" y2="183.7" opacity="1.0" stroke="rgb(0,0,0)"  stroke-width="3"/>
<line x1="346.0" y1="183.7" x2="311.5" y2="206.1" opacity="1.0" stroke="rgb(0,0,0)"  stroke-width="3"/>
<line x1="396.0" y1="137.7" x2="357.7" y2="146.3" opacity="1.0" stroke="rgb(0,0,0)"  stroke-width="3"/>
<line x1="357.7" y1="146.3" x2="346.0" y2="183.7" opacity="1.0" stroke="rgb(0,0,0)"  stroke-width="3"/>
<line x1="362.8" y1="154.2" x2="354.7" y2="180.1" opacity="1.0" stroke="rgb(0,0,0)"  stroke-width="3"/>
<line x1="410.9" y1="203.9" x2="422.5" y2="166.5" opacity="1.0" stroke="rgb(0,0,0)"  stroke-width="3"/>
<line x1="422.5" y1="166.5" x2="396.0" y2="137.7" opacity="1.0" stroke="rgb(0,0,0)"  stroke-width="3"/>
<line x1="413.2" y1="167.0" x2="394.7" y2="147.0" opacity="1.0" stroke="rgb(0,0,0)"  stroke-width="3"/>
<line x1="342.8" y1="80.0" x2="381.1" y2="71.4" opacity="1.0" stroke="rgb(0,0,0)"  stroke-width="3"/>
<line x1="381.1" y1="71.4" x2="407.6" y2="100.2" opacity="1.0" stroke="rgb(0,0,0)"  stroke-width="3"/>
<line x1="379.8" y1="80.7" x2="398.3" y2="100.7" opacity="1.0" stroke="rgb(0,0,0)"  stroke-width="3"/>
<line x1="407.6" y1="100.2" x2="396.0" y2="137.7" opacity="1.0" stroke="rgb(0,0,0)"  stroke-width="3"/>
<line x1="357.7" y1="146.3" x2="331.1" y2="117.5" opacity="1.0" stroke="rgb(0,0,0)"  stroke-width="3"/>
<line x1="331.1" y1="117.5" x2="342.8" y2="80.0" opacity="1.0" stroke="rgb(0,0,0)"  stroke-width="3"/>
<line x1="339.8" y1="113.9" x2="347.9" y2="87.9" opacity="1.0" stroke="rgb(0,0,0)"  stroke-width="3"/>
<line x1="147.6" y1="315.6" x2="121.1" y2="286.8" opacity="1.0" stroke="rgb(0,0,0)"  stroke-width="3"/>
<line x1="121.1" y1="286.8" x2="132.7" y2="249.3" opacity="1.0" stroke="rgb(0,0,0)"  stroke-width="3"/>
<line x1="129.7" y1="283.2" x2="137.8" y2="257.2" opacity="1.0" stroke="rgb(0,0,0)"  stroke-width="3"/>
<line x1="132.7" y1="249.3" x2="171.0" y2="240.7" opacity="1.0" stroke="rgb(0,0,0)"  stroke-width="3"/>
<line x1="197.6" y1="269.6" x2="185.9" y2="307.0" opacity="1.0" stroke="rgb(0,0,0)"  stroke-width="3"/>
<line x1="185.9" y1="307.0" x2="147.6" y2="315.6" opacity="1.0" stroke="rgb(0,0,0)"  stroke-width="3"/>
<line x1="178.5" y1="301.3" x2="151.9" y2="307.3" opacity="1.0" stroke="rgb(0,0,0)"  stroke-width="3"/>
<line x1="190.2" y1="206.6" x2="177.6" y2="169.4" opacity="1.0" stroke="rgb(0,0,0)"  stroke-width="3"/>
<line x1="203.5" y1="140.0" x2="242.0" y2="147.7" opacity="1.0" stroke="rgb(0,0,0)"  stroke-width="3"/>
<line x1="242.0" y1="147.7" x2="254.5" y2="184.8" opacity="1.0" stroke="rgb(0,0,0)"  stroke-width="3"/>
<line x1="237.1" y1="155.7" x2="245.8" y2="181.4" opacity="1.0" stroke="rgb(0,0,0)"  stroke-width="3"/>
<line x1="73.7" y1="154.7" x2="40.0" y2="174.7" opacity="1.0" stroke="rgb(0,0,0)"  stroke-width="3"/>
<line x1="40.0" y1="174.7" x2="40.5" y2="213.9" opacity="1.0" stroke="rgb(0,0,0)"  stroke-width="3"/>
<line x1="47.3" y1="180.6" x2="47.6" y2="207.8" opacity="1.0" stroke="rgb(0,0,0)"  stroke-width="3"/>
<line x1="40.5" y1="213.9" x2="74.7" y2="233.1" opacity="1.0" stroke="rgb(0,0,0)"  stroke-width="3"/>
<line x1="74.7" y1="233.1" x2="108.4" y2="213.1" opacity="1.0" stroke="rgb(0,0,0)"  stroke-width="3"/>
<line x1="76.1" y1="223.9" x2="99.5" y2="210.0" opacity="1.0" stroke="rgb(0,0,0)"  stroke-width="3"/>
<line x1="108.4" y1="213.1" x2="107.9" y2="173.9" opacity="1.0" stroke="rgb(0,0,0)"  stroke-width="3"/>
<line x1="107.9" y1="173.9" x2="73.7" y2="154.7" opacity="1.0" stroke="rgb(0,0,0)"  stroke-width="3"/>
<line x1="99.1" y1="177.2" x2="75.4" y2="163.9" opacity="1.0" stroke="rgb(0,0,0)"  stroke-width="3"/>
<line x1="268.8" y1="432.9" x2="269.2" y2="472.1" opacity="1.0" stroke="rgb(0,0,0)"  stroke-width="3"/>
<line x1="269.2" y1="472.1" x2="303.4" y2="491.3" opacity="1.0" stroke="rgb(0,0,0)"  stroke-width="3"/>
<line x1="278.0" y1="468.7" x2="301.7" y2="482.1" opacity="1.0" stroke="rgb(0,0,0)"  stroke-width="3"/>
<line x1="303.4" y1="491.3" x2="337.1" y2="471.3" opacity="1.0" stroke="rgb(0,0,0)"  stroke-width="3"/>
<line x1="337.1" y1="471.3" x2="336.7" y2="432.1" opacity="1.0" stroke="rgb(0,0,0)"  stroke-width="3"/>
<line x1="329.9" y1="465.4" x2="329.6" y2="438.2" opacity="1.0" stroke="rgb(0,0,0)"  stroke-width="3"/>
<line x1="336.7" y1="432.1" x2="302.5" y2="412.9" opacity="1.0" stroke="rgb(0,0,0)"  stroke-width="3"/>
<line x1="302.5" y1="412.9" x2="268.8" y2="432.9" opacity="1.0" stroke="rgb(0,0,0)"  stroke-width="3"/>
<line x1="301.0" y1="422.1" x2="277.6" y2="436.0" opacity="1.0" stroke="rgb(0,0,0)"  stroke-width="3"/>
<line x1="448.9" y1="316.0" x2="410.7" y2="306.9" opacity="1.0" stroke="rgb(0,0,0)"  stroke-width="3"/>
<line x1="441.4" y1="321.6" x2="414.9" y2="315.3" opacity="1.0" stroke="rgb(0,0,0)"  stroke-width="3"/>
<line x1="410.7" y1="306.9" x2="383.8" y2="335.5" opacity="1.0" stroke="rgb(0,0,0)"  stroke-width="3"/>
<line x1="383.8" y1="335.5" x2="395.1" y2="373.0" opacity="1.0" stroke="rgb(0,0,0)"  stroke-width="3"/>
<line x1="392.4" y1="339.1" x2="400.2" y2="365.2" opacity="1.0" stroke="rgb(0,0,0)"  stroke-width="3"/>
<line x1="395.1" y1="373.0" x2="433.2" y2="382.1" opacity="1.0" stroke="rgb(0,0,0)"  stroke-width="3"/>
<line x1="433.2" y1="382.1" x2="460.1" y2="353.5" opacity="1.0" stroke="rgb(0,0,0)"  stroke-width="3"/>
<line x1="432.1" y1="372.7" x2="450.8" y2="353.0" opacity="1.0" stroke="rgb(0,0,0)"  stroke-width="3"/>
<line x1="460.1" y1="353.5" x2="448.9" y2="316.0" opacity="1.0" stroke="rgb(0,0,0)"  stroke-width="3"/>
<line x1="486.3" y1="276.9" x2="525.3" y2="280.5" opacity="1.0" stroke="rgb(0,0,0)"  stroke-width="3"/>
<line x1="525.3" y1="280.5" x2="548.0" y2="248.5" opacity="1.0" stroke="rgb(0,0,0)"  stroke-width="3"/>
<line x1="522.9" y1="271.5" x2="538.7" y2="249.3" opacity="1.0" stroke="rgb(0,0,0)"  stroke-width="3"/>
<line x1="548.0" y1="248.5" x2="531.6" y2="212.9" opacity="1.0" stroke="rgb(0,0,0)"  stroke-width="3"/>
<line x1="531.6" y1="212.9" x2="492.6" y2="209.3" opacity="1.0" stroke="rgb(0,0,0)"  stroke-width="3"/>
<line x1="525.0" y1="219.5" x2="497.9" y2="217.0" opacity="1.0" stroke="rgb(0,0,0)"  stroke-width="3"/>
<line x1="492.6" y1="209.3" x2="469.9" y2="241.3" opacity="1.0" stroke="rgb(0,0,0)"  stroke-width="3"/>
<line x1="469.9" y1="241.3" x2="486.3" y2="276.9" opacity="1.0" stroke="rgb(0,0,0)"  stroke-width="3"/>
<line x1="479.0" y1="243.7" x2="490.3" y2="268.4" opacity="1.0" stroke="rgb(0,0,0)"  stroke-width="3"/>
<line x1="210.0" y1="398.9" x2="170.8" y2="398.9" opacity="1.0" stroke="rgb(0,0,0)"  stroke-width="3"/>
<line x1="170.8" y1="398.9" x2="151.2" y2="432.9" opacity="1.0" stroke="rgb(0,0,0)"  stroke-width="3"/>
<line x1="174.0" y1="407.7" x2="160.4" y2="431.3" opacity="1.0" stroke="rgb(0,0,0)"  stroke-width="3"/>
<line x1="151.2" y1="432.9" x2="170.8" y2="466.8" opacity="1.0" stroke="rgb(0,0,0)"  stroke-width="3"/>
<line x1="170.8" y1="466.8" x2="210.0" y2="466.8" opacity="1.0" stroke="rgb(0,0,0)"  stroke-width="3"/>
<line x1="176.8" y1="459.6" x2="204.0" y2="459.6" opacity="1.0" stroke="rgb(0,0,0)"  stroke-width="3"/>
<line x1="210.0" y1="466.8" x2="229.6" y2="432.9" opacity="1.0" stroke="rgb(0,0,0)"  stroke-width="3"/>
<line x1="229.6" y1="432.9" x2="210.0" y2="398.9" opacity="1.0" stroke="rgb(0,0,0)"  stroke-width="3"/>
<line x1="220.3" y1="431.3" x2="206.7" y2="407.7" opacity="1.0" stroke="rgb(0,0,0)"  stroke-width="3"/>
<text x="294.625896" y="221.177517" fill="rgb(255,181,181)" stroke-width="0" font-weight="bold" font-size="25.92" >B</text>
<text x="227.190065" y="261.189971" fill="rgb(12,12,255)" stroke-width="0" font-weight="bold" font-size="25.92" >N</text>
<text x="362.995601" y="259.572336" fill="rgb(12,12,255)" stroke-width="0" font-weight="bold" font-size="25.92" >N</text>
<text x="135.620683" y="161.896156" fill="rgb(12,12,255)" stroke-width="0" font-weight="bold" font-size="25.92" >N</text>
</svg>
</g>
</svg>
