<?xml version="1.0"?>
<svg version="1.1" id="topsvg"
xmlns="http://www.w3.org/2000/svg" xmlns:xlink="http://www.w3.org/1999/xlink"
xmlns:cml="http://www.xml-cml.org/schema" x="0" y="0" width="200px" height="200px" viewBox="0 0 100 100">
<title>GD262.sdf - Open Babel Depiction</title>
<rect x="0" y="0" width="100" height="100" fill="white"/>
<g transform="translate(0,0)">
<svg width="100" height="100" x="0" y="0" viewBox="0 0 566.74 455.865"
font-family="sans-serif" stroke="rgb(0,0,0)" stroke-width="3"  stroke-linecap="round">
<line x1="187.8" y1="114.1" x2="175.7" y2="77.0" opacity="1.0" stroke="rgb(0,0,0)"  stroke-width="3"/>
<line x1="175.7" y1="77.0" x2="201.8" y2="48.1" opacity="1.0" stroke="rgb(0,0,0)"  stroke-width="3"/>
<line x1="175.7" y1="77.0" x2="137.6" y2="68.9" opacity="1.0" stroke="rgb(0,0,0)"  stroke-width="3"/>
<line x1="175.7" y1="77.0" x2="163.7" y2="40.0" opacity="1.0" stroke="rgb(0,0,0)"  stroke-width="3"/>
<line x1="104.2" y1="258.9" x2="66.1" y2="267.0" opacity="1.0" stroke="rgb(0,0,0)"  stroke-width="3"/>
<line x1="66.1" y1="267.0" x2="40.0" y2="238.1" opacity="1.0" stroke="rgb(0,0,0)"  stroke-width="3"/>
<line x1="66.1" y1="267.0" x2="54.0" y2="304.1" opacity="1.0" stroke="rgb(0,0,0)"  stroke-width="3"/>
<line x1="66.1" y1="267.0" x2="78.1" y2="230.0" opacity="1.0" stroke="rgb(0,0,0)"  stroke-width="3"/>
<line x1="386.4" y1="242.7" x2="398.4" y2="279.8" opacity="1.0" stroke="rgb(0,0,0)"  stroke-width="3"/>
<line x1="450.6" y1="221.9" x2="412.5" y2="213.8" opacity="1.0" stroke="rgb(0,0,0)"  stroke-width="3"/>
<line x1="154.3" y1="213.8" x2="173.8" y2="180.1" opacity="1.0" stroke="rgb(0,0,0)"  stroke-width="3"/>
<line x1="173.8" y1="180.1" x2="211.8" y2="188.2" opacity="1.0" stroke="rgb(0,0,0)"  stroke-width="3"/>
<line x1="178.1" y1="188.3" x2="204.5" y2="193.9" opacity="1.0" stroke="rgb(0,0,0)"  stroke-width="3"/>
<line x1="211.8" y1="188.2" x2="214.6" y2="214.0" opacity="1.0" stroke="rgb(0,0,0)"  stroke-width="3"/>
<line x1="204.0" y1="232.2" x2="180.3" y2="242.7" opacity="1.0" stroke="rgb(0,0,0)"  stroke-width="3"/>
<line x1="180.3" y1="242.7" x2="154.3" y2="213.8" opacity="1.0" stroke="rgb(0,0,0)"  stroke-width="3"/>
<line x1="181.7" y1="233.4" x2="163.6" y2="213.4" opacity="1.0" stroke="rgb(0,0,0)"  stroke-width="3"/>
<line x1="412.5" y1="213.8" x2="386.4" y2="242.7" opacity="1.0" stroke="rgb(0,0,0)"  stroke-width="3"/>
<line x1="403.1" y1="213.4" x2="385.1" y2="233.4" opacity="1.0" stroke="rgb(0,0,0)"  stroke-width="3"/>
<line x1="386.4" y1="242.7" x2="362.7" y2="232.2" opacity="1.0" stroke="rgb(0,0,0)"  stroke-width="3"/>
<line x1="352.2" y1="214.0" x2="354.9" y2="188.2" opacity="1.0" stroke="rgb(0,0,0)"  stroke-width="3"/>
<line x1="354.9" y1="188.2" x2="393.0" y2="180.1" opacity="1.0" stroke="rgb(0,0,0)"  stroke-width="3"/>
<line x1="362.3" y1="193.9" x2="388.6" y2="188.3" opacity="1.0" stroke="rgb(0,0,0)"  stroke-width="3"/>
<line x1="393.0" y1="180.1" x2="412.5" y2="213.8" opacity="1.0" stroke="rgb(0,0,0)"  stroke-width="3"/>
<line x1="249.6" y1="285.3" x2="283.4" y2="304.8" opacity="1.0" stroke="rgb(0,0,0)"  stroke-width="3"/>
<line x1="283.4" y1="304.8" x2="317.1" y2="285.3" opacity="1.0" stroke="rgb(0,0,0)"  stroke-width="3"/>
<line x1="285.0" y1="295.5" x2="308.3" y2="282.1" opacity="1.0" stroke="rgb(0,0,0)"  stroke-width="3"/>
<line x1="317.1" y1="285.3" x2="317.1" y2="246.4" opacity="1.0" stroke="rgb(0,0,0)"  stroke-width="3"/>
<line x1="317.1" y1="246.4" x2="283.4" y2="226.9" opacity="1.0" stroke="rgb(0,0,0)"  stroke-width="3"/>
<line x1="308.3" y1="249.6" x2="285.0" y2="236.1" opacity="1.0" stroke="rgb(0,0,0)"  stroke-width="3"/>
<line x1="283.4" y1="226.9" x2="249.6" y2="246.4" opacity="1.0" stroke="rgb(0,0,0)"  stroke-width="3"/>
<line x1="249.6" y1="246.4" x2="249.6" y2="285.3" opacity="1.0" stroke="rgb(0,0,0)"  stroke-width="3"/>
<line x1="256.8" y1="252.4" x2="256.8" y2="279.3" opacity="1.0" stroke="rgb(0,0,0)"  stroke-width="3"/>
<line x1="211.8" y1="188.2" x2="237.9" y2="159.2" opacity="1.0" stroke="rgb(0,0,0)"  stroke-width="3"/>
<line x1="237.9" y1="159.2" x2="272.4" y2="181.0" opacity="1.0" stroke="rgb(0,0,0)"  stroke-width="3"/>
<line x1="283.4" y1="200.9" x2="283.4" y2="226.9" opacity="1.0" stroke="rgb(0,0,0)"  stroke-width="3"/>
<line x1="249.6" y1="246.4" x2="227.2" y2="233.4" opacity="1.0" stroke="rgb(0,0,0)"  stroke-width="3"/>
<line x1="104.2" y1="258.9" x2="130.2" y2="287.9" opacity="1.0" stroke="rgb(0,0,0)"  stroke-width="3"/>
<line x1="130.2" y1="287.9" x2="168.3" y2="279.8" opacity="1.0" stroke="rgb(0,0,0)"  stroke-width="3"/>
<line x1="134.6" y1="279.6" x2="160.9" y2="274.0" opacity="1.0" stroke="rgb(0,0,0)"  stroke-width="3"/>
<line x1="168.3" y1="279.8" x2="180.3" y2="242.7" opacity="1.0" stroke="rgb(0,0,0)"  stroke-width="3"/>
<line x1="154.3" y1="213.8" x2="116.2" y2="221.9" opacity="1.0" stroke="rgb(0,0,0)"  stroke-width="3"/>
<line x1="116.2" y1="221.9" x2="104.2" y2="258.9" opacity="1.0" stroke="rgb(0,0,0)"  stroke-width="3"/>
<line x1="121.2" y1="229.8" x2="112.9" y2="255.4" opacity="1.0" stroke="rgb(0,0,0)"  stroke-width="3"/>
<line x1="339.6" y1="233.4" x2="317.1" y2="246.4" opacity="1.0" stroke="rgb(0,0,0)"  stroke-width="3"/>
<line x1="294.4" y1="181.0" x2="328.8" y2="159.2" opacity="1.0" stroke="rgb(0,0,0)"  stroke-width="3"/>
<line x1="328.8" y1="159.2" x2="354.9" y2="188.2" opacity="1.0" stroke="rgb(0,0,0)"  stroke-width="3"/>
<line x1="173.8" y1="180.1" x2="161.7" y2="143.0" opacity="1.0" stroke="rgb(0,0,0)"  stroke-width="3"/>
<line x1="161.7" y1="143.0" x2="187.8" y2="114.1" opacity="1.0" stroke="rgb(0,0,0)"  stroke-width="3"/>
<line x1="171.1" y1="143.4" x2="189.1" y2="123.4" opacity="1.0" stroke="rgb(0,0,0)"  stroke-width="3"/>
<line x1="187.8" y1="114.1" x2="225.9" y2="122.2" opacity="1.0" stroke="rgb(0,0,0)"  stroke-width="3"/>
<line x1="225.9" y1="122.2" x2="237.9" y2="159.2" opacity="1.0" stroke="rgb(0,0,0)"  stroke-width="3"/>
<line x1="220.9" y1="130.1" x2="229.2" y2="155.7" opacity="1.0" stroke="rgb(0,0,0)"  stroke-width="3"/>
<line x1="379.0" y1="114.1" x2="340.9" y2="122.2" opacity="1.0" stroke="rgb(0,0,0)"  stroke-width="3"/>
<line x1="340.9" y1="122.2" x2="328.8" y2="159.2" opacity="1.0" stroke="rgb(0,0,0)"  stroke-width="3"/>
<line x1="345.9" y1="130.1" x2="337.5" y2="155.7" opacity="1.0" stroke="rgb(0,0,0)"  stroke-width="3"/>
<line x1="393.0" y1="180.1" x2="405.0" y2="143.0" opacity="1.0" stroke="rgb(0,0,0)"  stroke-width="3"/>
<line x1="405.0" y1="143.0" x2="379.0" y2="114.1" opacity="1.0" stroke="rgb(0,0,0)"  stroke-width="3"/>
<line x1="395.7" y1="143.4" x2="377.6" y2="123.4" opacity="1.0" stroke="rgb(0,0,0)"  stroke-width="3"/>
<line x1="326.8" y1="56.2" x2="364.9" y2="48.1" opacity="1.0" stroke="rgb(0,0,0)"  stroke-width="3"/>
<line x1="364.9" y1="48.1" x2="391.0" y2="77.0" opacity="1.0" stroke="rgb(0,0,0)"  stroke-width="3"/>
<line x1="363.6" y1="57.4" x2="381.6" y2="77.4" opacity="1.0" stroke="rgb(0,0,0)"  stroke-width="3"/>
<line x1="391.0" y1="77.0" x2="379.0" y2="114.1" opacity="1.0" stroke="rgb(0,0,0)"  stroke-width="3"/>
<line x1="340.9" y1="122.2" x2="314.8" y2="93.2" opacity="1.0" stroke="rgb(0,0,0)"  stroke-width="3"/>
<line x1="314.8" y1="93.2" x2="326.8" y2="56.2" opacity="1.0" stroke="rgb(0,0,0)"  stroke-width="3"/>
<line x1="323.5" y1="89.8" x2="331.8" y2="64.1" opacity="1.0" stroke="rgb(0,0,0)"  stroke-width="3"/>
<line x1="158.8" y1="392.6" x2="154.4" y2="354.0" opacity="1.0" stroke="rgb(0,0,0)"  stroke-width="3"/>
<line x1="151.0" y1="387.5" x2="147.9" y2="360.7" opacity="1.0" stroke="rgb(0,0,0)"  stroke-width="3"/>
<line x1="154.4" y1="354.0" x2="118.6" y2="338.5" opacity="1.0" stroke="rgb(0,0,0)"  stroke-width="3"/>
<line x1="118.6" y1="338.5" x2="87.3" y2="361.7" opacity="1.0" stroke="rgb(0,0,0)"  stroke-width="3"/>
<line x1="118.1" y1="347.9" x2="96.5" y2="363.9" opacity="1.0" stroke="rgb(0,0,0)"  stroke-width="3"/>
<line x1="87.3" y1="361.7" x2="91.8" y2="400.4" opacity="1.0" stroke="rgb(0,0,0)"  stroke-width="3"/>
<line x1="91.8" y1="400.4" x2="127.6" y2="415.9" opacity="1.0" stroke="rgb(0,0,0)"  stroke-width="3"/>
<line x1="100.2" y1="396.2" x2="124.9" y2="406.9" opacity="1.0" stroke="rgb(0,0,0)"  stroke-width="3"/>
<line x1="127.6" y1="415.9" x2="158.8" y2="392.6" opacity="1.0" stroke="rgb(0,0,0)"  stroke-width="3"/>
<line x1="290.9" y1="357.2" x2="257.2" y2="337.7" opacity="1.0" stroke="rgb(0,0,0)"  stroke-width="3"/>
<line x1="282.1" y1="360.4" x2="258.8" y2="347.0" opacity="1.0" stroke="rgb(0,0,0)"  stroke-width="3"/>
<line x1="257.2" y1="337.7" x2="223.5" y2="357.2" opacity="1.0" stroke="rgb(0,0,0)"  stroke-width="3"/>
<line x1="223.5" y1="357.2" x2="223.5" y2="396.1" opacity="1.0" stroke="rgb(0,0,0)"  stroke-width="3"/>
<line x1="230.7" y1="363.2" x2="230.7" y2="390.1" opacity="1.0" stroke="rgb(0,0,0)"  stroke-width="3"/>
<line x1="223.5" y1="396.1" x2="257.2" y2="415.6" opacity="1.0" stroke="rgb(0,0,0)"  stroke-width="3"/>
<line x1="257.2" y1="415.6" x2="290.9" y2="396.1" opacity="1.0" stroke="rgb(0,0,0)"  stroke-width="3"/>
<line x1="258.8" y1="406.4" x2="282.1" y2="392.9" opacity="1.0" stroke="rgb(0,0,0)"  stroke-width="3"/>
<line x1="290.9" y1="396.1" x2="290.9" y2="357.2" opacity="1.0" stroke="rgb(0,0,0)"  stroke-width="3"/>
<line x1="372.4" y1="308.7" x2="384.4" y2="345.7" opacity="1.0" stroke="rgb(0,0,0)"  stroke-width="3"/>
<line x1="384.4" y1="345.7" x2="422.5" y2="353.8" opacity="1.0" stroke="rgb(0,0,0)"  stroke-width="3"/>
<line x1="391.8" y1="339.9" x2="418.1" y2="345.5" opacity="1.0" stroke="rgb(0,0,0)"  stroke-width="3"/>
<line x1="422.5" y1="353.8" x2="448.6" y2="324.9" opacity="1.0" stroke="rgb(0,0,0)"  stroke-width="3"/>
<line x1="448.6" y1="324.9" x2="436.5" y2="287.9" opacity="1.0" stroke="rgb(0,0,0)"  stroke-width="3"/>
<line x1="439.9" y1="321.4" x2="431.5" y2="295.8" opacity="1.0" stroke="rgb(0,0,0)"  stroke-width="3"/>
<line x1="436.5" y1="287.9" x2="398.4" y2="279.8" opacity="1.0" stroke="rgb(0,0,0)"  stroke-width="3"/>
<line x1="398.4" y1="279.8" x2="372.4" y2="308.7" opacity="1.0" stroke="rgb(0,0,0)"  stroke-width="3"/>
<line x1="399.8" y1="289.0" x2="381.7" y2="309.1" opacity="1.0" stroke="rgb(0,0,0)"  stroke-width="3"/>
<line x1="462.6" y1="258.9" x2="500.7" y2="267.0" opacity="1.0" stroke="rgb(0,0,0)"  stroke-width="3"/>
<line x1="500.7" y1="267.0" x2="526.7" y2="238.1" opacity="1.0" stroke="rgb(0,0,0)"  stroke-width="3"/>
<line x1="499.3" y1="257.7" x2="517.4" y2="237.7" opacity="1.0" stroke="rgb(0,0,0)"  stroke-width="3"/>
<line x1="526.7" y1="238.1" x2="514.7" y2="201.0" opacity="1.0" stroke="rgb(0,0,0)"  stroke-width="3"/>
<line x1="514.7" y1="201.0" x2="476.6" y2="192.9" opacity="1.0" stroke="rgb(0,0,0)"  stroke-width="3"/>
<line x1="507.3" y1="206.8" x2="481.0" y2="201.2" opacity="1.0" stroke="rgb(0,0,0)"  stroke-width="3"/>
<line x1="476.6" y1="192.9" x2="450.6" y2="221.9" opacity="1.0" stroke="rgb(0,0,0)"  stroke-width="3"/>
<line x1="450.6" y1="221.9" x2="462.6" y2="258.9" opacity="1.0" stroke="rgb(0,0,0)"  stroke-width="3"/>
<line x1="459.3" y1="225.4" x2="467.6" y2="251.0" opacity="1.0" stroke="rgb(0,0,0)"  stroke-width="3"/>
<line x1="168.3" y1="279.8" x2="189.8" y2="337.7" opacity="1.0" stroke="rgb(0,0,0)"  stroke-width="3"/>
<line x1="189.8" y1="337.7" x2="249.6" y2="285.3" opacity="1.0" stroke="rgb(0,0,0)"  stroke-width="3"/>
<line x1="189.8" y1="337.7" x2="154.4" y2="354.0" opacity="1.0" stroke="rgb(0,0,0)"  stroke-width="3"/>
<line x1="158.8" y1="392.6" x2="182.7" y2="402.9" opacity="1.0" stroke="rgb(0,0,0)"  stroke-width="3"/>
<line x1="206.6" y1="403.1" x2="223.5" y2="396.1" opacity="1.0" stroke="rgb(0,0,0)"  stroke-width="3"/>
<line x1="223.5" y1="357.2" x2="189.8" y2="337.7" opacity="1.0" stroke="rgb(0,0,0)"  stroke-width="3"/>
<text x="277.370152" y="195.939950" fill="rgb(255,181,181)" stroke-width="0" font-weight="bold" font-size="25.92" >B</text>
<text x="188.589765" y="416.089044" fill="rgb(255,12,12)" stroke-width="0" font-weight="bold" font-size="25.92" >O</text>
<text x="209.916472" y="234.884348" fill="rgb(12,12,255)" stroke-width="0" font-weight="bold" font-size="25.92" >N</text>
<text x="344.823832" y="234.884300" fill="rgb(12,12,255)" stroke-width="0" font-weight="bold" font-size="25.92" >N</text>
</svg>
</g>
</svg>
