<?xml version="1.0"?>
<svg version="1.1" id="topsvg"
xmlns="http://www.w3.org/2000/svg" xmlns:xlink="http://www.w3.org/1999/xlink"
xmlns:cml="http://www.xml-cml.org/schema" x="0" y="0" width="200px" height="200px" viewBox="0 0 100 100">
<title>GD275.sdf - Open Babel Depiction</title>
<rect x="0" y="0" width="100" height="100" fill="white"/>
<g transform="translate(0,0)">
<svg width="100" height="100" x="0" y="0" viewBox="0 0 592.894 642.143"
font-family="sans-serif" stroke="rgb(0,0,0)" stroke-width="3"  stroke-linecap="round">
<line x1="412.9" y1="293.3" x2="428.6" y2="330.1" opacity="1.0" stroke="rgb(0,0,0)"  stroke-width="3"/>
<line x1="473.2" y1="255.3" x2="433.3" y2="258.9" opacity="1.0" stroke="rgb(0,0,0)"  stroke-width="3"/>
<line x1="301.9" y1="361.6" x2="301.9" y2="401.6" opacity="1.0" stroke="rgb(0,0,0)"  stroke-width="3"/>
<line x1="236.1" y1="160.3" x2="236.1" y2="120.3" opacity="1.0" stroke="rgb(0,0,0)"  stroke-width="3"/>
<line x1="74.7" y1="283.3" x2="40.0" y2="263.3" opacity="1.0" stroke="rgb(0,0,0)"  stroke-width="3"/>
<line x1="74.7" y1="283.3" x2="74.7" y2="243.3" opacity="1.0" stroke="rgb(0,0,0)"  stroke-width="3"/>
<line x1="112.4" y1="353.1" x2="112.4" y2="393.2" opacity="1.0" stroke="rgb(0,0,0)"  stroke-width="3"/>
<line x1="112.4" y1="353.1" x2="147.1" y2="373.2" opacity="1.0" stroke="rgb(0,0,0)"  stroke-width="3"/>
<line x1="301.9" y1="481.7" x2="301.9" y2="521.8" opacity="1.0" stroke="rgb(0,0,0)"  stroke-width="3"/>
<line x1="175.1" y1="250.8" x2="200.5" y2="219.8" opacity="1.0" stroke="rgb(0,0,0)"  stroke-width="3"/>
<line x1="200.5" y1="219.8" x2="234.8" y2="240.4" opacity="1.0" stroke="rgb(0,0,0)"  stroke-width="3"/>
<line x1="234.8" y1="240.4" x2="234.5" y2="267.4" opacity="1.0" stroke="rgb(0,0,0)"  stroke-width="3"/>
<line x1="221.5" y1="282.1" x2="194.7" y2="285.7" opacity="1.0" stroke="rgb(0,0,0)"  stroke-width="3"/>
<line x1="194.7" y1="285.7" x2="175.1" y2="250.8" opacity="1.0" stroke="rgb(0,0,0)"  stroke-width="3"/>
<line x1="198.0" y1="277.0" x2="184.4" y2="252.5" opacity="1.0" stroke="rgb(0,0,0)"  stroke-width="3"/>
<line x1="433.3" y1="258.9" x2="407.0" y2="228.8" opacity="1.0" stroke="rgb(0,0,0)"  stroke-width="3"/>
<line x1="407.0" y1="228.8" x2="370.2" y2="244.6" opacity="1.0" stroke="rgb(0,0,0)"  stroke-width="3"/>
<line x1="404.3" y1="237.8" x2="378.5" y2="248.8" opacity="1.0" stroke="rgb(0,0,0)"  stroke-width="3"/>
<line x1="370.2" y1="244.6" x2="372.6" y2="271.5" opacity="1.0" stroke="rgb(0,0,0)"  stroke-width="3"/>
<line x1="386.5" y1="287.3" x2="412.9" y2="293.3" opacity="1.0" stroke="rgb(0,0,0)"  stroke-width="3"/>
<line x1="412.9" y1="293.3" x2="433.3" y2="258.9" opacity="1.0" stroke="rgb(0,0,0)"  stroke-width="3"/>
<line x1="409.7" y1="284.5" x2="424.1" y2="260.4" opacity="1.0" stroke="rgb(0,0,0)"  stroke-width="3"/>
<line x1="267.8" y1="340.7" x2="301.9" y2="361.6" opacity="1.0" stroke="rgb(0,0,0)"  stroke-width="3"/>
<line x1="301.9" y1="361.6" x2="337.0" y2="342.5" opacity="1.0" stroke="rgb(0,0,0)"  stroke-width="3"/>
<line x1="303.7" y1="352.4" x2="328.3" y2="339.1" opacity="1.0" stroke="rgb(0,0,0)"  stroke-width="3"/>
<line x1="337.0" y1="342.5" x2="338.1" y2="302.5" opacity="1.0" stroke="rgb(0,0,0)"  stroke-width="3"/>
<line x1="338.1" y1="302.5" x2="304.0" y2="281.6" opacity="1.0" stroke="rgb(0,0,0)"  stroke-width="3"/>
<line x1="329.3" y1="305.5" x2="305.4" y2="290.9" opacity="1.0" stroke="rgb(0,0,0)"  stroke-width="3"/>
<line x1="304.0" y1="281.6" x2="268.8" y2="300.7" opacity="1.0" stroke="rgb(0,0,0)"  stroke-width="3"/>
<line x1="268.8" y1="300.7" x2="267.8" y2="340.7" opacity="1.0" stroke="rgb(0,0,0)"  stroke-width="3"/>
<line x1="275.9" y1="306.9" x2="275.1" y2="334.9" opacity="1.0" stroke="rgb(0,0,0)"  stroke-width="3"/>
<line x1="304.0" y1="254.6" x2="304.0" y2="281.6" opacity="1.0" stroke="rgb(0,0,0)"  stroke-width="3"/>
<line x1="268.8" y1="300.7" x2="245.5" y2="287.0" opacity="1.0" stroke="rgb(0,0,0)"  stroke-width="3"/>
<line x1="234.8" y1="240.4" x2="269.8" y2="220.9" opacity="1.0" stroke="rgb(0,0,0)"  stroke-width="3"/>
<line x1="243.5" y1="243.7" x2="268.0" y2="230.1" opacity="1.0" stroke="rgb(0,0,0)"  stroke-width="3"/>
<line x1="269.8" y1="220.9" x2="292.9" y2="234.9" opacity="1.0" stroke="rgb(0,0,0)"  stroke-width="3"/>
<line x1="370.2" y1="244.6" x2="338.1" y2="220.6" opacity="1.0" stroke="rgb(0,0,0)"  stroke-width="3"/>
<line x1="338.1" y1="220.6" x2="315.1" y2="234.8" opacity="1.0" stroke="rgb(0,0,0)"  stroke-width="3"/>
<line x1="338.1" y1="302.5" x2="362.2" y2="290.3" opacity="1.0" stroke="rgb(0,0,0)"  stroke-width="3"/>
<line x1="134.2" y1="319.6" x2="174.2" y2="320.1" opacity="1.0" stroke="rgb(0,0,0)"  stroke-width="3"/>
<line x1="140.3" y1="312.5" x2="168.3" y2="312.8" opacity="1.0" stroke="rgb(0,0,0)"  stroke-width="3"/>
<line x1="174.2" y1="320.1" x2="194.7" y2="285.7" opacity="1.0" stroke="rgb(0,0,0)"  stroke-width="3"/>
<line x1="175.1" y1="250.8" x2="135.1" y2="250.3" opacity="1.0" stroke="rgb(0,0,0)"  stroke-width="3"/>
<line x1="135.1" y1="250.3" x2="114.6" y2="284.6" opacity="1.0" stroke="rgb(0,0,0)"  stroke-width="3"/>
<line x1="138.2" y1="259.1" x2="123.9" y2="283.2" opacity="1.0" stroke="rgb(0,0,0)"  stroke-width="3"/>
<line x1="114.6" y1="284.6" x2="134.2" y2="319.6" opacity="1.0" stroke="rgb(0,0,0)"  stroke-width="3"/>
<line x1="379.6" y1="165.1" x2="342.9" y2="180.9" opacity="1.0" stroke="rgb(0,0,0)"  stroke-width="3"/>
<line x1="342.9" y1="180.9" x2="338.1" y2="220.6" opacity="1.0" stroke="rgb(0,0,0)"  stroke-width="3"/>
<line x1="349.3" y1="187.7" x2="346.0" y2="215.5" opacity="1.0" stroke="rgb(0,0,0)"  stroke-width="3"/>
<line x1="407.0" y1="228.8" x2="411.7" y2="189.1" opacity="1.0" stroke="rgb(0,0,0)"  stroke-width="3"/>
<line x1="411.7" y1="189.1" x2="379.6" y2="165.1" opacity="1.0" stroke="rgb(0,0,0)"  stroke-width="3"/>
<line x1="402.6" y1="191.3" x2="380.1" y2="174.5" opacity="1.0" stroke="rgb(0,0,0)"  stroke-width="3"/>
<line x1="200.5" y1="219.8" x2="201.1" y2="179.8" opacity="1.0" stroke="rgb(0,0,0)"  stroke-width="3"/>
<line x1="207.8" y1="213.9" x2="208.2" y2="185.9" opacity="1.0" stroke="rgb(0,0,0)"  stroke-width="3"/>
<line x1="201.1" y1="179.8" x2="236.1" y2="160.3" opacity="1.0" stroke="rgb(0,0,0)"  stroke-width="3"/>
<line x1="236.1" y1="160.3" x2="270.4" y2="180.9" opacity="1.0" stroke="rgb(0,0,0)"  stroke-width="3"/>
<line x1="237.5" y1="169.6" x2="261.5" y2="184.0" opacity="1.0" stroke="rgb(0,0,0)"  stroke-width="3"/>
<line x1="270.4" y1="180.9" x2="269.8" y2="220.9" opacity="1.0" stroke="rgb(0,0,0)"  stroke-width="3"/>
<line x1="315.5" y1="117.2" x2="352.3" y2="101.4" opacity="1.0" stroke="rgb(0,0,0)"  stroke-width="3"/>
<line x1="352.3" y1="101.4" x2="384.4" y2="125.4" opacity="1.0" stroke="rgb(0,0,0)"  stroke-width="3"/>
<line x1="352.8" y1="110.8" x2="375.2" y2="127.6" opacity="1.0" stroke="rgb(0,0,0)"  stroke-width="3"/>
<line x1="384.4" y1="125.4" x2="379.6" y2="165.1" opacity="1.0" stroke="rgb(0,0,0)"  stroke-width="3"/>
<line x1="342.9" y1="180.9" x2="310.8" y2="156.9" opacity="1.0" stroke="rgb(0,0,0)"  stroke-width="3"/>
<line x1="310.8" y1="156.9" x2="315.5" y2="117.2" opacity="1.0" stroke="rgb(0,0,0)"  stroke-width="3"/>
<line x1="318.7" y1="151.8" x2="322.0" y2="124.0" opacity="1.0" stroke="rgb(0,0,0)"  stroke-width="3"/>
<line x1="267.2" y1="421.6" x2="267.2" y2="461.7" opacity="1.0" stroke="rgb(0,0,0)"  stroke-width="3"/>
<line x1="267.2" y1="461.7" x2="301.9" y2="481.7" opacity="1.0" stroke="rgb(0,0,0)"  stroke-width="3"/>
<line x1="276.0" y1="458.4" x2="300.3" y2="472.4" opacity="1.0" stroke="rgb(0,0,0)"  stroke-width="3"/>
<line x1="301.9" y1="481.7" x2="336.5" y2="461.7" opacity="1.0" stroke="rgb(0,0,0)"  stroke-width="3"/>
<line x1="336.5" y1="461.7" x2="336.5" y2="421.6" opacity="1.0" stroke="rgb(0,0,0)"  stroke-width="3"/>
<line x1="329.3" y1="455.7" x2="329.3" y2="427.6" opacity="1.0" stroke="rgb(0,0,0)"  stroke-width="3"/>
<line x1="336.5" y1="421.6" x2="301.9" y2="401.6" opacity="1.0" stroke="rgb(0,0,0)"  stroke-width="3"/>
<line x1="301.9" y1="401.6" x2="267.2" y2="421.6" opacity="1.0" stroke="rgb(0,0,0)"  stroke-width="3"/>
<line x1="300.3" y1="410.9" x2="276.0" y2="424.9" opacity="1.0" stroke="rgb(0,0,0)"  stroke-width="3"/>
<line x1="405.3" y1="362.6" x2="421.8" y2="399.1" opacity="1.0" stroke="rgb(0,0,0)"  stroke-width="3"/>
<line x1="421.8" y1="399.1" x2="461.4" y2="404.5" opacity="1.0" stroke="rgb(0,0,0)"  stroke-width="3"/>
<line x1="428.7" y1="392.7" x2="456.4" y2="396.6" opacity="1.0" stroke="rgb(0,0,0)"  stroke-width="3"/>
<line x1="461.4" y1="404.5" x2="484.5" y2="373.6" opacity="1.0" stroke="rgb(0,0,0)"  stroke-width="3"/>
<line x1="484.5" y1="373.6" x2="468.2" y2="335.6" opacity="1.0" stroke="rgb(0,0,0)"  stroke-width="3"/>
<line x1="475.5" y1="370.9" x2="464.0" y2="343.9" opacity="1.0" stroke="rgb(0,0,0)"  stroke-width="3"/>
<line x1="468.2" y1="335.6" x2="428.6" y2="330.1" opacity="1.0" stroke="rgb(0,0,0)"  stroke-width="3"/>
<line x1="428.6" y1="330.1" x2="405.3" y2="362.6" opacity="1.0" stroke="rgb(0,0,0)"  stroke-width="3"/>
<line x1="431.0" y1="339.2" x2="414.6" y2="361.9" opacity="1.0" stroke="rgb(0,0,0)"  stroke-width="3"/>
<line x1="497.2" y1="287.3" x2="537.1" y2="283.7" opacity="1.0" stroke="rgb(0,0,0)"  stroke-width="3"/>
<line x1="537.1" y1="283.7" x2="552.9" y2="248.0" opacity="1.0" stroke="rgb(0,0,0)"  stroke-width="3"/>
<line x1="532.9" y1="275.2" x2="543.9" y2="250.6" opacity="1.0" stroke="rgb(0,0,0)"  stroke-width="3"/>
<line x1="552.9" y1="248.0" x2="530.9" y2="215.8" opacity="1.0" stroke="rgb(0,0,0)"  stroke-width="3"/>
<line x1="530.9" y1="215.8" x2="491.0" y2="219.4" opacity="1.0" stroke="rgb(0,0,0)"  stroke-width="3"/>
<line x1="525.6" y1="223.5" x2="497.7" y2="226.1" opacity="1.0" stroke="rgb(0,0,0)"  stroke-width="3"/>
<line x1="491.0" y1="219.4" x2="473.2" y2="255.3" opacity="1.0" stroke="rgb(0,0,0)"  stroke-width="3"/>
<line x1="473.2" y1="255.3" x2="497.2" y2="287.3" opacity="1.0" stroke="rgb(0,0,0)"  stroke-width="3"/>
<line x1="482.5" y1="255.8" x2="499.4" y2="278.2" opacity="1.0" stroke="rgb(0,0,0)"  stroke-width="3"/>
<line x1="267.1" y1="541.9" x2="267.1" y2="582.1" opacity="1.0" stroke="rgb(0,0,0)"  stroke-width="3"/>
<line x1="267.1" y1="582.1" x2="301.9" y2="602.1" opacity="1.0" stroke="rgb(0,0,0)"  stroke-width="3"/>
<line x1="275.9" y1="578.8" x2="300.3" y2="592.9" opacity="1.0" stroke="rgb(0,0,0)"  stroke-width="3"/>
<line x1="301.9" y1="602.1" x2="336.6" y2="582.1" opacity="1.0" stroke="rgb(0,0,0)"  stroke-width="3"/>
<line x1="336.6" y1="582.1" x2="336.6" y2="541.9" opacity="1.0" stroke="rgb(0,0,0)"  stroke-width="3"/>
<line x1="329.4" y1="576.1" x2="329.4" y2="547.9" opacity="1.0" stroke="rgb(0,0,0)"  stroke-width="3"/>
<line x1="336.6" y1="541.9" x2="301.9" y2="521.8" opacity="1.0" stroke="rgb(0,0,0)"  stroke-width="3"/>
<line x1="301.9" y1="521.8" x2="267.1" y2="541.9" opacity="1.0" stroke="rgb(0,0,0)"  stroke-width="3"/>
<line x1="300.3" y1="531.1" x2="275.9" y2="545.1" opacity="1.0" stroke="rgb(0,0,0)"  stroke-width="3"/>
<line x1="270.8" y1="100.2" x2="270.8" y2="60.1" opacity="1.0" stroke="rgb(0,0,0)"  stroke-width="3"/>
<line x1="270.8" y1="60.1" x2="236.1" y2="40.0" opacity="1.0" stroke="rgb(0,0,0)"  stroke-width="3"/>
<line x1="262.0" y1="63.3" x2="237.6" y2="49.2" opacity="1.0" stroke="rgb(0,0,0)"  stroke-width="3"/>
<line x1="236.1" y1="40.0" x2="201.3" y2="60.1" opacity="1.0" stroke="rgb(0,0,0)"  stroke-width="3"/>
<line x1="201.3" y1="60.1" x2="201.3" y2="100.2" opacity="1.0" stroke="rgb(0,0,0)"  stroke-width="3"/>
<line x1="208.5" y1="66.1" x2="208.5" y2="94.2" opacity="1.0" stroke="rgb(0,0,0)"  stroke-width="3"/>
<line x1="201.3" y1="100.2" x2="236.1" y2="120.3" opacity="1.0" stroke="rgb(0,0,0)"  stroke-width="3"/>
<line x1="236.1" y1="120.3" x2="270.8" y2="100.2" opacity="1.0" stroke="rgb(0,0,0)"  stroke-width="3"/>
<line x1="237.6" y1="111.1" x2="262.0" y2="97.0" opacity="1.0" stroke="rgb(0,0,0)"  stroke-width="3"/>
<line x1="72.4" y1="351.8" x2="112.4" y2="353.1" opacity="1.0" stroke="rgb(0,0,0)"  stroke-width="3"/>
<line x1="112.4" y1="353.1" x2="134.2" y2="319.6" opacity="1.0" stroke="rgb(0,0,0)"  stroke-width="3"/>
<line x1="114.6" y1="284.6" x2="74.7" y2="283.3" opacity="1.0" stroke="rgb(0,0,0)"  stroke-width="3"/>
<line x1="74.7" y1="283.3" x2="54.2" y2="316.9" opacity="1.0" stroke="rgb(0,0,0)"  stroke-width="3"/>
<line x1="54.2" y1="316.9" x2="72.4" y2="351.8" opacity="1.0" stroke="rgb(0,0,0)"  stroke-width="3"/>
<text x="228.339309" y="288.382777" fill="rgb(12,12,255)" stroke-width="0" font-weight="bold" font-size="25.92" >N</text>
<text x="367.826546" y="292.449478" fill="rgb(12,12,255)" stroke-width="0" font-weight="bold" font-size="25.92" >N</text>
<text x="298.031159" y="249.580114" fill="rgb(255,181,181)" stroke-width="0" font-weight="bold" font-size="25.92" >B</text>
</svg>
</g>
</svg>
