<?xml version="1.0"?>
<svg version="1.1" id="topsvg"
xmlns="http://www.w3.org/2000/svg" xmlns:xlink="http://www.w3.org/1999/xlink"
xmlns:cml="http://www.xml-cml.org/schema" x="0" y="0" width="200px" height="200px" viewBox="0 0 100 100">
<title>GD277.sdf - Open Babel Depiction</title>
<rect x="0" y="0" width="100" height="100" fill="white"/>
<g transform="translate(0,0)">
<svg width="100" height="100" x="0" y="0" viewBox="0 0 536.796 670.058"
font-family="sans-serif" stroke="rgb(0,0,0)" stroke-width="3"  stroke-linecap="round">
<line x1="159.2" y1="504.5" x2="143.5" y2="539.9" opacity="1.0" stroke="rgb(0,0,0)"  stroke-width="3"/>
<line x1="197.2" y1="496.4" x2="215.6" y2="553.2" opacity="1.0" stroke="rgb(0,0,0)"  stroke-width="3"/>
<line x1="339.6" y1="496.4" x2="321.2" y2="553.2" opacity="1.0" stroke="rgb(0,0,0)"  stroke-width="3"/>
<line x1="377.6" y1="504.5" x2="393.3" y2="539.9" opacity="1.0" stroke="rgb(0,0,0)"  stroke-width="3"/>
<line x1="351.7" y1="261.1" x2="402.9" y2="204.2" opacity="1.0" stroke="rgb(0,0,0)"  stroke-width="3"/>
<line x1="185.1" y1="261.1" x2="159.2" y2="232.3" opacity="1.0" stroke="rgb(0,0,0)"  stroke-width="3"/>
<line x1="159.2" y1="232.3" x2="121.7" y2="242.3" opacity="1.0" stroke="rgb(0,0,0)"  stroke-width="3"/>
<line x1="159.2" y1="232.3" x2="131.7" y2="204.8" opacity="1.0" stroke="rgb(0,0,0)"  stroke-width="3"/>
<line x1="159.2" y1="232.3" x2="171.2" y2="195.4" opacity="1.0" stroke="rgb(0,0,0)"  stroke-width="3"/>
<line x1="390.9" y1="167.4" x2="352.9" y2="159.3" opacity="1.0" stroke="rgb(0,0,0)"  stroke-width="3"/>
<line x1="303.0" y1="114.3" x2="291.0" y2="77.5" opacity="1.0" stroke="rgb(0,0,0)"  stroke-width="3"/>
<line x1="291.0" y1="77.5" x2="318.5" y2="50.0" opacity="1.0" stroke="rgb(0,0,0)"  stroke-width="3"/>
<line x1="291.0" y1="77.5" x2="281.0" y2="40.0" opacity="1.0" stroke="rgb(0,0,0)"  stroke-width="3"/>
<line x1="291.0" y1="77.5" x2="253.6" y2="67.4" opacity="1.0" stroke="rgb(0,0,0)"  stroke-width="3"/>
<line x1="289.0" y1="180.1" x2="263.1" y2="208.9" opacity="1.0" stroke="rgb(0,0,0)"  stroke-width="3"/>
<line x1="263.1" y1="208.9" x2="273.1" y2="246.3" opacity="1.0" stroke="rgb(0,0,0)"  stroke-width="3"/>
<line x1="263.1" y1="208.9" x2="235.7" y2="236.3" opacity="1.0" stroke="rgb(0,0,0)"  stroke-width="3"/>
<line x1="263.1" y1="208.9" x2="225.2" y2="200.8" opacity="1.0" stroke="rgb(0,0,0)"  stroke-width="3"/>
<line x1="287.8" y1="281.8" x2="299.8" y2="318.7" opacity="1.0" stroke="rgb(0,0,0)"  stroke-width="3"/>
<line x1="282.8" y1="289.8" x2="291.1" y2="315.2" opacity="1.0" stroke="rgb(0,0,0)"  stroke-width="3"/>
<line x1="299.8" y1="318.7" x2="278.9" y2="333.9" opacity="1.0" stroke="rgb(0,0,0)"  stroke-width="3"/>
<line x1="257.9" y1="333.9" x2="237.0" y2="318.7" opacity="1.0" stroke="rgb(0,0,0)"  stroke-width="3"/>
<line x1="237.0" y1="318.7" x2="249.0" y2="281.8" opacity="1.0" stroke="rgb(0,0,0)"  stroke-width="3"/>
<line x1="245.7" y1="315.2" x2="254.0" y2="289.8" opacity="1.0" stroke="rgb(0,0,0)"  stroke-width="3"/>
<line x1="249.0" y1="281.8" x2="287.8" y2="281.8" opacity="1.0" stroke="rgb(0,0,0)"  stroke-width="3"/>
<line x1="159.2" y1="504.5" x2="139.8" y2="470.9" opacity="1.0" stroke="rgb(0,0,0)"  stroke-width="3"/>
<line x1="139.8" y1="470.9" x2="165.8" y2="442.1" opacity="1.0" stroke="rgb(0,0,0)"  stroke-width="3"/>
<line x1="149.2" y1="471.3" x2="167.1" y2="451.4" opacity="1.0" stroke="rgb(0,0,0)"  stroke-width="3"/>
<line x1="165.8" y1="442.1" x2="189.3" y2="452.6" opacity="1.0" stroke="rgb(0,0,0)"  stroke-width="3"/>
<line x1="199.9" y1="470.8" x2="197.2" y2="496.4" opacity="1.0" stroke="rgb(0,0,0)"  stroke-width="3"/>
<line x1="197.2" y1="496.4" x2="159.2" y2="504.5" opacity="1.0" stroke="rgb(0,0,0)"  stroke-width="3"/>
<line x1="189.8" y1="490.6" x2="163.6" y2="496.2" opacity="1.0" stroke="rgb(0,0,0)"  stroke-width="3"/>
<line x1="339.6" y1="496.4" x2="377.6" y2="504.5" opacity="1.0" stroke="rgb(0,0,0)"  stroke-width="3"/>
<line x1="347.0" y1="490.6" x2="373.2" y2="496.2" opacity="1.0" stroke="rgb(0,0,0)"  stroke-width="3"/>
<line x1="377.6" y1="504.5" x2="397.0" y2="470.9" opacity="1.0" stroke="rgb(0,0,0)"  stroke-width="3"/>
<line x1="397.0" y1="470.9" x2="371.0" y2="442.1" opacity="1.0" stroke="rgb(0,0,0)"  stroke-width="3"/>
<line x1="387.6" y1="471.3" x2="369.7" y2="451.4" opacity="1.0" stroke="rgb(0,0,0)"  stroke-width="3"/>
<line x1="371.0" y1="442.1" x2="347.4" y2="452.6" opacity="1.0" stroke="rgb(0,0,0)"  stroke-width="3"/>
<line x1="336.9" y1="470.8" x2="339.6" y2="496.4" opacity="1.0" stroke="rgb(0,0,0)"  stroke-width="3"/>
<line x1="234.8" y1="438.5" x2="268.4" y2="457.9" opacity="1.0" stroke="rgb(0,0,0)"  stroke-width="3"/>
<line x1="268.4" y1="457.9" x2="302.0" y2="438.5" opacity="1.0" stroke="rgb(0,0,0)"  stroke-width="3"/>
<line x1="270.0" y1="448.6" x2="293.2" y2="435.2" opacity="1.0" stroke="rgb(0,0,0)"  stroke-width="3"/>
<line x1="302.0" y1="438.5" x2="302.0" y2="399.7" opacity="1.0" stroke="rgb(0,0,0)"  stroke-width="3"/>
<line x1="302.0" y1="399.7" x2="268.4" y2="380.3" opacity="1.0" stroke="rgb(0,0,0)"  stroke-width="3"/>
<line x1="293.2" y1="402.9" x2="270.0" y2="389.5" opacity="1.0" stroke="rgb(0,0,0)"  stroke-width="3"/>
<line x1="268.4" y1="380.3" x2="234.8" y2="399.7" opacity="1.0" stroke="rgb(0,0,0)"  stroke-width="3"/>
<line x1="234.8" y1="399.7" x2="234.8" y2="438.5" opacity="1.0" stroke="rgb(0,0,0)"  stroke-width="3"/>
<line x1="242.0" y1="405.7" x2="242.0" y2="432.5" opacity="1.0" stroke="rgb(0,0,0)"  stroke-width="3"/>
<line x1="268.4" y1="354.5" x2="268.4" y2="380.3" opacity="1.0" stroke="rgb(0,0,0)"  stroke-width="3"/>
<line x1="234.8" y1="399.7" x2="212.5" y2="386.8" opacity="1.0" stroke="rgb(0,0,0)"  stroke-width="3"/>
<line x1="200.7" y1="367.3" x2="199.1" y2="326.8" opacity="1.0" stroke="rgb(0,0,0)"  stroke-width="3"/>
<line x1="199.1" y1="326.8" x2="237.0" y2="318.7" opacity="1.0" stroke="rgb(0,0,0)"  stroke-width="3"/>
<line x1="446.9" y1="426.0" x2="420.9" y2="397.1" opacity="1.0" stroke="rgb(0,0,0)"  stroke-width="3"/>
<line x1="420.9" y1="397.1" x2="383.0" y2="405.2" opacity="1.0" stroke="rgb(0,0,0)"  stroke-width="3"/>
<line x1="416.6" y1="405.4" x2="390.4" y2="411.0" opacity="1.0" stroke="rgb(0,0,0)"  stroke-width="3"/>
<line x1="383.0" y1="405.2" x2="371.0" y2="442.1" opacity="1.0" stroke="rgb(0,0,0)"  stroke-width="3"/>
<line x1="397.0" y1="470.9" x2="434.9" y2="462.9" opacity="1.0" stroke="rgb(0,0,0)"  stroke-width="3"/>
<line x1="434.9" y1="462.9" x2="446.9" y2="426.0" opacity="1.0" stroke="rgb(0,0,0)"  stroke-width="3"/>
<line x1="429.9" y1="454.9" x2="438.2" y2="429.5" opacity="1.0" stroke="rgb(0,0,0)"  stroke-width="3"/>
<line x1="383.0" y1="405.2" x2="347.1" y2="386.4" opacity="1.0" stroke="rgb(0,0,0)"  stroke-width="3"/>
<line x1="324.3" y1="386.8" x2="302.0" y2="399.7" opacity="1.0" stroke="rgb(0,0,0)"  stroke-width="3"/>
<line x1="302.0" y1="438.5" x2="324.3" y2="451.4" opacity="1.0" stroke="rgb(0,0,0)"  stroke-width="3"/>
<line x1="351.7" y1="261.1" x2="363.7" y2="298.0" opacity="1.0" stroke="rgb(0,0,0)"  stroke-width="3"/>
<line x1="363.7" y1="298.0" x2="337.7" y2="326.8" opacity="1.0" stroke="rgb(0,0,0)"  stroke-width="3"/>
<line x1="354.3" y1="297.6" x2="336.4" y2="317.5" opacity="1.0" stroke="rgb(0,0,0)"  stroke-width="3"/>
<line x1="337.7" y1="326.8" x2="299.8" y2="318.7" opacity="1.0" stroke="rgb(0,0,0)"  stroke-width="3"/>
<line x1="287.8" y1="281.8" x2="313.7" y2="253.0" opacity="1.0" stroke="rgb(0,0,0)"  stroke-width="3"/>
<line x1="313.7" y1="253.0" x2="351.7" y2="261.1" opacity="1.0" stroke="rgb(0,0,0)"  stroke-width="3"/>
<line x1="318.1" y1="261.3" x2="344.3" y2="266.9" opacity="1.0" stroke="rgb(0,0,0)"  stroke-width="3"/>
<line x1="185.1" y1="261.1" x2="223.1" y2="253.0" opacity="1.0" stroke="rgb(0,0,0)"  stroke-width="3"/>
<line x1="192.5" y1="266.9" x2="218.7" y2="261.3" opacity="1.0" stroke="rgb(0,0,0)"  stroke-width="3"/>
<line x1="223.1" y1="253.0" x2="249.0" y2="281.8" opacity="1.0" stroke="rgb(0,0,0)"  stroke-width="3"/>
<line x1="199.1" y1="326.8" x2="173.1" y2="298.0" opacity="1.0" stroke="rgb(0,0,0)"  stroke-width="3"/>
<line x1="200.4" y1="317.5" x2="182.5" y2="297.6" opacity="1.0" stroke="rgb(0,0,0)"  stroke-width="3"/>
<line x1="173.1" y1="298.0" x2="185.1" y2="261.1" opacity="1.0" stroke="rgb(0,0,0)"  stroke-width="3"/>
<line x1="234.8" y1="438.5" x2="212.5" y2="451.4" opacity="1.0" stroke="rgb(0,0,0)"  stroke-width="3"/>
<line x1="165.8" y1="442.1" x2="153.8" y2="405.2" opacity="1.0" stroke="rgb(0,0,0)"  stroke-width="3"/>
<line x1="153.8" y1="405.2" x2="189.7" y2="386.4" opacity="1.0" stroke="rgb(0,0,0)"  stroke-width="3"/>
<line x1="336.1" y1="367.3" x2="337.7" y2="326.8" opacity="1.0" stroke="rgb(0,0,0)"  stroke-width="3"/>
<line x1="470.8" y1="352.2" x2="496.8" y2="381.0" opacity="1.0" stroke="rgb(0,0,0)"  stroke-width="3"/>
<line x1="496.8" y1="381.0" x2="484.8" y2="417.9" opacity="1.0" stroke="rgb(0,0,0)"  stroke-width="3"/>
<line x1="488.1" y1="384.5" x2="479.8" y2="410.0" opacity="1.0" stroke="rgb(0,0,0)"  stroke-width="3"/>
<line x1="484.8" y1="417.9" x2="446.9" y2="426.0" opacity="1.0" stroke="rgb(0,0,0)"  stroke-width="3"/>
<line x1="420.9" y1="397.1" x2="432.9" y2="360.3" opacity="1.0" stroke="rgb(0,0,0)"  stroke-width="3"/>
<line x1="432.9" y1="360.3" x2="470.8" y2="352.2" opacity="1.0" stroke="rgb(0,0,0)"  stroke-width="3"/>
<line x1="440.3" y1="366.1" x2="466.5" y2="360.5" opacity="1.0" stroke="rgb(0,0,0)"  stroke-width="3"/>
<line x1="139.8" y1="470.9" x2="101.9" y2="462.9" opacity="1.0" stroke="rgb(0,0,0)"  stroke-width="3"/>
<line x1="101.9" y1="462.9" x2="89.9" y2="426.0" opacity="1.0" stroke="rgb(0,0,0)"  stroke-width="3"/>
<line x1="106.9" y1="454.9" x2="98.6" y2="429.5" opacity="1.0" stroke="rgb(0,0,0)"  stroke-width="3"/>
<line x1="89.9" y1="426.0" x2="115.9" y2="397.1" opacity="1.0" stroke="rgb(0,0,0)"  stroke-width="3"/>
<line x1="115.9" y1="397.1" x2="153.8" y2="405.2" opacity="1.0" stroke="rgb(0,0,0)"  stroke-width="3"/>
<line x1="120.2" y1="405.4" x2="146.4" y2="411.0" opacity="1.0" stroke="rgb(0,0,0)"  stroke-width="3"/>
<line x1="40.0" y1="381.0" x2="66.0" y2="352.2" opacity="1.0" stroke="rgb(0,0,0)"  stroke-width="3"/>
<line x1="66.0" y1="352.2" x2="103.9" y2="360.3" opacity="1.0" stroke="rgb(0,0,0)"  stroke-width="3"/>
<line x1="70.3" y1="360.5" x2="96.5" y2="366.1" opacity="1.0" stroke="rgb(0,0,0)"  stroke-width="3"/>
<line x1="103.9" y1="360.3" x2="115.9" y2="397.1" opacity="1.0" stroke="rgb(0,0,0)"  stroke-width="3"/>
<line x1="89.9" y1="426.0" x2="52.0" y2="417.9" opacity="1.0" stroke="rgb(0,0,0)"  stroke-width="3"/>
<line x1="52.0" y1="417.9" x2="40.0" y2="381.0" opacity="1.0" stroke="rgb(0,0,0)"  stroke-width="3"/>
<line x1="57.0" y1="410.0" x2="48.7" y2="384.5" opacity="1.0" stroke="rgb(0,0,0)"  stroke-width="3"/>
<line x1="370.5" y1="571.3" x2="386.3" y2="606.7" opacity="1.0" stroke="rgb(0,0,0)"  stroke-width="3"/>
<line x1="386.3" y1="606.7" x2="424.9" y2="610.8" opacity="1.0" stroke="rgb(0,0,0)"  stroke-width="3"/>
<line x1="393.0" y1="600.2" x2="419.7" y2="603.0" opacity="1.0" stroke="rgb(0,0,0)"  stroke-width="3"/>
<line x1="424.9" y1="610.8" x2="447.7" y2="579.4" opacity="1.0" stroke="rgb(0,0,0)"  stroke-width="3"/>
<line x1="447.7" y1="579.4" x2="431.9" y2="544.0" opacity="1.0" stroke="rgb(0,0,0)"  stroke-width="3"/>
<line x1="438.7" y1="576.9" x2="427.8" y2="552.4" opacity="1.0" stroke="rgb(0,0,0)"  stroke-width="3"/>
<line x1="431.9" y1="544.0" x2="393.3" y2="539.9" opacity="1.0" stroke="rgb(0,0,0)"  stroke-width="3"/>
<line x1="393.3" y1="539.9" x2="370.5" y2="571.3" opacity="1.0" stroke="rgb(0,0,0)"  stroke-width="3"/>
<line x1="395.6" y1="549.0" x2="379.9" y2="570.7" opacity="1.0" stroke="rgb(0,0,0)"  stroke-width="3"/>
<line x1="104.9" y1="544.0" x2="89.1" y2="579.4" opacity="1.0" stroke="rgb(0,0,0)"  stroke-width="3"/>
<line x1="89.1" y1="579.4" x2="111.9" y2="610.8" opacity="1.0" stroke="rgb(0,0,0)"  stroke-width="3"/>
<line x1="98.5" y1="580.0" x2="114.2" y2="601.7" opacity="1.0" stroke="rgb(0,0,0)"  stroke-width="3"/>
<line x1="111.9" y1="610.8" x2="150.5" y2="606.7" opacity="1.0" stroke="rgb(0,0,0)"  stroke-width="3"/>
<line x1="150.5" y1="606.7" x2="166.3" y2="571.3" opacity="1.0" stroke="rgb(0,0,0)"  stroke-width="3"/>
<line x1="146.3" y1="598.3" x2="157.2" y2="573.9" opacity="1.0" stroke="rgb(0,0,0)"  stroke-width="3"/>
<line x1="166.3" y1="571.3" x2="143.5" y2="539.9" opacity="1.0" stroke="rgb(0,0,0)"  stroke-width="3"/>
<line x1="143.5" y1="539.9" x2="104.9" y2="544.0" opacity="1.0" stroke="rgb(0,0,0)"  stroke-width="3"/>
<line x1="138.2" y1="547.7" x2="111.6" y2="550.5" opacity="1.0" stroke="rgb(0,0,0)"  stroke-width="3"/>
<line x1="185.1" y1="577.1" x2="190.5" y2="615.5" opacity="1.0" stroke="rgb(0,0,0)"  stroke-width="3"/>
<line x1="190.5" y1="615.5" x2="226.4" y2="630.1" opacity="1.0" stroke="rgb(0,0,0)"  stroke-width="3"/>
<line x1="198.7" y1="611.1" x2="223.6" y2="621.1" opacity="1.0" stroke="rgb(0,0,0)"  stroke-width="3"/>
<line x1="226.4" y1="630.1" x2="257.0" y2="606.2" opacity="1.0" stroke="rgb(0,0,0)"  stroke-width="3"/>
<line x1="257.0" y1="606.2" x2="251.6" y2="567.8" opacity="1.0" stroke="rgb(0,0,0)"  stroke-width="3"/>
<line x1="249.0" y1="601.2" x2="245.3" y2="574.7" opacity="1.0" stroke="rgb(0,0,0)"  stroke-width="3"/>
<line x1="251.6" y1="567.8" x2="215.6" y2="553.2" opacity="1.0" stroke="rgb(0,0,0)"  stroke-width="3"/>
<line x1="215.6" y1="553.2" x2="185.1" y2="577.1" opacity="1.0" stroke="rgb(0,0,0)"  stroke-width="3"/>
<line x1="215.3" y1="562.6" x2="194.2" y2="579.1" opacity="1.0" stroke="rgb(0,0,0)"  stroke-width="3"/>
<line x1="285.2" y1="567.8" x2="279.8" y2="606.2" opacity="1.0" stroke="rgb(0,0,0)"  stroke-width="3"/>
<line x1="279.8" y1="606.2" x2="310.4" y2="630.1" opacity="1.0" stroke="rgb(0,0,0)"  stroke-width="3"/>
<line x1="289.0" y1="604.2" x2="310.1" y2="620.7" opacity="1.0" stroke="rgb(0,0,0)"  stroke-width="3"/>
<line x1="310.4" y1="630.1" x2="346.3" y2="615.5" opacity="1.0" stroke="rgb(0,0,0)"  stroke-width="3"/>
<line x1="346.3" y1="615.5" x2="351.7" y2="577.1" opacity="1.0" stroke="rgb(0,0,0)"  stroke-width="3"/>
<line x1="340.0" y1="608.6" x2="343.8" y2="582.1" opacity="1.0" stroke="rgb(0,0,0)"  stroke-width="3"/>
<line x1="351.7" y1="577.1" x2="321.2" y2="553.2" opacity="1.0" stroke="rgb(0,0,0)"  stroke-width="3"/>
<line x1="321.2" y1="553.2" x2="285.2" y2="567.8" opacity="1.0" stroke="rgb(0,0,0)"  stroke-width="3"/>
<line x1="318.3" y1="562.2" x2="293.5" y2="572.2" opacity="1.0" stroke="rgb(0,0,0)"  stroke-width="3"/>
<line x1="440.8" y1="212.3" x2="466.7" y2="183.5" opacity="1.0" stroke="rgb(0,0,0)"  stroke-width="3"/>
<line x1="466.7" y1="183.5" x2="454.8" y2="146.6" opacity="1.0" stroke="rgb(0,0,0)"  stroke-width="3"/>
<line x1="458.0" y1="180.0" x2="449.8" y2="154.5" opacity="1.0" stroke="rgb(0,0,0)"  stroke-width="3"/>
<line x1="454.8" y1="146.6" x2="416.8" y2="138.5" opacity="1.0" stroke="rgb(0,0,0)"  stroke-width="3"/>
<line x1="416.8" y1="138.5" x2="390.9" y2="167.4" opacity="1.0" stroke="rgb(0,0,0)"  stroke-width="3"/>
<line x1="418.2" y1="147.8" x2="400.2" y2="167.7" opacity="1.0" stroke="rgb(0,0,0)"  stroke-width="3"/>
<line x1="390.9" y1="167.4" x2="402.9" y2="204.2" opacity="1.0" stroke="rgb(0,0,0)"  stroke-width="3"/>
<line x1="402.9" y1="204.2" x2="440.8" y2="212.3" opacity="1.0" stroke="rgb(0,0,0)"  stroke-width="3"/>
<line x1="410.2" y1="198.4" x2="436.4" y2="204.0" opacity="1.0" stroke="rgb(0,0,0)"  stroke-width="3"/>
<line x1="340.9" y1="122.4" x2="303.0" y2="114.3" opacity="1.0" stroke="rgb(0,0,0)"  stroke-width="3"/>
<line x1="303.0" y1="114.3" x2="277.1" y2="143.2" opacity="1.0" stroke="rgb(0,0,0)"  stroke-width="3"/>
<line x1="304.3" y1="123.6" x2="286.4" y2="143.5" opacity="1.0" stroke="rgb(0,0,0)"  stroke-width="3"/>
<line x1="277.1" y1="143.2" x2="289.0" y2="180.1" opacity="1.0" stroke="rgb(0,0,0)"  stroke-width="3"/>
<line x1="289.0" y1="180.1" x2="327.0" y2="188.1" opacity="1.0" stroke="rgb(0,0,0)"  stroke-width="3"/>
<line x1="296.4" y1="174.3" x2="322.6" y2="179.8" opacity="1.0" stroke="rgb(0,0,0)"  stroke-width="3"/>
<line x1="327.0" y1="188.1" x2="352.9" y2="159.3" opacity="1.0" stroke="rgb(0,0,0)"  stroke-width="3"/>
<line x1="352.9" y1="159.3" x2="340.9" y2="122.4" opacity="1.0" stroke="rgb(0,0,0)"  stroke-width="3"/>
<line x1="344.2" y1="155.8" x2="336.0" y2="130.3" opacity="1.0" stroke="rgb(0,0,0)"  stroke-width="3"/>
<text x="195.223083" y="388.304653" fill="rgb(255,181,181)" stroke-width="0" font-weight="bold" font-size="25.92" >B</text>
<text x="329.572860" y="388.304653" fill="rgb(255,181,181)" stroke-width="0" font-weight="bold" font-size="25.92" >B</text>
<text x="329.572860" y="465.871558" fill="rgb(12,12,255)" stroke-width="0" font-weight="bold" font-size="25.92" >N</text>
<text x="195.223083" y="465.871558" fill="rgb(12,12,255)" stroke-width="0" font-weight="bold" font-size="25.92" >N</text>
<text x="262.397971" y="349.521176" fill="rgb(12,12,255)" stroke-width="0" font-weight="bold" font-size="25.92" >N</text>
</svg>
</g>
</svg>
