<?xml version="1.0" standalone="no" ?>
<!DOCTYPE svg PUBLIC "-//W3C//DTD SVG 1.1//EN" "http://www.w3.org/Graphics/SVG/1.1/DTD/svg11.dtd">
<svg width="233px" height="211px" viewBox="0 0 233 211" style="background-color: #ffffff00" xmlns="http://www.w3.org/2000/svg" xmlns:xlink="http://www.w3.org/1999/xlink" version="1.1" >
<text x="0" y="0" stroke="none" fill="#000000" transform="matrix(0.0666667 0 0 0.0666667 111.786 80.6745)" font-style="normal" font-weight="normal" font-size="200px" font-family="Arial" >
N</text>
<text x="0" y="0" stroke="none" fill="#000000" transform="matrix(0.0666667 0 0 0.0666667 78.5302 138.274)" font-style="normal" font-weight="normal" font-size="200px" font-family="Arial" >
N</text>
<text x="0" y="0" stroke="none" fill="#000000" transform="matrix(0.0666667 0 0 0.0666667 145.041 138.274)" font-style="normal" font-weight="normal" font-size="200px" font-family="Arial" >
N</text>
<text x="0" y="0" stroke="none" fill="#000000" transform="matrix(0.0666667 0 0 0.0666667 145.409 99.8745)" font-style="normal" font-weight="normal" font-size="200px" font-family="Arial" >
B</text>
<text x="0" y="0" stroke="none" fill="#000000" transform="matrix(0.0666667 0 0 0.0666667 78.898 99.8745)" font-style="normal" font-weight="normal" font-size="200px" font-family="Arial" >
B</text>
<path stroke="none" fill="#000000" transform="matrix(0.0666667 0 0 0.0666667 -243.4 -37)" d="M 5144.72,2122.4 L 5150.58,2119.12 L 5156.44,2122.5 L 5156.44,2403.73 L 5150.58,2407.12 L 5144.72,2403.84 L 5144.72,2122.4 Z " />
<path stroke="none" fill="#000000" transform="matrix(0.0666667 0 0 0.0666667 -243.4 -37)" d="M 5196.42,2149.05 L 5208.42,2149.05 L 5208.42,2377.19 L 5196.42,2377.19 L 5196.42,2149.05 Z " />
<path stroke="none" fill="#000000" transform="matrix(0.0666667 0 0 0.0666667 -243.4 -37)" d="M 5150.49,2413.83 L 5150.58,2407.12 L 5156.44,2403.73 L 5400,2544.35 L 5400,2558.22 L 5150.49,2413.83 Z " />
<path stroke="none" fill="#000000" transform="matrix(0.0666667 0 0 0.0666667 -243.4 -37)" d="M 5400,2558.22 L 5400,2544.35 L 5643.56,2403.73 L 5649.42,2407.12 L 5649.51,2413.83 L 5400,2558.22 Z " />
<path stroke="none" fill="#000000" transform="matrix(0.0666667 0 0 0.0666667 -243.4 -37)" d="M 5403,2496.45 L 5397,2486.06 L 5594.58,2371.99 L 5600.58,2382.38 L 5403,2496.45 Z " />
<path stroke="none" fill="#000000" transform="matrix(0.0666667 0 0 0.0666667 -243.4 -37)" d="M 5655.28,2403.85 L 5649.42,2407.12 L 5643.56,2403.73 L 5643.56,2122.5 L 5649.42,2119.12 L 5655.28,2122.39 L 5655.28,2403.85 Z " />
<path stroke="none" fill="#000000" transform="matrix(0.0666667 0 0 0.0666667 -243.4 -37)" d="M 5649.52,2112.4 L 5649.42,2119.12 L 5643.56,2122.5 L 5400,1981.88 L 5400,1975.12 L 5405.77,1971.68 L 5649.52,2112.4 Z " />
<path stroke="none" fill="#000000" transform="matrix(0.0666667 0 0 0.0666667 -243.4 -37)" d="M 5600.58,2143.85 L 5594.58,2154.24 L 5397,2040.17 L 5403,2029.78 L 5600.58,2143.85 Z " />
<path stroke="none" fill="#000000" transform="matrix(0.0666667 0 0 0.0666667 -243.4 -37)" d="M 5394.23,1971.68 L 5400,1975.12 L 5400,1981.88 L 5156.44,2122.5 L 5150.58,2119.12 L 5150.5,2112.4 L 5394.23,1971.68 Z " />
<path stroke="none" fill="#000000" transform="matrix(0.0666667 0 0 0.0666667 -243.4 -37)" d="M 5405.77,1971.68 L 5400,1975.12 L 5394.23,1971.68 L 5394,1796.28 L 5406,1796.28 L 5405.77,1971.68 Z " />
<path stroke="none" fill="#000000" transform="matrix(0.0666667 0 0 0.0666667 -243.4 -37)" d="M 5144.72,2403.84 L 5150.58,2407.12 L 5150.49,2413.83 L 5000.93,2500.45 L 4994.93,2490.06 L 5144.72,2403.84 Z " />
<path stroke="none" fill="#000000" transform="matrix(0.0666667 0 0 0.0666667 -243.4 -37)" d="M 5649.51,2413.83 L 5649.42,2407.12 L 5655.28,2403.85 L 5804.75,2489.87 L 5798.75,2500.26 L 5649.51,2413.83 Z " />
<path stroke="none" fill="#000000" transform="matrix(0.0666667 0 0 0.0666667 -243.4 -37)" d="M 5495.8,1624.93 L 5488.75,1615.22 L 5626.18,1515.73 L 5633,1517.83 L 5634.23,1524.12 L 5495.8,1624.93 Z " />
<path stroke="none" fill="#000000" transform="matrix(0.0666667 0 0 0.0666667 -243.4 -37)" d="M 5637.52,1512.81 L 5633,1517.83 L 5626.18,1515.73 L 5539.77,1249.75 L 5544,1243.93 L 5550.62,1245.34 L 5637.52,1512.81 Z " />
<path stroke="none" fill="#000000" transform="matrix(0.0666667 0 0 0.0666667 -243.4 -37)" d="M 5678.76,1471.5 L 5667.34,1475.2 L 5596.85,1258.23 L 5608.26,1254.52 L 5678.76,1471.5 Z " />
<path stroke="none" fill="#000000" transform="matrix(0.0666667 0 0 0.0666667 -243.4 -37)" d="M 5541.38,1238.04 L 5544,1243.93 L 5539.77,1249.75 L 5260.23,1249.75 L 5256,1243.93 L 5258.62,1238.04 L 5541.38,1238.04 Z " />
<path stroke="none" fill="#000000" transform="matrix(0.0666667 0 0 0.0666667 -243.4 -37)" d="M 5249.38,1245.34 L 5256,1243.93 L 5260.23,1249.75 L 5173.81,1515.73 L 5167,1517.83 L 5162.48,1512.81 L 5249.38,1245.34 Z " />
<path stroke="none" fill="#000000" transform="matrix(0.0666667 0 0 0.0666667 -243.4 -37)" d="M 5191.74,1254.52 L 5203.15,1258.23 L 5132.66,1475.2 L 5121.24,1471.5 L 5191.74,1254.52 Z " />
<path stroke="none" fill="#000000" transform="matrix(0.0666667 0 0 0.0666667 -243.4 -37)" d="M 5165.77,1524.12 L 5167,1517.83 L 5173.81,1515.73 L 5310.96,1615.01 L 5303.91,1624.72 L 5165.77,1524.12 Z " />
<path stroke="none" fill="#000000" transform="matrix(0.0666667 0 0 0.0666667 -243.4 -37)" d="M 5904.23,2659.89 L 5916.16,2658.64 L 5934.17,2832.69 L 5928.93,2837.54 L 5922.92,2836.96 L 5904.23,2659.89 Z " />
<path stroke="none" fill="#000000" transform="matrix(0.0666667 0 0 0.0666667 -243.4 -37)" d="M 5933.09,2844.32 L 5928.93,2837.54 L 5934.17,2832.69 L 6207.71,2890.84 L 6210.64,2897.42 L 6207.69,2902.85 L 5933.09,2844.32 Z " />
<path stroke="none" fill="#000000" transform="matrix(0.0666667 0 0 0.0666667 -243.4 -37)" d="M 5975.31,2800.53 L 5977.8,2788.79 L 6185.83,2833.01 L 6183.33,2844.75 L 5975.31,2800.53 Z " />
<path stroke="none" fill="#000000" transform="matrix(0.0666667 0 0 0.0666667 -243.4 -37)" d="M 6217.91,2896.46 L 6210.64,2897.42 L 6207.71,2890.84 L 6347.48,2648.75 L 6354.64,2648 L 6358.43,2653.22 L 6217.91,2896.46 Z " />
<path stroke="none" fill="#000000" transform="matrix(0.0666667 0 0 0.0666667 -243.4 -37)" d="M 6356.73,2641.57 L 6354.64,2648 L 6347.48,2648.75 L 6160.35,2440.93 L 6161.93,2433.98 L 6168.55,2432.57 L 6356.73,2641.57 Z " />
<path stroke="none" fill="#000000" transform="matrix(0.0666667 0 0 0.0666667 -243.4 -37)" d="M 6377.6,2587.06 L 6368.68,2595.09 L 6216.02,2425.55 L 6224.94,2417.52 L 6377.6,2587.06 Z " />
<path stroke="none" fill="#000000" transform="matrix(0.0666667 0 0 0.0666667 -243.4 -37)" d="M 6157.11,2429.75 L 6161.93,2433.98 L 6160.35,2440.93 L 6000.41,2512.46 L 5995.53,2501.5 L 6157.11,2429.75 Z " />
<path stroke="none" fill="#000000" transform="matrix(0.0666667 0 0 0.0666667 -243.4 -37)" d="M 4804.11,2501.34 L 4799.23,2512.3 L 4639.65,2440.93 L 4638.07,2433.98 L 4642.9,2429.76 L 4804.11,2501.34 Z " />
<path stroke="none" fill="#000000" transform="matrix(0.0666667 0 0 0.0666667 -243.4 -37)" d="M 4631.45,2432.57 L 4638.07,2433.98 L 4639.65,2440.93 L 4452.52,2648.75 L 4445.36,2648 L 4443.27,2641.57 L 4631.45,2432.57 Z " />
<path stroke="none" fill="#000000" transform="matrix(0.0666667 0 0 0.0666667 -243.4 -37)" d="M 4575.06,2417.52 L 4583.98,2425.55 L 4431.32,2595.09 L 4422.4,2587.06 L 4575.06,2417.52 Z " />
<path stroke="none" fill="#000000" transform="matrix(0.0666667 0 0 0.0666667 -243.4 -37)" d="M 4441.57,2653.22 L 4445.36,2648 L 4452.52,2648.75 L 4592.29,2890.84 L 4589.36,2897.42 L 4582.59,2897.42 L 4441.57,2653.22 Z " />
<path stroke="none" fill="#000000" transform="matrix(0.0666667 0 0 0.0666667 -243.4 -37)" d="M 4593.15,2902.63 L 4589.36,2897.42 L 4592.29,2890.84 L 4865.83,2832.69 L 4871.07,2837.54 L 4866.91,2844.32 L 4593.15,2902.63 Z " />
<path stroke="none" fill="#000000" transform="matrix(0.0666667 0 0 0.0666667 -243.4 -37)" d="M 4616.67,2844.75 L 4614.17,2833.01 L 4822.2,2788.79 L 4824.69,2800.53 L 4616.67,2844.75 Z " />
<path stroke="none" fill="#000000" transform="matrix(0.0666667 0 0 0.0666667 -243.4 -37)" d="M 4877.08,2836.96 L 4871.07,2837.54 L 4865.83,2832.69 L 4883.84,2658.64 L 4895.77,2659.89 L 4877.08,2836.96 Z " />
<path stroke="none" fill="#000000" transform="matrix(0.0666667 0 0 0.0666667 -243.4 -37)" d="M 4642.9,2429.76 L 4638.07,2433.98 L 4631.45,2432.57 L 4544.54,2165.1 L 4549.07,2160.07 L 4556.09,2162.93 L 4642.9,2429.76 Z " />
<path stroke="none" fill="#000000" transform="matrix(0.0666667 0 0 0.0666667 -243.4 -37)" d="M 4548.21,2153.85 L 4549.07,2160.07 L 4544.54,2165.1 L 4269.46,2106.63 L 4267.37,2100.19 L 4271.89,2095.17 L 4548.21,2153.85 Z " />
<path stroke="none" fill="#000000" transform="matrix(0.0666667 0 0 0.0666667 -243.4 -37)" d="M 4510.27,2198.69 L 4507.77,2210.43 L 4284.62,2162.99 L 4287.11,2151.26 L 4510.27,2198.69 Z " />
<path stroke="none" fill="#000000" transform="matrix(0.0666667 0 0 0.0666667 -243.4 -37)" d="M 4260.75,2098.79 L 4267.37,2100.19 L 4269.46,2106.63 L 4081.27,2315.63 L 4074.66,2314.22 L 4072.57,2307.79 L 4260.75,2098.79 Z " />
<path stroke="none" fill="#000000" transform="matrix(0.0666667 0 0 0.0666667 -243.4 -37)" d="M 4070.13,2319.25 L 4074.66,2314.22 L 4081.27,2315.63 L 4168.18,2583.1 L 4158.9,2593.4 L 4070.13,2319.25 Z " />
<path stroke="none" fill="#000000" transform="matrix(0.0666667 0 0 0.0666667 -243.4 -37)" d="M 4127.5,2328.52 L 4138.91,2324.81 L 4209.41,2541.78 L 4198,2545.49 L 4127.5,2328.52 Z " />
<path stroke="none" fill="#000000" transform="matrix(0.0666667 0 0 0.0666667 -243.4 -37)" d="M 4158.9,2593.4 L 4168.18,2583.1 L 4443.27,2641.57 L 4445.36,2648 L 4441.57,2653.22 L 4158.9,2593.4 Z " />
<path stroke="none" fill="#000000" transform="matrix(0.0666667 0 0 0.0666667 -243.4 -37)" d="M 4271.89,2095.17 L 4267.37,2100.19 L 4260.75,2098.79 L 4173.84,1831.32 L 4183.12,1821.01 L 4271.89,2095.17 Z " />
<path stroke="none" fill="#000000" transform="matrix(0.0666667 0 0 0.0666667 -243.4 -37)" d="M 4183.12,1821.01 L 4173.84,1831.32 L 3898.75,1772.85 L 3894.47,1759.66 L 4183.12,1821.01 Z " />
<path stroke="none" fill="#000000" transform="matrix(0.0666667 0 0 0.0666667 -243.4 -37)" d="M 4139.56,1864.9 L 4137.07,1876.64 L 3913.91,1829.21 L 3916.41,1817.47 L 4139.56,1864.9 Z " />
<path stroke="none" fill="#000000" transform="matrix(0.0666667 0 0 0.0666667 -243.4 -37)" d="M 3894.47,1759.66 L 3898.75,1772.85 L 3710.57,1981.84 L 3697.01,1978.96 L 3894.47,1759.66 Z " />
<path stroke="none" fill="#000000" transform="matrix(0.0666667 0 0 0.0666667 -243.4 -37)" d="M 3697.01,1978.96 L 3710.57,1981.84 L 3797.48,2249.31 L 3788.2,2259.62 L 3697.01,1978.96 Z " />
<path stroke="none" fill="#000000" transform="matrix(0.0666667 0 0 0.0666667 -243.4 -37)" d="M 3756.8,1994.74 L 3768.21,1991.03 L 3838.71,2208 L 3827.3,2211.71 L 3756.8,1994.74 Z " />
<path stroke="none" fill="#000000" transform="matrix(0.0666667 0 0 0.0666667 -243.4 -37)" d="M 3788.2,2259.62 L 3797.48,2249.31 L 4072.57,2307.79 L 4074.66,2314.22 L 4070.13,2319.25 L 3788.2,2259.62 Z " />
<path stroke="none" fill="#000000" transform="matrix(0.0666667 0 0 0.0666667 -243.4 -37)" d="M 6358.43,2653.22 L 6354.64,2648 L 6356.73,2641.57 L 6631.82,2583.1 L 6641.1,2593.4 L 6358.43,2653.22 Z " />
<path stroke="none" fill="#000000" transform="matrix(0.0666667 0 0 0.0666667 -243.4 -37)" d="M 6641.1,2593.4 L 6631.82,2583.1 L 6718.73,2315.63 L 6725.34,2314.22 L 6729.87,2319.25 L 6641.1,2593.4 Z " />
<path stroke="none" fill="#000000" transform="matrix(0.0666667 0 0 0.0666667 -243.4 -37)" d="M 6602,2545.49 L 6590.59,2541.78 L 6661.09,2324.81 L 6672.5,2328.52 L 6602,2545.49 Z " />
<path stroke="none" fill="#000000" transform="matrix(0.0666667 0 0 0.0666667 -243.4 -37)" d="M 6727.43,2307.79 L 6725.34,2314.22 L 6718.73,2315.63 L 6530.54,2106.63 L 6532.63,2100.19 L 6539.25,2098.79 L 6727.43,2307.79 Z " />
<path stroke="none" fill="#000000" transform="matrix(0.0666667 0 0 0.0666667 -243.4 -37)" d="M 6528.11,2095.17 L 6532.63,2100.19 L 6530.54,2106.63 L 6255.46,2165.1 L 6250.93,2160.07 L 6251.79,2153.85 L 6528.11,2095.17 Z " />
<path stroke="none" fill="#000000" transform="matrix(0.0666667 0 0 0.0666667 -243.4 -37)" d="M 6512.89,2151.26 L 6515.38,2162.99 L 6292.23,2210.43 L 6289.73,2198.69 L 6512.89,2151.26 Z " />
<path stroke="none" fill="#000000" transform="matrix(0.0666667 0 0 0.0666667 -243.4 -37)" d="M 6243.9,2162.93 L 6250.93,2160.07 L 6255.46,2165.1 L 6168.55,2432.57 L 6161.93,2433.98 L 6157.11,2429.75 L 6243.9,2162.93 Z " />
<path stroke="none" fill="#000000" transform="matrix(0.0666667 0 0 0.0666667 -243.4 -37)" d="M 6729.87,2319.25 L 6725.34,2314.22 L 6727.43,2307.79 L 7002.52,2249.31 L 7011.8,2259.62 L 6729.87,2319.25 Z " />
<path stroke="none" fill="#000000" transform="matrix(0.0666667 0 0 0.0666667 -243.4 -37)" d="M 7011.8,2259.62 L 7002.52,2249.31 L 7089.43,1981.84 L 7102.99,1978.96 L 7011.8,2259.62 Z " />
<path stroke="none" fill="#000000" transform="matrix(0.0666667 0 0 0.0666667 -243.4 -37)" d="M 6972.7,2211.71 L 6961.29,2208 L 7031.79,1991.03 L 7043.2,1994.74 L 6972.7,2211.71 Z " />
<path stroke="none" fill="#000000" transform="matrix(0.0666667 0 0 0.0666667 -243.4 -37)" d="M 7102.99,1978.96 L 7089.43,1981.84 L 6901.25,1772.85 L 6905.53,1759.66 L 7102.99,1978.96 Z " />
<path stroke="none" fill="#000000" transform="matrix(0.0666667 0 0 0.0666667 -243.4 -37)" d="M 6905.53,1759.66 L 6901.25,1772.85 L 6626.16,1831.32 L 6616.88,1821.01 L 6905.53,1759.66 Z " />
<path stroke="none" fill="#000000" transform="matrix(0.0666667 0 0 0.0666667 -243.4 -37)" d="M 6883.59,1817.47 L 6886.09,1829.21 L 6662.93,1876.64 L 6660.44,1864.9 L 6883.59,1817.47 Z " />
<path stroke="none" fill="#000000" transform="matrix(0.0666667 0 0 0.0666667 -243.4 -37)" d="M 6616.88,1821.01 L 6626.16,1831.32 L 6539.25,2098.79 L 6532.63,2100.19 L 6528.11,2095.17 L 6616.88,1821.01 Z " />
<path stroke="none" fill="#000000" transform="matrix(0.0666667 0 0 0.0666667 -243.4 -37)" d="M 4582.59,2897.42 L 4589.36,2897.42 L 4593.15,2902.63 L 4452.12,3146.83 L 4445.36,3146.83 L 4441.98,3140.97 L 4582.59,2897.42 Z " />
<path stroke="none" fill="#000000" transform="matrix(0.0666667 0 0 0.0666667 -243.4 -37)" d="M 4866.91,2844.32 L 4871.07,2837.54 L 4877.08,2836.96 L 4950.39,3110.94 L 4945.61,3115.73 L 4939.07,3113.97 L 4866.91,2844.32 Z " />
<path stroke="none" fill="#000000" transform="matrix(0.0666667 0 0 0.0666667 -243.4 -37)" d="M 5922.92,2836.96 L 5928.93,2837.54 L 5933.09,2844.32 L 5860.93,3113.97 L 5854.39,3115.73 L 5849.61,3110.94 L 5922.92,2836.96 Z " />
<path stroke="none" fill="#000000" transform="matrix(0.0666667 0 0 0.0666667 -243.4 -37)" d="M 6207.69,2902.85 L 6210.64,2897.42 L 6217.91,2896.46 L 6416.04,3094.53 L 6414.29,3101.06 L 6407.75,3102.81 L 6207.69,2902.85 Z " />
<path stroke="none" fill="#000000" transform="matrix(0.0666667 0 0 0.0666667 -243.4 -37)" d="M 6407.75,3102.81 L 6414.29,3101.06 L 6419.07,3105.85 L 6346.28,3377.5 L 6332.89,3381.09 L 6407.75,3102.81 Z " />
<path stroke="none" fill="#000000" transform="matrix(0.0666667 0 0 0.0666667 -243.4 -37)" d="M 6450.82,3141.84 L 6462.41,3144.94 L 6403.36,3365.31 L 6391.77,3362.2 L 6450.82,3141.84 Z " />
<path stroke="none" fill="#000000" transform="matrix(0.0666667 0 0 0.0666667 -243.4 -37)" d="M 6332.89,3381.09 L 6346.28,3377.5 L 6545.15,3576.36 L 6541.56,3589.75 L 6332.89,3381.09 Z " />
<path stroke="none" fill="#000000" transform="matrix(0.0666667 0 0 0.0666667 -243.4 -37)" d="M 6541.56,3589.75 L 6545.15,3576.36 L 6816.8,3503.57 L 6826.6,3513.38 L 6541.56,3589.75 Z " />
<path stroke="none" fill="#000000" transform="matrix(0.0666667 0 0 0.0666667 -243.4 -37)" d="M 6560.44,3530.87 L 6557.33,3519.28 L 6777.7,3460.23 L 6780.81,3471.83 L 6560.44,3530.87 Z " />
<path stroke="none" fill="#000000" transform="matrix(0.0666667 0 0 0.0666667 -243.4 -37)" d="M 6826.6,3513.38 L 6816.8,3503.57 L 6889.59,3231.92 L 6902.98,3228.33 L 6826.6,3513.38 Z " />
<path stroke="none" fill="#000000" transform="matrix(0.0666667 0 0 0.0666667 -243.4 -37)" d="M 6902.98,3228.33 L 6889.59,3231.92 L 6690.72,3033.06 L 6694.31,3019.67 L 6902.98,3228.33 Z " />
<path stroke="none" fill="#000000" transform="matrix(0.0666667 0 0 0.0666667 -243.4 -37)" d="M 6842.54,3241.42 L 6834.06,3249.91 L 6672.74,3088.59 L 6681.22,3080.1 L 6842.54,3241.42 Z " />
<path stroke="none" fill="#000000" transform="matrix(0.0666667 0 0 0.0666667 -243.4 -37)" d="M 6694.31,3019.67 L 6690.72,3033.06 L 6419.07,3105.85 L 6414.29,3101.06 L 6416.04,3094.53 L 6694.31,3019.67 Z " />
<path stroke="none" fill="#000000" transform="matrix(0.0666667 0 0 0.0666667 -243.4 -37)" d="M 4441.98,3140.97 L 4445.36,3146.83 L 4441.98,3152.69 L 4160.74,3152.69 L 4153.81,3140.68 L 4441.98,3140.97 Z " />
<path stroke="none" fill="#000000" transform="matrix(0.0666667 0 0 0.0666667 -243.4 -37)" d="M 4415.43,3192.67 L 4415.43,3204.67 L 4187.29,3204.67 L 4187.29,3192.67 L 4415.43,3192.67 Z " />
<path stroke="none" fill="#000000" transform="matrix(0.0666667 0 0 0.0666667 -243.4 -37)" d="M 4153.81,3140.68 L 4160.74,3152.69 L 4020.12,3396.25 L 4006.26,3396.25 L 4153.81,3140.68 Z " />
<path stroke="none" fill="#000000" transform="matrix(0.0666667 0 0 0.0666667 -243.4 -37)" d="M 4006.26,3396.25 L 4020.12,3396.25 L 4160.74,3639.8 L 4153.81,3651.81 L 4006.26,3396.25 Z " />
<path stroke="none" fill="#000000" transform="matrix(0.0666667 0 0 0.0666667 -243.4 -37)" d="M 4068.02,3399.25 L 4078.41,3393.25 L 4192.48,3590.82 L 4182.09,3596.82 L 4068.02,3399.25 Z " />
<path stroke="none" fill="#000000" transform="matrix(0.0666667 0 0 0.0666667 -243.4 -37)" d="M 4153.81,3651.81 L 4160.74,3639.8 L 4441.98,3639.8 L 4448.91,3651.81 L 4153.81,3651.81 Z " />
<path stroke="none" fill="#000000" transform="matrix(0.0666667 0 0 0.0666667 -243.4 -37)" d="M 4448.91,3651.81 L 4441.98,3639.8 L 4582.59,3396.25 L 4596.46,3396.25 L 4448.91,3651.81 Z " />
<path stroke="none" fill="#000000" transform="matrix(0.0666667 0 0 0.0666667 -243.4 -37)" d="M 4420.63,3596.82 L 4410.23,3590.82 L 4524.3,3393.25 L 4534.7,3399.25 L 4420.63,3596.82 Z " />
<path stroke="none" fill="#000000" transform="matrix(0.0666667 0 0 0.0666667 -243.4 -37)" d="M 4596.46,3396.25 L 4582.59,3396.25 L 4441.98,3152.69 L 4445.36,3146.83 L 4452.12,3146.83 L 4596.46,3396.25 Z " />
<path stroke="none" fill="#000000" transform="matrix(0.0666667 0 0 0.0666667 -243.4 -37)" d="M 4939.07,3113.97 L 4945.61,3115.73 L 4947.36,3122.26 L 4748.49,3321.12 L 4735.1,3317.53 L 4939.07,3113.97 Z " />
<path stroke="none" fill="#000000" transform="matrix(0.0666667 0 0 0.0666667 -243.4 -37)" d="M 4956.86,3169.3 L 4965.34,3177.79 L 4804.02,3339.11 L 4795.54,3330.62 L 4956.86,3169.3 Z " />
<path stroke="none" fill="#000000" transform="matrix(0.0666667 0 0 0.0666667 -243.4 -37)" d="M 4735.1,3317.53 L 4748.49,3321.12 L 4821.28,3592.77 L 4811.48,3602.58 L 4735.1,3317.53 Z " />
<path stroke="none" fill="#000000" transform="matrix(0.0666667 0 0 0.0666667 -243.4 -37)" d="M 4811.48,3602.58 L 4821.28,3592.77 L 5092.93,3665.56 L 5096.52,3678.95 L 4811.48,3602.58 Z " />
<path stroke="none" fill="#000000" transform="matrix(0.0666667 0 0 0.0666667 -243.4 -37)" d="M 4857.27,3561.03 L 4860.38,3549.44 L 5080.74,3608.48 L 5077.64,3620.07 L 4857.27,3561.03 Z " />
<path stroke="none" fill="#000000" transform="matrix(0.0666667 0 0 0.0666667 -243.4 -37)" d="M 5096.52,3678.95 L 5092.93,3665.56 L 5291.8,3466.7 L 5305.19,3470.29 L 5096.52,3678.95 Z " />
<path stroke="none" fill="#000000" transform="matrix(0.0666667 0 0 0.0666667 -243.4 -37)" d="M 5305.19,3470.29 L 5291.8,3466.7 L 5219.01,3195.05 L 5228.81,3185.24 L 5305.19,3470.29 Z " />
<path stroke="none" fill="#000000" transform="matrix(0.0666667 0 0 0.0666667 -243.4 -37)" d="M 5246.31,3451.41 L 5234.72,3454.51 L 5175.67,3234.14 L 5187.26,3231.04 L 5246.31,3451.41 Z " />
<path stroke="none" fill="#000000" transform="matrix(0.0666667 0 0 0.0666667 -243.4 -37)" d="M 5228.81,3185.24 L 5219.01,3195.05 L 4947.36,3122.26 L 4945.61,3115.73 L 4950.39,3110.94 L 5228.81,3185.24 Z " />
<path stroke="none" fill="#000000" transform="matrix(0.0666667 0 0 0.0666667 -243.4 -37)" d="M 5849.61,3110.94 L 5854.39,3115.73 L 5852.64,3122.26 L 5580.99,3195.05 L 5571.19,3185.24 L 5849.61,3110.94 Z " />
<path stroke="none" fill="#000000" transform="matrix(0.0666667 0 0 0.0666667 -243.4 -37)" d="M 5837.35,3167.75 L 5840.45,3179.34 L 5620.09,3238.39 L 5616.98,3226.8 L 5837.35,3167.75 Z " />
<path stroke="none" fill="#000000" transform="matrix(0.0666667 0 0 0.0666667 -243.4 -37)" d="M 5571.19,3185.24 L 5580.99,3195.05 L 5508.2,3466.7 L 5494.81,3470.29 L 5571.19,3185.24 Z " />
<path stroke="none" fill="#000000" transform="matrix(0.0666667 0 0 0.0666667 -243.4 -37)" d="M 5494.81,3470.29 L 5508.2,3466.7 L 5707.07,3665.56 L 5703.48,3678.95 L 5494.81,3470.29 Z " />
<path stroke="none" fill="#000000" transform="matrix(0.0666667 0 0 0.0666667 -243.4 -37)" d="M 5555.25,3457.2 L 5563.73,3448.72 L 5725.05,3610.04 L 5716.57,3618.52 L 5555.25,3457.2 Z " />
<path stroke="none" fill="#000000" transform="matrix(0.0666667 0 0 0.0666667 -243.4 -37)" d="M 5703.48,3678.95 L 5707.07,3665.56 L 5978.72,3592.77 L 5988.52,3602.58 L 5703.48,3678.95 Z " />
<path stroke="none" fill="#000000" transform="matrix(0.0666667 0 0 0.0666667 -243.4 -37)" d="M 5988.52,3602.58 L 5978.72,3592.77 L 6051.51,3321.12 L 6064.9,3317.53 L 5988.52,3602.58 Z " />
<path stroke="none" fill="#000000" transform="matrix(0.0666667 0 0 0.0666667 -243.4 -37)" d="M 5946.97,3556.78 L 5935.38,3553.68 L 5994.43,3333.31 L 6006.02,3336.42 L 5946.97,3556.78 Z " />
<path stroke="none" fill="#000000" transform="matrix(0.0666667 0 0 0.0666667 -243.4 -37)" d="M 6064.9,3317.53 L 6051.51,3321.12 L 5852.64,3122.26 L 5854.39,3115.73 L 5860.93,3113.97 L 6064.9,3317.53 Z " />
<path stroke="none" fill="#000000" transform="matrix(0.0666667 0 0 0.0666667 -243.4 -37)" d="M 5634.23,1524.12 L 5633,1517.83 L 5637.52,1512.81 L 5912.61,1571.28 L 5914.7,1577.71 L 5908.71,1582.36 L 5634.23,1524.12 Z " />
<path stroke="none" fill="#000000" transform="matrix(0.0666667 0 0 0.0666667 -243.4 -37)" d="M 5920.53,1580.08 L 5914.7,1577.71 L 5912.61,1571.28 L 6100.79,1362.28 L 6114.36,1365.16 L 5920.53,1580.08 Z " />
<path stroke="none" fill="#000000" transform="matrix(0.0666667 0 0 0.0666667 -243.4 -37)" d="M 5900.66,1524.8 L 5891.75,1516.77 L 6044.4,1347.23 L 6053.32,1355.26 L 5900.66,1524.8 Z " />
<path stroke="none" fill="#000000" transform="matrix(0.0666667 0 0 0.0666667 -243.4 -37)" d="M 6114.36,1365.16 L 6100.79,1362.28 L 6013.89,1094.81 L 6018.42,1089.78 L 6025.03,1091.19 L 6114.36,1365.16 Z " />
<path stroke="none" fill="#000000" transform="matrix(0.0666667 0 0 0.0666667 -243.4 -37)" d="M 6016.33,1083.35 L 6018.42,1089.78 L 6013.89,1094.81 L 5738.8,1036.34 L 5734.52,1023.15 L 6016.33,1083.35 Z " />
<path stroke="none" fill="#000000" transform="matrix(0.0666667 0 0 0.0666667 -243.4 -37)" d="M 5979.61,1128.4 L 5977.11,1140.14 L 5753.96,1092.7 L 5756.45,1080.97 L 5979.61,1128.4 Z " />
<path stroke="none" fill="#000000" transform="matrix(0.0666667 0 0 0.0666667 -243.4 -37)" d="M 5734.52,1023.15 L 5738.8,1036.34 L 5550.62,1245.34 L 5544,1243.93 L 5541.38,1238.04 L 5734.52,1023.15 Z " />
<path stroke="none" fill="#000000" transform="matrix(0.0666667 0 0 0.0666667 -243.4 -37)" d="M 5258.62,1238.04 L 5256,1243.93 L 5249.38,1245.34 L 5061.2,1036.34 L 5065.48,1023.15 L 5258.62,1238.04 Z " />
<path stroke="none" fill="#000000" transform="matrix(0.0666667 0 0 0.0666667 -243.4 -37)" d="M 5065.48,1023.15 L 5061.2,1036.34 L 4786.11,1094.81 L 4781.58,1089.78 L 4783.67,1083.35 L 5065.48,1023.15 Z " />
<path stroke="none" fill="#000000" transform="matrix(0.0666667 0 0 0.0666667 -243.4 -37)" d="M 5043.55,1080.97 L 5046.04,1092.7 L 4822.89,1140.14 L 4820.39,1128.4 L 5043.55,1080.97 Z " />
<path stroke="none" fill="#000000" transform="matrix(0.0666667 0 0 0.0666667 -243.4 -37)" d="M 4774.97,1091.19 L 4781.58,1089.78 L 4786.11,1094.81 L 4699.21,1362.28 L 4685.64,1365.16 L 4774.97,1091.19 Z " />
<path stroke="none" fill="#000000" transform="matrix(0.0666667 0 0 0.0666667 -243.4 -37)" d="M 4685.64,1365.16 L 4699.21,1362.28 L 4887.39,1571.28 L 4885.3,1577.71 L 4879.47,1580.08 L 4685.64,1365.16 Z " />
<path stroke="none" fill="#000000" transform="matrix(0.0666667 0 0 0.0666667 -243.4 -37)" d="M 4746.68,1355.26 L 4755.6,1347.23 L 4908.25,1516.77 L 4899.34,1524.8 L 4746.68,1355.26 Z " />
<path stroke="none" fill="#000000" transform="matrix(0.0666667 0 0 0.0666667 -243.4 -37)" d="M 4891.29,1582.36 L 4885.3,1577.71 L 4887.39,1571.28 L 5162.48,1512.81 L 5167,1517.83 L 5165.77,1524.12 L 4891.29,1582.36 Z " />
<path stroke="none" fill="#000000" transform="matrix(0.0666667 0 0 0.0666667 -243.4 -37)" d="M 6025.03,1091.19 L 6018.42,1089.78 L 6016.33,1083.35 L 6204.51,874.352 L 6211.13,875.758 L 6213.22,882.192 L 6025.03,1091.19 Z " />
<path stroke="none" fill="#000000" transform="matrix(0.0666667 0 0 0.0666667 -243.4 -37)" d="M 6213.22,882.192 L 6211.13,875.758 L 6221.77,872.3 L 6494.08,929.768 L 6491.58,941.506 L 6213.22,882.192 Z " />
<path stroke="none" fill="#000000" transform="matrix(0.0666667 0 0 0.0666667 -243.4 -37)" d="M 6213.45,864.811 L 6211.13,875.758 L 6204.51,874.352 L 6116.42,603.708 L 6127.83,600 L 6213.45,864.811 Z " />
<path stroke="none" fill="#000000" transform="matrix(0.0666667 0 0 0.0666667 -243.4 -37)" d="M 6221.77,872.3 L 6211.13,875.758 L 6213.45,864.811 L 6399.38,657.718 L 6408.29,665.747 L 6221.77,872.3 Z " />
<path stroke="none" fill="#000000" transform="matrix(0.0666667 0 0 0.0666667 -243.4 -37)" d="M 4783.67,1083.35 L 4781.58,1089.78 L 4774.97,1091.19 L 4586.78,882.192 L 4588.87,875.758 L 4599.52,879.217 L 4783.67,1083.35 Z " />
<path stroke="none" fill="#000000" transform="matrix(0.0666667 0 0 0.0666667 -243.4 -37)" d="M 4584.35,870.731 L 4588.87,875.758 L 4586.78,882.192 L 4308.42,941.506 L 4305.92,929.768 L 4584.35,870.731 Z " />
<path stroke="none" fill="#000000" transform="matrix(0.0666667 0 0 0.0666667 -243.4 -37)" d="M 4597.19,868.269 L 4588.87,875.758 L 4584.35,870.731 L 4672.17,600 L 4683.58,603.708 L 4597.19,868.269 Z " />
<path stroke="none" fill="#000000" transform="matrix(0.0666667 0 0 0.0666667 -243.4 -37)" d="M 4599.52,879.217 L 4588.87,875.758 L 4597.19,868.269 L 4869.33,810.011 L 4871.83,821.749 L 4599.52,879.217 Z " />
<path stroke="none" fill="#000000" transform="matrix(0.0666667 0 0 0.0666667 -243.4 -37)" d="M 5655.28,2122.39 L 5649.42,2119.12 L 5649.52,2112.4 L 5797.66,2026.6 L 5803.66,2036.99 L 5655.28,2122.39 Z " />
<path stroke="none" fill="#000000" transform="matrix(0.0666667 0 0 0.0666667 -243.4 -37)" d="M 5908.61,1880.65 L 5896.62,1880.17 L 5908.71,1582.36 L 5914.7,1577.71 L 5920.53,1580.08 L 5908.61,1880.65 Z " />
<path stroke="none" fill="#000000" transform="matrix(0.0666667 0 0 0.0666667 -243.4 -37)" d="M 5988.52,2029.01 L 5994.1,2018.39 L 6251.79,2153.85 L 6250.93,2160.07 L 6243.9,2162.93 L 5988.52,2029.01 Z " />
<path stroke="none" fill="#000000" transform="matrix(0.0666667 0 0 0.0666667 -243.4 -37)" d="M 5150.5,2112.4 L 5150.58,2119.12 L 5144.72,2122.4 L 4989.54,2033.07 L 4995.54,2022.68 L 5150.5,2112.4 Z " />
<path stroke="none" fill="#000000" transform="matrix(0.0666667 0 0 0.0666667 -243.4 -37)" d="M 4903.38,1880.17 L 4891.39,1880.65 L 4879.47,1580.08 L 4885.3,1577.71 L 4891.29,1582.36 L 4903.38,1880.17 Z " />
<path stroke="none" fill="#000000" transform="matrix(0.0666667 0 0 0.0666667 -243.4 -37)" d="M 4801.06,2020.93 L 4806.64,2031.55 L 4556.09,2162.93 L 4549.07,2160.07 L 4548.21,2153.85 L 4801.06,2020.93 Z " />
</svg>
