<?xml version="1.0"?>
<svg version="1.1" id="topsvg"
xmlns="http://www.w3.org/2000/svg" xmlns:xlink="http://www.w3.org/1999/xlink"
xmlns:cml="http://www.xml-cml.org/schema" x="0" y="0" width="200px" height="200px" viewBox="0 0 100 100">
<title>GD276.sdf - Open Babel Depiction</title>
<rect x="0" y="0" width="100" height="100" fill="white"/>
<g transform="translate(0,0)">
<svg width="100" height="100" x="0" y="0" viewBox="0 0 574.501 551.791"
font-family="sans-serif" stroke="rgb(0,0,0)" stroke-width="3"  stroke-linecap="round">
<line x1="177.7" y1="272.8" x2="158.0" y2="306.8" opacity="1.0" stroke="rgb(0,0,0)"  stroke-width="3"/>
<line x1="158.0" y1="238.7" x2="118.7" y2="238.7" opacity="1.0" stroke="rgb(0,0,0)"  stroke-width="3"/>
<line x1="284.7" y1="345.6" x2="284.7" y2="433.1" opacity="1.0" stroke="rgb(0,0,0)"  stroke-width="3"/>
<line x1="318.8" y1="452.8" x2="352.9" y2="433.1" opacity="1.0" stroke="rgb(0,0,0)"  stroke-width="3"/>
<line x1="421.0" y1="433.1" x2="455.1" y2="452.8" opacity="1.0" stroke="rgb(0,0,0)"  stroke-width="3"/>
<line x1="455.1" y1="452.8" x2="489.1" y2="472.5" opacity="1.0" stroke="rgb(0,0,0)"  stroke-width="3"/>
<line x1="455.1" y1="452.8" x2="455.1" y2="492.1" opacity="1.0" stroke="rgb(0,0,0)"  stroke-width="3"/>
<line x1="455.1" y1="452.8" x2="489.1" y2="433.1" opacity="1.0" stroke="rgb(0,0,0)"  stroke-width="3"/>
<line x1="386.9" y1="374.1" x2="386.9" y2="334.8" opacity="1.0" stroke="rgb(0,0,0)"  stroke-width="3"/>
<line x1="386.9" y1="334.8" x2="352.9" y2="315.1" opacity="1.0" stroke="rgb(0,0,0)"  stroke-width="3"/>
<line x1="386.9" y1="334.8" x2="386.9" y2="295.4" opacity="1.0" stroke="rgb(0,0,0)"  stroke-width="3"/>
<line x1="386.9" y1="334.8" x2="421.0" y2="315.1" opacity="1.0" stroke="rgb(0,0,0)"  stroke-width="3"/>
<line x1="177.7" y1="272.8" x2="158.0" y2="238.7" opacity="1.0" stroke="rgb(0,0,0)"  stroke-width="3"/>
<line x1="180.9" y1="264.0" x2="167.3" y2="240.3" opacity="1.0" stroke="rgb(0,0,0)"  stroke-width="3"/>
<line x1="158.0" y1="238.7" x2="182.5" y2="207.9" opacity="1.0" stroke="rgb(0,0,0)"  stroke-width="3"/>
<line x1="182.5" y1="207.9" x2="216.6" y2="227.6" opacity="1.0" stroke="rgb(0,0,0)"  stroke-width="3"/>
<line x1="184.1" y1="217.2" x2="207.8" y2="230.8" opacity="1.0" stroke="rgb(0,0,0)"  stroke-width="3"/>
<line x1="216.6" y1="227.6" x2="216.6" y2="253.9" opacity="1.0" stroke="rgb(0,0,0)"  stroke-width="3"/>
<line x1="203.7" y1="268.9" x2="177.7" y2="272.8" opacity="1.0" stroke="rgb(0,0,0)"  stroke-width="3"/>
<line x1="365.8" y1="267.7" x2="406.1" y2="270.1" opacity="1.0" stroke="rgb(0,0,0)"  stroke-width="3"/>
<line x1="406.1" y1="270.1" x2="417.7" y2="232.5" opacity="1.0" stroke="rgb(0,0,0)"  stroke-width="3"/>
<line x1="401.0" y1="262.2" x2="409.0" y2="236.1" opacity="1.0" stroke="rgb(0,0,0)"  stroke-width="3"/>
<line x1="417.7" y1="232.5" x2="386.9" y2="207.9" opacity="1.0" stroke="rgb(0,0,0)"  stroke-width="3"/>
<line x1="386.9" y1="207.9" x2="352.9" y2="227.6" opacity="1.0" stroke="rgb(0,0,0)"  stroke-width="3"/>
<line x1="385.3" y1="217.2" x2="361.7" y2="230.8" opacity="1.0" stroke="rgb(0,0,0)"  stroke-width="3"/>
<line x1="352.9" y1="227.6" x2="352.9" y2="253.9" opacity="1.0" stroke="rgb(0,0,0)"  stroke-width="3"/>
<line x1="362.9" y1="110.9" x2="352.9" y2="148.9" opacity="1.0" stroke="rgb(0,0,0)"  stroke-width="3"/>
<line x1="352.9" y1="148.9" x2="386.9" y2="168.6" opacity="1.0" stroke="rgb(0,0,0)"  stroke-width="3"/>
<line x1="361.7" y1="145.7" x2="385.3" y2="159.4" opacity="1.0" stroke="rgb(0,0,0)"  stroke-width="3"/>
<line x1="386.9" y1="168.6" x2="407.5" y2="152.2" opacity="1.0" stroke="rgb(0,0,0)"  stroke-width="3"/>
<line x1="412.5" y1="132.1" x2="402.1" y2="107.9" opacity="1.0" stroke="rgb(0,0,0)"  stroke-width="3"/>
<line x1="402.1" y1="107.9" x2="362.9" y2="110.9" opacity="1.0" stroke="rgb(0,0,0)"  stroke-width="3"/>
<line x1="396.7" y1="115.6" x2="369.4" y2="117.6" opacity="1.0" stroke="rgb(0,0,0)"  stroke-width="3"/>
<line x1="177.7" y1="340.9" x2="158.0" y2="306.8" opacity="1.0" stroke="rgb(0,0,0)"  stroke-width="3"/>
<line x1="158.0" y1="306.8" x2="118.7" y2="306.8" opacity="1.0" stroke="rgb(0,0,0)"  stroke-width="3"/>
<line x1="152.0" y1="314.0" x2="124.7" y2="314.0" opacity="1.0" stroke="rgb(0,0,0)"  stroke-width="3"/>
<line x1="118.7" y1="306.8" x2="99.0" y2="340.9" opacity="1.0" stroke="rgb(0,0,0)"  stroke-width="3"/>
<line x1="99.0" y1="340.9" x2="118.7" y2="375.0" opacity="1.0" stroke="rgb(0,0,0)"  stroke-width="3"/>
<line x1="108.2" y1="342.5" x2="121.9" y2="366.2" opacity="1.0" stroke="rgb(0,0,0)"  stroke-width="3"/>
<line x1="118.7" y1="375.0" x2="158.0" y2="375.0" opacity="1.0" stroke="rgb(0,0,0)"  stroke-width="3"/>
<line x1="158.0" y1="375.0" x2="177.7" y2="340.9" opacity="1.0" stroke="rgb(0,0,0)"  stroke-width="3"/>
<line x1="154.8" y1="366.2" x2="168.5" y2="342.5" opacity="1.0" stroke="rgb(0,0,0)"  stroke-width="3"/>
<line x1="99.0" y1="272.8" x2="118.7" y2="238.7" opacity="1.0" stroke="rgb(0,0,0)"  stroke-width="3"/>
<line x1="118.7" y1="238.7" x2="99.0" y2="204.6" opacity="1.0" stroke="rgb(0,0,0)"  stroke-width="3"/>
<line x1="109.4" y1="237.1" x2="95.8" y2="213.4" opacity="1.0" stroke="rgb(0,0,0)"  stroke-width="3"/>
<line x1="99.0" y1="204.6" x2="59.7" y2="204.6" opacity="1.0" stroke="rgb(0,0,0)"  stroke-width="3"/>
<line x1="59.7" y1="204.6" x2="40.0" y2="238.7" opacity="1.0" stroke="rgb(0,0,0)"  stroke-width="3"/>
<line x1="62.9" y1="213.4" x2="49.2" y2="237.1" opacity="1.0" stroke="rgb(0,0,0)"  stroke-width="3"/>
<line x1="40.0" y1="238.7" x2="59.7" y2="272.8" opacity="1.0" stroke="rgb(0,0,0)"  stroke-width="3"/>
<line x1="59.7" y1="272.8" x2="99.0" y2="272.8" opacity="1.0" stroke="rgb(0,0,0)"  stroke-width="3"/>
<line x1="65.7" y1="265.6" x2="93.0" y2="265.6" opacity="1.0" stroke="rgb(0,0,0)"  stroke-width="3"/>
<line x1="182.5" y1="207.9" x2="182.5" y2="168.6" opacity="1.0" stroke="rgb(0,0,0)"  stroke-width="3"/>
<line x1="182.5" y1="168.6" x2="216.6" y2="148.9" opacity="1.0" stroke="rgb(0,0,0)"  stroke-width="3"/>
<line x1="191.3" y1="171.8" x2="215.0" y2="158.2" opacity="1.0" stroke="rgb(0,0,0)"  stroke-width="3"/>
<line x1="216.6" y1="148.9" x2="250.7" y2="168.6" opacity="1.0" stroke="rgb(0,0,0)"  stroke-width="3"/>
<line x1="250.7" y1="168.6" x2="250.7" y2="207.9" opacity="1.0" stroke="rgb(0,0,0)"  stroke-width="3"/>
<line x1="243.5" y1="174.6" x2="243.5" y2="201.9" opacity="1.0" stroke="rgb(0,0,0)"  stroke-width="3"/>
<line x1="250.7" y1="207.9" x2="216.6" y2="227.6" opacity="1.0" stroke="rgb(0,0,0)"  stroke-width="3"/>
<line x1="216.6" y1="109.6" x2="216.6" y2="148.9" opacity="1.0" stroke="rgb(0,0,0)"  stroke-width="3"/>
<line x1="250.7" y1="168.6" x2="284.7" y2="148.9" opacity="1.0" stroke="rgb(0,0,0)"  stroke-width="3"/>
<line x1="284.7" y1="148.9" x2="284.7" y2="109.6" opacity="1.0" stroke="rgb(0,0,0)"  stroke-width="3"/>
<line x1="277.5" y1="142.9" x2="277.5" y2="115.6" opacity="1.0" stroke="rgb(0,0,0)"  stroke-width="3"/>
<line x1="284.7" y1="109.6" x2="250.7" y2="89.9" opacity="1.0" stroke="rgb(0,0,0)"  stroke-width="3"/>
<line x1="250.7" y1="89.9" x2="216.6" y2="109.6" opacity="1.0" stroke="rgb(0,0,0)"  stroke-width="3"/>
<line x1="249.1" y1="99.2" x2="225.4" y2="112.8" opacity="1.0" stroke="rgb(0,0,0)"  stroke-width="3"/>
<line x1="284.7" y1="266.9" x2="250.7" y2="286.6" opacity="1.0" stroke="rgb(0,0,0)"  stroke-width="3"/>
<line x1="250.7" y1="286.6" x2="227.8" y2="273.4" opacity="1.0" stroke="rgb(0,0,0)"  stroke-width="3"/>
<line x1="250.7" y1="207.9" x2="273.5" y2="221.1" opacity="1.0" stroke="rgb(0,0,0)"  stroke-width="3"/>
<line x1="284.7" y1="240.6" x2="284.7" y2="266.9" opacity="1.0" stroke="rgb(0,0,0)"  stroke-width="3"/>
<line x1="284.7" y1="345.6" x2="250.7" y2="326.0" opacity="1.0" stroke="rgb(0,0,0)"  stroke-width="3"/>
<line x1="250.7" y1="326.0" x2="250.7" y2="286.6" opacity="1.0" stroke="rgb(0,0,0)"  stroke-width="3"/>
<line x1="257.9" y1="320.0" x2="257.9" y2="292.6" opacity="1.0" stroke="rgb(0,0,0)"  stroke-width="3"/>
<line x1="284.7" y1="266.9" x2="318.8" y2="286.6" opacity="1.0" stroke="rgb(0,0,0)"  stroke-width="3"/>
<line x1="286.3" y1="276.2" x2="310.0" y2="289.9" opacity="1.0" stroke="rgb(0,0,0)"  stroke-width="3"/>
<line x1="318.8" y1="286.6" x2="318.8" y2="326.0" opacity="1.0" stroke="rgb(0,0,0)"  stroke-width="3"/>
<line x1="318.8" y1="326.0" x2="284.7" y2="345.6" opacity="1.0" stroke="rgb(0,0,0)"  stroke-width="3"/>
<line x1="310.0" y1="322.7" x2="286.3" y2="336.4" opacity="1.0" stroke="rgb(0,0,0)"  stroke-width="3"/>
<line x1="471.2" y1="290.1" x2="482.8" y2="252.5" opacity="1.0" stroke="rgb(0,0,0)"  stroke-width="3"/>
<line x1="482.8" y1="252.5" x2="456.0" y2="223.7" opacity="1.0" stroke="rgb(0,0,0)"  stroke-width="3"/>
<line x1="473.4" y1="253.0" x2="454.8" y2="233.0" opacity="1.0" stroke="rgb(0,0,0)"  stroke-width="3"/>
<line x1="456.0" y1="223.7" x2="417.7" y2="232.5" opacity="1.0" stroke="rgb(0,0,0)"  stroke-width="3"/>
<line x1="406.1" y1="270.1" x2="432.9" y2="298.9" opacity="1.0" stroke="rgb(0,0,0)"  stroke-width="3"/>
<line x1="432.9" y1="298.9" x2="471.2" y2="290.1" opacity="1.0" stroke="rgb(0,0,0)"  stroke-width="3"/>
<line x1="437.1" y1="290.5" x2="463.8" y2="284.5" opacity="1.0" stroke="rgb(0,0,0)"  stroke-width="3"/>
<line x1="512.3" y1="191.2" x2="473.1" y2="188.3" opacity="1.0" stroke="rgb(0,0,0)"  stroke-width="3"/>
<line x1="473.1" y1="188.3" x2="456.0" y2="152.8" opacity="1.0" stroke="rgb(0,0,0)"  stroke-width="3"/>
<line x1="477.0" y1="179.7" x2="465.1" y2="155.1" opacity="1.0" stroke="rgb(0,0,0)"  stroke-width="3"/>
<line x1="456.0" y1="152.8" x2="478.2" y2="120.3" opacity="1.0" stroke="rgb(0,0,0)"  stroke-width="3"/>
<line x1="478.2" y1="120.3" x2="517.4" y2="123.3" opacity="1.0" stroke="rgb(0,0,0)"  stroke-width="3"/>
<line x1="483.6" y1="127.9" x2="510.9" y2="130.0" opacity="1.0" stroke="rgb(0,0,0)"  stroke-width="3"/>
<line x1="517.4" y1="123.3" x2="534.5" y2="158.7" opacity="1.0" stroke="rgb(0,0,0)"  stroke-width="3"/>
<line x1="534.5" y1="158.7" x2="512.3" y2="191.2" opacity="1.0" stroke="rgb(0,0,0)"  stroke-width="3"/>
<line x1="525.2" y1="159.6" x2="509.8" y2="182.2" opacity="1.0" stroke="rgb(0,0,0)"  stroke-width="3"/>
<line x1="357.8" y1="42.9" x2="340.7" y2="78.4" opacity="1.0" stroke="rgb(0,0,0)"  stroke-width="3"/>
<line x1="361.7" y1="51.5" x2="349.8" y2="76.1" opacity="1.0" stroke="rgb(0,0,0)"  stroke-width="3"/>
<line x1="340.7" y1="78.4" x2="362.9" y2="110.9" opacity="1.0" stroke="rgb(0,0,0)"  stroke-width="3"/>
<line x1="402.1" y1="107.9" x2="419.2" y2="72.5" opacity="1.0" stroke="rgb(0,0,0)"  stroke-width="3"/>
<line x1="419.2" y1="72.5" x2="397.0" y2="40.0" opacity="1.0" stroke="rgb(0,0,0)"  stroke-width="3"/>
<line x1="409.9" y1="71.6" x2="394.5" y2="49.0" opacity="1.0" stroke="rgb(0,0,0)"  stroke-width="3"/>
<line x1="397.0" y1="40.0" x2="357.8" y2="42.9" opacity="1.0" stroke="rgb(0,0,0)"  stroke-width="3"/>
<line x1="318.8" y1="168.6" x2="318.8" y2="207.9" opacity="1.0" stroke="rgb(0,0,0)"  stroke-width="3"/>
<line x1="326.0" y1="174.6" x2="326.0" y2="201.9" opacity="1.0" stroke="rgb(0,0,0)"  stroke-width="3"/>
<line x1="318.8" y1="207.9" x2="352.9" y2="227.6" opacity="1.0" stroke="rgb(0,0,0)"  stroke-width="3"/>
<line x1="386.9" y1="207.9" x2="386.9" y2="168.6" opacity="1.0" stroke="rgb(0,0,0)"  stroke-width="3"/>
<line x1="352.9" y1="148.9" x2="318.8" y2="168.6" opacity="1.0" stroke="rgb(0,0,0)"  stroke-width="3"/>
<line x1="318.8" y1="286.6" x2="341.6" y2="273.4" opacity="1.0" stroke="rgb(0,0,0)"  stroke-width="3"/>
<line x1="318.8" y1="207.9" x2="296.0" y2="221.1" opacity="1.0" stroke="rgb(0,0,0)"  stroke-width="3"/>
<line x1="386.9" y1="452.8" x2="352.9" y2="433.1" opacity="1.0" stroke="rgb(0,0,0)"  stroke-width="3"/>
<line x1="352.9" y1="433.1" x2="352.9" y2="393.8" opacity="1.0" stroke="rgb(0,0,0)"  stroke-width="3"/>
<line x1="360.1" y1="427.1" x2="360.1" y2="399.8" opacity="1.0" stroke="rgb(0,0,0)"  stroke-width="3"/>
<line x1="352.9" y1="393.8" x2="386.9" y2="374.1" opacity="1.0" stroke="rgb(0,0,0)"  stroke-width="3"/>
<line x1="386.9" y1="374.1" x2="421.0" y2="393.8" opacity="1.0" stroke="rgb(0,0,0)"  stroke-width="3"/>
<line x1="388.5" y1="383.3" x2="412.2" y2="397.0" opacity="1.0" stroke="rgb(0,0,0)"  stroke-width="3"/>
<line x1="421.0" y1="393.8" x2="421.0" y2="433.1" opacity="1.0" stroke="rgb(0,0,0)"  stroke-width="3"/>
<line x1="421.0" y1="433.1" x2="386.9" y2="452.8" opacity="1.0" stroke="rgb(0,0,0)"  stroke-width="3"/>
<line x1="412.2" y1="429.9" x2="388.5" y2="443.5" opacity="1.0" stroke="rgb(0,0,0)"  stroke-width="3"/>
<line x1="318.8" y1="452.8" x2="284.7" y2="433.1" opacity="1.0" stroke="rgb(0,0,0)"  stroke-width="3"/>
<line x1="284.7" y1="433.1" x2="250.7" y2="452.8" opacity="1.0" stroke="rgb(0,0,0)"  stroke-width="3"/>
<line x1="283.1" y1="442.3" x2="259.5" y2="456.0" opacity="1.0" stroke="rgb(0,0,0)"  stroke-width="3"/>
<line x1="250.7" y1="452.8" x2="250.7" y2="492.1" opacity="1.0" stroke="rgb(0,0,0)"  stroke-width="3"/>
<line x1="250.7" y1="492.1" x2="284.7" y2="511.8" opacity="1.0" stroke="rgb(0,0,0)"  stroke-width="3"/>
<line x1="259.5" y1="488.9" x2="283.1" y2="502.6" opacity="1.0" stroke="rgb(0,0,0)"  stroke-width="3"/>
<line x1="284.7" y1="511.8" x2="318.8" y2="492.1" opacity="1.0" stroke="rgb(0,0,0)"  stroke-width="3"/>
<line x1="318.8" y1="492.1" x2="318.8" y2="452.8" opacity="1.0" stroke="rgb(0,0,0)"  stroke-width="3"/>
<line x1="311.6" y1="486.1" x2="311.6" y2="458.8" opacity="1.0" stroke="rgb(0,0,0)"  stroke-width="3"/>
<line x1="456.0" y1="223.7" x2="473.1" y2="188.3" opacity="1.0" stroke="rgb(0,0,0)"  stroke-width="3"/>
<line x1="456.0" y1="152.8" x2="430.4" y2="147.0" opacity="1.0" stroke="rgb(0,0,0)"  stroke-width="3"/>
<text x="411.689860" y="152.070334" fill="rgb(12,12,255)" stroke-width="0" font-weight="bold" font-size="25.92" >N</text>
<text x="210.590398" y="274.945289" fill="rgb(12,12,255)" stroke-width="0" font-weight="bold" font-size="25.92" >N</text>
<text x="346.864746" y="274.945289" fill="rgb(12,12,255)" stroke-width="0" font-weight="bold" font-size="25.92" >N</text>
<text x="278.727572" y="235.606276" fill="rgb(255,181,181)" stroke-width="0" font-weight="bold" font-size="25.92" >B</text>
</svg>
</g>
</svg>
