<?xml version="1.0"?>
<svg version="1.1" id="topsvg"
xmlns="http://www.w3.org/2000/svg" xmlns:xlink="http://www.w3.org/1999/xlink"
xmlns:cml="http://www.xml-cml.org/schema" x="0" y="0" width="200px" height="200px" viewBox="0 0 100 100">
<title>GD271.sdf - Open Babel Depiction</title>
<rect x="0" y="0" width="100" height="100" fill="white"/>
<g transform="translate(0,0)">
<svg width="100" height="100" x="0" y="0" viewBox="0 0 589.692 602.186"
font-family="sans-serif" stroke="rgb(0,0,0)" stroke-width="3"  stroke-linecap="round">
<line x1="131.3" y1="178.0" x2="108.4" y2="191.3" opacity="1.0" stroke="rgb(0,0,0)"  stroke-width="3"/>
<line x1="414.3" y1="112.5" x2="437.2" y2="99.2" opacity="1.0" stroke="rgb(0,0,0)"  stroke-width="3"/>
<line x1="302.0" y1="351.6" x2="291.0" y2="413.8" opacity="1.0" stroke="rgb(0,0,0)"  stroke-width="3"/>
<line x1="316.4" y1="444.0" x2="355.3" y2="450.9" opacity="1.0" stroke="rgb(0,0,0)"  stroke-width="3"/>
<line x1="433.0" y1="464.6" x2="471.9" y2="471.4" opacity="1.0" stroke="rgb(0,0,0)"  stroke-width="3"/>
<line x1="171.1" y1="259.3" x2="190.9" y2="225.1" opacity="1.0" stroke="rgb(0,0,0)"  stroke-width="3"/>
<line x1="190.9" y1="225.1" x2="229.5" y2="233.3" opacity="1.0" stroke="rgb(0,0,0)"  stroke-width="3"/>
<line x1="195.2" y1="233.4" x2="222.1" y2="239.1" opacity="1.0" stroke="rgb(0,0,0)"  stroke-width="3"/>
<line x1="229.5" y1="233.3" x2="232.2" y2="259.7" opacity="1.0" stroke="rgb(0,0,0)"  stroke-width="3"/>
<line x1="221.7" y1="277.9" x2="197.5" y2="288.7" opacity="1.0" stroke="rgb(0,0,0)"  stroke-width="3"/>
<line x1="197.5" y1="288.7" x2="171.1" y2="259.3" opacity="1.0" stroke="rgb(0,0,0)"  stroke-width="3"/>
<line x1="198.9" y1="279.4" x2="180.5" y2="259.0" opacity="1.0" stroke="rgb(0,0,0)"  stroke-width="3"/>
<line x1="146.7" y1="132.2" x2="185.3" y2="124.0" opacity="1.0" stroke="rgb(0,0,0)"  stroke-width="3"/>
<line x1="154.1" y1="138.0" x2="181.0" y2="132.3" opacity="1.0" stroke="rgb(0,0,0)"  stroke-width="3"/>
<line x1="185.3" y1="124.0" x2="205.1" y2="158.2" opacity="1.0" stroke="rgb(0,0,0)"  stroke-width="3"/>
<line x1="205.1" y1="158.2" x2="178.6" y2="187.6" opacity="1.0" stroke="rgb(0,0,0)"  stroke-width="3"/>
<line x1="195.7" y1="157.9" x2="177.3" y2="178.3" opacity="1.0" stroke="rgb(0,0,0)"  stroke-width="3"/>
<line x1="178.6" y1="187.6" x2="154.5" y2="176.8" opacity="1.0" stroke="rgb(0,0,0)"  stroke-width="3"/>
<line x1="143.9" y1="158.6" x2="146.7" y2="132.2" opacity="1.0" stroke="rgb(0,0,0)"  stroke-width="3"/>
<line x1="432.9" y1="259.3" x2="406.4" y2="288.7" opacity="1.0" stroke="rgb(0,0,0)"  stroke-width="3"/>
<line x1="423.5" y1="259.0" x2="405.1" y2="279.4" opacity="1.0" stroke="rgb(0,0,0)"  stroke-width="3"/>
<line x1="406.4" y1="288.7" x2="382.2" y2="277.9" opacity="1.0" stroke="rgb(0,0,0)"  stroke-width="3"/>
<line x1="371.7" y1="259.7" x2="374.5" y2="233.3" opacity="1.0" stroke="rgb(0,0,0)"  stroke-width="3"/>
<line x1="374.5" y1="233.3" x2="413.1" y2="225.1" opacity="1.0" stroke="rgb(0,0,0)"  stroke-width="3"/>
<line x1="381.9" y1="239.1" x2="408.7" y2="233.4" opacity="1.0" stroke="rgb(0,0,0)"  stroke-width="3"/>
<line x1="413.1" y1="225.1" x2="432.9" y2="259.3" opacity="1.0" stroke="rgb(0,0,0)"  stroke-width="3"/>
<line x1="367.0" y1="102.9" x2="391.2" y2="113.7" opacity="1.0" stroke="rgb(0,0,0)"  stroke-width="3"/>
<line x1="401.7" y1="131.9" x2="398.9" y2="158.2" opacity="1.0" stroke="rgb(0,0,0)"  stroke-width="3"/>
<line x1="398.9" y1="158.2" x2="360.3" y2="166.4" opacity="1.0" stroke="rgb(0,0,0)"  stroke-width="3"/>
<line x1="360.3" y1="166.4" x2="340.5" y2="132.2" opacity="1.0" stroke="rgb(0,0,0)"  stroke-width="3"/>
<line x1="340.5" y1="132.2" x2="367.0" y2="102.9" opacity="1.0" stroke="rgb(0,0,0)"  stroke-width="3"/>
<line x1="349.9" y1="132.6" x2="368.3" y2="112.2" opacity="1.0" stroke="rgb(0,0,0)"  stroke-width="3"/>
<line x1="267.8" y1="331.8" x2="302.0" y2="351.6" opacity="1.0" stroke="rgb(0,0,0)"  stroke-width="3"/>
<line x1="302.0" y1="351.6" x2="336.2" y2="331.8" opacity="1.0" stroke="rgb(0,0,0)"  stroke-width="3"/>
<line x1="303.6" y1="342.3" x2="327.4" y2="328.6" opacity="1.0" stroke="rgb(0,0,0)"  stroke-width="3"/>
<line x1="336.2" y1="331.8" x2="336.2" y2="292.3" opacity="1.0" stroke="rgb(0,0,0)"  stroke-width="3"/>
<line x1="336.2" y1="292.3" x2="302.0" y2="272.6" opacity="1.0" stroke="rgb(0,0,0)"  stroke-width="3"/>
<line x1="327.4" y1="295.6" x2="303.6" y2="281.8" opacity="1.0" stroke="rgb(0,0,0)"  stroke-width="3"/>
<line x1="302.0" y1="272.6" x2="267.8" y2="292.3" opacity="1.0" stroke="rgb(0,0,0)"  stroke-width="3"/>
<line x1="267.8" y1="292.3" x2="267.8" y2="331.8" opacity="1.0" stroke="rgb(0,0,0)"  stroke-width="3"/>
<line x1="275.0" y1="298.3" x2="275.0" y2="325.8" opacity="1.0" stroke="rgb(0,0,0)"  stroke-width="3"/>
<line x1="229.5" y1="233.3" x2="255.9" y2="204.0" opacity="1.0" stroke="rgb(0,0,0)"  stroke-width="3"/>
<line x1="255.9" y1="204.0" x2="291.0" y2="226.2" opacity="1.0" stroke="rgb(0,0,0)"  stroke-width="3"/>
<line x1="302.0" y1="246.1" x2="302.0" y2="272.6" opacity="1.0" stroke="rgb(0,0,0)"  stroke-width="3"/>
<line x1="267.8" y1="292.3" x2="244.9" y2="279.1" opacity="1.0" stroke="rgb(0,0,0)"  stroke-width="3"/>
<line x1="132.5" y1="65.4" x2="171.1" y2="57.1" opacity="1.0" stroke="rgb(0,0,0)"  stroke-width="3"/>
<line x1="171.1" y1="57.1" x2="197.5" y2="86.5" opacity="1.0" stroke="rgb(0,0,0)"  stroke-width="3"/>
<line x1="169.8" y1="66.4" x2="188.2" y2="86.8" opacity="1.0" stroke="rgb(0,0,0)"  stroke-width="3"/>
<line x1="197.5" y1="86.5" x2="185.3" y2="124.0" opacity="1.0" stroke="rgb(0,0,0)"  stroke-width="3"/>
<line x1="146.7" y1="132.2" x2="120.3" y2="102.9" opacity="1.0" stroke="rgb(0,0,0)"  stroke-width="3"/>
<line x1="120.3" y1="102.9" x2="132.5" y2="65.4" opacity="1.0" stroke="rgb(0,0,0)"  stroke-width="3"/>
<line x1="129.0" y1="99.4" x2="137.5" y2="73.3" opacity="1.0" stroke="rgb(0,0,0)"  stroke-width="3"/>
<line x1="146.7" y1="334.4" x2="120.3" y2="305.1" opacity="1.0" stroke="rgb(0,0,0)"  stroke-width="3"/>
<line x1="120.3" y1="305.1" x2="132.5" y2="267.5" opacity="1.0" stroke="rgb(0,0,0)"  stroke-width="3"/>
<line x1="129.0" y1="301.6" x2="137.5" y2="275.5" opacity="1.0" stroke="rgb(0,0,0)"  stroke-width="3"/>
<line x1="132.5" y1="267.5" x2="171.1" y2="259.3" opacity="1.0" stroke="rgb(0,0,0)"  stroke-width="3"/>
<line x1="197.5" y1="288.7" x2="185.3" y2="326.2" opacity="1.0" stroke="rgb(0,0,0)"  stroke-width="3"/>
<line x1="185.3" y1="326.2" x2="146.7" y2="334.4" opacity="1.0" stroke="rgb(0,0,0)"  stroke-width="3"/>
<line x1="178.0" y1="320.4" x2="151.1" y2="326.1" opacity="1.0" stroke="rgb(0,0,0)"  stroke-width="3"/>
<line x1="359.1" y1="279.1" x2="336.2" y2="292.3" opacity="1.0" stroke="rgb(0,0,0)"  stroke-width="3"/>
<line x1="313.0" y1="226.2" x2="348.1" y2="204.0" opacity="1.0" stroke="rgb(0,0,0)"  stroke-width="3"/>
<line x1="348.1" y1="204.0" x2="374.5" y2="233.3" opacity="1.0" stroke="rgb(0,0,0)"  stroke-width="3"/>
<line x1="483.7" y1="305.1" x2="457.3" y2="334.4" opacity="1.0" stroke="rgb(0,0,0)"  stroke-width="3"/>
<line x1="457.3" y1="334.4" x2="418.6" y2="326.2" opacity="1.0" stroke="rgb(0,0,0)"  stroke-width="3"/>
<line x1="452.9" y1="326.1" x2="426.0" y2="320.4" opacity="1.0" stroke="rgb(0,0,0)"  stroke-width="3"/>
<line x1="418.6" y1="326.2" x2="406.4" y2="288.7" opacity="1.0" stroke="rgb(0,0,0)"  stroke-width="3"/>
<line x1="432.9" y1="259.3" x2="471.5" y2="267.5" opacity="1.0" stroke="rgb(0,0,0)"  stroke-width="3"/>
<line x1="471.5" y1="267.5" x2="483.7" y2="305.1" opacity="1.0" stroke="rgb(0,0,0)"  stroke-width="3"/>
<line x1="466.5" y1="275.5" x2="475.0" y2="301.6" opacity="1.0" stroke="rgb(0,0,0)"  stroke-width="3"/>
<line x1="190.9" y1="225.1" x2="178.6" y2="187.6" opacity="1.0" stroke="rgb(0,0,0)"  stroke-width="3"/>
<line x1="205.1" y1="158.2" x2="243.7" y2="166.4" opacity="1.0" stroke="rgb(0,0,0)"  stroke-width="3"/>
<line x1="243.7" y1="166.4" x2="255.9" y2="204.0" opacity="1.0" stroke="rgb(0,0,0)"  stroke-width="3"/>
<line x1="238.7" y1="174.4" x2="247.2" y2="200.5" opacity="1.0" stroke="rgb(0,0,0)"  stroke-width="3"/>
<line x1="74.2" y1="171.5" x2="40.0" y2="191.3" opacity="1.0" stroke="rgb(0,0,0)"  stroke-width="3"/>
<line x1="40.0" y1="191.3" x2="40.0" y2="230.7" opacity="1.0" stroke="rgb(0,0,0)"  stroke-width="3"/>
<line x1="47.2" y1="197.3" x2="47.2" y2="224.7" opacity="1.0" stroke="rgb(0,0,0)"  stroke-width="3"/>
<line x1="40.0" y1="230.7" x2="74.2" y2="250.5" opacity="1.0" stroke="rgb(0,0,0)"  stroke-width="3"/>
<line x1="74.2" y1="250.5" x2="108.4" y2="230.7" opacity="1.0" stroke="rgb(0,0,0)"  stroke-width="3"/>
<line x1="75.8" y1="241.2" x2="99.6" y2="227.5" opacity="1.0" stroke="rgb(0,0,0)"  stroke-width="3"/>
<line x1="108.4" y1="230.7" x2="108.4" y2="191.3" opacity="1.0" stroke="rgb(0,0,0)"  stroke-width="3"/>
<line x1="108.4" y1="191.3" x2="74.2" y2="171.5" opacity="1.0" stroke="rgb(0,0,0)"  stroke-width="3"/>
<line x1="99.6" y1="194.5" x2="75.8" y2="180.8" opacity="1.0" stroke="rgb(0,0,0)"  stroke-width="3"/>
<line x1="360.3" y1="166.4" x2="348.1" y2="204.0" opacity="1.0" stroke="rgb(0,0,0)"  stroke-width="3"/>
<line x1="365.3" y1="174.4" x2="356.8" y2="200.5" opacity="1.0" stroke="rgb(0,0,0)"  stroke-width="3"/>
<line x1="413.1" y1="225.1" x2="425.3" y2="187.6" opacity="1.0" stroke="rgb(0,0,0)"  stroke-width="3"/>
<line x1="425.3" y1="187.6" x2="398.9" y2="158.2" opacity="1.0" stroke="rgb(0,0,0)"  stroke-width="3"/>
<line x1="416.0" y1="187.9" x2="397.6" y2="167.5" opacity="1.0" stroke="rgb(0,0,0)"  stroke-width="3"/>
<line x1="289.7" y1="86.5" x2="301.9" y2="124.0" opacity="1.0" stroke="rgb(0,0,0)"  stroke-width="3"/>
<line x1="298.4" y1="90.0" x2="306.9" y2="116.1" opacity="1.0" stroke="rgb(0,0,0)"  stroke-width="3"/>
<line x1="301.9" y1="124.0" x2="340.5" y2="132.2" opacity="1.0" stroke="rgb(0,0,0)"  stroke-width="3"/>
<line x1="367.0" y1="102.9" x2="354.8" y2="65.4" opacity="1.0" stroke="rgb(0,0,0)"  stroke-width="3"/>
<line x1="354.8" y1="65.4" x2="316.1" y2="57.1" opacity="1.0" stroke="rgb(0,0,0)"  stroke-width="3"/>
<line x1="347.4" y1="71.2" x2="320.5" y2="65.4" opacity="1.0" stroke="rgb(0,0,0)"  stroke-width="3"/>
<line x1="316.1" y1="57.1" x2="289.7" y2="86.5" opacity="1.0" stroke="rgb(0,0,0)"  stroke-width="3"/>
<line x1="471.4" y1="119.0" x2="505.6" y2="99.2" opacity="1.0" stroke="rgb(0,0,0)"  stroke-width="3"/>
<line x1="505.6" y1="99.2" x2="505.6" y2="59.7" opacity="1.0" stroke="rgb(0,0,0)"  stroke-width="3"/>
<line x1="498.4" y1="93.2" x2="498.4" y2="65.7" opacity="1.0" stroke="rgb(0,0,0)"  stroke-width="3"/>
<line x1="505.6" y1="59.7" x2="471.4" y2="40.0" opacity="1.0" stroke="rgb(0,0,0)"  stroke-width="3"/>
<line x1="471.4" y1="40.0" x2="437.2" y2="59.7" opacity="1.0" stroke="rgb(0,0,0)"  stroke-width="3"/>
<line x1="469.8" y1="49.2" x2="446.0" y2="63.0" opacity="1.0" stroke="rgb(0,0,0)"  stroke-width="3"/>
<line x1="437.2" y1="59.7" x2="437.2" y2="99.2" opacity="1.0" stroke="rgb(0,0,0)"  stroke-width="3"/>
<line x1="437.2" y1="99.2" x2="471.4" y2="119.0" opacity="1.0" stroke="rgb(0,0,0)"  stroke-width="3"/>
<line x1="446.0" y1="96.0" x2="469.8" y2="109.7" opacity="1.0" stroke="rgb(0,0,0)"  stroke-width="3"/>
<line x1="252.1" y1="420.6" x2="238.6" y2="457.7" opacity="1.0" stroke="rgb(0,0,0)"  stroke-width="3"/>
<line x1="238.6" y1="457.7" x2="264.0" y2="488.0" opacity="1.0" stroke="rgb(0,0,0)"  stroke-width="3"/>
<line x1="248.0" y1="457.7" x2="265.7" y2="478.8" opacity="1.0" stroke="rgb(0,0,0)"  stroke-width="3"/>
<line x1="264.0" y1="488.0" x2="302.9" y2="481.1" opacity="1.0" stroke="rgb(0,0,0)"  stroke-width="3"/>
<line x1="302.9" y1="481.1" x2="316.4" y2="444.0" opacity="1.0" stroke="rgb(0,0,0)"  stroke-width="3"/>
<line x1="298.2" y1="473.0" x2="307.6" y2="447.2" opacity="1.0" stroke="rgb(0,0,0)"  stroke-width="3"/>
<line x1="316.4" y1="444.0" x2="291.0" y2="413.8" opacity="1.0" stroke="rgb(0,0,0)"  stroke-width="3"/>
<line x1="291.0" y1="413.8" x2="252.1" y2="420.6" opacity="1.0" stroke="rgb(0,0,0)"  stroke-width="3"/>
<line x1="286.4" y1="421.9" x2="259.3" y2="426.7" opacity="1.0" stroke="rgb(0,0,0)"  stroke-width="3"/>
<line x1="368.8" y1="488.0" x2="407.7" y2="494.8" opacity="1.0" stroke="rgb(0,0,0)"  stroke-width="3"/>
<line x1="407.7" y1="494.8" x2="433.0" y2="464.6" opacity="1.0" stroke="rgb(0,0,0)"  stroke-width="3"/>
<line x1="406.0" y1="485.6" x2="423.7" y2="464.6" opacity="1.0" stroke="rgb(0,0,0)"  stroke-width="3"/>
<line x1="433.0" y1="464.6" x2="419.5" y2="427.5" opacity="1.0" stroke="rgb(0,0,0)"  stroke-width="3"/>
<line x1="419.5" y1="427.5" x2="380.7" y2="420.6" opacity="1.0" stroke="rgb(0,0,0)"  stroke-width="3"/>
<line x1="412.4" y1="433.5" x2="385.3" y2="428.8" opacity="1.0" stroke="rgb(0,0,0)"  stroke-width="3"/>
<line x1="380.7" y1="420.6" x2="355.3" y2="450.9" opacity="1.0" stroke="rgb(0,0,0)"  stroke-width="3"/>
<line x1="355.3" y1="450.9" x2="368.8" y2="488.0" opacity="1.0" stroke="rgb(0,0,0)"  stroke-width="3"/>
<line x1="364.1" y1="454.1" x2="373.5" y2="479.9" opacity="1.0" stroke="rgb(0,0,0)"  stroke-width="3"/>
<line x1="395.8" y1="562.2" x2="421.2" y2="531.9" opacity="1.0" stroke="rgb(0,0,0)"  stroke-width="3"/>
<line x1="394.1" y1="553.0" x2="411.8" y2="531.9" opacity="1.0" stroke="rgb(0,0,0)"  stroke-width="3"/>
<line x1="421.2" y1="531.9" x2="407.7" y2="494.8" opacity="1.0" stroke="rgb(0,0,0)"  stroke-width="3"/>
<line x1="368.8" y1="488.0" x2="343.4" y2="518.2" opacity="1.0" stroke="rgb(0,0,0)"  stroke-width="3"/>
<line x1="343.4" y1="518.2" x2="356.9" y2="555.3" opacity="1.0" stroke="rgb(0,0,0)"  stroke-width="3"/>
<line x1="352.2" y1="521.4" x2="361.6" y2="547.2" opacity="1.0" stroke="rgb(0,0,0)"  stroke-width="3"/>
<line x1="356.9" y1="555.3" x2="395.8" y2="562.2" opacity="1.0" stroke="rgb(0,0,0)"  stroke-width="3"/>
<line x1="392.5" y1="353.3" x2="367.2" y2="383.5" opacity="1.0" stroke="rgb(0,0,0)"  stroke-width="3"/>
<line x1="394.2" y1="362.5" x2="376.5" y2="383.6" opacity="1.0" stroke="rgb(0,0,0)"  stroke-width="3"/>
<line x1="367.2" y1="383.5" x2="380.7" y2="420.6" opacity="1.0" stroke="rgb(0,0,0)"  stroke-width="3"/>
<line x1="419.5" y1="427.5" x2="444.9" y2="397.2" opacity="1.0" stroke="rgb(0,0,0)"  stroke-width="3"/>
<line x1="444.9" y1="397.2" x2="431.4" y2="360.1" opacity="1.0" stroke="rgb(0,0,0)"  stroke-width="3"/>
<line x1="436.1" y1="394.1" x2="426.7" y2="368.2" opacity="1.0" stroke="rgb(0,0,0)"  stroke-width="3"/>
<line x1="431.4" y1="360.1" x2="392.5" y2="353.3" opacity="1.0" stroke="rgb(0,0,0)"  stroke-width="3"/>
<line x1="485.4" y1="508.6" x2="524.3" y2="515.4" opacity="1.0" stroke="rgb(0,0,0)"  stroke-width="3"/>
<line x1="524.3" y1="515.4" x2="549.7" y2="485.2" opacity="1.0" stroke="rgb(0,0,0)"  stroke-width="3"/>
<line x1="522.7" y1="506.2" x2="540.3" y2="485.1" opacity="1.0" stroke="rgb(0,0,0)"  stroke-width="3"/>
<line x1="549.7" y1="485.2" x2="536.2" y2="448.1" opacity="1.0" stroke="rgb(0,0,0)"  stroke-width="3"/>
<line x1="536.2" y1="448.1" x2="497.3" y2="441.2" opacity="1.0" stroke="rgb(0,0,0)"  stroke-width="3"/>
<line x1="529.0" y1="454.1" x2="502.0" y2="449.3" opacity="1.0" stroke="rgb(0,0,0)"  stroke-width="3"/>
<line x1="497.3" y1="441.2" x2="471.9" y2="471.4" opacity="1.0" stroke="rgb(0,0,0)"  stroke-width="3"/>
<line x1="471.9" y1="471.4" x2="485.4" y2="508.6" opacity="1.0" stroke="rgb(0,0,0)"  stroke-width="3"/>
<line x1="480.7" y1="474.6" x2="490.1" y2="500.5" opacity="1.0" stroke="rgb(0,0,0)"  stroke-width="3"/>
<text x="295.983771" y="241.117288" fill="rgb(255,181,181)" stroke-width="0" font-weight="bold" font-size="25.92" >B</text>
<text x="397.026231" y="126.965869" fill="rgb(12,12,255)" stroke-width="0" font-weight="bold" font-size="25.92" >N</text>
<text x="136.579640" y="179.514900" fill="rgb(12,12,255)" stroke-width="0" font-weight="bold" font-size="25.92" >N</text>
<text x="227.597296" y="280.600246" fill="rgb(12,12,255)" stroke-width="0" font-weight="bold" font-size="25.92" >N</text>
<text x="364.370197" y="280.600246" fill="rgb(12,12,255)" stroke-width="0" font-weight="bold" font-size="25.92" >N</text>
</svg>
</g>
</svg>
