<?xml version="1.0"?>
<svg version="1.1" id="topsvg"
xmlns="http://www.w3.org/2000/svg" xmlns:xlink="http://www.w3.org/1999/xlink"
xmlns:cml="http://www.xml-cml.org/schema" x="0" y="0" width="200px" height="200px" viewBox="0 0 100 100">
<title>GD278.sdf - Open Babel Depiction</title>
<rect x="0" y="0" width="100" height="100" fill="white"/>
<g transform="translate(0,0)">
<svg width="100" height="100" x="0" y="0" viewBox="0 0 743.601 470.399"
font-family="sans-serif" stroke="rgb(0,0,0)" stroke-width="3"  stroke-linecap="round">
<line x1="405.6" y1="98.6" x2="371.8" y2="79.0" opacity="1.0" stroke="rgb(0,0,0)"  stroke-width="3"/>
<line x1="371.8" y1="79.0" x2="338.0" y2="59.5" opacity="1.0" stroke="rgb(0,0,0)"  stroke-width="3"/>
<line x1="371.8" y1="79.0" x2="371.8" y2="40.0" opacity="1.0" stroke="rgb(0,0,0)"  stroke-width="3"/>
<line x1="371.8" y1="79.0" x2="338.0" y2="98.6" opacity="1.0" stroke="rgb(0,0,0)"  stroke-width="3"/>
<line x1="608.5" y1="98.6" x2="642.3" y2="79.0" opacity="1.0" stroke="rgb(0,0,0)"  stroke-width="3"/>
<line x1="642.3" y1="79.0" x2="642.3" y2="40.0" opacity="1.0" stroke="rgb(0,0,0)"  stroke-width="3"/>
<line x1="642.3" y1="79.0" x2="676.1" y2="59.5" opacity="1.0" stroke="rgb(0,0,0)"  stroke-width="3"/>
<line x1="642.3" y1="79.0" x2="676.1" y2="98.6" opacity="1.0" stroke="rgb(0,0,0)"  stroke-width="3"/>
<line x1="338.0" y1="371.8" x2="371.8" y2="391.4" opacity="1.0" stroke="rgb(0,0,0)"  stroke-width="3"/>
<line x1="371.8" y1="391.4" x2="405.6" y2="410.9" opacity="1.0" stroke="rgb(0,0,0)"  stroke-width="3"/>
<line x1="371.8" y1="391.4" x2="371.8" y2="430.4" opacity="1.0" stroke="rgb(0,0,0)"  stroke-width="3"/>
<line x1="371.8" y1="391.4" x2="405.6" y2="371.8" opacity="1.0" stroke="rgb(0,0,0)"  stroke-width="3"/>
<line x1="135.1" y1="371.8" x2="101.3" y2="391.4" opacity="1.0" stroke="rgb(0,0,0)"  stroke-width="3"/>
<line x1="101.3" y1="391.4" x2="101.3" y2="430.4" opacity="1.0" stroke="rgb(0,0,0)"  stroke-width="3"/>
<line x1="101.3" y1="391.4" x2="67.5" y2="410.9" opacity="1.0" stroke="rgb(0,0,0)"  stroke-width="3"/>
<line x1="101.3" y1="391.4" x2="67.5" y2="371.8" opacity="1.0" stroke="rgb(0,0,0)"  stroke-width="3"/>
<line x1="540.8" y1="98.6" x2="473.2" y2="98.6" opacity="1.0" stroke="rgb(0,0,0)"  stroke-width="3"/>
<line x1="473.2" y1="98.6" x2="473.2" y2="137.6" opacity="1.0" stroke="rgb(0,0,0)"  stroke-width="3"/>
<line x1="480.4" y1="104.6" x2="480.4" y2="131.6" opacity="1.0" stroke="rgb(0,0,0)"  stroke-width="3"/>
<line x1="473.2" y1="137.6" x2="495.8" y2="150.6" opacity="1.0" stroke="rgb(0,0,0)"  stroke-width="3"/>
<line x1="518.3" y1="150.6" x2="540.8" y2="137.6" opacity="1.0" stroke="rgb(0,0,0)"  stroke-width="3"/>
<line x1="540.8" y1="137.6" x2="540.8" y2="98.6" opacity="1.0" stroke="rgb(0,0,0)"  stroke-width="3"/>
<line x1="533.6" y1="131.6" x2="533.6" y2="104.6" opacity="1.0" stroke="rgb(0,0,0)"  stroke-width="3"/>
<line x1="202.8" y1="371.8" x2="270.4" y2="371.8" opacity="1.0" stroke="rgb(0,0,0)"  stroke-width="3"/>
<line x1="270.4" y1="371.8" x2="270.4" y2="332.8" opacity="1.0" stroke="rgb(0,0,0)"  stroke-width="3"/>
<line x1="263.2" y1="365.8" x2="263.2" y2="338.8" opacity="1.0" stroke="rgb(0,0,0)"  stroke-width="3"/>
<line x1="270.4" y1="332.8" x2="247.8" y2="319.8" opacity="1.0" stroke="rgb(0,0,0)"  stroke-width="3"/>
<line x1="225.3" y1="319.8" x2="202.8" y2="332.8" opacity="1.0" stroke="rgb(0,0,0)"  stroke-width="3"/>
<line x1="202.8" y1="332.8" x2="202.8" y2="371.8" opacity="1.0" stroke="rgb(0,0,0)"  stroke-width="3"/>
<line x1="210.0" y1="338.8" x2="210.0" y2="365.8" opacity="1.0" stroke="rgb(0,0,0)"  stroke-width="3"/>
<line x1="639.3" y1="152.9" x2="627.2" y2="190.0" opacity="1.0" stroke="rgb(0,0,0)"  stroke-width="3"/>
<line x1="627.2" y1="190.0" x2="653.3" y2="219.1" opacity="1.0" stroke="rgb(0,0,0)"  stroke-width="3"/>
<line x1="636.6" y1="189.7" x2="654.7" y2="209.8" opacity="1.0" stroke="rgb(0,0,0)"  stroke-width="3"/>
<line x1="653.3" y1="219.1" x2="691.5" y2="210.9" opacity="1.0" stroke="rgb(0,0,0)"  stroke-width="3"/>
<line x1="691.5" y1="210.9" x2="703.6" y2="173.8" opacity="1.0" stroke="rgb(0,0,0)"  stroke-width="3"/>
<line x1="686.5" y1="203.0" x2="694.9" y2="177.3" opacity="1.0" stroke="rgb(0,0,0)"  stroke-width="3"/>
<line x1="703.6" y1="173.8" x2="677.5" y2="144.8" opacity="1.0" stroke="rgb(0,0,0)"  stroke-width="3"/>
<line x1="677.5" y1="144.8" x2="639.3" y2="152.9" opacity="1.0" stroke="rgb(0,0,0)"  stroke-width="3"/>
<line x1="673.1" y1="153.1" x2="646.7" y2="158.7" opacity="1.0" stroke="rgb(0,0,0)"  stroke-width="3"/>
<line x1="581.6" y1="310.9" x2="569.5" y2="273.8" opacity="1.0" stroke="rgb(0,0,0)"  stroke-width="3"/>
<line x1="586.6" y1="303.0" x2="578.2" y2="277.2" opacity="1.0" stroke="rgb(0,0,0)"  stroke-width="3"/>
<line x1="569.5" y1="273.8" x2="595.6" y2="244.7" opacity="1.0" stroke="rgb(0,0,0)"  stroke-width="3"/>
<line x1="595.6" y1="244.7" x2="633.8" y2="252.9" opacity="1.0" stroke="rgb(0,0,0)"  stroke-width="3"/>
<line x1="600.0" y1="253.0" x2="626.5" y2="258.7" opacity="1.0" stroke="rgb(0,0,0)"  stroke-width="3"/>
<line x1="633.8" y1="252.9" x2="645.9" y2="290.0" opacity="1.0" stroke="rgb(0,0,0)"  stroke-width="3"/>
<line x1="645.9" y1="290.0" x2="619.8" y2="319.0" opacity="1.0" stroke="rgb(0,0,0)"  stroke-width="3"/>
<line x1="636.5" y1="289.6" x2="618.4" y2="309.7" opacity="1.0" stroke="rgb(0,0,0)"  stroke-width="3"/>
<line x1="619.8" y1="319.0" x2="581.6" y2="310.9" opacity="1.0" stroke="rgb(0,0,0)"  stroke-width="3"/>
<line x1="428.2" y1="202.7" x2="405.6" y2="215.7" opacity="1.0" stroke="rgb(0,0,0)"  stroke-width="3"/>
<line x1="405.6" y1="215.7" x2="405.6" y2="254.7" opacity="1.0" stroke="rgb(0,0,0)"  stroke-width="3"/>
<line x1="412.8" y1="221.7" x2="412.8" y2="248.7" opacity="1.0" stroke="rgb(0,0,0)"  stroke-width="3"/>
<line x1="405.6" y1="254.7" x2="428.2" y2="267.7" opacity="1.0" stroke="rgb(0,0,0)"  stroke-width="3"/>
<line x1="450.7" y1="267.7" x2="473.2" y2="254.7" opacity="1.0" stroke="rgb(0,0,0)"  stroke-width="3"/>
<line x1="473.2" y1="254.7" x2="473.2" y2="215.7" opacity="1.0" stroke="rgb(0,0,0)"  stroke-width="3"/>
<line x1="466.0" y1="248.7" x2="466.0" y2="221.7" opacity="1.0" stroke="rgb(0,0,0)"  stroke-width="3"/>
<line x1="473.2" y1="215.7" x2="450.7" y2="202.7" opacity="1.0" stroke="rgb(0,0,0)"  stroke-width="3"/>
<line x1="540.8" y1="215.7" x2="507.0" y2="196.2" opacity="1.0" stroke="rgb(0,0,0)"  stroke-width="3"/>
<line x1="532.1" y1="218.9" x2="508.6" y2="205.4" opacity="1.0" stroke="rgb(0,0,0)"  stroke-width="3"/>
<line x1="507.0" y1="196.2" x2="473.2" y2="215.7" opacity="1.0" stroke="rgb(0,0,0)"  stroke-width="3"/>
<line x1="473.2" y1="254.7" x2="507.0" y2="274.2" opacity="1.0" stroke="rgb(0,0,0)"  stroke-width="3"/>
<line x1="507.0" y1="274.2" x2="540.8" y2="254.7" opacity="1.0" stroke="rgb(0,0,0)"  stroke-width="3"/>
<line x1="508.6" y1="265.0" x2="532.1" y2="251.5" opacity="1.0" stroke="rgb(0,0,0)"  stroke-width="3"/>
<line x1="540.8" y1="254.7" x2="540.8" y2="215.7" opacity="1.0" stroke="rgb(0,0,0)"  stroke-width="3"/>
<line x1="371.8" y1="274.2" x2="338.0" y2="254.7" opacity="1.0" stroke="rgb(0,0,0)"  stroke-width="3"/>
<line x1="370.2" y1="265.0" x2="346.8" y2="251.5" opacity="1.0" stroke="rgb(0,0,0)"  stroke-width="3"/>
<line x1="338.0" y1="254.7" x2="338.0" y2="215.7" opacity="1.0" stroke="rgb(0,0,0)"  stroke-width="3"/>
<line x1="338.0" y1="215.7" x2="371.8" y2="196.2" opacity="1.0" stroke="rgb(0,0,0)"  stroke-width="3"/>
<line x1="346.8" y1="218.9" x2="370.2" y2="205.4" opacity="1.0" stroke="rgb(0,0,0)"  stroke-width="3"/>
<line x1="371.8" y1="196.2" x2="405.6" y2="215.7" opacity="1.0" stroke="rgb(0,0,0)"  stroke-width="3"/>
<line x1="405.6" y1="254.7" x2="371.8" y2="274.2" opacity="1.0" stroke="rgb(0,0,0)"  stroke-width="3"/>
<line x1="202.8" y1="254.7" x2="202.8" y2="215.7" opacity="1.0" stroke="rgb(0,0,0)"  stroke-width="3"/>
<line x1="202.8" y1="215.7" x2="236.6" y2="196.2" opacity="1.0" stroke="rgb(0,0,0)"  stroke-width="3"/>
<line x1="211.5" y1="218.9" x2="235.0" y2="205.4" opacity="1.0" stroke="rgb(0,0,0)"  stroke-width="3"/>
<line x1="236.6" y1="196.2" x2="270.4" y2="215.7" opacity="1.0" stroke="rgb(0,0,0)"  stroke-width="3"/>
<line x1="270.4" y1="215.7" x2="270.4" y2="254.7" opacity="1.0" stroke="rgb(0,0,0)"  stroke-width="3"/>
<line x1="263.2" y1="221.7" x2="263.2" y2="248.7" opacity="1.0" stroke="rgb(0,0,0)"  stroke-width="3"/>
<line x1="270.4" y1="254.7" x2="236.6" y2="274.2" opacity="1.0" stroke="rgb(0,0,0)"  stroke-width="3"/>
<line x1="236.6" y1="274.2" x2="202.8" y2="254.7" opacity="1.0" stroke="rgb(0,0,0)"  stroke-width="3"/>
<line x1="235.0" y1="265.0" x2="211.5" y2="251.5" opacity="1.0" stroke="rgb(0,0,0)"  stroke-width="3"/>
<line x1="104.3" y1="317.5" x2="116.4" y2="280.4" opacity="1.0" stroke="rgb(0,0,0)"  stroke-width="3"/>
<line x1="116.4" y1="280.4" x2="90.3" y2="251.3" opacity="1.0" stroke="rgb(0,0,0)"  stroke-width="3"/>
<line x1="107.0" y1="280.7" x2="88.9" y2="260.6" opacity="1.0" stroke="rgb(0,0,0)"  stroke-width="3"/>
<line x1="90.3" y1="251.3" x2="52.1" y2="259.5" opacity="1.0" stroke="rgb(0,0,0)"  stroke-width="3"/>
<line x1="52.1" y1="259.5" x2="40.0" y2="296.6" opacity="1.0" stroke="rgb(0,0,0)"  stroke-width="3"/>
<line x1="57.1" y1="267.4" x2="48.7" y2="293.1" opacity="1.0" stroke="rgb(0,0,0)"  stroke-width="3"/>
<line x1="40.0" y1="296.6" x2="66.1" y2="325.6" opacity="1.0" stroke="rgb(0,0,0)"  stroke-width="3"/>
<line x1="66.1" y1="325.6" x2="104.3" y2="317.5" opacity="1.0" stroke="rgb(0,0,0)"  stroke-width="3"/>
<line x1="70.5" y1="317.3" x2="96.9" y2="311.7" opacity="1.0" stroke="rgb(0,0,0)"  stroke-width="3"/>
<line x1="162.0" y1="159.5" x2="174.1" y2="196.6" opacity="1.0" stroke="rgb(0,0,0)"  stroke-width="3"/>
<line x1="157.0" y1="167.4" x2="165.4" y2="193.2" opacity="1.0" stroke="rgb(0,0,0)"  stroke-width="3"/>
<line x1="174.1" y1="196.6" x2="148.0" y2="225.7" opacity="1.0" stroke="rgb(0,0,0)"  stroke-width="3"/>
<line x1="148.0" y1="225.7" x2="109.8" y2="217.5" opacity="1.0" stroke="rgb(0,0,0)"  stroke-width="3"/>
<line x1="143.6" y1="217.4" x2="117.1" y2="211.7" opacity="1.0" stroke="rgb(0,0,0)"  stroke-width="3"/>
<line x1="109.8" y1="217.5" x2="97.7" y2="180.4" opacity="1.0" stroke="rgb(0,0,0)"  stroke-width="3"/>
<line x1="97.7" y1="180.4" x2="123.8" y2="151.4" opacity="1.0" stroke="rgb(0,0,0)"  stroke-width="3"/>
<line x1="107.1" y1="180.8" x2="125.2" y2="160.7" opacity="1.0" stroke="rgb(0,0,0)"  stroke-width="3"/>
<line x1="123.8" y1="151.4" x2="162.0" y2="159.5" opacity="1.0" stroke="rgb(0,0,0)"  stroke-width="3"/>
<line x1="315.4" y1="267.7" x2="338.0" y2="254.7" opacity="1.0" stroke="rgb(0,0,0)"  stroke-width="3"/>
<line x1="338.0" y1="215.7" x2="315.4" y2="202.7" opacity="1.0" stroke="rgb(0,0,0)"  stroke-width="3"/>
<line x1="292.9" y1="202.7" x2="270.4" y2="215.7" opacity="1.0" stroke="rgb(0,0,0)"  stroke-width="3"/>
<line x1="270.4" y1="254.7" x2="292.9" y2="267.7" opacity="1.0" stroke="rgb(0,0,0)"  stroke-width="3"/>
<line x1="304.2" y1="313.3" x2="304.2" y2="287.2" opacity="1.0" stroke="rgb(0,0,0)"  stroke-width="3"/>
<line x1="236.6" y1="274.2" x2="236.6" y2="300.3" opacity="1.0" stroke="rgb(0,0,0)"  stroke-width="3"/>
<line x1="270.4" y1="332.8" x2="304.2" y2="313.3" opacity="1.0" stroke="rgb(0,0,0)"  stroke-width="3"/>
<line x1="304.2" y1="391.4" x2="338.0" y2="371.8" opacity="1.0" stroke="rgb(0,0,0)"  stroke-width="3"/>
<line x1="305.8" y1="382.1" x2="329.2" y2="368.6" opacity="1.0" stroke="rgb(0,0,0)"  stroke-width="3"/>
<line x1="338.0" y1="371.8" x2="338.0" y2="332.8" opacity="1.0" stroke="rgb(0,0,0)"  stroke-width="3"/>
<line x1="338.0" y1="332.8" x2="304.2" y2="313.3" opacity="1.0" stroke="rgb(0,0,0)"  stroke-width="3"/>
<line x1="329.2" y1="336.0" x2="305.8" y2="322.5" opacity="1.0" stroke="rgb(0,0,0)"  stroke-width="3"/>
<line x1="270.4" y1="371.8" x2="304.2" y2="391.4" opacity="1.0" stroke="rgb(0,0,0)"  stroke-width="3"/>
<line x1="135.1" y1="371.8" x2="135.1" y2="332.8" opacity="1.0" stroke="rgb(0,0,0)"  stroke-width="3"/>
<line x1="135.1" y1="332.8" x2="168.9" y2="313.3" opacity="1.0" stroke="rgb(0,0,0)"  stroke-width="3"/>
<line x1="143.9" y1="336.0" x2="167.3" y2="322.5" opacity="1.0" stroke="rgb(0,0,0)"  stroke-width="3"/>
<line x1="168.9" y1="313.3" x2="202.8" y2="332.8" opacity="1.0" stroke="rgb(0,0,0)"  stroke-width="3"/>
<line x1="202.8" y1="371.8" x2="168.9" y2="391.4" opacity="1.0" stroke="rgb(0,0,0)"  stroke-width="3"/>
<line x1="168.9" y1="391.4" x2="135.1" y2="371.8" opacity="1.0" stroke="rgb(0,0,0)"  stroke-width="3"/>
<line x1="167.3" y1="382.1" x2="143.9" y2="368.6" opacity="1.0" stroke="rgb(0,0,0)"  stroke-width="3"/>
<line x1="439.4" y1="157.1" x2="439.4" y2="183.2" opacity="1.0" stroke="rgb(0,0,0)"  stroke-width="3"/>
<line x1="507.0" y1="196.2" x2="507.0" y2="170.1" opacity="1.0" stroke="rgb(0,0,0)"  stroke-width="3"/>
<line x1="473.2" y1="137.6" x2="439.4" y2="157.1" opacity="1.0" stroke="rgb(0,0,0)"  stroke-width="3"/>
<line x1="439.4" y1="79.0" x2="405.6" y2="98.6" opacity="1.0" stroke="rgb(0,0,0)"  stroke-width="3"/>
<line x1="437.8" y1="88.3" x2="414.4" y2="101.8" opacity="1.0" stroke="rgb(0,0,0)"  stroke-width="3"/>
<line x1="405.6" y1="98.6" x2="405.6" y2="137.6" opacity="1.0" stroke="rgb(0,0,0)"  stroke-width="3"/>
<line x1="405.6" y1="137.6" x2="439.4" y2="157.1" opacity="1.0" stroke="rgb(0,0,0)"  stroke-width="3"/>
<line x1="414.4" y1="134.4" x2="437.8" y2="147.9" opacity="1.0" stroke="rgb(0,0,0)"  stroke-width="3"/>
<line x1="473.2" y1="98.6" x2="439.4" y2="79.0" opacity="1.0" stroke="rgb(0,0,0)"  stroke-width="3"/>
<line x1="608.5" y1="98.6" x2="608.5" y2="137.6" opacity="1.0" stroke="rgb(0,0,0)"  stroke-width="3"/>
<line x1="608.5" y1="137.6" x2="574.7" y2="157.1" opacity="1.0" stroke="rgb(0,0,0)"  stroke-width="3"/>
<line x1="599.7" y1="134.4" x2="576.3" y2="147.9" opacity="1.0" stroke="rgb(0,0,0)"  stroke-width="3"/>
<line x1="574.7" y1="157.1" x2="540.8" y2="137.6" opacity="1.0" stroke="rgb(0,0,0)"  stroke-width="3"/>
<line x1="540.8" y1="98.6" x2="574.7" y2="79.0" opacity="1.0" stroke="rgb(0,0,0)"  stroke-width="3"/>
<line x1="574.7" y1="79.0" x2="608.5" y2="98.6" opacity="1.0" stroke="rgb(0,0,0)"  stroke-width="3"/>
<line x1="576.3" y1="88.3" x2="599.7" y2="101.8" opacity="1.0" stroke="rgb(0,0,0)"  stroke-width="3"/>
<line x1="583.1" y1="201.0" x2="627.2" y2="190.0" opacity="1.0" stroke="rgb(0,0,0)"  stroke-width="3"/>
<line x1="653.3" y1="219.1" x2="633.8" y2="252.9" opacity="1.0" stroke="rgb(0,0,0)"  stroke-width="3"/>
<line x1="595.6" y1="244.7" x2="583.1" y2="201.0" opacity="1.0" stroke="rgb(0,0,0)"  stroke-width="3"/>
<line x1="160.5" y1="269.4" x2="116.4" y2="280.4" opacity="1.0" stroke="rgb(0,0,0)"  stroke-width="3"/>
<line x1="90.3" y1="251.3" x2="109.8" y2="217.5" opacity="1.0" stroke="rgb(0,0,0)"  stroke-width="3"/>
<line x1="148.0" y1="225.7" x2="160.5" y2="269.4" opacity="1.0" stroke="rgb(0,0,0)"  stroke-width="3"/>
<line x1="202.8" y1="254.7" x2="160.5" y2="269.4" opacity="1.0" stroke="rgb(0,0,0)"  stroke-width="3"/>
<line x1="160.5" y1="269.4" x2="168.9" y2="313.3" opacity="1.0" stroke="rgb(0,0,0)"  stroke-width="3"/>
<line x1="540.8" y1="215.7" x2="583.1" y2="201.0" opacity="1.0" stroke="rgb(0,0,0)"  stroke-width="3"/>
<line x1="583.1" y1="201.0" x2="574.7" y2="157.1" opacity="1.0" stroke="rgb(0,0,0)"  stroke-width="3"/>
<text x="501.038453" y="165.119679" fill="rgb(12,12,255)" stroke-width="0" font-weight="bold" font-size="25.92" >N</text>
<text x="230.562124" y="321.279252" fill="rgb(12,12,255)" stroke-width="0" font-weight="bold" font-size="25.92" >N</text>
<text x="298.181206" y="204.159573" fill="rgb(255,12,12)" stroke-width="0" font-weight="bold" font-size="25.92" >O</text>
<text x="433.419371" y="204.159573" fill="rgb(255,181,181)" stroke-width="0" font-weight="bold" font-size="25.92" >B</text>
<text x="298.181206" y="282.239359" fill="rgb(255,181,181)" stroke-width="0" font-weight="bold" font-size="25.92" >B</text>
<text x="433.419371" y="282.239359" fill="rgb(255,12,12)" stroke-width="0" font-weight="bold" font-size="25.92" >O</text>
</svg>
</g>
</svg>
