<?xml version="1.0"?>
<svg version="1.1" id="topsvg"
xmlns="http://www.w3.org/2000/svg" xmlns:xlink="http://www.w3.org/1999/xlink"
xmlns:cml="http://www.xml-cml.org/schema" x="0" y="0" width="200px" height="200px" viewBox="0 0 100 100">
<title>GD273.sdf - Open Babel Depiction</title>
<rect x="0" y="0" width="100" height="100" fill="white"/>
<g transform="translate(0,0)">
<svg width="100" height="100" x="0" y="0" viewBox="0 0 664.844 600.223"
font-family="sans-serif" stroke="rgb(0,0,0)" stroke-width="3"  stroke-linecap="round">
<line x1="486.0" y1="457.2" x2="505.8" y2="491.5" opacity="1.0" stroke="rgb(0,0,0)"  stroke-width="3"/>
<line x1="505.8" y1="422.8" x2="545.5" y2="422.8" opacity="1.0" stroke="rgb(0,0,0)"  stroke-width="3"/>
<line x1="158.4" y1="293.3" x2="118.9" y2="297.5" opacity="1.0" stroke="rgb(0,0,0)"  stroke-width="3"/>
<line x1="267.2" y1="158.4" x2="263.0" y2="118.9" opacity="1.0" stroke="rgb(0,0,0)"  stroke-width="3"/>
<line x1="486.0" y1="457.2" x2="446.8" y2="451.3" opacity="1.0" stroke="rgb(0,0,0)"  stroke-width="3"/>
<line x1="446.8" y1="451.3" x2="446.8" y2="411.6" opacity="1.0" stroke="rgb(0,0,0)"  stroke-width="3"/>
<line x1="446.8" y1="411.6" x2="469.9" y2="398.3" opacity="1.0" stroke="rgb(0,0,0)"  stroke-width="3"/>
<line x1="489.2" y1="401.9" x2="505.8" y2="422.8" opacity="1.0" stroke="rgb(0,0,0)"  stroke-width="3"/>
<line x1="505.8" y1="422.8" x2="486.0" y2="457.2" opacity="1.0" stroke="rgb(0,0,0)"  stroke-width="3"/>
<line x1="496.6" y1="424.4" x2="482.8" y2="448.4" opacity="1.0" stroke="rgb(0,0,0)"  stroke-width="3"/>
<line x1="214.0" y1="252.9" x2="237.3" y2="285.0" opacity="1.0" stroke="rgb(0,0,0)"  stroke-width="3"/>
<line x1="237.3" y1="285.0" x2="262.6" y2="276.8" opacity="1.0" stroke="rgb(0,0,0)"  stroke-width="3"/>
<line x1="275.0" y1="259.8" x2="275.0" y2="233.1" opacity="1.0" stroke="rgb(0,0,0)"  stroke-width="3"/>
<line x1="275.0" y1="233.1" x2="237.3" y2="220.9" opacity="1.0" stroke="rgb(0,0,0)"  stroke-width="3"/>
<line x1="237.3" y1="220.9" x2="214.0" y2="252.9" opacity="1.0" stroke="rgb(0,0,0)"  stroke-width="3"/>
<line x1="412.4" y1="233.1" x2="446.8" y2="213.3" opacity="1.0" stroke="rgb(0,0,0)"  stroke-width="3"/>
<line x1="421.2" y1="236.3" x2="445.2" y2="222.5" opacity="1.0" stroke="rgb(0,0,0)"  stroke-width="3"/>
<line x1="446.8" y1="213.3" x2="481.1" y2="272.8" opacity="1.0" stroke="rgb(0,0,0)"  stroke-width="3"/>
<line x1="481.1" y1="272.8" x2="446.8" y2="292.6" opacity="1.0" stroke="rgb(0,0,0)"  stroke-width="3"/>
<line x1="446.8" y1="292.6" x2="423.7" y2="279.3" opacity="1.0" stroke="rgb(0,0,0)"  stroke-width="3"/>
<line x1="412.4" y1="259.8" x2="412.4" y2="233.1" opacity="1.0" stroke="rgb(0,0,0)"  stroke-width="3"/>
<line x1="565.3" y1="457.2" x2="545.5" y2="422.8" opacity="1.0" stroke="rgb(0,0,0)"  stroke-width="3"/>
<line x1="545.5" y1="422.8" x2="565.3" y2="388.5" opacity="1.0" stroke="rgb(0,0,0)"  stroke-width="3"/>
<line x1="554.7" y1="421.2" x2="568.6" y2="397.3" opacity="1.0" stroke="rgb(0,0,0)"  stroke-width="3"/>
<line x1="565.3" y1="388.5" x2="605.0" y2="388.5" opacity="1.0" stroke="rgb(0,0,0)"  stroke-width="3"/>
<line x1="605.0" y1="388.5" x2="624.8" y2="422.8" opacity="1.0" stroke="rgb(0,0,0)"  stroke-width="3"/>
<line x1="601.8" y1="397.3" x2="615.6" y2="421.2" opacity="1.0" stroke="rgb(0,0,0)"  stroke-width="3"/>
<line x1="624.8" y1="422.8" x2="605.0" y2="457.2" opacity="1.0" stroke="rgb(0,0,0)"  stroke-width="3"/>
<line x1="605.0" y1="457.2" x2="565.3" y2="457.2" opacity="1.0" stroke="rgb(0,0,0)"  stroke-width="3"/>
<line x1="599.0" y1="450.0" x2="571.3" y2="450.0" opacity="1.0" stroke="rgb(0,0,0)"  stroke-width="3"/>
<line x1="486.0" y1="525.9" x2="505.8" y2="491.5" opacity="1.0" stroke="rgb(0,0,0)"  stroke-width="3"/>
<line x1="505.8" y1="491.5" x2="545.5" y2="491.5" opacity="1.0" stroke="rgb(0,0,0)"  stroke-width="3"/>
<line x1="511.8" y1="498.7" x2="539.5" y2="498.7" opacity="1.0" stroke="rgb(0,0,0)"  stroke-width="3"/>
<line x1="545.5" y1="491.5" x2="565.3" y2="525.9" opacity="1.0" stroke="rgb(0,0,0)"  stroke-width="3"/>
<line x1="565.3" y1="525.9" x2="545.5" y2="560.2" opacity="1.0" stroke="rgb(0,0,0)"  stroke-width="3"/>
<line x1="556.1" y1="527.5" x2="542.3" y2="551.4" opacity="1.0" stroke="rgb(0,0,0)"  stroke-width="3"/>
<line x1="545.5" y1="560.2" x2="505.8" y2="560.2" opacity="1.0" stroke="rgb(0,0,0)"  stroke-width="3"/>
<line x1="505.8" y1="560.2" x2="486.0" y2="525.9" opacity="1.0" stroke="rgb(0,0,0)"  stroke-width="3"/>
<line x1="509.1" y1="551.4" x2="495.2" y2="527.5" opacity="1.0" stroke="rgb(0,0,0)"  stroke-width="3"/>
<line x1="355.0" y1="226.6" x2="378.1" y2="213.3" opacity="1.0" stroke="rgb(0,0,0)"  stroke-width="3"/>
<line x1="378.1" y1="213.3" x2="412.4" y2="233.1" opacity="1.0" stroke="rgb(0,0,0)"  stroke-width="3"/>
<line x1="401.2" y1="279.3" x2="378.1" y2="292.6" opacity="1.0" stroke="rgb(0,0,0)"  stroke-width="3"/>
<line x1="378.1" y1="292.6" x2="343.7" y2="272.8" opacity="1.0" stroke="rgb(0,0,0)"  stroke-width="3"/>
<line x1="376.5" y1="283.4" x2="352.5" y2="269.5" opacity="1.0" stroke="rgb(0,0,0)"  stroke-width="3"/>
<line x1="343.7" y1="272.8" x2="343.7" y2="246.1" opacity="1.0" stroke="rgb(0,0,0)"  stroke-width="3"/>
<line x1="309.4" y1="411.6" x2="343.7" y2="391.8" opacity="1.0" stroke="rgb(0,0,0)"  stroke-width="3"/>
<line x1="318.2" y1="414.8" x2="342.1" y2="401.0" opacity="1.0" stroke="rgb(0,0,0)"  stroke-width="3"/>
<line x1="343.7" y1="391.8" x2="378.1" y2="411.6" opacity="1.0" stroke="rgb(0,0,0)"  stroke-width="3"/>
<line x1="378.1" y1="411.6" x2="378.1" y2="451.3" opacity="1.0" stroke="rgb(0,0,0)"  stroke-width="3"/>
<line x1="370.9" y1="417.6" x2="370.9" y2="445.3" opacity="1.0" stroke="rgb(0,0,0)"  stroke-width="3"/>
<line x1="378.1" y1="451.3" x2="343.7" y2="471.1" opacity="1.0" stroke="rgb(0,0,0)"  stroke-width="3"/>
<line x1="343.7" y1="471.1" x2="309.4" y2="451.3" opacity="1.0" stroke="rgb(0,0,0)"  stroke-width="3"/>
<line x1="342.1" y1="461.9" x2="318.2" y2="448.0" opacity="1.0" stroke="rgb(0,0,0)"  stroke-width="3"/>
<line x1="309.4" y1="451.3" x2="309.4" y2="411.6" opacity="1.0" stroke="rgb(0,0,0)"  stroke-width="3"/>
<line x1="481.1" y1="272.8" x2="515.5" y2="292.6" opacity="1.0" stroke="rgb(0,0,0)"  stroke-width="3"/>
<line x1="482.7" y1="282.0" x2="506.7" y2="295.8" opacity="1.0" stroke="rgb(0,0,0)"  stroke-width="3"/>
<line x1="515.5" y1="292.6" x2="515.5" y2="332.3" opacity="1.0" stroke="rgb(0,0,0)"  stroke-width="3"/>
<line x1="515.5" y1="332.3" x2="481.1" y2="352.1" opacity="1.0" stroke="rgb(0,0,0)"  stroke-width="3"/>
<line x1="506.7" y1="329.0" x2="482.7" y2="342.9" opacity="1.0" stroke="rgb(0,0,0)"  stroke-width="3"/>
<line x1="481.1" y1="352.1" x2="446.8" y2="332.3" opacity="1.0" stroke="rgb(0,0,0)"  stroke-width="3"/>
<line x1="446.8" y1="332.3" x2="446.8" y2="292.6" opacity="1.0" stroke="rgb(0,0,0)"  stroke-width="3"/>
<line x1="454.0" y1="326.3" x2="454.0" y2="298.6" opacity="1.0" stroke="rgb(0,0,0)"  stroke-width="3"/>
<line x1="446.8" y1="332.3" x2="423.7" y2="345.6" opacity="1.0" stroke="rgb(0,0,0)"  stroke-width="3"/>
<line x1="401.2" y1="345.6" x2="378.1" y2="332.3" opacity="1.0" stroke="rgb(0,0,0)"  stroke-width="3"/>
<line x1="378.1" y1="332.3" x2="378.1" y2="292.6" opacity="1.0" stroke="rgb(0,0,0)"  stroke-width="3"/>
<line x1="481.1" y1="352.1" x2="481.1" y2="378.8" opacity="1.0" stroke="rgb(0,0,0)"  stroke-width="3"/>
<line x1="446.8" y1="411.6" x2="412.4" y2="391.8" opacity="1.0" stroke="rgb(0,0,0)"  stroke-width="3"/>
<line x1="445.2" y1="402.4" x2="421.2" y2="388.5" opacity="1.0" stroke="rgb(0,0,0)"  stroke-width="3"/>
<line x1="412.4" y1="391.8" x2="412.4" y2="365.1" opacity="1.0" stroke="rgb(0,0,0)"  stroke-width="3"/>
<line x1="412.4" y1="471.1" x2="378.1" y2="451.3" opacity="1.0" stroke="rgb(0,0,0)"  stroke-width="3"/>
<line x1="378.1" y1="411.6" x2="412.4" y2="391.8" opacity="1.0" stroke="rgb(0,0,0)"  stroke-width="3"/>
<line x1="446.8" y1="451.3" x2="412.4" y2="471.1" opacity="1.0" stroke="rgb(0,0,0)"  stroke-width="3"/>
<line x1="438.0" y1="448.0" x2="414.0" y2="461.9" opacity="1.0" stroke="rgb(0,0,0)"  stroke-width="3"/>
<line x1="378.1" y1="173.6" x2="412.4" y2="153.8" opacity="1.0" stroke="rgb(0,0,0)"  stroke-width="3"/>
<line x1="412.4" y1="153.8" x2="446.8" y2="173.6" opacity="1.0" stroke="rgb(0,0,0)"  stroke-width="3"/>
<line x1="414.0" y1="163.0" x2="438.0" y2="176.8" opacity="1.0" stroke="rgb(0,0,0)"  stroke-width="3"/>
<line x1="446.8" y1="173.6" x2="446.8" y2="213.3" opacity="1.0" stroke="rgb(0,0,0)"  stroke-width="3"/>
<line x1="378.1" y1="213.3" x2="378.1" y2="173.6" opacity="1.0" stroke="rgb(0,0,0)"  stroke-width="3"/>
<line x1="385.3" y1="207.3" x2="385.3" y2="179.6" opacity="1.0" stroke="rgb(0,0,0)"  stroke-width="3"/>
<line x1="309.4" y1="332.3" x2="343.7" y2="352.1" opacity="1.0" stroke="rgb(0,0,0)"  stroke-width="3"/>
<line x1="343.7" y1="352.1" x2="378.1" y2="332.3" opacity="1.0" stroke="rgb(0,0,0)"  stroke-width="3"/>
<line x1="345.3" y1="342.9" x2="369.3" y2="329.0" opacity="1.0" stroke="rgb(0,0,0)"  stroke-width="3"/>
<line x1="343.7" y1="272.8" x2="309.4" y2="292.6" opacity="1.0" stroke="rgb(0,0,0)"  stroke-width="3"/>
<line x1="309.4" y1="292.6" x2="309.4" y2="332.3" opacity="1.0" stroke="rgb(0,0,0)"  stroke-width="3"/>
<line x1="316.6" y1="298.6" x2="316.6" y2="326.3" opacity="1.0" stroke="rgb(0,0,0)"  stroke-width="3"/>
<line x1="286.3" y1="279.3" x2="309.4" y2="292.6" opacity="1.0" stroke="rgb(0,0,0)"  stroke-width="3"/>
<line x1="332.5" y1="226.6" x2="309.4" y2="213.3" opacity="1.0" stroke="rgb(0,0,0)"  stroke-width="3"/>
<line x1="309.4" y1="213.3" x2="275.0" y2="233.1" opacity="1.0" stroke="rgb(0,0,0)"  stroke-width="3"/>
<line x1="307.8" y1="222.5" x2="283.8" y2="236.3" opacity="1.0" stroke="rgb(0,0,0)"  stroke-width="3"/>
<line x1="234.8" y1="181.3" x2="267.2" y2="158.4" opacity="1.0" stroke="rgb(0,0,0)"  stroke-width="3"/>
<line x1="267.2" y1="158.4" x2="303.6" y2="174.0" opacity="1.0" stroke="rgb(0,0,0)"  stroke-width="3"/>
<line x1="269.8" y1="167.4" x2="295.3" y2="178.3" opacity="1.0" stroke="rgb(0,0,0)"  stroke-width="3"/>
<line x1="303.6" y1="174.0" x2="309.4" y2="213.3" opacity="1.0" stroke="rgb(0,0,0)"  stroke-width="3"/>
<line x1="237.3" y1="220.9" x2="234.8" y2="181.3" opacity="1.0" stroke="rgb(0,0,0)"  stroke-width="3"/>
<line x1="244.1" y1="214.4" x2="242.3" y2="186.8" opacity="1.0" stroke="rgb(0,0,0)"  stroke-width="3"/>
<line x1="221.2" y1="321.3" x2="237.3" y2="285.0" opacity="1.0" stroke="rgb(0,0,0)"  stroke-width="3"/>
<line x1="217.0" y1="312.9" x2="228.3" y2="287.6" opacity="1.0" stroke="rgb(0,0,0)"  stroke-width="3"/>
<line x1="214.0" y1="252.9" x2="174.5" y2="257.1" opacity="1.0" stroke="rgb(0,0,0)"  stroke-width="3"/>
<line x1="208.8" y1="260.7" x2="181.2" y2="263.6" opacity="1.0" stroke="rgb(0,0,0)"  stroke-width="3"/>
<line x1="174.5" y1="257.1" x2="158.4" y2="293.3" opacity="1.0" stroke="rgb(0,0,0)"  stroke-width="3"/>
<line x1="158.4" y1="293.3" x2="181.7" y2="325.4" opacity="1.0" stroke="rgb(0,0,0)"  stroke-width="3"/>
<line x1="167.7" y1="293.9" x2="184.0" y2="316.3" opacity="1.0" stroke="rgb(0,0,0)"  stroke-width="3"/>
<line x1="181.7" y1="325.4" x2="221.2" y2="321.3" opacity="1.0" stroke="rgb(0,0,0)"  stroke-width="3"/>
<line x1="95.6" y1="265.4" x2="56.1" y2="269.5" opacity="1.0" stroke="rgb(0,0,0)"  stroke-width="3"/>
<line x1="56.1" y1="269.5" x2="40.0" y2="305.8" opacity="1.0" stroke="rgb(0,0,0)"  stroke-width="3"/>
<line x1="60.3" y1="277.9" x2="49.0" y2="303.2" opacity="1.0" stroke="rgb(0,0,0)"  stroke-width="3"/>
<line x1="40.0" y1="305.8" x2="63.3" y2="337.9" opacity="1.0" stroke="rgb(0,0,0)"  stroke-width="3"/>
<line x1="63.3" y1="337.9" x2="102.8" y2="333.7" opacity="1.0" stroke="rgb(0,0,0)"  stroke-width="3"/>
<line x1="68.5" y1="330.1" x2="96.1" y2="327.2" opacity="1.0" stroke="rgb(0,0,0)"  stroke-width="3"/>
<line x1="102.8" y1="333.7" x2="118.9" y2="297.5" opacity="1.0" stroke="rgb(0,0,0)"  stroke-width="3"/>
<line x1="118.9" y1="297.5" x2="95.6" y2="265.4" opacity="1.0" stroke="rgb(0,0,0)"  stroke-width="3"/>
<line x1="109.6" y1="296.9" x2="93.3" y2="274.5" opacity="1.0" stroke="rgb(0,0,0)"  stroke-width="3"/>
<line x1="295.1" y1="95.6" x2="291.0" y2="56.1" opacity="1.0" stroke="rgb(0,0,0)"  stroke-width="3"/>
<line x1="291.0" y1="56.1" x2="254.7" y2="40.0" opacity="1.0" stroke="rgb(0,0,0)"  stroke-width="3"/>
<line x1="282.6" y1="60.3" x2="257.3" y2="49.0" opacity="1.0" stroke="rgb(0,0,0)"  stroke-width="3"/>
<line x1="254.7" y1="40.0" x2="222.6" y2="63.3" opacity="1.0" stroke="rgb(0,0,0)"  stroke-width="3"/>
<line x1="222.6" y1="63.3" x2="226.8" y2="102.8" opacity="1.0" stroke="rgb(0,0,0)"  stroke-width="3"/>
<line x1="230.4" y1="68.5" x2="233.3" y2="96.1" opacity="1.0" stroke="rgb(0,0,0)"  stroke-width="3"/>
<line x1="226.8" y1="102.8" x2="263.0" y2="118.9" opacity="1.0" stroke="rgb(0,0,0)"  stroke-width="3"/>
<line x1="263.0" y1="118.9" x2="295.1" y2="95.6" opacity="1.0" stroke="rgb(0,0,0)"  stroke-width="3"/>
<line x1="263.6" y1="109.6" x2="286.0" y2="93.3" opacity="1.0" stroke="rgb(0,0,0)"  stroke-width="3"/>
<text x="337.719700" y="241.108849" fill="rgb(255,181,181)" stroke-width="0" font-weight="bold" font-size="25.92" >B</text>
<text x="406.425869" y="280.776354" fill="rgb(12,12,255)" stroke-width="0" font-weight="bold" font-size="25.92" >N</text>
<text x="269.013580" y="280.776354" fill="rgb(12,12,255)" stroke-width="0" font-weight="bold" font-size="25.92" >N</text>
<text x="406.425965" y="360.111604" fill="rgb(255,181,181)" stroke-width="0" font-weight="bold" font-size="25.92" >B</text>
<text x="475.132423" y="399.778917" fill="rgb(12,12,255)" stroke-width="0" font-weight="bold" font-size="25.92" >N</text>
</svg>
</g>
</svg>
