<?xml version="1.0"?>
<svg version="1.1" id="topsvg"
xmlns="http://www.w3.org/2000/svg" xmlns:xlink="http://www.w3.org/1999/xlink"
xmlns:cml="http://www.xml-cml.org/schema" x="0" y="0" width="200px" height="200px" viewBox="0 0 100 100">
<title>GD272.sdf - Open Babel Depiction</title>
<rect x="0" y="0" width="100" height="100" fill="white"/>
<g transform="translate(0,0)">
<svg width="100" height="100" x="0" y="0" viewBox="0 0 583.947 449.812"
font-family="sans-serif" stroke="rgb(0,0,0)" stroke-width="3"  stroke-linecap="round">
<line x1="223.3" y1="119.7" x2="223.3" y2="79.8" opacity="1.0" stroke="rgb(0,0,0)"  stroke-width="3"/>
<line x1="223.3" y1="79.8" x2="257.9" y2="59.9" opacity="1.0" stroke="rgb(0,0,0)"  stroke-width="3"/>
<line x1="223.3" y1="79.8" x2="188.8" y2="59.9" opacity="1.0" stroke="rgb(0,0,0)"  stroke-width="3"/>
<line x1="223.3" y1="79.8" x2="223.3" y2="40.0" opacity="1.0" stroke="rgb(0,0,0)"  stroke-width="3"/>
<line x1="119.8" y1="299.0" x2="85.3" y2="318.9" opacity="1.0" stroke="rgb(0,0,0)"  stroke-width="3"/>
<line x1="85.3" y1="318.9" x2="85.3" y2="358.7" opacity="1.0" stroke="rgb(0,0,0)"  stroke-width="3"/>
<line x1="85.3" y1="318.9" x2="50.8" y2="299.0" opacity="1.0" stroke="rgb(0,0,0)"  stroke-width="3"/>
<line x1="85.3" y1="318.9" x2="85.3" y2="279.1" opacity="1.0" stroke="rgb(0,0,0)"  stroke-width="3"/>
<line x1="397.8" y1="255.4" x2="406.0" y2="294.4" opacity="1.0" stroke="rgb(0,0,0)"  stroke-width="3"/>
<line x1="424.4" y1="225.8" x2="464.3" y2="225.8" opacity="1.0" stroke="rgb(0,0,0)"  stroke-width="3"/>
<line x1="424.4" y1="225.8" x2="397.8" y2="255.4" opacity="1.0" stroke="rgb(0,0,0)"  stroke-width="3"/>
<line x1="415.1" y1="225.4" x2="396.4" y2="246.1" opacity="1.0" stroke="rgb(0,0,0)"  stroke-width="3"/>
<line x1="397.8" y1="255.4" x2="373.2" y2="244.5" opacity="1.0" stroke="rgb(0,0,0)"  stroke-width="3"/>
<line x1="362.7" y1="226.3" x2="365.5" y2="199.6" opacity="1.0" stroke="rgb(0,0,0)"  stroke-width="3"/>
<line x1="365.5" y1="199.6" x2="404.5" y2="191.3" opacity="1.0" stroke="rgb(0,0,0)"  stroke-width="3"/>
<line x1="372.9" y1="205.4" x2="400.1" y2="199.6" opacity="1.0" stroke="rgb(0,0,0)"  stroke-width="3"/>
<line x1="404.5" y1="191.3" x2="424.4" y2="225.8" opacity="1.0" stroke="rgb(0,0,0)"  stroke-width="3"/>
<line x1="257.9" y1="299.0" x2="292.4" y2="318.9" opacity="1.0" stroke="rgb(0,0,0)"  stroke-width="3"/>
<line x1="292.4" y1="318.9" x2="326.9" y2="299.0" opacity="1.0" stroke="rgb(0,0,0)"  stroke-width="3"/>
<line x1="294.0" y1="309.7" x2="318.1" y2="295.7" opacity="1.0" stroke="rgb(0,0,0)"  stroke-width="3"/>
<line x1="326.9" y1="299.0" x2="326.9" y2="259.1" opacity="1.0" stroke="rgb(0,0,0)"  stroke-width="3"/>
<line x1="326.9" y1="259.1" x2="292.4" y2="239.2" opacity="1.0" stroke="rgb(0,0,0)"  stroke-width="3"/>
<line x1="318.1" y1="262.4" x2="294.0" y2="248.4" opacity="1.0" stroke="rgb(0,0,0)"  stroke-width="3"/>
<line x1="292.4" y1="239.2" x2="257.9" y2="259.1" opacity="1.0" stroke="rgb(0,0,0)"  stroke-width="3"/>
<line x1="257.9" y1="259.1" x2="257.9" y2="299.0" opacity="1.0" stroke="rgb(0,0,0)"  stroke-width="3"/>
<line x1="265.1" y1="265.1" x2="265.1" y2="293.0" opacity="1.0" stroke="rgb(0,0,0)"  stroke-width="3"/>
<line x1="223.3" y1="226.2" x2="223.3" y2="199.4" opacity="1.0" stroke="rgb(0,0,0)"  stroke-width="3"/>
<line x1="223.3" y1="199.4" x2="257.9" y2="179.4" opacity="1.0" stroke="rgb(0,0,0)"  stroke-width="3"/>
<line x1="257.9" y1="179.4" x2="281.1" y2="192.9" opacity="1.0" stroke="rgb(0,0,0)"  stroke-width="3"/>
<line x1="292.4" y1="212.4" x2="292.4" y2="239.2" opacity="1.0" stroke="rgb(0,0,0)"  stroke-width="3"/>
<line x1="257.9" y1="259.1" x2="234.6" y2="245.7" opacity="1.0" stroke="rgb(0,0,0)"  stroke-width="3"/>
<line x1="119.8" y1="299.0" x2="154.3" y2="318.9" opacity="1.0" stroke="rgb(0,0,0)"  stroke-width="3"/>
<line x1="154.3" y1="318.9" x2="188.8" y2="299.0" opacity="1.0" stroke="rgb(0,0,0)"  stroke-width="3"/>
<line x1="155.9" y1="309.7" x2="180.0" y2="295.7" opacity="1.0" stroke="rgb(0,0,0)"  stroke-width="3"/>
<line x1="188.8" y1="299.0" x2="188.8" y2="259.1" opacity="1.0" stroke="rgb(0,0,0)"  stroke-width="3"/>
<line x1="188.8" y1="259.1" x2="154.3" y2="239.2" opacity="1.0" stroke="rgb(0,0,0)"  stroke-width="3"/>
<line x1="180.0" y1="262.4" x2="155.9" y2="248.4" opacity="1.0" stroke="rgb(0,0,0)"  stroke-width="3"/>
<line x1="154.3" y1="239.2" x2="119.8" y2="259.1" opacity="1.0" stroke="rgb(0,0,0)"  stroke-width="3"/>
<line x1="119.8" y1="259.1" x2="119.8" y2="299.0" opacity="1.0" stroke="rgb(0,0,0)"  stroke-width="3"/>
<line x1="127.0" y1="265.1" x2="127.0" y2="293.0" opacity="1.0" stroke="rgb(0,0,0)"  stroke-width="3"/>
<line x1="350.1" y1="245.7" x2="326.9" y2="259.1" opacity="1.0" stroke="rgb(0,0,0)"  stroke-width="3"/>
<line x1="303.3" y1="192.4" x2="338.9" y2="170.0" opacity="1.0" stroke="rgb(0,0,0)"  stroke-width="3"/>
<line x1="338.9" y1="170.0" x2="365.5" y2="199.6" opacity="1.0" stroke="rgb(0,0,0)"  stroke-width="3"/>
<line x1="223.3" y1="199.4" x2="188.8" y2="179.4" opacity="1.0" stroke="rgb(0,0,0)"  stroke-width="3"/>
<line x1="221.8" y1="190.1" x2="197.6" y2="176.2" opacity="1.0" stroke="rgb(0,0,0)"  stroke-width="3"/>
<line x1="188.8" y1="179.4" x2="188.8" y2="139.6" opacity="1.0" stroke="rgb(0,0,0)"  stroke-width="3"/>
<line x1="188.8" y1="139.6" x2="223.3" y2="119.7" opacity="1.0" stroke="rgb(0,0,0)"  stroke-width="3"/>
<line x1="197.6" y1="142.8" x2="221.8" y2="128.9" opacity="1.0" stroke="rgb(0,0,0)"  stroke-width="3"/>
<line x1="223.3" y1="119.7" x2="257.9" y2="139.6" opacity="1.0" stroke="rgb(0,0,0)"  stroke-width="3"/>
<line x1="257.9" y1="139.6" x2="257.9" y2="179.4" opacity="1.0" stroke="rgb(0,0,0)"  stroke-width="3"/>
<line x1="250.7" y1="145.6" x2="250.7" y2="173.4" opacity="1.0" stroke="rgb(0,0,0)"  stroke-width="3"/>
<line x1="66.7" y1="261.7" x2="105.6" y2="253.5" opacity="1.0" stroke="rgb(0,0,0)"  stroke-width="3"/>
<line x1="71.0" y1="253.5" x2="98.3" y2="247.7" opacity="1.0" stroke="rgb(0,0,0)"  stroke-width="3"/>
<line x1="105.6" y1="253.5" x2="117.9" y2="215.6" opacity="1.0" stroke="rgb(0,0,0)"  stroke-width="3"/>
<line x1="117.9" y1="215.6" x2="91.3" y2="186.0" opacity="1.0" stroke="rgb(0,0,0)"  stroke-width="3"/>
<line x1="108.6" y1="215.9" x2="89.9" y2="195.2" opacity="1.0" stroke="rgb(0,0,0)"  stroke-width="3"/>
<line x1="91.3" y1="186.0" x2="52.3" y2="194.2" opacity="1.0" stroke="rgb(0,0,0)"  stroke-width="3"/>
<line x1="52.3" y1="194.2" x2="40.0" y2="232.1" opacity="1.0" stroke="rgb(0,0,0)"  stroke-width="3"/>
<line x1="57.3" y1="202.2" x2="48.7" y2="228.7" opacity="1.0" stroke="rgb(0,0,0)"  stroke-width="3"/>
<line x1="40.0" y1="232.1" x2="66.7" y2="261.7" opacity="1.0" stroke="rgb(0,0,0)"  stroke-width="3"/>
<line x1="125.6" y1="84.0" x2="98.9" y2="113.6" opacity="1.0" stroke="rgb(0,0,0)"  stroke-width="3"/>
<line x1="126.9" y1="93.2" x2="108.3" y2="113.9" opacity="1.0" stroke="rgb(0,0,0)"  stroke-width="3"/>
<line x1="98.9" y1="113.6" x2="111.2" y2="151.5" opacity="1.0" stroke="rgb(0,0,0)"  stroke-width="3"/>
<line x1="111.2" y1="151.5" x2="150.2" y2="159.7" opacity="1.0" stroke="rgb(0,0,0)"  stroke-width="3"/>
<line x1="118.6" y1="145.7" x2="145.8" y2="151.5" opacity="1.0" stroke="rgb(0,0,0)"  stroke-width="3"/>
<line x1="150.2" y1="159.7" x2="176.8" y2="130.1" opacity="1.0" stroke="rgb(0,0,0)"  stroke-width="3"/>
<line x1="176.8" y1="130.1" x2="164.5" y2="92.2" opacity="1.0" stroke="rgb(0,0,0)"  stroke-width="3"/>
<line x1="168.1" y1="126.7" x2="159.5" y2="100.2" opacity="1.0" stroke="rgb(0,0,0)"  stroke-width="3"/>
<line x1="164.5" y1="92.2" x2="125.6" y2="84.0" opacity="1.0" stroke="rgb(0,0,0)"  stroke-width="3"/>
<line x1="321.2" y1="363.6" x2="294.6" y2="334.0" opacity="1.0" stroke="rgb(0,0,0)"  stroke-width="3"/>
<line x1="311.8" y1="364.0" x2="293.2" y2="343.3" opacity="1.0" stroke="rgb(0,0,0)"  stroke-width="3"/>
<line x1="294.6" y1="334.0" x2="255.6" y2="342.3" opacity="1.0" stroke="rgb(0,0,0)"  stroke-width="3"/>
<line x1="255.6" y1="342.3" x2="243.3" y2="380.2" opacity="1.0" stroke="rgb(0,0,0)"  stroke-width="3"/>
<line x1="260.6" y1="350.2" x2="252.0" y2="376.7" opacity="1.0" stroke="rgb(0,0,0)"  stroke-width="3"/>
<line x1="243.3" y1="380.2" x2="269.9" y2="409.8" opacity="1.0" stroke="rgb(0,0,0)"  stroke-width="3"/>
<line x1="269.9" y1="409.8" x2="308.9" y2="401.5" opacity="1.0" stroke="rgb(0,0,0)"  stroke-width="3"/>
<line x1="274.3" y1="401.5" x2="301.5" y2="395.7" opacity="1.0" stroke="rgb(0,0,0)"  stroke-width="3"/>
<line x1="308.9" y1="401.5" x2="321.2" y2="363.6" opacity="1.0" stroke="rgb(0,0,0)"  stroke-width="3"/>
<line x1="137.8" y1="401.5" x2="176.8" y2="409.8" opacity="1.0" stroke="rgb(0,0,0)"  stroke-width="3"/>
<line x1="145.2" y1="395.7" x2="172.4" y2="401.5" opacity="1.0" stroke="rgb(0,0,0)"  stroke-width="3"/>
<line x1="176.8" y1="409.8" x2="203.4" y2="380.2" opacity="1.0" stroke="rgb(0,0,0)"  stroke-width="3"/>
<line x1="203.4" y1="380.2" x2="191.1" y2="342.3" opacity="1.0" stroke="rgb(0,0,0)"  stroke-width="3"/>
<line x1="194.7" y1="376.7" x2="186.1" y2="350.2" opacity="1.0" stroke="rgb(0,0,0)"  stroke-width="3"/>
<line x1="191.1" y1="342.3" x2="152.1" y2="334.0" opacity="1.0" stroke="rgb(0,0,0)"  stroke-width="3"/>
<line x1="152.1" y1="334.0" x2="125.5" y2="363.6" opacity="1.0" stroke="rgb(0,0,0)"  stroke-width="3"/>
<line x1="153.5" y1="343.3" x2="134.9" y2="364.0" opacity="1.0" stroke="rgb(0,0,0)"  stroke-width="3"/>
<line x1="125.5" y1="363.6" x2="137.8" y2="401.5" opacity="1.0" stroke="rgb(0,0,0)"  stroke-width="3"/>
<line x1="390.2" y1="123.8" x2="351.2" y2="132.1" opacity="1.0" stroke="rgb(0,0,0)"  stroke-width="3"/>
<line x1="351.2" y1="132.1" x2="338.9" y2="170.0" opacity="1.0" stroke="rgb(0,0,0)"  stroke-width="3"/>
<line x1="356.2" y1="140.0" x2="347.6" y2="166.5" opacity="1.0" stroke="rgb(0,0,0)"  stroke-width="3"/>
<line x1="404.5" y1="191.3" x2="416.8" y2="153.4" opacity="1.0" stroke="rgb(0,0,0)"  stroke-width="3"/>
<line x1="416.8" y1="153.4" x2="390.2" y2="123.8" opacity="1.0" stroke="rgb(0,0,0)"  stroke-width="3"/>
<line x1="407.4" y1="153.8" x2="388.8" y2="133.1" opacity="1.0" stroke="rgb(0,0,0)"  stroke-width="3"/>
<line x1="336.8" y1="64.6" x2="375.8" y2="56.3" opacity="1.0" stroke="rgb(0,0,0)"  stroke-width="3"/>
<line x1="375.8" y1="56.3" x2="402.5" y2="85.9" opacity="1.0" stroke="rgb(0,0,0)"  stroke-width="3"/>
<line x1="374.5" y1="65.6" x2="393.1" y2="86.3" opacity="1.0" stroke="rgb(0,0,0)"  stroke-width="3"/>
<line x1="402.5" y1="85.9" x2="390.2" y2="123.8" opacity="1.0" stroke="rgb(0,0,0)"  stroke-width="3"/>
<line x1="351.2" y1="132.1" x2="324.5" y2="102.5" opacity="1.0" stroke="rgb(0,0,0)"  stroke-width="3"/>
<line x1="324.5" y1="102.5" x2="336.8" y2="64.6" opacity="1.0" stroke="rgb(0,0,0)"  stroke-width="3"/>
<line x1="333.2" y1="99.0" x2="341.8" y2="72.5" opacity="1.0" stroke="rgb(0,0,0)"  stroke-width="3"/>
<line x1="376.4" y1="321.0" x2="384.7" y2="360.0" opacity="1.0" stroke="rgb(0,0,0)"  stroke-width="3"/>
<line x1="384.7" y1="360.0" x2="422.6" y2="372.3" opacity="1.0" stroke="rgb(0,0,0)"  stroke-width="3"/>
<line x1="392.7" y1="355.0" x2="419.1" y2="363.6" opacity="1.0" stroke="rgb(0,0,0)"  stroke-width="3"/>
<line x1="422.6" y1="372.3" x2="452.2" y2="345.7" opacity="1.0" stroke="rgb(0,0,0)"  stroke-width="3"/>
<line x1="452.2" y1="345.7" x2="443.9" y2="306.7" opacity="1.0" stroke="rgb(0,0,0)"  stroke-width="3"/>
<line x1="443.9" y1="341.3" x2="438.1" y2="314.1" opacity="1.0" stroke="rgb(0,0,0)"  stroke-width="3"/>
<line x1="443.9" y1="306.7" x2="406.0" y2="294.4" opacity="1.0" stroke="rgb(0,0,0)"  stroke-width="3"/>
<line x1="406.0" y1="294.4" x2="376.4" y2="321.0" opacity="1.0" stroke="rgb(0,0,0)"  stroke-width="3"/>
<line x1="406.4" y1="303.8" x2="385.7" y2="322.4" opacity="1.0" stroke="rgb(0,0,0)"  stroke-width="3"/>
<line x1="484.2" y1="260.3" x2="524.0" y2="260.3" opacity="1.0" stroke="rgb(0,0,0)"  stroke-width="3"/>
<line x1="524.0" y1="260.3" x2="543.9" y2="225.8" opacity="1.0" stroke="rgb(0,0,0)"  stroke-width="3"/>
<line x1="520.8" y1="251.5" x2="534.7" y2="227.4" opacity="1.0" stroke="rgb(0,0,0)"  stroke-width="3"/>
<line x1="543.9" y1="225.8" x2="524.0" y2="191.3" opacity="1.0" stroke="rgb(0,0,0)"  stroke-width="3"/>
<line x1="524.0" y1="191.3" x2="484.2" y2="191.3" opacity="1.0" stroke="rgb(0,0,0)"  stroke-width="3"/>
<line x1="518.0" y1="198.5" x2="490.2" y2="198.5" opacity="1.0" stroke="rgb(0,0,0)"  stroke-width="3"/>
<line x1="484.2" y1="191.3" x2="464.3" y2="225.8" opacity="1.0" stroke="rgb(0,0,0)"  stroke-width="3"/>
<line x1="464.3" y1="225.8" x2="484.2" y2="260.3" opacity="1.0" stroke="rgb(0,0,0)"  stroke-width="3"/>
<line x1="473.5" y1="227.4" x2="487.4" y2="251.5" opacity="1.0" stroke="rgb(0,0,0)"  stroke-width="3"/>
<line x1="111.2" y1="151.5" x2="91.3" y2="186.0" opacity="1.0" stroke="rgb(0,0,0)"  stroke-width="3"/>
<line x1="117.9" y1="215.6" x2="154.3" y2="199.4" opacity="1.0" stroke="rgb(0,0,0)"  stroke-width="3"/>
<line x1="154.3" y1="199.4" x2="150.2" y2="159.7" opacity="1.0" stroke="rgb(0,0,0)"  stroke-width="3"/>
<line x1="203.4" y1="380.2" x2="243.3" y2="380.2" opacity="1.0" stroke="rgb(0,0,0)"  stroke-width="3"/>
<line x1="255.6" y1="342.3" x2="223.3" y2="318.9" opacity="1.0" stroke="rgb(0,0,0)"  stroke-width="3"/>
<line x1="223.3" y1="318.9" x2="191.1" y2="342.3" opacity="1.0" stroke="rgb(0,0,0)"  stroke-width="3"/>
<line x1="154.3" y1="239.2" x2="154.3" y2="199.4" opacity="1.0" stroke="rgb(0,0,0)"  stroke-width="3"/>
<line x1="154.3" y1="199.4" x2="188.8" y2="179.4" opacity="1.0" stroke="rgb(0,0,0)"  stroke-width="3"/>
<line x1="212.1" y1="245.7" x2="188.8" y2="259.1" opacity="1.0" stroke="rgb(0,0,0)"  stroke-width="3"/>
<line x1="188.8" y1="299.0" x2="223.3" y2="318.9" opacity="1.0" stroke="rgb(0,0,0)"  stroke-width="3"/>
<line x1="223.3" y1="318.9" x2="257.9" y2="299.0" opacity="1.0" stroke="rgb(0,0,0)"  stroke-width="3"/>
<text x="355.364379" y="247.209392" fill="rgb(12,12,255)" stroke-width="0" font-weight="bold" font-size="25.92" >N</text>
<text x="286.356201" y="207.367552" fill="rgb(255,181,181)" stroke-width="0" font-weight="bold" font-size="25.92" >B</text>
<text x="217.348022" y="247.209440" fill="rgb(12,12,255)" stroke-width="0" font-weight="bold" font-size="25.92" >N</text>
</svg>
</g>
</svg>
