<?xml version="1.0"?>
<svg version="1.1" id="topsvg"
xmlns="http://www.w3.org/2000/svg" xmlns:xlink="http://www.w3.org/1999/xlink"
xmlns:cml="http://www.xml-cml.org/schema" x="0" y="0" width="200px" height="200px" viewBox="0 0 100 100">
<title>GD270.sdf - Open Babel Depiction</title>
<rect x="0" y="0" width="100" height="100" fill="white"/>
<g transform="translate(0,0)">
<svg width="100" height="100" x="0" y="0" viewBox="0 0 543.763 499.76"
font-family="sans-serif" stroke="rgb(0,0,0)" stroke-width="3"  stroke-linecap="round">
<line x1="161.1" y1="353.8" x2="141.4" y2="387.9" opacity="1.0" stroke="rgb(0,0,0)"  stroke-width="3"/>
<line x1="199.6" y1="345.7" x2="209.8" y2="383.7" opacity="1.0" stroke="rgb(0,0,0)"  stroke-width="3"/>
<line x1="344.2" y1="345.7" x2="334.0" y2="383.7" opacity="1.0" stroke="rgb(0,0,0)"  stroke-width="3"/>
<line x1="382.7" y1="353.8" x2="410.6" y2="381.7" opacity="1.0" stroke="rgb(0,0,0)"  stroke-width="3"/>
<line x1="356.4" y1="106.7" x2="382.8" y2="77.4" opacity="1.0" stroke="rgb(0,0,0)"  stroke-width="3"/>
<line x1="382.8" y1="77.4" x2="421.3" y2="85.6" opacity="1.0" stroke="rgb(0,0,0)"  stroke-width="3"/>
<line x1="382.8" y1="77.4" x2="370.6" y2="40.0" opacity="1.0" stroke="rgb(0,0,0)"  stroke-width="3"/>
<line x1="382.8" y1="77.4" x2="409.1" y2="48.2" opacity="1.0" stroke="rgb(0,0,0)"  stroke-width="3"/>
<line x1="187.3" y1="106.7" x2="161.0" y2="77.4" opacity="1.0" stroke="rgb(0,0,0)"  stroke-width="3"/>
<line x1="161.0" y1="77.4" x2="122.5" y2="85.6" opacity="1.0" stroke="rgb(0,0,0)"  stroke-width="3"/>
<line x1="161.0" y1="77.4" x2="173.2" y2="40.0" opacity="1.0" stroke="rgb(0,0,0)"  stroke-width="3"/>
<line x1="161.0" y1="77.4" x2="199.5" y2="69.3" opacity="1.0" stroke="rgb(0,0,0)"  stroke-width="3"/>
<line x1="291.6" y1="127.8" x2="303.7" y2="165.2" opacity="1.0" stroke="rgb(0,0,0)"  stroke-width="3"/>
<line x1="286.6" y1="135.7" x2="295.0" y2="161.8" opacity="1.0" stroke="rgb(0,0,0)"  stroke-width="3"/>
<line x1="303.7" y1="165.2" x2="282.4" y2="180.7" opacity="1.0" stroke="rgb(0,0,0)"  stroke-width="3"/>
<line x1="261.4" y1="180.7" x2="240.0" y2="165.2" opacity="1.0" stroke="rgb(0,0,0)"  stroke-width="3"/>
<line x1="240.0" y1="165.2" x2="252.2" y2="127.8" opacity="1.0" stroke="rgb(0,0,0)"  stroke-width="3"/>
<line x1="248.7" y1="161.8" x2="257.2" y2="135.7" opacity="1.0" stroke="rgb(0,0,0)"  stroke-width="3"/>
<line x1="252.2" y1="127.8" x2="291.6" y2="127.8" opacity="1.0" stroke="rgb(0,0,0)"  stroke-width="3"/>
<line x1="161.1" y1="353.8" x2="141.4" y2="319.7" opacity="1.0" stroke="rgb(0,0,0)"  stroke-width="3"/>
<line x1="141.4" y1="319.7" x2="167.7" y2="290.5" opacity="1.0" stroke="rgb(0,0,0)"  stroke-width="3"/>
<line x1="150.7" y1="320.1" x2="169.0" y2="299.8" opacity="1.0" stroke="rgb(0,0,0)"  stroke-width="3"/>
<line x1="167.7" y1="290.5" x2="191.8" y2="301.2" opacity="1.0" stroke="rgb(0,0,0)"  stroke-width="3"/>
<line x1="202.3" y1="319.4" x2="199.6" y2="345.7" opacity="1.0" stroke="rgb(0,0,0)"  stroke-width="3"/>
<line x1="199.6" y1="345.7" x2="161.1" y2="353.8" opacity="1.0" stroke="rgb(0,0,0)"  stroke-width="3"/>
<line x1="192.2" y1="339.9" x2="165.4" y2="345.6" opacity="1.0" stroke="rgb(0,0,0)"  stroke-width="3"/>
<line x1="344.2" y1="345.7" x2="382.7" y2="353.8" opacity="1.0" stroke="rgb(0,0,0)"  stroke-width="3"/>
<line x1="351.6" y1="339.9" x2="378.3" y2="345.6" opacity="1.0" stroke="rgb(0,0,0)"  stroke-width="3"/>
<line x1="382.7" y1="353.8" x2="402.4" y2="319.7" opacity="1.0" stroke="rgb(0,0,0)"  stroke-width="3"/>
<line x1="402.4" y1="319.7" x2="376.1" y2="290.5" opacity="1.0" stroke="rgb(0,0,0)"  stroke-width="3"/>
<line x1="393.0" y1="320.1" x2="374.7" y2="299.8" opacity="1.0" stroke="rgb(0,0,0)"  stroke-width="3"/>
<line x1="376.1" y1="290.5" x2="352.0" y2="301.2" opacity="1.0" stroke="rgb(0,0,0)"  stroke-width="3"/>
<line x1="341.4" y1="319.4" x2="344.2" y2="345.7" opacity="1.0" stroke="rgb(0,0,0)"  stroke-width="3"/>
<line x1="237.8" y1="286.8" x2="271.9" y2="306.5" opacity="1.0" stroke="rgb(0,0,0)"  stroke-width="3"/>
<line x1="271.9" y1="306.5" x2="306.0" y2="286.8" opacity="1.0" stroke="rgb(0,0,0)"  stroke-width="3"/>
<line x1="273.5" y1="297.3" x2="297.2" y2="283.6" opacity="1.0" stroke="rgb(0,0,0)"  stroke-width="3"/>
<line x1="306.0" y1="286.8" x2="306.0" y2="247.4" opacity="1.0" stroke="rgb(0,0,0)"  stroke-width="3"/>
<line x1="306.0" y1="247.4" x2="271.9" y2="227.8" opacity="1.0" stroke="rgb(0,0,0)"  stroke-width="3"/>
<line x1="297.2" y1="250.7" x2="273.5" y2="237.0" opacity="1.0" stroke="rgb(0,0,0)"  stroke-width="3"/>
<line x1="271.9" y1="227.8" x2="237.8" y2="247.4" opacity="1.0" stroke="rgb(0,0,0)"  stroke-width="3"/>
<line x1="237.8" y1="247.4" x2="237.8" y2="286.8" opacity="1.0" stroke="rgb(0,0,0)"  stroke-width="3"/>
<line x1="245.0" y1="253.4" x2="245.0" y2="280.8" opacity="1.0" stroke="rgb(0,0,0)"  stroke-width="3"/>
<line x1="271.9" y1="201.4" x2="271.9" y2="227.8" opacity="1.0" stroke="rgb(0,0,0)"  stroke-width="3"/>
<line x1="237.8" y1="247.4" x2="214.9" y2="234.3" opacity="1.0" stroke="rgb(0,0,0)"  stroke-width="3"/>
<line x1="203.2" y1="214.8" x2="201.5" y2="173.4" opacity="1.0" stroke="rgb(0,0,0)"  stroke-width="3"/>
<line x1="201.5" y1="173.4" x2="240.0" y2="165.2" opacity="1.0" stroke="rgb(0,0,0)"  stroke-width="3"/>
<line x1="453.1" y1="274.1" x2="426.7" y2="244.9" opacity="1.0" stroke="rgb(0,0,0)"  stroke-width="3"/>
<line x1="426.7" y1="244.9" x2="388.2" y2="253.0" opacity="1.0" stroke="rgb(0,0,0)"  stroke-width="3"/>
<line x1="422.4" y1="253.1" x2="395.6" y2="258.8" opacity="1.0" stroke="rgb(0,0,0)"  stroke-width="3"/>
<line x1="388.2" y1="253.0" x2="376.1" y2="290.5" opacity="1.0" stroke="rgb(0,0,0)"  stroke-width="3"/>
<line x1="402.4" y1="319.7" x2="440.9" y2="311.6" opacity="1.0" stroke="rgb(0,0,0)"  stroke-width="3"/>
<line x1="440.9" y1="311.6" x2="453.1" y2="274.1" opacity="1.0" stroke="rgb(0,0,0)"  stroke-width="3"/>
<line x1="435.9" y1="303.6" x2="444.4" y2="277.6" opacity="1.0" stroke="rgb(0,0,0)"  stroke-width="3"/>
<line x1="388.2" y1="253.0" x2="351.6" y2="233.8" opacity="1.0" stroke="rgb(0,0,0)"  stroke-width="3"/>
<line x1="328.8" y1="234.3" x2="306.0" y2="247.4" opacity="1.0" stroke="rgb(0,0,0)"  stroke-width="3"/>
<line x1="306.0" y1="286.8" x2="328.8" y2="300.0" opacity="1.0" stroke="rgb(0,0,0)"  stroke-width="3"/>
<line x1="356.4" y1="106.7" x2="368.6" y2="144.2" opacity="1.0" stroke="rgb(0,0,0)"  stroke-width="3"/>
<line x1="368.6" y1="144.2" x2="342.3" y2="173.4" opacity="1.0" stroke="rgb(0,0,0)"  stroke-width="3"/>
<line x1="359.2" y1="143.8" x2="340.9" y2="164.1" opacity="1.0" stroke="rgb(0,0,0)"  stroke-width="3"/>
<line x1="342.3" y1="173.4" x2="303.7" y2="165.2" opacity="1.0" stroke="rgb(0,0,0)"  stroke-width="3"/>
<line x1="291.6" y1="127.8" x2="317.9" y2="98.5" opacity="1.0" stroke="rgb(0,0,0)"  stroke-width="3"/>
<line x1="317.9" y1="98.5" x2="356.4" y2="106.7" opacity="1.0" stroke="rgb(0,0,0)"  stroke-width="3"/>
<line x1="322.3" y1="106.8" x2="349.1" y2="112.5" opacity="1.0" stroke="rgb(0,0,0)"  stroke-width="3"/>
<line x1="187.3" y1="106.7" x2="225.8" y2="98.5" opacity="1.0" stroke="rgb(0,0,0)"  stroke-width="3"/>
<line x1="194.7" y1="112.5" x2="221.5" y2="106.8" opacity="1.0" stroke="rgb(0,0,0)"  stroke-width="3"/>
<line x1="225.8" y1="98.5" x2="252.2" y2="127.8" opacity="1.0" stroke="rgb(0,0,0)"  stroke-width="3"/>
<line x1="201.5" y1="173.4" x2="175.2" y2="144.2" opacity="1.0" stroke="rgb(0,0,0)"  stroke-width="3"/>
<line x1="202.8" y1="164.1" x2="184.5" y2="143.8" opacity="1.0" stroke="rgb(0,0,0)"  stroke-width="3"/>
<line x1="175.2" y1="144.2" x2="187.3" y2="106.7" opacity="1.0" stroke="rgb(0,0,0)"  stroke-width="3"/>
<line x1="237.8" y1="286.8" x2="214.9" y2="300.0" opacity="1.0" stroke="rgb(0,0,0)"  stroke-width="3"/>
<line x1="167.7" y1="290.5" x2="155.5" y2="253.0" opacity="1.0" stroke="rgb(0,0,0)"  stroke-width="3"/>
<line x1="155.5" y1="253.0" x2="192.2" y2="233.8" opacity="1.0" stroke="rgb(0,0,0)"  stroke-width="3"/>
<line x1="340.6" y1="214.8" x2="342.3" y2="173.4" opacity="1.0" stroke="rgb(0,0,0)"  stroke-width="3"/>
<line x1="477.4" y1="199.2" x2="503.8" y2="228.5" opacity="1.0" stroke="rgb(0,0,0)"  stroke-width="3"/>
<line x1="503.8" y1="228.5" x2="491.6" y2="265.9" opacity="1.0" stroke="rgb(0,0,0)"  stroke-width="3"/>
<line x1="495.1" y1="232.0" x2="486.6" y2="258.0" opacity="1.0" stroke="rgb(0,0,0)"  stroke-width="3"/>
<line x1="491.6" y1="265.9" x2="453.1" y2="274.1" opacity="1.0" stroke="rgb(0,0,0)"  stroke-width="3"/>
<line x1="426.7" y1="244.9" x2="438.9" y2="207.4" opacity="1.0" stroke="rgb(0,0,0)"  stroke-width="3"/>
<line x1="438.9" y1="207.4" x2="477.4" y2="199.2" opacity="1.0" stroke="rgb(0,0,0)"  stroke-width="3"/>
<line x1="446.3" y1="213.2" x2="473.0" y2="207.5" opacity="1.0" stroke="rgb(0,0,0)"  stroke-width="3"/>
<line x1="141.4" y1="319.7" x2="102.8" y2="311.6" opacity="1.0" stroke="rgb(0,0,0)"  stroke-width="3"/>
<line x1="102.8" y1="311.6" x2="90.7" y2="274.1" opacity="1.0" stroke="rgb(0,0,0)"  stroke-width="3"/>
<line x1="107.8" y1="303.6" x2="99.4" y2="277.6" opacity="1.0" stroke="rgb(0,0,0)"  stroke-width="3"/>
<line x1="90.7" y1="274.1" x2="117.0" y2="244.9" opacity="1.0" stroke="rgb(0,0,0)"  stroke-width="3"/>
<line x1="117.0" y1="244.9" x2="155.5" y2="253.0" opacity="1.0" stroke="rgb(0,0,0)"  stroke-width="3"/>
<line x1="121.4" y1="253.1" x2="148.2" y2="258.8" opacity="1.0" stroke="rgb(0,0,0)"  stroke-width="3"/>
<line x1="40.0" y1="228.5" x2="66.3" y2="199.2" opacity="1.0" stroke="rgb(0,0,0)"  stroke-width="3"/>
<line x1="66.3" y1="199.2" x2="104.9" y2="207.4" opacity="1.0" stroke="rgb(0,0,0)"  stroke-width="3"/>
<line x1="70.7" y1="207.5" x2="97.5" y2="213.2" opacity="1.0" stroke="rgb(0,0,0)"  stroke-width="3"/>
<line x1="104.9" y1="207.4" x2="117.0" y2="244.9" opacity="1.0" stroke="rgb(0,0,0)"  stroke-width="3"/>
<line x1="90.7" y1="274.1" x2="52.2" y2="265.9" opacity="1.0" stroke="rgb(0,0,0)"  stroke-width="3"/>
<line x1="52.2" y1="265.9" x2="40.0" y2="228.5" opacity="1.0" stroke="rgb(0,0,0)"  stroke-width="3"/>
<line x1="57.2" y1="258.0" x2="48.7" y2="232.0" opacity="1.0" stroke="rgb(0,0,0)"  stroke-width="3"/>
<line x1="400.4" y1="419.7" x2="428.2" y2="447.6" opacity="1.0" stroke="rgb(0,0,0)"  stroke-width="3"/>
<line x1="428.2" y1="447.6" x2="466.2" y2="437.4" opacity="1.0" stroke="rgb(0,0,0)"  stroke-width="3"/>
<line x1="432.1" y1="439.1" x2="458.6" y2="432.0" opacity="1.0" stroke="rgb(0,0,0)"  stroke-width="3"/>
<line x1="466.2" y1="437.4" x2="476.4" y2="399.3" opacity="1.0" stroke="rgb(0,0,0)"  stroke-width="3"/>
<line x1="476.4" y1="399.3" x2="448.6" y2="371.5" opacity="1.0" stroke="rgb(0,0,0)"  stroke-width="3"/>
<line x1="467.1" y1="400.2" x2="447.7" y2="380.8" opacity="1.0" stroke="rgb(0,0,0)"  stroke-width="3"/>
<line x1="448.6" y1="371.5" x2="410.6" y2="381.7" opacity="1.0" stroke="rgb(0,0,0)"  stroke-width="3"/>
<line x1="410.6" y1="381.7" x2="400.4" y2="419.7" opacity="1.0" stroke="rgb(0,0,0)"  stroke-width="3"/>
<line x1="416.0" y1="389.3" x2="408.9" y2="415.8" opacity="1.0" stroke="rgb(0,0,0)"  stroke-width="3"/>
<line x1="102.0" y1="387.9" x2="82.3" y2="422.0" opacity="1.0" stroke="rgb(0,0,0)"  stroke-width="3"/>
<line x1="82.3" y1="422.0" x2="102.0" y2="456.1" opacity="1.0" stroke="rgb(0,0,0)"  stroke-width="3"/>
<line x1="91.5" y1="423.6" x2="105.2" y2="447.3" opacity="1.0" stroke="rgb(0,0,0)"  stroke-width="3"/>
<line x1="102.0" y1="456.1" x2="141.4" y2="456.1" opacity="1.0" stroke="rgb(0,0,0)"  stroke-width="3"/>
<line x1="141.4" y1="456.1" x2="161.1" y2="422.0" opacity="1.0" stroke="rgb(0,0,0)"  stroke-width="3"/>
<line x1="138.1" y1="447.3" x2="151.8" y2="423.6" opacity="1.0" stroke="rgb(0,0,0)"  stroke-width="3"/>
<line x1="161.1" y1="422.0" x2="141.4" y2="387.9" opacity="1.0" stroke="rgb(0,0,0)"  stroke-width="3"/>
<line x1="141.4" y1="387.9" x2="102.0" y2="387.9" opacity="1.0" stroke="rgb(0,0,0)"  stroke-width="3"/>
<line x1="135.4" y1="395.1" x2="108.0" y2="395.1" opacity="1.0" stroke="rgb(0,0,0)"  stroke-width="3"/>
<line x1="181.9" y1="411.5" x2="192.1" y2="449.6" opacity="1.0" stroke="rgb(0,0,0)"  stroke-width="3"/>
<line x1="192.1" y1="449.6" x2="230.1" y2="459.8" opacity="1.0" stroke="rgb(0,0,0)"  stroke-width="3"/>
<line x1="199.8" y1="444.2" x2="226.2" y2="451.3" opacity="1.0" stroke="rgb(0,0,0)"  stroke-width="3"/>
<line x1="230.1" y1="459.8" x2="258.0" y2="431.9" opacity="1.0" stroke="rgb(0,0,0)"  stroke-width="3"/>
<line x1="258.0" y1="431.9" x2="247.8" y2="393.9" opacity="1.0" stroke="rgb(0,0,0)"  stroke-width="3"/>
<line x1="249.5" y1="428.0" x2="242.4" y2="401.5" opacity="1.0" stroke="rgb(0,0,0)"  stroke-width="3"/>
<line x1="247.8" y1="393.9" x2="209.8" y2="383.7" opacity="1.0" stroke="rgb(0,0,0)"  stroke-width="3"/>
<line x1="209.8" y1="383.7" x2="181.9" y2="411.5" opacity="1.0" stroke="rgb(0,0,0)"  stroke-width="3"/>
<line x1="210.6" y1="393.0" x2="191.2" y2="412.4" opacity="1.0" stroke="rgb(0,0,0)"  stroke-width="3"/>
<line x1="296.0" y1="393.9" x2="285.8" y2="431.9" opacity="1.0" stroke="rgb(0,0,0)"  stroke-width="3"/>
<line x1="285.8" y1="431.9" x2="313.6" y2="459.8" opacity="1.0" stroke="rgb(0,0,0)"  stroke-width="3"/>
<line x1="295.1" y1="431.1" x2="314.5" y2="450.4" opacity="1.0" stroke="rgb(0,0,0)"  stroke-width="3"/>
<line x1="313.6" y1="459.8" x2="351.7" y2="449.6" opacity="1.0" stroke="rgb(0,0,0)"  stroke-width="3"/>
<line x1="351.7" y1="449.6" x2="361.8" y2="411.5" opacity="1.0" stroke="rgb(0,0,0)"  stroke-width="3"/>
<line x1="346.3" y1="441.9" x2="353.3" y2="415.5" opacity="1.0" stroke="rgb(0,0,0)"  stroke-width="3"/>
<line x1="361.8" y1="411.5" x2="334.0" y2="383.7" opacity="1.0" stroke="rgb(0,0,0)"  stroke-width="3"/>
<line x1="334.0" y1="383.7" x2="296.0" y2="393.9" opacity="1.0" stroke="rgb(0,0,0)"  stroke-width="3"/>
<line x1="330.1" y1="392.2" x2="303.6" y2="399.3" opacity="1.0" stroke="rgb(0,0,0)"  stroke-width="3"/>
<text x="197.681971" y="235.750718" fill="rgb(255,181,181)" stroke-width="0" font-weight="bold" font-size="25.92" >B</text>
<text x="334.080862" y="235.750718" fill="rgb(255,181,181)" stroke-width="0" font-weight="bold" font-size="25.92" >B</text>
<text x="334.080862" y="314.500650" fill="rgb(12,12,255)" stroke-width="0" font-weight="bold" font-size="25.92" >N</text>
<text x="197.681971" y="314.500650" fill="rgb(12,12,255)" stroke-width="0" font-weight="bold" font-size="25.92" >N</text>
<text x="265.881416" y="196.375753" fill="rgb(12,12,255)" stroke-width="0" font-weight="bold" font-size="25.92" >N</text>
</svg>
</g>
</svg>
