<?xml version="1.0"?>
<svg version="1.1" id="topsvg"
xmlns="http://www.w3.org/2000/svg" xmlns:xlink="http://www.w3.org/1999/xlink"
xmlns:cml="http://www.xml-cml.org/schema" x="0" y="0" width="200px" height="200px" viewBox="0 0 100 100">
<title>GD289.sdf - Open Babel Depiction</title>
<rect x="0" y="0" width="100" height="100" fill="white"/>
<g transform="translate(0,0)">
<svg width="100" height="100" x="0" y="0" viewBox="0 0 508.153 594.485"
font-family="sans-serif" stroke="rgb(0,0,0)" stroke-width="3"  stroke-linecap="round">
<line x1="365.1" y1="162.7" x2="390.9" y2="167.3" opacity="1.0" stroke="rgb(0,0,0)"  stroke-width="3"/>
<line x1="227.4" y1="367.1" x2="230.6" y2="476.0" opacity="1.0" stroke="rgb(0,0,0)"  stroke-width="3"/>
<line x1="151.5" y1="125.0" x2="133.4" y2="106.0" opacity="1.0" stroke="rgb(0,0,0)"  stroke-width="3"/>
<line x1="265.2" y1="494.6" x2="298.7" y2="473.9" opacity="1.0" stroke="rgb(0,0,0)"  stroke-width="3"/>
<line x1="329.1" y1="412.9" x2="326.8" y2="373.6" opacity="1.0" stroke="rgb(0,0,0)"  stroke-width="3"/>
<line x1="366.8" y1="469.8" x2="402.0" y2="487.4" opacity="1.0" stroke="rgb(0,0,0)"  stroke-width="3"/>
<line x1="402.0" y1="487.4" x2="434.9" y2="465.6" opacity="1.0" stroke="rgb(0,0,0)"  stroke-width="3"/>
<line x1="402.0" y1="487.4" x2="404.4" y2="526.7" opacity="1.0" stroke="rgb(0,0,0)"  stroke-width="3"/>
<line x1="402.0" y1="487.4" x2="399.6" y2="448.1" opacity="1.0" stroke="rgb(0,0,0)"  stroke-width="3"/>
<line x1="326.8" y1="373.6" x2="359.6" y2="351.8" opacity="1.0" stroke="rgb(0,0,0)"  stroke-width="3"/>
<line x1="326.8" y1="373.6" x2="291.5" y2="356.0" opacity="1.0" stroke="rgb(0,0,0)"  stroke-width="3"/>
<line x1="326.8" y1="373.6" x2="324.4" y2="334.3" opacity="1.0" stroke="rgb(0,0,0)"  stroke-width="3"/>
<line x1="97.8" y1="264.3" x2="121.3" y2="232.9" opacity="1.0" stroke="rgb(0,0,0)"  stroke-width="3"/>
<line x1="121.3" y1="232.9" x2="155.9" y2="251.5" opacity="1.0" stroke="rgb(0,0,0)"  stroke-width="3"/>
<line x1="123.2" y1="242.1" x2="147.2" y2="255.0" opacity="1.0" stroke="rgb(0,0,0)"  stroke-width="3"/>
<line x1="155.9" y1="251.5" x2="156.7" y2="277.7" opacity="1.0" stroke="rgb(0,0,0)"  stroke-width="3"/>
<line x1="144.3" y1="293.0" x2="118.5" y2="297.7" opacity="1.0" stroke="rgb(0,0,0)"  stroke-width="3"/>
<line x1="118.5" y1="297.7" x2="97.8" y2="264.3" opacity="1.0" stroke="rgb(0,0,0)"  stroke-width="3"/>
<line x1="121.4" y1="288.8" x2="107.1" y2="265.6" opacity="1.0" stroke="rgb(0,0,0)"  stroke-width="3"/>
<line x1="350.5" y1="256.6" x2="331.9" y2="291.2" opacity="1.0" stroke="rgb(0,0,0)"  stroke-width="3"/>
<line x1="341.3" y1="258.5" x2="328.4" y2="282.5" opacity="1.0" stroke="rgb(0,0,0)"  stroke-width="3"/>
<line x1="331.9" y1="291.2" x2="305.9" y2="288.1" opacity="1.0" stroke="rgb(0,0,0)"  stroke-width="3"/>
<line x1="292.6" y1="273.6" x2="291.8" y2="247.3" opacity="1.0" stroke="rgb(0,0,0)"  stroke-width="3"/>
<line x1="291.8" y1="247.3" x2="325.1" y2="226.7" opacity="1.0" stroke="rgb(0,0,0)"  stroke-width="3"/>
<line x1="300.7" y1="250.3" x2="323.8" y2="236.0" opacity="1.0" stroke="rgb(0,0,0)"  stroke-width="3"/>
<line x1="325.1" y1="226.7" x2="350.5" y2="256.6" opacity="1.0" stroke="rgb(0,0,0)"  stroke-width="3"/>
<line x1="335.3" y1="125.0" x2="296.4" y2="130.3" opacity="1.0" stroke="rgb(0,0,0)"  stroke-width="3"/>
<line x1="330.3" y1="132.9" x2="303.3" y2="136.6" opacity="1.0" stroke="rgb(0,0,0)"  stroke-width="3"/>
<line x1="296.4" y1="130.3" x2="289.4" y2="168.9" opacity="1.0" stroke="rgb(0,0,0)"  stroke-width="3"/>
<line x1="289.4" y1="168.9" x2="323.9" y2="187.5" opacity="1.0" stroke="rgb(0,0,0)"  stroke-width="3"/>
<line x1="298.1" y1="165.4" x2="322.1" y2="178.3" opacity="1.0" stroke="rgb(0,0,0)"  stroke-width="3"/>
<line x1="323.9" y1="187.5" x2="342.9" y2="169.3" opacity="1.0" stroke="rgb(0,0,0)"  stroke-width="3"/>
<line x1="346.7" y1="148.6" x2="335.3" y2="125.0" opacity="1.0" stroke="rgb(0,0,0)"  stroke-width="3"/>
<line x1="199.4" y1="129.1" x2="216.4" y2="164.5" opacity="1.0" stroke="rgb(0,0,0)"  stroke-width="3"/>
<line x1="195.5" y1="137.6" x2="207.3" y2="162.2" opacity="1.0" stroke="rgb(0,0,0)"  stroke-width="3"/>
<line x1="216.4" y1="164.5" x2="188.1" y2="191.6" opacity="1.0" stroke="rgb(0,0,0)"  stroke-width="3"/>
<line x1="188.1" y1="191.6" x2="153.5" y2="173.0" opacity="1.0" stroke="rgb(0,0,0)"  stroke-width="3"/>
<line x1="153.5" y1="173.0" x2="158.2" y2="147.2" opacity="1.0" stroke="rgb(0,0,0)"  stroke-width="3"/>
<line x1="173.4" y1="132.6" x2="199.4" y2="129.1" opacity="1.0" stroke="rgb(0,0,0)"  stroke-width="3"/>
<line x1="192.8" y1="348.5" x2="227.4" y2="367.1" opacity="1.0" stroke="rgb(0,0,0)"  stroke-width="3"/>
<line x1="227.4" y1="367.1" x2="260.8" y2="346.4" opacity="1.0" stroke="rgb(0,0,0)"  stroke-width="3"/>
<line x1="228.7" y1="357.8" x2="251.9" y2="343.5" opacity="1.0" stroke="rgb(0,0,0)"  stroke-width="3"/>
<line x1="260.8" y1="346.4" x2="259.6" y2="307.2" opacity="1.0" stroke="rgb(0,0,0)"  stroke-width="3"/>
<line x1="259.6" y1="307.2" x2="225.0" y2="288.6" opacity="1.0" stroke="rgb(0,0,0)"  stroke-width="3"/>
<line x1="250.9" y1="310.7" x2="226.9" y2="297.8" opacity="1.0" stroke="rgb(0,0,0)"  stroke-width="3"/>
<line x1="225.0" y1="288.6" x2="191.6" y2="309.3" opacity="1.0" stroke="rgb(0,0,0)"  stroke-width="3"/>
<line x1="191.6" y1="309.3" x2="192.8" y2="348.5" opacity="1.0" stroke="rgb(0,0,0)"  stroke-width="3"/>
<line x1="199.0" y1="315.0" x2="199.8" y2="342.3" opacity="1.0" stroke="rgb(0,0,0)"  stroke-width="3"/>
<line x1="155.9" y1="251.5" x2="189.3" y2="230.8" opacity="1.0" stroke="rgb(0,0,0)"  stroke-width="3"/>
<line x1="189.3" y1="230.8" x2="212.4" y2="243.2" opacity="1.0" stroke="rgb(0,0,0)"  stroke-width="3"/>
<line x1="224.2" y1="262.4" x2="225.0" y2="288.6" opacity="1.0" stroke="rgb(0,0,0)"  stroke-width="3"/>
<line x1="191.6" y1="309.3" x2="168.5" y2="296.8" opacity="1.0" stroke="rgb(0,0,0)"  stroke-width="3"/>
<line x1="60.6" y1="333.4" x2="40.0" y2="300.0" opacity="1.0" stroke="rgb(0,0,0)"  stroke-width="3"/>
<line x1="40.0" y1="300.0" x2="58.6" y2="265.5" opacity="1.0" stroke="rgb(0,0,0)"  stroke-width="3"/>
<line x1="49.2" y1="298.2" x2="62.1" y2="274.2" opacity="1.0" stroke="rgb(0,0,0)"  stroke-width="3"/>
<line x1="58.6" y1="265.5" x2="97.8" y2="264.3" opacity="1.0" stroke="rgb(0,0,0)"  stroke-width="3"/>
<line x1="118.5" y1="297.7" x2="99.9" y2="332.2" opacity="1.0" stroke="rgb(0,0,0)"  stroke-width="3"/>
<line x1="99.9" y1="332.2" x2="60.6" y2="333.4" opacity="1.0" stroke="rgb(0,0,0)"  stroke-width="3"/>
<line x1="93.7" y1="325.2" x2="66.4" y2="326.0" opacity="1.0" stroke="rgb(0,0,0)"  stroke-width="3"/>
<line x1="281.9" y1="293.4" x2="259.6" y2="307.2" opacity="1.0" stroke="rgb(0,0,0)"  stroke-width="3"/>
<line x1="234.9" y1="242.6" x2="257.2" y2="228.7" opacity="1.0" stroke="rgb(0,0,0)"  stroke-width="3"/>
<line x1="257.2" y1="228.7" x2="291.8" y2="247.3" opacity="1.0" stroke="rgb(0,0,0)"  stroke-width="3"/>
<line x1="410.4" y1="288.8" x2="391.8" y2="323.4" opacity="1.0" stroke="rgb(0,0,0)"  stroke-width="3"/>
<line x1="391.8" y1="323.4" x2="352.6" y2="324.6" opacity="1.0" stroke="rgb(0,0,0)"  stroke-width="3"/>
<line x1="385.6" y1="316.4" x2="358.3" y2="317.2" opacity="1.0" stroke="rgb(0,0,0)"  stroke-width="3"/>
<line x1="352.6" y1="324.6" x2="331.9" y2="291.2" opacity="1.0" stroke="rgb(0,0,0)"  stroke-width="3"/>
<line x1="350.5" y1="256.6" x2="389.7" y2="255.4" opacity="1.0" stroke="rgb(0,0,0)"  stroke-width="3"/>
<line x1="389.7" y1="255.4" x2="410.4" y2="288.8" opacity="1.0" stroke="rgb(0,0,0)"  stroke-width="3"/>
<line x1="386.8" y1="264.3" x2="401.1" y2="287.5" opacity="1.0" stroke="rgb(0,0,0)"  stroke-width="3"/>
<line x1="289.4" y1="168.9" x2="256.0" y2="189.5" opacity="1.0" stroke="rgb(0,0,0)"  stroke-width="3"/>
<line x1="256.0" y1="189.5" x2="257.2" y2="228.7" opacity="1.0" stroke="rgb(0,0,0)"  stroke-width="3"/>
<line x1="263.4" y1="195.3" x2="264.2" y2="222.5" opacity="1.0" stroke="rgb(0,0,0)"  stroke-width="3"/>
<line x1="325.1" y1="226.7" x2="323.9" y2="187.5" opacity="1.0" stroke="rgb(0,0,0)"  stroke-width="3"/>
<line x1="121.3" y1="232.9" x2="120.1" y2="193.6" opacity="1.0" stroke="rgb(0,0,0)"  stroke-width="3"/>
<line x1="120.1" y1="193.6" x2="153.5" y2="173.0" opacity="1.0" stroke="rgb(0,0,0)"  stroke-width="3"/>
<line x1="129.0" y1="196.6" x2="152.2" y2="182.3" opacity="1.0" stroke="rgb(0,0,0)"  stroke-width="3"/>
<line x1="188.1" y1="191.6" x2="189.3" y2="230.8" opacity="1.0" stroke="rgb(0,0,0)"  stroke-width="3"/>
<line x1="181.1" y1="197.8" x2="181.9" y2="225.0" opacity="1.0" stroke="rgb(0,0,0)"  stroke-width="3"/>
<line x1="260.6" y1="99.6" x2="277.7" y2="134.9" opacity="1.0" stroke="rgb(0,0,0)"  stroke-width="3"/>
<line x1="277.7" y1="134.9" x2="255.6" y2="167.4" opacity="1.0" stroke="rgb(0,0,0)"  stroke-width="3"/>
<line x1="268.3" y1="135.8" x2="253.0" y2="158.4" opacity="1.0" stroke="rgb(0,0,0)"  stroke-width="3"/>
<line x1="255.6" y1="167.4" x2="216.4" y2="164.5" opacity="1.0" stroke="rgb(0,0,0)"  stroke-width="3"/>
<line x1="199.4" y1="129.1" x2="221.5" y2="96.7" opacity="1.0" stroke="rgb(0,0,0)"  stroke-width="3"/>
<line x1="221.5" y1="96.7" x2="260.6" y2="99.6" opacity="1.0" stroke="rgb(0,0,0)"  stroke-width="3"/>
<line x1="226.9" y1="104.3" x2="254.1" y2="106.3" opacity="1.0" stroke="rgb(0,0,0)"  stroke-width="3"/>
<line x1="287.2" y1="62.9" x2="272.4" y2="99.2" opacity="1.0" stroke="rgb(0,0,0)"  stroke-width="3"/>
<line x1="291.6" y1="71.2" x2="281.3" y2="96.4" opacity="1.0" stroke="rgb(0,0,0)"  stroke-width="3"/>
<line x1="272.4" y1="99.2" x2="296.4" y2="130.3" opacity="1.0" stroke="rgb(0,0,0)"  stroke-width="3"/>
<line x1="335.3" y1="125.0" x2="350.1" y2="88.7" opacity="1.0" stroke="rgb(0,0,0)"  stroke-width="3"/>
<line x1="350.1" y1="88.7" x2="326.1" y2="57.6" opacity="1.0" stroke="rgb(0,0,0)"  stroke-width="3"/>
<line x1="340.8" y1="88.3" x2="324.1" y2="66.8" opacity="1.0" stroke="rgb(0,0,0)"  stroke-width="3"/>
<line x1="326.1" y1="57.6" x2="287.2" y2="62.9" opacity="1.0" stroke="rgb(0,0,0)"  stroke-width="3"/>
<line x1="404.2" y1="204.3" x2="442.8" y2="211.3" opacity="1.0" stroke="rgb(0,0,0)"  stroke-width="3"/>
<line x1="442.8" y1="211.3" x2="468.2" y2="181.3" opacity="1.0" stroke="rgb(0,0,0)"  stroke-width="3"/>
<line x1="441.2" y1="202.0" x2="458.8" y2="181.2" opacity="1.0" stroke="rgb(0,0,0)"  stroke-width="3"/>
<line x1="468.2" y1="181.3" x2="454.9" y2="144.4" opacity="1.0" stroke="rgb(0,0,0)"  stroke-width="3"/>
<line x1="454.9" y1="144.4" x2="416.3" y2="137.4" opacity="1.0" stroke="rgb(0,0,0)"  stroke-width="3"/>
<line x1="447.7" y1="150.4" x2="420.9" y2="145.5" opacity="1.0" stroke="rgb(0,0,0)"  stroke-width="3"/>
<line x1="416.3" y1="137.4" x2="390.9" y2="167.3" opacity="1.0" stroke="rgb(0,0,0)"  stroke-width="3"/>
<line x1="390.9" y1="167.3" x2="404.2" y2="204.3" opacity="1.0" stroke="rgb(0,0,0)"  stroke-width="3"/>
<line x1="399.7" y1="170.5" x2="408.9" y2="196.2" opacity="1.0" stroke="rgb(0,0,0)"  stroke-width="3"/>
<line x1="197.3" y1="496.7" x2="198.4" y2="535.9" opacity="1.0" stroke="rgb(0,0,0)"  stroke-width="3"/>
<line x1="198.4" y1="535.9" x2="233.0" y2="554.5" opacity="1.0" stroke="rgb(0,0,0)"  stroke-width="3"/>
<line x1="207.1" y1="532.4" x2="231.1" y2="545.3" opacity="1.0" stroke="rgb(0,0,0)"  stroke-width="3"/>
<line x1="233.0" y1="554.5" x2="266.4" y2="533.8" opacity="1.0" stroke="rgb(0,0,0)"  stroke-width="3"/>
<line x1="266.4" y1="533.8" x2="265.2" y2="494.6" opacity="1.0" stroke="rgb(0,0,0)"  stroke-width="3"/>
<line x1="259.0" y1="528.1" x2="258.2" y2="500.8" opacity="1.0" stroke="rgb(0,0,0)"  stroke-width="3"/>
<line x1="265.2" y1="494.6" x2="230.6" y2="476.0" opacity="1.0" stroke="rgb(0,0,0)"  stroke-width="3"/>
<line x1="230.6" y1="476.0" x2="197.3" y2="496.7" opacity="1.0" stroke="rgb(0,0,0)"  stroke-width="3"/>
<line x1="229.3" y1="485.3" x2="206.1" y2="499.6" opacity="1.0" stroke="rgb(0,0,0)"  stroke-width="3"/>
<line x1="144.4" y1="68.4" x2="117.2" y2="40.0" opacity="1.0" stroke="rgb(0,0,0)"  stroke-width="3"/>
<line x1="117.2" y1="40.0" x2="79.1" y2="49.3" opacity="1.0" stroke="rgb(0,0,0)"  stroke-width="3"/>
<line x1="113.1" y1="48.4" x2="86.6" y2="54.9" opacity="1.0" stroke="rgb(0,0,0)"  stroke-width="3"/>
<line x1="79.1" y1="49.3" x2="68.1" y2="87.0" opacity="1.0" stroke="rgb(0,0,0)"  stroke-width="3"/>
<line x1="68.1" y1="87.0" x2="95.2" y2="115.3" opacity="1.0" stroke="rgb(0,0,0)"  stroke-width="3"/>
<line x1="77.5" y1="86.3" x2="96.3" y2="106.0" opacity="1.0" stroke="rgb(0,0,0)"  stroke-width="3"/>
<line x1="95.2" y1="115.3" x2="133.4" y2="106.0" opacity="1.0" stroke="rgb(0,0,0)"  stroke-width="3"/>
<line x1="133.4" y1="106.0" x2="144.4" y2="68.4" opacity="1.0" stroke="rgb(0,0,0)"  stroke-width="3"/>
<line x1="128.1" y1="98.3" x2="135.8" y2="72.1" opacity="1.0" stroke="rgb(0,0,0)"  stroke-width="3"/>
<line x1="333.9" y1="491.5" x2="366.8" y2="469.8" opacity="1.0" stroke="rgb(0,0,0)"  stroke-width="3"/>
<line x1="366.8" y1="469.8" x2="364.4" y2="430.5" opacity="1.0" stroke="rgb(0,0,0)"  stroke-width="3"/>
<line x1="359.2" y1="464.2" x2="357.6" y2="436.9" opacity="1.0" stroke="rgb(0,0,0)"  stroke-width="3"/>
<line x1="364.4" y1="430.5" x2="329.1" y2="412.9" opacity="1.0" stroke="rgb(0,0,0)"  stroke-width="3"/>
<line x1="329.1" y1="412.9" x2="296.3" y2="434.6" opacity="1.0" stroke="rgb(0,0,0)"  stroke-width="3"/>
<line x1="328.1" y1="422.2" x2="305.3" y2="437.3" opacity="1.0" stroke="rgb(0,0,0)"  stroke-width="3"/>
<line x1="296.3" y1="434.6" x2="298.7" y2="473.9" opacity="1.0" stroke="rgb(0,0,0)"  stroke-width="3"/>
<line x1="298.7" y1="473.9" x2="333.9" y2="491.5" opacity="1.0" stroke="rgb(0,0,0)"  stroke-width="3"/>
<line x1="307.3" y1="470.1" x2="331.8" y2="482.4" opacity="1.0" stroke="rgb(0,0,0)"  stroke-width="3"/>
<text x="154.494142" y="142.383755" fill="rgb(12,12,255)" stroke-width="0" font-weight="bold" font-size="25.92" >N</text>
<text x="286.950960" y="294.559393" fill="rgb(12,12,255)" stroke-width="0" font-weight="bold" font-size="25.92" >N</text>
<text x="151.068065" y="298.677760" fill="rgb(12,12,255)" stroke-width="0" font-weight="bold" font-size="25.92" >N</text>
<text x="346.304565" y="168.333993" fill="rgb(12,12,255)" stroke-width="0" font-weight="bold" font-size="25.92" >N</text>
<text x="217.820619" y="257.392564" fill="rgb(255,181,181)" stroke-width="0" font-weight="bold" font-size="25.92" >B</text>
</svg>
</g>
</svg>
