<?xml version="1.0"?>
<svg version="1.1" id="topsvg"
xmlns="http://www.w3.org/2000/svg" xmlns:xlink="http://www.w3.org/1999/xlink"
xmlns:cml="http://www.xml-cml.org/schema" x="0" y="0" width="200px" height="200px" viewBox="0 0 100 100">
<title>GD281.sdf - Open Babel Depiction</title>
<rect x="0" y="0" width="100" height="100" fill="white"/>
<g transform="translate(0,0)">
<svg width="100" height="100" x="0" y="0" viewBox="0 0 605.782 506.774"
font-family="sans-serif" stroke="rgb(0,0,0)" stroke-width="3"  stroke-linecap="round">
<line x1="426.2" y1="292.2" x2="443.9" y2="327.4" opacity="1.0" stroke="rgb(0,0,0)"  stroke-width="3"/>
<line x1="487.2" y1="261.6" x2="447.9" y2="259.3" opacity="1.0" stroke="rgb(0,0,0)"  stroke-width="3"/>
<line x1="394.6" y1="166.2" x2="396.9" y2="126.9" opacity="1.0" stroke="rgb(0,0,0)"  stroke-width="3"/>
<line x1="258.4" y1="158.2" x2="260.7" y2="118.9" opacity="1.0" stroke="rgb(0,0,0)"  stroke-width="3"/>
<line x1="145.9" y1="329.1" x2="110.6" y2="346.8" opacity="1.0" stroke="rgb(0,0,0)"  stroke-width="3"/>
<line x1="183.4" y1="272.1" x2="220.9" y2="215.2" opacity="1.0" stroke="rgb(0,0,0)"  stroke-width="3"/>
<line x1="220.9" y1="215.2" x2="253.8" y2="236.8" opacity="1.0" stroke="rgb(0,0,0)"  stroke-width="3"/>
<line x1="222.0" y1="224.5" x2="244.8" y2="239.5" opacity="1.0" stroke="rgb(0,0,0)"  stroke-width="3"/>
<line x1="253.8" y1="236.8" x2="252.3" y2="263.1" opacity="1.0" stroke="rgb(0,0,0)"  stroke-width="3"/>
<line x1="239.9" y1="281.9" x2="216.3" y2="293.8" opacity="1.0" stroke="rgb(0,0,0)"  stroke-width="3"/>
<line x1="216.3" y1="293.8" x2="183.4" y2="272.1" opacity="1.0" stroke="rgb(0,0,0)"  stroke-width="3"/>
<line x1="215.3" y1="284.5" x2="192.4" y2="269.4" opacity="1.0" stroke="rgb(0,0,0)"  stroke-width="3"/>
<line x1="447.9" y1="259.3" x2="426.2" y2="292.2" opacity="1.0" stroke="rgb(0,0,0)"  stroke-width="3"/>
<line x1="438.5" y1="260.4" x2="423.5" y2="283.2" opacity="1.0" stroke="rgb(0,0,0)"  stroke-width="3"/>
<line x1="426.2" y1="292.2" x2="400.4" y2="286.8" opacity="1.0" stroke="rgb(0,0,0)"  stroke-width="3"/>
<line x1="388.4" y1="271.1" x2="390.0" y2="244.8" opacity="1.0" stroke="rgb(0,0,0)"  stroke-width="3"/>
<line x1="390.0" y1="244.8" x2="425.2" y2="227.1" opacity="1.0" stroke="rgb(0,0,0)"  stroke-width="3"/>
<line x1="398.6" y1="248.5" x2="423.0" y2="236.2" opacity="1.0" stroke="rgb(0,0,0)"  stroke-width="3"/>
<line x1="425.2" y1="227.1" x2="447.9" y2="259.3" opacity="1.0" stroke="rgb(0,0,0)"  stroke-width="3"/>
<line x1="282.1" y1="337.1" x2="315.0" y2="358.7" opacity="1.0" stroke="rgb(0,0,0)"  stroke-width="3"/>
<line x1="315.0" y1="358.7" x2="350.2" y2="341.1" opacity="1.0" stroke="rgb(0,0,0)"  stroke-width="3"/>
<line x1="317.1" y1="349.6" x2="341.6" y2="337.3" opacity="1.0" stroke="rgb(0,0,0)"  stroke-width="3"/>
<line x1="350.2" y1="341.1" x2="352.5" y2="301.8" opacity="1.0" stroke="rgb(0,0,0)"  stroke-width="3"/>
<line x1="352.5" y1="301.8" x2="319.6" y2="280.1" opacity="1.0" stroke="rgb(0,0,0)"  stroke-width="3"/>
<line x1="343.5" y1="304.5" x2="320.7" y2="289.4" opacity="1.0" stroke="rgb(0,0,0)"  stroke-width="3"/>
<line x1="319.6" y1="280.1" x2="284.4" y2="297.8" opacity="1.0" stroke="rgb(0,0,0)"  stroke-width="3"/>
<line x1="284.4" y1="297.8" x2="282.1" y2="337.1" opacity="1.0" stroke="rgb(0,0,0)"  stroke-width="3"/>
<line x1="291.2" y1="304.2" x2="289.6" y2="331.5" opacity="1.0" stroke="rgb(0,0,0)"  stroke-width="3"/>
<line x1="253.8" y1="236.8" x2="289.0" y2="219.1" opacity="1.0" stroke="rgb(0,0,0)"  stroke-width="3"/>
<line x1="289.0" y1="219.1" x2="311.0" y2="233.6" opacity="1.0" stroke="rgb(0,0,0)"  stroke-width="3"/>
<line x1="321.1" y1="253.8" x2="319.6" y2="280.1" opacity="1.0" stroke="rgb(0,0,0)"  stroke-width="3"/>
<line x1="284.4" y1="297.8" x2="262.4" y2="283.3" opacity="1.0" stroke="rgb(0,0,0)"  stroke-width="3"/>
<line x1="145.9" y1="329.1" x2="178.8" y2="350.7" opacity="1.0" stroke="rgb(0,0,0)"  stroke-width="3"/>
<line x1="178.8" y1="350.7" x2="214.0" y2="333.1" opacity="1.0" stroke="rgb(0,0,0)"  stroke-width="3"/>
<line x1="181.0" y1="341.6" x2="205.4" y2="329.3" opacity="1.0" stroke="rgb(0,0,0)"  stroke-width="3"/>
<line x1="214.0" y1="333.1" x2="216.3" y2="293.8" opacity="1.0" stroke="rgb(0,0,0)"  stroke-width="3"/>
<line x1="183.4" y1="272.1" x2="148.2" y2="289.8" opacity="1.0" stroke="rgb(0,0,0)"  stroke-width="3"/>
<line x1="148.2" y1="289.8" x2="145.9" y2="329.1" opacity="1.0" stroke="rgb(0,0,0)"  stroke-width="3"/>
<line x1="155.1" y1="296.2" x2="153.5" y2="323.5" opacity="1.0" stroke="rgb(0,0,0)"  stroke-width="3"/>
<line x1="376.1" y1="289.9" x2="352.5" y2="301.8" opacity="1.0" stroke="rgb(0,0,0)"  stroke-width="3"/>
<line x1="333.5" y1="235.0" x2="357.1" y2="223.1" opacity="1.0" stroke="rgb(0,0,0)"  stroke-width="3"/>
<line x1="357.1" y1="223.1" x2="390.0" y2="244.8" opacity="1.0" stroke="rgb(0,0,0)"  stroke-width="3"/>
<line x1="220.9" y1="215.2" x2="223.2" y2="175.9" opacity="1.0" stroke="rgb(0,0,0)"  stroke-width="3"/>
<line x1="223.2" y1="175.9" x2="258.4" y2="158.2" opacity="1.0" stroke="rgb(0,0,0)"  stroke-width="3"/>
<line x1="231.8" y1="179.6" x2="256.3" y2="167.3" opacity="1.0" stroke="rgb(0,0,0)"  stroke-width="3"/>
<line x1="258.4" y1="158.2" x2="291.3" y2="179.8" opacity="1.0" stroke="rgb(0,0,0)"  stroke-width="3"/>
<line x1="291.3" y1="179.8" x2="289.0" y2="219.1" opacity="1.0" stroke="rgb(0,0,0)"  stroke-width="3"/>
<line x1="283.8" y1="185.4" x2="282.2" y2="212.7" opacity="1.0" stroke="rgb(0,0,0)"  stroke-width="3"/>
<line x1="394.6" y1="166.2" x2="359.4" y2="183.8" opacity="1.0" stroke="rgb(0,0,0)"  stroke-width="3"/>
<line x1="359.4" y1="183.8" x2="357.1" y2="223.1" opacity="1.0" stroke="rgb(0,0,0)"  stroke-width="3"/>
<line x1="366.2" y1="190.2" x2="364.6" y2="217.6" opacity="1.0" stroke="rgb(0,0,0)"  stroke-width="3"/>
<line x1="425.2" y1="227.1" x2="427.5" y2="187.8" opacity="1.0" stroke="rgb(0,0,0)"  stroke-width="3"/>
<line x1="427.5" y1="187.8" x2="394.6" y2="166.2" opacity="1.0" stroke="rgb(0,0,0)"  stroke-width="3"/>
<line x1="418.5" y1="190.5" x2="395.6" y2="175.5" opacity="1.0" stroke="rgb(0,0,0)"  stroke-width="3"/>
<line x1="222.6" y1="433.7" x2="212.6" y2="395.6" opacity="1.0" stroke="rgb(0,0,0)"  stroke-width="3"/>
<line x1="214.1" y1="429.7" x2="207.2" y2="403.3" opacity="1.0" stroke="rgb(0,0,0)"  stroke-width="3"/>
<line x1="212.6" y1="395.6" x2="174.6" y2="385.2" opacity="1.0" stroke="rgb(0,0,0)"  stroke-width="3"/>
<line x1="174.6" y1="385.2" x2="146.6" y2="412.9" opacity="1.0" stroke="rgb(0,0,0)"  stroke-width="3"/>
<line x1="175.4" y1="394.5" x2="156.0" y2="413.8" opacity="1.0" stroke="rgb(0,0,0)"  stroke-width="3"/>
<line x1="146.6" y1="412.9" x2="156.6" y2="451.0" opacity="1.0" stroke="rgb(0,0,0)"  stroke-width="3"/>
<line x1="156.6" y1="451.0" x2="194.6" y2="461.4" opacity="1.0" stroke="rgb(0,0,0)"  stroke-width="3"/>
<line x1="164.3" y1="445.6" x2="190.7" y2="452.9" opacity="1.0" stroke="rgb(0,0,0)"  stroke-width="3"/>
<line x1="194.6" y1="461.4" x2="222.6" y2="433.7" opacity="1.0" stroke="rgb(0,0,0)"  stroke-width="3"/>
<line x1="339.7" y1="424.2" x2="315.1" y2="393.4" opacity="1.0" stroke="rgb(0,0,0)"  stroke-width="3"/>
<line x1="330.4" y1="424.0" x2="313.3" y2="402.6" opacity="1.0" stroke="rgb(0,0,0)"  stroke-width="3"/>
<line x1="315.1" y1="393.4" x2="276.2" y2="399.4" opacity="1.0" stroke="rgb(0,0,0)"  stroke-width="3"/>
<line x1="276.2" y1="399.4" x2="261.9" y2="436.0" opacity="1.0" stroke="rgb(0,0,0)"  stroke-width="3"/>
<line x1="280.7" y1="407.6" x2="270.8" y2="433.1" opacity="1.0" stroke="rgb(0,0,0)"  stroke-width="3"/>
<line x1="261.9" y1="436.0" x2="286.5" y2="466.8" opacity="1.0" stroke="rgb(0,0,0)"  stroke-width="3"/>
<line x1="286.5" y1="466.8" x2="325.4" y2="460.9" opacity="1.0" stroke="rgb(0,0,0)"  stroke-width="3"/>
<line x1="291.3" y1="458.8" x2="318.4" y2="454.6" opacity="1.0" stroke="rgb(0,0,0)"  stroke-width="3"/>
<line x1="325.4" y1="460.9" x2="339.7" y2="424.2" opacity="1.0" stroke="rgb(0,0,0)"  stroke-width="3"/>
<line x1="422.2" y1="360.3" x2="439.9" y2="395.5" opacity="1.0" stroke="rgb(0,0,0)"  stroke-width="3"/>
<line x1="439.9" y1="395.5" x2="479.2" y2="397.8" opacity="1.0" stroke="rgb(0,0,0)"  stroke-width="3"/>
<line x1="446.3" y1="388.6" x2="473.6" y2="390.2" opacity="1.0" stroke="rgb(0,0,0)"  stroke-width="3"/>
<line x1="479.2" y1="397.8" x2="500.8" y2="364.9" opacity="1.0" stroke="rgb(0,0,0)"  stroke-width="3"/>
<line x1="500.8" y1="364.9" x2="483.2" y2="329.7" opacity="1.0" stroke="rgb(0,0,0)"  stroke-width="3"/>
<line x1="491.7" y1="362.7" x2="479.4" y2="338.3" opacity="1.0" stroke="rgb(0,0,0)"  stroke-width="3"/>
<line x1="483.2" y1="329.7" x2="443.9" y2="327.4" opacity="1.0" stroke="rgb(0,0,0)"  stroke-width="3"/>
<line x1="443.9" y1="327.4" x2="422.2" y2="360.3" opacity="1.0" stroke="rgb(0,0,0)"  stroke-width="3"/>
<line x1="446.6" y1="336.4" x2="431.5" y2="359.2" opacity="1.0" stroke="rgb(0,0,0)"  stroke-width="3"/>
<line x1="504.8" y1="296.8" x2="544.1" y2="299.1" opacity="1.0" stroke="rgb(0,0,0)"  stroke-width="3"/>
<line x1="544.1" y1="299.1" x2="565.8" y2="266.2" opacity="1.0" stroke="rgb(0,0,0)"  stroke-width="3"/>
<line x1="541.4" y1="290.1" x2="556.5" y2="267.3" opacity="1.0" stroke="rgb(0,0,0)"  stroke-width="3"/>
<line x1="565.8" y1="266.2" x2="548.1" y2="231.0" opacity="1.0" stroke="rgb(0,0,0)"  stroke-width="3"/>
<line x1="548.1" y1="231.0" x2="508.8" y2="228.7" opacity="1.0" stroke="rgb(0,0,0)"  stroke-width="3"/>
<line x1="541.7" y1="237.9" x2="514.4" y2="236.3" opacity="1.0" stroke="rgb(0,0,0)"  stroke-width="3"/>
<line x1="508.8" y1="228.7" x2="487.2" y2="261.6" opacity="1.0" stroke="rgb(0,0,0)"  stroke-width="3"/>
<line x1="487.2" y1="261.6" x2="504.8" y2="296.8" opacity="1.0" stroke="rgb(0,0,0)"  stroke-width="3"/>
<line x1="496.3" y1="263.7" x2="508.6" y2="288.2" opacity="1.0" stroke="rgb(0,0,0)"  stroke-width="3"/>
<line x1="432.1" y1="109.2" x2="434.4" y2="69.9" opacity="1.0" stroke="rgb(0,0,0)"  stroke-width="3"/>
<line x1="434.4" y1="69.9" x2="401.5" y2="48.2" opacity="1.0" stroke="rgb(0,0,0)"  stroke-width="3"/>
<line x1="425.4" y1="72.6" x2="402.5" y2="57.6" opacity="1.0" stroke="rgb(0,0,0)"  stroke-width="3"/>
<line x1="401.5" y1="48.2" x2="366.3" y2="65.9" opacity="1.0" stroke="rgb(0,0,0)"  stroke-width="3"/>
<line x1="366.3" y1="65.9" x2="364.0" y2="105.2" opacity="1.0" stroke="rgb(0,0,0)"  stroke-width="3"/>
<line x1="373.1" y1="72.3" x2="371.5" y2="99.6" opacity="1.0" stroke="rgb(0,0,0)"  stroke-width="3"/>
<line x1="364.0" y1="105.2" x2="396.9" y2="126.9" opacity="1.0" stroke="rgb(0,0,0)"  stroke-width="3"/>
<line x1="396.9" y1="126.9" x2="432.1" y2="109.2" opacity="1.0" stroke="rgb(0,0,0)"  stroke-width="3"/>
<line x1="399.0" y1="117.7" x2="423.5" y2="105.5" opacity="1.0" stroke="rgb(0,0,0)"  stroke-width="3"/>
<line x1="77.6" y1="325.1" x2="42.3" y2="342.8" opacity="1.0" stroke="rgb(0,0,0)"  stroke-width="3"/>
<line x1="42.3" y1="342.8" x2="40.0" y2="382.3" opacity="1.0" stroke="rgb(0,0,0)"  stroke-width="3"/>
<line x1="49.1" y1="349.2" x2="47.5" y2="376.7" opacity="1.0" stroke="rgb(0,0,0)"  stroke-width="3"/>
<line x1="40.0" y1="382.3" x2="73.0" y2="404.0" opacity="1.0" stroke="rgb(0,0,0)"  stroke-width="3"/>
<line x1="73.0" y1="404.0" x2="108.3" y2="386.3" opacity="1.0" stroke="rgb(0,0,0)"  stroke-width="3"/>
<line x1="75.1" y1="394.9" x2="99.7" y2="382.5" opacity="1.0" stroke="rgb(0,0,0)"  stroke-width="3"/>
<line x1="108.3" y1="386.3" x2="110.6" y2="346.8" opacity="1.0" stroke="rgb(0,0,0)"  stroke-width="3"/>
<line x1="110.6" y1="346.8" x2="77.6" y2="325.1" opacity="1.0" stroke="rgb(0,0,0)"  stroke-width="3"/>
<line x1="101.7" y1="349.5" x2="78.7" y2="334.4" opacity="1.0" stroke="rgb(0,0,0)"  stroke-width="3"/>
<line x1="296.0" y1="101.2" x2="298.3" y2="61.7" opacity="1.0" stroke="rgb(0,0,0)"  stroke-width="3"/>
<line x1="298.3" y1="61.7" x2="265.3" y2="40.0" opacity="1.0" stroke="rgb(0,0,0)"  stroke-width="3"/>
<line x1="289.4" y1="64.4" x2="266.4" y2="49.3" opacity="1.0" stroke="rgb(0,0,0)"  stroke-width="3"/>
<line x1="265.3" y1="40.0" x2="230.0" y2="57.7" opacity="1.0" stroke="rgb(0,0,0)"  stroke-width="3"/>
<line x1="230.0" y1="57.7" x2="227.7" y2="97.2" opacity="1.0" stroke="rgb(0,0,0)"  stroke-width="3"/>
<line x1="236.9" y1="64.1" x2="235.3" y2="91.6" opacity="1.0" stroke="rgb(0,0,0)"  stroke-width="3"/>
<line x1="227.7" y1="97.2" x2="260.7" y2="118.9" opacity="1.0" stroke="rgb(0,0,0)"  stroke-width="3"/>
<line x1="260.7" y1="118.9" x2="296.0" y2="101.2" opacity="1.0" stroke="rgb(0,0,0)"  stroke-width="3"/>
<line x1="262.9" y1="109.8" x2="287.4" y2="97.4" opacity="1.0" stroke="rgb(0,0,0)"  stroke-width="3"/>
<line x1="246.3" y1="364.6" x2="212.6" y2="395.6" opacity="1.0" stroke="rgb(0,0,0)"  stroke-width="3"/>
<line x1="222.6" y1="433.7" x2="261.9" y2="436.0" opacity="1.0" stroke="rgb(0,0,0)"  stroke-width="3"/>
<line x1="276.2" y1="399.4" x2="246.3" y2="364.6" opacity="1.0" stroke="rgb(0,0,0)"  stroke-width="3"/>
<line x1="214.0" y1="333.1" x2="246.3" y2="364.6" opacity="1.0" stroke="rgb(0,0,0)"  stroke-width="3"/>
<line x1="246.3" y1="364.6" x2="282.1" y2="337.1" opacity="1.0" stroke="rgb(0,0,0)"  stroke-width="3"/>
<text x="245.518381" y="284.117119" fill="rgb(12,12,255)" stroke-width="0" font-weight="bold" font-size="25.92" >N</text>
<text x="315.901934" y="248.796151" fill="rgb(255,181,181)" stroke-width="0" font-weight="bold" font-size="25.92" >B</text>
<text x="381.682541" y="292.089622" fill="rgb(12,12,255)" stroke-width="0" font-weight="bold" font-size="25.92" >N</text>
</svg>
</g>
</svg>
