<?xml version="1.0"?>
<svg version="1.1" id="topsvg"
xmlns="http://www.w3.org/2000/svg" xmlns:xlink="http://www.w3.org/1999/xlink"
xmlns:cml="http://www.xml-cml.org/schema" x="0" y="0" width="200px" height="200px" viewBox="0 0 100 100">
<title>GD287.sdf - Open Babel Depiction</title>
<rect x="0" y="0" width="100" height="100" fill="white"/>
<g transform="translate(0,0)">
<svg width="100" height="100" x="0" y="0" viewBox="0 0 567.917 492.031"
font-family="sans-serif" stroke="rgb(0,0,0)" stroke-width="3"  stroke-linecap="round">
<line x1="220.5" y1="118.7" x2="222.8" y2="79.4" opacity="1.0" stroke="rgb(0,0,0)"  stroke-width="3"/>
<line x1="108.2" y1="289.7" x2="73.0" y2="307.4" opacity="1.0" stroke="rgb(0,0,0)"  stroke-width="3"/>
<line x1="388.4" y1="252.6" x2="406.1" y2="287.8" opacity="1.0" stroke="rgb(0,0,0)"  stroke-width="3"/>
<line x1="449.3" y1="222.0" x2="410.0" y2="219.7" opacity="1.0" stroke="rgb(0,0,0)"  stroke-width="3"/>
<line x1="70.7" y1="346.7" x2="73.0" y2="307.4" opacity="1.0" stroke="rgb(0,0,0)"  stroke-width="3"/>
<line x1="222.8" y1="79.4" x2="258.0" y2="61.8" opacity="1.0" stroke="rgb(0,0,0)"  stroke-width="3"/>
<line x1="189.9" y1="57.8" x2="222.8" y2="79.4" opacity="1.0" stroke="rgb(0,0,0)"  stroke-width="3"/>
<line x1="222.8" y1="79.4" x2="225.1" y2="40.0" opacity="1.0" stroke="rgb(0,0,0)"  stroke-width="3"/>
<line x1="73.0" y1="307.4" x2="40.0" y2="285.7" opacity="1.0" stroke="rgb(0,0,0)"  stroke-width="3"/>
<line x1="73.0" y1="307.4" x2="75.3" y2="268.0" opacity="1.0" stroke="rgb(0,0,0)"  stroke-width="3"/>
<line x1="145.6" y1="232.7" x2="183.1" y2="175.7" opacity="1.0" stroke="rgb(0,0,0)"  stroke-width="3"/>
<line x1="183.1" y1="175.7" x2="216.0" y2="197.3" opacity="1.0" stroke="rgb(0,0,0)"  stroke-width="3"/>
<line x1="184.1" y1="185.0" x2="207.0" y2="200.1" opacity="1.0" stroke="rgb(0,0,0)"  stroke-width="3"/>
<line x1="216.0" y1="197.3" x2="214.5" y2="223.7" opacity="1.0" stroke="rgb(0,0,0)"  stroke-width="3"/>
<line x1="202.1" y1="242.5" x2="178.5" y2="254.3" opacity="1.0" stroke="rgb(0,0,0)"  stroke-width="3"/>
<line x1="178.5" y1="254.3" x2="145.6" y2="232.7" opacity="1.0" stroke="rgb(0,0,0)"  stroke-width="3"/>
<line x1="177.5" y1="245.0" x2="154.6" y2="230.0" opacity="1.0" stroke="rgb(0,0,0)"  stroke-width="3"/>
<line x1="410.0" y1="219.7" x2="388.4" y2="252.6" opacity="1.0" stroke="rgb(0,0,0)"  stroke-width="3"/>
<line x1="400.7" y1="220.8" x2="385.7" y2="243.6" opacity="1.0" stroke="rgb(0,0,0)"  stroke-width="3"/>
<line x1="388.4" y1="252.6" x2="362.6" y2="247.2" opacity="1.0" stroke="rgb(0,0,0)"  stroke-width="3"/>
<line x1="350.6" y1="231.5" x2="352.1" y2="205.2" opacity="1.0" stroke="rgb(0,0,0)"  stroke-width="3"/>
<line x1="352.1" y1="205.2" x2="387.3" y2="187.5" opacity="1.0" stroke="rgb(0,0,0)"  stroke-width="3"/>
<line x1="360.7" y1="209.0" x2="385.2" y2="196.7" opacity="1.0" stroke="rgb(0,0,0)"  stroke-width="3"/>
<line x1="387.3" y1="187.5" x2="410.0" y2="219.7" opacity="1.0" stroke="rgb(0,0,0)"  stroke-width="3"/>
<line x1="244.3" y1="297.6" x2="277.2" y2="319.2" opacity="1.0" stroke="rgb(0,0,0)"  stroke-width="3"/>
<line x1="277.2" y1="319.2" x2="312.4" y2="301.5" opacity="1.0" stroke="rgb(0,0,0)"  stroke-width="3"/>
<line x1="279.4" y1="310.1" x2="303.8" y2="297.8" opacity="1.0" stroke="rgb(0,0,0)"  stroke-width="3"/>
<line x1="312.4" y1="301.5" x2="314.7" y2="262.2" opacity="1.0" stroke="rgb(0,0,0)"  stroke-width="3"/>
<line x1="314.7" y1="262.2" x2="281.8" y2="240.6" opacity="1.0" stroke="rgb(0,0,0)"  stroke-width="3"/>
<line x1="305.7" y1="264.9" x2="282.8" y2="249.9" opacity="1.0" stroke="rgb(0,0,0)"  stroke-width="3"/>
<line x1="281.8" y1="240.6" x2="246.6" y2="258.3" opacity="1.0" stroke="rgb(0,0,0)"  stroke-width="3"/>
<line x1="246.6" y1="258.3" x2="244.3" y2="297.6" opacity="1.0" stroke="rgb(0,0,0)"  stroke-width="3"/>
<line x1="253.5" y1="264.7" x2="251.9" y2="292.0" opacity="1.0" stroke="rgb(0,0,0)"  stroke-width="3"/>
<line x1="216.0" y1="197.3" x2="251.2" y2="179.7" opacity="1.0" stroke="rgb(0,0,0)"  stroke-width="3"/>
<line x1="251.2" y1="179.7" x2="273.2" y2="194.1" opacity="1.0" stroke="rgb(0,0,0)"  stroke-width="3"/>
<line x1="283.3" y1="214.3" x2="281.8" y2="240.6" opacity="1.0" stroke="rgb(0,0,0)"  stroke-width="3"/>
<line x1="246.6" y1="258.3" x2="224.6" y2="243.8" opacity="1.0" stroke="rgb(0,0,0)"  stroke-width="3"/>
<line x1="108.2" y1="289.7" x2="141.1" y2="311.3" opacity="1.0" stroke="rgb(0,0,0)"  stroke-width="3"/>
<line x1="141.1" y1="311.3" x2="176.3" y2="293.6" opacity="1.0" stroke="rgb(0,0,0)"  stroke-width="3"/>
<line x1="143.2" y1="302.2" x2="167.7" y2="289.9" opacity="1.0" stroke="rgb(0,0,0)"  stroke-width="3"/>
<line x1="176.3" y1="293.6" x2="178.5" y2="254.3" opacity="1.0" stroke="rgb(0,0,0)"  stroke-width="3"/>
<line x1="145.6" y1="232.7" x2="110.5" y2="250.4" opacity="1.0" stroke="rgb(0,0,0)"  stroke-width="3"/>
<line x1="110.5" y1="250.4" x2="108.2" y2="289.7" opacity="1.0" stroke="rgb(0,0,0)"  stroke-width="3"/>
<line x1="117.3" y1="256.8" x2="115.7" y2="284.1" opacity="1.0" stroke="rgb(0,0,0)"  stroke-width="3"/>
<line x1="338.2" y1="250.4" x2="314.7" y2="262.2" opacity="1.0" stroke="rgb(0,0,0)"  stroke-width="3"/>
<line x1="295.7" y1="195.4" x2="319.2" y2="183.6" opacity="1.0" stroke="rgb(0,0,0)"  stroke-width="3"/>
<line x1="319.2" y1="183.6" x2="352.1" y2="205.2" opacity="1.0" stroke="rgb(0,0,0)"  stroke-width="3"/>
<line x1="183.1" y1="175.7" x2="185.3" y2="136.4" opacity="1.0" stroke="rgb(0,0,0)"  stroke-width="3"/>
<line x1="185.3" y1="136.4" x2="220.5" y2="118.7" opacity="1.0" stroke="rgb(0,0,0)"  stroke-width="3"/>
<line x1="193.9" y1="140.2" x2="218.4" y2="127.9" opacity="1.0" stroke="rgb(0,0,0)"  stroke-width="3"/>
<line x1="220.5" y1="118.7" x2="253.4" y2="140.4" opacity="1.0" stroke="rgb(0,0,0)"  stroke-width="3"/>
<line x1="253.4" y1="140.4" x2="251.2" y2="179.7" opacity="1.0" stroke="rgb(0,0,0)"  stroke-width="3"/>
<line x1="245.9" y1="145.9" x2="244.3" y2="173.3" opacity="1.0" stroke="rgb(0,0,0)"  stroke-width="3"/>
<line x1="356.7" y1="126.6" x2="321.5" y2="144.3" opacity="1.0" stroke="rgb(0,0,0)"  stroke-width="3"/>
<line x1="321.5" y1="144.3" x2="319.2" y2="183.6" opacity="1.0" stroke="rgb(0,0,0)"  stroke-width="3"/>
<line x1="328.3" y1="150.7" x2="326.8" y2="178.0" opacity="1.0" stroke="rgb(0,0,0)"  stroke-width="3"/>
<line x1="387.3" y1="187.5" x2="389.6" y2="148.2" opacity="1.0" stroke="rgb(0,0,0)"  stroke-width="3"/>
<line x1="389.6" y1="148.2" x2="356.7" y2="126.6" opacity="1.0" stroke="rgb(0,0,0)"  stroke-width="3"/>
<line x1="380.6" y1="150.9" x2="357.7" y2="135.9" opacity="1.0" stroke="rgb(0,0,0)"  stroke-width="3"/>
<line x1="290.9" y1="83.4" x2="326.0" y2="65.7" opacity="1.0" stroke="rgb(0,0,0)"  stroke-width="3"/>
<line x1="326.0" y1="65.7" x2="358.9" y2="87.3" opacity="1.0" stroke="rgb(0,0,0)"  stroke-width="3"/>
<line x1="327.1" y1="75.0" x2="350.0" y2="90.0" opacity="1.0" stroke="rgb(0,0,0)"  stroke-width="3"/>
<line x1="358.9" y1="87.3" x2="356.7" y2="126.6" opacity="1.0" stroke="rgb(0,0,0)"  stroke-width="3"/>
<line x1="321.5" y1="144.3" x2="288.6" y2="122.7" opacity="1.0" stroke="rgb(0,0,0)"  stroke-width="3"/>
<line x1="288.6" y1="122.7" x2="290.9" y2="83.4" opacity="1.0" stroke="rgb(0,0,0)"  stroke-width="3"/>
<line x1="296.1" y1="117.1" x2="297.7" y2="89.8" opacity="1.0" stroke="rgb(0,0,0)"  stroke-width="3"/>
<line x1="184.9" y1="394.3" x2="174.9" y2="356.2" opacity="1.0" stroke="rgb(0,0,0)"  stroke-width="3"/>
<line x1="176.4" y1="390.3" x2="169.5" y2="363.8" opacity="1.0" stroke="rgb(0,0,0)"  stroke-width="3"/>
<line x1="174.9" y1="356.2" x2="136.9" y2="345.8" opacity="1.0" stroke="rgb(0,0,0)"  stroke-width="3"/>
<line x1="136.9" y1="345.8" x2="108.9" y2="373.5" opacity="1.0" stroke="rgb(0,0,0)"  stroke-width="3"/>
<line x1="137.7" y1="355.1" x2="118.3" y2="374.4" opacity="1.0" stroke="rgb(0,0,0)"  stroke-width="3"/>
<line x1="108.9" y1="373.5" x2="118.9" y2="411.6" opacity="1.0" stroke="rgb(0,0,0)"  stroke-width="3"/>
<line x1="118.9" y1="411.6" x2="156.9" y2="421.9" opacity="1.0" stroke="rgb(0,0,0)"  stroke-width="3"/>
<line x1="126.6" y1="406.2" x2="153.0" y2="413.4" opacity="1.0" stroke="rgb(0,0,0)"  stroke-width="3"/>
<line x1="156.9" y1="421.9" x2="184.9" y2="394.3" opacity="1.0" stroke="rgb(0,0,0)"  stroke-width="3"/>
<line x1="302.0" y1="384.6" x2="277.4" y2="353.9" opacity="1.0" stroke="rgb(0,0,0)"  stroke-width="3"/>
<line x1="292.7" y1="384.4" x2="275.5" y2="363.1" opacity="1.0" stroke="rgb(0,0,0)"  stroke-width="3"/>
<line x1="277.4" y1="353.9" x2="238.5" y2="359.8" opacity="1.0" stroke="rgb(0,0,0)"  stroke-width="3"/>
<line x1="238.5" y1="359.8" x2="224.2" y2="396.5" opacity="1.0" stroke="rgb(0,0,0)"  stroke-width="3"/>
<line x1="243.0" y1="368.1" x2="233.1" y2="393.6" opacity="1.0" stroke="rgb(0,0,0)"  stroke-width="3"/>
<line x1="224.2" y1="396.5" x2="248.8" y2="427.3" opacity="1.0" stroke="rgb(0,0,0)"  stroke-width="3"/>
<line x1="248.8" y1="427.3" x2="287.7" y2="421.3" opacity="1.0" stroke="rgb(0,0,0)"  stroke-width="3"/>
<line x1="253.6" y1="419.2" x2="280.7" y2="415.1" opacity="1.0" stroke="rgb(0,0,0)"  stroke-width="3"/>
<line x1="287.7" y1="421.3" x2="302.0" y2="384.6" opacity="1.0" stroke="rgb(0,0,0)"  stroke-width="3"/>
<line x1="365.5" y1="409.4" x2="340.9" y2="378.7" opacity="1.0" stroke="rgb(0,0,0)"  stroke-width="3"/>
<line x1="356.2" y1="409.2" x2="339.1" y2="387.9" opacity="1.0" stroke="rgb(0,0,0)"  stroke-width="3"/>
<line x1="340.9" y1="378.7" x2="302.0" y2="384.6" opacity="1.0" stroke="rgb(0,0,0)"  stroke-width="3"/>
<line x1="287.7" y1="421.3" x2="312.3" y2="452.0" opacity="1.0" stroke="rgb(0,0,0)"  stroke-width="3"/>
<line x1="312.3" y1="452.0" x2="351.2" y2="446.1" opacity="1.0" stroke="rgb(0,0,0)"  stroke-width="3"/>
<line x1="317.2" y1="444.0" x2="344.2" y2="439.9" opacity="1.0" stroke="rgb(0,0,0)"  stroke-width="3"/>
<line x1="351.2" y1="446.1" x2="365.5" y2="409.4" opacity="1.0" stroke="rgb(0,0,0)"  stroke-width="3"/>
<line x1="384.5" y1="320.7" x2="402.1" y2="355.8" opacity="1.0" stroke="rgb(0,0,0)"  stroke-width="3"/>
<line x1="402.1" y1="355.8" x2="441.4" y2="358.1" opacity="1.0" stroke="rgb(0,0,0)"  stroke-width="3"/>
<line x1="408.5" y1="349.0" x2="435.9" y2="350.6" opacity="1.0" stroke="rgb(0,0,0)"  stroke-width="3"/>
<line x1="441.4" y1="358.1" x2="463.1" y2="325.2" opacity="1.0" stroke="rgb(0,0,0)"  stroke-width="3"/>
<line x1="463.1" y1="325.2" x2="445.4" y2="290.0" opacity="1.0" stroke="rgb(0,0,0)"  stroke-width="3"/>
<line x1="453.9" y1="323.1" x2="441.6" y2="298.6" opacity="1.0" stroke="rgb(0,0,0)"  stroke-width="3"/>
<line x1="445.4" y1="290.0" x2="406.1" y2="287.8" opacity="1.0" stroke="rgb(0,0,0)"  stroke-width="3"/>
<line x1="406.1" y1="287.8" x2="384.5" y2="320.7" opacity="1.0" stroke="rgb(0,0,0)"  stroke-width="3"/>
<line x1="408.8" y1="296.7" x2="393.8" y2="319.6" opacity="1.0" stroke="rgb(0,0,0)"  stroke-width="3"/>
<line x1="467.0" y1="257.1" x2="506.3" y2="259.4" opacity="1.0" stroke="rgb(0,0,0)"  stroke-width="3"/>
<line x1="506.3" y1="259.4" x2="527.9" y2="226.5" opacity="1.0" stroke="rgb(0,0,0)"  stroke-width="3"/>
<line x1="503.6" y1="250.4" x2="518.6" y2="227.6" opacity="1.0" stroke="rgb(0,0,0)"  stroke-width="3"/>
<line x1="527.9" y1="226.5" x2="510.2" y2="191.3" opacity="1.0" stroke="rgb(0,0,0)"  stroke-width="3"/>
<line x1="510.2" y1="191.3" x2="470.9" y2="189.1" opacity="1.0" stroke="rgb(0,0,0)"  stroke-width="3"/>
<line x1="503.8" y1="198.2" x2="476.5" y2="196.6" opacity="1.0" stroke="rgb(0,0,0)"  stroke-width="3"/>
<line x1="470.9" y1="189.1" x2="449.3" y2="222.0" opacity="1.0" stroke="rgb(0,0,0)"  stroke-width="3"/>
<line x1="449.3" y1="222.0" x2="467.0" y2="257.1" opacity="1.0" stroke="rgb(0,0,0)"  stroke-width="3"/>
<line x1="458.4" y1="224.1" x2="470.7" y2="248.5" opacity="1.0" stroke="rgb(0,0,0)"  stroke-width="3"/>
<line x1="208.6" y1="325.1" x2="174.9" y2="356.2" opacity="1.0" stroke="rgb(0,0,0)"  stroke-width="3"/>
<line x1="184.9" y1="394.3" x2="224.2" y2="396.5" opacity="1.0" stroke="rgb(0,0,0)"  stroke-width="3"/>
<line x1="238.5" y1="359.8" x2="208.6" y2="325.1" opacity="1.0" stroke="rgb(0,0,0)"  stroke-width="3"/>
<line x1="176.3" y1="293.6" x2="208.6" y2="325.1" opacity="1.0" stroke="rgb(0,0,0)"  stroke-width="3"/>
<line x1="208.6" y1="325.1" x2="244.3" y2="297.6" opacity="1.0" stroke="rgb(0,0,0)"  stroke-width="3"/>
<text x="207.708159" y="244.652621" fill="rgb(12,12,255)" stroke-width="0" font-weight="bold" font-size="25.92" >N</text>
<text x="278.053780" y="209.282353" fill="rgb(255,181,181)" stroke-width="0" font-weight="bold" font-size="25.92" >B</text>
<text x="343.858193" y="252.518304" fill="rgb(12,12,255)" stroke-width="0" font-weight="bold" font-size="25.92" >N</text>
</svg>
</g>
</svg>
