<?xml version="1.0"?>
<svg version="1.1" id="topsvg"
xmlns="http://www.w3.org/2000/svg" xmlns:xlink="http://www.w3.org/1999/xlink"
xmlns:cml="http://www.xml-cml.org/schema" x="0" y="0" width="200px" height="200px" viewBox="0 0 100 100">
<title>GD283.sdf - Open Babel Depiction</title>
<rect x="0" y="0" width="100" height="100" fill="white"/>
<g transform="translate(0,0)">
<svg width="100" height="100" x="0" y="0" viewBox="0 0 713.499 487.372"
font-family="sans-serif" stroke="rgb(0,0,0)" stroke-width="3"  stroke-linecap="round">
<line x1="522.2" y1="356.3" x2="544.3" y2="357.5" opacity="1.0" stroke="rgb(0,0,0)"  stroke-width="3"/>
<line x1="522.4" y1="352.1" x2="544.5" y2="353.3" opacity="1.0" stroke="rgb(0,0,0)"  stroke-width="3"/>
<line x1="522.0" y1="360.5" x2="544.1" y2="361.7" opacity="1.0" stroke="rgb(0,0,0)"  stroke-width="3"/>
<line x1="487.1" y1="354.4" x2="522.2" y2="356.3" opacity="1.0" stroke="rgb(0,0,0)"  stroke-width="3"/>
<line x1="241.4" y1="99.4" x2="265.3" y2="73.7" opacity="1.0" stroke="rgb(0,0,0)"  stroke-width="3"/>
<line x1="98.3" y1="310.7" x2="74.3" y2="285.0" opacity="1.0" stroke="rgb(0,0,0)"  stroke-width="3"/>
<line x1="265.3" y1="73.7" x2="255.0" y2="40.0" opacity="1.0" stroke="rgb(0,0,0)"  stroke-width="3"/>
<line x1="265.3" y1="73.7" x2="299.7" y2="81.6" opacity="1.0" stroke="rgb(0,0,0)"  stroke-width="3"/>
<line x1="265.3" y1="73.7" x2="289.4" y2="47.9" opacity="1.0" stroke="rgb(0,0,0)"  stroke-width="3"/>
<line x1="344.7" y1="185.1" x2="342.9" y2="149.9" opacity="1.0" stroke="rgb(0,0,0)"  stroke-width="3"/>
<line x1="342.9" y1="149.9" x2="372.5" y2="130.8" opacity="1.0" stroke="rgb(0,0,0)"  stroke-width="3"/>
<line x1="342.9" y1="149.9" x2="311.5" y2="133.9" opacity="1.0" stroke="rgb(0,0,0)"  stroke-width="3"/>
<line x1="342.9" y1="149.9" x2="341.1" y2="114.7" opacity="1.0" stroke="rgb(0,0,0)"  stroke-width="3"/>
<line x1="74.3" y1="285.0" x2="40.0" y2="293.0" opacity="1.0" stroke="rgb(0,0,0)"  stroke-width="3"/>
<line x1="74.3" y1="285.0" x2="84.6" y2="251.3" opacity="1.0" stroke="rgb(0,0,0)"  stroke-width="3"/>
<line x1="74.3" y1="285.0" x2="108.7" y2="277.1" opacity="1.0" stroke="rgb(0,0,0)"  stroke-width="3"/>
<line x1="353.6" y1="360.5" x2="355.4" y2="395.7" opacity="1.0" stroke="rgb(0,0,0)"  stroke-width="3"/>
<line x1="355.4" y1="395.7" x2="325.8" y2="414.9" opacity="1.0" stroke="rgb(0,0,0)"  stroke-width="3"/>
<line x1="355.4" y1="395.7" x2="386.7" y2="411.8" opacity="1.0" stroke="rgb(0,0,0)"  stroke-width="3"/>
<line x1="355.4" y1="395.7" x2="385.0" y2="376.6" opacity="1.0" stroke="rgb(0,0,0)"  stroke-width="3"/>
<line x1="471.3" y1="323.1" x2="514.4" y2="260.2" opacity="1.0" stroke="rgb(0,0,0)"  stroke-width="3"/>
<line x1="475.1" y1="166.5" x2="443.0" y2="152.0" opacity="1.0" stroke="rgb(0,0,0)"  stroke-width="3"/>
<line x1="443.0" y1="152.0" x2="414.4" y2="172.6" opacity="1.0" stroke="rgb(0,0,0)"  stroke-width="3"/>
<line x1="443.0" y1="152.0" x2="439.4" y2="117.0" opacity="1.0" stroke="rgb(0,0,0)"  stroke-width="3"/>
<line x1="443.0" y1="152.0" x2="471.5" y2="131.4" opacity="1.0" stroke="rgb(0,0,0)"  stroke-width="3"/>
<line x1="615.2" y1="267.3" x2="639.1" y2="293.3" opacity="1.0" stroke="rgb(0,0,0)"  stroke-width="3"/>
<line x1="639.1" y1="293.3" x2="628.6" y2="326.9" opacity="1.0" stroke="rgb(0,0,0)"  stroke-width="3"/>
<line x1="639.1" y1="293.3" x2="673.5" y2="285.6" opacity="1.0" stroke="rgb(0,0,0)"  stroke-width="3"/>
<line x1="639.1" y1="293.3" x2="649.6" y2="259.6" opacity="1.0" stroke="rgb(0,0,0)"  stroke-width="3"/>
<line x1="436.2" y1="321.2" x2="422.3" y2="304.0" opacity="1.0" stroke="rgb(0,0,0)"  stroke-width="3"/>
<line x1="402.0" y1="298.5" x2="381.3" y2="306.4" opacity="1.0" stroke="rgb(0,0,0)"  stroke-width="3"/>
<line x1="381.3" y1="306.4" x2="383.1" y2="341.5" opacity="1.0" stroke="rgb(0,0,0)"  stroke-width="3"/>
<line x1="383.1" y1="341.5" x2="417.0" y2="350.6" opacity="1.0" stroke="rgb(0,0,0)"  stroke-width="3"/>
<line x1="417.0" y1="350.6" x2="436.2" y2="321.2" opacity="1.0" stroke="rgb(0,0,0)"  stroke-width="3"/>
<line x1="414.2" y1="341.7" x2="426.9" y2="322.3" opacity="1.0" stroke="rgb(0,0,0)"  stroke-width="3"/>
<line x1="557.0" y1="249.1" x2="567.5" y2="215.5" opacity="1.0" stroke="rgb(0,0,0)"  stroke-width="3"/>
<line x1="551.9" y1="241.2" x2="558.8" y2="219.0" opacity="1.0" stroke="rgb(0,0,0)"  stroke-width="3"/>
<line x1="567.5" y1="215.5" x2="538.7" y2="195.1" opacity="1.0" stroke="rgb(0,0,0)"  stroke-width="3"/>
<line x1="538.7" y1="195.1" x2="510.5" y2="215.5" opacity="1.0" stroke="rgb(0,0,0)"  stroke-width="3"/>
<line x1="538.1" y1="204.4" x2="519.5" y2="217.8" opacity="1.0" stroke="rgb(0,0,0)"  stroke-width="3"/>
<line x1="510.5" y1="215.5" x2="517.6" y2="237.2" opacity="1.0" stroke="rgb(0,0,0)"  stroke-width="3"/>
<line x1="534.7" y1="249.4" x2="557.0" y2="249.1" opacity="1.0" stroke="rgb(0,0,0)"  stroke-width="3"/>
<line x1="120.1" y1="226.4" x2="154.0" y2="235.3" opacity="1.0" stroke="rgb(0,0,0)"  stroke-width="3"/>
<line x1="154.0" y1="235.3" x2="179.3" y2="210.3" opacity="1.0" stroke="rgb(0,0,0)"  stroke-width="3"/>
<line x1="153.2" y1="226.0" x2="170.0" y2="209.4" opacity="1.0" stroke="rgb(0,0,0)"  stroke-width="3"/>
<line x1="179.3" y1="210.3" x2="169.5" y2="176.5" opacity="1.0" stroke="rgb(0,0,0)"  stroke-width="3"/>
<line x1="169.5" y1="176.5" x2="135.5" y2="167.5" opacity="1.0" stroke="rgb(0,0,0)"  stroke-width="3"/>
<line x1="161.9" y1="181.9" x2="139.5" y2="176.0" opacity="1.0" stroke="rgb(0,0,0)"  stroke-width="3"/>
<line x1="135.5" y1="167.5" x2="110.8" y2="192.5" opacity="1.0" stroke="rgb(0,0,0)"  stroke-width="3"/>
<line x1="110.8" y1="192.5" x2="120.1" y2="226.4" opacity="1.0" stroke="rgb(0,0,0)"  stroke-width="3"/>
<line x1="119.3" y1="196.4" x2="125.4" y2="218.7" opacity="1.0" stroke="rgb(0,0,0)"  stroke-width="3"/>
<line x1="383.1" y1="341.5" x2="353.6" y2="360.5" opacity="1.0" stroke="rgb(0,0,0)"  stroke-width="3"/>
<line x1="374.1" y1="338.7" x2="354.7" y2="351.2" opacity="1.0" stroke="rgb(0,0,0)"  stroke-width="3"/>
<line x1="353.6" y1="360.5" x2="322.3" y2="344.5" opacity="1.0" stroke="rgb(0,0,0)"  stroke-width="3"/>
<line x1="322.3" y1="344.5" x2="320.5" y2="309.5" opacity="1.0" stroke="rgb(0,0,0)"  stroke-width="3"/>
<line x1="329.2" y1="338.2" x2="328.0" y2="315.1" opacity="1.0" stroke="rgb(0,0,0)"  stroke-width="3"/>
<line x1="320.5" y1="309.5" x2="350.0" y2="290.4" opacity="1.0" stroke="rgb(0,0,0)"  stroke-width="3"/>
<line x1="350.0" y1="290.4" x2="381.3" y2="306.4" opacity="1.0" stroke="rgb(0,0,0)"  stroke-width="3"/>
<line x1="352.1" y1="299.5" x2="372.7" y2="310.1" opacity="1.0" stroke="rgb(0,0,0)"  stroke-width="3"/>
<line x1="487.1" y1="354.4" x2="471.3" y2="323.1" opacity="1.0" stroke="rgb(0,0,0)"  stroke-width="3"/>
<line x1="478.0" y1="352.3" x2="467.5" y2="331.7" opacity="1.0" stroke="rgb(0,0,0)"  stroke-width="3"/>
<line x1="471.3" y1="323.1" x2="436.2" y2="321.2" opacity="1.0" stroke="rgb(0,0,0)"  stroke-width="3"/>
<line x1="417.0" y1="350.6" x2="432.9" y2="381.9" opacity="1.0" stroke="rgb(0,0,0)"  stroke-width="3"/>
<line x1="432.9" y1="381.9" x2="468.0" y2="383.8" opacity="1.0" stroke="rgb(0,0,0)"  stroke-width="3"/>
<line x1="439.3" y1="375.1" x2="462.4" y2="376.3" opacity="1.0" stroke="rgb(0,0,0)"  stroke-width="3"/>
<line x1="468.0" y1="383.8" x2="487.1" y2="354.4" opacity="1.0" stroke="rgb(0,0,0)"  stroke-width="3"/>
<line x1="216.6" y1="440.5" x2="182.2" y2="447.4" opacity="1.0" stroke="rgb(0,0,0)"  stroke-width="3"/>
<line x1="209.3" y1="434.6" x2="186.7" y2="439.1" opacity="1.0" stroke="rgb(0,0,0)"  stroke-width="3"/>
<line x1="182.2" y1="447.4" x2="159.0" y2="421.0" opacity="1.0" stroke="rgb(0,0,0)"  stroke-width="3"/>
<line x1="159.0" y1="421.0" x2="170.2" y2="387.7" opacity="1.0" stroke="rgb(0,0,0)"  stroke-width="3"/>
<line x1="167.7" y1="417.6" x2="175.1" y2="395.7" opacity="1.0" stroke="rgb(0,0,0)"  stroke-width="3"/>
<line x1="170.2" y1="387.7" x2="204.7" y2="380.3" opacity="1.0" stroke="rgb(0,0,0)"  stroke-width="3"/>
<line x1="204.7" y1="380.3" x2="227.9" y2="407.2" opacity="1.0" stroke="rgb(0,0,0)"  stroke-width="3"/>
<line x1="203.2" y1="389.5" x2="218.5" y2="407.3" opacity="1.0" stroke="rgb(0,0,0)"  stroke-width="3"/>
<line x1="227.9" y1="407.2" x2="216.6" y2="440.5" opacity="1.0" stroke="rgb(0,0,0)"  stroke-width="3"/>
<line x1="475.1" y1="166.5" x2="478.6" y2="201.2" opacity="1.0" stroke="rgb(0,0,0)"  stroke-width="3"/>
<line x1="482.9" y1="171.7" x2="485.2" y2="194.5" opacity="1.0" stroke="rgb(0,0,0)"  stroke-width="3"/>
<line x1="478.6" y1="201.2" x2="510.5" y2="215.5" opacity="1.0" stroke="rgb(0,0,0)"  stroke-width="3"/>
<line x1="538.7" y1="195.1" x2="535.2" y2="160.4" opacity="1.0" stroke="rgb(0,0,0)"  stroke-width="3"/>
<line x1="535.2" y1="160.4" x2="503.4" y2="146.1" opacity="1.0" stroke="rgb(0,0,0)"  stroke-width="3"/>
<line x1="526.8" y1="164.5" x2="505.9" y2="155.1" opacity="1.0" stroke="rgb(0,0,0)"  stroke-width="3"/>
<line x1="503.4" y1="146.1" x2="475.1" y2="166.5" opacity="1.0" stroke="rgb(0,0,0)"  stroke-width="3"/>
<line x1="625.8" y1="233.7" x2="601.9" y2="207.8" opacity="1.0" stroke="rgb(0,0,0)"  stroke-width="3"/>
<line x1="616.4" y1="234.2" x2="600.6" y2="217.0" opacity="1.0" stroke="rgb(0,0,0)"  stroke-width="3"/>
<line x1="601.9" y1="207.8" x2="567.5" y2="215.5" opacity="1.0" stroke="rgb(0,0,0)"  stroke-width="3"/>
<line x1="557.0" y1="249.1" x2="580.8" y2="275.0" opacity="1.0" stroke="rgb(0,0,0)"  stroke-width="3"/>
<line x1="580.8" y1="275.0" x2="615.2" y2="267.3" opacity="1.0" stroke="rgb(0,0,0)"  stroke-width="3"/>
<line x1="585.1" y1="266.7" x2="607.8" y2="261.6" opacity="1.0" stroke="rgb(0,0,0)"  stroke-width="3"/>
<line x1="615.2" y1="267.3" x2="625.8" y2="233.7" opacity="1.0" stroke="rgb(0,0,0)"  stroke-width="3"/>
<line x1="261.2" y1="289.0" x2="230.9" y2="171.3" opacity="1.0" stroke="rgb(0,0,0)"  stroke-width="3"/>
<line x1="215.0" y1="155.8" x2="193.4" y2="150.8" opacity="1.0" stroke="rgb(0,0,0)"  stroke-width="3"/>
<line x1="193.4" y1="150.8" x2="169.5" y2="176.5" opacity="1.0" stroke="rgb(0,0,0)"  stroke-width="3"/>
<line x1="179.3" y1="210.3" x2="255.6" y2="292.1" opacity="1.0" stroke="rgb(0,0,0)"  stroke-width="3"/>
<line x1="272.9" y1="291.6" x2="308.6" y2="249.2" opacity="1.0" stroke="rgb(0,0,0)"  stroke-width="3"/>
<line x1="328.6" y1="245.2" x2="348.3" y2="255.3" opacity="1.0" stroke="rgb(0,0,0)"  stroke-width="3"/>
<line x1="348.3" y1="255.3" x2="350.0" y2="290.4" opacity="1.0" stroke="rgb(0,0,0)"  stroke-width="3"/>
<line x1="320.5" y1="309.5" x2="277.3" y2="303.4" opacity="1.0" stroke="rgb(0,0,0)"  stroke-width="3"/>
<line x1="256.6" y1="311.9" x2="204.7" y2="380.3" opacity="1.0" stroke="rgb(0,0,0)"  stroke-width="3"/>
<line x1="170.2" y1="387.7" x2="146.3" y2="362.0" opacity="1.0" stroke="rgb(0,0,0)"  stroke-width="3"/>
<line x1="146.3" y1="362.0" x2="152.7" y2="340.9" opacity="1.0" stroke="rgb(0,0,0)"  stroke-width="3"/>
<line x1="169.1" y1="325.3" x2="251.9" y2="304.7" opacity="1.0" stroke="rgb(0,0,0)"  stroke-width="3"/>
<line x1="241.4" y1="99.4" x2="207.1" y2="91.5" opacity="1.0" stroke="rgb(0,0,0)"  stroke-width="3"/>
<line x1="233.9" y1="105.1" x2="211.4" y2="99.9" opacity="1.0" stroke="rgb(0,0,0)"  stroke-width="3"/>
<line x1="207.1" y1="91.5" x2="183.2" y2="117.2" opacity="1.0" stroke="rgb(0,0,0)"  stroke-width="3"/>
<line x1="183.2" y1="117.2" x2="193.4" y2="150.8" opacity="1.0" stroke="rgb(0,0,0)"  stroke-width="3"/>
<line x1="191.8" y1="120.8" x2="198.6" y2="142.9" opacity="1.0" stroke="rgb(0,0,0)"  stroke-width="3"/>
<line x1="235.6" y1="150.2" x2="251.6" y2="133.0" opacity="1.0" stroke="rgb(0,0,0)"  stroke-width="3"/>
<line x1="232.0" y1="143.5" x2="242.3" y2="132.5" opacity="1.0" stroke="rgb(0,0,0)"  stroke-width="3"/>
<line x1="251.6" y1="133.0" x2="241.4" y2="99.4" opacity="1.0" stroke="rgb(0,0,0)"  stroke-width="3"/>
<line x1="315.2" y1="204.2" x2="316.4" y2="227.7" opacity="1.0" stroke="rgb(0,0,0)"  stroke-width="3"/>
<line x1="322.7" y1="209.8" x2="323.5" y2="224.9" opacity="1.0" stroke="rgb(0,0,0)"  stroke-width="3"/>
<line x1="348.3" y1="255.3" x2="377.7" y2="236.2" opacity="1.0" stroke="rgb(0,0,0)"  stroke-width="3"/>
<line x1="349.4" y1="246.0" x2="368.8" y2="233.4" opacity="1.0" stroke="rgb(0,0,0)"  stroke-width="3"/>
<line x1="377.7" y1="236.2" x2="376.0" y2="201.1" opacity="1.0" stroke="rgb(0,0,0)"  stroke-width="3"/>
<line x1="376.0" y1="201.1" x2="344.7" y2="185.1" opacity="1.0" stroke="rgb(0,0,0)"  stroke-width="3"/>
<line x1="367.4" y1="204.8" x2="346.8" y2="194.3" opacity="1.0" stroke="rgb(0,0,0)"  stroke-width="3"/>
<line x1="344.7" y1="185.1" x2="315.2" y2="204.2" opacity="1.0" stroke="rgb(0,0,0)"  stroke-width="3"/>
<line x1="132.5" y1="302.8" x2="98.3" y2="310.7" opacity="1.0" stroke="rgb(0,0,0)"  stroke-width="3"/>
<line x1="98.3" y1="310.7" x2="88.1" y2="344.3" opacity="1.0" stroke="rgb(0,0,0)"  stroke-width="3"/>
<line x1="103.5" y1="318.5" x2="96.7" y2="340.7" opacity="1.0" stroke="rgb(0,0,0)"  stroke-width="3"/>
<line x1="88.1" y1="344.3" x2="112.0" y2="370.0" opacity="1.0" stroke="rgb(0,0,0)"  stroke-width="3"/>
<line x1="112.0" y1="370.0" x2="146.3" y2="362.0" opacity="1.0" stroke="rgb(0,0,0)"  stroke-width="3"/>
<line x1="116.3" y1="361.6" x2="138.8" y2="356.4" opacity="1.0" stroke="rgb(0,0,0)"  stroke-width="3"/>
<line x1="148.6" y1="320.0" x2="132.5" y2="302.8" opacity="1.0" stroke="rgb(0,0,0)"  stroke-width="3"/>
<line x1="141.6" y1="323.1" x2="131.4" y2="312.1" opacity="1.0" stroke="rgb(0,0,0)"  stroke-width="3"/>
<text x="515.712315" y="257.498313" fill="rgb(12,12,255)" stroke-width="0" font-weight="bold" font-size="25.92" >N</text>
<text x="551.295324" y="366.214632" fill="rgb(12,12,255)" stroke-width="0" font-weight="bold" font-size="25.92" >N</text>
<text x="310.985423" y="247.295990" fill="rgb(12,12,255)" stroke-width="0" font-weight="bold" font-size="25.92" >NH</text>
<text x="258.476032" y="309.561342" fill="rgb(22,84,135)" stroke-width="0" font-weight="bold" font-size="25.92" >Ir</text>
<text x="138.508749" y="336.447020" fill="rgb(12,12,255)" stroke-width="0" font-weight="bold" font-size="25.92" >HN</text>
<text x="209.669298" y="166.677709" fill="rgb(12,12,255)" stroke-width="0" font-weight="bold" font-size="25.92" >HN</text>
<text x="408.118545" y="301.851288" fill="rgb(255,12,12)" stroke-width="0" font-weight="bold" font-size="25.92" >O</text>
</svg>
</g>
</svg>
