<?xml version="1.0"?>
<svg version="1.1" id="topsvg"
xmlns="http://www.w3.org/2000/svg" xmlns:xlink="http://www.w3.org/1999/xlink"
xmlns:cml="http://www.xml-cml.org/schema" x="0" y="0" width="200px" height="200px" viewBox="0 0 100 100">
<title>GD282.sdf - Open Babel Depiction</title>
<rect x="0" y="0" width="100" height="100" fill="white"/>
<g transform="translate(0,0)">
<svg width="100" height="100" x="0" y="0" viewBox="0 0 617.847 493.657"
font-family="sans-serif" stroke="rgb(0,0,0)" stroke-width="3"  stroke-linecap="round">
<line x1="238.3" y1="151.3" x2="226.2" y2="114.2" opacity="1.0" stroke="rgb(0,0,0)"  stroke-width="3"/>
<line x1="154.5" y1="296.4" x2="116.3" y2="304.5" opacity="1.0" stroke="rgb(0,0,0)"  stroke-width="3"/>
<line x1="437.3" y1="280.2" x2="449.3" y2="317.3" opacity="1.0" stroke="rgb(0,0,0)"  stroke-width="3"/>
<line x1="501.5" y1="259.3" x2="463.4" y2="251.2" opacity="1.0" stroke="rgb(0,0,0)"  stroke-width="3"/>
<line x1="204.7" y1="251.2" x2="224.2" y2="217.4" opacity="1.0" stroke="rgb(0,0,0)"  stroke-width="3"/>
<line x1="224.2" y1="217.4" x2="262.4" y2="225.5" opacity="1.0" stroke="rgb(0,0,0)"  stroke-width="3"/>
<line x1="228.6" y1="225.7" x2="255.0" y2="231.3" opacity="1.0" stroke="rgb(0,0,0)"  stroke-width="3"/>
<line x1="262.4" y1="225.5" x2="265.1" y2="251.4" opacity="1.0" stroke="rgb(0,0,0)"  stroke-width="3"/>
<line x1="254.6" y1="269.6" x2="230.8" y2="280.2" opacity="1.0" stroke="rgb(0,0,0)"  stroke-width="3"/>
<line x1="230.8" y1="280.2" x2="204.7" y2="251.2" opacity="1.0" stroke="rgb(0,0,0)"  stroke-width="3"/>
<line x1="232.1" y1="270.9" x2="214.1" y2="250.8" opacity="1.0" stroke="rgb(0,0,0)"  stroke-width="3"/>
<line x1="463.4" y1="251.2" x2="437.3" y2="280.2" opacity="1.0" stroke="rgb(0,0,0)"  stroke-width="3"/>
<line x1="454.0" y1="250.8" x2="435.9" y2="270.9" opacity="1.0" stroke="rgb(0,0,0)"  stroke-width="3"/>
<line x1="437.3" y1="280.2" x2="413.5" y2="269.6" opacity="1.0" stroke="rgb(0,0,0)"  stroke-width="3"/>
<line x1="403.0" y1="251.4" x2="405.7" y2="225.5" opacity="1.0" stroke="rgb(0,0,0)"  stroke-width="3"/>
<line x1="405.7" y1="225.5" x2="443.9" y2="217.4" opacity="1.0" stroke="rgb(0,0,0)"  stroke-width="3"/>
<line x1="413.1" y1="231.3" x2="439.5" y2="225.7" opacity="1.0" stroke="rgb(0,0,0)"  stroke-width="3"/>
<line x1="443.9" y1="217.4" x2="463.4" y2="251.2" opacity="1.0" stroke="rgb(0,0,0)"  stroke-width="3"/>
<line x1="300.2" y1="322.9" x2="334.0" y2="342.4" opacity="1.0" stroke="rgb(0,0,0)"  stroke-width="3"/>
<line x1="334.0" y1="342.4" x2="367.8" y2="322.9" opacity="1.0" stroke="rgb(0,0,0)"  stroke-width="3"/>
<line x1="335.6" y1="333.1" x2="359.0" y2="319.6" opacity="1.0" stroke="rgb(0,0,0)"  stroke-width="3"/>
<line x1="367.8" y1="322.9" x2="367.8" y2="283.8" opacity="1.0" stroke="rgb(0,0,0)"  stroke-width="3"/>
<line x1="367.8" y1="283.8" x2="334.0" y2="264.3" opacity="1.0" stroke="rgb(0,0,0)"  stroke-width="3"/>
<line x1="359.0" y1="287.1" x2="335.6" y2="273.6" opacity="1.0" stroke="rgb(0,0,0)"  stroke-width="3"/>
<line x1="334.0" y1="264.3" x2="300.2" y2="283.8" opacity="1.0" stroke="rgb(0,0,0)"  stroke-width="3"/>
<line x1="300.2" y1="283.8" x2="300.2" y2="322.9" opacity="1.0" stroke="rgb(0,0,0)"  stroke-width="3"/>
<line x1="307.4" y1="289.8" x2="307.4" y2="316.9" opacity="1.0" stroke="rgb(0,0,0)"  stroke-width="3"/>
<line x1="262.4" y1="225.5" x2="288.5" y2="196.5" opacity="1.0" stroke="rgb(0,0,0)"  stroke-width="3"/>
<line x1="288.5" y1="196.5" x2="323.0" y2="218.4" opacity="1.0" stroke="rgb(0,0,0)"  stroke-width="3"/>
<line x1="334.0" y1="238.3" x2="334.0" y2="264.3" opacity="1.0" stroke="rgb(0,0,0)"  stroke-width="3"/>
<line x1="300.2" y1="283.8" x2="277.7" y2="270.8" opacity="1.0" stroke="rgb(0,0,0)"  stroke-width="3"/>
<line x1="154.5" y1="296.4" x2="180.6" y2="325.4" opacity="1.0" stroke="rgb(0,0,0)"  stroke-width="3"/>
<line x1="180.6" y1="325.4" x2="218.8" y2="317.3" opacity="1.0" stroke="rgb(0,0,0)"  stroke-width="3"/>
<line x1="185.0" y1="317.1" x2="211.4" y2="311.5" opacity="1.0" stroke="rgb(0,0,0)"  stroke-width="3"/>
<line x1="218.8" y1="317.3" x2="230.8" y2="280.2" opacity="1.0" stroke="rgb(0,0,0)"  stroke-width="3"/>
<line x1="204.7" y1="251.2" x2="166.5" y2="259.3" opacity="1.0" stroke="rgb(0,0,0)"  stroke-width="3"/>
<line x1="166.5" y1="259.3" x2="154.5" y2="296.4" opacity="1.0" stroke="rgb(0,0,0)"  stroke-width="3"/>
<line x1="171.5" y1="267.2" x2="163.2" y2="292.9" opacity="1.0" stroke="rgb(0,0,0)"  stroke-width="3"/>
<line x1="390.4" y1="270.8" x2="367.8" y2="283.8" opacity="1.0" stroke="rgb(0,0,0)"  stroke-width="3"/>
<line x1="345.0" y1="218.4" x2="379.6" y2="196.5" opacity="1.0" stroke="rgb(0,0,0)"  stroke-width="3"/>
<line x1="379.6" y1="196.5" x2="405.7" y2="225.5" opacity="1.0" stroke="rgb(0,0,0)"  stroke-width="3"/>
<line x1="224.2" y1="217.4" x2="212.2" y2="180.3" opacity="1.0" stroke="rgb(0,0,0)"  stroke-width="3"/>
<line x1="212.2" y1="180.3" x2="238.3" y2="151.3" opacity="1.0" stroke="rgb(0,0,0)"  stroke-width="3"/>
<line x1="221.5" y1="180.7" x2="239.6" y2="160.6" opacity="1.0" stroke="rgb(0,0,0)"  stroke-width="3"/>
<line x1="238.3" y1="151.3" x2="276.4" y2="159.4" opacity="1.0" stroke="rgb(0,0,0)"  stroke-width="3"/>
<line x1="276.4" y1="159.4" x2="288.5" y2="196.5" opacity="1.0" stroke="rgb(0,0,0)"  stroke-width="3"/>
<line x1="271.4" y1="167.4" x2="279.8" y2="193.1" opacity="1.0" stroke="rgb(0,0,0)"  stroke-width="3"/>
<line x1="429.8" y1="151.3" x2="391.6" y2="159.4" opacity="1.0" stroke="rgb(0,0,0)"  stroke-width="3"/>
<line x1="391.6" y1="159.4" x2="379.6" y2="196.5" opacity="1.0" stroke="rgb(0,0,0)"  stroke-width="3"/>
<line x1="396.6" y1="167.4" x2="388.3" y2="193.1" opacity="1.0" stroke="rgb(0,0,0)"  stroke-width="3"/>
<line x1="443.9" y1="217.4" x2="455.9" y2="180.3" opacity="1.0" stroke="rgb(0,0,0)"  stroke-width="3"/>
<line x1="455.9" y1="180.3" x2="429.8" y2="151.3" opacity="1.0" stroke="rgb(0,0,0)"  stroke-width="3"/>
<line x1="446.5" y1="180.7" x2="428.5" y2="160.6" opacity="1.0" stroke="rgb(0,0,0)"  stroke-width="3"/>
<line x1="377.6" y1="93.3" x2="415.8" y2="85.2" opacity="1.0" stroke="rgb(0,0,0)"  stroke-width="3"/>
<line x1="415.8" y1="85.2" x2="441.9" y2="114.2" opacity="1.0" stroke="rgb(0,0,0)"  stroke-width="3"/>
<line x1="414.4" y1="94.5" x2="432.5" y2="114.6" opacity="1.0" stroke="rgb(0,0,0)"  stroke-width="3"/>
<line x1="441.9" y1="114.2" x2="429.8" y2="151.3" opacity="1.0" stroke="rgb(0,0,0)"  stroke-width="3"/>
<line x1="391.6" y1="159.4" x2="365.5" y2="130.4" opacity="1.0" stroke="rgb(0,0,0)"  stroke-width="3"/>
<line x1="365.5" y1="130.4" x2="377.6" y2="93.3" opacity="1.0" stroke="rgb(0,0,0)"  stroke-width="3"/>
<line x1="374.2" y1="127.0" x2="382.6" y2="101.3" opacity="1.0" stroke="rgb(0,0,0)"  stroke-width="3"/>
<line x1="209.3" y1="430.4" x2="204.8" y2="391.6" opacity="1.0" stroke="rgb(0,0,0)"  stroke-width="3"/>
<line x1="201.4" y1="425.3" x2="198.3" y2="398.4" opacity="1.0" stroke="rgb(0,0,0)"  stroke-width="3"/>
<line x1="204.8" y1="391.6" x2="169.0" y2="376.1" opacity="1.0" stroke="rgb(0,0,0)"  stroke-width="3"/>
<line x1="169.0" y1="376.1" x2="137.7" y2="399.4" opacity="1.0" stroke="rgb(0,0,0)"  stroke-width="3"/>
<line x1="168.4" y1="385.5" x2="146.8" y2="401.6" opacity="1.0" stroke="rgb(0,0,0)"  stroke-width="3"/>
<line x1="137.7" y1="399.4" x2="142.2" y2="438.2" opacity="1.0" stroke="rgb(0,0,0)"  stroke-width="3"/>
<line x1="142.2" y1="438.2" x2="178.0" y2="453.7" opacity="1.0" stroke="rgb(0,0,0)"  stroke-width="3"/>
<line x1="150.5" y1="433.9" x2="175.3" y2="444.7" opacity="1.0" stroke="rgb(0,0,0)"  stroke-width="3"/>
<line x1="178.0" y1="453.7" x2="209.3" y2="430.4" opacity="1.0" stroke="rgb(0,0,0)"  stroke-width="3"/>
<line x1="341.6" y1="394.9" x2="307.8" y2="375.4" opacity="1.0" stroke="rgb(0,0,0)"  stroke-width="3"/>
<line x1="332.8" y1="398.1" x2="309.4" y2="384.6" opacity="1.0" stroke="rgb(0,0,0)"  stroke-width="3"/>
<line x1="307.8" y1="375.4" x2="274.0" y2="394.9" opacity="1.0" stroke="rgb(0,0,0)"  stroke-width="3"/>
<line x1="274.0" y1="394.9" x2="274.0" y2="433.9" opacity="1.0" stroke="rgb(0,0,0)"  stroke-width="3"/>
<line x1="281.2" y1="400.9" x2="281.2" y2="427.9" opacity="1.0" stroke="rgb(0,0,0)"  stroke-width="3"/>
<line x1="274.0" y1="433.9" x2="307.8" y2="453.4" opacity="1.0" stroke="rgb(0,0,0)"  stroke-width="3"/>
<line x1="307.8" y1="453.4" x2="341.6" y2="433.9" opacity="1.0" stroke="rgb(0,0,0)"  stroke-width="3"/>
<line x1="309.4" y1="444.2" x2="332.8" y2="430.7" opacity="1.0" stroke="rgb(0,0,0)"  stroke-width="3"/>
<line x1="341.6" y1="433.9" x2="341.6" y2="394.9" opacity="1.0" stroke="rgb(0,0,0)"  stroke-width="3"/>
<line x1="423.2" y1="346.3" x2="435.3" y2="383.4" opacity="1.0" stroke="rgb(0,0,0)"  stroke-width="3"/>
<line x1="435.3" y1="383.4" x2="473.4" y2="391.5" opacity="1.0" stroke="rgb(0,0,0)"  stroke-width="3"/>
<line x1="442.6" y1="377.6" x2="469.0" y2="383.2" opacity="1.0" stroke="rgb(0,0,0)"  stroke-width="3"/>
<line x1="473.4" y1="391.5" x2="499.5" y2="362.5" opacity="1.0" stroke="rgb(0,0,0)"  stroke-width="3"/>
<line x1="499.5" y1="362.5" x2="487.5" y2="325.4" opacity="1.0" stroke="rgb(0,0,0)"  stroke-width="3"/>
<line x1="490.8" y1="359.0" x2="482.5" y2="333.3" opacity="1.0" stroke="rgb(0,0,0)"  stroke-width="3"/>
<line x1="487.5" y1="325.4" x2="449.3" y2="317.3" opacity="1.0" stroke="rgb(0,0,0)"  stroke-width="3"/>
<line x1="449.3" y1="317.3" x2="423.2" y2="346.3" opacity="1.0" stroke="rgb(0,0,0)"  stroke-width="3"/>
<line x1="450.6" y1="326.6" x2="432.6" y2="346.7" opacity="1.0" stroke="rgb(0,0,0)"  stroke-width="3"/>
<line x1="513.6" y1="296.4" x2="551.7" y2="304.5" opacity="1.0" stroke="rgb(0,0,0)"  stroke-width="3"/>
<line x1="551.7" y1="304.5" x2="577.8" y2="275.5" opacity="1.0" stroke="rgb(0,0,0)"  stroke-width="3"/>
<line x1="550.4" y1="295.3" x2="568.5" y2="275.2" opacity="1.0" stroke="rgb(0,0,0)"  stroke-width="3"/>
<line x1="577.8" y1="275.5" x2="565.8" y2="238.4" opacity="1.0" stroke="rgb(0,0,0)"  stroke-width="3"/>
<line x1="565.8" y1="238.4" x2="527.6" y2="230.3" opacity="1.0" stroke="rgb(0,0,0)"  stroke-width="3"/>
<line x1="558.4" y1="244.2" x2="532.0" y2="238.6" opacity="1.0" stroke="rgb(0,0,0)"  stroke-width="3"/>
<line x1="527.6" y1="230.3" x2="501.5" y2="259.3" opacity="1.0" stroke="rgb(0,0,0)"  stroke-width="3"/>
<line x1="501.5" y1="259.3" x2="513.6" y2="296.4" opacity="1.0" stroke="rgb(0,0,0)"  stroke-width="3"/>
<line x1="510.2" y1="262.8" x2="518.6" y2="288.5" opacity="1.0" stroke="rgb(0,0,0)"  stroke-width="3"/>
<line x1="90.2" y1="275.5" x2="52.1" y2="283.7" opacity="1.0" stroke="rgb(0,0,0)"  stroke-width="3"/>
<line x1="52.1" y1="283.7" x2="40.0" y2="320.8" opacity="1.0" stroke="rgb(0,0,0)"  stroke-width="3"/>
<line x1="57.0" y1="291.6" x2="48.7" y2="317.3" opacity="1.0" stroke="rgb(0,0,0)"  stroke-width="3"/>
<line x1="40.0" y1="320.8" x2="66.1" y2="349.8" opacity="1.0" stroke="rgb(0,0,0)"  stroke-width="3"/>
<line x1="66.1" y1="349.8" x2="104.3" y2="341.6" opacity="1.0" stroke="rgb(0,0,0)"  stroke-width="3"/>
<line x1="70.5" y1="341.5" x2="96.9" y2="335.8" opacity="1.0" stroke="rgb(0,0,0)"  stroke-width="3"/>
<line x1="104.3" y1="341.6" x2="116.3" y2="304.5" opacity="1.0" stroke="rgb(0,0,0)"  stroke-width="3"/>
<line x1="116.3" y1="304.5" x2="90.2" y2="275.5" opacity="1.0" stroke="rgb(0,0,0)"  stroke-width="3"/>
<line x1="107.0" y1="304.9" x2="88.9" y2="284.8" opacity="1.0" stroke="rgb(0,0,0)"  stroke-width="3"/>
<line x1="252.3" y1="85.2" x2="240.3" y2="48.1" opacity="1.0" stroke="rgb(0,0,0)"  stroke-width="3"/>
<line x1="240.3" y1="48.1" x2="202.1" y2="40.0" opacity="1.0" stroke="rgb(0,0,0)"  stroke-width="3"/>
<line x1="232.9" y1="53.9" x2="206.5" y2="48.3" opacity="1.0" stroke="rgb(0,0,0)"  stroke-width="3"/>
<line x1="202.1" y1="40.0" x2="176.0" y2="69.0" opacity="1.0" stroke="rgb(0,0,0)"  stroke-width="3"/>
<line x1="176.0" y1="69.0" x2="188.0" y2="106.1" opacity="1.0" stroke="rgb(0,0,0)"  stroke-width="3"/>
<line x1="184.7" y1="72.5" x2="193.0" y2="98.2" opacity="1.0" stroke="rgb(0,0,0)"  stroke-width="3"/>
<line x1="188.0" y1="106.1" x2="226.2" y2="114.2" opacity="1.0" stroke="rgb(0,0,0)"  stroke-width="3"/>
<line x1="226.2" y1="114.2" x2="252.3" y2="85.2" opacity="1.0" stroke="rgb(0,0,0)"  stroke-width="3"/>
<line x1="224.9" y1="104.9" x2="242.9" y2="84.9" opacity="1.0" stroke="rgb(0,0,0)"  stroke-width="3"/>
<line x1="218.8" y1="317.3" x2="240.2" y2="375.4" opacity="1.0" stroke="rgb(0,0,0)"  stroke-width="3"/>
<line x1="240.2" y1="375.4" x2="300.2" y2="322.9" opacity="1.0" stroke="rgb(0,0,0)"  stroke-width="3"/>
<line x1="240.2" y1="375.4" x2="204.8" y2="391.6" opacity="1.0" stroke="rgb(0,0,0)"  stroke-width="3"/>
<line x1="209.3" y1="430.4" x2="233.2" y2="440.7" opacity="1.0" stroke="rgb(0,0,0)"  stroke-width="3"/>
<line x1="257.1" y1="440.9" x2="274.0" y2="433.9" opacity="1.0" stroke="rgb(0,0,0)"  stroke-width="3"/>
<line x1="274.0" y1="394.9" x2="240.2" y2="375.4" opacity="1.0" stroke="rgb(0,0,0)"  stroke-width="3"/>
<text x="239.090879" y="453.866039" fill="rgb(255,12,12)" stroke-width="0" font-weight="bold" font-size="25.92" >O</text>
<text x="260.456470" y="272.331006" fill="rgb(12,12,255)" stroke-width="0" font-weight="bold" font-size="25.92" >N</text>
<text x="328.033136" y="233.315602" fill="rgb(255,181,181)" stroke-width="0" font-weight="bold" font-size="25.92" >B</text>
<text x="395.609802" y="272.330959" fill="rgb(12,12,255)" stroke-width="0" font-weight="bold" font-size="25.92" >N</text>
</svg>
</g>
</svg>
