<?xml version="1.0"?>
<svg version="1.1" id="topsvg"
xmlns="http://www.w3.org/2000/svg" xmlns:xlink="http://www.w3.org/1999/xlink"
xmlns:cml="http://www.xml-cml.org/schema" x="0" y="0" width="200px" height="200px" viewBox="0 0 100 100">
<title>GD286.sdf - Open Babel Depiction</title>
<rect x="0" y="0" width="100" height="100" fill="white"/>
<g transform="translate(0,0)">
<svg width="100" height="100" x="0" y="0" viewBox="0 0 605.853 531.718"
font-family="sans-serif" stroke="rgb(0,0,0)" stroke-width="3"  stroke-linecap="round">
<line x1="258.1" y1="158.0" x2="260.4" y2="118.7" opacity="1.0" stroke="rgb(0,0,0)"  stroke-width="3"/>
<line x1="145.6" y1="329.2" x2="110.4" y2="346.9" opacity="1.0" stroke="rgb(0,0,0)"  stroke-width="3"/>
<line x1="426.2" y1="292.1" x2="443.9" y2="327.3" opacity="1.0" stroke="rgb(0,0,0)"  stroke-width="3"/>
<line x1="487.2" y1="261.4" x2="447.8" y2="259.1" opacity="1.0" stroke="rgb(0,0,0)"  stroke-width="3"/>
<line x1="183.1" y1="272.2" x2="220.6" y2="215.1" opacity="1.0" stroke="rgb(0,0,0)"  stroke-width="3"/>
<line x1="220.6" y1="215.1" x2="253.6" y2="236.7" opacity="1.0" stroke="rgb(0,0,0)"  stroke-width="3"/>
<line x1="221.7" y1="224.4" x2="244.6" y2="239.5" opacity="1.0" stroke="rgb(0,0,0)"  stroke-width="3"/>
<line x1="253.6" y1="236.7" x2="252.0" y2="263.1" opacity="1.0" stroke="rgb(0,0,0)"  stroke-width="3"/>
<line x1="239.7" y1="281.9" x2="216.1" y2="293.8" opacity="1.0" stroke="rgb(0,0,0)"  stroke-width="3"/>
<line x1="216.1" y1="293.8" x2="183.1" y2="272.2" opacity="1.0" stroke="rgb(0,0,0)"  stroke-width="3"/>
<line x1="215.0" y1="284.5" x2="192.1" y2="269.4" opacity="1.0" stroke="rgb(0,0,0)"  stroke-width="3"/>
<line x1="447.8" y1="259.1" x2="426.2" y2="292.1" opacity="1.0" stroke="rgb(0,0,0)"  stroke-width="3"/>
<line x1="438.5" y1="260.2" x2="423.4" y2="283.1" opacity="1.0" stroke="rgb(0,0,0)"  stroke-width="3"/>
<line x1="426.2" y1="292.1" x2="400.3" y2="286.6" opacity="1.0" stroke="rgb(0,0,0)"  stroke-width="3"/>
<line x1="388.3" y1="271.0" x2="389.9" y2="244.6" opacity="1.0" stroke="rgb(0,0,0)"  stroke-width="3"/>
<line x1="389.9" y1="244.6" x2="425.1" y2="226.9" opacity="1.0" stroke="rgb(0,0,0)"  stroke-width="3"/>
<line x1="398.5" y1="248.4" x2="422.9" y2="236.0" opacity="1.0" stroke="rgb(0,0,0)"  stroke-width="3"/>
<line x1="425.1" y1="226.9" x2="447.8" y2="259.1" opacity="1.0" stroke="rgb(0,0,0)"  stroke-width="3"/>
<line x1="281.9" y1="337.1" x2="314.9" y2="358.7" opacity="1.0" stroke="rgb(0,0,0)"  stroke-width="3"/>
<line x1="314.9" y1="358.7" x2="350.1" y2="341.0" opacity="1.0" stroke="rgb(0,0,0)"  stroke-width="3"/>
<line x1="317.0" y1="349.6" x2="341.5" y2="337.3" opacity="1.0" stroke="rgb(0,0,0)"  stroke-width="3"/>
<line x1="350.1" y1="341.0" x2="352.4" y2="301.7" opacity="1.0" stroke="rgb(0,0,0)"  stroke-width="3"/>
<line x1="352.4" y1="301.7" x2="319.4" y2="280.0" opacity="1.0" stroke="rgb(0,0,0)"  stroke-width="3"/>
<line x1="343.4" y1="304.4" x2="320.5" y2="289.3" opacity="1.0" stroke="rgb(0,0,0)"  stroke-width="3"/>
<line x1="319.4" y1="280.0" x2="284.2" y2="297.7" opacity="1.0" stroke="rgb(0,0,0)"  stroke-width="3"/>
<line x1="284.2" y1="297.7" x2="281.9" y2="337.1" opacity="1.0" stroke="rgb(0,0,0)"  stroke-width="3"/>
<line x1="291.1" y1="304.1" x2="289.5" y2="331.5" opacity="1.0" stroke="rgb(0,0,0)"  stroke-width="3"/>
<line x1="253.6" y1="236.7" x2="288.8" y2="219.0" opacity="1.0" stroke="rgb(0,0,0)"  stroke-width="3"/>
<line x1="288.8" y1="219.0" x2="310.8" y2="233.5" opacity="1.0" stroke="rgb(0,0,0)"  stroke-width="3"/>
<line x1="321.0" y1="253.7" x2="319.4" y2="280.0" opacity="1.0" stroke="rgb(0,0,0)"  stroke-width="3"/>
<line x1="284.2" y1="297.7" x2="262.1" y2="283.2" opacity="1.0" stroke="rgb(0,0,0)"  stroke-width="3"/>
<line x1="145.6" y1="329.2" x2="178.6" y2="350.9" opacity="1.0" stroke="rgb(0,0,0)"  stroke-width="3"/>
<line x1="178.6" y1="350.9" x2="213.8" y2="333.1" opacity="1.0" stroke="rgb(0,0,0)"  stroke-width="3"/>
<line x1="180.7" y1="341.7" x2="205.2" y2="329.4" opacity="1.0" stroke="rgb(0,0,0)"  stroke-width="3"/>
<line x1="213.8" y1="333.1" x2="216.1" y2="293.8" opacity="1.0" stroke="rgb(0,0,0)"  stroke-width="3"/>
<line x1="183.1" y1="272.2" x2="147.9" y2="289.9" opacity="1.0" stroke="rgb(0,0,0)"  stroke-width="3"/>
<line x1="147.9" y1="289.9" x2="145.6" y2="329.2" opacity="1.0" stroke="rgb(0,0,0)"  stroke-width="3"/>
<line x1="154.8" y1="296.3" x2="153.2" y2="323.6" opacity="1.0" stroke="rgb(0,0,0)"  stroke-width="3"/>
<line x1="376.0" y1="289.8" x2="352.4" y2="301.7" opacity="1.0" stroke="rgb(0,0,0)"  stroke-width="3"/>
<line x1="333.3" y1="234.8" x2="356.9" y2="223.0" opacity="1.0" stroke="rgb(0,0,0)"  stroke-width="3"/>
<line x1="356.9" y1="223.0" x2="389.9" y2="244.6" opacity="1.0" stroke="rgb(0,0,0)"  stroke-width="3"/>
<line x1="220.6" y1="215.1" x2="222.9" y2="175.8" opacity="1.0" stroke="rgb(0,0,0)"  stroke-width="3"/>
<line x1="222.9" y1="175.8" x2="258.1" y2="158.0" opacity="1.0" stroke="rgb(0,0,0)"  stroke-width="3"/>
<line x1="231.5" y1="179.5" x2="256.0" y2="167.2" opacity="1.0" stroke="rgb(0,0,0)"  stroke-width="3"/>
<line x1="258.1" y1="158.0" x2="291.0" y2="179.7" opacity="1.0" stroke="rgb(0,0,0)"  stroke-width="3"/>
<line x1="291.0" y1="179.7" x2="288.8" y2="219.0" opacity="1.0" stroke="rgb(0,0,0)"  stroke-width="3"/>
<line x1="283.5" y1="185.3" x2="281.9" y2="212.6" opacity="1.0" stroke="rgb(0,0,0)"  stroke-width="3"/>
<line x1="394.4" y1="165.9" x2="359.2" y2="183.6" opacity="1.0" stroke="rgb(0,0,0)"  stroke-width="3"/>
<line x1="359.2" y1="183.6" x2="356.9" y2="223.0" opacity="1.0" stroke="rgb(0,0,0)"  stroke-width="3"/>
<line x1="366.0" y1="190.0" x2="364.5" y2="217.4" opacity="1.0" stroke="rgb(0,0,0)"  stroke-width="3"/>
<line x1="425.1" y1="226.9" x2="427.3" y2="187.6" opacity="1.0" stroke="rgb(0,0,0)"  stroke-width="3"/>
<line x1="427.3" y1="187.6" x2="394.4" y2="165.9" opacity="1.0" stroke="rgb(0,0,0)"  stroke-width="3"/>
<line x1="418.4" y1="190.3" x2="395.5" y2="175.2" opacity="1.0" stroke="rgb(0,0,0)"  stroke-width="3"/>
<line x1="328.5" y1="122.6" x2="363.7" y2="104.9" opacity="1.0" stroke="rgb(0,0,0)"  stroke-width="3"/>
<line x1="363.7" y1="104.9" x2="396.7" y2="126.6" opacity="1.0" stroke="rgb(0,0,0)"  stroke-width="3"/>
<line x1="364.8" y1="114.2" x2="387.7" y2="129.3" opacity="1.0" stroke="rgb(0,0,0)"  stroke-width="3"/>
<line x1="396.7" y1="126.6" x2="394.4" y2="165.9" opacity="1.0" stroke="rgb(0,0,0)"  stroke-width="3"/>
<line x1="359.2" y1="183.6" x2="326.3" y2="162.0" opacity="1.0" stroke="rgb(0,0,0)"  stroke-width="3"/>
<line x1="326.3" y1="162.0" x2="328.5" y2="122.6" opacity="1.0" stroke="rgb(0,0,0)"  stroke-width="3"/>
<line x1="333.8" y1="156.4" x2="335.4" y2="129.0" opacity="1.0" stroke="rgb(0,0,0)"  stroke-width="3"/>
<line x1="222.4" y1="433.9" x2="212.4" y2="395.8" opacity="1.0" stroke="rgb(0,0,0)"  stroke-width="3"/>
<line x1="213.9" y1="429.9" x2="207.0" y2="403.4" opacity="1.0" stroke="rgb(0,0,0)"  stroke-width="3"/>
<line x1="212.4" y1="395.8" x2="174.4" y2="385.3" opacity="1.0" stroke="rgb(0,0,0)"  stroke-width="3"/>
<line x1="174.4" y1="385.3" x2="146.4" y2="413.1" opacity="1.0" stroke="rgb(0,0,0)"  stroke-width="3"/>
<line x1="175.2" y1="394.7" x2="155.7" y2="414.0" opacity="1.0" stroke="rgb(0,0,0)"  stroke-width="3"/>
<line x1="146.4" y1="413.1" x2="156.4" y2="451.2" opacity="1.0" stroke="rgb(0,0,0)"  stroke-width="3"/>
<line x1="156.4" y1="451.2" x2="194.4" y2="461.6" opacity="1.0" stroke="rgb(0,0,0)"  stroke-width="3"/>
<line x1="164.1" y1="445.8" x2="190.5" y2="453.1" opacity="1.0" stroke="rgb(0,0,0)"  stroke-width="3"/>
<line x1="194.4" y1="461.6" x2="222.4" y2="433.9" opacity="1.0" stroke="rgb(0,0,0)"  stroke-width="3"/>
<line x1="339.7" y1="424.2" x2="315.1" y2="393.5" opacity="1.0" stroke="rgb(0,0,0)"  stroke-width="3"/>
<line x1="330.3" y1="424.1" x2="313.2" y2="402.7" opacity="1.0" stroke="rgb(0,0,0)"  stroke-width="3"/>
<line x1="315.1" y1="393.5" x2="276.1" y2="399.4" opacity="1.0" stroke="rgb(0,0,0)"  stroke-width="3"/>
<line x1="276.1" y1="399.4" x2="261.8" y2="436.2" opacity="1.0" stroke="rgb(0,0,0)"  stroke-width="3"/>
<line x1="280.6" y1="407.6" x2="270.7" y2="433.2" opacity="1.0" stroke="rgb(0,0,0)"  stroke-width="3"/>
<line x1="261.8" y1="436.2" x2="286.4" y2="466.9" opacity="1.0" stroke="rgb(0,0,0)"  stroke-width="3"/>
<line x1="286.4" y1="466.9" x2="325.4" y2="461.0" opacity="1.0" stroke="rgb(0,0,0)"  stroke-width="3"/>
<line x1="291.3" y1="458.9" x2="318.4" y2="454.7" opacity="1.0" stroke="rgb(0,0,0)"  stroke-width="3"/>
<line x1="325.4" y1="461.0" x2="339.7" y2="424.2" opacity="1.0" stroke="rgb(0,0,0)"  stroke-width="3"/>
<line x1="403.3" y1="449.0" x2="378.7" y2="418.3" opacity="1.0" stroke="rgb(0,0,0)"  stroke-width="3"/>
<line x1="393.9" y1="448.9" x2="376.8" y2="427.5" opacity="1.0" stroke="rgb(0,0,0)"  stroke-width="3"/>
<line x1="378.7" y1="418.3" x2="339.7" y2="424.2" opacity="1.0" stroke="rgb(0,0,0)"  stroke-width="3"/>
<line x1="325.4" y1="461.0" x2="350.0" y2="491.7" opacity="1.0" stroke="rgb(0,0,0)"  stroke-width="3"/>
<line x1="350.0" y1="491.7" x2="389.0" y2="485.8" opacity="1.0" stroke="rgb(0,0,0)"  stroke-width="3"/>
<line x1="354.9" y1="483.7" x2="382.0" y2="479.6" opacity="1.0" stroke="rgb(0,0,0)"  stroke-width="3"/>
<line x1="389.0" y1="485.8" x2="403.3" y2="449.0" opacity="1.0" stroke="rgb(0,0,0)"  stroke-width="3"/>
<line x1="422.2" y1="360.2" x2="439.9" y2="395.4" opacity="1.0" stroke="rgb(0,0,0)"  stroke-width="3"/>
<line x1="439.9" y1="395.4" x2="479.3" y2="397.7" opacity="1.0" stroke="rgb(0,0,0)"  stroke-width="3"/>
<line x1="446.3" y1="388.6" x2="473.7" y2="390.2" opacity="1.0" stroke="rgb(0,0,0)"  stroke-width="3"/>
<line x1="479.3" y1="397.7" x2="500.9" y2="364.8" opacity="1.0" stroke="rgb(0,0,0)"  stroke-width="3"/>
<line x1="500.9" y1="364.8" x2="483.2" y2="329.5" opacity="1.0" stroke="rgb(0,0,0)"  stroke-width="3"/>
<line x1="491.8" y1="362.6" x2="479.5" y2="338.1" opacity="1.0" stroke="rgb(0,0,0)"  stroke-width="3"/>
<line x1="483.2" y1="329.5" x2="443.9" y2="327.3" opacity="1.0" stroke="rgb(0,0,0)"  stroke-width="3"/>
<line x1="443.9" y1="327.3" x2="422.2" y2="360.2" opacity="1.0" stroke="rgb(0,0,0)"  stroke-width="3"/>
<line x1="446.6" y1="336.2" x2="431.5" y2="359.1" opacity="1.0" stroke="rgb(0,0,0)"  stroke-width="3"/>
<line x1="504.9" y1="296.6" x2="544.2" y2="298.9" opacity="1.0" stroke="rgb(0,0,0)"  stroke-width="3"/>
<line x1="544.2" y1="298.9" x2="565.9" y2="265.9" opacity="1.0" stroke="rgb(0,0,0)"  stroke-width="3"/>
<line x1="541.5" y1="289.9" x2="556.5" y2="267.0" opacity="1.0" stroke="rgb(0,0,0)"  stroke-width="3"/>
<line x1="565.9" y1="265.9" x2="548.1" y2="230.7" opacity="1.0" stroke="rgb(0,0,0)"  stroke-width="3"/>
<line x1="548.1" y1="230.7" x2="508.8" y2="228.4" opacity="1.0" stroke="rgb(0,0,0)"  stroke-width="3"/>
<line x1="541.7" y1="237.6" x2="514.4" y2="236.0" opacity="1.0" stroke="rgb(0,0,0)"  stroke-width="3"/>
<line x1="508.8" y1="228.4" x2="487.2" y2="261.4" opacity="1.0" stroke="rgb(0,0,0)"  stroke-width="3"/>
<line x1="487.2" y1="261.4" x2="504.9" y2="296.6" opacity="1.0" stroke="rgb(0,0,0)"  stroke-width="3"/>
<line x1="496.3" y1="263.5" x2="508.6" y2="288.0" opacity="1.0" stroke="rgb(0,0,0)"  stroke-width="3"/>
<line x1="77.5" y1="325.3" x2="42.3" y2="343.0" opacity="1.0" stroke="rgb(0,0,0)"  stroke-width="3"/>
<line x1="42.3" y1="343.0" x2="40.0" y2="382.3" opacity="1.0" stroke="rgb(0,0,0)"  stroke-width="3"/>
<line x1="49.1" y1="349.4" x2="47.5" y2="376.7" opacity="1.0" stroke="rgb(0,0,0)"  stroke-width="3"/>
<line x1="40.0" y1="382.3" x2="72.9" y2="404.0" opacity="1.0" stroke="rgb(0,0,0)"  stroke-width="3"/>
<line x1="72.9" y1="404.0" x2="108.2" y2="386.3" opacity="1.0" stroke="rgb(0,0,0)"  stroke-width="3"/>
<line x1="75.1" y1="394.8" x2="99.6" y2="382.5" opacity="1.0" stroke="rgb(0,0,0)"  stroke-width="3"/>
<line x1="108.2" y1="386.3" x2="110.4" y2="346.9" opacity="1.0" stroke="rgb(0,0,0)"  stroke-width="3"/>
<line x1="110.4" y1="346.9" x2="77.5" y2="325.3" opacity="1.0" stroke="rgb(0,0,0)"  stroke-width="3"/>
<line x1="101.5" y1="349.6" x2="78.5" y2="334.6" opacity="1.0" stroke="rgb(0,0,0)"  stroke-width="3"/>
<line x1="295.6" y1="101.0" x2="297.9" y2="61.6" opacity="1.0" stroke="rgb(0,0,0)"  stroke-width="3"/>
<line x1="297.9" y1="61.6" x2="264.9" y2="40.0" opacity="1.0" stroke="rgb(0,0,0)"  stroke-width="3"/>
<line x1="288.9" y1="64.4" x2="266.0" y2="49.3" opacity="1.0" stroke="rgb(0,0,0)"  stroke-width="3"/>
<line x1="264.9" y1="40.0" x2="229.7" y2="57.7" opacity="1.0" stroke="rgb(0,0,0)"  stroke-width="3"/>
<line x1="229.7" y1="57.7" x2="227.4" y2="97.1" opacity="1.0" stroke="rgb(0,0,0)"  stroke-width="3"/>
<line x1="236.5" y1="64.1" x2="235.0" y2="91.5" opacity="1.0" stroke="rgb(0,0,0)"  stroke-width="3"/>
<line x1="227.4" y1="97.1" x2="260.4" y2="118.7" opacity="1.0" stroke="rgb(0,0,0)"  stroke-width="3"/>
<line x1="260.4" y1="118.7" x2="295.6" y2="101.0" opacity="1.0" stroke="rgb(0,0,0)"  stroke-width="3"/>
<line x1="262.5" y1="109.6" x2="287.0" y2="97.3" opacity="1.0" stroke="rgb(0,0,0)"  stroke-width="3"/>
<line x1="246.2" y1="364.6" x2="212.4" y2="395.8" opacity="1.0" stroke="rgb(0,0,0)"  stroke-width="3"/>
<line x1="222.4" y1="433.9" x2="261.8" y2="436.2" opacity="1.0" stroke="rgb(0,0,0)"  stroke-width="3"/>
<line x1="276.1" y1="399.4" x2="246.2" y2="364.6" opacity="1.0" stroke="rgb(0,0,0)"  stroke-width="3"/>
<line x1="213.8" y1="333.1" x2="246.2" y2="364.6" opacity="1.0" stroke="rgb(0,0,0)"  stroke-width="3"/>
<line x1="246.2" y1="364.6" x2="281.9" y2="337.1" opacity="1.0" stroke="rgb(0,0,0)"  stroke-width="3"/>
<text x="245.280752" y="284.091264" fill="rgb(12,12,255)" stroke-width="0" font-weight="bold" font-size="25.92" >N</text>
<text x="315.707669" y="248.680097" fill="rgb(255,181,181)" stroke-width="0" font-weight="bold" font-size="25.92" >B</text>
<text x="381.588037" y="291.966033" fill="rgb(12,12,255)" stroke-width="0" font-weight="bold" font-size="25.92" >N</text>
</svg>
</g>
</svg>
