<?xml version="1.0"?>
<svg version="1.1" id="topsvg"
xmlns="http://www.w3.org/2000/svg" xmlns:xlink="http://www.w3.org/1999/xlink"
xmlns:cml="http://www.xml-cml.org/schema" x="0" y="0" width="200px" height="200px" viewBox="0 0 100 100">
<title>GD293.sdf - Open Babel Depiction</title>
<rect x="0" y="0" width="100" height="100" fill="white"/>
<g transform="translate(0,0)">
<svg width="100" height="100" x="0" y="0" viewBox="0 0 581.902 466.677"
font-family="sans-serif" stroke="rgb(0,0,0)" stroke-width="3"  stroke-linecap="round">
<line x1="150.9" y1="107.0" x2="161.1" y2="68.8" opacity="1.0" stroke="rgb(0,0,0)"  stroke-width="3"/>
<line x1="150.9" y1="107.0" x2="189.1" y2="96.7" opacity="1.0" stroke="rgb(0,0,0)"  stroke-width="3"/>
<line x1="439.9" y1="157.9" x2="465.5" y2="164.8" opacity="1.0" stroke="rgb(0,0,0)"  stroke-width="3"/>
<line x1="112.2" y1="317.6" x2="100.0" y2="355.2" opacity="1.0" stroke="rgb(0,0,0)"  stroke-width="3"/>
<line x1="100.0" y1="355.2" x2="126.5" y2="384.6" opacity="1.0" stroke="rgb(0,0,0)"  stroke-width="3"/>
<line x1="100.0" y1="355.2" x2="61.3" y2="363.5" opacity="1.0" stroke="rgb(0,0,0)"  stroke-width="3"/>
<line x1="100.0" y1="355.2" x2="138.7" y2="347.0" opacity="1.0" stroke="rgb(0,0,0)"  stroke-width="3"/>
<line x1="136.7" y1="242.4" x2="156.4" y2="208.2" opacity="1.0" stroke="rgb(0,0,0)"  stroke-width="3"/>
<line x1="156.4" y1="208.2" x2="195.1" y2="216.4" opacity="1.0" stroke="rgb(0,0,0)"  stroke-width="3"/>
<line x1="160.8" y1="216.5" x2="187.7" y2="222.2" opacity="1.0" stroke="rgb(0,0,0)"  stroke-width="3"/>
<line x1="195.1" y1="216.4" x2="197.9" y2="242.8" opacity="1.0" stroke="rgb(0,0,0)"  stroke-width="3"/>
<line x1="187.4" y1="261.0" x2="163.1" y2="271.8" opacity="1.0" stroke="rgb(0,0,0)"  stroke-width="3"/>
<line x1="163.1" y1="271.8" x2="136.7" y2="242.4" opacity="1.0" stroke="rgb(0,0,0)"  stroke-width="3"/>
<line x1="164.5" y1="262.5" x2="146.0" y2="242.1" opacity="1.0" stroke="rgb(0,0,0)"  stroke-width="3"/>
<line x1="398.8" y1="242.4" x2="372.3" y2="271.8" opacity="1.0" stroke="rgb(0,0,0)"  stroke-width="3"/>
<line x1="389.4" y1="242.1" x2="371.0" y2="262.5" opacity="1.0" stroke="rgb(0,0,0)"  stroke-width="3"/>
<line x1="372.3" y1="271.8" x2="348.1" y2="261.0" opacity="1.0" stroke="rgb(0,0,0)"  stroke-width="3"/>
<line x1="337.6" y1="242.8" x2="340.3" y2="216.4" opacity="1.0" stroke="rgb(0,0,0)"  stroke-width="3"/>
<line x1="340.3" y1="216.4" x2="379.0" y2="208.2" opacity="1.0" stroke="rgb(0,0,0)"  stroke-width="3"/>
<line x1="347.7" y1="222.2" x2="374.6" y2="216.5" opacity="1.0" stroke="rgb(0,0,0)"  stroke-width="3"/>
<line x1="379.0" y1="208.2" x2="398.8" y2="242.4" opacity="1.0" stroke="rgb(0,0,0)"  stroke-width="3"/>
<line x1="423.2" y1="115.2" x2="384.5" y2="107.0" opacity="1.0" stroke="rgb(0,0,0)"  stroke-width="3"/>
<line x1="415.8" y1="121.0" x2="388.9" y2="115.3" opacity="1.0" stroke="rgb(0,0,0)"  stroke-width="3"/>
<line x1="384.5" y1="107.0" x2="364.8" y2="141.2" opacity="1.0" stroke="rgb(0,0,0)"  stroke-width="3"/>
<line x1="364.8" y1="141.2" x2="391.2" y2="170.6" opacity="1.0" stroke="rgb(0,0,0)"  stroke-width="3"/>
<line x1="374.1" y1="140.9" x2="392.6" y2="161.3" opacity="1.0" stroke="rgb(0,0,0)"  stroke-width="3"/>
<line x1="391.2" y1="170.6" x2="415.5" y2="159.8" opacity="1.0" stroke="rgb(0,0,0)"  stroke-width="3"/>
<line x1="426.0" y1="141.6" x2="423.2" y2="115.2" opacity="1.0" stroke="rgb(0,0,0)"  stroke-width="3"/>
<line x1="233.5" y1="315.0" x2="267.7" y2="334.8" opacity="1.0" stroke="rgb(0,0,0)"  stroke-width="3"/>
<line x1="267.7" y1="334.8" x2="302.0" y2="315.0" opacity="1.0" stroke="rgb(0,0,0)"  stroke-width="3"/>
<line x1="269.3" y1="325.6" x2="293.2" y2="311.8" opacity="1.0" stroke="rgb(0,0,0)"  stroke-width="3"/>
<line x1="302.0" y1="315.0" x2="302.0" y2="275.5" opacity="1.0" stroke="rgb(0,0,0)"  stroke-width="3"/>
<line x1="302.0" y1="275.5" x2="267.7" y2="255.7" opacity="1.0" stroke="rgb(0,0,0)"  stroke-width="3"/>
<line x1="293.2" y1="278.7" x2="269.3" y2="265.0" opacity="1.0" stroke="rgb(0,0,0)"  stroke-width="3"/>
<line x1="267.7" y1="255.7" x2="233.5" y2="275.5" opacity="1.0" stroke="rgb(0,0,0)"  stroke-width="3"/>
<line x1="233.5" y1="275.5" x2="233.5" y2="315.0" opacity="1.0" stroke="rgb(0,0,0)"  stroke-width="3"/>
<line x1="240.7" y1="281.5" x2="240.7" y2="309.0" opacity="1.0" stroke="rgb(0,0,0)"  stroke-width="3"/>
<line x1="195.1" y1="216.4" x2="221.6" y2="187.0" opacity="1.0" stroke="rgb(0,0,0)"  stroke-width="3"/>
<line x1="221.6" y1="187.0" x2="256.7" y2="209.3" opacity="1.0" stroke="rgb(0,0,0)"  stroke-width="3"/>
<line x1="267.7" y1="229.2" x2="267.7" y2="255.7" opacity="1.0" stroke="rgb(0,0,0)"  stroke-width="3"/>
<line x1="233.5" y1="275.5" x2="210.5" y2="262.2" opacity="1.0" stroke="rgb(0,0,0)"  stroke-width="3"/>
<line x1="112.2" y1="317.6" x2="85.8" y2="288.3" opacity="1.0" stroke="rgb(0,0,0)"  stroke-width="3"/>
<line x1="85.8" y1="288.3" x2="98.0" y2="250.7" opacity="1.0" stroke="rgb(0,0,0)"  stroke-width="3"/>
<line x1="94.5" y1="284.8" x2="103.0" y2="258.6" opacity="1.0" stroke="rgb(0,0,0)"  stroke-width="3"/>
<line x1="98.0" y1="250.7" x2="136.7" y2="242.4" opacity="1.0" stroke="rgb(0,0,0)"  stroke-width="3"/>
<line x1="163.1" y1="271.8" x2="150.9" y2="309.4" opacity="1.0" stroke="rgb(0,0,0)"  stroke-width="3"/>
<line x1="150.9" y1="309.4" x2="112.2" y2="317.6" opacity="1.0" stroke="rgb(0,0,0)"  stroke-width="3"/>
<line x1="143.5" y1="303.6" x2="116.6" y2="309.4" opacity="1.0" stroke="rgb(0,0,0)"  stroke-width="3"/>
<line x1="324.9" y1="262.2" x2="302.0" y2="275.5" opacity="1.0" stroke="rgb(0,0,0)"  stroke-width="3"/>
<line x1="278.7" y1="209.3" x2="313.9" y2="187.0" opacity="1.0" stroke="rgb(0,0,0)"  stroke-width="3"/>
<line x1="313.9" y1="187.0" x2="340.3" y2="216.4" opacity="1.0" stroke="rgb(0,0,0)"  stroke-width="3"/>
<line x1="449.7" y1="288.3" x2="423.2" y2="317.6" opacity="1.0" stroke="rgb(0,0,0)"  stroke-width="3"/>
<line x1="423.2" y1="317.6" x2="384.5" y2="309.4" opacity="1.0" stroke="rgb(0,0,0)"  stroke-width="3"/>
<line x1="418.8" y1="309.4" x2="391.9" y2="303.6" opacity="1.0" stroke="rgb(0,0,0)"  stroke-width="3"/>
<line x1="384.5" y1="309.4" x2="372.3" y2="271.8" opacity="1.0" stroke="rgb(0,0,0)"  stroke-width="3"/>
<line x1="398.8" y1="242.4" x2="437.4" y2="250.7" opacity="1.0" stroke="rgb(0,0,0)"  stroke-width="3"/>
<line x1="437.4" y1="250.7" x2="449.7" y2="288.3" opacity="1.0" stroke="rgb(0,0,0)"  stroke-width="3"/>
<line x1="432.4" y1="258.6" x2="441.0" y2="284.8" opacity="1.0" stroke="rgb(0,0,0)"  stroke-width="3"/>
<line x1="156.4" y1="208.2" x2="144.2" y2="170.6" opacity="1.0" stroke="rgb(0,0,0)"  stroke-width="3"/>
<line x1="144.2" y1="170.6" x2="170.7" y2="141.2" opacity="1.0" stroke="rgb(0,0,0)"  stroke-width="3"/>
<line x1="153.6" y1="171.0" x2="172.0" y2="150.5" opacity="1.0" stroke="rgb(0,0,0)"  stroke-width="3"/>
<line x1="170.7" y1="141.2" x2="209.3" y2="149.4" opacity="1.0" stroke="rgb(0,0,0)"  stroke-width="3"/>
<line x1="209.3" y1="149.4" x2="221.6" y2="187.0" opacity="1.0" stroke="rgb(0,0,0)"  stroke-width="3"/>
<line x1="204.4" y1="157.4" x2="212.9" y2="183.6" opacity="1.0" stroke="rgb(0,0,0)"  stroke-width="3"/>
<line x1="40.0" y1="147.4" x2="72.0" y2="170.6" opacity="1.0" stroke="rgb(0,0,0)"  stroke-width="3"/>
<line x1="49.1" y1="145.1" x2="71.4" y2="161.2" opacity="1.0" stroke="rgb(0,0,0)"  stroke-width="3"/>
<line x1="72.0" y1="170.6" x2="108.1" y2="154.5" opacity="1.0" stroke="rgb(0,0,0)"  stroke-width="3"/>
<line x1="108.1" y1="154.5" x2="112.2" y2="115.2" opacity="1.0" stroke="rgb(0,0,0)"  stroke-width="3"/>
<line x1="101.6" y1="147.8" x2="104.4" y2="120.4" opacity="1.0" stroke="rgb(0,0,0)"  stroke-width="3"/>
<line x1="112.2" y1="115.2" x2="80.3" y2="92.0" opacity="1.0" stroke="rgb(0,0,0)"  stroke-width="3"/>
<line x1="80.3" y1="92.0" x2="44.1" y2="108.0" opacity="1.0" stroke="rgb(0,0,0)"  stroke-width="3"/>
<line x1="77.7" y1="101.0" x2="52.5" y2="112.2" opacity="1.0" stroke="rgb(0,0,0)"  stroke-width="3"/>
<line x1="44.1" y1="108.0" x2="40.0" y2="147.4" opacity="1.0" stroke="rgb(0,0,0)"  stroke-width="3"/>
<line x1="364.8" y1="141.2" x2="326.1" y2="149.4" opacity="1.0" stroke="rgb(0,0,0)"  stroke-width="3"/>
<line x1="326.1" y1="149.4" x2="313.9" y2="187.0" opacity="1.0" stroke="rgb(0,0,0)"  stroke-width="3"/>
<line x1="331.1" y1="157.4" x2="322.6" y2="183.6" opacity="1.0" stroke="rgb(0,0,0)"  stroke-width="3"/>
<line x1="379.0" y1="208.2" x2="391.2" y2="170.6" opacity="1.0" stroke="rgb(0,0,0)"  stroke-width="3"/>
<line x1="398.8" y1="40.0" x2="372.3" y2="69.4" opacity="1.0" stroke="rgb(0,0,0)"  stroke-width="3"/>
<line x1="400.1" y1="49.3" x2="381.7" y2="69.7" opacity="1.0" stroke="rgb(0,0,0)"  stroke-width="3"/>
<line x1="372.3" y1="69.4" x2="384.5" y2="107.0" opacity="1.0" stroke="rgb(0,0,0)"  stroke-width="3"/>
<line x1="423.2" y1="115.2" x2="449.7" y2="85.8" opacity="1.0" stroke="rgb(0,0,0)"  stroke-width="3"/>
<line x1="449.7" y1="85.8" x2="437.4" y2="48.2" opacity="1.0" stroke="rgb(0,0,0)"  stroke-width="3"/>
<line x1="441.0" y1="82.3" x2="432.4" y2="56.2" opacity="1.0" stroke="rgb(0,0,0)"  stroke-width="3"/>
<line x1="437.4" y1="48.2" x2="398.8" y2="40.0" opacity="1.0" stroke="rgb(0,0,0)"  stroke-width="3"/>
<line x1="475.8" y1="202.9" x2="513.9" y2="213.2" opacity="1.0" stroke="rgb(0,0,0)"  stroke-width="3"/>
<line x1="513.9" y1="213.2" x2="541.9" y2="185.2" opacity="1.0" stroke="rgb(0,0,0)"  stroke-width="3"/>
<line x1="513.1" y1="203.8" x2="532.6" y2="184.4" opacity="1.0" stroke="rgb(0,0,0)"  stroke-width="3"/>
<line x1="541.9" y1="185.2" x2="531.7" y2="147.0" opacity="1.0" stroke="rgb(0,0,0)"  stroke-width="3"/>
<line x1="531.7" y1="147.0" x2="493.5" y2="136.8" opacity="1.0" stroke="rgb(0,0,0)"  stroke-width="3"/>
<line x1="524.0" y1="152.4" x2="497.4" y2="145.3" opacity="1.0" stroke="rgb(0,0,0)"  stroke-width="3"/>
<line x1="493.5" y1="136.8" x2="465.5" y2="164.8" opacity="1.0" stroke="rgb(0,0,0)"  stroke-width="3"/>
<line x1="465.5" y1="164.8" x2="475.8" y2="202.9" opacity="1.0" stroke="rgb(0,0,0)"  stroke-width="3"/>
<line x1="474.0" y1="168.7" x2="481.2" y2="195.3" opacity="1.0" stroke="rgb(0,0,0)"  stroke-width="3"/>
<line x1="254.4" y1="419.9" x2="293.3" y2="426.7" opacity="1.0" stroke="rgb(0,0,0)"  stroke-width="3"/>
<line x1="261.5" y1="413.8" x2="288.7" y2="418.6" opacity="1.0" stroke="rgb(0,0,0)"  stroke-width="3"/>
<line x1="293.3" y1="426.7" x2="318.7" y2="396.3" opacity="1.0" stroke="rgb(0,0,0)"  stroke-width="3"/>
<line x1="318.7" y1="396.3" x2="305.1" y2="359.2" opacity="1.0" stroke="rgb(0,0,0)"  stroke-width="3"/>
<line x1="309.9" y1="393.2" x2="300.4" y2="367.3" opacity="1.0" stroke="rgb(0,0,0)"  stroke-width="3"/>
<line x1="305.1" y1="359.2" x2="266.1" y2="352.4" opacity="1.0" stroke="rgb(0,0,0)"  stroke-width="3"/>
<line x1="266.1" y1="352.4" x2="240.8" y2="382.8" opacity="1.0" stroke="rgb(0,0,0)"  stroke-width="3"/>
<line x1="267.8" y1="361.6" x2="250.2" y2="382.8" opacity="1.0" stroke="rgb(0,0,0)"  stroke-width="3"/>
<line x1="240.8" y1="382.8" x2="254.4" y2="419.9" opacity="1.0" stroke="rgb(0,0,0)"  stroke-width="3"/>
<line x1="433.3" y1="378.0" x2="406.6" y2="350.0" opacity="1.0" stroke="rgb(0,0,0)"  stroke-width="3"/>
<line x1="424.0" y1="378.6" x2="405.5" y2="359.3" opacity="1.0" stroke="rgb(0,0,0)"  stroke-width="3"/>
<line x1="406.6" y1="350.0" x2="369.0" y2="359.2" opacity="1.0" stroke="rgb(0,0,0)"  stroke-width="3"/>
<line x1="369.0" y1="359.2" x2="358.2" y2="396.3" opacity="1.0" stroke="rgb(0,0,0)"  stroke-width="3"/>
<line x1="374.3" y1="367.0" x2="366.8" y2="392.6" opacity="1.0" stroke="rgb(0,0,0)"  stroke-width="3"/>
<line x1="358.2" y1="396.3" x2="384.9" y2="424.3" opacity="1.0" stroke="rgb(0,0,0)"  stroke-width="3"/>
<line x1="384.9" y1="424.3" x2="422.5" y2="415.1" opacity="1.0" stroke="rgb(0,0,0)"  stroke-width="3"/>
<line x1="389.1" y1="415.9" x2="415.0" y2="409.5" opacity="1.0" stroke="rgb(0,0,0)"  stroke-width="3"/>
<line x1="422.5" y1="415.1" x2="433.3" y2="378.0" opacity="1.0" stroke="rgb(0,0,0)"  stroke-width="3"/>
<line x1="112.2" y1="115.2" x2="150.9" y2="107.0" opacity="1.0" stroke="rgb(0,0,0)"  stroke-width="3"/>
<line x1="150.9" y1="107.0" x2="170.7" y2="141.2" opacity="1.0" stroke="rgb(0,0,0)"  stroke-width="3"/>
<line x1="144.2" y1="170.6" x2="108.1" y2="154.5" opacity="1.0" stroke="rgb(0,0,0)"  stroke-width="3"/>
<line x1="318.7" y1="396.3" x2="358.2" y2="396.3" opacity="1.0" stroke="rgb(0,0,0)"  stroke-width="3"/>
<line x1="369.0" y1="359.2" x2="336.2" y2="334.8" opacity="1.0" stroke="rgb(0,0,0)"  stroke-width="3"/>
<line x1="336.2" y1="334.8" x2="305.1" y2="359.2" opacity="1.0" stroke="rgb(0,0,0)"  stroke-width="3"/>
<line x1="302.0" y1="315.0" x2="336.2" y2="334.8" opacity="1.0" stroke="rgb(0,0,0)"  stroke-width="3"/>
<line x1="336.2" y1="334.8" x2="384.5" y2="309.4" opacity="1.0" stroke="rgb(0,0,0)"  stroke-width="3"/>
<text x="421.336792" y="162.520445" fill="rgb(12,12,255)" stroke-width="0" font-weight="bold" font-size="25.92" >N</text>
<text x="261.719726" y="224.205143" fill="rgb(255,181,181)" stroke-width="0" font-weight="bold" font-size="25.92" >B</text>
<text x="193.241932" y="263.740841" fill="rgb(12,12,255)" stroke-width="0" font-weight="bold" font-size="25.92" >N</text>
<text x="330.197616" y="263.740841" fill="rgb(12,12,255)" stroke-width="0" font-weight="bold" font-size="25.92" >N</text>
</svg>
</g>
</svg>
