<?xml version="1.0"?>
<svg version="1.1" id="topsvg"
xmlns="http://www.w3.org/2000/svg" xmlns:xlink="http://www.w3.org/1999/xlink"
xmlns:cml="http://www.xml-cml.org/schema" x="0" y="0" width="200px" height="200px" viewBox="0 0 100 100">
<title>GD292.sdf - Open Babel Depiction</title>
<rect x="0" y="0" width="100" height="100" fill="white"/>
<g transform="translate(0,0)">
<svg width="100" height="100" x="0" y="0" viewBox="0 0 534.952 485.705"
font-family="sans-serif" stroke="rgb(0,0,0)" stroke-width="3"  stroke-linecap="round">
<line x1="245.0" y1="158.4" x2="245.0" y2="118.9" opacity="1.0" stroke="rgb(0,0,0)"  stroke-width="3"/>
<line x1="142.5" y1="335.9" x2="108.3" y2="355.7" opacity="1.0" stroke="rgb(0,0,0)"  stroke-width="3"/>
<line x1="176.7" y1="276.7" x2="210.9" y2="217.6" opacity="1.0" stroke="rgb(0,0,0)"  stroke-width="3"/>
<line x1="210.9" y1="217.6" x2="245.0" y2="237.3" opacity="1.0" stroke="rgb(0,0,0)"  stroke-width="3"/>
<line x1="245.0" y1="237.3" x2="245.0" y2="263.7" opacity="1.0" stroke="rgb(0,0,0)"  stroke-width="3"/>
<line x1="233.8" y1="283.2" x2="210.9" y2="296.5" opacity="1.0" stroke="rgb(0,0,0)"  stroke-width="3"/>
<line x1="210.9" y1="296.5" x2="176.7" y2="276.7" opacity="1.0" stroke="rgb(0,0,0)"  stroke-width="3"/>
<line x1="209.3" y1="287.2" x2="185.5" y2="273.5" opacity="1.0" stroke="rgb(0,0,0)"  stroke-width="3"/>
<line x1="444.2" y1="263.5" x2="417.8" y2="292.8" opacity="1.0" stroke="rgb(0,0,0)"  stroke-width="3"/>
<line x1="434.8" y1="263.1" x2="416.4" y2="283.5" opacity="1.0" stroke="rgb(0,0,0)"  stroke-width="3"/>
<line x1="417.8" y1="292.8" x2="393.6" y2="282.0" opacity="1.0" stroke="rgb(0,0,0)"  stroke-width="3"/>
<line x1="383.1" y1="263.8" x2="385.8" y2="237.5" opacity="1.0" stroke="rgb(0,0,0)"  stroke-width="3"/>
<line x1="385.8" y1="237.5" x2="424.4" y2="229.3" opacity="1.0" stroke="rgb(0,0,0)"  stroke-width="3"/>
<line x1="393.2" y1="243.3" x2="420.1" y2="237.6" opacity="1.0" stroke="rgb(0,0,0)"  stroke-width="3"/>
<line x1="424.4" y1="229.3" x2="444.2" y2="263.5" opacity="1.0" stroke="rgb(0,0,0)"  stroke-width="3"/>
<line x1="378.3" y1="107.2" x2="414.3" y2="123.2" opacity="1.0" stroke="rgb(0,0,0)"  stroke-width="3"/>
<line x1="380.9" y1="116.2" x2="405.9" y2="127.3" opacity="1.0" stroke="rgb(0,0,0)"  stroke-width="3"/>
<line x1="414.3" y1="123.2" x2="410.2" y2="162.5" opacity="1.0" stroke="rgb(0,0,0)"  stroke-width="3"/>
<line x1="410.2" y1="162.5" x2="371.6" y2="170.7" opacity="1.0" stroke="rgb(0,0,0)"  stroke-width="3"/>
<line x1="371.6" y1="170.7" x2="358.4" y2="147.7" opacity="1.0" stroke="rgb(0,0,0)"  stroke-width="3"/>
<line x1="360.6" y1="126.8" x2="378.3" y2="107.2" opacity="1.0" stroke="rgb(0,0,0)"  stroke-width="3"/>
<line x1="279.2" y1="335.9" x2="313.4" y2="355.7" opacity="1.0" stroke="rgb(0,0,0)"  stroke-width="3"/>
<line x1="313.4" y1="355.7" x2="347.5" y2="335.9" opacity="1.0" stroke="rgb(0,0,0)"  stroke-width="3"/>
<line x1="315.0" y1="346.4" x2="338.7" y2="332.7" opacity="1.0" stroke="rgb(0,0,0)"  stroke-width="3"/>
<line x1="347.5" y1="335.9" x2="347.5" y2="296.5" opacity="1.0" stroke="rgb(0,0,0)"  stroke-width="3"/>
<line x1="347.5" y1="296.5" x2="313.4" y2="276.7" opacity="1.0" stroke="rgb(0,0,0)"  stroke-width="3"/>
<line x1="338.7" y1="299.7" x2="315.0" y2="286.0" opacity="1.0" stroke="rgb(0,0,0)"  stroke-width="3"/>
<line x1="313.4" y1="276.7" x2="279.2" y2="296.5" opacity="1.0" stroke="rgb(0,0,0)"  stroke-width="3"/>
<line x1="279.2" y1="296.5" x2="279.2" y2="335.9" opacity="1.0" stroke="rgb(0,0,0)"  stroke-width="3"/>
<line x1="286.4" y1="302.5" x2="286.4" y2="329.9" opacity="1.0" stroke="rgb(0,0,0)"  stroke-width="3"/>
<line x1="245.0" y1="237.3" x2="279.2" y2="217.6" opacity="1.0" stroke="rgb(0,0,0)"  stroke-width="3"/>
<line x1="253.8" y1="240.5" x2="277.6" y2="226.8" opacity="1.0" stroke="rgb(0,0,0)"  stroke-width="3"/>
<line x1="279.2" y1="217.6" x2="302.1" y2="230.8" opacity="1.0" stroke="rgb(0,0,0)"  stroke-width="3"/>
<line x1="313.4" y1="250.3" x2="313.4" y2="276.7" opacity="1.0" stroke="rgb(0,0,0)"  stroke-width="3"/>
<line x1="279.2" y1="296.5" x2="256.3" y2="283.2" opacity="1.0" stroke="rgb(0,0,0)"  stroke-width="3"/>
<line x1="210.9" y1="178.1" x2="245.0" y2="158.4" opacity="1.0" stroke="rgb(0,0,0)"  stroke-width="3"/>
<line x1="245.0" y1="158.4" x2="279.2" y2="178.1" opacity="1.0" stroke="rgb(0,0,0)"  stroke-width="3"/>
<line x1="246.6" y1="167.6" x2="270.4" y2="181.3" opacity="1.0" stroke="rgb(0,0,0)"  stroke-width="3"/>
<line x1="279.2" y1="178.1" x2="279.2" y2="217.6" opacity="1.0" stroke="rgb(0,0,0)"  stroke-width="3"/>
<line x1="210.9" y1="217.6" x2="210.9" y2="178.1" opacity="1.0" stroke="rgb(0,0,0)"  stroke-width="3"/>
<line x1="218.1" y1="211.6" x2="218.1" y2="184.1" opacity="1.0" stroke="rgb(0,0,0)"  stroke-width="3"/>
<line x1="142.5" y1="335.9" x2="176.7" y2="355.7" opacity="1.0" stroke="rgb(0,0,0)"  stroke-width="3"/>
<line x1="176.7" y1="355.7" x2="210.9" y2="335.9" opacity="1.0" stroke="rgb(0,0,0)"  stroke-width="3"/>
<line x1="178.3" y1="346.4" x2="202.1" y2="332.7" opacity="1.0" stroke="rgb(0,0,0)"  stroke-width="3"/>
<line x1="210.9" y1="335.9" x2="210.9" y2="296.5" opacity="1.0" stroke="rgb(0,0,0)"  stroke-width="3"/>
<line x1="176.7" y1="276.7" x2="142.5" y2="296.5" opacity="1.0" stroke="rgb(0,0,0)"  stroke-width="3"/>
<line x1="142.5" y1="296.5" x2="142.5" y2="335.9" opacity="1.0" stroke="rgb(0,0,0)"  stroke-width="3"/>
<line x1="149.7" y1="302.5" x2="149.7" y2="329.9" opacity="1.0" stroke="rgb(0,0,0)"  stroke-width="3"/>
<line x1="370.5" y1="283.2" x2="347.5" y2="296.5" opacity="1.0" stroke="rgb(0,0,0)"  stroke-width="3"/>
<line x1="324.4" y1="230.3" x2="359.4" y2="208.2" opacity="1.0" stroke="rgb(0,0,0)"  stroke-width="3"/>
<line x1="359.4" y1="208.2" x2="385.8" y2="237.5" opacity="1.0" stroke="rgb(0,0,0)"  stroke-width="3"/>
<line x1="495.0" y1="309.2" x2="468.5" y2="338.5" opacity="1.0" stroke="rgb(0,0,0)"  stroke-width="3"/>
<line x1="468.5" y1="338.5" x2="430.0" y2="330.3" opacity="1.0" stroke="rgb(0,0,0)"  stroke-width="3"/>
<line x1="464.2" y1="330.2" x2="437.3" y2="324.5" opacity="1.0" stroke="rgb(0,0,0)"  stroke-width="3"/>
<line x1="430.0" y1="330.3" x2="417.8" y2="292.8" opacity="1.0" stroke="rgb(0,0,0)"  stroke-width="3"/>
<line x1="444.2" y1="263.5" x2="482.8" y2="271.7" opacity="1.0" stroke="rgb(0,0,0)"  stroke-width="3"/>
<line x1="482.8" y1="271.7" x2="495.0" y2="309.2" opacity="1.0" stroke="rgb(0,0,0)"  stroke-width="3"/>
<line x1="477.8" y1="279.6" x2="486.3" y2="305.7" opacity="1.0" stroke="rgb(0,0,0)"  stroke-width="3"/>
<line x1="371.6" y1="170.7" x2="359.4" y2="208.2" opacity="1.0" stroke="rgb(0,0,0)"  stroke-width="3"/>
<line x1="376.6" y1="178.6" x2="368.1" y2="204.7" opacity="1.0" stroke="rgb(0,0,0)"  stroke-width="3"/>
<line x1="424.4" y1="229.3" x2="436.6" y2="191.8" opacity="1.0" stroke="rgb(0,0,0)"  stroke-width="3"/>
<line x1="436.6" y1="191.8" x2="410.2" y2="162.5" opacity="1.0" stroke="rgb(0,0,0)"  stroke-width="3"/>
<line x1="427.3" y1="192.1" x2="408.9" y2="171.7" opacity="1.0" stroke="rgb(0,0,0)"  stroke-width="3"/>
<line x1="406.1" y1="44.7" x2="442.1" y2="60.8" opacity="1.0" stroke="rgb(0,0,0)"  stroke-width="3"/>
<line x1="442.1" y1="60.8" x2="446.3" y2="100.0" opacity="1.0" stroke="rgb(0,0,0)"  stroke-width="3"/>
<line x1="435.6" y1="67.5" x2="438.5" y2="94.8" opacity="1.0" stroke="rgb(0,0,0)"  stroke-width="3"/>
<line x1="446.3" y1="100.0" x2="414.3" y2="123.2" opacity="1.0" stroke="rgb(0,0,0)"  stroke-width="3"/>
<line x1="378.3" y1="107.2" x2="374.2" y2="67.9" opacity="1.0" stroke="rgb(0,0,0)"  stroke-width="3"/>
<line x1="374.2" y1="67.9" x2="406.1" y2="44.7" opacity="1.0" stroke="rgb(0,0,0)"  stroke-width="3"/>
<line x1="383.3" y1="70.2" x2="405.5" y2="54.1" opacity="1.0" stroke="rgb(0,0,0)"  stroke-width="3"/>
<line x1="341.9" y1="400.0" x2="315.5" y2="370.7" opacity="1.0" stroke="rgb(0,0,0)"  stroke-width="3"/>
<line x1="332.6" y1="400.3" x2="314.2" y2="379.9" opacity="1.0" stroke="rgb(0,0,0)"  stroke-width="3"/>
<line x1="315.5" y1="370.7" x2="277.0" y2="378.9" opacity="1.0" stroke="rgb(0,0,0)"  stroke-width="3"/>
<line x1="277.0" y1="378.9" x2="264.8" y2="416.4" opacity="1.0" stroke="rgb(0,0,0)"  stroke-width="3"/>
<line x1="281.9" y1="386.8" x2="273.5" y2="412.9" opacity="1.0" stroke="rgb(0,0,0)"  stroke-width="3"/>
<line x1="264.8" y1="416.4" x2="291.2" y2="445.7" opacity="1.0" stroke="rgb(0,0,0)"  stroke-width="3"/>
<line x1="291.2" y1="445.7" x2="329.8" y2="437.5" opacity="1.0" stroke="rgb(0,0,0)"  stroke-width="3"/>
<line x1="295.5" y1="437.4" x2="322.4" y2="431.7" opacity="1.0" stroke="rgb(0,0,0)"  stroke-width="3"/>
<line x1="329.8" y1="437.5" x2="341.9" y2="400.0" opacity="1.0" stroke="rgb(0,0,0)"  stroke-width="3"/>
<line x1="160.3" y1="437.5" x2="198.9" y2="445.7" opacity="1.0" stroke="rgb(0,0,0)"  stroke-width="3"/>
<line x1="167.7" y1="431.7" x2="194.5" y2="437.4" opacity="1.0" stroke="rgb(0,0,0)"  stroke-width="3"/>
<line x1="198.9" y1="445.7" x2="225.3" y2="416.4" opacity="1.0" stroke="rgb(0,0,0)"  stroke-width="3"/>
<line x1="225.3" y1="416.4" x2="213.1" y2="378.9" opacity="1.0" stroke="rgb(0,0,0)"  stroke-width="3"/>
<line x1="216.6" y1="412.9" x2="208.1" y2="386.8" opacity="1.0" stroke="rgb(0,0,0)"  stroke-width="3"/>
<line x1="213.1" y1="378.9" x2="174.5" y2="370.7" opacity="1.0" stroke="rgb(0,0,0)"  stroke-width="3"/>
<line x1="174.5" y1="370.7" x2="148.1" y2="400.0" opacity="1.0" stroke="rgb(0,0,0)"  stroke-width="3"/>
<line x1="175.8" y1="379.9" x2="157.5" y2="400.3" opacity="1.0" stroke="rgb(0,0,0)"  stroke-width="3"/>
<line x1="148.1" y1="400.0" x2="160.3" y2="437.5" opacity="1.0" stroke="rgb(0,0,0)"  stroke-width="3"/>
<line x1="279.2" y1="99.2" x2="279.2" y2="59.7" opacity="1.0" stroke="rgb(0,0,0)"  stroke-width="3"/>
<line x1="279.2" y1="59.7" x2="245.0" y2="40.0" opacity="1.0" stroke="rgb(0,0,0)"  stroke-width="3"/>
<line x1="270.4" y1="63.0" x2="246.6" y2="49.2" opacity="1.0" stroke="rgb(0,0,0)"  stroke-width="3"/>
<line x1="245.0" y1="40.0" x2="210.9" y2="59.7" opacity="1.0" stroke="rgb(0,0,0)"  stroke-width="3"/>
<line x1="210.9" y1="59.7" x2="210.9" y2="99.2" opacity="1.0" stroke="rgb(0,0,0)"  stroke-width="3"/>
<line x1="218.1" y1="65.7" x2="218.1" y2="93.2" opacity="1.0" stroke="rgb(0,0,0)"  stroke-width="3"/>
<line x1="210.9" y1="99.2" x2="245.0" y2="118.9" opacity="1.0" stroke="rgb(0,0,0)"  stroke-width="3"/>
<line x1="245.0" y1="118.9" x2="279.2" y2="99.2" opacity="1.0" stroke="rgb(0,0,0)"  stroke-width="3"/>
<line x1="246.6" y1="109.7" x2="270.4" y2="96.0" opacity="1.0" stroke="rgb(0,0,0)"  stroke-width="3"/>
<line x1="74.2" y1="335.9" x2="40.0" y2="355.7" opacity="1.0" stroke="rgb(0,0,0)"  stroke-width="3"/>
<line x1="40.0" y1="355.7" x2="40.0" y2="395.1" opacity="1.0" stroke="rgb(0,0,0)"  stroke-width="3"/>
<line x1="47.2" y1="361.7" x2="47.2" y2="389.1" opacity="1.0" stroke="rgb(0,0,0)"  stroke-width="3"/>
<line x1="40.0" y1="395.1" x2="74.2" y2="414.8" opacity="1.0" stroke="rgb(0,0,0)"  stroke-width="3"/>
<line x1="74.2" y1="414.8" x2="108.3" y2="395.1" opacity="1.0" stroke="rgb(0,0,0)"  stroke-width="3"/>
<line x1="75.8" y1="405.6" x2="99.5" y2="391.9" opacity="1.0" stroke="rgb(0,0,0)"  stroke-width="3"/>
<line x1="108.3" y1="395.1" x2="108.3" y2="355.7" opacity="1.0" stroke="rgb(0,0,0)"  stroke-width="3"/>
<line x1="108.3" y1="355.7" x2="74.2" y2="335.9" opacity="1.0" stroke="rgb(0,0,0)"  stroke-width="3"/>
<line x1="99.5" y1="358.9" x2="75.8" y2="345.2" opacity="1.0" stroke="rgb(0,0,0)"  stroke-width="3"/>
<line x1="225.3" y1="416.4" x2="264.8" y2="416.4" opacity="1.0" stroke="rgb(0,0,0)"  stroke-width="3"/>
<line x1="277.0" y1="378.9" x2="245.0" y2="355.7" opacity="1.0" stroke="rgb(0,0,0)"  stroke-width="3"/>
<line x1="245.0" y1="355.7" x2="213.1" y2="378.9" opacity="1.0" stroke="rgb(0,0,0)"  stroke-width="3"/>
<line x1="210.9" y1="335.9" x2="245.0" y2="355.7" opacity="1.0" stroke="rgb(0,0,0)"  stroke-width="3"/>
<line x1="245.0" y1="355.7" x2="279.2" y2="335.9" opacity="1.0" stroke="rgb(0,0,0)"  stroke-width="3"/>
<text x="307.371758" y="245.289027" fill="rgb(255,181,181)" stroke-width="0" font-weight="bold" font-size="25.92" >B</text>
<text x="345.900942" y="144.484234" fill="rgb(255,12,12)" stroke-width="0" font-weight="bold" font-size="25.92" >O</text>
<text x="239.028831" y="284.746832" fill="rgb(12,12,255)" stroke-width="0" font-weight="bold" font-size="25.92" >N</text>
<text x="375.714638" y="284.746832" fill="rgb(12,12,255)" stroke-width="0" font-weight="bold" font-size="25.92" >N</text>
</svg>
</g>
</svg>
