<?xml version="1.0"?>
<svg version="1.1" id="topsvg"
xmlns="http://www.w3.org/2000/svg" xmlns:xlink="http://www.w3.org/1999/xlink"
xmlns:cml="http://www.xml-cml.org/schema" x="0" y="0" width="200px" height="200px" viewBox="0 0 100 100">
<title>GD295.sdf - Open Babel Depiction</title>
<rect x="0" y="0" width="100" height="100" fill="white"/>
<g transform="translate(0,0)">
<svg width="100" height="100" x="0" y="0" viewBox="0 0 713.589 471.718"
font-family="sans-serif" stroke="rgb(0,0,0)" stroke-width="3"  stroke-linecap="round">
<line x1="214.2" y1="368.8" x2="233.2" y2="403.4" opacity="1.0" stroke="rgb(0,0,0)"  stroke-width="3"/>
<line x1="214.2" y1="368.8" x2="179.6" y2="387.8" opacity="1.0" stroke="rgb(0,0,0)"  stroke-width="3"/>
<line x1="214.2" y1="368.8" x2="195.2" y2="334.3" opacity="1.0" stroke="rgb(0,0,0)"  stroke-width="3"/>
<line x1="248.9" y1="349.8" x2="214.2" y2="368.8" opacity="1.0" stroke="rgb(0,0,0)"  stroke-width="3"/>
<line x1="488.9" y1="373.9" x2="508.6" y2="339.7" opacity="1.0" stroke="rgb(0,0,0)"  stroke-width="3"/>
<line x1="488.9" y1="373.9" x2="523.0" y2="393.6" opacity="1.0" stroke="rgb(0,0,0)"  stroke-width="3"/>
<line x1="488.9" y1="373.9" x2="469.1" y2="408.1" opacity="1.0" stroke="rgb(0,0,0)"  stroke-width="3"/>
<line x1="454.6" y1="354.1" x2="488.9" y2="373.9" opacity="1.0" stroke="rgb(0,0,0)"  stroke-width="3"/>
<line x1="317.5" y1="390.8" x2="356.9" y2="390.8" opacity="1.0" stroke="rgb(0,0,0)"  stroke-width="3"/>
<line x1="317.5" y1="390.8" x2="317.5" y2="430.3" opacity="1.0" stroke="rgb(0,0,0)"  stroke-width="3"/>
<line x1="317.5" y1="390.8" x2="278.0" y2="390.8" opacity="1.0" stroke="rgb(0,0,0)"  stroke-width="3"/>
<line x1="317.5" y1="351.2" x2="317.5" y2="390.8" opacity="1.0" stroke="rgb(0,0,0)"  stroke-width="3"/>
<line x1="386.0" y1="392.3" x2="425.5" y2="392.3" opacity="1.0" stroke="rgb(0,0,0)"  stroke-width="3"/>
<line x1="386.0" y1="392.3" x2="386.0" y2="431.7" opacity="1.0" stroke="rgb(0,0,0)"  stroke-width="3"/>
<line x1="386.0" y1="392.3" x2="346.6" y2="392.3" opacity="1.0" stroke="rgb(0,0,0)"  stroke-width="3"/>
<line x1="386.0" y1="352.7" x2="386.0" y2="392.3" opacity="1.0" stroke="rgb(0,0,0)"  stroke-width="3"/>
<line x1="285.0" y1="264.5" x2="284.4" y2="291.1" opacity="1.0" stroke="rgb(0,0,0)"  stroke-width="3"/>
<line x1="422.1" y1="267.4" x2="421.6" y2="294.0" opacity="1.0" stroke="rgb(0,0,0)"  stroke-width="3"/>
<line x1="200.7" y1="70.0" x2="187.7" y2="107.4" opacity="1.0" stroke="rgb(0,0,0)"  stroke-width="3"/>
<line x1="205.5" y1="78.0" x2="196.5" y2="104.1" opacity="1.0" stroke="rgb(0,0,0)"  stroke-width="3"/>
<line x1="187.7" y1="107.4" x2="208.9" y2="123.5" opacity="1.0" stroke="rgb(0,0,0)"  stroke-width="3"/>
<line x1="229.9" y1="123.9" x2="251.7" y2="108.7" opacity="1.0" stroke="rgb(0,0,0)"  stroke-width="3"/>
<line x1="251.7" y1="108.7" x2="240.3" y2="70.8" opacity="1.0" stroke="rgb(0,0,0)"  stroke-width="3"/>
<line x1="243.1" y1="105.1" x2="235.1" y2="78.6" opacity="1.0" stroke="rgb(0,0,0)"  stroke-width="3"/>
<line x1="240.3" y1="70.8" x2="200.7" y2="70.0" opacity="1.0" stroke="rgb(0,0,0)"  stroke-width="3"/>
<line x1="514.6" y1="76.6" x2="475.0" y2="75.8" opacity="1.0" stroke="rgb(0,0,0)"  stroke-width="3"/>
<line x1="475.0" y1="75.8" x2="461.9" y2="113.2" opacity="1.0" stroke="rgb(0,0,0)"  stroke-width="3"/>
<line x1="479.8" y1="83.8" x2="470.7" y2="109.9" opacity="1.0" stroke="rgb(0,0,0)"  stroke-width="3"/>
<line x1="461.9" y1="113.2" x2="483.1" y2="129.3" opacity="1.0" stroke="rgb(0,0,0)"  stroke-width="3"/>
<line x1="504.2" y1="129.7" x2="526.0" y2="114.5" opacity="1.0" stroke="rgb(0,0,0)"  stroke-width="3"/>
<line x1="526.0" y1="114.5" x2="514.6" y2="76.6" opacity="1.0" stroke="rgb(0,0,0)"  stroke-width="3"/>
<line x1="517.4" y1="110.9" x2="509.4" y2="84.4" opacity="1.0" stroke="rgb(0,0,0)"  stroke-width="3"/>
<line x1="320.0" y1="232.5" x2="353.8" y2="253.0" opacity="1.0" stroke="rgb(0,0,0)"  stroke-width="3"/>
<line x1="353.8" y1="253.0" x2="388.5" y2="233.9" opacity="1.0" stroke="rgb(0,0,0)"  stroke-width="3"/>
<line x1="355.6" y1="243.8" x2="379.8" y2="230.5" opacity="1.0" stroke="rgb(0,0,0)"  stroke-width="3"/>
<line x1="388.5" y1="233.9" x2="389.4" y2="194.3" opacity="1.0" stroke="rgb(0,0,0)"  stroke-width="3"/>
<line x1="389.4" y1="194.3" x2="355.5" y2="173.8" opacity="1.0" stroke="rgb(0,0,0)"  stroke-width="3"/>
<line x1="380.5" y1="197.4" x2="356.9" y2="183.1" opacity="1.0" stroke="rgb(0,0,0)"  stroke-width="3"/>
<line x1="355.5" y1="173.8" x2="320.8" y2="192.9" opacity="1.0" stroke="rgb(0,0,0)"  stroke-width="3"/>
<line x1="320.8" y1="192.9" x2="320.0" y2="232.5" opacity="1.0" stroke="rgb(0,0,0)"  stroke-width="3"/>
<line x1="327.9" y1="199.0" x2="327.3" y2="226.6" opacity="1.0" stroke="rgb(0,0,0)"  stroke-width="3"/>
<line x1="457.9" y1="195.8" x2="435.2" y2="182.0" opacity="1.0" stroke="rgb(0,0,0)"  stroke-width="3"/>
<line x1="412.7" y1="181.5" x2="389.4" y2="194.3" opacity="1.0" stroke="rgb(0,0,0)"  stroke-width="3"/>
<line x1="388.5" y1="233.9" x2="411.3" y2="247.7" opacity="1.0" stroke="rgb(0,0,0)"  stroke-width="3"/>
<line x1="433.8" y1="248.2" x2="457.1" y2="235.4" opacity="1.0" stroke="rgb(0,0,0)"  stroke-width="3"/>
<line x1="457.1" y1="235.4" x2="457.9" y2="195.8" opacity="1.0" stroke="rgb(0,0,0)"  stroke-width="3"/>
<line x1="275.5" y1="178.6" x2="252.2" y2="191.4" opacity="1.0" stroke="rgb(0,0,0)"  stroke-width="3"/>
<line x1="252.2" y1="191.4" x2="251.4" y2="231.0" opacity="1.0" stroke="rgb(0,0,0)"  stroke-width="3"/>
<line x1="259.3" y1="197.6" x2="258.7" y2="225.2" opacity="1.0" stroke="rgb(0,0,0)"  stroke-width="3"/>
<line x1="251.4" y1="231.0" x2="274.1" y2="244.8" opacity="1.0" stroke="rgb(0,0,0)"  stroke-width="3"/>
<line x1="296.7" y1="245.3" x2="320.0" y2="232.5" opacity="1.0" stroke="rgb(0,0,0)"  stroke-width="3"/>
<line x1="320.8" y1="192.9" x2="298.1" y2="179.1" opacity="1.0" stroke="rgb(0,0,0)"  stroke-width="3"/>
<line x1="182.8" y1="229.6" x2="216.7" y2="250.1" opacity="1.0" stroke="rgb(0,0,0)"  stroke-width="3"/>
<line x1="191.7" y1="226.5" x2="215.3" y2="240.8" opacity="1.0" stroke="rgb(0,0,0)"  stroke-width="3"/>
<line x1="216.7" y1="250.1" x2="251.4" y2="231.0" opacity="1.0" stroke="rgb(0,0,0)"  stroke-width="3"/>
<line x1="252.2" y1="191.4" x2="218.4" y2="170.9" opacity="1.0" stroke="rgb(0,0,0)"  stroke-width="3"/>
<line x1="218.4" y1="170.9" x2="183.7" y2="190.0" opacity="1.0" stroke="rgb(0,0,0)"  stroke-width="3"/>
<line x1="216.6" y1="180.1" x2="192.4" y2="193.4" opacity="1.0" stroke="rgb(0,0,0)"  stroke-width="3"/>
<line x1="183.7" y1="190.0" x2="182.8" y2="229.6" opacity="1.0" stroke="rgb(0,0,0)"  stroke-width="3"/>
<line x1="218.9" y1="144.3" x2="218.4" y2="170.9" opacity="1.0" stroke="rgb(0,0,0)"  stroke-width="3"/>
<line x1="287.7" y1="159.4" x2="290.3" y2="117.8" opacity="1.0" stroke="rgb(0,0,0)"  stroke-width="3"/>
<line x1="290.3" y1="117.8" x2="251.7" y2="108.7" opacity="1.0" stroke="rgb(0,0,0)"  stroke-width="3"/>
<line x1="461.9" y1="113.2" x2="423.0" y2="120.6" opacity="1.0" stroke="rgb(0,0,0)"  stroke-width="3"/>
<line x1="423.0" y1="120.6" x2="423.8" y2="162.3" opacity="1.0" stroke="rgb(0,0,0)"  stroke-width="3"/>
<line x1="457.9" y1="195.8" x2="492.6" y2="176.7" opacity="1.0" stroke="rgb(0,0,0)"  stroke-width="3"/>
<line x1="459.7" y1="186.6" x2="483.9" y2="173.3" opacity="1.0" stroke="rgb(0,0,0)"  stroke-width="3"/>
<line x1="492.6" y1="176.7" x2="493.2" y2="150.1" opacity="1.0" stroke="rgb(0,0,0)"  stroke-width="3"/>
<line x1="580.2" y1="56.8" x2="541.7" y2="47.8" opacity="1.0" stroke="rgb(0,0,0)"  stroke-width="3"/>
<line x1="572.7" y1="62.4" x2="545.9" y2="56.1" opacity="1.0" stroke="rgb(0,0,0)"  stroke-width="3"/>
<line x1="541.7" y1="47.8" x2="514.6" y2="76.6" opacity="1.0" stroke="rgb(0,0,0)"  stroke-width="3"/>
<line x1="526.0" y1="114.5" x2="564.5" y2="123.6" opacity="1.0" stroke="rgb(0,0,0)"  stroke-width="3"/>
<line x1="564.5" y1="123.6" x2="591.7" y2="94.7" opacity="1.0" stroke="rgb(0,0,0)"  stroke-width="3"/>
<line x1="563.4" y1="114.3" x2="582.3" y2="94.2" opacity="1.0" stroke="rgb(0,0,0)"  stroke-width="3"/>
<line x1="591.7" y1="94.7" x2="580.2" y2="56.8" opacity="1.0" stroke="rgb(0,0,0)"  stroke-width="3"/>
<line x1="492.6" y1="176.7" x2="526.5" y2="197.2" opacity="1.0" stroke="rgb(0,0,0)"  stroke-width="3"/>
<line x1="526.5" y1="197.2" x2="525.7" y2="236.8" opacity="1.0" stroke="rgb(0,0,0)"  stroke-width="3"/>
<line x1="519.2" y1="203.1" x2="518.6" y2="230.7" opacity="1.0" stroke="rgb(0,0,0)"  stroke-width="3"/>
<line x1="525.7" y1="236.8" x2="491.0" y2="255.9" opacity="1.0" stroke="rgb(0,0,0)"  stroke-width="3"/>
<line x1="491.0" y1="255.9" x2="457.1" y2="235.4" opacity="1.0" stroke="rgb(0,0,0)"  stroke-width="3"/>
<line x1="489.6" y1="246.6" x2="466.0" y2="232.3" opacity="1.0" stroke="rgb(0,0,0)"  stroke-width="3"/>
<line x1="410.2" y1="53.2" x2="397.2" y2="90.6" opacity="1.0" stroke="rgb(0,0,0)"  stroke-width="3"/>
<line x1="397.2" y1="90.6" x2="423.0" y2="120.6" opacity="1.0" stroke="rgb(0,0,0)"  stroke-width="3"/>
<line x1="406.6" y1="90.4" x2="424.6" y2="111.3" opacity="1.0" stroke="rgb(0,0,0)"  stroke-width="3"/>
<line x1="475.0" y1="75.8" x2="449.1" y2="45.8" opacity="1.0" stroke="rgb(0,0,0)"  stroke-width="3"/>
<line x1="449.1" y1="45.8" x2="410.2" y2="53.2" opacity="1.0" stroke="rgb(0,0,0)"  stroke-width="3"/>
<line x1="444.6" y1="54.0" x2="417.5" y2="59.2" opacity="1.0" stroke="rgb(0,0,0)"  stroke-width="3"/>
<line x1="135.9" y1="47.4" x2="122.9" y2="84.8" opacity="1.0" stroke="rgb(0,0,0)"  stroke-width="3"/>
<line x1="122.9" y1="84.8" x2="148.8" y2="114.8" opacity="1.0" stroke="rgb(0,0,0)"  stroke-width="3"/>
<line x1="132.3" y1="84.6" x2="150.3" y2="105.5" opacity="1.0" stroke="rgb(0,0,0)"  stroke-width="3"/>
<line x1="148.8" y1="114.8" x2="187.7" y2="107.4" opacity="1.0" stroke="rgb(0,0,0)"  stroke-width="3"/>
<line x1="200.7" y1="70.0" x2="174.8" y2="40.0" opacity="1.0" stroke="rgb(0,0,0)"  stroke-width="3"/>
<line x1="174.8" y1="40.0" x2="135.9" y2="47.4" opacity="1.0" stroke="rgb(0,0,0)"  stroke-width="3"/>
<line x1="170.3" y1="48.2" x2="143.2" y2="53.4" opacity="1.0" stroke="rgb(0,0,0)"  stroke-width="3"/>
<line x1="249.7" y1="310.2" x2="248.9" y2="349.8" opacity="1.0" stroke="rgb(0,0,0)"  stroke-width="3"/>
<line x1="248.9" y1="349.8" x2="282.8" y2="370.3" opacity="1.0" stroke="rgb(0,0,0)"  stroke-width="3"/>
<line x1="257.8" y1="346.7" x2="281.4" y2="361.0" opacity="1.0" stroke="rgb(0,0,0)"  stroke-width="3"/>
<line x1="282.8" y1="370.3" x2="317.5" y2="351.2" opacity="1.0" stroke="rgb(0,0,0)"  stroke-width="3"/>
<line x1="317.5" y1="351.2" x2="318.3" y2="311.6" opacity="1.0" stroke="rgb(0,0,0)"  stroke-width="3"/>
<line x1="310.4" y1="345.1" x2="311.0" y2="317.5" opacity="1.0" stroke="rgb(0,0,0)"  stroke-width="3"/>
<line x1="318.3" y1="311.6" x2="284.4" y2="291.1" opacity="1.0" stroke="rgb(0,0,0)"  stroke-width="3"/>
<line x1="284.4" y1="291.1" x2="249.7" y2="310.2" opacity="1.0" stroke="rgb(0,0,0)"  stroke-width="3"/>
<line x1="282.6" y1="300.3" x2="258.5" y2="313.6" opacity="1.0" stroke="rgb(0,0,0)"  stroke-width="3"/>
<line x1="386.9" y1="313.1" x2="386.0" y2="352.7" opacity="1.0" stroke="rgb(0,0,0)"  stroke-width="3"/>
<line x1="386.0" y1="352.7" x2="419.9" y2="373.2" opacity="1.0" stroke="rgb(0,0,0)"  stroke-width="3"/>
<line x1="394.9" y1="349.6" x2="418.5" y2="363.9" opacity="1.0" stroke="rgb(0,0,0)"  stroke-width="3"/>
<line x1="419.9" y1="373.2" x2="454.6" y2="354.1" opacity="1.0" stroke="rgb(0,0,0)"  stroke-width="3"/>
<line x1="454.6" y1="354.1" x2="455.4" y2="314.5" opacity="1.0" stroke="rgb(0,0,0)"  stroke-width="3"/>
<line x1="447.5" y1="348.0" x2="448.1" y2="320.4" opacity="1.0" stroke="rgb(0,0,0)"  stroke-width="3"/>
<line x1="455.4" y1="314.5" x2="421.6" y2="294.0" opacity="1.0" stroke="rgb(0,0,0)"  stroke-width="3"/>
<line x1="421.6" y1="294.0" x2="386.9" y2="313.1" opacity="1.0" stroke="rgb(0,0,0)"  stroke-width="3"/>
<line x1="419.8" y1="303.2" x2="395.6" y2="316.5" opacity="1.0" stroke="rgb(0,0,0)"  stroke-width="3"/>
<line x1="240.3" y1="70.8" x2="267.4" y2="42.0" opacity="1.0" stroke="rgb(0,0,0)"  stroke-width="3"/>
<line x1="267.4" y1="42.0" x2="306.0" y2="51.0" opacity="1.0" stroke="rgb(0,0,0)"  stroke-width="3"/>
<line x1="271.6" y1="50.3" x2="298.5" y2="56.6" opacity="1.0" stroke="rgb(0,0,0)"  stroke-width="3"/>
<line x1="306.0" y1="51.0" x2="317.4" y2="88.9" opacity="1.0" stroke="rgb(0,0,0)"  stroke-width="3"/>
<line x1="317.4" y1="88.9" x2="290.3" y2="117.8" opacity="1.0" stroke="rgb(0,0,0)"  stroke-width="3"/>
<line x1="308.0" y1="88.4" x2="289.1" y2="108.5" opacity="1.0" stroke="rgb(0,0,0)"  stroke-width="3"/>
<line x1="143.0" y1="261.2" x2="160.4" y2="225.6" opacity="1.0" stroke="rgb(0,0,0)"  stroke-width="3"/>
<line x1="139.2" y1="252.6" x2="151.3" y2="227.9" opacity="1.0" stroke="rgb(0,0,0)"  stroke-width="3"/>
<line x1="160.4" y1="225.6" x2="138.3" y2="192.8" opacity="1.0" stroke="rgb(0,0,0)"  stroke-width="3"/>
<line x1="138.3" y1="192.8" x2="98.8" y2="195.5" opacity="1.0" stroke="rgb(0,0,0)"  stroke-width="3"/>
<line x1="132.8" y1="200.4" x2="105.3" y2="202.3" opacity="1.0" stroke="rgb(0,0,0)"  stroke-width="3"/>
<line x1="98.8" y1="195.5" x2="81.4" y2="231.1" opacity="1.0" stroke="rgb(0,0,0)"  stroke-width="3"/>
<line x1="81.4" y1="231.1" x2="103.5" y2="263.9" opacity="1.0" stroke="rgb(0,0,0)"  stroke-width="3"/>
<line x1="90.8" y1="232.0" x2="106.2" y2="254.9" opacity="1.0" stroke="rgb(0,0,0)"  stroke-width="3"/>
<line x1="103.5" y1="263.9" x2="143.0" y2="261.2" opacity="1.0" stroke="rgb(0,0,0)"  stroke-width="3"/>
<line x1="40.0" y1="106.2" x2="46.8" y2="145.2" opacity="1.0" stroke="rgb(0,0,0)"  stroke-width="3"/>
<line x1="48.1" y1="110.9" x2="52.9" y2="138.0" opacity="1.0" stroke="rgb(0,0,0)"  stroke-width="3"/>
<line x1="46.8" y1="145.2" x2="84.0" y2="158.8" opacity="1.0" stroke="rgb(0,0,0)"  stroke-width="3"/>
<line x1="84.0" y1="158.8" x2="114.4" y2="133.4" opacity="1.0" stroke="rgb(0,0,0)"  stroke-width="3"/>
<line x1="84.0" y1="149.4" x2="105.2" y2="131.7" opacity="1.0" stroke="rgb(0,0,0)"  stroke-width="3"/>
<line x1="114.4" y1="133.4" x2="107.6" y2="94.4" opacity="1.0" stroke="rgb(0,0,0)"  stroke-width="3"/>
<line x1="107.6" y1="94.4" x2="70.4" y2="80.8" opacity="1.0" stroke="rgb(0,0,0)"  stroke-width="3"/>
<line x1="99.4" y1="99.1" x2="73.5" y2="89.6" opacity="1.0" stroke="rgb(0,0,0)"  stroke-width="3"/>
<line x1="70.4" y1="80.8" x2="40.0" y2="106.2" opacity="1.0" stroke="rgb(0,0,0)"  stroke-width="3"/>
<line x1="603.4" y1="274.5" x2="626.9" y2="242.6" opacity="1.0" stroke="rgb(0,0,0)"  stroke-width="3"/>
<line x1="601.2" y1="265.4" x2="617.6" y2="243.2" opacity="1.0" stroke="rgb(0,0,0)"  stroke-width="3"/>
<line x1="626.9" y1="242.6" x2="611.0" y2="206.3" opacity="1.0" stroke="rgb(0,0,0)"  stroke-width="3"/>
<line x1="611.0" y1="206.3" x2="571.7" y2="201.9" opacity="1.0" stroke="rgb(0,0,0)"  stroke-width="3"/>
<line x1="604.3" y1="212.8" x2="576.8" y2="209.8" opacity="1.0" stroke="rgb(0,0,0)"  stroke-width="3"/>
<line x1="571.7" y1="201.9" x2="548.2" y2="233.8" opacity="1.0" stroke="rgb(0,0,0)"  stroke-width="3"/>
<line x1="548.2" y1="233.8" x2="564.1" y2="270.1" opacity="1.0" stroke="rgb(0,0,0)"  stroke-width="3"/>
<line x1="557.2" y1="236.4" x2="568.3" y2="261.7" opacity="1.0" stroke="rgb(0,0,0)"  stroke-width="3"/>
<line x1="564.1" y1="270.1" x2="603.4" y2="274.5" opacity="1.0" stroke="rgb(0,0,0)"  stroke-width="3"/>
<line x1="644.3" y1="92.9" x2="606.6" y2="104.9" opacity="1.0" stroke="rgb(0,0,0)"  stroke-width="3"/>
<line x1="640.8" y1="101.6" x2="614.5" y2="110.0" opacity="1.0" stroke="rgb(0,0,0)"  stroke-width="3"/>
<line x1="606.6" y1="104.9" x2="598.1" y2="143.6" opacity="1.0" stroke="rgb(0,0,0)"  stroke-width="3"/>
<line x1="598.1" y1="143.6" x2="627.4" y2="170.3" opacity="1.0" stroke="rgb(0,0,0)"  stroke-width="3"/>
<line x1="607.4" y1="142.3" x2="627.8" y2="160.9" opacity="1.0" stroke="rgb(0,0,0)"  stroke-width="3"/>
<line x1="627.4" y1="170.3" x2="665.1" y2="158.3" opacity="1.0" stroke="rgb(0,0,0)"  stroke-width="3"/>
<line x1="665.1" y1="158.3" x2="673.6" y2="119.6" opacity="1.0" stroke="rgb(0,0,0)"  stroke-width="3"/>
<line x1="659.4" y1="150.9" x2="665.3" y2="123.9" opacity="1.0" stroke="rgb(0,0,0)"  stroke-width="3"/>
<line x1="673.6" y1="119.6" x2="644.3" y2="92.9" opacity="1.0" stroke="rgb(0,0,0)"  stroke-width="3"/>
<line x1="84.0" y1="158.8" x2="98.8" y2="195.5" opacity="1.0" stroke="rgb(0,0,0)"  stroke-width="3"/>
<line x1="138.3" y1="192.8" x2="147.9" y2="154.4" opacity="1.0" stroke="rgb(0,0,0)"  stroke-width="3"/>
<line x1="147.9" y1="154.4" x2="114.4" y2="133.4" opacity="1.0" stroke="rgb(0,0,0)"  stroke-width="3"/>
<line x1="611.0" y1="206.3" x2="627.4" y2="170.3" opacity="1.0" stroke="rgb(0,0,0)"  stroke-width="3"/>
<line x1="598.1" y1="143.6" x2="563.7" y2="163.2" opacity="1.0" stroke="rgb(0,0,0)"  stroke-width="3"/>
<line x1="563.7" y1="163.2" x2="571.7" y2="201.9" opacity="1.0" stroke="rgb(0,0,0)"  stroke-width="3"/>
<line x1="148.8" y1="114.8" x2="147.9" y2="154.4" opacity="1.0" stroke="rgb(0,0,0)"  stroke-width="3"/>
<line x1="147.9" y1="154.4" x2="183.7" y2="190.0" opacity="1.0" stroke="rgb(0,0,0)"  stroke-width="3"/>
<line x1="563.7" y1="163.2" x2="564.5" y2="123.6" opacity="1.0" stroke="rgb(0,0,0)"  stroke-width="3"/>
<line x1="526.5" y1="197.2" x2="563.7" y2="163.2" opacity="1.0" stroke="rgb(0,0,0)"  stroke-width="3"/>
<text x="279.265644" y="259.523837" fill="rgb(12,12,255)" stroke-width="0" font-weight="bold" font-size="25.92" >N</text>
<text x="280.940685" y="180.351360" fill="rgb(255,181,181)" stroke-width="0" font-weight="bold" font-size="25.92" >B</text>
<text x="418.071488" y="183.252554" fill="rgb(255,181,181)" stroke-width="0" font-weight="bold" font-size="25.92" >B</text>
<text x="416.396446" y="262.425127" fill="rgb(12,12,255)" stroke-width="0" font-weight="bold" font-size="25.92" >N</text>
<text x="487.474433" y="145.116936" fill="rgb(12,12,255)" stroke-width="0" font-weight="bold" font-size="25.92" >N</text>
<text x="213.212781" y="139.314500" fill="rgb(12,12,255)" stroke-width="0" font-weight="bold" font-size="25.92" >N</text>
</svg>
</g>
</svg>
