<?xml version="1.0"?>
<svg version="1.1" id="topsvg"
xmlns="http://www.w3.org/2000/svg" xmlns:xlink="http://www.w3.org/1999/xlink"
xmlns:cml="http://www.xml-cml.org/schema" x="0" y="0" width="200px" height="200px" viewBox="0 0 100 100">
<title>GD297.sdf - Open Babel Depiction</title>
<rect x="0" y="0" width="100" height="100" fill="white"/>
<g transform="translate(0,0)">
<svg width="100" height="100" x="0" y="0" viewBox="0 0 593.136 504.066"
font-family="sans-serif" stroke="rgb(0,0,0)" stroke-width="3"  stroke-linecap="round">
<line x1="449.6" y1="171.5" x2="475.6" y2="177.0" opacity="1.0" stroke="rgb(0,0,0)"  stroke-width="3"/>
<line x1="220.5" y1="177.1" x2="215.2" y2="151.0" opacity="1.0" stroke="rgb(0,0,0)"  stroke-width="3"/>
<line x1="79.6" y1="317.5" x2="40.0" y2="317.5" opacity="1.0" stroke="rgb(0,0,0)"  stroke-width="3"/>
<line x1="79.6" y1="317.5" x2="77.8" y2="277.9" opacity="1.0" stroke="rgb(0,0,0)"  stroke-width="3"/>
<line x1="125.6" y1="382.1" x2="125.6" y2="421.7" opacity="1.0" stroke="rgb(0,0,0)"  stroke-width="3"/>
<line x1="125.6" y1="382.1" x2="164.3" y2="390.5" opacity="1.0" stroke="rgb(0,0,0)"  stroke-width="3"/>
<line x1="175.0" y1="274.0" x2="198.6" y2="242.1" opacity="1.0" stroke="rgb(0,0,0)"  stroke-width="3"/>
<line x1="198.6" y1="242.1" x2="236.2" y2="254.7" opacity="1.0" stroke="rgb(0,0,0)"  stroke-width="3"/>
<line x1="202.0" y1="250.9" x2="228.2" y2="259.7" opacity="1.0" stroke="rgb(0,0,0)"  stroke-width="3"/>
<line x1="236.2" y1="254.7" x2="235.9" y2="281.4" opacity="1.0" stroke="rgb(0,0,0)"  stroke-width="3"/>
<line x1="223.4" y1="298.3" x2="198.0" y2="306.2" opacity="1.0" stroke="rgb(0,0,0)"  stroke-width="3"/>
<line x1="198.0" y1="306.2" x2="175.0" y2="274.0" opacity="1.0" stroke="rgb(0,0,0)"  stroke-width="3"/>
<line x1="200.4" y1="297.2" x2="184.4" y2="274.7" opacity="1.0" stroke="rgb(0,0,0)"  stroke-width="3"/>
<line x1="407.4" y1="234.9" x2="373.1" y2="254.7" opacity="1.0" stroke="rgb(0,0,0)"  stroke-width="3"/>
<line x1="405.8" y1="244.2" x2="381.9" y2="258.0" opacity="1.0" stroke="rgb(0,0,0)"  stroke-width="3"/>
<line x1="373.1" y1="254.7" x2="373.1" y2="281.4" opacity="1.0" stroke="rgb(0,0,0)"  stroke-width="3"/>
<line x1="384.3" y1="300.9" x2="407.4" y2="314.2" opacity="1.0" stroke="rgb(0,0,0)"  stroke-width="3"/>
<line x1="407.4" y1="314.2" x2="441.7" y2="294.4" opacity="1.0" stroke="rgb(0,0,0)"  stroke-width="3"/>
<line x1="441.7" y1="294.4" x2="407.4" y2="234.9" opacity="1.0" stroke="rgb(0,0,0)"  stroke-width="3"/>
<line x1="420.7" y1="132.6" x2="431.6" y2="156.9" opacity="1.0" stroke="rgb(0,0,0)"  stroke-width="3"/>
<line x1="427.2" y1="177.5" x2="407.4" y2="195.3" opacity="1.0" stroke="rgb(0,0,0)"  stroke-width="3"/>
<line x1="407.4" y1="195.3" x2="373.1" y2="175.5" opacity="1.0" stroke="rgb(0,0,0)"  stroke-width="3"/>
<line x1="405.8" y1="186.1" x2="381.9" y2="172.2" opacity="1.0" stroke="rgb(0,0,0)"  stroke-width="3"/>
<line x1="373.1" y1="175.5" x2="381.3" y2="136.7" opacity="1.0" stroke="rgb(0,0,0)"  stroke-width="3"/>
<line x1="381.3" y1="136.7" x2="420.7" y2="132.6" opacity="1.0" stroke="rgb(0,0,0)"  stroke-width="3"/>
<line x1="388.0" y1="143.3" x2="415.5" y2="140.4" opacity="1.0" stroke="rgb(0,0,0)"  stroke-width="3"/>
<line x1="239.4" y1="109.0" x2="219.9" y2="74.5" opacity="1.0" stroke="rgb(0,0,0)"  stroke-width="3"/>
<line x1="230.2" y1="107.3" x2="216.6" y2="83.3" opacity="1.0" stroke="rgb(0,0,0)"  stroke-width="3"/>
<line x1="219.9" y1="74.5" x2="181.1" y2="82.4" opacity="1.0" stroke="rgb(0,0,0)"  stroke-width="3"/>
<line x1="181.1" y1="82.4" x2="176.6" y2="121.7" opacity="1.0" stroke="rgb(0,0,0)"  stroke-width="3"/>
<line x1="187.6" y1="89.2" x2="184.4" y2="116.6" opacity="1.0" stroke="rgb(0,0,0)"  stroke-width="3"/>
<line x1="176.6" y1="121.7" x2="200.8" y2="132.8" opacity="1.0" stroke="rgb(0,0,0)"  stroke-width="3"/>
<line x1="221.4" y1="128.6" x2="239.4" y2="109.0" opacity="1.0" stroke="rgb(0,0,0)"  stroke-width="3"/>
<line x1="270.1" y1="353.8" x2="304.4" y2="373.6" opacity="1.0" stroke="rgb(0,0,0)"  stroke-width="3"/>
<line x1="304.4" y1="373.6" x2="338.8" y2="353.8" opacity="1.0" stroke="rgb(0,0,0)"  stroke-width="3"/>
<line x1="306.0" y1="364.4" x2="330.0" y2="350.6" opacity="1.0" stroke="rgb(0,0,0)"  stroke-width="3"/>
<line x1="338.8" y1="353.8" x2="338.8" y2="314.2" opacity="1.0" stroke="rgb(0,0,0)"  stroke-width="3"/>
<line x1="338.8" y1="314.2" x2="304.4" y2="294.4" opacity="1.0" stroke="rgb(0,0,0)"  stroke-width="3"/>
<line x1="330.0" y1="317.4" x2="306.0" y2="303.6" opacity="1.0" stroke="rgb(0,0,0)"  stroke-width="3"/>
<line x1="304.4" y1="294.4" x2="270.1" y2="314.2" opacity="1.0" stroke="rgb(0,0,0)"  stroke-width="3"/>
<line x1="270.1" y1="314.2" x2="270.1" y2="353.8" opacity="1.0" stroke="rgb(0,0,0)"  stroke-width="3"/>
<line x1="277.3" y1="320.2" x2="277.3" y2="347.8" opacity="1.0" stroke="rgb(0,0,0)"  stroke-width="3"/>
<line x1="304.4" y1="267.7" x2="304.4" y2="294.4" opacity="1.0" stroke="rgb(0,0,0)"  stroke-width="3"/>
<line x1="270.1" y1="314.2" x2="247.1" y2="300.9" opacity="1.0" stroke="rgb(0,0,0)"  stroke-width="3"/>
<line x1="236.2" y1="254.7" x2="265.9" y2="228.5" opacity="1.0" stroke="rgb(0,0,0)"  stroke-width="3"/>
<line x1="265.9" y1="228.5" x2="293.7" y2="247.4" opacity="1.0" stroke="rgb(0,0,0)"  stroke-width="3"/>
<line x1="476.0" y1="314.2" x2="441.7" y2="294.4" opacity="1.0" stroke="rgb(0,0,0)"  stroke-width="3"/>
<line x1="467.2" y1="317.4" x2="443.3" y2="303.6" opacity="1.0" stroke="rgb(0,0,0)"  stroke-width="3"/>
<line x1="407.4" y1="314.2" x2="407.4" y2="353.8" opacity="1.0" stroke="rgb(0,0,0)"  stroke-width="3"/>
<line x1="414.6" y1="320.2" x2="414.6" y2="347.8" opacity="1.0" stroke="rgb(0,0,0)"  stroke-width="3"/>
<line x1="407.4" y1="353.8" x2="441.7" y2="373.6" opacity="1.0" stroke="rgb(0,0,0)"  stroke-width="3"/>
<line x1="441.7" y1="373.6" x2="476.0" y2="353.8" opacity="1.0" stroke="rgb(0,0,0)"  stroke-width="3"/>
<line x1="443.3" y1="364.4" x2="467.2" y2="350.6" opacity="1.0" stroke="rgb(0,0,0)"  stroke-width="3"/>
<line x1="476.0" y1="353.8" x2="476.0" y2="314.2" opacity="1.0" stroke="rgb(0,0,0)"  stroke-width="3"/>
<line x1="338.8" y1="234.9" x2="315.7" y2="248.2" opacity="1.0" stroke="rgb(0,0,0)"  stroke-width="3"/>
<line x1="338.8" y1="314.2" x2="361.8" y2="300.9" opacity="1.0" stroke="rgb(0,0,0)"  stroke-width="3"/>
<line x1="373.1" y1="254.7" x2="338.8" y2="234.9" opacity="1.0" stroke="rgb(0,0,0)"  stroke-width="3"/>
<line x1="407.4" y1="195.3" x2="407.4" y2="234.9" opacity="1.0" stroke="rgb(0,0,0)"  stroke-width="3"/>
<line x1="338.8" y1="234.9" x2="338.8" y2="195.3" opacity="1.0" stroke="rgb(0,0,0)"  stroke-width="3"/>
<line x1="346.0" y1="228.9" x2="346.0" y2="201.3" opacity="1.0" stroke="rgb(0,0,0)"  stroke-width="3"/>
<line x1="338.8" y1="195.3" x2="373.1" y2="175.5" opacity="1.0" stroke="rgb(0,0,0)"  stroke-width="3"/>
<line x1="374.1" y1="68.5" x2="358.0" y2="104.7" opacity="1.0" stroke="rgb(0,0,0)"  stroke-width="3"/>
<line x1="378.3" y1="76.9" x2="367.0" y2="102.1" opacity="1.0" stroke="rgb(0,0,0)"  stroke-width="3"/>
<line x1="358.0" y1="104.7" x2="381.3" y2="136.7" opacity="1.0" stroke="rgb(0,0,0)"  stroke-width="3"/>
<line x1="420.7" y1="132.6" x2="436.8" y2="96.4" opacity="1.0" stroke="rgb(0,0,0)"  stroke-width="3"/>
<line x1="436.8" y1="96.4" x2="413.6" y2="64.3" opacity="1.0" stroke="rgb(0,0,0)"  stroke-width="3"/>
<line x1="427.5" y1="95.8" x2="411.3" y2="73.4" opacity="1.0" stroke="rgb(0,0,0)"  stroke-width="3"/>
<line x1="413.6" y1="64.3" x2="374.1" y2="68.5" opacity="1.0" stroke="rgb(0,0,0)"  stroke-width="3"/>
<line x1="487.9" y1="214.7" x2="526.6" y2="223.0" opacity="1.0" stroke="rgb(0,0,0)"  stroke-width="3"/>
<line x1="526.6" y1="223.0" x2="553.1" y2="193.5" opacity="1.0" stroke="rgb(0,0,0)"  stroke-width="3"/>
<line x1="525.3" y1="213.7" x2="543.8" y2="193.1" opacity="1.0" stroke="rgb(0,0,0)"  stroke-width="3"/>
<line x1="553.1" y1="193.5" x2="540.9" y2="155.8" opacity="1.0" stroke="rgb(0,0,0)"  stroke-width="3"/>
<line x1="540.9" y1="155.8" x2="502.1" y2="147.6" opacity="1.0" stroke="rgb(0,0,0)"  stroke-width="3"/>
<line x1="533.5" y1="161.6" x2="506.5" y2="155.9" opacity="1.0" stroke="rgb(0,0,0)"  stroke-width="3"/>
<line x1="502.1" y1="147.6" x2="475.6" y2="177.0" opacity="1.0" stroke="rgb(0,0,0)"  stroke-width="3"/>
<line x1="475.6" y1="177.0" x2="487.9" y2="214.7" opacity="1.0" stroke="rgb(0,0,0)"  stroke-width="3"/>
<line x1="484.3" y1="180.5" x2="492.8" y2="206.8" opacity="1.0" stroke="rgb(0,0,0)"  stroke-width="3"/>
<line x1="470.4" y1="418.1" x2="443.9" y2="388.7" opacity="1.0" stroke="rgb(0,0,0)"  stroke-width="3"/>
<line x1="461.1" y1="418.5" x2="442.6" y2="398.0" opacity="1.0" stroke="rgb(0,0,0)"  stroke-width="3"/>
<line x1="443.9" y1="388.7" x2="405.1" y2="396.9" opacity="1.0" stroke="rgb(0,0,0)"  stroke-width="3"/>
<line x1="405.1" y1="396.9" x2="392.9" y2="434.6" opacity="1.0" stroke="rgb(0,0,0)"  stroke-width="3"/>
<line x1="410.1" y1="404.9" x2="401.6" y2="431.1" opacity="1.0" stroke="rgb(0,0,0)"  stroke-width="3"/>
<line x1="392.9" y1="434.6" x2="419.4" y2="464.1" opacity="1.0" stroke="rgb(0,0,0)"  stroke-width="3"/>
<line x1="419.4" y1="464.1" x2="458.2" y2="455.8" opacity="1.0" stroke="rgb(0,0,0)"  stroke-width="3"/>
<line x1="423.8" y1="455.8" x2="450.8" y2="450.0" opacity="1.0" stroke="rgb(0,0,0)"  stroke-width="3"/>
<line x1="458.2" y1="455.8" x2="470.4" y2="418.1" opacity="1.0" stroke="rgb(0,0,0)"  stroke-width="3"/>
<line x1="288.0" y1="455.8" x2="326.7" y2="464.1" opacity="1.0" stroke="rgb(0,0,0)"  stroke-width="3"/>
<line x1="295.3" y1="450.0" x2="322.4" y2="455.8" opacity="1.0" stroke="rgb(0,0,0)"  stroke-width="3"/>
<line x1="326.7" y1="464.1" x2="353.3" y2="434.6" opacity="1.0" stroke="rgb(0,0,0)"  stroke-width="3"/>
<line x1="353.3" y1="434.6" x2="341.0" y2="396.9" opacity="1.0" stroke="rgb(0,0,0)"  stroke-width="3"/>
<line x1="344.6" y1="431.1" x2="336.0" y2="404.9" opacity="1.0" stroke="rgb(0,0,0)"  stroke-width="3"/>
<line x1="341.0" y1="396.9" x2="302.2" y2="388.7" opacity="1.0" stroke="rgb(0,0,0)"  stroke-width="3"/>
<line x1="302.2" y1="388.7" x2="275.7" y2="418.1" opacity="1.0" stroke="rgb(0,0,0)"  stroke-width="3"/>
<line x1="303.6" y1="398.0" x2="285.1" y2="418.5" opacity="1.0" stroke="rgb(0,0,0)"  stroke-width="3"/>
<line x1="275.7" y1="418.1" x2="288.0" y2="455.8" opacity="1.0" stroke="rgb(0,0,0)"  stroke-width="3"/>
<line x1="135.6" y1="277.7" x2="119.1" y2="313.8" opacity="1.0" stroke="rgb(0,0,0)"  stroke-width="3"/>
<line x1="139.6" y1="286.2" x2="128.1" y2="311.3" opacity="1.0" stroke="rgb(0,0,0)"  stroke-width="3"/>
<line x1="119.1" y1="313.8" x2="142.1" y2="346.0" opacity="1.0" stroke="rgb(0,0,0)"  stroke-width="3"/>
<line x1="142.1" y1="346.0" x2="181.5" y2="342.3" opacity="1.0" stroke="rgb(0,0,0)"  stroke-width="3"/>
<line x1="147.3" y1="338.3" x2="174.9" y2="335.7" opacity="1.0" stroke="rgb(0,0,0)"  stroke-width="3"/>
<line x1="181.5" y1="342.3" x2="198.0" y2="306.2" opacity="1.0" stroke="rgb(0,0,0)"  stroke-width="3"/>
<line x1="175.0" y1="274.0" x2="135.6" y2="277.7" opacity="1.0" stroke="rgb(0,0,0)"  stroke-width="3"/>
<line x1="220.5" y1="177.1" x2="258.0" y2="189.7" opacity="1.0" stroke="rgb(0,0,0)"  stroke-width="3"/>
<line x1="258.0" y1="189.7" x2="265.9" y2="228.5" opacity="1.0" stroke="rgb(0,0,0)"  stroke-width="3"/>
<line x1="252.2" y1="197.0" x2="257.6" y2="224.1" opacity="1.0" stroke="rgb(0,0,0)"  stroke-width="3"/>
<line x1="198.6" y1="242.1" x2="190.8" y2="203.3" opacity="1.0" stroke="rgb(0,0,0)"  stroke-width="3"/>
<line x1="190.8" y1="203.3" x2="220.5" y2="177.1" opacity="1.0" stroke="rgb(0,0,0)"  stroke-width="3"/>
<line x1="200.0" y1="204.7" x2="220.7" y2="186.4" opacity="1.0" stroke="rgb(0,0,0)"  stroke-width="3"/>
<line x1="279.1" y1="40.0" x2="239.4" y2="40.0" opacity="1.0" stroke="rgb(0,0,0)"  stroke-width="3"/>
<line x1="273.1" y1="47.2" x2="245.4" y2="47.2" opacity="1.0" stroke="rgb(0,0,0)"  stroke-width="3"/>
<line x1="239.4" y1="40.0" x2="219.9" y2="74.5" opacity="1.0" stroke="rgb(0,0,0)"  stroke-width="3"/>
<line x1="239.4" y1="109.0" x2="279.1" y2="109.0" opacity="1.0" stroke="rgb(0,0,0)"  stroke-width="3"/>
<line x1="279.1" y1="109.0" x2="299.2" y2="74.5" opacity="1.0" stroke="rgb(0,0,0)"  stroke-width="3"/>
<line x1="275.9" y1="100.2" x2="290.0" y2="76.1" opacity="1.0" stroke="rgb(0,0,0)"  stroke-width="3"/>
<line x1="299.2" y1="74.5" x2="279.1" y2="40.0" opacity="1.0" stroke="rgb(0,0,0)"  stroke-width="3"/>
<line x1="108.4" y1="113.9" x2="140.2" y2="137.5" opacity="1.0" stroke="rgb(0,0,0)"  stroke-width="3"/>
<line x1="117.5" y1="111.7" x2="139.7" y2="128.1" opacity="1.0" stroke="rgb(0,0,0)"  stroke-width="3"/>
<line x1="140.2" y1="137.5" x2="176.6" y2="121.7" opacity="1.0" stroke="rgb(0,0,0)"  stroke-width="3"/>
<line x1="181.1" y1="82.4" x2="149.3" y2="58.8" opacity="1.0" stroke="rgb(0,0,0)"  stroke-width="3"/>
<line x1="149.3" y1="58.8" x2="112.9" y2="74.5" opacity="1.0" stroke="rgb(0,0,0)"  stroke-width="3"/>
<line x1="146.6" y1="67.8" x2="121.3" y2="78.7" opacity="1.0" stroke="rgb(0,0,0)"  stroke-width="3"/>
<line x1="112.9" y1="74.5" x2="108.4" y2="113.9" opacity="1.0" stroke="rgb(0,0,0)"  stroke-width="3"/>
<line x1="353.3" y1="434.6" x2="392.9" y2="434.6" opacity="1.0" stroke="rgb(0,0,0)"  stroke-width="3"/>
<line x1="405.1" y1="396.9" x2="373.1" y2="373.6" opacity="1.0" stroke="rgb(0,0,0)"  stroke-width="3"/>
<line x1="373.1" y1="373.6" x2="341.0" y2="396.9" opacity="1.0" stroke="rgb(0,0,0)"  stroke-width="3"/>
<line x1="338.8" y1="353.8" x2="373.1" y2="373.6" opacity="1.0" stroke="rgb(0,0,0)"  stroke-width="3"/>
<line x1="373.1" y1="373.6" x2="407.4" y2="353.8" opacity="1.0" stroke="rgb(0,0,0)"  stroke-width="3"/>
<line x1="86.1" y1="385.8" x2="125.6" y2="382.1" opacity="1.0" stroke="rgb(0,0,0)"  stroke-width="3"/>
<line x1="125.6" y1="382.1" x2="142.1" y2="346.0" opacity="1.0" stroke="rgb(0,0,0)"  stroke-width="3"/>
<line x1="119.1" y1="313.8" x2="79.6" y2="317.5" opacity="1.0" stroke="rgb(0,0,0)"  stroke-width="3"/>
<line x1="79.6" y1="317.5" x2="63.2" y2="353.5" opacity="1.0" stroke="rgb(0,0,0)"  stroke-width="3"/>
<line x1="63.2" y1="353.5" x2="86.1" y2="385.8" opacity="1.0" stroke="rgb(0,0,0)"  stroke-width="3"/>
<text x="206.615772" y="146.215774" fill="rgb(12,12,255)" stroke-width="0" font-weight="bold" font-size="25.92" >N</text>
<text x="229.793391" y="302.372711" fill="rgb(12,12,255)" stroke-width="0" font-weight="bold" font-size="25.92" >N</text>
<text x="367.074470" y="302.372711" fill="rgb(12,12,255)" stroke-width="0" font-weight="bold" font-size="25.92" >N</text>
<text x="298.433978" y="262.743080" fill="rgb(255,181,181)" stroke-width="0" font-weight="bold" font-size="25.92" >B</text>
<text x="430.845321" y="176.781268" fill="rgb(12,12,255)" stroke-width="0" font-weight="bold" font-size="25.92" >N</text>
</svg>
</g>
</svg>
