<?xml version="1.0"?>
<svg version="1.1" id="topsvg"
xmlns="http://www.w3.org/2000/svg" xmlns:xlink="http://www.w3.org/1999/xlink"
xmlns:cml="http://www.xml-cml.org/schema" x="0" y="0" width="200px" height="200px" viewBox="0 0 100 100">
<title>GD290.sdf - Open Babel Depiction</title>
<rect x="0" y="0" width="100" height="100" fill="white"/>
<g transform="translate(0,0)">
<svg width="100" height="100" x="0" y="0" viewBox="0 0 755.618 493.252"
font-family="sans-serif" stroke="rgb(0,0,0)" stroke-width="3"  stroke-linecap="round">
<line x1="555.4" y1="244.8" x2="581.4" y2="252.0" opacity="1.0" stroke="rgb(0,0,0)"  stroke-width="3"/>
<line x1="115.0" y1="172.3" x2="77.5" y2="186.3" opacity="1.0" stroke="rgb(0,0,0)"  stroke-width="3"/>
<line x1="77.5" y1="186.3" x2="40.0" y2="200.2" opacity="1.0" stroke="rgb(0,0,0)"  stroke-width="3"/>
<line x1="77.5" y1="186.3" x2="46.7" y2="160.8" opacity="1.0" stroke="rgb(0,0,0)"  stroke-width="3"/>
<line x1="77.5" y1="186.3" x2="70.8" y2="225.7" opacity="1.0" stroke="rgb(0,0,0)"  stroke-width="3"/>
<line x1="159.1" y1="118.9" x2="165.8" y2="79.4" opacity="1.0" stroke="rgb(0,0,0)"  stroke-width="3"/>
<line x1="165.8" y1="79.4" x2="134.9" y2="54.0" opacity="1.0" stroke="rgb(0,0,0)"  stroke-width="3"/>
<line x1="165.8" y1="79.4" x2="172.4" y2="40.0" opacity="1.0" stroke="rgb(0,0,0)"  stroke-width="3"/>
<line x1="165.8" y1="79.4" x2="203.2" y2="65.5" opacity="1.0" stroke="rgb(0,0,0)"  stroke-width="3"/>
<line x1="295.7" y1="141.9" x2="302.4" y2="102.5" opacity="1.0" stroke="rgb(0,0,0)"  stroke-width="3"/>
<line x1="302.4" y1="102.5" x2="271.6" y2="77.0" opacity="1.0" stroke="rgb(0,0,0)"  stroke-width="3"/>
<line x1="302.4" y1="102.5" x2="309.0" y2="63.0" opacity="1.0" stroke="rgb(0,0,0)"  stroke-width="3"/>
<line x1="302.4" y1="102.5" x2="339.9" y2="88.5" opacity="1.0" stroke="rgb(0,0,0)"  stroke-width="3"/>
<line x1="608.7" y1="79.8" x2="580.1" y2="107.8" opacity="1.0" stroke="rgb(0,0,0)"  stroke-width="3"/>
<line x1="580.1" y1="107.8" x2="551.5" y2="135.8" opacity="1.0" stroke="rgb(0,0,0)"  stroke-width="3"/>
<line x1="580.1" y1="107.8" x2="618.6" y2="118.5" opacity="1.0" stroke="rgb(0,0,0)"  stroke-width="3"/>
<line x1="580.1" y1="107.8" x2="570.1" y2="69.1" opacity="1.0" stroke="rgb(0,0,0)"  stroke-width="3"/>
<line x1="648.5" y1="234.8" x2="677.1" y2="206.8" opacity="1.0" stroke="rgb(0,0,0)"  stroke-width="3"/>
<line x1="677.1" y1="206.8" x2="705.7" y2="178.8" opacity="1.0" stroke="rgb(0,0,0)"  stroke-width="3"/>
<line x1="677.1" y1="206.8" x2="715.6" y2="217.5" opacity="1.0" stroke="rgb(0,0,0)"  stroke-width="3"/>
<line x1="677.1" y1="206.8" x2="667.1" y2="168.0" opacity="1.0" stroke="rgb(0,0,0)"  stroke-width="3"/>
<line x1="629.9" y1="301.5" x2="639.9" y2="340.2" opacity="1.0" stroke="rgb(0,0,0)"  stroke-width="3"/>
<line x1="639.9" y1="340.2" x2="678.4" y2="351.0" opacity="1.0" stroke="rgb(0,0,0)"  stroke-width="3"/>
<line x1="639.9" y1="340.2" x2="649.9" y2="379.0" opacity="1.0" stroke="rgb(0,0,0)"  stroke-width="3"/>
<line x1="639.9" y1="340.2" x2="611.3" y2="368.2" opacity="1.0" stroke="rgb(0,0,0)"  stroke-width="3"/>
<line x1="183.3" y1="183.8" x2="204.1" y2="201.0" opacity="1.0" stroke="rgb(0,0,0)"  stroke-width="3"/>
<line x1="398.7" y1="237.1" x2="358.8" y2="234.6" opacity="1.0" stroke="rgb(0,0,0)"  stroke-width="3"/>
<line x1="392.3" y1="243.9" x2="364.3" y2="242.1" opacity="1.0" stroke="rgb(0,0,0)"  stroke-width="3"/>
<line x1="358.8" y1="234.6" x2="344.1" y2="271.8" opacity="1.0" stroke="rgb(0,0,0)"  stroke-width="3"/>
<line x1="344.1" y1="271.8" x2="374.9" y2="297.3" opacity="1.0" stroke="rgb(0,0,0)"  stroke-width="3"/>
<line x1="374.9" y1="297.3" x2="397.7" y2="282.8" opacity="1.0" stroke="rgb(0,0,0)"  stroke-width="3"/>
<line x1="405.5" y1="263.2" x2="398.7" y2="237.1" opacity="1.0" stroke="rgb(0,0,0)"  stroke-width="3"/>
<line x1="330.8" y1="350.7" x2="300.0" y2="325.2" opacity="1.0" stroke="rgb(0,0,0)"  stroke-width="3"/>
<line x1="321.6" y1="352.4" x2="300.0" y2="334.6" opacity="1.0" stroke="rgb(0,0,0)"  stroke-width="3"/>
<line x1="300.0" y1="325.2" x2="274.7" y2="334.6" opacity="1.0" stroke="rgb(0,0,0)"  stroke-width="3"/>
<line x1="265.2" y1="351.9" x2="270.7" y2="378.3" opacity="1.0" stroke="rgb(0,0,0)"  stroke-width="3"/>
<line x1="270.7" y1="378.3" x2="310.2" y2="384.9" opacity="1.0" stroke="rgb(0,0,0)"  stroke-width="3"/>
<line x1="277.8" y1="372.2" x2="305.5" y2="376.8" opacity="1.0" stroke="rgb(0,0,0)"  stroke-width="3"/>
<line x1="310.2" y1="384.9" x2="330.8" y2="350.7" opacity="1.0" stroke="rgb(0,0,0)"  stroke-width="3"/>
<line x1="330.8" y1="350.7" x2="368.3" y2="336.7" opacity="1.0" stroke="rgb(0,0,0)"  stroke-width="3"/>
<line x1="368.3" y1="336.7" x2="374.9" y2="297.3" opacity="1.0" stroke="rgb(0,0,0)"  stroke-width="3"/>
<line x1="362.2" y1="329.6" x2="366.8" y2="302.0" opacity="1.0" stroke="rgb(0,0,0)"  stroke-width="3"/>
<line x1="344.1" y1="271.8" x2="306.6" y2="285.7" opacity="1.0" stroke="rgb(0,0,0)"  stroke-width="3"/>
<line x1="341.0" y1="280.6" x2="314.8" y2="290.4" opacity="1.0" stroke="rgb(0,0,0)"  stroke-width="3"/>
<line x1="306.6" y1="285.7" x2="300.0" y2="325.2" opacity="1.0" stroke="rgb(0,0,0)"  stroke-width="3"/>
<line x1="252.5" y1="330.9" x2="231.6" y2="313.7" opacity="1.0" stroke="rgb(0,0,0)"  stroke-width="3"/>
<line x1="231.6" y1="313.7" x2="238.3" y2="274.2" opacity="1.0" stroke="rgb(0,0,0)"  stroke-width="3"/>
<line x1="239.7" y1="308.9" x2="244.4" y2="281.3" opacity="1.0" stroke="rgb(0,0,0)"  stroke-width="3"/>
<line x1="238.3" y1="274.2" x2="263.6" y2="264.8" opacity="1.0" stroke="rgb(0,0,0)"  stroke-width="3"/>
<line x1="285.8" y1="268.5" x2="306.6" y2="285.7" opacity="1.0" stroke="rgb(0,0,0)"  stroke-width="3"/>
<line x1="163.3" y1="302.1" x2="170.0" y2="262.7" opacity="1.0" stroke="rgb(0,0,0)"  stroke-width="3"/>
<line x1="170.0" y1="262.7" x2="207.5" y2="248.7" opacity="1.0" stroke="rgb(0,0,0)"  stroke-width="3"/>
<line x1="178.1" y1="267.4" x2="204.4" y2="257.6" opacity="1.0" stroke="rgb(0,0,0)"  stroke-width="3"/>
<line x1="207.5" y1="248.7" x2="238.3" y2="274.2" opacity="1.0" stroke="rgb(0,0,0)"  stroke-width="3"/>
<line x1="231.6" y1="313.7" x2="194.2" y2="327.6" opacity="1.0" stroke="rgb(0,0,0)"  stroke-width="3"/>
<line x1="194.2" y1="327.6" x2="163.3" y2="302.1" opacity="1.0" stroke="rgb(0,0,0)"  stroke-width="3"/>
<line x1="194.1" y1="318.2" x2="172.5" y2="300.4" opacity="1.0" stroke="rgb(0,0,0)"  stroke-width="3"/>
<line x1="251.6" y1="195.3" x2="282.4" y2="220.8" opacity="1.0" stroke="rgb(0,0,0)"  stroke-width="3"/>
<line x1="251.6" y1="204.7" x2="273.2" y2="222.5" opacity="1.0" stroke="rgb(0,0,0)"  stroke-width="3"/>
<line x1="282.4" y1="220.8" x2="277.9" y2="247.4" opacity="1.0" stroke="rgb(0,0,0)"  stroke-width="3"/>
<line x1="207.5" y1="248.7" x2="212.0" y2="222.1" opacity="1.0" stroke="rgb(0,0,0)"  stroke-width="3"/>
<line x1="226.3" y1="204.8" x2="251.6" y2="195.3" opacity="1.0" stroke="rgb(0,0,0)"  stroke-width="3"/>
<line x1="532.9" y1="202.5" x2="494.4" y2="191.8" opacity="1.0" stroke="rgb(0,0,0)"  stroke-width="3"/>
<line x1="494.4" y1="191.8" x2="475.1" y2="210.7" opacity="1.0" stroke="rgb(0,0,0)"  stroke-width="3"/>
<line x1="469.1" y1="232.4" x2="475.8" y2="258.5" opacity="1.0" stroke="rgb(0,0,0)"  stroke-width="3"/>
<line x1="475.8" y1="258.5" x2="514.3" y2="269.3" opacity="1.0" stroke="rgb(0,0,0)"  stroke-width="3"/>
<line x1="483.5" y1="253.2" x2="510.5" y2="260.7" opacity="1.0" stroke="rgb(0,0,0)"  stroke-width="3"/>
<line x1="514.3" y1="269.3" x2="533.6" y2="250.4" opacity="1.0" stroke="rgb(0,0,0)"  stroke-width="3"/>
<line x1="539.7" y1="228.7" x2="532.9" y2="202.5" opacity="1.0" stroke="rgb(0,0,0)"  stroke-width="3"/>
<line x1="298.7" y1="453.3" x2="324.1" y2="422.4" opacity="1.0" stroke="rgb(0,0,0)"  stroke-width="3"/>
<line x1="296.9" y1="444.0" x2="314.8" y2="422.5" opacity="1.0" stroke="rgb(0,0,0)"  stroke-width="3"/>
<line x1="324.1" y1="422.4" x2="310.2" y2="384.9" opacity="1.0" stroke="rgb(0,0,0)"  stroke-width="3"/>
<line x1="270.7" y1="378.3" x2="245.2" y2="409.1" opacity="1.0" stroke="rgb(0,0,0)"  stroke-width="3"/>
<line x1="245.2" y1="409.1" x2="259.2" y2="446.6" opacity="1.0" stroke="rgb(0,0,0)"  stroke-width="3"/>
<line x1="254.1" y1="412.2" x2="263.9" y2="438.5" opacity="1.0" stroke="rgb(0,0,0)"  stroke-width="3"/>
<line x1="259.2" y1="446.6" x2="298.7" y2="453.3" opacity="1.0" stroke="rgb(0,0,0)"  stroke-width="3"/>
<line x1="372.3" y1="166.1" x2="346.4" y2="196.6" opacity="1.0" stroke="rgb(0,0,0)"  stroke-width="3"/>
<line x1="373.9" y1="175.3" x2="355.8" y2="196.6" opacity="1.0" stroke="rgb(0,0,0)"  stroke-width="3"/>
<line x1="346.4" y1="196.6" x2="358.8" y2="234.6" opacity="1.0" stroke="rgb(0,0,0)"  stroke-width="3"/>
<line x1="398.7" y1="237.1" x2="427.3" y2="209.1" opacity="1.0" stroke="rgb(0,0,0)"  stroke-width="3"/>
<line x1="427.3" y1="209.1" x2="411.8" y2="172.2" opacity="1.0" stroke="rgb(0,0,0)"  stroke-width="3"/>
<line x1="418.3" y1="206.3" x2="407.5" y2="180.5" opacity="1.0" stroke="rgb(0,0,0)"  stroke-width="3"/>
<line x1="411.8" y1="172.2" x2="372.3" y2="166.1" opacity="1.0" stroke="rgb(0,0,0)"  stroke-width="3"/>
<line x1="447.2" y1="286.5" x2="475.8" y2="258.5" opacity="1.0" stroke="rgb(0,0,0)"  stroke-width="3"/>
<line x1="453.3" y1="216.3" x2="427.3" y2="209.1" opacity="1.0" stroke="rgb(0,0,0)"  stroke-width="3"/>
<line x1="421.2" y1="279.3" x2="447.2" y2="286.5" opacity="1.0" stroke="rgb(0,0,0)"  stroke-width="3"/>
<line x1="524.3" y1="308.0" x2="514.3" y2="269.3" opacity="1.0" stroke="rgb(0,0,0)"  stroke-width="3"/>
<line x1="447.2" y1="286.5" x2="457.2" y2="325.3" opacity="1.0" stroke="rgb(0,0,0)"  stroke-width="3"/>
<line x1="455.7" y1="290.6" x2="462.7" y2="317.7" opacity="1.0" stroke="rgb(0,0,0)"  stroke-width="3"/>
<line x1="457.2" y1="325.3" x2="495.7" y2="336.0" opacity="1.0" stroke="rgb(0,0,0)"  stroke-width="3"/>
<line x1="495.7" y1="336.0" x2="524.3" y2="308.0" opacity="1.0" stroke="rgb(0,0,0)"  stroke-width="3"/>
<line x1="495.0" y1="326.7" x2="515.0" y2="307.1" opacity="1.0" stroke="rgb(0,0,0)"  stroke-width="3"/>
<line x1="295.7" y1="141.9" x2="326.6" y2="167.4" opacity="1.0" stroke="rgb(0,0,0)"  stroke-width="3"/>
<line x1="326.6" y1="167.4" x2="319.9" y2="206.9" opacity="1.0" stroke="rgb(0,0,0)"  stroke-width="3"/>
<line x1="318.5" y1="172.1" x2="313.8" y2="199.7" opacity="1.0" stroke="rgb(0,0,0)"  stroke-width="3"/>
<line x1="319.9" y1="206.9" x2="282.4" y2="220.8" opacity="1.0" stroke="rgb(0,0,0)"  stroke-width="3"/>
<line x1="251.6" y1="195.3" x2="258.3" y2="155.9" opacity="1.0" stroke="rgb(0,0,0)"  stroke-width="3"/>
<line x1="258.3" y1="155.9" x2="295.7" y2="141.9" opacity="1.0" stroke="rgb(0,0,0)"  stroke-width="3"/>
<line x1="266.4" y1="160.5" x2="292.6" y2="150.8" opacity="1.0" stroke="rgb(0,0,0)"  stroke-width="3"/>
<line x1="513.0" y1="125.1" x2="484.4" y2="153.1" opacity="1.0" stroke="rgb(0,0,0)"  stroke-width="3"/>
<line x1="484.4" y1="153.1" x2="494.4" y2="191.8" opacity="1.0" stroke="rgb(0,0,0)"  stroke-width="3"/>
<line x1="492.9" y1="157.1" x2="499.9" y2="184.2" opacity="1.0" stroke="rgb(0,0,0)"  stroke-width="3"/>
<line x1="532.9" y1="202.5" x2="561.5" y2="174.5" opacity="1.0" stroke="rgb(0,0,0)"  stroke-width="3"/>
<line x1="532.2" y1="193.2" x2="552.2" y2="173.6" opacity="1.0" stroke="rgb(0,0,0)"  stroke-width="3"/>
<line x1="561.5" y1="174.5" x2="551.5" y2="135.8" opacity="1.0" stroke="rgb(0,0,0)"  stroke-width="3"/>
<line x1="551.5" y1="135.8" x2="513.0" y2="125.1" opacity="1.0" stroke="rgb(0,0,0)"  stroke-width="3"/>
<line x1="543.8" y1="141.1" x2="516.8" y2="133.6" opacity="1.0" stroke="rgb(0,0,0)"  stroke-width="3"/>
<line x1="610.0" y1="224.0" x2="648.5" y2="234.8" opacity="1.0" stroke="rgb(0,0,0)"  stroke-width="3"/>
<line x1="648.5" y1="234.8" x2="658.5" y2="273.5" opacity="1.0" stroke="rgb(0,0,0)"  stroke-width="3"/>
<line x1="643.0" y1="242.4" x2="650.0" y2="269.5" opacity="1.0" stroke="rgb(0,0,0)"  stroke-width="3"/>
<line x1="658.5" y1="273.5" x2="629.9" y2="301.5" opacity="1.0" stroke="rgb(0,0,0)"  stroke-width="3"/>
<line x1="629.9" y1="301.5" x2="591.4" y2="290.8" opacity="1.0" stroke="rgb(0,0,0)"  stroke-width="3"/>
<line x1="626.1" y1="293.0" x2="599.1" y2="285.4" opacity="1.0" stroke="rgb(0,0,0)"  stroke-width="3"/>
<line x1="591.4" y1="290.8" x2="581.4" y2="252.0" opacity="1.0" stroke="rgb(0,0,0)"  stroke-width="3"/>
<line x1="581.4" y1="252.0" x2="610.0" y2="224.0" opacity="1.0" stroke="rgb(0,0,0)"  stroke-width="3"/>
<line x1="590.7" y1="253.0" x2="610.7" y2="233.4" opacity="1.0" stroke="rgb(0,0,0)"  stroke-width="3"/>
<line x1="189.9" y1="144.4" x2="159.1" y2="118.9" opacity="1.0" stroke="rgb(0,0,0)"  stroke-width="3"/>
<line x1="159.1" y1="118.9" x2="121.6" y2="132.8" opacity="1.0" stroke="rgb(0,0,0)"  stroke-width="3"/>
<line x1="156.0" y1="127.7" x2="129.8" y2="137.5" opacity="1.0" stroke="rgb(0,0,0)"  stroke-width="3"/>
<line x1="121.6" y1="132.8" x2="115.0" y2="172.3" opacity="1.0" stroke="rgb(0,0,0)"  stroke-width="3"/>
<line x1="115.0" y1="172.3" x2="145.8" y2="197.8" opacity="1.0" stroke="rgb(0,0,0)"  stroke-width="3"/>
<line x1="124.2" y1="170.6" x2="145.8" y2="188.4" opacity="1.0" stroke="rgb(0,0,0)"  stroke-width="3"/>
<line x1="145.8" y1="197.8" x2="183.3" y2="183.8" opacity="1.0" stroke="rgb(0,0,0)"  stroke-width="3"/>
<line x1="183.3" y1="183.8" x2="189.9" y2="144.4" opacity="1.0" stroke="rgb(0,0,0)"  stroke-width="3"/>
<line x1="177.2" y1="176.7" x2="181.8" y2="149.1" opacity="1.0" stroke="rgb(0,0,0)"  stroke-width="3"/>
<text x="459.828532" y="227.807473" fill="rgb(255,181,181)" stroke-width="0" font-weight="bold" font-size="25.92" >B</text>
<text x="402.698360" y="283.808732" fill="rgb(12,12,255)" stroke-width="0" font-weight="bold" font-size="25.92" >N</text>
<text x="256.482612" y="347.142600" fill="rgb(12,12,255)" stroke-width="0" font-weight="bold" font-size="25.92" >N</text>
<text x="536.892151" y="249.283049" fill="rgb(12,12,255)" stroke-width="0" font-weight="bold" font-size="25.92" >N</text>
<text x="269.785184" y="268.256313" fill="rgb(255,181,181)" stroke-width="0" font-weight="bold" font-size="25.92" >B</text>
<text x="208.119410" y="217.292859" fill="rgb(12,12,255)" stroke-width="0" font-weight="bold" font-size="25.92" >N</text>
</svg>
</g>
</svg>
