<?xml version="1.0"?>
<svg version="1.1" id="topsvg"
xmlns="http://www.w3.org/2000/svg" xmlns:xlink="http://www.w3.org/1999/xlink"
xmlns:cml="http://www.xml-cml.org/schema" x="0" y="0" width="200px" height="200px" viewBox="0 0 100 100">
<title>GD296.sdf - Open Babel Depiction</title>
<rect x="0" y="0" width="100" height="100" fill="white"/>
<g transform="translate(0,0)">
<svg width="100" height="100" x="0" y="0" viewBox="0 0 571.327 560"
font-family="sans-serif" stroke="rgb(0,0,0)" stroke-width="3"  stroke-linecap="round">
<line x1="180.0" y1="285.9" x2="160.0" y2="320.6" opacity="1.0" stroke="rgb(0,0,0)"  stroke-width="3"/>
<line x1="160.0" y1="251.3" x2="120.0" y2="251.3" opacity="1.0" stroke="rgb(0,0,0)"  stroke-width="3"/>
<line x1="462.0" y1="180.0" x2="438.7" y2="166.5" opacity="1.0" stroke="rgb(0,0,0)"  stroke-width="3"/>
<line x1="427.4" y1="147.0" x2="427.4" y2="120.0" opacity="1.0" stroke="rgb(0,0,0)"  stroke-width="3"/>
<line x1="416.1" y1="166.5" x2="392.8" y2="180.0" opacity="1.0" stroke="rgb(0,0,0)"  stroke-width="3"/>
<line x1="254.2" y1="460.0" x2="219.6" y2="480.0" opacity="1.0" stroke="rgb(0,0,0)"  stroke-width="3"/>
<line x1="219.6" y1="480.0" x2="184.9" y2="500.0" opacity="1.0" stroke="rgb(0,0,0)"  stroke-width="3"/>
<line x1="219.6" y1="480.0" x2="184.9" y2="460.0" opacity="1.0" stroke="rgb(0,0,0)"  stroke-width="3"/>
<line x1="219.6" y1="480.0" x2="219.6" y2="520.0" opacity="1.0" stroke="rgb(0,0,0)"  stroke-width="3"/>
<line x1="323.5" y1="460.0" x2="358.1" y2="480.0" opacity="1.0" stroke="rgb(0,0,0)"  stroke-width="3"/>
<line x1="358.1" y1="480.0" x2="392.8" y2="460.0" opacity="1.0" stroke="rgb(0,0,0)"  stroke-width="3"/>
<line x1="358.1" y1="480.0" x2="392.8" y2="500.0" opacity="1.0" stroke="rgb(0,0,0)"  stroke-width="3"/>
<line x1="358.1" y1="480.0" x2="358.1" y2="520.0" opacity="1.0" stroke="rgb(0,0,0)"  stroke-width="3"/>
<line x1="288.8" y1="360.0" x2="288.8" y2="400.0" opacity="1.0" stroke="rgb(0,0,0)"  stroke-width="3"/>
<line x1="180.0" y1="285.9" x2="160.0" y2="251.3" opacity="1.0" stroke="rgb(0,0,0)"  stroke-width="3"/>
<line x1="183.2" y1="277.1" x2="169.2" y2="252.9" opacity="1.0" stroke="rgb(0,0,0)"  stroke-width="3"/>
<line x1="160.0" y1="251.3" x2="184.9" y2="220.0" opacity="1.0" stroke="rgb(0,0,0)"  stroke-width="3"/>
<line x1="184.9" y1="220.0" x2="219.6" y2="240.0" opacity="1.0" stroke="rgb(0,0,0)"  stroke-width="3"/>
<line x1="186.5" y1="229.2" x2="210.8" y2="243.2" opacity="1.0" stroke="rgb(0,0,0)"  stroke-width="3"/>
<line x1="219.6" y1="240.0" x2="219.6" y2="267.0" opacity="1.0" stroke="rgb(0,0,0)"  stroke-width="3"/>
<line x1="206.7" y1="281.9" x2="180.0" y2="285.9" opacity="1.0" stroke="rgb(0,0,0)"  stroke-width="3"/>
<line x1="397.7" y1="285.9" x2="371.0" y2="281.9" opacity="1.0" stroke="rgb(0,0,0)"  stroke-width="3"/>
<line x1="358.1" y1="267.0" x2="358.1" y2="240.0" opacity="1.0" stroke="rgb(0,0,0)"  stroke-width="3"/>
<line x1="358.1" y1="240.0" x2="392.8" y2="220.0" opacity="1.0" stroke="rgb(0,0,0)"  stroke-width="3"/>
<line x1="366.9" y1="243.2" x2="391.2" y2="229.2" opacity="1.0" stroke="rgb(0,0,0)"  stroke-width="3"/>
<line x1="392.8" y1="220.0" x2="417.7" y2="251.3" opacity="1.0" stroke="rgb(0,0,0)"  stroke-width="3"/>
<line x1="417.7" y1="251.3" x2="397.7" y2="285.9" opacity="1.0" stroke="rgb(0,0,0)"  stroke-width="3"/>
<line x1="408.4" y1="252.9" x2="394.4" y2="277.1" opacity="1.0" stroke="rgb(0,0,0)"  stroke-width="3"/>
<line x1="180.0" y1="355.2" x2="160.0" y2="320.6" opacity="1.0" stroke="rgb(0,0,0)"  stroke-width="3"/>
<line x1="160.0" y1="320.6" x2="120.0" y2="320.6" opacity="1.0" stroke="rgb(0,0,0)"  stroke-width="3"/>
<line x1="154.0" y1="327.8" x2="126.0" y2="327.8" opacity="1.0" stroke="rgb(0,0,0)"  stroke-width="3"/>
<line x1="120.0" y1="320.6" x2="100.0" y2="355.2" opacity="1.0" stroke="rgb(0,0,0)"  stroke-width="3"/>
<line x1="100.0" y1="355.2" x2="120.0" y2="389.9" opacity="1.0" stroke="rgb(0,0,0)"  stroke-width="3"/>
<line x1="109.2" y1="356.8" x2="123.2" y2="381.1" opacity="1.0" stroke="rgb(0,0,0)"  stroke-width="3"/>
<line x1="120.0" y1="389.9" x2="160.0" y2="389.9" opacity="1.0" stroke="rgb(0,0,0)"  stroke-width="3"/>
<line x1="160.0" y1="389.9" x2="180.0" y2="355.2" opacity="1.0" stroke="rgb(0,0,0)"  stroke-width="3"/>
<line x1="156.8" y1="381.1" x2="170.8" y2="356.8" opacity="1.0" stroke="rgb(0,0,0)"  stroke-width="3"/>
<line x1="100.0" y1="285.9" x2="120.0" y2="251.3" opacity="1.0" stroke="rgb(0,0,0)"  stroke-width="3"/>
<line x1="120.0" y1="251.3" x2="100.0" y2="216.7" opacity="1.0" stroke="rgb(0,0,0)"  stroke-width="3"/>
<line x1="110.8" y1="249.7" x2="96.8" y2="225.4" opacity="1.0" stroke="rgb(0,0,0)"  stroke-width="3"/>
<line x1="100.0" y1="216.7" x2="60.0" y2="216.7" opacity="1.0" stroke="rgb(0,0,0)"  stroke-width="3"/>
<line x1="60.0" y1="216.7" x2="40.0" y2="251.3" opacity="1.0" stroke="rgb(0,0,0)"  stroke-width="3"/>
<line x1="63.2" y1="225.4" x2="49.2" y2="249.7" opacity="1.0" stroke="rgb(0,0,0)"  stroke-width="3"/>
<line x1="40.0" y1="251.3" x2="60.0" y2="285.9" opacity="1.0" stroke="rgb(0,0,0)"  stroke-width="3"/>
<line x1="60.0" y1="285.9" x2="100.0" y2="285.9" opacity="1.0" stroke="rgb(0,0,0)"  stroke-width="3"/>
<line x1="66.0" y1="278.7" x2="94.0" y2="278.7" opacity="1.0" stroke="rgb(0,0,0)"  stroke-width="3"/>
<line x1="184.9" y1="220.0" x2="184.9" y2="180.0" opacity="1.0" stroke="rgb(0,0,0)"  stroke-width="3"/>
<line x1="184.9" y1="180.0" x2="219.6" y2="160.0" opacity="1.0" stroke="rgb(0,0,0)"  stroke-width="3"/>
<line x1="193.7" y1="183.2" x2="218.0" y2="169.2" opacity="1.0" stroke="rgb(0,0,0)"  stroke-width="3"/>
<line x1="219.6" y1="160.0" x2="254.2" y2="180.0" opacity="1.0" stroke="rgb(0,0,0)"  stroke-width="3"/>
<line x1="254.2" y1="180.0" x2="254.2" y2="220.0" opacity="1.0" stroke="rgb(0,0,0)"  stroke-width="3"/>
<line x1="247.0" y1="186.0" x2="247.0" y2="214.0" opacity="1.0" stroke="rgb(0,0,0)"  stroke-width="3"/>
<line x1="254.2" y1="220.0" x2="219.6" y2="240.0" opacity="1.0" stroke="rgb(0,0,0)"  stroke-width="3"/>
<line x1="219.6" y1="120.0" x2="219.6" y2="160.0" opacity="1.0" stroke="rgb(0,0,0)"  stroke-width="3"/>
<line x1="254.2" y1="180.0" x2="288.8" y2="160.0" opacity="1.0" stroke="rgb(0,0,0)"  stroke-width="3"/>
<line x1="288.8" y1="160.0" x2="288.8" y2="120.0" opacity="1.0" stroke="rgb(0,0,0)"  stroke-width="3"/>
<line x1="281.6" y1="154.0" x2="281.6" y2="126.0" opacity="1.0" stroke="rgb(0,0,0)"  stroke-width="3"/>
<line x1="288.8" y1="120.0" x2="254.2" y2="100.0" opacity="1.0" stroke="rgb(0,0,0)"  stroke-width="3"/>
<line x1="254.2" y1="100.0" x2="219.6" y2="120.0" opacity="1.0" stroke="rgb(0,0,0)"  stroke-width="3"/>
<line x1="252.6" y1="109.2" x2="228.4" y2="123.2" opacity="1.0" stroke="rgb(0,0,0)"  stroke-width="3"/>
<line x1="288.8" y1="280.0" x2="254.2" y2="300.0" opacity="1.0" stroke="rgb(0,0,0)"  stroke-width="3"/>
<line x1="254.2" y1="300.0" x2="230.8" y2="286.5" opacity="1.0" stroke="rgb(0,0,0)"  stroke-width="3"/>
<line x1="254.2" y1="220.0" x2="277.6" y2="233.5" opacity="1.0" stroke="rgb(0,0,0)"  stroke-width="3"/>
<line x1="288.8" y1="253.0" x2="288.8" y2="280.0" opacity="1.0" stroke="rgb(0,0,0)"  stroke-width="3"/>
<line x1="288.8" y1="360.0" x2="254.2" y2="340.0" opacity="1.0" stroke="rgb(0,0,0)"  stroke-width="3"/>
<line x1="254.2" y1="340.0" x2="254.2" y2="300.0" opacity="1.0" stroke="rgb(0,0,0)"  stroke-width="3"/>
<line x1="261.4" y1="334.0" x2="261.4" y2="306.0" opacity="1.0" stroke="rgb(0,0,0)"  stroke-width="3"/>
<line x1="288.8" y1="280.0" x2="323.5" y2="300.0" opacity="1.0" stroke="rgb(0,0,0)"  stroke-width="3"/>
<line x1="290.4" y1="289.2" x2="314.7" y2="303.2" opacity="1.0" stroke="rgb(0,0,0)"  stroke-width="3"/>
<line x1="323.5" y1="300.0" x2="323.5" y2="340.0" opacity="1.0" stroke="rgb(0,0,0)"  stroke-width="3"/>
<line x1="323.5" y1="340.0" x2="288.8" y2="360.0" opacity="1.0" stroke="rgb(0,0,0)"  stroke-width="3"/>
<line x1="314.7" y1="336.8" x2="290.4" y2="350.8" opacity="1.0" stroke="rgb(0,0,0)"  stroke-width="3"/>
<line x1="496.7" y1="240.0" x2="462.0" y2="220.0" opacity="1.0" stroke="rgb(0,0,0)"  stroke-width="3"/>
<line x1="462.0" y1="220.0" x2="462.0" y2="180.0" opacity="1.0" stroke="rgb(0,0,0)"  stroke-width="3"/>
<line x1="469.2" y1="214.0" x2="469.2" y2="186.0" opacity="1.0" stroke="rgb(0,0,0)"  stroke-width="3"/>
<line x1="462.0" y1="180.0" x2="496.7" y2="160.0" opacity="1.0" stroke="rgb(0,0,0)"  stroke-width="3"/>
<line x1="496.7" y1="160.0" x2="531.3" y2="180.0" opacity="1.0" stroke="rgb(0,0,0)"  stroke-width="3"/>
<line x1="498.3" y1="169.2" x2="522.5" y2="183.2" opacity="1.0" stroke="rgb(0,0,0)"  stroke-width="3"/>
<line x1="531.3" y1="180.0" x2="531.3" y2="220.0" opacity="1.0" stroke="rgb(0,0,0)"  stroke-width="3"/>
<line x1="531.3" y1="220.0" x2="496.7" y2="240.0" opacity="1.0" stroke="rgb(0,0,0)"  stroke-width="3"/>
<line x1="522.5" y1="216.8" x2="498.3" y2="230.8" opacity="1.0" stroke="rgb(0,0,0)"  stroke-width="3"/>
<line x1="462.0" y1="100.0" x2="427.4" y2="120.0" opacity="1.0" stroke="rgb(0,0,0)"  stroke-width="3"/>
<line x1="427.4" y1="120.0" x2="392.8" y2="100.0" opacity="1.0" stroke="rgb(0,0,0)"  stroke-width="3"/>
<line x1="425.8" y1="110.8" x2="401.6" y2="96.8" opacity="1.0" stroke="rgb(0,0,0)"  stroke-width="3"/>
<line x1="392.8" y1="100.0" x2="392.8" y2="60.0" opacity="1.0" stroke="rgb(0,0,0)"  stroke-width="3"/>
<line x1="392.8" y1="60.0" x2="427.4" y2="40.0" opacity="1.0" stroke="rgb(0,0,0)"  stroke-width="3"/>
<line x1="401.6" y1="63.2" x2="425.8" y2="49.2" opacity="1.0" stroke="rgb(0,0,0)"  stroke-width="3"/>
<line x1="427.4" y1="40.0" x2="462.0" y2="60.0" opacity="1.0" stroke="rgb(0,0,0)"  stroke-width="3"/>
<line x1="462.0" y1="60.0" x2="462.0" y2="100.0" opacity="1.0" stroke="rgb(0,0,0)"  stroke-width="3"/>
<line x1="454.8" y1="66.0" x2="454.8" y2="94.0" opacity="1.0" stroke="rgb(0,0,0)"  stroke-width="3"/>
<line x1="300.1" y1="233.5" x2="323.5" y2="220.0" opacity="1.0" stroke="rgb(0,0,0)"  stroke-width="3"/>
<line x1="323.5" y1="220.0" x2="358.1" y2="240.0" opacity="1.0" stroke="rgb(0,0,0)"  stroke-width="3"/>
<line x1="346.9" y1="286.5" x2="323.5" y2="300.0" opacity="1.0" stroke="rgb(0,0,0)"  stroke-width="3"/>
<line x1="323.5" y1="220.0" x2="323.5" y2="180.0" opacity="1.0" stroke="rgb(0,0,0)"  stroke-width="3"/>
<line x1="330.7" y1="214.0" x2="330.7" y2="186.0" opacity="1.0" stroke="rgb(0,0,0)"  stroke-width="3"/>
<line x1="323.5" y1="180.0" x2="358.1" y2="160.0" opacity="1.0" stroke="rgb(0,0,0)"  stroke-width="3"/>
<line x1="358.1" y1="160.0" x2="392.8" y2="180.0" opacity="1.0" stroke="rgb(0,0,0)"  stroke-width="3"/>
<line x1="359.7" y1="169.2" x2="384.0" y2="183.2" opacity="1.0" stroke="rgb(0,0,0)"  stroke-width="3"/>
<line x1="392.8" y1="180.0" x2="392.8" y2="220.0" opacity="1.0" stroke="rgb(0,0,0)"  stroke-width="3"/>
<line x1="477.7" y1="285.9" x2="457.7" y2="320.6" opacity="1.0" stroke="rgb(0,0,0)"  stroke-width="3"/>
<line x1="457.7" y1="320.6" x2="417.7" y2="320.6" opacity="1.0" stroke="rgb(0,0,0)"  stroke-width="3"/>
<line x1="451.7" y1="313.4" x2="423.7" y2="313.4" opacity="1.0" stroke="rgb(0,0,0)"  stroke-width="3"/>
<line x1="417.7" y1="320.6" x2="397.7" y2="285.9" opacity="1.0" stroke="rgb(0,0,0)"  stroke-width="3"/>
<line x1="417.7" y1="251.3" x2="457.7" y2="251.3" opacity="1.0" stroke="rgb(0,0,0)"  stroke-width="3"/>
<line x1="457.7" y1="251.3" x2="477.7" y2="285.9" opacity="1.0" stroke="rgb(0,0,0)"  stroke-width="3"/>
<line x1="454.4" y1="260.1" x2="468.4" y2="284.3" opacity="1.0" stroke="rgb(0,0,0)"  stroke-width="3"/>
<line x1="254.2" y1="420.0" x2="288.8" y2="400.0" opacity="1.0" stroke="rgb(0,0,0)"  stroke-width="3"/>
<line x1="288.8" y1="400.0" x2="323.5" y2="420.0" opacity="1.0" stroke="rgb(0,0,0)"  stroke-width="3"/>
<line x1="290.4" y1="409.2" x2="314.7" y2="423.2" opacity="1.0" stroke="rgb(0,0,0)"  stroke-width="3"/>
<line x1="323.5" y1="420.0" x2="323.5" y2="460.0" opacity="1.0" stroke="rgb(0,0,0)"  stroke-width="3"/>
<line x1="323.5" y1="460.0" x2="288.8" y2="480.0" opacity="1.0" stroke="rgb(0,0,0)"  stroke-width="3"/>
<line x1="314.7" y1="456.8" x2="290.4" y2="470.8" opacity="1.0" stroke="rgb(0,0,0)"  stroke-width="3"/>
<line x1="288.8" y1="480.0" x2="254.2" y2="460.0" opacity="1.0" stroke="rgb(0,0,0)"  stroke-width="3"/>
<line x1="254.2" y1="460.0" x2="254.2" y2="420.0" opacity="1.0" stroke="rgb(0,0,0)"  stroke-width="3"/>
<line x1="261.4" y1="454.0" x2="261.4" y2="426.0" opacity="1.0" stroke="rgb(0,0,0)"  stroke-width="3"/>
<text x="421.403852" y="167.999923" fill="rgb(12,12,255)" stroke-width="0" font-weight="bold" font-size="25.92" >N</text>
<text x="213.557768" y="287.999943" fill="rgb(12,12,255)" stroke-width="0" font-weight="bold" font-size="25.92" >N</text>
<text x="352.121824" y="287.999943" fill="rgb(12,12,255)" stroke-width="0" font-weight="bold" font-size="25.92" >N</text>
<text x="282.839796" y="247.999936" fill="rgb(255,181,181)" stroke-width="0" font-weight="bold" font-size="25.92" >B</text>
</svg>
</g>
</svg>
