<?xml version="1.0"?>
<svg version="1.1" id="topsvg"
xmlns="http://www.w3.org/2000/svg" xmlns:xlink="http://www.w3.org/1999/xlink"
xmlns:cml="http://www.xml-cml.org/schema" x="0" y="0" width="200px" height="200px" viewBox="0 0 100 100">
<title>GD308.sdf - Open Babel Depiction</title>
<rect x="0" y="0" width="100" height="100" fill="white"/>
<g transform="translate(0,0)">
<svg width="100" height="100" x="0" y="0" viewBox="0 0 731.596 470.395"
font-family="sans-serif" stroke="rgb(0,0,0)" stroke-width="3"  stroke-linecap="round">
<line x1="656.5" y1="373.7" x2="659.1" y2="412.7" opacity="1.0" stroke="rgb(0,0,0)"  stroke-width="3"/>
<line x1="656.5" y1="373.7" x2="689.0" y2="351.9" opacity="1.0" stroke="rgb(0,0,0)"  stroke-width="3"/>
<line x1="656.5" y1="373.7" x2="691.6" y2="391.0" opacity="1.0" stroke="rgb(0,0,0)"  stroke-width="3"/>
<line x1="621.4" y1="356.3" x2="656.5" y2="373.7" opacity="1.0" stroke="rgb(0,0,0)"  stroke-width="3"/>
<line x1="386.0" y1="391.4" x2="388.6" y2="430.4" opacity="1.0" stroke="rgb(0,0,0)"  stroke-width="3"/>
<line x1="386.0" y1="391.4" x2="350.9" y2="374.0" opacity="1.0" stroke="rgb(0,0,0)"  stroke-width="3"/>
<line x1="386.0" y1="391.4" x2="353.5" y2="413.1" opacity="1.0" stroke="rgb(0,0,0)"  stroke-width="3"/>
<line x1="418.6" y1="369.6" x2="386.0" y2="391.4" opacity="1.0" stroke="rgb(0,0,0)"  stroke-width="3"/>
<line x1="95.1" y1="96.7" x2="62.6" y2="118.5" opacity="1.0" stroke="rgb(0,0,0)"  stroke-width="3"/>
<line x1="95.1" y1="96.7" x2="92.6" y2="57.7" opacity="1.0" stroke="rgb(0,0,0)"  stroke-width="3"/>
<line x1="95.1" y1="96.7" x2="60.0" y2="79.4" opacity="1.0" stroke="rgb(0,0,0)"  stroke-width="3"/>
<line x1="130.2" y1="114.0" x2="95.1" y2="96.7" opacity="1.0" stroke="rgb(0,0,0)"  stroke-width="3"/>
<line x1="365.6" y1="79.0" x2="400.7" y2="96.3" opacity="1.0" stroke="rgb(0,0,0)"  stroke-width="3"/>
<line x1="365.6" y1="79.0" x2="363.0" y2="40.0" opacity="1.0" stroke="rgb(0,0,0)"  stroke-width="3"/>
<line x1="365.6" y1="79.0" x2="398.1" y2="57.3" opacity="1.0" stroke="rgb(0,0,0)"  stroke-width="3"/>
<line x1="333.1" y1="100.8" x2="365.6" y2="79.0" opacity="1.0" stroke="rgb(0,0,0)"  stroke-width="3"/>
<line x1="483.6" y1="326.2" x2="486.2" y2="365.2" opacity="1.0" stroke="rgb(0,0,0)"  stroke-width="3"/>
<line x1="491.2" y1="331.7" x2="493.0" y2="358.7" opacity="1.0" stroke="rgb(0,0,0)"  stroke-width="3"/>
<line x1="486.2" y1="365.2" x2="553.8" y2="360.8" opacity="1.0" stroke="rgb(0,0,0)"  stroke-width="3"/>
<line x1="553.8" y1="360.8" x2="551.2" y2="321.7" opacity="1.0" stroke="rgb(0,0,0)"  stroke-width="3"/>
<line x1="546.2" y1="355.3" x2="544.5" y2="328.2" opacity="1.0" stroke="rgb(0,0,0)"  stroke-width="3"/>
<line x1="551.2" y1="321.7" x2="527.8" y2="310.2" opacity="1.0" stroke="rgb(0,0,0)"  stroke-width="3"/>
<line x1="505.4" y1="311.6" x2="483.6" y2="326.2" opacity="1.0" stroke="rgb(0,0,0)"  stroke-width="3"/>
<line x1="197.8" y1="109.6" x2="265.4" y2="105.2" opacity="1.0" stroke="rgb(0,0,0)"  stroke-width="3"/>
<line x1="265.4" y1="105.2" x2="268.0" y2="144.2" opacity="1.0" stroke="rgb(0,0,0)"  stroke-width="3"/>
<line x1="258.7" y1="111.7" x2="260.4" y2="138.7" opacity="1.0" stroke="rgb(0,0,0)"  stroke-width="3"/>
<line x1="268.0" y1="144.2" x2="246.3" y2="158.7" opacity="1.0" stroke="rgb(0,0,0)"  stroke-width="3"/>
<line x1="223.8" y1="160.2" x2="200.4" y2="148.7" opacity="1.0" stroke="rgb(0,0,0)"  stroke-width="3"/>
<line x1="200.4" y1="148.7" x2="197.8" y2="109.6" opacity="1.0" stroke="rgb(0,0,0)"  stroke-width="3"/>
<line x1="207.2" y1="142.2" x2="205.4" y2="115.1" opacity="1.0" stroke="rgb(0,0,0)"  stroke-width="3"/>
<line x1="583.8" y1="300.0" x2="551.2" y2="321.7" opacity="1.0" stroke="rgb(0,0,0)"  stroke-width="3"/>
<line x1="553.8" y1="360.8" x2="588.9" y2="378.1" opacity="1.0" stroke="rgb(0,0,0)"  stroke-width="3"/>
<line x1="588.9" y1="378.1" x2="621.4" y2="356.3" opacity="1.0" stroke="rgb(0,0,0)"  stroke-width="3"/>
<line x1="589.9" y1="368.8" x2="612.4" y2="353.7" opacity="1.0" stroke="rgb(0,0,0)"  stroke-width="3"/>
<line x1="621.4" y1="356.3" x2="618.9" y2="317.3" opacity="1.0" stroke="rgb(0,0,0)"  stroke-width="3"/>
<line x1="618.9" y1="317.3" x2="583.8" y2="300.0" opacity="1.0" stroke="rgb(0,0,0)"  stroke-width="3"/>
<line x1="610.3" y1="321.1" x2="586.0" y2="309.1" opacity="1.0" stroke="rgb(0,0,0)"  stroke-width="3"/>
<line x1="416.0" y1="330.6" x2="418.6" y2="369.6" opacity="1.0" stroke="rgb(0,0,0)"  stroke-width="3"/>
<line x1="418.6" y1="369.6" x2="453.7" y2="386.9" opacity="1.0" stroke="rgb(0,0,0)"  stroke-width="3"/>
<line x1="427.1" y1="365.8" x2="451.5" y2="377.8" opacity="1.0" stroke="rgb(0,0,0)"  stroke-width="3"/>
<line x1="453.7" y1="386.9" x2="486.2" y2="365.2" opacity="1.0" stroke="rgb(0,0,0)"  stroke-width="3"/>
<line x1="483.6" y1="326.2" x2="448.5" y2="308.9" opacity="1.0" stroke="rgb(0,0,0)"  stroke-width="3"/>
<line x1="448.5" y1="308.9" x2="416.0" y2="330.6" opacity="1.0" stroke="rgb(0,0,0)"  stroke-width="3"/>
<line x1="447.6" y1="318.2" x2="425.0" y2="333.2" opacity="1.0" stroke="rgb(0,0,0)"  stroke-width="3"/>
<line x1="408.3" y1="213.5" x2="410.9" y2="252.5" opacity="1.0" stroke="rgb(0,0,0)"  stroke-width="3"/>
<line x1="415.9" y1="219.0" x2="417.7" y2="246.0" opacity="1.0" stroke="rgb(0,0,0)"  stroke-width="3"/>
<line x1="410.9" y1="252.5" x2="434.3" y2="264.1" opacity="1.0" stroke="rgb(0,0,0)"  stroke-width="3"/>
<line x1="456.8" y1="262.6" x2="478.5" y2="248.1" opacity="1.0" stroke="rgb(0,0,0)"  stroke-width="3"/>
<line x1="478.5" y1="248.1" x2="476.0" y2="209.0" opacity="1.0" stroke="rgb(0,0,0)"  stroke-width="3"/>
<line x1="470.9" y1="242.6" x2="469.2" y2="215.5" opacity="1.0" stroke="rgb(0,0,0)"  stroke-width="3"/>
<line x1="476.0" y1="209.0" x2="452.5" y2="197.5" opacity="1.0" stroke="rgb(0,0,0)"  stroke-width="3"/>
<line x1="430.1" y1="199.0" x2="408.3" y2="213.5" opacity="1.0" stroke="rgb(0,0,0)"  stroke-width="3"/>
<line x1="446.8" y1="282.8" x2="448.5" y2="308.9" opacity="1.0" stroke="rgb(0,0,0)"  stroke-width="3"/>
<line x1="515.3" y1="291.5" x2="513.6" y2="265.4" opacity="1.0" stroke="rgb(0,0,0)"  stroke-width="3"/>
<line x1="513.6" y1="265.4" x2="478.5" y2="248.1" opacity="1.0" stroke="rgb(0,0,0)"  stroke-width="3"/>
<line x1="543.6" y1="204.6" x2="546.1" y2="243.7" opacity="1.0" stroke="rgb(0,0,0)"  stroke-width="3"/>
<line x1="546.1" y1="243.7" x2="513.6" y2="265.4" opacity="1.0" stroke="rgb(0,0,0)"  stroke-width="3"/>
<line x1="537.1" y1="241.0" x2="514.6" y2="256.1" opacity="1.0" stroke="rgb(0,0,0)"  stroke-width="3"/>
<line x1="476.0" y1="209.0" x2="508.5" y2="187.3" opacity="1.0" stroke="rgb(0,0,0)"  stroke-width="3"/>
<line x1="508.5" y1="187.3" x2="543.6" y2="204.6" opacity="1.0" stroke="rgb(0,0,0)"  stroke-width="3"/>
<line x1="510.7" y1="196.4" x2="535.0" y2="208.4" opacity="1.0" stroke="rgb(0,0,0)"  stroke-width="3"/>
<line x1="343.3" y1="256.9" x2="340.7" y2="217.9" opacity="1.0" stroke="rgb(0,0,0)"  stroke-width="3"/>
<line x1="340.7" y1="217.9" x2="373.3" y2="196.2" opacity="1.0" stroke="rgb(0,0,0)"  stroke-width="3"/>
<line x1="349.7" y1="220.5" x2="372.3" y2="205.5" opacity="1.0" stroke="rgb(0,0,0)"  stroke-width="3"/>
<line x1="373.3" y1="196.2" x2="408.3" y2="213.5" opacity="1.0" stroke="rgb(0,0,0)"  stroke-width="3"/>
<line x1="410.9" y1="252.5" x2="378.4" y2="274.2" opacity="1.0" stroke="rgb(0,0,0)"  stroke-width="3"/>
<line x1="378.4" y1="274.2" x2="343.3" y2="256.9" opacity="1.0" stroke="rgb(0,0,0)"  stroke-width="3"/>
<line x1="376.2" y1="265.1" x2="351.8" y2="253.1" opacity="1.0" stroke="rgb(0,0,0)"  stroke-width="3"/>
<line x1="205.5" y1="226.7" x2="238.0" y2="205.0" opacity="1.0" stroke="rgb(0,0,0)"  stroke-width="3"/>
<line x1="214.5" y1="229.4" x2="237.0" y2="214.3" opacity="1.0" stroke="rgb(0,0,0)"  stroke-width="3"/>
<line x1="238.0" y1="205.0" x2="273.1" y2="222.3" opacity="1.0" stroke="rgb(0,0,0)"  stroke-width="3"/>
<line x1="273.1" y1="222.3" x2="275.7" y2="261.4" opacity="1.0" stroke="rgb(0,0,0)"  stroke-width="3"/>
<line x1="266.3" y1="228.8" x2="268.1" y2="255.8" opacity="1.0" stroke="rgb(0,0,0)"  stroke-width="3"/>
<line x1="275.7" y1="261.4" x2="243.1" y2="283.1" opacity="1.0" stroke="rgb(0,0,0)"  stroke-width="3"/>
<line x1="243.1" y1="283.1" x2="208.0" y2="265.8" opacity="1.0" stroke="rgb(0,0,0)"  stroke-width="3"/>
<line x1="240.9" y1="274.0" x2="216.6" y2="262.0" opacity="1.0" stroke="rgb(0,0,0)"  stroke-width="3"/>
<line x1="208.0" y1="265.8" x2="205.5" y2="226.7" opacity="1.0" stroke="rgb(0,0,0)"  stroke-width="3"/>
<line x1="299.1" y1="272.9" x2="275.7" y2="261.4" opacity="1.0" stroke="rgb(0,0,0)"  stroke-width="3"/>
<line x1="273.1" y1="222.3" x2="294.8" y2="207.8" opacity="1.0" stroke="rgb(0,0,0)"  stroke-width="3"/>
<line x1="317.3" y1="206.3" x2="340.7" y2="217.9" opacity="1.0" stroke="rgb(0,0,0)"  stroke-width="3"/>
<line x1="343.3" y1="256.9" x2="321.6" y2="271.4" opacity="1.0" stroke="rgb(0,0,0)"  stroke-width="3"/>
<line x1="268.0" y1="144.2" x2="303.1" y2="161.5" opacity="1.0" stroke="rgb(0,0,0)"  stroke-width="3"/>
<line x1="303.1" y1="161.5" x2="304.8" y2="187.6" opacity="1.0" stroke="rgb(0,0,0)"  stroke-width="3"/>
<line x1="238.0" y1="205.0" x2="236.3" y2="178.9" opacity="1.0" stroke="rgb(0,0,0)"  stroke-width="3"/>
<line x1="171.0" y1="324.6" x2="133.3" y2="335.2" opacity="1.0" stroke="rgb(0,0,0)"  stroke-width="3"/>
<line x1="133.3" y1="335.2" x2="105.3" y2="307.9" opacity="1.0" stroke="rgb(0,0,0)"  stroke-width="3"/>
<line x1="134.1" y1="325.9" x2="114.6" y2="307.0" opacity="1.0" stroke="rgb(0,0,0)"  stroke-width="3"/>
<line x1="105.3" y1="307.9" x2="114.9" y2="270.0" opacity="1.0" stroke="rgb(0,0,0)"  stroke-width="3"/>
<line x1="114.9" y1="270.0" x2="152.6" y2="259.4" opacity="1.0" stroke="rgb(0,0,0)"  stroke-width="3"/>
<line x1="122.7" y1="275.3" x2="148.8" y2="268.0" opacity="1.0" stroke="rgb(0,0,0)"  stroke-width="3"/>
<line x1="152.6" y1="259.4" x2="180.6" y2="286.7" opacity="1.0" stroke="rgb(0,0,0)"  stroke-width="3"/>
<line x1="180.6" y1="286.7" x2="171.0" y2="324.6" opacity="1.0" stroke="rgb(0,0,0)"  stroke-width="3"/>
<line x1="172.2" y1="290.7" x2="165.5" y2="317.0" opacity="1.0" stroke="rgb(0,0,0)"  stroke-width="3"/>
<line x1="102.9" y1="170.4" x2="64.2" y2="164.8" opacity="1.0" stroke="rgb(0,0,0)"  stroke-width="3"/>
<line x1="96.0" y1="176.7" x2="69.1" y2="172.8" opacity="1.0" stroke="rgb(0,0,0)"  stroke-width="3"/>
<line x1="64.2" y1="164.8" x2="40.0" y2="195.5" opacity="1.0" stroke="rgb(0,0,0)"  stroke-width="3"/>
<line x1="40.0" y1="195.5" x2="54.5" y2="231.9" opacity="1.0" stroke="rgb(0,0,0)"  stroke-width="3"/>
<line x1="48.9" y1="198.4" x2="59.0" y2="223.6" opacity="1.0" stroke="rgb(0,0,0)"  stroke-width="3"/>
<line x1="54.5" y1="231.9" x2="93.2" y2="237.5" opacity="1.0" stroke="rgb(0,0,0)"  stroke-width="3"/>
<line x1="93.2" y1="237.5" x2="117.4" y2="206.8" opacity="1.0" stroke="rgb(0,0,0)"  stroke-width="3"/>
<line x1="91.3" y1="228.3" x2="108.1" y2="207.0" opacity="1.0" stroke="rgb(0,0,0)"  stroke-width="3"/>
<line x1="117.4" y1="206.8" x2="102.9" y2="170.4" opacity="1.0" stroke="rgb(0,0,0)"  stroke-width="3"/>
<line x1="132.8" y1="153.1" x2="167.8" y2="170.4" opacity="1.0" stroke="rgb(0,0,0)"  stroke-width="3"/>
<line x1="141.3" y1="149.3" x2="165.7" y2="161.3" opacity="1.0" stroke="rgb(0,0,0)"  stroke-width="3"/>
<line x1="167.8" y1="170.4" x2="200.4" y2="148.7" opacity="1.0" stroke="rgb(0,0,0)"  stroke-width="3"/>
<line x1="197.8" y1="109.6" x2="162.7" y2="92.3" opacity="1.0" stroke="rgb(0,0,0)"  stroke-width="3"/>
<line x1="162.7" y1="92.3" x2="130.2" y2="114.0" opacity="1.0" stroke="rgb(0,0,0)"  stroke-width="3"/>
<line x1="161.7" y1="101.6" x2="139.2" y2="116.7" opacity="1.0" stroke="rgb(0,0,0)"  stroke-width="3"/>
<line x1="130.2" y1="114.0" x2="132.8" y2="153.1" opacity="1.0" stroke="rgb(0,0,0)"  stroke-width="3"/>
<line x1="298.0" y1="83.5" x2="265.4" y2="105.2" opacity="1.0" stroke="rgb(0,0,0)"  stroke-width="3"/>
<line x1="303.1" y1="161.5" x2="335.6" y2="139.8" opacity="1.0" stroke="rgb(0,0,0)"  stroke-width="3"/>
<line x1="304.1" y1="152.2" x2="326.6" y2="137.2" opacity="1.0" stroke="rgb(0,0,0)"  stroke-width="3"/>
<line x1="335.6" y1="139.8" x2="333.1" y2="100.8" opacity="1.0" stroke="rgb(0,0,0)"  stroke-width="3"/>
<line x1="333.1" y1="100.8" x2="298.0" y2="83.5" opacity="1.0" stroke="rgb(0,0,0)"  stroke-width="3"/>
<line x1="324.5" y1="104.6" x2="300.2" y2="92.6" opacity="1.0" stroke="rgb(0,0,0)"  stroke-width="3"/>
<line x1="114.9" y1="270.0" x2="93.2" y2="237.5" opacity="1.0" stroke="rgb(0,0,0)"  stroke-width="3"/>
<line x1="117.4" y1="206.8" x2="162.3" y2="214.9" opacity="1.0" stroke="rgb(0,0,0)"  stroke-width="3"/>
<line x1="162.3" y1="214.9" x2="152.6" y2="259.4" opacity="1.0" stroke="rgb(0,0,0)"  stroke-width="3"/>
<line x1="162.3" y1="214.9" x2="167.8" y2="170.4" opacity="1.0" stroke="rgb(0,0,0)"  stroke-width="3"/>
<line x1="205.5" y1="226.7" x2="162.3" y2="214.9" opacity="1.0" stroke="rgb(0,0,0)"  stroke-width="3"/>
<text x="299.641531" y="208.583466" fill="rgb(255,181,181)" stroke-width="0" font-weight="bold" font-size="25.92" >B</text>
<text x="229.468070" y="173.969394" fill="rgb(12,12,255)" stroke-width="0" font-weight="bold" font-size="25.92" >N</text>
<text x="304.751574" y="286.662519" fill="rgb(255,12,12)" stroke-width="0" font-weight="bold" font-size="25.92" >O</text>
<text x="439.988406" y="277.811610" fill="rgb(255,181,181)" stroke-width="0" font-weight="bold" font-size="25.92" >B</text>
<text x="510.161867" y="312.425682" fill="rgb(12,12,255)" stroke-width="0" font-weight="bold" font-size="25.92" >N</text>
<text x="434.878364" y="199.732557" fill="rgb(255,12,12)" stroke-width="0" font-weight="bold" font-size="25.92" >O</text>
</svg>
</g>
</svg>
