<?xml version="1.0"?>
<svg version="1.1" id="topsvg"
xmlns="http://www.w3.org/2000/svg" xmlns:xlink="http://www.w3.org/1999/xlink"
xmlns:cml="http://www.xml-cml.org/schema" x="0" y="0" width="200px" height="200px" viewBox="0 0 100 100">
<title>GD30.sdf - Open Babel Depiction</title>
<rect x="0" y="0" width="100" height="100" fill="white"/>
<g transform="translate(0,0)">
<svg width="100" height="100" x="0" y="0" viewBox="0 0 529.142 401.108"
font-family="sans-serif" stroke="rgb(0,0,0)" stroke-width="3"  stroke-linecap="round">
<line x1="449.0" y1="289.7" x2="449.0" y2="249.6" opacity="1.0" stroke="rgb(0,0,0)"  stroke-width="3"/>
<line x1="449.0" y1="289.7" x2="489.1" y2="289.7" opacity="1.0" stroke="rgb(0,0,0)"  stroke-width="3"/>
<line x1="449.0" y1="289.7" x2="449.1" y2="329.8" opacity="1.0" stroke="rgb(0,0,0)"  stroke-width="3"/>
<line x1="408.9" y1="289.8" x2="449.0" y2="289.7" opacity="1.0" stroke="rgb(0,0,0)"  stroke-width="3"/>
<line x1="293.4" y1="119.6" x2="253.3" y2="119.6" opacity="1.0" stroke="rgb(0,0,0)"  stroke-width="3"/>
<line x1="293.4" y1="119.6" x2="293.4" y2="79.5" opacity="1.0" stroke="rgb(0,0,0)"  stroke-width="3"/>
<line x1="293.4" y1="119.6" x2="333.5" y2="119.5" opacity="1.0" stroke="rgb(0,0,0)"  stroke-width="3"/>
<line x1="293.5" y1="159.8" x2="293.4" y2="119.6" opacity="1.0" stroke="rgb(0,0,0)"  stroke-width="3"/>
<line x1="133.4" y1="120.1" x2="111.7" y2="103.9" opacity="1.0" stroke="rgb(0,0,0)"  stroke-width="3"/>
<line x1="182.1" y1="116.1" x2="205.2" y2="148.8" opacity="1.0" stroke="rgb(0,0,0)"  stroke-width="3"/>
<line x1="205.2" y1="148.8" x2="181.2" y2="180.9" opacity="1.0" stroke="rgb(0,0,0)"  stroke-width="3"/>
<line x1="181.2" y1="180.9" x2="143.2" y2="168.0" opacity="1.0" stroke="rgb(0,0,0)"  stroke-width="3"/>
<line x1="177.8" y1="172.2" x2="151.2" y2="163.1" opacity="1.0" stroke="rgb(0,0,0)"  stroke-width="3"/>
<line x1="143.2" y1="168.0" x2="143.6" y2="140.9" opacity="1.0" stroke="rgb(0,0,0)"  stroke-width="3"/>
<line x1="156.2" y1="124.1" x2="182.1" y2="116.1" opacity="1.0" stroke="rgb(0,0,0)"  stroke-width="3"/>
<line x1="96.8" y1="265.8" x2="120.8" y2="233.7" opacity="1.0" stroke="rgb(0,0,0)"  stroke-width="3"/>
<line x1="120.8" y1="233.7" x2="158.8" y2="246.7" opacity="1.0" stroke="rgb(0,0,0)"  stroke-width="3"/>
<line x1="158.8" y1="246.7" x2="158.4" y2="273.8" opacity="1.0" stroke="rgb(0,0,0)"  stroke-width="3"/>
<line x1="145.8" y1="290.6" x2="119.9" y2="298.6" opacity="1.0" stroke="rgb(0,0,0)"  stroke-width="3"/>
<line x1="119.9" y1="298.6" x2="96.8" y2="265.8" opacity="1.0" stroke="rgb(0,0,0)"  stroke-width="3"/>
<line x1="122.3" y1="289.6" x2="106.1" y2="266.6" opacity="1.0" stroke="rgb(0,0,0)"  stroke-width="3"/>
<line x1="348.5" y1="255.0" x2="328.4" y2="289.9" opacity="1.0" stroke="rgb(0,0,0)"  stroke-width="3"/>
<line x1="339.3" y1="256.6" x2="325.2" y2="281.1" opacity="1.0" stroke="rgb(0,0,0)"  stroke-width="3"/>
<line x1="328.4" y1="289.9" x2="306.1" y2="283.9" opacity="1.0" stroke="rgb(0,0,0)"  stroke-width="3"/>
<line x1="293.6" y1="267.6" x2="293.5" y2="240.3" opacity="1.0" stroke="rgb(0,0,0)"  stroke-width="3"/>
<line x1="293.5" y1="240.3" x2="328.4" y2="220.2" opacity="1.0" stroke="rgb(0,0,0)"  stroke-width="3"/>
<line x1="328.4" y1="220.2" x2="348.5" y2="255.0" opacity="1.0" stroke="rgb(0,0,0)"  stroke-width="3"/>
<line x1="120.8" y1="233.7" x2="113.1" y2="194.4" opacity="1.0" stroke="rgb(0,0,0)"  stroke-width="3"/>
<line x1="126.7" y1="226.5" x2="121.3" y2="198.9" opacity="1.0" stroke="rgb(0,0,0)"  stroke-width="3"/>
<line x1="113.1" y1="194.4" x2="143.2" y2="168.0" opacity="1.0" stroke="rgb(0,0,0)"  stroke-width="3"/>
<line x1="181.2" y1="180.9" x2="189.0" y2="220.3" opacity="1.0" stroke="rgb(0,0,0)"  stroke-width="3"/>
<line x1="189.0" y1="220.3" x2="158.8" y2="246.7" opacity="1.0" stroke="rgb(0,0,0)"  stroke-width="3"/>
<line x1="179.7" y1="218.8" x2="158.6" y2="237.3" opacity="1.0" stroke="rgb(0,0,0)"  stroke-width="3"/>
<line x1="63.1" y1="338.6" x2="40.0" y2="305.9" opacity="1.0" stroke="rgb(0,0,0)"  stroke-width="3"/>
<line x1="40.0" y1="305.9" x2="56.8" y2="269.5" opacity="1.0" stroke="rgb(0,0,0)"  stroke-width="3"/>
<line x1="49.1" y1="303.4" x2="60.9" y2="277.9" opacity="1.0" stroke="rgb(0,0,0)"  stroke-width="3"/>
<line x1="56.8" y1="269.5" x2="96.8" y2="265.8" opacity="1.0" stroke="rgb(0,0,0)"  stroke-width="3"/>
<line x1="119.9" y1="298.6" x2="103.0" y2="335.0" opacity="1.0" stroke="rgb(0,0,0)"  stroke-width="3"/>
<line x1="103.0" y1="335.0" x2="63.1" y2="338.6" opacity="1.0" stroke="rgb(0,0,0)"  stroke-width="3"/>
<line x1="96.4" y1="328.4" x2="68.4" y2="330.9" opacity="1.0" stroke="rgb(0,0,0)"  stroke-width="3"/>
<line x1="258.8" y1="341.0" x2="224.0" y2="361.1" opacity="1.0" stroke="rgb(0,0,0)"  stroke-width="3"/>
<line x1="224.0" y1="361.1" x2="189.1" y2="341.0" opacity="1.0" stroke="rgb(0,0,0)"  stroke-width="3"/>
<line x1="222.4" y1="351.9" x2="197.9" y2="337.8" opacity="1.0" stroke="rgb(0,0,0)"  stroke-width="3"/>
<line x1="189.1" y1="341.0" x2="189.0" y2="300.8" opacity="1.0" stroke="rgb(0,0,0)"  stroke-width="3"/>
<line x1="189.0" y1="300.8" x2="223.9" y2="280.6" opacity="1.0" stroke="rgb(0,0,0)"  stroke-width="3"/>
<line x1="197.8" y1="304.0" x2="222.3" y2="289.9" opacity="1.0" stroke="rgb(0,0,0)"  stroke-width="3"/>
<line x1="223.9" y1="280.6" x2="258.8" y2="300.7" opacity="1.0" stroke="rgb(0,0,0)"  stroke-width="3"/>
<line x1="258.8" y1="300.7" x2="258.8" y2="341.0" opacity="1.0" stroke="rgb(0,0,0)"  stroke-width="3"/>
<line x1="251.6" y1="306.7" x2="251.6" y2="335.0" opacity="1.0" stroke="rgb(0,0,0)"  stroke-width="3"/>
<line x1="199.0" y1="79.7" x2="238.9" y2="76.1" opacity="1.0" stroke="rgb(0,0,0)"  stroke-width="3"/>
<line x1="238.9" y1="76.1" x2="262.0" y2="108.8" opacity="1.0" stroke="rgb(0,0,0)"  stroke-width="3"/>
<line x1="236.5" y1="85.1" x2="252.7" y2="108.1" opacity="1.0" stroke="rgb(0,0,0)"  stroke-width="3"/>
<line x1="262.0" y1="108.8" x2="245.2" y2="145.2" opacity="1.0" stroke="rgb(0,0,0)"  stroke-width="3"/>
<line x1="245.2" y1="145.2" x2="205.2" y2="148.8" opacity="1.0" stroke="rgb(0,0,0)"  stroke-width="3"/>
<line x1="238.6" y1="138.6" x2="210.6" y2="141.1" opacity="1.0" stroke="rgb(0,0,0)"  stroke-width="3"/>
<line x1="182.1" y1="116.1" x2="199.0" y2="79.7" opacity="1.0" stroke="rgb(0,0,0)"  stroke-width="3"/>
<line x1="191.2" y1="113.6" x2="203.0" y2="88.1" opacity="1.0" stroke="rgb(0,0,0)"  stroke-width="3"/>
<line x1="189.0" y1="220.3" x2="212.6" y2="233.9" opacity="1.0" stroke="rgb(0,0,0)"  stroke-width="3"/>
<line x1="223.9" y1="253.4" x2="223.9" y2="280.6" opacity="1.0" stroke="rgb(0,0,0)"  stroke-width="3"/>
<line x1="189.0" y1="300.8" x2="170.0" y2="292.2" opacity="1.0" stroke="rgb(0,0,0)"  stroke-width="3"/>
<line x1="282.3" y1="287.1" x2="258.8" y2="300.7" opacity="1.0" stroke="rgb(0,0,0)"  stroke-width="3"/>
<line x1="235.1" y1="233.9" x2="258.7" y2="220.2" opacity="1.0" stroke="rgb(0,0,0)"  stroke-width="3"/>
<line x1="258.7" y1="220.2" x2="293.5" y2="240.3" opacity="1.0" stroke="rgb(0,0,0)"  stroke-width="3"/>
<line x1="260.3" y1="229.5" x2="284.8" y2="243.6" opacity="1.0" stroke="rgb(0,0,0)"  stroke-width="3"/>
<line x1="408.9" y1="289.8" x2="388.8" y2="324.7" opacity="1.0" stroke="rgb(0,0,0)"  stroke-width="3"/>
<line x1="388.8" y1="324.7" x2="348.6" y2="324.7" opacity="1.0" stroke="rgb(0,0,0)"  stroke-width="3"/>
<line x1="382.8" y1="317.5" x2="354.6" y2="317.5" opacity="1.0" stroke="rgb(0,0,0)"  stroke-width="3"/>
<line x1="348.6" y1="324.7" x2="328.4" y2="289.9" opacity="1.0" stroke="rgb(0,0,0)"  stroke-width="3"/>
<line x1="348.5" y1="255.0" x2="388.8" y2="254.9" opacity="1.0" stroke="rgb(0,0,0)"  stroke-width="3"/>
<line x1="388.8" y1="254.9" x2="408.9" y2="289.8" opacity="1.0" stroke="rgb(0,0,0)"  stroke-width="3"/>
<line x1="385.6" y1="263.7" x2="399.7" y2="288.2" opacity="1.0" stroke="rgb(0,0,0)"  stroke-width="3"/>
<line x1="116.5" y1="64.0" x2="84.4" y2="40.0" opacity="1.0" stroke="rgb(0,0,0)"  stroke-width="3"/>
<line x1="84.4" y1="40.0" x2="47.5" y2="55.8" opacity="1.0" stroke="rgb(0,0,0)"  stroke-width="3"/>
<line x1="81.7" y1="49.0" x2="55.9" y2="60.0" opacity="1.0" stroke="rgb(0,0,0)"  stroke-width="3"/>
<line x1="47.5" y1="55.8" x2="42.8" y2="95.6" opacity="1.0" stroke="rgb(0,0,0)"  stroke-width="3"/>
<line x1="42.8" y1="95.6" x2="74.9" y2="119.6" opacity="1.0" stroke="rgb(0,0,0)"  stroke-width="3"/>
<line x1="51.9" y1="93.4" x2="74.4" y2="110.3" opacity="1.0" stroke="rgb(0,0,0)"  stroke-width="3"/>
<line x1="74.9" y1="119.6" x2="111.7" y2="103.9" opacity="1.0" stroke="rgb(0,0,0)"  stroke-width="3"/>
<line x1="111.7" y1="103.9" x2="116.5" y2="64.0" opacity="1.0" stroke="rgb(0,0,0)"  stroke-width="3"/>
<line x1="105.3" y1="97.0" x2="108.6" y2="69.1" opacity="1.0" stroke="rgb(0,0,0)"  stroke-width="3"/>
<line x1="293.5" y1="159.8" x2="328.3" y2="179.9" opacity="1.0" stroke="rgb(0,0,0)"  stroke-width="3"/>
<line x1="328.3" y1="179.9" x2="328.4" y2="220.2" opacity="1.0" stroke="rgb(0,0,0)"  stroke-width="3"/>
<line x1="321.1" y1="185.9" x2="321.2" y2="214.2" opacity="1.0" stroke="rgb(0,0,0)"  stroke-width="3"/>
<line x1="258.7" y1="220.2" x2="258.6" y2="180.0" opacity="1.0" stroke="rgb(0,0,0)"  stroke-width="3"/>
<line x1="258.6" y1="180.0" x2="293.5" y2="159.8" opacity="1.0" stroke="rgb(0,0,0)"  stroke-width="3"/>
<line x1="267.4" y1="183.2" x2="291.9" y2="169.1" opacity="1.0" stroke="rgb(0,0,0)"  stroke-width="3"/>
<text x="287.584807" y="288.552851" fill="rgb(12,12,255)" stroke-width="0" font-weight="bold" font-size="25.92" >N</text>
<text x="137.825554" y="135.900680" fill="rgb(12,12,255)" stroke-width="0" font-weight="bold" font-size="25.92" >N</text>
<text x="152.198725" y="294.789171" fill="rgb(12,12,255)" stroke-width="0" font-weight="bold" font-size="25.92" >N</text>
<text x="217.841334" y="248.377376" fill="rgb(255,181,181)" stroke-width="0" font-weight="bold" font-size="25.92" >B</text>
</svg>
</g>
</svg>
