<?xml version="1.0"?>
<svg version="1.1" id="topsvg"
xmlns="http://www.w3.org/2000/svg" xmlns:xlink="http://www.w3.org/1999/xlink"
xmlns:cml="http://www.xml-cml.org/schema" x="0" y="0" width="200px" height="200px" viewBox="0 0 100 100">
<title>GD301.sdf - Open Babel Depiction</title>
<rect x="0" y="0" width="100" height="100" fill="white"/>
<g transform="translate(0,0)">
<svg width="100" height="100" x="0" y="0" viewBox="0 0 626.841 453.101"
font-family="sans-serif" stroke="rgb(0,0,0)" stroke-width="3"  stroke-linecap="round">
<line x1="186.7" y1="113.5" x2="174.7" y2="76.8" opacity="1.0" stroke="rgb(0,0,0)"  stroke-width="3"/>
<line x1="103.7" y1="257.3" x2="65.9" y2="265.3" opacity="1.0" stroke="rgb(0,0,0)"  stroke-width="3"/>
<line x1="383.9" y1="241.2" x2="395.8" y2="278.0" opacity="1.0" stroke="rgb(0,0,0)"  stroke-width="3"/>
<line x1="174.7" y1="76.8" x2="200.6" y2="48.0" opacity="1.0" stroke="rgb(0,0,0)"  stroke-width="3"/>
<line x1="174.7" y1="76.8" x2="136.9" y2="68.7" opacity="1.0" stroke="rgb(0,0,0)"  stroke-width="3"/>
<line x1="174.7" y1="76.8" x2="162.8" y2="40.0" opacity="1.0" stroke="rgb(0,0,0)"  stroke-width="3"/>
<line x1="65.9" y1="265.3" x2="40.0" y2="236.6" opacity="1.0" stroke="rgb(0,0,0)"  stroke-width="3"/>
<line x1="65.9" y1="265.3" x2="53.9" y2="302.1" opacity="1.0" stroke="rgb(0,0,0)"  stroke-width="3"/>
<line x1="65.9" y1="265.3" x2="77.8" y2="228.6" opacity="1.0" stroke="rgb(0,0,0)"  stroke-width="3"/>
<line x1="433.6" y1="286.0" x2="459.5" y2="257.3" opacity="1.0" stroke="rgb(0,0,0)"  stroke-width="3"/>
<line x1="473.4" y1="191.8" x2="461.5" y2="155.0" opacity="1.0" stroke="rgb(0,0,0)"  stroke-width="3"/>
<line x1="461.5" y1="155.0" x2="487.3" y2="126.3" opacity="1.0" stroke="rgb(0,0,0)"  stroke-width="3"/>
<line x1="461.5" y1="155.0" x2="423.6" y2="147.0" opacity="1.0" stroke="rgb(0,0,0)"  stroke-width="3"/>
<line x1="461.5" y1="155.0" x2="449.5" y2="118.3" opacity="1.0" stroke="rgb(0,0,0)"  stroke-width="3"/>
<line x1="523.2" y1="236.6" x2="561.0" y2="244.7" opacity="1.0" stroke="rgb(0,0,0)"  stroke-width="3"/>
<line x1="561.0" y1="244.7" x2="586.8" y2="215.9" opacity="1.0" stroke="rgb(0,0,0)"  stroke-width="3"/>
<line x1="561.0" y1="244.7" x2="572.9" y2="281.4" opacity="1.0" stroke="rgb(0,0,0)"  stroke-width="3"/>
<line x1="561.0" y1="244.7" x2="549.0" y2="207.9" opacity="1.0" stroke="rgb(0,0,0)"  stroke-width="3"/>
<line x1="153.4" y1="212.5" x2="172.8" y2="179.0" opacity="1.0" stroke="rgb(0,0,0)"  stroke-width="3"/>
<line x1="172.8" y1="179.0" x2="210.6" y2="187.1" opacity="1.0" stroke="rgb(0,0,0)"  stroke-width="3"/>
<line x1="177.1" y1="187.3" x2="203.2" y2="192.9" opacity="1.0" stroke="rgb(0,0,0)"  stroke-width="3"/>
<line x1="210.6" y1="187.1" x2="213.3" y2="212.6" opacity="1.0" stroke="rgb(0,0,0)"  stroke-width="3"/>
<line x1="202.7" y1="230.8" x2="179.3" y2="241.2" opacity="1.0" stroke="rgb(0,0,0)"  stroke-width="3"/>
<line x1="179.3" y1="241.2" x2="153.4" y2="212.5" opacity="1.0" stroke="rgb(0,0,0)"  stroke-width="3"/>
<line x1="180.6" y1="232.0" x2="162.8" y2="212.1" opacity="1.0" stroke="rgb(0,0,0)"  stroke-width="3"/>
<line x1="401.2" y1="222.0" x2="383.9" y2="241.2" opacity="1.0" stroke="rgb(0,0,0)"  stroke-width="3"/>
<line x1="394.4" y1="218.8" x2="382.5" y2="232.0" opacity="1.0" stroke="rgb(0,0,0)"  stroke-width="3"/>
<line x1="383.9" y1="241.2" x2="360.4" y2="230.8" opacity="1.0" stroke="rgb(0,0,0)"  stroke-width="3"/>
<line x1="349.9" y1="212.6" x2="352.6" y2="187.1" opacity="1.0" stroke="rgb(0,0,0)"  stroke-width="3"/>
<line x1="352.6" y1="187.1" x2="390.4" y2="179.0" opacity="1.0" stroke="rgb(0,0,0)"  stroke-width="3"/>
<line x1="359.9" y1="192.9" x2="386.0" y2="187.3" opacity="1.0" stroke="rgb(0,0,0)"  stroke-width="3"/>
<line x1="390.4" y1="179.0" x2="403.2" y2="201.2" opacity="1.0" stroke="rgb(0,0,0)"  stroke-width="3"/>
<line x1="248.1" y1="283.5" x2="281.6" y2="302.8" opacity="1.0" stroke="rgb(0,0,0)"  stroke-width="3"/>
<line x1="281.6" y1="302.8" x2="315.1" y2="283.5" opacity="1.0" stroke="rgb(0,0,0)"  stroke-width="3"/>
<line x1="283.2" y1="293.6" x2="306.3" y2="280.3" opacity="1.0" stroke="rgb(0,0,0)"  stroke-width="3"/>
<line x1="315.1" y1="283.5" x2="315.1" y2="244.8" opacity="1.0" stroke="rgb(0,0,0)"  stroke-width="3"/>
<line x1="315.1" y1="244.8" x2="281.6" y2="225.5" opacity="1.0" stroke="rgb(0,0,0)"  stroke-width="3"/>
<line x1="306.3" y1="248.1" x2="283.2" y2="234.7" opacity="1.0" stroke="rgb(0,0,0)"  stroke-width="3"/>
<line x1="281.6" y1="225.5" x2="248.1" y2="244.8" opacity="1.0" stroke="rgb(0,0,0)"  stroke-width="3"/>
<line x1="248.1" y1="244.8" x2="248.1" y2="283.5" opacity="1.0" stroke="rgb(0,0,0)"  stroke-width="3"/>
<line x1="255.3" y1="250.8" x2="255.3" y2="277.5" opacity="1.0" stroke="rgb(0,0,0)"  stroke-width="3"/>
<line x1="210.6" y1="187.1" x2="236.4" y2="158.3" opacity="1.0" stroke="rgb(0,0,0)"  stroke-width="3"/>
<line x1="236.4" y1="158.3" x2="270.6" y2="179.9" opacity="1.0" stroke="rgb(0,0,0)"  stroke-width="3"/>
<line x1="281.6" y1="199.9" x2="281.6" y2="225.5" opacity="1.0" stroke="rgb(0,0,0)"  stroke-width="3"/>
<line x1="248.1" y1="244.8" x2="225.9" y2="232.0" opacity="1.0" stroke="rgb(0,0,0)"  stroke-width="3"/>
<line x1="103.7" y1="257.3" x2="129.5" y2="286.0" opacity="1.0" stroke="rgb(0,0,0)"  stroke-width="3"/>
<line x1="129.5" y1="286.0" x2="167.4" y2="278.0" opacity="1.0" stroke="rgb(0,0,0)"  stroke-width="3"/>
<line x1="133.9" y1="277.7" x2="160.0" y2="272.2" opacity="1.0" stroke="rgb(0,0,0)"  stroke-width="3"/>
<line x1="167.4" y1="278.0" x2="179.3" y2="241.2" opacity="1.0" stroke="rgb(0,0,0)"  stroke-width="3"/>
<line x1="153.4" y1="212.5" x2="115.6" y2="220.5" opacity="1.0" stroke="rgb(0,0,0)"  stroke-width="3"/>
<line x1="115.6" y1="220.5" x2="103.7" y2="257.3" opacity="1.0" stroke="rgb(0,0,0)"  stroke-width="3"/>
<line x1="120.6" y1="228.5" x2="112.4" y2="253.8" opacity="1.0" stroke="rgb(0,0,0)"  stroke-width="3"/>
<line x1="337.3" y1="232.0" x2="315.1" y2="244.8" opacity="1.0" stroke="rgb(0,0,0)"  stroke-width="3"/>
<line x1="292.6" y1="179.9" x2="326.7" y2="158.3" opacity="1.0" stroke="rgb(0,0,0)"  stroke-width="3"/>
<line x1="326.7" y1="158.3" x2="352.6" y2="187.1" opacity="1.0" stroke="rgb(0,0,0)"  stroke-width="3"/>
<line x1="172.8" y1="179.0" x2="160.8" y2="142.3" opacity="1.0" stroke="rgb(0,0,0)"  stroke-width="3"/>
<line x1="160.8" y1="142.3" x2="186.7" y2="113.5" opacity="1.0" stroke="rgb(0,0,0)"  stroke-width="3"/>
<line x1="170.2" y1="142.6" x2="188.0" y2="122.8" opacity="1.0" stroke="rgb(0,0,0)"  stroke-width="3"/>
<line x1="186.7" y1="113.5" x2="224.5" y2="121.6" opacity="1.0" stroke="rgb(0,0,0)"  stroke-width="3"/>
<line x1="224.5" y1="121.6" x2="236.4" y2="158.3" opacity="1.0" stroke="rgb(0,0,0)"  stroke-width="3"/>
<line x1="219.5" y1="129.5" x2="227.7" y2="154.9" opacity="1.0" stroke="rgb(0,0,0)"  stroke-width="3"/>
<line x1="376.5" y1="113.5" x2="338.7" y2="121.6" opacity="1.0" stroke="rgb(0,0,0)"  stroke-width="3"/>
<line x1="338.7" y1="121.6" x2="326.7" y2="158.3" opacity="1.0" stroke="rgb(0,0,0)"  stroke-width="3"/>
<line x1="343.7" y1="129.5" x2="335.4" y2="154.9" opacity="1.0" stroke="rgb(0,0,0)"  stroke-width="3"/>
<line x1="390.4" y1="179.0" x2="402.3" y2="142.3" opacity="1.0" stroke="rgb(0,0,0)"  stroke-width="3"/>
<line x1="402.3" y1="142.3" x2="376.5" y2="113.5" opacity="1.0" stroke="rgb(0,0,0)"  stroke-width="3"/>
<line x1="393.0" y1="142.6" x2="375.1" y2="122.8" opacity="1.0" stroke="rgb(0,0,0)"  stroke-width="3"/>
<line x1="324.7" y1="56.1" x2="362.5" y2="48.0" opacity="1.0" stroke="rgb(0,0,0)"  stroke-width="3"/>
<line x1="362.5" y1="48.0" x2="388.4" y2="76.8" opacity="1.0" stroke="rgb(0,0,0)"  stroke-width="3"/>
<line x1="361.2" y1="57.3" x2="379.1" y2="77.1" opacity="1.0" stroke="rgb(0,0,0)"  stroke-width="3"/>
<line x1="388.4" y1="76.8" x2="376.5" y2="113.5" opacity="1.0" stroke="rgb(0,0,0)"  stroke-width="3"/>
<line x1="338.7" y1="121.6" x2="312.8" y2="92.8" opacity="1.0" stroke="rgb(0,0,0)"  stroke-width="3"/>
<line x1="312.8" y1="92.8" x2="324.7" y2="56.1" opacity="1.0" stroke="rgb(0,0,0)"  stroke-width="3"/>
<line x1="321.5" y1="89.4" x2="329.7" y2="64.0" opacity="1.0" stroke="rgb(0,0,0)"  stroke-width="3"/>
<line x1="158.0" y1="390.0" x2="153.5" y2="351.6" opacity="1.0" stroke="rgb(0,0,0)"  stroke-width="3"/>
<line x1="150.1" y1="384.9" x2="147.1" y2="358.4" opacity="1.0" stroke="rgb(0,0,0)"  stroke-width="3"/>
<line x1="153.5" y1="351.6" x2="118.0" y2="336.3" opacity="1.0" stroke="rgb(0,0,0)"  stroke-width="3"/>
<line x1="118.0" y1="336.3" x2="87.0" y2="359.4" opacity="1.0" stroke="rgb(0,0,0)"  stroke-width="3"/>
<line x1="117.5" y1="345.7" x2="96.1" y2="361.6" opacity="1.0" stroke="rgb(0,0,0)"  stroke-width="3"/>
<line x1="87.0" y1="359.4" x2="91.5" y2="397.8" opacity="1.0" stroke="rgb(0,0,0)"  stroke-width="3"/>
<line x1="91.5" y1="397.8" x2="126.9" y2="413.1" opacity="1.0" stroke="rgb(0,0,0)"  stroke-width="3"/>
<line x1="99.8" y1="393.5" x2="124.3" y2="404.1" opacity="1.0" stroke="rgb(0,0,0)"  stroke-width="3"/>
<line x1="126.9" y1="413.1" x2="158.0" y2="390.0" opacity="1.0" stroke="rgb(0,0,0)"  stroke-width="3"/>
<line x1="289.1" y1="354.9" x2="255.6" y2="335.5" opacity="1.0" stroke="rgb(0,0,0)"  stroke-width="3"/>
<line x1="280.3" y1="358.1" x2="257.2" y2="344.8" opacity="1.0" stroke="rgb(0,0,0)"  stroke-width="3"/>
<line x1="255.6" y1="335.5" x2="222.1" y2="354.9" opacity="1.0" stroke="rgb(0,0,0)"  stroke-width="3"/>
<line x1="222.1" y1="354.9" x2="222.1" y2="393.5" opacity="1.0" stroke="rgb(0,0,0)"  stroke-width="3"/>
<line x1="229.3" y1="360.9" x2="229.3" y2="387.5" opacity="1.0" stroke="rgb(0,0,0)"  stroke-width="3"/>
<line x1="222.1" y1="393.5" x2="255.6" y2="412.9" opacity="1.0" stroke="rgb(0,0,0)"  stroke-width="3"/>
<line x1="255.6" y1="412.9" x2="289.1" y2="393.5" opacity="1.0" stroke="rgb(0,0,0)"  stroke-width="3"/>
<line x1="257.2" y1="403.6" x2="280.3" y2="390.3" opacity="1.0" stroke="rgb(0,0,0)"  stroke-width="3"/>
<line x1="289.1" y1="393.5" x2="289.1" y2="354.9" opacity="1.0" stroke="rgb(0,0,0)"  stroke-width="3"/>
<line x1="369.9" y1="306.7" x2="381.9" y2="343.5" opacity="1.0" stroke="rgb(0,0,0)"  stroke-width="3"/>
<line x1="381.9" y1="343.5" x2="419.7" y2="351.5" opacity="1.0" stroke="rgb(0,0,0)"  stroke-width="3"/>
<line x1="389.2" y1="337.7" x2="415.3" y2="343.2" opacity="1.0" stroke="rgb(0,0,0)"  stroke-width="3"/>
<line x1="419.7" y1="351.5" x2="445.6" y2="322.8" opacity="1.0" stroke="rgb(0,0,0)"  stroke-width="3"/>
<line x1="445.6" y1="322.8" x2="433.6" y2="286.0" opacity="1.0" stroke="rgb(0,0,0)"  stroke-width="3"/>
<line x1="436.9" y1="319.3" x2="428.6" y2="294.0" opacity="1.0" stroke="rgb(0,0,0)"  stroke-width="3"/>
<line x1="433.6" y1="286.0" x2="395.8" y2="278.0" opacity="1.0" stroke="rgb(0,0,0)"  stroke-width="3"/>
<line x1="395.8" y1="278.0" x2="369.9" y2="306.7" opacity="1.0" stroke="rgb(0,0,0)"  stroke-width="3"/>
<line x1="397.1" y1="287.3" x2="379.3" y2="307.1" opacity="1.0" stroke="rgb(0,0,0)"  stroke-width="3"/>
<line x1="497.3" y1="265.3" x2="523.2" y2="236.6" opacity="1.0" stroke="rgb(0,0,0)"  stroke-width="3"/>
<line x1="523.2" y1="236.6" x2="511.2" y2="199.9" opacity="1.0" stroke="rgb(0,0,0)"  stroke-width="3"/>
<line x1="514.5" y1="233.1" x2="506.2" y2="207.8" opacity="1.0" stroke="rgb(0,0,0)"  stroke-width="3"/>
<line x1="511.2" y1="199.9" x2="473.4" y2="191.8" opacity="1.0" stroke="rgb(0,0,0)"  stroke-width="3"/>
<line x1="473.4" y1="191.8" x2="447.5" y2="220.5" opacity="1.0" stroke="rgb(0,0,0)"  stroke-width="3"/>
<line x1="474.7" y1="201.1" x2="456.9" y2="220.9" opacity="1.0" stroke="rgb(0,0,0)"  stroke-width="3"/>
<line x1="447.5" y1="220.5" x2="459.5" y2="257.3" opacity="1.0" stroke="rgb(0,0,0)"  stroke-width="3"/>
<line x1="459.5" y1="257.3" x2="497.3" y2="265.3" opacity="1.0" stroke="rgb(0,0,0)"  stroke-width="3"/>
<line x1="466.8" y1="251.5" x2="492.9" y2="257.1" opacity="1.0" stroke="rgb(0,0,0)"  stroke-width="3"/>
<line x1="188.7" y1="335.5" x2="153.5" y2="351.6" opacity="1.0" stroke="rgb(0,0,0)"  stroke-width="3"/>
<line x1="158.0" y1="390.0" x2="222.1" y2="393.5" opacity="1.0" stroke="rgb(0,0,0)"  stroke-width="3"/>
<line x1="222.1" y1="354.9" x2="188.7" y2="335.5" opacity="1.0" stroke="rgb(0,0,0)"  stroke-width="3"/>
<line x1="167.4" y1="278.0" x2="188.7" y2="335.5" opacity="1.0" stroke="rgb(0,0,0)"  stroke-width="3"/>
<line x1="188.7" y1="335.5" x2="248.1" y2="283.5" opacity="1.0" stroke="rgb(0,0,0)"  stroke-width="3"/>
<text x="208.622614" y="233.509918" fill="rgb(12,12,255)" stroke-width="0" font-weight="bold" font-size="25.92" >N</text>
<text x="275.580240" y="194.851944" fill="rgb(255,181,181)" stroke-width="0" font-weight="bold" font-size="25.92" >B</text>
<text x="403.720834" y="220.505047" fill="rgb(12,12,255)" stroke-width="0" font-weight="bold" font-size="25.92" >N</text>
<text x="342.537772" y="233.509871" fill="rgb(12,12,255)" stroke-width="0" font-weight="bold" font-size="25.92" >N</text>
</svg>
</g>
</svg>
