<?xml version="1.0"?>
<svg version="1.1" id="topsvg"
xmlns="http://www.w3.org/2000/svg" xmlns:xlink="http://www.w3.org/1999/xlink"
xmlns:cml="http://www.xml-cml.org/schema" x="0" y="0" width="200px" height="200px" viewBox="0 0 100 100">
<title>GD309.sdf - Open Babel Depiction</title>
<rect x="0" y="0" width="100" height="100" fill="white"/>
<g transform="translate(0,0)">
<svg width="100" height="100" x="0" y="0" viewBox="0 0 542.165 541.244"
font-family="sans-serif" stroke="rgb(0,0,0)" stroke-width="3"  stroke-linecap="round">
<line x1="160.6" y1="395.7" x2="141.0" y2="429.7" opacity="1.0" stroke="rgb(0,0,0)"  stroke-width="3"/>
<line x1="199.0" y1="387.5" x2="209.2" y2="425.4" opacity="1.0" stroke="rgb(0,0,0)"  stroke-width="3"/>
<line x1="343.1" y1="387.5" x2="333.0" y2="425.4" opacity="1.0" stroke="rgb(0,0,0)"  stroke-width="3"/>
<line x1="381.5" y1="395.7" x2="409.3" y2="423.4" opacity="1.0" stroke="rgb(0,0,0)"  stroke-width="3"/>
<line x1="160.6" y1="395.7" x2="141.0" y2="361.7" opacity="1.0" stroke="rgb(0,0,0)"  stroke-width="3"/>
<line x1="141.0" y1="361.7" x2="167.3" y2="332.6" opacity="1.0" stroke="rgb(0,0,0)"  stroke-width="3"/>
<line x1="150.4" y1="362.1" x2="168.6" y2="341.8" opacity="1.0" stroke="rgb(0,0,0)"  stroke-width="3"/>
<line x1="167.3" y1="332.6" x2="191.2" y2="343.2" opacity="1.0" stroke="rgb(0,0,0)"  stroke-width="3"/>
<line x1="201.8" y1="361.4" x2="199.0" y2="387.5" opacity="1.0" stroke="rgb(0,0,0)"  stroke-width="3"/>
<line x1="199.0" y1="387.5" x2="160.6" y2="395.7" opacity="1.0" stroke="rgb(0,0,0)"  stroke-width="3"/>
<line x1="191.7" y1="381.7" x2="165.0" y2="387.4" opacity="1.0" stroke="rgb(0,0,0)"  stroke-width="3"/>
<line x1="343.1" y1="387.5" x2="381.5" y2="395.7" opacity="1.0" stroke="rgb(0,0,0)"  stroke-width="3"/>
<line x1="350.5" y1="381.7" x2="377.2" y2="387.4" opacity="1.0" stroke="rgb(0,0,0)"  stroke-width="3"/>
<line x1="381.5" y1="395.7" x2="401.1" y2="361.7" opacity="1.0" stroke="rgb(0,0,0)"  stroke-width="3"/>
<line x1="401.1" y1="361.7" x2="374.9" y2="332.6" opacity="1.0" stroke="rgb(0,0,0)"  stroke-width="3"/>
<line x1="391.8" y1="362.1" x2="373.6" y2="341.8" opacity="1.0" stroke="rgb(0,0,0)"  stroke-width="3"/>
<line x1="374.9" y1="332.6" x2="350.9" y2="343.2" opacity="1.0" stroke="rgb(0,0,0)"  stroke-width="3"/>
<line x1="340.4" y1="361.4" x2="343.1" y2="387.5" opacity="1.0" stroke="rgb(0,0,0)"  stroke-width="3"/>
<line x1="237.1" y1="328.9" x2="271.1" y2="348.5" opacity="1.0" stroke="rgb(0,0,0)"  stroke-width="3"/>
<line x1="271.1" y1="348.5" x2="305.1" y2="328.9" opacity="1.0" stroke="rgb(0,0,0)"  stroke-width="3"/>
<line x1="272.7" y1="339.3" x2="296.3" y2="325.7" opacity="1.0" stroke="rgb(0,0,0)"  stroke-width="3"/>
<line x1="305.1" y1="328.9" x2="305.1" y2="289.7" opacity="1.0" stroke="rgb(0,0,0)"  stroke-width="3"/>
<line x1="305.1" y1="289.7" x2="271.1" y2="270.0" opacity="1.0" stroke="rgb(0,0,0)"  stroke-width="3"/>
<line x1="296.3" y1="292.9" x2="272.7" y2="279.3" opacity="1.0" stroke="rgb(0,0,0)"  stroke-width="3"/>
<line x1="271.1" y1="270.0" x2="237.1" y2="289.7" opacity="1.0" stroke="rgb(0,0,0)"  stroke-width="3"/>
<line x1="237.1" y1="289.7" x2="237.1" y2="328.9" opacity="1.0" stroke="rgb(0,0,0)"  stroke-width="3"/>
<line x1="244.3" y1="295.7" x2="244.3" y2="322.9" opacity="1.0" stroke="rgb(0,0,0)"  stroke-width="3"/>
<line x1="451.7" y1="316.2" x2="425.4" y2="287.1" opacity="1.0" stroke="rgb(0,0,0)"  stroke-width="3"/>
<line x1="425.4" y1="287.1" x2="387.0" y2="295.2" opacity="1.0" stroke="rgb(0,0,0)"  stroke-width="3"/>
<line x1="421.0" y1="295.4" x2="394.4" y2="301.0" opacity="1.0" stroke="rgb(0,0,0)"  stroke-width="3"/>
<line x1="387.0" y1="295.2" x2="374.9" y2="332.6" opacity="1.0" stroke="rgb(0,0,0)"  stroke-width="3"/>
<line x1="401.1" y1="361.7" x2="439.5" y2="353.6" opacity="1.0" stroke="rgb(0,0,0)"  stroke-width="3"/>
<line x1="439.5" y1="353.6" x2="451.7" y2="316.2" opacity="1.0" stroke="rgb(0,0,0)"  stroke-width="3"/>
<line x1="434.5" y1="345.6" x2="443.0" y2="319.7" opacity="1.0" stroke="rgb(0,0,0)"  stroke-width="3"/>
<line x1="387.0" y1="295.2" x2="350.6" y2="276.1" opacity="1.0" stroke="rgb(0,0,0)"  stroke-width="3"/>
<line x1="327.8" y1="276.5" x2="305.1" y2="289.7" opacity="1.0" stroke="rgb(0,0,0)"  stroke-width="3"/>
<line x1="305.1" y1="328.9" x2="327.8" y2="342.0" opacity="1.0" stroke="rgb(0,0,0)"  stroke-width="3"/>
<line x1="201.0" y1="215.9" x2="236.3" y2="198.9" opacity="1.0" stroke="rgb(0,0,0)"  stroke-width="3"/>
<line x1="209.5" y1="219.8" x2="234.0" y2="207.9" opacity="1.0" stroke="rgb(0,0,0)"  stroke-width="3"/>
<line x1="236.3" y1="198.9" x2="259.0" y2="212.0" opacity="1.0" stroke="rgb(0,0,0)"  stroke-width="3"/>
<line x1="270.5" y1="231.5" x2="271.1" y2="270.0" opacity="1.0" stroke="rgb(0,0,0)"  stroke-width="3"/>
<line x1="237.1" y1="289.7" x2="214.4" y2="276.5" opacity="1.0" stroke="rgb(0,0,0)"  stroke-width="3"/>
<line x1="202.6" y1="257.0" x2="201.0" y2="215.9" opacity="1.0" stroke="rgb(0,0,0)"  stroke-width="3"/>
<line x1="171.5" y1="154.7" x2="206.8" y2="137.6" opacity="1.0" stroke="rgb(0,0,0)"  stroke-width="3"/>
<line x1="206.8" y1="137.6" x2="239.2" y2="159.7" opacity="1.0" stroke="rgb(0,0,0)"  stroke-width="3"/>
<line x1="207.7" y1="147.0" x2="230.2" y2="162.3" opacity="1.0" stroke="rgb(0,0,0)"  stroke-width="3"/>
<line x1="239.2" y1="159.7" x2="236.3" y2="198.9" opacity="1.0" stroke="rgb(0,0,0)"  stroke-width="3"/>
<line x1="201.0" y1="215.9" x2="168.5" y2="193.8" opacity="1.0" stroke="rgb(0,0,0)"  stroke-width="3"/>
<line x1="168.5" y1="193.8" x2="171.5" y2="154.7" opacity="1.0" stroke="rgb(0,0,0)"  stroke-width="3"/>
<line x1="176.2" y1="188.3" x2="178.2" y2="161.2" opacity="1.0" stroke="rgb(0,0,0)"  stroke-width="3"/>
<line x1="237.1" y1="328.9" x2="214.4" y2="342.0" opacity="1.0" stroke="rgb(0,0,0)"  stroke-width="3"/>
<line x1="167.3" y1="332.6" x2="155.1" y2="295.2" opacity="1.0" stroke="rgb(0,0,0)"  stroke-width="3"/>
<line x1="155.1" y1="295.2" x2="191.6" y2="276.1" opacity="1.0" stroke="rgb(0,0,0)"  stroke-width="3"/>
<line x1="475.9" y1="241.6" x2="502.2" y2="270.8" opacity="1.0" stroke="rgb(0,0,0)"  stroke-width="3"/>
<line x1="502.2" y1="270.8" x2="490.0" y2="308.1" opacity="1.0" stroke="rgb(0,0,0)"  stroke-width="3"/>
<line x1="493.5" y1="274.2" x2="485.0" y2="300.1" opacity="1.0" stroke="rgb(0,0,0)"  stroke-width="3"/>
<line x1="490.0" y1="308.1" x2="451.7" y2="316.2" opacity="1.0" stroke="rgb(0,0,0)"  stroke-width="3"/>
<line x1="425.4" y1="287.1" x2="437.5" y2="249.8" opacity="1.0" stroke="rgb(0,0,0)"  stroke-width="3"/>
<line x1="437.5" y1="249.8" x2="475.9" y2="241.6" opacity="1.0" stroke="rgb(0,0,0)"  stroke-width="3"/>
<line x1="444.9" y1="255.6" x2="471.5" y2="249.9" opacity="1.0" stroke="rgb(0,0,0)"  stroke-width="3"/>
<line x1="141.0" y1="361.7" x2="102.6" y2="353.6" opacity="1.0" stroke="rgb(0,0,0)"  stroke-width="3"/>
<line x1="102.6" y1="353.6" x2="90.5" y2="316.2" opacity="1.0" stroke="rgb(0,0,0)"  stroke-width="3"/>
<line x1="107.6" y1="345.6" x2="99.2" y2="319.7" opacity="1.0" stroke="rgb(0,0,0)"  stroke-width="3"/>
<line x1="90.5" y1="316.2" x2="116.8" y2="287.1" opacity="1.0" stroke="rgb(0,0,0)"  stroke-width="3"/>
<line x1="116.8" y1="287.1" x2="155.1" y2="295.2" opacity="1.0" stroke="rgb(0,0,0)"  stroke-width="3"/>
<line x1="121.1" y1="295.4" x2="147.8" y2="301.0" opacity="1.0" stroke="rgb(0,0,0)"  stroke-width="3"/>
<line x1="40.0" y1="270.8" x2="66.3" y2="241.6" opacity="1.0" stroke="rgb(0,0,0)"  stroke-width="3"/>
<line x1="66.3" y1="241.6" x2="104.6" y2="249.8" opacity="1.0" stroke="rgb(0,0,0)"  stroke-width="3"/>
<line x1="70.6" y1="249.9" x2="97.3" y2="255.6" opacity="1.0" stroke="rgb(0,0,0)"  stroke-width="3"/>
<line x1="104.6" y1="249.8" x2="116.8" y2="287.1" opacity="1.0" stroke="rgb(0,0,0)"  stroke-width="3"/>
<line x1="90.5" y1="316.2" x2="52.1" y2="308.1" opacity="1.0" stroke="rgb(0,0,0)"  stroke-width="3"/>
<line x1="52.1" y1="308.1" x2="40.0" y2="270.8" opacity="1.0" stroke="rgb(0,0,0)"  stroke-width="3"/>
<line x1="57.1" y1="300.1" x2="48.7" y2="274.2" opacity="1.0" stroke="rgb(0,0,0)"  stroke-width="3"/>
<line x1="399.1" y1="461.3" x2="426.9" y2="489.1" opacity="1.0" stroke="rgb(0,0,0)"  stroke-width="3"/>
<line x1="426.9" y1="489.1" x2="464.8" y2="478.9" opacity="1.0" stroke="rgb(0,0,0)"  stroke-width="3"/>
<line x1="430.8" y1="480.6" x2="457.1" y2="473.5" opacity="1.0" stroke="rgb(0,0,0)"  stroke-width="3"/>
<line x1="464.8" y1="478.9" x2="474.9" y2="441.0" opacity="1.0" stroke="rgb(0,0,0)"  stroke-width="3"/>
<line x1="474.9" y1="441.0" x2="447.2" y2="413.3" opacity="1.0" stroke="rgb(0,0,0)"  stroke-width="3"/>
<line x1="465.6" y1="441.9" x2="446.3" y2="422.6" opacity="1.0" stroke="rgb(0,0,0)"  stroke-width="3"/>
<line x1="447.2" y1="413.3" x2="409.3" y2="423.4" opacity="1.0" stroke="rgb(0,0,0)"  stroke-width="3"/>
<line x1="409.3" y1="423.4" x2="399.1" y2="461.3" opacity="1.0" stroke="rgb(0,0,0)"  stroke-width="3"/>
<line x1="414.7" y1="431.1" x2="407.6" y2="457.4" opacity="1.0" stroke="rgb(0,0,0)"  stroke-width="3"/>
<line x1="101.8" y1="429.7" x2="82.2" y2="463.7" opacity="1.0" stroke="rgb(0,0,0)"  stroke-width="3"/>
<line x1="82.2" y1="463.7" x2="101.8" y2="497.6" opacity="1.0" stroke="rgb(0,0,0)"  stroke-width="3"/>
<line x1="91.4" y1="465.3" x2="105.0" y2="488.8" opacity="1.0" stroke="rgb(0,0,0)"  stroke-width="3"/>
<line x1="101.8" y1="497.6" x2="141.0" y2="497.6" opacity="1.0" stroke="rgb(0,0,0)"  stroke-width="3"/>
<line x1="141.0" y1="497.6" x2="160.6" y2="463.7" opacity="1.0" stroke="rgb(0,0,0)"  stroke-width="3"/>
<line x1="137.8" y1="488.8" x2="151.4" y2="465.3" opacity="1.0" stroke="rgb(0,0,0)"  stroke-width="3"/>
<line x1="160.6" y1="463.7" x2="141.0" y2="429.7" opacity="1.0" stroke="rgb(0,0,0)"  stroke-width="3"/>
<line x1="141.0" y1="429.7" x2="101.8" y2="429.7" opacity="1.0" stroke="rgb(0,0,0)"  stroke-width="3"/>
<line x1="135.0" y1="436.9" x2="107.8" y2="436.9" opacity="1.0" stroke="rgb(0,0,0)"  stroke-width="3"/>
<line x1="181.4" y1="453.2" x2="191.6" y2="491.1" opacity="1.0" stroke="rgb(0,0,0)"  stroke-width="3"/>
<line x1="191.6" y1="491.1" x2="229.5" y2="501.2" opacity="1.0" stroke="rgb(0,0,0)"  stroke-width="3"/>
<line x1="199.2" y1="485.7" x2="225.6" y2="492.7" opacity="1.0" stroke="rgb(0,0,0)"  stroke-width="3"/>
<line x1="229.5" y1="501.2" x2="257.2" y2="473.5" opacity="1.0" stroke="rgb(0,0,0)"  stroke-width="3"/>
<line x1="257.2" y1="473.5" x2="247.1" y2="435.6" opacity="1.0" stroke="rgb(0,0,0)"  stroke-width="3"/>
<line x1="248.7" y1="469.6" x2="241.7" y2="443.3" opacity="1.0" stroke="rgb(0,0,0)"  stroke-width="3"/>
<line x1="247.1" y1="435.6" x2="209.2" y2="425.4" opacity="1.0" stroke="rgb(0,0,0)"  stroke-width="3"/>
<line x1="209.2" y1="425.4" x2="181.4" y2="453.2" opacity="1.0" stroke="rgb(0,0,0)"  stroke-width="3"/>
<line x1="210.0" y1="434.8" x2="190.8" y2="454.0" opacity="1.0" stroke="rgb(0,0,0)"  stroke-width="3"/>
<line x1="295.1" y1="435.6" x2="284.9" y2="473.5" opacity="1.0" stroke="rgb(0,0,0)"  stroke-width="3"/>
<line x1="284.9" y1="473.5" x2="312.7" y2="501.2" opacity="1.0" stroke="rgb(0,0,0)"  stroke-width="3"/>
<line x1="294.3" y1="472.6" x2="313.5" y2="491.9" opacity="1.0" stroke="rgb(0,0,0)"  stroke-width="3"/>
<line x1="312.7" y1="501.2" x2="350.6" y2="491.1" opacity="1.0" stroke="rgb(0,0,0)"  stroke-width="3"/>
<line x1="350.6" y1="491.1" x2="360.7" y2="453.2" opacity="1.0" stroke="rgb(0,0,0)"  stroke-width="3"/>
<line x1="345.2" y1="483.4" x2="352.2" y2="457.1" opacity="1.0" stroke="rgb(0,0,0)"  stroke-width="3"/>
<line x1="360.7" y1="453.2" x2="333.0" y2="425.4" opacity="1.0" stroke="rgb(0,0,0)"  stroke-width="3"/>
<line x1="333.0" y1="425.4" x2="295.1" y2="435.6" opacity="1.0" stroke="rgb(0,0,0)"  stroke-width="3"/>
<line x1="329.1" y1="433.9" x2="302.7" y2="441.0" opacity="1.0" stroke="rgb(0,0,0)"  stroke-width="3"/>
<line x1="339.6" y1="257.0" x2="341.2" y2="215.9" opacity="1.0" stroke="rgb(0,0,0)"  stroke-width="3"/>
<line x1="341.2" y1="215.9" x2="305.7" y2="199.2" opacity="1.0" stroke="rgb(0,0,0)"  stroke-width="3"/>
<line x1="305.7" y1="199.2" x2="281.7" y2="212.3" opacity="1.0" stroke="rgb(0,0,0)"  stroke-width="3"/>
<line x1="334.5" y1="137.7" x2="302.3" y2="160.2" opacity="1.0" stroke="rgb(0,0,0)"  stroke-width="3"/>
<line x1="302.3" y1="160.2" x2="305.7" y2="199.2" opacity="1.0" stroke="rgb(0,0,0)"  stroke-width="3"/>
<line x1="310.0" y1="165.5" x2="312.3" y2="192.7" opacity="1.0" stroke="rgb(0,0,0)"  stroke-width="3"/>
<line x1="341.2" y1="215.9" x2="373.4" y2="193.4" opacity="1.0" stroke="rgb(0,0,0)"  stroke-width="3"/>
<line x1="342.0" y1="206.6" x2="364.3" y2="191.0" opacity="1.0" stroke="rgb(0,0,0)"  stroke-width="3"/>
<line x1="373.4" y1="193.4" x2="370.0" y2="154.3" opacity="1.0" stroke="rgb(0,0,0)"  stroke-width="3"/>
<line x1="370.0" y1="154.3" x2="334.5" y2="137.7" opacity="1.0" stroke="rgb(0,0,0)"  stroke-width="3"/>
<line x1="361.5" y1="158.3" x2="336.9" y2="146.8" opacity="1.0" stroke="rgb(0,0,0)"  stroke-width="3"/>
<line x1="355.7" y1="55.5" x2="317.8" y2="45.2" opacity="1.0" stroke="rgb(0,0,0)"  stroke-width="3"/>
<line x1="348.0" y1="60.8" x2="321.7" y2="53.7" opacity="1.0" stroke="rgb(0,0,0)"  stroke-width="3"/>
<line x1="317.8" y1="45.2" x2="290.0" y2="72.8" opacity="1.0" stroke="rgb(0,0,0)"  stroke-width="3"/>
<line x1="290.0" y1="72.8" x2="300.0" y2="110.7" opacity="1.0" stroke="rgb(0,0,0)"  stroke-width="3"/>
<line x1="298.4" y1="76.8" x2="305.4" y2="103.1" opacity="1.0" stroke="rgb(0,0,0)"  stroke-width="3"/>
<line x1="300.0" y1="110.7" x2="337.8" y2="121.0" opacity="1.0" stroke="rgb(0,0,0)"  stroke-width="3"/>
<line x1="337.8" y1="121.0" x2="365.7" y2="93.4" opacity="1.0" stroke="rgb(0,0,0)"  stroke-width="3"/>
<line x1="337.0" y1="111.7" x2="356.4" y2="92.5" opacity="1.0" stroke="rgb(0,0,0)"  stroke-width="3"/>
<line x1="365.7" y1="93.4" x2="355.7" y2="55.5" opacity="1.0" stroke="rgb(0,0,0)"  stroke-width="3"/>
<line x1="173.2" y1="82.6" x2="197.8" y2="113.2" opacity="1.0" stroke="rgb(0,0,0)"  stroke-width="3"/>
<line x1="182.6" y1="82.7" x2="199.7" y2="104.0" opacity="1.0" stroke="rgb(0,0,0)"  stroke-width="3"/>
<line x1="197.8" y1="113.2" x2="236.6" y2="107.2" opacity="1.0" stroke="rgb(0,0,0)"  stroke-width="3"/>
<line x1="236.6" y1="107.2" x2="250.8" y2="70.6" opacity="1.0" stroke="rgb(0,0,0)"  stroke-width="3"/>
<line x1="232.0" y1="99.0" x2="241.9" y2="73.6" opacity="1.0" stroke="rgb(0,0,0)"  stroke-width="3"/>
<line x1="250.8" y1="70.6" x2="226.2" y2="40.0" opacity="1.0" stroke="rgb(0,0,0)"  stroke-width="3"/>
<line x1="226.2" y1="40.0" x2="187.4" y2="46.0" opacity="1.0" stroke="rgb(0,0,0)"  stroke-width="3"/>
<line x1="221.4" y1="48.0" x2="194.5" y2="52.2" opacity="1.0" stroke="rgb(0,0,0)"  stroke-width="3"/>
<line x1="187.4" y1="46.0" x2="173.2" y2="82.6" opacity="1.0" stroke="rgb(0,0,0)"  stroke-width="3"/>
<line x1="290.0" y1="72.8" x2="250.8" y2="70.6" opacity="1.0" stroke="rgb(0,0,0)"  stroke-width="3"/>
<line x1="236.6" y1="107.2" x2="267.0" y2="132.0" opacity="1.0" stroke="rgb(0,0,0)"  stroke-width="3"/>
<line x1="267.0" y1="132.0" x2="300.0" y2="110.7" opacity="1.0" stroke="rgb(0,0,0)"  stroke-width="3"/>
<line x1="267.0" y1="132.0" x2="239.2" y2="159.7" opacity="1.0" stroke="rgb(0,0,0)"  stroke-width="3"/>
<line x1="302.3" y1="160.2" x2="267.0" y2="132.0" opacity="1.0" stroke="rgb(0,0,0)"  stroke-width="3"/>
<text x="197.117890" y="278.034831" fill="rgb(255,181,181)" stroke-width="0" font-weight="bold" font-size="25.92" >B</text>
<text x="333.046722" y="278.034831" fill="rgb(255,181,181)" stroke-width="0" font-weight="bold" font-size="25.92" >B</text>
<text x="264.287009" y="226.476046" fill="rgb(12,12,255)" stroke-width="0" font-weight="bold" font-size="25.92" >N</text>
<text x="333.046722" y="356.513375" fill="rgb(12,12,255)" stroke-width="0" font-weight="bold" font-size="25.92" >N</text>
<text x="197.117890" y="356.513375" fill="rgb(12,12,255)" stroke-width="0" font-weight="bold" font-size="25.92" >N</text>
</svg>
</g>
</svg>
