<?xml version="1.0"?>
<svg version="1.1" id="topsvg"
xmlns="http://www.w3.org/2000/svg" xmlns:xlink="http://www.w3.org/1999/xlink"
xmlns:cml="http://www.xml-cml.org/schema" x="0" y="0" width="200px" height="200px" viewBox="0 0 100 100">
<title>GD300.sdf - Open Babel Depiction</title>
<rect x="0" y="0" width="100" height="100" fill="white"/>
<g transform="translate(0,0)">
<svg width="100" height="100" x="0" y="0" viewBox="0 0 593.587 557.075"
font-family="sans-serif" stroke="rgb(0,0,0)" stroke-width="3"  stroke-linecap="round">
<line x1="369.2" y1="74.3" x2="375.6" y2="52.5" opacity="1.0" stroke="rgb(0,0,0)"  stroke-width="3"/>
<line x1="449.5" y1="205.2" x2="471.9" y2="209.3" opacity="1.0" stroke="rgb(0,0,0)"  stroke-width="3"/>
<line x1="334.4" y1="82.7" x2="318.7" y2="66.2" opacity="1.0" stroke="rgb(0,0,0)"  stroke-width="3"/>
<line x1="393.8" y1="100.2" x2="415.9" y2="94.9" opacity="1.0" stroke="rgb(0,0,0)"  stroke-width="3"/>
<line x1="437.6" y1="171.5" x2="452.3" y2="154.2" opacity="1.0" stroke="rgb(0,0,0)"  stroke-width="3"/>
<line x1="426.4" y1="232.4" x2="434.0" y2="253.8" opacity="1.0" stroke="rgb(0,0,0)"  stroke-width="3"/>
<line x1="158.9" y1="250.6" x2="156.8" y2="273.2" opacity="1.0" stroke="rgb(0,0,0)"  stroke-width="3"/>
<line x1="129.7" y1="230.0" x2="109.0" y2="239.5" opacity="1.0" stroke="rgb(0,0,0)"  stroke-width="3"/>
<line x1="132.9" y1="194.3" x2="114.3" y2="181.2" opacity="1.0" stroke="rgb(0,0,0)"  stroke-width="3"/>
<line x1="157.7" y1="114.5" x2="134.9" y2="114.5" opacity="1.0" stroke="rgb(0,0,0)"  stroke-width="3"/>
<line x1="175.1" y1="83.2" x2="163.8" y2="63.5" opacity="1.0" stroke="rgb(0,0,0)"  stroke-width="3"/>
<line x1="210.9" y1="82.8" x2="222.3" y2="63.0" opacity="1.0" stroke="rgb(0,0,0)"  stroke-width="3"/>
<line x1="91.4" y1="327.1" x2="75.7" y2="295.0" opacity="1.0" stroke="rgb(0,0,0)"  stroke-width="3"/>
<line x1="75.7" y1="295.0" x2="95.6" y2="265.3" opacity="1.0" stroke="rgb(0,0,0)"  stroke-width="3"/>
<line x1="75.7" y1="295.0" x2="40.0" y2="292.6" opacity="1.0" stroke="rgb(0,0,0)"  stroke-width="3"/>
<line x1="75.7" y1="295.0" x2="59.9" y2="262.9" opacity="1.0" stroke="rgb(0,0,0)"  stroke-width="3"/>
<line x1="491.6" y1="357.9" x2="522.6" y2="340.0" opacity="1.0" stroke="rgb(0,0,0)"  stroke-width="3"/>
<line x1="522.6" y1="340.0" x2="553.6" y2="357.9" opacity="1.0" stroke="rgb(0,0,0)"  stroke-width="3"/>
<line x1="522.6" y1="340.0" x2="522.6" y2="304.3" opacity="1.0" stroke="rgb(0,0,0)"  stroke-width="3"/>
<line x1="522.6" y1="340.0" x2="553.6" y2="322.2" opacity="1.0" stroke="rgb(0,0,0)"  stroke-width="3"/>
<line x1="211.4" y1="455.5" x2="232.4" y2="484.4" opacity="1.0" stroke="rgb(0,0,0)"  stroke-width="3"/>
<line x1="232.4" y1="484.4" x2="253.5" y2="513.3" opacity="1.0" stroke="rgb(0,0,0)"  stroke-width="3"/>
<line x1="232.4" y1="484.4" x2="218.0" y2="517.1" opacity="1.0" stroke="rgb(0,0,0)"  stroke-width="3"/>
<line x1="232.4" y1="484.4" x2="268.0" y2="480.6" opacity="1.0" stroke="rgb(0,0,0)"  stroke-width="3"/>
<line x1="325.0" y1="413.6" x2="289.5" y2="417.6" opacity="1.0" stroke="rgb(0,0,0)"  stroke-width="3"/>
<line x1="289.5" y1="417.6" x2="253.9" y2="421.7" opacity="1.0" stroke="rgb(0,0,0)"  stroke-width="3"/>
<line x1="289.5" y1="417.6" x2="275.2" y2="450.4" opacity="1.0" stroke="rgb(0,0,0)"  stroke-width="3"/>
<line x1="289.5" y1="417.6" x2="268.2" y2="388.9" opacity="1.0" stroke="rgb(0,0,0)"  stroke-width="3"/>
<line x1="165.4" y1="179.3" x2="176.0" y2="145.2" opacity="1.0" stroke="rgb(0,0,0)"  stroke-width="3"/>
<line x1="176.0" y1="145.2" x2="211.8" y2="144.7" opacity="1.0" stroke="rgb(0,0,0)"  stroke-width="3"/>
<line x1="182.1" y1="152.3" x2="205.8" y2="152.0" opacity="1.0" stroke="rgb(0,0,0)"  stroke-width="3"/>
<line x1="211.8" y1="144.7" x2="219.1" y2="166.3" opacity="1.0" stroke="rgb(0,0,0)"  stroke-width="3"/>
<line x1="212.8" y1="186.3" x2="194.6" y2="200.0" opacity="1.0" stroke="rgb(0,0,0)"  stroke-width="3"/>
<line x1="194.6" y1="200.0" x2="165.4" y2="179.3" opacity="1.0" stroke="rgb(0,0,0)"  stroke-width="3"/>
<line x1="193.9" y1="190.6" x2="174.5" y2="176.9" opacity="1.0" stroke="rgb(0,0,0)"  stroke-width="3"/>
<line x1="402.4" y1="165.0" x2="379.2" y2="192.2" opacity="1.0" stroke="rgb(0,0,0)"  stroke-width="3"/>
<line x1="393.0" y1="164.9" x2="377.6" y2="183.0" opacity="1.0" stroke="rgb(0,0,0)"  stroke-width="3"/>
<line x1="379.2" y1="192.2" x2="358.2" y2="183.5" opacity="1.0" stroke="rgb(0,0,0)"  stroke-width="3"/>
<line x1="347.2" y1="165.6" x2="348.9" y2="142.9" opacity="1.0" stroke="rgb(0,0,0)"  stroke-width="3"/>
<line x1="348.9" y1="142.9" x2="383.7" y2="134.5" opacity="1.0" stroke="rgb(0,0,0)"  stroke-width="3"/>
<line x1="356.4" y1="148.5" x2="379.5" y2="142.9" opacity="1.0" stroke="rgb(0,0,0)"  stroke-width="3"/>
<line x1="383.7" y1="134.5" x2="402.4" y2="165.0" opacity="1.0" stroke="rgb(0,0,0)"  stroke-width="3"/>
<line x1="253.7" y1="233.0" x2="284.7" y2="250.9" opacity="1.0" stroke="rgb(0,0,0)"  stroke-width="3"/>
<line x1="284.7" y1="250.9" x2="315.7" y2="233.0" opacity="1.0" stroke="rgb(0,0,0)"  stroke-width="3"/>
<line x1="286.3" y1="241.7" x2="306.9" y2="229.8" opacity="1.0" stroke="rgb(0,0,0)"  stroke-width="3"/>
<line x1="315.7" y1="233.0" x2="315.7" y2="197.3" opacity="1.0" stroke="rgb(0,0,0)"  stroke-width="3"/>
<line x1="315.7" y1="197.3" x2="284.7" y2="179.4" opacity="1.0" stroke="rgb(0,0,0)"  stroke-width="3"/>
<line x1="306.9" y1="200.5" x2="286.3" y2="188.6" opacity="1.0" stroke="rgb(0,0,0)"  stroke-width="3"/>
<line x1="284.7" y1="179.4" x2="253.7" y2="197.3" opacity="1.0" stroke="rgb(0,0,0)"  stroke-width="3"/>
<line x1="253.7" y1="197.3" x2="253.7" y2="233.0" opacity="1.0" stroke="rgb(0,0,0)"  stroke-width="3"/>
<line x1="260.9" y1="203.3" x2="260.9" y2="227.0" opacity="1.0" stroke="rgb(0,0,0)"  stroke-width="3"/>
<line x1="211.8" y1="144.7" x2="229.2" y2="113.5" opacity="1.0" stroke="rgb(0,0,0)"  stroke-width="3"/>
<line x1="229.2" y1="113.5" x2="273.3" y2="137.3" opacity="1.0" stroke="rgb(0,0,0)"  stroke-width="3"/>
<line x1="284.7" y1="156.5" x2="284.7" y2="179.4" opacity="1.0" stroke="rgb(0,0,0)"  stroke-width="3"/>
<line x1="253.7" y1="197.3" x2="234.3" y2="185.4" opacity="1.0" stroke="rgb(0,0,0)"  stroke-width="3"/>
<line x1="129.7" y1="230.0" x2="158.9" y2="250.6" opacity="1.0" stroke="rgb(0,0,0)"  stroke-width="3"/>
<line x1="158.9" y1="250.6" x2="191.4" y2="235.6" opacity="1.0" stroke="rgb(0,0,0)"  stroke-width="3"/>
<line x1="161.3" y1="241.5" x2="182.9" y2="231.6" opacity="1.0" stroke="rgb(0,0,0)"  stroke-width="3"/>
<line x1="191.4" y1="235.6" x2="194.6" y2="200.0" opacity="1.0" stroke="rgb(0,0,0)"  stroke-width="3"/>
<line x1="165.4" y1="179.3" x2="132.9" y2="194.3" opacity="1.0" stroke="rgb(0,0,0)"  stroke-width="3"/>
<line x1="132.9" y1="194.3" x2="129.7" y2="230.0" opacity="1.0" stroke="rgb(0,0,0)"  stroke-width="3"/>
<line x1="139.6" y1="201.0" x2="137.4" y2="224.6" opacity="1.0" stroke="rgb(0,0,0)"  stroke-width="3"/>
<line x1="335.1" y1="185.4" x2="315.7" y2="197.3" opacity="1.0" stroke="rgb(0,0,0)"  stroke-width="3"/>
<line x1="295.5" y1="136.3" x2="324.3" y2="117.0" opacity="1.0" stroke="rgb(0,0,0)"  stroke-width="3"/>
<line x1="324.3" y1="117.0" x2="348.9" y2="142.9" opacity="1.0" stroke="rgb(0,0,0)"  stroke-width="3"/>
<line x1="449.5" y1="205.2" x2="426.4" y2="232.4" opacity="1.0" stroke="rgb(0,0,0)"  stroke-width="3"/>
<line x1="426.4" y1="232.4" x2="391.2" y2="225.9" opacity="1.0" stroke="rgb(0,0,0)"  stroke-width="3"/>
<line x1="421.8" y1="224.2" x2="398.4" y2="219.9" opacity="1.0" stroke="rgb(0,0,0)"  stroke-width="3"/>
<line x1="391.2" y1="225.9" x2="379.2" y2="192.2" opacity="1.0" stroke="rgb(0,0,0)"  stroke-width="3"/>
<line x1="402.4" y1="165.0" x2="437.6" y2="171.5" opacity="1.0" stroke="rgb(0,0,0)"  stroke-width="3"/>
<line x1="437.6" y1="171.5" x2="449.5" y2="205.2" opacity="1.0" stroke="rgb(0,0,0)"  stroke-width="3"/>
<line x1="432.8" y1="179.5" x2="440.8" y2="201.9" opacity="1.0" stroke="rgb(0,0,0)"  stroke-width="3"/>
<line x1="369.2" y1="74.3" x2="334.4" y2="82.7" opacity="1.0" stroke="rgb(0,0,0)"  stroke-width="3"/>
<line x1="334.4" y1="82.7" x2="324.3" y2="117.0" opacity="1.0" stroke="rgb(0,0,0)"  stroke-width="3"/>
<line x1="339.6" y1="90.5" x2="332.9" y2="113.3" opacity="1.0" stroke="rgb(0,0,0)"  stroke-width="3"/>
<line x1="383.7" y1="134.5" x2="393.8" y2="100.2" opacity="1.0" stroke="rgb(0,0,0)"  stroke-width="3"/>
<line x1="393.8" y1="100.2" x2="369.2" y2="74.3" opacity="1.0" stroke="rgb(0,0,0)"  stroke-width="3"/>
<line x1="384.5" y1="100.8" x2="368.1" y2="83.6" opacity="1.0" stroke="rgb(0,0,0)"  stroke-width="3"/>
<line x1="176.0" y1="145.2" x2="157.7" y2="114.5" opacity="1.0" stroke="rgb(0,0,0)"  stroke-width="3"/>
<line x1="157.7" y1="114.5" x2="175.1" y2="83.2" opacity="1.0" stroke="rgb(0,0,0)"  stroke-width="3"/>
<line x1="166.9" y1="112.7" x2="178.5" y2="92.0" opacity="1.0" stroke="rgb(0,0,0)"  stroke-width="3"/>
<line x1="175.1" y1="83.2" x2="210.9" y2="82.8" opacity="1.0" stroke="rgb(0,0,0)"  stroke-width="3"/>
<line x1="210.9" y1="82.8" x2="229.2" y2="113.5" opacity="1.0" stroke="rgb(0,0,0)"  stroke-width="3"/>
<line x1="207.8" y1="91.6" x2="220.0" y2="112.0" opacity="1.0" stroke="rgb(0,0,0)"  stroke-width="3"/>
<line x1="145.6" y1="357.1" x2="128.3" y2="388.4" opacity="1.0" stroke="rgb(0,0,0)"  stroke-width="3"/>
<line x1="136.4" y1="358.9" x2="124.9" y2="379.6" opacity="1.0" stroke="rgb(0,0,0)"  stroke-width="3"/>
<line x1="128.3" y1="388.4" x2="92.6" y2="389.0" opacity="1.0" stroke="rgb(0,0,0)"  stroke-width="3"/>
<line x1="92.6" y1="389.0" x2="74.1" y2="358.4" opacity="1.0" stroke="rgb(0,0,0)"  stroke-width="3"/>
<line x1="95.6" y1="380.2" x2="83.4" y2="359.8" opacity="1.0" stroke="rgb(0,0,0)"  stroke-width="3"/>
<line x1="74.1" y1="358.4" x2="91.4" y2="327.1" opacity="1.0" stroke="rgb(0,0,0)"  stroke-width="3"/>
<line x1="91.4" y1="327.1" x2="127.2" y2="326.5" opacity="1.0" stroke="rgb(0,0,0)"  stroke-width="3"/>
<line x1="97.6" y1="334.2" x2="121.3" y2="333.8" opacity="1.0" stroke="rgb(0,0,0)"  stroke-width="3"/>
<line x1="127.2" y1="326.5" x2="145.6" y2="357.1" opacity="1.0" stroke="rgb(0,0,0)"  stroke-width="3"/>
<line x1="211.4" y1="455.5" x2="179.0" y2="470.6" opacity="1.0" stroke="rgb(0,0,0)"  stroke-width="3"/>
<line x1="179.0" y1="470.6" x2="149.7" y2="450.1" opacity="1.0" stroke="rgb(0,0,0)"  stroke-width="3"/>
<line x1="178.2" y1="461.3" x2="158.7" y2="447.7" opacity="1.0" stroke="rgb(0,0,0)"  stroke-width="3"/>
<line x1="149.7" y1="450.1" x2="152.7" y2="414.5" opacity="1.0" stroke="rgb(0,0,0)"  stroke-width="3"/>
<line x1="152.7" y1="414.5" x2="185.1" y2="399.4" opacity="1.0" stroke="rgb(0,0,0)"  stroke-width="3"/>
<line x1="161.2" y1="418.5" x2="182.7" y2="408.4" opacity="1.0" stroke="rgb(0,0,0)"  stroke-width="3"/>
<line x1="185.1" y1="399.4" x2="214.4" y2="419.9" opacity="1.0" stroke="rgb(0,0,0)"  stroke-width="3"/>
<line x1="214.4" y1="419.9" x2="211.4" y2="455.5" opacity="1.0" stroke="rgb(0,0,0)"  stroke-width="3"/>
<line x1="206.8" y1="425.2" x2="204.7" y2="448.9" opacity="1.0" stroke="rgb(0,0,0)"  stroke-width="3"/>
<line x1="430.0" y1="394.2" x2="429.7" y2="358.4" opacity="1.0" stroke="rgb(0,0,0)"  stroke-width="3"/>
<line x1="437.2" y1="388.1" x2="437.0" y2="364.4" opacity="1.0" stroke="rgb(0,0,0)"  stroke-width="3"/>
<line x1="429.7" y1="358.4" x2="460.5" y2="340.3" opacity="1.0" stroke="rgb(0,0,0)"  stroke-width="3"/>
<line x1="460.5" y1="340.3" x2="491.6" y2="357.9" opacity="1.0" stroke="rgb(0,0,0)"  stroke-width="3"/>
<line x1="462.2" y1="349.5" x2="482.9" y2="361.2" opacity="1.0" stroke="rgb(0,0,0)"  stroke-width="3"/>
<line x1="491.6" y1="357.9" x2="491.9" y2="393.7" opacity="1.0" stroke="rgb(0,0,0)"  stroke-width="3"/>
<line x1="491.9" y1="393.7" x2="461.1" y2="411.8" opacity="1.0" stroke="rgb(0,0,0)"  stroke-width="3"/>
<line x1="483.1" y1="390.5" x2="462.6" y2="402.6" opacity="1.0" stroke="rgb(0,0,0)"  stroke-width="3"/>
<line x1="461.1" y1="411.8" x2="430.0" y2="394.2" opacity="1.0" stroke="rgb(0,0,0)"  stroke-width="3"/>
<line x1="339.3" y1="380.8" x2="325.0" y2="413.6" opacity="1.0" stroke="rgb(0,0,0)"  stroke-width="3"/>
<line x1="343.5" y1="389.2" x2="334.0" y2="411.0" opacity="1.0" stroke="rgb(0,0,0)"  stroke-width="3"/>
<line x1="325.0" y1="413.6" x2="346.3" y2="442.4" opacity="1.0" stroke="rgb(0,0,0)"  stroke-width="3"/>
<line x1="346.3" y1="442.4" x2="381.8" y2="438.3" opacity="1.0" stroke="rgb(0,0,0)"  stroke-width="3"/>
<line x1="351.4" y1="434.5" x2="375.0" y2="431.9" opacity="1.0" stroke="rgb(0,0,0)"  stroke-width="3"/>
<line x1="381.8" y1="438.3" x2="396.1" y2="405.5" opacity="1.0" stroke="rgb(0,0,0)"  stroke-width="3"/>
<line x1="396.1" y1="405.5" x2="374.8" y2="376.8" opacity="1.0" stroke="rgb(0,0,0)"  stroke-width="3"/>
<line x1="386.7" y1="405.0" x2="372.6" y2="385.9" opacity="1.0" stroke="rgb(0,0,0)"  stroke-width="3"/>
<line x1="374.8" y1="376.8" x2="339.3" y2="380.8" opacity="1.0" stroke="rgb(0,0,0)"  stroke-width="3"/>
<line x1="152.7" y1="414.5" x2="128.3" y2="388.4" opacity="1.0" stroke="rgb(0,0,0)"  stroke-width="3"/>
<line x1="145.6" y1="357.1" x2="180.7" y2="363.9" opacity="1.0" stroke="rgb(0,0,0)"  stroke-width="3"/>
<line x1="180.7" y1="363.9" x2="185.1" y2="399.4" opacity="1.0" stroke="rgb(0,0,0)"  stroke-width="3"/>
<line x1="395.6" y1="347.7" x2="429.7" y2="358.4" opacity="1.0" stroke="rgb(0,0,0)"  stroke-width="3"/>
<line x1="430.0" y1="394.2" x2="396.1" y2="405.5" opacity="1.0" stroke="rgb(0,0,0)"  stroke-width="3"/>
<line x1="374.8" y1="376.8" x2="395.6" y2="347.7" opacity="1.0" stroke="rgb(0,0,0)"  stroke-width="3"/>
<line x1="315.7" y1="233.0" x2="395.6" y2="347.7" opacity="1.0" stroke="rgb(0,0,0)"  stroke-width="3"/>
<line x1="395.6" y1="347.7" x2="391.2" y2="225.9" opacity="1.0" stroke="rgb(0,0,0)"  stroke-width="3"/>
<line x1="191.4" y1="235.6" x2="180.7" y2="363.9" opacity="1.0" stroke="rgb(0,0,0)"  stroke-width="3"/>
<line x1="180.7" y1="363.9" x2="253.7" y2="233.0" opacity="1.0" stroke="rgb(0,0,0)"  stroke-width="3"/>
<text x="115.925040" y="122.461060" fill="rgb(191,191,191)" stroke-width="0" font-weight="bold" font-size="25.92" >D</text>
<text x="222.788320" y="59.790448" fill="rgb(191,191,191)" stroke-width="0" font-weight="bold" font-size="25.92" >D</text>
<text x="151.263409" y="60.277696" fill="rgb(191,191,191)" stroke-width="0" font-weight="bold" font-size="25.92" >D</text>
<text x="97.715406" y="181.711580" fill="rgb(191,191,191)" stroke-width="0" font-weight="bold" font-size="25.92" >D</text>
<text x="91.207391" y="252.938382" fill="rgb(191,191,191)" stroke-width="0" font-weight="bold" font-size="25.92" >D</text>
<text x="149.638624" y="294.192986" fill="rgb(191,191,191)" stroke-width="0" font-weight="bold" font-size="25.92" >D</text>
<text x="432.323176" y="274.094780" fill="rgb(191,191,191)" stroke-width="0" font-weight="bold" font-size="25.92" >D</text>
<text x="454.777584" y="152.259169" fill="rgb(191,191,191)" stroke-width="0" font-weight="bold" font-size="25.92" >D</text>
<text x="422.579164" y="99.834260" fill="rgb(191,191,191)" stroke-width="0" font-weight="bold" font-size="25.92" >D</text>
<text x="303.754741" y="64.772597" fill="rgb(191,191,191)" stroke-width="0" font-weight="bold" font-size="25.92" >D</text>
<text x="478.720664" y="219.658845" fill="rgb(191,191,191)" stroke-width="0" font-weight="bold" font-size="25.92" >D</text>
<text x="373.285591" y="48.000000" fill="rgb(191,191,191)" stroke-width="0" font-weight="bold" font-size="25.92" >D</text>
<text x="278.709447" y="151.510657" fill="rgb(255,181,181)" stroke-width="0" font-weight="bold" font-size="25.92" >B</text>
<text x="340.153694" y="186.558878" fill="rgb(12,12,255)" stroke-width="0" font-weight="bold" font-size="25.92" >N</text>
<text x="217.260805" y="186.558878" fill="rgb(12,12,255)" stroke-width="0" font-weight="bold" font-size="25.92" >N</text>
</svg>
</g>
</svg>
