<?xml version="1.0"?>
<svg version="1.1" id="topsvg"
xmlns="http://www.w3.org/2000/svg" xmlns:xlink="http://www.w3.org/1999/xlink"
xmlns:cml="http://www.xml-cml.org/schema" x="0" y="0" width="200px" height="200px" viewBox="0 0 100 100">
<title>GD316.sdf - Open Babel Depiction</title>
<rect x="0" y="0" width="100" height="100" fill="white"/>
<g transform="translate(0,0)">
<svg width="100" height="100" x="0" y="0" viewBox="0 0 498.28 499.659"
font-family="sans-serif" stroke="rgb(0,0,0)" stroke-width="3"  stroke-linecap="round">
<line x1="157.9" y1="249.4" x2="118.6" y2="251.0" opacity="1.0" stroke="rgb(0,0,0)"  stroke-width="3"/>
<line x1="160.7" y1="317.5" x2="179.0" y2="282.7" opacity="1.0" stroke="rgb(0,0,0)"  stroke-width="3"/>
<line x1="157.9" y1="249.4" x2="181.2" y2="217.7" opacity="1.0" stroke="rgb(0,0,0)"  stroke-width="3"/>
<line x1="181.2" y1="217.7" x2="216.0" y2="236.0" opacity="1.0" stroke="rgb(0,0,0)"  stroke-width="3"/>
<line x1="183.2" y1="226.9" x2="207.4" y2="239.6" opacity="1.0" stroke="rgb(0,0,0)"  stroke-width="3"/>
<line x1="216.0" y1="236.0" x2="217.1" y2="262.3" opacity="1.0" stroke="rgb(0,0,0)"  stroke-width="3"/>
<line x1="204.8" y1="277.7" x2="179.0" y2="282.7" opacity="1.0" stroke="rgb(0,0,0)"  stroke-width="3"/>
<line x1="179.0" y1="282.7" x2="157.9" y2="249.4" opacity="1.0" stroke="rgb(0,0,0)"  stroke-width="3"/>
<line x1="181.8" y1="273.8" x2="167.2" y2="250.7" opacity="1.0" stroke="rgb(0,0,0)"  stroke-width="3"/>
<line x1="421.9" y1="267.1" x2="388.6" y2="288.1" opacity="1.0" stroke="rgb(0,0,0)"  stroke-width="3"/>
<line x1="412.9" y1="264.2" x2="389.8" y2="278.8" opacity="1.0" stroke="rgb(0,0,0)"  stroke-width="3"/>
<line x1="388.6" y1="288.1" x2="365.3" y2="275.9" opacity="1.0" stroke="rgb(0,0,0)"  stroke-width="3"/>
<line x1="353.3" y1="256.8" x2="352.2" y2="230.5" opacity="1.0" stroke="rgb(0,0,0)"  stroke-width="3"/>
<line x1="352.2" y1="230.5" x2="385.5" y2="209.5" opacity="1.0" stroke="rgb(0,0,0)"  stroke-width="3"/>
<line x1="361.1" y1="233.4" x2="384.2" y2="218.8" opacity="1.0" stroke="rgb(0,0,0)"  stroke-width="3"/>
<line x1="385.5" y1="209.5" x2="421.9" y2="267.1" opacity="1.0" stroke="rgb(0,0,0)"  stroke-width="3"/>
<line x1="394.6" y1="107.4" x2="355.7" y2="113.1" opacity="1.0" stroke="rgb(0,0,0)"  stroke-width="3"/>
<line x1="389.7" y1="115.4" x2="362.7" y2="119.4" opacity="1.0" stroke="rgb(0,0,0)"  stroke-width="3"/>
<line x1="355.7" y1="113.1" x2="349.0" y2="151.9" opacity="1.0" stroke="rgb(0,0,0)"  stroke-width="3"/>
<line x1="349.0" y1="151.9" x2="383.9" y2="170.2" opacity="1.0" stroke="rgb(0,0,0)"  stroke-width="3"/>
<line x1="357.7" y1="148.3" x2="381.9" y2="161.0" opacity="1.0" stroke="rgb(0,0,0)"  stroke-width="3"/>
<line x1="383.9" y1="170.2" x2="402.7" y2="151.8" opacity="1.0" stroke="rgb(0,0,0)"  stroke-width="3"/>
<line x1="406.3" y1="131.0" x2="394.6" y2="107.4" opacity="1.0" stroke="rgb(0,0,0)"  stroke-width="3"/>
<line x1="254.0" y1="332.9" x2="288.8" y2="351.2" opacity="1.0" stroke="rgb(0,0,0)"  stroke-width="3"/>
<line x1="288.8" y1="351.2" x2="322.1" y2="330.2" opacity="1.0" stroke="rgb(0,0,0)"  stroke-width="3"/>
<line x1="290.1" y1="341.9" x2="313.2" y2="327.3" opacity="1.0" stroke="rgb(0,0,0)"  stroke-width="3"/>
<line x1="322.1" y1="330.2" x2="320.5" y2="290.8" opacity="1.0" stroke="rgb(0,0,0)"  stroke-width="3"/>
<line x1="320.5" y1="290.8" x2="285.7" y2="272.6" opacity="1.0" stroke="rgb(0,0,0)"  stroke-width="3"/>
<line x1="311.9" y1="294.4" x2="287.7" y2="281.7" opacity="1.0" stroke="rgb(0,0,0)"  stroke-width="3"/>
<line x1="285.7" y1="272.6" x2="252.4" y2="293.6" opacity="1.0" stroke="rgb(0,0,0)"  stroke-width="3"/>
<line x1="252.4" y1="293.6" x2="254.0" y2="332.9" opacity="1.0" stroke="rgb(0,0,0)"  stroke-width="3"/>
<line x1="259.9" y1="299.3" x2="261.0" y2="326.6" opacity="1.0" stroke="rgb(0,0,0)"  stroke-width="3"/>
<line x1="216.0" y1="236.0" x2="249.3" y2="215.0" opacity="1.0" stroke="rgb(0,0,0)"  stroke-width="3"/>
<line x1="249.3" y1="215.0" x2="272.6" y2="227.2" opacity="1.0" stroke="rgb(0,0,0)"  stroke-width="3"/>
<line x1="284.6" y1="246.2" x2="285.7" y2="272.6" opacity="1.0" stroke="rgb(0,0,0)"  stroke-width="3"/>
<line x1="252.4" y1="293.6" x2="229.1" y2="281.3" opacity="1.0" stroke="rgb(0,0,0)"  stroke-width="3"/>
<line x1="342.8" y1="276.8" x2="320.5" y2="290.8" opacity="1.0" stroke="rgb(0,0,0)"  stroke-width="3"/>
<line x1="295.1" y1="226.3" x2="317.4" y2="212.2" opacity="1.0" stroke="rgb(0,0,0)"  stroke-width="3"/>
<line x1="317.4" y1="212.2" x2="352.2" y2="230.5" opacity="1.0" stroke="rgb(0,0,0)"  stroke-width="3"/>
<line x1="458.3" y1="324.7" x2="425.0" y2="345.7" opacity="1.0" stroke="rgb(0,0,0)"  stroke-width="3"/>
<line x1="425.0" y1="345.7" x2="390.2" y2="327.4" opacity="1.0" stroke="rgb(0,0,0)"  stroke-width="3"/>
<line x1="423.1" y1="336.6" x2="398.9" y2="323.8" opacity="1.0" stroke="rgb(0,0,0)"  stroke-width="3"/>
<line x1="390.2" y1="327.4" x2="388.6" y2="288.1" opacity="1.0" stroke="rgb(0,0,0)"  stroke-width="3"/>
<line x1="421.9" y1="267.1" x2="456.7" y2="285.4" opacity="1.0" stroke="rgb(0,0,0)"  stroke-width="3"/>
<line x1="456.7" y1="285.4" x2="458.3" y2="324.7" opacity="1.0" stroke="rgb(0,0,0)"  stroke-width="3"/>
<line x1="449.7" y1="291.7" x2="450.8" y2="319.0" opacity="1.0" stroke="rgb(0,0,0)"  stroke-width="3"/>
<line x1="181.2" y1="217.7" x2="179.6" y2="178.4" opacity="1.0" stroke="rgb(0,0,0)"  stroke-width="3"/>
<line x1="179.6" y1="178.4" x2="212.9" y2="157.4" opacity="1.0" stroke="rgb(0,0,0)"  stroke-width="3"/>
<line x1="188.5" y1="181.3" x2="211.6" y2="166.6" opacity="1.0" stroke="rgb(0,0,0)"  stroke-width="3"/>
<line x1="212.9" y1="157.4" x2="247.7" y2="175.6" opacity="1.0" stroke="rgb(0,0,0)"  stroke-width="3"/>
<line x1="247.7" y1="175.6" x2="249.3" y2="215.0" opacity="1.0" stroke="rgb(0,0,0)"  stroke-width="3"/>
<line x1="240.7" y1="181.9" x2="241.8" y2="209.3" opacity="1.0" stroke="rgb(0,0,0)"  stroke-width="3"/>
<line x1="244.5" y1="97.0" x2="279.4" y2="115.3" opacity="1.0" stroke="rgb(0,0,0)"  stroke-width="3"/>
<line x1="279.4" y1="115.3" x2="281.0" y2="154.6" opacity="1.0" stroke="rgb(0,0,0)"  stroke-width="3"/>
<line x1="272.4" y1="121.6" x2="273.5" y2="148.9" opacity="1.0" stroke="rgb(0,0,0)"  stroke-width="3"/>
<line x1="281.0" y1="154.6" x2="247.7" y2="175.6" opacity="1.0" stroke="rgb(0,0,0)"  stroke-width="3"/>
<line x1="212.9" y1="157.4" x2="211.3" y2="118.0" opacity="1.0" stroke="rgb(0,0,0)"  stroke-width="3"/>
<line x1="211.3" y1="118.0" x2="244.5" y2="97.0" opacity="1.0" stroke="rgb(0,0,0)"  stroke-width="3"/>
<line x1="220.2" y1="120.9" x2="243.3" y2="106.3" opacity="1.0" stroke="rgb(0,0,0)"  stroke-width="3"/>
<line x1="349.0" y1="151.9" x2="315.8" y2="172.9" opacity="1.0" stroke="rgb(0,0,0)"  stroke-width="3"/>
<line x1="315.8" y1="172.9" x2="317.4" y2="212.2" opacity="1.0" stroke="rgb(0,0,0)"  stroke-width="3"/>
<line x1="323.2" y1="178.6" x2="324.3" y2="205.9" opacity="1.0" stroke="rgb(0,0,0)"  stroke-width="3"/>
<line x1="385.5" y1="209.5" x2="383.9" y2="170.2" opacity="1.0" stroke="rgb(0,0,0)"  stroke-width="3"/>
<line x1="345.8" y1="45.7" x2="331.3" y2="82.2" opacity="1.0" stroke="rgb(0,0,0)"  stroke-width="3"/>
<line x1="350.3" y1="53.9" x2="340.2" y2="79.3" opacity="1.0" stroke="rgb(0,0,0)"  stroke-width="3"/>
<line x1="331.3" y1="82.2" x2="355.7" y2="113.1" opacity="1.0" stroke="rgb(0,0,0)"  stroke-width="3"/>
<line x1="394.6" y1="107.4" x2="409.2" y2="70.9" opacity="1.0" stroke="rgb(0,0,0)"  stroke-width="3"/>
<line x1="409.2" y1="70.9" x2="384.8" y2="40.0" opacity="1.0" stroke="rgb(0,0,0)"  stroke-width="3"/>
<line x1="399.8" y1="70.6" x2="382.8" y2="49.2" opacity="1.0" stroke="rgb(0,0,0)"  stroke-width="3"/>
<line x1="384.8" y1="40.0" x2="345.8" y2="45.7" opacity="1.0" stroke="rgb(0,0,0)"  stroke-width="3"/>
<line x1="276.6" y1="453.0" x2="315.4" y2="459.7" opacity="1.0" stroke="rgb(0,0,0)"  stroke-width="3"/>
<line x1="283.7" y1="446.9" x2="310.7" y2="451.6" opacity="1.0" stroke="rgb(0,0,0)"  stroke-width="3"/>
<line x1="315.4" y1="459.7" x2="340.5" y2="429.4" opacity="1.0" stroke="rgb(0,0,0)"  stroke-width="3"/>
<line x1="340.5" y1="429.4" x2="326.8" y2="392.5" opacity="1.0" stroke="rgb(0,0,0)"  stroke-width="3"/>
<line x1="331.7" y1="426.3" x2="322.2" y2="400.6" opacity="1.0" stroke="rgb(0,0,0)"  stroke-width="3"/>
<line x1="326.8" y1="392.5" x2="288.1" y2="385.9" opacity="1.0" stroke="rgb(0,0,0)"  stroke-width="3"/>
<line x1="288.1" y1="385.9" x2="262.9" y2="416.1" opacity="1.0" stroke="rgb(0,0,0)"  stroke-width="3"/>
<line x1="289.8" y1="395.1" x2="272.3" y2="416.1" opacity="1.0" stroke="rgb(0,0,0)"  stroke-width="3"/>
<line x1="262.9" y1="416.1" x2="276.6" y2="453.0" opacity="1.0" stroke="rgb(0,0,0)"  stroke-width="3"/>
<line x1="456.1" y1="408.4" x2="428.6" y2="380.2" opacity="1.0" stroke="rgb(0,0,0)"  stroke-width="3"/>
<line x1="446.7" y1="409.1" x2="427.6" y2="389.5" opacity="1.0" stroke="rgb(0,0,0)"  stroke-width="3"/>
<line x1="428.6" y1="380.2" x2="390.5" y2="389.9" opacity="1.0" stroke="rgb(0,0,0)"  stroke-width="3"/>
<line x1="390.5" y1="389.9" x2="379.8" y2="427.8" opacity="1.0" stroke="rgb(0,0,0)"  stroke-width="3"/>
<line x1="395.8" y1="397.7" x2="388.4" y2="424.0" opacity="1.0" stroke="rgb(0,0,0)"  stroke-width="3"/>
<line x1="379.8" y1="427.8" x2="407.3" y2="456.0" opacity="1.0" stroke="rgb(0,0,0)"  stroke-width="3"/>
<line x1="407.3" y1="456.0" x2="445.4" y2="446.2" opacity="1.0" stroke="rgb(0,0,0)"  stroke-width="3"/>
<line x1="411.3" y1="447.5" x2="437.8" y2="440.8" opacity="1.0" stroke="rgb(0,0,0)"  stroke-width="3"/>
<line x1="445.4" y1="446.2" x2="456.1" y2="408.4" opacity="1.0" stroke="rgb(0,0,0)"  stroke-width="3"/>
<line x1="97.6" y1="217.7" x2="58.3" y2="219.3" opacity="1.0" stroke="rgb(0,0,0)"  stroke-width="3"/>
<line x1="58.3" y1="219.3" x2="40.0" y2="254.2" opacity="1.0" stroke="rgb(0,0,0)"  stroke-width="3"/>
<line x1="61.9" y1="228.0" x2="49.2" y2="252.2" opacity="1.0" stroke="rgb(0,0,0)"  stroke-width="3"/>
<line x1="40.0" y1="254.2" x2="61.0" y2="287.4" opacity="1.0" stroke="rgb(0,0,0)"  stroke-width="3"/>
<line x1="61.0" y1="287.4" x2="100.3" y2="285.8" opacity="1.0" stroke="rgb(0,0,0)"  stroke-width="3"/>
<line x1="66.7" y1="280.0" x2="94.1" y2="278.9" opacity="1.0" stroke="rgb(0,0,0)"  stroke-width="3"/>
<line x1="100.3" y1="285.8" x2="118.6" y2="251.0" opacity="1.0" stroke="rgb(0,0,0)"  stroke-width="3"/>
<line x1="118.6" y1="251.0" x2="97.6" y2="217.7" opacity="1.0" stroke="rgb(0,0,0)"  stroke-width="3"/>
<line x1="109.3" y1="249.8" x2="94.7" y2="226.7" opacity="1.0" stroke="rgb(0,0,0)"  stroke-width="3"/>
<line x1="121.4" y1="319.1" x2="103.1" y2="353.9" opacity="1.0" stroke="rgb(0,0,0)"  stroke-width="3"/>
<line x1="103.1" y1="353.9" x2="124.1" y2="387.2" opacity="1.0" stroke="rgb(0,0,0)"  stroke-width="3"/>
<line x1="112.4" y1="355.2" x2="127.0" y2="378.3" opacity="1.0" stroke="rgb(0,0,0)"  stroke-width="3"/>
<line x1="124.1" y1="387.2" x2="163.4" y2="385.6" opacity="1.0" stroke="rgb(0,0,0)"  stroke-width="3"/>
<line x1="163.4" y1="385.6" x2="181.7" y2="350.8" opacity="1.0" stroke="rgb(0,0,0)"  stroke-width="3"/>
<line x1="159.8" y1="376.9" x2="172.5" y2="352.7" opacity="1.0" stroke="rgb(0,0,0)"  stroke-width="3"/>
<line x1="181.7" y1="350.8" x2="160.7" y2="317.5" opacity="1.0" stroke="rgb(0,0,0)"  stroke-width="3"/>
<line x1="160.7" y1="317.5" x2="121.4" y2="319.1" opacity="1.0" stroke="rgb(0,0,0)"  stroke-width="3"/>
<line x1="155.0" y1="325.0" x2="127.6" y2="326.0" opacity="1.0" stroke="rgb(0,0,0)"  stroke-width="3"/>
<line x1="340.5" y1="429.4" x2="379.8" y2="427.8" opacity="1.0" stroke="rgb(0,0,0)"  stroke-width="3"/>
<line x1="390.5" y1="389.9" x2="357.3" y2="358.3" opacity="1.0" stroke="rgb(0,0,0)"  stroke-width="3"/>
<line x1="357.3" y1="358.3" x2="326.8" y2="392.5" opacity="1.0" stroke="rgb(0,0,0)"  stroke-width="3"/>
<line x1="322.1" y1="330.2" x2="357.3" y2="358.3" opacity="1.0" stroke="rgb(0,0,0)"  stroke-width="3"/>
<line x1="357.3" y1="358.3" x2="390.2" y2="327.4" opacity="1.0" stroke="rgb(0,0,0)"  stroke-width="3"/>
<text x="278.112574" y="241.247585" fill="rgb(255,181,181)" stroke-width="0" font-weight="bold" font-size="25.92" >B</text>
<text x="211.599046" y="283.292867" fill="rgb(12,12,255)" stroke-width="0" font-weight="bold" font-size="25.92" >N</text>
<text x="347.779731" y="277.827894" fill="rgb(12,12,255)" stroke-width="0" font-weight="bold" font-size="25.92" >N</text>
<text x="406.038285" y="150.701356" fill="rgb(255,12,12)" stroke-width="0" font-weight="bold" font-size="25.92" >O</text>
</svg>
</g>
</svg>
