<?xml version="1.0"?>
<svg version="1.1" id="topsvg"
xmlns="http://www.w3.org/2000/svg" xmlns:xlink="http://www.w3.org/1999/xlink"
xmlns:cml="http://www.xml-cml.org/schema" x="0" y="0" width="200px" height="200px" viewBox="0 0 100 100">
<title>GD310.sdf - Open Babel Depiction</title>
<rect x="0" y="0" width="100" height="100" fill="white"/>
<g transform="translate(0,0)">
<svg width="100" height="100" x="0" y="0" viewBox="0 0 768.729 502.855"
font-family="sans-serif" stroke="rgb(0,0,0)" stroke-width="3"  stroke-linecap="round">
<line x1="269.7" y1="355.0" x2="249.9" y2="389.2" opacity="1.0" stroke="rgb(0,0,0)"  stroke-width="3"/>
<line x1="308.4" y1="346.8" x2="318.6" y2="385.0" opacity="1.0" stroke="rgb(0,0,0)"  stroke-width="3"/>
<line x1="453.5" y1="346.8" x2="443.3" y2="385.0" opacity="1.0" stroke="rgb(0,0,0)"  stroke-width="3"/>
<line x1="492.2" y1="355.0" x2="520.1" y2="383.0" opacity="1.0" stroke="rgb(0,0,0)"  stroke-width="3"/>
<line x1="465.8" y1="107.0" x2="492.3" y2="77.6" opacity="1.0" stroke="rgb(0,0,0)"  stroke-width="3"/>
<line x1="296.1" y1="107.0" x2="269.6" y2="77.6" opacity="1.0" stroke="rgb(0,0,0)"  stroke-width="3"/>
<line x1="269.6" y1="77.6" x2="231.0" y2="85.8" opacity="1.0" stroke="rgb(0,0,0)"  stroke-width="3"/>
<line x1="269.6" y1="77.6" x2="281.8" y2="40.0" opacity="1.0" stroke="rgb(0,0,0)"  stroke-width="3"/>
<line x1="269.6" y1="77.6" x2="308.3" y2="69.4" opacity="1.0" stroke="rgb(0,0,0)"  stroke-width="3"/>
<line x1="492.3" y1="77.6" x2="480.0" y2="40.0" opacity="1.0" stroke="rgb(0,0,0)"  stroke-width="3"/>
<line x1="492.3" y1="77.6" x2="530.9" y2="85.8" opacity="1.0" stroke="rgb(0,0,0)"  stroke-width="3"/>
<line x1="492.3" y1="77.6" x2="518.7" y2="48.2" opacity="1.0" stroke="rgb(0,0,0)"  stroke-width="3"/>
<line x1="558.3" y1="372.7" x2="596.5" y2="362.5" opacity="1.0" stroke="rgb(0,0,0)"  stroke-width="3"/>
<line x1="644.9" y1="314.1" x2="655.1" y2="275.9" opacity="1.0" stroke="rgb(0,0,0)"  stroke-width="3"/>
<line x1="655.1" y1="275.9" x2="627.2" y2="248.0" opacity="1.0" stroke="rgb(0,0,0)"  stroke-width="3"/>
<line x1="655.1" y1="275.9" x2="693.3" y2="265.7" opacity="1.0" stroke="rgb(0,0,0)"  stroke-width="3"/>
<line x1="655.1" y1="275.9" x2="665.3" y2="237.8" opacity="1.0" stroke="rgb(0,0,0)"  stroke-width="3"/>
<line x1="662.6" y1="380.2" x2="690.6" y2="408.2" opacity="1.0" stroke="rgb(0,0,0)"  stroke-width="3"/>
<line x1="690.6" y1="408.2" x2="728.7" y2="397.9" opacity="1.0" stroke="rgb(0,0,0)"  stroke-width="3"/>
<line x1="690.6" y1="408.2" x2="680.3" y2="446.3" opacity="1.0" stroke="rgb(0,0,0)"  stroke-width="3"/>
<line x1="690.6" y1="408.2" x2="700.8" y2="370.0" opacity="1.0" stroke="rgb(0,0,0)"  stroke-width="3"/>
<line x1="210.4" y1="389.2" x2="172.2" y2="379.0" opacity="1.0" stroke="rgb(0,0,0)"  stroke-width="3"/>
<line x1="123.8" y1="330.6" x2="113.6" y2="292.4" opacity="1.0" stroke="rgb(0,0,0)"  stroke-width="3"/>
<line x1="113.6" y1="292.4" x2="141.6" y2="264.5" opacity="1.0" stroke="rgb(0,0,0)"  stroke-width="3"/>
<line x1="113.6" y1="292.4" x2="75.4" y2="282.2" opacity="1.0" stroke="rgb(0,0,0)"  stroke-width="3"/>
<line x1="113.6" y1="292.4" x2="103.4" y2="254.3" opacity="1.0" stroke="rgb(0,0,0)"  stroke-width="3"/>
<line x1="106.1" y1="396.7" x2="78.2" y2="424.7" opacity="1.0" stroke="rgb(0,0,0)"  stroke-width="3"/>
<line x1="78.2" y1="424.7" x2="40.0" y2="414.5" opacity="1.0" stroke="rgb(0,0,0)"  stroke-width="3"/>
<line x1="78.2" y1="424.7" x2="88.4" y2="462.9" opacity="1.0" stroke="rgb(0,0,0)"  stroke-width="3"/>
<line x1="78.2" y1="424.7" x2="67.9" y2="386.5" opacity="1.0" stroke="rgb(0,0,0)"  stroke-width="3"/>
<line x1="400.7" y1="128.1" x2="412.9" y2="165.7" opacity="1.0" stroke="rgb(0,0,0)"  stroke-width="3"/>
<line x1="395.7" y1="136.0" x2="404.2" y2="162.2" opacity="1.0" stroke="rgb(0,0,0)"  stroke-width="3"/>
<line x1="412.9" y1="165.7" x2="391.5" y2="181.3" opacity="1.0" stroke="rgb(0,0,0)"  stroke-width="3"/>
<line x1="370.4" y1="181.3" x2="349.0" y2="165.7" opacity="1.0" stroke="rgb(0,0,0)"  stroke-width="3"/>
<line x1="349.0" y1="165.7" x2="361.2" y2="128.1" opacity="1.0" stroke="rgb(0,0,0)"  stroke-width="3"/>
<line x1="357.7" y1="162.2" x2="366.2" y2="136.0" opacity="1.0" stroke="rgb(0,0,0)"  stroke-width="3"/>
<line x1="361.2" y1="128.1" x2="400.7" y2="128.1" opacity="1.0" stroke="rgb(0,0,0)"  stroke-width="3"/>
<line x1="269.7" y1="355.0" x2="249.9" y2="320.8" opacity="1.0" stroke="rgb(0,0,0)"  stroke-width="3"/>
<line x1="249.9" y1="320.8" x2="276.4" y2="291.4" opacity="1.0" stroke="rgb(0,0,0)"  stroke-width="3"/>
<line x1="259.3" y1="321.2" x2="277.7" y2="300.7" opacity="1.0" stroke="rgb(0,0,0)"  stroke-width="3"/>
<line x1="276.4" y1="291.4" x2="300.6" y2="302.2" opacity="1.0" stroke="rgb(0,0,0)"  stroke-width="3"/>
<line x1="311.1" y1="320.4" x2="308.4" y2="346.8" opacity="1.0" stroke="rgb(0,0,0)"  stroke-width="3"/>
<line x1="308.4" y1="346.8" x2="269.7" y2="355.0" opacity="1.0" stroke="rgb(0,0,0)"  stroke-width="3"/>
<line x1="301.0" y1="341.0" x2="274.1" y2="346.7" opacity="1.0" stroke="rgb(0,0,0)"  stroke-width="3"/>
<line x1="453.5" y1="346.8" x2="492.2" y2="355.0" opacity="1.0" stroke="rgb(0,0,0)"  stroke-width="3"/>
<line x1="460.9" y1="341.0" x2="487.8" y2="346.7" opacity="1.0" stroke="rgb(0,0,0)"  stroke-width="3"/>
<line x1="492.2" y1="355.0" x2="511.9" y2="320.8" opacity="1.0" stroke="rgb(0,0,0)"  stroke-width="3"/>
<line x1="511.9" y1="320.8" x2="485.5" y2="291.4" opacity="1.0" stroke="rgb(0,0,0)"  stroke-width="3"/>
<line x1="502.6" y1="321.2" x2="484.2" y2="300.7" opacity="1.0" stroke="rgb(0,0,0)"  stroke-width="3"/>
<line x1="485.5" y1="291.4" x2="461.3" y2="302.2" opacity="1.0" stroke="rgb(0,0,0)"  stroke-width="3"/>
<line x1="450.8" y1="320.4" x2="453.5" y2="346.8" opacity="1.0" stroke="rgb(0,0,0)"  stroke-width="3"/>
<line x1="346.7" y1="287.7" x2="380.9" y2="307.5" opacity="1.0" stroke="rgb(0,0,0)"  stroke-width="3"/>
<line x1="380.9" y1="307.5" x2="415.2" y2="287.7" opacity="1.0" stroke="rgb(0,0,0)"  stroke-width="3"/>
<line x1="382.5" y1="298.3" x2="406.4" y2="284.5" opacity="1.0" stroke="rgb(0,0,0)"  stroke-width="3"/>
<line x1="415.2" y1="287.7" x2="415.2" y2="248.2" opacity="1.0" stroke="rgb(0,0,0)"  stroke-width="3"/>
<line x1="415.2" y1="248.2" x2="380.9" y2="228.5" opacity="1.0" stroke="rgb(0,0,0)"  stroke-width="3"/>
<line x1="406.4" y1="251.4" x2="382.5" y2="237.7" opacity="1.0" stroke="rgb(0,0,0)"  stroke-width="3"/>
<line x1="380.9" y1="228.5" x2="346.7" y2="248.2" opacity="1.0" stroke="rgb(0,0,0)"  stroke-width="3"/>
<line x1="346.7" y1="248.2" x2="346.7" y2="287.7" opacity="1.0" stroke="rgb(0,0,0)"  stroke-width="3"/>
<line x1="353.9" y1="254.2" x2="353.9" y2="281.7" opacity="1.0" stroke="rgb(0,0,0)"  stroke-width="3"/>
<line x1="380.9" y1="201.9" x2="380.9" y2="228.5" opacity="1.0" stroke="rgb(0,0,0)"  stroke-width="3"/>
<line x1="346.7" y1="248.2" x2="323.7" y2="235.0" opacity="1.0" stroke="rgb(0,0,0)"  stroke-width="3"/>
<line x1="312.0" y1="215.5" x2="310.3" y2="173.9" opacity="1.0" stroke="rgb(0,0,0)"  stroke-width="3"/>
<line x1="310.3" y1="173.9" x2="349.0" y2="165.7" opacity="1.0" stroke="rgb(0,0,0)"  stroke-width="3"/>
<line x1="562.8" y1="275.0" x2="536.4" y2="245.6" opacity="1.0" stroke="rgb(0,0,0)"  stroke-width="3"/>
<line x1="536.4" y1="245.6" x2="497.7" y2="253.8" opacity="1.0" stroke="rgb(0,0,0)"  stroke-width="3"/>
<line x1="532.0" y1="253.9" x2="505.1" y2="259.6" opacity="1.0" stroke="rgb(0,0,0)"  stroke-width="3"/>
<line x1="497.7" y1="253.8" x2="485.5" y2="291.4" opacity="1.0" stroke="rgb(0,0,0)"  stroke-width="3"/>
<line x1="511.9" y1="320.8" x2="550.6" y2="312.6" opacity="1.0" stroke="rgb(0,0,0)"  stroke-width="3"/>
<line x1="550.6" y1="312.6" x2="562.8" y2="275.0" opacity="1.0" stroke="rgb(0,0,0)"  stroke-width="3"/>
<line x1="545.6" y1="304.6" x2="554.1" y2="278.5" opacity="1.0" stroke="rgb(0,0,0)"  stroke-width="3"/>
<line x1="497.7" y1="253.8" x2="460.9" y2="234.5" opacity="1.0" stroke="rgb(0,0,0)"  stroke-width="3"/>
<line x1="438.1" y1="235.0" x2="415.2" y2="248.2" opacity="1.0" stroke="rgb(0,0,0)"  stroke-width="3"/>
<line x1="415.2" y1="287.7" x2="438.1" y2="301.0" opacity="1.0" stroke="rgb(0,0,0)"  stroke-width="3"/>
<line x1="465.8" y1="107.0" x2="478.0" y2="144.5" opacity="1.0" stroke="rgb(0,0,0)"  stroke-width="3"/>
<line x1="478.0" y1="144.5" x2="451.6" y2="173.9" opacity="1.0" stroke="rgb(0,0,0)"  stroke-width="3"/>
<line x1="468.7" y1="144.2" x2="450.2" y2="164.6" opacity="1.0" stroke="rgb(0,0,0)"  stroke-width="3"/>
<line x1="451.6" y1="173.9" x2="412.9" y2="165.7" opacity="1.0" stroke="rgb(0,0,0)"  stroke-width="3"/>
<line x1="400.7" y1="128.1" x2="427.2" y2="98.7" opacity="1.0" stroke="rgb(0,0,0)"  stroke-width="3"/>
<line x1="427.2" y1="98.7" x2="465.8" y2="107.0" opacity="1.0" stroke="rgb(0,0,0)"  stroke-width="3"/>
<line x1="431.5" y1="107.0" x2="458.4" y2="112.8" opacity="1.0" stroke="rgb(0,0,0)"  stroke-width="3"/>
<line x1="296.1" y1="107.0" x2="334.7" y2="98.7" opacity="1.0" stroke="rgb(0,0,0)"  stroke-width="3"/>
<line x1="303.4" y1="112.8" x2="330.4" y2="107.0" opacity="1.0" stroke="rgb(0,0,0)"  stroke-width="3"/>
<line x1="334.7" y1="98.7" x2="361.2" y2="128.1" opacity="1.0" stroke="rgb(0,0,0)"  stroke-width="3"/>
<line x1="310.3" y1="173.9" x2="283.9" y2="144.5" opacity="1.0" stroke="rgb(0,0,0)"  stroke-width="3"/>
<line x1="311.6" y1="164.6" x2="293.2" y2="144.2" opacity="1.0" stroke="rgb(0,0,0)"  stroke-width="3"/>
<line x1="283.9" y1="144.5" x2="296.1" y2="107.0" opacity="1.0" stroke="rgb(0,0,0)"  stroke-width="3"/>
<line x1="346.7" y1="287.7" x2="323.7" y2="301.0" opacity="1.0" stroke="rgb(0,0,0)"  stroke-width="3"/>
<line x1="276.4" y1="291.4" x2="264.2" y2="253.8" opacity="1.0" stroke="rgb(0,0,0)"  stroke-width="3"/>
<line x1="264.2" y1="253.8" x2="301.0" y2="234.5" opacity="1.0" stroke="rgb(0,0,0)"  stroke-width="3"/>
<line x1="449.9" y1="215.5" x2="451.6" y2="173.9" opacity="1.0" stroke="rgb(0,0,0)"  stroke-width="3"/>
<line x1="587.2" y1="199.8" x2="613.7" y2="229.2" opacity="1.0" stroke="rgb(0,0,0)"  stroke-width="3"/>
<line x1="613.7" y1="229.2" x2="601.5" y2="266.8" opacity="1.0" stroke="rgb(0,0,0)"  stroke-width="3"/>
<line x1="605.0" y1="232.7" x2="596.5" y2="258.8" opacity="1.0" stroke="rgb(0,0,0)"  stroke-width="3"/>
<line x1="601.5" y1="266.8" x2="562.8" y2="275.0" opacity="1.0" stroke="rgb(0,0,0)"  stroke-width="3"/>
<line x1="536.4" y1="245.6" x2="548.6" y2="208.0" opacity="1.0" stroke="rgb(0,0,0)"  stroke-width="3"/>
<line x1="548.6" y1="208.0" x2="587.2" y2="199.8" opacity="1.0" stroke="rgb(0,0,0)"  stroke-width="3"/>
<line x1="556.0" y1="213.8" x2="582.9" y2="208.1" opacity="1.0" stroke="rgb(0,0,0)"  stroke-width="3"/>
<line x1="249.9" y1="320.8" x2="211.3" y2="312.6" opacity="1.0" stroke="rgb(0,0,0)"  stroke-width="3"/>
<line x1="211.3" y1="312.6" x2="199.1" y2="275.0" opacity="1.0" stroke="rgb(0,0,0)"  stroke-width="3"/>
<line x1="216.3" y1="304.6" x2="207.8" y2="278.5" opacity="1.0" stroke="rgb(0,0,0)"  stroke-width="3"/>
<line x1="199.1" y1="275.0" x2="225.5" y2="245.6" opacity="1.0" stroke="rgb(0,0,0)"  stroke-width="3"/>
<line x1="225.5" y1="245.6" x2="264.2" y2="253.8" opacity="1.0" stroke="rgb(0,0,0)"  stroke-width="3"/>
<line x1="229.9" y1="253.9" x2="256.8" y2="259.6" opacity="1.0" stroke="rgb(0,0,0)"  stroke-width="3"/>
<line x1="148.2" y1="229.2" x2="174.6" y2="199.8" opacity="1.0" stroke="rgb(0,0,0)"  stroke-width="3"/>
<line x1="174.6" y1="199.8" x2="213.3" y2="208.0" opacity="1.0" stroke="rgb(0,0,0)"  stroke-width="3"/>
<line x1="179.0" y1="208.1" x2="205.9" y2="213.8" opacity="1.0" stroke="rgb(0,0,0)"  stroke-width="3"/>
<line x1="213.3" y1="208.0" x2="225.5" y2="245.6" opacity="1.0" stroke="rgb(0,0,0)"  stroke-width="3"/>
<line x1="199.1" y1="275.0" x2="160.4" y2="266.8" opacity="1.0" stroke="rgb(0,0,0)"  stroke-width="3"/>
<line x1="160.4" y1="266.8" x2="148.2" y2="229.2" opacity="1.0" stroke="rgb(0,0,0)"  stroke-width="3"/>
<line x1="165.4" y1="258.8" x2="156.9" y2="232.7" opacity="1.0" stroke="rgb(0,0,0)"  stroke-width="3"/>
<line x1="509.9" y1="421.1" x2="537.9" y2="449.1" opacity="1.0" stroke="rgb(0,0,0)"  stroke-width="3"/>
<line x1="537.9" y1="449.1" x2="576.0" y2="438.9" opacity="1.0" stroke="rgb(0,0,0)"  stroke-width="3"/>
<line x1="541.8" y1="440.6" x2="568.4" y2="433.5" opacity="1.0" stroke="rgb(0,0,0)"  stroke-width="3"/>
<line x1="576.0" y1="438.9" x2="586.3" y2="400.7" opacity="1.0" stroke="rgb(0,0,0)"  stroke-width="3"/>
<line x1="586.3" y1="400.7" x2="558.3" y2="372.7" opacity="1.0" stroke="rgb(0,0,0)"  stroke-width="3"/>
<line x1="576.9" y1="401.5" x2="557.5" y2="382.1" opacity="1.0" stroke="rgb(0,0,0)"  stroke-width="3"/>
<line x1="558.3" y1="372.7" x2="520.1" y2="383.0" opacity="1.0" stroke="rgb(0,0,0)"  stroke-width="3"/>
<line x1="520.1" y1="383.0" x2="509.9" y2="421.1" opacity="1.0" stroke="rgb(0,0,0)"  stroke-width="3"/>
<line x1="525.5" y1="390.6" x2="518.4" y2="417.2" opacity="1.0" stroke="rgb(0,0,0)"  stroke-width="3"/>
<line x1="210.4" y1="389.2" x2="190.7" y2="423.5" opacity="1.0" stroke="rgb(0,0,0)"  stroke-width="3"/>
<line x1="190.7" y1="423.5" x2="210.4" y2="457.7" opacity="1.0" stroke="rgb(0,0,0)"  stroke-width="3"/>
<line x1="199.9" y1="425.1" x2="213.7" y2="448.9" opacity="1.0" stroke="rgb(0,0,0)"  stroke-width="3"/>
<line x1="210.4" y1="457.7" x2="249.9" y2="457.7" opacity="1.0" stroke="rgb(0,0,0)"  stroke-width="3"/>
<line x1="249.9" y1="457.7" x2="269.7" y2="423.5" opacity="1.0" stroke="rgb(0,0,0)"  stroke-width="3"/>
<line x1="246.7" y1="448.9" x2="260.5" y2="425.1" opacity="1.0" stroke="rgb(0,0,0)"  stroke-width="3"/>
<line x1="269.7" y1="423.5" x2="249.9" y2="389.2" opacity="1.0" stroke="rgb(0,0,0)"  stroke-width="3"/>
<line x1="249.9" y1="389.2" x2="210.4" y2="389.2" opacity="1.0" stroke="rgb(0,0,0)"  stroke-width="3"/>
<line x1="243.9" y1="396.4" x2="216.4" y2="396.4" opacity="1.0" stroke="rgb(0,0,0)"  stroke-width="3"/>
<line x1="290.6" y1="412.9" x2="300.9" y2="451.1" opacity="1.0" stroke="rgb(0,0,0)"  stroke-width="3"/>
<line x1="300.9" y1="451.1" x2="339.0" y2="461.3" opacity="1.0" stroke="rgb(0,0,0)"  stroke-width="3"/>
<line x1="308.5" y1="445.7" x2="335.1" y2="452.8" opacity="1.0" stroke="rgb(0,0,0)"  stroke-width="3"/>
<line x1="339.0" y1="461.3" x2="367.0" y2="433.4" opacity="1.0" stroke="rgb(0,0,0)"  stroke-width="3"/>
<line x1="367.0" y1="433.4" x2="356.8" y2="395.2" opacity="1.0" stroke="rgb(0,0,0)"  stroke-width="3"/>
<line x1="358.5" y1="429.4" x2="351.4" y2="402.9" opacity="1.0" stroke="rgb(0,0,0)"  stroke-width="3"/>
<line x1="356.8" y1="395.2" x2="318.6" y2="385.0" opacity="1.0" stroke="rgb(0,0,0)"  stroke-width="3"/>
<line x1="318.6" y1="385.0" x2="290.6" y2="412.9" opacity="1.0" stroke="rgb(0,0,0)"  stroke-width="3"/>
<line x1="319.4" y1="394.3" x2="300.0" y2="413.8" opacity="1.0" stroke="rgb(0,0,0)"  stroke-width="3"/>
<line x1="405.1" y1="395.2" x2="394.9" y2="433.4" opacity="1.0" stroke="rgb(0,0,0)"  stroke-width="3"/>
<line x1="394.9" y1="433.4" x2="422.8" y2="461.3" opacity="1.0" stroke="rgb(0,0,0)"  stroke-width="3"/>
<line x1="404.2" y1="432.5" x2="423.7" y2="452.0" opacity="1.0" stroke="rgb(0,0,0)"  stroke-width="3"/>
<line x1="422.8" y1="461.3" x2="461.0" y2="451.1" opacity="1.0" stroke="rgb(0,0,0)"  stroke-width="3"/>
<line x1="461.0" y1="451.1" x2="471.2" y2="412.9" opacity="1.0" stroke="rgb(0,0,0)"  stroke-width="3"/>
<line x1="455.6" y1="443.4" x2="462.7" y2="416.9" opacity="1.0" stroke="rgb(0,0,0)"  stroke-width="3"/>
<line x1="471.2" y1="412.9" x2="443.3" y2="385.0" opacity="1.0" stroke="rgb(0,0,0)"  stroke-width="3"/>
<line x1="443.3" y1="385.0" x2="405.1" y2="395.2" opacity="1.0" stroke="rgb(0,0,0)"  stroke-width="3"/>
<line x1="439.4" y1="393.5" x2="412.8" y2="400.6" opacity="1.0" stroke="rgb(0,0,0)"  stroke-width="3"/>
<line x1="624.4" y1="390.5" x2="662.6" y2="380.2" opacity="1.0" stroke="rgb(0,0,0)"  stroke-width="3"/>
<line x1="662.6" y1="380.2" x2="672.8" y2="342.0" opacity="1.0" stroke="rgb(0,0,0)"  stroke-width="3"/>
<line x1="657.2" y1="372.6" x2="664.3" y2="346.0" opacity="1.0" stroke="rgb(0,0,0)"  stroke-width="3"/>
<line x1="672.8" y1="342.0" x2="644.9" y2="314.1" opacity="1.0" stroke="rgb(0,0,0)"  stroke-width="3"/>
<line x1="644.9" y1="314.1" x2="606.7" y2="324.3" opacity="1.0" stroke="rgb(0,0,0)"  stroke-width="3"/>
<line x1="641.0" y1="322.6" x2="614.4" y2="329.7" opacity="1.0" stroke="rgb(0,0,0)"  stroke-width="3"/>
<line x1="606.7" y1="324.3" x2="596.5" y2="362.5" opacity="1.0" stroke="rgb(0,0,0)"  stroke-width="3"/>
<line x1="596.5" y1="362.5" x2="624.4" y2="390.5" opacity="1.0" stroke="rgb(0,0,0)"  stroke-width="3"/>
<line x1="605.8" y1="361.7" x2="625.3" y2="381.1" opacity="1.0" stroke="rgb(0,0,0)"  stroke-width="3"/>
<line x1="162.0" y1="340.8" x2="123.8" y2="330.6" opacity="1.0" stroke="rgb(0,0,0)"  stroke-width="3"/>
<line x1="123.8" y1="330.6" x2="95.9" y2="358.6" opacity="1.0" stroke="rgb(0,0,0)"  stroke-width="3"/>
<line x1="124.7" y1="339.9" x2="105.2" y2="359.4" opacity="1.0" stroke="rgb(0,0,0)"  stroke-width="3"/>
<line x1="95.9" y1="358.6" x2="106.1" y2="396.7" opacity="1.0" stroke="rgb(0,0,0)"  stroke-width="3"/>
<line x1="106.1" y1="396.7" x2="144.3" y2="407.0" opacity="1.0" stroke="rgb(0,0,0)"  stroke-width="3"/>
<line x1="113.8" y1="391.3" x2="140.4" y2="398.5" opacity="1.0" stroke="rgb(0,0,0)"  stroke-width="3"/>
<line x1="144.3" y1="407.0" x2="172.2" y2="379.0" opacity="1.0" stroke="rgb(0,0,0)"  stroke-width="3"/>
<line x1="172.2" y1="379.0" x2="162.0" y2="340.8" opacity="1.0" stroke="rgb(0,0,0)"  stroke-width="3"/>
<line x1="163.7" y1="375.1" x2="156.6" y2="348.5" opacity="1.0" stroke="rgb(0,0,0)"  stroke-width="3"/>
<text x="306.491097" y="236.451889" fill="rgb(255,181,181)" stroke-width="0" font-weight="bold" font-size="25.92" >B</text>
<text x="443.399297" y="236.451889" fill="rgb(255,181,181)" stroke-width="0" font-weight="bold" font-size="25.92" >B</text>
<text x="443.399297" y="315.495899" fill="rgb(12,12,255)" stroke-width="0" font-weight="bold" font-size="25.92" >N</text>
<text x="306.491097" y="315.495899" fill="rgb(12,12,255)" stroke-width="0" font-weight="bold" font-size="25.92" >N</text>
<text x="374.945221" y="196.929884" fill="rgb(12,12,255)" stroke-width="0" font-weight="bold" font-size="25.92" >N</text>
</svg>
</g>
</svg>
