<?xml version="1.0"?>
<svg version="1.1" id="topsvg"
xmlns="http://www.w3.org/2000/svg" xmlns:xlink="http://www.w3.org/1999/xlink"
xmlns:cml="http://www.xml-cml.org/schema" x="0" y="0" width="200px" height="200px" viewBox="0 0 100 100">
<title>GD312.sdf - Open Babel Depiction</title>
<rect x="0" y="0" width="100" height="100" fill="white"/>
<g transform="translate(0,0)">
<svg width="100" height="100" x="0" y="0" viewBox="0 0 675.777 516.872"
font-family="sans-serif" stroke="rgb(0,0,0)" stroke-width="3"  stroke-linecap="round">
<line x1="207.8" y1="117.5" x2="207.8" y2="78.7" opacity="1.0" stroke="rgb(0,0,0)"  stroke-width="3"/>
<line x1="207.8" y1="78.7" x2="241.3" y2="59.4" opacity="1.0" stroke="rgb(0,0,0)"  stroke-width="3"/>
<line x1="207.8" y1="78.7" x2="174.2" y2="59.4" opacity="1.0" stroke="rgb(0,0,0)"  stroke-width="3"/>
<line x1="207.8" y1="78.7" x2="207.8" y2="40.0" opacity="1.0" stroke="rgb(0,0,0)"  stroke-width="3"/>
<line x1="107.1" y1="291.8" x2="73.6" y2="311.2" opacity="1.0" stroke="rgb(0,0,0)"  stroke-width="3"/>
<line x1="73.6" y1="311.2" x2="73.6" y2="350.0" opacity="1.0" stroke="rgb(0,0,0)"  stroke-width="3"/>
<line x1="73.6" y1="311.2" x2="40.0" y2="291.8" opacity="1.0" stroke="rgb(0,0,0)"  stroke-width="3"/>
<line x1="73.6" y1="311.2" x2="73.6" y2="272.5" opacity="1.0" stroke="rgb(0,0,0)"  stroke-width="3"/>
<line x1="377.4" y1="249.5" x2="385.4" y2="287.4" opacity="1.0" stroke="rgb(0,0,0)"  stroke-width="3"/>
<line x1="403.3" y1="220.7" x2="442.1" y2="220.7" opacity="1.0" stroke="rgb(0,0,0)"  stroke-width="3"/>
<line x1="519.5" y1="220.7" x2="558.3" y2="220.7" opacity="1.0" stroke="rgb(0,0,0)"  stroke-width="3"/>
<line x1="401.5" y1="363.2" x2="409.6" y2="401.1" opacity="1.0" stroke="rgb(0,0,0)"  stroke-width="3"/>
<line x1="298.9" y1="409.2" x2="336.8" y2="401.2" opacity="1.0" stroke="rgb(0,0,0)"  stroke-width="3"/>
<line x1="336.8" y1="401.2" x2="362.7" y2="429.9" opacity="1.0" stroke="rgb(0,0,0)"  stroke-width="3"/>
<line x1="336.8" y1="401.2" x2="348.8" y2="364.3" opacity="1.0" stroke="rgb(0,0,0)"  stroke-width="3"/>
<line x1="336.8" y1="401.2" x2="374.7" y2="393.1" opacity="1.0" stroke="rgb(0,0,0)"  stroke-width="3"/>
<line x1="108.6" y1="409.2" x2="70.7" y2="401.2" opacity="1.0" stroke="rgb(0,0,0)"  stroke-width="3"/>
<line x1="70.7" y1="401.2" x2="58.7" y2="364.3" opacity="1.0" stroke="rgb(0,0,0)"  stroke-width="3"/>
<line x1="70.7" y1="401.2" x2="44.7" y2="429.9" opacity="1.0" stroke="rgb(0,0,0)"  stroke-width="3"/>
<line x1="70.7" y1="401.2" x2="96.6" y2="372.4" opacity="1.0" stroke="rgb(0,0,0)"  stroke-width="3"/>
<line x1="140.7" y1="233.7" x2="174.2" y2="175.6" opacity="1.0" stroke="rgb(0,0,0)"  stroke-width="3"/>
<line x1="174.2" y1="175.6" x2="207.8" y2="195.0" opacity="1.0" stroke="rgb(0,0,0)"  stroke-width="3"/>
<line x1="175.8" y1="184.8" x2="199.0" y2="198.2" opacity="1.0" stroke="rgb(0,0,0)"  stroke-width="3"/>
<line x1="207.8" y1="195.0" x2="207.8" y2="220.7" opacity="1.0" stroke="rgb(0,0,0)"  stroke-width="3"/>
<line x1="196.5" y1="240.2" x2="174.2" y2="253.1" opacity="1.0" stroke="rgb(0,0,0)"  stroke-width="3"/>
<line x1="174.2" y1="253.1" x2="140.7" y2="233.7" opacity="1.0" stroke="rgb(0,0,0)"  stroke-width="3"/>
<line x1="172.6" y1="243.9" x2="149.5" y2="230.5" opacity="1.0" stroke="rgb(0,0,0)"  stroke-width="3"/>
<line x1="403.3" y1="220.7" x2="377.4" y2="249.5" opacity="1.0" stroke="rgb(0,0,0)"  stroke-width="3"/>
<line x1="393.9" y1="220.3" x2="376.0" y2="240.2" opacity="1.0" stroke="rgb(0,0,0)"  stroke-width="3"/>
<line x1="377.4" y1="249.5" x2="353.9" y2="239.0" opacity="1.0" stroke="rgb(0,0,0)"  stroke-width="3"/>
<line x1="343.3" y1="220.8" x2="346.0" y2="195.2" opacity="1.0" stroke="rgb(0,0,0)"  stroke-width="3"/>
<line x1="346.0" y1="195.2" x2="383.9" y2="187.1" opacity="1.0" stroke="rgb(0,0,0)"  stroke-width="3"/>
<line x1="353.4" y1="201.0" x2="379.6" y2="195.4" opacity="1.0" stroke="rgb(0,0,0)"  stroke-width="3"/>
<line x1="383.9" y1="187.1" x2="403.3" y2="220.7" opacity="1.0" stroke="rgb(0,0,0)"  stroke-width="3"/>
<line x1="241.3" y1="291.8" x2="274.9" y2="311.2" opacity="1.0" stroke="rgb(0,0,0)"  stroke-width="3"/>
<line x1="274.9" y1="311.2" x2="308.4" y2="291.8" opacity="1.0" stroke="rgb(0,0,0)"  stroke-width="3"/>
<line x1="276.5" y1="302.0" x2="299.6" y2="288.6" opacity="1.0" stroke="rgb(0,0,0)"  stroke-width="3"/>
<line x1="308.4" y1="291.8" x2="308.4" y2="253.1" opacity="1.0" stroke="rgb(0,0,0)"  stroke-width="3"/>
<line x1="308.4" y1="253.1" x2="274.9" y2="233.7" opacity="1.0" stroke="rgb(0,0,0)"  stroke-width="3"/>
<line x1="299.6" y1="256.3" x2="276.5" y2="243.0" opacity="1.0" stroke="rgb(0,0,0)"  stroke-width="3"/>
<line x1="274.9" y1="233.7" x2="241.3" y2="253.1" opacity="1.0" stroke="rgb(0,0,0)"  stroke-width="3"/>
<line x1="241.3" y1="253.1" x2="241.3" y2="291.8" opacity="1.0" stroke="rgb(0,0,0)"  stroke-width="3"/>
<line x1="248.5" y1="259.1" x2="248.5" y2="285.8" opacity="1.0" stroke="rgb(0,0,0)"  stroke-width="3"/>
<line x1="207.8" y1="195.0" x2="241.3" y2="175.6" opacity="1.0" stroke="rgb(0,0,0)"  stroke-width="3"/>
<line x1="241.3" y1="175.6" x2="263.6" y2="188.5" opacity="1.0" stroke="rgb(0,0,0)"  stroke-width="3"/>
<line x1="274.9" y1="208.0" x2="274.9" y2="233.7" opacity="1.0" stroke="rgb(0,0,0)"  stroke-width="3"/>
<line x1="241.3" y1="253.1" x2="219.0" y2="240.2" opacity="1.0" stroke="rgb(0,0,0)"  stroke-width="3"/>
<line x1="107.1" y1="291.8" x2="140.7" y2="311.2" opacity="1.0" stroke="rgb(0,0,0)"  stroke-width="3"/>
<line x1="140.7" y1="311.2" x2="174.2" y2="291.8" opacity="1.0" stroke="rgb(0,0,0)"  stroke-width="3"/>
<line x1="142.3" y1="302.0" x2="165.4" y2="288.6" opacity="1.0" stroke="rgb(0,0,0)"  stroke-width="3"/>
<line x1="174.2" y1="291.8" x2="174.2" y2="253.1" opacity="1.0" stroke="rgb(0,0,0)"  stroke-width="3"/>
<line x1="140.7" y1="233.7" x2="107.1" y2="253.1" opacity="1.0" stroke="rgb(0,0,0)"  stroke-width="3"/>
<line x1="107.1" y1="253.1" x2="107.1" y2="291.8" opacity="1.0" stroke="rgb(0,0,0)"  stroke-width="3"/>
<line x1="114.3" y1="259.1" x2="114.3" y2="285.8" opacity="1.0" stroke="rgb(0,0,0)"  stroke-width="3"/>
<line x1="330.7" y1="240.2" x2="308.4" y2="253.1" opacity="1.0" stroke="rgb(0,0,0)"  stroke-width="3"/>
<line x1="285.9" y1="188.0" x2="320.1" y2="166.4" opacity="1.0" stroke="rgb(0,0,0)"  stroke-width="3"/>
<line x1="320.1" y1="166.4" x2="346.0" y2="195.2" opacity="1.0" stroke="rgb(0,0,0)"  stroke-width="3"/>
<line x1="174.2" y1="175.6" x2="174.2" y2="136.9" opacity="1.0" stroke="rgb(0,0,0)"  stroke-width="3"/>
<line x1="174.2" y1="136.9" x2="207.8" y2="117.5" opacity="1.0" stroke="rgb(0,0,0)"  stroke-width="3"/>
<line x1="183.0" y1="140.1" x2="206.2" y2="126.7" opacity="1.0" stroke="rgb(0,0,0)"  stroke-width="3"/>
<line x1="207.8" y1="117.5" x2="241.3" y2="136.9" opacity="1.0" stroke="rgb(0,0,0)"  stroke-width="3"/>
<line x1="241.3" y1="136.9" x2="241.3" y2="175.6" opacity="1.0" stroke="rgb(0,0,0)"  stroke-width="3"/>
<line x1="234.1" y1="142.9" x2="234.1" y2="169.6" opacity="1.0" stroke="rgb(0,0,0)"  stroke-width="3"/>
<line x1="298.9" y1="409.2" x2="273.0" y2="380.4" opacity="1.0" stroke="rgb(0,0,0)"  stroke-width="3"/>
<line x1="289.5" y1="409.6" x2="271.6" y2="389.7" opacity="1.0" stroke="rgb(0,0,0)"  stroke-width="3"/>
<line x1="273.0" y1="380.4" x2="235.1" y2="388.5" opacity="1.0" stroke="rgb(0,0,0)"  stroke-width="3"/>
<line x1="235.1" y1="388.5" x2="223.1" y2="425.3" opacity="1.0" stroke="rgb(0,0,0)"  stroke-width="3"/>
<line x1="240.1" y1="396.4" x2="231.8" y2="421.8" opacity="1.0" stroke="rgb(0,0,0)"  stroke-width="3"/>
<line x1="223.1" y1="425.3" x2="249.0" y2="454.1" opacity="1.0" stroke="rgb(0,0,0)"  stroke-width="3"/>
<line x1="249.0" y1="454.1" x2="286.9" y2="446.1" opacity="1.0" stroke="rgb(0,0,0)"  stroke-width="3"/>
<line x1="253.4" y1="445.8" x2="279.6" y2="440.3" opacity="1.0" stroke="rgb(0,0,0)"  stroke-width="3"/>
<line x1="286.9" y1="446.1" x2="298.9" y2="409.2" opacity="1.0" stroke="rgb(0,0,0)"  stroke-width="3"/>
<line x1="120.5" y1="446.1" x2="158.4" y2="454.1" opacity="1.0" stroke="rgb(0,0,0)"  stroke-width="3"/>
<line x1="127.9" y1="440.3" x2="154.1" y2="445.8" opacity="1.0" stroke="rgb(0,0,0)"  stroke-width="3"/>
<line x1="158.4" y1="454.1" x2="184.4" y2="425.3" opacity="1.0" stroke="rgb(0,0,0)"  stroke-width="3"/>
<line x1="184.4" y1="425.3" x2="172.4" y2="388.5" opacity="1.0" stroke="rgb(0,0,0)"  stroke-width="3"/>
<line x1="175.7" y1="421.8" x2="167.4" y2="396.4" opacity="1.0" stroke="rgb(0,0,0)"  stroke-width="3"/>
<line x1="172.4" y1="388.5" x2="134.5" y2="380.4" opacity="1.0" stroke="rgb(0,0,0)"  stroke-width="3"/>
<line x1="134.5" y1="380.4" x2="108.6" y2="409.2" opacity="1.0" stroke="rgb(0,0,0)"  stroke-width="3"/>
<line x1="135.8" y1="389.7" x2="117.9" y2="409.6" opacity="1.0" stroke="rgb(0,0,0)"  stroke-width="3"/>
<line x1="108.6" y1="409.2" x2="120.5" y2="446.1" opacity="1.0" stroke="rgb(0,0,0)"  stroke-width="3"/>
<line x1="370.0" y1="121.5" x2="332.1" y2="129.5" opacity="1.0" stroke="rgb(0,0,0)"  stroke-width="3"/>
<line x1="332.1" y1="129.5" x2="320.1" y2="166.4" opacity="1.0" stroke="rgb(0,0,0)"  stroke-width="3"/>
<line x1="337.1" y1="137.5" x2="328.8" y2="162.9" opacity="1.0" stroke="rgb(0,0,0)"  stroke-width="3"/>
<line x1="383.9" y1="187.1" x2="395.9" y2="150.3" opacity="1.0" stroke="rgb(0,0,0)"  stroke-width="3"/>
<line x1="395.9" y1="150.3" x2="370.0" y2="121.5" opacity="1.0" stroke="rgb(0,0,0)"  stroke-width="3"/>
<line x1="386.5" y1="150.6" x2="368.6" y2="130.8" opacity="1.0" stroke="rgb(0,0,0)"  stroke-width="3"/>
<line x1="318.1" y1="63.9" x2="356.0" y2="55.9" opacity="1.0" stroke="rgb(0,0,0)"  stroke-width="3"/>
<line x1="356.0" y1="55.9" x2="382.0" y2="84.6" opacity="1.0" stroke="rgb(0,0,0)"  stroke-width="3"/>
<line x1="354.7" y1="65.1" x2="372.6" y2="85.0" opacity="1.0" stroke="rgb(0,0,0)"  stroke-width="3"/>
<line x1="382.0" y1="84.6" x2="370.0" y2="121.5" opacity="1.0" stroke="rgb(0,0,0)"  stroke-width="3"/>
<line x1="332.1" y1="129.5" x2="306.2" y2="100.8" opacity="1.0" stroke="rgb(0,0,0)"  stroke-width="3"/>
<line x1="306.2" y1="100.8" x2="318.1" y2="63.9" opacity="1.0" stroke="rgb(0,0,0)"  stroke-width="3"/>
<line x1="314.9" y1="97.3" x2="323.1" y2="71.8" opacity="1.0" stroke="rgb(0,0,0)"  stroke-width="3"/>
<line x1="356.6" y1="313.3" x2="364.7" y2="351.2" opacity="1.0" stroke="rgb(0,0,0)"  stroke-width="3"/>
<line x1="364.7" y1="351.2" x2="401.5" y2="363.2" opacity="1.0" stroke="rgb(0,0,0)"  stroke-width="3"/>
<line x1="372.6" y1="346.2" x2="398.1" y2="354.5" opacity="1.0" stroke="rgb(0,0,0)"  stroke-width="3"/>
<line x1="401.5" y1="363.2" x2="430.3" y2="337.2" opacity="1.0" stroke="rgb(0,0,0)"  stroke-width="3"/>
<line x1="430.3" y1="337.2" x2="422.3" y2="299.4" opacity="1.0" stroke="rgb(0,0,0)"  stroke-width="3"/>
<line x1="422.1" y1="332.9" x2="416.5" y2="306.7" opacity="1.0" stroke="rgb(0,0,0)"  stroke-width="3"/>
<line x1="422.3" y1="299.4" x2="385.4" y2="287.4" opacity="1.0" stroke="rgb(0,0,0)"  stroke-width="3"/>
<line x1="385.4" y1="287.4" x2="356.6" y2="313.3" opacity="1.0" stroke="rgb(0,0,0)"  stroke-width="3"/>
<line x1="385.8" y1="296.7" x2="365.9" y2="314.6" opacity="1.0" stroke="rgb(0,0,0)"  stroke-width="3"/>
<line x1="461.4" y1="254.2" x2="500.2" y2="254.2" opacity="1.0" stroke="rgb(0,0,0)"  stroke-width="3"/>
<line x1="500.2" y1="254.2" x2="519.5" y2="220.7" opacity="1.0" stroke="rgb(0,0,0)"  stroke-width="3"/>
<line x1="496.9" y1="245.4" x2="510.3" y2="222.3" opacity="1.0" stroke="rgb(0,0,0)"  stroke-width="3"/>
<line x1="519.5" y1="220.7" x2="500.2" y2="187.1" opacity="1.0" stroke="rgb(0,0,0)"  stroke-width="3"/>
<line x1="500.2" y1="187.1" x2="461.4" y2="187.1" opacity="1.0" stroke="rgb(0,0,0)"  stroke-width="3"/>
<line x1="494.2" y1="194.3" x2="467.4" y2="194.3" opacity="1.0" stroke="rgb(0,0,0)"  stroke-width="3"/>
<line x1="461.4" y1="187.1" x2="442.1" y2="220.7" opacity="1.0" stroke="rgb(0,0,0)"  stroke-width="3"/>
<line x1="442.1" y1="220.7" x2="461.4" y2="254.2" opacity="1.0" stroke="rgb(0,0,0)"  stroke-width="3"/>
<line x1="451.3" y1="222.3" x2="464.7" y2="245.4" opacity="1.0" stroke="rgb(0,0,0)"  stroke-width="3"/>
<line x1="577.7" y1="254.2" x2="616.4" y2="254.2" opacity="1.0" stroke="rgb(0,0,0)"  stroke-width="3"/>
<line x1="616.4" y1="254.2" x2="635.8" y2="220.7" opacity="1.0" stroke="rgb(0,0,0)"  stroke-width="3"/>
<line x1="613.2" y1="245.4" x2="626.5" y2="222.3" opacity="1.0" stroke="rgb(0,0,0)"  stroke-width="3"/>
<line x1="635.8" y1="220.7" x2="616.4" y2="187.1" opacity="1.0" stroke="rgb(0,0,0)"  stroke-width="3"/>
<line x1="616.4" y1="187.1" x2="577.7" y2="187.1" opacity="1.0" stroke="rgb(0,0,0)"  stroke-width="3"/>
<line x1="610.4" y1="194.3" x2="583.7" y2="194.3" opacity="1.0" stroke="rgb(0,0,0)"  stroke-width="3"/>
<line x1="577.7" y1="187.1" x2="558.3" y2="220.7" opacity="1.0" stroke="rgb(0,0,0)"  stroke-width="3"/>
<line x1="558.3" y1="220.7" x2="577.7" y2="254.2" opacity="1.0" stroke="rgb(0,0,0)"  stroke-width="3"/>
<line x1="567.5" y1="222.3" x2="580.9" y2="245.4" opacity="1.0" stroke="rgb(0,0,0)"  stroke-width="3"/>
<line x1="380.8" y1="427.0" x2="388.9" y2="464.9" opacity="1.0" stroke="rgb(0,0,0)"  stroke-width="3"/>
<line x1="388.9" y1="464.9" x2="425.7" y2="476.9" opacity="1.0" stroke="rgb(0,0,0)"  stroke-width="3"/>
<line x1="396.8" y1="459.9" x2="422.2" y2="468.2" opacity="1.0" stroke="rgb(0,0,0)"  stroke-width="3"/>
<line x1="425.7" y1="476.9" x2="454.5" y2="450.9" opacity="1.0" stroke="rgb(0,0,0)"  stroke-width="3"/>
<line x1="454.5" y1="450.9" x2="446.5" y2="413.0" opacity="1.0" stroke="rgb(0,0,0)"  stroke-width="3"/>
<line x1="446.2" y1="446.6" x2="440.7" y2="420.4" opacity="1.0" stroke="rgb(0,0,0)"  stroke-width="3"/>
<line x1="446.5" y1="413.0" x2="409.6" y2="401.1" opacity="1.0" stroke="rgb(0,0,0)"  stroke-width="3"/>
<line x1="409.6" y1="401.1" x2="380.8" y2="427.0" opacity="1.0" stroke="rgb(0,0,0)"  stroke-width="3"/>
<line x1="410.0" y1="410.4" x2="390.1" y2="428.3" opacity="1.0" stroke="rgb(0,0,0)"  stroke-width="3"/>
<line x1="184.4" y1="425.3" x2="223.1" y2="425.3" opacity="1.0" stroke="rgb(0,0,0)"  stroke-width="3"/>
<line x1="235.1" y1="388.5" x2="203.7" y2="365.7" opacity="1.0" stroke="rgb(0,0,0)"  stroke-width="3"/>
<line x1="203.7" y1="365.7" x2="172.4" y2="388.5" opacity="1.0" stroke="rgb(0,0,0)"  stroke-width="3"/>
<line x1="174.2" y1="291.8" x2="203.7" y2="365.7" opacity="1.0" stroke="rgb(0,0,0)"  stroke-width="3"/>
<line x1="203.7" y1="365.7" x2="241.3" y2="291.8" opacity="1.0" stroke="rgb(0,0,0)"  stroke-width="3"/>
<text x="268.877881" y="202.979107" fill="rgb(255,181,181)" stroke-width="0" font-weight="bold" font-size="25.92" >B</text>
<text x="201.771928" y="241.723883" fill="rgb(12,12,255)" stroke-width="0" font-weight="bold" font-size="25.92" >N</text>
<text x="335.988530" y="241.723883" fill="rgb(12,12,255)" stroke-width="0" font-weight="bold" font-size="25.92" >N</text>
</svg>
</g>
</svg>
