<?xml version="1.0"?>
<svg version="1.1" id="topsvg"
xmlns="http://www.w3.org/2000/svg" xmlns:xlink="http://www.w3.org/1999/xlink"
xmlns:cml="http://www.xml-cml.org/schema" x="0" y="0" width="200px" height="200px" viewBox="0 0 100 100">
<title>GD311.sdf - Open Babel Depiction</title>
<rect x="0" y="0" width="100" height="100" fill="white"/>
<g transform="translate(0,0)">
<svg width="100" height="100" x="0" y="0" viewBox="0 0 531.087 527.48"
font-family="sans-serif" stroke="rgb(0,0,0)" stroke-width="3"  stroke-linecap="round">
<line x1="149.4" y1="116.9" x2="131.7" y2="86.2" opacity="1.0" stroke="rgb(0,0,0)"  stroke-width="3"/>
<line x1="341.7" y1="108.0" x2="351.7" y2="74.0" opacity="1.0" stroke="rgb(0,0,0)"  stroke-width="3"/>
<line x1="421.4" y1="237.7" x2="456.2" y2="244.1" opacity="1.0" stroke="rgb(0,0,0)"  stroke-width="3"/>
<line x1="104.4" y1="262.2" x2="72.2" y2="277.1" opacity="1.0" stroke="rgb(0,0,0)"  stroke-width="3"/>
<line x1="72.2" y1="277.1" x2="40.0" y2="292.0" opacity="1.0" stroke="rgb(0,0,0)"  stroke-width="3"/>
<line x1="72.2" y1="277.1" x2="69.0" y2="312.4" opacity="1.0" stroke="rgb(0,0,0)"  stroke-width="3"/>
<line x1="72.2" y1="277.1" x2="43.2" y2="256.7" opacity="1.0" stroke="rgb(0,0,0)"  stroke-width="3"/>
<line x1="131.7" y1="86.2" x2="114.0" y2="55.5" opacity="1.0" stroke="rgb(0,0,0)"  stroke-width="3"/>
<line x1="131.7" y1="86.2" x2="96.3" y2="86.2" opacity="1.0" stroke="rgb(0,0,0)"  stroke-width="3"/>
<line x1="131.7" y1="86.2" x2="149.4" y2="55.5" opacity="1.0" stroke="rgb(0,0,0)"  stroke-width="3"/>
<line x1="351.7" y1="74.0" x2="326.7" y2="48.9" opacity="1.0" stroke="rgb(0,0,0)"  stroke-width="3"/>
<line x1="351.7" y1="74.0" x2="386.2" y2="65.7" opacity="1.0" stroke="rgb(0,0,0)"  stroke-width="3"/>
<line x1="351.7" y1="74.0" x2="361.8" y2="40.0" opacity="1.0" stroke="rgb(0,0,0)"  stroke-width="3"/>
<line x1="456.2" y1="244.1" x2="491.1" y2="250.5" opacity="1.0" stroke="rgb(0,0,0)"  stroke-width="3"/>
<line x1="456.2" y1="244.1" x2="468.1" y2="277.5" opacity="1.0" stroke="rgb(0,0,0)"  stroke-width="3"/>
<line x1="456.2" y1="244.1" x2="479.2" y2="217.1" opacity="1.0" stroke="rgb(0,0,0)"  stroke-width="3"/>
<line x1="258.0" y1="283.0" x2="258.0" y2="318.5" opacity="1.0" stroke="rgb(0,0,0)"  stroke-width="3"/>
<line x1="258.0" y1="318.5" x2="277.6" y2="329.8" opacity="1.0" stroke="rgb(0,0,0)"  stroke-width="3"/>
<line x1="258.0" y1="318.5" x2="238.5" y2="329.8" opacity="1.0" stroke="rgb(0,0,0)"  stroke-width="3"/>
<line x1="258.0" y1="318.5" x2="277.6" y2="307.2" opacity="1.0" stroke="rgb(0,0,0)"  stroke-width="3"/>
<line x1="139.8" y1="212.1" x2="150.3" y2="178.2" opacity="1.0" stroke="rgb(0,0,0)"  stroke-width="3"/>
<line x1="150.3" y1="178.2" x2="185.7" y2="177.8" opacity="1.0" stroke="rgb(0,0,0)"  stroke-width="3"/>
<line x1="156.4" y1="185.4" x2="179.8" y2="185.0" opacity="1.0" stroke="rgb(0,0,0)"  stroke-width="3"/>
<line x1="185.7" y1="177.8" x2="192.9" y2="199.0" opacity="1.0" stroke="rgb(0,0,0)"  stroke-width="3"/>
<line x1="186.7" y1="219.1" x2="168.7" y2="232.5" opacity="1.0" stroke="rgb(0,0,0)"  stroke-width="3"/>
<line x1="168.7" y1="232.5" x2="139.8" y2="212.1" opacity="1.0" stroke="rgb(0,0,0)"  stroke-width="3"/>
<line x1="168.0" y1="223.2" x2="148.8" y2="209.7" opacity="1.0" stroke="rgb(0,0,0)"  stroke-width="3"/>
<line x1="374.7" y1="197.9" x2="351.7" y2="224.8" opacity="1.0" stroke="rgb(0,0,0)"  stroke-width="3"/>
<line x1="365.3" y1="197.8" x2="350.1" y2="215.6" opacity="1.0" stroke="rgb(0,0,0)"  stroke-width="3"/>
<line x1="351.7" y1="224.8" x2="330.9" y2="216.3" opacity="1.0" stroke="rgb(0,0,0)"  stroke-width="3"/>
<line x1="319.9" y1="198.4" x2="321.6" y2="176.0" opacity="1.0" stroke="rgb(0,0,0)"  stroke-width="3"/>
<line x1="321.6" y1="176.0" x2="356.1" y2="167.7" opacity="1.0" stroke="rgb(0,0,0)"  stroke-width="3"/>
<line x1="329.2" y1="181.6" x2="352.0" y2="176.1" opacity="1.0" stroke="rgb(0,0,0)"  stroke-width="3"/>
<line x1="356.1" y1="167.7" x2="374.7" y2="197.9" opacity="1.0" stroke="rgb(0,0,0)"  stroke-width="3"/>
<line x1="227.3" y1="265.3" x2="258.0" y2="283.0" opacity="1.0" stroke="rgb(0,0,0)"  stroke-width="3"/>
<line x1="258.0" y1="283.0" x2="288.7" y2="265.3" opacity="1.0" stroke="rgb(0,0,0)"  stroke-width="3"/>
<line x1="259.6" y1="273.8" x2="279.9" y2="262.1" opacity="1.0" stroke="rgb(0,0,0)"  stroke-width="3"/>
<line x1="288.7" y1="265.3" x2="288.7" y2="229.9" opacity="1.0" stroke="rgb(0,0,0)"  stroke-width="3"/>
<line x1="288.7" y1="229.9" x2="258.0" y2="212.1" opacity="1.0" stroke="rgb(0,0,0)"  stroke-width="3"/>
<line x1="279.9" y1="233.1" x2="259.6" y2="221.4" opacity="1.0" stroke="rgb(0,0,0)"  stroke-width="3"/>
<line x1="258.0" y1="212.1" x2="227.3" y2="229.9" opacity="1.0" stroke="rgb(0,0,0)"  stroke-width="3"/>
<line x1="227.3" y1="229.9" x2="227.3" y2="265.3" opacity="1.0" stroke="rgb(0,0,0)"  stroke-width="3"/>
<line x1="234.5" y1="235.9" x2="234.5" y2="259.3" opacity="1.0" stroke="rgb(0,0,0)"  stroke-width="3"/>
<line x1="185.7" y1="177.8" x2="203.0" y2="146.8" opacity="1.0" stroke="rgb(0,0,0)"  stroke-width="3"/>
<line x1="203.0" y1="146.8" x2="246.6" y2="170.4" opacity="1.0" stroke="rgb(0,0,0)"  stroke-width="3"/>
<line x1="258.0" y1="189.6" x2="258.0" y2="212.1" opacity="1.0" stroke="rgb(0,0,0)"  stroke-width="3"/>
<line x1="227.3" y1="229.9" x2="208.2" y2="218.1" opacity="1.0" stroke="rgb(0,0,0)"  stroke-width="3"/>
<line x1="104.4" y1="262.2" x2="133.3" y2="282.7" opacity="1.0" stroke="rgb(0,0,0)"  stroke-width="3"/>
<line x1="133.3" y1="282.7" x2="165.5" y2="267.8" opacity="1.0" stroke="rgb(0,0,0)"  stroke-width="3"/>
<line x1="135.7" y1="273.6" x2="157.0" y2="263.8" opacity="1.0" stroke="rgb(0,0,0)"  stroke-width="3"/>
<line x1="165.5" y1="267.8" x2="168.7" y2="232.5" opacity="1.0" stroke="rgb(0,0,0)"  stroke-width="3"/>
<line x1="139.8" y1="212.1" x2="107.6" y2="227.0" opacity="1.0" stroke="rgb(0,0,0)"  stroke-width="3"/>
<line x1="107.6" y1="227.0" x2="104.4" y2="262.2" opacity="1.0" stroke="rgb(0,0,0)"  stroke-width="3"/>
<line x1="114.2" y1="233.6" x2="112.1" y2="256.9" opacity="1.0" stroke="rgb(0,0,0)"  stroke-width="3"/>
<line x1="307.8" y1="218.1" x2="288.7" y2="229.9" opacity="1.0" stroke="rgb(0,0,0)"  stroke-width="3"/>
<line x1="268.8" y1="169.3" x2="297.2" y2="150.3" opacity="1.0" stroke="rgb(0,0,0)"  stroke-width="3"/>
<line x1="297.2" y1="150.3" x2="321.6" y2="176.0" opacity="1.0" stroke="rgb(0,0,0)"  stroke-width="3"/>
<line x1="421.4" y1="237.7" x2="398.4" y2="264.7" opacity="1.0" stroke="rgb(0,0,0)"  stroke-width="3"/>
<line x1="398.4" y1="264.7" x2="363.5" y2="258.2" opacity="1.0" stroke="rgb(0,0,0)"  stroke-width="3"/>
<line x1="393.8" y1="256.5" x2="370.7" y2="252.3" opacity="1.0" stroke="rgb(0,0,0)"  stroke-width="3"/>
<line x1="363.5" y1="258.2" x2="351.7" y2="224.8" opacity="1.0" stroke="rgb(0,0,0)"  stroke-width="3"/>
<line x1="374.7" y1="197.9" x2="409.5" y2="204.3" opacity="1.0" stroke="rgb(0,0,0)"  stroke-width="3"/>
<line x1="409.5" y1="204.3" x2="421.4" y2="237.7" opacity="1.0" stroke="rgb(0,0,0)"  stroke-width="3"/>
<line x1="404.7" y1="212.4" x2="412.6" y2="234.5" opacity="1.0" stroke="rgb(0,0,0)"  stroke-width="3"/>
<line x1="341.7" y1="108.0" x2="307.3" y2="116.3" opacity="1.0" stroke="rgb(0,0,0)"  stroke-width="3"/>
<line x1="307.3" y1="116.3" x2="297.2" y2="150.3" opacity="1.0" stroke="rgb(0,0,0)"  stroke-width="3"/>
<line x1="312.5" y1="124.1" x2="305.8" y2="146.6" opacity="1.0" stroke="rgb(0,0,0)"  stroke-width="3"/>
<line x1="356.1" y1="167.7" x2="366.1" y2="133.7" opacity="1.0" stroke="rgb(0,0,0)"  stroke-width="3"/>
<line x1="366.1" y1="133.7" x2="341.7" y2="108.0" opacity="1.0" stroke="rgb(0,0,0)"  stroke-width="3"/>
<line x1="356.8" y1="134.3" x2="340.6" y2="117.3" opacity="1.0" stroke="rgb(0,0,0)"  stroke-width="3"/>
<line x1="150.3" y1="178.2" x2="132.1" y2="147.8" opacity="1.0" stroke="rgb(0,0,0)"  stroke-width="3"/>
<line x1="132.1" y1="147.8" x2="149.4" y2="116.9" opacity="1.0" stroke="rgb(0,0,0)"  stroke-width="3"/>
<line x1="141.3" y1="146.1" x2="152.8" y2="125.6" opacity="1.0" stroke="rgb(0,0,0)"  stroke-width="3"/>
<line x1="149.4" y1="116.9" x2="184.9" y2="116.4" opacity="1.0" stroke="rgb(0,0,0)"  stroke-width="3"/>
<line x1="184.9" y1="116.4" x2="203.0" y2="146.8" opacity="1.0" stroke="rgb(0,0,0)"  stroke-width="3"/>
<line x1="181.7" y1="125.2" x2="193.7" y2="145.4" opacity="1.0" stroke="rgb(0,0,0)"  stroke-width="3"/>
<line x1="121.5" y1="406.5" x2="122.1" y2="442.0" opacity="1.0" stroke="rgb(0,0,0)"  stroke-width="3"/>
<line x1="114.4" y1="412.7" x2="114.8" y2="436.1" opacity="1.0" stroke="rgb(0,0,0)"  stroke-width="3"/>
<line x1="122.1" y1="442.0" x2="91.8" y2="460.3" opacity="1.0" stroke="rgb(0,0,0)"  stroke-width="3"/>
<line x1="91.8" y1="460.3" x2="60.7" y2="443.1" opacity="1.0" stroke="rgb(0,0,0)"  stroke-width="3"/>
<line x1="90.0" y1="451.1" x2="69.5" y2="439.7" opacity="1.0" stroke="rgb(0,0,0)"  stroke-width="3"/>
<line x1="60.7" y1="443.1" x2="60.1" y2="407.7" opacity="1.0" stroke="rgb(0,0,0)"  stroke-width="3"/>
<line x1="60.1" y1="407.7" x2="90.4" y2="389.4" opacity="1.0" stroke="rgb(0,0,0)"  stroke-width="3"/>
<line x1="68.9" y1="410.8" x2="89.0" y2="398.7" opacity="1.0" stroke="rgb(0,0,0)"  stroke-width="3"/>
<line x1="90.4" y1="389.4" x2="121.5" y2="406.5" opacity="1.0" stroke="rgb(0,0,0)"  stroke-width="3"/>
<line x1="226.6" y1="458.4" x2="206.3" y2="487.5" opacity="1.0" stroke="rgb(0,0,0)"  stroke-width="3"/>
<line x1="206.3" y1="487.5" x2="171.0" y2="484.4" opacity="1.0" stroke="rgb(0,0,0)"  stroke-width="3"/>
<line x1="201.0" y1="479.8" x2="177.6" y2="477.8" opacity="1.0" stroke="rgb(0,0,0)"  stroke-width="3"/>
<line x1="171.0" y1="484.4" x2="156.0" y2="452.3" opacity="1.0" stroke="rgb(0,0,0)"  stroke-width="3"/>
<line x1="156.0" y1="452.3" x2="176.3" y2="423.3" opacity="1.0" stroke="rgb(0,0,0)"  stroke-width="3"/>
<line x1="165.4" y1="451.5" x2="178.8" y2="432.3" opacity="1.0" stroke="rgb(0,0,0)"  stroke-width="3"/>
<line x1="176.3" y1="423.3" x2="211.6" y2="426.3" opacity="1.0" stroke="rgb(0,0,0)"  stroke-width="3"/>
<line x1="211.6" y1="426.3" x2="226.6" y2="458.4" opacity="1.0" stroke="rgb(0,0,0)"  stroke-width="3"/>
<line x1="207.7" y1="434.8" x2="217.6" y2="456.0" opacity="1.0" stroke="rgb(0,0,0)"  stroke-width="3"/>
<line x1="402.0" y1="425.0" x2="401.7" y2="389.6" opacity="1.0" stroke="rgb(0,0,0)"  stroke-width="3"/>
<line x1="409.2" y1="419.0" x2="409.0" y2="395.5" opacity="1.0" stroke="rgb(0,0,0)"  stroke-width="3"/>
<line x1="401.7" y1="389.6" x2="432.2" y2="371.6" opacity="1.0" stroke="rgb(0,0,0)"  stroke-width="3"/>
<line x1="432.2" y1="371.6" x2="463.1" y2="389.1" opacity="1.0" stroke="rgb(0,0,0)"  stroke-width="3"/>
<line x1="433.9" y1="380.8" x2="454.3" y2="392.4" opacity="1.0" stroke="rgb(0,0,0)"  stroke-width="3"/>
<line x1="463.1" y1="389.1" x2="463.4" y2="424.5" opacity="1.0" stroke="rgb(0,0,0)"  stroke-width="3"/>
<line x1="463.4" y1="424.5" x2="432.8" y2="442.5" opacity="1.0" stroke="rgb(0,0,0)"  stroke-width="3"/>
<line x1="454.6" y1="421.3" x2="434.4" y2="433.2" opacity="1.0" stroke="rgb(0,0,0)"  stroke-width="3"/>
<line x1="432.8" y1="442.5" x2="402.0" y2="425.0" opacity="1.0" stroke="rgb(0,0,0)"  stroke-width="3"/>
<line x1="312.1" y1="411.8" x2="298.0" y2="444.3" opacity="1.0" stroke="rgb(0,0,0)"  stroke-width="3"/>
<line x1="316.3" y1="420.1" x2="306.9" y2="441.6" opacity="1.0" stroke="rgb(0,0,0)"  stroke-width="3"/>
<line x1="298.0" y1="444.3" x2="319.0" y2="472.8" opacity="1.0" stroke="rgb(0,0,0)"  stroke-width="3"/>
<line x1="319.0" y1="472.8" x2="354.2" y2="468.8" opacity="1.0" stroke="rgb(0,0,0)"  stroke-width="3"/>
<line x1="324.2" y1="464.9" x2="347.5" y2="462.3" opacity="1.0" stroke="rgb(0,0,0)"  stroke-width="3"/>
<line x1="354.2" y1="468.8" x2="368.4" y2="436.3" opacity="1.0" stroke="rgb(0,0,0)"  stroke-width="3"/>
<line x1="368.4" y1="436.3" x2="347.3" y2="407.8" opacity="1.0" stroke="rgb(0,0,0)"  stroke-width="3"/>
<line x1="359.0" y1="435.7" x2="345.1" y2="416.9" opacity="1.0" stroke="rgb(0,0,0)"  stroke-width="3"/>
<line x1="347.3" y1="407.8" x2="312.1" y2="411.8" opacity="1.0" stroke="rgb(0,0,0)"  stroke-width="3"/>
<line x1="156.0" y1="452.3" x2="122.1" y2="442.0" opacity="1.0" stroke="rgb(0,0,0)"  stroke-width="3"/>
<line x1="121.5" y1="406.5" x2="155.0" y2="395.0" opacity="1.0" stroke="rgb(0,0,0)"  stroke-width="3"/>
<line x1="155.0" y1="395.0" x2="176.3" y2="423.3" opacity="1.0" stroke="rgb(0,0,0)"  stroke-width="3"/>
<line x1="367.9" y1="378.9" x2="401.7" y2="389.6" opacity="1.0" stroke="rgb(0,0,0)"  stroke-width="3"/>
<line x1="402.0" y1="425.0" x2="368.4" y2="436.3" opacity="1.0" stroke="rgb(0,0,0)"  stroke-width="3"/>
<line x1="347.3" y1="407.8" x2="367.9" y2="378.9" opacity="1.0" stroke="rgb(0,0,0)"  stroke-width="3"/>
<line x1="288.7" y1="265.3" x2="367.9" y2="378.9" opacity="1.0" stroke="rgb(0,0,0)"  stroke-width="3"/>
<line x1="367.9" y1="378.9" x2="363.5" y2="258.2" opacity="1.0" stroke="rgb(0,0,0)"  stroke-width="3"/>
<line x1="165.5" y1="267.8" x2="155.0" y2="395.0" opacity="1.0" stroke="rgb(0,0,0)"  stroke-width="3"/>
<line x1="155.0" y1="395.0" x2="227.3" y2="265.3" opacity="1.0" stroke="rgb(0,0,0)"  stroke-width="3"/>
<text x="252.007070" y="184.580456" fill="rgb(255,181,181)" stroke-width="0" font-weight="bold" font-size="25.92" >B</text>
<text x="282.809111" y="308.691723" fill="rgb(191,191,191)" stroke-width="0" font-weight="bold" font-size="25.92" >D</text>
<text x="221.205073" y="344.258855" fill="rgb(191,191,191)" stroke-width="0" font-weight="bold" font-size="25.92" >D</text>
<text x="282.809111" y="344.258855" fill="rgb(191,191,191)" stroke-width="0" font-weight="bold" font-size="25.92" >D</text>
<text x="312.902181" y="219.315489" fill="rgb(12,12,255)" stroke-width="0" font-weight="bold" font-size="25.92" >N</text>
<text x="191.107649" y="219.315489" fill="rgb(12,12,255)" stroke-width="0" font-weight="bold" font-size="25.92" >N</text>
</svg>
</g>
</svg>
