<?xml version="1.0"?>
<svg version="1.1" id="topsvg"
xmlns="http://www.w3.org/2000/svg" xmlns:xlink="http://www.w3.org/1999/xlink"
xmlns:cml="http://www.xml-cml.org/schema" x="0" y="0" width="200px" height="200px" viewBox="0 0 100 100">
<title>GD317.sdf - Open Babel Depiction</title>
<rect x="0" y="0" width="100" height="100" fill="white"/>
<g transform="translate(0,0)">
<svg width="100" height="100" x="0" y="0" viewBox="0 0 573.032 500.279"
font-family="sans-serif" stroke="rgb(0,0,0)" stroke-width="3"  stroke-linecap="round">
<line x1="158.1" y1="249.7" x2="118.7" y2="251.3" opacity="1.0" stroke="rgb(0,0,0)"  stroke-width="3"/>
<line x1="160.8" y1="317.9" x2="179.2" y2="283.0" opacity="1.0" stroke="rgb(0,0,0)"  stroke-width="3"/>
<line x1="456.7" y1="408.9" x2="494.9" y2="399.2" opacity="1.0" stroke="rgb(0,0,0)"  stroke-width="3"/>
<line x1="494.9" y1="399.2" x2="522.4" y2="427.4" opacity="1.0" stroke="rgb(0,0,0)"  stroke-width="3"/>
<line x1="494.9" y1="399.2" x2="505.5" y2="361.3" opacity="1.0" stroke="rgb(0,0,0)"  stroke-width="3"/>
<line x1="494.9" y1="399.2" x2="533.0" y2="389.5" opacity="1.0" stroke="rgb(0,0,0)"  stroke-width="3"/>
<line x1="263.3" y1="416.7" x2="224.4" y2="410.0" opacity="1.0" stroke="rgb(0,0,0)"  stroke-width="3"/>
<line x1="224.4" y1="410.0" x2="199.3" y2="440.4" opacity="1.0" stroke="rgb(0,0,0)"  stroke-width="3"/>
<line x1="224.4" y1="410.0" x2="210.8" y2="373.1" opacity="1.0" stroke="rgb(0,0,0)"  stroke-width="3"/>
<line x1="224.4" y1="410.0" x2="249.6" y2="379.7" opacity="1.0" stroke="rgb(0,0,0)"  stroke-width="3"/>
<line x1="158.1" y1="249.7" x2="181.4" y2="218.0" opacity="1.0" stroke="rgb(0,0,0)"  stroke-width="3"/>
<line x1="181.4" y1="218.0" x2="216.3" y2="236.3" opacity="1.0" stroke="rgb(0,0,0)"  stroke-width="3"/>
<line x1="183.4" y1="227.1" x2="207.6" y2="239.9" opacity="1.0" stroke="rgb(0,0,0)"  stroke-width="3"/>
<line x1="216.3" y1="236.3" x2="217.3" y2="262.7" opacity="1.0" stroke="rgb(0,0,0)"  stroke-width="3"/>
<line x1="205.1" y1="278.1" x2="179.2" y2="283.0" opacity="1.0" stroke="rgb(0,0,0)"  stroke-width="3"/>
<line x1="179.2" y1="283.0" x2="158.1" y2="249.7" opacity="1.0" stroke="rgb(0,0,0)"  stroke-width="3"/>
<line x1="182.0" y1="274.1" x2="167.4" y2="251.0" opacity="1.0" stroke="rgb(0,0,0)"  stroke-width="3"/>
<line x1="422.4" y1="267.4" x2="389.1" y2="288.5" opacity="1.0" stroke="rgb(0,0,0)"  stroke-width="3"/>
<line x1="413.5" y1="264.5" x2="390.4" y2="279.2" opacity="1.0" stroke="rgb(0,0,0)"  stroke-width="3"/>
<line x1="389.1" y1="288.5" x2="365.8" y2="276.2" opacity="1.0" stroke="rgb(0,0,0)"  stroke-width="3"/>
<line x1="353.7" y1="257.2" x2="352.7" y2="230.8" opacity="1.0" stroke="rgb(0,0,0)"  stroke-width="3"/>
<line x1="352.7" y1="230.8" x2="386.0" y2="209.7" opacity="1.0" stroke="rgb(0,0,0)"  stroke-width="3"/>
<line x1="361.6" y1="233.7" x2="384.7" y2="219.0" opacity="1.0" stroke="rgb(0,0,0)"  stroke-width="3"/>
<line x1="386.0" y1="209.7" x2="422.4" y2="267.4" opacity="1.0" stroke="rgb(0,0,0)"  stroke-width="3"/>
<line x1="395.1" y1="107.5" x2="356.1" y2="113.2" opacity="1.0" stroke="rgb(0,0,0)"  stroke-width="3"/>
<line x1="390.2" y1="115.5" x2="363.1" y2="119.5" opacity="1.0" stroke="rgb(0,0,0)"  stroke-width="3"/>
<line x1="356.1" y1="113.2" x2="349.5" y2="152.1" opacity="1.0" stroke="rgb(0,0,0)"  stroke-width="3"/>
<line x1="349.5" y1="152.1" x2="384.4" y2="170.4" opacity="1.0" stroke="rgb(0,0,0)"  stroke-width="3"/>
<line x1="358.2" y1="148.5" x2="382.4" y2="161.2" opacity="1.0" stroke="rgb(0,0,0)"  stroke-width="3"/>
<line x1="384.4" y1="170.4" x2="403.3" y2="151.9" opacity="1.0" stroke="rgb(0,0,0)"  stroke-width="3"/>
<line x1="406.8" y1="131.2" x2="395.1" y2="107.5" opacity="1.0" stroke="rgb(0,0,0)"  stroke-width="3"/>
<line x1="254.3" y1="333.3" x2="289.2" y2="351.6" opacity="1.0" stroke="rgb(0,0,0)"  stroke-width="3"/>
<line x1="289.2" y1="351.6" x2="322.5" y2="330.6" opacity="1.0" stroke="rgb(0,0,0)"  stroke-width="3"/>
<line x1="290.4" y1="342.3" x2="313.6" y2="327.7" opacity="1.0" stroke="rgb(0,0,0)"  stroke-width="3"/>
<line x1="322.5" y1="330.6" x2="320.9" y2="291.2" opacity="1.0" stroke="rgb(0,0,0)"  stroke-width="3"/>
<line x1="320.9" y1="291.2" x2="286.1" y2="272.9" opacity="1.0" stroke="rgb(0,0,0)"  stroke-width="3"/>
<line x1="312.3" y1="294.8" x2="288.0" y2="282.1" opacity="1.0" stroke="rgb(0,0,0)"  stroke-width="3"/>
<line x1="286.1" y1="272.9" x2="252.7" y2="294.0" opacity="1.0" stroke="rgb(0,0,0)"  stroke-width="3"/>
<line x1="252.7" y1="294.0" x2="254.3" y2="333.3" opacity="1.0" stroke="rgb(0,0,0)"  stroke-width="3"/>
<line x1="260.2" y1="299.7" x2="261.3" y2="327.0" opacity="1.0" stroke="rgb(0,0,0)"  stroke-width="3"/>
<line x1="216.3" y1="236.3" x2="249.6" y2="215.2" opacity="1.0" stroke="rgb(0,0,0)"  stroke-width="3"/>
<line x1="249.6" y1="215.2" x2="273.0" y2="227.5" opacity="1.0" stroke="rgb(0,0,0)"  stroke-width="3"/>
<line x1="285.0" y1="246.5" x2="286.1" y2="272.9" opacity="1.0" stroke="rgb(0,0,0)"  stroke-width="3"/>
<line x1="252.7" y1="294.0" x2="229.4" y2="281.7" opacity="1.0" stroke="rgb(0,0,0)"  stroke-width="3"/>
<line x1="343.3" y1="277.1" x2="320.9" y2="291.2" opacity="1.0" stroke="rgb(0,0,0)"  stroke-width="3"/>
<line x1="295.5" y1="226.6" x2="317.8" y2="212.5" opacity="1.0" stroke="rgb(0,0,0)"  stroke-width="3"/>
<line x1="317.8" y1="212.5" x2="352.7" y2="230.8" opacity="1.0" stroke="rgb(0,0,0)"  stroke-width="3"/>
<line x1="458.9" y1="325.1" x2="425.6" y2="346.2" opacity="1.0" stroke="rgb(0,0,0)"  stroke-width="3"/>
<line x1="425.6" y1="346.2" x2="390.7" y2="327.9" opacity="1.0" stroke="rgb(0,0,0)"  stroke-width="3"/>
<line x1="423.6" y1="337.0" x2="399.4" y2="324.3" opacity="1.0" stroke="rgb(0,0,0)"  stroke-width="3"/>
<line x1="390.7" y1="327.9" x2="389.1" y2="288.5" opacity="1.0" stroke="rgb(0,0,0)"  stroke-width="3"/>
<line x1="422.4" y1="267.4" x2="457.3" y2="285.7" opacity="1.0" stroke="rgb(0,0,0)"  stroke-width="3"/>
<line x1="457.3" y1="285.7" x2="458.9" y2="325.1" opacity="1.0" stroke="rgb(0,0,0)"  stroke-width="3"/>
<line x1="450.4" y1="292.0" x2="451.5" y2="319.4" opacity="1.0" stroke="rgb(0,0,0)"  stroke-width="3"/>
<line x1="181.4" y1="218.0" x2="179.8" y2="178.6" opacity="1.0" stroke="rgb(0,0,0)"  stroke-width="3"/>
<line x1="179.8" y1="178.6" x2="213.1" y2="157.5" opacity="1.0" stroke="rgb(0,0,0)"  stroke-width="3"/>
<line x1="188.7" y1="181.5" x2="211.9" y2="166.8" opacity="1.0" stroke="rgb(0,0,0)"  stroke-width="3"/>
<line x1="213.1" y1="157.5" x2="248.0" y2="175.8" opacity="1.0" stroke="rgb(0,0,0)"  stroke-width="3"/>
<line x1="248.0" y1="175.8" x2="249.6" y2="215.2" opacity="1.0" stroke="rgb(0,0,0)"  stroke-width="3"/>
<line x1="241.1" y1="182.1" x2="242.2" y2="209.5" opacity="1.0" stroke="rgb(0,0,0)"  stroke-width="3"/>
<line x1="244.8" y1="97.1" x2="279.7" y2="115.4" opacity="1.0" stroke="rgb(0,0,0)"  stroke-width="3"/>
<line x1="279.7" y1="115.4" x2="281.3" y2="154.8" opacity="1.0" stroke="rgb(0,0,0)"  stroke-width="3"/>
<line x1="272.8" y1="121.7" x2="273.9" y2="149.1" opacity="1.0" stroke="rgb(0,0,0)"  stroke-width="3"/>
<line x1="281.3" y1="154.8" x2="248.0" y2="175.8" opacity="1.0" stroke="rgb(0,0,0)"  stroke-width="3"/>
<line x1="213.1" y1="157.5" x2="211.5" y2="118.2" opacity="1.0" stroke="rgb(0,0,0)"  stroke-width="3"/>
<line x1="211.5" y1="118.2" x2="244.8" y2="97.1" opacity="1.0" stroke="rgb(0,0,0)"  stroke-width="3"/>
<line x1="220.5" y1="121.0" x2="243.6" y2="106.4" opacity="1.0" stroke="rgb(0,0,0)"  stroke-width="3"/>
<line x1="349.5" y1="152.1" x2="316.2" y2="173.1" opacity="1.0" stroke="rgb(0,0,0)"  stroke-width="3"/>
<line x1="316.2" y1="173.1" x2="317.8" y2="212.5" opacity="1.0" stroke="rgb(0,0,0)"  stroke-width="3"/>
<line x1="323.6" y1="178.8" x2="324.7" y2="206.2" opacity="1.0" stroke="rgb(0,0,0)"  stroke-width="3"/>
<line x1="386.0" y1="209.7" x2="384.4" y2="170.4" opacity="1.0" stroke="rgb(0,0,0)"  stroke-width="3"/>
<line x1="346.3" y1="45.7" x2="331.7" y2="82.3" opacity="1.0" stroke="rgb(0,0,0)"  stroke-width="3"/>
<line x1="350.8" y1="53.9" x2="340.6" y2="79.4" opacity="1.0" stroke="rgb(0,0,0)"  stroke-width="3"/>
<line x1="331.7" y1="82.3" x2="356.1" y2="113.2" opacity="1.0" stroke="rgb(0,0,0)"  stroke-width="3"/>
<line x1="395.1" y1="107.5" x2="409.7" y2="70.9" opacity="1.0" stroke="rgb(0,0,0)"  stroke-width="3"/>
<line x1="409.7" y1="70.9" x2="385.3" y2="40.0" opacity="1.0" stroke="rgb(0,0,0)"  stroke-width="3"/>
<line x1="400.3" y1="70.7" x2="383.3" y2="49.2" opacity="1.0" stroke="rgb(0,0,0)"  stroke-width="3"/>
<line x1="385.3" y1="40.0" x2="346.3" y2="45.7" opacity="1.0" stroke="rgb(0,0,0)"  stroke-width="3"/>
<line x1="276.9" y1="453.6" x2="315.8" y2="460.3" opacity="1.0" stroke="rgb(0,0,0)"  stroke-width="3"/>
<line x1="284.1" y1="447.6" x2="311.1" y2="452.2" opacity="1.0" stroke="rgb(0,0,0)"  stroke-width="3"/>
<line x1="315.8" y1="460.3" x2="340.9" y2="430.0" opacity="1.0" stroke="rgb(0,0,0)"  stroke-width="3"/>
<line x1="340.9" y1="430.0" x2="327.3" y2="393.0" opacity="1.0" stroke="rgb(0,0,0)"  stroke-width="3"/>
<line x1="332.1" y1="426.8" x2="322.6" y2="401.1" opacity="1.0" stroke="rgb(0,0,0)"  stroke-width="3"/>
<line x1="327.3" y1="393.0" x2="288.4" y2="386.4" opacity="1.0" stroke="rgb(0,0,0)"  stroke-width="3"/>
<line x1="288.4" y1="386.4" x2="263.3" y2="416.7" opacity="1.0" stroke="rgb(0,0,0)"  stroke-width="3"/>
<line x1="290.1" y1="395.6" x2="272.6" y2="416.7" opacity="1.0" stroke="rgb(0,0,0)"  stroke-width="3"/>
<line x1="263.3" y1="416.7" x2="276.9" y2="453.6" opacity="1.0" stroke="rgb(0,0,0)"  stroke-width="3"/>
<line x1="456.7" y1="408.9" x2="429.2" y2="380.7" opacity="1.0" stroke="rgb(0,0,0)"  stroke-width="3"/>
<line x1="447.3" y1="409.7" x2="428.2" y2="390.0" opacity="1.0" stroke="rgb(0,0,0)"  stroke-width="3"/>
<line x1="429.2" y1="380.7" x2="391.0" y2="390.5" opacity="1.0" stroke="rgb(0,0,0)"  stroke-width="3"/>
<line x1="391.0" y1="390.5" x2="380.3" y2="428.4" opacity="1.0" stroke="rgb(0,0,0)"  stroke-width="3"/>
<line x1="396.3" y1="398.2" x2="388.9" y2="424.6" opacity="1.0" stroke="rgb(0,0,0)"  stroke-width="3"/>
<line x1="380.3" y1="428.4" x2="407.8" y2="456.6" opacity="1.0" stroke="rgb(0,0,0)"  stroke-width="3"/>
<line x1="407.8" y1="456.6" x2="446.0" y2="446.8" opacity="1.0" stroke="rgb(0,0,0)"  stroke-width="3"/>
<line x1="411.9" y1="448.1" x2="438.4" y2="441.4" opacity="1.0" stroke="rgb(0,0,0)"  stroke-width="3"/>
<line x1="446.0" y1="446.8" x2="456.7" y2="408.9" opacity="1.0" stroke="rgb(0,0,0)"  stroke-width="3"/>
<line x1="97.7" y1="218.0" x2="58.3" y2="219.6" opacity="1.0" stroke="rgb(0,0,0)"  stroke-width="3"/>
<line x1="58.3" y1="219.6" x2="40.0" y2="254.5" opacity="1.0" stroke="rgb(0,0,0)"  stroke-width="3"/>
<line x1="61.9" y1="228.3" x2="49.2" y2="252.5" opacity="1.0" stroke="rgb(0,0,0)"  stroke-width="3"/>
<line x1="40.0" y1="254.5" x2="61.1" y2="287.8" opacity="1.0" stroke="rgb(0,0,0)"  stroke-width="3"/>
<line x1="61.1" y1="287.8" x2="100.4" y2="286.2" opacity="1.0" stroke="rgb(0,0,0)"  stroke-width="3"/>
<line x1="66.8" y1="280.3" x2="94.1" y2="279.2" opacity="1.0" stroke="rgb(0,0,0)"  stroke-width="3"/>
<line x1="100.4" y1="286.2" x2="118.7" y2="251.3" opacity="1.0" stroke="rgb(0,0,0)"  stroke-width="3"/>
<line x1="118.7" y1="251.3" x2="97.7" y2="218.0" opacity="1.0" stroke="rgb(0,0,0)"  stroke-width="3"/>
<line x1="109.4" y1="250.1" x2="94.8" y2="226.9" opacity="1.0" stroke="rgb(0,0,0)"  stroke-width="3"/>
<line x1="121.5" y1="319.5" x2="103.2" y2="354.4" opacity="1.0" stroke="rgb(0,0,0)"  stroke-width="3"/>
<line x1="103.2" y1="354.4" x2="124.2" y2="387.7" opacity="1.0" stroke="rgb(0,0,0)"  stroke-width="3"/>
<line x1="112.5" y1="355.6" x2="127.1" y2="378.8" opacity="1.0" stroke="rgb(0,0,0)"  stroke-width="3"/>
<line x1="124.2" y1="387.7" x2="163.6" y2="386.1" opacity="1.0" stroke="rgb(0,0,0)"  stroke-width="3"/>
<line x1="163.6" y1="386.1" x2="181.9" y2="351.2" opacity="1.0" stroke="rgb(0,0,0)"  stroke-width="3"/>
<line x1="160.0" y1="377.5" x2="172.7" y2="353.2" opacity="1.0" stroke="rgb(0,0,0)"  stroke-width="3"/>
<line x1="181.9" y1="351.2" x2="160.8" y2="317.9" opacity="1.0" stroke="rgb(0,0,0)"  stroke-width="3"/>
<line x1="160.8" y1="317.9" x2="121.5" y2="319.5" opacity="1.0" stroke="rgb(0,0,0)"  stroke-width="3"/>
<line x1="155.1" y1="325.4" x2="127.8" y2="326.5" opacity="1.0" stroke="rgb(0,0,0)"  stroke-width="3"/>
<line x1="340.9" y1="430.0" x2="380.3" y2="428.4" opacity="1.0" stroke="rgb(0,0,0)"  stroke-width="3"/>
<line x1="391.0" y1="390.5" x2="357.8" y2="358.7" opacity="1.0" stroke="rgb(0,0,0)"  stroke-width="3"/>
<line x1="357.8" y1="358.7" x2="327.3" y2="393.0" opacity="1.0" stroke="rgb(0,0,0)"  stroke-width="3"/>
<line x1="322.5" y1="330.6" x2="357.8" y2="358.7" opacity="1.0" stroke="rgb(0,0,0)"  stroke-width="3"/>
<line x1="357.8" y1="358.7" x2="390.7" y2="327.9" opacity="1.0" stroke="rgb(0,0,0)"  stroke-width="3"/>
<text x="278.473265" y="241.533120" fill="rgb(255,181,181)" stroke-width="0" font-weight="bold" font-size="25.92" >B</text>
<text x="348.243359" y="278.167478" fill="rgb(12,12,255)" stroke-width="0" font-weight="bold" font-size="25.92" >N</text>
<text x="211.861459" y="283.640526" fill="rgb(12,12,255)" stroke-width="0" font-weight="bold" font-size="25.92" >N</text>
<text x="406.587994" y="150.853103" fill="rgb(255,12,12)" stroke-width="0" font-weight="bold" font-size="25.92" >O</text>
</svg>
</g>
</svg>
