<?xml version="1.0"?>
<svg version="1.1" id="topsvg"
xmlns="http://www.w3.org/2000/svg" xmlns:xlink="http://www.w3.org/1999/xlink"
xmlns:cml="http://www.xml-cml.org/schema" x="0" y="0" width="200px" height="200px" viewBox="0 0 100 100">
<title>GD318.sdf - Open Babel Depiction</title>
<rect x="0" y="0" width="100" height="100" fill="white"/>
<g transform="translate(0,0)">
<svg width="100" height="100" x="0" y="0" viewBox="0 0 565.787 679.719"
font-family="sans-serif" stroke="rgb(0,0,0)" stroke-width="3"  stroke-linecap="round">
<line x1="157.6" y1="307.2" x2="177.1" y2="273.3" opacity="1.0" stroke="rgb(0,0,0)"  stroke-width="3"/>
<line x1="157.6" y1="239.3" x2="118.4" y2="239.3" opacity="1.0" stroke="rgb(0,0,0)"  stroke-width="3"/>
<line x1="453.1" y1="413.1" x2="489.4" y2="398.1" opacity="1.0" stroke="rgb(0,0,0)"  stroke-width="3"/>
<line x1="489.4" y1="398.1" x2="520.6" y2="422.0" opacity="1.0" stroke="rgb(0,0,0)"  stroke-width="3"/>
<line x1="489.4" y1="398.1" x2="494.6" y2="359.1" opacity="1.0" stroke="rgb(0,0,0)"  stroke-width="3"/>
<line x1="489.4" y1="398.1" x2="525.8" y2="383.1" opacity="1.0" stroke="rgb(0,0,0)"  stroke-width="3"/>
<line x1="396.8" y1="571.6" x2="415.5" y2="606.2" opacity="1.0" stroke="rgb(0,0,0)"  stroke-width="3"/>
<line x1="415.5" y1="606.2" x2="394.9" y2="639.7" opacity="1.0" stroke="rgb(0,0,0)"  stroke-width="3"/>
<line x1="415.5" y1="606.2" x2="454.8" y2="607.3" opacity="1.0" stroke="rgb(0,0,0)"  stroke-width="3"/>
<line x1="415.5" y1="606.2" x2="436.1" y2="572.7" opacity="1.0" stroke="rgb(0,0,0)"  stroke-width="3"/>
<line x1="157.6" y1="239.3" x2="182.0" y2="208.7" opacity="1.0" stroke="rgb(0,0,0)"  stroke-width="3"/>
<line x1="182.0" y1="208.7" x2="215.9" y2="228.3" opacity="1.0" stroke="rgb(0,0,0)"  stroke-width="3"/>
<line x1="183.6" y1="217.9" x2="207.1" y2="231.5" opacity="1.0" stroke="rgb(0,0,0)"  stroke-width="3"/>
<line x1="215.9" y1="228.3" x2="215.9" y2="254.5" opacity="1.0" stroke="rgb(0,0,0)"  stroke-width="3"/>
<line x1="203.0" y1="269.4" x2="177.1" y2="273.3" opacity="1.0" stroke="rgb(0,0,0)"  stroke-width="3"/>
<line x1="177.1" y1="273.3" x2="157.6" y2="239.3" opacity="1.0" stroke="rgb(0,0,0)"  stroke-width="3"/>
<line x1="180.4" y1="264.5" x2="166.8" y2="240.9" opacity="1.0" stroke="rgb(0,0,0)"  stroke-width="3"/>
<line x1="385.6" y1="208.7" x2="351.6" y2="228.3" opacity="1.0" stroke="rgb(0,0,0)"  stroke-width="3"/>
<line x1="384.0" y1="217.9" x2="360.4" y2="231.5" opacity="1.0" stroke="rgb(0,0,0)"  stroke-width="3"/>
<line x1="351.6" y1="228.3" x2="351.6" y2="254.5" opacity="1.0" stroke="rgb(0,0,0)"  stroke-width="3"/>
<line x1="362.9" y1="274.0" x2="385.6" y2="287.1" opacity="1.0" stroke="rgb(0,0,0)"  stroke-width="3"/>
<line x1="385.6" y1="287.1" x2="419.5" y2="267.5" opacity="1.0" stroke="rgb(0,0,0)"  stroke-width="3"/>
<line x1="419.5" y1="267.5" x2="385.6" y2="208.7" opacity="1.0" stroke="rgb(0,0,0)"  stroke-width="3"/>
<line x1="398.7" y1="107.5" x2="409.4" y2="131.4" opacity="1.0" stroke="rgb(0,0,0)"  stroke-width="3"/>
<line x1="405.0" y1="152.0" x2="385.6" y2="169.5" opacity="1.0" stroke="rgb(0,0,0)"  stroke-width="3"/>
<line x1="385.6" y1="169.5" x2="351.6" y2="149.9" opacity="1.0" stroke="rgb(0,0,0)"  stroke-width="3"/>
<line x1="384.0" y1="160.3" x2="360.4" y2="146.7" opacity="1.0" stroke="rgb(0,0,0)"  stroke-width="3"/>
<line x1="351.6" y1="149.9" x2="359.8" y2="111.6" opacity="1.0" stroke="rgb(0,0,0)"  stroke-width="3"/>
<line x1="359.8" y1="111.6" x2="398.7" y2="107.5" opacity="1.0" stroke="rgb(0,0,0)"  stroke-width="3"/>
<line x1="366.5" y1="118.1" x2="393.5" y2="115.3" opacity="1.0" stroke="rgb(0,0,0)"  stroke-width="3"/>
<line x1="398.6" y1="503.8" x2="411.7" y2="466.9" opacity="1.0" stroke="rgb(0,0,0)"  stroke-width="3"/>
<line x1="411.7" y1="466.9" x2="380.7" y2="443.0" opacity="1.0" stroke="rgb(0,0,0)"  stroke-width="3"/>
<line x1="380.7" y1="443.0" x2="359.1" y2="457.8" opacity="1.0" stroke="rgb(0,0,0)"  stroke-width="3"/>
<line x1="352.0" y1="477.6" x2="359.4" y2="502.7" opacity="1.0" stroke="rgb(0,0,0)"  stroke-width="3"/>
<line x1="359.4" y1="502.7" x2="398.6" y2="503.8" opacity="1.0" stroke="rgb(0,0,0)"  stroke-width="3"/>
<line x1="365.6" y1="495.7" x2="392.8" y2="496.4" opacity="1.0" stroke="rgb(0,0,0)"  stroke-width="3"/>
<line x1="249.8" y1="326.2" x2="283.8" y2="345.8" opacity="1.0" stroke="rgb(0,0,0)"  stroke-width="3"/>
<line x1="283.8" y1="345.8" x2="317.7" y2="326.2" opacity="1.0" stroke="rgb(0,0,0)"  stroke-width="3"/>
<line x1="285.4" y1="336.6" x2="308.9" y2="323.0" opacity="1.0" stroke="rgb(0,0,0)"  stroke-width="3"/>
<line x1="317.7" y1="326.2" x2="317.7" y2="287.1" opacity="1.0" stroke="rgb(0,0,0)"  stroke-width="3"/>
<line x1="317.7" y1="287.1" x2="283.8" y2="267.5" opacity="1.0" stroke="rgb(0,0,0)"  stroke-width="3"/>
<line x1="308.9" y1="290.3" x2="285.4" y2="276.7" opacity="1.0" stroke="rgb(0,0,0)"  stroke-width="3"/>
<line x1="283.8" y1="267.5" x2="249.8" y2="287.1" opacity="1.0" stroke="rgb(0,0,0)"  stroke-width="3"/>
<line x1="249.8" y1="287.1" x2="249.8" y2="326.2" opacity="1.0" stroke="rgb(0,0,0)"  stroke-width="3"/>
<line x1="257.0" y1="293.1" x2="257.0" y2="320.2" opacity="1.0" stroke="rgb(0,0,0)"  stroke-width="3"/>
<line x1="283.8" y1="241.3" x2="283.8" y2="267.5" opacity="1.0" stroke="rgb(0,0,0)"  stroke-width="3"/>
<line x1="249.8" y1="287.1" x2="227.2" y2="274.0" opacity="1.0" stroke="rgb(0,0,0)"  stroke-width="3"/>
<line x1="215.9" y1="228.3" x2="249.8" y2="208.7" opacity="1.0" stroke="rgb(0,0,0)"  stroke-width="3"/>
<line x1="249.8" y1="208.7" x2="272.5" y2="221.8" opacity="1.0" stroke="rgb(0,0,0)"  stroke-width="3"/>
<line x1="453.4" y1="287.1" x2="419.5" y2="267.5" opacity="1.0" stroke="rgb(0,0,0)"  stroke-width="3"/>
<line x1="444.6" y1="290.3" x2="421.1" y2="276.7" opacity="1.0" stroke="rgb(0,0,0)"  stroke-width="3"/>
<line x1="385.6" y1="287.1" x2="385.6" y2="326.2" opacity="1.0" stroke="rgb(0,0,0)"  stroke-width="3"/>
<line x1="392.8" y1="293.1" x2="392.8" y2="320.2" opacity="1.0" stroke="rgb(0,0,0)"  stroke-width="3"/>
<line x1="385.6" y1="326.2" x2="419.5" y2="345.8" opacity="1.0" stroke="rgb(0,0,0)"  stroke-width="3"/>
<line x1="419.5" y1="345.8" x2="453.4" y2="326.2" opacity="1.0" stroke="rgb(0,0,0)"  stroke-width="3"/>
<line x1="421.1" y1="336.6" x2="444.6" y2="323.0" opacity="1.0" stroke="rgb(0,0,0)"  stroke-width="3"/>
<line x1="453.4" y1="326.2" x2="453.4" y2="287.1" opacity="1.0" stroke="rgb(0,0,0)"  stroke-width="3"/>
<line x1="317.7" y1="208.7" x2="295.0" y2="221.8" opacity="1.0" stroke="rgb(0,0,0)"  stroke-width="3"/>
<line x1="317.7" y1="287.1" x2="340.4" y2="274.0" opacity="1.0" stroke="rgb(0,0,0)"  stroke-width="3"/>
<line x1="351.6" y1="228.3" x2="317.7" y2="208.7" opacity="1.0" stroke="rgb(0,0,0)"  stroke-width="3"/>
<line x1="385.6" y1="169.5" x2="385.6" y2="208.7" opacity="1.0" stroke="rgb(0,0,0)"  stroke-width="3"/>
<line x1="317.7" y1="208.7" x2="317.7" y2="169.5" opacity="1.0" stroke="rgb(0,0,0)"  stroke-width="3"/>
<line x1="324.9" y1="202.7" x2="324.9" y2="175.5" opacity="1.0" stroke="rgb(0,0,0)"  stroke-width="3"/>
<line x1="317.7" y1="169.5" x2="351.6" y2="149.9" opacity="1.0" stroke="rgb(0,0,0)"  stroke-width="3"/>
<line x1="453.1" y1="413.1" x2="422.0" y2="389.2" opacity="1.0" stroke="rgb(0,0,0)"  stroke-width="3"/>
<line x1="444.0" y1="415.1" x2="422.4" y2="398.6" opacity="1.0" stroke="rgb(0,0,0)"  stroke-width="3"/>
<line x1="422.0" y1="389.2" x2="385.8" y2="404.1" opacity="1.0" stroke="rgb(0,0,0)"  stroke-width="3"/>
<line x1="385.8" y1="404.1" x2="380.7" y2="443.0" opacity="1.0" stroke="rgb(0,0,0)"  stroke-width="3"/>
<line x1="392.2" y1="411.0" x2="388.6" y2="438.0" opacity="1.0" stroke="rgb(0,0,0)"  stroke-width="3"/>
<line x1="411.7" y1="466.9" x2="447.9" y2="451.9" opacity="1.0" stroke="rgb(0,0,0)"  stroke-width="3"/>
<line x1="414.5" y1="457.9" x2="439.7" y2="447.6" opacity="1.0" stroke="rgb(0,0,0)"  stroke-width="3"/>
<line x1="447.9" y1="451.9" x2="453.1" y2="413.1" opacity="1.0" stroke="rgb(0,0,0)"  stroke-width="3"/>
<line x1="248.0" y1="440.5" x2="281.1" y2="461.5" opacity="1.0" stroke="rgb(0,0,0)"  stroke-width="3"/>
<line x1="256.9" y1="437.7" x2="279.9" y2="452.2" opacity="1.0" stroke="rgb(0,0,0)"  stroke-width="3"/>
<line x1="281.1" y1="461.5" x2="315.8" y2="443.3" opacity="1.0" stroke="rgb(0,0,0)"  stroke-width="3"/>
<line x1="315.8" y1="443.3" x2="317.4" y2="404.1" opacity="1.0" stroke="rgb(0,0,0)"  stroke-width="3"/>
<line x1="308.9" y1="437.0" x2="310.0" y2="409.8" opacity="1.0" stroke="rgb(0,0,0)"  stroke-width="3"/>
<line x1="317.4" y1="404.1" x2="284.3" y2="383.2" opacity="1.0" stroke="rgb(0,0,0)"  stroke-width="3"/>
<line x1="284.3" y1="383.2" x2="249.6" y2="401.4" opacity="1.0" stroke="rgb(0,0,0)"  stroke-width="3"/>
<line x1="282.4" y1="392.4" x2="258.3" y2="405.0" opacity="1.0" stroke="rgb(0,0,0)"  stroke-width="3"/>
<line x1="249.6" y1="401.4" x2="248.0" y2="440.5" opacity="1.0" stroke="rgb(0,0,0)"  stroke-width="3"/>
<line x1="396.8" y1="571.6" x2="417.3" y2="538.3" opacity="1.0" stroke="rgb(0,0,0)"  stroke-width="3"/>
<line x1="393.8" y1="562.8" x2="408.0" y2="539.6" opacity="1.0" stroke="rgb(0,0,0)"  stroke-width="3"/>
<line x1="417.3" y1="538.3" x2="398.6" y2="503.8" opacity="1.0" stroke="rgb(0,0,0)"  stroke-width="3"/>
<line x1="359.4" y1="502.7" x2="338.9" y2="536.1" opacity="1.0" stroke="rgb(0,0,0)"  stroke-width="3"/>
<line x1="338.9" y1="536.1" x2="357.6" y2="570.6" opacity="1.0" stroke="rgb(0,0,0)"  stroke-width="3"/>
<line x1="348.1" y1="538.0" x2="361.1" y2="561.9" opacity="1.0" stroke="rgb(0,0,0)"  stroke-width="3"/>
<line x1="357.6" y1="570.6" x2="396.8" y2="571.6" opacity="1.0" stroke="rgb(0,0,0)"  stroke-width="3"/>
<line x1="182.0" y1="208.7" x2="182.0" y2="169.5" opacity="1.0" stroke="rgb(0,0,0)"  stroke-width="3"/>
<line x1="182.0" y1="169.5" x2="215.9" y2="149.9" opacity="1.0" stroke="rgb(0,0,0)"  stroke-width="3"/>
<line x1="190.8" y1="172.7" x2="214.3" y2="159.2" opacity="1.0" stroke="rgb(0,0,0)"  stroke-width="3"/>
<line x1="215.9" y1="149.9" x2="249.8" y2="169.5" opacity="1.0" stroke="rgb(0,0,0)"  stroke-width="3"/>
<line x1="249.8" y1="169.5" x2="249.8" y2="208.7" opacity="1.0" stroke="rgb(0,0,0)"  stroke-width="3"/>
<line x1="242.6" y1="175.5" x2="242.6" y2="202.7" opacity="1.0" stroke="rgb(0,0,0)"  stroke-width="3"/>
<line x1="249.8" y1="91.1" x2="283.8" y2="110.7" opacity="1.0" stroke="rgb(0,0,0)"  stroke-width="3"/>
<line x1="283.8" y1="110.7" x2="283.8" y2="149.9" opacity="1.0" stroke="rgb(0,0,0)"  stroke-width="3"/>
<line x1="276.6" y1="116.7" x2="276.6" y2="143.9" opacity="1.0" stroke="rgb(0,0,0)"  stroke-width="3"/>
<line x1="283.8" y1="149.9" x2="249.8" y2="169.5" opacity="1.0" stroke="rgb(0,0,0)"  stroke-width="3"/>
<line x1="215.9" y1="149.9" x2="215.9" y2="110.7" opacity="1.0" stroke="rgb(0,0,0)"  stroke-width="3"/>
<line x1="215.9" y1="110.7" x2="249.8" y2="91.1" opacity="1.0" stroke="rgb(0,0,0)"  stroke-width="3"/>
<line x1="224.7" y1="114.0" x2="248.2" y2="100.4" opacity="1.0" stroke="rgb(0,0,0)"  stroke-width="3"/>
<line x1="98.8" y1="205.4" x2="59.6" y2="205.4" opacity="1.0" stroke="rgb(0,0,0)"  stroke-width="3"/>
<line x1="59.6" y1="205.4" x2="40.0" y2="239.3" opacity="1.0" stroke="rgb(0,0,0)"  stroke-width="3"/>
<line x1="62.8" y1="214.2" x2="49.2" y2="237.8" opacity="1.0" stroke="rgb(0,0,0)"  stroke-width="3"/>
<line x1="40.0" y1="239.3" x2="59.6" y2="273.3" opacity="1.0" stroke="rgb(0,0,0)"  stroke-width="3"/>
<line x1="59.6" y1="273.3" x2="98.8" y2="273.3" opacity="1.0" stroke="rgb(0,0,0)"  stroke-width="3"/>
<line x1="65.6" y1="266.1" x2="92.8" y2="266.1" opacity="1.0" stroke="rgb(0,0,0)"  stroke-width="3"/>
<line x1="98.8" y1="273.3" x2="118.4" y2="239.3" opacity="1.0" stroke="rgb(0,0,0)"  stroke-width="3"/>
<line x1="118.4" y1="239.3" x2="98.8" y2="205.4" opacity="1.0" stroke="rgb(0,0,0)"  stroke-width="3"/>
<line x1="109.1" y1="237.8" x2="95.5" y2="214.2" opacity="1.0" stroke="rgb(0,0,0)"  stroke-width="3"/>
<line x1="118.4" y1="307.2" x2="98.8" y2="341.1" opacity="1.0" stroke="rgb(0,0,0)"  stroke-width="3"/>
<line x1="98.8" y1="341.1" x2="118.4" y2="375.1" opacity="1.0" stroke="rgb(0,0,0)"  stroke-width="3"/>
<line x1="108.0" y1="342.7" x2="121.6" y2="366.3" opacity="1.0" stroke="rgb(0,0,0)"  stroke-width="3"/>
<line x1="118.4" y1="375.1" x2="157.6" y2="375.1" opacity="1.0" stroke="rgb(0,0,0)"  stroke-width="3"/>
<line x1="157.6" y1="375.1" x2="177.1" y2="341.1" opacity="1.0" stroke="rgb(0,0,0)"  stroke-width="3"/>
<line x1="154.3" y1="366.3" x2="167.9" y2="342.7" opacity="1.0" stroke="rgb(0,0,0)"  stroke-width="3"/>
<line x1="177.1" y1="341.1" x2="157.6" y2="307.2" opacity="1.0" stroke="rgb(0,0,0)"  stroke-width="3"/>
<line x1="157.6" y1="307.2" x2="118.4" y2="307.2" opacity="1.0" stroke="rgb(0,0,0)"  stroke-width="3"/>
<line x1="151.6" y1="314.4" x2="124.4" y2="314.4" opacity="1.0" stroke="rgb(0,0,0)"  stroke-width="3"/>
<line x1="352.7" y1="44.1" x2="336.7" y2="79.9" opacity="1.0" stroke="rgb(0,0,0)"  stroke-width="3"/>
<line x1="356.8" y1="52.5" x2="345.8" y2="77.3" opacity="1.0" stroke="rgb(0,0,0)"  stroke-width="3"/>
<line x1="336.7" y1="79.9" x2="359.8" y2="111.6" opacity="1.0" stroke="rgb(0,0,0)"  stroke-width="3"/>
<line x1="398.7" y1="107.5" x2="414.7" y2="71.7" opacity="1.0" stroke="rgb(0,0,0)"  stroke-width="3"/>
<line x1="414.7" y1="71.7" x2="391.6" y2="40.0" opacity="1.0" stroke="rgb(0,0,0)"  stroke-width="3"/>
<line x1="405.3" y1="71.1" x2="389.3" y2="49.1" opacity="1.0" stroke="rgb(0,0,0)"  stroke-width="3"/>
<line x1="391.6" y1="40.0" x2="352.7" y2="44.1" opacity="1.0" stroke="rgb(0,0,0)"  stroke-width="3"/>
<line x1="317.7" y1="326.2" x2="351.6" y2="365.4" opacity="1.0" stroke="rgb(0,0,0)"  stroke-width="3"/>
<line x1="351.6" y1="365.4" x2="385.6" y2="326.2" opacity="1.0" stroke="rgb(0,0,0)"  stroke-width="3"/>
<line x1="315.8" y1="443.3" x2="337.6" y2="457.9" opacity="1.0" stroke="rgb(0,0,0)"  stroke-width="3"/>
<line x1="385.8" y1="404.1" x2="351.6" y2="365.4" opacity="1.0" stroke="rgb(0,0,0)"  stroke-width="3"/>
<line x1="351.6" y1="365.4" x2="317.4" y2="404.1" opacity="1.0" stroke="rgb(0,0,0)"  stroke-width="3"/>
<text x="342.355220" y="473.150574" fill="rgb(12,12,255)" stroke-width="0" font-weight="bold" font-size="25.92" >N</text>
<text x="209.892067" y="275.469391" fill="rgb(12,12,255)" stroke-width="0" font-weight="bold" font-size="25.92" >N</text>
<text x="408.679401" y="151.291386" fill="rgb(255,12,12)" stroke-width="0" font-weight="bold" font-size="25.92" >O</text>
<text x="345.627205" y="275.468867" fill="rgb(12,12,255)" stroke-width="0" font-weight="bold" font-size="25.92" >N</text>
<text x="277.759493" y="236.285784" fill="rgb(255,181,181)" stroke-width="0" font-weight="bold" font-size="25.92" >B</text>
</svg>
</g>
</svg>
