<?xml version="1.0"?>
<svg version="1.1" id="topsvg"
xmlns="http://www.w3.org/2000/svg" xmlns:xlink="http://www.w3.org/1999/xlink"
xmlns:cml="http://www.xml-cml.org/schema" x="0" y="0" width="200px" height="200px" viewBox="0 0 100 100">
<title>GD319.sdf - Open Babel Depiction</title>
<rect x="0" y="0" width="100" height="100" fill="white"/>
<g transform="translate(0,0)">
<svg width="100" height="100" x="0" y="0" viewBox="0 0 510.403 482.563"
font-family="sans-serif" stroke="rgb(0,0,0)" stroke-width="3"  stroke-linecap="round">
<line x1="243.1" y1="59.0" x2="210.5" y2="77.8" opacity="1.0" stroke="rgb(0,0,0)"  stroke-width="3"/>
<line x1="210.5" y1="77.8" x2="210.5" y2="115.5" opacity="1.0" stroke="rgb(0,0,0)"  stroke-width="3"/>
<line x1="177.9" y1="59.0" x2="210.5" y2="77.8" opacity="1.0" stroke="rgb(0,0,0)"  stroke-width="3"/>
<line x1="99.8" y1="247.9" x2="62.2" y2="251.9" opacity="1.0" stroke="rgb(0,0,0)"  stroke-width="3"/>
<line x1="275.8" y1="303.8" x2="275.8" y2="328.6" opacity="1.0" stroke="rgb(0,0,0)"  stroke-width="3"/>
<line x1="62.2" y1="251.9" x2="40.0" y2="221.3" opacity="1.0" stroke="rgb(0,0,0)"  stroke-width="3"/>
<line x1="46.8" y1="286.4" x2="62.2" y2="251.9" opacity="1.0" stroke="rgb(0,0,0)"  stroke-width="3"/>
<line x1="210.5" y1="77.8" x2="210.5" y2="40.0" opacity="1.0" stroke="rgb(0,0,0)"  stroke-width="3"/>
<line x1="62.2" y1="251.9" x2="77.6" y2="217.4" opacity="1.0" stroke="rgb(0,0,0)"  stroke-width="3"/>
<line x1="398.9" y1="209.6" x2="373.6" y2="171.9" opacity="1.0" stroke="rgb(0,0,0)"  stroke-width="3"/>
<line x1="373.6" y1="171.9" x2="341.0" y2="190.8" opacity="1.0" stroke="rgb(0,0,0)"  stroke-width="3"/>
<line x1="372.0" y1="181.2" x2="349.8" y2="194.0" opacity="1.0" stroke="rgb(0,0,0)"  stroke-width="3"/>
<line x1="341.0" y1="190.8" x2="341.0" y2="215.4" opacity="1.0" stroke="rgb(0,0,0)"  stroke-width="3"/>
<line x1="353.4" y1="232.5" x2="376.8" y2="240.1" opacity="1.0" stroke="rgb(0,0,0)"  stroke-width="3"/>
<line x1="376.8" y1="240.1" x2="398.9" y2="209.6" opacity="1.0" stroke="rgb(0,0,0)"  stroke-width="3"/>
<line x1="374.5" y1="231.0" x2="389.6" y2="210.2" opacity="1.0" stroke="rgb(0,0,0)"  stroke-width="3"/>
<line x1="152.6" y1="209.6" x2="174.7" y2="240.1" opacity="1.0" stroke="rgb(0,0,0)"  stroke-width="3"/>
<line x1="161.9" y1="210.2" x2="177.0" y2="231.0" opacity="1.0" stroke="rgb(0,0,0)"  stroke-width="3"/>
<line x1="174.7" y1="240.1" x2="198.2" y2="232.5" opacity="1.0" stroke="rgb(0,0,0)"  stroke-width="3"/>
<line x1="210.5" y1="215.4" x2="210.5" y2="190.8" opacity="1.0" stroke="rgb(0,0,0)"  stroke-width="3"/>
<line x1="210.5" y1="190.8" x2="177.9" y2="171.9" opacity="1.0" stroke="rgb(0,0,0)"  stroke-width="3"/>
<line x1="201.7" y1="194.0" x2="179.5" y2="181.2" opacity="1.0" stroke="rgb(0,0,0)"  stroke-width="3"/>
<line x1="177.9" y1="171.9" x2="152.6" y2="209.6" opacity="1.0" stroke="rgb(0,0,0)"  stroke-width="3"/>
<line x1="308.4" y1="284.9" x2="275.8" y2="303.8" opacity="1.0" stroke="rgb(0,0,0)"  stroke-width="3"/>
<line x1="275.8" y1="303.8" x2="243.1" y2="284.9" opacity="1.0" stroke="rgb(0,0,0)"  stroke-width="3"/>
<line x1="274.2" y1="294.5" x2="251.9" y2="281.7" opacity="1.0" stroke="rgb(0,0,0)"  stroke-width="3"/>
<line x1="243.1" y1="284.9" x2="243.1" y2="247.3" opacity="1.0" stroke="rgb(0,0,0)"  stroke-width="3"/>
<line x1="243.1" y1="247.3" x2="275.8" y2="228.4" opacity="1.0" stroke="rgb(0,0,0)"  stroke-width="3"/>
<line x1="251.9" y1="250.5" x2="274.2" y2="237.7" opacity="1.0" stroke="rgb(0,0,0)"  stroke-width="3"/>
<line x1="275.8" y1="228.4" x2="308.4" y2="247.3" opacity="1.0" stroke="rgb(0,0,0)"  stroke-width="3"/>
<line x1="308.4" y1="247.3" x2="308.4" y2="284.9" opacity="1.0" stroke="rgb(0,0,0)"  stroke-width="3"/>
<line x1="301.2" y1="253.3" x2="301.2" y2="278.9" opacity="1.0" stroke="rgb(0,0,0)"  stroke-width="3"/>
<line x1="341.0" y1="190.8" x2="308.4" y2="171.9" opacity="1.0" stroke="rgb(0,0,0)"  stroke-width="3"/>
<line x1="308.4" y1="171.9" x2="287.0" y2="184.3" opacity="1.0" stroke="rgb(0,0,0)"  stroke-width="3"/>
<line x1="275.8" y1="203.8" x2="275.8" y2="228.4" opacity="1.0" stroke="rgb(0,0,0)"  stroke-width="3"/>
<line x1="308.4" y1="247.3" x2="329.7" y2="234.9" opacity="1.0" stroke="rgb(0,0,0)"  stroke-width="3"/>
<line x1="451.7" y1="247.9" x2="436.4" y2="213.5" opacity="1.0" stroke="rgb(0,0,0)"  stroke-width="3"/>
<line x1="442.7" y1="245.4" x2="432.3" y2="222.0" opacity="1.0" stroke="rgb(0,0,0)"  stroke-width="3"/>
<line x1="436.4" y1="213.5" x2="398.9" y2="209.6" opacity="1.0" stroke="rgb(0,0,0)"  stroke-width="3"/>
<line x1="376.8" y1="240.1" x2="392.1" y2="274.5" opacity="1.0" stroke="rgb(0,0,0)"  stroke-width="3"/>
<line x1="392.1" y1="274.5" x2="429.6" y2="278.4" opacity="1.0" stroke="rgb(0,0,0)"  stroke-width="3"/>
<line x1="398.8" y1="267.9" x2="424.4" y2="270.6" opacity="1.0" stroke="rgb(0,0,0)"  stroke-width="3"/>
<line x1="429.6" y1="278.4" x2="451.7" y2="247.9" opacity="1.0" stroke="rgb(0,0,0)"  stroke-width="3"/>
<line x1="99.8" y1="247.9" x2="115.1" y2="213.5" opacity="1.0" stroke="rgb(0,0,0)"  stroke-width="3"/>
<line x1="108.8" y1="245.4" x2="119.3" y2="222.0" opacity="1.0" stroke="rgb(0,0,0)"  stroke-width="3"/>
<line x1="115.1" y1="213.5" x2="152.6" y2="209.6" opacity="1.0" stroke="rgb(0,0,0)"  stroke-width="3"/>
<line x1="174.7" y1="240.1" x2="159.4" y2="274.5" opacity="1.0" stroke="rgb(0,0,0)"  stroke-width="3"/>
<line x1="159.4" y1="274.5" x2="121.9" y2="278.4" opacity="1.0" stroke="rgb(0,0,0)"  stroke-width="3"/>
<line x1="152.7" y1="267.9" x2="127.2" y2="270.6" opacity="1.0" stroke="rgb(0,0,0)"  stroke-width="3"/>
<line x1="121.9" y1="278.4" x2="99.8" y2="247.9" opacity="1.0" stroke="rgb(0,0,0)"  stroke-width="3"/>
<line x1="221.8" y1="234.9" x2="243.1" y2="247.3" opacity="1.0" stroke="rgb(0,0,0)"  stroke-width="3"/>
<line x1="264.5" y1="184.3" x2="243.1" y2="171.9" opacity="1.0" stroke="rgb(0,0,0)"  stroke-width="3"/>
<line x1="243.1" y1="171.9" x2="210.5" y2="190.8" opacity="1.0" stroke="rgb(0,0,0)"  stroke-width="3"/>
<line x1="210.5" y1="115.5" x2="243.1" y2="134.3" opacity="1.0" stroke="rgb(0,0,0)"  stroke-width="3"/>
<line x1="243.1" y1="134.3" x2="243.1" y2="171.9" opacity="1.0" stroke="rgb(0,0,0)"  stroke-width="3"/>
<line x1="235.9" y1="140.3" x2="235.9" y2="165.9" opacity="1.0" stroke="rgb(0,0,0)"  stroke-width="3"/>
<line x1="177.9" y1="171.9" x2="177.9" y2="134.3" opacity="1.0" stroke="rgb(0,0,0)"  stroke-width="3"/>
<line x1="177.9" y1="134.3" x2="210.5" y2="115.5" opacity="1.0" stroke="rgb(0,0,0)"  stroke-width="3"/>
<line x1="186.7" y1="137.5" x2="208.9" y2="124.7" opacity="1.0" stroke="rgb(0,0,0)"  stroke-width="3"/>
<line x1="373.6" y1="171.9" x2="373.6" y2="134.3" opacity="1.0" stroke="rgb(0,0,0)"  stroke-width="3"/>
<line x1="373.6" y1="134.3" x2="341.0" y2="115.5" opacity="1.0" stroke="rgb(0,0,0)"  stroke-width="3"/>
<line x1="364.8" y1="137.5" x2="342.6" y2="124.7" opacity="1.0" stroke="rgb(0,0,0)"  stroke-width="3"/>
<line x1="341.0" y1="115.5" x2="308.4" y2="134.3" opacity="1.0" stroke="rgb(0,0,0)"  stroke-width="3"/>
<line x1="308.4" y1="134.3" x2="308.4" y2="171.9" opacity="1.0" stroke="rgb(0,0,0)"  stroke-width="3"/>
<line x1="315.6" y1="140.3" x2="315.6" y2="165.9" opacity="1.0" stroke="rgb(0,0,0)"  stroke-width="3"/>
<line x1="275.8" y1="77.8" x2="275.8" y2="115.5" opacity="1.0" stroke="rgb(0,0,0)"  stroke-width="3"/>
<line x1="283.0" y1="83.8" x2="283.0" y2="109.5" opacity="1.0" stroke="rgb(0,0,0)"  stroke-width="3"/>
<line x1="275.8" y1="115.5" x2="308.4" y2="134.3" opacity="1.0" stroke="rgb(0,0,0)"  stroke-width="3"/>
<line x1="341.0" y1="115.5" x2="341.0" y2="77.8" opacity="1.0" stroke="rgb(0,0,0)"  stroke-width="3"/>
<line x1="341.0" y1="77.8" x2="308.4" y2="59.0" opacity="1.0" stroke="rgb(0,0,0)"  stroke-width="3"/>
<line x1="332.2" y1="81.0" x2="310.0" y2="68.2" opacity="1.0" stroke="rgb(0,0,0)"  stroke-width="3"/>
<line x1="308.4" y1="59.0" x2="275.8" y2="77.8" opacity="1.0" stroke="rgb(0,0,0)"  stroke-width="3"/>
<line x1="303.1" y1="437.9" x2="340.8" y2="440.6" opacity="1.0" stroke="rgb(0,0,0)"  stroke-width="3"/>
<line x1="309.6" y1="431.2" x2="335.3" y2="433.0" opacity="1.0" stroke="rgb(0,0,0)"  stroke-width="3"/>
<line x1="340.8" y1="440.6" x2="361.9" y2="409.3" opacity="1.0" stroke="rgb(0,0,0)"  stroke-width="3"/>
<line x1="361.9" y1="409.3" x2="345.4" y2="375.3" opacity="1.0" stroke="rgb(0,0,0)"  stroke-width="3"/>
<line x1="352.8" y1="407.1" x2="341.5" y2="383.9" opacity="1.0" stroke="rgb(0,0,0)"  stroke-width="3"/>
<line x1="345.4" y1="375.3" x2="307.7" y2="372.7" opacity="1.0" stroke="rgb(0,0,0)"  stroke-width="3"/>
<line x1="307.7" y1="372.7" x2="286.5" y2="404.0" opacity="1.0" stroke="rgb(0,0,0)"  stroke-width="3"/>
<line x1="310.3" y1="381.7" x2="295.9" y2="403.0" opacity="1.0" stroke="rgb(0,0,0)"  stroke-width="3"/>
<line x1="286.5" y1="404.0" x2="303.1" y2="437.9" opacity="1.0" stroke="rgb(0,0,0)"  stroke-width="3"/>
<line x1="470.4" y1="378.3" x2="441.5" y2="354.0" opacity="1.0" stroke="rgb(0,0,0)"  stroke-width="3"/>
<line x1="461.2" y1="379.9" x2="441.4" y2="363.4" opacity="1.0" stroke="rgb(0,0,0)"  stroke-width="3"/>
<line x1="441.5" y1="354.0" x2="405.9" y2="366.9" opacity="1.0" stroke="rgb(0,0,0)"  stroke-width="3"/>
<line x1="405.9" y1="366.9" x2="399.4" y2="404.1" opacity="1.0" stroke="rgb(0,0,0)"  stroke-width="3"/>
<line x1="412.0" y1="374.0" x2="407.5" y2="399.4" opacity="1.0" stroke="rgb(0,0,0)"  stroke-width="3"/>
<line x1="399.4" y1="404.1" x2="428.3" y2="428.4" opacity="1.0" stroke="rgb(0,0,0)"  stroke-width="3"/>
<line x1="428.3" y1="428.4" x2="463.8" y2="415.5" opacity="1.0" stroke="rgb(0,0,0)"  stroke-width="3"/>
<line x1="431.5" y1="419.6" x2="455.7" y2="410.8" opacity="1.0" stroke="rgb(0,0,0)"  stroke-width="3"/>
<line x1="463.8" y1="415.5" x2="470.4" y2="378.3" opacity="1.0" stroke="rgb(0,0,0)"  stroke-width="3"/>
<line x1="274.3" y1="403.8" x2="251.9" y2="373.3" opacity="1.0" stroke="rgb(0,0,0)"  stroke-width="3"/>
<line x1="264.9" y1="403.2" x2="249.7" y2="382.4" opacity="1.0" stroke="rgb(0,0,0)"  stroke-width="3"/>
<line x1="251.9" y1="373.3" x2="214.3" y2="377.5" opacity="1.0" stroke="rgb(0,0,0)"  stroke-width="3"/>
<line x1="214.3" y1="377.5" x2="199.2" y2="412.1" opacity="1.0" stroke="rgb(0,0,0)"  stroke-width="3"/>
<line x1="218.5" y1="385.9" x2="208.2" y2="409.5" opacity="1.0" stroke="rgb(0,0,0)"  stroke-width="3"/>
<line x1="199.2" y1="412.1" x2="221.6" y2="442.6" opacity="1.0" stroke="rgb(0,0,0)"  stroke-width="3"/>
<line x1="221.6" y1="442.6" x2="259.1" y2="438.4" opacity="1.0" stroke="rgb(0,0,0)"  stroke-width="3"/>
<line x1="226.7" y1="434.7" x2="252.4" y2="431.9" opacity="1.0" stroke="rgb(0,0,0)"  stroke-width="3"/>
<line x1="259.1" y1="438.4" x2="274.3" y2="403.8" opacity="1.0" stroke="rgb(0,0,0)"  stroke-width="3"/>
<line x1="97.6" y1="422.4" x2="133.6" y2="433.8" opacity="1.0" stroke="rgb(0,0,0)"  stroke-width="3"/>
<line x1="105.5" y1="417.3" x2="130.1" y2="425.2" opacity="1.0" stroke="rgb(0,0,0)"  stroke-width="3"/>
<line x1="133.6" y1="433.8" x2="161.6" y2="408.4" opacity="1.0" stroke="rgb(0,0,0)"  stroke-width="3"/>
<line x1="161.6" y1="408.4" x2="153.5" y2="371.5" opacity="1.0" stroke="rgb(0,0,0)"  stroke-width="3"/>
<line x1="153.3" y1="404.1" x2="147.7" y2="378.9" opacity="1.0" stroke="rgb(0,0,0)"  stroke-width="3"/>
<line x1="153.5" y1="371.5" x2="117.5" y2="360.0" opacity="1.0" stroke="rgb(0,0,0)"  stroke-width="3"/>
<line x1="117.5" y1="360.0" x2="89.5" y2="385.5" opacity="1.0" stroke="rgb(0,0,0)"  stroke-width="3"/>
<line x1="117.9" y1="369.4" x2="98.8" y2="386.7" opacity="1.0" stroke="rgb(0,0,0)"  stroke-width="3"/>
<line x1="89.5" y1="385.5" x2="97.6" y2="422.4" opacity="1.0" stroke="rgb(0,0,0)"  stroke-width="3"/>
<line x1="361.9" y1="409.3" x2="399.4" y2="404.1" opacity="1.0" stroke="rgb(0,0,0)"  stroke-width="3"/>
<line x1="405.9" y1="366.9" x2="372.6" y2="349.1" opacity="1.0" stroke="rgb(0,0,0)"  stroke-width="3"/>
<line x1="372.6" y1="349.1" x2="345.4" y2="375.3" opacity="1.0" stroke="rgb(0,0,0)"  stroke-width="3"/>
<line x1="161.6" y1="408.4" x2="199.2" y2="412.1" opacity="1.0" stroke="rgb(0,0,0)"  stroke-width="3"/>
<line x1="214.3" y1="377.5" x2="186.1" y2="352.4" opacity="1.0" stroke="rgb(0,0,0)"  stroke-width="3"/>
<line x1="186.1" y1="352.4" x2="153.5" y2="371.5" opacity="1.0" stroke="rgb(0,0,0)"  stroke-width="3"/>
<line x1="243.1" y1="284.9" x2="186.1" y2="352.4" opacity="1.0" stroke="rgb(0,0,0)"  stroke-width="3"/>
<line x1="186.1" y1="352.4" x2="159.4" y2="274.5" opacity="1.0" stroke="rgb(0,0,0)"  stroke-width="3"/>
<line x1="392.1" y1="274.5" x2="372.6" y2="349.1" opacity="1.0" stroke="rgb(0,0,0)"  stroke-width="3"/>
<line x1="372.6" y1="349.1" x2="308.4" y2="284.9" opacity="1.0" stroke="rgb(0,0,0)"  stroke-width="3"/>
<text x="269.759192" y="349.553441" fill="rgb(127,178,255)" stroke-width="0" font-weight="bold" font-size="25.92" >F</text>
<text x="204.527387" y="236.437741" fill="rgb(12,12,255)" stroke-width="0" font-weight="bold" font-size="25.92" >N</text>
<text x="334.989989" y="236.437741" fill="rgb(12,12,255)" stroke-width="0" font-weight="bold" font-size="25.92" >N</text>
<text x="269.758688" y="198.776423" fill="rgb(255,181,181)" stroke-width="0" font-weight="bold" font-size="25.92" >B</text>
</svg>
</g>
</svg>
