<?xml version="1.0"?>
<svg version="1.1" id="topsvg"
xmlns="http://www.w3.org/2000/svg" xmlns:xlink="http://www.w3.org/1999/xlink"
xmlns:cml="http://www.xml-cml.org/schema" x="0" y="0" width="200px" height="200px" viewBox="0 0 100 100">
<title>GD312-1.sdf - Open Babel Depiction</title>
<rect x="0" y="0" width="100" height="100" fill="white"/>
<g transform="translate(0,0)">
<svg width="100" height="100" x="0" y="0" viewBox="0 0 654.819 515.387"
font-family="sans-serif" stroke="rgb(0,0,0)" stroke-width="2"  stroke-linecap="round">
<line x1="233.8" y1="148.8" x2="222.0" y2="112.5" opacity="1.0" stroke="rgb(0,0,0)"  stroke-width="2.0"/>
<line x1="151.9" y1="290.6" x2="114.6" y2="298.6" opacity="1.0" stroke="rgb(0,0,0)"  stroke-width="2.0"/>
<line x1="327.4" y1="335.6" x2="327.4" y2="360.7" opacity="1.0" stroke="rgb(0,0,0)"  stroke-width="2.0"/>
<line x1="421.0" y1="148.8" x2="432.8" y2="112.5" opacity="1.0" stroke="rgb(0,0,0)"  stroke-width="2.0"/>
<line x1="502.9" y1="290.6" x2="540.2" y2="298.6" opacity="1.0" stroke="rgb(0,0,0)"  stroke-width="2.0"/>
<line x1="201.0" y1="246.4" x2="220.1" y2="213.4" opacity="1.0" stroke="rgb(0,0,0)"  stroke-width="2.0"/>
<line x1="220.1" y1="213.4" x2="257.4" y2="221.3" opacity="1.0" stroke="rgb(0,0,0)"  stroke-width="2.0"/>
<line x1="224.4" y1="221.7" x2="250.0" y2="227.1" opacity="1.0" stroke="rgb(0,0,0)"  stroke-width="2.0"/>
<line x1="257.4" y1="221.3" x2="260.0" y2="246.3" opacity="1.0" stroke="rgb(0,0,0)"  stroke-width="2.0"/>
<line x1="249.5" y1="264.6" x2="226.5" y2="274.8" opacity="1.0" stroke="rgb(0,0,0)"  stroke-width="2.0"/>
<line x1="226.5" y1="274.8" x2="201.0" y2="246.4" opacity="1.0" stroke="rgb(0,0,0)"  stroke-width="2.0"/>
<line x1="227.9" y1="265.5" x2="210.4" y2="246.1" opacity="1.0" stroke="rgb(0,0,0)"  stroke-width="2.0"/>
<line x1="453.8" y1="246.4" x2="428.3" y2="274.8" opacity="1.0" stroke="rgb(0,0,0)"  stroke-width="2.0"/>
<line x1="444.5" y1="246.1" x2="427.0" y2="265.5" opacity="1.0" stroke="rgb(0,0,0)"  stroke-width="2.0"/>
<line x1="428.3" y1="274.8" x2="405.3" y2="264.6" opacity="1.0" stroke="rgb(0,0,0)"  stroke-width="2.0"/>
<line x1="394.8" y1="246.3" x2="397.5" y2="221.3" opacity="1.0" stroke="rgb(0,0,0)"  stroke-width="2.0"/>
<line x1="397.5" y1="221.3" x2="434.8" y2="213.4" opacity="1.0" stroke="rgb(0,0,0)"  stroke-width="2.0"/>
<line x1="404.8" y1="227.1" x2="430.4" y2="221.7" opacity="1.0" stroke="rgb(0,0,0)"  stroke-width="2.0"/>
<line x1="434.8" y1="213.4" x2="453.8" y2="246.4" opacity="1.0" stroke="rgb(0,0,0)"  stroke-width="2.0"/>
<line x1="294.4" y1="316.5" x2="327.4" y2="335.6" opacity="1.0" stroke="rgb(0,0,0)"  stroke-width="2.0"/>
<line x1="327.4" y1="335.6" x2="360.4" y2="316.5" opacity="1.0" stroke="rgb(0,0,0)"  stroke-width="2.0"/>
<line x1="329.0" y1="326.3" x2="351.6" y2="313.2" opacity="1.0" stroke="rgb(0,0,0)"  stroke-width="2.0"/>
<line x1="360.4" y1="316.5" x2="360.4" y2="278.3" opacity="1.0" stroke="rgb(0,0,0)"  stroke-width="2.0"/>
<line x1="360.4" y1="278.3" x2="327.4" y2="259.3" opacity="1.0" stroke="rgb(0,0,0)"  stroke-width="2.0"/>
<line x1="351.6" y1="281.6" x2="329.0" y2="268.5" opacity="1.0" stroke="rgb(0,0,0)"  stroke-width="2.0"/>
<line x1="327.4" y1="259.3" x2="294.4" y2="278.3" opacity="1.0" stroke="rgb(0,0,0)"  stroke-width="2.0"/>
<line x1="294.4" y1="278.3" x2="294.4" y2="316.5" opacity="1.0" stroke="rgb(0,0,0)"  stroke-width="2.0"/>
<line x1="301.6" y1="284.3" x2="301.6" y2="310.5" opacity="1.0" stroke="rgb(0,0,0)"  stroke-width="2.0"/>
<line x1="257.4" y1="221.3" x2="282.9" y2="193.0" opacity="1.0" stroke="rgb(0,0,0)"  stroke-width="2.0"/>
<line x1="282.9" y1="193.0" x2="316.4" y2="214.2" opacity="1.0" stroke="rgb(0,0,0)"  stroke-width="2.0"/>
<line x1="327.4" y1="234.1" x2="327.4" y2="259.3" opacity="1.0" stroke="rgb(0,0,0)"  stroke-width="2.0"/>
<line x1="294.4" y1="278.3" x2="272.6" y2="265.8" opacity="1.0" stroke="rgb(0,0,0)"  stroke-width="2.0"/>
<line x1="382.2" y1="265.8" x2="360.4" y2="278.3" opacity="1.0" stroke="rgb(0,0,0)"  stroke-width="2.0"/>
<line x1="338.4" y1="214.2" x2="371.9" y2="193.0" opacity="1.0" stroke="rgb(0,0,0)"  stroke-width="2.0"/>
<line x1="371.9" y1="193.0" x2="397.5" y2="221.3" opacity="1.0" stroke="rgb(0,0,0)"  stroke-width="2.0"/>
<line x1="151.9" y1="290.6" x2="177.4" y2="319.0" opacity="1.0" stroke="rgb(0,0,0)"  stroke-width="2.0"/>
<line x1="177.4" y1="319.0" x2="214.7" y2="311.1" opacity="1.0" stroke="rgb(0,0,0)"  stroke-width="2.0"/>
<line x1="181.8" y1="310.7" x2="207.4" y2="305.3" opacity="1.0" stroke="rgb(0,0,0)"  stroke-width="2.0"/>
<line x1="214.7" y1="311.1" x2="226.5" y2="274.8" opacity="1.0" stroke="rgb(0,0,0)"  stroke-width="2.0"/>
<line x1="201.0" y1="246.4" x2="163.7" y2="254.4" opacity="1.0" stroke="rgb(0,0,0)"  stroke-width="2.0"/>
<line x1="163.7" y1="254.4" x2="151.9" y2="290.6" opacity="1.0" stroke="rgb(0,0,0)"  stroke-width="2.0"/>
<line x1="168.7" y1="262.3" x2="160.6" y2="287.2" opacity="1.0" stroke="rgb(0,0,0)"  stroke-width="2.0"/>
<line x1="502.9" y1="290.6" x2="477.4" y2="319.0" opacity="1.0" stroke="rgb(0,0,0)"  stroke-width="2.0"/>
<line x1="477.4" y1="319.0" x2="440.1" y2="311.1" opacity="1.0" stroke="rgb(0,0,0)"  stroke-width="2.0"/>
<line x1="473.0" y1="310.7" x2="447.5" y2="305.3" opacity="1.0" stroke="rgb(0,0,0)"  stroke-width="2.0"/>
<line x1="440.1" y1="311.1" x2="428.3" y2="274.8" opacity="1.0" stroke="rgb(0,0,0)"  stroke-width="2.0"/>
<line x1="453.8" y1="246.4" x2="491.1" y2="254.4" opacity="1.0" stroke="rgb(0,0,0)"  stroke-width="2.0"/>
<line x1="491.1" y1="254.4" x2="502.9" y2="290.6" opacity="1.0" stroke="rgb(0,0,0)"  stroke-width="2.0"/>
<line x1="486.1" y1="262.3" x2="494.2" y2="287.2" opacity="1.0" stroke="rgb(0,0,0)"  stroke-width="2.0"/>
<line x1="421.0" y1="148.8" x2="383.7" y2="156.7" opacity="1.0" stroke="rgb(0,0,0)"  stroke-width="2.0"/>
<line x1="383.7" y1="156.7" x2="371.9" y2="193.0" opacity="1.0" stroke="rgb(0,0,0)"  stroke-width="2.0"/>
<line x1="388.7" y1="164.7" x2="380.6" y2="189.5" opacity="1.0" stroke="rgb(0,0,0)"  stroke-width="2.0"/>
<line x1="434.8" y1="213.4" x2="446.5" y2="177.2" opacity="1.0" stroke="rgb(0,0,0)"  stroke-width="2.0"/>
<line x1="446.5" y1="177.2" x2="421.0" y2="148.8" opacity="1.0" stroke="rgb(0,0,0)"  stroke-width="2.0"/>
<line x1="437.2" y1="177.5" x2="419.7" y2="158.1" opacity="1.0" stroke="rgb(0,0,0)"  stroke-width="2.0"/>
<line x1="220.1" y1="213.4" x2="208.3" y2="177.2" opacity="1.0" stroke="rgb(0,0,0)"  stroke-width="2.0"/>
<line x1="208.3" y1="177.2" x2="233.8" y2="148.8" opacity="1.0" stroke="rgb(0,0,0)"  stroke-width="2.0"/>
<line x1="217.6" y1="177.5" x2="235.1" y2="158.1" opacity="1.0" stroke="rgb(0,0,0)"  stroke-width="2.0"/>
<line x1="233.8" y1="148.8" x2="271.1" y2="156.7" opacity="1.0" stroke="rgb(0,0,0)"  stroke-width="2.0"/>
<line x1="271.1" y1="156.7" x2="282.9" y2="193.0" opacity="1.0" stroke="rgb(0,0,0)"  stroke-width="2.0"/>
<line x1="266.1" y1="164.7" x2="274.2" y2="189.5" opacity="1.0" stroke="rgb(0,0,0)"  stroke-width="2.0"/>
<line x1="314.4" y1="441.0" x2="295.7" y2="407.8" opacity="1.0" stroke="rgb(0,0,0)"  stroke-width="2.0"/>
<line x1="305.2" y1="439.3" x2="292.4" y2="416.6" opacity="1.0" stroke="rgb(0,0,0)"  stroke-width="2.0"/>
<line x1="295.7" y1="407.8" x2="257.6" y2="407.8" opacity="1.0" stroke="rgb(0,0,0)"  stroke-width="2.0"/>
<line x1="257.6" y1="407.8" x2="238.9" y2="441.0" opacity="1.0" stroke="rgb(0,0,0)"  stroke-width="2.0"/>
<line x1="260.9" y1="416.6" x2="248.1" y2="439.3" opacity="1.0" stroke="rgb(0,0,0)"  stroke-width="2.0"/>
<line x1="238.9" y1="441.0" x2="257.6" y2="473.9" opacity="1.0" stroke="rgb(0,0,0)"  stroke-width="2.0"/>
<line x1="257.6" y1="473.9" x2="295.7" y2="473.9" opacity="1.0" stroke="rgb(0,0,0)"  stroke-width="2.0"/>
<line x1="263.6" y1="466.7" x2="289.7" y2="466.7" opacity="1.0" stroke="rgb(0,0,0)"  stroke-width="2.0"/>
<line x1="295.7" y1="473.9" x2="314.4" y2="441.0" opacity="1.0" stroke="rgb(0,0,0)"  stroke-width="2.0"/>
<line x1="135.9" y1="441.1" x2="170.9" y2="456.3" opacity="1.0" stroke="rgb(0,0,0)"  stroke-width="2.0"/>
<line x1="144.2" y1="436.9" x2="168.2" y2="447.3" opacity="1.0" stroke="rgb(0,0,0)"  stroke-width="2.0"/>
<line x1="170.9" y1="456.3" x2="201.5" y2="433.5" opacity="1.0" stroke="rgb(0,0,0)"  stroke-width="2.0"/>
<line x1="201.5" y1="433.5" x2="197.1" y2="395.6" opacity="1.0" stroke="rgb(0,0,0)"  stroke-width="2.0"/>
<line x1="193.6" y1="428.4" x2="190.6" y2="402.4" opacity="1.0" stroke="rgb(0,0,0)"  stroke-width="2.0"/>
<line x1="197.1" y1="395.6" x2="162.1" y2="380.5" opacity="1.0" stroke="rgb(0,0,0)"  stroke-width="2.0"/>
<line x1="162.1" y1="380.5" x2="131.5" y2="403.2" opacity="1.0" stroke="rgb(0,0,0)"  stroke-width="2.0"/>
<line x1="161.6" y1="389.8" x2="140.6" y2="405.4" opacity="1.0" stroke="rgb(0,0,0)"  stroke-width="2.0"/>
<line x1="131.5" y1="403.2" x2="135.9" y2="441.1" opacity="1.0" stroke="rgb(0,0,0)"  stroke-width="2.0"/>
<line x1="351.2" y1="475.4" x2="389.3" y2="475.4" opacity="1.0" stroke="rgb(0,0,0)"  stroke-width="2.0"/>
<line x1="357.2" y1="468.2" x2="383.3" y2="468.2" opacity="1.0" stroke="rgb(0,0,0)"  stroke-width="2.0"/>
<line x1="389.3" y1="475.4" x2="408.7" y2="442.5" opacity="1.0" stroke="rgb(0,0,0)"  stroke-width="2.0"/>
<line x1="408.7" y1="442.5" x2="389.3" y2="409.7" opacity="1.0" stroke="rgb(0,0,0)"  stroke-width="2.0"/>
<line x1="399.4" y1="441.0" x2="386.2" y2="418.5" opacity="1.0" stroke="rgb(0,0,0)"  stroke-width="2.0"/>
<line x1="389.3" y1="409.7" x2="351.2" y2="409.7" opacity="1.0" stroke="rgb(0,0,0)"  stroke-width="2.0"/>
<line x1="351.2" y1="409.7" x2="332.4" y2="442.5" opacity="1.0" stroke="rgb(0,0,0)"  stroke-width="2.0"/>
<line x1="354.5" y1="418.5" x2="341.6" y2="440.9" opacity="1.0" stroke="rgb(0,0,0)"  stroke-width="2.0"/>
<line x1="332.4" y1="442.5" x2="351.2" y2="475.4" opacity="1.0" stroke="rgb(0,0,0)"  stroke-width="2.0"/>
<line x1="515.3" y1="402.6" x2="484.2" y2="380.5" opacity="1.0" stroke="rgb(0,0,0)"  stroke-width="2.0"/>
<line x1="506.2" y1="405.0" x2="485.0" y2="389.8" opacity="1.0" stroke="rgb(0,0,0)"  stroke-width="2.0"/>
<line x1="484.2" y1="380.5" x2="449.6" y2="396.3" opacity="1.0" stroke="rgb(0,0,0)"  stroke-width="2.0"/>
<line x1="449.6" y1="396.3" x2="445.9" y2="434.3" opacity="1.0" stroke="rgb(0,0,0)"  stroke-width="2.0"/>
<line x1="456.1" y1="403.0" x2="453.7" y2="429.0" opacity="1.0" stroke="rgb(0,0,0)"  stroke-width="2.0"/>
<line x1="445.9" y1="434.3" x2="477.0" y2="456.4" opacity="1.0" stroke="rgb(0,0,0)"  stroke-width="2.0"/>
<line x1="477.0" y1="456.4" x2="511.7" y2="440.6" opacity="1.0" stroke="rgb(0,0,0)"  stroke-width="2.0"/>
<line x1="479.4" y1="447.4" x2="503.2" y2="436.5" opacity="1.0" stroke="rgb(0,0,0)"  stroke-width="2.0"/>
<line x1="511.7" y1="440.6" x2="515.3" y2="402.6" opacity="1.0" stroke="rgb(0,0,0)"  stroke-width="2.0"/>
<line x1="247.5" y1="84.2" x2="235.7" y2="47.9" opacity="1.0" stroke="rgb(0,0,0)"  stroke-width="2.0"/>
<line x1="235.7" y1="47.9" x2="198.4" y2="40.0" opacity="1.0" stroke="rgb(0,0,0)"  stroke-width="2.0"/>
<line x1="228.4" y1="53.7" x2="202.8" y2="48.3" opacity="1.0" stroke="rgb(0,0,0)"  stroke-width="2.0"/>
<line x1="198.4" y1="40.0" x2="172.9" y2="68.3" opacity="1.0" stroke="rgb(0,0,0)"  stroke-width="2.0"/>
<line x1="172.9" y1="68.3" x2="184.7" y2="104.6" opacity="1.0" stroke="rgb(0,0,0)"  stroke-width="2.0"/>
<line x1="181.6" y1="71.8" x2="189.7" y2="96.7" opacity="1.0" stroke="rgb(0,0,0)"  stroke-width="2.0"/>
<line x1="184.7" y1="104.6" x2="222.0" y2="112.5" opacity="1.0" stroke="rgb(0,0,0)"  stroke-width="2.0"/>
<line x1="222.0" y1="112.5" x2="247.5" y2="84.2" opacity="1.0" stroke="rgb(0,0,0)"  stroke-width="2.0"/>
<line x1="220.7" y1="103.3" x2="238.2" y2="83.8" opacity="1.0" stroke="rgb(0,0,0)"  stroke-width="2.0"/>
<line x1="89.1" y1="270.2" x2="51.8" y2="278.2" opacity="1.0" stroke="rgb(0,0,0)"  stroke-width="2.0"/>
<line x1="51.8" y1="278.2" x2="40.0" y2="314.4" opacity="1.0" stroke="rgb(0,0,0)"  stroke-width="2.0"/>
<line x1="56.8" y1="286.1" x2="48.7" y2="311.0" opacity="1.0" stroke="rgb(0,0,0)"  stroke-width="2.0"/>
<line x1="40.0" y1="314.4" x2="65.5" y2="342.8" opacity="1.0" stroke="rgb(0,0,0)"  stroke-width="2.0"/>
<line x1="65.5" y1="342.8" x2="102.8" y2="334.8" opacity="1.0" stroke="rgb(0,0,0)"  stroke-width="2.0"/>
<line x1="69.9" y1="334.5" x2="95.5" y2="329.1" opacity="1.0" stroke="rgb(0,0,0)"  stroke-width="2.0"/>
<line x1="102.8" y1="334.8" x2="114.6" y2="298.6" opacity="1.0" stroke="rgb(0,0,0)"  stroke-width="2.0"/>
<line x1="114.6" y1="298.6" x2="89.1" y2="270.2" opacity="1.0" stroke="rgb(0,0,0)"  stroke-width="2.0"/>
<line x1="105.2" y1="298.9" x2="87.8" y2="279.5" opacity="1.0" stroke="rgb(0,0,0)"  stroke-width="2.0"/>
<line x1="470.1" y1="104.6" x2="481.9" y2="68.3" opacity="1.0" stroke="rgb(0,0,0)"  stroke-width="2.0"/>
<line x1="481.9" y1="68.3" x2="456.4" y2="40.0" opacity="1.0" stroke="rgb(0,0,0)"  stroke-width="2.0"/>
<line x1="472.5" y1="68.7" x2="455.0" y2="49.3" opacity="1.0" stroke="rgb(0,0,0)"  stroke-width="2.0"/>
<line x1="456.4" y1="40.0" x2="419.1" y2="47.9" opacity="1.0" stroke="rgb(0,0,0)"  stroke-width="2.0"/>
<line x1="419.1" y1="47.9" x2="407.3" y2="84.2" opacity="1.0" stroke="rgb(0,0,0)"  stroke-width="2.0"/>
<line x1="424.1" y1="55.9" x2="416.0" y2="80.7" opacity="1.0" stroke="rgb(0,0,0)"  stroke-width="2.0"/>
<line x1="407.3" y1="84.2" x2="432.8" y2="112.5" opacity="1.0" stroke="rgb(0,0,0)"  stroke-width="2.0"/>
<line x1="432.8" y1="112.5" x2="470.1" y2="104.6" opacity="1.0" stroke="rgb(0,0,0)"  stroke-width="2.0"/>
<line x1="437.2" y1="104.2" x2="462.7" y2="98.8" opacity="1.0" stroke="rgb(0,0,0)"  stroke-width="2.0"/>
<line x1="552.0" y1="334.8" x2="589.3" y2="342.8" opacity="1.0" stroke="rgb(0,0,0)"  stroke-width="2.0"/>
<line x1="589.3" y1="342.8" x2="614.8" y2="314.4" opacity="1.0" stroke="rgb(0,0,0)"  stroke-width="2.0"/>
<line x1="588.0" y1="333.5" x2="605.5" y2="314.1" opacity="1.0" stroke="rgb(0,0,0)"  stroke-width="2.0"/>
<line x1="614.8" y1="314.4" x2="603.0" y2="278.2" opacity="1.0" stroke="rgb(0,0,0)"  stroke-width="2.0"/>
<line x1="603.0" y1="278.2" x2="565.7" y2="270.2" opacity="1.0" stroke="rgb(0,0,0)"  stroke-width="2.0"/>
<line x1="595.7" y1="284.0" x2="570.1" y2="278.5" opacity="1.0" stroke="rgb(0,0,0)"  stroke-width="2.0"/>
<line x1="565.7" y1="270.2" x2="540.2" y2="298.6" opacity="1.0" stroke="rgb(0,0,0)"  stroke-width="2.0"/>
<line x1="540.2" y1="298.6" x2="552.0" y2="334.8" opacity="1.0" stroke="rgb(0,0,0)"  stroke-width="2.0"/>
<line x1="548.9" y1="302.1" x2="557.0" y2="326.9" opacity="1.0" stroke="rgb(0,0,0)"  stroke-width="2.0"/>
<line x1="201.5" y1="433.5" x2="238.9" y2="441.0" opacity="1.0" stroke="rgb(0,0,0)"  stroke-width="2.0"/>
<line x1="257.6" y1="407.8" x2="231.8" y2="379.7" opacity="1.0" stroke="rgb(0,0,0)"  stroke-width="2.0"/>
<line x1="231.8" y1="379.7" x2="197.1" y2="395.6" opacity="1.0" stroke="rgb(0,0,0)"  stroke-width="2.0"/>
<line x1="408.7" y1="442.5" x2="445.9" y2="434.3" opacity="1.0" stroke="rgb(0,0,0)"  stroke-width="2.0"/>
<line x1="449.6" y1="396.3" x2="414.6" y2="381.1" opacity="1.0" stroke="rgb(0,0,0)"  stroke-width="2.0"/>
<line x1="414.6" y1="381.1" x2="389.3" y2="409.7" opacity="1.0" stroke="rgb(0,0,0)"  stroke-width="2.0"/>
<line x1="360.4" y1="316.5" x2="414.6" y2="381.1" opacity="1.0" stroke="rgb(0,0,0)"  stroke-width="2.0"/>
<line x1="414.6" y1="381.1" x2="440.1" y2="311.1" opacity="1.0" stroke="rgb(0,0,0)"  stroke-width="2.0"/>
<line x1="214.7" y1="311.1" x2="231.8" y2="379.7" opacity="1.0" stroke="rgb(0,0,0)"  stroke-width="2.0"/>
<line x1="231.8" y1="379.7" x2="294.4" y2="316.5" opacity="1.0" stroke="rgb(0,0,0)"  stroke-width="2.0"/>
<text x="321.409573" y="381.687100" fill="rgb(127,178,255)" stroke-width="0" font-weight="bold" font-size="16" >F</text>
<text x="387.463956" y="267.277558" fill="rgb(12,12,255)" stroke-width="0" font-weight="bold" font-size="16" >N</text>
<text x="255.355189" y="267.277558" fill="rgb(12,12,255)" stroke-width="0" font-weight="bold" font-size="16" >N</text>
<text x="321.409573" y="229.141044" fill="rgb(255,181,181)" stroke-width="0" font-weight="bold" font-size="16" >B</text>
</svg>
</g>
</svg>
