<?xml version="1.0"?>
<svg version="1.1" id="topsvg"
xmlns="http://www.w3.org/2000/svg" xmlns:xlink="http://www.w3.org/1999/xlink"
xmlns:cml="http://www.xml-cml.org/schema" x="0" y="0" width="200px" height="200px" viewBox="0 0 100 100">
<title>GD313.sdf - Open Babel Depiction</title>
<rect x="0" y="0" width="100" height="100" fill="white"/>
<g transform="translate(0,0)">
<svg width="100" height="100" x="0" y="0" viewBox="0 0 538.556 516.937"
font-family="sans-serif" stroke="rgb(0,0,0)" stroke-width="3"  stroke-linecap="round">
<line x1="159.7" y1="350.9" x2="143.9" y2="386.5" opacity="1.0" stroke="rgb(0,0,0)"  stroke-width="3"/>
<line x1="197.8" y1="342.8" x2="216.3" y2="399.8" opacity="1.0" stroke="rgb(0,0,0)"  stroke-width="3"/>
<line x1="340.8" y1="342.8" x2="322.3" y2="399.8" opacity="1.0" stroke="rgb(0,0,0)"  stroke-width="3"/>
<line x1="378.9" y1="350.9" x2="394.7" y2="386.5" opacity="1.0" stroke="rgb(0,0,0)"  stroke-width="3"/>
<line x1="352.9" y1="106.5" x2="378.9" y2="77.6" opacity="1.0" stroke="rgb(0,0,0)"  stroke-width="3"/>
<line x1="378.9" y1="77.6" x2="417.0" y2="85.7" opacity="1.0" stroke="rgb(0,0,0)"  stroke-width="3"/>
<line x1="378.9" y1="77.6" x2="368.9" y2="40.0" opacity="1.0" stroke="rgb(0,0,0)"  stroke-width="3"/>
<line x1="378.9" y1="77.6" x2="406.5" y2="50.1" opacity="1.0" stroke="rgb(0,0,0)"  stroke-width="3"/>
<line x1="185.7" y1="106.5" x2="159.6" y2="77.6" opacity="1.0" stroke="rgb(0,0,0)"  stroke-width="3"/>
<line x1="159.6" y1="77.6" x2="122.0" y2="87.7" opacity="1.0" stroke="rgb(0,0,0)"  stroke-width="3"/>
<line x1="159.6" y1="77.6" x2="132.1" y2="50.1" opacity="1.0" stroke="rgb(0,0,0)"  stroke-width="3"/>
<line x1="159.6" y1="77.6" x2="171.7" y2="40.6" opacity="1.0" stroke="rgb(0,0,0)"  stroke-width="3"/>
<line x1="159.7" y1="350.9" x2="140.2" y2="317.2" opacity="1.0" stroke="rgb(0,0,0)"  stroke-width="3"/>
<line x1="140.2" y1="317.2" x2="166.3" y2="288.3" opacity="1.0" stroke="rgb(0,0,0)"  stroke-width="3"/>
<line x1="149.6" y1="317.5" x2="167.6" y2="297.5" opacity="1.0" stroke="rgb(0,0,0)"  stroke-width="3"/>
<line x1="166.3" y1="288.3" x2="190.0" y2="298.8" opacity="1.0" stroke="rgb(0,0,0)"  stroke-width="3"/>
<line x1="200.5" y1="317.0" x2="197.8" y2="342.8" opacity="1.0" stroke="rgb(0,0,0)"  stroke-width="3"/>
<line x1="197.8" y1="342.8" x2="159.7" y2="350.9" opacity="1.0" stroke="rgb(0,0,0)"  stroke-width="3"/>
<line x1="190.4" y1="337.0" x2="164.1" y2="342.6" opacity="1.0" stroke="rgb(0,0,0)"  stroke-width="3"/>
<line x1="340.8" y1="342.8" x2="378.9" y2="350.9" opacity="1.0" stroke="rgb(0,0,0)"  stroke-width="3"/>
<line x1="348.1" y1="337.0" x2="374.5" y2="342.6" opacity="1.0" stroke="rgb(0,0,0)"  stroke-width="3"/>
<line x1="378.9" y1="350.9" x2="398.3" y2="317.2" opacity="1.0" stroke="rgb(0,0,0)"  stroke-width="3"/>
<line x1="398.3" y1="317.2" x2="372.3" y2="288.3" opacity="1.0" stroke="rgb(0,0,0)"  stroke-width="3"/>
<line x1="389.0" y1="317.5" x2="370.9" y2="297.5" opacity="1.0" stroke="rgb(0,0,0)"  stroke-width="3"/>
<line x1="372.3" y1="288.3" x2="348.6" y2="298.8" opacity="1.0" stroke="rgb(0,0,0)"  stroke-width="3"/>
<line x1="338.1" y1="317.0" x2="340.8" y2="342.8" opacity="1.0" stroke="rgb(0,0,0)"  stroke-width="3"/>
<line x1="235.6" y1="284.6" x2="269.3" y2="304.1" opacity="1.0" stroke="rgb(0,0,0)"  stroke-width="3"/>
<line x1="269.3" y1="304.1" x2="303.0" y2="284.6" opacity="1.0" stroke="rgb(0,0,0)"  stroke-width="3"/>
<line x1="270.9" y1="294.9" x2="294.2" y2="281.4" opacity="1.0" stroke="rgb(0,0,0)"  stroke-width="3"/>
<line x1="303.0" y1="284.6" x2="303.0" y2="245.7" opacity="1.0" stroke="rgb(0,0,0)"  stroke-width="3"/>
<line x1="303.0" y1="245.7" x2="269.3" y2="226.2" opacity="1.0" stroke="rgb(0,0,0)"  stroke-width="3"/>
<line x1="294.2" y1="248.9" x2="270.9" y2="235.5" opacity="1.0" stroke="rgb(0,0,0)"  stroke-width="3"/>
<line x1="269.3" y1="226.2" x2="235.6" y2="245.7" opacity="1.0" stroke="rgb(0,0,0)"  stroke-width="3"/>
<line x1="235.6" y1="245.7" x2="235.6" y2="284.6" opacity="1.0" stroke="rgb(0,0,0)"  stroke-width="3"/>
<line x1="242.8" y1="251.7" x2="242.8" y2="278.6" opacity="1.0" stroke="rgb(0,0,0)"  stroke-width="3"/>
<line x1="269.3" y1="200.3" x2="269.3" y2="226.2" opacity="1.0" stroke="rgb(0,0,0)"  stroke-width="3"/>
<line x1="235.6" y1="245.7" x2="213.1" y2="232.7" opacity="1.0" stroke="rgb(0,0,0)"  stroke-width="3"/>
<line x1="201.3" y1="213.2" x2="199.7" y2="172.5" opacity="1.0" stroke="rgb(0,0,0)"  stroke-width="3"/>
<line x1="199.7" y1="172.5" x2="237.8" y2="164.4" opacity="1.0" stroke="rgb(0,0,0)"  stroke-width="3"/>
<line x1="237.8" y1="164.4" x2="258.8" y2="179.6" opacity="1.0" stroke="rgb(0,0,0)"  stroke-width="3"/>
<line x1="448.4" y1="272.1" x2="422.4" y2="243.1" opacity="1.0" stroke="rgb(0,0,0)"  stroke-width="3"/>
<line x1="422.4" y1="243.1" x2="384.3" y2="251.2" opacity="1.0" stroke="rgb(0,0,0)"  stroke-width="3"/>
<line x1="418.0" y1="251.4" x2="391.7" y2="257.0" opacity="1.0" stroke="rgb(0,0,0)"  stroke-width="3"/>
<line x1="384.3" y1="251.2" x2="372.3" y2="288.3" opacity="1.0" stroke="rgb(0,0,0)"  stroke-width="3"/>
<line x1="398.3" y1="317.2" x2="436.4" y2="309.1" opacity="1.0" stroke="rgb(0,0,0)"  stroke-width="3"/>
<line x1="436.4" y1="309.1" x2="448.4" y2="272.1" opacity="1.0" stroke="rgb(0,0,0)"  stroke-width="3"/>
<line x1="431.4" y1="301.2" x2="439.7" y2="275.5" opacity="1.0" stroke="rgb(0,0,0)"  stroke-width="3"/>
<line x1="384.3" y1="251.2" x2="348.2" y2="232.3" opacity="1.0" stroke="rgb(0,0,0)"  stroke-width="3"/>
<line x1="325.5" y1="232.7" x2="303.0" y2="245.7" opacity="1.0" stroke="rgb(0,0,0)"  stroke-width="3"/>
<line x1="303.0" y1="284.6" x2="325.5" y2="297.6" opacity="1.0" stroke="rgb(0,0,0)"  stroke-width="3"/>
<line x1="185.7" y1="106.5" x2="223.8" y2="98.4" opacity="1.0" stroke="rgb(0,0,0)"  stroke-width="3"/>
<line x1="193.0" y1="112.3" x2="219.4" y2="106.7" opacity="1.0" stroke="rgb(0,0,0)"  stroke-width="3"/>
<line x1="223.8" y1="98.4" x2="249.8" y2="127.4" opacity="1.0" stroke="rgb(0,0,0)"  stroke-width="3"/>
<line x1="249.8" y1="127.4" x2="237.8" y2="164.4" opacity="1.0" stroke="rgb(0,0,0)"  stroke-width="3"/>
<line x1="241.1" y1="130.9" x2="232.8" y2="156.5" opacity="1.0" stroke="rgb(0,0,0)"  stroke-width="3"/>
<line x1="199.7" y1="172.5" x2="173.6" y2="143.6" opacity="1.0" stroke="rgb(0,0,0)"  stroke-width="3"/>
<line x1="201.0" y1="163.2" x2="183.0" y2="143.2" opacity="1.0" stroke="rgb(0,0,0)"  stroke-width="3"/>
<line x1="173.6" y1="143.6" x2="185.7" y2="106.5" opacity="1.0" stroke="rgb(0,0,0)"  stroke-width="3"/>
<line x1="235.6" y1="284.6" x2="213.1" y2="297.6" opacity="1.0" stroke="rgb(0,0,0)"  stroke-width="3"/>
<line x1="166.3" y1="288.3" x2="154.2" y2="251.2" opacity="1.0" stroke="rgb(0,0,0)"  stroke-width="3"/>
<line x1="154.2" y1="251.2" x2="190.3" y2="232.3" opacity="1.0" stroke="rgb(0,0,0)"  stroke-width="3"/>
<line x1="300.8" y1="164.4" x2="279.8" y2="179.6" opacity="1.0" stroke="rgb(0,0,0)"  stroke-width="3"/>
<line x1="337.2" y1="213.2" x2="338.9" y2="172.5" opacity="1.0" stroke="rgb(0,0,0)"  stroke-width="3"/>
<line x1="338.9" y1="172.5" x2="300.8" y2="164.4" opacity="1.0" stroke="rgb(0,0,0)"  stroke-width="3"/>
<line x1="472.5" y1="198.0" x2="498.6" y2="226.9" opacity="1.0" stroke="rgb(0,0,0)"  stroke-width="3"/>
<line x1="498.6" y1="226.9" x2="486.5" y2="264.0" opacity="1.0" stroke="rgb(0,0,0)"  stroke-width="3"/>
<line x1="489.9" y1="230.4" x2="481.5" y2="256.0" opacity="1.0" stroke="rgb(0,0,0)"  stroke-width="3"/>
<line x1="486.5" y1="264.0" x2="448.4" y2="272.1" opacity="1.0" stroke="rgb(0,0,0)"  stroke-width="3"/>
<line x1="422.4" y1="243.1" x2="434.4" y2="206.1" opacity="1.0" stroke="rgb(0,0,0)"  stroke-width="3"/>
<line x1="434.4" y1="206.1" x2="472.5" y2="198.0" opacity="1.0" stroke="rgb(0,0,0)"  stroke-width="3"/>
<line x1="441.8" y1="211.9" x2="468.1" y2="206.3" opacity="1.0" stroke="rgb(0,0,0)"  stroke-width="3"/>
<line x1="140.2" y1="317.2" x2="102.1" y2="309.1" opacity="1.0" stroke="rgb(0,0,0)"  stroke-width="3"/>
<line x1="102.1" y1="309.1" x2="90.1" y2="272.1" opacity="1.0" stroke="rgb(0,0,0)"  stroke-width="3"/>
<line x1="107.1" y1="301.2" x2="98.8" y2="275.5" opacity="1.0" stroke="rgb(0,0,0)"  stroke-width="3"/>
<line x1="90.1" y1="272.1" x2="116.2" y2="243.1" opacity="1.0" stroke="rgb(0,0,0)"  stroke-width="3"/>
<line x1="116.2" y1="243.1" x2="154.2" y2="251.2" opacity="1.0" stroke="rgb(0,0,0)"  stroke-width="3"/>
<line x1="120.5" y1="251.4" x2="146.9" y2="257.0" opacity="1.0" stroke="rgb(0,0,0)"  stroke-width="3"/>
<line x1="40.0" y1="226.9" x2="66.1" y2="198.0" opacity="1.0" stroke="rgb(0,0,0)"  stroke-width="3"/>
<line x1="66.1" y1="198.0" x2="104.1" y2="206.1" opacity="1.0" stroke="rgb(0,0,0)"  stroke-width="3"/>
<line x1="70.4" y1="206.3" x2="96.8" y2="211.9" opacity="1.0" stroke="rgb(0,0,0)"  stroke-width="3"/>
<line x1="104.1" y1="206.1" x2="116.2" y2="243.1" opacity="1.0" stroke="rgb(0,0,0)"  stroke-width="3"/>
<line x1="90.1" y1="272.1" x2="52.0" y2="264.0" opacity="1.0" stroke="rgb(0,0,0)"  stroke-width="3"/>
<line x1="52.0" y1="264.0" x2="40.0" y2="226.9" opacity="1.0" stroke="rgb(0,0,0)"  stroke-width="3"/>
<line x1="57.0" y1="256.0" x2="48.7" y2="230.4" opacity="1.0" stroke="rgb(0,0,0)"  stroke-width="3"/>
<line x1="371.8" y1="418.0" x2="387.6" y2="453.5" opacity="1.0" stroke="rgb(0,0,0)"  stroke-width="3"/>
<line x1="387.6" y1="453.5" x2="426.4" y2="457.6" opacity="1.0" stroke="rgb(0,0,0)"  stroke-width="3"/>
<line x1="394.4" y1="447.0" x2="421.2" y2="449.8" opacity="1.0" stroke="rgb(0,0,0)"  stroke-width="3"/>
<line x1="426.4" y1="457.6" x2="449.3" y2="426.1" opacity="1.0" stroke="rgb(0,0,0)"  stroke-width="3"/>
<line x1="449.3" y1="426.1" x2="433.4" y2="390.5" opacity="1.0" stroke="rgb(0,0,0)"  stroke-width="3"/>
<line x1="440.2" y1="423.6" x2="429.3" y2="398.9" opacity="1.0" stroke="rgb(0,0,0)"  stroke-width="3"/>
<line x1="433.4" y1="390.5" x2="394.7" y2="386.5" opacity="1.0" stroke="rgb(0,0,0)"  stroke-width="3"/>
<line x1="394.7" y1="386.5" x2="371.8" y2="418.0" opacity="1.0" stroke="rgb(0,0,0)"  stroke-width="3"/>
<line x1="397.0" y1="395.6" x2="381.2" y2="417.3" opacity="1.0" stroke="rgb(0,0,0)"  stroke-width="3"/>
<line x1="105.1" y1="390.5" x2="89.3" y2="426.1" opacity="1.0" stroke="rgb(0,0,0)"  stroke-width="3"/>
<line x1="89.3" y1="426.1" x2="112.2" y2="457.6" opacity="1.0" stroke="rgb(0,0,0)"  stroke-width="3"/>
<line x1="98.7" y1="426.7" x2="114.5" y2="448.5" opacity="1.0" stroke="rgb(0,0,0)"  stroke-width="3"/>
<line x1="112.2" y1="457.6" x2="150.9" y2="453.5" opacity="1.0" stroke="rgb(0,0,0)"  stroke-width="3"/>
<line x1="150.9" y1="453.5" x2="166.7" y2="418.0" opacity="1.0" stroke="rgb(0,0,0)"  stroke-width="3"/>
<line x1="146.8" y1="445.1" x2="157.7" y2="420.5" opacity="1.0" stroke="rgb(0,0,0)"  stroke-width="3"/>
<line x1="166.7" y1="418.0" x2="143.9" y2="386.5" opacity="1.0" stroke="rgb(0,0,0)"  stroke-width="3"/>
<line x1="143.9" y1="386.5" x2="105.1" y2="390.5" opacity="1.0" stroke="rgb(0,0,0)"  stroke-width="3"/>
<line x1="138.6" y1="394.3" x2="111.9" y2="397.1" opacity="1.0" stroke="rgb(0,0,0)"  stroke-width="3"/>
<line x1="185.6" y1="423.8" x2="191.0" y2="462.4" opacity="1.0" stroke="rgb(0,0,0)"  stroke-width="3"/>
<line x1="191.0" y1="462.4" x2="227.1" y2="476.9" opacity="1.0" stroke="rgb(0,0,0)"  stroke-width="3"/>
<line x1="199.3" y1="457.9" x2="224.3" y2="468.0" opacity="1.0" stroke="rgb(0,0,0)"  stroke-width="3"/>
<line x1="227.1" y1="476.9" x2="257.8" y2="453.0" opacity="1.0" stroke="rgb(0,0,0)"  stroke-width="3"/>
<line x1="257.8" y1="453.0" x2="252.4" y2="414.4" opacity="1.0" stroke="rgb(0,0,0)"  stroke-width="3"/>
<line x1="249.9" y1="448.0" x2="246.1" y2="421.4" opacity="1.0" stroke="rgb(0,0,0)"  stroke-width="3"/>
<line x1="252.4" y1="414.4" x2="216.3" y2="399.8" opacity="1.0" stroke="rgb(0,0,0)"  stroke-width="3"/>
<line x1="216.3" y1="399.8" x2="185.6" y2="423.8" opacity="1.0" stroke="rgb(0,0,0)"  stroke-width="3"/>
<line x1="216.0" y1="409.2" x2="194.8" y2="425.8" opacity="1.0" stroke="rgb(0,0,0)"  stroke-width="3"/>
<line x1="286.2" y1="414.4" x2="280.7" y2="453.0" opacity="1.0" stroke="rgb(0,0,0)"  stroke-width="3"/>
<line x1="280.7" y1="453.0" x2="311.4" y2="476.9" opacity="1.0" stroke="rgb(0,0,0)"  stroke-width="3"/>
<line x1="289.9" y1="451.0" x2="311.1" y2="467.6" opacity="1.0" stroke="rgb(0,0,0)"  stroke-width="3"/>
<line x1="311.4" y1="476.9" x2="347.5" y2="462.4" opacity="1.0" stroke="rgb(0,0,0)"  stroke-width="3"/>
<line x1="347.5" y1="462.4" x2="352.9" y2="423.8" opacity="1.0" stroke="rgb(0,0,0)"  stroke-width="3"/>
<line x1="341.2" y1="455.4" x2="345.0" y2="428.7" opacity="1.0" stroke="rgb(0,0,0)"  stroke-width="3"/>
<line x1="352.9" y1="423.8" x2="322.3" y2="399.8" opacity="1.0" stroke="rgb(0,0,0)"  stroke-width="3"/>
<line x1="322.3" y1="399.8" x2="286.2" y2="414.4" opacity="1.0" stroke="rgb(0,0,0)"  stroke-width="3"/>
<line x1="319.4" y1="408.8" x2="294.4" y2="418.8" opacity="1.0" stroke="rgb(0,0,0)"  stroke-width="3"/>
<line x1="288.7" y1="127.4" x2="300.8" y2="164.4" opacity="1.0" stroke="rgb(0,0,0)"  stroke-width="3"/>
<line x1="297.4" y1="130.9" x2="305.8" y2="156.5" opacity="1.0" stroke="rgb(0,0,0)"  stroke-width="3"/>
<line x1="338.9" y1="172.5" x2="364.9" y2="143.6" opacity="1.0" stroke="rgb(0,0,0)"  stroke-width="3"/>
<line x1="337.5" y1="163.2" x2="355.5" y2="143.2" opacity="1.0" stroke="rgb(0,0,0)"  stroke-width="3"/>
<line x1="364.9" y1="143.6" x2="352.9" y2="106.5" opacity="1.0" stroke="rgb(0,0,0)"  stroke-width="3"/>
<line x1="352.9" y1="106.5" x2="314.8" y2="98.4" opacity="1.0" stroke="rgb(0,0,0)"  stroke-width="3"/>
<line x1="345.5" y1="112.3" x2="319.2" y2="106.7" opacity="1.0" stroke="rgb(0,0,0)"  stroke-width="3"/>
<line x1="314.8" y1="98.4" x2="288.7" y2="127.4" opacity="1.0" stroke="rgb(0,0,0)"  stroke-width="3"/>
<text x="195.844181" y="234.221607" fill="rgb(255,181,181)" stroke-width="0" font-weight="bold" font-size="25.92" >B</text>
<text x="330.711530" y="234.221607" fill="rgb(255,181,181)" stroke-width="0" font-weight="bold" font-size="25.92" >B</text>
<text x="330.711530" y="312.087332" fill="rgb(12,12,255)" stroke-width="0" font-weight="bold" font-size="25.92" >N</text>
<text x="195.844181" y="312.087332" fill="rgb(12,12,255)" stroke-width="0" font-weight="bold" font-size="25.92" >N</text>
<text x="263.277855" y="195.288673" fill="rgb(12,12,255)" stroke-width="0" font-weight="bold" font-size="25.92" >N</text>
</svg>
</g>
</svg>
