<?xml version="1.0"?>
<svg version="1.1" id="topsvg"
xmlns="http://www.w3.org/2000/svg" xmlns:xlink="http://www.w3.org/1999/xlink"
xmlns:cml="http://www.xml-cml.org/schema" x="0" y="0" width="200px" height="200px" viewBox="0 0 100 100">
<title>GD326.sdf - Open Babel Depiction</title>
<rect x="0" y="0" width="100" height="100" fill="white"/>
<g transform="translate(0,0)">
<svg width="100" height="100" x="0" y="0" viewBox="0 0 489.296 442.717"
font-family="sans-serif" stroke="rgb(0,0,0)" stroke-width="3"  stroke-linecap="round">
<line x1="312.9" y1="122.8" x2="328.4" y2="86.9" opacity="1.0" stroke="rgb(0,0,0)"  stroke-width="3"/>
<line x1="328.4" y1="86.9" x2="305.1" y2="55.4" opacity="1.0" stroke="rgb(0,0,0)"  stroke-width="3"/>
<line x1="328.4" y1="86.9" x2="367.4" y2="82.3" opacity="1.0" stroke="rgb(0,0,0)"  stroke-width="3"/>
<line x1="328.4" y1="86.9" x2="344.0" y2="50.9" opacity="1.0" stroke="rgb(0,0,0)"  stroke-width="3"/>
<line x1="383.0" y1="275.9" x2="420.4" y2="287.6" opacity="1.0" stroke="rgb(0,0,0)"  stroke-width="3"/>
<line x1="420.4" y1="287.6" x2="449.3" y2="261.1" opacity="1.0" stroke="rgb(0,0,0)"  stroke-width="3"/>
<line x1="420.4" y1="287.6" x2="429.0" y2="325.9" opacity="1.0" stroke="rgb(0,0,0)"  stroke-width="3"/>
<line x1="420.4" y1="287.6" x2="411.9" y2="249.4" opacity="1.0" stroke="rgb(0,0,0)"  stroke-width="3"/>
<line x1="101.7" y1="233.0" x2="126.5" y2="224.7" opacity="1.0" stroke="rgb(0,0,0)"  stroke-width="3"/>
<line x1="138.7" y1="207.5" x2="138.4" y2="181.3" opacity="1.0" stroke="rgb(0,0,0)"  stroke-width="3"/>
<line x1="138.4" y1="181.3" x2="101.0" y2="169.6" opacity="1.0" stroke="rgb(0,0,0)"  stroke-width="3"/>
<line x1="130.5" y1="186.4" x2="104.6" y2="178.3" opacity="1.0" stroke="rgb(0,0,0)"  stroke-width="3"/>
<line x1="101.0" y1="169.6" x2="85.8" y2="191.0" opacity="1.0" stroke="rgb(0,0,0)"  stroke-width="3"/>
<line x1="86.0" y1="212.0" x2="101.7" y2="233.0" opacity="1.0" stroke="rgb(0,0,0)"  stroke-width="3"/>
<line x1="93.0" y1="209.3" x2="103.9" y2="223.9" opacity="1.0" stroke="rgb(0,0,0)"  stroke-width="3"/>
<line x1="337.1" y1="225.9" x2="320.7" y2="190.3" opacity="1.0" stroke="rgb(0,0,0)"  stroke-width="3"/>
<line x1="320.7" y1="190.3" x2="281.8" y2="194.8" opacity="1.0" stroke="rgb(0,0,0)"  stroke-width="3"/>
<line x1="315.6" y1="198.1" x2="288.6" y2="201.3" opacity="1.0" stroke="rgb(0,0,0)"  stroke-width="3"/>
<line x1="281.8" y1="194.8" x2="276.6" y2="220.5" opacity="1.0" stroke="rgb(0,0,0)"  stroke-width="3"/>
<line x1="285.4" y1="239.6" x2="308.2" y2="252.5" opacity="1.0" stroke="rgb(0,0,0)"  stroke-width="3"/>
<line x1="308.2" y1="252.5" x2="337.1" y2="225.9" opacity="1.0" stroke="rgb(0,0,0)"  stroke-width="3"/>
<line x1="307.7" y1="243.1" x2="327.8" y2="224.7" opacity="1.0" stroke="rgb(0,0,0)"  stroke-width="3"/>
<line x1="92.4" y1="131.4" x2="101.0" y2="169.6" opacity="1.0" stroke="rgb(0,0,0)"  stroke-width="3"/>
<line x1="138.4" y1="181.3" x2="167.3" y2="154.8" opacity="1.0" stroke="rgb(0,0,0)"  stroke-width="3"/>
<line x1="167.3" y1="154.8" x2="158.7" y2="116.5" opacity="1.0" stroke="rgb(0,0,0)"  stroke-width="3"/>
<line x1="158.9" y1="150.5" x2="153.0" y2="123.9" opacity="1.0" stroke="rgb(0,0,0)"  stroke-width="3"/>
<line x1="158.7" y1="116.5" x2="121.3" y2="104.8" opacity="1.0" stroke="rgb(0,0,0)"  stroke-width="3"/>
<line x1="121.3" y1="104.8" x2="92.4" y2="131.4" opacity="1.0" stroke="rgb(0,0,0)"  stroke-width="3"/>
<line x1="121.7" y1="114.2" x2="101.7" y2="132.6" opacity="1.0" stroke="rgb(0,0,0)"  stroke-width="3"/>
<line x1="234.7" y1="288.6" x2="238.4" y2="249.6" opacity="1.0" stroke="rgb(0,0,0)"  stroke-width="3"/>
<line x1="238.4" y1="249.6" x2="206.4" y2="226.9" opacity="1.0" stroke="rgb(0,0,0)"  stroke-width="3"/>
<line x1="229.3" y1="252.0" x2="207.2" y2="236.2" opacity="1.0" stroke="rgb(0,0,0)"  stroke-width="3"/>
<line x1="206.4" y1="226.9" x2="170.8" y2="243.2" opacity="1.0" stroke="rgb(0,0,0)"  stroke-width="3"/>
<line x1="170.8" y1="243.2" x2="167.1" y2="282.3" opacity="1.0" stroke="rgb(0,0,0)"  stroke-width="3"/>
<line x1="177.4" y1="249.9" x2="174.9" y2="277.0" opacity="1.0" stroke="rgb(0,0,0)"  stroke-width="3"/>
<line x1="167.1" y1="282.3" x2="199.1" y2="305.0" opacity="1.0" stroke="rgb(0,0,0)"  stroke-width="3"/>
<line x1="199.1" y1="305.0" x2="234.7" y2="288.6" opacity="1.0" stroke="rgb(0,0,0)"  stroke-width="3"/>
<line x1="201.5" y1="295.9" x2="226.3" y2="284.6" opacity="1.0" stroke="rgb(0,0,0)"  stroke-width="3"/>
<line x1="206.4" y1="226.9" x2="208.9" y2="200.8" opacity="1.0" stroke="rgb(0,0,0)"  stroke-width="3"/>
<line x1="199.8" y1="179.9" x2="167.3" y2="154.8" opacity="1.0" stroke="rgb(0,0,0)"  stroke-width="3"/>
<line x1="149.4" y1="228.0" x2="170.8" y2="243.2" opacity="1.0" stroke="rgb(0,0,0)"  stroke-width="3"/>
<line x1="187.5" y1="90.0" x2="158.7" y2="116.5" opacity="1.0" stroke="rgb(0,0,0)"  stroke-width="3"/>
<line x1="121.3" y1="104.8" x2="112.7" y2="66.5" opacity="1.0" stroke="rgb(0,0,0)"  stroke-width="3"/>
<line x1="112.7" y1="66.5" x2="141.6" y2="40.0" opacity="1.0" stroke="rgb(0,0,0)"  stroke-width="3"/>
<line x1="122.0" y1="67.8" x2="142.0" y2="49.4" opacity="1.0" stroke="rgb(0,0,0)"  stroke-width="3"/>
<line x1="141.6" y1="40.0" x2="179.0" y2="51.7" opacity="1.0" stroke="rgb(0,0,0)"  stroke-width="3"/>
<line x1="179.0" y1="51.7" x2="187.5" y2="90.0" opacity="1.0" stroke="rgb(0,0,0)"  stroke-width="3"/>
<line x1="173.3" y1="59.1" x2="179.2" y2="85.7" opacity="1.0" stroke="rgb(0,0,0)"  stroke-width="3"/>
<line x1="116.5" y1="299.3" x2="167.1" y2="282.3" opacity="1.0" stroke="rgb(0,0,0)"  stroke-width="3"/>
<line x1="101.7" y1="233.0" x2="90.0" y2="270.5" opacity="1.0" stroke="rgb(0,0,0)"  stroke-width="3"/>
<line x1="90.0" y1="270.5" x2="116.5" y2="299.3" opacity="1.0" stroke="rgb(0,0,0)"  stroke-width="3"/>
<line x1="281.8" y1="194.8" x2="258.4" y2="163.4" opacity="1.0" stroke="rgb(0,0,0)"  stroke-width="3"/>
<line x1="258.4" y1="163.4" x2="221.7" y2="182.0" opacity="1.0" stroke="rgb(0,0,0)"  stroke-width="3"/>
<line x1="238.4" y1="249.6" x2="262.2" y2="238.7" opacity="1.0" stroke="rgb(0,0,0)"  stroke-width="3"/>
<line x1="383.0" y1="275.9" x2="374.5" y2="237.7" opacity="1.0" stroke="rgb(0,0,0)"  stroke-width="3"/>
<line x1="374.7" y1="271.6" x2="368.8" y2="245.1" opacity="1.0" stroke="rgb(0,0,0)"  stroke-width="3"/>
<line x1="374.5" y1="237.7" x2="337.1" y2="225.9" opacity="1.0" stroke="rgb(0,0,0)"  stroke-width="3"/>
<line x1="308.2" y1="252.5" x2="316.8" y2="290.7" opacity="1.0" stroke="rgb(0,0,0)"  stroke-width="3"/>
<line x1="316.8" y1="290.7" x2="354.2" y2="302.5" opacity="1.0" stroke="rgb(0,0,0)"  stroke-width="3"/>
<line x1="324.6" y1="285.7" x2="350.6" y2="293.8" opacity="1.0" stroke="rgb(0,0,0)"  stroke-width="3"/>
<line x1="354.2" y1="302.5" x2="383.0" y2="275.9" opacity="1.0" stroke="rgb(0,0,0)"  stroke-width="3"/>
<line x1="51.7" y1="279.0" x2="40.0" y2="316.4" opacity="1.0" stroke="rgb(0,0,0)"  stroke-width="3"/>
<line x1="40.0" y1="316.4" x2="66.5" y2="345.3" opacity="1.0" stroke="rgb(0,0,0)"  stroke-width="3"/>
<line x1="49.4" y1="316.0" x2="67.8" y2="336.0" opacity="1.0" stroke="rgb(0,0,0)"  stroke-width="3"/>
<line x1="66.5" y1="345.3" x2="104.8" y2="336.7" opacity="1.0" stroke="rgb(0,0,0)"  stroke-width="3"/>
<line x1="104.8" y1="336.7" x2="116.5" y2="299.3" opacity="1.0" stroke="rgb(0,0,0)"  stroke-width="3"/>
<line x1="99.7" y1="328.8" x2="107.9" y2="302.9" opacity="1.0" stroke="rgb(0,0,0)"  stroke-width="3"/>
<line x1="90.0" y1="270.5" x2="51.7" y2="279.0" opacity="1.0" stroke="rgb(0,0,0)"  stroke-width="3"/>
<line x1="85.7" y1="278.8" x2="59.1" y2="284.7" opacity="1.0" stroke="rgb(0,0,0)"  stroke-width="3"/>
<line x1="312.9" y1="122.8" x2="273.9" y2="127.4" opacity="1.0" stroke="rgb(0,0,0)"  stroke-width="3"/>
<line x1="273.9" y1="127.4" x2="258.4" y2="163.4" opacity="1.0" stroke="rgb(0,0,0)"  stroke-width="3"/>
<line x1="278.2" y1="135.7" x2="267.4" y2="160.7" opacity="1.0" stroke="rgb(0,0,0)"  stroke-width="3"/>
<line x1="320.7" y1="190.3" x2="336.3" y2="154.3" opacity="1.0" stroke="rgb(0,0,0)"  stroke-width="3"/>
<line x1="336.3" y1="154.3" x2="312.9" y2="122.8" opacity="1.0" stroke="rgb(0,0,0)"  stroke-width="3"/>
<line x1="326.9" y1="153.8" x2="310.7" y2="132.0" opacity="1.0" stroke="rgb(0,0,0)"  stroke-width="3"/>
<line x1="360.9" y1="359.7" x2="336.1" y2="329.4" opacity="1.0" stroke="rgb(0,0,0)"  stroke-width="3"/>
<line x1="351.5" y1="359.6" x2="334.3" y2="338.6" opacity="1.0" stroke="rgb(0,0,0)"  stroke-width="3"/>
<line x1="336.1" y1="329.4" x2="297.4" y2="335.7" opacity="1.0" stroke="rgb(0,0,0)"  stroke-width="3"/>
<line x1="297.4" y1="335.7" x2="283.5" y2="372.4" opacity="1.0" stroke="rgb(0,0,0)"  stroke-width="3"/>
<line x1="302.0" y1="343.9" x2="292.4" y2="369.3" opacity="1.0" stroke="rgb(0,0,0)"  stroke-width="3"/>
<line x1="283.5" y1="372.4" x2="308.3" y2="402.7" opacity="1.0" stroke="rgb(0,0,0)"  stroke-width="3"/>
<line x1="308.3" y1="402.7" x2="347.0" y2="396.4" opacity="1.0" stroke="rgb(0,0,0)"  stroke-width="3"/>
<line x1="313.1" y1="394.6" x2="339.9" y2="390.3" opacity="1.0" stroke="rgb(0,0,0)"  stroke-width="3"/>
<line x1="347.0" y1="396.4" x2="360.9" y2="359.7" opacity="1.0" stroke="rgb(0,0,0)"  stroke-width="3"/>
<line x1="178.8" y1="388.4" x2="216.8" y2="398.4" opacity="1.0" stroke="rgb(0,0,0)"  stroke-width="3"/>
<line x1="186.5" y1="383.0" x2="212.8" y2="389.9" opacity="1.0" stroke="rgb(0,0,0)"  stroke-width="3"/>
<line x1="216.8" y1="398.4" x2="244.3" y2="370.5" opacity="1.0" stroke="rgb(0,0,0)"  stroke-width="3"/>
<line x1="244.3" y1="370.5" x2="234.0" y2="332.7" opacity="1.0" stroke="rgb(0,0,0)"  stroke-width="3"/>
<line x1="235.8" y1="366.6" x2="228.6" y2="340.4" opacity="1.0" stroke="rgb(0,0,0)"  stroke-width="3"/>
<line x1="234.0" y1="332.7" x2="196.1" y2="322.7" opacity="1.0" stroke="rgb(0,0,0)"  stroke-width="3"/>
<line x1="196.1" y1="322.7" x2="168.5" y2="350.6" opacity="1.0" stroke="rgb(0,0,0)"  stroke-width="3"/>
<line x1="197.0" y1="332.1" x2="177.8" y2="351.4" opacity="1.0" stroke="rgb(0,0,0)"  stroke-width="3"/>
<line x1="168.5" y1="350.6" x2="178.8" y2="388.4" opacity="1.0" stroke="rgb(0,0,0)"  stroke-width="3"/>
<line x1="244.3" y1="370.5" x2="283.5" y2="372.4" opacity="1.0" stroke="rgb(0,0,0)"  stroke-width="3"/>
<line x1="297.4" y1="335.7" x2="266.8" y2="311.2" opacity="1.0" stroke="rgb(0,0,0)"  stroke-width="3"/>
<line x1="266.8" y1="311.2" x2="234.0" y2="332.7" opacity="1.0" stroke="rgb(0,0,0)"  stroke-width="3"/>
<line x1="234.7" y1="288.6" x2="266.8" y2="311.2" opacity="1.0" stroke="rgb(0,0,0)"  stroke-width="3"/>
<line x1="266.8" y1="311.2" x2="316.8" y2="290.7" opacity="1.0" stroke="rgb(0,0,0)"  stroke-width="3"/>
<text x="204.111634" y="195.855681" fill="rgb(255,181,181)" stroke-width="0" font-weight="bold" font-size="25.92" >B</text>
<text x="72.292645" y="209.572890" fill="rgb(12,12,255)" stroke-width="0" font-weight="bold" font-size="25.92" >N</text>
<text x="132.830835" y="228.520980" fill="rgb(12,12,255)" stroke-width="0" font-weight="bold" font-size="25.92" >N</text>
<text x="268.041040" y="241.254038" fill="rgb(12,12,255)" stroke-width="0" font-weight="bold" font-size="25.92" >N</text>
</svg>
</g>
</svg>
