<?xml version="1.0"?>
<svg version="1.1" id="topsvg"
xmlns="http://www.w3.org/2000/svg" xmlns:xlink="http://www.w3.org/1999/xlink"
xmlns:cml="http://www.xml-cml.org/schema" x="0" y="0" width="200px" height="200px" viewBox="0 0 100 100">
<title>GD323.sdf - Open Babel Depiction</title>
<rect x="0" y="0" width="100" height="100" fill="white"/>
<g transform="translate(0,0)">
<svg width="100" height="100" x="0" y="0" viewBox="0 0 679.678 604.687"
font-family="sans-serif" stroke="rgb(0,0,0)" stroke-width="3"  stroke-linecap="round">
<line x1="559.9" y1="283.0" x2="599.8" y2="292.8" opacity="1.0" stroke="rgb(0,0,0)"  stroke-width="3"/>
<line x1="599.8" y1="292.8" x2="628.2" y2="263.2" opacity="1.0" stroke="rgb(0,0,0)"  stroke-width="3"/>
<line x1="599.8" y1="292.8" x2="611.2" y2="332.2" opacity="1.0" stroke="rgb(0,0,0)"  stroke-width="3"/>
<line x1="599.8" y1="292.8" x2="639.7" y2="302.6" opacity="1.0" stroke="rgb(0,0,0)"  stroke-width="3"/>
<line x1="200.0" y1="241.8" x2="188.6" y2="202.4" opacity="1.0" stroke="rgb(0,0,0)"  stroke-width="3"/>
<line x1="188.6" y1="202.4" x2="217.0" y2="172.7" opacity="1.0" stroke="rgb(0,0,0)"  stroke-width="3"/>
<line x1="188.6" y1="202.4" x2="148.7" y2="192.6" opacity="1.0" stroke="rgb(0,0,0)"  stroke-width="3"/>
<line x1="188.6" y1="202.4" x2="228.5" y2="212.2" opacity="1.0" stroke="rgb(0,0,0)"  stroke-width="3"/>
<line x1="106.9" y1="391.7" x2="66.5" y2="399.0" opacity="1.0" stroke="rgb(0,0,0)"  stroke-width="3"/>
<line x1="66.5" y1="399.0" x2="52.6" y2="437.6" opacity="1.0" stroke="rgb(0,0,0)"  stroke-width="3"/>
<line x1="66.5" y1="399.0" x2="40.0" y2="367.6" opacity="1.0" stroke="rgb(0,0,0)"  stroke-width="3"/>
<line x1="66.5" y1="399.0" x2="93.0" y2="430.3" opacity="1.0" stroke="rgb(0,0,0)"  stroke-width="3"/>
<line x1="472.8" y1="431.3" x2="507.7" y2="453.0" opacity="1.0" stroke="rgb(0,0,0)"  stroke-width="3"/>
<line x1="507.7" y1="453.0" x2="506.4" y2="494.0" opacity="1.0" stroke="rgb(0,0,0)"  stroke-width="3"/>
<line x1="507.7" y1="453.0" x2="543.9" y2="433.6" opacity="1.0" stroke="rgb(0,0,0)"  stroke-width="3"/>
<line x1="507.7" y1="453.0" x2="542.6" y2="474.7" opacity="1.0" stroke="rgb(0,0,0)"  stroke-width="3"/>
<line x1="443.2" y1="232.4" x2="443.2" y2="204.3" opacity="1.0" stroke="rgb(0,0,0)"  stroke-width="3"/>
<line x1="443.2" y1="122.2" x2="443.2" y2="81.1" opacity="1.0" stroke="rgb(0,0,0)"  stroke-width="3"/>
<line x1="443.2" y1="81.1" x2="478.7" y2="60.5" opacity="1.0" stroke="rgb(0,0,0)"  stroke-width="3"/>
<line x1="443.2" y1="81.1" x2="407.6" y2="60.5" opacity="1.0" stroke="rgb(0,0,0)"  stroke-width="3"/>
<line x1="443.2" y1="81.1" x2="443.2" y2="40.0" opacity="1.0" stroke="rgb(0,0,0)"  stroke-width="3"/>
<line x1="161.3" y1="345.8" x2="183.0" y2="310.9" opacity="1.0" stroke="rgb(0,0,0)"  stroke-width="3"/>
<line x1="183.0" y1="310.9" x2="222.9" y2="320.7" opacity="1.0" stroke="rgb(0,0,0)"  stroke-width="3"/>
<line x1="187.1" y1="319.3" x2="215.3" y2="326.3" opacity="1.0" stroke="rgb(0,0,0)"  stroke-width="3"/>
<line x1="222.9" y1="320.7" x2="224.9" y2="348.8" opacity="1.0" stroke="rgb(0,0,0)"  stroke-width="3"/>
<line x1="213.8" y1="366.6" x2="187.8" y2="377.2" opacity="1.0" stroke="rgb(0,0,0)"  stroke-width="3"/>
<line x1="187.8" y1="377.2" x2="161.3" y2="345.8" opacity="1.0" stroke="rgb(0,0,0)"  stroke-width="3"/>
<line x1="189.4" y1="368.0" x2="170.7" y2="345.8" opacity="1.0" stroke="rgb(0,0,0)"  stroke-width="3"/>
<line x1="372.0" y1="243.1" x2="335.8" y2="262.5" opacity="1.0" stroke="rgb(0,0,0)"  stroke-width="3"/>
<line x1="335.8" y1="262.5" x2="334.5" y2="303.6" opacity="1.0" stroke="rgb(0,0,0)"  stroke-width="3"/>
<line x1="342.8" y1="268.7" x2="341.9" y2="297.8" opacity="1.0" stroke="rgb(0,0,0)"  stroke-width="3"/>
<line x1="334.5" y1="303.6" x2="369.4" y2="325.2" opacity="1.0" stroke="rgb(0,0,0)"  stroke-width="3"/>
<line x1="369.4" y1="325.2" x2="405.6" y2="305.8" opacity="1.0" stroke="rgb(0,0,0)"  stroke-width="3"/>
<line x1="371.3" y1="316.1" x2="396.9" y2="302.3" opacity="1.0" stroke="rgb(0,0,0)"  stroke-width="3"/>
<line x1="405.6" y1="305.8" x2="406.9" y2="264.8" opacity="1.0" stroke="rgb(0,0,0)"  stroke-width="3"/>
<line x1="406.9" y1="264.8" x2="372.0" y2="243.1" opacity="1.0" stroke="rgb(0,0,0)"  stroke-width="3"/>
<line x1="398.0" y1="267.7" x2="373.3" y2="252.4" opacity="1.0" stroke="rgb(0,0,0)"  stroke-width="3"/>
<line x1="454.9" y1="251.1" x2="480.1" y2="263.3" opacity="1.0" stroke="rgb(0,0,0)"  stroke-width="3"/>
<line x1="480.1" y1="263.3" x2="491.6" y2="302.8" opacity="1.0" stroke="rgb(0,0,0)"  stroke-width="3"/>
<line x1="491.6" y1="302.8" x2="452.2" y2="321.8" opacity="1.0" stroke="rgb(0,0,0)"  stroke-width="3"/>
<line x1="429.5" y1="320.7" x2="405.6" y2="305.8" opacity="1.0" stroke="rgb(0,0,0)"  stroke-width="3"/>
<line x1="406.9" y1="264.8" x2="431.7" y2="251.5" opacity="1.0" stroke="rgb(0,0,0)"  stroke-width="3"/>
<line x1="297.0" y1="364.0" x2="331.9" y2="385.7" opacity="1.0" stroke="rgb(0,0,0)"  stroke-width="3"/>
<line x1="305.9" y1="361.1" x2="330.6" y2="376.4" opacity="1.0" stroke="rgb(0,0,0)"  stroke-width="3"/>
<line x1="331.9" y1="385.7" x2="356.6" y2="372.4" opacity="1.0" stroke="rgb(0,0,0)"  stroke-width="3"/>
<line x1="368.5" y1="353.3" x2="369.4" y2="325.2" opacity="1.0" stroke="rgb(0,0,0)"  stroke-width="3"/>
<line x1="334.5" y1="303.6" x2="309.7" y2="316.8" opacity="1.0" stroke="rgb(0,0,0)"  stroke-width="3"/>
<line x1="297.9" y1="335.9" x2="297.0" y2="364.0" opacity="1.0" stroke="rgb(0,0,0)"  stroke-width="3"/>
<line x1="294.3" y1="446.1" x2="330.5" y2="426.7" opacity="1.0" stroke="rgb(0,0,0)"  stroke-width="3"/>
<line x1="296.2" y1="436.9" x2="321.9" y2="423.2" opacity="1.0" stroke="rgb(0,0,0)"  stroke-width="3"/>
<line x1="330.5" y1="426.7" x2="331.9" y2="385.7" opacity="1.0" stroke="rgb(0,0,0)"  stroke-width="3"/>
<line x1="297.0" y1="364.0" x2="260.7" y2="383.4" opacity="1.0" stroke="rgb(0,0,0)"  stroke-width="3"/>
<line x1="260.7" y1="383.4" x2="259.4" y2="424.5" opacity="1.0" stroke="rgb(0,0,0)"  stroke-width="3"/>
<line x1="267.7" y1="389.6" x2="266.8" y2="418.7" opacity="1.0" stroke="rgb(0,0,0)"  stroke-width="3"/>
<line x1="259.4" y1="424.5" x2="294.3" y2="446.1" opacity="1.0" stroke="rgb(0,0,0)"  stroke-width="3"/>
<line x1="403.0" y1="388.0" x2="379.1" y2="373.2" opacity="1.0" stroke="rgb(0,0,0)"  stroke-width="3"/>
<line x1="440.1" y1="340.5" x2="439.2" y2="368.6" opacity="1.0" stroke="rgb(0,0,0)"  stroke-width="3"/>
<line x1="439.2" y1="368.6" x2="403.0" y2="388.0" opacity="1.0" stroke="rgb(0,0,0)"  stroke-width="3"/>
<line x1="491.6" y1="302.8" x2="531.4" y2="312.6" opacity="1.0" stroke="rgb(0,0,0)"  stroke-width="3"/>
<line x1="499.1" y1="297.2" x2="527.3" y2="304.2" opacity="1.0" stroke="rgb(0,0,0)"  stroke-width="3"/>
<line x1="531.4" y1="312.6" x2="559.9" y2="283.0" opacity="1.0" stroke="rgb(0,0,0)"  stroke-width="3"/>
<line x1="559.9" y1="283.0" x2="548.5" y2="243.5" opacity="1.0" stroke="rgb(0,0,0)"  stroke-width="3"/>
<line x1="551.3" y1="279.2" x2="543.2" y2="251.3" opacity="1.0" stroke="rgb(0,0,0)"  stroke-width="3"/>
<line x1="548.5" y1="243.5" x2="508.6" y2="233.7" opacity="1.0" stroke="rgb(0,0,0)"  stroke-width="3"/>
<line x1="508.6" y1="233.7" x2="480.1" y2="263.3" opacity="1.0" stroke="rgb(0,0,0)"  stroke-width="3"/>
<line x1="509.6" y1="243.0" x2="489.5" y2="264.0" opacity="1.0" stroke="rgb(0,0,0)"  stroke-width="3"/>
<line x1="472.8" y1="431.3" x2="474.1" y2="390.3" opacity="1.0" stroke="rgb(0,0,0)"  stroke-width="3"/>
<line x1="474.1" y1="390.3" x2="439.2" y2="368.6" opacity="1.0" stroke="rgb(0,0,0)"  stroke-width="3"/>
<line x1="465.2" y1="393.2" x2="440.5" y2="377.9" opacity="1.0" stroke="rgb(0,0,0)"  stroke-width="3"/>
<line x1="403.0" y1="388.0" x2="401.7" y2="429.0" opacity="1.0" stroke="rgb(0,0,0)"  stroke-width="3"/>
<line x1="410.0" y1="394.2" x2="409.0" y2="423.3" opacity="1.0" stroke="rgb(0,0,0)"  stroke-width="3"/>
<line x1="401.7" y1="429.0" x2="436.6" y2="450.7" opacity="1.0" stroke="rgb(0,0,0)"  stroke-width="3"/>
<line x1="436.6" y1="450.7" x2="472.8" y2="431.3" opacity="1.0" stroke="rgb(0,0,0)"  stroke-width="3"/>
<line x1="438.4" y1="441.5" x2="464.1" y2="427.8" opacity="1.0" stroke="rgb(0,0,0)"  stroke-width="3"/>
<line x1="222.9" y1="320.7" x2="251.3" y2="291.1" opacity="1.0" stroke="rgb(0,0,0)"  stroke-width="3"/>
<line x1="251.3" y1="291.1" x2="287.5" y2="315.7" opacity="1.0" stroke="rgb(0,0,0)"  stroke-width="3"/>
<line x1="260.7" y1="383.4" x2="236.9" y2="368.6" opacity="1.0" stroke="rgb(0,0,0)"  stroke-width="3"/>
<line x1="106.9" y1="391.7" x2="133.4" y2="423.1" opacity="1.0" stroke="rgb(0,0,0)"  stroke-width="3"/>
<line x1="133.4" y1="423.1" x2="173.9" y2="415.9" opacity="1.0" stroke="rgb(0,0,0)"  stroke-width="3"/>
<line x1="138.1" y1="415.0" x2="166.7" y2="409.8" opacity="1.0" stroke="rgb(0,0,0)"  stroke-width="3"/>
<line x1="173.9" y1="415.9" x2="187.8" y2="377.2" opacity="1.0" stroke="rgb(0,0,0)"  stroke-width="3"/>
<line x1="161.3" y1="345.8" x2="120.9" y2="353.1" opacity="1.0" stroke="rgb(0,0,0)"  stroke-width="3"/>
<line x1="120.9" y1="353.1" x2="106.9" y2="391.7" opacity="1.0" stroke="rgb(0,0,0)"  stroke-width="3"/>
<line x1="125.6" y1="361.2" x2="115.7" y2="388.5" opacity="1.0" stroke="rgb(0,0,0)"  stroke-width="3"/>
<line x1="200.0" y1="241.8" x2="171.5" y2="271.5" opacity="1.0" stroke="rgb(0,0,0)"  stroke-width="3"/>
<line x1="201.0" y1="251.1" x2="180.9" y2="272.1" opacity="1.0" stroke="rgb(0,0,0)"  stroke-width="3"/>
<line x1="171.5" y1="271.5" x2="183.0" y2="310.9" opacity="1.0" stroke="rgb(0,0,0)"  stroke-width="3"/>
<line x1="251.3" y1="291.1" x2="239.9" y2="251.7" opacity="1.0" stroke="rgb(0,0,0)"  stroke-width="3"/>
<line x1="242.7" y1="287.4" x2="234.6" y2="259.4" opacity="1.0" stroke="rgb(0,0,0)"  stroke-width="3"/>
<line x1="239.9" y1="251.7" x2="200.0" y2="241.8" opacity="1.0" stroke="rgb(0,0,0)"  stroke-width="3"/>
<line x1="266.8" y1="508.4" x2="250.1" y2="479.6" opacity="1.0" stroke="rgb(0,0,0)"  stroke-width="3"/>
<line x1="257.6" y1="506.8" x2="246.9" y2="488.4" opacity="1.0" stroke="rgb(0,0,0)"  stroke-width="3"/>
<line x1="250.1" y1="479.6" x2="225.6" y2="490.5" opacity="1.0" stroke="rgb(0,0,0)"  stroke-width="3"/>
<line x1="225.6" y1="490.5" x2="217.7" y2="530.2" opacity="1.0" stroke="rgb(0,0,0)"  stroke-width="3"/>
<line x1="231.5" y1="497.8" x2="225.9" y2="525.7" opacity="1.0" stroke="rgb(0,0,0)"  stroke-width="3"/>
<line x1="217.7" y1="530.2" x2="234.4" y2="559.0" opacity="1.0" stroke="rgb(0,0,0)"  stroke-width="3"/>
<line x1="234.4" y1="559.0" x2="258.9" y2="548.1" opacity="1.0" stroke="rgb(0,0,0)"  stroke-width="3"/>
<line x1="237.0" y1="550.0" x2="250.5" y2="544.0" opacity="1.0" stroke="rgb(0,0,0)"  stroke-width="3"/>
<line x1="258.9" y1="548.1" x2="266.8" y2="508.4" opacity="1.0" stroke="rgb(0,0,0)"  stroke-width="3"/>
<line x1="151.3" y1="558.5" x2="175.8" y2="564.7" opacity="1.0" stroke="rgb(0,0,0)"  stroke-width="3"/>
<line x1="158.9" y1="553.0" x2="171.7" y2="556.2" opacity="1.0" stroke="rgb(0,0,0)"  stroke-width="3"/>
<line x1="175.8" y1="564.7" x2="192.6" y2="532.6" opacity="1.0" stroke="rgb(0,0,0)"  stroke-width="3"/>
<line x1="192.6" y1="532.6" x2="185.0" y2="494.4" opacity="1.0" stroke="rgb(0,0,0)"  stroke-width="3"/>
<line x1="184.4" y1="528.2" x2="179.1" y2="501.7" opacity="1.0" stroke="rgb(0,0,0)"  stroke-width="3"/>
<line x1="185.0" y1="494.4" x2="160.5" y2="488.3" opacity="1.0" stroke="rgb(0,0,0)"  stroke-width="3"/>
<line x1="160.5" y1="488.3" x2="143.6" y2="520.3" opacity="1.0" stroke="rgb(0,0,0)"  stroke-width="3"/>
<line x1="164.1" y1="496.9" x2="152.8" y2="518.4" opacity="1.0" stroke="rgb(0,0,0)"  stroke-width="3"/>
<line x1="143.6" y1="520.3" x2="151.3" y2="558.5" opacity="1.0" stroke="rgb(0,0,0)"  stroke-width="3"/>
<line x1="440.0" y1="490.9" x2="418.1" y2="464.3" opacity="1.0" stroke="rgb(0,0,0)"  stroke-width="3"/>
<line x1="430.7" y1="490.8" x2="416.3" y2="473.5" opacity="1.0" stroke="rgb(0,0,0)"  stroke-width="3"/>
<line x1="418.1" y1="464.3" x2="390.0" y2="479.1" opacity="1.0" stroke="rgb(0,0,0)"  stroke-width="3"/>
<line x1="390.0" y1="479.1" x2="384.0" y2="520.5" opacity="1.0" stroke="rgb(0,0,0)"  stroke-width="3"/>
<line x1="396.3" y1="486.1" x2="391.9" y2="515.6" opacity="1.0" stroke="rgb(0,0,0)"  stroke-width="3"/>
<line x1="384.0" y1="520.5" x2="405.9" y2="547.1" opacity="1.0" stroke="rgb(0,0,0)"  stroke-width="3"/>
<line x1="405.9" y1="547.1" x2="434.0" y2="532.3" opacity="1.0" stroke="rgb(0,0,0)"  stroke-width="3"/>
<line x1="407.9" y1="537.9" x2="425.3" y2="528.7" opacity="1.0" stroke="rgb(0,0,0)"  stroke-width="3"/>
<line x1="434.0" y1="532.3" x2="440.0" y2="490.9" opacity="1.0" stroke="rgb(0,0,0)"  stroke-width="3"/>
<line x1="310.6" y1="561.2" x2="339.4" y2="563.0" opacity="1.0" stroke="rgb(0,0,0)"  stroke-width="3"/>
<line x1="317.1" y1="554.4" x2="333.8" y2="555.5" opacity="1.0" stroke="rgb(0,0,0)"  stroke-width="3"/>
<line x1="339.4" y1="563.0" x2="355.4" y2="527.9" opacity="1.0" stroke="rgb(0,0,0)"  stroke-width="3"/>
<line x1="355.4" y1="527.9" x2="343.8" y2="491.1" opacity="1.0" stroke="rgb(0,0,0)"  stroke-width="3"/>
<line x1="346.7" y1="524.3" x2="338.7" y2="499.0" opacity="1.0" stroke="rgb(0,0,0)"  stroke-width="3"/>
<line x1="343.8" y1="491.1" x2="315.1" y2="489.3" opacity="1.0" stroke="rgb(0,0,0)"  stroke-width="3"/>
<line x1="315.1" y1="489.3" x2="297.9" y2="524.4" opacity="1.0" stroke="rgb(0,0,0)"  stroke-width="3"/>
<line x1="318.9" y1="497.9" x2="307.0" y2="522.1" opacity="1.0" stroke="rgb(0,0,0)"  stroke-width="3"/>
<line x1="297.9" y1="524.4" x2="310.6" y2="561.2" opacity="1.0" stroke="rgb(0,0,0)"  stroke-width="3"/>
<line x1="478.7" y1="183.8" x2="478.7" y2="142.7" opacity="1.0" stroke="rgb(0,0,0)"  stroke-width="3"/>
<line x1="478.7" y1="142.7" x2="443.2" y2="122.2" opacity="1.0" stroke="rgb(0,0,0)"  stroke-width="3"/>
<line x1="469.9" y1="145.9" x2="444.8" y2="131.4" opacity="1.0" stroke="rgb(0,0,0)"  stroke-width="3"/>
<line x1="443.2" y1="122.2" x2="407.6" y2="142.7" opacity="1.0" stroke="rgb(0,0,0)"  stroke-width="3"/>
<line x1="407.6" y1="142.7" x2="407.6" y2="183.8" opacity="1.0" stroke="rgb(0,0,0)"  stroke-width="3"/>
<line x1="414.8" y1="148.7" x2="414.8" y2="177.8" opacity="1.0" stroke="rgb(0,0,0)"  stroke-width="3"/>
<line x1="407.6" y1="183.8" x2="443.2" y2="204.3" opacity="1.0" stroke="rgb(0,0,0)"  stroke-width="3"/>
<line x1="443.2" y1="204.3" x2="478.7" y2="183.8" opacity="1.0" stroke="rgb(0,0,0)"  stroke-width="3"/>
<line x1="444.8" y1="195.1" x2="469.9" y2="180.5" opacity="1.0" stroke="rgb(0,0,0)"  stroke-width="3"/>
<line x1="192.6" y1="532.6" x2="217.7" y2="530.2" opacity="1.0" stroke="rgb(0,0,0)"  stroke-width="3"/>
<line x1="225.6" y1="490.5" x2="205.3" y2="468.4" opacity="1.0" stroke="rgb(0,0,0)"  stroke-width="3"/>
<line x1="205.3" y1="468.4" x2="185.0" y2="494.4" opacity="1.0" stroke="rgb(0,0,0)"  stroke-width="3"/>
<line x1="355.4" y1="527.9" x2="384.0" y2="520.5" opacity="1.0" stroke="rgb(0,0,0)"  stroke-width="3"/>
<line x1="390.0" y1="479.1" x2="365.4" y2="462.5" opacity="1.0" stroke="rgb(0,0,0)"  stroke-width="3"/>
<line x1="365.4" y1="462.5" x2="343.8" y2="491.1" opacity="1.0" stroke="rgb(0,0,0)"  stroke-width="3"/>
<line x1="401.7" y1="429.0" x2="365.4" y2="462.5" opacity="1.0" stroke="rgb(0,0,0)"  stroke-width="3"/>
<line x1="365.4" y1="462.5" x2="330.5" y2="426.7" opacity="1.0" stroke="rgb(0,0,0)"  stroke-width="3"/>
<line x1="173.9" y1="415.9" x2="205.3" y2="468.4" opacity="1.0" stroke="rgb(0,0,0)"  stroke-width="3"/>
<line x1="205.3" y1="468.4" x2="259.4" y2="424.5" opacity="1.0" stroke="rgb(0,0,0)"  stroke-width="3"/>
<text x="292.283529" y="330.947997" fill="rgb(255,181,181)" stroke-width="0" font-weight="bold" font-size="25.92" >B</text>
<text x="434.516217" y="335.519155" fill="rgb(255,181,181)" stroke-width="0" font-weight="bold" font-size="25.92" >B</text>
<text x="362.080277" y="374.292614" fill="rgb(12,12,255)" stroke-width="0" font-weight="bold" font-size="25.92" >N</text>
<text x="437.155310" y="253.401129" fill="rgb(12,12,255)" stroke-width="0" font-weight="bold" font-size="25.92" >N</text>
<text x="219.847638" y="369.721506" fill="rgb(12,12,255)" stroke-width="0" font-weight="bold" font-size="25.92" >N</text>
</svg>
</g>
</svg>
