<?xml version="1.0"?>
<svg version="1.1" id="topsvg"
xmlns="http://www.w3.org/2000/svg" xmlns:xlink="http://www.w3.org/1999/xlink"
xmlns:cml="http://www.xml-cml.org/schema" x="0" y="0" width="200px" height="200px" viewBox="0 0 100 100">
<title>GD327.sdf - Open Babel Depiction</title>
<rect x="0" y="0" width="100" height="100" fill="white"/>
<g transform="translate(0,0)">
<svg width="100" height="100" x="0" y="0" viewBox="0 0 614.14 543.978"
font-family="sans-serif" stroke="rgb(0,0,0)" stroke-width="3"  stroke-linecap="round">
<line x1="190.0" y1="121.8" x2="177.8" y2="84.2" opacity="1.0" stroke="rgb(0,0,0)"  stroke-width="3"/>
<line x1="177.8" y1="84.2" x2="139.1" y2="76.0" opacity="1.0" stroke="rgb(0,0,0)"  stroke-width="3"/>
<line x1="177.8" y1="84.2" x2="204.2" y2="54.9" opacity="1.0" stroke="rgb(0,0,0)"  stroke-width="3"/>
<line x1="177.8" y1="84.2" x2="165.6" y2="46.6" opacity="1.0" stroke="rgb(0,0,0)"  stroke-width="3"/>
<line x1="105.1" y1="268.9" x2="66.5" y2="277.1" opacity="1.0" stroke="rgb(0,0,0)"  stroke-width="3"/>
<line x1="66.5" y1="277.1" x2="54.3" y2="314.8" opacity="1.0" stroke="rgb(0,0,0)"  stroke-width="3"/>
<line x1="66.5" y1="277.1" x2="40.0" y2="247.8" opacity="1.0" stroke="rgb(0,0,0)"  stroke-width="3"/>
<line x1="66.5" y1="277.1" x2="78.7" y2="239.5" opacity="1.0" stroke="rgb(0,0,0)"  stroke-width="3"/>
<line x1="339.2" y1="437.0" x2="312.7" y2="466.4" opacity="1.0" stroke="rgb(0,0,0)"  stroke-width="3"/>
<line x1="312.7" y1="466.4" x2="274.1" y2="458.2" opacity="1.0" stroke="rgb(0,0,0)"  stroke-width="3"/>
<line x1="312.7" y1="466.4" x2="325.0" y2="504.0" opacity="1.0" stroke="rgb(0,0,0)"  stroke-width="3"/>
<line x1="312.7" y1="466.4" x2="300.5" y2="428.8" opacity="1.0" stroke="rgb(0,0,0)"  stroke-width="3"/>
<line x1="509.0" y1="437.0" x2="535.5" y2="466.3" opacity="1.0" stroke="rgb(0,0,0)"  stroke-width="3"/>
<line x1="535.5" y1="466.3" x2="574.1" y2="458.1" opacity="1.0" stroke="rgb(0,0,0)"  stroke-width="3"/>
<line x1="535.5" y1="466.3" x2="523.3" y2="503.9" opacity="1.0" stroke="rgb(0,0,0)"  stroke-width="3"/>
<line x1="535.5" y1="466.3" x2="547.7" y2="428.7" opacity="1.0" stroke="rgb(0,0,0)"  stroke-width="3"/>
<line x1="355.6" y1="78.2" x2="316.0" y2="78.2" opacity="1.0" stroke="rgb(0,0,0)"  stroke-width="3"/>
<line x1="355.6" y1="78.2" x2="345.3" y2="40.0" opacity="1.0" stroke="rgb(0,0,0)"  stroke-width="3"/>
<line x1="424.0" y1="117.7" x2="443.8" y2="152.0" opacity="1.0" stroke="rgb(0,0,0)"  stroke-width="3"/>
<line x1="424.0" y1="117.7" x2="463.6" y2="117.7" opacity="1.0" stroke="rgb(0,0,0)"  stroke-width="3"/>
<line x1="156.0" y1="223.1" x2="175.8" y2="188.8" opacity="1.0" stroke="rgb(0,0,0)"  stroke-width="3"/>
<line x1="175.8" y1="188.8" x2="214.5" y2="197.1" opacity="1.0" stroke="rgb(0,0,0)"  stroke-width="3"/>
<line x1="180.2" y1="197.1" x2="207.1" y2="202.8" opacity="1.0" stroke="rgb(0,0,0)"  stroke-width="3"/>
<line x1="214.5" y1="197.1" x2="217.2" y2="223.4" opacity="1.0" stroke="rgb(0,0,0)"  stroke-width="3"/>
<line x1="206.7" y1="241.7" x2="182.5" y2="252.5" opacity="1.0" stroke="rgb(0,0,0)"  stroke-width="3"/>
<line x1="182.5" y1="252.5" x2="156.0" y2="223.1" opacity="1.0" stroke="rgb(0,0,0)"  stroke-width="3"/>
<line x1="183.8" y1="243.2" x2="165.4" y2="222.7" opacity="1.0" stroke="rgb(0,0,0)"  stroke-width="3"/>
<line x1="443.9" y1="415.8" x2="404.3" y2="415.8" opacity="1.0" stroke="rgb(0,0,0)"  stroke-width="3"/>
<line x1="404.3" y1="415.8" x2="392.1" y2="378.2" opacity="1.0" stroke="rgb(0,0,0)"  stroke-width="3"/>
<line x1="409.3" y1="407.9" x2="400.8" y2="381.7" opacity="1.0" stroke="rgb(0,0,0)"  stroke-width="3"/>
<line x1="392.1" y1="378.2" x2="413.6" y2="362.6" opacity="1.0" stroke="rgb(0,0,0)"  stroke-width="3"/>
<line x1="434.6" y1="362.6" x2="456.1" y2="378.2" opacity="1.0" stroke="rgb(0,0,0)"  stroke-width="3"/>
<line x1="456.1" y1="378.2" x2="443.9" y2="415.8" opacity="1.0" stroke="rgb(0,0,0)"  stroke-width="3"/>
<line x1="447.4" y1="381.7" x2="438.9" y2="407.9" opacity="1.0" stroke="rgb(0,0,0)"  stroke-width="3"/>
<line x1="252.9" y1="295.7" x2="287.1" y2="315.4" opacity="1.0" stroke="rgb(0,0,0)"  stroke-width="3"/>
<line x1="287.1" y1="315.4" x2="321.3" y2="295.7" opacity="1.0" stroke="rgb(0,0,0)"  stroke-width="3"/>
<line x1="288.7" y1="306.2" x2="312.5" y2="292.4" opacity="1.0" stroke="rgb(0,0,0)"  stroke-width="3"/>
<line x1="321.3" y1="295.7" x2="321.3" y2="256.1" opacity="1.0" stroke="rgb(0,0,0)"  stroke-width="3"/>
<line x1="321.3" y1="256.1" x2="287.1" y2="236.4" opacity="1.0" stroke="rgb(0,0,0)"  stroke-width="3"/>
<line x1="312.5" y1="259.4" x2="288.7" y2="245.6" opacity="1.0" stroke="rgb(0,0,0)"  stroke-width="3"/>
<line x1="287.1" y1="236.4" x2="252.9" y2="256.1" opacity="1.0" stroke="rgb(0,0,0)"  stroke-width="3"/>
<line x1="252.9" y1="256.1" x2="252.9" y2="295.7" opacity="1.0" stroke="rgb(0,0,0)"  stroke-width="3"/>
<line x1="260.1" y1="262.1" x2="260.1" y2="289.7" opacity="1.0" stroke="rgb(0,0,0)"  stroke-width="3"/>
<line x1="214.5" y1="197.1" x2="240.9" y2="167.7" opacity="1.0" stroke="rgb(0,0,0)"  stroke-width="3"/>
<line x1="240.9" y1="167.7" x2="276.1" y2="189.9" opacity="1.0" stroke="rgb(0,0,0)"  stroke-width="3"/>
<line x1="287.1" y1="209.8" x2="287.1" y2="236.4" opacity="1.0" stroke="rgb(0,0,0)"  stroke-width="3"/>
<line x1="252.9" y1="256.1" x2="229.9" y2="242.9" opacity="1.0" stroke="rgb(0,0,0)"  stroke-width="3"/>
<line x1="389.8" y1="295.7" x2="389.8" y2="256.1" opacity="1.0" stroke="rgb(0,0,0)"  stroke-width="3"/>
<line x1="382.6" y1="289.7" x2="382.6" y2="262.1" opacity="1.0" stroke="rgb(0,0,0)"  stroke-width="3"/>
<line x1="389.8" y1="256.1" x2="366.8" y2="242.9" opacity="1.0" stroke="rgb(0,0,0)"  stroke-width="3"/>
<line x1="344.3" y1="242.9" x2="321.3" y2="256.1" opacity="1.0" stroke="rgb(0,0,0)"  stroke-width="3"/>
<line x1="321.3" y1="295.7" x2="344.3" y2="308.9" opacity="1.0" stroke="rgb(0,0,0)"  stroke-width="3"/>
<line x1="366.8" y1="308.9" x2="389.8" y2="295.7" opacity="1.0" stroke="rgb(0,0,0)"  stroke-width="3"/>
<line x1="458.3" y1="256.1" x2="424.1" y2="236.3" opacity="1.0" stroke="rgb(0,0,0)"  stroke-width="3"/>
<line x1="449.5" y1="259.3" x2="425.7" y2="245.6" opacity="1.0" stroke="rgb(0,0,0)"  stroke-width="3"/>
<line x1="424.1" y1="236.3" x2="389.8" y2="256.1" opacity="1.0" stroke="rgb(0,0,0)"  stroke-width="3"/>
<line x1="389.8" y1="295.7" x2="424.1" y2="315.4" opacity="1.0" stroke="rgb(0,0,0)"  stroke-width="3"/>
<line x1="424.1" y1="315.4" x2="458.3" y2="295.6" opacity="1.0" stroke="rgb(0,0,0)"  stroke-width="3"/>
<line x1="425.7" y1="306.2" x2="449.5" y2="292.4" opacity="1.0" stroke="rgb(0,0,0)"  stroke-width="3"/>
<line x1="458.3" y1="295.6" x2="458.3" y2="256.1" opacity="1.0" stroke="rgb(0,0,0)"  stroke-width="3"/>
<line x1="105.1" y1="268.9" x2="131.6" y2="298.3" opacity="1.0" stroke="rgb(0,0,0)"  stroke-width="3"/>
<line x1="131.6" y1="298.3" x2="170.3" y2="290.1" opacity="1.0" stroke="rgb(0,0,0)"  stroke-width="3"/>
<line x1="136.0" y1="290.0" x2="162.9" y2="284.3" opacity="1.0" stroke="rgb(0,0,0)"  stroke-width="3"/>
<line x1="170.3" y1="290.1" x2="182.5" y2="252.5" opacity="1.0" stroke="rgb(0,0,0)"  stroke-width="3"/>
<line x1="156.0" y1="223.1" x2="117.3" y2="231.3" opacity="1.0" stroke="rgb(0,0,0)"  stroke-width="3"/>
<line x1="117.3" y1="231.3" x2="105.1" y2="268.9" opacity="1.0" stroke="rgb(0,0,0)"  stroke-width="3"/>
<line x1="122.3" y1="239.2" x2="113.8" y2="265.4" opacity="1.0" stroke="rgb(0,0,0)"  stroke-width="3"/>
<line x1="355.6" y1="196.8" x2="355.6" y2="223.4" opacity="1.0" stroke="rgb(0,0,0)"  stroke-width="3"/>
<line x1="298.3" y1="190.3" x2="321.3" y2="177.0" opacity="1.0" stroke="rgb(0,0,0)"  stroke-width="3"/>
<line x1="321.3" y1="177.0" x2="355.6" y2="196.8" opacity="1.0" stroke="rgb(0,0,0)"  stroke-width="3"/>
<line x1="175.8" y1="188.8" x2="163.6" y2="151.2" opacity="1.0" stroke="rgb(0,0,0)"  stroke-width="3"/>
<line x1="163.6" y1="151.2" x2="190.0" y2="121.8" opacity="1.0" stroke="rgb(0,0,0)"  stroke-width="3"/>
<line x1="172.9" y1="151.6" x2="191.4" y2="131.1" opacity="1.0" stroke="rgb(0,0,0)"  stroke-width="3"/>
<line x1="190.0" y1="121.8" x2="228.7" y2="130.1" opacity="1.0" stroke="rgb(0,0,0)"  stroke-width="3"/>
<line x1="228.7" y1="130.1" x2="240.9" y2="167.7" opacity="1.0" stroke="rgb(0,0,0)"  stroke-width="3"/>
<line x1="223.7" y1="138.0" x2="232.2" y2="164.2" opacity="1.0" stroke="rgb(0,0,0)"  stroke-width="3"/>
<line x1="355.6" y1="117.7" x2="321.3" y2="137.5" opacity="1.0" stroke="rgb(0,0,0)"  stroke-width="3"/>
<line x1="321.3" y1="137.5" x2="321.3" y2="177.0" opacity="1.0" stroke="rgb(0,0,0)"  stroke-width="3"/>
<line x1="328.5" y1="143.5" x2="328.5" y2="171.0" opacity="1.0" stroke="rgb(0,0,0)"  stroke-width="3"/>
<line x1="355.6" y1="196.8" x2="389.8" y2="177.0" opacity="1.0" stroke="rgb(0,0,0)"  stroke-width="3"/>
<line x1="357.2" y1="187.6" x2="381.0" y2="173.8" opacity="1.0" stroke="rgb(0,0,0)"  stroke-width="3"/>
<line x1="389.8" y1="177.0" x2="389.8" y2="137.5" opacity="1.0" stroke="rgb(0,0,0)"  stroke-width="3"/>
<line x1="389.8" y1="137.5" x2="355.6" y2="117.7" opacity="1.0" stroke="rgb(0,0,0)"  stroke-width="3"/>
<line x1="381.0" y1="140.7" x2="357.2" y2="127.0" opacity="1.0" stroke="rgb(0,0,0)"  stroke-width="3"/>
<line x1="392.1" y1="378.2" x2="353.4" y2="370.0" opacity="1.0" stroke="rgb(0,0,0)"  stroke-width="3"/>
<line x1="353.4" y1="370.0" x2="355.1" y2="328.4" opacity="1.0" stroke="rgb(0,0,0)"  stroke-width="3"/>
<line x1="424.1" y1="315.4" x2="424.1" y2="342.0" opacity="1.0" stroke="rgb(0,0,0)"  stroke-width="3"/>
<line x1="521.2" y1="399.4" x2="494.8" y2="370.0" opacity="1.0" stroke="rgb(0,0,0)"  stroke-width="3"/>
<line x1="511.8" y1="399.7" x2="493.4" y2="379.2" opacity="1.0" stroke="rgb(0,0,0)"  stroke-width="3"/>
<line x1="494.8" y1="370.0" x2="456.1" y2="378.2" opacity="1.0" stroke="rgb(0,0,0)"  stroke-width="3"/>
<line x1="443.9" y1="415.8" x2="470.3" y2="445.2" opacity="1.0" stroke="rgb(0,0,0)"  stroke-width="3"/>
<line x1="470.3" y1="445.2" x2="509.0" y2="437.0" opacity="1.0" stroke="rgb(0,0,0)"  stroke-width="3"/>
<line x1="474.7" y1="436.9" x2="501.6" y2="431.2" opacity="1.0" stroke="rgb(0,0,0)"  stroke-width="3"/>
<line x1="509.0" y1="437.0" x2="521.2" y2="399.4" opacity="1.0" stroke="rgb(0,0,0)"  stroke-width="3"/>
<line x1="339.2" y1="437.0" x2="377.9" y2="445.2" opacity="1.0" stroke="rgb(0,0,0)"  stroke-width="3"/>
<line x1="346.6" y1="431.2" x2="373.5" y2="436.9" opacity="1.0" stroke="rgb(0,0,0)"  stroke-width="3"/>
<line x1="377.9" y1="445.2" x2="404.3" y2="415.8" opacity="1.0" stroke="rgb(0,0,0)"  stroke-width="3"/>
<line x1="353.4" y1="370.0" x2="327.0" y2="399.4" opacity="1.0" stroke="rgb(0,0,0)"  stroke-width="3"/>
<line x1="354.8" y1="379.3" x2="336.3" y2="399.7" opacity="1.0" stroke="rgb(0,0,0)"  stroke-width="3"/>
<line x1="327.0" y1="399.4" x2="339.2" y2="437.0" opacity="1.0" stroke="rgb(0,0,0)"  stroke-width="3"/>
<line x1="288.8" y1="375.1" x2="267.7" y2="341.6" opacity="1.0" stroke="rgb(0,0,0)"  stroke-width="3"/>
<line x1="279.5" y1="373.8" x2="264.9" y2="350.5" opacity="1.0" stroke="rgb(0,0,0)"  stroke-width="3"/>
<line x1="267.7" y1="341.6" x2="228.3" y2="343.8" opacity="1.0" stroke="rgb(0,0,0)"  stroke-width="3"/>
<line x1="228.3" y1="343.8" x2="211.0" y2="379.4" opacity="1.0" stroke="rgb(0,0,0)"  stroke-width="3"/>
<line x1="232.1" y1="352.3" x2="220.1" y2="377.1" opacity="1.0" stroke="rgb(0,0,0)"  stroke-width="3"/>
<line x1="211.0" y1="379.4" x2="232.1" y2="412.2" opacity="1.0" stroke="rgb(0,0,0)"  stroke-width="3"/>
<line x1="232.1" y1="412.2" x2="271.6" y2="410.0" opacity="1.0" stroke="rgb(0,0,0)"  stroke-width="3"/>
<line x1="237.7" y1="404.7" x2="265.2" y2="403.1" opacity="1.0" stroke="rgb(0,0,0)"  stroke-width="3"/>
<line x1="271.6" y1="410.0" x2="288.8" y2="375.1" opacity="1.0" stroke="rgb(0,0,0)"  stroke-width="3"/>
<line x1="104.5" y1="386.1" x2="141.7" y2="399.5" opacity="1.0" stroke="rgb(0,0,0)"  stroke-width="3"/>
<line x1="112.5" y1="381.4" x2="138.5" y2="390.7" opacity="1.0" stroke="rgb(0,0,0)"  stroke-width="3"/>
<line x1="141.7" y1="399.5" x2="171.9" y2="374.0" opacity="1.0" stroke="rgb(0,0,0)"  stroke-width="3"/>
<line x1="171.9" y1="374.0" x2="164.9" y2="335.1" opacity="1.0" stroke="rgb(0,0,0)"  stroke-width="3"/>
<line x1="163.7" y1="369.4" x2="158.9" y2="342.3" opacity="1.0" stroke="rgb(0,0,0)"  stroke-width="3"/>
<line x1="164.9" y1="335.1" x2="127.7" y2="321.7" opacity="1.0" stroke="rgb(0,0,0)"  stroke-width="3"/>
<line x1="127.7" y1="321.7" x2="97.5" y2="347.2" opacity="1.0" stroke="rgb(0,0,0)"  stroke-width="3"/>
<line x1="127.8" y1="331.1" x2="106.7" y2="348.8" opacity="1.0" stroke="rgb(0,0,0)"  stroke-width="3"/>
<line x1="97.5" y1="347.2" x2="104.5" y2="386.1" opacity="1.0" stroke="rgb(0,0,0)"  stroke-width="3"/>
<line x1="171.9" y1="374.0" x2="211.0" y2="379.4" opacity="1.0" stroke="rgb(0,0,0)"  stroke-width="3"/>
<line x1="228.3" y1="343.8" x2="199.7" y2="316.4" opacity="1.0" stroke="rgb(0,0,0)"  stroke-width="3"/>
<line x1="199.7" y1="316.4" x2="164.9" y2="335.1" opacity="1.0" stroke="rgb(0,0,0)"  stroke-width="3"/>
<line x1="170.3" y1="290.1" x2="199.7" y2="316.4" opacity="1.0" stroke="rgb(0,0,0)"  stroke-width="3"/>
<line x1="199.7" y1="316.4" x2="252.9" y2="295.7" opacity="1.0" stroke="rgb(0,0,0)"  stroke-width="3"/>
<line x1="389.8" y1="58.4" x2="355.6" y2="78.2" opacity="1.0" stroke="rgb(0,0,0)"  stroke-width="3"/>
<line x1="355.6" y1="78.2" x2="355.6" y2="117.7" opacity="1.0" stroke="rgb(0,0,0)"  stroke-width="3"/>
<line x1="389.8" y1="137.5" x2="424.0" y2="117.7" opacity="1.0" stroke="rgb(0,0,0)"  stroke-width="3"/>
<line x1="424.0" y1="117.7" x2="424.0" y2="78.2" opacity="1.0" stroke="rgb(0,0,0)"  stroke-width="3"/>
<line x1="424.0" y1="78.2" x2="389.8" y2="58.4" opacity="1.0" stroke="rgb(0,0,0)"  stroke-width="3"/>
<text x="418.084250" y="362.962289" fill="rgb(12,12,255)" stroke-width="0" font-weight="bold" font-size="25.92" >N</text>
<text x="212.606623" y="244.375772" fill="rgb(12,12,255)" stroke-width="0" font-weight="bold" font-size="25.92" >N</text>
<text x="349.591724" y="323.433482" fill="rgb(255,181,181)" stroke-width="0" font-weight="bold" font-size="25.92" >B</text>
<text x="349.578400" y="244.352767" fill="rgb(12,12,255)" stroke-width="0" font-weight="bold" font-size="25.92" >N</text>
<text x="281.085873" y="204.823912" fill="rgb(255,181,181)" stroke-width="0" font-weight="bold" font-size="25.92" >B</text>
</svg>
</g>
</svg>
