<?xml version="1.0"?>
<svg version="1.1" id="topsvg"
xmlns="http://www.w3.org/2000/svg" xmlns:xlink="http://www.w3.org/1999/xlink"
xmlns:cml="http://www.xml-cml.org/schema" x="0" y="0" width="200px" height="200px" viewBox="0 0 100 100">
<title>GD324.sdf - Open Babel Depiction</title>
<rect x="0" y="0" width="100" height="100" fill="white"/>
<g transform="translate(0,0)">
<svg width="100" height="100" x="0" y="0" viewBox="0 0 705.901 510.581"
font-family="sans-serif" stroke="rgb(0,0,0)" stroke-width="3"  stroke-linecap="round">
<line x1="355.4" y1="107.1" x2="381.4" y2="77.4" opacity="1.0" stroke="rgb(0,0,0)"  stroke-width="3"/>
<line x1="381.4" y1="77.4" x2="420.2" y2="85.0" opacity="1.0" stroke="rgb(0,0,0)"  stroke-width="3"/>
<line x1="381.4" y1="77.4" x2="368.7" y2="40.0" opacity="1.0" stroke="rgb(0,0,0)"  stroke-width="3"/>
<line x1="381.4" y1="77.4" x2="407.4" y2="47.7" opacity="1.0" stroke="rgb(0,0,0)"  stroke-width="3"/>
<line x1="501.8" y1="263.3" x2="524.9" y2="276.2" opacity="1.0" stroke="rgb(0,0,0)"  stroke-width="3"/>
<line x1="163.1" y1="357.5" x2="151.4" y2="395.2" opacity="1.0" stroke="rgb(0,0,0)"  stroke-width="3"/>
<line x1="228.4" y1="377.7" x2="201.6" y2="348.7" opacity="1.0" stroke="rgb(0,0,0)"  stroke-width="3"/>
<line x1="186.0" y1="109.4" x2="159.2" y2="80.5" opacity="1.0" stroke="rgb(0,0,0)"  stroke-width="3"/>
<line x1="159.2" y1="80.5" x2="170.8" y2="42.8" opacity="1.0" stroke="rgb(0,0,0)"  stroke-width="3"/>
<line x1="159.2" y1="80.5" x2="120.7" y2="89.2" opacity="1.0" stroke="rgb(0,0,0)"  stroke-width="3"/>
<line x1="159.2" y1="80.5" x2="197.6" y2="71.7" opacity="1.0" stroke="rgb(0,0,0)"  stroke-width="3"/>
<line x1="558.8" y1="256.0" x2="560.1" y2="216.5" opacity="1.0" stroke="rgb(0,0,0)"  stroke-width="3"/>
<line x1="527.9" y1="156.2" x2="508.2" y2="122.1" opacity="1.0" stroke="rgb(0,0,0)"  stroke-width="3"/>
<line x1="508.2" y1="122.1" x2="527.9" y2="87.9" opacity="1.0" stroke="rgb(0,0,0)"  stroke-width="3"/>
<line x1="508.2" y1="122.1" x2="468.7" y2="122.1" opacity="1.0" stroke="rgb(0,0,0)"  stroke-width="3"/>
<line x1="508.2" y1="122.1" x2="547.7" y2="122.1" opacity="1.0" stroke="rgb(0,0,0)"  stroke-width="3"/>
<line x1="596.3" y1="158.5" x2="631.1" y2="139.9" opacity="1.0" stroke="rgb(0,0,0)"  stroke-width="3"/>
<line x1="631.1" y1="139.9" x2="664.6" y2="160.8" opacity="1.0" stroke="rgb(0,0,0)"  stroke-width="3"/>
<line x1="631.1" y1="139.9" x2="632.4" y2="100.5" opacity="1.0" stroke="rgb(0,0,0)"  stroke-width="3"/>
<line x1="631.1" y1="139.9" x2="665.9" y2="121.3" opacity="1.0" stroke="rgb(0,0,0)"  stroke-width="3"/>
<line x1="290.7" y1="129.1" x2="303.5" y2="166.4" opacity="1.0" stroke="rgb(0,0,0)"  stroke-width="3"/>
<line x1="285.9" y1="137.1" x2="294.7" y2="163.1" opacity="1.0" stroke="rgb(0,0,0)"  stroke-width="3"/>
<line x1="303.5" y1="166.4" x2="282.3" y2="182.3" opacity="1.0" stroke="rgb(0,0,0)"  stroke-width="3"/>
<line x1="261.2" y1="182.6" x2="239.6" y2="167.3" opacity="1.0" stroke="rgb(0,0,0)"  stroke-width="3"/>
<line x1="239.6" y1="167.3" x2="251.3" y2="129.6" opacity="1.0" stroke="rgb(0,0,0)"  stroke-width="3"/>
<line x1="248.2" y1="163.7" x2="256.4" y2="137.5" opacity="1.0" stroke="rgb(0,0,0)"  stroke-width="3"/>
<line x1="251.3" y1="129.6" x2="290.7" y2="129.1" opacity="1.0" stroke="rgb(0,0,0)"  stroke-width="3"/>
<line x1="163.1" y1="357.5" x2="201.6" y2="348.7" opacity="1.0" stroke="rgb(0,0,0)"  stroke-width="3"/>
<line x1="167.3" y1="349.1" x2="194.1" y2="343.0" opacity="1.0" stroke="rgb(0,0,0)"  stroke-width="3"/>
<line x1="201.6" y1="348.7" x2="204.0" y2="322.4" opacity="1.0" stroke="rgb(0,0,0)"  stroke-width="3"/>
<line x1="193.2" y1="304.3" x2="168.9" y2="293.9" opacity="1.0" stroke="rgb(0,0,0)"  stroke-width="3"/>
<line x1="168.9" y1="293.9" x2="142.9" y2="323.6" opacity="1.0" stroke="rgb(0,0,0)"  stroke-width="3"/>
<line x1="170.3" y1="303.1" x2="152.2" y2="323.8" opacity="1.0" stroke="rgb(0,0,0)"  stroke-width="3"/>
<line x1="142.9" y1="323.6" x2="163.1" y2="357.5" opacity="1.0" stroke="rgb(0,0,0)"  stroke-width="3"/>
<line x1="385.2" y1="354.4" x2="346.5" y2="346.7" opacity="1.0" stroke="rgb(0,0,0)"  stroke-width="3"/>
<line x1="380.7" y1="346.2" x2="353.8" y2="340.8" opacity="1.0" stroke="rgb(0,0,0)"  stroke-width="3"/>
<line x1="346.5" y1="346.7" x2="343.4" y2="320.4" opacity="1.0" stroke="rgb(0,0,0)"  stroke-width="3"/>
<line x1="353.6" y1="302.1" x2="377.7" y2="291.0" opacity="1.0" stroke="rgb(0,0,0)"  stroke-width="3"/>
<line x1="377.7" y1="291.0" x2="404.5" y2="319.9" opacity="1.0" stroke="rgb(0,0,0)"  stroke-width="3"/>
<line x1="376.5" y1="300.3" x2="395.1" y2="320.4" opacity="1.0" stroke="rgb(0,0,0)"  stroke-width="3"/>
<line x1="404.5" y1="319.9" x2="385.2" y2="354.4" opacity="1.0" stroke="rgb(0,0,0)"  stroke-width="3"/>
<line x1="485.8" y1="217.7" x2="488.9" y2="244.0" opacity="1.0" stroke="rgb(0,0,0)"  stroke-width="3"/>
<line x1="478.7" y1="262.4" x2="454.6" y2="273.5" opacity="1.0" stroke="rgb(0,0,0)"  stroke-width="3"/>
<line x1="454.6" y1="273.5" x2="427.8" y2="244.5" opacity="1.0" stroke="rgb(0,0,0)"  stroke-width="3"/>
<line x1="427.8" y1="244.5" x2="447.1" y2="210.1" opacity="1.0" stroke="rgb(0,0,0)"  stroke-width="3"/>
<line x1="447.1" y1="210.1" x2="485.8" y2="217.7" opacity="1.0" stroke="rgb(0,0,0)"  stroke-width="3"/>
<line x1="451.6" y1="218.3" x2="478.5" y2="223.6" opacity="1.0" stroke="rgb(0,0,0)"  stroke-width="3"/>
<line x1="239.0" y1="289.2" x2="273.5" y2="308.5" opacity="1.0" stroke="rgb(0,0,0)"  stroke-width="3"/>
<line x1="273.5" y1="308.5" x2="307.4" y2="288.3" opacity="1.0" stroke="rgb(0,0,0)"  stroke-width="3"/>
<line x1="275.0" y1="299.2" x2="298.6" y2="285.2" opacity="1.0" stroke="rgb(0,0,0)"  stroke-width="3"/>
<line x1="307.4" y1="288.3" x2="306.8" y2="248.8" opacity="1.0" stroke="rgb(0,0,0)"  stroke-width="3"/>
<line x1="306.8" y1="248.8" x2="272.4" y2="229.6" opacity="1.0" stroke="rgb(0,0,0)"  stroke-width="3"/>
<line x1="298.1" y1="252.2" x2="274.1" y2="238.8" opacity="1.0" stroke="rgb(0,0,0)"  stroke-width="3"/>
<line x1="272.4" y1="229.6" x2="238.5" y2="249.8" opacity="1.0" stroke="rgb(0,0,0)"  stroke-width="3"/>
<line x1="238.5" y1="249.8" x2="239.0" y2="289.2" opacity="1.0" stroke="rgb(0,0,0)"  stroke-width="3"/>
<line x1="245.8" y1="255.7" x2="246.2" y2="283.1" opacity="1.0" stroke="rgb(0,0,0)"  stroke-width="3"/>
<line x1="272.0" y1="203.1" x2="272.4" y2="229.6" opacity="1.0" stroke="rgb(0,0,0)"  stroke-width="3"/>
<line x1="238.5" y1="249.8" x2="215.4" y2="236.8" opacity="1.0" stroke="rgb(0,0,0)"  stroke-width="3"/>
<line x1="203.3" y1="217.5" x2="201.1" y2="176.1" opacity="1.0" stroke="rgb(0,0,0)"  stroke-width="3"/>
<line x1="201.1" y1="176.1" x2="239.6" y2="167.3" opacity="1.0" stroke="rgb(0,0,0)"  stroke-width="3"/>
<line x1="427.8" y1="244.5" x2="389.3" y2="253.3" opacity="1.0" stroke="rgb(0,0,0)"  stroke-width="3"/>
<line x1="423.6" y1="252.9" x2="396.8" y2="259.0" opacity="1.0" stroke="rgb(0,0,0)"  stroke-width="3"/>
<line x1="389.3" y1="253.3" x2="377.7" y2="291.0" opacity="1.0" stroke="rgb(0,0,0)"  stroke-width="3"/>
<line x1="404.5" y1="319.9" x2="443.0" y2="311.2" opacity="1.0" stroke="rgb(0,0,0)"  stroke-width="3"/>
<line x1="443.0" y1="311.2" x2="454.6" y2="273.5" opacity="1.0" stroke="rgb(0,0,0)"  stroke-width="3"/>
<line x1="437.9" y1="303.3" x2="446.0" y2="277.1" opacity="1.0" stroke="rgb(0,0,0)"  stroke-width="3"/>
<line x1="186.0" y1="109.4" x2="224.5" y2="100.7" opacity="1.0" stroke="rgb(0,0,0)"  stroke-width="3"/>
<line x1="193.4" y1="115.1" x2="220.2" y2="109.0" opacity="1.0" stroke="rgb(0,0,0)"  stroke-width="3"/>
<line x1="224.5" y1="100.7" x2="251.3" y2="129.6" opacity="1.0" stroke="rgb(0,0,0)"  stroke-width="3"/>
<line x1="201.1" y1="176.1" x2="174.3" y2="147.1" opacity="1.0" stroke="rgb(0,0,0)"  stroke-width="3"/>
<line x1="202.3" y1="166.8" x2="183.7" y2="146.6" opacity="1.0" stroke="rgb(0,0,0)"  stroke-width="3"/>
<line x1="174.3" y1="147.1" x2="186.0" y2="109.4" opacity="1.0" stroke="rgb(0,0,0)"  stroke-width="3"/>
<line x1="192.6" y1="236.7" x2="156.1" y2="256.5" opacity="1.0" stroke="rgb(0,0,0)"  stroke-width="3"/>
<line x1="156.1" y1="256.5" x2="168.9" y2="293.9" opacity="1.0" stroke="rgb(0,0,0)"  stroke-width="3"/>
<line x1="216.3" y1="302.8" x2="239.0" y2="289.2" opacity="1.0" stroke="rgb(0,0,0)"  stroke-width="3"/>
<line x1="342.2" y1="174.1" x2="341.1" y2="215.6" opacity="1.0" stroke="rgb(0,0,0)"  stroke-width="3"/>
<line x1="329.6" y1="235.3" x2="306.8" y2="248.8" opacity="1.0" stroke="rgb(0,0,0)"  stroke-width="3"/>
<line x1="303.5" y1="166.4" x2="342.2" y2="174.1" opacity="1.0" stroke="rgb(0,0,0)"  stroke-width="3"/>
<line x1="352.3" y1="234.5" x2="389.3" y2="253.3" opacity="1.0" stroke="rgb(0,0,0)"  stroke-width="3"/>
<line x1="330.5" y1="301.2" x2="307.4" y2="288.3" opacity="1.0" stroke="rgb(0,0,0)"  stroke-width="3"/>
<line x1="372.0" y1="421.4" x2="333.2" y2="413.8" opacity="1.0" stroke="rgb(0,0,0)"  stroke-width="3"/>
<line x1="333.2" y1="413.8" x2="320.5" y2="376.4" opacity="1.0" stroke="rgb(0,0,0)"  stroke-width="3"/>
<line x1="338.1" y1="405.8" x2="329.3" y2="379.8" opacity="1.0" stroke="rgb(0,0,0)"  stroke-width="3"/>
<line x1="320.5" y1="376.4" x2="346.5" y2="346.7" opacity="1.0" stroke="rgb(0,0,0)"  stroke-width="3"/>
<line x1="385.2" y1="354.4" x2="397.9" y2="391.7" opacity="1.0" stroke="rgb(0,0,0)"  stroke-width="3"/>
<line x1="397.9" y1="391.7" x2="372.0" y2="421.4" opacity="1.0" stroke="rgb(0,0,0)"  stroke-width="3"/>
<line x1="388.6" y1="391.5" x2="370.5" y2="412.2" opacity="1.0" stroke="rgb(0,0,0)"  stroke-width="3"/>
<line x1="460.4" y1="143.0" x2="434.4" y2="172.7" opacity="1.0" stroke="rgb(0,0,0)"  stroke-width="3"/>
<line x1="461.8" y1="152.3" x2="443.7" y2="172.9" opacity="1.0" stroke="rgb(0,0,0)"  stroke-width="3"/>
<line x1="434.4" y1="172.7" x2="447.1" y2="210.1" opacity="1.0" stroke="rgb(0,0,0)"  stroke-width="3"/>
<line x1="485.8" y1="217.7" x2="511.8" y2="188.1" opacity="1.0" stroke="rgb(0,0,0)"  stroke-width="3"/>
<line x1="511.8" y1="188.1" x2="499.1" y2="150.7" opacity="1.0" stroke="rgb(0,0,0)"  stroke-width="3"/>
<line x1="503.1" y1="184.7" x2="494.2" y2="158.7" opacity="1.0" stroke="rgb(0,0,0)"  stroke-width="3"/>
<line x1="499.1" y1="150.7" x2="460.4" y2="143.0" opacity="1.0" stroke="rgb(0,0,0)"  stroke-width="3"/>
<line x1="355.4" y1="107.1" x2="316.7" y2="99.4" opacity="1.0" stroke="rgb(0,0,0)"  stroke-width="3"/>
<line x1="348.2" y1="113.0" x2="321.2" y2="107.6" opacity="1.0" stroke="rgb(0,0,0)"  stroke-width="3"/>
<line x1="316.7" y1="99.4" x2="290.7" y2="129.1" opacity="1.0" stroke="rgb(0,0,0)"  stroke-width="3"/>
<line x1="342.2" y1="174.1" x2="368.2" y2="144.4" opacity="1.0" stroke="rgb(0,0,0)"  stroke-width="3"/>
<line x1="340.7" y1="164.9" x2="358.8" y2="144.2" opacity="1.0" stroke="rgb(0,0,0)"  stroke-width="3"/>
<line x1="368.2" y1="144.4" x2="355.4" y2="107.1" opacity="1.0" stroke="rgb(0,0,0)"  stroke-width="3"/>
<line x1="525.5" y1="315.7" x2="559.9" y2="334.9" opacity="1.0" stroke="rgb(0,0,0)"  stroke-width="3"/>
<line x1="559.9" y1="334.9" x2="593.8" y2="314.7" opacity="1.0" stroke="rgb(0,0,0)"  stroke-width="3"/>
<line x1="561.4" y1="325.7" x2="585.0" y2="311.6" opacity="1.0" stroke="rgb(0,0,0)"  stroke-width="3"/>
<line x1="593.8" y1="314.7" x2="593.3" y2="275.2" opacity="1.0" stroke="rgb(0,0,0)"  stroke-width="3"/>
<line x1="593.3" y1="275.2" x2="558.8" y2="256.0" opacity="1.0" stroke="rgb(0,0,0)"  stroke-width="3"/>
<line x1="584.5" y1="278.6" x2="560.6" y2="265.2" opacity="1.0" stroke="rgb(0,0,0)"  stroke-width="3"/>
<line x1="558.8" y1="256.0" x2="524.9" y2="276.2" opacity="1.0" stroke="rgb(0,0,0)"  stroke-width="3"/>
<line x1="524.9" y1="276.2" x2="525.5" y2="315.7" opacity="1.0" stroke="rgb(0,0,0)"  stroke-width="3"/>
<line x1="532.2" y1="282.1" x2="532.6" y2="309.6" opacity="1.0" stroke="rgb(0,0,0)"  stroke-width="3"/>
<line x1="142.9" y1="323.6" x2="104.1" y2="315.9" opacity="1.0" stroke="rgb(0,0,0)"  stroke-width="3"/>
<line x1="104.1" y1="315.9" x2="91.4" y2="278.5" opacity="1.0" stroke="rgb(0,0,0)"  stroke-width="3"/>
<line x1="109.0" y1="307.9" x2="100.2" y2="281.9" opacity="1.0" stroke="rgb(0,0,0)"  stroke-width="3"/>
<line x1="91.4" y1="278.5" x2="117.4" y2="248.8" opacity="1.0" stroke="rgb(0,0,0)"  stroke-width="3"/>
<line x1="117.4" y1="248.8" x2="156.1" y2="256.5" opacity="1.0" stroke="rgb(0,0,0)"  stroke-width="3"/>
<line x1="121.9" y1="257.1" x2="148.9" y2="262.4" opacity="1.0" stroke="rgb(0,0,0)"  stroke-width="3"/>
<line x1="40.0" y1="233.5" x2="66.0" y2="203.8" opacity="1.0" stroke="rgb(0,0,0)"  stroke-width="3"/>
<line x1="66.0" y1="203.8" x2="104.7" y2="211.5" opacity="1.0" stroke="rgb(0,0,0)"  stroke-width="3"/>
<line x1="70.5" y1="212.0" x2="97.4" y2="217.4" opacity="1.0" stroke="rgb(0,0,0)"  stroke-width="3"/>
<line x1="104.7" y1="211.5" x2="117.4" y2="248.8" opacity="1.0" stroke="rgb(0,0,0)"  stroke-width="3"/>
<line x1="91.4" y1="278.5" x2="52.7" y2="270.9" opacity="1.0" stroke="rgb(0,0,0)"  stroke-width="3"/>
<line x1="52.7" y1="270.9" x2="40.0" y2="233.5" opacity="1.0" stroke="rgb(0,0,0)"  stroke-width="3"/>
<line x1="57.6" y1="262.9" x2="48.7" y2="236.9" opacity="1.0" stroke="rgb(0,0,0)"  stroke-width="3"/>
<line x1="595.0" y1="198.0" x2="596.3" y2="158.5" opacity="1.0" stroke="rgb(0,0,0)"  stroke-width="3"/>
<line x1="596.3" y1="158.5" x2="562.8" y2="137.7" opacity="1.0" stroke="rgb(0,0,0)"  stroke-width="3"/>
<line x1="587.4" y1="161.5" x2="564.1" y2="146.9" opacity="1.0" stroke="rgb(0,0,0)"  stroke-width="3"/>
<line x1="562.8" y1="137.7" x2="527.9" y2="156.2" opacity="1.0" stroke="rgb(0,0,0)"  stroke-width="3"/>
<line x1="527.9" y1="156.2" x2="526.6" y2="195.7" opacity="1.0" stroke="rgb(0,0,0)"  stroke-width="3"/>
<line x1="534.9" y1="162.5" x2="534.0" y2="189.9" opacity="1.0" stroke="rgb(0,0,0)"  stroke-width="3"/>
<line x1="526.6" y1="195.7" x2="560.1" y2="216.5" opacity="1.0" stroke="rgb(0,0,0)"  stroke-width="3"/>
<line x1="560.1" y1="216.5" x2="595.0" y2="198.0" opacity="1.0" stroke="rgb(0,0,0)"  stroke-width="3"/>
<line x1="562.0" y1="207.4" x2="586.3" y2="194.4" opacity="1.0" stroke="rgb(0,0,0)"  stroke-width="3"/>
<line x1="112.9" y1="403.9" x2="101.2" y2="441.6" opacity="1.0" stroke="rgb(0,0,0)"  stroke-width="3"/>
<line x1="101.2" y1="441.6" x2="128.1" y2="470.6" opacity="1.0" stroke="rgb(0,0,0)"  stroke-width="3"/>
<line x1="110.6" y1="441.1" x2="129.3" y2="461.3" opacity="1.0" stroke="rgb(0,0,0)"  stroke-width="3"/>
<line x1="128.1" y1="470.6" x2="166.5" y2="461.8" opacity="1.0" stroke="rgb(0,0,0)"  stroke-width="3"/>
<line x1="166.5" y1="461.8" x2="178.2" y2="424.1" opacity="1.0" stroke="rgb(0,0,0)"  stroke-width="3"/>
<line x1="161.4" y1="454.0" x2="169.6" y2="427.7" opacity="1.0" stroke="rgb(0,0,0)"  stroke-width="3"/>
<line x1="178.2" y1="424.1" x2="151.4" y2="395.2" opacity="1.0" stroke="rgb(0,0,0)"  stroke-width="3"/>
<line x1="151.4" y1="395.2" x2="112.9" y2="403.9" opacity="1.0" stroke="rgb(0,0,0)"  stroke-width="3"/>
<line x1="147.1" y1="403.5" x2="120.4" y2="409.6" opacity="1.0" stroke="rgb(0,0,0)"  stroke-width="3"/>
<line x1="216.7" y1="415.4" x2="243.5" y2="444.4" opacity="1.0" stroke="rgb(0,0,0)"  stroke-width="3"/>
<line x1="243.5" y1="444.4" x2="282.0" y2="435.6" opacity="1.0" stroke="rgb(0,0,0)"  stroke-width="3"/>
<line x1="247.8" y1="436.0" x2="274.6" y2="429.9" opacity="1.0" stroke="rgb(0,0,0)"  stroke-width="3"/>
<line x1="282.0" y1="435.6" x2="293.7" y2="397.9" opacity="1.0" stroke="rgb(0,0,0)"  stroke-width="3"/>
<line x1="293.7" y1="397.9" x2="266.9" y2="369.0" opacity="1.0" stroke="rgb(0,0,0)"  stroke-width="3"/>
<line x1="284.3" y1="398.4" x2="265.7" y2="378.2" opacity="1.0" stroke="rgb(0,0,0)"  stroke-width="3"/>
<line x1="266.9" y1="369.0" x2="228.4" y2="377.7" opacity="1.0" stroke="rgb(0,0,0)"  stroke-width="3"/>
<line x1="228.4" y1="377.7" x2="216.7" y2="415.4" opacity="1.0" stroke="rgb(0,0,0)"  stroke-width="3"/>
<line x1="233.5" y1="385.6" x2="225.4" y2="411.8" opacity="1.0" stroke="rgb(0,0,0)"  stroke-width="3"/>
<text x="484.478839" y="264.939711" fill="rgb(12,12,255)" stroke-width="0" font-weight="bold" font-size="25.92" >N</text>
<text x="199.138843" y="317.428562" fill="rgb(12,12,255)" stroke-width="0" font-weight="bold" font-size="25.92" >N</text>
<text x="335.845934" y="315.528130" fill="rgb(12,12,255)" stroke-width="0" font-weight="bold" font-size="25.92" >N</text>
<text x="334.748731" y="236.600290" fill="rgb(255,181,181)" stroke-width="0" font-weight="bold" font-size="25.92" >B</text>
<text x="198.041640" y="238.500722" fill="rgb(255,181,181)" stroke-width="0" font-weight="bold" font-size="25.92" >B</text>
<text x="265.846560" y="198.086562" fill="rgb(12,12,255)" stroke-width="0" font-weight="bold" font-size="25.92" >N</text>
</svg>
</g>
</svg>
