<?xml version="1.0"?>
<svg version="1.1" id="topsvg"
xmlns="http://www.w3.org/2000/svg" xmlns:xlink="http://www.w3.org/1999/xlink"
xmlns:cml="http://www.xml-cml.org/schema" x="0" y="0" width="200px" height="200px" viewBox="0 0 100 100">
<title>GD320.sdf - Open Babel Depiction</title>
<rect x="0" y="0" width="100" height="100" fill="white"/>
<g transform="translate(0,0)">
<svg width="100" height="100" x="0" y="0" viewBox="0 0 542.675 663.587"
font-family="sans-serif" stroke="rgb(0,0,0)" stroke-width="3"  stroke-linecap="round">
<line x1="163.7" y1="351.0" x2="142.0" y2="383.2" opacity="1.0" stroke="rgb(0,0,0)"  stroke-width="3"/>
<line x1="201.8" y1="342.9" x2="222.7" y2="407.0" opacity="1.0" stroke="rgb(0,0,0)"  stroke-width="3"/>
<line x1="344.9" y1="342.9" x2="350.3" y2="387.9" opacity="1.0" stroke="rgb(0,0,0)"  stroke-width="3"/>
<line x1="383.0" y1="351.0" x2="404.7" y2="383.2" opacity="1.0" stroke="rgb(0,0,0)"  stroke-width="3"/>
<line x1="357.0" y1="106.6" x2="383.0" y2="77.6" opacity="1.0" stroke="rgb(0,0,0)"  stroke-width="3"/>
<line x1="189.7" y1="106.6" x2="163.7" y2="77.6" opacity="1.0" stroke="rgb(0,0,0)"  stroke-width="3"/>
<line x1="163.7" y1="77.6" x2="126.1" y2="87.7" opacity="1.0" stroke="rgb(0,0,0)"  stroke-width="3"/>
<line x1="163.7" y1="77.6" x2="136.1" y2="50.1" opacity="1.0" stroke="rgb(0,0,0)"  stroke-width="3"/>
<line x1="163.7" y1="77.6" x2="175.7" y2="40.6" opacity="1.0" stroke="rgb(0,0,0)"  stroke-width="3"/>
<line x1="383.0" y1="77.6" x2="372.9" y2="40.0" opacity="1.0" stroke="rgb(0,0,0)"  stroke-width="3"/>
<line x1="383.0" y1="77.6" x2="421.1" y2="85.7" opacity="1.0" stroke="rgb(0,0,0)"  stroke-width="3"/>
<line x1="383.0" y1="77.6" x2="410.6" y2="50.1" opacity="1.0" stroke="rgb(0,0,0)"  stroke-width="3"/>
<line x1="112.2" y1="493.3" x2="76.1" y2="478.7" opacity="1.0" stroke="rgb(0,0,0)"  stroke-width="3"/>
<line x1="76.1" y1="478.7" x2="40.0" y2="464.1" opacity="1.0" stroke="rgb(0,0,0)"  stroke-width="3"/>
<line x1="76.1" y1="478.7" x2="70.7" y2="440.2" opacity="1.0" stroke="rgb(0,0,0)"  stroke-width="3"/>
<line x1="76.1" y1="478.7" x2="45.4" y2="502.7" opacity="1.0" stroke="rgb(0,0,0)"  stroke-width="3"/>
<line x1="153.7" y1="546.5" x2="159.2" y2="585.0" opacity="1.0" stroke="rgb(0,0,0)"  stroke-width="3"/>
<line x1="159.2" y1="585.0" x2="164.6" y2="623.6" opacity="1.0" stroke="rgb(0,0,0)"  stroke-width="3"/>
<line x1="159.2" y1="585.0" x2="194.4" y2="601.5" opacity="1.0" stroke="rgb(0,0,0)"  stroke-width="3"/>
<line x1="159.2" y1="585.0" x2="128.5" y2="609.0" opacity="1.0" stroke="rgb(0,0,0)"  stroke-width="3"/>
<line x1="179.0" y1="483.9" x2="228.1" y2="445.6" opacity="1.0" stroke="rgb(0,0,0)"  stroke-width="3"/>
<line x1="292.8" y1="127.4" x2="304.9" y2="164.4" opacity="1.0" stroke="rgb(0,0,0)"  stroke-width="3"/>
<line x1="287.8" y1="135.3" x2="296.2" y2="160.9" opacity="1.0" stroke="rgb(0,0,0)"  stroke-width="3"/>
<line x1="304.9" y1="164.4" x2="283.9" y2="179.7" opacity="1.0" stroke="rgb(0,0,0)"  stroke-width="3"/>
<line x1="262.8" y1="179.7" x2="241.8" y2="164.4" opacity="1.0" stroke="rgb(0,0,0)"  stroke-width="3"/>
<line x1="241.8" y1="164.4" x2="253.9" y2="127.4" opacity="1.0" stroke="rgb(0,0,0)"  stroke-width="3"/>
<line x1="250.6" y1="160.9" x2="258.9" y2="135.3" opacity="1.0" stroke="rgb(0,0,0)"  stroke-width="3"/>
<line x1="253.9" y1="127.4" x2="292.8" y2="127.4" opacity="1.0" stroke="rgb(0,0,0)"  stroke-width="3"/>
<line x1="163.7" y1="351.0" x2="144.3" y2="317.2" opacity="1.0" stroke="rgb(0,0,0)"  stroke-width="3"/>
<line x1="144.3" y1="317.2" x2="170.3" y2="288.3" opacity="1.0" stroke="rgb(0,0,0)"  stroke-width="3"/>
<line x1="153.6" y1="317.6" x2="171.7" y2="297.6" opacity="1.0" stroke="rgb(0,0,0)"  stroke-width="3"/>
<line x1="170.3" y1="288.3" x2="194.0" y2="298.9" opacity="1.0" stroke="rgb(0,0,0)"  stroke-width="3"/>
<line x1="204.5" y1="317.1" x2="201.8" y2="342.9" opacity="1.0" stroke="rgb(0,0,0)"  stroke-width="3"/>
<line x1="201.8" y1="342.9" x2="163.7" y2="351.0" opacity="1.0" stroke="rgb(0,0,0)"  stroke-width="3"/>
<line x1="194.5" y1="337.1" x2="168.1" y2="342.7" opacity="1.0" stroke="rgb(0,0,0)"  stroke-width="3"/>
<line x1="344.9" y1="342.9" x2="383.0" y2="351.0" opacity="1.0" stroke="rgb(0,0,0)"  stroke-width="3"/>
<line x1="352.2" y1="337.1" x2="378.6" y2="342.7" opacity="1.0" stroke="rgb(0,0,0)"  stroke-width="3"/>
<line x1="383.0" y1="351.0" x2="402.4" y2="317.2" opacity="1.0" stroke="rgb(0,0,0)"  stroke-width="3"/>
<line x1="402.4" y1="317.2" x2="376.4" y2="288.3" opacity="1.0" stroke="rgb(0,0,0)"  stroke-width="3"/>
<line x1="393.1" y1="317.6" x2="375.0" y2="297.6" opacity="1.0" stroke="rgb(0,0,0)"  stroke-width="3"/>
<line x1="376.4" y1="288.3" x2="352.7" y2="298.9" opacity="1.0" stroke="rgb(0,0,0)"  stroke-width="3"/>
<line x1="342.2" y1="317.1" x2="344.9" y2="342.9" opacity="1.0" stroke="rgb(0,0,0)"  stroke-width="3"/>
<line x1="239.6" y1="284.7" x2="273.4" y2="304.1" opacity="1.0" stroke="rgb(0,0,0)"  stroke-width="3"/>
<line x1="273.4" y1="304.1" x2="307.1" y2="284.7" opacity="1.0" stroke="rgb(0,0,0)"  stroke-width="3"/>
<line x1="274.9" y1="294.9" x2="298.3" y2="281.4" opacity="1.0" stroke="rgb(0,0,0)"  stroke-width="3"/>
<line x1="307.1" y1="284.7" x2="307.1" y2="245.7" opacity="1.0" stroke="rgb(0,0,0)"  stroke-width="3"/>
<line x1="307.1" y1="245.7" x2="273.4" y2="226.3" opacity="1.0" stroke="rgb(0,0,0)"  stroke-width="3"/>
<line x1="298.3" y1="249.0" x2="274.9" y2="235.5" opacity="1.0" stroke="rgb(0,0,0)"  stroke-width="3"/>
<line x1="273.4" y1="226.3" x2="239.6" y2="245.7" opacity="1.0" stroke="rgb(0,0,0)"  stroke-width="3"/>
<line x1="239.6" y1="245.7" x2="239.6" y2="284.7" opacity="1.0" stroke="rgb(0,0,0)"  stroke-width="3"/>
<line x1="246.8" y1="251.7" x2="246.8" y2="278.7" opacity="1.0" stroke="rgb(0,0,0)"  stroke-width="3"/>
<line x1="273.4" y1="200.3" x2="273.4" y2="226.3" opacity="1.0" stroke="rgb(0,0,0)"  stroke-width="3"/>
<line x1="239.6" y1="245.7" x2="217.2" y2="232.8" opacity="1.0" stroke="rgb(0,0,0)"  stroke-width="3"/>
<line x1="205.4" y1="213.3" x2="203.8" y2="172.5" opacity="1.0" stroke="rgb(0,0,0)"  stroke-width="3"/>
<line x1="203.8" y1="172.5" x2="241.8" y2="164.4" opacity="1.0" stroke="rgb(0,0,0)"  stroke-width="3"/>
<line x1="452.6" y1="272.1" x2="426.5" y2="243.2" opacity="1.0" stroke="rgb(0,0,0)"  stroke-width="3"/>
<line x1="426.5" y1="243.2" x2="388.4" y2="251.3" opacity="1.0" stroke="rgb(0,0,0)"  stroke-width="3"/>
<line x1="422.1" y1="251.5" x2="395.8" y2="257.1" opacity="1.0" stroke="rgb(0,0,0)"  stroke-width="3"/>
<line x1="388.4" y1="251.3" x2="376.4" y2="288.3" opacity="1.0" stroke="rgb(0,0,0)"  stroke-width="3"/>
<line x1="402.4" y1="317.2" x2="440.5" y2="309.1" opacity="1.0" stroke="rgb(0,0,0)"  stroke-width="3"/>
<line x1="440.5" y1="309.1" x2="452.6" y2="272.1" opacity="1.0" stroke="rgb(0,0,0)"  stroke-width="3"/>
<line x1="435.5" y1="301.2" x2="443.9" y2="275.6" opacity="1.0" stroke="rgb(0,0,0)"  stroke-width="3"/>
<line x1="388.4" y1="251.3" x2="352.3" y2="232.3" opacity="1.0" stroke="rgb(0,0,0)"  stroke-width="3"/>
<line x1="329.5" y1="232.8" x2="307.1" y2="245.7" opacity="1.0" stroke="rgb(0,0,0)"  stroke-width="3"/>
<line x1="307.1" y1="284.7" x2="329.5" y2="297.6" opacity="1.0" stroke="rgb(0,0,0)"  stroke-width="3"/>
<line x1="357.0" y1="106.6" x2="369.0" y2="143.6" opacity="1.0" stroke="rgb(0,0,0)"  stroke-width="3"/>
<line x1="369.0" y1="143.6" x2="342.9" y2="172.5" opacity="1.0" stroke="rgb(0,0,0)"  stroke-width="3"/>
<line x1="359.6" y1="143.2" x2="341.6" y2="163.2" opacity="1.0" stroke="rgb(0,0,0)"  stroke-width="3"/>
<line x1="342.9" y1="172.5" x2="304.9" y2="164.4" opacity="1.0" stroke="rgb(0,0,0)"  stroke-width="3"/>
<line x1="292.8" y1="127.4" x2="318.9" y2="98.5" opacity="1.0" stroke="rgb(0,0,0)"  stroke-width="3"/>
<line x1="318.9" y1="98.5" x2="357.0" y2="106.6" opacity="1.0" stroke="rgb(0,0,0)"  stroke-width="3"/>
<line x1="323.3" y1="106.7" x2="349.6" y2="112.3" opacity="1.0" stroke="rgb(0,0,0)"  stroke-width="3"/>
<line x1="189.7" y1="106.6" x2="227.8" y2="98.5" opacity="1.0" stroke="rgb(0,0,0)"  stroke-width="3"/>
<line x1="197.1" y1="112.3" x2="223.5" y2="106.7" opacity="1.0" stroke="rgb(0,0,0)"  stroke-width="3"/>
<line x1="227.8" y1="98.5" x2="253.9" y2="127.4" opacity="1.0" stroke="rgb(0,0,0)"  stroke-width="3"/>
<line x1="203.8" y1="172.5" x2="177.7" y2="143.6" opacity="1.0" stroke="rgb(0,0,0)"  stroke-width="3"/>
<line x1="205.1" y1="163.2" x2="187.1" y2="143.2" opacity="1.0" stroke="rgb(0,0,0)"  stroke-width="3"/>
<line x1="177.7" y1="143.6" x2="189.7" y2="106.6" opacity="1.0" stroke="rgb(0,0,0)"  stroke-width="3"/>
<line x1="239.6" y1="284.7" x2="217.2" y2="297.6" opacity="1.0" stroke="rgb(0,0,0)"  stroke-width="3"/>
<line x1="170.3" y1="288.3" x2="158.3" y2="251.3" opacity="1.0" stroke="rgb(0,0,0)"  stroke-width="3"/>
<line x1="158.3" y1="251.3" x2="194.4" y2="232.3" opacity="1.0" stroke="rgb(0,0,0)"  stroke-width="3"/>
<line x1="341.3" y1="213.3" x2="342.9" y2="172.5" opacity="1.0" stroke="rgb(0,0,0)"  stroke-width="3"/>
<line x1="476.6" y1="198.0" x2="502.7" y2="227.0" opacity="1.0" stroke="rgb(0,0,0)"  stroke-width="3"/>
<line x1="502.7" y1="227.0" x2="490.6" y2="264.0" opacity="1.0" stroke="rgb(0,0,0)"  stroke-width="3"/>
<line x1="494.0" y1="230.5" x2="485.6" y2="256.1" opacity="1.0" stroke="rgb(0,0,0)"  stroke-width="3"/>
<line x1="490.6" y1="264.0" x2="452.6" y2="272.1" opacity="1.0" stroke="rgb(0,0,0)"  stroke-width="3"/>
<line x1="426.5" y1="243.2" x2="438.5" y2="206.1" opacity="1.0" stroke="rgb(0,0,0)"  stroke-width="3"/>
<line x1="438.5" y1="206.1" x2="476.6" y2="198.0" opacity="1.0" stroke="rgb(0,0,0)"  stroke-width="3"/>
<line x1="445.9" y1="211.9" x2="472.2" y2="206.3" opacity="1.0" stroke="rgb(0,0,0)"  stroke-width="3"/>
<line x1="144.3" y1="317.2" x2="106.2" y2="309.1" opacity="1.0" stroke="rgb(0,0,0)"  stroke-width="3"/>
<line x1="106.2" y1="309.1" x2="94.2" y2="272.1" opacity="1.0" stroke="rgb(0,0,0)"  stroke-width="3"/>
<line x1="111.2" y1="301.2" x2="102.9" y2="275.6" opacity="1.0" stroke="rgb(0,0,0)"  stroke-width="3"/>
<line x1="94.2" y1="272.1" x2="120.2" y2="243.2" opacity="1.0" stroke="rgb(0,0,0)"  stroke-width="3"/>
<line x1="120.2" y1="243.2" x2="158.3" y2="251.3" opacity="1.0" stroke="rgb(0,0,0)"  stroke-width="3"/>
<line x1="124.6" y1="251.5" x2="150.9" y2="257.1" opacity="1.0" stroke="rgb(0,0,0)"  stroke-width="3"/>
<line x1="44.0" y1="227.0" x2="70.1" y2="198.0" opacity="1.0" stroke="rgb(0,0,0)"  stroke-width="3"/>
<line x1="70.1" y1="198.0" x2="108.2" y2="206.1" opacity="1.0" stroke="rgb(0,0,0)"  stroke-width="3"/>
<line x1="74.5" y1="206.3" x2="100.8" y2="211.9" opacity="1.0" stroke="rgb(0,0,0)"  stroke-width="3"/>
<line x1="108.2" y1="206.1" x2="120.2" y2="243.2" opacity="1.0" stroke="rgb(0,0,0)"  stroke-width="3"/>
<line x1="94.2" y1="272.1" x2="56.1" y2="264.0" opacity="1.0" stroke="rgb(0,0,0)"  stroke-width="3"/>
<line x1="56.1" y1="264.0" x2="44.0" y2="227.0" opacity="1.0" stroke="rgb(0,0,0)"  stroke-width="3"/>
<line x1="61.1" y1="256.1" x2="52.7" y2="230.5" opacity="1.0" stroke="rgb(0,0,0)"  stroke-width="3"/>
<line x1="394.0" y1="420.7" x2="421.1" y2="448.7" opacity="1.0" stroke="rgb(0,0,0)"  stroke-width="3"/>
<line x1="421.1" y1="448.7" x2="458.8" y2="439.3" opacity="1.0" stroke="rgb(0,0,0)"  stroke-width="3"/>
<line x1="425.1" y1="440.3" x2="451.3" y2="433.7" opacity="1.0" stroke="rgb(0,0,0)"  stroke-width="3"/>
<line x1="458.8" y1="439.3" x2="469.6" y2="401.8" opacity="1.0" stroke="rgb(0,0,0)"  stroke-width="3"/>
<line x1="469.6" y1="401.8" x2="442.5" y2="373.8" opacity="1.0" stroke="rgb(0,0,0)"  stroke-width="3"/>
<line x1="460.2" y1="402.5" x2="441.5" y2="383.1" opacity="1.0" stroke="rgb(0,0,0)"  stroke-width="3"/>
<line x1="442.5" y1="373.8" x2="404.7" y2="383.2" opacity="1.0" stroke="rgb(0,0,0)"  stroke-width="3"/>
<line x1="404.7" y1="383.2" x2="394.0" y2="420.7" opacity="1.0" stroke="rgb(0,0,0)"  stroke-width="3"/>
<line x1="410.0" y1="391.0" x2="402.6" y2="416.9" opacity="1.0" stroke="rgb(0,0,0)"  stroke-width="3"/>
<line x1="103.1" y1="380.5" x2="81.4" y2="412.8" opacity="1.0" stroke="rgb(0,0,0)"  stroke-width="3"/>
<line x1="81.4" y1="412.8" x2="98.4" y2="447.8" opacity="1.0" stroke="rgb(0,0,0)"  stroke-width="3"/>
<line x1="90.5" y1="415.0" x2="102.3" y2="439.3" opacity="1.0" stroke="rgb(0,0,0)"  stroke-width="3"/>
<line x1="98.4" y1="447.8" x2="137.3" y2="450.5" opacity="1.0" stroke="rgb(0,0,0)"  stroke-width="3"/>
<line x1="137.3" y1="450.5" x2="159.0" y2="418.2" opacity="1.0" stroke="rgb(0,0,0)"  stroke-width="3"/>
<line x1="134.7" y1="441.5" x2="149.7" y2="419.2" opacity="1.0" stroke="rgb(0,0,0)"  stroke-width="3"/>
<line x1="159.0" y1="418.2" x2="142.0" y2="383.2" opacity="1.0" stroke="rgb(0,0,0)"  stroke-width="3"/>
<line x1="142.0" y1="383.2" x2="103.1" y2="380.5" opacity="1.0" stroke="rgb(0,0,0)"  stroke-width="3"/>
<line x1="135.5" y1="390.0" x2="108.6" y2="388.1" opacity="1.0" stroke="rgb(0,0,0)"  stroke-width="3"/>
<line x1="228.1" y1="445.6" x2="264.2" y2="460.2" opacity="1.0" stroke="rgb(0,0,0)"  stroke-width="3"/>
<line x1="264.2" y1="460.2" x2="294.9" y2="436.2" opacity="1.0" stroke="rgb(0,0,0)"  stroke-width="3"/>
<line x1="264.5" y1="450.8" x2="285.7" y2="434.2" opacity="1.0" stroke="rgb(0,0,0)"  stroke-width="3"/>
<line x1="294.9" y1="436.2" x2="289.5" y2="397.6" opacity="1.0" stroke="rgb(0,0,0)"  stroke-width="3"/>
<line x1="289.5" y1="397.6" x2="253.4" y2="383.0" opacity="1.0" stroke="rgb(0,0,0)"  stroke-width="3"/>
<line x1="281.2" y1="402.1" x2="256.2" y2="392.0" opacity="1.0" stroke="rgb(0,0,0)"  stroke-width="3"/>
<line x1="253.4" y1="383.0" x2="222.7" y2="407.0" opacity="1.0" stroke="rgb(0,0,0)"  stroke-width="3"/>
<line x1="222.7" y1="407.0" x2="228.1" y2="445.6" opacity="1.0" stroke="rgb(0,0,0)"  stroke-width="3"/>
<line x1="230.6" y1="411.9" x2="234.4" y2="438.6" opacity="1.0" stroke="rgb(0,0,0)"  stroke-width="3"/>
<line x1="314.2" y1="402.5" x2="308.8" y2="441.0" opacity="1.0" stroke="rgb(0,0,0)"  stroke-width="3"/>
<line x1="308.8" y1="441.0" x2="339.5" y2="465.0" opacity="1.0" stroke="rgb(0,0,0)"  stroke-width="3"/>
<line x1="317.9" y1="439.1" x2="339.2" y2="455.6" opacity="1.0" stroke="rgb(0,0,0)"  stroke-width="3"/>
<line x1="339.5" y1="465.0" x2="375.6" y2="450.4" opacity="1.0" stroke="rgb(0,0,0)"  stroke-width="3"/>
<line x1="375.6" y1="450.4" x2="381.0" y2="411.9" opacity="1.0" stroke="rgb(0,0,0)"  stroke-width="3"/>
<line x1="369.3" y1="443.5" x2="373.0" y2="416.8" opacity="1.0" stroke="rgb(0,0,0)"  stroke-width="3"/>
<line x1="381.0" y1="411.9" x2="350.3" y2="387.9" opacity="1.0" stroke="rgb(0,0,0)"  stroke-width="3"/>
<line x1="350.3" y1="387.9" x2="314.2" y2="402.5" opacity="1.0" stroke="rgb(0,0,0)"  stroke-width="3"/>
<line x1="347.4" y1="396.8" x2="322.5" y2="406.9" opacity="1.0" stroke="rgb(0,0,0)"  stroke-width="3"/>
<line x1="142.9" y1="469.3" x2="112.2" y2="493.3" opacity="1.0" stroke="rgb(0,0,0)"  stroke-width="3"/>
<line x1="112.2" y1="493.3" x2="117.6" y2="531.9" opacity="1.0" stroke="rgb(0,0,0)"  stroke-width="3"/>
<line x1="120.2" y1="498.3" x2="123.9" y2="524.9" opacity="1.0" stroke="rgb(0,0,0)"  stroke-width="3"/>
<line x1="117.6" y1="531.9" x2="153.7" y2="546.5" opacity="1.0" stroke="rgb(0,0,0)"  stroke-width="3"/>
<line x1="153.7" y1="546.5" x2="184.4" y2="522.5" opacity="1.0" stroke="rgb(0,0,0)"  stroke-width="3"/>
<line x1="154.0" y1="537.1" x2="175.3" y2="520.5" opacity="1.0" stroke="rgb(0,0,0)"  stroke-width="3"/>
<line x1="184.4" y1="522.5" x2="179.0" y2="483.9" opacity="1.0" stroke="rgb(0,0,0)"  stroke-width="3"/>
<line x1="179.0" y1="483.9" x2="142.9" y2="469.3" opacity="1.0" stroke="rgb(0,0,0)"  stroke-width="3"/>
<line x1="170.7" y1="488.4" x2="145.8" y2="478.3" opacity="1.0" stroke="rgb(0,0,0)"  stroke-width="3"/>
<text x="199.906097" y="234.257518" fill="rgb(255,181,181)" stroke-width="0" font-weight="bold" font-size="25.92" >B</text>
<text x="334.799548" y="234.257518" fill="rgb(255,181,181)" stroke-width="0" font-weight="bold" font-size="25.92" >B</text>
<text x="334.799548" y="312.138306" fill="rgb(12,12,255)" stroke-width="0" font-weight="bold" font-size="25.92" >N</text>
<text x="199.906097" y="312.138306" fill="rgb(12,12,255)" stroke-width="0" font-weight="bold" font-size="25.92" >N</text>
<text x="267.352823" y="195.317124" fill="rgb(12,12,255)" stroke-width="0" font-weight="bold" font-size="25.92" >N</text>
</svg>
</g>
</svg>
