<?xml version="1.0"?>
<svg version="1.1" id="topsvg"
xmlns="http://www.w3.org/2000/svg" xmlns:xlink="http://www.w3.org/1999/xlink"
xmlns:cml="http://www.xml-cml.org/schema" x="0" y="0" width="200px" height="200px" viewBox="0 0 100 100">
<title>GD32.sdf - Open Babel Depiction</title>
<rect x="0" y="0" width="100" height="100" fill="white"/>
<g transform="translate(0,0)">
<svg width="100" height="100" x="0" y="0" viewBox="0 0 647.709 393.047"
font-family="sans-serif" stroke="rgb(0,0,0)" stroke-width="3"  stroke-linecap="round">
<line x1="524.0" y1="265.5" x2="542.0" y2="285.5" opacity="1.0" stroke="rgb(0,0,0)"  stroke-width="3"/>
<line x1="220.3" y1="119.7" x2="220.3" y2="79.9" opacity="1.0" stroke="rgb(0,0,0)"  stroke-width="3"/>
<line x1="220.3" y1="79.9" x2="185.8" y2="59.9" opacity="1.0" stroke="rgb(0,0,0)"  stroke-width="3"/>
<line x1="220.3" y1="79.9" x2="254.9" y2="59.9" opacity="1.0" stroke="rgb(0,0,0)"  stroke-width="3"/>
<line x1="220.3" y1="79.9" x2="220.3" y2="40.0" opacity="1.0" stroke="rgb(0,0,0)"  stroke-width="3"/>
<line x1="103.1" y1="260.0" x2="63.4" y2="264.2" opacity="1.0" stroke="rgb(0,0,0)"  stroke-width="3"/>
<line x1="63.4" y1="264.2" x2="40.0" y2="231.9" opacity="1.0" stroke="rgb(0,0,0)"  stroke-width="3"/>
<line x1="63.4" y1="264.2" x2="47.2" y2="300.6" opacity="1.0" stroke="rgb(0,0,0)"  stroke-width="3"/>
<line x1="63.4" y1="264.2" x2="79.7" y2="227.8" opacity="1.0" stroke="rgb(0,0,0)"  stroke-width="3"/>
<line x1="396.4" y1="251.7" x2="419.8" y2="219.4" opacity="1.0" stroke="rgb(0,0,0)"  stroke-width="3"/>
<line x1="419.8" y1="219.4" x2="396.4" y2="187.2" opacity="1.0" stroke="rgb(0,0,0)"  stroke-width="3"/>
<line x1="396.4" y1="187.2" x2="358.5" y2="199.5" opacity="1.0" stroke="rgb(0,0,0)"  stroke-width="3"/>
<line x1="392.9" y1="195.9" x2="366.4" y2="204.5" opacity="1.0" stroke="rgb(0,0,0)"  stroke-width="3"/>
<line x1="358.5" y1="199.5" x2="358.5" y2="226.4" opacity="1.0" stroke="rgb(0,0,0)"  stroke-width="3"/>
<line x1="370.8" y1="243.4" x2="396.4" y2="251.7" opacity="1.0" stroke="rgb(0,0,0)"  stroke-width="3"/>
<line x1="159.0" y1="219.4" x2="182.4" y2="251.7" opacity="1.0" stroke="rgb(0,0,0)"  stroke-width="3"/>
<line x1="168.3" y1="220.1" x2="184.7" y2="242.6" opacity="1.0" stroke="rgb(0,0,0)"  stroke-width="3"/>
<line x1="182.4" y1="251.7" x2="208.0" y2="243.4" opacity="1.0" stroke="rgb(0,0,0)"  stroke-width="3"/>
<line x1="220.3" y1="226.4" x2="220.3" y2="199.5" opacity="1.0" stroke="rgb(0,0,0)"  stroke-width="3"/>
<line x1="220.3" y1="199.5" x2="185.8" y2="179.6" opacity="1.0" stroke="rgb(0,0,0)"  stroke-width="3"/>
<line x1="211.5" y1="202.7" x2="187.4" y2="188.8" opacity="1.0" stroke="rgb(0,0,0)"  stroke-width="3"/>
<line x1="185.8" y1="179.6" x2="159.0" y2="219.4" opacity="1.0" stroke="rgb(0,0,0)"  stroke-width="3"/>
<line x1="523.6" y1="216.9" x2="518.0" y2="243.1" opacity="1.0" stroke="rgb(0,0,0)"  stroke-width="3"/>
<line x1="502.4" y1="257.2" x2="475.7" y2="260.0" opacity="1.0" stroke="rgb(0,0,0)"  stroke-width="3"/>
<line x1="475.7" y1="260.0" x2="459.5" y2="223.6" opacity="1.0" stroke="rgb(0,0,0)"  stroke-width="3"/>
<line x1="459.5" y1="223.6" x2="489.1" y2="196.9" opacity="1.0" stroke="rgb(0,0,0)"  stroke-width="3"/>
<line x1="489.1" y1="196.9" x2="523.6" y2="216.9" opacity="1.0" stroke="rgb(0,0,0)"  stroke-width="3"/>
<line x1="490.7" y1="206.2" x2="514.8" y2="220.1" opacity="1.0" stroke="rgb(0,0,0)"  stroke-width="3"/>
<line x1="289.4" y1="319.1" x2="323.9" y2="299.2" opacity="1.0" stroke="rgb(0,0,0)"  stroke-width="3"/>
<line x1="291.0" y1="309.9" x2="315.1" y2="295.9" opacity="1.0" stroke="rgb(0,0,0)"  stroke-width="3"/>
<line x1="323.9" y1="299.2" x2="323.9" y2="259.3" opacity="1.0" stroke="rgb(0,0,0)"  stroke-width="3"/>
<line x1="323.9" y1="259.3" x2="289.4" y2="239.4" opacity="1.0" stroke="rgb(0,0,0)"  stroke-width="3"/>
<line x1="315.1" y1="262.5" x2="291.0" y2="248.6" opacity="1.0" stroke="rgb(0,0,0)"  stroke-width="3"/>
<line x1="289.4" y1="239.4" x2="254.9" y2="259.3" opacity="1.0" stroke="rgb(0,0,0)"  stroke-width="3"/>
<line x1="254.9" y1="259.3" x2="254.9" y2="299.2" opacity="1.0" stroke="rgb(0,0,0)"  stroke-width="3"/>
<line x1="262.1" y1="265.3" x2="262.1" y2="293.2" opacity="1.0" stroke="rgb(0,0,0)"  stroke-width="3"/>
<line x1="254.9" y1="299.2" x2="289.4" y2="319.1" opacity="1.0" stroke="rgb(0,0,0)"  stroke-width="3"/>
<line x1="323.9" y1="259.3" x2="347.2" y2="245.9" opacity="1.0" stroke="rgb(0,0,0)"  stroke-width="3"/>
<line x1="358.5" y1="199.5" x2="323.9" y2="179.6" opacity="1.0" stroke="rgb(0,0,0)"  stroke-width="3"/>
<line x1="323.9" y1="179.6" x2="300.6" y2="193.0" opacity="1.0" stroke="rgb(0,0,0)"  stroke-width="3"/>
<line x1="289.4" y1="212.5" x2="289.4" y2="239.4" opacity="1.0" stroke="rgb(0,0,0)"  stroke-width="3"/>
<line x1="459.5" y1="223.6" x2="419.8" y2="219.4" opacity="1.0" stroke="rgb(0,0,0)"  stroke-width="3"/>
<line x1="452.8" y1="230.1" x2="425.0" y2="227.2" opacity="1.0" stroke="rgb(0,0,0)"  stroke-width="3"/>
<line x1="396.4" y1="251.7" x2="412.6" y2="288.1" opacity="1.0" stroke="rgb(0,0,0)"  stroke-width="3"/>
<line x1="405.4" y1="254.2" x2="416.7" y2="279.7" opacity="1.0" stroke="rgb(0,0,0)"  stroke-width="3"/>
<line x1="412.6" y1="288.1" x2="452.3" y2="292.3" opacity="1.0" stroke="rgb(0,0,0)"  stroke-width="3"/>
<line x1="452.3" y1="292.3" x2="475.7" y2="260.0" opacity="1.0" stroke="rgb(0,0,0)"  stroke-width="3"/>
<line x1="450.0" y1="283.2" x2="466.3" y2="260.7" opacity="1.0" stroke="rgb(0,0,0)"  stroke-width="3"/>
<line x1="278.1" y1="193.0" x2="254.9" y2="179.6" opacity="1.0" stroke="rgb(0,0,0)"  stroke-width="3"/>
<line x1="254.9" y1="179.6" x2="220.3" y2="199.5" opacity="1.0" stroke="rgb(0,0,0)"  stroke-width="3"/>
<line x1="231.6" y1="245.9" x2="254.9" y2="259.3" opacity="1.0" stroke="rgb(0,0,0)"  stroke-width="3"/>
<line x1="185.8" y1="139.7" x2="185.8" y2="179.6" opacity="1.0" stroke="rgb(0,0,0)"  stroke-width="3"/>
<line x1="254.9" y1="179.6" x2="254.9" y2="139.7" opacity="1.0" stroke="rgb(0,0,0)"  stroke-width="3"/>
<line x1="247.7" y1="173.6" x2="247.7" y2="145.7" opacity="1.0" stroke="rgb(0,0,0)"  stroke-width="3"/>
<line x1="254.9" y1="139.7" x2="220.3" y2="119.7" opacity="1.0" stroke="rgb(0,0,0)"  stroke-width="3"/>
<line x1="220.3" y1="119.7" x2="185.8" y2="139.7" opacity="1.0" stroke="rgb(0,0,0)"  stroke-width="3"/>
<line x1="218.7" y1="129.0" x2="194.6" y2="142.9" opacity="1.0" stroke="rgb(0,0,0)"  stroke-width="3"/>
<line x1="329.7" y1="140.1" x2="323.9" y2="179.6" opacity="1.0" stroke="rgb(0,0,0)"  stroke-width="3"/>
<line x1="336.0" y1="147.1" x2="331.9" y2="174.7" opacity="1.0" stroke="rgb(0,0,0)"  stroke-width="3"/>
<line x1="396.4" y1="187.2" x2="398.9" y2="147.4" opacity="1.0" stroke="rgb(0,0,0)"  stroke-width="3"/>
<line x1="398.9" y1="147.4" x2="366.3" y2="124.4" opacity="1.0" stroke="rgb(0,0,0)"  stroke-width="3"/>
<line x1="389.9" y1="149.8" x2="367.1" y2="133.7" opacity="1.0" stroke="rgb(0,0,0)"  stroke-width="3"/>
<line x1="366.3" y1="124.4" x2="329.7" y2="140.1" opacity="1.0" stroke="rgb(0,0,0)"  stroke-width="3"/>
<line x1="126.5" y1="292.3" x2="103.1" y2="260.0" opacity="1.0" stroke="rgb(0,0,0)"  stroke-width="3"/>
<line x1="103.1" y1="260.0" x2="119.3" y2="223.6" opacity="1.0" stroke="rgb(0,0,0)"  stroke-width="3"/>
<line x1="112.1" y1="257.5" x2="123.4" y2="232.0" opacity="1.0" stroke="rgb(0,0,0)"  stroke-width="3"/>
<line x1="119.3" y1="223.6" x2="159.0" y2="219.4" opacity="1.0" stroke="rgb(0,0,0)"  stroke-width="3"/>
<line x1="182.4" y1="251.7" x2="166.2" y2="288.1" opacity="1.0" stroke="rgb(0,0,0)"  stroke-width="3"/>
<line x1="166.2" y1="288.1" x2="126.5" y2="292.3" opacity="1.0" stroke="rgb(0,0,0)"  stroke-width="3"/>
<line x1="159.5" y1="281.6" x2="131.7" y2="284.5" opacity="1.0" stroke="rgb(0,0,0)"  stroke-width="3"/>
<line x1="523.6" y1="137.1" x2="489.1" y2="157.0" opacity="1.0" stroke="rgb(0,0,0)"  stroke-width="3"/>
<line x1="522.0" y1="146.3" x2="497.9" y2="160.3" opacity="1.0" stroke="rgb(0,0,0)"  stroke-width="3"/>
<line x1="489.1" y1="157.0" x2="489.1" y2="196.9" opacity="1.0" stroke="rgb(0,0,0)"  stroke-width="3"/>
<line x1="523.6" y1="216.9" x2="558.2" y2="196.9" opacity="1.0" stroke="rgb(0,0,0)"  stroke-width="3"/>
<line x1="558.2" y1="196.9" x2="558.2" y2="157.0" opacity="1.0" stroke="rgb(0,0,0)"  stroke-width="3"/>
<line x1="551.0" y1="190.9" x2="551.0" y2="163.0" opacity="1.0" stroke="rgb(0,0,0)"  stroke-width="3"/>
<line x1="558.2" y1="157.0" x2="523.6" y2="137.1" opacity="1.0" stroke="rgb(0,0,0)"  stroke-width="3"/>
<line x1="529.7" y1="323.4" x2="556.4" y2="353.0" opacity="1.0" stroke="rgb(0,0,0)"  stroke-width="3"/>
<line x1="556.4" y1="353.0" x2="595.4" y2="344.8" opacity="1.0" stroke="rgb(0,0,0)"  stroke-width="3"/>
<line x1="560.8" y1="344.8" x2="588.0" y2="339.0" opacity="1.0" stroke="rgb(0,0,0)"  stroke-width="3"/>
<line x1="595.4" y1="344.8" x2="607.7" y2="306.8" opacity="1.0" stroke="rgb(0,0,0)"  stroke-width="3"/>
<line x1="607.7" y1="306.8" x2="581.0" y2="277.2" opacity="1.0" stroke="rgb(0,0,0)"  stroke-width="3"/>
<line x1="598.3" y1="307.2" x2="579.7" y2="286.5" opacity="1.0" stroke="rgb(0,0,0)"  stroke-width="3"/>
<line x1="581.0" y1="277.2" x2="542.0" y2="285.5" opacity="1.0" stroke="rgb(0,0,0)"  stroke-width="3"/>
<line x1="542.0" y1="285.5" x2="529.7" y2="323.4" opacity="1.0" stroke="rgb(0,0,0)"  stroke-width="3"/>
<line x1="547.0" y1="293.4" x2="538.4" y2="319.9" opacity="1.0" stroke="rgb(0,0,0)"  stroke-width="3"/>
<text x="509.343928" y="263.860405" fill="rgb(12,12,255)" stroke-width="0" font-weight="bold" font-size="25.92" >N</text>
<text x="214.326749" y="247.370369" fill="rgb(12,12,255)" stroke-width="0" font-weight="bold" font-size="25.92" >N</text>
<text x="352.454537" y="247.370708" fill="rgb(12,12,255)" stroke-width="0" font-weight="bold" font-size="25.92" >N</text>
<text x="283.390594" y="207.496624" fill="rgb(255,181,181)" stroke-width="0" font-weight="bold" font-size="25.92" >B</text>
</svg>
</g>
</svg>
