<?xml version="1.0"?>
<svg version="1.1" id="topsvg"
xmlns="http://www.w3.org/2000/svg" xmlns:xlink="http://www.w3.org/1999/xlink"
xmlns:cml="http://www.xml-cml.org/schema" x="0" y="0" width="200px" height="200px" viewBox="0 0 100 100">
<title>GD325.sdf - Open Babel Depiction</title>
<rect x="0" y="0" width="100" height="100" fill="white"/>
<g transform="translate(0,0)">
<svg width="100" height="100" x="0" y="0" viewBox="0 0 534.967 552.773"
font-family="sans-serif" stroke="rgb(0,0,0)" stroke-width="3"  stroke-linecap="round">
<line x1="184.2" y1="187.3" x2="172.5" y2="151.2" opacity="1.0" stroke="rgb(0,0,0)"  stroke-width="3"/>
<line x1="102.6" y1="328.7" x2="65.4" y2="336.6" opacity="1.0" stroke="rgb(0,0,0)"  stroke-width="3"/>
<line x1="277.5" y1="373.4" x2="277.5" y2="398.4" opacity="1.0" stroke="rgb(0,0,0)"  stroke-width="3"/>
<line x1="172.5" y1="151.2" x2="197.9" y2="122.9" opacity="1.0" stroke="rgb(0,0,0)"  stroke-width="3"/>
<line x1="172.5" y1="151.2" x2="135.3" y2="143.3" opacity="1.0" stroke="rgb(0,0,0)"  stroke-width="3"/>
<line x1="172.5" y1="151.2" x2="160.7" y2="115.0" opacity="1.0" stroke="rgb(0,0,0)"  stroke-width="3"/>
<line x1="65.4" y1="336.6" x2="40.0" y2="308.3" opacity="1.0" stroke="rgb(0,0,0)"  stroke-width="3"/>
<line x1="65.4" y1="336.6" x2="53.7" y2="372.7" opacity="1.0" stroke="rgb(0,0,0)"  stroke-width="3"/>
<line x1="65.4" y1="336.6" x2="77.2" y2="300.4" opacity="1.0" stroke="rgb(0,0,0)"  stroke-width="3"/>
<line x1="151.5" y1="284.6" x2="170.5" y2="251.7" opacity="1.0" stroke="rgb(0,0,0)"  stroke-width="3"/>
<line x1="170.5" y1="251.7" x2="207.7" y2="259.6" opacity="1.0" stroke="rgb(0,0,0)"  stroke-width="3"/>
<line x1="174.9" y1="260.0" x2="200.3" y2="265.4" opacity="1.0" stroke="rgb(0,0,0)"  stroke-width="3"/>
<line x1="207.7" y1="259.6" x2="210.3" y2="284.5" opacity="1.0" stroke="rgb(0,0,0)"  stroke-width="3"/>
<line x1="199.8" y1="302.7" x2="177.0" y2="312.9" opacity="1.0" stroke="rgb(0,0,0)"  stroke-width="3"/>
<line x1="177.0" y1="312.9" x2="151.5" y2="284.6" opacity="1.0" stroke="rgb(0,0,0)"  stroke-width="3"/>
<line x1="178.3" y1="303.6" x2="160.9" y2="284.3" opacity="1.0" stroke="rgb(0,0,0)"  stroke-width="3"/>
<line x1="403.5" y1="284.6" x2="378.1" y2="312.9" opacity="1.0" stroke="rgb(0,0,0)"  stroke-width="3"/>
<line x1="394.1" y1="284.3" x2="376.7" y2="303.6" opacity="1.0" stroke="rgb(0,0,0)"  stroke-width="3"/>
<line x1="378.1" y1="312.9" x2="355.2" y2="302.7" opacity="1.0" stroke="rgb(0,0,0)"  stroke-width="3"/>
<line x1="344.7" y1="284.5" x2="347.3" y2="259.6" opacity="1.0" stroke="rgb(0,0,0)"  stroke-width="3"/>
<line x1="347.3" y1="259.6" x2="384.5" y2="251.7" opacity="1.0" stroke="rgb(0,0,0)"  stroke-width="3"/>
<line x1="354.7" y1="265.4" x2="380.1" y2="260.0" opacity="1.0" stroke="rgb(0,0,0)"  stroke-width="3"/>
<line x1="384.5" y1="251.7" x2="403.5" y2="284.6" opacity="1.0" stroke="rgb(0,0,0)"  stroke-width="3"/>
<line x1="244.6" y1="354.4" x2="277.5" y2="373.4" opacity="1.0" stroke="rgb(0,0,0)"  stroke-width="3"/>
<line x1="277.5" y1="373.4" x2="310.4" y2="354.4" opacity="1.0" stroke="rgb(0,0,0)"  stroke-width="3"/>
<line x1="279.1" y1="364.2" x2="301.6" y2="351.2" opacity="1.0" stroke="rgb(0,0,0)"  stroke-width="3"/>
<line x1="310.4" y1="354.4" x2="310.4" y2="316.4" opacity="1.0" stroke="rgb(0,0,0)"  stroke-width="3"/>
<line x1="310.4" y1="316.4" x2="277.5" y2="297.4" opacity="1.0" stroke="rgb(0,0,0)"  stroke-width="3"/>
<line x1="301.6" y1="319.6" x2="279.1" y2="306.6" opacity="1.0" stroke="rgb(0,0,0)"  stroke-width="3"/>
<line x1="277.5" y1="297.4" x2="244.6" y2="316.4" opacity="1.0" stroke="rgb(0,0,0)"  stroke-width="3"/>
<line x1="244.6" y1="316.4" x2="244.6" y2="354.4" opacity="1.0" stroke="rgb(0,0,0)"  stroke-width="3"/>
<line x1="251.8" y1="322.4" x2="251.8" y2="348.4" opacity="1.0" stroke="rgb(0,0,0)"  stroke-width="3"/>
<line x1="207.7" y1="259.6" x2="233.1" y2="231.4" opacity="1.0" stroke="rgb(0,0,0)"  stroke-width="3"/>
<line x1="233.1" y1="231.4" x2="266.5" y2="252.5" opacity="1.0" stroke="rgb(0,0,0)"  stroke-width="3"/>
<line x1="277.5" y1="272.4" x2="277.5" y2="297.4" opacity="1.0" stroke="rgb(0,0,0)"  stroke-width="3"/>
<line x1="244.6" y1="316.4" x2="222.9" y2="303.9" opacity="1.0" stroke="rgb(0,0,0)"  stroke-width="3"/>
<line x1="332.1" y1="303.9" x2="310.4" y2="316.4" opacity="1.0" stroke="rgb(0,0,0)"  stroke-width="3"/>
<line x1="288.5" y1="252.5" x2="321.9" y2="231.4" opacity="1.0" stroke="rgb(0,0,0)"  stroke-width="3"/>
<line x1="321.9" y1="231.4" x2="347.3" y2="259.6" opacity="1.0" stroke="rgb(0,0,0)"  stroke-width="3"/>
<line x1="102.6" y1="328.7" x2="128.0" y2="356.9" opacity="1.0" stroke="rgb(0,0,0)"  stroke-width="3"/>
<line x1="128.0" y1="356.9" x2="165.2" y2="349.0" opacity="1.0" stroke="rgb(0,0,0)"  stroke-width="3"/>
<line x1="132.4" y1="348.6" x2="157.8" y2="343.2" opacity="1.0" stroke="rgb(0,0,0)"  stroke-width="3"/>
<line x1="165.2" y1="349.0" x2="177.0" y2="312.9" opacity="1.0" stroke="rgb(0,0,0)"  stroke-width="3"/>
<line x1="151.5" y1="284.6" x2="114.4" y2="292.5" opacity="1.0" stroke="rgb(0,0,0)"  stroke-width="3"/>
<line x1="114.4" y1="292.5" x2="102.6" y2="328.7" opacity="1.0" stroke="rgb(0,0,0)"  stroke-width="3"/>
<line x1="119.3" y1="300.5" x2="111.3" y2="325.2" opacity="1.0" stroke="rgb(0,0,0)"  stroke-width="3"/>
<line x1="452.4" y1="328.7" x2="427.0" y2="356.9" opacity="1.0" stroke="rgb(0,0,0)"  stroke-width="3"/>
<line x1="427.0" y1="356.9" x2="389.8" y2="349.0" opacity="1.0" stroke="rgb(0,0,0)"  stroke-width="3"/>
<line x1="422.6" y1="348.6" x2="397.2" y2="343.2" opacity="1.0" stroke="rgb(0,0,0)"  stroke-width="3"/>
<line x1="389.8" y1="349.0" x2="378.1" y2="312.9" opacity="1.0" stroke="rgb(0,0,0)"  stroke-width="3"/>
<line x1="403.5" y1="284.6" x2="440.7" y2="292.5" opacity="1.0" stroke="rgb(0,0,0)"  stroke-width="3"/>
<line x1="440.7" y1="292.5" x2="452.4" y2="328.7" opacity="1.0" stroke="rgb(0,0,0)"  stroke-width="3"/>
<line x1="435.7" y1="300.5" x2="443.7" y2="325.2" opacity="1.0" stroke="rgb(0,0,0)"  stroke-width="3"/>
<line x1="370.8" y1="187.3" x2="333.6" y2="195.2" opacity="1.0" stroke="rgb(0,0,0)"  stroke-width="3"/>
<line x1="333.6" y1="195.2" x2="321.9" y2="231.4" opacity="1.0" stroke="rgb(0,0,0)"  stroke-width="3"/>
<line x1="338.6" y1="203.1" x2="330.6" y2="227.9" opacity="1.0" stroke="rgb(0,0,0)"  stroke-width="3"/>
<line x1="384.5" y1="251.7" x2="396.2" y2="215.6" opacity="1.0" stroke="rgb(0,0,0)"  stroke-width="3"/>
<line x1="396.2" y1="215.6" x2="370.8" y2="187.3" opacity="1.0" stroke="rgb(0,0,0)"  stroke-width="3"/>
<line x1="386.9" y1="215.9" x2="369.5" y2="196.6" opacity="1.0" stroke="rgb(0,0,0)"  stroke-width="3"/>
<line x1="495.0" y1="158.6" x2="462.1" y2="139.5" opacity="1.0" stroke="rgb(0,0,0)"  stroke-width="3"/>
<line x1="462.1" y1="139.5" x2="429.1" y2="158.6" opacity="1.0" stroke="rgb(0,0,0)"  stroke-width="3"/>
<line x1="460.5" y1="148.8" x2="437.9" y2="161.8" opacity="1.0" stroke="rgb(0,0,0)"  stroke-width="3"/>
<line x1="429.1" y1="158.6" x2="429.1" y2="196.6" opacity="1.0" stroke="rgb(0,0,0)"  stroke-width="3"/>
<line x1="429.1" y1="196.6" x2="462.1" y2="215.6" opacity="1.0" stroke="rgb(0,0,0)"  stroke-width="3"/>
<line x1="437.9" y1="193.3" x2="460.5" y2="206.3" opacity="1.0" stroke="rgb(0,0,0)"  stroke-width="3"/>
<line x1="462.1" y1="215.6" x2="495.0" y2="196.6" opacity="1.0" stroke="rgb(0,0,0)"  stroke-width="3"/>
<line x1="495.0" y1="196.6" x2="495.0" y2="158.6" opacity="1.0" stroke="rgb(0,0,0)"  stroke-width="3"/>
<line x1="487.8" y1="190.6" x2="487.8" y2="164.6" opacity="1.0" stroke="rgb(0,0,0)"  stroke-width="3"/>
<line x1="170.5" y1="251.7" x2="158.8" y2="215.6" opacity="1.0" stroke="rgb(0,0,0)"  stroke-width="3"/>
<line x1="158.8" y1="215.6" x2="184.2" y2="187.3" opacity="1.0" stroke="rgb(0,0,0)"  stroke-width="3"/>
<line x1="168.1" y1="215.9" x2="185.6" y2="196.6" opacity="1.0" stroke="rgb(0,0,0)"  stroke-width="3"/>
<line x1="184.2" y1="187.3" x2="221.4" y2="195.2" opacity="1.0" stroke="rgb(0,0,0)"  stroke-width="3"/>
<line x1="221.4" y1="195.2" x2="233.1" y2="231.4" opacity="1.0" stroke="rgb(0,0,0)"  stroke-width="3"/>
<line x1="216.4" y1="203.1" x2="224.4" y2="227.9" opacity="1.0" stroke="rgb(0,0,0)"  stroke-width="3"/>
<line x1="264.6" y1="478.5" x2="245.9" y2="445.4" opacity="1.0" stroke="rgb(0,0,0)"  stroke-width="3"/>
<line x1="255.4" y1="476.8" x2="242.6" y2="454.2" opacity="1.0" stroke="rgb(0,0,0)"  stroke-width="3"/>
<line x1="245.9" y1="445.4" x2="207.9" y2="445.4" opacity="1.0" stroke="rgb(0,0,0)"  stroke-width="3"/>
<line x1="207.9" y1="445.4" x2="189.3" y2="478.5" opacity="1.0" stroke="rgb(0,0,0)"  stroke-width="3"/>
<line x1="211.3" y1="454.2" x2="198.5" y2="476.8" opacity="1.0" stroke="rgb(0,0,0)"  stroke-width="3"/>
<line x1="189.3" y1="478.5" x2="207.9" y2="511.2" opacity="1.0" stroke="rgb(0,0,0)"  stroke-width="3"/>
<line x1="207.9" y1="511.2" x2="245.9" y2="511.2" opacity="1.0" stroke="rgb(0,0,0)"  stroke-width="3"/>
<line x1="213.9" y1="504.0" x2="239.9" y2="504.0" opacity="1.0" stroke="rgb(0,0,0)"  stroke-width="3"/>
<line x1="245.9" y1="511.2" x2="264.6" y2="478.5" opacity="1.0" stroke="rgb(0,0,0)"  stroke-width="3"/>
<line x1="86.6" y1="478.6" x2="121.5" y2="493.7" opacity="1.0" stroke="rgb(0,0,0)"  stroke-width="3"/>
<line x1="95.0" y1="474.4" x2="118.9" y2="484.7" opacity="1.0" stroke="rgb(0,0,0)"  stroke-width="3"/>
<line x1="121.5" y1="493.7" x2="152.0" y2="471.0" opacity="1.0" stroke="rgb(0,0,0)"  stroke-width="3"/>
<line x1="152.0" y1="471.0" x2="147.6" y2="433.3" opacity="1.0" stroke="rgb(0,0,0)"  stroke-width="3"/>
<line x1="144.2" y1="465.9" x2="141.2" y2="440.1" opacity="1.0" stroke="rgb(0,0,0)"  stroke-width="3"/>
<line x1="147.6" y1="433.3" x2="112.8" y2="418.2" opacity="1.0" stroke="rgb(0,0,0)"  stroke-width="3"/>
<line x1="112.8" y1="418.2" x2="82.2" y2="440.9" opacity="1.0" stroke="rgb(0,0,0)"  stroke-width="3"/>
<line x1="112.2" y1="427.6" x2="91.4" y2="443.1" opacity="1.0" stroke="rgb(0,0,0)"  stroke-width="3"/>
<line x1="82.2" y1="440.9" x2="86.6" y2="478.6" opacity="1.0" stroke="rgb(0,0,0)"  stroke-width="3"/>
<line x1="301.2" y1="512.8" x2="339.2" y2="512.8" opacity="1.0" stroke="rgb(0,0,0)"  stroke-width="3"/>
<line x1="307.2" y1="505.6" x2="333.2" y2="505.6" opacity="1.0" stroke="rgb(0,0,0)"  stroke-width="3"/>
<line x1="339.2" y1="512.8" x2="358.5" y2="480.0" opacity="1.0" stroke="rgb(0,0,0)"  stroke-width="3"/>
<line x1="358.5" y1="480.0" x2="339.2" y2="447.3" opacity="1.0" stroke="rgb(0,0,0)"  stroke-width="3"/>
<line x1="349.3" y1="478.5" x2="336.0" y2="456.1" opacity="1.0" stroke="rgb(0,0,0)"  stroke-width="3"/>
<line x1="339.2" y1="447.3" x2="301.2" y2="447.3" opacity="1.0" stroke="rgb(0,0,0)"  stroke-width="3"/>
<line x1="301.2" y1="447.3" x2="282.5" y2="480.0" opacity="1.0" stroke="rgb(0,0,0)"  stroke-width="3"/>
<line x1="304.5" y1="456.1" x2="291.7" y2="478.4" opacity="1.0" stroke="rgb(0,0,0)"  stroke-width="3"/>
<line x1="282.5" y1="480.0" x2="301.2" y2="512.8" opacity="1.0" stroke="rgb(0,0,0)"  stroke-width="3"/>
<line x1="464.8" y1="440.2" x2="433.8" y2="418.2" opacity="1.0" stroke="rgb(0,0,0)"  stroke-width="3"/>
<line x1="455.7" y1="442.6" x2="434.5" y2="427.5" opacity="1.0" stroke="rgb(0,0,0)"  stroke-width="3"/>
<line x1="433.8" y1="418.2" x2="399.2" y2="434.0" opacity="1.0" stroke="rgb(0,0,0)"  stroke-width="3"/>
<line x1="399.2" y1="434.0" x2="395.6" y2="471.8" opacity="1.0" stroke="rgb(0,0,0)"  stroke-width="3"/>
<line x1="405.8" y1="440.6" x2="403.3" y2="466.5" opacity="1.0" stroke="rgb(0,0,0)"  stroke-width="3"/>
<line x1="395.6" y1="471.8" x2="426.6" y2="493.8" opacity="1.0" stroke="rgb(0,0,0)"  stroke-width="3"/>
<line x1="426.6" y1="493.8" x2="461.1" y2="478.1" opacity="1.0" stroke="rgb(0,0,0)"  stroke-width="3"/>
<line x1="429.0" y1="484.8" x2="452.7" y2="474.0" opacity="1.0" stroke="rgb(0,0,0)"  stroke-width="3"/>
<line x1="461.1" y1="478.1" x2="464.8" y2="440.2" opacity="1.0" stroke="rgb(0,0,0)"  stroke-width="3"/>
<line x1="275.8" y1="167.8" x2="314.2" y2="178.5" opacity="1.0" stroke="rgb(0,0,0)"  stroke-width="3"/>
<line x1="283.5" y1="162.4" x2="310.3" y2="169.9" opacity="1.0" stroke="rgb(0,0,0)"  stroke-width="3"/>
<line x1="314.2" y1="178.5" x2="342.7" y2="150.6" opacity="1.0" stroke="rgb(0,0,0)"  stroke-width="3"/>
<line x1="342.7" y1="150.6" x2="332.8" y2="112.0" opacity="1.0" stroke="rgb(0,0,0)"  stroke-width="3"/>
<line x1="334.2" y1="146.6" x2="327.3" y2="119.6" opacity="1.0" stroke="rgb(0,0,0)"  stroke-width="3"/>
<line x1="332.8" y1="112.0" x2="294.4" y2="101.3" opacity="1.0" stroke="rgb(0,0,0)"  stroke-width="3"/>
<line x1="294.4" y1="101.3" x2="265.9" y2="129.1" opacity="1.0" stroke="rgb(0,0,0)"  stroke-width="3"/>
<line x1="295.1" y1="110.6" x2="275.2" y2="130.1" opacity="1.0" stroke="rgb(0,0,0)"  stroke-width="3"/>
<line x1="265.9" y1="129.1" x2="275.8" y2="167.8" opacity="1.0" stroke="rgb(0,0,0)"  stroke-width="3"/>
<line x1="405.9" y1="40.0" x2="370.5" y2="53.7" opacity="1.0" stroke="rgb(0,0,0)"  stroke-width="3"/>
<line x1="402.9" y1="48.9" x2="378.7" y2="58.2" opacity="1.0" stroke="rgb(0,0,0)"  stroke-width="3"/>
<line x1="370.5" y1="53.7" x2="364.6" y2="91.2" opacity="1.0" stroke="rgb(0,0,0)"  stroke-width="3"/>
<line x1="364.6" y1="91.2" x2="394.2" y2="115.1" opacity="1.0" stroke="rgb(0,0,0)"  stroke-width="3"/>
<line x1="373.8" y1="89.4" x2="394.0" y2="105.7" opacity="1.0" stroke="rgb(0,0,0)"  stroke-width="3"/>
<line x1="394.2" y1="115.1" x2="429.6" y2="101.4" opacity="1.0" stroke="rgb(0,0,0)"  stroke-width="3"/>
<line x1="429.6" y1="101.4" x2="435.5" y2="63.9" opacity="1.0" stroke="rgb(0,0,0)"  stroke-width="3"/>
<line x1="423.5" y1="94.4" x2="427.5" y2="68.7" opacity="1.0" stroke="rgb(0,0,0)"  stroke-width="3"/>
<line x1="435.5" y1="63.9" x2="405.9" y2="40.0" opacity="1.0" stroke="rgb(0,0,0)"  stroke-width="3"/>
<line x1="429.1" y1="158.6" x2="380.6" y2="150.6" opacity="1.0" stroke="rgb(0,0,0)"  stroke-width="3"/>
<line x1="380.6" y1="150.6" x2="370.8" y2="187.3" opacity="1.0" stroke="rgb(0,0,0)"  stroke-width="3"/>
<line x1="396.2" y1="215.6" x2="429.1" y2="196.6" opacity="1.0" stroke="rgb(0,0,0)"  stroke-width="3"/>
<line x1="152.0" y1="471.0" x2="189.3" y2="478.5" opacity="1.0" stroke="rgb(0,0,0)"  stroke-width="3"/>
<line x1="207.9" y1="445.4" x2="182.2" y2="417.5" opacity="1.0" stroke="rgb(0,0,0)"  stroke-width="3"/>
<line x1="182.2" y1="417.5" x2="147.6" y2="433.3" opacity="1.0" stroke="rgb(0,0,0)"  stroke-width="3"/>
<line x1="358.5" y1="480.0" x2="395.6" y2="471.8" opacity="1.0" stroke="rgb(0,0,0)"  stroke-width="3"/>
<line x1="399.2" y1="434.0" x2="364.4" y2="418.8" opacity="1.0" stroke="rgb(0,0,0)"  stroke-width="3"/>
<line x1="364.4" y1="418.8" x2="339.2" y2="447.3" opacity="1.0" stroke="rgb(0,0,0)"  stroke-width="3"/>
<line x1="364.6" y1="91.2" x2="332.8" y2="112.0" opacity="1.0" stroke="rgb(0,0,0)"  stroke-width="3"/>
<line x1="342.7" y1="150.6" x2="380.6" y2="150.6" opacity="1.0" stroke="rgb(0,0,0)"  stroke-width="3"/>
<line x1="380.6" y1="150.6" x2="394.2" y2="115.1" opacity="1.0" stroke="rgb(0,0,0)"  stroke-width="3"/>
<line x1="310.4" y1="354.4" x2="364.4" y2="418.8" opacity="1.0" stroke="rgb(0,0,0)"  stroke-width="3"/>
<line x1="364.4" y1="418.8" x2="389.8" y2="349.0" opacity="1.0" stroke="rgb(0,0,0)"  stroke-width="3"/>
<line x1="165.2" y1="349.0" x2="182.2" y2="417.5" opacity="1.0" stroke="rgb(0,0,0)"  stroke-width="3"/>
<line x1="182.2" y1="417.5" x2="244.6" y2="354.4" opacity="1.0" stroke="rgb(0,0,0)"  stroke-width="3"/>
<text x="271.504838" y="419.421787" fill="rgb(127,178,255)" stroke-width="0" font-weight="bold" font-size="25.92" >F</text>
<text x="337.332858" y="305.404318" fill="rgb(12,12,255)" stroke-width="0" font-weight="bold" font-size="25.92" >N</text>
<text x="205.676817" y="305.404318" fill="rgb(12,12,255)" stroke-width="0" font-weight="bold" font-size="25.92" >N</text>
<text x="271.504838" y="267.398495" fill="rgb(255,181,181)" stroke-width="0" font-weight="bold" font-size="25.92" >B</text>
</svg>
</g>
</svg>
