<?xml version="1.0"?>
<svg version="1.1" id="topsvg"
xmlns="http://www.w3.org/2000/svg" xmlns:xlink="http://www.w3.org/1999/xlink"
xmlns:cml="http://www.xml-cml.org/schema" x="0" y="0" width="200px" height="200px" viewBox="0 0 100 100">
<title>GD328.sdf - Open Babel Depiction</title>
<rect x="0" y="0" width="100" height="100" fill="white"/>
<g transform="translate(0,0)">
<svg width="100" height="100" x="0" y="0" viewBox="0 0 522.04 464.326"
font-family="sans-serif" stroke="rgb(0,0,0)" stroke-width="3"  stroke-linecap="round">
<line x1="338.2" y1="308.7" x2="346.3" y2="347.3" opacity="1.0" stroke="rgb(0,0,0)"  stroke-width="3"/>
<line x1="364.5" y1="279.5" x2="403.7" y2="283.6" opacity="1.0" stroke="rgb(0,0,0)"  stroke-width="3"/>
<line x1="233.9" y1="371.5" x2="233.9" y2="397.9" opacity="1.0" stroke="rgb(0,0,0)"  stroke-width="3"/>
<line x1="166.2" y1="126.3" x2="183.9" y2="106.7" opacity="1.0" stroke="rgb(0,0,0)"  stroke-width="3"/>
<line x1="97.5" y1="292.7" x2="131.6" y2="233.6" opacity="1.0" stroke="rgb(0,0,0)"  stroke-width="3"/>
<line x1="131.6" y1="233.6" x2="165.7" y2="253.3" opacity="1.0" stroke="rgb(0,0,0)"  stroke-width="3"/>
<line x1="165.7" y1="253.3" x2="165.7" y2="279.7" opacity="1.0" stroke="rgb(0,0,0)"  stroke-width="3"/>
<line x1="154.5" y1="299.2" x2="131.6" y2="312.4" opacity="1.0" stroke="rgb(0,0,0)"  stroke-width="3"/>
<line x1="131.6" y1="312.4" x2="97.5" y2="292.7" opacity="1.0" stroke="rgb(0,0,0)"  stroke-width="3"/>
<line x1="130.0" y1="303.2" x2="106.3" y2="289.5" opacity="1.0" stroke="rgb(0,0,0)"  stroke-width="3"/>
<line x1="118.4" y1="131.9" x2="144.6" y2="134.7" opacity="1.0" stroke="rgb(0,0,0)"  stroke-width="3"/>
<line x1="160.2" y1="148.7" x2="165.7" y2="174.5" opacity="1.0" stroke="rgb(0,0,0)"  stroke-width="3"/>
<line x1="165.7" y1="174.5" x2="131.6" y2="194.2" opacity="1.0" stroke="rgb(0,0,0)"  stroke-width="3"/>
<line x1="131.6" y1="194.2" x2="102.3" y2="167.9" opacity="1.0" stroke="rgb(0,0,0)"  stroke-width="3"/>
<line x1="102.3" y1="167.9" x2="118.4" y2="131.9" opacity="1.0" stroke="rgb(0,0,0)"  stroke-width="3"/>
<line x1="111.3" y1="165.3" x2="122.5" y2="140.3" opacity="1.0" stroke="rgb(0,0,0)"  stroke-width="3"/>
<line x1="364.5" y1="279.5" x2="338.2" y2="308.7" opacity="1.0" stroke="rgb(0,0,0)"  stroke-width="3"/>
<line x1="355.1" y1="279.1" x2="336.8" y2="299.5" opacity="1.0" stroke="rgb(0,0,0)"  stroke-width="3"/>
<line x1="338.2" y1="308.7" x2="314.0" y2="298.0" opacity="1.0" stroke="rgb(0,0,0)"  stroke-width="3"/>
<line x1="303.5" y1="279.8" x2="306.3" y2="253.5" opacity="1.0" stroke="rgb(0,0,0)"  stroke-width="3"/>
<line x1="306.3" y1="253.5" x2="344.8" y2="245.3" opacity="1.0" stroke="rgb(0,0,0)"  stroke-width="3"/>
<line x1="313.7" y1="259.3" x2="340.4" y2="253.6" opacity="1.0" stroke="rgb(0,0,0)"  stroke-width="3"/>
<line x1="344.8" y1="245.3" x2="364.5" y2="279.5" opacity="1.0" stroke="rgb(0,0,0)"  stroke-width="3"/>
<line x1="199.8" y1="351.8" x2="233.9" y2="371.5" opacity="1.0" stroke="rgb(0,0,0)"  stroke-width="3"/>
<line x1="233.9" y1="371.5" x2="268.1" y2="351.8" opacity="1.0" stroke="rgb(0,0,0)"  stroke-width="3"/>
<line x1="235.5" y1="362.3" x2="259.3" y2="348.6" opacity="1.0" stroke="rgb(0,0,0)"  stroke-width="3"/>
<line x1="268.1" y1="351.8" x2="268.1" y2="312.4" opacity="1.0" stroke="rgb(0,0,0)"  stroke-width="3"/>
<line x1="268.1" y1="312.4" x2="233.9" y2="292.7" opacity="1.0" stroke="rgb(0,0,0)"  stroke-width="3"/>
<line x1="259.3" y1="315.6" x2="235.5" y2="301.9" opacity="1.0" stroke="rgb(0,0,0)"  stroke-width="3"/>
<line x1="233.9" y1="292.7" x2="199.8" y2="312.4" opacity="1.0" stroke="rgb(0,0,0)"  stroke-width="3"/>
<line x1="199.8" y1="312.4" x2="199.8" y2="351.8" opacity="1.0" stroke="rgb(0,0,0)"  stroke-width="3"/>
<line x1="207.0" y1="318.4" x2="207.0" y2="345.8" opacity="1.0" stroke="rgb(0,0,0)"  stroke-width="3"/>
<line x1="165.7" y1="253.3" x2="199.8" y2="233.6" opacity="1.0" stroke="rgb(0,0,0)"  stroke-width="3"/>
<line x1="174.5" y1="256.6" x2="198.2" y2="242.9" opacity="1.0" stroke="rgb(0,0,0)"  stroke-width="3"/>
<line x1="199.8" y1="233.6" x2="222.7" y2="246.8" opacity="1.0" stroke="rgb(0,0,0)"  stroke-width="3"/>
<line x1="233.9" y1="266.3" x2="233.9" y2="292.7" opacity="1.0" stroke="rgb(0,0,0)"  stroke-width="3"/>
<line x1="199.8" y1="312.4" x2="177.0" y2="299.2" opacity="1.0" stroke="rgb(0,0,0)"  stroke-width="3"/>
<line x1="165.7" y1="174.5" x2="199.8" y2="194.2" opacity="1.0" stroke="rgb(0,0,0)"  stroke-width="3"/>
<line x1="167.3" y1="183.8" x2="191.0" y2="197.5" opacity="1.0" stroke="rgb(0,0,0)"  stroke-width="3"/>
<line x1="199.8" y1="194.2" x2="199.8" y2="233.6" opacity="1.0" stroke="rgb(0,0,0)"  stroke-width="3"/>
<line x1="131.6" y1="233.6" x2="131.6" y2="194.2" opacity="1.0" stroke="rgb(0,0,0)"  stroke-width="3"/>
<line x1="138.8" y1="227.6" x2="138.8" y2="200.2" opacity="1.0" stroke="rgb(0,0,0)"  stroke-width="3"/>
<line x1="97.5" y1="371.5" x2="63.4" y2="351.8" opacity="1.0" stroke="rgb(0,0,0)"  stroke-width="3"/>
<line x1="63.4" y1="351.8" x2="63.4" y2="312.4" opacity="1.0" stroke="rgb(0,0,0)"  stroke-width="3"/>
<line x1="70.6" y1="345.8" x2="70.6" y2="318.4" opacity="1.0" stroke="rgb(0,0,0)"  stroke-width="3"/>
<line x1="63.4" y1="312.4" x2="97.5" y2="292.7" opacity="1.0" stroke="rgb(0,0,0)"  stroke-width="3"/>
<line x1="131.6" y1="312.4" x2="131.6" y2="351.8" opacity="1.0" stroke="rgb(0,0,0)"  stroke-width="3"/>
<line x1="131.6" y1="351.8" x2="97.5" y2="371.5" opacity="1.0" stroke="rgb(0,0,0)"  stroke-width="3"/>
<line x1="122.8" y1="348.6" x2="99.1" y2="362.3" opacity="1.0" stroke="rgb(0,0,0)"  stroke-width="3"/>
<line x1="290.9" y1="299.2" x2="268.1" y2="312.4" opacity="1.0" stroke="rgb(0,0,0)"  stroke-width="3"/>
<line x1="244.9" y1="246.4" x2="279.9" y2="224.3" opacity="1.0" stroke="rgb(0,0,0)"  stroke-width="3"/>
<line x1="279.9" y1="224.3" x2="306.3" y2="253.5" opacity="1.0" stroke="rgb(0,0,0)"  stroke-width="3"/>
<line x1="330.6" y1="178.6" x2="292.1" y2="186.8" opacity="1.0" stroke="rgb(0,0,0)"  stroke-width="3"/>
<line x1="292.1" y1="186.8" x2="279.9" y2="224.3" opacity="1.0" stroke="rgb(0,0,0)"  stroke-width="3"/>
<line x1="297.1" y1="194.7" x2="288.6" y2="220.8" opacity="1.0" stroke="rgb(0,0,0)"  stroke-width="3"/>
<line x1="344.8" y1="245.3" x2="357.0" y2="207.9" opacity="1.0" stroke="rgb(0,0,0)"  stroke-width="3"/>
<line x1="357.0" y1="207.9" x2="330.6" y2="178.6" opacity="1.0" stroke="rgb(0,0,0)"  stroke-width="3"/>
<line x1="347.6" y1="208.2" x2="329.3" y2="187.9" opacity="1.0" stroke="rgb(0,0,0)"  stroke-width="3"/>
<line x1="277.9" y1="120.1" x2="316.4" y2="111.9" opacity="1.0" stroke="rgb(0,0,0)"  stroke-width="3"/>
<line x1="316.4" y1="111.9" x2="342.8" y2="141.1" opacity="1.0" stroke="rgb(0,0,0)"  stroke-width="3"/>
<line x1="315.1" y1="121.2" x2="333.4" y2="141.5" opacity="1.0" stroke="rgb(0,0,0)"  stroke-width="3"/>
<line x1="342.8" y1="141.1" x2="330.6" y2="178.6" opacity="1.0" stroke="rgb(0,0,0)"  stroke-width="3"/>
<line x1="292.1" y1="186.8" x2="265.7" y2="157.5" opacity="1.0" stroke="rgb(0,0,0)"  stroke-width="3"/>
<line x1="265.7" y1="157.5" x2="277.9" y2="120.1" opacity="1.0" stroke="rgb(0,0,0)"  stroke-width="3"/>
<line x1="274.4" y1="154.0" x2="282.9" y2="128.0" opacity="1.0" stroke="rgb(0,0,0)"  stroke-width="3"/>
<line x1="317.1" y1="373.6" x2="325.3" y2="412.2" opacity="1.0" stroke="rgb(0,0,0)"  stroke-width="3"/>
<line x1="325.3" y1="412.2" x2="362.7" y2="424.3" opacity="1.0" stroke="rgb(0,0,0)"  stroke-width="3"/>
<line x1="333.2" y1="407.2" x2="359.2" y2="415.6" opacity="1.0" stroke="rgb(0,0,0)"  stroke-width="3"/>
<line x1="362.7" y1="424.3" x2="392.0" y2="398.0" opacity="1.0" stroke="rgb(0,0,0)"  stroke-width="3"/>
<line x1="392.0" y1="398.0" x2="383.8" y2="359.4" opacity="1.0" stroke="rgb(0,0,0)"  stroke-width="3"/>
<line x1="383.7" y1="393.6" x2="378.0" y2="366.8" opacity="1.0" stroke="rgb(0,0,0)"  stroke-width="3"/>
<line x1="383.8" y1="359.4" x2="346.3" y2="347.3" opacity="1.0" stroke="rgb(0,0,0)"  stroke-width="3"/>
<line x1="346.3" y1="347.3" x2="317.1" y2="373.6" opacity="1.0" stroke="rgb(0,0,0)"  stroke-width="3"/>
<line x1="346.7" y1="356.6" x2="326.3" y2="375.0" opacity="1.0" stroke="rgb(0,0,0)"  stroke-width="3"/>
<line x1="419.7" y1="319.6" x2="458.9" y2="323.7" opacity="1.0" stroke="rgb(0,0,0)"  stroke-width="3"/>
<line x1="458.9" y1="323.7" x2="482.0" y2="291.8" opacity="1.0" stroke="rgb(0,0,0)"  stroke-width="3"/>
<line x1="456.6" y1="314.6" x2="472.7" y2="292.4" opacity="1.0" stroke="rgb(0,0,0)"  stroke-width="3"/>
<line x1="482.0" y1="291.8" x2="466.0" y2="255.8" opacity="1.0" stroke="rgb(0,0,0)"  stroke-width="3"/>
<line x1="466.0" y1="255.8" x2="426.8" y2="251.7" opacity="1.0" stroke="rgb(0,0,0)"  stroke-width="3"/>
<line x1="459.3" y1="262.4" x2="432.1" y2="259.5" opacity="1.0" stroke="rgb(0,0,0)"  stroke-width="3"/>
<line x1="426.8" y1="251.7" x2="403.7" y2="283.6" opacity="1.0" stroke="rgb(0,0,0)"  stroke-width="3"/>
<line x1="403.7" y1="283.6" x2="419.7" y2="319.6" opacity="1.0" stroke="rgb(0,0,0)"  stroke-width="3"/>
<line x1="412.7" y1="286.1" x2="423.8" y2="311.2" opacity="1.0" stroke="rgb(0,0,0)"  stroke-width="3"/>
<line x1="40.0" y1="140.1" x2="63.2" y2="172.0" opacity="1.0" stroke="rgb(0,0,0)"  stroke-width="3"/>
<line x1="49.4" y1="140.7" x2="65.5" y2="162.9" opacity="1.0" stroke="rgb(0,0,0)"  stroke-width="3"/>
<line x1="63.2" y1="172.0" x2="102.3" y2="167.9" opacity="1.0" stroke="rgb(0,0,0)"  stroke-width="3"/>
<line x1="118.4" y1="131.9" x2="95.2" y2="100.0" opacity="1.0" stroke="rgb(0,0,0)"  stroke-width="3"/>
<line x1="95.2" y1="100.0" x2="56.0" y2="104.1" opacity="1.0" stroke="rgb(0,0,0)"  stroke-width="3"/>
<line x1="90.0" y1="107.8" x2="62.7" y2="110.7" opacity="1.0" stroke="rgb(0,0,0)"  stroke-width="3"/>
<line x1="56.0" y1="104.1" x2="40.0" y2="140.1" opacity="1.0" stroke="rgb(0,0,0)"  stroke-width="3"/>
<line x1="222.4" y1="114.9" x2="248.8" y2="85.7" opacity="1.0" stroke="rgb(0,0,0)"  stroke-width="3"/>
<line x1="248.8" y1="85.7" x2="236.6" y2="48.2" opacity="1.0" stroke="rgb(0,0,0)"  stroke-width="3"/>
<line x1="240.1" y1="82.2" x2="231.6" y2="56.1" opacity="1.0" stroke="rgb(0,0,0)"  stroke-width="3"/>
<line x1="236.6" y1="48.2" x2="198.1" y2="40.0" opacity="1.0" stroke="rgb(0,0,0)"  stroke-width="3"/>
<line x1="198.1" y1="40.0" x2="171.7" y2="69.3" opacity="1.0" stroke="rgb(0,0,0)"  stroke-width="3"/>
<line x1="199.4" y1="49.3" x2="181.1" y2="69.6" opacity="1.0" stroke="rgb(0,0,0)"  stroke-width="3"/>
<line x1="171.7" y1="69.3" x2="183.9" y2="106.7" opacity="1.0" stroke="rgb(0,0,0)"  stroke-width="3"/>
<line x1="183.9" y1="106.7" x2="222.4" y2="114.9" opacity="1.0" stroke="rgb(0,0,0)"  stroke-width="3"/>
<line x1="191.2" y1="100.9" x2="218.0" y2="106.6" opacity="1.0" stroke="rgb(0,0,0)"  stroke-width="3"/>
<text x="227.943128" y="261.322099" fill="rgb(255,181,181)" stroke-width="0" font-weight="bold" font-size="25.92" >B</text>
<text x="227.943128" y="418.886313" fill="rgb(127,178,255)" stroke-width="0" font-weight="bold" font-size="25.92" >F</text>
<text x="151.525893" y="144.009682" fill="rgb(12,12,255)" stroke-width="0" font-weight="bold" font-size="25.92" >N</text>
<text x="159.715749" y="300.713165" fill="rgb(12,12,255)" stroke-width="0" font-weight="bold" font-size="25.92" >N</text>
<text x="296.170410" y="300.713165" fill="rgb(12,12,255)" stroke-width="0" font-weight="bold" font-size="25.92" >N</text>
</svg>
</g>
</svg>
