<?xml version="1.0"?>
<svg version="1.1" id="topsvg"
xmlns="http://www.w3.org/2000/svg" xmlns:xlink="http://www.w3.org/1999/xlink"
xmlns:cml="http://www.xml-cml.org/schema" x="0" y="0" width="200px" height="200px" viewBox="0 0 100 100">
<title>GD33.sdf - Open Babel Depiction</title>
<rect x="0" y="0" width="100" height="100" fill="white"/>
<g transform="translate(0,0)">
<svg width="100" height="100" x="0" y="0" viewBox="0 0 599.615 580"
font-family="sans-serif" stroke="rgb(0,0,0)" stroke-width="3"  stroke-linecap="round">
<line x1="317.1" y1="360.0" x2="317.1" y2="400.0" opacity="1.0" stroke="rgb(0,0,0)"  stroke-width="3"/>
<line x1="282.5" y1="460.0" x2="247.8" y2="480.0" opacity="1.0" stroke="rgb(0,0,0)"  stroke-width="3"/>
<line x1="351.8" y1="460.0" x2="386.4" y2="480.0" opacity="1.0" stroke="rgb(0,0,0)"  stroke-width="3"/>
<line x1="397.7" y1="286.5" x2="421.1" y2="300.0" opacity="1.0" stroke="rgb(0,0,0)"  stroke-width="3"/>
<line x1="236.6" y1="286.5" x2="213.2" y2="300.0" opacity="1.0" stroke="rgb(0,0,0)"  stroke-width="3"/>
<line x1="247.8" y1="160.0" x2="247.8" y2="120.0" opacity="1.0" stroke="rgb(0,0,0)"  stroke-width="3"/>
<line x1="143.9" y1="340.0" x2="109.3" y2="360.0" opacity="1.0" stroke="rgb(0,0,0)"  stroke-width="3"/>
<line x1="490.3" y1="340.0" x2="525.0" y2="360.0" opacity="1.0" stroke="rgb(0,0,0)"  stroke-width="3"/>
<line x1="525.0" y1="360.0" x2="559.6" y2="340.0" opacity="1.0" stroke="rgb(0,0,0)"  stroke-width="3"/>
<line x1="525.0" y1="360.0" x2="525.0" y2="400.0" opacity="1.0" stroke="rgb(0,0,0)"  stroke-width="3"/>
<line x1="525.0" y1="360.0" x2="525.0" y2="320.0" opacity="1.0" stroke="rgb(0,0,0)"  stroke-width="3"/>
<line x1="479.4" y1="185.1" x2="519.2" y2="189.2" opacity="1.0" stroke="rgb(0,0,0)"  stroke-width="3"/>
<line x1="519.2" y1="189.2" x2="542.7" y2="156.9" opacity="1.0" stroke="rgb(0,0,0)"  stroke-width="3"/>
<line x1="519.2" y1="189.2" x2="535.5" y2="225.8" opacity="1.0" stroke="rgb(0,0,0)"  stroke-width="3"/>
<line x1="519.2" y1="189.2" x2="502.9" y2="152.7" opacity="1.0" stroke="rgb(0,0,0)"  stroke-width="3"/>
<line x1="399.9" y1="176.7" x2="373.0" y2="179.5" opacity="1.0" stroke="rgb(0,0,0)"  stroke-width="3"/>
<line x1="357.4" y1="193.6" x2="351.8" y2="220.0" opacity="1.0" stroke="rgb(0,0,0)"  stroke-width="3"/>
<line x1="351.8" y1="220.0" x2="386.4" y2="240.0" opacity="1.0" stroke="rgb(0,0,0)"  stroke-width="3"/>
<line x1="360.6" y1="216.8" x2="384.8" y2="230.8" opacity="1.0" stroke="rgb(0,0,0)"  stroke-width="3"/>
<line x1="386.4" y1="240.0" x2="416.1" y2="213.2" opacity="1.0" stroke="rgb(0,0,0)"  stroke-width="3"/>
<line x1="416.1" y1="213.2" x2="399.9" y2="176.7" opacity="1.0" stroke="rgb(0,0,0)"  stroke-width="3"/>
<line x1="407.1" y1="210.7" x2="395.7" y2="185.1" opacity="1.0" stroke="rgb(0,0,0)"  stroke-width="3"/>
<line x1="282.5" y1="340.0" x2="317.1" y2="360.0" opacity="1.0" stroke="rgb(0,0,0)"  stroke-width="3"/>
<line x1="317.1" y1="360.0" x2="351.8" y2="340.0" opacity="1.0" stroke="rgb(0,0,0)"  stroke-width="3"/>
<line x1="318.7" y1="350.8" x2="343.0" y2="336.8" opacity="1.0" stroke="rgb(0,0,0)"  stroke-width="3"/>
<line x1="351.8" y1="340.0" x2="351.8" y2="300.0" opacity="1.0" stroke="rgb(0,0,0)"  stroke-width="3"/>
<line x1="351.8" y1="300.0" x2="317.1" y2="280.0" opacity="1.0" stroke="rgb(0,0,0)"  stroke-width="3"/>
<line x1="343.0" y1="303.2" x2="318.7" y2="289.2" opacity="1.0" stroke="rgb(0,0,0)"  stroke-width="3"/>
<line x1="317.1" y1="280.0" x2="282.5" y2="300.0" opacity="1.0" stroke="rgb(0,0,0)"  stroke-width="3"/>
<line x1="282.5" y1="300.0" x2="282.5" y2="340.0" opacity="1.0" stroke="rgb(0,0,0)"  stroke-width="3"/>
<line x1="289.7" y1="306.0" x2="289.7" y2="334.0" opacity="1.0" stroke="rgb(0,0,0)"  stroke-width="3"/>
<line x1="317.1" y1="253.0" x2="317.1" y2="280.0" opacity="1.0" stroke="rgb(0,0,0)"  stroke-width="3"/>
<line x1="282.5" y1="300.0" x2="259.1" y2="286.5" opacity="1.0" stroke="rgb(0,0,0)"  stroke-width="3"/>
<line x1="247.8" y1="267.0" x2="247.8" y2="240.0" opacity="1.0" stroke="rgb(0,0,0)"  stroke-width="3"/>
<line x1="247.8" y1="240.0" x2="282.5" y2="220.0" opacity="1.0" stroke="rgb(0,0,0)"  stroke-width="3"/>
<line x1="256.6" y1="243.2" x2="280.9" y2="229.2" opacity="1.0" stroke="rgb(0,0,0)"  stroke-width="3"/>
<line x1="282.5" y1="220.0" x2="305.9" y2="233.5" opacity="1.0" stroke="rgb(0,0,0)"  stroke-width="3"/>
<line x1="213.2" y1="180.0" x2="247.8" y2="160.0" opacity="1.0" stroke="rgb(0,0,0)"  stroke-width="3"/>
<line x1="247.8" y1="160.0" x2="282.5" y2="180.0" opacity="1.0" stroke="rgb(0,0,0)"  stroke-width="3"/>
<line x1="249.4" y1="169.2" x2="273.7" y2="183.2" opacity="1.0" stroke="rgb(0,0,0)"  stroke-width="3"/>
<line x1="282.5" y1="180.0" x2="282.5" y2="220.0" opacity="1.0" stroke="rgb(0,0,0)"  stroke-width="3"/>
<line x1="247.8" y1="240.0" x2="213.2" y2="220.0" opacity="1.0" stroke="rgb(0,0,0)"  stroke-width="3"/>
<line x1="213.2" y1="220.0" x2="213.2" y2="180.0" opacity="1.0" stroke="rgb(0,0,0)"  stroke-width="3"/>
<line x1="220.4" y1="214.0" x2="220.4" y2="186.0" opacity="1.0" stroke="rgb(0,0,0)"  stroke-width="3"/>
<line x1="351.8" y1="220.0" x2="328.4" y2="233.5" opacity="1.0" stroke="rgb(0,0,0)"  stroke-width="3"/>
<line x1="351.8" y1="300.0" x2="375.2" y2="286.5" opacity="1.0" stroke="rgb(0,0,0)"  stroke-width="3"/>
<line x1="386.4" y1="267.0" x2="386.4" y2="240.0" opacity="1.0" stroke="rgb(0,0,0)"  stroke-width="3"/>
<line x1="463.2" y1="148.5" x2="423.4" y2="144.3" opacity="1.0" stroke="rgb(0,0,0)"  stroke-width="3"/>
<line x1="456.4" y1="155.0" x2="428.6" y2="152.1" opacity="1.0" stroke="rgb(0,0,0)"  stroke-width="3"/>
<line x1="423.4" y1="144.3" x2="399.9" y2="176.7" opacity="1.0" stroke="rgb(0,0,0)"  stroke-width="3"/>
<line x1="416.1" y1="213.2" x2="455.9" y2="217.4" opacity="1.0" stroke="rgb(0,0,0)"  stroke-width="3"/>
<line x1="455.9" y1="217.4" x2="479.4" y2="185.1" opacity="1.0" stroke="rgb(0,0,0)"  stroke-width="3"/>
<line x1="453.6" y1="208.3" x2="470.1" y2="185.7" opacity="1.0" stroke="rgb(0,0,0)"  stroke-width="3"/>
<line x1="479.4" y1="185.1" x2="463.2" y2="148.5" opacity="1.0" stroke="rgb(0,0,0)"  stroke-width="3"/>
<line x1="282.5" y1="433.0" x2="282.5" y2="460.0" opacity="1.0" stroke="rgb(0,0,0)"  stroke-width="3"/>
<line x1="282.5" y1="460.0" x2="305.7" y2="473.4" opacity="1.0" stroke="rgb(0,0,0)"  stroke-width="3"/>
<line x1="291.3" y1="456.8" x2="307.6" y2="466.2" opacity="1.0" stroke="rgb(0,0,0)"  stroke-width="3"/>
<line x1="328.4" y1="473.5" x2="351.8" y2="460.0" opacity="1.0" stroke="rgb(0,0,0)"  stroke-width="3"/>
<line x1="351.8" y1="460.0" x2="351.8" y2="433.2" opacity="1.0" stroke="rgb(0,0,0)"  stroke-width="3"/>
<line x1="344.6" y1="454.0" x2="344.6" y2="435.2" opacity="1.0" stroke="rgb(0,0,0)"  stroke-width="3"/>
<line x1="340.5" y1="413.5" x2="317.1" y2="400.0" opacity="1.0" stroke="rgb(0,0,0)"  stroke-width="3"/>
<line x1="317.1" y1="400.0" x2="293.9" y2="413.4" opacity="1.0" stroke="rgb(0,0,0)"  stroke-width="3"/>
<line x1="315.5" y1="409.2" x2="299.3" y2="418.6" opacity="1.0" stroke="rgb(0,0,0)"  stroke-width="3"/>
<line x1="386.4" y1="520.0" x2="421.1" y2="540.0" opacity="1.0" stroke="rgb(0,0,0)"  stroke-width="3"/>
<line x1="421.1" y1="540.0" x2="455.7" y2="520.0" opacity="1.0" stroke="rgb(0,0,0)"  stroke-width="3"/>
<line x1="422.6" y1="530.8" x2="446.9" y2="516.8" opacity="1.0" stroke="rgb(0,0,0)"  stroke-width="3"/>
<line x1="455.7" y1="520.0" x2="455.7" y2="480.0" opacity="1.0" stroke="rgb(0,0,0)"  stroke-width="3"/>
<line x1="455.7" y1="480.0" x2="421.1" y2="460.0" opacity="1.0" stroke="rgb(0,0,0)"  stroke-width="3"/>
<line x1="446.9" y1="483.2" x2="422.6" y2="469.2" opacity="1.0" stroke="rgb(0,0,0)"  stroke-width="3"/>
<line x1="421.1" y1="460.0" x2="386.4" y2="480.0" opacity="1.0" stroke="rgb(0,0,0)"  stroke-width="3"/>
<line x1="386.4" y1="480.0" x2="386.4" y2="520.0" opacity="1.0" stroke="rgb(0,0,0)"  stroke-width="3"/>
<line x1="393.6" y1="486.0" x2="393.6" y2="514.0" opacity="1.0" stroke="rgb(0,0,0)"  stroke-width="3"/>
<line x1="213.2" y1="460.0" x2="178.6" y2="480.0" opacity="1.0" stroke="rgb(0,0,0)"  stroke-width="3"/>
<line x1="178.6" y1="480.0" x2="178.6" y2="520.0" opacity="1.0" stroke="rgb(0,0,0)"  stroke-width="3"/>
<line x1="185.8" y1="486.0" x2="185.8" y2="514.0" opacity="1.0" stroke="rgb(0,0,0)"  stroke-width="3"/>
<line x1="178.6" y1="520.0" x2="213.2" y2="540.0" opacity="1.0" stroke="rgb(0,0,0)"  stroke-width="3"/>
<line x1="213.2" y1="540.0" x2="247.8" y2="520.0" opacity="1.0" stroke="rgb(0,0,0)"  stroke-width="3"/>
<line x1="214.8" y1="530.8" x2="239.0" y2="516.8" opacity="1.0" stroke="rgb(0,0,0)"  stroke-width="3"/>
<line x1="247.8" y1="520.0" x2="247.8" y2="480.0" opacity="1.0" stroke="rgb(0,0,0)"  stroke-width="3"/>
<line x1="247.8" y1="480.0" x2="213.2" y2="460.0" opacity="1.0" stroke="rgb(0,0,0)"  stroke-width="3"/>
<line x1="239.0" y1="483.2" x2="214.8" y2="469.2" opacity="1.0" stroke="rgb(0,0,0)"  stroke-width="3"/>
<line x1="178.6" y1="280.0" x2="143.9" y2="300.0" opacity="1.0" stroke="rgb(0,0,0)"  stroke-width="3"/>
<line x1="143.9" y1="300.0" x2="143.9" y2="340.0" opacity="1.0" stroke="rgb(0,0,0)"  stroke-width="3"/>
<line x1="151.1" y1="306.0" x2="151.1" y2="334.0" opacity="1.0" stroke="rgb(0,0,0)"  stroke-width="3"/>
<line x1="143.9" y1="340.0" x2="178.6" y2="360.0" opacity="1.0" stroke="rgb(0,0,0)"  stroke-width="3"/>
<line x1="178.6" y1="360.0" x2="213.2" y2="340.0" opacity="1.0" stroke="rgb(0,0,0)"  stroke-width="3"/>
<line x1="180.2" y1="350.8" x2="204.4" y2="336.8" opacity="1.0" stroke="rgb(0,0,0)"  stroke-width="3"/>
<line x1="213.2" y1="340.0" x2="213.2" y2="300.0" opacity="1.0" stroke="rgb(0,0,0)"  stroke-width="3"/>
<line x1="213.2" y1="300.0" x2="178.6" y2="280.0" opacity="1.0" stroke="rgb(0,0,0)"  stroke-width="3"/>
<line x1="204.4" y1="303.2" x2="180.2" y2="289.2" opacity="1.0" stroke="rgb(0,0,0)"  stroke-width="3"/>
<line x1="421.1" y1="340.0" x2="455.7" y2="360.0" opacity="1.0" stroke="rgb(0,0,0)"  stroke-width="3"/>
<line x1="455.7" y1="360.0" x2="490.3" y2="340.0" opacity="1.0" stroke="rgb(0,0,0)"  stroke-width="3"/>
<line x1="457.3" y1="350.8" x2="481.5" y2="336.8" opacity="1.0" stroke="rgb(0,0,0)"  stroke-width="3"/>
<line x1="490.3" y1="340.0" x2="490.3" y2="300.0" opacity="1.0" stroke="rgb(0,0,0)"  stroke-width="3"/>
<line x1="490.3" y1="300.0" x2="455.7" y2="280.0" opacity="1.0" stroke="rgb(0,0,0)"  stroke-width="3"/>
<line x1="481.5" y1="303.2" x2="457.3" y2="289.2" opacity="1.0" stroke="rgb(0,0,0)"  stroke-width="3"/>
<line x1="455.7" y1="280.0" x2="421.1" y2="300.0" opacity="1.0" stroke="rgb(0,0,0)"  stroke-width="3"/>
<line x1="421.1" y1="300.0" x2="421.1" y2="340.0" opacity="1.0" stroke="rgb(0,0,0)"  stroke-width="3"/>
<line x1="428.3" y1="306.0" x2="428.3" y2="334.0" opacity="1.0" stroke="rgb(0,0,0)"  stroke-width="3"/>
<line x1="74.6" y1="340.0" x2="40.0" y2="360.0" opacity="1.0" stroke="rgb(0,0,0)"  stroke-width="3"/>
<line x1="40.0" y1="360.0" x2="40.0" y2="400.0" opacity="1.0" stroke="rgb(0,0,0)"  stroke-width="3"/>
<line x1="47.2" y1="366.0" x2="47.2" y2="394.0" opacity="1.0" stroke="rgb(0,0,0)"  stroke-width="3"/>
<line x1="40.0" y1="400.0" x2="74.6" y2="420.0" opacity="1.0" stroke="rgb(0,0,0)"  stroke-width="3"/>
<line x1="74.6" y1="420.0" x2="109.3" y2="400.0" opacity="1.0" stroke="rgb(0,0,0)"  stroke-width="3"/>
<line x1="76.2" y1="410.8" x2="100.5" y2="396.8" opacity="1.0" stroke="rgb(0,0,0)"  stroke-width="3"/>
<line x1="109.3" y1="400.0" x2="109.3" y2="360.0" opacity="1.0" stroke="rgb(0,0,0)"  stroke-width="3"/>
<line x1="109.3" y1="360.0" x2="74.6" y2="340.0" opacity="1.0" stroke="rgb(0,0,0)"  stroke-width="3"/>
<line x1="100.5" y1="363.2" x2="76.2" y2="349.2" opacity="1.0" stroke="rgb(0,0,0)"  stroke-width="3"/>
<line x1="282.5" y1="100.0" x2="282.5" y2="60.0" opacity="1.0" stroke="rgb(0,0,0)"  stroke-width="3"/>
<line x1="282.5" y1="60.0" x2="247.8" y2="40.0" opacity="1.0" stroke="rgb(0,0,0)"  stroke-width="3"/>
<line x1="273.7" y1="63.2" x2="249.4" y2="49.2" opacity="1.0" stroke="rgb(0,0,0)"  stroke-width="3"/>
<line x1="247.8" y1="40.0" x2="213.2" y2="60.0" opacity="1.0" stroke="rgb(0,0,0)"  stroke-width="3"/>
<line x1="213.2" y1="60.0" x2="213.2" y2="100.0" opacity="1.0" stroke="rgb(0,0,0)"  stroke-width="3"/>
<line x1="220.4" y1="66.0" x2="220.4" y2="94.0" opacity="1.0" stroke="rgb(0,0,0)"  stroke-width="3"/>
<line x1="213.2" y1="100.0" x2="247.8" y2="120.0" opacity="1.0" stroke="rgb(0,0,0)"  stroke-width="3"/>
<line x1="247.8" y1="120.0" x2="282.5" y2="100.0" opacity="1.0" stroke="rgb(0,0,0)"  stroke-width="3"/>
<line x1="249.4" y1="110.8" x2="273.7" y2="96.8" opacity="1.0" stroke="rgb(0,0,0)"  stroke-width="3"/>
<text x="354.085580" y="188.874087" fill="rgb(178,178,0)" stroke-width="0" font-weight="bold" font-size="25.92" >S</text>
<text x="241.846112" y="288.000003" fill="rgb(12,12,255)" stroke-width="0" font-weight="bold" font-size="25.92" >N</text>
<text x="345.769168" y="428.000005" fill="rgb(12,12,255)" stroke-width="0" font-weight="bold" font-size="25.92" >N</text>
<text x="311.128149" y="488.000006" fill="rgb(12,12,255)" stroke-width="0" font-weight="bold" font-size="25.92" >N</text>
<text x="276.487130" y="428.000005" fill="rgb(12,12,255)" stroke-width="0" font-weight="bold" font-size="25.92" >N</text>
<text x="380.410186" y="288.000003" fill="rgb(12,12,255)" stroke-width="0" font-weight="bold" font-size="25.92" >N</text>
<text x="311.128149" y="248.000003" fill="rgb(255,181,181)" stroke-width="0" font-weight="bold" font-size="25.92" >B</text>
</svg>
</g>
</svg>
