<?xml version="1.0"?>
<svg version="1.1" id="topsvg"
xmlns="http://www.w3.org/2000/svg" xmlns:xlink="http://www.w3.org/1999/xlink"
xmlns:cml="http://www.xml-cml.org/schema" x="0" y="0" width="200px" height="200px" viewBox="0 0 100 100">
<title>GD330.sdf - Open Babel Depiction</title>
<rect x="0" y="0" width="100" height="100" fill="white"/>
<g transform="translate(0,0)">
<svg width="100" height="100" x="0" y="0" viewBox="0 0 585.3 517.893"
font-family="sans-serif" stroke="rgb(0,0,0)" stroke-width="3"  stroke-linecap="round">
<line x1="354.6" y1="117.7" x2="352.7" y2="156.6" opacity="1.0" stroke="rgb(0,0,0)"  stroke-width="3"/>
<line x1="155.1" y1="304.8" x2="173.7" y2="270.6" opacity="1.0" stroke="rgb(0,0,0)"  stroke-width="3"/>
<line x1="155.9" y1="236.0" x2="117.3" y2="231.3" opacity="1.0" stroke="rgb(0,0,0)"  stroke-width="3"/>
<line x1="445.2" y1="336.4" x2="478.0" y2="357.5" opacity="1.0" stroke="rgb(0,0,0)"  stroke-width="3"/>
<line x1="276.0" y1="347.7" x2="275.2" y2="363.9" opacity="1.0" stroke="rgb(0,0,0)"  stroke-width="3"/>
<line x1="155.9" y1="236.0" x2="181.6" y2="206.8" opacity="1.0" stroke="rgb(0,0,0)"  stroke-width="3"/>
<line x1="181.6" y1="206.8" x2="214.3" y2="227.9" opacity="1.0" stroke="rgb(0,0,0)"  stroke-width="3"/>
<line x1="182.7" y1="216.1" x2="205.3" y2="230.7" opacity="1.0" stroke="rgb(0,0,0)"  stroke-width="3"/>
<line x1="214.3" y1="227.9" x2="213.0" y2="253.7" opacity="1.0" stroke="rgb(0,0,0)"  stroke-width="3"/>
<line x1="199.5" y1="268.0" x2="173.7" y2="270.6" opacity="1.0" stroke="rgb(0,0,0)"  stroke-width="3"/>
<line x1="173.7" y1="270.6" x2="155.9" y2="236.0" opacity="1.0" stroke="rgb(0,0,0)"  stroke-width="3"/>
<line x1="177.3" y1="262.0" x2="165.0" y2="238.1" opacity="1.0" stroke="rgb(0,0,0)"  stroke-width="3"/>
<line x1="383.5" y1="216.6" x2="348.9" y2="234.4" opacity="1.0" stroke="rgb(0,0,0)"  stroke-width="3"/>
<line x1="381.5" y1="225.7" x2="357.6" y2="238.0" opacity="1.0" stroke="rgb(0,0,0)"  stroke-width="3"/>
<line x1="348.9" y1="234.4" x2="347.7" y2="260.2" opacity="1.0" stroke="rgb(0,0,0)"  stroke-width="3"/>
<line x1="358.0" y1="280.3" x2="379.8" y2="294.3" opacity="1.0" stroke="rgb(0,0,0)"  stroke-width="3"/>
<line x1="379.8" y1="294.3" x2="414.4" y2="276.5" opacity="1.0" stroke="rgb(0,0,0)"  stroke-width="3"/>
<line x1="414.4" y1="276.5" x2="383.5" y2="216.6" opacity="1.0" stroke="rgb(0,0,0)"  stroke-width="3"/>
<line x1="243.3" y1="326.7" x2="276.0" y2="347.7" opacity="1.0" stroke="rgb(0,0,0)"  stroke-width="3"/>
<line x1="276.0" y1="347.7" x2="310.6" y2="329.9" opacity="1.0" stroke="rgb(0,0,0)"  stroke-width="3"/>
<line x1="278.0" y1="338.6" x2="302.0" y2="326.3" opacity="1.0" stroke="rgb(0,0,0)"  stroke-width="3"/>
<line x1="310.6" y1="329.9" x2="312.5" y2="291.0" opacity="1.0" stroke="rgb(0,0,0)"  stroke-width="3"/>
<line x1="312.5" y1="291.0" x2="279.7" y2="270.0" opacity="1.0" stroke="rgb(0,0,0)"  stroke-width="3"/>
<line x1="303.5" y1="293.9" x2="280.9" y2="279.3" opacity="1.0" stroke="rgb(0,0,0)"  stroke-width="3"/>
<line x1="279.7" y1="270.0" x2="245.1" y2="287.8" opacity="1.0" stroke="rgb(0,0,0)"  stroke-width="3"/>
<line x1="245.1" y1="287.8" x2="243.3" y2="326.7" opacity="1.0" stroke="rgb(0,0,0)"  stroke-width="3"/>
<line x1="252.0" y1="294.1" x2="250.7" y2="321.0" opacity="1.0" stroke="rgb(0,0,0)"  stroke-width="3"/>
<line x1="281.0" y1="244.1" x2="279.7" y2="270.0" opacity="1.0" stroke="rgb(0,0,0)"  stroke-width="3"/>
<line x1="245.1" y1="287.8" x2="223.3" y2="273.8" opacity="1.0" stroke="rgb(0,0,0)"  stroke-width="3"/>
<line x1="214.3" y1="227.9" x2="248.9" y2="210.1" opacity="1.0" stroke="rgb(0,0,0)"  stroke-width="3"/>
<line x1="248.9" y1="210.1" x2="270.7" y2="224.1" opacity="1.0" stroke="rgb(0,0,0)"  stroke-width="3"/>
<line x1="447.1" y1="297.5" x2="414.4" y2="276.5" opacity="1.0" stroke="rgb(0,0,0)"  stroke-width="3"/>
<line x1="438.2" y1="300.4" x2="415.5" y2="285.8" opacity="1.0" stroke="rgb(0,0,0)"  stroke-width="3"/>
<line x1="379.8" y1="294.3" x2="377.9" y2="333.2" opacity="1.0" stroke="rgb(0,0,0)"  stroke-width="3"/>
<line x1="386.7" y1="300.6" x2="385.4" y2="327.5" opacity="1.0" stroke="rgb(0,0,0)"  stroke-width="3"/>
<line x1="377.9" y1="333.2" x2="410.6" y2="354.2" opacity="1.0" stroke="rgb(0,0,0)"  stroke-width="3"/>
<line x1="410.6" y1="354.2" x2="445.2" y2="336.4" opacity="1.0" stroke="rgb(0,0,0)"  stroke-width="3"/>
<line x1="412.7" y1="345.1" x2="436.6" y2="332.8" opacity="1.0" stroke="rgb(0,0,0)"  stroke-width="3"/>
<line x1="445.2" y1="336.4" x2="447.1" y2="297.5" opacity="1.0" stroke="rgb(0,0,0)"  stroke-width="3"/>
<line x1="316.2" y1="213.3" x2="293.2" y2="225.2" opacity="1.0" stroke="rgb(0,0,0)"  stroke-width="3"/>
<line x1="312.5" y1="291.0" x2="335.5" y2="279.2" opacity="1.0" stroke="rgb(0,0,0)"  stroke-width="3"/>
<line x1="348.9" y1="234.4" x2="316.2" y2="213.3" opacity="1.0" stroke="rgb(0,0,0)"  stroke-width="3"/>
<line x1="352.7" y1="156.6" x2="385.4" y2="177.7" opacity="1.0" stroke="rgb(0,0,0)"  stroke-width="3"/>
<line x1="353.8" y1="165.9" x2="376.5" y2="180.5" opacity="1.0" stroke="rgb(0,0,0)"  stroke-width="3"/>
<line x1="385.4" y1="177.7" x2="383.5" y2="216.6" opacity="1.0" stroke="rgb(0,0,0)"  stroke-width="3"/>
<line x1="316.2" y1="213.3" x2="318.1" y2="174.4" opacity="1.0" stroke="rgb(0,0,0)"  stroke-width="3"/>
<line x1="323.7" y1="207.7" x2="325.0" y2="180.8" opacity="1.0" stroke="rgb(0,0,0)"  stroke-width="3"/>
<line x1="318.1" y1="174.4" x2="352.7" y2="156.6" opacity="1.0" stroke="rgb(0,0,0)"  stroke-width="3"/>
<line x1="248.4" y1="430.1" x2="276.0" y2="402.6" opacity="1.0" stroke="rgb(0,0,0)"  stroke-width="3"/>
<line x1="257.7" y1="430.9" x2="276.8" y2="412.0" opacity="1.0" stroke="rgb(0,0,0)"  stroke-width="3"/>
<line x1="276.0" y1="402.6" x2="313.5" y2="412.8" opacity="1.0" stroke="rgb(0,0,0)"  stroke-width="3"/>
<line x1="313.5" y1="412.8" x2="323.5" y2="450.5" opacity="1.0" stroke="rgb(0,0,0)"  stroke-width="3"/>
<line x1="308.1" y1="420.5" x2="315.0" y2="446.5" opacity="1.0" stroke="rgb(0,0,0)"  stroke-width="3"/>
<line x1="323.5" y1="450.5" x2="295.8" y2="477.9" opacity="1.0" stroke="rgb(0,0,0)"  stroke-width="3"/>
<line x1="295.8" y1="477.9" x2="258.3" y2="467.7" opacity="1.0" stroke="rgb(0,0,0)"  stroke-width="3"/>
<line x1="291.9" y1="469.4" x2="266.0" y2="462.3" opacity="1.0" stroke="rgb(0,0,0)"  stroke-width="3"/>
<line x1="258.3" y1="467.7" x2="248.4" y2="430.1" opacity="1.0" stroke="rgb(0,0,0)"  stroke-width="3"/>
<line x1="453.9" y1="431.5" x2="423.9" y2="456.2" opacity="1.0" stroke="rgb(0,0,0)"  stroke-width="3"/>
<line x1="444.6" y1="429.7" x2="423.9" y2="446.9" opacity="1.0" stroke="rgb(0,0,0)"  stroke-width="3"/>
<line x1="423.9" y1="456.2" x2="387.4" y2="442.7" opacity="1.0" stroke="rgb(0,0,0)"  stroke-width="3"/>
<line x1="387.4" y1="442.7" x2="380.9" y2="404.3" opacity="1.0" stroke="rgb(0,0,0)"  stroke-width="3"/>
<line x1="393.5" y1="435.6" x2="389.0" y2="409.0" opacity="1.0" stroke="rgb(0,0,0)"  stroke-width="3"/>
<line x1="380.9" y1="404.3" x2="410.9" y2="379.5" opacity="1.0" stroke="rgb(0,0,0)"  stroke-width="3"/>
<line x1="410.9" y1="379.5" x2="447.4" y2="393.1" opacity="1.0" stroke="rgb(0,0,0)"  stroke-width="3"/>
<line x1="414.0" y1="388.3" x2="439.2" y2="397.7" opacity="1.0" stroke="rgb(0,0,0)"  stroke-width="3"/>
<line x1="447.4" y1="393.1" x2="453.9" y2="431.5" opacity="1.0" stroke="rgb(0,0,0)"  stroke-width="3"/>
<line x1="181.6" y1="206.8" x2="183.4" y2="167.9" opacity="1.0" stroke="rgb(0,0,0)"  stroke-width="3"/>
<line x1="183.4" y1="167.9" x2="218.0" y2="150.1" opacity="1.0" stroke="rgb(0,0,0)"  stroke-width="3"/>
<line x1="192.1" y1="171.6" x2="216.0" y2="159.3" opacity="1.0" stroke="rgb(0,0,0)"  stroke-width="3"/>
<line x1="218.0" y1="150.1" x2="250.8" y2="171.2" opacity="1.0" stroke="rgb(0,0,0)"  stroke-width="3"/>
<line x1="250.8" y1="171.2" x2="248.9" y2="210.1" opacity="1.0" stroke="rgb(0,0,0)"  stroke-width="3"/>
<line x1="243.3" y1="176.8" x2="242.0" y2="203.7" opacity="1.0" stroke="rgb(0,0,0)"  stroke-width="3"/>
<line x1="254.5" y1="93.4" x2="287.2" y2="114.5" opacity="1.0" stroke="rgb(0,0,0)"  stroke-width="3"/>
<line x1="287.2" y1="114.5" x2="285.4" y2="153.4" opacity="1.0" stroke="rgb(0,0,0)"  stroke-width="3"/>
<line x1="279.8" y1="120.1" x2="278.5" y2="147.0" opacity="1.0" stroke="rgb(0,0,0)"  stroke-width="3"/>
<line x1="285.4" y1="153.4" x2="250.8" y2="171.2" opacity="1.0" stroke="rgb(0,0,0)"  stroke-width="3"/>
<line x1="218.0" y1="150.1" x2="219.9" y2="111.2" opacity="1.0" stroke="rgb(0,0,0)"  stroke-width="3"/>
<line x1="219.9" y1="111.2" x2="254.5" y2="93.4" opacity="1.0" stroke="rgb(0,0,0)"  stroke-width="3"/>
<line x1="228.5" y1="114.9" x2="252.5" y2="102.6" opacity="1.0" stroke="rgb(0,0,0)"  stroke-width="3"/>
<line x1="102.1" y1="195.4" x2="63.4" y2="190.7" opacity="1.0" stroke="rgb(0,0,0)"  stroke-width="3"/>
<line x1="63.4" y1="190.7" x2="40.0" y2="221.8" opacity="1.0" stroke="rgb(0,0,0)"  stroke-width="3"/>
<line x1="65.6" y1="199.8" x2="49.4" y2="221.3" opacity="1.0" stroke="rgb(0,0,0)"  stroke-width="3"/>
<line x1="40.0" y1="221.8" x2="55.2" y2="257.6" opacity="1.0" stroke="rgb(0,0,0)"  stroke-width="3"/>
<line x1="55.2" y1="257.6" x2="93.8" y2="262.3" opacity="1.0" stroke="rgb(0,0,0)"  stroke-width="3"/>
<line x1="62.0" y1="251.2" x2="88.7" y2="254.5" opacity="1.0" stroke="rgb(0,0,0)"  stroke-width="3"/>
<line x1="93.8" y1="262.3" x2="117.3" y2="231.3" opacity="1.0" stroke="rgb(0,0,0)"  stroke-width="3"/>
<line x1="117.3" y1="231.3" x2="102.1" y2="195.4" opacity="1.0" stroke="rgb(0,0,0)"  stroke-width="3"/>
<line x1="108.3" y1="228.6" x2="97.8" y2="203.8" opacity="1.0" stroke="rgb(0,0,0)"  stroke-width="3"/>
<line x1="116.2" y1="305.9" x2="97.6" y2="340.1" opacity="1.0" stroke="rgb(0,0,0)"  stroke-width="3"/>
<line x1="97.6" y1="340.1" x2="118.0" y2="373.2" opacity="1.0" stroke="rgb(0,0,0)"  stroke-width="3"/>
<line x1="106.9" y1="341.4" x2="121.0" y2="364.4" opacity="1.0" stroke="rgb(0,0,0)"  stroke-width="3"/>
<line x1="118.0" y1="373.2" x2="156.9" y2="372.2" opacity="1.0" stroke="rgb(0,0,0)"  stroke-width="3"/>
<line x1="156.9" y1="372.2" x2="175.5" y2="338.0" opacity="1.0" stroke="rgb(0,0,0)"  stroke-width="3"/>
<line x1="153.4" y1="363.5" x2="166.3" y2="339.9" opacity="1.0" stroke="rgb(0,0,0)"  stroke-width="3"/>
<line x1="175.5" y1="338.0" x2="155.1" y2="304.8" opacity="1.0" stroke="rgb(0,0,0)"  stroke-width="3"/>
<line x1="155.1" y1="304.8" x2="116.2" y2="305.9" opacity="1.0" stroke="rgb(0,0,0)"  stroke-width="3"/>
<line x1="149.3" y1="312.2" x2="122.4" y2="312.9" opacity="1.0" stroke="rgb(0,0,0)"  stroke-width="3"/>
<line x1="389.2" y1="99.9" x2="391.1" y2="61.1" opacity="1.0" stroke="rgb(0,0,0)"  stroke-width="3"/>
<line x1="391.1" y1="61.1" x2="358.3" y2="40.0" opacity="1.0" stroke="rgb(0,0,0)"  stroke-width="3"/>
<line x1="382.1" y1="63.9" x2="359.5" y2="49.3" opacity="1.0" stroke="rgb(0,0,0)"  stroke-width="3"/>
<line x1="358.3" y1="40.0" x2="323.7" y2="57.8" opacity="1.0" stroke="rgb(0,0,0)"  stroke-width="3"/>
<line x1="323.7" y1="57.8" x2="321.8" y2="96.7" opacity="1.0" stroke="rgb(0,0,0)"  stroke-width="3"/>
<line x1="330.6" y1="64.2" x2="329.3" y2="91.0" opacity="1.0" stroke="rgb(0,0,0)"  stroke-width="3"/>
<line x1="321.8" y1="96.7" x2="354.6" y2="117.7" opacity="1.0" stroke="rgb(0,0,0)"  stroke-width="3"/>
<line x1="354.6" y1="117.7" x2="389.2" y2="99.9" opacity="1.0" stroke="rgb(0,0,0)"  stroke-width="3"/>
<line x1="356.6" y1="108.6" x2="380.5" y2="96.3" opacity="1.0" stroke="rgb(0,0,0)"  stroke-width="3"/>
<line x1="476.1" y1="396.4" x2="508.8" y2="417.4" opacity="1.0" stroke="rgb(0,0,0)"  stroke-width="3"/>
<line x1="508.8" y1="417.4" x2="543.4" y2="399.6" opacity="1.0" stroke="rgb(0,0,0)"  stroke-width="3"/>
<line x1="510.9" y1="408.3" x2="534.8" y2="395.9" opacity="1.0" stroke="rgb(0,0,0)"  stroke-width="3"/>
<line x1="543.4" y1="399.6" x2="545.3" y2="360.7" opacity="1.0" stroke="rgb(0,0,0)"  stroke-width="3"/>
<line x1="545.3" y1="360.7" x2="512.6" y2="339.7" opacity="1.0" stroke="rgb(0,0,0)"  stroke-width="3"/>
<line x1="536.4" y1="363.5" x2="513.7" y2="349.0" opacity="1.0" stroke="rgb(0,0,0)"  stroke-width="3"/>
<line x1="512.6" y1="339.7" x2="478.0" y2="357.5" opacity="1.0" stroke="rgb(0,0,0)"  stroke-width="3"/>
<line x1="478.0" y1="357.5" x2="476.1" y2="396.4" opacity="1.0" stroke="rgb(0,0,0)"  stroke-width="3"/>
<line x1="484.9" y1="363.8" x2="483.6" y2="390.7" opacity="1.0" stroke="rgb(0,0,0)"  stroke-width="3"/>
<line x1="387.4" y1="442.7" x2="323.5" y2="450.5" opacity="1.0" stroke="rgb(0,0,0)"  stroke-width="3"/>
<line x1="313.5" y1="412.8" x2="342.4" y2="370.4" opacity="1.0" stroke="rgb(0,0,0)"  stroke-width="3"/>
<line x1="342.4" y1="370.4" x2="380.9" y2="404.3" opacity="1.0" stroke="rgb(0,0,0)"  stroke-width="3"/>
<line x1="310.6" y1="329.9" x2="342.4" y2="370.4" opacity="1.0" stroke="rgb(0,0,0)"  stroke-width="3"/>
<line x1="342.4" y1="370.4" x2="377.9" y2="333.2" opacity="1.0" stroke="rgb(0,0,0)"  stroke-width="3"/>
<text x="206.407947" y="274.734109" fill="rgb(12,12,255)" stroke-width="0" font-weight="bold" font-size="25.92" >N</text>
<text x="268.576064" y="384.883808" fill="rgb(127,178,255)" stroke-width="0" font-weight="bold" font-size="25.92" >F</text>
<text x="341.066142" y="281.234855" fill="rgb(12,12,255)" stroke-width="0" font-weight="bold" font-size="25.92" >N</text>
<text x="275.613663" y="239.111982" fill="rgb(255,181,181)" stroke-width="0" font-weight="bold" font-size="25.92" >B</text>
</svg>
</g>
</svg>
