<?xml version="1.0"?>
<svg version="1.1" id="topsvg"
xmlns="http://www.w3.org/2000/svg" xmlns:xlink="http://www.w3.org/1999/xlink"
xmlns:cml="http://www.xml-cml.org/schema" x="0" y="0" width="200px" height="200px" viewBox="0 0 100 100">
<title>GD336.sdf - Open Babel Depiction</title>
<rect x="0" y="0" width="100" height="100" fill="white"/>
<g transform="translate(0,0)">
<svg width="100" height="100" x="0" y="0" viewBox="0 0 573.996 459.614"
font-family="sans-serif" stroke="rgb(0,0,0)" stroke-width="3"  stroke-linecap="round">
<line x1="350.6" y1="102.3" x2="385.2" y2="82.9" opacity="1.0" stroke="rgb(0,0,0)"  stroke-width="3"/>
<line x1="385.2" y1="82.9" x2="419.4" y2="103.1" opacity="1.0" stroke="rgb(0,0,0)"  stroke-width="3"/>
<line x1="385.2" y1="82.9" x2="385.7" y2="43.2" opacity="1.0" stroke="rgb(0,0,0)"  stroke-width="3"/>
<line x1="385.2" y1="82.9" x2="419.8" y2="63.4" opacity="1.0" stroke="rgb(0,0,0)"  stroke-width="3"/>
<line x1="121.9" y1="315.3" x2="101.7" y2="349.5" opacity="1.0" stroke="rgb(0,0,0)"  stroke-width="3"/>
<line x1="181.1" y1="350.4" x2="161.6" y2="315.8" opacity="1.0" stroke="rgb(0,0,0)"  stroke-width="3"/>
<line x1="144.3" y1="99.9" x2="110.1" y2="79.7" opacity="1.0" stroke="rgb(0,0,0)"  stroke-width="3"/>
<line x1="110.1" y1="79.7" x2="76.0" y2="59.5" opacity="1.0" stroke="rgb(0,0,0)"  stroke-width="3"/>
<line x1="110.1" y1="79.7" x2="75.5" y2="99.2" opacity="1.0" stroke="rgb(0,0,0)"  stroke-width="3"/>
<line x1="110.1" y1="79.7" x2="110.6" y2="40.0" opacity="1.0" stroke="rgb(0,0,0)"  stroke-width="3"/>
<line x1="460.0" y1="198.1" x2="468.6" y2="172.8" opacity="1.0" stroke="rgb(0,0,0)"  stroke-width="3"/>
<line x1="281.8" y1="101.5" x2="281.4" y2="141.2" opacity="1.0" stroke="rgb(0,0,0)"  stroke-width="3"/>
<line x1="274.6" y1="107.5" x2="274.2" y2="135.2" opacity="1.0" stroke="rgb(0,0,0)"  stroke-width="3"/>
<line x1="281.4" y1="141.2" x2="258.1" y2="154.3" opacity="1.0" stroke="rgb(0,0,0)"  stroke-width="3"/>
<line x1="235.6" y1="154.1" x2="212.6" y2="140.4" opacity="1.0" stroke="rgb(0,0,0)"  stroke-width="3"/>
<line x1="212.6" y1="140.4" x2="213.1" y2="100.7" opacity="1.0" stroke="rgb(0,0,0)"  stroke-width="3"/>
<line x1="219.9" y1="134.5" x2="220.2" y2="106.8" opacity="1.0" stroke="rgb(0,0,0)"  stroke-width="3"/>
<line x1="213.1" y1="100.7" x2="281.8" y2="101.5" opacity="1.0" stroke="rgb(0,0,0)"  stroke-width="3"/>
<line x1="478.8" y1="242.8" x2="463.4" y2="221.0" opacity="1.0" stroke="rgb(0,0,0)"  stroke-width="3"/>
<line x1="443.5" y1="214.3" x2="418.0" y2="222.2" opacity="1.0" stroke="rgb(0,0,0)"  stroke-width="3"/>
<line x1="418.0" y1="222.2" x2="417.5" y2="261.9" opacity="1.0" stroke="rgb(0,0,0)"  stroke-width="3"/>
<line x1="425.1" y1="228.3" x2="424.8" y2="256.0" opacity="1.0" stroke="rgb(0,0,0)"  stroke-width="3"/>
<line x1="417.5" y1="261.9" x2="455.1" y2="274.6" opacity="1.0" stroke="rgb(0,0,0)"  stroke-width="3"/>
<line x1="455.1" y1="274.6" x2="478.8" y2="242.8" opacity="1.0" stroke="rgb(0,0,0)"  stroke-width="3"/>
<line x1="452.9" y1="265.5" x2="469.5" y2="243.3" opacity="1.0" stroke="rgb(0,0,0)"  stroke-width="3"/>
<line x1="121.9" y1="315.3" x2="161.6" y2="315.8" opacity="1.0" stroke="rgb(0,0,0)"  stroke-width="3"/>
<line x1="128.0" y1="308.2" x2="155.7" y2="308.5" opacity="1.0" stroke="rgb(0,0,0)"  stroke-width="3"/>
<line x1="161.6" y1="315.8" x2="171.7" y2="291.0" opacity="1.0" stroke="rgb(0,0,0)"  stroke-width="3"/>
<line x1="165.4" y1="272.4" x2="142.5" y2="258.8" opacity="1.0" stroke="rgb(0,0,0)"  stroke-width="3"/>
<line x1="142.5" y1="258.8" x2="107.8" y2="278.2" opacity="1.0" stroke="rgb(0,0,0)"  stroke-width="3"/>
<line x1="140.8" y1="268.0" x2="116.6" y2="281.5" opacity="1.0" stroke="rgb(0,0,0)"  stroke-width="3"/>
<line x1="107.8" y1="278.2" x2="121.9" y2="315.3" opacity="1.0" stroke="rgb(0,0,0)"  stroke-width="3"/>
<line x1="367.9" y1="318.2" x2="328.2" y2="317.7" opacity="1.0" stroke="rgb(0,0,0)"  stroke-width="3"/>
<line x1="362.0" y1="310.9" x2="334.3" y2="310.6" opacity="1.0" stroke="rgb(0,0,0)"  stroke-width="3"/>
<line x1="328.2" y1="317.7" x2="318.8" y2="292.7" opacity="1.0" stroke="rgb(0,0,0)"  stroke-width="3"/>
<line x1="325.5" y1="274.2" x2="348.7" y2="261.1" opacity="1.0" stroke="rgb(0,0,0)"  stroke-width="3"/>
<line x1="348.7" y1="261.1" x2="382.9" y2="281.4" opacity="1.0" stroke="rgb(0,0,0)"  stroke-width="3"/>
<line x1="350.2" y1="270.4" x2="374.1" y2="284.5" opacity="1.0" stroke="rgb(0,0,0)"  stroke-width="3"/>
<line x1="382.9" y1="281.4" x2="367.9" y2="318.2" opacity="1.0" stroke="rgb(0,0,0)"  stroke-width="3"/>
<line x1="211.2" y1="259.5" x2="245.4" y2="279.8" opacity="1.0" stroke="rgb(0,0,0)"  stroke-width="3"/>
<line x1="245.4" y1="279.8" x2="280.0" y2="260.3" opacity="1.0" stroke="rgb(0,0,0)"  stroke-width="3"/>
<line x1="247.1" y1="270.6" x2="271.2" y2="257.0" opacity="1.0" stroke="rgb(0,0,0)"  stroke-width="3"/>
<line x1="280.0" y1="260.3" x2="280.4" y2="220.6" opacity="1.0" stroke="rgb(0,0,0)"  stroke-width="3"/>
<line x1="280.4" y1="220.6" x2="246.3" y2="200.4" opacity="1.0" stroke="rgb(0,0,0)"  stroke-width="3"/>
<line x1="271.6" y1="223.8" x2="247.8" y2="209.6" opacity="1.0" stroke="rgb(0,0,0)"  stroke-width="3"/>
<line x1="246.3" y1="200.4" x2="211.7" y2="219.8" opacity="1.0" stroke="rgb(0,0,0)"  stroke-width="3"/>
<line x1="211.7" y1="219.8" x2="211.2" y2="259.5" opacity="1.0" stroke="rgb(0,0,0)"  stroke-width="3"/>
<line x1="218.8" y1="225.9" x2="218.5" y2="253.6" opacity="1.0" stroke="rgb(0,0,0)"  stroke-width="3"/>
<line x1="246.6" y1="173.7" x2="246.3" y2="200.4" opacity="1.0" stroke="rgb(0,0,0)"  stroke-width="3"/>
<line x1="211.7" y1="219.8" x2="188.7" y2="206.2" opacity="1.0" stroke="rgb(0,0,0)"  stroke-width="3"/>
<line x1="177.7" y1="186.6" x2="178.0" y2="159.9" opacity="1.0" stroke="rgb(0,0,0)"  stroke-width="3"/>
<line x1="178.0" y1="159.9" x2="212.6" y2="140.4" opacity="1.0" stroke="rgb(0,0,0)"  stroke-width="3"/>
<line x1="418.0" y1="222.2" x2="383.8" y2="202.0" opacity="1.0" stroke="rgb(0,0,0)"  stroke-width="3"/>
<line x1="383.8" y1="202.0" x2="349.2" y2="221.4" opacity="1.0" stroke="rgb(0,0,0)"  stroke-width="3"/>
<line x1="382.1" y1="211.2" x2="358.0" y2="224.8" opacity="1.0" stroke="rgb(0,0,0)"  stroke-width="3"/>
<line x1="349.2" y1="221.4" x2="348.7" y2="261.1" opacity="1.0" stroke="rgb(0,0,0)"  stroke-width="3"/>
<line x1="382.9" y1="281.4" x2="417.5" y2="261.9" opacity="1.0" stroke="rgb(0,0,0)"  stroke-width="3"/>
<line x1="144.3" y1="99.9" x2="178.9" y2="80.5" opacity="1.0" stroke="rgb(0,0,0)"  stroke-width="3"/>
<line x1="153.1" y1="103.3" x2="177.2" y2="89.7" opacity="1.0" stroke="rgb(0,0,0)"  stroke-width="3"/>
<line x1="178.9" y1="80.5" x2="213.1" y2="100.7" opacity="1.0" stroke="rgb(0,0,0)"  stroke-width="3"/>
<line x1="178.0" y1="159.9" x2="143.8" y2="139.7" opacity="1.0" stroke="rgb(0,0,0)"  stroke-width="3"/>
<line x1="176.5" y1="150.6" x2="152.7" y2="136.5" opacity="1.0" stroke="rgb(0,0,0)"  stroke-width="3"/>
<line x1="143.8" y1="139.7" x2="144.3" y2="99.9" opacity="1.0" stroke="rgb(0,0,0)"  stroke-width="3"/>
<line x1="534.0" y1="283.9" x2="518.3" y2="247.4" opacity="1.0" stroke="rgb(0,0,0)"  stroke-width="3"/>
<line x1="525.0" y1="281.2" x2="514.0" y2="255.8" opacity="1.0" stroke="rgb(0,0,0)"  stroke-width="3"/>
<line x1="518.3" y1="247.4" x2="478.8" y2="242.8" opacity="1.0" stroke="rgb(0,0,0)"  stroke-width="3"/>
<line x1="455.1" y1="274.6" x2="470.9" y2="311.1" opacity="1.0" stroke="rgb(0,0,0)"  stroke-width="3"/>
<line x1="470.9" y1="311.1" x2="510.3" y2="315.7" opacity="1.0" stroke="rgb(0,0,0)"  stroke-width="3"/>
<line x1="477.6" y1="304.6" x2="505.2" y2="307.9" opacity="1.0" stroke="rgb(0,0,0)"  stroke-width="3"/>
<line x1="510.3" y1="315.7" x2="534.0" y2="283.9" opacity="1.0" stroke="rgb(0,0,0)"  stroke-width="3"/>
<line x1="166.2" y1="206.0" x2="142.9" y2="219.1" opacity="1.0" stroke="rgb(0,0,0)"  stroke-width="3"/>
<line x1="142.9" y1="219.1" x2="142.5" y2="258.8" opacity="1.0" stroke="rgb(0,0,0)"  stroke-width="3"/>
<line x1="187.9" y1="272.6" x2="211.2" y2="259.5" opacity="1.0" stroke="rgb(0,0,0)"  stroke-width="3"/>
<line x1="315.5" y1="161.5" x2="315.2" y2="188.2" opacity="1.0" stroke="rgb(0,0,0)"  stroke-width="3"/>
<line x1="303.7" y1="207.6" x2="280.4" y2="220.6" opacity="1.0" stroke="rgb(0,0,0)"  stroke-width="3"/>
<line x1="281.4" y1="141.2" x2="315.5" y2="161.5" opacity="1.0" stroke="rgb(0,0,0)"  stroke-width="3"/>
<line x1="326.2" y1="207.8" x2="349.2" y2="221.4" opacity="1.0" stroke="rgb(0,0,0)"  stroke-width="3"/>
<line x1="303.0" y1="274.0" x2="280.0" y2="260.3" opacity="1.0" stroke="rgb(0,0,0)"  stroke-width="3"/>
<line x1="367.1" y1="386.9" x2="327.4" y2="386.5" opacity="1.0" stroke="rgb(0,0,0)"  stroke-width="3"/>
<line x1="327.4" y1="386.5" x2="308.0" y2="351.9" opacity="1.0" stroke="rgb(0,0,0)"  stroke-width="3"/>
<line x1="330.8" y1="377.7" x2="317.2" y2="353.6" opacity="1.0" stroke="rgb(0,0,0)"  stroke-width="3"/>
<line x1="308.0" y1="351.9" x2="328.2" y2="317.7" opacity="1.0" stroke="rgb(0,0,0)"  stroke-width="3"/>
<line x1="367.9" y1="318.2" x2="387.4" y2="352.8" opacity="1.0" stroke="rgb(0,0,0)"  stroke-width="3"/>
<line x1="387.4" y1="352.8" x2="367.1" y2="386.9" opacity="1.0" stroke="rgb(0,0,0)"  stroke-width="3"/>
<line x1="378.1" y1="354.3" x2="364.0" y2="378.1" opacity="1.0" stroke="rgb(0,0,0)"  stroke-width="3"/>
<line x1="350.6" y1="102.3" x2="316.4" y2="82.1" opacity="1.0" stroke="rgb(0,0,0)"  stroke-width="3"/>
<line x1="341.8" y1="105.5" x2="317.9" y2="91.3" opacity="1.0" stroke="rgb(0,0,0)"  stroke-width="3"/>
<line x1="316.4" y1="82.1" x2="281.8" y2="101.5" opacity="1.0" stroke="rgb(0,0,0)"  stroke-width="3"/>
<line x1="315.5" y1="161.5" x2="350.1" y2="142.0" opacity="1.0" stroke="rgb(0,0,0)"  stroke-width="3"/>
<line x1="317.2" y1="152.3" x2="341.4" y2="138.7" opacity="1.0" stroke="rgb(0,0,0)"  stroke-width="3"/>
<line x1="350.1" y1="142.0" x2="350.6" y2="102.3" opacity="1.0" stroke="rgb(0,0,0)"  stroke-width="3"/>
<line x1="107.8" y1="278.2" x2="73.7" y2="258.0" opacity="1.0" stroke="rgb(0,0,0)"  stroke-width="3"/>
<line x1="73.7" y1="258.0" x2="74.2" y2="218.3" opacity="1.0" stroke="rgb(0,0,0)"  stroke-width="3"/>
<line x1="81.0" y1="252.0" x2="81.3" y2="224.3" opacity="1.0" stroke="rgb(0,0,0)"  stroke-width="3"/>
<line x1="74.2" y1="218.3" x2="108.8" y2="198.8" opacity="1.0" stroke="rgb(0,0,0)"  stroke-width="3"/>
<line x1="108.8" y1="198.8" x2="142.9" y2="219.1" opacity="1.0" stroke="rgb(0,0,0)"  stroke-width="3"/>
<line x1="110.3" y1="208.1" x2="134.1" y2="222.2" opacity="1.0" stroke="rgb(0,0,0)"  stroke-width="3"/>
<line x1="40.5" y1="158.3" x2="75.1" y2="138.9" opacity="1.0" stroke="rgb(0,0,0)"  stroke-width="3"/>
<line x1="75.1" y1="138.9" x2="109.2" y2="159.1" opacity="1.0" stroke="rgb(0,0,0)"  stroke-width="3"/>
<line x1="76.6" y1="148.1" x2="100.4" y2="162.2" opacity="1.0" stroke="rgb(0,0,0)"  stroke-width="3"/>
<line x1="109.2" y1="159.1" x2="108.8" y2="198.8" opacity="1.0" stroke="rgb(0,0,0)"  stroke-width="3"/>
<line x1="74.2" y1="218.3" x2="40.0" y2="198.0" opacity="1.0" stroke="rgb(0,0,0)"  stroke-width="3"/>
<line x1="40.0" y1="198.0" x2="40.5" y2="158.3" opacity="1.0" stroke="rgb(0,0,0)"  stroke-width="3"/>
<line x1="47.3" y1="192.1" x2="47.6" y2="164.4" opacity="1.0" stroke="rgb(0,0,0)"  stroke-width="3"/>
<line x1="62.0" y1="349.0" x2="41.7" y2="383.2" opacity="1.0" stroke="rgb(0,0,0)"  stroke-width="3"/>
<line x1="41.7" y1="383.2" x2="61.2" y2="417.8" opacity="1.0" stroke="rgb(0,0,0)"  stroke-width="3"/>
<line x1="51.0" y1="384.9" x2="64.5" y2="409.0" opacity="1.0" stroke="rgb(0,0,0)"  stroke-width="3"/>
<line x1="61.2" y1="417.8" x2="100.9" y2="418.2" opacity="1.0" stroke="rgb(0,0,0)"  stroke-width="3"/>
<line x1="100.9" y1="418.2" x2="121.2" y2="384.1" opacity="1.0" stroke="rgb(0,0,0)"  stroke-width="3"/>
<line x1="97.8" y1="409.4" x2="111.9" y2="385.6" opacity="1.0" stroke="rgb(0,0,0)"  stroke-width="3"/>
<line x1="121.2" y1="384.1" x2="101.7" y2="349.5" opacity="1.0" stroke="rgb(0,0,0)"  stroke-width="3"/>
<line x1="101.7" y1="349.5" x2="62.0" y2="349.0" opacity="1.0" stroke="rgb(0,0,0)"  stroke-width="3"/>
<line x1="95.6" y1="356.6" x2="67.9" y2="356.3" opacity="1.0" stroke="rgb(0,0,0)"  stroke-width="3"/>
<line x1="160.9" y1="384.5" x2="180.3" y2="419.2" opacity="1.0" stroke="rgb(0,0,0)"  stroke-width="3"/>
<line x1="180.3" y1="419.2" x2="220.0" y2="419.6" opacity="1.0" stroke="rgb(0,0,0)"  stroke-width="3"/>
<line x1="186.4" y1="412.0" x2="214.1" y2="412.3" opacity="1.0" stroke="rgb(0,0,0)"  stroke-width="3"/>
<line x1="220.0" y1="419.6" x2="240.3" y2="385.5" opacity="1.0" stroke="rgb(0,0,0)"  stroke-width="3"/>
<line x1="240.3" y1="385.5" x2="220.8" y2="350.9" opacity="1.0" stroke="rgb(0,0,0)"  stroke-width="3"/>
<line x1="231.0" y1="383.8" x2="217.5" y2="359.6" opacity="1.0" stroke="rgb(0,0,0)"  stroke-width="3"/>
<line x1="220.8" y1="350.9" x2="181.1" y2="350.4" opacity="1.0" stroke="rgb(0,0,0)"  stroke-width="3"/>
<line x1="181.1" y1="350.4" x2="160.9" y2="384.5" opacity="1.0" stroke="rgb(0,0,0)"  stroke-width="3"/>
<line x1="184.2" y1="359.2" x2="170.1" y2="383.1" opacity="1.0" stroke="rgb(0,0,0)"  stroke-width="3"/>
<line x1="507.5" y1="165.0" x2="520.2" y2="127.4" opacity="1.0" stroke="rgb(0,0,0)"  stroke-width="3"/>
<line x1="520.2" y1="127.4" x2="494.0" y2="97.6" opacity="1.0" stroke="rgb(0,0,0)"  stroke-width="3"/>
<line x1="510.8" y1="127.6" x2="492.5" y2="106.8" opacity="1.0" stroke="rgb(0,0,0)"  stroke-width="3"/>
<line x1="494.0" y1="97.6" x2="455.1" y2="105.4" opacity="1.0" stroke="rgb(0,0,0)"  stroke-width="3"/>
<line x1="455.1" y1="105.4" x2="442.4" y2="143.0" opacity="1.0" stroke="rgb(0,0,0)"  stroke-width="3"/>
<line x1="460.0" y1="113.4" x2="451.1" y2="139.6" opacity="1.0" stroke="rgb(0,0,0)"  stroke-width="3"/>
<line x1="442.4" y1="143.0" x2="468.6" y2="172.8" opacity="1.0" stroke="rgb(0,0,0)"  stroke-width="3"/>
<line x1="468.6" y1="172.8" x2="507.5" y2="165.0" opacity="1.0" stroke="rgb(0,0,0)"  stroke-width="3"/>
<line x1="473.0" y1="164.6" x2="500.2" y2="159.1" opacity="1.0" stroke="rgb(0,0,0)"  stroke-width="3"/>
<text x="449.870169" y="218.407674" fill="rgb(12,12,255)" stroke-width="0" font-weight="bold" font-size="25.92" >N</text>
<text x="170.607495" y="287.001131" fill="rgb(12,12,255)" stroke-width="0" font-weight="bold" font-size="25.92" >N</text>
<text x="308.134874" y="288.594511" fill="rgb(12,12,255)" stroke-width="0" font-weight="bold" font-size="25.92" >N</text>
<text x="309.054808" y="209.193030" fill="rgb(255,181,181)" stroke-width="0" font-weight="bold" font-size="25.92" >B</text>
<text x="171.527380" y="207.599651" fill="rgb(255,181,181)" stroke-width="0" font-weight="bold" font-size="25.92" >B</text>
<text x="240.751109" y="168.695576" fill="rgb(12,12,255)" stroke-width="0" font-weight="bold" font-size="25.92" >N</text>
</svg>
</g>
</svg>
