<?xml version="1.0"?>
<svg version="1.1" id="topsvg"
xmlns="http://www.w3.org/2000/svg" xmlns:xlink="http://www.w3.org/1999/xlink"
xmlns:cml="http://www.xml-cml.org/schema" x="0" y="0" width="200px" height="200px" viewBox="0 0 100 100">
<title>GD334.sdf - Open Babel Depiction</title>
<rect x="0" y="0" width="100" height="100" fill="white"/>
<g transform="translate(0,0)">
<svg width="100" height="100" x="0" y="0" viewBox="0 0 575.269 530.109"
font-family="sans-serif" stroke="rgb(0,0,0)" stroke-width="3"  stroke-linecap="round">
<line x1="191.6" y1="117.3" x2="173.8" y2="86.4" opacity="1.0" stroke="rgb(0,0,0)"  stroke-width="3"/>
<line x1="385.0" y1="108.4" x2="395.1" y2="74.2" opacity="1.0" stroke="rgb(0,0,0)"  stroke-width="3"/>
<line x1="465.1" y1="238.9" x2="500.2" y2="245.3" opacity="1.0" stroke="rgb(0,0,0)"  stroke-width="3"/>
<line x1="146.3" y1="263.6" x2="113.9" y2="278.5" opacity="1.0" stroke="rgb(0,0,0)"  stroke-width="3"/>
<line x1="113.9" y1="278.5" x2="81.5" y2="293.4" opacity="1.0" stroke="rgb(0,0,0)"  stroke-width="3"/>
<line x1="113.9" y1="278.5" x2="110.7" y2="314.0" opacity="1.0" stroke="rgb(0,0,0)"  stroke-width="3"/>
<line x1="113.9" y1="278.5" x2="84.8" y2="257.9" opacity="1.0" stroke="rgb(0,0,0)"  stroke-width="3"/>
<line x1="173.8" y1="86.4" x2="155.9" y2="55.6" opacity="1.0" stroke="rgb(0,0,0)"  stroke-width="3"/>
<line x1="173.8" y1="86.4" x2="138.1" y2="86.4" opacity="1.0" stroke="rgb(0,0,0)"  stroke-width="3"/>
<line x1="173.8" y1="86.4" x2="191.6" y2="55.6" opacity="1.0" stroke="rgb(0,0,0)"  stroke-width="3"/>
<line x1="395.1" y1="74.2" x2="369.9" y2="49.0" opacity="1.0" stroke="rgb(0,0,0)"  stroke-width="3"/>
<line x1="395.1" y1="74.2" x2="429.8" y2="65.8" opacity="1.0" stroke="rgb(0,0,0)"  stroke-width="3"/>
<line x1="395.1" y1="74.2" x2="405.2" y2="40.0" opacity="1.0" stroke="rgb(0,0,0)"  stroke-width="3"/>
<line x1="500.2" y1="245.3" x2="535.3" y2="251.8" opacity="1.0" stroke="rgb(0,0,0)"  stroke-width="3"/>
<line x1="500.2" y1="245.3" x2="512.1" y2="278.9" opacity="1.0" stroke="rgb(0,0,0)"  stroke-width="3"/>
<line x1="500.2" y1="245.3" x2="523.3" y2="218.2" opacity="1.0" stroke="rgb(0,0,0)"  stroke-width="3"/>
<line x1="300.8" y1="284.5" x2="300.8" y2="320.1" opacity="1.0" stroke="rgb(0,0,0)"  stroke-width="3"/>
<line x1="300.8" y1="320.1" x2="320.5" y2="331.5" opacity="1.0" stroke="rgb(0,0,0)"  stroke-width="3"/>
<line x1="300.8" y1="320.1" x2="281.1" y2="331.5" opacity="1.0" stroke="rgb(0,0,0)"  stroke-width="3"/>
<line x1="300.8" y1="320.1" x2="320.5" y2="308.7" opacity="1.0" stroke="rgb(0,0,0)"  stroke-width="3"/>
<line x1="181.9" y1="213.1" x2="192.4" y2="179.1" opacity="1.0" stroke="rgb(0,0,0)"  stroke-width="3"/>
<line x1="192.4" y1="179.1" x2="228.1" y2="178.6" opacity="1.0" stroke="rgb(0,0,0)"  stroke-width="3"/>
<line x1="198.5" y1="186.2" x2="222.2" y2="185.9" opacity="1.0" stroke="rgb(0,0,0)"  stroke-width="3"/>
<line x1="228.1" y1="178.6" x2="235.4" y2="200.0" opacity="1.0" stroke="rgb(0,0,0)"  stroke-width="3"/>
<line x1="229.1" y1="220.1" x2="211.0" y2="233.7" opacity="1.0" stroke="rgb(0,0,0)"  stroke-width="3"/>
<line x1="211.0" y1="233.7" x2="181.9" y2="213.1" opacity="1.0" stroke="rgb(0,0,0)"  stroke-width="3"/>
<line x1="210.3" y1="224.3" x2="190.9" y2="210.7" opacity="1.0" stroke="rgb(0,0,0)"  stroke-width="3"/>
<line x1="418.2" y1="198.8" x2="395.0" y2="225.9" opacity="1.0" stroke="rgb(0,0,0)"  stroke-width="3"/>
<line x1="408.8" y1="198.7" x2="393.4" y2="216.7" opacity="1.0" stroke="rgb(0,0,0)"  stroke-width="3"/>
<line x1="395.0" y1="225.9" x2="374.1" y2="217.3" opacity="1.0" stroke="rgb(0,0,0)"  stroke-width="3"/>
<line x1="363.1" y1="199.4" x2="364.8" y2="176.8" opacity="1.0" stroke="rgb(0,0,0)"  stroke-width="3"/>
<line x1="364.8" y1="176.8" x2="399.5" y2="168.4" opacity="1.0" stroke="rgb(0,0,0)"  stroke-width="3"/>
<line x1="372.4" y1="182.4" x2="395.3" y2="176.8" opacity="1.0" stroke="rgb(0,0,0)"  stroke-width="3"/>
<line x1="399.5" y1="168.4" x2="418.2" y2="198.8" opacity="1.0" stroke="rgb(0,0,0)"  stroke-width="3"/>
<line x1="269.9" y1="266.6" x2="300.8" y2="284.5" opacity="1.0" stroke="rgb(0,0,0)"  stroke-width="3"/>
<line x1="300.8" y1="284.5" x2="331.7" y2="266.6" opacity="1.0" stroke="rgb(0,0,0)"  stroke-width="3"/>
<line x1="302.4" y1="275.2" x2="322.9" y2="263.4" opacity="1.0" stroke="rgb(0,0,0)"  stroke-width="3"/>
<line x1="331.7" y1="266.6" x2="331.7" y2="231.0" opacity="1.0" stroke="rgb(0,0,0)"  stroke-width="3"/>
<line x1="331.7" y1="231.0" x2="300.8" y2="213.2" opacity="1.0" stroke="rgb(0,0,0)"  stroke-width="3"/>
<line x1="322.9" y1="234.2" x2="302.4" y2="222.4" opacity="1.0" stroke="rgb(0,0,0)"  stroke-width="3"/>
<line x1="300.8" y1="213.2" x2="269.9" y2="231.0" opacity="1.0" stroke="rgb(0,0,0)"  stroke-width="3"/>
<line x1="269.9" y1="231.0" x2="269.9" y2="266.6" opacity="1.0" stroke="rgb(0,0,0)"  stroke-width="3"/>
<line x1="277.1" y1="237.0" x2="277.1" y2="260.6" opacity="1.0" stroke="rgb(0,0,0)"  stroke-width="3"/>
<line x1="228.1" y1="178.6" x2="245.5" y2="147.5" opacity="1.0" stroke="rgb(0,0,0)"  stroke-width="3"/>
<line x1="245.5" y1="147.5" x2="289.4" y2="171.2" opacity="1.0" stroke="rgb(0,0,0)"  stroke-width="3"/>
<line x1="300.8" y1="190.4" x2="300.8" y2="213.2" opacity="1.0" stroke="rgb(0,0,0)"  stroke-width="3"/>
<line x1="269.9" y1="231.0" x2="250.6" y2="219.1" opacity="1.0" stroke="rgb(0,0,0)"  stroke-width="3"/>
<line x1="146.3" y1="263.6" x2="175.4" y2="284.1" opacity="1.0" stroke="rgb(0,0,0)"  stroke-width="3"/>
<line x1="175.4" y1="284.1" x2="207.8" y2="269.2" opacity="1.0" stroke="rgb(0,0,0)"  stroke-width="3"/>
<line x1="177.8" y1="275.1" x2="199.3" y2="265.2" opacity="1.0" stroke="rgb(0,0,0)"  stroke-width="3"/>
<line x1="207.8" y1="269.2" x2="211.0" y2="233.7" opacity="1.0" stroke="rgb(0,0,0)"  stroke-width="3"/>
<line x1="181.9" y1="213.1" x2="149.5" y2="228.1" opacity="1.0" stroke="rgb(0,0,0)"  stroke-width="3"/>
<line x1="149.5" y1="228.1" x2="146.3" y2="263.6" opacity="1.0" stroke="rgb(0,0,0)"  stroke-width="3"/>
<line x1="156.1" y1="234.7" x2="154.0" y2="258.2" opacity="1.0" stroke="rgb(0,0,0)"  stroke-width="3"/>
<line x1="351.0" y1="219.1" x2="331.7" y2="231.0" opacity="1.0" stroke="rgb(0,0,0)"  stroke-width="3"/>
<line x1="311.6" y1="170.1" x2="340.3" y2="150.9" opacity="1.0" stroke="rgb(0,0,0)"  stroke-width="3"/>
<line x1="340.3" y1="150.9" x2="364.8" y2="176.8" opacity="1.0" stroke="rgb(0,0,0)"  stroke-width="3"/>
<line x1="465.1" y1="238.9" x2="442.0" y2="266.0" opacity="1.0" stroke="rgb(0,0,0)"  stroke-width="3"/>
<line x1="442.0" y1="266.0" x2="407.0" y2="259.5" opacity="1.0" stroke="rgb(0,0,0)"  stroke-width="3"/>
<line x1="437.4" y1="257.8" x2="414.2" y2="253.5" opacity="1.0" stroke="rgb(0,0,0)"  stroke-width="3"/>
<line x1="407.0" y1="259.5" x2="395.0" y2="225.9" opacity="1.0" stroke="rgb(0,0,0)"  stroke-width="3"/>
<line x1="418.2" y1="198.8" x2="453.2" y2="205.3" opacity="1.0" stroke="rgb(0,0,0)"  stroke-width="3"/>
<line x1="453.2" y1="205.3" x2="465.1" y2="238.9" opacity="1.0" stroke="rgb(0,0,0)"  stroke-width="3"/>
<line x1="448.4" y1="213.3" x2="456.4" y2="235.6" opacity="1.0" stroke="rgb(0,0,0)"  stroke-width="3"/>
<line x1="385.0" y1="108.4" x2="350.4" y2="116.8" opacity="1.0" stroke="rgb(0,0,0)"  stroke-width="3"/>
<line x1="350.4" y1="116.8" x2="340.3" y2="150.9" opacity="1.0" stroke="rgb(0,0,0)"  stroke-width="3"/>
<line x1="355.6" y1="124.5" x2="348.9" y2="147.2" opacity="1.0" stroke="rgb(0,0,0)"  stroke-width="3"/>
<line x1="399.5" y1="168.4" x2="409.6" y2="134.2" opacity="1.0" stroke="rgb(0,0,0)"  stroke-width="3"/>
<line x1="409.6" y1="134.2" x2="385.0" y2="108.4" opacity="1.0" stroke="rgb(0,0,0)"  stroke-width="3"/>
<line x1="400.2" y1="134.8" x2="383.9" y2="117.7" opacity="1.0" stroke="rgb(0,0,0)"  stroke-width="3"/>
<line x1="192.4" y1="179.1" x2="174.2" y2="148.4" opacity="1.0" stroke="rgb(0,0,0)"  stroke-width="3"/>
<line x1="174.2" y1="148.4" x2="191.6" y2="117.3" opacity="1.0" stroke="rgb(0,0,0)"  stroke-width="3"/>
<line x1="183.4" y1="146.7" x2="195.0" y2="126.1" opacity="1.0" stroke="rgb(0,0,0)"  stroke-width="3"/>
<line x1="191.6" y1="117.3" x2="227.2" y2="116.8" opacity="1.0" stroke="rgb(0,0,0)"  stroke-width="3"/>
<line x1="227.2" y1="116.8" x2="245.5" y2="147.5" opacity="1.0" stroke="rgb(0,0,0)"  stroke-width="3"/>
<line x1="224.1" y1="125.7" x2="236.2" y2="146.0" opacity="1.0" stroke="rgb(0,0,0)"  stroke-width="3"/>
<line x1="163.5" y1="408.7" x2="164.1" y2="444.3" opacity="1.0" stroke="rgb(0,0,0)"  stroke-width="3"/>
<line x1="156.4" y1="414.8" x2="156.8" y2="438.5" opacity="1.0" stroke="rgb(0,0,0)"  stroke-width="3"/>
<line x1="164.1" y1="444.3" x2="133.6" y2="462.7" opacity="1.0" stroke="rgb(0,0,0)"  stroke-width="3"/>
<line x1="133.6" y1="462.7" x2="102.4" y2="445.5" opacity="1.0" stroke="rgb(0,0,0)"  stroke-width="3"/>
<line x1="131.8" y1="453.5" x2="111.1" y2="442.1" opacity="1.0" stroke="rgb(0,0,0)"  stroke-width="3"/>
<line x1="102.4" y1="445.5" x2="101.7" y2="409.8" opacity="1.0" stroke="rgb(0,0,0)"  stroke-width="3"/>
<line x1="101.7" y1="409.8" x2="132.3" y2="391.5" opacity="1.0" stroke="rgb(0,0,0)"  stroke-width="3"/>
<line x1="110.6" y1="412.9" x2="130.8" y2="400.7" opacity="1.0" stroke="rgb(0,0,0)"  stroke-width="3"/>
<line x1="132.3" y1="391.5" x2="163.5" y2="408.7" opacity="1.0" stroke="rgb(0,0,0)"  stroke-width="3"/>
<line x1="269.3" y1="460.9" x2="248.9" y2="490.1" opacity="1.0" stroke="rgb(0,0,0)"  stroke-width="3"/>
<line x1="248.9" y1="490.1" x2="213.3" y2="487.0" opacity="1.0" stroke="rgb(0,0,0)"  stroke-width="3"/>
<line x1="243.5" y1="482.4" x2="219.9" y2="480.4" opacity="1.0" stroke="rgb(0,0,0)"  stroke-width="3"/>
<line x1="213.3" y1="487.0" x2="198.2" y2="454.7" opacity="1.0" stroke="rgb(0,0,0)"  stroke-width="3"/>
<line x1="198.2" y1="454.7" x2="218.7" y2="425.5" opacity="1.0" stroke="rgb(0,0,0)"  stroke-width="3"/>
<line x1="207.6" y1="453.9" x2="221.1" y2="434.6" opacity="1.0" stroke="rgb(0,0,0)"  stroke-width="3"/>
<line x1="218.7" y1="425.5" x2="254.2" y2="428.6" opacity="1.0" stroke="rgb(0,0,0)"  stroke-width="3"/>
<line x1="254.2" y1="428.6" x2="269.3" y2="460.9" opacity="1.0" stroke="rgb(0,0,0)"  stroke-width="3"/>
<line x1="250.2" y1="437.1" x2="260.2" y2="458.5" opacity="1.0" stroke="rgb(0,0,0)"  stroke-width="3"/>
<line x1="40.0" y1="445.5" x2="40.0" y2="409.8" opacity="1.0" stroke="rgb(0,0,0)"  stroke-width="3"/>
<line x1="40.0" y1="409.8" x2="70.5" y2="392.6" opacity="1.0" stroke="rgb(0,0,0)"  stroke-width="3"/>
<line x1="48.8" y1="413.2" x2="68.9" y2="401.8" opacity="1.0" stroke="rgb(0,0,0)"  stroke-width="3"/>
<line x1="70.5" y1="392.6" x2="101.7" y2="409.8" opacity="1.0" stroke="rgb(0,0,0)"  stroke-width="3"/>
<line x1="102.4" y1="445.5" x2="70.5" y2="462.7" opacity="1.0" stroke="rgb(0,0,0)"  stroke-width="3"/>
<line x1="70.5" y1="462.7" x2="40.0" y2="445.5" opacity="1.0" stroke="rgb(0,0,0)"  stroke-width="3"/>
<line x1="68.9" y1="453.5" x2="48.8" y2="442.2" opacity="1.0" stroke="rgb(0,0,0)"  stroke-width="3"/>
<line x1="445.7" y1="427.3" x2="445.4" y2="391.6" opacity="1.0" stroke="rgb(0,0,0)"  stroke-width="3"/>
<line x1="452.8" y1="421.2" x2="452.6" y2="397.6" opacity="1.0" stroke="rgb(0,0,0)"  stroke-width="3"/>
<line x1="445.4" y1="391.6" x2="476.1" y2="373.6" opacity="1.0" stroke="rgb(0,0,0)"  stroke-width="3"/>
<line x1="476.1" y1="373.6" x2="507.1" y2="391.1" opacity="1.0" stroke="rgb(0,0,0)"  stroke-width="3"/>
<line x1="477.8" y1="382.8" x2="498.3" y2="394.4" opacity="1.0" stroke="rgb(0,0,0)"  stroke-width="3"/>
<line x1="507.1" y1="391.1" x2="507.4" y2="426.8" opacity="1.0" stroke="rgb(0,0,0)"  stroke-width="3"/>
<line x1="507.4" y1="426.8" x2="476.7" y2="444.9" opacity="1.0" stroke="rgb(0,0,0)"  stroke-width="3"/>
<line x1="498.6" y1="423.6" x2="478.2" y2="435.6" opacity="1.0" stroke="rgb(0,0,0)"  stroke-width="3"/>
<line x1="476.7" y1="444.9" x2="445.7" y2="427.3" opacity="1.0" stroke="rgb(0,0,0)"  stroke-width="3"/>
<line x1="355.2" y1="414.0" x2="341.0" y2="446.6" opacity="1.0" stroke="rgb(0,0,0)"  stroke-width="3"/>
<line x1="359.4" y1="422.3" x2="350.0" y2="444.0" opacity="1.0" stroke="rgb(0,0,0)"  stroke-width="3"/>
<line x1="341.0" y1="446.6" x2="362.2" y2="475.3" opacity="1.0" stroke="rgb(0,0,0)"  stroke-width="3"/>
<line x1="362.2" y1="475.3" x2="397.6" y2="471.3" opacity="1.0" stroke="rgb(0,0,0)"  stroke-width="3"/>
<line x1="367.3" y1="467.5" x2="390.8" y2="464.8" opacity="1.0" stroke="rgb(0,0,0)"  stroke-width="3"/>
<line x1="397.6" y1="471.3" x2="411.8" y2="438.6" opacity="1.0" stroke="rgb(0,0,0)"  stroke-width="3"/>
<line x1="411.8" y1="438.6" x2="390.6" y2="409.9" opacity="1.0" stroke="rgb(0,0,0)"  stroke-width="3"/>
<line x1="402.5" y1="438.1" x2="388.4" y2="419.0" opacity="1.0" stroke="rgb(0,0,0)"  stroke-width="3"/>
<line x1="390.6" y1="409.9" x2="355.2" y2="414.0" opacity="1.0" stroke="rgb(0,0,0)"  stroke-width="3"/>
<line x1="198.2" y1="454.7" x2="164.1" y2="444.3" opacity="1.0" stroke="rgb(0,0,0)"  stroke-width="3"/>
<line x1="163.5" y1="408.7" x2="197.2" y2="397.1" opacity="1.0" stroke="rgb(0,0,0)"  stroke-width="3"/>
<line x1="197.2" y1="397.1" x2="218.7" y2="425.5" opacity="1.0" stroke="rgb(0,0,0)"  stroke-width="3"/>
<line x1="411.4" y1="380.9" x2="445.4" y2="391.6" opacity="1.0" stroke="rgb(0,0,0)"  stroke-width="3"/>
<line x1="445.7" y1="427.3" x2="411.8" y2="438.6" opacity="1.0" stroke="rgb(0,0,0)"  stroke-width="3"/>
<line x1="390.6" y1="409.9" x2="411.4" y2="380.9" opacity="1.0" stroke="rgb(0,0,0)"  stroke-width="3"/>
<line x1="331.7" y1="266.6" x2="411.4" y2="380.9" opacity="1.0" stroke="rgb(0,0,0)"  stroke-width="3"/>
<line x1="411.4" y1="380.9" x2="407.0" y2="259.5" opacity="1.0" stroke="rgb(0,0,0)"  stroke-width="3"/>
<line x1="207.8" y1="269.2" x2="197.2" y2="397.1" opacity="1.0" stroke="rgb(0,0,0)"  stroke-width="3"/>
<line x1="197.2" y1="397.1" x2="269.9" y2="266.6" opacity="1.0" stroke="rgb(0,0,0)"  stroke-width="3"/>
<text x="294.818722" y="185.383154" fill="rgb(255,181,181)" stroke-width="0" font-weight="bold" font-size="25.92" >B</text>
<text x="325.801833" y="310.223836" fill="rgb(191,191,191)" stroke-width="0" font-weight="bold" font-size="25.92" >D</text>
<text x="263.835698" y="345.999999" fill="rgb(191,191,191)" stroke-width="0" font-weight="bold" font-size="25.92" >D</text>
<text x="325.801833" y="345.999999" fill="rgb(191,191,191)" stroke-width="0" font-weight="bold" font-size="25.92" >D</text>
<text x="356.071720" y="220.322329" fill="rgb(12,12,255)" stroke-width="0" font-weight="bold" font-size="25.92" >N</text>
<text x="233.561388" y="220.322329" fill="rgb(12,12,255)" stroke-width="0" font-weight="bold" font-size="25.92" >N</text>
</svg>
</g>
</svg>
