<?xml version="1.0"?>
<svg version="1.1" id="topsvg"
xmlns="http://www.w3.org/2000/svg" xmlns:xlink="http://www.w3.org/1999/xlink"
xmlns:cml="http://www.xml-cml.org/schema" x="0" y="0" width="200px" height="200px" viewBox="0 0 100 100">
<title>GD332.sdf - Open Babel Depiction</title>
<rect x="0" y="0" width="100" height="100" fill="white"/>
<g transform="translate(0,0)">
<svg width="100" height="100" x="0" y="0" viewBox="0 0 611.943 532.48"
font-family="sans-serif" stroke="rgb(0,0,0)" stroke-width="3"  stroke-linecap="round">
<line x1="192.4" y1="117.7" x2="174.5" y2="86.7" opacity="1.0" stroke="rgb(0,0,0)"  stroke-width="3"/>
<line x1="386.8" y1="108.7" x2="397.0" y2="74.4" opacity="1.0" stroke="rgb(0,0,0)"  stroke-width="3"/>
<line x1="467.4" y1="239.9" x2="502.6" y2="246.4" opacity="1.0" stroke="rgb(0,0,0)"  stroke-width="3"/>
<line x1="146.8" y1="264.7" x2="114.3" y2="279.8" opacity="1.0" stroke="rgb(0,0,0)"  stroke-width="3"/>
<line x1="114.3" y1="279.8" x2="81.7" y2="294.8" opacity="1.0" stroke="rgb(0,0,0)"  stroke-width="3"/>
<line x1="114.3" y1="279.8" x2="111.0" y2="315.4" opacity="1.0" stroke="rgb(0,0,0)"  stroke-width="3"/>
<line x1="114.3" y1="279.8" x2="85.0" y2="259.1" opacity="1.0" stroke="rgb(0,0,0)"  stroke-width="3"/>
<line x1="174.5" y1="86.7" x2="156.6" y2="55.6" opacity="1.0" stroke="rgb(0,0,0)"  stroke-width="3"/>
<line x1="174.5" y1="86.7" x2="138.6" y2="86.7" opacity="1.0" stroke="rgb(0,0,0)"  stroke-width="3"/>
<line x1="174.5" y1="86.7" x2="192.4" y2="55.6" opacity="1.0" stroke="rgb(0,0,0)"  stroke-width="3"/>
<line x1="397.0" y1="74.4" x2="371.6" y2="49.0" opacity="1.0" stroke="rgb(0,0,0)"  stroke-width="3"/>
<line x1="397.0" y1="74.4" x2="431.8" y2="66.0" opacity="1.0" stroke="rgb(0,0,0)"  stroke-width="3"/>
<line x1="397.0" y1="74.4" x2="407.1" y2="40.0" opacity="1.0" stroke="rgb(0,0,0)"  stroke-width="3"/>
<line x1="502.6" y1="246.4" x2="537.9" y2="252.9" opacity="1.0" stroke="rgb(0,0,0)"  stroke-width="3"/>
<line x1="502.6" y1="246.4" x2="514.6" y2="280.2" opacity="1.0" stroke="rgb(0,0,0)"  stroke-width="3"/>
<line x1="502.6" y1="246.4" x2="525.9" y2="219.1" opacity="1.0" stroke="rgb(0,0,0)"  stroke-width="3"/>
<line x1="302.2" y1="285.7" x2="302.2" y2="321.6" opacity="1.0" stroke="rgb(0,0,0)"  stroke-width="3"/>
<line x1="302.2" y1="321.6" x2="322.1" y2="333.1" opacity="1.0" stroke="rgb(0,0,0)"  stroke-width="3"/>
<line x1="302.2" y1="321.6" x2="282.3" y2="333.1" opacity="1.0" stroke="rgb(0,0,0)"  stroke-width="3"/>
<line x1="302.2" y1="321.6" x2="322.1" y2="310.1" opacity="1.0" stroke="rgb(0,0,0)"  stroke-width="3"/>
<line x1="182.6" y1="214.0" x2="193.2" y2="179.8" opacity="1.0" stroke="rgb(0,0,0)"  stroke-width="3"/>
<line x1="193.2" y1="179.8" x2="229.1" y2="179.3" opacity="1.0" stroke="rgb(0,0,0)"  stroke-width="3"/>
<line x1="199.3" y1="186.9" x2="223.2" y2="186.6" opacity="1.0" stroke="rgb(0,0,0)"  stroke-width="3"/>
<line x1="229.1" y1="179.3" x2="236.4" y2="200.9" opacity="1.0" stroke="rgb(0,0,0)"  stroke-width="3"/>
<line x1="230.2" y1="221.0" x2="211.9" y2="234.7" opacity="1.0" stroke="rgb(0,0,0)"  stroke-width="3"/>
<line x1="211.9" y1="234.7" x2="182.6" y2="214.0" opacity="1.0" stroke="rgb(0,0,0)"  stroke-width="3"/>
<line x1="211.2" y1="225.3" x2="191.7" y2="211.6" opacity="1.0" stroke="rgb(0,0,0)"  stroke-width="3"/>
<line x1="420.1" y1="199.6" x2="396.9" y2="226.9" opacity="1.0" stroke="rgb(0,0,0)"  stroke-width="3"/>
<line x1="410.8" y1="199.5" x2="395.3" y2="217.7" opacity="1.0" stroke="rgb(0,0,0)"  stroke-width="3"/>
<line x1="396.9" y1="226.9" x2="375.8" y2="218.2" opacity="1.0" stroke="rgb(0,0,0)"  stroke-width="3"/>
<line x1="364.8" y1="200.3" x2="366.5" y2="177.5" opacity="1.0" stroke="rgb(0,0,0)"  stroke-width="3"/>
<line x1="366.5" y1="177.5" x2="401.4" y2="169.1" opacity="1.0" stroke="rgb(0,0,0)"  stroke-width="3"/>
<line x1="374.1" y1="183.1" x2="397.2" y2="177.5" opacity="1.0" stroke="rgb(0,0,0)"  stroke-width="3"/>
<line x1="401.4" y1="169.1" x2="420.1" y2="199.6" opacity="1.0" stroke="rgb(0,0,0)"  stroke-width="3"/>
<line x1="271.2" y1="267.8" x2="302.2" y2="285.7" opacity="1.0" stroke="rgb(0,0,0)"  stroke-width="3"/>
<line x1="302.2" y1="285.7" x2="333.2" y2="267.8" opacity="1.0" stroke="rgb(0,0,0)"  stroke-width="3"/>
<line x1="303.8" y1="276.5" x2="324.4" y2="264.6" opacity="1.0" stroke="rgb(0,0,0)"  stroke-width="3"/>
<line x1="333.2" y1="267.8" x2="333.2" y2="232.0" opacity="1.0" stroke="rgb(0,0,0)"  stroke-width="3"/>
<line x1="333.2" y1="232.0" x2="302.2" y2="214.1" opacity="1.0" stroke="rgb(0,0,0)"  stroke-width="3"/>
<line x1="324.4" y1="235.2" x2="303.8" y2="223.3" opacity="1.0" stroke="rgb(0,0,0)"  stroke-width="3"/>
<line x1="302.2" y1="214.1" x2="271.2" y2="232.0" opacity="1.0" stroke="rgb(0,0,0)"  stroke-width="3"/>
<line x1="271.2" y1="232.0" x2="271.2" y2="267.8" opacity="1.0" stroke="rgb(0,0,0)"  stroke-width="3"/>
<line x1="278.4" y1="238.0" x2="278.4" y2="261.8" opacity="1.0" stroke="rgb(0,0,0)"  stroke-width="3"/>
<line x1="229.1" y1="179.3" x2="246.6" y2="148.0" opacity="1.0" stroke="rgb(0,0,0)"  stroke-width="3"/>
<line x1="246.6" y1="148.0" x2="290.8" y2="171.9" opacity="1.0" stroke="rgb(0,0,0)"  stroke-width="3"/>
<line x1="302.2" y1="191.1" x2="302.2" y2="214.1" opacity="1.0" stroke="rgb(0,0,0)"  stroke-width="3"/>
<line x1="271.2" y1="232.0" x2="251.7" y2="220.0" opacity="1.0" stroke="rgb(0,0,0)"  stroke-width="3"/>
<line x1="146.8" y1="264.7" x2="176.1" y2="285.4" opacity="1.0" stroke="rgb(0,0,0)"  stroke-width="3"/>
<line x1="176.1" y1="285.4" x2="208.6" y2="270.4" opacity="1.0" stroke="rgb(0,0,0)"  stroke-width="3"/>
<line x1="178.5" y1="276.4" x2="200.2" y2="266.4" opacity="1.0" stroke="rgb(0,0,0)"  stroke-width="3"/>
<line x1="208.6" y1="270.4" x2="211.9" y2="234.7" opacity="1.0" stroke="rgb(0,0,0)"  stroke-width="3"/>
<line x1="182.6" y1="214.0" x2="150.1" y2="229.0" opacity="1.0" stroke="rgb(0,0,0)"  stroke-width="3"/>
<line x1="150.1" y1="229.0" x2="146.8" y2="264.7" opacity="1.0" stroke="rgb(0,0,0)"  stroke-width="3"/>
<line x1="156.7" y1="235.7" x2="154.5" y2="259.4" opacity="1.0" stroke="rgb(0,0,0)"  stroke-width="3"/>
<line x1="352.7" y1="220.0" x2="333.2" y2="232.0" opacity="1.0" stroke="rgb(0,0,0)"  stroke-width="3"/>
<line x1="313.0" y1="170.9" x2="341.8" y2="151.5" opacity="1.0" stroke="rgb(0,0,0)"  stroke-width="3"/>
<line x1="341.8" y1="151.5" x2="366.5" y2="177.5" opacity="1.0" stroke="rgb(0,0,0)"  stroke-width="3"/>
<line x1="467.4" y1="239.9" x2="444.1" y2="267.2" opacity="1.0" stroke="rgb(0,0,0)"  stroke-width="3"/>
<line x1="444.1" y1="267.2" x2="408.9" y2="260.7" opacity="1.0" stroke="rgb(0,0,0)"  stroke-width="3"/>
<line x1="439.5" y1="259.0" x2="416.1" y2="254.7" opacity="1.0" stroke="rgb(0,0,0)"  stroke-width="3"/>
<line x1="408.9" y1="260.7" x2="396.9" y2="226.9" opacity="1.0" stroke="rgb(0,0,0)"  stroke-width="3"/>
<line x1="420.1" y1="199.6" x2="455.4" y2="206.1" opacity="1.0" stroke="rgb(0,0,0)"  stroke-width="3"/>
<line x1="455.4" y1="206.1" x2="467.4" y2="239.9" opacity="1.0" stroke="rgb(0,0,0)"  stroke-width="3"/>
<line x1="450.6" y1="214.2" x2="458.6" y2="236.7" opacity="1.0" stroke="rgb(0,0,0)"  stroke-width="3"/>
<line x1="386.8" y1="108.7" x2="352.0" y2="117.2" opacity="1.0" stroke="rgb(0,0,0)"  stroke-width="3"/>
<line x1="352.0" y1="117.2" x2="341.8" y2="151.5" opacity="1.0" stroke="rgb(0,0,0)"  stroke-width="3"/>
<line x1="357.2" y1="124.9" x2="350.4" y2="147.8" opacity="1.0" stroke="rgb(0,0,0)"  stroke-width="3"/>
<line x1="401.4" y1="169.1" x2="411.5" y2="134.7" opacity="1.0" stroke="rgb(0,0,0)"  stroke-width="3"/>
<line x1="411.5" y1="134.7" x2="386.8" y2="108.7" opacity="1.0" stroke="rgb(0,0,0)"  stroke-width="3"/>
<line x1="402.2" y1="135.3" x2="385.7" y2="118.1" opacity="1.0" stroke="rgb(0,0,0)"  stroke-width="3"/>
<line x1="193.2" y1="179.8" x2="174.9" y2="149.0" opacity="1.0" stroke="rgb(0,0,0)"  stroke-width="3"/>
<line x1="174.9" y1="149.0" x2="192.4" y2="117.7" opacity="1.0" stroke="rgb(0,0,0)"  stroke-width="3"/>
<line x1="184.1" y1="147.3" x2="195.7" y2="126.5" opacity="1.0" stroke="rgb(0,0,0)"  stroke-width="3"/>
<line x1="192.4" y1="117.7" x2="228.2" y2="117.2" opacity="1.0" stroke="rgb(0,0,0)"  stroke-width="3"/>
<line x1="228.2" y1="117.2" x2="246.6" y2="148.0" opacity="1.0" stroke="rgb(0,0,0)"  stroke-width="3"/>
<line x1="225.1" y1="126.1" x2="237.3" y2="146.6" opacity="1.0" stroke="rgb(0,0,0)"  stroke-width="3"/>
<line x1="164.1" y1="410.6" x2="164.8" y2="446.5" opacity="1.0" stroke="rgb(0,0,0)"  stroke-width="3"/>
<line x1="157.0" y1="416.8" x2="157.5" y2="440.6" opacity="1.0" stroke="rgb(0,0,0)"  stroke-width="3"/>
<line x1="164.8" y1="446.5" x2="134.1" y2="465.0" opacity="1.0" stroke="rgb(0,0,0)"  stroke-width="3"/>
<line x1="134.1" y1="465.0" x2="102.7" y2="447.6" opacity="1.0" stroke="rgb(0,0,0)"  stroke-width="3"/>
<line x1="132.3" y1="455.8" x2="111.5" y2="444.2" opacity="1.0" stroke="rgb(0,0,0)"  stroke-width="3"/>
<line x1="102.7" y1="447.6" x2="102.1" y2="411.8" opacity="1.0" stroke="rgb(0,0,0)"  stroke-width="3"/>
<line x1="102.1" y1="411.8" x2="132.8" y2="393.3" opacity="1.0" stroke="rgb(0,0,0)"  stroke-width="3"/>
<line x1="110.9" y1="414.9" x2="131.3" y2="402.6" opacity="1.0" stroke="rgb(0,0,0)"  stroke-width="3"/>
<line x1="132.8" y1="393.3" x2="164.1" y2="410.6" opacity="1.0" stroke="rgb(0,0,0)"  stroke-width="3"/>
<line x1="270.5" y1="463.1" x2="250.0" y2="492.5" opacity="1.0" stroke="rgb(0,0,0)"  stroke-width="3"/>
<line x1="250.0" y1="492.5" x2="214.2" y2="489.4" opacity="1.0" stroke="rgb(0,0,0)"  stroke-width="3"/>
<line x1="244.6" y1="484.8" x2="220.8" y2="482.7" opacity="1.0" stroke="rgb(0,0,0)"  stroke-width="3"/>
<line x1="214.2" y1="489.4" x2="199.1" y2="456.9" opacity="1.0" stroke="rgb(0,0,0)"  stroke-width="3"/>
<line x1="199.1" y1="456.9" x2="219.6" y2="427.5" opacity="1.0" stroke="rgb(0,0,0)"  stroke-width="3"/>
<line x1="208.4" y1="456.1" x2="222.1" y2="436.6" opacity="1.0" stroke="rgb(0,0,0)"  stroke-width="3"/>
<line x1="219.6" y1="427.5" x2="255.3" y2="430.6" opacity="1.0" stroke="rgb(0,0,0)"  stroke-width="3"/>
<line x1="255.3" y1="430.6" x2="270.5" y2="463.1" opacity="1.0" stroke="rgb(0,0,0)"  stroke-width="3"/>
<line x1="251.3" y1="439.1" x2="261.4" y2="460.7" opacity="1.0" stroke="rgb(0,0,0)"  stroke-width="3"/>
<line x1="40.0" y1="447.6" x2="40.0" y2="411.8" opacity="1.0" stroke="rgb(0,0,0)"  stroke-width="3"/>
<line x1="40.0" y1="411.8" x2="70.7" y2="394.5" opacity="1.0" stroke="rgb(0,0,0)"  stroke-width="3"/>
<line x1="48.8" y1="415.1" x2="69.0" y2="403.7" opacity="1.0" stroke="rgb(0,0,0)"  stroke-width="3"/>
<line x1="70.7" y1="394.5" x2="102.1" y2="411.8" opacity="1.0" stroke="rgb(0,0,0)"  stroke-width="3"/>
<line x1="102.7" y1="447.6" x2="70.7" y2="465.0" opacity="1.0" stroke="rgb(0,0,0)"  stroke-width="3"/>
<line x1="70.7" y1="465.0" x2="40.0" y2="447.6" opacity="1.0" stroke="rgb(0,0,0)"  stroke-width="3"/>
<line x1="69.0" y1="455.7" x2="48.8" y2="444.3" opacity="1.0" stroke="rgb(0,0,0)"  stroke-width="3"/>
<line x1="447.8" y1="429.3" x2="447.5" y2="393.5" opacity="1.0" stroke="rgb(0,0,0)"  stroke-width="3"/>
<line x1="454.9" y1="423.3" x2="454.7" y2="399.4" opacity="1.0" stroke="rgb(0,0,0)"  stroke-width="3"/>
<line x1="447.5" y1="393.5" x2="478.4" y2="375.3" opacity="1.0" stroke="rgb(0,0,0)"  stroke-width="3"/>
<line x1="478.4" y1="375.3" x2="509.6" y2="393.0" opacity="1.0" stroke="rgb(0,0,0)"  stroke-width="3"/>
<line x1="480.1" y1="384.5" x2="500.8" y2="396.3" opacity="1.0" stroke="rgb(0,0,0)"  stroke-width="3"/>
<line x1="509.6" y1="393.0" x2="509.9" y2="428.8" opacity="1.0" stroke="rgb(0,0,0)"  stroke-width="3"/>
<line x1="509.9" y1="428.8" x2="479.0" y2="447.0" opacity="1.0" stroke="rgb(0,0,0)"  stroke-width="3"/>
<line x1="501.0" y1="425.6" x2="480.5" y2="437.7" opacity="1.0" stroke="rgb(0,0,0)"  stroke-width="3"/>
<line x1="479.0" y1="447.0" x2="447.8" y2="429.3" opacity="1.0" stroke="rgb(0,0,0)"  stroke-width="3"/>
<line x1="571.9" y1="393.0" x2="571.9" y2="428.8" opacity="1.0" stroke="rgb(0,0,0)"  stroke-width="3"/>
<line x1="571.9" y1="428.8" x2="541.1" y2="446.5" opacity="1.0" stroke="rgb(0,0,0)"  stroke-width="3"/>
<line x1="563.2" y1="425.5" x2="542.7" y2="437.2" opacity="1.0" stroke="rgb(0,0,0)"  stroke-width="3"/>
<line x1="541.1" y1="446.5" x2="509.9" y2="428.8" opacity="1.0" stroke="rgb(0,0,0)"  stroke-width="3"/>
<line x1="509.6" y1="393.0" x2="541.1" y2="375.3" opacity="1.0" stroke="rgb(0,0,0)"  stroke-width="3"/>
<line x1="541.1" y1="375.3" x2="571.9" y2="393.0" opacity="1.0" stroke="rgb(0,0,0)"  stroke-width="3"/>
<line x1="542.7" y1="384.5" x2="563.2" y2="396.2" opacity="1.0" stroke="rgb(0,0,0)"  stroke-width="3"/>
<line x1="356.9" y1="415.9" x2="342.6" y2="448.8" opacity="1.0" stroke="rgb(0,0,0)"  stroke-width="3"/>
<line x1="361.1" y1="424.3" x2="351.6" y2="446.2" opacity="1.0" stroke="rgb(0,0,0)"  stroke-width="3"/>
<line x1="342.6" y1="448.8" x2="363.9" y2="477.6" opacity="1.0" stroke="rgb(0,0,0)"  stroke-width="3"/>
<line x1="363.9" y1="477.6" x2="399.5" y2="473.6" opacity="1.0" stroke="rgb(0,0,0)"  stroke-width="3"/>
<line x1="369.0" y1="469.8" x2="392.7" y2="467.1" opacity="1.0" stroke="rgb(0,0,0)"  stroke-width="3"/>
<line x1="399.5" y1="473.6" x2="413.8" y2="440.7" opacity="1.0" stroke="rgb(0,0,0)"  stroke-width="3"/>
<line x1="413.8" y1="440.7" x2="392.5" y2="411.9" opacity="1.0" stroke="rgb(0,0,0)"  stroke-width="3"/>
<line x1="404.4" y1="440.1" x2="390.3" y2="421.0" opacity="1.0" stroke="rgb(0,0,0)"  stroke-width="3"/>
<line x1="392.5" y1="411.9" x2="356.9" y2="415.9" opacity="1.0" stroke="rgb(0,0,0)"  stroke-width="3"/>
<line x1="199.1" y1="456.9" x2="164.8" y2="446.5" opacity="1.0" stroke="rgb(0,0,0)"  stroke-width="3"/>
<line x1="164.1" y1="410.6" x2="198.0" y2="398.9" opacity="1.0" stroke="rgb(0,0,0)"  stroke-width="3"/>
<line x1="198.0" y1="398.9" x2="219.6" y2="427.5" opacity="1.0" stroke="rgb(0,0,0)"  stroke-width="3"/>
<line x1="413.3" y1="382.7" x2="447.5" y2="393.5" opacity="1.0" stroke="rgb(0,0,0)"  stroke-width="3"/>
<line x1="447.8" y1="429.3" x2="413.8" y2="440.7" opacity="1.0" stroke="rgb(0,0,0)"  stroke-width="3"/>
<line x1="392.5" y1="411.9" x2="413.3" y2="382.7" opacity="1.0" stroke="rgb(0,0,0)"  stroke-width="3"/>
<line x1="333.2" y1="267.8" x2="413.3" y2="382.7" opacity="1.0" stroke="rgb(0,0,0)"  stroke-width="3"/>
<line x1="413.3" y1="382.7" x2="408.9" y2="260.7" opacity="1.0" stroke="rgb(0,0,0)"  stroke-width="3"/>
<line x1="208.6" y1="270.4" x2="198.0" y2="398.9" opacity="1.0" stroke="rgb(0,0,0)"  stroke-width="3"/>
<line x1="198.0" y1="398.9" x2="271.2" y2="267.8" opacity="1.0" stroke="rgb(0,0,0)"  stroke-width="3"/>
<text x="296.192337" y="186.106690" fill="rgb(255,181,181)" stroke-width="0" font-weight="bold" font-size="25.92" >B</text>
<text x="327.338579" y="347.569432" fill="rgb(191,191,191)" stroke-width="0" font-weight="bold" font-size="25.92" >D</text>
<text x="327.338579" y="311.604852" fill="rgb(191,191,191)" stroke-width="0" font-weight="bold" font-size="25.92" >D</text>
<text x="265.046096" y="347.569432" fill="rgb(191,191,191)" stroke-width="0" font-weight="bold" font-size="25.92" >D</text>
<text x="357.767927" y="221.229873" fill="rgb(12,12,255)" stroke-width="0" font-weight="bold" font-size="25.92" >N</text>
<text x="234.612345" y="221.229873" fill="rgb(12,12,255)" stroke-width="0" font-weight="bold" font-size="25.92" >N</text>
</svg>
</g>
</svg>
