<?xml version="1.0"?>
<svg version="1.1" id="topsvg"
xmlns="http://www.w3.org/2000/svg" xmlns:xlink="http://www.w3.org/1999/xlink"
xmlns:cml="http://www.xml-cml.org/schema" x="0" y="0" width="200px" height="200px" viewBox="0 0 100 100">
<title>GD333.sdf - Open Babel Depiction</title>
<rect x="0" y="0" width="100" height="100" fill="white"/>
<g transform="translate(0,0)">
<svg width="100" height="100" x="0" y="0" viewBox="0 0 613.795 533.643"
font-family="sans-serif" stroke="rgb(0,0,0)" stroke-width="3"  stroke-linecap="round">
<line x1="192.8" y1="117.9" x2="174.8" y2="86.8" opacity="1.0" stroke="rgb(0,0,0)"  stroke-width="3"/>
<line x1="387.7" y1="108.9" x2="397.9" y2="74.5" opacity="1.0" stroke="rgb(0,0,0)"  stroke-width="3"/>
<line x1="468.5" y1="240.4" x2="503.8" y2="246.9" opacity="1.0" stroke="rgb(0,0,0)"  stroke-width="3"/>
<line x1="147.1" y1="265.3" x2="114.5" y2="280.4" opacity="1.0" stroke="rgb(0,0,0)"  stroke-width="3"/>
<line x1="114.5" y1="280.4" x2="81.9" y2="295.4" opacity="1.0" stroke="rgb(0,0,0)"  stroke-width="3"/>
<line x1="114.5" y1="280.4" x2="111.2" y2="316.2" opacity="1.0" stroke="rgb(0,0,0)"  stroke-width="3"/>
<line x1="114.5" y1="280.4" x2="85.1" y2="259.6" opacity="1.0" stroke="rgb(0,0,0)"  stroke-width="3"/>
<line x1="174.8" y1="86.8" x2="156.9" y2="55.7" opacity="1.0" stroke="rgb(0,0,0)"  stroke-width="3"/>
<line x1="174.8" y1="86.8" x2="138.9" y2="86.8" opacity="1.0" stroke="rgb(0,0,0)"  stroke-width="3"/>
<line x1="174.8" y1="86.8" x2="192.8" y2="55.7" opacity="1.0" stroke="rgb(0,0,0)"  stroke-width="3"/>
<line x1="397.9" y1="74.5" x2="372.5" y2="49.1" opacity="1.0" stroke="rgb(0,0,0)"  stroke-width="3"/>
<line x1="397.9" y1="74.5" x2="432.8" y2="66.0" opacity="1.0" stroke="rgb(0,0,0)"  stroke-width="3"/>
<line x1="397.9" y1="74.5" x2="408.1" y2="40.0" opacity="1.0" stroke="rgb(0,0,0)"  stroke-width="3"/>
<line x1="503.8" y1="246.9" x2="539.2" y2="253.4" opacity="1.0" stroke="rgb(0,0,0)"  stroke-width="3"/>
<line x1="503.8" y1="246.9" x2="515.8" y2="280.8" opacity="1.0" stroke="rgb(0,0,0)"  stroke-width="3"/>
<line x1="503.8" y1="246.9" x2="527.1" y2="219.6" opacity="1.0" stroke="rgb(0,0,0)"  stroke-width="3"/>
<line x1="302.9" y1="286.4" x2="302.9" y2="322.3" opacity="1.0" stroke="rgb(0,0,0)"  stroke-width="3"/>
<line x1="302.9" y1="322.3" x2="322.8" y2="333.8" opacity="1.0" stroke="rgb(0,0,0)"  stroke-width="3"/>
<line x1="302.9" y1="322.3" x2="282.9" y2="333.8" opacity="1.0" stroke="rgb(0,0,0)"  stroke-width="3"/>
<line x1="302.9" y1="322.3" x2="322.8" y2="310.8" opacity="1.0" stroke="rgb(0,0,0)"  stroke-width="3"/>
<line x1="542.3" y1="376.2" x2="510.8" y2="393.9" opacity="1.0" stroke="rgb(0,0,0)"  stroke-width="3"/>
<line x1="343.4" y1="449.8" x2="307.5" y2="453.9" opacity="1.0" stroke="rgb(0,0,0)"  stroke-width="3"/>
<line x1="307.5" y1="453.9" x2="286.1" y2="424.9" opacity="1.0" stroke="rgb(0,0,0)"  stroke-width="3"/>
<line x1="307.5" y1="453.9" x2="293.1" y2="487.0" opacity="1.0" stroke="rgb(0,0,0)"  stroke-width="3"/>
<line x1="307.5" y1="453.9" x2="321.9" y2="420.8" opacity="1.0" stroke="rgb(0,0,0)"  stroke-width="3"/>
<line x1="542.3" y1="376.2" x2="573.3" y2="394.6" opacity="1.0" stroke="rgb(0,0,0)"  stroke-width="3"/>
<line x1="542.3" y1="376.2" x2="542.8" y2="340.1" opacity="1.0" stroke="rgb(0,0,0)"  stroke-width="3"/>
<line x1="542.3" y1="376.2" x2="573.8" y2="358.5" opacity="1.0" stroke="rgb(0,0,0)"  stroke-width="3"/>
<line x1="183.0" y1="214.5" x2="193.6" y2="180.1" opacity="1.0" stroke="rgb(0,0,0)"  stroke-width="3"/>
<line x1="193.6" y1="180.1" x2="229.6" y2="179.7" opacity="1.0" stroke="rgb(0,0,0)"  stroke-width="3"/>
<line x1="199.7" y1="187.3" x2="223.7" y2="186.9" opacity="1.0" stroke="rgb(0,0,0)"  stroke-width="3"/>
<line x1="229.6" y1="179.7" x2="236.9" y2="201.4" opacity="1.0" stroke="rgb(0,0,0)"  stroke-width="3"/>
<line x1="230.7" y1="221.5" x2="212.3" y2="235.2" opacity="1.0" stroke="rgb(0,0,0)"  stroke-width="3"/>
<line x1="212.3" y1="235.2" x2="183.0" y2="214.5" opacity="1.0" stroke="rgb(0,0,0)"  stroke-width="3"/>
<line x1="211.6" y1="225.8" x2="192.0" y2="212.0" opacity="1.0" stroke="rgb(0,0,0)"  stroke-width="3"/>
<line x1="421.1" y1="200.0" x2="397.8" y2="227.4" opacity="1.0" stroke="rgb(0,0,0)"  stroke-width="3"/>
<line x1="411.7" y1="199.9" x2="396.2" y2="218.2" opacity="1.0" stroke="rgb(0,0,0)"  stroke-width="3"/>
<line x1="397.8" y1="227.4" x2="376.6" y2="218.6" opacity="1.0" stroke="rgb(0,0,0)"  stroke-width="3"/>
<line x1="365.6" y1="200.7" x2="367.4" y2="177.9" opacity="1.0" stroke="rgb(0,0,0)"  stroke-width="3"/>
<line x1="367.4" y1="177.9" x2="402.3" y2="169.4" opacity="1.0" stroke="rgb(0,0,0)"  stroke-width="3"/>
<line x1="374.9" y1="183.4" x2="398.2" y2="177.8" opacity="1.0" stroke="rgb(0,0,0)"  stroke-width="3"/>
<line x1="402.3" y1="169.4" x2="421.1" y2="200.0" opacity="1.0" stroke="rgb(0,0,0)"  stroke-width="3"/>
<line x1="271.7" y1="268.4" x2="302.9" y2="286.4" opacity="1.0" stroke="rgb(0,0,0)"  stroke-width="3"/>
<line x1="302.9" y1="286.4" x2="334.0" y2="268.4" opacity="1.0" stroke="rgb(0,0,0)"  stroke-width="3"/>
<line x1="304.5" y1="277.1" x2="325.2" y2="265.2" opacity="1.0" stroke="rgb(0,0,0)"  stroke-width="3"/>
<line x1="334.0" y1="268.4" x2="334.0" y2="232.5" opacity="1.0" stroke="rgb(0,0,0)"  stroke-width="3"/>
<line x1="334.0" y1="232.5" x2="302.9" y2="214.5" opacity="1.0" stroke="rgb(0,0,0)"  stroke-width="3"/>
<line x1="325.2" y1="235.7" x2="304.5" y2="223.8" opacity="1.0" stroke="rgb(0,0,0)"  stroke-width="3"/>
<line x1="302.9" y1="214.5" x2="271.7" y2="232.5" opacity="1.0" stroke="rgb(0,0,0)"  stroke-width="3"/>
<line x1="271.7" y1="232.5" x2="271.7" y2="268.4" opacity="1.0" stroke="rgb(0,0,0)"  stroke-width="3"/>
<line x1="278.9" y1="238.5" x2="278.9" y2="262.4" opacity="1.0" stroke="rgb(0,0,0)"  stroke-width="3"/>
<line x1="229.6" y1="179.7" x2="247.1" y2="148.3" opacity="1.0" stroke="rgb(0,0,0)"  stroke-width="3"/>
<line x1="247.1" y1="148.3" x2="291.4" y2="172.3" opacity="1.0" stroke="rgb(0,0,0)"  stroke-width="3"/>
<line x1="302.9" y1="191.5" x2="302.9" y2="214.5" opacity="1.0" stroke="rgb(0,0,0)"  stroke-width="3"/>
<line x1="271.7" y1="232.5" x2="252.2" y2="220.5" opacity="1.0" stroke="rgb(0,0,0)"  stroke-width="3"/>
<line x1="147.1" y1="265.3" x2="176.5" y2="286.0" opacity="1.0" stroke="rgb(0,0,0)"  stroke-width="3"/>
<line x1="176.5" y1="286.0" x2="209.1" y2="271.0" opacity="1.0" stroke="rgb(0,0,0)"  stroke-width="3"/>
<line x1="178.9" y1="277.0" x2="200.6" y2="267.0" opacity="1.0" stroke="rgb(0,0,0)"  stroke-width="3"/>
<line x1="209.1" y1="271.0" x2="212.3" y2="235.2" opacity="1.0" stroke="rgb(0,0,0)"  stroke-width="3"/>
<line x1="183.0" y1="214.5" x2="150.4" y2="229.5" opacity="1.0" stroke="rgb(0,0,0)"  stroke-width="3"/>
<line x1="150.4" y1="229.5" x2="147.1" y2="265.3" opacity="1.0" stroke="rgb(0,0,0)"  stroke-width="3"/>
<line x1="157.0" y1="236.2" x2="154.8" y2="260.0" opacity="1.0" stroke="rgb(0,0,0)"  stroke-width="3"/>
<line x1="353.5" y1="220.5" x2="334.0" y2="232.5" opacity="1.0" stroke="rgb(0,0,0)"  stroke-width="3"/>
<line x1="313.7" y1="171.2" x2="342.6" y2="151.8" opacity="1.0" stroke="rgb(0,0,0)"  stroke-width="3"/>
<line x1="342.6" y1="151.8" x2="367.4" y2="177.9" opacity="1.0" stroke="rgb(0,0,0)"  stroke-width="3"/>
<line x1="468.5" y1="240.4" x2="445.2" y2="267.8" opacity="1.0" stroke="rgb(0,0,0)"  stroke-width="3"/>
<line x1="445.2" y1="267.8" x2="409.8" y2="261.3" opacity="1.0" stroke="rgb(0,0,0)"  stroke-width="3"/>
<line x1="440.6" y1="259.6" x2="417.0" y2="255.3" opacity="1.0" stroke="rgb(0,0,0)"  stroke-width="3"/>
<line x1="409.8" y1="261.3" x2="397.8" y2="227.4" opacity="1.0" stroke="rgb(0,0,0)"  stroke-width="3"/>
<line x1="421.1" y1="200.0" x2="456.5" y2="206.6" opacity="1.0" stroke="rgb(0,0,0)"  stroke-width="3"/>
<line x1="456.5" y1="206.6" x2="468.5" y2="240.4" opacity="1.0" stroke="rgb(0,0,0)"  stroke-width="3"/>
<line x1="451.7" y1="214.6" x2="459.7" y2="237.2" opacity="1.0" stroke="rgb(0,0,0)"  stroke-width="3"/>
<line x1="387.7" y1="108.9" x2="352.8" y2="117.4" opacity="1.0" stroke="rgb(0,0,0)"  stroke-width="3"/>
<line x1="352.8" y1="117.4" x2="342.6" y2="151.8" opacity="1.0" stroke="rgb(0,0,0)"  stroke-width="3"/>
<line x1="358.0" y1="125.1" x2="351.2" y2="148.1" opacity="1.0" stroke="rgb(0,0,0)"  stroke-width="3"/>
<line x1="402.3" y1="169.4" x2="412.5" y2="135.0" opacity="1.0" stroke="rgb(0,0,0)"  stroke-width="3"/>
<line x1="412.5" y1="135.0" x2="387.7" y2="108.9" opacity="1.0" stroke="rgb(0,0,0)"  stroke-width="3"/>
<line x1="403.1" y1="135.6" x2="386.6" y2="118.2" opacity="1.0" stroke="rgb(0,0,0)"  stroke-width="3"/>
<line x1="193.6" y1="180.1" x2="175.2" y2="149.3" opacity="1.0" stroke="rgb(0,0,0)"  stroke-width="3"/>
<line x1="175.2" y1="149.3" x2="192.8" y2="117.9" opacity="1.0" stroke="rgb(0,0,0)"  stroke-width="3"/>
<line x1="184.5" y1="147.6" x2="196.1" y2="126.7" opacity="1.0" stroke="rgb(0,0,0)"  stroke-width="3"/>
<line x1="192.8" y1="117.9" x2="228.7" y2="117.4" opacity="1.0" stroke="rgb(0,0,0)"  stroke-width="3"/>
<line x1="228.7" y1="117.4" x2="247.1" y2="148.3" opacity="1.0" stroke="rgb(0,0,0)"  stroke-width="3"/>
<line x1="225.6" y1="126.3" x2="237.8" y2="146.8" opacity="1.0" stroke="rgb(0,0,0)"  stroke-width="3"/>
<line x1="164.4" y1="411.6" x2="165.1" y2="447.5" opacity="1.0" stroke="rgb(0,0,0)"  stroke-width="3"/>
<line x1="157.4" y1="417.7" x2="157.8" y2="441.7" opacity="1.0" stroke="rgb(0,0,0)"  stroke-width="3"/>
<line x1="165.1" y1="447.5" x2="134.3" y2="466.1" opacity="1.0" stroke="rgb(0,0,0)"  stroke-width="3"/>
<line x1="134.3" y1="466.1" x2="102.9" y2="448.7" opacity="1.0" stroke="rgb(0,0,0)"  stroke-width="3"/>
<line x1="132.6" y1="456.9" x2="111.6" y2="445.3" opacity="1.0" stroke="rgb(0,0,0)"  stroke-width="3"/>
<line x1="102.9" y1="448.7" x2="102.2" y2="412.7" opacity="1.0" stroke="rgb(0,0,0)"  stroke-width="3"/>
<line x1="102.2" y1="412.7" x2="133.0" y2="394.2" opacity="1.0" stroke="rgb(0,0,0)"  stroke-width="3"/>
<line x1="111.1" y1="415.8" x2="131.6" y2="403.5" opacity="1.0" stroke="rgb(0,0,0)"  stroke-width="3"/>
<line x1="133.0" y1="394.2" x2="164.4" y2="411.6" opacity="1.0" stroke="rgb(0,0,0)"  stroke-width="3"/>
<line x1="271.1" y1="464.2" x2="250.5" y2="493.6" opacity="1.0" stroke="rgb(0,0,0)"  stroke-width="3"/>
<line x1="250.5" y1="493.6" x2="214.7" y2="490.5" opacity="1.0" stroke="rgb(0,0,0)"  stroke-width="3"/>
<line x1="245.1" y1="486.0" x2="221.3" y2="483.9" opacity="1.0" stroke="rgb(0,0,0)"  stroke-width="3"/>
<line x1="214.7" y1="490.5" x2="199.5" y2="458.0" opacity="1.0" stroke="rgb(0,0,0)"  stroke-width="3"/>
<line x1="199.5" y1="458.0" x2="220.1" y2="428.5" opacity="1.0" stroke="rgb(0,0,0)"  stroke-width="3"/>
<line x1="208.8" y1="457.2" x2="222.5" y2="437.6" opacity="1.0" stroke="rgb(0,0,0)"  stroke-width="3"/>
<line x1="220.1" y1="428.5" x2="255.9" y2="431.6" opacity="1.0" stroke="rgb(0,0,0)"  stroke-width="3"/>
<line x1="255.9" y1="431.6" x2="271.1" y2="464.2" opacity="1.0" stroke="rgb(0,0,0)"  stroke-width="3"/>
<line x1="251.9" y1="440.1" x2="262.0" y2="461.8" opacity="1.0" stroke="rgb(0,0,0)"  stroke-width="3"/>
<line x1="40.0" y1="448.7" x2="40.0" y2="412.7" opacity="1.0" stroke="rgb(0,0,0)"  stroke-width="3"/>
<line x1="40.0" y1="412.7" x2="70.8" y2="395.4" opacity="1.0" stroke="rgb(0,0,0)"  stroke-width="3"/>
<line x1="48.8" y1="416.1" x2="69.1" y2="404.6" opacity="1.0" stroke="rgb(0,0,0)"  stroke-width="3"/>
<line x1="70.8" y1="395.4" x2="102.2" y2="412.7" opacity="1.0" stroke="rgb(0,0,0)"  stroke-width="3"/>
<line x1="102.9" y1="448.7" x2="70.8" y2="466.1" opacity="1.0" stroke="rgb(0,0,0)"  stroke-width="3"/>
<line x1="70.8" y1="466.1" x2="40.0" y2="448.7" opacity="1.0" stroke="rgb(0,0,0)"  stroke-width="3"/>
<line x1="69.1" y1="456.8" x2="48.8" y2="445.4" opacity="1.0" stroke="rgb(0,0,0)"  stroke-width="3"/>
<line x1="448.8" y1="430.3" x2="448.5" y2="394.4" opacity="1.0" stroke="rgb(0,0,0)"  stroke-width="3"/>
<line x1="456.0" y1="424.3" x2="455.8" y2="400.3" opacity="1.0" stroke="rgb(0,0,0)"  stroke-width="3"/>
<line x1="448.5" y1="394.4" x2="479.5" y2="376.2" opacity="1.0" stroke="rgb(0,0,0)"  stroke-width="3"/>
<line x1="479.5" y1="376.2" x2="510.8" y2="393.9" opacity="1.0" stroke="rgb(0,0,0)"  stroke-width="3"/>
<line x1="481.2" y1="385.4" x2="502.0" y2="397.2" opacity="1.0" stroke="rgb(0,0,0)"  stroke-width="3"/>
<line x1="510.8" y1="393.9" x2="511.1" y2="429.8" opacity="1.0" stroke="rgb(0,0,0)"  stroke-width="3"/>
<line x1="511.1" y1="429.8" x2="480.1" y2="448.0" opacity="1.0" stroke="rgb(0,0,0)"  stroke-width="3"/>
<line x1="502.3" y1="426.6" x2="481.6" y2="438.8" opacity="1.0" stroke="rgb(0,0,0)"  stroke-width="3"/>
<line x1="480.1" y1="448.0" x2="448.8" y2="430.3" opacity="1.0" stroke="rgb(0,0,0)"  stroke-width="3"/>
<line x1="357.7" y1="416.9" x2="343.4" y2="449.8" opacity="1.0" stroke="rgb(0,0,0)"  stroke-width="3"/>
<line x1="361.9" y1="425.3" x2="352.4" y2="447.2" opacity="1.0" stroke="rgb(0,0,0)"  stroke-width="3"/>
<line x1="343.4" y1="449.8" x2="364.7" y2="478.7" opacity="1.0" stroke="rgb(0,0,0)"  stroke-width="3"/>
<line x1="364.7" y1="478.7" x2="400.4" y2="474.7" opacity="1.0" stroke="rgb(0,0,0)"  stroke-width="3"/>
<line x1="369.9" y1="470.9" x2="393.7" y2="468.2" opacity="1.0" stroke="rgb(0,0,0)"  stroke-width="3"/>
<line x1="400.4" y1="474.7" x2="414.8" y2="441.7" opacity="1.0" stroke="rgb(0,0,0)"  stroke-width="3"/>
<line x1="414.8" y1="441.7" x2="393.4" y2="412.8" opacity="1.0" stroke="rgb(0,0,0)"  stroke-width="3"/>
<line x1="405.4" y1="441.2" x2="391.2" y2="421.9" opacity="1.0" stroke="rgb(0,0,0)"  stroke-width="3"/>
<line x1="393.4" y1="412.8" x2="357.7" y2="416.9" opacity="1.0" stroke="rgb(0,0,0)"  stroke-width="3"/>
<line x1="199.5" y1="458.0" x2="165.1" y2="447.5" opacity="1.0" stroke="rgb(0,0,0)"  stroke-width="3"/>
<line x1="164.4" y1="411.6" x2="198.4" y2="399.9" opacity="1.0" stroke="rgb(0,0,0)"  stroke-width="3"/>
<line x1="198.4" y1="399.9" x2="220.1" y2="428.5" opacity="1.0" stroke="rgb(0,0,0)"  stroke-width="3"/>
<line x1="414.3" y1="383.6" x2="448.5" y2="394.4" opacity="1.0" stroke="rgb(0,0,0)"  stroke-width="3"/>
<line x1="448.8" y1="430.3" x2="414.8" y2="441.7" opacity="1.0" stroke="rgb(0,0,0)"  stroke-width="3"/>
<line x1="393.4" y1="412.8" x2="414.3" y2="383.6" opacity="1.0" stroke="rgb(0,0,0)"  stroke-width="3"/>
<line x1="334.0" y1="268.4" x2="414.3" y2="383.6" opacity="1.0" stroke="rgb(0,0,0)"  stroke-width="3"/>
<line x1="414.3" y1="383.6" x2="409.8" y2="261.3" opacity="1.0" stroke="rgb(0,0,0)"  stroke-width="3"/>
<line x1="209.1" y1="271.0" x2="198.4" y2="399.9" opacity="1.0" stroke="rgb(0,0,0)"  stroke-width="3"/>
<line x1="198.4" y1="399.9" x2="271.7" y2="268.4" opacity="1.0" stroke="rgb(0,0,0)"  stroke-width="3"/>
<text x="328.092875" y="312.282690" fill="rgb(191,191,191)" stroke-width="0" font-weight="bold" font-size="25.92" >D</text>
<text x="265.640256" y="348.339750" fill="rgb(191,191,191)" stroke-width="0" font-weight="bold" font-size="25.92" >D</text>
<text x="328.092875" y="348.339750" fill="rgb(191,191,191)" stroke-width="0" font-weight="bold" font-size="25.92" >D</text>
<text x="358.600470" y="221.675319" fill="rgb(12,12,255)" stroke-width="0" font-weight="bold" font-size="25.92" >N</text>
<text x="235.128247" y="221.675319" fill="rgb(12,12,255)" stroke-width="0" font-weight="bold" font-size="25.92" >N</text>
<text x="296.866544" y="186.461820" fill="rgb(255,181,181)" stroke-width="0" font-weight="bold" font-size="25.92" >B</text>
</svg>
</g>
</svg>
