<?xml version="1.0"?>
<svg version="1.1" id="topsvg"
xmlns="http://www.w3.org/2000/svg" xmlns:xlink="http://www.w3.org/1999/xlink"
xmlns:cml="http://www.xml-cml.org/schema" x="0" y="0" width="200px" height="200px" viewBox="0 0 100 100">
<title>GD339.sdf - Open Babel Depiction</title>
<rect x="0" y="0" width="100" height="100" fill="white"/>
<g transform="translate(0,0)">
<svg width="100" height="100" x="0" y="0" viewBox="0 0 626.589 648.59"
font-family="sans-serif" stroke="rgb(0,0,0)" stroke-width="3"  stroke-linecap="round">
<line x1="318.1" y1="325.8" x2="294.7" y2="325.8" opacity="1.0" stroke="rgb(0,0,0)"  stroke-width="3"/>
<line x1="318.1" y1="325.8" x2="318.1" y2="349.2" opacity="1.0" stroke="rgb(0,0,0)"  stroke-width="3"/>
<line x1="318.1" y1="325.8" x2="341.5" y2="325.8" opacity="1.0" stroke="rgb(0,0,0)"  stroke-width="3"/>
<line x1="318.1" y1="289.4" x2="318.1" y2="325.8" opacity="1.0" stroke="rgb(0,0,0)"  stroke-width="3"/>
<line x1="206.6" y1="118.9" x2="188.4" y2="87.4" opacity="1.0" stroke="rgb(0,0,0)"  stroke-width="3"/>
<line x1="404.0" y1="109.8" x2="414.3" y2="74.9" opacity="1.0" stroke="rgb(0,0,0)"  stroke-width="3"/>
<line x1="485.8" y1="242.9" x2="521.5" y2="249.5" opacity="1.0" stroke="rgb(0,0,0)"  stroke-width="3"/>
<line x1="160.4" y1="268.1" x2="127.3" y2="283.4" opacity="1.0" stroke="rgb(0,0,0)"  stroke-width="3"/>
<line x1="127.3" y1="283.4" x2="94.3" y2="298.6" opacity="1.0" stroke="rgb(0,0,0)"  stroke-width="3"/>
<line x1="127.3" y1="283.4" x2="124.0" y2="319.6" opacity="1.0" stroke="rgb(0,0,0)"  stroke-width="3"/>
<line x1="127.3" y1="283.4" x2="97.6" y2="262.4" opacity="1.0" stroke="rgb(0,0,0)"  stroke-width="3"/>
<line x1="188.4" y1="87.4" x2="170.2" y2="55.9" opacity="1.0" stroke="rgb(0,0,0)"  stroke-width="3"/>
<line x1="188.4" y1="87.4" x2="152.1" y2="87.4" opacity="1.0" stroke="rgb(0,0,0)"  stroke-width="3"/>
<line x1="188.4" y1="87.4" x2="206.6" y2="55.9" opacity="1.0" stroke="rgb(0,0,0)"  stroke-width="3"/>
<line x1="414.3" y1="74.9" x2="388.6" y2="49.2" opacity="1.0" stroke="rgb(0,0,0)"  stroke-width="3"/>
<line x1="414.3" y1="74.9" x2="449.6" y2="66.4" opacity="1.0" stroke="rgb(0,0,0)"  stroke-width="3"/>
<line x1="414.3" y1="74.9" x2="424.6" y2="40.0" opacity="1.0" stroke="rgb(0,0,0)"  stroke-width="3"/>
<line x1="521.5" y1="249.5" x2="557.3" y2="256.1" opacity="1.0" stroke="rgb(0,0,0)"  stroke-width="3"/>
<line x1="521.5" y1="249.5" x2="533.7" y2="283.8" opacity="1.0" stroke="rgb(0,0,0)"  stroke-width="3"/>
<line x1="521.5" y1="249.5" x2="545.1" y2="221.8" opacity="1.0" stroke="rgb(0,0,0)"  stroke-width="3"/>
<line x1="116.3" y1="394.2" x2="91.3" y2="367.5" opacity="1.0" stroke="rgb(0,0,0)"  stroke-width="3"/>
<line x1="91.3" y1="367.5" x2="102.0" y2="332.6" opacity="1.0" stroke="rgb(0,0,0)"  stroke-width="3"/>
<line x1="91.3" y1="367.5" x2="55.8" y2="375.7" opacity="1.0" stroke="rgb(0,0,0)"  stroke-width="3"/>
<line x1="91.3" y1="367.5" x2="126.9" y2="359.2" opacity="1.0" stroke="rgb(0,0,0)"  stroke-width="3"/>
<line x1="102.8" y1="550.4" x2="73.6" y2="572.4" opacity="1.0" stroke="rgb(0,0,0)"  stroke-width="3"/>
<line x1="73.6" y1="572.4" x2="40.0" y2="558.1" opacity="1.0" stroke="rgb(0,0,0)"  stroke-width="3"/>
<line x1="73.6" y1="572.4" x2="78.1" y2="608.6" opacity="1.0" stroke="rgb(0,0,0)"  stroke-width="3"/>
<line x1="73.6" y1="572.4" x2="69.1" y2="536.1" opacity="1.0" stroke="rgb(0,0,0)"  stroke-width="3"/>
<line x1="526.6" y1="375.1" x2="550.8" y2="347.8" opacity="1.0" stroke="rgb(0,0,0)"  stroke-width="3"/>
<line x1="550.8" y1="347.8" x2="539.2" y2="313.2" opacity="1.0" stroke="rgb(0,0,0)"  stroke-width="3"/>
<line x1="550.8" y1="347.8" x2="586.6" y2="355.1" opacity="1.0" stroke="rgb(0,0,0)"  stroke-width="3"/>
<line x1="550.8" y1="347.8" x2="575.0" y2="320.4" opacity="1.0" stroke="rgb(0,0,0)"  stroke-width="3"/>
<line x1="521.8" y1="542.4" x2="546.5" y2="569.3" opacity="1.0" stroke="rgb(0,0,0)"  stroke-width="3"/>
<line x1="546.5" y1="569.3" x2="535.5" y2="604.2" opacity="1.0" stroke="rgb(0,0,0)"  stroke-width="3"/>
<line x1="546.5" y1="569.3" x2="582.1" y2="561.5" opacity="1.0" stroke="rgb(0,0,0)"  stroke-width="3"/>
<line x1="546.5" y1="569.3" x2="557.5" y2="534.5" opacity="1.0" stroke="rgb(0,0,0)"  stroke-width="3"/>
<line x1="196.7" y1="216.6" x2="207.5" y2="181.9" opacity="1.0" stroke="rgb(0,0,0)"  stroke-width="3"/>
<line x1="207.5" y1="181.9" x2="243.9" y2="181.4" opacity="1.0" stroke="rgb(0,0,0)"  stroke-width="3"/>
<line x1="213.6" y1="189.0" x2="238.0" y2="188.7" opacity="1.0" stroke="rgb(0,0,0)"  stroke-width="3"/>
<line x1="243.9" y1="181.4" x2="251.4" y2="203.5" opacity="1.0" stroke="rgb(0,0,0)"  stroke-width="3"/>
<line x1="245.2" y1="223.6" x2="226.4" y2="237.6" opacity="1.0" stroke="rgb(0,0,0)"  stroke-width="3"/>
<line x1="226.4" y1="237.6" x2="196.7" y2="216.6" opacity="1.0" stroke="rgb(0,0,0)"  stroke-width="3"/>
<line x1="225.7" y1="228.3" x2="205.8" y2="214.2" opacity="1.0" stroke="rgb(0,0,0)"  stroke-width="3"/>
<line x1="437.8" y1="202.0" x2="414.2" y2="229.7" opacity="1.0" stroke="rgb(0,0,0)"  stroke-width="3"/>
<line x1="428.4" y1="201.9" x2="412.6" y2="220.5" opacity="1.0" stroke="rgb(0,0,0)"  stroke-width="3"/>
<line x1="414.2" y1="229.7" x2="392.6" y2="220.8" opacity="1.0" stroke="rgb(0,0,0)"  stroke-width="3"/>
<line x1="381.6" y1="202.9" x2="383.4" y2="179.6" opacity="1.0" stroke="rgb(0,0,0)"  stroke-width="3"/>
<line x1="383.4" y1="179.6" x2="418.8" y2="171.0" opacity="1.0" stroke="rgb(0,0,0)"  stroke-width="3"/>
<line x1="390.9" y1="185.2" x2="414.6" y2="179.4" opacity="1.0" stroke="rgb(0,0,0)"  stroke-width="3"/>
<line x1="418.8" y1="171.0" x2="437.8" y2="202.0" opacity="1.0" stroke="rgb(0,0,0)"  stroke-width="3"/>
<line x1="127.4" y1="492.1" x2="161.0" y2="506.4" opacity="1.0" stroke="rgb(0,0,0)"  stroke-width="3"/>
<line x1="135.7" y1="487.8" x2="158.3" y2="497.4" opacity="1.0" stroke="rgb(0,0,0)"  stroke-width="3"/>
<line x1="161.0" y1="506.4" x2="182.2" y2="483.7" opacity="1.0" stroke="rgb(0,0,0)"  stroke-width="3"/>
<line x1="182.2" y1="464.7" x2="166.1" y2="447.5" opacity="1.0" stroke="rgb(0,0,0)"  stroke-width="3"/>
<line x1="166.1" y1="447.5" x2="130.6" y2="455.8" opacity="1.0" stroke="rgb(0,0,0)"  stroke-width="3"/>
<line x1="130.6" y1="455.8" x2="127.4" y2="492.1" opacity="1.0" stroke="rgb(0,0,0)"  stroke-width="3"/>
<line x1="508.2" y1="480.7" x2="514.0" y2="437.1" opacity="1.0" stroke="rgb(0,0,0)"  stroke-width="3"/>
<line x1="514.0" y1="437.1" x2="478.2" y2="429.8" opacity="1.0" stroke="rgb(0,0,0)"  stroke-width="3"/>
<line x1="478.2" y1="429.8" x2="462.6" y2="447.4" opacity="1.0" stroke="rgb(0,0,0)"  stroke-width="3"/>
<line x1="460.6" y1="468.3" x2="472.5" y2="488.6" opacity="1.0" stroke="rgb(0,0,0)"  stroke-width="3"/>
<line x1="472.5" y1="488.6" x2="508.2" y2="480.7" opacity="1.0" stroke="rgb(0,0,0)"  stroke-width="3"/>
<line x1="476.8" y1="480.3" x2="500.8" y2="475.0" opacity="1.0" stroke="rgb(0,0,0)"  stroke-width="3"/>
<line x1="286.6" y1="271.3" x2="318.1" y2="289.4" opacity="1.0" stroke="rgb(0,0,0)"  stroke-width="3"/>
<line x1="318.1" y1="289.4" x2="349.6" y2="271.3" opacity="1.0" stroke="rgb(0,0,0)"  stroke-width="3"/>
<line x1="319.7" y1="280.2" x2="340.8" y2="268.0" opacity="1.0" stroke="rgb(0,0,0)"  stroke-width="3"/>
<line x1="349.6" y1="271.3" x2="349.6" y2="234.9" opacity="1.0" stroke="rgb(0,0,0)"  stroke-width="3"/>
<line x1="349.6" y1="234.9" x2="318.1" y2="216.7" opacity="1.0" stroke="rgb(0,0,0)"  stroke-width="3"/>
<line x1="340.8" y1="238.1" x2="319.7" y2="225.9" opacity="1.0" stroke="rgb(0,0,0)"  stroke-width="3"/>
<line x1="318.1" y1="216.7" x2="286.6" y2="234.9" opacity="1.0" stroke="rgb(0,0,0)"  stroke-width="3"/>
<line x1="286.6" y1="234.9" x2="286.6" y2="271.3" opacity="1.0" stroke="rgb(0,0,0)"  stroke-width="3"/>
<line x1="293.8" y1="240.9" x2="293.8" y2="265.3" opacity="1.0" stroke="rgb(0,0,0)"  stroke-width="3"/>
<line x1="243.9" y1="181.4" x2="261.6" y2="149.7" opacity="1.0" stroke="rgb(0,0,0)"  stroke-width="3"/>
<line x1="261.6" y1="149.7" x2="306.6" y2="174.0" opacity="1.0" stroke="rgb(0,0,0)"  stroke-width="3"/>
<line x1="318.1" y1="193.2" x2="318.1" y2="216.7" opacity="1.0" stroke="rgb(0,0,0)"  stroke-width="3"/>
<line x1="286.6" y1="234.9" x2="266.6" y2="222.6" opacity="1.0" stroke="rgb(0,0,0)"  stroke-width="3"/>
<line x1="160.4" y1="268.1" x2="190.1" y2="289.1" opacity="1.0" stroke="rgb(0,0,0)"  stroke-width="3"/>
<line x1="190.1" y1="289.1" x2="223.1" y2="273.9" opacity="1.0" stroke="rgb(0,0,0)"  stroke-width="3"/>
<line x1="192.5" y1="280.0" x2="214.7" y2="269.8" opacity="1.0" stroke="rgb(0,0,0)"  stroke-width="3"/>
<line x1="223.1" y1="273.9" x2="226.4" y2="237.6" opacity="1.0" stroke="rgb(0,0,0)"  stroke-width="3"/>
<line x1="196.7" y1="216.6" x2="163.7" y2="231.9" opacity="1.0" stroke="rgb(0,0,0)"  stroke-width="3"/>
<line x1="163.7" y1="231.9" x2="160.4" y2="268.1" opacity="1.0" stroke="rgb(0,0,0)"  stroke-width="3"/>
<line x1="170.3" y1="238.5" x2="168.1" y2="262.8" opacity="1.0" stroke="rgb(0,0,0)"  stroke-width="3"/>
<line x1="369.5" y1="222.6" x2="349.6" y2="234.9" opacity="1.0" stroke="rgb(0,0,0)"  stroke-width="3"/>
<line x1="328.9" y1="172.9" x2="358.3" y2="153.2" opacity="1.0" stroke="rgb(0,0,0)"  stroke-width="3"/>
<line x1="358.3" y1="153.2" x2="383.4" y2="179.6" opacity="1.0" stroke="rgb(0,0,0)"  stroke-width="3"/>
<line x1="485.8" y1="242.9" x2="462.2" y2="270.6" opacity="1.0" stroke="rgb(0,0,0)"  stroke-width="3"/>
<line x1="462.2" y1="270.6" x2="426.4" y2="264.0" opacity="1.0" stroke="rgb(0,0,0)"  stroke-width="3"/>
<line x1="457.6" y1="262.4" x2="433.6" y2="258.0" opacity="1.0" stroke="rgb(0,0,0)"  stroke-width="3"/>
<line x1="426.4" y1="264.0" x2="414.2" y2="229.7" opacity="1.0" stroke="rgb(0,0,0)"  stroke-width="3"/>
<line x1="437.8" y1="202.0" x2="473.6" y2="208.6" opacity="1.0" stroke="rgb(0,0,0)"  stroke-width="3"/>
<line x1="473.6" y1="208.6" x2="485.8" y2="242.9" opacity="1.0" stroke="rgb(0,0,0)"  stroke-width="3"/>
<line x1="468.8" y1="216.7" x2="477.0" y2="239.7" opacity="1.0" stroke="rgb(0,0,0)"  stroke-width="3"/>
<line x1="404.0" y1="109.8" x2="368.6" y2="118.3" opacity="1.0" stroke="rgb(0,0,0)"  stroke-width="3"/>
<line x1="368.6" y1="118.3" x2="358.3" y2="153.2" opacity="1.0" stroke="rgb(0,0,0)"  stroke-width="3"/>
<line x1="373.8" y1="126.1" x2="366.9" y2="149.5" opacity="1.0" stroke="rgb(0,0,0)"  stroke-width="3"/>
<line x1="418.8" y1="171.0" x2="429.1" y2="136.1" opacity="1.0" stroke="rgb(0,0,0)"  stroke-width="3"/>
<line x1="429.1" y1="136.1" x2="404.0" y2="109.8" opacity="1.0" stroke="rgb(0,0,0)"  stroke-width="3"/>
<line x1="419.7" y1="136.8" x2="402.9" y2="119.1" opacity="1.0" stroke="rgb(0,0,0)"  stroke-width="3"/>
<line x1="207.5" y1="181.9" x2="188.9" y2="150.6" opacity="1.0" stroke="rgb(0,0,0)"  stroke-width="3"/>
<line x1="188.9" y1="150.6" x2="206.6" y2="118.9" opacity="1.0" stroke="rgb(0,0,0)"  stroke-width="3"/>
<line x1="198.1" y1="148.9" x2="210.0" y2="127.6" opacity="1.0" stroke="rgb(0,0,0)"  stroke-width="3"/>
<line x1="206.6" y1="118.9" x2="243.0" y2="118.4" opacity="1.0" stroke="rgb(0,0,0)"  stroke-width="3"/>
<line x1="243.0" y1="118.4" x2="261.6" y2="149.7" opacity="1.0" stroke="rgb(0,0,0)"  stroke-width="3"/>
<line x1="239.9" y1="127.2" x2="252.4" y2="148.2" opacity="1.0" stroke="rgb(0,0,0)"  stroke-width="3"/>
<line x1="105.6" y1="429.1" x2="130.6" y2="455.8" opacity="1.0" stroke="rgb(0,0,0)"  stroke-width="3"/>
<line x1="115.0" y1="428.6" x2="131.7" y2="446.5" opacity="1.0" stroke="rgb(0,0,0)"  stroke-width="3"/>
<line x1="166.1" y1="447.5" x2="176.8" y2="412.6" opacity="1.0" stroke="rgb(0,0,0)"  stroke-width="3"/>
<line x1="161.0" y1="439.7" x2="168.1" y2="416.2" opacity="1.0" stroke="rgb(0,0,0)"  stroke-width="3"/>
<line x1="176.8" y1="412.6" x2="151.8" y2="385.9" opacity="1.0" stroke="rgb(0,0,0)"  stroke-width="3"/>
<line x1="151.8" y1="385.9" x2="116.3" y2="394.2" opacity="1.0" stroke="rgb(0,0,0)"  stroke-width="3"/>
<line x1="147.6" y1="394.3" x2="123.7" y2="399.8" opacity="1.0" stroke="rgb(0,0,0)"  stroke-width="3"/>
<line x1="116.3" y1="394.2" x2="105.6" y2="429.1" opacity="1.0" stroke="rgb(0,0,0)"  stroke-width="3"/>
<line x1="297.7" y1="449.5" x2="272.8" y2="422.8" opacity="1.0" stroke="rgb(0,0,0)"  stroke-width="3"/>
<line x1="288.4" y1="450.0" x2="271.6" y2="432.1" opacity="1.0" stroke="rgb(0,0,0)"  stroke-width="3"/>
<line x1="272.8" y1="422.8" x2="237.2" y2="431.0" opacity="1.0" stroke="rgb(0,0,0)"  stroke-width="3"/>
<line x1="237.2" y1="431.0" x2="226.6" y2="465.9" opacity="1.0" stroke="rgb(0,0,0)"  stroke-width="3"/>
<line x1="242.4" y1="438.9" x2="235.2" y2="462.3" opacity="1.0" stroke="rgb(0,0,0)"  stroke-width="3"/>
<line x1="226.6" y1="465.9" x2="251.5" y2="492.6" opacity="1.0" stroke="rgb(0,0,0)"  stroke-width="3"/>
<line x1="251.5" y1="492.6" x2="287.1" y2="484.4" opacity="1.0" stroke="rgb(0,0,0)"  stroke-width="3"/>
<line x1="255.7" y1="484.3" x2="279.6" y2="478.7" opacity="1.0" stroke="rgb(0,0,0)"  stroke-width="3"/>
<line x1="287.1" y1="484.4" x2="297.7" y2="449.5" opacity="1.0" stroke="rgb(0,0,0)"  stroke-width="3"/>
<line x1="526.6" y1="375.1" x2="490.8" y2="367.8" opacity="1.0" stroke="rgb(0,0,0)"  stroke-width="3"/>
<line x1="519.3" y1="381.0" x2="495.3" y2="376.1" opacity="1.0" stroke="rgb(0,0,0)"  stroke-width="3"/>
<line x1="490.8" y1="367.8" x2="466.6" y2="395.2" opacity="1.0" stroke="rgb(0,0,0)"  stroke-width="3"/>
<line x1="466.6" y1="395.2" x2="478.2" y2="429.8" opacity="1.0" stroke="rgb(0,0,0)"  stroke-width="3"/>
<line x1="475.4" y1="398.6" x2="483.1" y2="421.8" opacity="1.0" stroke="rgb(0,0,0)"  stroke-width="3"/>
<line x1="514.0" y1="437.1" x2="538.2" y2="409.7" opacity="1.0" stroke="rgb(0,0,0)"  stroke-width="3"/>
<line x1="512.6" y1="427.8" x2="528.8" y2="409.5" opacity="1.0" stroke="rgb(0,0,0)"  stroke-width="3"/>
<line x1="538.2" y1="409.7" x2="526.6" y2="375.1" opacity="1.0" stroke="rgb(0,0,0)"  stroke-width="3"/>
<line x1="358.3" y1="469.9" x2="394.1" y2="477.2" opacity="1.0" stroke="rgb(0,0,0)"  stroke-width="3"/>
<line x1="365.6" y1="464.0" x2="389.6" y2="468.9" opacity="1.0" stroke="rgb(0,0,0)"  stroke-width="3"/>
<line x1="394.1" y1="477.2" x2="418.3" y2="449.8" opacity="1.0" stroke="rgb(0,0,0)"  stroke-width="3"/>
<line x1="418.3" y1="449.8" x2="406.7" y2="415.2" opacity="1.0" stroke="rgb(0,0,0)"  stroke-width="3"/>
<line x1="409.5" y1="446.4" x2="401.8" y2="423.2" opacity="1.0" stroke="rgb(0,0,0)"  stroke-width="3"/>
<line x1="406.7" y1="415.2" x2="370.9" y2="407.9" opacity="1.0" stroke="rgb(0,0,0)"  stroke-width="3"/>
<line x1="370.9" y1="407.9" x2="346.7" y2="435.2" opacity="1.0" stroke="rgb(0,0,0)"  stroke-width="3"/>
<line x1="372.3" y1="417.2" x2="356.1" y2="435.5" opacity="1.0" stroke="rgb(0,0,0)"  stroke-width="3"/>
<line x1="346.7" y1="435.2" x2="358.3" y2="469.9" opacity="1.0" stroke="rgb(0,0,0)"  stroke-width="3"/>
<line x1="521.8" y1="542.4" x2="532.8" y2="507.6" opacity="1.0" stroke="rgb(0,0,0)"  stroke-width="3"/>
<line x1="516.8" y1="534.5" x2="524.2" y2="511.2" opacity="1.0" stroke="rgb(0,0,0)"  stroke-width="3"/>
<line x1="532.8" y1="507.6" x2="508.2" y2="480.7" opacity="1.0" stroke="rgb(0,0,0)"  stroke-width="3"/>
<line x1="472.5" y1="488.6" x2="461.6" y2="523.4" opacity="1.0" stroke="rgb(0,0,0)"  stroke-width="3"/>
<line x1="461.6" y1="523.4" x2="486.2" y2="550.3" opacity="1.0" stroke="rgb(0,0,0)"  stroke-width="3"/>
<line x1="470.9" y1="523.0" x2="487.5" y2="541.0" opacity="1.0" stroke="rgb(0,0,0)"  stroke-width="3"/>
<line x1="486.2" y1="550.3" x2="521.8" y2="542.4" opacity="1.0" stroke="rgb(0,0,0)"  stroke-width="3"/>
<line x1="136.4" y1="564.6" x2="165.5" y2="542.6" opacity="1.0" stroke="rgb(0,0,0)"  stroke-width="3"/>
<line x1="136.8" y1="555.2" x2="156.4" y2="540.5" opacity="1.0" stroke="rgb(0,0,0)"  stroke-width="3"/>
<line x1="165.5" y1="542.6" x2="161.0" y2="506.4" opacity="1.0" stroke="rgb(0,0,0)"  stroke-width="3"/>
<line x1="127.4" y1="492.1" x2="98.3" y2="514.1" opacity="1.0" stroke="rgb(0,0,0)"  stroke-width="3"/>
<line x1="98.3" y1="514.1" x2="102.8" y2="550.4" opacity="1.0" stroke="rgb(0,0,0)"  stroke-width="3"/>
<line x1="106.2" y1="519.2" x2="109.2" y2="543.5" opacity="1.0" stroke="rgb(0,0,0)"  stroke-width="3"/>
<line x1="102.8" y1="550.4" x2="136.4" y2="564.6" opacity="1.0" stroke="rgb(0,0,0)"  stroke-width="3"/>
<line x1="349.6" y1="271.3" x2="430.9" y2="387.9" opacity="1.0" stroke="rgb(0,0,0)"  stroke-width="3"/>
<line x1="430.9" y1="387.9" x2="426.4" y2="264.0" opacity="1.0" stroke="rgb(0,0,0)"  stroke-width="3"/>
<line x1="223.1" y1="273.9" x2="212.3" y2="404.4" opacity="1.0" stroke="rgb(0,0,0)"  stroke-width="3"/>
<line x1="212.3" y1="404.4" x2="286.6" y2="271.3" opacity="1.0" stroke="rgb(0,0,0)"  stroke-width="3"/>
<line x1="203.7" y1="471.3" x2="226.6" y2="465.9" opacity="1.0" stroke="rgb(0,0,0)"  stroke-width="3"/>
<line x1="237.2" y1="431.0" x2="212.3" y2="404.4" opacity="1.0" stroke="rgb(0,0,0)"  stroke-width="3"/>
<line x1="212.3" y1="404.4" x2="176.8" y2="412.6" opacity="1.0" stroke="rgb(0,0,0)"  stroke-width="3"/>
<line x1="418.3" y1="449.8" x2="441.3" y2="454.5" opacity="1.0" stroke="rgb(0,0,0)"  stroke-width="3"/>
<line x1="466.6" y1="395.2" x2="430.9" y2="387.9" opacity="1.0" stroke="rgb(0,0,0)"  stroke-width="3"/>
<line x1="430.9" y1="387.9" x2="406.7" y2="415.2" opacity="1.0" stroke="rgb(0,0,0)"  stroke-width="3"/>
<text x="448.022235" y="465.115990" fill="rgb(12,12,255)" stroke-width="0" font-weight="bold" font-size="25.92" >N</text>
<text x="348.457270" y="333.829628" fill="rgb(191,191,191)" stroke-width="0" font-weight="bold" font-size="25.92" >D</text>
<text x="312.077563" y="370.209335" fill="rgb(191,191,191)" stroke-width="0" font-weight="bold" font-size="25.92" >D</text>
<text x="275.697855" y="333.829628" fill="rgb(191,191,191)" stroke-width="0" font-weight="bold" font-size="25.92" >D</text>
<text x="374.580880" y="223.839839" fill="rgb(12,12,255)" stroke-width="0" font-weight="bold" font-size="25.92" >N</text>
<text x="249.569820" y="223.839839" fill="rgb(12,12,255)" stroke-width="0" font-weight="bold" font-size="25.92" >N</text>
<text x="185.036435" y="482.193260" fill="rgb(12,12,255)" stroke-width="0" font-weight="bold" font-size="25.92" >N</text>
<text x="312.077563" y="188.187473" fill="rgb(255,181,181)" stroke-width="0" font-weight="bold" font-size="25.92" >B</text>
</svg>
</g>
</svg>
