<?xml version="1.0"?>
<svg version="1.1" id="topsvg"
xmlns="http://www.w3.org/2000/svg" xmlns:xlink="http://www.w3.org/1999/xlink"
xmlns:cml="http://www.xml-cml.org/schema" x="0" y="0" width="200px" height="200px" viewBox="0 0 100 100">
<title>GD340.sdf - Open Babel Depiction</title>
<rect x="0" y="0" width="100" height="100" fill="white"/>
<g transform="translate(0,0)">
<svg width="100" height="100" x="0" y="0" viewBox="0 0 561.709 499.746"
font-family="sans-serif" stroke="rgb(0,0,0)" stroke-width="3"  stroke-linecap="round">
<line x1="143.2" y1="99.6" x2="108.8" y2="79.7" opacity="1.0" stroke="rgb(0,0,0)"  stroke-width="3"/>
<line x1="108.8" y1="79.7" x2="74.4" y2="59.9" opacity="1.0" stroke="rgb(0,0,0)"  stroke-width="3"/>
<line x1="108.8" y1="79.7" x2="108.8" y2="40.0" opacity="1.0" stroke="rgb(0,0,0)"  stroke-width="3"/>
<line x1="108.8" y1="79.7" x2="74.4" y2="99.6" opacity="1.0" stroke="rgb(0,0,0)"  stroke-width="3"/>
<line x1="123.4" y1="315.4" x2="103.5" y2="349.8" opacity="1.0" stroke="rgb(0,0,0)"  stroke-width="3"/>
<line x1="163.1" y1="315.4" x2="176.7" y2="352.7" opacity="1.0" stroke="rgb(0,0,0)"  stroke-width="3"/>
<line x1="349.7" y1="99.6" x2="384.1" y2="79.7" opacity="1.0" stroke="rgb(0,0,0)"  stroke-width="3"/>
<line x1="384.1" y1="79.7" x2="384.1" y2="40.0" opacity="1.0" stroke="rgb(0,0,0)"  stroke-width="3"/>
<line x1="384.1" y1="79.7" x2="418.5" y2="59.9" opacity="1.0" stroke="rgb(0,0,0)"  stroke-width="3"/>
<line x1="384.1" y1="79.7" x2="418.5" y2="99.6" opacity="1.0" stroke="rgb(0,0,0)"  stroke-width="3"/>
<line x1="418.5" y1="218.8" x2="452.9" y2="198.9" opacity="1.0" stroke="rgb(0,0,0)"  stroke-width="3"/>
<line x1="329.8" y1="315.4" x2="320.0" y2="290.5" opacity="1.0" stroke="rgb(0,0,0)"  stroke-width="3"/>
<line x1="326.5" y1="271.9" x2="349.7" y2="258.5" opacity="1.0" stroke="rgb(0,0,0)"  stroke-width="3"/>
<line x1="349.7" y1="258.5" x2="384.1" y2="278.4" opacity="1.0" stroke="rgb(0,0,0)"  stroke-width="3"/>
<line x1="351.3" y1="267.8" x2="375.3" y2="281.6" opacity="1.0" stroke="rgb(0,0,0)"  stroke-width="3"/>
<line x1="384.1" y1="278.4" x2="369.5" y2="315.4" opacity="1.0" stroke="rgb(0,0,0)"  stroke-width="3"/>
<line x1="369.5" y1="315.4" x2="329.8" y2="315.4" opacity="1.0" stroke="rgb(0,0,0)"  stroke-width="3"/>
<line x1="363.5" y1="308.2" x2="335.8" y2="308.2" opacity="1.0" stroke="rgb(0,0,0)"  stroke-width="3"/>
<line x1="212.0" y1="99.6" x2="212.0" y2="139.3" opacity="1.0" stroke="rgb(0,0,0)"  stroke-width="3"/>
<line x1="219.2" y1="105.6" x2="219.2" y2="133.3" opacity="1.0" stroke="rgb(0,0,0)"  stroke-width="3"/>
<line x1="212.0" y1="139.3" x2="235.2" y2="152.7" opacity="1.0" stroke="rgb(0,0,0)"  stroke-width="3"/>
<line x1="257.7" y1="152.7" x2="280.9" y2="139.3" opacity="1.0" stroke="rgb(0,0,0)"  stroke-width="3"/>
<line x1="280.9" y1="139.3" x2="280.9" y2="99.6" opacity="1.0" stroke="rgb(0,0,0)"  stroke-width="3"/>
<line x1="273.7" y1="133.3" x2="273.7" y2="105.6" opacity="1.0" stroke="rgb(0,0,0)"  stroke-width="3"/>
<line x1="280.9" y1="99.6" x2="212.0" y2="99.6" opacity="1.0" stroke="rgb(0,0,0)"  stroke-width="3"/>
<line x1="123.4" y1="315.4" x2="163.1" y2="315.4" opacity="1.0" stroke="rgb(0,0,0)"  stroke-width="3"/>
<line x1="129.4" y1="308.2" x2="157.1" y2="308.2" opacity="1.0" stroke="rgb(0,0,0)"  stroke-width="3"/>
<line x1="163.1" y1="315.4" x2="172.9" y2="290.5" opacity="1.0" stroke="rgb(0,0,0)"  stroke-width="3"/>
<line x1="166.4" y1="271.9" x2="143.2" y2="258.5" opacity="1.0" stroke="rgb(0,0,0)"  stroke-width="3"/>
<line x1="143.2" y1="258.5" x2="108.8" y2="278.4" opacity="1.0" stroke="rgb(0,0,0)"  stroke-width="3"/>
<line x1="141.6" y1="267.8" x2="117.6" y2="281.6" opacity="1.0" stroke="rgb(0,0,0)"  stroke-width="3"/>
<line x1="108.8" y1="278.4" x2="123.4" y2="315.4" opacity="1.0" stroke="rgb(0,0,0)"  stroke-width="3"/>
<line x1="280.9" y1="218.8" x2="280.9" y2="258.5" opacity="1.0" stroke="rgb(0,0,0)"  stroke-width="3"/>
<line x1="288.1" y1="224.8" x2="288.1" y2="252.5" opacity="1.0" stroke="rgb(0,0,0)"  stroke-width="3"/>
<line x1="280.9" y1="258.5" x2="304.0" y2="271.9" opacity="1.0" stroke="rgb(0,0,0)"  stroke-width="3"/>
<line x1="349.7" y1="258.5" x2="349.7" y2="218.8" opacity="1.0" stroke="rgb(0,0,0)"  stroke-width="3"/>
<line x1="349.7" y1="218.8" x2="326.5" y2="205.4" opacity="1.0" stroke="rgb(0,0,0)"  stroke-width="3"/>
<line x1="304.0" y1="205.4" x2="280.9" y2="218.8" opacity="1.0" stroke="rgb(0,0,0)"  stroke-width="3"/>
<line x1="418.5" y1="218.8" x2="418.5" y2="258.5" opacity="1.0" stroke="rgb(0,0,0)"  stroke-width="3"/>
<line x1="411.3" y1="224.8" x2="411.3" y2="252.5" opacity="1.0" stroke="rgb(0,0,0)"  stroke-width="3"/>
<line x1="418.5" y1="258.5" x2="384.1" y2="278.4" opacity="1.0" stroke="rgb(0,0,0)"  stroke-width="3"/>
<line x1="349.7" y1="218.8" x2="384.1" y2="198.9" opacity="1.0" stroke="rgb(0,0,0)"  stroke-width="3"/>
<line x1="358.5" y1="222.0" x2="382.5" y2="208.2" opacity="1.0" stroke="rgb(0,0,0)"  stroke-width="3"/>
<line x1="384.1" y1="198.9" x2="418.5" y2="218.8" opacity="1.0" stroke="rgb(0,0,0)"  stroke-width="3"/>
<line x1="74.4" y1="258.5" x2="108.8" y2="278.4" opacity="1.0" stroke="rgb(0,0,0)"  stroke-width="3"/>
<line x1="143.2" y1="258.5" x2="143.2" y2="218.8" opacity="1.0" stroke="rgb(0,0,0)"  stroke-width="3"/>
<line x1="143.2" y1="218.8" x2="108.8" y2="198.9" opacity="1.0" stroke="rgb(0,0,0)"  stroke-width="3"/>
<line x1="134.4" y1="222.0" x2="110.4" y2="208.2" opacity="1.0" stroke="rgb(0,0,0)"  stroke-width="3"/>
<line x1="108.8" y1="198.9" x2="74.4" y2="218.8" opacity="1.0" stroke="rgb(0,0,0)"  stroke-width="3"/>
<line x1="74.4" y1="218.8" x2="74.4" y2="258.5" opacity="1.0" stroke="rgb(0,0,0)"  stroke-width="3"/>
<line x1="81.6" y1="224.8" x2="81.6" y2="252.5" opacity="1.0" stroke="rgb(0,0,0)"  stroke-width="3"/>
<line x1="188.9" y1="271.9" x2="212.0" y2="258.5" opacity="1.0" stroke="rgb(0,0,0)"  stroke-width="3"/>
<line x1="212.0" y1="258.5" x2="212.0" y2="218.8" opacity="1.0" stroke="rgb(0,0,0)"  stroke-width="3"/>
<line x1="212.0" y1="218.8" x2="188.9" y2="205.4" opacity="1.0" stroke="rgb(0,0,0)"  stroke-width="3"/>
<line x1="166.4" y1="205.4" x2="143.2" y2="218.8" opacity="1.0" stroke="rgb(0,0,0)"  stroke-width="3"/>
<line x1="309.2" y1="432.2" x2="277.1" y2="408.8" opacity="1.0" stroke="rgb(0,0,0)"  stroke-width="3"/>
<line x1="277.1" y1="408.8" x2="281.2" y2="369.3" opacity="1.0" stroke="rgb(0,0,0)"  stroke-width="3"/>
<line x1="284.9" y1="403.6" x2="287.8" y2="376.0" opacity="1.0" stroke="rgb(0,0,0)"  stroke-width="3"/>
<line x1="281.2" y1="369.3" x2="317.5" y2="353.1" opacity="1.0" stroke="rgb(0,0,0)"  stroke-width="3"/>
<line x1="317.5" y1="353.1" x2="349.7" y2="376.5" opacity="1.0" stroke="rgb(0,0,0)"  stroke-width="3"/>
<line x1="318.1" y1="362.5" x2="340.6" y2="378.8" opacity="1.0" stroke="rgb(0,0,0)"  stroke-width="3"/>
<line x1="349.7" y1="376.5" x2="345.5" y2="416.0" opacity="1.0" stroke="rgb(0,0,0)"  stroke-width="3"/>
<line x1="345.5" y1="416.0" x2="309.2" y2="432.2" opacity="1.0" stroke="rgb(0,0,0)"  stroke-width="3"/>
<line x1="337.1" y1="411.9" x2="311.8" y2="423.2" opacity="1.0" stroke="rgb(0,0,0)"  stroke-width="3"/>
<line x1="246.4" y1="198.9" x2="280.9" y2="218.8" opacity="1.0" stroke="rgb(0,0,0)"  stroke-width="3"/>
<line x1="315.3" y1="185.9" x2="315.3" y2="159.2" opacity="1.0" stroke="rgb(0,0,0)"  stroke-width="3"/>
<line x1="315.3" y1="159.2" x2="280.9" y2="139.3" opacity="1.0" stroke="rgb(0,0,0)"  stroke-width="3"/>
<line x1="246.4" y1="172.2" x2="246.4" y2="198.9" opacity="1.0" stroke="rgb(0,0,0)"  stroke-width="3"/>
<line x1="212.0" y1="218.8" x2="246.4" y2="198.9" opacity="1.0" stroke="rgb(0,0,0)"  stroke-width="3"/>
<line x1="213.6" y1="209.6" x2="237.7" y2="195.7" opacity="1.0" stroke="rgb(0,0,0)"  stroke-width="3"/>
<line x1="212.0" y1="139.3" x2="177.6" y2="159.2" opacity="1.0" stroke="rgb(0,0,0)"  stroke-width="3"/>
<line x1="177.6" y1="159.2" x2="177.6" y2="185.9" opacity="1.0" stroke="rgb(0,0,0)"  stroke-width="3"/>
<line x1="349.7" y1="99.6" x2="315.3" y2="79.7" opacity="1.0" stroke="rgb(0,0,0)"  stroke-width="3"/>
<line x1="340.9" y1="102.8" x2="316.9" y2="89.0" opacity="1.0" stroke="rgb(0,0,0)"  stroke-width="3"/>
<line x1="315.3" y1="79.7" x2="280.9" y2="99.6" opacity="1.0" stroke="rgb(0,0,0)"  stroke-width="3"/>
<line x1="315.3" y1="159.2" x2="349.7" y2="139.3" opacity="1.0" stroke="rgb(0,0,0)"  stroke-width="3"/>
<line x1="316.9" y1="150.0" x2="340.9" y2="136.1" opacity="1.0" stroke="rgb(0,0,0)"  stroke-width="3"/>
<line x1="349.7" y1="139.3" x2="349.7" y2="99.6" opacity="1.0" stroke="rgb(0,0,0)"  stroke-width="3"/>
<line x1="143.2" y1="99.6" x2="143.2" y2="139.3" opacity="1.0" stroke="rgb(0,0,0)"  stroke-width="3"/>
<line x1="143.2" y1="139.3" x2="177.6" y2="159.2" opacity="1.0" stroke="rgb(0,0,0)"  stroke-width="3"/>
<line x1="152.0" y1="136.1" x2="176.0" y2="150.0" opacity="1.0" stroke="rgb(0,0,0)"  stroke-width="3"/>
<line x1="212.0" y1="99.6" x2="177.6" y2="79.7" opacity="1.0" stroke="rgb(0,0,0)"  stroke-width="3"/>
<line x1="177.6" y1="79.7" x2="143.2" y2="99.6" opacity="1.0" stroke="rgb(0,0,0)"  stroke-width="3"/>
<line x1="176.0" y1="89.0" x2="152.0" y2="102.8" opacity="1.0" stroke="rgb(0,0,0)"  stroke-width="3"/>
<line x1="246.4" y1="278.4" x2="280.9" y2="258.5" opacity="1.0" stroke="rgb(0,0,0)"  stroke-width="3"/>
<line x1="212.0" y1="258.5" x2="246.4" y2="278.4" opacity="1.0" stroke="rgb(0,0,0)"  stroke-width="3"/>
<line x1="220.8" y1="255.3" x2="244.9" y2="269.1" opacity="1.0" stroke="rgb(0,0,0)"  stroke-width="3"/>
<line x1="108.8" y1="159.2" x2="108.8" y2="198.9" opacity="1.0" stroke="rgb(0,0,0)"  stroke-width="3"/>
<line x1="74.4" y1="218.8" x2="40.0" y2="198.9" opacity="1.0" stroke="rgb(0,0,0)"  stroke-width="3"/>
<line x1="40.0" y1="198.9" x2="40.0" y2="159.2" opacity="1.0" stroke="rgb(0,0,0)"  stroke-width="3"/>
<line x1="47.2" y1="192.9" x2="47.2" y2="165.2" opacity="1.0" stroke="rgb(0,0,0)"  stroke-width="3"/>
<line x1="40.0" y1="159.2" x2="74.4" y2="139.3" opacity="1.0" stroke="rgb(0,0,0)"  stroke-width="3"/>
<line x1="74.4" y1="139.3" x2="108.8" y2="159.2" opacity="1.0" stroke="rgb(0,0,0)"  stroke-width="3"/>
<line x1="76.0" y1="148.6" x2="100.0" y2="162.4" opacity="1.0" stroke="rgb(0,0,0)"  stroke-width="3"/>
<line x1="123.4" y1="384.2" x2="103.5" y2="349.8" opacity="1.0" stroke="rgb(0,0,0)"  stroke-width="3"/>
<line x1="103.5" y1="349.8" x2="63.8" y2="349.8" opacity="1.0" stroke="rgb(0,0,0)"  stroke-width="3"/>
<line x1="97.5" y1="357.0" x2="69.8" y2="357.0" opacity="1.0" stroke="rgb(0,0,0)"  stroke-width="3"/>
<line x1="63.8" y1="349.8" x2="43.9" y2="384.2" opacity="1.0" stroke="rgb(0,0,0)"  stroke-width="3"/>
<line x1="43.9" y1="384.2" x2="63.8" y2="418.6" opacity="1.0" stroke="rgb(0,0,0)"  stroke-width="3"/>
<line x1="53.1" y1="385.8" x2="67.0" y2="409.8" opacity="1.0" stroke="rgb(0,0,0)"  stroke-width="3"/>
<line x1="63.8" y1="418.6" x2="103.5" y2="418.6" opacity="1.0" stroke="rgb(0,0,0)"  stroke-width="3"/>
<line x1="103.5" y1="418.6" x2="123.4" y2="384.2" opacity="1.0" stroke="rgb(0,0,0)"  stroke-width="3"/>
<line x1="100.3" y1="409.8" x2="114.1" y2="385.8" opacity="1.0" stroke="rgb(0,0,0)"  stroke-width="3"/>
<line x1="215.8" y1="359.6" x2="176.7" y2="352.7" opacity="1.0" stroke="rgb(0,0,0)"  stroke-width="3"/>
<line x1="176.7" y1="352.7" x2="151.1" y2="383.1" opacity="1.0" stroke="rgb(0,0,0)"  stroke-width="3"/>
<line x1="178.3" y1="361.9" x2="160.5" y2="383.2" opacity="1.0" stroke="rgb(0,0,0)"  stroke-width="3"/>
<line x1="151.1" y1="383.1" x2="164.7" y2="420.5" opacity="1.0" stroke="rgb(0,0,0)"  stroke-width="3"/>
<line x1="164.7" y1="420.5" x2="203.9" y2="427.4" opacity="1.0" stroke="rgb(0,0,0)"  stroke-width="3"/>
<line x1="171.9" y1="414.4" x2="199.2" y2="419.2" opacity="1.0" stroke="rgb(0,0,0)"  stroke-width="3"/>
<line x1="203.9" y1="427.4" x2="229.4" y2="396.9" opacity="1.0" stroke="rgb(0,0,0)"  stroke-width="3"/>
<line x1="229.4" y1="396.9" x2="215.8" y2="359.6" opacity="1.0" stroke="rgb(0,0,0)"  stroke-width="3"/>
<line x1="220.6" y1="393.8" x2="211.1" y2="367.7" opacity="1.0" stroke="rgb(0,0,0)"  stroke-width="3"/>
<line x1="454.4" y1="274.1" x2="418.1" y2="290.3" opacity="1.0" stroke="rgb(0,0,0)"  stroke-width="3"/>
<line x1="451.9" y1="283.1" x2="426.5" y2="294.4" opacity="1.0" stroke="rgb(0,0,0)"  stroke-width="3"/>
<line x1="418.1" y1="290.3" x2="414.0" y2="329.8" opacity="1.0" stroke="rgb(0,0,0)"  stroke-width="3"/>
<line x1="414.0" y1="329.8" x2="446.1" y2="353.1" opacity="1.0" stroke="rgb(0,0,0)"  stroke-width="3"/>
<line x1="423.0" y1="327.5" x2="445.5" y2="343.8" opacity="1.0" stroke="rgb(0,0,0)"  stroke-width="3"/>
<line x1="446.1" y1="353.1" x2="482.4" y2="337.0" opacity="1.0" stroke="rgb(0,0,0)"  stroke-width="3"/>
<line x1="482.4" y1="337.0" x2="486.5" y2="297.5" opacity="1.0" stroke="rgb(0,0,0)"  stroke-width="3"/>
<line x1="475.9" y1="330.3" x2="478.8" y2="302.7" opacity="1.0" stroke="rgb(0,0,0)"  stroke-width="3"/>
<line x1="486.5" y1="297.5" x2="454.4" y2="274.1" opacity="1.0" stroke="rgb(0,0,0)"  stroke-width="3"/>
<line x1="433.8" y1="459.7" x2="453.7" y2="425.3" opacity="1.0" stroke="rgb(0,0,0)"  stroke-width="3"/>
<line x1="430.6" y1="450.9" x2="444.5" y2="426.9" opacity="1.0" stroke="rgb(0,0,0)"  stroke-width="3"/>
<line x1="453.7" y1="425.3" x2="433.8" y2="390.9" opacity="1.0" stroke="rgb(0,0,0)"  stroke-width="3"/>
<line x1="433.8" y1="390.9" x2="394.1" y2="390.9" opacity="1.0" stroke="rgb(0,0,0)"  stroke-width="3"/>
<line x1="427.8" y1="398.1" x2="400.1" y2="398.1" opacity="1.0" stroke="rgb(0,0,0)"  stroke-width="3"/>
<line x1="394.1" y1="390.9" x2="374.2" y2="425.3" opacity="1.0" stroke="rgb(0,0,0)"  stroke-width="3"/>
<line x1="374.2" y1="425.3" x2="394.1" y2="459.7" opacity="1.0" stroke="rgb(0,0,0)"  stroke-width="3"/>
<line x1="383.5" y1="426.9" x2="397.3" y2="450.9" opacity="1.0" stroke="rgb(0,0,0)"  stroke-width="3"/>
<line x1="394.1" y1="459.7" x2="433.8" y2="459.7" opacity="1.0" stroke="rgb(0,0,0)"  stroke-width="3"/>
<line x1="487.3" y1="218.8" x2="521.7" y2="198.9" opacity="1.0" stroke="rgb(0,0,0)"  stroke-width="3"/>
<line x1="521.7" y1="198.9" x2="521.7" y2="159.2" opacity="1.0" stroke="rgb(0,0,0)"  stroke-width="3"/>
<line x1="514.5" y1="192.9" x2="514.5" y2="165.2" opacity="1.0" stroke="rgb(0,0,0)"  stroke-width="3"/>
<line x1="521.7" y1="159.2" x2="487.3" y2="139.3" opacity="1.0" stroke="rgb(0,0,0)"  stroke-width="3"/>
<line x1="487.3" y1="139.3" x2="452.9" y2="159.2" opacity="1.0" stroke="rgb(0,0,0)"  stroke-width="3"/>
<line x1="485.7" y1="148.6" x2="461.7" y2="162.4" opacity="1.0" stroke="rgb(0,0,0)"  stroke-width="3"/>
<line x1="452.9" y1="159.2" x2="452.9" y2="198.9" opacity="1.0" stroke="rgb(0,0,0)"  stroke-width="3"/>
<line x1="452.9" y1="198.9" x2="487.3" y2="218.8" opacity="1.0" stroke="rgb(0,0,0)"  stroke-width="3"/>
<line x1="461.7" y1="195.7" x2="485.7" y2="209.6" opacity="1.0" stroke="rgb(0,0,0)"  stroke-width="3"/>
<line x1="317.5" y1="353.1" x2="329.8" y2="315.4" opacity="1.0" stroke="rgb(0,0,0)"  stroke-width="3"/>
<line x1="369.5" y1="315.4" x2="381.8" y2="353.1" opacity="1.0" stroke="rgb(0,0,0)"  stroke-width="3"/>
<line x1="381.8" y1="353.1" x2="349.7" y2="376.5" opacity="1.0" stroke="rgb(0,0,0)"  stroke-width="3"/>
<line x1="433.8" y1="390.9" x2="446.1" y2="353.1" opacity="1.0" stroke="rgb(0,0,0)"  stroke-width="3"/>
<line x1="414.0" y1="329.8" x2="381.8" y2="353.1" opacity="1.0" stroke="rgb(0,0,0)"  stroke-width="3"/>
<line x1="381.8" y1="353.1" x2="394.1" y2="390.9" opacity="1.0" stroke="rgb(0,0,0)"  stroke-width="3"/>
<text x="171.631141" y="286.384115" fill="rgb(12,12,255)" stroke-width="0" font-weight="bold" font-size="25.92" >N</text>
<text x="240.446712" y="167.192058" fill="rgb(12,12,255)" stroke-width="0" font-weight="bold" font-size="25.92" >N</text>
<text x="309.262282" y="206.922744" fill="rgb(255,181,181)" stroke-width="0" font-weight="bold" font-size="25.92" >B</text>
<text x="309.262282" y="286.384115" fill="rgb(12,12,255)" stroke-width="0" font-weight="bold" font-size="25.92" >N</text>
<text x="171.631141" y="206.922744" fill="rgb(255,181,181)" stroke-width="0" font-weight="bold" font-size="25.92" >B</text>
</svg>
</g>
</svg>
