<?xml version="1.0"?>
<svg version="1.1" id="topsvg"
xmlns="http://www.w3.org/2000/svg" xmlns:xlink="http://www.w3.org/1999/xlink"
xmlns:cml="http://www.xml-cml.org/schema" x="0" y="0" width="200px" height="200px" viewBox="0 0 100 100">
<title>GD349.sdf - Open Babel Depiction</title>
<rect x="0" y="0" width="100" height="100" fill="white"/>
<g transform="translate(0,0)">
<svg width="100" height="100" x="0" y="0" viewBox="0 0 721.263 624.098"
font-family="sans-serif" stroke="rgb(0,0,0)" stroke-width="3"  stroke-linecap="round">
<line x1="589.9" y1="423.5" x2="612.8" y2="436.7" opacity="1.0" stroke="rgb(0,0,0)"  stroke-width="3"/>
<line x1="131.4" y1="423.5" x2="108.4" y2="436.7" opacity="1.0" stroke="rgb(0,0,0)"  stroke-width="3"/>
<line x1="360.6" y1="465.5" x2="360.6" y2="505.1" opacity="1.0" stroke="rgb(0,0,0)"  stroke-width="3"/>
<line x1="275.8" y1="265.0" x2="249.3" y2="235.7" opacity="1.0" stroke="rgb(0,0,0)"  stroke-width="3"/>
<line x1="249.3" y1="235.7" x2="261.5" y2="198.1" opacity="1.0" stroke="rgb(0,0,0)"  stroke-width="3"/>
<line x1="249.3" y1="235.7" x2="210.7" y2="243.9" opacity="1.0" stroke="rgb(0,0,0)"  stroke-width="3"/>
<line x1="249.3" y1="235.7" x2="288.0" y2="227.4" opacity="1.0" stroke="rgb(0,0,0)"  stroke-width="3"/>
<line x1="445.5" y1="265.0" x2="471.9" y2="235.7" opacity="1.0" stroke="rgb(0,0,0)"  stroke-width="3"/>
<line x1="459.7" y1="198.1" x2="425.5" y2="178.3" opacity="1.0" stroke="rgb(0,0,0)"  stroke-width="3"/>
<line x1="391.3" y1="119.0" x2="391.3" y2="79.5" opacity="1.0" stroke="rgb(0,0,0)"  stroke-width="3"/>
<line x1="391.3" y1="79.5" x2="357.0" y2="59.8" opacity="1.0" stroke="rgb(0,0,0)"  stroke-width="3"/>
<line x1="391.3" y1="79.5" x2="425.5" y2="59.8" opacity="1.0" stroke="rgb(0,0,0)"  stroke-width="3"/>
<line x1="391.3" y1="79.5" x2="391.3" y2="40.0" opacity="1.0" stroke="rgb(0,0,0)"  stroke-width="3"/>
<line x1="357.0" y1="178.3" x2="322.8" y2="198.1" opacity="1.0" stroke="rgb(0,0,0)"  stroke-width="3"/>
<line x1="322.8" y1="198.1" x2="294.9" y2="170.1" opacity="1.0" stroke="rgb(0,0,0)"  stroke-width="3"/>
<line x1="322.8" y1="198.1" x2="312.6" y2="236.2" opacity="1.0" stroke="rgb(0,0,0)"  stroke-width="3"/>
<line x1="322.8" y1="198.1" x2="283.3" y2="198.1" opacity="1.0" stroke="rgb(0,0,0)"  stroke-width="3"/>
<line x1="380.4" y1="286.2" x2="392.6" y2="323.8" opacity="1.0" stroke="rgb(0,0,0)"  stroke-width="3"/>
<line x1="375.4" y1="294.1" x2="383.9" y2="320.3" opacity="1.0" stroke="rgb(0,0,0)"  stroke-width="3"/>
<line x1="392.6" y1="323.8" x2="371.1" y2="339.3" opacity="1.0" stroke="rgb(0,0,0)"  stroke-width="3"/>
<line x1="350.1" y1="339.3" x2="328.7" y2="323.8" opacity="1.0" stroke="rgb(0,0,0)"  stroke-width="3"/>
<line x1="328.7" y1="323.8" x2="340.9" y2="286.2" opacity="1.0" stroke="rgb(0,0,0)"  stroke-width="3"/>
<line x1="337.4" y1="320.3" x2="345.9" y2="294.1" opacity="1.0" stroke="rgb(0,0,0)"  stroke-width="3"/>
<line x1="340.9" y1="286.2" x2="380.4" y2="286.2" opacity="1.0" stroke="rgb(0,0,0)"  stroke-width="3"/>
<line x1="249.4" y1="513.1" x2="229.6" y2="478.8" opacity="1.0" stroke="rgb(0,0,0)"  stroke-width="3"/>
<line x1="229.6" y1="478.8" x2="256.1" y2="449.5" opacity="1.0" stroke="rgb(0,0,0)"  stroke-width="3"/>
<line x1="239.0" y1="479.2" x2="257.4" y2="458.7" opacity="1.0" stroke="rgb(0,0,0)"  stroke-width="3"/>
<line x1="256.1" y1="449.5" x2="280.3" y2="460.3" opacity="1.0" stroke="rgb(0,0,0)"  stroke-width="3"/>
<line x1="290.8" y1="478.5" x2="288.1" y2="504.8" opacity="1.0" stroke="rgb(0,0,0)"  stroke-width="3"/>
<line x1="288.1" y1="504.8" x2="249.4" y2="513.1" opacity="1.0" stroke="rgb(0,0,0)"  stroke-width="3"/>
<line x1="280.7" y1="499.0" x2="253.8" y2="504.8" opacity="1.0" stroke="rgb(0,0,0)"  stroke-width="3"/>
<line x1="433.2" y1="504.8" x2="471.9" y2="513.1" opacity="1.0" stroke="rgb(0,0,0)"  stroke-width="3"/>
<line x1="440.6" y1="499.0" x2="467.5" y2="504.8" opacity="1.0" stroke="rgb(0,0,0)"  stroke-width="3"/>
<line x1="471.9" y1="513.1" x2="491.6" y2="478.8" opacity="1.0" stroke="rgb(0,0,0)"  stroke-width="3"/>
<line x1="491.6" y1="478.8" x2="465.2" y2="449.5" opacity="1.0" stroke="rgb(0,0,0)"  stroke-width="3"/>
<line x1="482.3" y1="479.2" x2="463.8" y2="458.7" opacity="1.0" stroke="rgb(0,0,0)"  stroke-width="3"/>
<line x1="465.2" y1="449.5" x2="441.0" y2="460.3" opacity="1.0" stroke="rgb(0,0,0)"  stroke-width="3"/>
<line x1="430.4" y1="478.5" x2="433.2" y2="504.8" opacity="1.0" stroke="rgb(0,0,0)"  stroke-width="3"/>
<line x1="574.5" y1="377.7" x2="577.2" y2="404.0" opacity="1.0" stroke="rgb(0,0,0)"  stroke-width="3"/>
<line x1="566.7" y1="422.3" x2="542.5" y2="433.0" opacity="1.0" stroke="rgb(0,0,0)"  stroke-width="3"/>
<line x1="542.5" y1="433.0" x2="516.0" y2="403.7" opacity="1.0" stroke="rgb(0,0,0)"  stroke-width="3"/>
<line x1="516.0" y1="403.7" x2="535.8" y2="369.4" opacity="1.0" stroke="rgb(0,0,0)"  stroke-width="3"/>
<line x1="535.8" y1="369.4" x2="574.5" y2="377.7" opacity="1.0" stroke="rgb(0,0,0)"  stroke-width="3"/>
<line x1="540.2" y1="377.7" x2="567.1" y2="383.5" opacity="1.0" stroke="rgb(0,0,0)"  stroke-width="3"/>
<line x1="146.8" y1="377.7" x2="185.5" y2="369.4" opacity="1.0" stroke="rgb(0,0,0)"  stroke-width="3"/>
<line x1="154.2" y1="383.5" x2="181.1" y2="377.7" opacity="1.0" stroke="rgb(0,0,0)"  stroke-width="3"/>
<line x1="185.5" y1="369.4" x2="205.2" y2="403.7" opacity="1.0" stroke="rgb(0,0,0)"  stroke-width="3"/>
<line x1="205.2" y1="403.7" x2="178.8" y2="433.0" opacity="1.0" stroke="rgb(0,0,0)"  stroke-width="3"/>
<line x1="178.8" y1="433.0" x2="154.5" y2="422.3" opacity="1.0" stroke="rgb(0,0,0)"  stroke-width="3"/>
<line x1="144.0" y1="404.0" x2="146.8" y2="377.7" opacity="1.0" stroke="rgb(0,0,0)"  stroke-width="3"/>
<line x1="326.4" y1="445.8" x2="360.6" y2="465.5" opacity="1.0" stroke="rgb(0,0,0)"  stroke-width="3"/>
<line x1="360.6" y1="465.5" x2="394.9" y2="445.8" opacity="1.0" stroke="rgb(0,0,0)"  stroke-width="3"/>
<line x1="362.2" y1="456.3" x2="386.1" y2="442.5" opacity="1.0" stroke="rgb(0,0,0)"  stroke-width="3"/>
<line x1="394.9" y1="445.8" x2="394.9" y2="406.3" opacity="1.0" stroke="rgb(0,0,0)"  stroke-width="3"/>
<line x1="394.9" y1="406.3" x2="360.6" y2="386.5" opacity="1.0" stroke="rgb(0,0,0)"  stroke-width="3"/>
<line x1="386.1" y1="409.5" x2="362.2" y2="395.7" opacity="1.0" stroke="rgb(0,0,0)"  stroke-width="3"/>
<line x1="360.6" y1="386.5" x2="326.4" y2="406.3" opacity="1.0" stroke="rgb(0,0,0)"  stroke-width="3"/>
<line x1="326.4" y1="406.3" x2="326.4" y2="445.8" opacity="1.0" stroke="rgb(0,0,0)"  stroke-width="3"/>
<line x1="333.6" y1="412.3" x2="333.6" y2="439.8" opacity="1.0" stroke="rgb(0,0,0)"  stroke-width="3"/>
<line x1="516.0" y1="403.7" x2="477.4" y2="411.9" opacity="1.0" stroke="rgb(0,0,0)"  stroke-width="3"/>
<line x1="511.7" y1="412.0" x2="484.8" y2="417.7" opacity="1.0" stroke="rgb(0,0,0)"  stroke-width="3"/>
<line x1="477.4" y1="411.9" x2="465.2" y2="449.5" opacity="1.0" stroke="rgb(0,0,0)"  stroke-width="3"/>
<line x1="491.6" y1="478.8" x2="530.3" y2="470.6" opacity="1.0" stroke="rgb(0,0,0)"  stroke-width="3"/>
<line x1="530.3" y1="470.6" x2="542.5" y2="433.0" opacity="1.0" stroke="rgb(0,0,0)"  stroke-width="3"/>
<line x1="525.3" y1="462.7" x2="533.8" y2="436.5" opacity="1.0" stroke="rgb(0,0,0)"  stroke-width="3"/>
<line x1="477.4" y1="411.9" x2="440.6" y2="392.6" opacity="1.0" stroke="rgb(0,0,0)"  stroke-width="3"/>
<line x1="417.8" y1="393.0" x2="394.9" y2="406.3" opacity="1.0" stroke="rgb(0,0,0)"  stroke-width="3"/>
<line x1="394.9" y1="445.8" x2="417.8" y2="459.0" opacity="1.0" stroke="rgb(0,0,0)"  stroke-width="3"/>
<line x1="360.6" y1="360.0" x2="360.6" y2="386.5" opacity="1.0" stroke="rgb(0,0,0)"  stroke-width="3"/>
<line x1="326.4" y1="406.3" x2="303.4" y2="393.0" opacity="1.0" stroke="rgb(0,0,0)"  stroke-width="3"/>
<line x1="291.7" y1="373.5" x2="290.0" y2="332.0" opacity="1.0" stroke="rgb(0,0,0)"  stroke-width="3"/>
<line x1="290.0" y1="332.0" x2="328.7" y2="323.8" opacity="1.0" stroke="rgb(0,0,0)"  stroke-width="3"/>
<line x1="445.5" y1="265.0" x2="457.7" y2="302.6" opacity="1.0" stroke="rgb(0,0,0)"  stroke-width="3"/>
<line x1="457.7" y1="302.6" x2="431.3" y2="332.0" opacity="1.0" stroke="rgb(0,0,0)"  stroke-width="3"/>
<line x1="448.3" y1="302.2" x2="429.9" y2="322.7" opacity="1.0" stroke="rgb(0,0,0)"  stroke-width="3"/>
<line x1="431.3" y1="332.0" x2="392.6" y2="323.8" opacity="1.0" stroke="rgb(0,0,0)"  stroke-width="3"/>
<line x1="380.4" y1="286.2" x2="406.8" y2="256.8" opacity="1.0" stroke="rgb(0,0,0)"  stroke-width="3"/>
<line x1="406.8" y1="256.8" x2="445.5" y2="265.0" opacity="1.0" stroke="rgb(0,0,0)"  stroke-width="3"/>
<line x1="411.2" y1="265.1" x2="438.1" y2="270.8" opacity="1.0" stroke="rgb(0,0,0)"  stroke-width="3"/>
<line x1="275.8" y1="265.0" x2="314.4" y2="256.8" opacity="1.0" stroke="rgb(0,0,0)"  stroke-width="3"/>
<line x1="283.1" y1="270.8" x2="310.1" y2="265.1" opacity="1.0" stroke="rgb(0,0,0)"  stroke-width="3"/>
<line x1="314.4" y1="256.8" x2="340.9" y2="286.2" opacity="1.0" stroke="rgb(0,0,0)"  stroke-width="3"/>
<line x1="290.0" y1="332.0" x2="263.6" y2="302.6" opacity="1.0" stroke="rgb(0,0,0)"  stroke-width="3"/>
<line x1="291.3" y1="322.7" x2="272.9" y2="302.2" opacity="1.0" stroke="rgb(0,0,0)"  stroke-width="3"/>
<line x1="263.6" y1="302.6" x2="275.8" y2="265.0" opacity="1.0" stroke="rgb(0,0,0)"  stroke-width="3"/>
<line x1="326.4" y1="445.8" x2="303.4" y2="459.0" opacity="1.0" stroke="rgb(0,0,0)"  stroke-width="3"/>
<line x1="256.1" y1="449.5" x2="243.9" y2="411.9" opacity="1.0" stroke="rgb(0,0,0)"  stroke-width="3"/>
<line x1="243.9" y1="411.9" x2="280.7" y2="392.6" opacity="1.0" stroke="rgb(0,0,0)"  stroke-width="3"/>
<line x1="302.3" y1="571.8" x2="263.6" y2="580.0" opacity="1.0" stroke="rgb(0,0,0)"  stroke-width="3"/>
<line x1="263.6" y1="580.0" x2="237.2" y2="550.6" opacity="1.0" stroke="rgb(0,0,0)"  stroke-width="3"/>
<line x1="265.0" y1="570.7" x2="246.6" y2="550.3" opacity="1.0" stroke="rgb(0,0,0)"  stroke-width="3"/>
<line x1="237.2" y1="550.6" x2="249.4" y2="513.1" opacity="1.0" stroke="rgb(0,0,0)"  stroke-width="3"/>
<line x1="288.1" y1="504.8" x2="314.5" y2="534.2" opacity="1.0" stroke="rgb(0,0,0)"  stroke-width="3"/>
<line x1="314.5" y1="534.2" x2="302.3" y2="571.8" opacity="1.0" stroke="rgb(0,0,0)"  stroke-width="3"/>
<line x1="305.8" y1="537.7" x2="297.3" y2="563.9" opacity="1.0" stroke="rgb(0,0,0)"  stroke-width="3"/>
<line x1="457.6" y1="580.0" x2="484.1" y2="550.6" opacity="1.0" stroke="rgb(0,0,0)"  stroke-width="3"/>
<line x1="456.3" y1="570.7" x2="474.7" y2="550.3" opacity="1.0" stroke="rgb(0,0,0)"  stroke-width="3"/>
<line x1="484.1" y1="550.6" x2="471.9" y2="513.1" opacity="1.0" stroke="rgb(0,0,0)"  stroke-width="3"/>
<line x1="433.2" y1="504.8" x2="406.8" y2="534.2" opacity="1.0" stroke="rgb(0,0,0)"  stroke-width="3"/>
<line x1="406.8" y1="534.2" x2="419.0" y2="571.8" opacity="1.0" stroke="rgb(0,0,0)"  stroke-width="3"/>
<line x1="415.5" y1="537.7" x2="424.0" y2="563.9" opacity="1.0" stroke="rgb(0,0,0)"  stroke-width="3"/>
<line x1="419.0" y1="571.8" x2="457.6" y2="580.0" opacity="1.0" stroke="rgb(0,0,0)"  stroke-width="3"/>
<line x1="429.6" y1="373.5" x2="431.3" y2="332.0" opacity="1.0" stroke="rgb(0,0,0)"  stroke-width="3"/>
<line x1="229.6" y1="478.8" x2="191.0" y2="470.6" opacity="1.0" stroke="rgb(0,0,0)"  stroke-width="3"/>
<line x1="191.0" y1="470.6" x2="178.8" y2="433.0" opacity="1.0" stroke="rgb(0,0,0)"  stroke-width="3"/>
<line x1="196.0" y1="462.7" x2="187.5" y2="436.5" opacity="1.0" stroke="rgb(0,0,0)"  stroke-width="3"/>
<line x1="205.2" y1="403.7" x2="243.9" y2="411.9" opacity="1.0" stroke="rgb(0,0,0)"  stroke-width="3"/>
<line x1="209.6" y1="412.0" x2="236.5" y2="417.7" opacity="1.0" stroke="rgb(0,0,0)"  stroke-width="3"/>
<line x1="132.6" y1="310.7" x2="171.2" y2="302.5" opacity="1.0" stroke="rgb(0,0,0)"  stroke-width="3"/>
<line x1="171.2" y1="302.5" x2="197.7" y2="331.9" opacity="1.0" stroke="rgb(0,0,0)"  stroke-width="3"/>
<line x1="169.9" y1="311.8" x2="188.3" y2="332.2" opacity="1.0" stroke="rgb(0,0,0)"  stroke-width="3"/>
<line x1="197.7" y1="331.9" x2="185.5" y2="369.4" opacity="1.0" stroke="rgb(0,0,0)"  stroke-width="3"/>
<line x1="146.8" y1="377.7" x2="120.4" y2="348.3" opacity="1.0" stroke="rgb(0,0,0)"  stroke-width="3"/>
<line x1="120.4" y1="348.3" x2="132.6" y2="310.7" opacity="1.0" stroke="rgb(0,0,0)"  stroke-width="3"/>
<line x1="129.1" y1="344.8" x2="137.6" y2="318.6" opacity="1.0" stroke="rgb(0,0,0)"  stroke-width="3"/>
<line x1="550.0" y1="302.5" x2="523.6" y2="331.9" opacity="1.0" stroke="rgb(0,0,0)"  stroke-width="3"/>
<line x1="551.4" y1="311.8" x2="533.0" y2="332.2" opacity="1.0" stroke="rgb(0,0,0)"  stroke-width="3"/>
<line x1="523.6" y1="331.9" x2="535.8" y2="369.4" opacity="1.0" stroke="rgb(0,0,0)"  stroke-width="3"/>
<line x1="574.5" y1="377.7" x2="600.9" y2="348.3" opacity="1.0" stroke="rgb(0,0,0)"  stroke-width="3"/>
<line x1="600.9" y1="348.3" x2="588.7" y2="310.7" opacity="1.0" stroke="rgb(0,0,0)"  stroke-width="3"/>
<line x1="592.2" y1="344.8" x2="583.7" y2="318.6" opacity="1.0" stroke="rgb(0,0,0)"  stroke-width="3"/>
<line x1="588.7" y1="310.7" x2="550.0" y2="302.5" opacity="1.0" stroke="rgb(0,0,0)"  stroke-width="3"/>
<line x1="74.2" y1="417.0" x2="40.0" y2="436.7" opacity="1.0" stroke="rgb(0,0,0)"  stroke-width="3"/>
<line x1="40.0" y1="436.7" x2="40.0" y2="476.2" opacity="1.0" stroke="rgb(0,0,0)"  stroke-width="3"/>
<line x1="47.2" y1="442.7" x2="47.2" y2="470.2" opacity="1.0" stroke="rgb(0,0,0)"  stroke-width="3"/>
<line x1="40.0" y1="476.2" x2="74.2" y2="496.0" opacity="1.0" stroke="rgb(0,0,0)"  stroke-width="3"/>
<line x1="74.2" y1="496.0" x2="108.4" y2="476.2" opacity="1.0" stroke="rgb(0,0,0)"  stroke-width="3"/>
<line x1="75.8" y1="486.8" x2="99.7" y2="473.0" opacity="1.0" stroke="rgb(0,0,0)"  stroke-width="3"/>
<line x1="108.4" y1="476.2" x2="108.4" y2="436.7" opacity="1.0" stroke="rgb(0,0,0)"  stroke-width="3"/>
<line x1="108.4" y1="436.7" x2="74.2" y2="417.0" opacity="1.0" stroke="rgb(0,0,0)"  stroke-width="3"/>
<line x1="99.7" y1="440.0" x2="75.8" y2="426.2" opacity="1.0" stroke="rgb(0,0,0)"  stroke-width="3"/>
<line x1="612.8" y1="476.2" x2="647.0" y2="496.0" opacity="1.0" stroke="rgb(0,0,0)"  stroke-width="3"/>
<line x1="647.0" y1="496.0" x2="681.3" y2="476.2" opacity="1.0" stroke="rgb(0,0,0)"  stroke-width="3"/>
<line x1="648.6" y1="486.8" x2="672.5" y2="473.0" opacity="1.0" stroke="rgb(0,0,0)"  stroke-width="3"/>
<line x1="681.3" y1="476.2" x2="681.3" y2="436.7" opacity="1.0" stroke="rgb(0,0,0)"  stroke-width="3"/>
<line x1="681.3" y1="436.7" x2="647.0" y2="417.0" opacity="1.0" stroke="rgb(0,0,0)"  stroke-width="3"/>
<line x1="672.5" y1="440.0" x2="648.6" y2="426.2" opacity="1.0" stroke="rgb(0,0,0)"  stroke-width="3"/>
<line x1="647.0" y1="417.0" x2="612.8" y2="436.7" opacity="1.0" stroke="rgb(0,0,0)"  stroke-width="3"/>
<line x1="612.8" y1="436.7" x2="612.8" y2="476.2" opacity="1.0" stroke="rgb(0,0,0)"  stroke-width="3"/>
<line x1="620.0" y1="442.7" x2="620.0" y2="470.2" opacity="1.0" stroke="rgb(0,0,0)"  stroke-width="3"/>
<line x1="326.4" y1="524.8" x2="326.4" y2="564.3" opacity="1.0" stroke="rgb(0,0,0)"  stroke-width="3"/>
<line x1="326.4" y1="564.3" x2="360.6" y2="584.1" opacity="1.0" stroke="rgb(0,0,0)"  stroke-width="3"/>
<line x1="335.2" y1="561.1" x2="359.0" y2="574.9" opacity="1.0" stroke="rgb(0,0,0)"  stroke-width="3"/>
<line x1="360.6" y1="584.1" x2="394.9" y2="564.3" opacity="1.0" stroke="rgb(0,0,0)"  stroke-width="3"/>
<line x1="394.9" y1="564.3" x2="394.9" y2="524.8" opacity="1.0" stroke="rgb(0,0,0)"  stroke-width="3"/>
<line x1="387.7" y1="558.3" x2="387.7" y2="530.8" opacity="1.0" stroke="rgb(0,0,0)"  stroke-width="3"/>
<line x1="394.9" y1="524.8" x2="360.6" y2="505.1" opacity="1.0" stroke="rgb(0,0,0)"  stroke-width="3"/>
<line x1="360.6" y1="505.1" x2="326.4" y2="524.8" opacity="1.0" stroke="rgb(0,0,0)"  stroke-width="3"/>
<line x1="359.0" y1="514.3" x2="335.2" y2="528.1" opacity="1.0" stroke="rgb(0,0,0)"  stroke-width="3"/>
<line x1="510.6" y1="243.9" x2="537.0" y2="214.5" opacity="1.0" stroke="rgb(0,0,0)"  stroke-width="3"/>
<line x1="537.0" y1="214.5" x2="524.8" y2="176.9" opacity="1.0" stroke="rgb(0,0,0)"  stroke-width="3"/>
<line x1="528.3" y1="211.0" x2="519.8" y2="184.9" opacity="1.0" stroke="rgb(0,0,0)"  stroke-width="3"/>
<line x1="524.8" y1="176.9" x2="486.2" y2="168.7" opacity="1.0" stroke="rgb(0,0,0)"  stroke-width="3"/>
<line x1="486.2" y1="168.7" x2="459.7" y2="198.1" opacity="1.0" stroke="rgb(0,0,0)"  stroke-width="3"/>
<line x1="487.5" y1="178.0" x2="469.1" y2="198.4" opacity="1.0" stroke="rgb(0,0,0)"  stroke-width="3"/>
<line x1="459.7" y1="198.1" x2="471.9" y2="235.7" opacity="1.0" stroke="rgb(0,0,0)"  stroke-width="3"/>
<line x1="471.9" y1="235.7" x2="510.6" y2="243.9" opacity="1.0" stroke="rgb(0,0,0)"  stroke-width="3"/>
<line x1="479.3" y1="229.9" x2="506.2" y2="235.6" opacity="1.0" stroke="rgb(0,0,0)"  stroke-width="3"/>
<line x1="425.5" y1="138.8" x2="391.3" y2="119.0" opacity="1.0" stroke="rgb(0,0,0)"  stroke-width="3"/>
<line x1="391.3" y1="119.0" x2="357.0" y2="138.8" opacity="1.0" stroke="rgb(0,0,0)"  stroke-width="3"/>
<line x1="389.7" y1="128.3" x2="365.8" y2="142.0" opacity="1.0" stroke="rgb(0,0,0)"  stroke-width="3"/>
<line x1="357.0" y1="138.8" x2="357.0" y2="178.3" opacity="1.0" stroke="rgb(0,0,0)"  stroke-width="3"/>
<line x1="357.0" y1="178.3" x2="391.3" y2="198.1" opacity="1.0" stroke="rgb(0,0,0)"  stroke-width="3"/>
<line x1="365.8" y1="175.1" x2="389.7" y2="188.8" opacity="1.0" stroke="rgb(0,0,0)"  stroke-width="3"/>
<line x1="391.3" y1="198.1" x2="425.5" y2="178.3" opacity="1.0" stroke="rgb(0,0,0)"  stroke-width="3"/>
<line x1="425.5" y1="178.3" x2="425.5" y2="138.8" opacity="1.0" stroke="rgb(0,0,0)"  stroke-width="3"/>
<line x1="418.3" y1="172.3" x2="418.3" y2="144.8" opacity="1.0" stroke="rgb(0,0,0)"  stroke-width="3"/>
<text x="354.631639" y="354.988510" fill="rgb(12,12,255)" stroke-width="0" font-weight="bold" font-size="25.92" >N</text>
<text x="286.184058" y="394.506737" fill="rgb(255,181,181)" stroke-width="0" font-weight="bold" font-size="25.92" >B</text>
<text x="423.079220" y="394.506689" fill="rgb(255,181,181)" stroke-width="0" font-weight="bold" font-size="25.92" >B</text>
<text x="423.079220" y="473.543192" fill="rgb(12,12,255)" stroke-width="0" font-weight="bold" font-size="25.92" >N</text>
<text x="286.184058" y="473.543192" fill="rgb(12,12,255)" stroke-width="0" font-weight="bold" font-size="25.92" >N</text>
<text x="136.671324" y="424.963555" fill="rgb(12,12,255)" stroke-width="0" font-weight="bold" font-size="25.92" >N</text>
<text x="572.591954" y="424.963555" fill="rgb(12,12,255)" stroke-width="0" font-weight="bold" font-size="25.92" >N</text>
</svg>
</g>
</svg>
