<?xml version="1.0"?>
<svg version="1.1" id="topsvg"
xmlns="http://www.w3.org/2000/svg" xmlns:xlink="http://www.w3.org/1999/xlink"
xmlns:cml="http://www.xml-cml.org/schema" x="0" y="0" width="200px" height="200px" viewBox="0 0 100 100">
<title>GD343.sdf - Open Babel Depiction</title>
<rect x="0" y="0" width="100" height="100" fill="white"/>
<g transform="translate(0,0)">
<svg width="100" height="100" x="0" y="0" viewBox="0 0 713.468 477.864"
font-family="sans-serif" stroke="rgb(0,0,0)" stroke-width="3"  stroke-linecap="round">
<line x1="131.8" y1="414.5" x2="132.0" y2="368.8" opacity="1.0" stroke="rgb(0,0,0)"  stroke-width="3"/>
<line x1="132.0" y1="368.8" x2="171.7" y2="346.0" opacity="1.0" stroke="rgb(0,0,0)"  stroke-width="3"/>
<line x1="140.8" y1="372.0" x2="170.1" y2="355.2" opacity="1.0" stroke="rgb(0,0,0)"  stroke-width="3"/>
<line x1="171.7" y1="346.0" x2="211.3" y2="369.0" opacity="1.0" stroke="rgb(0,0,0)"  stroke-width="3"/>
<line x1="211.3" y1="369.0" x2="211.1" y2="414.8" opacity="1.0" stroke="rgb(0,0,0)"  stroke-width="3"/>
<line x1="204.1" y1="375.0" x2="204.0" y2="408.7" opacity="1.0" stroke="rgb(0,0,0)"  stroke-width="3"/>
<line x1="211.1" y1="414.8" x2="171.4" y2="437.5" opacity="1.0" stroke="rgb(0,0,0)"  stroke-width="3"/>
<line x1="171.4" y1="437.5" x2="131.8" y2="414.5" opacity="1.0" stroke="rgb(0,0,0)"  stroke-width="3"/>
<line x1="169.9" y1="428.3" x2="140.7" y2="411.3" opacity="1.0" stroke="rgb(0,0,0)"  stroke-width="3"/>
<line x1="330.0" y1="120.1" x2="357.4" y2="139.5" opacity="1.0" stroke="rgb(0,0,0)"  stroke-width="3"/>
<line x1="357.4" y1="139.5" x2="354.4" y2="173.0" opacity="1.0" stroke="rgb(0,0,0)"  stroke-width="3"/>
<line x1="349.7" y1="144.8" x2="347.7" y2="166.4" opacity="1.0" stroke="rgb(0,0,0)"  stroke-width="3"/>
<line x1="354.4" y1="173.0" x2="323.8" y2="187.1" opacity="1.0" stroke="rgb(0,0,0)"  stroke-width="3"/>
<line x1="323.8" y1="187.1" x2="296.4" y2="167.7" opacity="1.0" stroke="rgb(0,0,0)"  stroke-width="3"/>
<line x1="323.1" y1="177.7" x2="305.4" y2="165.3" opacity="1.0" stroke="rgb(0,0,0)"  stroke-width="3"/>
<line x1="296.4" y1="167.7" x2="299.4" y2="134.2" opacity="1.0" stroke="rgb(0,0,0)"  stroke-width="3"/>
<line x1="299.4" y1="134.2" x2="330.0" y2="120.1" opacity="1.0" stroke="rgb(0,0,0)"  stroke-width="3"/>
<line x1="307.9" y1="138.2" x2="327.5" y2="129.2" opacity="1.0" stroke="rgb(0,0,0)"  stroke-width="3"/>
<line x1="291.6" y1="230.9" x2="291.5" y2="277.0" opacity="1.0" stroke="rgb(0,0,0)"  stroke-width="3"/>
<line x1="284.4" y1="236.9" x2="284.4" y2="271.0" opacity="1.0" stroke="rgb(0,0,0)"  stroke-width="3"/>
<line x1="291.5" y1="277.0" x2="251.6" y2="300.3" opacity="1.0" stroke="rgb(0,0,0)"  stroke-width="3"/>
<line x1="251.6" y1="300.3" x2="211.5" y2="276.8" opacity="1.0" stroke="rgb(0,0,0)"  stroke-width="3"/>
<line x1="250.1" y1="291.1" x2="220.3" y2="273.6" opacity="1.0" stroke="rgb(0,0,0)"  stroke-width="3"/>
<line x1="211.5" y1="276.8" x2="211.6" y2="230.7" opacity="1.0" stroke="rgb(0,0,0)"  stroke-width="3"/>
<line x1="211.6" y1="230.7" x2="251.3" y2="208.1" opacity="1.0" stroke="rgb(0,0,0)"  stroke-width="3"/>
<line x1="220.3" y1="234.0" x2="249.6" y2="217.4" opacity="1.0" stroke="rgb(0,0,0)"  stroke-width="3"/>
<line x1="251.3" y1="208.1" x2="291.6" y2="230.9" opacity="1.0" stroke="rgb(0,0,0)"  stroke-width="3"/>
<line x1="357.4" y1="276.5" x2="355.0" y2="241.0" opacity="1.0" stroke="rgb(0,0,0)"  stroke-width="3"/>
<line x1="355.0" y1="241.0" x2="336.5" y2="228.1" opacity="1.0" stroke="rgb(0,0,0)"  stroke-width="3"/>
<line x1="313.3" y1="224.4" x2="291.6" y2="230.9" opacity="1.0" stroke="rgb(0,0,0)"  stroke-width="3"/>
<line x1="291.5" y1="277.0" x2="319.9" y2="293.9" opacity="1.0" stroke="rgb(0,0,0)"  stroke-width="3"/>
<line x1="340.7" y1="291.7" x2="357.4" y2="276.5" opacity="1.0" stroke="rgb(0,0,0)"  stroke-width="3"/>
<line x1="473.4" y1="161.6" x2="443.8" y2="181.5" opacity="1.0" stroke="rgb(0,0,0)"  stroke-width="3"/>
<line x1="443.8" y1="181.5" x2="411.8" y2="165.8" opacity="1.0" stroke="rgb(0,0,0)"  stroke-width="3"/>
<line x1="441.6" y1="172.4" x2="420.4" y2="161.9" opacity="1.0" stroke="rgb(0,0,0)"  stroke-width="3"/>
<line x1="411.8" y1="165.8" x2="409.5" y2="130.2" opacity="1.0" stroke="rgb(0,0,0)"  stroke-width="3"/>
<line x1="409.5" y1="130.2" x2="439.1" y2="110.4" opacity="1.0" stroke="rgb(0,0,0)"  stroke-width="3"/>
<line x1="418.5" y1="132.9" x2="438.1" y2="119.7" opacity="1.0" stroke="rgb(0,0,0)"  stroke-width="3"/>
<line x1="439.1" y1="110.4" x2="471.0" y2="126.1" opacity="1.0" stroke="rgb(0,0,0)"  stroke-width="3"/>
<line x1="471.0" y1="126.1" x2="473.4" y2="161.6" opacity="1.0" stroke="rgb(0,0,0)"  stroke-width="3"/>
<line x1="464.2" y1="132.6" x2="465.8" y2="156.1" opacity="1.0" stroke="rgb(0,0,0)"  stroke-width="3"/>
<line x1="439.3" y1="282.4" x2="419.0" y2="272.4" opacity="1.0" stroke="rgb(0,0,0)"  stroke-width="3"/>
<line x1="419.0" y1="272.4" x2="416.6" y2="236.8" opacity="1.0" stroke="rgb(0,0,0)"  stroke-width="3"/>
<line x1="425.8" y1="265.9" x2="424.2" y2="242.3" opacity="1.0" stroke="rgb(0,0,0)"  stroke-width="3"/>
<line x1="416.6" y1="236.8" x2="435.4" y2="224.2" opacity="1.0" stroke="rgb(0,0,0)"  stroke-width="3"/>
<line x1="457.9" y1="222.7" x2="478.2" y2="232.7" opacity="1.0" stroke="rgb(0,0,0)"  stroke-width="3"/>
<line x1="478.2" y1="232.7" x2="480.5" y2="268.3" opacity="1.0" stroke="rgb(0,0,0)"  stroke-width="3"/>
<line x1="480.5" y1="268.3" x2="461.7" y2="280.9" opacity="1.0" stroke="rgb(0,0,0)"  stroke-width="3"/>
<line x1="528.9" y1="257.6" x2="507.2" y2="274.6" opacity="1.0" stroke="rgb(0,0,0)"  stroke-width="3"/>
<line x1="507.2" y1="274.6" x2="480.5" y2="268.3" opacity="1.0" stroke="rgb(0,0,0)"  stroke-width="3"/>
<line x1="503.1" y1="266.2" x2="488.0" y2="262.6" opacity="1.0" stroke="rgb(0,0,0)"  stroke-width="3"/>
<line x1="478.2" y1="232.7" x2="507.7" y2="212.9" opacity="1.0" stroke="rgb(0,0,0)"  stroke-width="3"/>
<line x1="487.1" y1="235.4" x2="506.8" y2="222.2" opacity="1.0" stroke="rgb(0,0,0)"  stroke-width="3"/>
<line x1="507.7" y1="212.9" x2="529.1" y2="230.2" opacity="1.0" stroke="rgb(0,0,0)"  stroke-width="3"/>
<line x1="529.1" y1="230.2" x2="528.9" y2="257.6" opacity="1.0" stroke="rgb(0,0,0)"  stroke-width="3"/>
<line x1="521.8" y1="236.1" x2="521.7" y2="251.6" opacity="1.0" stroke="rgb(0,0,0)"  stroke-width="3"/>
<line x1="567.5" y1="321.5" x2="550.7" y2="334.5" opacity="1.0" stroke="rgb(0,0,0)"  stroke-width="3"/>
<line x1="550.7" y1="334.5" x2="531.0" y2="326.4" opacity="1.0" stroke="rgb(0,0,0)"  stroke-width="3"/>
<line x1="547.9" y1="325.5" x2="539.3" y2="322.0" opacity="1.0" stroke="rgb(0,0,0)"  stroke-width="3"/>
<line x1="531.0" y1="326.4" x2="528.2" y2="305.4" opacity="1.0" stroke="rgb(0,0,0)"  stroke-width="3"/>
<line x1="528.2" y1="305.4" x2="545.0" y2="292.4" opacity="1.0" stroke="rgb(0,0,0)"  stroke-width="3"/>
<line x1="537.3" y1="307.4" x2="544.6" y2="301.7" opacity="1.0" stroke="rgb(0,0,0)"  stroke-width="3"/>
<line x1="545.0" y1="292.4" x2="564.6" y2="300.4" opacity="1.0" stroke="rgb(0,0,0)"  stroke-width="3"/>
<line x1="564.6" y1="300.4" x2="567.5" y2="321.5" opacity="1.0" stroke="rgb(0,0,0)"  stroke-width="3"/>
<line x1="558.3" y1="307.3" x2="559.6" y2="316.5" opacity="1.0" stroke="rgb(0,0,0)"  stroke-width="3"/>
<line x1="291.3" y1="369.2" x2="331.0" y2="346.3" opacity="1.0" stroke="rgb(0,0,0)"  stroke-width="3"/>
<line x1="293.0" y1="359.9" x2="322.2" y2="343.1" opacity="1.0" stroke="rgb(0,0,0)"  stroke-width="3"/>
<line x1="331.0" y1="346.3" x2="331.1" y2="313.5" opacity="1.0" stroke="rgb(0,0,0)"  stroke-width="3"/>
<line x1="251.6" y1="300.3" x2="251.5" y2="333.2" opacity="1.0" stroke="rgb(0,0,0)"  stroke-width="3"/>
<line x1="262.8" y1="352.7" x2="291.3" y2="369.2" opacity="1.0" stroke="rgb(0,0,0)"  stroke-width="3"/>
<line x1="370.6" y1="415.0" x2="370.6" y2="369.3" opacity="1.0" stroke="rgb(0,0,0)"  stroke-width="3"/>
<line x1="363.4" y1="409.0" x2="363.4" y2="375.3" opacity="1.0" stroke="rgb(0,0,0)"  stroke-width="3"/>
<line x1="370.6" y1="369.3" x2="331.0" y2="346.3" opacity="1.0" stroke="rgb(0,0,0)"  stroke-width="3"/>
<line x1="291.3" y1="369.2" x2="291.3" y2="414.9" opacity="1.0" stroke="rgb(0,0,0)"  stroke-width="3"/>
<line x1="291.3" y1="414.9" x2="330.9" y2="437.9" opacity="1.0" stroke="rgb(0,0,0)"  stroke-width="3"/>
<line x1="300.1" y1="411.7" x2="329.3" y2="428.6" opacity="1.0" stroke="rgb(0,0,0)"  stroke-width="3"/>
<line x1="330.9" y1="437.9" x2="370.6" y2="415.0" opacity="1.0" stroke="rgb(0,0,0)"  stroke-width="3"/>
<line x1="389.4" y1="292.2" x2="357.4" y2="276.5" opacity="1.0" stroke="rgb(0,0,0)"  stroke-width="3"/>
<line x1="387.2" y1="283.1" x2="366.0" y2="272.7" opacity="1.0" stroke="rgb(0,0,0)"  stroke-width="3"/>
<line x1="355.0" y1="241.0" x2="384.6" y2="221.1" opacity="1.0" stroke="rgb(0,0,0)"  stroke-width="3"/>
<line x1="364.0" y1="243.6" x2="383.7" y2="230.4" opacity="1.0" stroke="rgb(0,0,0)"  stroke-width="3"/>
<line x1="384.6" y1="221.1" x2="416.6" y2="236.8" opacity="1.0" stroke="rgb(0,0,0)"  stroke-width="3"/>
<line x1="419.0" y1="272.4" x2="389.4" y2="292.2" opacity="1.0" stroke="rgb(0,0,0)"  stroke-width="3"/>
<line x1="497.5" y1="308.6" x2="487.6" y2="316.6" opacity="1.0" stroke="rgb(0,0,0)"  stroke-width="3"/>
<line x1="487.6" y1="316.6" x2="462.4" y2="311.2" opacity="1.0" stroke="rgb(0,0,0)"  stroke-width="3"/>
<line x1="483.2" y1="308.3" x2="469.8" y2="305.4" opacity="1.0" stroke="rgb(0,0,0)"  stroke-width="3"/>
<line x1="462.4" y1="311.2" x2="456.7" y2="299.7" opacity="1.0" stroke="rgb(0,0,0)"  stroke-width="3"/>
<line x1="507.2" y1="274.6" x2="507.4" y2="287.4" opacity="1.0" stroke="rgb(0,0,0)"  stroke-width="3"/>
<line x1="478.1" y1="360.3" x2="452.9" y2="354.8" opacity="1.0" stroke="rgb(0,0,0)"  stroke-width="3"/>
<line x1="452.9" y1="354.8" x2="445.1" y2="330.3" opacity="1.0" stroke="rgb(0,0,0)"  stroke-width="3"/>
<line x1="457.9" y1="346.9" x2="453.7" y2="333.8" opacity="1.0" stroke="rgb(0,0,0)"  stroke-width="3"/>
<line x1="445.1" y1="330.3" x2="462.4" y2="311.2" opacity="1.0" stroke="rgb(0,0,0)"  stroke-width="3"/>
<line x1="487.6" y1="316.6" x2="495.4" y2="341.2" opacity="1.0" stroke="rgb(0,0,0)"  stroke-width="3"/>
<line x1="495.4" y1="341.2" x2="478.1" y2="360.3" opacity="1.0" stroke="rgb(0,0,0)"  stroke-width="3"/>
<line x1="486.1" y1="340.8" x2="476.8" y2="351.0" opacity="1.0" stroke="rgb(0,0,0)"  stroke-width="3"/>
<line x1="590.2" y1="141.3" x2="617.9" y2="178.1" opacity="1.0" stroke="rgb(0,0,0)"  stroke-width="3"/>
<line x1="588.1" y1="150.4" x2="608.5" y2="177.6" opacity="1.0" stroke="rgb(0,0,0)"  stroke-width="3"/>
<line x1="617.9" y1="178.1" x2="599.8" y2="220.4" opacity="1.0" stroke="rgb(0,0,0)"  stroke-width="3"/>
<line x1="599.8" y1="220.4" x2="554.1" y2="226.0" opacity="1.0" stroke="rgb(0,0,0)"  stroke-width="3"/>
<line x1="593.0" y1="214.0" x2="559.2" y2="218.1" opacity="1.0" stroke="rgb(0,0,0)"  stroke-width="3"/>
<line x1="554.1" y1="226.0" x2="526.5" y2="189.2" opacity="1.0" stroke="rgb(0,0,0)"  stroke-width="3"/>
<line x1="526.5" y1="189.2" x2="544.6" y2="146.8" opacity="1.0" stroke="rgb(0,0,0)"  stroke-width="3"/>
<line x1="535.5" y1="186.5" x2="548.8" y2="155.2" opacity="1.0" stroke="rgb(0,0,0)"  stroke-width="3"/>
<line x1="544.6" y1="146.8" x2="590.2" y2="141.3" opacity="1.0" stroke="rgb(0,0,0)"  stroke-width="3"/>
<line x1="639.8" y1="351.9" x2="595.8" y2="338.4" opacity="1.0" stroke="rgb(0,0,0)"  stroke-width="3"/>
<line x1="636.1" y1="343.3" x2="603.6" y2="333.3" opacity="1.0" stroke="rgb(0,0,0)"  stroke-width="3"/>
<line x1="595.8" y1="338.4" x2="585.5" y2="293.5" opacity="1.0" stroke="rgb(0,0,0)"  stroke-width="3"/>
<line x1="585.5" y1="293.5" x2="619.2" y2="262.2" opacity="1.0" stroke="rgb(0,0,0)"  stroke-width="3"/>
<line x1="594.8" y1="294.7" x2="619.7" y2="271.5" opacity="1.0" stroke="rgb(0,0,0)"  stroke-width="3"/>
<line x1="619.2" y1="262.2" x2="663.2" y2="275.7" opacity="1.0" stroke="rgb(0,0,0)"  stroke-width="3"/>
<line x1="663.2" y1="275.7" x2="673.5" y2="320.6" opacity="1.0" stroke="rgb(0,0,0)"  stroke-width="3"/>
<line x1="657.5" y1="283.2" x2="665.1" y2="316.3" opacity="1.0" stroke="rgb(0,0,0)"  stroke-width="3"/>
<line x1="673.5" y1="320.6" x2="639.8" y2="351.9" opacity="1.0" stroke="rgb(0,0,0)"  stroke-width="3"/>
<line x1="40.0" y1="339.0" x2="53.9" y2="295.1" opacity="1.0" stroke="rgb(0,0,0)"  stroke-width="3"/>
<line x1="48.7" y1="335.5" x2="58.9" y2="303.0" opacity="1.0" stroke="rgb(0,0,0)"  stroke-width="3"/>
<line x1="53.9" y1="295.1" x2="98.8" y2="285.2" opacity="1.0" stroke="rgb(0,0,0)"  stroke-width="3"/>
<line x1="98.8" y1="285.2" x2="129.9" y2="319.2" opacity="1.0" stroke="rgb(0,0,0)"  stroke-width="3"/>
<line x1="97.6" y1="294.5" x2="120.5" y2="319.6" opacity="1.0" stroke="rgb(0,0,0)"  stroke-width="3"/>
<line x1="129.9" y1="319.2" x2="116.0" y2="363.1" opacity="1.0" stroke="rgb(0,0,0)"  stroke-width="3"/>
<line x1="116.0" y1="363.1" x2="71.0" y2="373.0" opacity="1.0" stroke="rgb(0,0,0)"  stroke-width="3"/>
<line x1="108.6" y1="357.3" x2="75.4" y2="364.6" opacity="1.0" stroke="rgb(0,0,0)"  stroke-width="3"/>
<line x1="71.0" y1="373.0" x2="40.0" y2="339.0" opacity="1.0" stroke="rgb(0,0,0)"  stroke-width="3"/>
<line x1="182.6" y1="176.3" x2="197.2" y2="220.0" opacity="1.0" stroke="rgb(0,0,0)"  stroke-width="3"/>
<line x1="177.7" y1="184.3" x2="188.5" y2="216.6" opacity="1.0" stroke="rgb(0,0,0)"  stroke-width="3"/>
<line x1="197.2" y1="220.0" x2="166.6" y2="254.4" opacity="1.0" stroke="rgb(0,0,0)"  stroke-width="3"/>
<line x1="166.6" y1="254.4" x2="121.6" y2="245.2" opacity="1.0" stroke="rgb(0,0,0)"  stroke-width="3"/>
<line x1="162.2" y1="246.2" x2="128.9" y2="239.3" opacity="1.0" stroke="rgb(0,0,0)"  stroke-width="3"/>
<line x1="121.6" y1="245.2" x2="107.0" y2="201.5" opacity="1.0" stroke="rgb(0,0,0)"  stroke-width="3"/>
<line x1="107.0" y1="201.5" x2="137.6" y2="167.1" opacity="1.0" stroke="rgb(0,0,0)"  stroke-width="3"/>
<line x1="116.4" y1="201.8" x2="139.0" y2="176.4" opacity="1.0" stroke="rgb(0,0,0)"  stroke-width="3"/>
<line x1="137.6" y1="167.1" x2="182.6" y2="176.3" opacity="1.0" stroke="rgb(0,0,0)"  stroke-width="3"/>
<line x1="126.8" y1="172.0" x2="153.9" y2="134.8" opacity="1.0" stroke="rgb(0,0,0)"  stroke-width="3"/>
<line x1="136.1" y1="171.4" x2="156.2" y2="143.9" opacity="1.0" stroke="rgb(0,0,0)"  stroke-width="3"/>
<line x1="153.9" y1="134.8" x2="199.6" y2="139.7" opacity="1.0" stroke="rgb(0,0,0)"  stroke-width="3"/>
<line x1="199.6" y1="139.7" x2="218.3" y2="181.8" opacity="1.0" stroke="rgb(0,0,0)"  stroke-width="3"/>
<line x1="195.5" y1="148.1" x2="209.3" y2="179.2" opacity="1.0" stroke="rgb(0,0,0)"  stroke-width="3"/>
<line x1="218.3" y1="181.8" x2="191.2" y2="219.0" opacity="1.0" stroke="rgb(0,0,0)"  stroke-width="3"/>
<line x1="191.2" y1="219.0" x2="145.4" y2="214.1" opacity="1.0" stroke="rgb(0,0,0)"  stroke-width="3"/>
<line x1="186.0" y1="211.2" x2="152.1" y2="207.5" opacity="1.0" stroke="rgb(0,0,0)"  stroke-width="3"/>
<line x1="145.4" y1="214.1" x2="126.8" y2="172.0" opacity="1.0" stroke="rgb(0,0,0)"  stroke-width="3"/>
<line x1="313.7" y1="63.1" x2="313.6" y2="109.1" opacity="1.0" stroke="rgb(0,0,0)"  stroke-width="3"/>
<line x1="306.5" y1="69.1" x2="306.4" y2="103.1" opacity="1.0" stroke="rgb(0,0,0)"  stroke-width="3"/>
<line x1="313.6" y1="109.1" x2="273.7" y2="132.0" opacity="1.0" stroke="rgb(0,0,0)"  stroke-width="3"/>
<line x1="273.7" y1="132.0" x2="233.9" y2="109.0" opacity="1.0" stroke="rgb(0,0,0)"  stroke-width="3"/>
<line x1="272.1" y1="122.8" x2="242.7" y2="105.7" opacity="1.0" stroke="rgb(0,0,0)"  stroke-width="3"/>
<line x1="233.9" y1="109.0" x2="234.0" y2="62.9" opacity="1.0" stroke="rgb(0,0,0)"  stroke-width="3"/>
<line x1="234.0" y1="62.9" x2="273.9" y2="40.0" opacity="1.0" stroke="rgb(0,0,0)"  stroke-width="3"/>
<line x1="242.8" y1="66.2" x2="272.3" y2="49.2" opacity="1.0" stroke="rgb(0,0,0)"  stroke-width="3"/>
<line x1="273.9" y1="40.0" x2="313.7" y2="63.1" opacity="1.0" stroke="rgb(0,0,0)"  stroke-width="3"/>
<line x1="611.2" y1="242.5" x2="565.7" y2="236.0" opacity="1.0" stroke="rgb(0,0,0)"  stroke-width="3"/>
<line x1="606.3" y1="234.5" x2="572.6" y2="229.7" opacity="1.0" stroke="rgb(0,0,0)"  stroke-width="3"/>
<line x1="565.7" y1="236.0" x2="548.6" y2="193.2" opacity="1.0" stroke="rgb(0,0,0)"  stroke-width="3"/>
<line x1="548.6" y1="193.2" x2="577.0" y2="157.1" opacity="1.0" stroke="rgb(0,0,0)"  stroke-width="3"/>
<line x1="557.9" y1="193.0" x2="579.0" y2="166.2" opacity="1.0" stroke="rgb(0,0,0)"  stroke-width="3"/>
<line x1="577.0" y1="157.1" x2="622.6" y2="163.6" opacity="1.0" stroke="rgb(0,0,0)"  stroke-width="3"/>
<line x1="622.6" y1="163.6" x2="639.7" y2="206.3" opacity="1.0" stroke="rgb(0,0,0)"  stroke-width="3"/>
<line x1="618.1" y1="171.8" x2="630.8" y2="203.4" opacity="1.0" stroke="rgb(0,0,0)"  stroke-width="3"/>
<line x1="639.7" y1="206.3" x2="611.2" y2="242.5" opacity="1.0" stroke="rgb(0,0,0)"  stroke-width="3"/>
<line x1="529.7" y1="42.1" x2="562.7" y2="74.2" opacity="1.0" stroke="rgb(0,0,0)"  stroke-width="3"/>
<line x1="528.9" y1="51.5" x2="553.4" y2="75.2" opacity="1.0" stroke="rgb(0,0,0)"  stroke-width="3"/>
<line x1="562.7" y1="74.2" x2="551.4" y2="118.8" opacity="1.0" stroke="rgb(0,0,0)"  stroke-width="3"/>
<line x1="551.4" y1="118.8" x2="507.1" y2="131.4" opacity="1.0" stroke="rgb(0,0,0)"  stroke-width="3"/>
<line x1="543.7" y1="113.5" x2="510.9" y2="122.8" opacity="1.0" stroke="rgb(0,0,0)"  stroke-width="3"/>
<line x1="507.1" y1="131.4" x2="474.1" y2="99.3" opacity="1.0" stroke="rgb(0,0,0)"  stroke-width="3"/>
<line x1="474.1" y1="99.3" x2="485.4" y2="54.7" opacity="1.0" stroke="rgb(0,0,0)"  stroke-width="3"/>
<line x1="482.6" y1="95.2" x2="490.9" y2="62.3" opacity="1.0" stroke="rgb(0,0,0)"  stroke-width="3"/>
<line x1="485.4" y1="54.7" x2="529.7" y2="42.1" opacity="1.0" stroke="rgb(0,0,0)"  stroke-width="3"/>
<line x1="599.8" y1="220.4" x2="619.2" y2="262.2" opacity="1.0" stroke="rgb(0,0,0)"  stroke-width="3"/>
<line x1="585.5" y1="293.5" x2="545.3" y2="271.1" opacity="1.0" stroke="rgb(0,0,0)"  stroke-width="3"/>
<line x1="545.3" y1="271.1" x2="554.1" y2="226.0" opacity="1.0" stroke="rgb(0,0,0)"  stroke-width="3"/>
<line x1="98.8" y1="285.2" x2="121.6" y2="245.2" opacity="1.0" stroke="rgb(0,0,0)"  stroke-width="3"/>
<line x1="166.6" y1="254.4" x2="171.8" y2="300.2" opacity="1.0" stroke="rgb(0,0,0)"  stroke-width="3"/>
<line x1="171.8" y1="300.2" x2="129.9" y2="319.2" opacity="1.0" stroke="rgb(0,0,0)"  stroke-width="3"/>
<line x1="199.6" y1="139.7" x2="233.9" y2="109.0" opacity="1.0" stroke="rgb(0,0,0)"  stroke-width="3"/>
<line x1="273.7" y1="132.0" x2="264.1" y2="177.0" opacity="1.0" stroke="rgb(0,0,0)"  stroke-width="3"/>
<line x1="264.1" y1="177.0" x2="218.3" y2="181.8" opacity="1.0" stroke="rgb(0,0,0)"  stroke-width="3"/>
<line x1="551.4" y1="118.8" x2="577.0" y2="157.1" opacity="1.0" stroke="rgb(0,0,0)"  stroke-width="3"/>
<line x1="548.6" y1="193.2" x2="505.4" y2="177.4" opacity="1.0" stroke="rgb(0,0,0)"  stroke-width="3"/>
<line x1="505.4" y1="177.4" x2="507.1" y2="131.4" opacity="1.0" stroke="rgb(0,0,0)"  stroke-width="3"/>
<line x1="323.8" y1="187.1" x2="325.0" y2="207.7" opacity="1.0" stroke="rgb(0,0,0)"  stroke-width="3"/>
<line x1="251.3" y1="208.1" x2="264.1" y2="177.0" opacity="1.0" stroke="rgb(0,0,0)"  stroke-width="3"/>
<line x1="264.1" y1="177.0" x2="296.4" y2="167.7" opacity="1.0" stroke="rgb(0,0,0)"  stroke-width="3"/>
<line x1="240.2" y1="352.6" x2="211.3" y2="369.0" opacity="1.0" stroke="rgb(0,0,0)"  stroke-width="3"/>
<line x1="171.7" y1="346.0" x2="171.8" y2="300.2" opacity="1.0" stroke="rgb(0,0,0)"  stroke-width="3"/>
<line x1="171.8" y1="300.2" x2="211.5" y2="276.8" opacity="1.0" stroke="rgb(0,0,0)"  stroke-width="3"/>
<line x1="528.2" y1="305.4" x2="520.2" y2="303.4" opacity="1.0" stroke="rgb(0,0,0)"  stroke-width="3"/>
<line x1="528.9" y1="257.6" x2="545.3" y2="271.1" opacity="1.0" stroke="rgb(0,0,0)"  stroke-width="3"/>
<line x1="545.3" y1="271.1" x2="545.0" y2="292.4" opacity="1.0" stroke="rgb(0,0,0)"  stroke-width="3"/>
<line x1="445.3" y1="204.0" x2="443.8" y2="181.5" opacity="1.0" stroke="rgb(0,0,0)"  stroke-width="3"/>
<line x1="473.4" y1="161.6" x2="505.4" y2="177.4" opacity="1.0" stroke="rgb(0,0,0)"  stroke-width="3"/>
<line x1="505.4" y1="177.4" x2="507.7" y2="212.9" opacity="1.0" stroke="rgb(0,0,0)"  stroke-width="3"/>
<text x="245.495675" y="354.160969" fill="rgb(12,12,255)" stroke-width="0" font-weight="bold" font-size="25.92" >N</text>
<text x="501.531352" y="308.362827" fill="rgb(12,12,255)" stroke-width="0" font-weight="bold" font-size="25.92" >N</text>
<text x="444.939303" y="296.095269" fill="rgb(255,181,181)" stroke-width="0" font-weight="bold" font-size="25.92" >B</text>
<text x="440.189054" y="225.013566" fill="rgb(12,12,255)" stroke-width="0" font-weight="bold" font-size="25.92" >N</text>
<text x="325.107810" y="308.511904" fill="rgb(255,181,181)" stroke-width="0" font-weight="bold" font-size="25.92" >B</text>
<text x="319.770953" y="228.652335" fill="rgb(12,12,255)" stroke-width="0" font-weight="bold" font-size="25.92" >N</text>
</svg>
</g>
</svg>
