<?xml version="1.0"?>
<svg version="1.1" id="topsvg"
xmlns="http://www.w3.org/2000/svg" xmlns:xlink="http://www.w3.org/1999/xlink"
xmlns:cml="http://www.xml-cml.org/schema" x="0" y="0" width="200px" height="200px" viewBox="0 0 100 100">
<title>GD34.sdf - Open Babel Depiction</title>
<rect x="0" y="0" width="100" height="100" fill="white"/>
<g transform="translate(0,0)">
<svg width="100" height="100" x="0" y="0" viewBox="0 0 536.638 573.175"
font-family="sans-serif" stroke="rgb(0,0,0)" stroke-width="3"  stroke-linecap="round">
<line x1="220.5" y1="174.0" x2="220.5" y2="134.1" opacity="1.0" stroke="rgb(0,0,0)"  stroke-width="3"/>
<line x1="103.1" y1="314.4" x2="63.5" y2="318.6" opacity="1.0" stroke="rgb(0,0,0)"  stroke-width="3"/>
<line x1="289.6" y1="373.5" x2="289.6" y2="413.5" opacity="1.0" stroke="rgb(0,0,0)"  stroke-width="3"/>
<line x1="255.0" y1="473.3" x2="220.5" y2="493.3" opacity="1.0" stroke="rgb(0,0,0)"  stroke-width="3"/>
<line x1="220.5" y1="493.3" x2="220.5" y2="533.2" opacity="1.0" stroke="rgb(0,0,0)"  stroke-width="3"/>
<line x1="220.5" y1="493.3" x2="185.9" y2="473.3" opacity="1.0" stroke="rgb(0,0,0)"  stroke-width="3"/>
<line x1="220.5" y1="493.3" x2="220.5" y2="453.4" opacity="1.0" stroke="rgb(0,0,0)"  stroke-width="3"/>
<line x1="324.2" y1="473.3" x2="358.7" y2="493.3" opacity="1.0" stroke="rgb(0,0,0)"  stroke-width="3"/>
<line x1="358.7" y1="493.3" x2="358.7" y2="533.2" opacity="1.0" stroke="rgb(0,0,0)"  stroke-width="3"/>
<line x1="358.7" y1="493.3" x2="393.3" y2="473.3" opacity="1.0" stroke="rgb(0,0,0)"  stroke-width="3"/>
<line x1="358.7" y1="493.3" x2="358.7" y2="453.4" opacity="1.0" stroke="rgb(0,0,0)"  stroke-width="3"/>
<line x1="220.5" y1="134.1" x2="255.0" y2="114.1" opacity="1.0" stroke="rgb(0,0,0)"  stroke-width="3"/>
<line x1="185.9" y1="114.1" x2="220.5" y2="134.1" opacity="1.0" stroke="rgb(0,0,0)"  stroke-width="3"/>
<line x1="63.5" y1="318.6" x2="40.0" y2="286.3" opacity="1.0" stroke="rgb(0,0,0)"  stroke-width="3"/>
<line x1="47.2" y1="355.0" x2="63.5" y2="318.6" opacity="1.0" stroke="rgb(0,0,0)"  stroke-width="3"/>
<line x1="370.7" y1="130.4" x2="354.8" y2="108.7" opacity="1.0" stroke="rgb(0,0,0)"  stroke-width="3"/>
<line x1="220.5" y1="134.1" x2="220.5" y2="94.2" opacity="1.0" stroke="rgb(0,0,0)"  stroke-width="3"/>
<line x1="63.5" y1="318.6" x2="79.7" y2="282.1" opacity="1.0" stroke="rgb(0,0,0)"  stroke-width="3"/>
<line x1="396.7" y1="306.1" x2="420.1" y2="273.8" opacity="1.0" stroke="rgb(0,0,0)"  stroke-width="3"/>
<line x1="420.1" y1="273.8" x2="396.7" y2="241.5" opacity="1.0" stroke="rgb(0,0,0)"  stroke-width="3"/>
<line x1="396.7" y1="241.5" x2="358.7" y2="253.8" opacity="1.0" stroke="rgb(0,0,0)"  stroke-width="3"/>
<line x1="393.2" y1="250.2" x2="366.7" y2="258.8" opacity="1.0" stroke="rgb(0,0,0)"  stroke-width="3"/>
<line x1="358.7" y1="253.8" x2="358.7" y2="280.7" opacity="1.0" stroke="rgb(0,0,0)"  stroke-width="3"/>
<line x1="371.1" y1="297.7" x2="396.7" y2="306.1" opacity="1.0" stroke="rgb(0,0,0)"  stroke-width="3"/>
<line x1="159.1" y1="273.8" x2="182.5" y2="306.1" opacity="1.0" stroke="rgb(0,0,0)"  stroke-width="3"/>
<line x1="168.4" y1="274.4" x2="184.8" y2="297.0" opacity="1.0" stroke="rgb(0,0,0)"  stroke-width="3"/>
<line x1="182.5" y1="306.1" x2="208.1" y2="297.7" opacity="1.0" stroke="rgb(0,0,0)"  stroke-width="3"/>
<line x1="220.5" y1="280.7" x2="220.5" y2="253.8" opacity="1.0" stroke="rgb(0,0,0)"  stroke-width="3"/>
<line x1="220.5" y1="253.8" x2="185.9" y2="233.9" opacity="1.0" stroke="rgb(0,0,0)"  stroke-width="3"/>
<line x1="211.7" y1="257.1" x2="187.5" y2="243.1" opacity="1.0" stroke="rgb(0,0,0)"  stroke-width="3"/>
<line x1="185.9" y1="233.9" x2="159.1" y2="273.8" opacity="1.0" stroke="rgb(0,0,0)"  stroke-width="3"/>
<line x1="418.3" y1="140.9" x2="391.4" y2="140.9" opacity="1.0" stroke="rgb(0,0,0)"  stroke-width="3"/>
<line x1="374.6" y1="153.3" x2="366.6" y2="178.6" opacity="1.0" stroke="rgb(0,0,0)"  stroke-width="3"/>
<line x1="366.6" y1="178.6" x2="399.2" y2="201.7" opacity="1.0" stroke="rgb(0,0,0)"  stroke-width="3"/>
<line x1="375.7" y1="176.2" x2="398.5" y2="192.3" opacity="1.0" stroke="rgb(0,0,0)"  stroke-width="3"/>
<line x1="399.2" y1="201.7" x2="431.2" y2="178.6" opacity="1.0" stroke="rgb(0,0,0)"  stroke-width="3"/>
<line x1="431.2" y1="178.6" x2="418.3" y2="140.9" opacity="1.0" stroke="rgb(0,0,0)"  stroke-width="3"/>
<line x1="422.4" y1="175.3" x2="413.5" y2="148.9" opacity="1.0" stroke="rgb(0,0,0)"  stroke-width="3"/>
<line x1="289.6" y1="373.5" x2="324.2" y2="353.6" opacity="1.0" stroke="rgb(0,0,0)"  stroke-width="3"/>
<line x1="291.2" y1="364.3" x2="315.4" y2="350.4" opacity="1.0" stroke="rgb(0,0,0)"  stroke-width="3"/>
<line x1="324.2" y1="353.6" x2="324.2" y2="313.7" opacity="1.0" stroke="rgb(0,0,0)"  stroke-width="3"/>
<line x1="324.2" y1="313.7" x2="289.6" y2="293.7" opacity="1.0" stroke="rgb(0,0,0)"  stroke-width="3"/>
<line x1="315.4" y1="316.9" x2="291.2" y2="303.0" opacity="1.0" stroke="rgb(0,0,0)"  stroke-width="3"/>
<line x1="289.6" y1="293.7" x2="255.0" y2="313.7" opacity="1.0" stroke="rgb(0,0,0)"  stroke-width="3"/>
<line x1="255.0" y1="313.7" x2="255.0" y2="353.6" opacity="1.0" stroke="rgb(0,0,0)"  stroke-width="3"/>
<line x1="262.2" y1="319.7" x2="262.2" y2="347.6" opacity="1.0" stroke="rgb(0,0,0)"  stroke-width="3"/>
<line x1="255.0" y1="353.6" x2="289.6" y2="373.5" opacity="1.0" stroke="rgb(0,0,0)"  stroke-width="3"/>
<line x1="324.2" y1="313.7" x2="347.5" y2="300.2" opacity="1.0" stroke="rgb(0,0,0)"  stroke-width="3"/>
<line x1="358.7" y1="253.8" x2="324.2" y2="233.9" opacity="1.0" stroke="rgb(0,0,0)"  stroke-width="3"/>
<line x1="324.2" y1="233.9" x2="300.9" y2="247.3" opacity="1.0" stroke="rgb(0,0,0)"  stroke-width="3"/>
<line x1="289.6" y1="266.8" x2="289.6" y2="293.7" opacity="1.0" stroke="rgb(0,0,0)"  stroke-width="3"/>
<line x1="476.1" y1="314.4" x2="459.8" y2="277.9" opacity="1.0" stroke="rgb(0,0,0)"  stroke-width="3"/>
<line x1="459.8" y1="277.9" x2="420.1" y2="273.8" opacity="1.0" stroke="rgb(0,0,0)"  stroke-width="3"/>
<line x1="453.1" y1="284.5" x2="425.4" y2="281.6" opacity="1.0" stroke="rgb(0,0,0)"  stroke-width="3"/>
<line x1="396.7" y1="306.1" x2="412.9" y2="342.5" opacity="1.0" stroke="rgb(0,0,0)"  stroke-width="3"/>
<line x1="405.7" y1="308.6" x2="417.1" y2="334.1" opacity="1.0" stroke="rgb(0,0,0)"  stroke-width="3"/>
<line x1="412.9" y1="342.5" x2="452.6" y2="346.7" opacity="1.0" stroke="rgb(0,0,0)"  stroke-width="3"/>
<line x1="452.6" y1="346.7" x2="476.1" y2="314.4" opacity="1.0" stroke="rgb(0,0,0)"  stroke-width="3"/>
<line x1="450.3" y1="337.6" x2="466.7" y2="315.0" opacity="1.0" stroke="rgb(0,0,0)"  stroke-width="3"/>
<line x1="483.8" y1="118.6" x2="444.6" y2="110.8" opacity="1.0" stroke="rgb(0,0,0)"  stroke-width="3"/>
<line x1="476.5" y1="124.5" x2="449.1" y2="119.1" opacity="1.0" stroke="rgb(0,0,0)"  stroke-width="3"/>
<line x1="444.6" y1="110.8" x2="418.3" y2="140.9" opacity="1.0" stroke="rgb(0,0,0)"  stroke-width="3"/>
<line x1="431.2" y1="178.6" x2="470.3" y2="186.4" opacity="1.0" stroke="rgb(0,0,0)"  stroke-width="3"/>
<line x1="470.3" y1="186.4" x2="496.6" y2="156.4" opacity="1.0" stroke="rgb(0,0,0)"  stroke-width="3"/>
<line x1="468.9" y1="177.2" x2="487.3" y2="156.2" opacity="1.0" stroke="rgb(0,0,0)"  stroke-width="3"/>
<line x1="496.6" y1="156.4" x2="483.8" y2="118.6" opacity="1.0" stroke="rgb(0,0,0)"  stroke-width="3"/>
<line x1="278.3" y1="247.3" x2="255.0" y2="233.9" opacity="1.0" stroke="rgb(0,0,0)"  stroke-width="3"/>
<line x1="255.0" y1="233.9" x2="220.5" y2="253.8" opacity="1.0" stroke="rgb(0,0,0)"  stroke-width="3"/>
<line x1="231.7" y1="300.2" x2="255.0" y2="313.7" opacity="1.0" stroke="rgb(0,0,0)"  stroke-width="3"/>
<line x1="185.9" y1="194.0" x2="185.9" y2="233.9" opacity="1.0" stroke="rgb(0,0,0)"  stroke-width="3"/>
<line x1="255.0" y1="233.9" x2="255.0" y2="194.0" opacity="1.0" stroke="rgb(0,0,0)"  stroke-width="3"/>
<line x1="247.8" y1="227.9" x2="247.8" y2="200.0" opacity="1.0" stroke="rgb(0,0,0)"  stroke-width="3"/>
<line x1="255.0" y1="194.0" x2="220.5" y2="174.0" opacity="1.0" stroke="rgb(0,0,0)"  stroke-width="3"/>
<line x1="220.5" y1="174.0" x2="185.9" y2="194.0" opacity="1.0" stroke="rgb(0,0,0)"  stroke-width="3"/>
<line x1="218.9" y1="183.2" x2="194.7" y2="197.2" opacity="1.0" stroke="rgb(0,0,0)"  stroke-width="3"/>
<line x1="330.0" y1="194.4" x2="324.2" y2="233.9" opacity="1.0" stroke="rgb(0,0,0)"  stroke-width="3"/>
<line x1="336.2" y1="201.4" x2="332.2" y2="229.0" opacity="1.0" stroke="rgb(0,0,0)"  stroke-width="3"/>
<line x1="396.7" y1="241.5" x2="399.2" y2="201.7" opacity="1.0" stroke="rgb(0,0,0)"  stroke-width="3"/>
<line x1="366.6" y1="178.6" x2="330.0" y2="194.4" opacity="1.0" stroke="rgb(0,0,0)"  stroke-width="3"/>
<line x1="126.6" y1="346.7" x2="103.1" y2="314.4" opacity="1.0" stroke="rgb(0,0,0)"  stroke-width="3"/>
<line x1="103.1" y1="314.4" x2="119.4" y2="277.9" opacity="1.0" stroke="rgb(0,0,0)"  stroke-width="3"/>
<line x1="112.2" y1="311.8" x2="123.5" y2="286.4" opacity="1.0" stroke="rgb(0,0,0)"  stroke-width="3"/>
<line x1="119.4" y1="277.9" x2="159.1" y2="273.8" opacity="1.0" stroke="rgb(0,0,0)"  stroke-width="3"/>
<line x1="182.5" y1="306.1" x2="166.3" y2="342.5" opacity="1.0" stroke="rgb(0,0,0)"  stroke-width="3"/>
<line x1="166.3" y1="342.5" x2="126.6" y2="346.7" opacity="1.0" stroke="rgb(0,0,0)"  stroke-width="3"/>
<line x1="159.6" y1="336.0" x2="131.8" y2="338.9" opacity="1.0" stroke="rgb(0,0,0)"  stroke-width="3"/>
<line x1="255.0" y1="433.4" x2="255.0" y2="473.3" opacity="1.0" stroke="rgb(0,0,0)"  stroke-width="3"/>
<line x1="255.0" y1="473.3" x2="289.6" y2="493.3" opacity="1.0" stroke="rgb(0,0,0)"  stroke-width="3"/>
<line x1="263.8" y1="470.1" x2="288.0" y2="484.0" opacity="1.0" stroke="rgb(0,0,0)"  stroke-width="3"/>
<line x1="289.6" y1="493.3" x2="324.2" y2="473.3" opacity="1.0" stroke="rgb(0,0,0)"  stroke-width="3"/>
<line x1="324.2" y1="473.3" x2="324.2" y2="433.4" opacity="1.0" stroke="rgb(0,0,0)"  stroke-width="3"/>
<line x1="317.0" y1="467.3" x2="317.0" y2="439.4" opacity="1.0" stroke="rgb(0,0,0)"  stroke-width="3"/>
<line x1="324.2" y1="433.4" x2="289.6" y2="413.5" opacity="1.0" stroke="rgb(0,0,0)"  stroke-width="3"/>
<line x1="289.6" y1="413.5" x2="255.0" y2="433.4" opacity="1.0" stroke="rgb(0,0,0)"  stroke-width="3"/>
<line x1="288.0" y1="422.7" x2="263.8" y2="436.6" opacity="1.0" stroke="rgb(0,0,0)"  stroke-width="3"/>
<line x1="370.8" y1="72.2" x2="347.2" y2="40.0" opacity="1.0" stroke="rgb(0,0,0)"  stroke-width="3"/>
<line x1="347.2" y1="40.0" x2="307.5" y2="44.4" opacity="1.0" stroke="rgb(0,0,0)"  stroke-width="3"/>
<line x1="342.0" y1="47.8" x2="314.3" y2="50.9" opacity="1.0" stroke="rgb(0,0,0)"  stroke-width="3"/>
<line x1="307.5" y1="44.4" x2="291.5" y2="80.9" opacity="1.0" stroke="rgb(0,0,0)"  stroke-width="3"/>
<line x1="291.5" y1="80.9" x2="315.1" y2="113.1" opacity="1.0" stroke="rgb(0,0,0)"  stroke-width="3"/>
<line x1="300.9" y1="81.5" x2="317.4" y2="104.0" opacity="1.0" stroke="rgb(0,0,0)"  stroke-width="3"/>
<line x1="315.1" y1="113.1" x2="354.8" y2="108.7" opacity="1.0" stroke="rgb(0,0,0)"  stroke-width="3"/>
<line x1="354.8" y1="108.7" x2="370.8" y2="72.2" opacity="1.0" stroke="rgb(0,0,0)"  stroke-width="3"/>
<line x1="350.6" y1="100.3" x2="361.8" y2="74.8" opacity="1.0" stroke="rgb(0,0,0)"  stroke-width="3"/>
<text x="372.442582" y="148.858936" fill="rgb(12,12,255)" stroke-width="0" font-weight="bold" font-size="25.92" >N</text>
<text x="283.603740" y="261.817493" fill="rgb(255,181,181)" stroke-width="0" font-weight="bold" font-size="25.92" >B</text>
<text x="352.726647" y="301.725647" fill="rgb(12,12,255)" stroke-width="0" font-weight="bold" font-size="25.92" >N</text>
<text x="214.480832" y="301.725309" fill="rgb(12,12,255)" stroke-width="0" font-weight="bold" font-size="25.92" >N</text>
</svg>
</g>
</svg>
