<?xml version="1.0"?>
<svg version="1.1" id="topsvg"
xmlns="http://www.w3.org/2000/svg" xmlns:xlink="http://www.w3.org/1999/xlink"
xmlns:cml="http://www.xml-cml.org/schema" x="0" y="0" width="200px" height="200px" viewBox="0 0 100 100">
<title>GD344.sdf - Open Babel Depiction</title>
<rect x="0" y="0" width="100" height="100" fill="white"/>
<g transform="translate(0,0)">
<svg width="100" height="100" x="0" y="0" viewBox="0 0 584.479 545.739"
font-family="sans-serif" stroke="rgb(0,0,0)" stroke-width="3"  stroke-linecap="round">
<line x1="140.9" y1="378.3" x2="107.3" y2="397.7" opacity="1.0" stroke="rgb(0,0,0)"  stroke-width="3"/>
<line x1="241.8" y1="203.5" x2="241.8" y2="132.1" opacity="1.0" stroke="rgb(0,0,0)"  stroke-width="3"/>
<line x1="389.2" y1="322.0" x2="414.7" y2="325.8" opacity="1.0" stroke="rgb(0,0,0)"  stroke-width="3"/>
<line x1="414.7" y1="325.8" x2="434.1" y2="292.2" opacity="1.0" stroke="rgb(0,0,0)"  stroke-width="3"/>
<line x1="411.5" y1="317.0" x2="424.9" y2="293.8" opacity="1.0" stroke="rgb(0,0,0)"  stroke-width="3"/>
<line x1="434.1" y1="292.2" x2="410.0" y2="261.8" opacity="1.0" stroke="rgb(0,0,0)"  stroke-width="3"/>
<line x1="410.0" y1="261.8" x2="376.3" y2="281.2" opacity="1.0" stroke="rgb(0,0,0)"  stroke-width="3"/>
<line x1="376.3" y1="281.2" x2="376.3" y2="307.0" opacity="1.0" stroke="rgb(0,0,0)"  stroke-width="3"/>
<line x1="174.5" y1="320.0" x2="208.2" y2="339.4" opacity="1.0" stroke="rgb(0,0,0)"  stroke-width="3"/>
<line x1="183.3" y1="316.8" x2="206.6" y2="330.2" opacity="1.0" stroke="rgb(0,0,0)"  stroke-width="3"/>
<line x1="208.2" y1="339.4" x2="230.5" y2="326.5" opacity="1.0" stroke="rgb(0,0,0)"  stroke-width="3"/>
<line x1="241.8" y1="307.0" x2="241.8" y2="281.2" opacity="1.0" stroke="rgb(0,0,0)"  stroke-width="3"/>
<line x1="241.8" y1="281.2" x2="208.2" y2="261.8" opacity="1.0" stroke="rgb(0,0,0)"  stroke-width="3"/>
<line x1="208.2" y1="261.8" x2="174.5" y2="320.0" opacity="1.0" stroke="rgb(0,0,0)"  stroke-width="3"/>
<line x1="454.8" y1="210.0" x2="477.2" y2="222.9" opacity="1.0" stroke="rgb(0,0,0)"  stroke-width="3"/>
<line x1="477.2" y1="222.9" x2="510.8" y2="203.5" opacity="1.0" stroke="rgb(0,0,0)"  stroke-width="3"/>
<line x1="510.8" y1="203.5" x2="477.2" y2="145.3" opacity="1.0" stroke="rgb(0,0,0)"  stroke-width="3"/>
<line x1="477.2" y1="145.3" x2="443.6" y2="164.7" opacity="1.0" stroke="rgb(0,0,0)"  stroke-width="3"/>
<line x1="475.6" y1="154.5" x2="452.4" y2="167.9" opacity="1.0" stroke="rgb(0,0,0)"  stroke-width="3"/>
<line x1="443.6" y1="164.7" x2="443.6" y2="190.5" opacity="1.0" stroke="rgb(0,0,0)"  stroke-width="3"/>
<line x1="434.1" y1="359.4" x2="414.7" y2="325.8" opacity="1.0" stroke="rgb(0,0,0)"  stroke-width="3"/>
<line x1="434.1" y1="292.2" x2="473.0" y2="292.2" opacity="1.0" stroke="rgb(0,0,0)"  stroke-width="3"/>
<line x1="473.0" y1="292.2" x2="492.4" y2="325.8" opacity="1.0" stroke="rgb(0,0,0)"  stroke-width="3"/>
<line x1="469.7" y1="301.0" x2="483.2" y2="324.2" opacity="1.0" stroke="rgb(0,0,0)"  stroke-width="3"/>
<line x1="492.4" y1="325.8" x2="473.0" y2="359.4" opacity="1.0" stroke="rgb(0,0,0)"  stroke-width="3"/>
<line x1="473.0" y1="359.4" x2="434.1" y2="359.4" opacity="1.0" stroke="rgb(0,0,0)"  stroke-width="3"/>
<line x1="467.0" y1="352.2" x2="440.1" y2="352.2" opacity="1.0" stroke="rgb(0,0,0)"  stroke-width="3"/>
<line x1="342.7" y1="222.9" x2="342.7" y2="261.8" opacity="1.0" stroke="rgb(0,0,0)"  stroke-width="3"/>
<line x1="342.7" y1="261.8" x2="376.3" y2="281.2" opacity="1.0" stroke="rgb(0,0,0)"  stroke-width="3"/>
<line x1="351.5" y1="258.5" x2="374.7" y2="272.0" opacity="1.0" stroke="rgb(0,0,0)"  stroke-width="3"/>
<line x1="410.0" y1="261.8" x2="410.0" y2="222.9" opacity="1.0" stroke="rgb(0,0,0)"  stroke-width="3"/>
<line x1="402.8" y1="255.8" x2="402.8" y2="228.9" opacity="1.0" stroke="rgb(0,0,0)"  stroke-width="3"/>
<line x1="410.0" y1="222.9" x2="376.3" y2="203.5" opacity="1.0" stroke="rgb(0,0,0)"  stroke-width="3"/>
<line x1="376.3" y1="203.5" x2="342.7" y2="222.9" opacity="1.0" stroke="rgb(0,0,0)"  stroke-width="3"/>
<line x1="374.7" y1="212.8" x2="351.5" y2="226.2" opacity="1.0" stroke="rgb(0,0,0)"  stroke-width="3"/>
<line x1="477.2" y1="222.9" x2="477.2" y2="261.8" opacity="1.0" stroke="rgb(0,0,0)"  stroke-width="3"/>
<line x1="484.4" y1="228.9" x2="484.4" y2="255.8" opacity="1.0" stroke="rgb(0,0,0)"  stroke-width="3"/>
<line x1="477.2" y1="261.8" x2="510.8" y2="281.2" opacity="1.0" stroke="rgb(0,0,0)"  stroke-width="3"/>
<line x1="510.8" y1="281.2" x2="544.5" y2="261.8" opacity="1.0" stroke="rgb(0,0,0)"  stroke-width="3"/>
<line x1="512.4" y1="272.0" x2="535.7" y2="258.5" opacity="1.0" stroke="rgb(0,0,0)"  stroke-width="3"/>
<line x1="544.5" y1="261.8" x2="544.5" y2="222.9" opacity="1.0" stroke="rgb(0,0,0)"  stroke-width="3"/>
<line x1="544.5" y1="222.9" x2="510.8" y2="203.5" opacity="1.0" stroke="rgb(0,0,0)"  stroke-width="3"/>
<line x1="535.7" y1="226.2" x2="512.4" y2="212.8" opacity="1.0" stroke="rgb(0,0,0)"  stroke-width="3"/>
<line x1="443.6" y1="87.0" x2="477.2" y2="106.4" opacity="1.0" stroke="rgb(0,0,0)"  stroke-width="3"/>
<line x1="445.2" y1="96.3" x2="468.4" y2="109.7" opacity="1.0" stroke="rgb(0,0,0)"  stroke-width="3"/>
<line x1="477.2" y1="106.4" x2="477.2" y2="145.3" opacity="1.0" stroke="rgb(0,0,0)"  stroke-width="3"/>
<line x1="443.6" y1="164.7" x2="410.0" y2="145.3" opacity="1.0" stroke="rgb(0,0,0)"  stroke-width="3"/>
<line x1="410.0" y1="145.3" x2="410.0" y2="106.4" opacity="1.0" stroke="rgb(0,0,0)"  stroke-width="3"/>
<line x1="417.2" y1="139.3" x2="417.2" y2="112.4" opacity="1.0" stroke="rgb(0,0,0)"  stroke-width="3"/>
<line x1="410.0" y1="106.4" x2="443.6" y2="87.0" opacity="1.0" stroke="rgb(0,0,0)"  stroke-width="3"/>
<line x1="309.1" y1="320.0" x2="342.7" y2="339.4" opacity="1.0" stroke="rgb(0,0,0)"  stroke-width="3"/>
<line x1="342.7" y1="339.4" x2="365.1" y2="326.5" opacity="1.0" stroke="rgb(0,0,0)"  stroke-width="3"/>
<line x1="342.7" y1="261.8" x2="320.3" y2="274.7" opacity="1.0" stroke="rgb(0,0,0)"  stroke-width="3"/>
<line x1="309.1" y1="294.2" x2="309.1" y2="320.0" opacity="1.0" stroke="rgb(0,0,0)"  stroke-width="3"/>
<line x1="309.1" y1="397.7" x2="342.7" y2="378.3" opacity="1.0" stroke="rgb(0,0,0)"  stroke-width="3"/>
<line x1="342.7" y1="378.3" x2="342.7" y2="339.4" opacity="1.0" stroke="rgb(0,0,0)"  stroke-width="3"/>
<line x1="335.5" y1="372.3" x2="335.5" y2="345.4" opacity="1.0" stroke="rgb(0,0,0)"  stroke-width="3"/>
<line x1="309.1" y1="320.0" x2="275.4" y2="339.4" opacity="1.0" stroke="rgb(0,0,0)"  stroke-width="3"/>
<line x1="307.5" y1="329.3" x2="284.2" y2="342.7" opacity="1.0" stroke="rgb(0,0,0)"  stroke-width="3"/>
<line x1="275.4" y1="339.4" x2="275.4" y2="378.3" opacity="1.0" stroke="rgb(0,0,0)"  stroke-width="3"/>
<line x1="275.4" y1="378.3" x2="309.1" y2="397.7" opacity="1.0" stroke="rgb(0,0,0)"  stroke-width="3"/>
<line x1="284.2" y1="375.0" x2="307.5" y2="388.5" opacity="1.0" stroke="rgb(0,0,0)"  stroke-width="3"/>
<line x1="107.3" y1="436.5" x2="107.3" y2="397.7" opacity="1.0" stroke="rgb(0,0,0)"  stroke-width="3"/>
<line x1="107.3" y1="397.7" x2="73.6" y2="378.3" opacity="1.0" stroke="rgb(0,0,0)"  stroke-width="3"/>
<line x1="98.5" y1="400.9" x2="75.2" y2="387.5" opacity="1.0" stroke="rgb(0,0,0)"  stroke-width="3"/>
<line x1="73.6" y1="378.3" x2="40.0" y2="397.7" opacity="1.0" stroke="rgb(0,0,0)"  stroke-width="3"/>
<line x1="40.0" y1="397.7" x2="40.0" y2="436.5" opacity="1.0" stroke="rgb(0,0,0)"  stroke-width="3"/>
<line x1="47.2" y1="403.7" x2="47.2" y2="430.5" opacity="1.0" stroke="rgb(0,0,0)"  stroke-width="3"/>
<line x1="40.0" y1="436.5" x2="73.6" y2="456.0" opacity="1.0" stroke="rgb(0,0,0)"  stroke-width="3"/>
<line x1="73.6" y1="456.0" x2="107.3" y2="436.5" opacity="1.0" stroke="rgb(0,0,0)"  stroke-width="3"/>
<line x1="75.2" y1="446.7" x2="98.5" y2="433.3" opacity="1.0" stroke="rgb(0,0,0)"  stroke-width="3"/>
<line x1="311.2" y1="431.9" x2="273.2" y2="439.9" opacity="1.0" stroke="rgb(0,0,0)"  stroke-width="3"/>
<line x1="273.2" y1="439.9" x2="261.2" y2="476.9" opacity="1.0" stroke="rgb(0,0,0)"  stroke-width="3"/>
<line x1="278.2" y1="447.9" x2="269.9" y2="473.4" opacity="1.0" stroke="rgb(0,0,0)"  stroke-width="3"/>
<line x1="261.2" y1="476.9" x2="287.2" y2="505.7" opacity="1.0" stroke="rgb(0,0,0)"  stroke-width="3"/>
<line x1="287.2" y1="505.7" x2="325.2" y2="497.7" opacity="1.0" stroke="rgb(0,0,0)"  stroke-width="3"/>
<line x1="291.6" y1="497.4" x2="317.8" y2="491.9" opacity="1.0" stroke="rgb(0,0,0)"  stroke-width="3"/>
<line x1="325.2" y1="497.7" x2="337.2" y2="460.7" opacity="1.0" stroke="rgb(0,0,0)"  stroke-width="3"/>
<line x1="337.2" y1="460.7" x2="311.2" y2="431.9" opacity="1.0" stroke="rgb(0,0,0)"  stroke-width="3"/>
<line x1="327.8" y1="461.1" x2="309.9" y2="441.1" opacity="1.0" stroke="rgb(0,0,0)"  stroke-width="3"/>
<line x1="146.4" y1="460.7" x2="172.4" y2="431.9" opacity="1.0" stroke="rgb(0,0,0)"  stroke-width="3"/>
<line x1="155.8" y1="461.1" x2="173.7" y2="441.1" opacity="1.0" stroke="rgb(0,0,0)"  stroke-width="3"/>
<line x1="172.4" y1="431.9" x2="210.4" y2="439.9" opacity="1.0" stroke="rgb(0,0,0)"  stroke-width="3"/>
<line x1="210.4" y1="439.9" x2="222.4" y2="476.9" opacity="1.0" stroke="rgb(0,0,0)"  stroke-width="3"/>
<line x1="205.4" y1="447.9" x2="213.7" y2="473.4" opacity="1.0" stroke="rgb(0,0,0)"  stroke-width="3"/>
<line x1="222.4" y1="476.9" x2="196.4" y2="505.7" opacity="1.0" stroke="rgb(0,0,0)"  stroke-width="3"/>
<line x1="196.4" y1="505.7" x2="158.4" y2="497.7" opacity="1.0" stroke="rgb(0,0,0)"  stroke-width="3"/>
<line x1="192.0" y1="497.4" x2="165.8" y2="491.9" opacity="1.0" stroke="rgb(0,0,0)"  stroke-width="3"/>
<line x1="158.4" y1="497.7" x2="146.4" y2="460.7" opacity="1.0" stroke="rgb(0,0,0)"  stroke-width="3"/>
<line x1="241.8" y1="203.5" x2="208.2" y2="222.9" opacity="1.0" stroke="rgb(0,0,0)"  stroke-width="3"/>
<line x1="208.2" y1="222.9" x2="208.2" y2="261.8" opacity="1.0" stroke="rgb(0,0,0)"  stroke-width="3"/>
<line x1="215.4" y1="228.9" x2="215.4" y2="255.8" opacity="1.0" stroke="rgb(0,0,0)"  stroke-width="3"/>
<line x1="241.8" y1="281.2" x2="275.4" y2="261.8" opacity="1.0" stroke="rgb(0,0,0)"  stroke-width="3"/>
<line x1="243.4" y1="272.0" x2="266.6" y2="258.5" opacity="1.0" stroke="rgb(0,0,0)"  stroke-width="3"/>
<line x1="275.4" y1="261.8" x2="275.4" y2="222.9" opacity="1.0" stroke="rgb(0,0,0)"  stroke-width="3"/>
<line x1="275.4" y1="222.9" x2="241.8" y2="203.5" opacity="1.0" stroke="rgb(0,0,0)"  stroke-width="3"/>
<line x1="266.6" y1="226.2" x2="243.4" y2="212.8" opacity="1.0" stroke="rgb(0,0,0)"  stroke-width="3"/>
<line x1="140.9" y1="339.4" x2="174.5" y2="320.0" opacity="1.0" stroke="rgb(0,0,0)"  stroke-width="3"/>
<line x1="208.2" y1="339.4" x2="208.2" y2="378.3" opacity="1.0" stroke="rgb(0,0,0)"  stroke-width="3"/>
<line x1="208.2" y1="378.3" x2="174.5" y2="397.7" opacity="1.0" stroke="rgb(0,0,0)"  stroke-width="3"/>
<line x1="199.4" y1="375.0" x2="176.1" y2="388.5" opacity="1.0" stroke="rgb(0,0,0)"  stroke-width="3"/>
<line x1="174.5" y1="397.7" x2="140.9" y2="378.3" opacity="1.0" stroke="rgb(0,0,0)"  stroke-width="3"/>
<line x1="140.9" y1="378.3" x2="140.9" y2="339.4" opacity="1.0" stroke="rgb(0,0,0)"  stroke-width="3"/>
<line x1="148.1" y1="372.3" x2="148.1" y2="345.4" opacity="1.0" stroke="rgb(0,0,0)"  stroke-width="3"/>
<line x1="297.8" y1="274.7" x2="275.4" y2="261.8" opacity="1.0" stroke="rgb(0,0,0)"  stroke-width="3"/>
<line x1="253.1" y1="326.5" x2="275.4" y2="339.4" opacity="1.0" stroke="rgb(0,0,0)"  stroke-width="3"/>
<line x1="358.3" y1="40.0" x2="329.4" y2="65.9" opacity="1.0" stroke="rgb(0,0,0)"  stroke-width="3"/>
<line x1="358.7" y1="49.4" x2="338.6" y2="67.2" opacity="1.0" stroke="rgb(0,0,0)"  stroke-width="3"/>
<line x1="329.4" y1="65.9" x2="337.3" y2="103.9" opacity="1.0" stroke="rgb(0,0,0)"  stroke-width="3"/>
<line x1="337.3" y1="103.9" x2="374.2" y2="116.0" opacity="1.0" stroke="rgb(0,0,0)"  stroke-width="3"/>
<line x1="345.2" y1="98.9" x2="370.7" y2="107.3" opacity="1.0" stroke="rgb(0,0,0)"  stroke-width="3"/>
<line x1="374.2" y1="116.0" x2="403.1" y2="90.2" opacity="1.0" stroke="rgb(0,0,0)"  stroke-width="3"/>
<line x1="403.1" y1="90.2" x2="395.2" y2="52.1" opacity="1.0" stroke="rgb(0,0,0)"  stroke-width="3"/>
<line x1="394.9" y1="85.8" x2="389.4" y2="59.5" opacity="1.0" stroke="rgb(0,0,0)"  stroke-width="3"/>
<line x1="395.2" y1="52.1" x2="358.3" y2="40.0" opacity="1.0" stroke="rgb(0,0,0)"  stroke-width="3"/>
<line x1="282.7" y1="206.4" x2="321.4" y2="202.3" opacity="1.0" stroke="rgb(0,0,0)"  stroke-width="3"/>
<line x1="287.9" y1="198.6" x2="314.7" y2="195.8" opacity="1.0" stroke="rgb(0,0,0)"  stroke-width="3"/>
<line x1="321.4" y1="202.3" x2="337.3" y2="166.7" opacity="1.0" stroke="rgb(0,0,0)"  stroke-width="3"/>
<line x1="337.3" y1="166.7" x2="314.3" y2="135.2" opacity="1.0" stroke="rgb(0,0,0)"  stroke-width="3"/>
<line x1="327.9" y1="166.1" x2="312.1" y2="144.3" opacity="1.0" stroke="rgb(0,0,0)"  stroke-width="3"/>
<line x1="314.3" y1="135.2" x2="275.6" y2="139.3" opacity="1.0" stroke="rgb(0,0,0)"  stroke-width="3"/>
<line x1="275.6" y1="139.3" x2="259.8" y2="174.9" opacity="1.0" stroke="rgb(0,0,0)"  stroke-width="3"/>
<line x1="279.7" y1="147.7" x2="268.8" y2="172.4" opacity="1.0" stroke="rgb(0,0,0)"  stroke-width="3"/>
<line x1="259.8" y1="174.9" x2="282.7" y2="206.4" opacity="1.0" stroke="rgb(0,0,0)"  stroke-width="3"/>
<line x1="275.4" y1="112.7" x2="275.4" y2="73.8" opacity="1.0" stroke="rgb(0,0,0)"  stroke-width="3"/>
<line x1="275.4" y1="73.8" x2="241.8" y2="54.4" opacity="1.0" stroke="rgb(0,0,0)"  stroke-width="3"/>
<line x1="266.6" y1="77.1" x2="243.4" y2="63.6" opacity="1.0" stroke="rgb(0,0,0)"  stroke-width="3"/>
<line x1="241.8" y1="54.4" x2="208.2" y2="73.8" opacity="1.0" stroke="rgb(0,0,0)"  stroke-width="3"/>
<line x1="208.2" y1="73.8" x2="208.2" y2="112.7" opacity="1.0" stroke="rgb(0,0,0)"  stroke-width="3"/>
<line x1="215.4" y1="79.8" x2="215.4" y2="106.7" opacity="1.0" stroke="rgb(0,0,0)"  stroke-width="3"/>
<line x1="208.2" y1="112.7" x2="241.8" y2="132.1" opacity="1.0" stroke="rgb(0,0,0)"  stroke-width="3"/>
<line x1="241.8" y1="132.1" x2="275.4" y2="112.7" opacity="1.0" stroke="rgb(0,0,0)"  stroke-width="3"/>
<line x1="243.4" y1="122.8" x2="266.6" y2="109.4" opacity="1.0" stroke="rgb(0,0,0)"  stroke-width="3"/>
<line x1="241.8" y1="407.4" x2="273.2" y2="439.9" opacity="1.0" stroke="rgb(0,0,0)"  stroke-width="3"/>
<line x1="261.2" y1="476.9" x2="222.4" y2="476.9" opacity="1.0" stroke="rgb(0,0,0)"  stroke-width="3"/>
<line x1="210.4" y1="439.9" x2="241.8" y2="407.4" opacity="1.0" stroke="rgb(0,0,0)"  stroke-width="3"/>
<line x1="337.3" y1="103.9" x2="314.3" y2="135.2" opacity="1.0" stroke="rgb(0,0,0)"  stroke-width="3"/>
<line x1="337.3" y1="166.7" x2="374.0" y2="154.9" opacity="1.0" stroke="rgb(0,0,0)"  stroke-width="3"/>
<line x1="374.0" y1="154.9" x2="374.2" y2="116.0" opacity="1.0" stroke="rgb(0,0,0)"  stroke-width="3"/>
<line x1="410.0" y1="222.9" x2="432.3" y2="210.0" opacity="1.0" stroke="rgb(0,0,0)"  stroke-width="3"/>
<line x1="410.0" y1="145.3" x2="374.0" y2="154.9" opacity="1.0" stroke="rgb(0,0,0)"  stroke-width="3"/>
<line x1="374.0" y1="154.9" x2="376.3" y2="203.5" opacity="1.0" stroke="rgb(0,0,0)"  stroke-width="3"/>
<line x1="208.2" y1="378.3" x2="241.8" y2="407.4" opacity="1.0" stroke="rgb(0,0,0)"  stroke-width="3"/>
<line x1="241.8" y1="407.4" x2="275.4" y2="378.3" opacity="1.0" stroke="rgb(0,0,0)"  stroke-width="3"/>
<text x="235.791786" y="328.031373" fill="rgb(12,12,255)" stroke-width="0" font-weight="bold" font-size="25.92" >N</text>
<text x="437.583147" y="211.527704" fill="rgb(12,12,255)" stroke-width="0" font-weight="bold" font-size="25.92" >N</text>
<text x="370.319281" y="328.031940" fill="rgb(12,12,255)" stroke-width="0" font-weight="bold" font-size="25.92" >N</text>
<text x="303.055416" y="289.197006" fill="rgb(255,181,181)" stroke-width="0" font-weight="bold" font-size="25.92" >B</text>
</svg>
</g>
</svg>
