<?xml version="1.0"?>
<svg version="1.1" id="topsvg"
xmlns="http://www.w3.org/2000/svg" xmlns:xlink="http://www.w3.org/1999/xlink"
xmlns:cml="http://www.xml-cml.org/schema" x="0" y="0" width="200px" height="200px" viewBox="0 0 100 100">
<title>GD354.sdf - Open Babel Depiction</title>
<rect x="0" y="0" width="100" height="100" fill="white"/>
<g transform="translate(0,0)">
<svg width="100" height="100" x="0" y="0" viewBox="0 0 658.12 583.46"
font-family="sans-serif" stroke="rgb(0,0,0)" stroke-width="3"  stroke-linecap="round">
<line x1="543.1" y1="353.3" x2="551.3" y2="327.9" opacity="1.0" stroke="rgb(0,0,0)"  stroke-width="3"/>
<line x1="106.8" y1="327.9" x2="115.1" y2="353.3" opacity="1.0" stroke="rgb(0,0,0)"  stroke-width="3"/>
<line x1="225.8" y1="258.7" x2="191.3" y2="238.8" opacity="1.0" stroke="rgb(0,0,0)"  stroke-width="3"/>
<line x1="432.4" y1="258.7" x2="466.8" y2="238.8" opacity="1.0" stroke="rgb(0,0,0)"  stroke-width="3"/>
<line x1="466.8" y1="199.0" x2="432.4" y2="179.2" opacity="1.0" stroke="rgb(0,0,0)"  stroke-width="3"/>
<line x1="397.9" y1="119.5" x2="397.9" y2="79.8" opacity="1.0" stroke="rgb(0,0,0)"  stroke-width="3"/>
<line x1="397.9" y1="79.8" x2="363.5" y2="59.9" opacity="1.0" stroke="rgb(0,0,0)"  stroke-width="3"/>
<line x1="397.9" y1="79.8" x2="432.4" y2="59.9" opacity="1.0" stroke="rgb(0,0,0)"  stroke-width="3"/>
<line x1="397.9" y1="79.8" x2="397.9" y2="40.0" opacity="1.0" stroke="rgb(0,0,0)"  stroke-width="3"/>
<line x1="363.5" y1="179.2" x2="329.1" y2="199.0" opacity="1.0" stroke="rgb(0,0,0)"  stroke-width="3"/>
<line x1="329.1" y1="199.0" x2="294.6" y2="179.2" opacity="1.0" stroke="rgb(0,0,0)"  stroke-width="3"/>
<line x1="329.1" y1="199.0" x2="329.1" y2="238.8" opacity="1.0" stroke="rgb(0,0,0)"  stroke-width="3"/>
<line x1="329.1" y1="199.0" x2="294.6" y2="218.9" opacity="1.0" stroke="rgb(0,0,0)"  stroke-width="3"/>
<line x1="562.4" y1="397.8" x2="546.7" y2="376.2" opacity="1.0" stroke="rgb(0,0,0)"  stroke-width="3"/>
<line x1="526.7" y1="369.7" x2="501.2" y2="378.0" opacity="1.0" stroke="rgb(0,0,0)"  stroke-width="3"/>
<line x1="501.2" y1="378.0" x2="501.2" y2="417.7" opacity="1.0" stroke="rgb(0,0,0)"  stroke-width="3"/>
<line x1="508.4" y1="384.0" x2="508.4" y2="411.7" opacity="1.0" stroke="rgb(0,0,0)"  stroke-width="3"/>
<line x1="501.2" y1="417.7" x2="539.0" y2="430.0" opacity="1.0" stroke="rgb(0,0,0)"  stroke-width="3"/>
<line x1="539.0" y1="430.0" x2="562.4" y2="397.8" opacity="1.0" stroke="rgb(0,0,0)"  stroke-width="3"/>
<line x1="536.7" y1="420.9" x2="553.1" y2="398.5" opacity="1.0" stroke="rgb(0,0,0)"  stroke-width="3"/>
<line x1="363.5" y1="258.7" x2="363.5" y2="298.4" opacity="1.0" stroke="rgb(0,0,0)"  stroke-width="3"/>
<line x1="356.3" y1="264.7" x2="356.3" y2="292.4" opacity="1.0" stroke="rgb(0,0,0)"  stroke-width="3"/>
<line x1="363.5" y1="298.4" x2="340.3" y2="311.8" opacity="1.0" stroke="rgb(0,0,0)"  stroke-width="3"/>
<line x1="317.8" y1="311.8" x2="294.6" y2="298.4" opacity="1.0" stroke="rgb(0,0,0)"  stroke-width="3"/>
<line x1="294.6" y1="298.4" x2="294.6" y2="258.7" opacity="1.0" stroke="rgb(0,0,0)"  stroke-width="3"/>
<line x1="301.8" y1="292.4" x2="301.8" y2="264.7" opacity="1.0" stroke="rgb(0,0,0)"  stroke-width="3"/>
<line x1="294.6" y1="258.7" x2="363.5" y2="258.7" opacity="1.0" stroke="rgb(0,0,0)"  stroke-width="3"/>
<line x1="205.9" y1="474.6" x2="191.3" y2="437.6" opacity="1.0" stroke="rgb(0,0,0)"  stroke-width="3"/>
<line x1="191.3" y1="437.6" x2="225.8" y2="417.7" opacity="1.0" stroke="rgb(0,0,0)"  stroke-width="3"/>
<line x1="200.1" y1="440.8" x2="224.2" y2="427.0" opacity="1.0" stroke="rgb(0,0,0)"  stroke-width="3"/>
<line x1="225.8" y1="417.7" x2="248.9" y2="431.1" opacity="1.0" stroke="rgb(0,0,0)"  stroke-width="3"/>
<line x1="255.4" y1="449.7" x2="245.6" y2="474.6" opacity="1.0" stroke="rgb(0,0,0)"  stroke-width="3"/>
<line x1="245.6" y1="474.6" x2="205.9" y2="474.6" opacity="1.0" stroke="rgb(0,0,0)"  stroke-width="3"/>
<line x1="239.6" y1="467.4" x2="211.9" y2="467.4" opacity="1.0" stroke="rgb(0,0,0)"  stroke-width="3"/>
<line x1="95.7" y1="397.8" x2="111.4" y2="376.2" opacity="1.0" stroke="rgb(0,0,0)"  stroke-width="3"/>
<line x1="131.4" y1="369.7" x2="156.9" y2="378.0" opacity="1.0" stroke="rgb(0,0,0)"  stroke-width="3"/>
<line x1="156.9" y1="378.0" x2="156.9" y2="417.7" opacity="1.0" stroke="rgb(0,0,0)"  stroke-width="3"/>
<line x1="149.7" y1="384.0" x2="149.7" y2="411.7" opacity="1.0" stroke="rgb(0,0,0)"  stroke-width="3"/>
<line x1="156.9" y1="417.7" x2="119.1" y2="430.0" opacity="1.0" stroke="rgb(0,0,0)"  stroke-width="3"/>
<line x1="119.1" y1="430.0" x2="95.7" y2="397.8" opacity="1.0" stroke="rgb(0,0,0)"  stroke-width="3"/>
<line x1="412.5" y1="474.6" x2="452.2" y2="474.6" opacity="1.0" stroke="rgb(0,0,0)"  stroke-width="3"/>
<line x1="418.5" y1="467.4" x2="446.2" y2="467.4" opacity="1.0" stroke="rgb(0,0,0)"  stroke-width="3"/>
<line x1="452.2" y1="474.6" x2="466.8" y2="437.6" opacity="1.0" stroke="rgb(0,0,0)"  stroke-width="3"/>
<line x1="466.8" y1="437.6" x2="432.4" y2="417.7" opacity="1.0" stroke="rgb(0,0,0)"  stroke-width="3"/>
<line x1="458.0" y1="440.8" x2="434.0" y2="427.0" opacity="1.0" stroke="rgb(0,0,0)"  stroke-width="3"/>
<line x1="432.4" y1="417.7" x2="409.2" y2="431.1" opacity="1.0" stroke="rgb(0,0,0)"  stroke-width="3"/>
<line x1="402.7" y1="449.7" x2="412.5" y2="474.6" opacity="1.0" stroke="rgb(0,0,0)"  stroke-width="3"/>
<line x1="294.6" y1="417.7" x2="329.1" y2="437.6" opacity="1.0" stroke="rgb(0,0,0)"  stroke-width="3"/>
<line x1="329.1" y1="437.6" x2="363.5" y2="417.7" opacity="1.0" stroke="rgb(0,0,0)"  stroke-width="3"/>
<line x1="330.7" y1="428.4" x2="354.7" y2="414.5" opacity="1.0" stroke="rgb(0,0,0)"  stroke-width="3"/>
<line x1="363.5" y1="417.7" x2="363.5" y2="378.0" opacity="1.0" stroke="rgb(0,0,0)"  stroke-width="3"/>
<line x1="363.5" y1="378.0" x2="329.1" y2="358.1" opacity="1.0" stroke="rgb(0,0,0)"  stroke-width="3"/>
<line x1="354.7" y1="381.2" x2="330.7" y2="367.3" opacity="1.0" stroke="rgb(0,0,0)"  stroke-width="3"/>
<line x1="329.1" y1="358.1" x2="294.6" y2="378.0" opacity="1.0" stroke="rgb(0,0,0)"  stroke-width="3"/>
<line x1="294.6" y1="378.0" x2="294.6" y2="417.7" opacity="1.0" stroke="rgb(0,0,0)"  stroke-width="3"/>
<line x1="301.8" y1="384.0" x2="301.8" y2="411.7" opacity="1.0" stroke="rgb(0,0,0)"  stroke-width="3"/>
<line x1="501.2" y1="378.0" x2="466.8" y2="358.1" opacity="1.0" stroke="rgb(0,0,0)"  stroke-width="3"/>
<line x1="466.8" y1="358.1" x2="432.4" y2="378.0" opacity="1.0" stroke="rgb(0,0,0)"  stroke-width="3"/>
<line x1="465.2" y1="367.3" x2="441.2" y2="381.2" opacity="1.0" stroke="rgb(0,0,0)"  stroke-width="3"/>
<line x1="432.4" y1="378.0" x2="432.4" y2="417.7" opacity="1.0" stroke="rgb(0,0,0)"  stroke-width="3"/>
<line x1="466.8" y1="437.6" x2="501.2" y2="417.7" opacity="1.0" stroke="rgb(0,0,0)"  stroke-width="3"/>
<line x1="432.4" y1="378.0" x2="409.2" y2="364.6" opacity="1.0" stroke="rgb(0,0,0)"  stroke-width="3"/>
<line x1="386.7" y1="364.6" x2="363.5" y2="378.0" opacity="1.0" stroke="rgb(0,0,0)"  stroke-width="3"/>
<line x1="363.5" y1="417.7" x2="386.7" y2="431.1" opacity="1.0" stroke="rgb(0,0,0)"  stroke-width="3"/>
<line x1="618.1" y1="438.3" x2="601.9" y2="402.0" opacity="1.0" stroke="rgb(0,0,0)"  stroke-width="3"/>
<line x1="609.1" y1="435.8" x2="597.8" y2="410.4" opacity="1.0" stroke="rgb(0,0,0)"  stroke-width="3"/>
<line x1="601.9" y1="402.0" x2="562.4" y2="397.8" opacity="1.0" stroke="rgb(0,0,0)"  stroke-width="3"/>
<line x1="539.0" y1="430.0" x2="555.2" y2="466.3" opacity="1.0" stroke="rgb(0,0,0)"  stroke-width="3"/>
<line x1="555.2" y1="466.3" x2="594.8" y2="470.5" opacity="1.0" stroke="rgb(0,0,0)"  stroke-width="3"/>
<line x1="561.9" y1="459.8" x2="589.5" y2="462.7" opacity="1.0" stroke="rgb(0,0,0)"  stroke-width="3"/>
<line x1="594.8" y1="470.5" x2="618.1" y2="438.3" opacity="1.0" stroke="rgb(0,0,0)"  stroke-width="3"/>
<line x1="329.1" y1="331.3" x2="329.1" y2="358.1" opacity="1.0" stroke="rgb(0,0,0)"  stroke-width="3"/>
<line x1="294.6" y1="378.0" x2="271.5" y2="364.6" opacity="1.0" stroke="rgb(0,0,0)"  stroke-width="3"/>
<line x1="260.2" y1="345.1" x2="260.2" y2="318.3" opacity="1.0" stroke="rgb(0,0,0)"  stroke-width="3"/>
<line x1="260.2" y1="318.3" x2="294.6" y2="298.4" opacity="1.0" stroke="rgb(0,0,0)"  stroke-width="3"/>
<line x1="432.4" y1="258.7" x2="432.4" y2="298.4" opacity="1.0" stroke="rgb(0,0,0)"  stroke-width="3"/>
<line x1="432.4" y1="298.4" x2="397.9" y2="318.3" opacity="1.0" stroke="rgb(0,0,0)"  stroke-width="3"/>
<line x1="423.6" y1="295.2" x2="399.5" y2="309.1" opacity="1.0" stroke="rgb(0,0,0)"  stroke-width="3"/>
<line x1="397.9" y1="318.3" x2="363.5" y2="298.4" opacity="1.0" stroke="rgb(0,0,0)"  stroke-width="3"/>
<line x1="363.5" y1="258.7" x2="397.9" y2="238.8" opacity="1.0" stroke="rgb(0,0,0)"  stroke-width="3"/>
<line x1="397.9" y1="238.8" x2="432.4" y2="258.7" opacity="1.0" stroke="rgb(0,0,0)"  stroke-width="3"/>
<line x1="399.5" y1="248.0" x2="423.6" y2="261.9" opacity="1.0" stroke="rgb(0,0,0)"  stroke-width="3"/>
<line x1="225.8" y1="258.7" x2="260.2" y2="238.8" opacity="1.0" stroke="rgb(0,0,0)"  stroke-width="3"/>
<line x1="234.6" y1="261.9" x2="258.6" y2="248.0" opacity="1.0" stroke="rgb(0,0,0)"  stroke-width="3"/>
<line x1="260.2" y1="238.8" x2="294.6" y2="258.7" opacity="1.0" stroke="rgb(0,0,0)"  stroke-width="3"/>
<line x1="260.2" y1="318.3" x2="225.8" y2="298.4" opacity="1.0" stroke="rgb(0,0,0)"  stroke-width="3"/>
<line x1="258.6" y1="309.1" x2="234.6" y2="295.2" opacity="1.0" stroke="rgb(0,0,0)"  stroke-width="3"/>
<line x1="225.8" y1="298.4" x2="225.8" y2="258.7" opacity="1.0" stroke="rgb(0,0,0)"  stroke-width="3"/>
<line x1="294.6" y1="417.7" x2="271.5" y2="431.1" opacity="1.0" stroke="rgb(0,0,0)"  stroke-width="3"/>
<line x1="225.8" y1="417.7" x2="225.8" y2="378.0" opacity="1.0" stroke="rgb(0,0,0)"  stroke-width="3"/>
<line x1="225.8" y1="378.0" x2="248.9" y2="364.6" opacity="1.0" stroke="rgb(0,0,0)"  stroke-width="3"/>
<line x1="245.6" y1="543.5" x2="205.9" y2="543.5" opacity="1.0" stroke="rgb(0,0,0)"  stroke-width="3"/>
<line x1="205.9" y1="543.5" x2="186.0" y2="509.0" opacity="1.0" stroke="rgb(0,0,0)"  stroke-width="3"/>
<line x1="209.1" y1="534.7" x2="195.2" y2="510.6" opacity="1.0" stroke="rgb(0,0,0)"  stroke-width="3"/>
<line x1="186.0" y1="509.0" x2="205.9" y2="474.6" opacity="1.0" stroke="rgb(0,0,0)"  stroke-width="3"/>
<line x1="245.6" y1="474.6" x2="265.5" y2="509.0" opacity="1.0" stroke="rgb(0,0,0)"  stroke-width="3"/>
<line x1="265.5" y1="509.0" x2="245.6" y2="543.5" opacity="1.0" stroke="rgb(0,0,0)"  stroke-width="3"/>
<line x1="256.3" y1="510.6" x2="242.4" y2="534.7" opacity="1.0" stroke="rgb(0,0,0)"  stroke-width="3"/>
<line x1="452.2" y1="543.5" x2="472.1" y2="509.0" opacity="1.0" stroke="rgb(0,0,0)"  stroke-width="3"/>
<line x1="449.0" y1="534.7" x2="462.9" y2="510.6" opacity="1.0" stroke="rgb(0,0,0)"  stroke-width="3"/>
<line x1="472.1" y1="509.0" x2="452.2" y2="474.6" opacity="1.0" stroke="rgb(0,0,0)"  stroke-width="3"/>
<line x1="412.5" y1="474.6" x2="392.6" y2="509.0" opacity="1.0" stroke="rgb(0,0,0)"  stroke-width="3"/>
<line x1="392.6" y1="509.0" x2="412.5" y2="543.5" opacity="1.0" stroke="rgb(0,0,0)"  stroke-width="3"/>
<line x1="401.8" y1="510.6" x2="415.7" y2="534.7" opacity="1.0" stroke="rgb(0,0,0)"  stroke-width="3"/>
<line x1="412.5" y1="543.5" x2="452.2" y2="543.5" opacity="1.0" stroke="rgb(0,0,0)"  stroke-width="3"/>
<line x1="397.9" y1="345.1" x2="397.9" y2="318.3" opacity="1.0" stroke="rgb(0,0,0)"  stroke-width="3"/>
<line x1="191.3" y1="437.6" x2="156.9" y2="417.7" opacity="1.0" stroke="rgb(0,0,0)"  stroke-width="3"/>
<line x1="156.9" y1="378.0" x2="191.3" y2="358.1" opacity="1.0" stroke="rgb(0,0,0)"  stroke-width="3"/>
<line x1="191.3" y1="358.1" x2="225.8" y2="378.0" opacity="1.0" stroke="rgb(0,0,0)"  stroke-width="3"/>
<line x1="192.9" y1="367.3" x2="217.0" y2="381.2" opacity="1.0" stroke="rgb(0,0,0)"  stroke-width="3"/>
<line x1="133.4" y1="298.3" x2="121.1" y2="260.5" opacity="1.0" stroke="rgb(0,0,0)"  stroke-width="3"/>
<line x1="121.1" y1="260.5" x2="82.2" y2="252.2" opacity="1.0" stroke="rgb(0,0,0)"  stroke-width="3"/>
<line x1="113.7" y1="266.3" x2="86.6" y2="260.5" opacity="1.0" stroke="rgb(0,0,0)"  stroke-width="3"/>
<line x1="82.2" y1="252.2" x2="55.6" y2="281.8" opacity="1.0" stroke="rgb(0,0,0)"  stroke-width="3"/>
<line x1="55.6" y1="281.8" x2="67.9" y2="319.6" opacity="1.0" stroke="rgb(0,0,0)"  stroke-width="3"/>
<line x1="64.3" y1="285.3" x2="72.9" y2="311.7" opacity="1.0" stroke="rgb(0,0,0)"  stroke-width="3"/>
<line x1="67.9" y1="319.6" x2="106.8" y2="327.9" opacity="1.0" stroke="rgb(0,0,0)"  stroke-width="3"/>
<line x1="106.8" y1="327.9" x2="133.4" y2="298.3" opacity="1.0" stroke="rgb(0,0,0)"  stroke-width="3"/>
<line x1="105.5" y1="318.6" x2="124.0" y2="297.9" opacity="1.0" stroke="rgb(0,0,0)"  stroke-width="3"/>
<line x1="524.7" y1="298.3" x2="551.3" y2="327.9" opacity="1.0" stroke="rgb(0,0,0)"  stroke-width="3"/>
<line x1="534.1" y1="297.9" x2="552.7" y2="318.6" opacity="1.0" stroke="rgb(0,0,0)"  stroke-width="3"/>
<line x1="551.3" y1="327.9" x2="590.2" y2="319.6" opacity="1.0" stroke="rgb(0,0,0)"  stroke-width="3"/>
<line x1="590.2" y1="319.6" x2="602.5" y2="281.8" opacity="1.0" stroke="rgb(0,0,0)"  stroke-width="3"/>
<line x1="585.2" y1="311.7" x2="593.8" y2="285.3" opacity="1.0" stroke="rgb(0,0,0)"  stroke-width="3"/>
<line x1="602.5" y1="281.8" x2="575.9" y2="252.2" opacity="1.0" stroke="rgb(0,0,0)"  stroke-width="3"/>
<line x1="575.9" y1="252.2" x2="537.0" y2="260.5" opacity="1.0" stroke="rgb(0,0,0)"  stroke-width="3"/>
<line x1="571.5" y1="260.5" x2="544.4" y2="266.3" opacity="1.0" stroke="rgb(0,0,0)"  stroke-width="3"/>
<line x1="537.0" y1="260.5" x2="524.7" y2="298.3" opacity="1.0" stroke="rgb(0,0,0)"  stroke-width="3"/>
<line x1="56.2" y1="402.0" x2="40.0" y2="438.3" opacity="1.0" stroke="rgb(0,0,0)"  stroke-width="3"/>
<line x1="40.0" y1="438.3" x2="63.4" y2="470.5" opacity="1.0" stroke="rgb(0,0,0)"  stroke-width="3"/>
<line x1="49.4" y1="438.9" x2="65.7" y2="461.4" opacity="1.0" stroke="rgb(0,0,0)"  stroke-width="3"/>
<line x1="63.4" y1="470.5" x2="102.9" y2="466.3" opacity="1.0" stroke="rgb(0,0,0)"  stroke-width="3"/>
<line x1="102.9" y1="466.3" x2="119.1" y2="430.0" opacity="1.0" stroke="rgb(0,0,0)"  stroke-width="3"/>
<line x1="98.8" y1="457.9" x2="110.1" y2="432.6" opacity="1.0" stroke="rgb(0,0,0)"  stroke-width="3"/>
<line x1="95.7" y1="397.8" x2="56.2" y2="402.0" opacity="1.0" stroke="rgb(0,0,0)"  stroke-width="3"/>
<line x1="90.5" y1="405.6" x2="62.9" y2="408.5" opacity="1.0" stroke="rgb(0,0,0)"  stroke-width="3"/>
<line x1="501.2" y1="258.7" x2="535.7" y2="238.8" opacity="1.0" stroke="rgb(0,0,0)"  stroke-width="3"/>
<line x1="535.7" y1="238.8" x2="535.7" y2="199.0" opacity="1.0" stroke="rgb(0,0,0)"  stroke-width="3"/>
<line x1="528.5" y1="232.8" x2="528.5" y2="205.0" opacity="1.0" stroke="rgb(0,0,0)"  stroke-width="3"/>
<line x1="535.7" y1="199.0" x2="501.2" y2="179.2" opacity="1.0" stroke="rgb(0,0,0)"  stroke-width="3"/>
<line x1="501.2" y1="179.2" x2="466.8" y2="199.0" opacity="1.0" stroke="rgb(0,0,0)"  stroke-width="3"/>
<line x1="499.6" y1="188.4" x2="475.6" y2="202.3" opacity="1.0" stroke="rgb(0,0,0)"  stroke-width="3"/>
<line x1="466.8" y1="199.0" x2="466.8" y2="238.8" opacity="1.0" stroke="rgb(0,0,0)"  stroke-width="3"/>
<line x1="466.8" y1="238.8" x2="501.2" y2="258.7" opacity="1.0" stroke="rgb(0,0,0)"  stroke-width="3"/>
<line x1="475.6" y1="235.6" x2="499.6" y2="249.4" opacity="1.0" stroke="rgb(0,0,0)"  stroke-width="3"/>
<line x1="432.4" y1="139.4" x2="397.9" y2="119.5" opacity="1.0" stroke="rgb(0,0,0)"  stroke-width="3"/>
<line x1="397.9" y1="119.5" x2="363.5" y2="139.4" opacity="1.0" stroke="rgb(0,0,0)"  stroke-width="3"/>
<line x1="396.3" y1="128.8" x2="372.3" y2="142.6" opacity="1.0" stroke="rgb(0,0,0)"  stroke-width="3"/>
<line x1="363.5" y1="139.4" x2="363.5" y2="179.2" opacity="1.0" stroke="rgb(0,0,0)"  stroke-width="3"/>
<line x1="363.5" y1="179.2" x2="397.9" y2="199.0" opacity="1.0" stroke="rgb(0,0,0)"  stroke-width="3"/>
<line x1="372.3" y1="175.9" x2="396.3" y2="189.8" opacity="1.0" stroke="rgb(0,0,0)"  stroke-width="3"/>
<line x1="397.9" y1="199.0" x2="432.4" y2="179.2" opacity="1.0" stroke="rgb(0,0,0)"  stroke-width="3"/>
<line x1="432.4" y1="179.2" x2="432.4" y2="139.4" opacity="1.0" stroke="rgb(0,0,0)"  stroke-width="3"/>
<line x1="425.2" y1="173.2" x2="425.2" y2="145.4" opacity="1.0" stroke="rgb(0,0,0)"  stroke-width="3"/>
<line x1="191.3" y1="199.0" x2="156.9" y2="179.2" opacity="1.0" stroke="rgb(0,0,0)"  stroke-width="3"/>
<line x1="156.9" y1="179.2" x2="122.5" y2="199.0" opacity="1.0" stroke="rgb(0,0,0)"  stroke-width="3"/>
<line x1="155.3" y1="188.4" x2="131.3" y2="202.3" opacity="1.0" stroke="rgb(0,0,0)"  stroke-width="3"/>
<line x1="122.5" y1="199.0" x2="122.5" y2="238.8" opacity="1.0" stroke="rgb(0,0,0)"  stroke-width="3"/>
<line x1="122.5" y1="238.8" x2="156.9" y2="258.7" opacity="1.0" stroke="rgb(0,0,0)"  stroke-width="3"/>
<line x1="131.3" y1="235.6" x2="155.3" y2="249.4" opacity="1.0" stroke="rgb(0,0,0)"  stroke-width="3"/>
<line x1="156.9" y1="258.7" x2="191.3" y2="238.8" opacity="1.0" stroke="rgb(0,0,0)"  stroke-width="3"/>
<line x1="191.3" y1="238.8" x2="191.3" y2="199.0" opacity="1.0" stroke="rgb(0,0,0)"  stroke-width="3"/>
<line x1="184.1" y1="232.8" x2="184.1" y2="205.0" opacity="1.0" stroke="rgb(0,0,0)"  stroke-width="3"/>
<text x="391.925615" y="366.075576" fill="rgb(255,181,181)" stroke-width="0" font-weight="bold" font-size="25.92" >B</text>
<text x="254.194840" y="366.075576" fill="rgb(255,181,181)" stroke-width="0" font-weight="bold" font-size="25.92" >B</text>
<text x="323.060228" y="326.316117" fill="rgb(12,12,255)" stroke-width="0" font-weight="bold" font-size="25.92" >N</text>
<text x="391.925615" y="445.594494" fill="rgb(12,12,255)" stroke-width="0" font-weight="bold" font-size="25.92" >N</text>
<text x="254.194840" y="445.594494" fill="rgb(12,12,255)" stroke-width="0" font-weight="bold" font-size="25.92" >N</text>
<text x="113.083281" y="373.668956" fill="rgb(12,12,255)" stroke-width="0" font-weight="bold" font-size="25.92" >N</text>
<text x="533.037175" y="373.668956" fill="rgb(12,12,255)" stroke-width="0" font-weight="bold" font-size="25.92" >N</text>
</svg>
</g>
</svg>
