<?xml version="1.0"?>
<svg version="1.1" id="topsvg"
xmlns="http://www.w3.org/2000/svg" xmlns:xlink="http://www.w3.org/1999/xlink"
xmlns:cml="http://www.xml-cml.org/schema" x="0" y="0" width="200px" height="200px" viewBox="0 0 100 100">
<title>GD35.sdf - Open Babel Depiction</title>
<rect x="0" y="0" width="100" height="100" fill="white"/>
<g transform="translate(0,0)">
<svg width="100" height="100" x="0" y="0" viewBox="0 0 592.641 573.254"
font-family="sans-serif" stroke="rgb(0,0,0)" stroke-width="3"  stroke-linecap="round">
<line x1="276.4" y1="174.0" x2="276.4" y2="134.1" opacity="1.0" stroke="rgb(0,0,0)"  stroke-width="3"/>
<line x1="159.1" y1="314.4" x2="119.4" y2="318.6" opacity="1.0" stroke="rgb(0,0,0)"  stroke-width="3"/>
<line x1="345.6" y1="373.6" x2="345.6" y2="413.5" opacity="1.0" stroke="rgb(0,0,0)"  stroke-width="3"/>
<line x1="311.0" y1="473.4" x2="276.4" y2="493.3" opacity="1.0" stroke="rgb(0,0,0)"  stroke-width="3"/>
<line x1="276.4" y1="493.3" x2="276.4" y2="533.3" opacity="1.0" stroke="rgb(0,0,0)"  stroke-width="3"/>
<line x1="276.4" y1="493.3" x2="241.9" y2="473.4" opacity="1.0" stroke="rgb(0,0,0)"  stroke-width="3"/>
<line x1="276.4" y1="493.3" x2="276.4" y2="453.4" opacity="1.0" stroke="rgb(0,0,0)"  stroke-width="3"/>
<line x1="380.1" y1="473.4" x2="414.7" y2="493.3" opacity="1.0" stroke="rgb(0,0,0)"  stroke-width="3"/>
<line x1="414.7" y1="493.3" x2="414.7" y2="533.3" opacity="1.0" stroke="rgb(0,0,0)"  stroke-width="3"/>
<line x1="414.7" y1="493.3" x2="449.3" y2="473.4" opacity="1.0" stroke="rgb(0,0,0)"  stroke-width="3"/>
<line x1="414.7" y1="493.3" x2="414.7" y2="453.4" opacity="1.0" stroke="rgb(0,0,0)"  stroke-width="3"/>
<line x1="426.7" y1="130.4" x2="410.8" y2="108.7" opacity="1.0" stroke="rgb(0,0,0)"  stroke-width="3"/>
<line x1="452.7" y1="306.1" x2="476.1" y2="273.8" opacity="1.0" stroke="rgb(0,0,0)"  stroke-width="3"/>
<line x1="476.1" y1="273.8" x2="452.7" y2="241.5" opacity="1.0" stroke="rgb(0,0,0)"  stroke-width="3"/>
<line x1="452.7" y1="241.5" x2="414.7" y2="253.9" opacity="1.0" stroke="rgb(0,0,0)"  stroke-width="3"/>
<line x1="449.2" y1="250.2" x2="422.6" y2="258.8" opacity="1.0" stroke="rgb(0,0,0)"  stroke-width="3"/>
<line x1="414.7" y1="253.9" x2="414.7" y2="280.8" opacity="1.0" stroke="rgb(0,0,0)"  stroke-width="3"/>
<line x1="427.1" y1="297.8" x2="452.7" y2="306.1" opacity="1.0" stroke="rgb(0,0,0)"  stroke-width="3"/>
<line x1="215.0" y1="273.8" x2="238.5" y2="306.1" opacity="1.0" stroke="rgb(0,0,0)"  stroke-width="3"/>
<line x1="224.4" y1="274.4" x2="240.8" y2="297.0" opacity="1.0" stroke="rgb(0,0,0)"  stroke-width="3"/>
<line x1="238.5" y1="306.1" x2="264.1" y2="297.8" opacity="1.0" stroke="rgb(0,0,0)"  stroke-width="3"/>
<line x1="276.4" y1="280.8" x2="276.4" y2="253.9" opacity="1.0" stroke="rgb(0,0,0)"  stroke-width="3"/>
<line x1="276.4" y1="253.9" x2="241.9" y2="233.9" opacity="1.0" stroke="rgb(0,0,0)"  stroke-width="3"/>
<line x1="267.6" y1="257.1" x2="243.5" y2="243.1" opacity="1.0" stroke="rgb(0,0,0)"  stroke-width="3"/>
<line x1="241.9" y1="233.9" x2="215.0" y2="273.8" opacity="1.0" stroke="rgb(0,0,0)"  stroke-width="3"/>
<line x1="474.3" y1="140.9" x2="447.4" y2="140.9" opacity="1.0" stroke="rgb(0,0,0)"  stroke-width="3"/>
<line x1="430.5" y1="153.3" x2="422.6" y2="178.7" opacity="1.0" stroke="rgb(0,0,0)"  stroke-width="3"/>
<line x1="422.6" y1="178.7" x2="455.2" y2="201.7" opacity="1.0" stroke="rgb(0,0,0)"  stroke-width="3"/>
<line x1="431.7" y1="176.2" x2="454.5" y2="192.3" opacity="1.0" stroke="rgb(0,0,0)"  stroke-width="3"/>
<line x1="455.2" y1="201.7" x2="487.2" y2="178.7" opacity="1.0" stroke="rgb(0,0,0)"  stroke-width="3"/>
<line x1="487.2" y1="178.7" x2="474.3" y2="140.9" opacity="1.0" stroke="rgb(0,0,0)"  stroke-width="3"/>
<line x1="478.4" y1="175.3" x2="469.5" y2="148.9" opacity="1.0" stroke="rgb(0,0,0)"  stroke-width="3"/>
<line x1="345.6" y1="373.6" x2="380.1" y2="353.6" opacity="1.0" stroke="rgb(0,0,0)"  stroke-width="3"/>
<line x1="347.2" y1="364.4" x2="371.3" y2="350.4" opacity="1.0" stroke="rgb(0,0,0)"  stroke-width="3"/>
<line x1="380.1" y1="353.6" x2="380.1" y2="313.7" opacity="1.0" stroke="rgb(0,0,0)"  stroke-width="3"/>
<line x1="380.1" y1="313.7" x2="345.6" y2="293.8" opacity="1.0" stroke="rgb(0,0,0)"  stroke-width="3"/>
<line x1="371.3" y1="317.0" x2="347.2" y2="303.0" opacity="1.0" stroke="rgb(0,0,0)"  stroke-width="3"/>
<line x1="345.6" y1="293.8" x2="311.0" y2="313.7" opacity="1.0" stroke="rgb(0,0,0)"  stroke-width="3"/>
<line x1="311.0" y1="313.7" x2="311.0" y2="353.6" opacity="1.0" stroke="rgb(0,0,0)"  stroke-width="3"/>
<line x1="318.2" y1="319.7" x2="318.2" y2="347.6" opacity="1.0" stroke="rgb(0,0,0)"  stroke-width="3"/>
<line x1="311.0" y1="353.6" x2="345.6" y2="373.6" opacity="1.0" stroke="rgb(0,0,0)"  stroke-width="3"/>
<line x1="380.1" y1="313.7" x2="403.5" y2="300.3" opacity="1.0" stroke="rgb(0,0,0)"  stroke-width="3"/>
<line x1="414.7" y1="253.9" x2="380.1" y2="233.9" opacity="1.0" stroke="rgb(0,0,0)"  stroke-width="3"/>
<line x1="380.1" y1="233.9" x2="356.8" y2="247.4" opacity="1.0" stroke="rgb(0,0,0)"  stroke-width="3"/>
<line x1="345.6" y1="266.9" x2="345.6" y2="293.8" opacity="1.0" stroke="rgb(0,0,0)"  stroke-width="3"/>
<line x1="532.1" y1="314.4" x2="515.8" y2="278.0" opacity="1.0" stroke="rgb(0,0,0)"  stroke-width="3"/>
<line x1="515.8" y1="278.0" x2="476.1" y2="273.8" opacity="1.0" stroke="rgb(0,0,0)"  stroke-width="3"/>
<line x1="509.1" y1="284.5" x2="481.3" y2="281.6" opacity="1.0" stroke="rgb(0,0,0)"  stroke-width="3"/>
<line x1="452.7" y1="306.1" x2="468.9" y2="342.6" opacity="1.0" stroke="rgb(0,0,0)"  stroke-width="3"/>
<line x1="461.7" y1="308.7" x2="473.0" y2="334.2" opacity="1.0" stroke="rgb(0,0,0)"  stroke-width="3"/>
<line x1="468.9" y1="342.6" x2="508.6" y2="346.7" opacity="1.0" stroke="rgb(0,0,0)"  stroke-width="3"/>
<line x1="508.6" y1="346.7" x2="532.1" y2="314.4" opacity="1.0" stroke="rgb(0,0,0)"  stroke-width="3"/>
<line x1="506.3" y1="337.7" x2="522.7" y2="315.1" opacity="1.0" stroke="rgb(0,0,0)"  stroke-width="3"/>
<line x1="539.8" y1="118.6" x2="500.6" y2="110.9" opacity="1.0" stroke="rgb(0,0,0)"  stroke-width="3"/>
<line x1="532.5" y1="124.5" x2="505.1" y2="119.1" opacity="1.0" stroke="rgb(0,0,0)"  stroke-width="3"/>
<line x1="500.6" y1="110.9" x2="474.3" y2="140.9" opacity="1.0" stroke="rgb(0,0,0)"  stroke-width="3"/>
<line x1="487.2" y1="178.7" x2="526.3" y2="186.4" opacity="1.0" stroke="rgb(0,0,0)"  stroke-width="3"/>
<line x1="526.3" y1="186.4" x2="552.6" y2="156.4" opacity="1.0" stroke="rgb(0,0,0)"  stroke-width="3"/>
<line x1="524.9" y1="177.2" x2="543.3" y2="156.2" opacity="1.0" stroke="rgb(0,0,0)"  stroke-width="3"/>
<line x1="552.6" y1="156.4" x2="539.8" y2="118.6" opacity="1.0" stroke="rgb(0,0,0)"  stroke-width="3"/>
<line x1="334.3" y1="247.4" x2="311.0" y2="233.9" opacity="1.0" stroke="rgb(0,0,0)"  stroke-width="3"/>
<line x1="311.0" y1="233.9" x2="276.4" y2="253.9" opacity="1.0" stroke="rgb(0,0,0)"  stroke-width="3"/>
<line x1="287.7" y1="300.3" x2="311.0" y2="313.7" opacity="1.0" stroke="rgb(0,0,0)"  stroke-width="3"/>
<line x1="241.9" y1="194.0" x2="241.9" y2="233.9" opacity="1.0" stroke="rgb(0,0,0)"  stroke-width="3"/>
<line x1="311.0" y1="233.9" x2="311.0" y2="194.0" opacity="1.0" stroke="rgb(0,0,0)"  stroke-width="3"/>
<line x1="303.8" y1="227.9" x2="303.8" y2="200.0" opacity="1.0" stroke="rgb(0,0,0)"  stroke-width="3"/>
<line x1="311.0" y1="194.0" x2="276.4" y2="174.0" opacity="1.0" stroke="rgb(0,0,0)"  stroke-width="3"/>
<line x1="276.4" y1="174.0" x2="241.9" y2="194.0" opacity="1.0" stroke="rgb(0,0,0)"  stroke-width="3"/>
<line x1="274.8" y1="183.3" x2="250.7" y2="197.2" opacity="1.0" stroke="rgb(0,0,0)"  stroke-width="3"/>
<line x1="385.9" y1="194.4" x2="380.1" y2="233.9" opacity="1.0" stroke="rgb(0,0,0)"  stroke-width="3"/>
<line x1="392.2" y1="201.4" x2="388.1" y2="229.0" opacity="1.0" stroke="rgb(0,0,0)"  stroke-width="3"/>
<line x1="452.7" y1="241.5" x2="455.2" y2="201.7" opacity="1.0" stroke="rgb(0,0,0)"  stroke-width="3"/>
<line x1="422.6" y1="178.7" x2="385.9" y2="194.4" opacity="1.0" stroke="rgb(0,0,0)"  stroke-width="3"/>
<line x1="182.5" y1="346.7" x2="159.1" y2="314.4" opacity="1.0" stroke="rgb(0,0,0)"  stroke-width="3"/>
<line x1="159.1" y1="314.4" x2="175.3" y2="278.0" opacity="1.0" stroke="rgb(0,0,0)"  stroke-width="3"/>
<line x1="168.1" y1="311.9" x2="179.5" y2="286.4" opacity="1.0" stroke="rgb(0,0,0)"  stroke-width="3"/>
<line x1="175.3" y1="278.0" x2="215.0" y2="273.8" opacity="1.0" stroke="rgb(0,0,0)"  stroke-width="3"/>
<line x1="238.5" y1="306.1" x2="222.2" y2="342.6" opacity="1.0" stroke="rgb(0,0,0)"  stroke-width="3"/>
<line x1="222.2" y1="342.6" x2="182.5" y2="346.7" opacity="1.0" stroke="rgb(0,0,0)"  stroke-width="3"/>
<line x1="215.5" y1="336.0" x2="187.8" y2="338.9" opacity="1.0" stroke="rgb(0,0,0)"  stroke-width="3"/>
<line x1="311.0" y1="433.5" x2="311.0" y2="473.4" opacity="1.0" stroke="rgb(0,0,0)"  stroke-width="3"/>
<line x1="311.0" y1="473.4" x2="345.6" y2="493.3" opacity="1.0" stroke="rgb(0,0,0)"  stroke-width="3"/>
<line x1="319.8" y1="470.1" x2="344.0" y2="484.1" opacity="1.0" stroke="rgb(0,0,0)"  stroke-width="3"/>
<line x1="345.6" y1="493.3" x2="380.1" y2="473.4" opacity="1.0" stroke="rgb(0,0,0)"  stroke-width="3"/>
<line x1="380.1" y1="473.4" x2="380.1" y2="433.5" opacity="1.0" stroke="rgb(0,0,0)"  stroke-width="3"/>
<line x1="372.9" y1="467.4" x2="372.9" y2="439.5" opacity="1.0" stroke="rgb(0,0,0)"  stroke-width="3"/>
<line x1="380.1" y1="433.5" x2="345.6" y2="413.5" opacity="1.0" stroke="rgb(0,0,0)"  stroke-width="3"/>
<line x1="345.6" y1="413.5" x2="311.0" y2="433.5" opacity="1.0" stroke="rgb(0,0,0)"  stroke-width="3"/>
<line x1="344.0" y1="422.7" x2="319.8" y2="436.7" opacity="1.0" stroke="rgb(0,0,0)"  stroke-width="3"/>
<line x1="311.0" y1="114.2" x2="311.0" y2="74.2" opacity="1.0" stroke="rgb(0,0,0)"  stroke-width="3"/>
<line x1="311.0" y1="74.2" x2="276.4" y2="54.3" opacity="1.0" stroke="rgb(0,0,0)"  stroke-width="3"/>
<line x1="302.2" y1="77.5" x2="278.0" y2="63.5" opacity="1.0" stroke="rgb(0,0,0)"  stroke-width="3"/>
<line x1="276.4" y1="54.3" x2="241.9" y2="74.2" opacity="1.0" stroke="rgb(0,0,0)"  stroke-width="3"/>
<line x1="241.9" y1="74.2" x2="241.9" y2="114.2" opacity="1.0" stroke="rgb(0,0,0)"  stroke-width="3"/>
<line x1="249.1" y1="80.2" x2="249.1" y2="108.2" opacity="1.0" stroke="rgb(0,0,0)"  stroke-width="3"/>
<line x1="241.9" y1="114.2" x2="276.4" y2="134.1" opacity="1.0" stroke="rgb(0,0,0)"  stroke-width="3"/>
<line x1="276.4" y1="134.1" x2="311.0" y2="114.2" opacity="1.0" stroke="rgb(0,0,0)"  stroke-width="3"/>
<line x1="278.0" y1="124.9" x2="302.2" y2="110.9" opacity="1.0" stroke="rgb(0,0,0)"  stroke-width="3"/>
<line x1="95.9" y1="286.3" x2="56.2" y2="290.5" opacity="1.0" stroke="rgb(0,0,0)"  stroke-width="3"/>
<line x1="56.2" y1="290.5" x2="40.0" y2="327.0" opacity="1.0" stroke="rgb(0,0,0)"  stroke-width="3"/>
<line x1="60.4" y1="298.9" x2="49.0" y2="324.4" opacity="1.0" stroke="rgb(0,0,0)"  stroke-width="3"/>
<line x1="40.0" y1="327.0" x2="63.5" y2="359.3" opacity="1.0" stroke="rgb(0,0,0)"  stroke-width="3"/>
<line x1="63.5" y1="359.3" x2="103.2" y2="355.1" opacity="1.0" stroke="rgb(0,0,0)"  stroke-width="3"/>
<line x1="68.7" y1="351.5" x2="96.4" y2="348.5" opacity="1.0" stroke="rgb(0,0,0)"  stroke-width="3"/>
<line x1="103.2" y1="355.1" x2="119.4" y2="318.6" opacity="1.0" stroke="rgb(0,0,0)"  stroke-width="3"/>
<line x1="119.4" y1="318.6" x2="95.9" y2="286.3" opacity="1.0" stroke="rgb(0,0,0)"  stroke-width="3"/>
<line x1="110.0" y1="318.0" x2="93.6" y2="295.4" opacity="1.0" stroke="rgb(0,0,0)"  stroke-width="3"/>
<line x1="426.8" y1="72.2" x2="403.2" y2="40.0" opacity="1.0" stroke="rgb(0,0,0)"  stroke-width="3"/>
<line x1="403.2" y1="40.0" x2="363.5" y2="44.4" opacity="1.0" stroke="rgb(0,0,0)"  stroke-width="3"/>
<line x1="398.0" y1="47.8" x2="370.3" y2="50.9" opacity="1.0" stroke="rgb(0,0,0)"  stroke-width="3"/>
<line x1="363.5" y1="44.4" x2="347.5" y2="80.9" opacity="1.0" stroke="rgb(0,0,0)"  stroke-width="3"/>
<line x1="347.5" y1="80.9" x2="371.1" y2="113.1" opacity="1.0" stroke="rgb(0,0,0)"  stroke-width="3"/>
<line x1="356.8" y1="81.5" x2="373.4" y2="104.0" opacity="1.0" stroke="rgb(0,0,0)"  stroke-width="3"/>
<line x1="371.1" y1="113.1" x2="410.8" y2="108.7" opacity="1.0" stroke="rgb(0,0,0)"  stroke-width="3"/>
<line x1="410.8" y1="108.7" x2="426.8" y2="72.2" opacity="1.0" stroke="rgb(0,0,0)"  stroke-width="3"/>
<line x1="406.6" y1="100.3" x2="417.8" y2="74.8" opacity="1.0" stroke="rgb(0,0,0)"  stroke-width="3"/>
<text x="428.427430" y="148.875105" fill="rgb(12,12,255)" stroke-width="0" font-weight="bold" font-size="25.92" >N</text>
<text x="270.440406" y="301.765983" fill="rgb(12,12,255)" stroke-width="0" font-weight="bold" font-size="25.92" >N</text>
<text x="339.574346" y="261.851769" fill="rgb(255,181,181)" stroke-width="0" font-weight="bold" font-size="25.92" >B</text>
<text x="408.708383" y="301.766322" fill="rgb(12,12,255)" stroke-width="0" font-weight="bold" font-size="25.92" >N</text>
</svg>
</g>
</svg>
