<?xml version="1.0"?>
<svg version="1.1" id="topsvg"
xmlns="http://www.w3.org/2000/svg" xmlns:xlink="http://www.w3.org/1999/xlink"
xmlns:cml="http://www.xml-cml.org/schema" x="0" y="0" width="200px" height="200px" viewBox="0 0 100 100">
<title>GD352.sdf - Open Babel Depiction</title>
<rect x="0" y="0" width="100" height="100" fill="white"/>
<g transform="translate(0,0)">
<svg width="100" height="100" x="0" y="0" viewBox="0 0 595.596 701.254"
font-family="sans-serif" stroke="rgb(0,0,0)" stroke-width="3"  stroke-linecap="round">
<line x1="160.7" y1="352.8" x2="148.5" y2="390.1" opacity="1.0" stroke="rgb(0,0,0)"  stroke-width="3"/>
<line x1="225.3" y1="373.8" x2="199.0" y2="344.7" opacity="1.0" stroke="rgb(0,0,0)"  stroke-width="3"/>
<line x1="186.9" y1="106.5" x2="160.6" y2="77.3" opacity="1.0" stroke="rgb(0,0,0)"  stroke-width="3"/>
<line x1="160.6" y1="77.3" x2="172.7" y2="40.0" opacity="1.0" stroke="rgb(0,0,0)"  stroke-width="3"/>
<line x1="160.6" y1="77.3" x2="122.2" y2="85.5" opacity="1.0" stroke="rgb(0,0,0)"  stroke-width="3"/>
<line x1="160.6" y1="77.3" x2="199.0" y2="69.2" opacity="1.0" stroke="rgb(0,0,0)"  stroke-width="3"/>
<line x1="394.3" y1="518.9" x2="358.6" y2="535.1" opacity="1.0" stroke="rgb(0,0,0)"  stroke-width="3"/>
<line x1="290.9" y1="528.4" x2="259.1" y2="505.5" opacity="1.0" stroke="rgb(0,0,0)"  stroke-width="3"/>
<line x1="259.1" y1="505.5" x2="223.3" y2="521.7" opacity="1.0" stroke="rgb(0,0,0)"  stroke-width="3"/>
<line x1="259.1" y1="505.5" x2="262.9" y2="466.4" opacity="1.0" stroke="rgb(0,0,0)"  stroke-width="3"/>
<line x1="259.1" y1="505.5" x2="227.2" y2="482.6" opacity="1.0" stroke="rgb(0,0,0)"  stroke-width="3"/>
<line x1="319.0" y1="590.3" x2="315.1" y2="629.4" opacity="1.0" stroke="rgb(0,0,0)"  stroke-width="3"/>
<line x1="315.1" y1="629.4" x2="276.4" y2="635.7" opacity="1.0" stroke="rgb(0,0,0)"  stroke-width="3"/>
<line x1="315.1" y1="629.4" x2="340.0" y2="659.7" opacity="1.0" stroke="rgb(0,0,0)"  stroke-width="3"/>
<line x1="315.1" y1="629.4" x2="292.2" y2="661.3" opacity="1.0" stroke="rgb(0,0,0)"  stroke-width="3"/>
<line x1="386.0" y1="480.6" x2="367.5" y2="419.3" opacity="1.0" stroke="rgb(0,0,0)"  stroke-width="3"/>
<line x1="355.4" y1="106.5" x2="381.7" y2="77.3" opacity="1.0" stroke="rgb(0,0,0)"  stroke-width="3"/>
<line x1="381.7" y1="77.3" x2="369.5" y2="40.0" opacity="1.0" stroke="rgb(0,0,0)"  stroke-width="3"/>
<line x1="381.7" y1="77.3" x2="420.0" y2="85.5" opacity="1.0" stroke="rgb(0,0,0)"  stroke-width="3"/>
<line x1="381.7" y1="77.3" x2="407.9" y2="48.2" opacity="1.0" stroke="rgb(0,0,0)"  stroke-width="3"/>
<line x1="503.2" y1="297.4" x2="492.3" y2="269.5" opacity="1.0" stroke="rgb(0,0,0)"  stroke-width="3"/>
<line x1="475.7" y1="262.7" x2="451.7" y2="273.3" opacity="1.0" stroke="rgb(0,0,0)"  stroke-width="3"/>
<line x1="451.7" y1="273.3" x2="439.6" y2="310.7" opacity="1.0" stroke="rgb(0,0,0)"  stroke-width="3"/>
<line x1="456.7" y1="281.3" x2="448.3" y2="307.2" opacity="1.0" stroke="rgb(0,0,0)"  stroke-width="3"/>
<line x1="439.6" y1="310.7" x2="478.2" y2="327.7" opacity="1.0" stroke="rgb(0,0,0)"  stroke-width="3"/>
<line x1="478.2" y1="327.7" x2="503.2" y2="297.4" opacity="1.0" stroke="rgb(0,0,0)"  stroke-width="3"/>
<line x1="476.5" y1="318.5" x2="493.8" y2="297.5" opacity="1.0" stroke="rgb(0,0,0)"  stroke-width="3"/>
<line x1="290.7" y1="127.5" x2="302.9" y2="164.8" opacity="1.0" stroke="rgb(0,0,0)"  stroke-width="3"/>
<line x1="285.8" y1="135.4" x2="294.2" y2="161.3" opacity="1.0" stroke="rgb(0,0,0)"  stroke-width="3"/>
<line x1="302.9" y1="164.8" x2="281.6" y2="180.2" opacity="1.0" stroke="rgb(0,0,0)"  stroke-width="3"/>
<line x1="260.6" y1="180.2" x2="239.4" y2="164.8" opacity="1.0" stroke="rgb(0,0,0)"  stroke-width="3"/>
<line x1="239.4" y1="164.8" x2="251.5" y2="127.5" opacity="1.0" stroke="rgb(0,0,0)"  stroke-width="3"/>
<line x1="248.1" y1="161.3" x2="256.5" y2="135.4" opacity="1.0" stroke="rgb(0,0,0)"  stroke-width="3"/>
<line x1="251.5" y1="127.5" x2="290.7" y2="127.5" opacity="1.0" stroke="rgb(0,0,0)"  stroke-width="3"/>
<line x1="160.7" y1="352.8" x2="141.0" y2="318.8" opacity="1.0" stroke="rgb(0,0,0)"  stroke-width="3"/>
<line x1="141.0" y1="318.8" x2="167.3" y2="289.7" opacity="1.0" stroke="rgb(0,0,0)"  stroke-width="3"/>
<line x1="150.4" y1="319.2" x2="168.6" y2="298.9" opacity="1.0" stroke="rgb(0,0,0)"  stroke-width="3"/>
<line x1="167.3" y1="289.7" x2="191.3" y2="300.3" opacity="1.0" stroke="rgb(0,0,0)"  stroke-width="3"/>
<line x1="201.8" y1="318.6" x2="199.0" y2="344.7" opacity="1.0" stroke="rgb(0,0,0)"  stroke-width="3"/>
<line x1="199.0" y1="344.7" x2="160.7" y2="352.8" opacity="1.0" stroke="rgb(0,0,0)"  stroke-width="3"/>
<line x1="191.7" y1="338.9" x2="165.0" y2="344.5" opacity="1.0" stroke="rgb(0,0,0)"  stroke-width="3"/>
<line x1="343.2" y1="344.7" x2="381.6" y2="352.8" opacity="1.0" stroke="rgb(0,0,0)"  stroke-width="3"/>
<line x1="350.6" y1="338.9" x2="377.2" y2="344.5" opacity="1.0" stroke="rgb(0,0,0)"  stroke-width="3"/>
<line x1="381.6" y1="352.8" x2="401.2" y2="318.8" opacity="1.0" stroke="rgb(0,0,0)"  stroke-width="3"/>
<line x1="401.2" y1="318.8" x2="375.0" y2="289.7" opacity="1.0" stroke="rgb(0,0,0)"  stroke-width="3"/>
<line x1="391.8" y1="319.2" x2="373.6" y2="298.9" opacity="1.0" stroke="rgb(0,0,0)"  stroke-width="3"/>
<line x1="375.0" y1="289.7" x2="351.0" y2="300.3" opacity="1.0" stroke="rgb(0,0,0)"  stroke-width="3"/>
<line x1="340.5" y1="318.6" x2="343.2" y2="344.7" opacity="1.0" stroke="rgb(0,0,0)"  stroke-width="3"/>
<line x1="483.5" y1="218.4" x2="486.2" y2="244.5" opacity="1.0" stroke="rgb(0,0,0)"  stroke-width="3"/>
<line x1="451.7" y1="273.3" x2="425.5" y2="244.2" opacity="1.0" stroke="rgb(0,0,0)"  stroke-width="3"/>
<line x1="425.5" y1="244.2" x2="445.1" y2="210.2" opacity="1.0" stroke="rgb(0,0,0)"  stroke-width="3"/>
<line x1="445.1" y1="210.2" x2="483.5" y2="218.4" opacity="1.0" stroke="rgb(0,0,0)"  stroke-width="3"/>
<line x1="449.5" y1="218.5" x2="476.1" y2="224.1" opacity="1.0" stroke="rgb(0,0,0)"  stroke-width="3"/>
<line x1="237.1" y1="286.0" x2="271.1" y2="305.6" opacity="1.0" stroke="rgb(0,0,0)"  stroke-width="3"/>
<line x1="271.1" y1="305.6" x2="305.1" y2="286.0" opacity="1.0" stroke="rgb(0,0,0)"  stroke-width="3"/>
<line x1="272.7" y1="296.4" x2="296.3" y2="282.8" opacity="1.0" stroke="rgb(0,0,0)"  stroke-width="3"/>
<line x1="305.1" y1="286.0" x2="305.1" y2="246.8" opacity="1.0" stroke="rgb(0,0,0)"  stroke-width="3"/>
<line x1="305.1" y1="246.8" x2="271.1" y2="227.1" opacity="1.0" stroke="rgb(0,0,0)"  stroke-width="3"/>
<line x1="296.3" y1="250.0" x2="272.7" y2="236.4" opacity="1.0" stroke="rgb(0,0,0)"  stroke-width="3"/>
<line x1="271.1" y1="227.1" x2="237.1" y2="246.8" opacity="1.0" stroke="rgb(0,0,0)"  stroke-width="3"/>
<line x1="237.1" y1="246.8" x2="237.1" y2="286.0" opacity="1.0" stroke="rgb(0,0,0)"  stroke-width="3"/>
<line x1="244.3" y1="252.8" x2="244.3" y2="280.0" opacity="1.0" stroke="rgb(0,0,0)"  stroke-width="3"/>
<line x1="425.5" y1="244.2" x2="387.1" y2="252.3" opacity="1.0" stroke="rgb(0,0,0)"  stroke-width="3"/>
<line x1="421.1" y1="252.5" x2="394.4" y2="258.1" opacity="1.0" stroke="rgb(0,0,0)"  stroke-width="3"/>
<line x1="387.1" y1="252.3" x2="375.0" y2="289.7" opacity="1.0" stroke="rgb(0,0,0)"  stroke-width="3"/>
<line x1="401.2" y1="318.8" x2="439.6" y2="310.7" opacity="1.0" stroke="rgb(0,0,0)"  stroke-width="3"/>
<line x1="387.1" y1="252.3" x2="350.6" y2="233.2" opacity="1.0" stroke="rgb(0,0,0)"  stroke-width="3"/>
<line x1="327.8" y1="233.6" x2="305.1" y2="246.8" opacity="1.0" stroke="rgb(0,0,0)"  stroke-width="3"/>
<line x1="305.1" y1="286.0" x2="327.8" y2="299.1" opacity="1.0" stroke="rgb(0,0,0)"  stroke-width="3"/>
<line x1="555.6" y1="340.7" x2="541.9" y2="304.0" opacity="1.0" stroke="rgb(0,0,0)"  stroke-width="3"/>
<line x1="546.8" y1="337.6" x2="537.2" y2="312.1" opacity="1.0" stroke="rgb(0,0,0)"  stroke-width="3"/>
<line x1="541.9" y1="304.0" x2="503.2" y2="297.4" opacity="1.0" stroke="rgb(0,0,0)"  stroke-width="3"/>
<line x1="478.2" y1="327.7" x2="491.9" y2="364.5" opacity="1.0" stroke="rgb(0,0,0)"  stroke-width="3"/>
<line x1="491.9" y1="364.5" x2="530.6" y2="371.0" opacity="1.0" stroke="rgb(0,0,0)"  stroke-width="3"/>
<line x1="499.0" y1="358.4" x2="525.9" y2="362.9" opacity="1.0" stroke="rgb(0,0,0)"  stroke-width="3"/>
<line x1="530.6" y1="371.0" x2="555.6" y2="340.7" opacity="1.0" stroke="rgb(0,0,0)"  stroke-width="3"/>
<line x1="271.1" y1="200.9" x2="271.1" y2="227.1" opacity="1.0" stroke="rgb(0,0,0)"  stroke-width="3"/>
<line x1="237.1" y1="246.8" x2="214.4" y2="233.6" opacity="1.0" stroke="rgb(0,0,0)"  stroke-width="3"/>
<line x1="202.6" y1="214.1" x2="201.0" y2="173.0" opacity="1.0" stroke="rgb(0,0,0)"  stroke-width="3"/>
<line x1="201.0" y1="173.0" x2="239.4" y2="164.8" opacity="1.0" stroke="rgb(0,0,0)"  stroke-width="3"/>
<line x1="355.4" y1="106.5" x2="367.5" y2="143.8" opacity="1.0" stroke="rgb(0,0,0)"  stroke-width="3"/>
<line x1="367.5" y1="143.8" x2="341.3" y2="173.0" opacity="1.0" stroke="rgb(0,0,0)"  stroke-width="3"/>
<line x1="358.2" y1="143.5" x2="339.9" y2="163.7" opacity="1.0" stroke="rgb(0,0,0)"  stroke-width="3"/>
<line x1="341.3" y1="173.0" x2="302.9" y2="164.8" opacity="1.0" stroke="rgb(0,0,0)"  stroke-width="3"/>
<line x1="290.7" y1="127.5" x2="317.0" y2="98.3" opacity="1.0" stroke="rgb(0,0,0)"  stroke-width="3"/>
<line x1="317.0" y1="98.3" x2="355.4" y2="106.5" opacity="1.0" stroke="rgb(0,0,0)"  stroke-width="3"/>
<line x1="321.4" y1="106.6" x2="348.0" y2="112.3" opacity="1.0" stroke="rgb(0,0,0)"  stroke-width="3"/>
<line x1="186.9" y1="106.5" x2="225.2" y2="98.3" opacity="1.0" stroke="rgb(0,0,0)"  stroke-width="3"/>
<line x1="194.2" y1="112.3" x2="220.9" y2="106.6" opacity="1.0" stroke="rgb(0,0,0)"  stroke-width="3"/>
<line x1="225.2" y1="98.3" x2="251.5" y2="127.5" opacity="1.0" stroke="rgb(0,0,0)"  stroke-width="3"/>
<line x1="201.0" y1="173.0" x2="174.7" y2="143.8" opacity="1.0" stroke="rgb(0,0,0)"  stroke-width="3"/>
<line x1="202.3" y1="163.7" x2="184.1" y2="143.5" opacity="1.0" stroke="rgb(0,0,0)"  stroke-width="3"/>
<line x1="174.7" y1="143.8" x2="186.9" y2="106.5" opacity="1.0" stroke="rgb(0,0,0)"  stroke-width="3"/>
<line x1="237.1" y1="286.0" x2="214.4" y2="299.1" opacity="1.0" stroke="rgb(0,0,0)"  stroke-width="3"/>
<line x1="167.3" y1="289.7" x2="155.2" y2="252.3" opacity="1.0" stroke="rgb(0,0,0)"  stroke-width="3"/>
<line x1="155.2" y1="252.3" x2="191.6" y2="233.2" opacity="1.0" stroke="rgb(0,0,0)"  stroke-width="3"/>
<line x1="367.5" y1="419.3" x2="393.7" y2="390.1" opacity="1.0" stroke="rgb(0,0,0)"  stroke-width="3"/>
<line x1="366.1" y1="410.0" x2="384.4" y2="389.8" opacity="1.0" stroke="rgb(0,0,0)"  stroke-width="3"/>
<line x1="393.7" y1="390.1" x2="381.6" y2="352.8" opacity="1.0" stroke="rgb(0,0,0)"  stroke-width="3"/>
<line x1="343.2" y1="344.7" x2="316.9" y2="373.8" opacity="1.0" stroke="rgb(0,0,0)"  stroke-width="3"/>
<line x1="316.9" y1="373.8" x2="329.1" y2="411.1" opacity="1.0" stroke="rgb(0,0,0)"  stroke-width="3"/>
<line x1="325.6" y1="377.3" x2="334.1" y2="403.2" opacity="1.0" stroke="rgb(0,0,0)"  stroke-width="3"/>
<line x1="329.1" y1="411.1" x2="367.5" y2="419.3" opacity="1.0" stroke="rgb(0,0,0)"  stroke-width="3"/>
<line x1="339.6" y1="214.1" x2="341.3" y2="173.0" opacity="1.0" stroke="rgb(0,0,0)"  stroke-width="3"/>
<line x1="141.0" y1="318.8" x2="102.6" y2="310.7" opacity="1.0" stroke="rgb(0,0,0)"  stroke-width="3"/>
<line x1="102.6" y1="310.7" x2="90.5" y2="273.3" opacity="1.0" stroke="rgb(0,0,0)"  stroke-width="3"/>
<line x1="107.6" y1="302.7" x2="99.2" y2="276.8" opacity="1.0" stroke="rgb(0,0,0)"  stroke-width="3"/>
<line x1="90.5" y1="273.3" x2="116.8" y2="244.2" opacity="1.0" stroke="rgb(0,0,0)"  stroke-width="3"/>
<line x1="116.8" y1="244.2" x2="155.2" y2="252.3" opacity="1.0" stroke="rgb(0,0,0)"  stroke-width="3"/>
<line x1="121.1" y1="252.5" x2="147.8" y2="258.1" opacity="1.0" stroke="rgb(0,0,0)"  stroke-width="3"/>
<line x1="40.0" y1="227.9" x2="66.3" y2="198.7" opacity="1.0" stroke="rgb(0,0,0)"  stroke-width="3"/>
<line x1="66.3" y1="198.7" x2="104.6" y2="206.9" opacity="1.0" stroke="rgb(0,0,0)"  stroke-width="3"/>
<line x1="70.6" y1="207.0" x2="97.3" y2="212.7" opacity="1.0" stroke="rgb(0,0,0)"  stroke-width="3"/>
<line x1="104.6" y1="206.9" x2="116.8" y2="244.2" opacity="1.0" stroke="rgb(0,0,0)"  stroke-width="3"/>
<line x1="90.5" y1="273.3" x2="52.1" y2="265.2" opacity="1.0" stroke="rgb(0,0,0)"  stroke-width="3"/>
<line x1="52.1" y1="265.2" x2="40.0" y2="227.9" opacity="1.0" stroke="rgb(0,0,0)"  stroke-width="3"/>
<line x1="57.1" y1="257.3" x2="48.7" y2="231.3" opacity="1.0" stroke="rgb(0,0,0)"  stroke-width="3"/>
<line x1="459.2" y1="143.7" x2="433.0" y2="172.9" opacity="1.0" stroke="rgb(0,0,0)"  stroke-width="3"/>
<line x1="460.6" y1="153.0" x2="442.3" y2="173.2" opacity="1.0" stroke="rgb(0,0,0)"  stroke-width="3"/>
<line x1="433.0" y1="172.9" x2="445.1" y2="210.2" opacity="1.0" stroke="rgb(0,0,0)"  stroke-width="3"/>
<line x1="483.5" y1="218.4" x2="509.7" y2="189.2" opacity="1.0" stroke="rgb(0,0,0)"  stroke-width="3"/>
<line x1="509.7" y1="189.2" x2="497.6" y2="151.9" opacity="1.0" stroke="rgb(0,0,0)"  stroke-width="3"/>
<line x1="501.0" y1="185.7" x2="492.6" y2="159.8" opacity="1.0" stroke="rgb(0,0,0)"  stroke-width="3"/>
<line x1="497.6" y1="151.9" x2="459.2" y2="143.7" opacity="1.0" stroke="rgb(0,0,0)"  stroke-width="3"/>
<line x1="431.7" y1="530.8" x2="460.8" y2="504.4" opacity="1.0" stroke="rgb(0,0,0)"  stroke-width="3"/>
<line x1="431.3" y1="521.4" x2="451.5" y2="503.1" opacity="1.0" stroke="rgb(0,0,0)"  stroke-width="3"/>
<line x1="460.8" y1="504.4" x2="452.4" y2="466.0" opacity="1.0" stroke="rgb(0,0,0)"  stroke-width="3"/>
<line x1="452.4" y1="466.0" x2="415.0" y2="454.1" opacity="1.0" stroke="rgb(0,0,0)"  stroke-width="3"/>
<line x1="444.5" y1="471.1" x2="418.5" y2="462.8" opacity="1.0" stroke="rgb(0,0,0)"  stroke-width="3"/>
<line x1="415.0" y1="454.1" x2="386.0" y2="480.6" opacity="1.0" stroke="rgb(0,0,0)"  stroke-width="3"/>
<line x1="386.0" y1="480.6" x2="394.3" y2="518.9" opacity="1.0" stroke="rgb(0,0,0)"  stroke-width="3"/>
<line x1="394.3" y1="484.9" x2="400.1" y2="511.5" opacity="1.0" stroke="rgb(0,0,0)"  stroke-width="3"/>
<line x1="394.3" y1="518.9" x2="431.7" y2="530.8" opacity="1.0" stroke="rgb(0,0,0)"  stroke-width="3"/>
<line x1="326.7" y1="512.2" x2="290.9" y2="528.4" opacity="1.0" stroke="rgb(0,0,0)"  stroke-width="3"/>
<line x1="290.9" y1="528.4" x2="287.1" y2="567.4" opacity="1.0" stroke="rgb(0,0,0)"  stroke-width="3"/>
<line x1="297.5" y1="535.1" x2="294.8" y2="562.2" opacity="1.0" stroke="rgb(0,0,0)"  stroke-width="3"/>
<line x1="287.1" y1="567.4" x2="319.0" y2="590.3" opacity="1.0" stroke="rgb(0,0,0)"  stroke-width="3"/>
<line x1="319.0" y1="590.3" x2="354.7" y2="574.1" opacity="1.0" stroke="rgb(0,0,0)"  stroke-width="3"/>
<line x1="321.5" y1="581.3" x2="346.3" y2="570.0" opacity="1.0" stroke="rgb(0,0,0)"  stroke-width="3"/>
<line x1="354.7" y1="574.1" x2="358.6" y2="535.1" opacity="1.0" stroke="rgb(0,0,0)"  stroke-width="3"/>
<line x1="358.6" y1="535.1" x2="326.7" y2="512.2" opacity="1.0" stroke="rgb(0,0,0)"  stroke-width="3"/>
<line x1="349.5" y1="537.4" x2="327.4" y2="521.5" opacity="1.0" stroke="rgb(0,0,0)"  stroke-width="3"/>
<line x1="213.2" y1="411.1" x2="239.4" y2="440.3" opacity="1.0" stroke="rgb(0,0,0)"  stroke-width="3"/>
<line x1="239.4" y1="440.3" x2="277.8" y2="432.2" opacity="1.0" stroke="rgb(0,0,0)"  stroke-width="3"/>
<line x1="243.8" y1="432.0" x2="270.5" y2="426.4" opacity="1.0" stroke="rgb(0,0,0)"  stroke-width="3"/>
<line x1="277.8" y1="432.2" x2="290.0" y2="394.8" opacity="1.0" stroke="rgb(0,0,0)"  stroke-width="3"/>
<line x1="290.0" y1="394.8" x2="263.7" y2="365.7" opacity="1.0" stroke="rgb(0,0,0)"  stroke-width="3"/>
<line x1="280.6" y1="395.2" x2="262.4" y2="374.9" opacity="1.0" stroke="rgb(0,0,0)"  stroke-width="3"/>
<line x1="263.7" y1="365.7" x2="225.3" y2="373.8" opacity="1.0" stroke="rgb(0,0,0)"  stroke-width="3"/>
<line x1="225.3" y1="373.8" x2="213.2" y2="411.1" opacity="1.0" stroke="rgb(0,0,0)"  stroke-width="3"/>
<line x1="230.3" y1="381.8" x2="221.9" y2="407.7" opacity="1.0" stroke="rgb(0,0,0)"  stroke-width="3"/>
<line x1="110.1" y1="398.3" x2="98.0" y2="435.6" opacity="1.0" stroke="rgb(0,0,0)"  stroke-width="3"/>
<line x1="98.0" y1="435.6" x2="124.3" y2="464.8" opacity="1.0" stroke="rgb(0,0,0)"  stroke-width="3"/>
<line x1="107.4" y1="435.3" x2="125.6" y2="455.5" opacity="1.0" stroke="rgb(0,0,0)"  stroke-width="3"/>
<line x1="124.3" y1="464.8" x2="162.7" y2="456.6" opacity="1.0" stroke="rgb(0,0,0)"  stroke-width="3"/>
<line x1="162.7" y1="456.6" x2="174.8" y2="419.3" opacity="1.0" stroke="rgb(0,0,0)"  stroke-width="3"/>
<line x1="157.7" y1="448.7" x2="166.1" y2="422.8" opacity="1.0" stroke="rgb(0,0,0)"  stroke-width="3"/>
<line x1="174.8" y1="419.3" x2="148.5" y2="390.1" opacity="1.0" stroke="rgb(0,0,0)"  stroke-width="3"/>
<line x1="148.5" y1="390.1" x2="110.1" y2="398.3" opacity="1.0" stroke="rgb(0,0,0)"  stroke-width="3"/>
<line x1="144.2" y1="398.4" x2="117.5" y2="404.1" opacity="1.0" stroke="rgb(0,0,0)"  stroke-width="3"/>
<text x="333.098449" y="235.136055" fill="rgb(255,181,181)" stroke-width="0" font-weight="bold" font-size="25.92" >B</text>
<text x="197.146105" y="235.136103" fill="rgb(255,181,181)" stroke-width="0" font-weight="bold" font-size="25.92" >B</text>
<text x="333.098449" y="313.628221" fill="rgb(12,12,255)" stroke-width="0" font-weight="bold" font-size="25.92" >N</text>
<text x="197.146105" y="313.628221" fill="rgb(12,12,255)" stroke-width="0" font-weight="bold" font-size="25.92" >N</text>
<text x="265.122277" y="195.890044" fill="rgb(12,12,255)" stroke-width="0" font-weight="bold" font-size="25.92" >N</text>
<text x="481.581465" y="265.383159" fill="rgb(12,12,255)" stroke-width="0" font-weight="bold" font-size="25.92" >N</text>
</svg>
</g>
</svg>
