<?xml version="1.0"?>
<svg version="1.1" id="topsvg"
xmlns="http://www.w3.org/2000/svg" xmlns:xlink="http://www.w3.org/1999/xlink"
xmlns:cml="http://www.xml-cml.org/schema" x="0" y="0" width="200px" height="200px" viewBox="0 0 100 100">
<title>GD353.sdf - Open Babel Depiction</title>
<rect x="0" y="0" width="100" height="100" fill="white"/>
<g transform="translate(0,0)">
<svg width="100" height="100" x="0" y="0" viewBox="0 0 712.67 412.701"
font-family="sans-serif" stroke="rgb(0,0,0)" stroke-width="3"  stroke-linecap="round">
<line x1="284.6" y1="264.2" x2="284.1" y2="290.7" opacity="1.0" stroke="rgb(0,0,0)"  stroke-width="3"/>
<line x1="421.6" y1="267.1" x2="421.0" y2="293.6" opacity="1.0" stroke="rgb(0,0,0)"  stroke-width="3"/>
<line x1="249.4" y1="309.8" x2="226.7" y2="296.0" opacity="1.0" stroke="rgb(0,0,0)"  stroke-width="3"/>
<line x1="317.9" y1="311.2" x2="341.1" y2="298.5" opacity="1.0" stroke="rgb(0,0,0)"  stroke-width="3"/>
<line x1="386.4" y1="312.7" x2="363.4" y2="326.0" opacity="1.0" stroke="rgb(0,0,0)"  stroke-width="3"/>
<line x1="454.8" y1="314.1" x2="478.1" y2="301.4" opacity="1.0" stroke="rgb(0,0,0)"  stroke-width="3"/>
<line x1="200.5" y1="69.9" x2="187.5" y2="107.3" opacity="1.0" stroke="rgb(0,0,0)"  stroke-width="3"/>
<line x1="205.3" y1="78.0" x2="196.2" y2="104.0" opacity="1.0" stroke="rgb(0,0,0)"  stroke-width="3"/>
<line x1="187.5" y1="107.3" x2="208.6" y2="123.3" opacity="1.0" stroke="rgb(0,0,0)"  stroke-width="3"/>
<line x1="229.6" y1="123.8" x2="251.4" y2="108.6" opacity="1.0" stroke="rgb(0,0,0)"  stroke-width="3"/>
<line x1="251.4" y1="108.6" x2="240.0" y2="70.8" opacity="1.0" stroke="rgb(0,0,0)"  stroke-width="3"/>
<line x1="242.8" y1="105.0" x2="234.8" y2="78.6" opacity="1.0" stroke="rgb(0,0,0)"  stroke-width="3"/>
<line x1="240.0" y1="70.8" x2="200.5" y2="69.9" opacity="1.0" stroke="rgb(0,0,0)"  stroke-width="3"/>
<line x1="513.9" y1="76.6" x2="474.3" y2="75.7" opacity="1.0" stroke="rgb(0,0,0)"  stroke-width="3"/>
<line x1="474.3" y1="75.7" x2="461.3" y2="113.1" opacity="1.0" stroke="rgb(0,0,0)"  stroke-width="3"/>
<line x1="479.2" y1="83.8" x2="470.1" y2="109.8" opacity="1.0" stroke="rgb(0,0,0)"  stroke-width="3"/>
<line x1="461.3" y1="113.1" x2="482.5" y2="129.1" opacity="1.0" stroke="rgb(0,0,0)"  stroke-width="3"/>
<line x1="503.5" y1="129.6" x2="525.3" y2="114.4" opacity="1.0" stroke="rgb(0,0,0)"  stroke-width="3"/>
<line x1="525.3" y1="114.4" x2="513.9" y2="76.6" opacity="1.0" stroke="rgb(0,0,0)"  stroke-width="3"/>
<line x1="516.7" y1="110.8" x2="508.7" y2="84.4" opacity="1.0" stroke="rgb(0,0,0)"  stroke-width="3"/>
<line x1="319.6" y1="232.2" x2="353.4" y2="252.7" opacity="1.0" stroke="rgb(0,0,0)"  stroke-width="3"/>
<line x1="353.4" y1="252.7" x2="388.0" y2="233.6" opacity="1.0" stroke="rgb(0,0,0)"  stroke-width="3"/>
<line x1="355.2" y1="243.5" x2="379.3" y2="230.2" opacity="1.0" stroke="rgb(0,0,0)"  stroke-width="3"/>
<line x1="388.0" y1="233.6" x2="388.9" y2="194.1" opacity="1.0" stroke="rgb(0,0,0)"  stroke-width="3"/>
<line x1="388.9" y1="194.1" x2="355.0" y2="173.6" opacity="1.0" stroke="rgb(0,0,0)"  stroke-width="3"/>
<line x1="380.0" y1="197.1" x2="356.4" y2="182.9" opacity="1.0" stroke="rgb(0,0,0)"  stroke-width="3"/>
<line x1="355.0" y1="173.6" x2="320.4" y2="192.6" opacity="1.0" stroke="rgb(0,0,0)"  stroke-width="3"/>
<line x1="320.4" y1="192.6" x2="319.6" y2="232.2" opacity="1.0" stroke="rgb(0,0,0)"  stroke-width="3"/>
<line x1="327.5" y1="198.8" x2="326.9" y2="226.3" opacity="1.0" stroke="rgb(0,0,0)"  stroke-width="3"/>
<line x1="457.3" y1="195.5" x2="434.6" y2="181.8" opacity="1.0" stroke="rgb(0,0,0)"  stroke-width="3"/>
<line x1="412.1" y1="181.3" x2="388.9" y2="194.1" opacity="1.0" stroke="rgb(0,0,0)"  stroke-width="3"/>
<line x1="388.0" y1="233.6" x2="410.7" y2="247.4" opacity="1.0" stroke="rgb(0,0,0)"  stroke-width="3"/>
<line x1="433.2" y1="247.9" x2="456.5" y2="235.1" opacity="1.0" stroke="rgb(0,0,0)"  stroke-width="3"/>
<line x1="456.5" y1="235.1" x2="457.3" y2="195.5" opacity="1.0" stroke="rgb(0,0,0)"  stroke-width="3"/>
<line x1="275.2" y1="178.4" x2="251.9" y2="191.2" opacity="1.0" stroke="rgb(0,0,0)"  stroke-width="3"/>
<line x1="251.9" y1="191.2" x2="251.1" y2="230.7" opacity="1.0" stroke="rgb(0,0,0)"  stroke-width="3"/>
<line x1="259.0" y1="197.4" x2="258.4" y2="224.9" opacity="1.0" stroke="rgb(0,0,0)"  stroke-width="3"/>
<line x1="251.1" y1="230.7" x2="273.8" y2="244.5" opacity="1.0" stroke="rgb(0,0,0)"  stroke-width="3"/>
<line x1="296.3" y1="245.0" x2="319.6" y2="232.2" opacity="1.0" stroke="rgb(0,0,0)"  stroke-width="3"/>
<line x1="320.4" y1="192.6" x2="297.7" y2="178.9" opacity="1.0" stroke="rgb(0,0,0)"  stroke-width="3"/>
<line x1="182.6" y1="229.3" x2="216.4" y2="249.8" opacity="1.0" stroke="rgb(0,0,0)"  stroke-width="3"/>
<line x1="191.5" y1="226.2" x2="215.0" y2="240.5" opacity="1.0" stroke="rgb(0,0,0)"  stroke-width="3"/>
<line x1="216.4" y1="249.8" x2="251.1" y2="230.7" opacity="1.0" stroke="rgb(0,0,0)"  stroke-width="3"/>
<line x1="251.9" y1="191.2" x2="218.1" y2="170.7" opacity="1.0" stroke="rgb(0,0,0)"  stroke-width="3"/>
<line x1="218.1" y1="170.7" x2="183.5" y2="189.8" opacity="1.0" stroke="rgb(0,0,0)"  stroke-width="3"/>
<line x1="216.3" y1="179.9" x2="192.2" y2="193.2" opacity="1.0" stroke="rgb(0,0,0)"  stroke-width="3"/>
<line x1="183.5" y1="189.8" x2="182.6" y2="229.3" opacity="1.0" stroke="rgb(0,0,0)"  stroke-width="3"/>
<line x1="218.7" y1="144.2" x2="218.1" y2="170.7" opacity="1.0" stroke="rgb(0,0,0)"  stroke-width="3"/>
<line x1="287.4" y1="159.2" x2="289.9" y2="117.7" opacity="1.0" stroke="rgb(0,0,0)"  stroke-width="3"/>
<line x1="289.9" y1="117.7" x2="251.4" y2="108.6" opacity="1.0" stroke="rgb(0,0,0)"  stroke-width="3"/>
<line x1="461.3" y1="113.1" x2="422.5" y2="120.5" opacity="1.0" stroke="rgb(0,0,0)"  stroke-width="3"/>
<line x1="422.5" y1="120.5" x2="423.3" y2="162.1" opacity="1.0" stroke="rgb(0,0,0)"  stroke-width="3"/>
<line x1="457.3" y1="195.5" x2="492.0" y2="176.5" opacity="1.0" stroke="rgb(0,0,0)"  stroke-width="3"/>
<line x1="459.1" y1="186.3" x2="483.3" y2="173.1" opacity="1.0" stroke="rgb(0,0,0)"  stroke-width="3"/>
<line x1="492.0" y1="176.5" x2="492.5" y2="150.0" opacity="1.0" stroke="rgb(0,0,0)"  stroke-width="3"/>
<line x1="579.4" y1="56.8" x2="540.9" y2="47.7" opacity="1.0" stroke="rgb(0,0,0)"  stroke-width="3"/>
<line x1="571.9" y1="62.4" x2="545.1" y2="56.1" opacity="1.0" stroke="rgb(0,0,0)"  stroke-width="3"/>
<line x1="540.9" y1="47.7" x2="513.9" y2="76.6" opacity="1.0" stroke="rgb(0,0,0)"  stroke-width="3"/>
<line x1="525.3" y1="114.4" x2="563.8" y2="123.5" opacity="1.0" stroke="rgb(0,0,0)"  stroke-width="3"/>
<line x1="563.8" y1="123.5" x2="590.9" y2="94.6" opacity="1.0" stroke="rgb(0,0,0)"  stroke-width="3"/>
<line x1="562.6" y1="114.2" x2="581.5" y2="94.1" opacity="1.0" stroke="rgb(0,0,0)"  stroke-width="3"/>
<line x1="590.9" y1="94.6" x2="579.4" y2="56.8" opacity="1.0" stroke="rgb(0,0,0)"  stroke-width="3"/>
<line x1="492.0" y1="176.5" x2="525.8" y2="197.0" opacity="1.0" stroke="rgb(0,0,0)"  stroke-width="3"/>
<line x1="525.8" y1="197.0" x2="525.0" y2="236.5" opacity="1.0" stroke="rgb(0,0,0)"  stroke-width="3"/>
<line x1="518.5" y1="202.8" x2="517.9" y2="230.4" opacity="1.0" stroke="rgb(0,0,0)"  stroke-width="3"/>
<line x1="525.0" y1="236.5" x2="490.3" y2="255.6" opacity="1.0" stroke="rgb(0,0,0)"  stroke-width="3"/>
<line x1="490.3" y1="255.6" x2="456.5" y2="235.1" opacity="1.0" stroke="rgb(0,0,0)"  stroke-width="3"/>
<line x1="488.9" y1="246.3" x2="465.4" y2="232.0" opacity="1.0" stroke="rgb(0,0,0)"  stroke-width="3"/>
<line x1="409.7" y1="53.2" x2="396.7" y2="90.5" opacity="1.0" stroke="rgb(0,0,0)"  stroke-width="3"/>
<line x1="396.7" y1="90.5" x2="422.5" y2="120.5" opacity="1.0" stroke="rgb(0,0,0)"  stroke-width="3"/>
<line x1="406.0" y1="90.4" x2="424.0" y2="111.2" opacity="1.0" stroke="rgb(0,0,0)"  stroke-width="3"/>
<line x1="474.3" y1="75.7" x2="448.5" y2="45.8" opacity="1.0" stroke="rgb(0,0,0)"  stroke-width="3"/>
<line x1="448.5" y1="45.8" x2="409.7" y2="53.2" opacity="1.0" stroke="rgb(0,0,0)"  stroke-width="3"/>
<line x1="444.0" y1="54.0" x2="416.9" y2="59.1" opacity="1.0" stroke="rgb(0,0,0)"  stroke-width="3"/>
<line x1="135.8" y1="47.4" x2="122.8" y2="84.7" opacity="1.0" stroke="rgb(0,0,0)"  stroke-width="3"/>
<line x1="122.8" y1="84.7" x2="148.6" y2="114.7" opacity="1.0" stroke="rgb(0,0,0)"  stroke-width="3"/>
<line x1="132.2" y1="84.6" x2="150.2" y2="105.4" opacity="1.0" stroke="rgb(0,0,0)"  stroke-width="3"/>
<line x1="148.6" y1="114.7" x2="187.5" y2="107.3" opacity="1.0" stroke="rgb(0,0,0)"  stroke-width="3"/>
<line x1="200.5" y1="69.9" x2="174.6" y2="40.0" opacity="1.0" stroke="rgb(0,0,0)"  stroke-width="3"/>
<line x1="174.6" y1="40.0" x2="135.8" y2="47.4" opacity="1.0" stroke="rgb(0,0,0)"  stroke-width="3"/>
<line x1="170.1" y1="48.2" x2="143.0" y2="53.4" opacity="1.0" stroke="rgb(0,0,0)"  stroke-width="3"/>
<line x1="249.4" y1="309.8" x2="248.6" y2="349.3" opacity="1.0" stroke="rgb(0,0,0)"  stroke-width="3"/>
<line x1="248.6" y1="349.3" x2="282.4" y2="369.8" opacity="1.0" stroke="rgb(0,0,0)"  stroke-width="3"/>
<line x1="257.4" y1="346.3" x2="281.0" y2="360.5" opacity="1.0" stroke="rgb(0,0,0)"  stroke-width="3"/>
<line x1="282.4" y1="369.8" x2="317.1" y2="350.8" opacity="1.0" stroke="rgb(0,0,0)"  stroke-width="3"/>
<line x1="317.1" y1="350.8" x2="317.9" y2="311.2" opacity="1.0" stroke="rgb(0,0,0)"  stroke-width="3"/>
<line x1="310.0" y1="344.6" x2="310.6" y2="317.1" opacity="1.0" stroke="rgb(0,0,0)"  stroke-width="3"/>
<line x1="317.9" y1="311.2" x2="284.1" y2="290.7" opacity="1.0" stroke="rgb(0,0,0)"  stroke-width="3"/>
<line x1="284.1" y1="290.7" x2="249.4" y2="309.8" opacity="1.0" stroke="rgb(0,0,0)"  stroke-width="3"/>
<line x1="282.3" y1="299.9" x2="258.1" y2="313.2" opacity="1.0" stroke="rgb(0,0,0)"  stroke-width="3"/>
<line x1="386.4" y1="312.7" x2="385.5" y2="352.2" opacity="1.0" stroke="rgb(0,0,0)"  stroke-width="3"/>
<line x1="385.5" y1="352.2" x2="419.3" y2="372.7" opacity="1.0" stroke="rgb(0,0,0)"  stroke-width="3"/>
<line x1="394.4" y1="349.2" x2="417.9" y2="363.4" opacity="1.0" stroke="rgb(0,0,0)"  stroke-width="3"/>
<line x1="419.3" y1="372.7" x2="454.0" y2="353.7" opacity="1.0" stroke="rgb(0,0,0)"  stroke-width="3"/>
<line x1="454.0" y1="353.7" x2="454.8" y2="314.1" opacity="1.0" stroke="rgb(0,0,0)"  stroke-width="3"/>
<line x1="446.9" y1="347.5" x2="447.5" y2="320.0" opacity="1.0" stroke="rgb(0,0,0)"  stroke-width="3"/>
<line x1="454.8" y1="314.1" x2="421.0" y2="293.6" opacity="1.0" stroke="rgb(0,0,0)"  stroke-width="3"/>
<line x1="421.0" y1="293.6" x2="386.4" y2="312.7" opacity="1.0" stroke="rgb(0,0,0)"  stroke-width="3"/>
<line x1="419.2" y1="302.8" x2="395.1" y2="316.1" opacity="1.0" stroke="rgb(0,0,0)"  stroke-width="3"/>
<line x1="240.0" y1="70.8" x2="267.1" y2="42.0" opacity="1.0" stroke="rgb(0,0,0)"  stroke-width="3"/>
<line x1="267.1" y1="42.0" x2="305.6" y2="51.0" opacity="1.0" stroke="rgb(0,0,0)"  stroke-width="3"/>
<line x1="271.3" y1="50.3" x2="298.1" y2="56.6" opacity="1.0" stroke="rgb(0,0,0)"  stroke-width="3"/>
<line x1="305.6" y1="51.0" x2="317.0" y2="88.8" opacity="1.0" stroke="rgb(0,0,0)"  stroke-width="3"/>
<line x1="317.0" y1="88.8" x2="289.9" y2="117.7" opacity="1.0" stroke="rgb(0,0,0)"  stroke-width="3"/>
<line x1="307.6" y1="88.3" x2="288.8" y2="108.4" opacity="1.0" stroke="rgb(0,0,0)"  stroke-width="3"/>
<line x1="142.9" y1="260.9" x2="160.3" y2="225.4" opacity="1.0" stroke="rgb(0,0,0)"  stroke-width="3"/>
<line x1="139.1" y1="252.3" x2="151.2" y2="227.6" opacity="1.0" stroke="rgb(0,0,0)"  stroke-width="3"/>
<line x1="160.3" y1="225.4" x2="138.2" y2="192.6" opacity="1.0" stroke="rgb(0,0,0)"  stroke-width="3"/>
<line x1="138.2" y1="192.6" x2="98.7" y2="195.3" opacity="1.0" stroke="rgb(0,0,0)"  stroke-width="3"/>
<line x1="132.7" y1="200.1" x2="105.2" y2="202.0" opacity="1.0" stroke="rgb(0,0,0)"  stroke-width="3"/>
<line x1="98.7" y1="195.3" x2="81.4" y2="230.8" opacity="1.0" stroke="rgb(0,0,0)"  stroke-width="3"/>
<line x1="81.4" y1="230.8" x2="103.5" y2="263.6" opacity="1.0" stroke="rgb(0,0,0)"  stroke-width="3"/>
<line x1="90.7" y1="231.8" x2="106.1" y2="254.6" opacity="1.0" stroke="rgb(0,0,0)"  stroke-width="3"/>
<line x1="103.5" y1="263.6" x2="142.9" y2="260.9" opacity="1.0" stroke="rgb(0,0,0)"  stroke-width="3"/>
<line x1="40.0" y1="106.1" x2="46.8" y2="145.0" opacity="1.0" stroke="rgb(0,0,0)"  stroke-width="3"/>
<line x1="48.1" y1="110.8" x2="52.9" y2="137.9" opacity="1.0" stroke="rgb(0,0,0)"  stroke-width="3"/>
<line x1="46.8" y1="145.0" x2="84.0" y2="158.6" opacity="1.0" stroke="rgb(0,0,0)"  stroke-width="3"/>
<line x1="84.0" y1="158.6" x2="114.3" y2="133.2" opacity="1.0" stroke="rgb(0,0,0)"  stroke-width="3"/>
<line x1="83.9" y1="149.2" x2="105.1" y2="131.5" opacity="1.0" stroke="rgb(0,0,0)"  stroke-width="3"/>
<line x1="114.3" y1="133.2" x2="107.5" y2="94.3" opacity="1.0" stroke="rgb(0,0,0)"  stroke-width="3"/>
<line x1="107.5" y1="94.3" x2="70.3" y2="80.7" opacity="1.0" stroke="rgb(0,0,0)"  stroke-width="3"/>
<line x1="99.3" y1="99.0" x2="73.5" y2="89.5" opacity="1.0" stroke="rgb(0,0,0)"  stroke-width="3"/>
<line x1="70.3" y1="80.7" x2="40.0" y2="106.1" opacity="1.0" stroke="rgb(0,0,0)"  stroke-width="3"/>
<line x1="602.6" y1="274.2" x2="626.1" y2="242.3" opacity="1.0" stroke="rgb(0,0,0)"  stroke-width="3"/>
<line x1="600.4" y1="265.1" x2="616.7" y2="242.9" opacity="1.0" stroke="rgb(0,0,0)"  stroke-width="3"/>
<line x1="626.1" y1="242.3" x2="610.2" y2="206.1" opacity="1.0" stroke="rgb(0,0,0)"  stroke-width="3"/>
<line x1="610.2" y1="206.1" x2="570.9" y2="201.7" opacity="1.0" stroke="rgb(0,0,0)"  stroke-width="3"/>
<line x1="603.4" y1="212.6" x2="576.1" y2="209.5" opacity="1.0" stroke="rgb(0,0,0)"  stroke-width="3"/>
<line x1="570.9" y1="201.7" x2="547.5" y2="233.5" opacity="1.0" stroke="rgb(0,0,0)"  stroke-width="3"/>
<line x1="547.5" y1="233.5" x2="563.3" y2="269.8" opacity="1.0" stroke="rgb(0,0,0)"  stroke-width="3"/>
<line x1="556.5" y1="236.2" x2="567.5" y2="261.4" opacity="1.0" stroke="rgb(0,0,0)"  stroke-width="3"/>
<line x1="563.3" y1="269.8" x2="602.6" y2="274.2" opacity="1.0" stroke="rgb(0,0,0)"  stroke-width="3"/>
<line x1="643.5" y1="92.8" x2="605.8" y2="104.8" opacity="1.0" stroke="rgb(0,0,0)"  stroke-width="3"/>
<line x1="639.9" y1="101.5" x2="613.7" y2="109.9" opacity="1.0" stroke="rgb(0,0,0)"  stroke-width="3"/>
<line x1="605.8" y1="104.8" x2="597.3" y2="143.4" opacity="1.0" stroke="rgb(0,0,0)"  stroke-width="3"/>
<line x1="597.3" y1="143.4" x2="626.5" y2="170.1" opacity="1.0" stroke="rgb(0,0,0)"  stroke-width="3"/>
<line x1="606.6" y1="142.2" x2="626.9" y2="160.7" opacity="1.0" stroke="rgb(0,0,0)"  stroke-width="3"/>
<line x1="626.5" y1="170.1" x2="664.2" y2="158.1" opacity="1.0" stroke="rgb(0,0,0)"  stroke-width="3"/>
<line x1="664.2" y1="158.1" x2="672.7" y2="119.5" opacity="1.0" stroke="rgb(0,0,0)"  stroke-width="3"/>
<line x1="658.5" y1="150.7" x2="664.4" y2="123.8" opacity="1.0" stroke="rgb(0,0,0)"  stroke-width="3"/>
<line x1="672.7" y1="119.5" x2="643.5" y2="92.8" opacity="1.0" stroke="rgb(0,0,0)"  stroke-width="3"/>
<line x1="84.0" y1="158.6" x2="98.7" y2="195.3" opacity="1.0" stroke="rgb(0,0,0)"  stroke-width="3"/>
<line x1="138.2" y1="192.6" x2="147.8" y2="154.2" opacity="1.0" stroke="rgb(0,0,0)"  stroke-width="3"/>
<line x1="147.8" y1="154.2" x2="114.3" y2="133.2" opacity="1.0" stroke="rgb(0,0,0)"  stroke-width="3"/>
<line x1="610.2" y1="206.1" x2="626.5" y2="170.1" opacity="1.0" stroke="rgb(0,0,0)"  stroke-width="3"/>
<line x1="597.3" y1="143.4" x2="562.9" y2="163.0" opacity="1.0" stroke="rgb(0,0,0)"  stroke-width="3"/>
<line x1="562.9" y1="163.0" x2="570.9" y2="201.7" opacity="1.0" stroke="rgb(0,0,0)"  stroke-width="3"/>
<line x1="148.6" y1="114.7" x2="147.8" y2="154.2" opacity="1.0" stroke="rgb(0,0,0)"  stroke-width="3"/>
<line x1="147.8" y1="154.2" x2="183.5" y2="189.8" opacity="1.0" stroke="rgb(0,0,0)"  stroke-width="3"/>
<line x1="562.9" y1="163.0" x2="563.8" y2="123.5" opacity="1.0" stroke="rgb(0,0,0)"  stroke-width="3"/>
<line x1="525.8" y1="197.0" x2="562.9" y2="163.0" opacity="1.0" stroke="rgb(0,0,0)"  stroke-width="3"/>
<text x="483.471365" y="303.091346" fill="rgb(127,178,255)" stroke-width="0" font-weight="bold" font-size="25.92" >F</text>
<text x="346.113639" y="340.451863" fill="rgb(127,178,255)" stroke-width="0" font-weight="bold" font-size="25.92" >F</text>
<text x="346.539448" y="300.194360" fill="rgb(127,178,255)" stroke-width="0" font-weight="bold" font-size="25.92" >F</text>
<text x="209.607578" y="297.297375" fill="rgb(127,178,255)" stroke-width="0" font-weight="bold" font-size="25.92" >F</text>
<text x="278.909843" y="259.217032" fill="rgb(12,12,255)" stroke-width="0" font-weight="bold" font-size="25.92" >N</text>
<text x="280.582454" y="180.159408" fill="rgb(255,181,181)" stroke-width="0" font-weight="bold" font-size="25.92" >B</text>
<text x="417.514324" y="183.056394" fill="rgb(255,181,181)" stroke-width="0" font-weight="bold" font-size="25.92" >B</text>
<text x="415.841712" y="262.114065" fill="rgb(12,12,255)" stroke-width="0" font-weight="bold" font-size="25.92" >N</text>
<text x="212.952801" y="139.182032" fill="rgb(12,12,255)" stroke-width="0" font-weight="bold" font-size="25.92" >N</text>
<text x="486.816588" y="144.976099" fill="rgb(12,12,255)" stroke-width="0" font-weight="bold" font-size="25.92" >N</text>
</svg>
</g>
</svg>
