<?xml version="1.0"?>
<svg version="1.1" id="topsvg"
xmlns="http://www.w3.org/2000/svg" xmlns:xlink="http://www.w3.org/1999/xlink"
xmlns:cml="http://www.xml-cml.org/schema" x="0" y="0" width="200px" height="200px" viewBox="0 0 100 100">
<title>GD367.sdf - Open Babel Depiction</title>
<rect x="0" y="0" width="100" height="100" fill="white"/>
<g transform="translate(0,0)">
<svg width="100" height="100" x="0" y="0" viewBox="0 0 714.323 540.433"
font-family="sans-serif" stroke="rgb(0,0,0)" stroke-width="3"  stroke-linecap="round">
<line x1="214.4" y1="437.5" x2="233.4" y2="472.1" opacity="1.0" stroke="rgb(0,0,0)"  stroke-width="3"/>
<line x1="214.4" y1="437.5" x2="179.8" y2="456.5" opacity="1.0" stroke="rgb(0,0,0)"  stroke-width="3"/>
<line x1="214.4" y1="437.5" x2="195.4" y2="402.9" opacity="1.0" stroke="rgb(0,0,0)"  stroke-width="3"/>
<line x1="249.1" y1="418.4" x2="214.4" y2="437.5" opacity="1.0" stroke="rgb(0,0,0)"  stroke-width="3"/>
<line x1="489.4" y1="442.6" x2="509.1" y2="408.4" opacity="1.0" stroke="rgb(0,0,0)"  stroke-width="3"/>
<line x1="489.4" y1="442.6" x2="523.6" y2="462.3" opacity="1.0" stroke="rgb(0,0,0)"  stroke-width="3"/>
<line x1="489.4" y1="442.6" x2="469.6" y2="476.8" opacity="1.0" stroke="rgb(0,0,0)"  stroke-width="3"/>
<line x1="455.1" y1="422.7" x2="489.4" y2="442.6" opacity="1.0" stroke="rgb(0,0,0)"  stroke-width="3"/>
<line x1="317.8" y1="459.5" x2="357.3" y2="459.5" opacity="1.0" stroke="rgb(0,0,0)"  stroke-width="3"/>
<line x1="317.8" y1="459.5" x2="317.8" y2="499.0" opacity="1.0" stroke="rgb(0,0,0)"  stroke-width="3"/>
<line x1="317.8" y1="459.5" x2="278.3" y2="459.5" opacity="1.0" stroke="rgb(0,0,0)"  stroke-width="3"/>
<line x1="317.8" y1="419.8" x2="317.8" y2="459.5" opacity="1.0" stroke="rgb(0,0,0)"  stroke-width="3"/>
<line x1="386.4" y1="460.9" x2="425.9" y2="460.9" opacity="1.0" stroke="rgb(0,0,0)"  stroke-width="3"/>
<line x1="386.4" y1="460.9" x2="386.4" y2="500.4" opacity="1.0" stroke="rgb(0,0,0)"  stroke-width="3"/>
<line x1="386.4" y1="460.9" x2="346.9" y2="460.9" opacity="1.0" stroke="rgb(0,0,0)"  stroke-width="3"/>
<line x1="386.4" y1="421.3" x2="386.4" y2="460.9" opacity="1.0" stroke="rgb(0,0,0)"  stroke-width="3"/>
<line x1="285.3" y1="333.0" x2="284.7" y2="359.7" opacity="1.0" stroke="rgb(0,0,0)"  stroke-width="3"/>
<line x1="422.6" y1="335.9" x2="422.0" y2="362.6" opacity="1.0" stroke="rgb(0,0,0)"  stroke-width="3"/>
<line x1="136.1" y1="115.7" x2="110.2" y2="85.7" opacity="1.0" stroke="rgb(0,0,0)"  stroke-width="3"/>
<line x1="110.2" y1="85.7" x2="123.2" y2="48.2" opacity="1.0" stroke="rgb(0,0,0)"  stroke-width="3"/>
<line x1="110.2" y1="85.7" x2="71.2" y2="93.1" opacity="1.0" stroke="rgb(0,0,0)"  stroke-width="3"/>
<line x1="110.2" y1="85.7" x2="149.1" y2="78.2" opacity="1.0" stroke="rgb(0,0,0)"  stroke-width="3"/>
<line x1="580.8" y1="125.1" x2="608.0" y2="96.2" opacity="1.0" stroke="rgb(0,0,0)"  stroke-width="3"/>
<line x1="608.0" y1="96.2" x2="596.5" y2="58.2" opacity="1.0" stroke="rgb(0,0,0)"  stroke-width="3"/>
<line x1="608.0" y1="96.2" x2="646.6" y2="105.3" opacity="1.0" stroke="rgb(0,0,0)"  stroke-width="3"/>
<line x1="608.0" y1="96.2" x2="635.1" y2="67.3" opacity="1.0" stroke="rgb(0,0,0)"  stroke-width="3"/>
<line x1="410.6" y1="121.5" x2="410.6" y2="81.8" opacity="1.0" stroke="rgb(0,0,0)"  stroke-width="3"/>
<line x1="410.6" y1="81.8" x2="376.3" y2="62.0" opacity="1.0" stroke="rgb(0,0,0)"  stroke-width="3"/>
<line x1="410.6" y1="81.8" x2="445.0" y2="62.0" opacity="1.0" stroke="rgb(0,0,0)"  stroke-width="3"/>
<line x1="410.6" y1="81.8" x2="410.6" y2="42.2" opacity="1.0" stroke="rgb(0,0,0)"  stroke-width="3"/>
<line x1="306.3" y1="119.3" x2="306.3" y2="79.6" opacity="1.0" stroke="rgb(0,0,0)"  stroke-width="3"/>
<line x1="306.3" y1="79.6" x2="340.6" y2="59.8" opacity="1.0" stroke="rgb(0,0,0)"  stroke-width="3"/>
<line x1="306.3" y1="79.6" x2="271.9" y2="59.8" opacity="1.0" stroke="rgb(0,0,0)"  stroke-width="3"/>
<line x1="306.3" y1="79.6" x2="306.3" y2="40.0" opacity="1.0" stroke="rgb(0,0,0)"  stroke-width="3"/>
<line x1="200.9" y1="138.3" x2="187.9" y2="175.7" opacity="1.0" stroke="rgb(0,0,0)"  stroke-width="3"/>
<line x1="205.7" y1="146.3" x2="196.6" y2="172.4" opacity="1.0" stroke="rgb(0,0,0)"  stroke-width="3"/>
<line x1="187.9" y1="175.7" x2="209.1" y2="191.8" opacity="1.0" stroke="rgb(0,0,0)"  stroke-width="3"/>
<line x1="230.1" y1="192.3" x2="252.0" y2="177.1" opacity="1.0" stroke="rgb(0,0,0)"  stroke-width="3"/>
<line x1="252.0" y1="177.1" x2="240.5" y2="139.1" opacity="1.0" stroke="rgb(0,0,0)"  stroke-width="3"/>
<line x1="243.4" y1="173.4" x2="235.4" y2="146.9" opacity="1.0" stroke="rgb(0,0,0)"  stroke-width="3"/>
<line x1="240.5" y1="139.1" x2="200.9" y2="138.3" opacity="1.0" stroke="rgb(0,0,0)"  stroke-width="3"/>
<line x1="515.1" y1="144.9" x2="475.5" y2="144.1" opacity="1.0" stroke="rgb(0,0,0)"  stroke-width="3"/>
<line x1="475.5" y1="144.1" x2="462.4" y2="181.5" opacity="1.0" stroke="rgb(0,0,0)"  stroke-width="3"/>
<line x1="480.3" y1="152.1" x2="471.2" y2="178.2" opacity="1.0" stroke="rgb(0,0,0)"  stroke-width="3"/>
<line x1="462.4" y1="181.5" x2="483.6" y2="197.6" opacity="1.0" stroke="rgb(0,0,0)"  stroke-width="3"/>
<line x1="504.7" y1="198.1" x2="526.6" y2="182.9" opacity="1.0" stroke="rgb(0,0,0)"  stroke-width="3"/>
<line x1="526.6" y1="182.9" x2="515.1" y2="144.9" opacity="1.0" stroke="rgb(0,0,0)"  stroke-width="3"/>
<line x1="517.9" y1="179.2" x2="509.9" y2="152.7" opacity="1.0" stroke="rgb(0,0,0)"  stroke-width="3"/>
<line x1="320.3" y1="300.9" x2="354.2" y2="321.5" opacity="1.0" stroke="rgb(0,0,0)"  stroke-width="3"/>
<line x1="354.2" y1="321.5" x2="388.9" y2="302.4" opacity="1.0" stroke="rgb(0,0,0)"  stroke-width="3"/>
<line x1="356.0" y1="312.3" x2="380.2" y2="299.0" opacity="1.0" stroke="rgb(0,0,0)"  stroke-width="3"/>
<line x1="388.9" y1="302.4" x2="389.8" y2="262.8" opacity="1.0" stroke="rgb(0,0,0)"  stroke-width="3"/>
<line x1="389.8" y1="262.8" x2="355.9" y2="242.2" opacity="1.0" stroke="rgb(0,0,0)"  stroke-width="3"/>
<line x1="380.9" y1="265.8" x2="357.3" y2="251.5" opacity="1.0" stroke="rgb(0,0,0)"  stroke-width="3"/>
<line x1="355.9" y1="242.2" x2="321.1" y2="261.3" opacity="1.0" stroke="rgb(0,0,0)"  stroke-width="3"/>
<line x1="321.1" y1="261.3" x2="320.3" y2="300.9" opacity="1.0" stroke="rgb(0,0,0)"  stroke-width="3"/>
<line x1="328.2" y1="267.5" x2="327.6" y2="295.1" opacity="1.0" stroke="rgb(0,0,0)"  stroke-width="3"/>
<line x1="458.4" y1="264.2" x2="435.6" y2="250.4" opacity="1.0" stroke="rgb(0,0,0)"  stroke-width="3"/>
<line x1="413.1" y1="249.9" x2="389.8" y2="262.8" opacity="1.0" stroke="rgb(0,0,0)"  stroke-width="3"/>
<line x1="388.9" y1="302.4" x2="411.7" y2="316.2" opacity="1.0" stroke="rgb(0,0,0)"  stroke-width="3"/>
<line x1="434.2" y1="316.7" x2="457.6" y2="303.8" opacity="1.0" stroke="rgb(0,0,0)"  stroke-width="3"/>
<line x1="457.6" y1="303.8" x2="458.4" y2="264.2" opacity="1.0" stroke="rgb(0,0,0)"  stroke-width="3"/>
<line x1="275.8" y1="247.0" x2="252.5" y2="259.9" opacity="1.0" stroke="rgb(0,0,0)"  stroke-width="3"/>
<line x1="252.5" y1="259.9" x2="251.6" y2="299.5" opacity="1.0" stroke="rgb(0,0,0)"  stroke-width="3"/>
<line x1="259.6" y1="266.0" x2="259.0" y2="293.6" opacity="1.0" stroke="rgb(0,0,0)"  stroke-width="3"/>
<line x1="251.6" y1="299.5" x2="274.4" y2="313.3" opacity="1.0" stroke="rgb(0,0,0)"  stroke-width="3"/>
<line x1="296.9" y1="313.8" x2="320.3" y2="300.9" opacity="1.0" stroke="rgb(0,0,0)"  stroke-width="3"/>
<line x1="321.1" y1="261.3" x2="298.3" y2="247.5" opacity="1.0" stroke="rgb(0,0,0)"  stroke-width="3"/>
<line x1="183.0" y1="298.0" x2="216.9" y2="318.6" opacity="1.0" stroke="rgb(0,0,0)"  stroke-width="3"/>
<line x1="191.9" y1="295.0" x2="215.5" y2="309.3" opacity="1.0" stroke="rgb(0,0,0)"  stroke-width="3"/>
<line x1="216.9" y1="318.6" x2="251.6" y2="299.5" opacity="1.0" stroke="rgb(0,0,0)"  stroke-width="3"/>
<line x1="252.5" y1="259.9" x2="218.6" y2="239.3" opacity="1.0" stroke="rgb(0,0,0)"  stroke-width="3"/>
<line x1="218.6" y1="239.3" x2="183.8" y2="258.4" opacity="1.0" stroke="rgb(0,0,0)"  stroke-width="3"/>
<line x1="216.8" y1="248.5" x2="192.6" y2="261.8" opacity="1.0" stroke="rgb(0,0,0)"  stroke-width="3"/>
<line x1="183.8" y1="258.4" x2="183.0" y2="298.0" opacity="1.0" stroke="rgb(0,0,0)"  stroke-width="3"/>
<line x1="219.1" y1="212.7" x2="218.6" y2="239.3" opacity="1.0" stroke="rgb(0,0,0)"  stroke-width="3"/>
<line x1="288.0" y1="227.8" x2="290.6" y2="186.1" opacity="1.0" stroke="rgb(0,0,0)"  stroke-width="3"/>
<line x1="290.6" y1="186.1" x2="252.0" y2="177.1" opacity="1.0" stroke="rgb(0,0,0)"  stroke-width="3"/>
<line x1="462.4" y1="181.5" x2="423.5" y2="188.9" opacity="1.0" stroke="rgb(0,0,0)"  stroke-width="3"/>
<line x1="423.5" y1="188.9" x2="424.3" y2="230.7" opacity="1.0" stroke="rgb(0,0,0)"  stroke-width="3"/>
<line x1="458.4" y1="264.2" x2="493.2" y2="245.1" opacity="1.0" stroke="rgb(0,0,0)"  stroke-width="3"/>
<line x1="460.2" y1="255.0" x2="484.4" y2="241.7" opacity="1.0" stroke="rgb(0,0,0)"  stroke-width="3"/>
<line x1="493.2" y1="245.1" x2="493.7" y2="218.5" opacity="1.0" stroke="rgb(0,0,0)"  stroke-width="3"/>
<line x1="580.8" y1="125.1" x2="542.2" y2="116.0" opacity="1.0" stroke="rgb(0,0,0)"  stroke-width="3"/>
<line x1="573.4" y1="130.7" x2="546.4" y2="124.4" opacity="1.0" stroke="rgb(0,0,0)"  stroke-width="3"/>
<line x1="542.2" y1="116.0" x2="515.1" y2="144.9" opacity="1.0" stroke="rgb(0,0,0)"  stroke-width="3"/>
<line x1="526.6" y1="182.9" x2="565.1" y2="191.9" opacity="1.0" stroke="rgb(0,0,0)"  stroke-width="3"/>
<line x1="565.1" y1="191.9" x2="592.3" y2="163.0" opacity="1.0" stroke="rgb(0,0,0)"  stroke-width="3"/>
<line x1="564.0" y1="182.6" x2="582.9" y2="162.5" opacity="1.0" stroke="rgb(0,0,0)"  stroke-width="3"/>
<line x1="592.3" y1="163.0" x2="580.8" y2="125.1" opacity="1.0" stroke="rgb(0,0,0)"  stroke-width="3"/>
<line x1="493.2" y1="245.1" x2="527.1" y2="265.7" opacity="1.0" stroke="rgb(0,0,0)"  stroke-width="3"/>
<line x1="527.1" y1="265.7" x2="526.2" y2="305.3" opacity="1.0" stroke="rgb(0,0,0)"  stroke-width="3"/>
<line x1="519.7" y1="271.5" x2="519.2" y2="299.1" opacity="1.0" stroke="rgb(0,0,0)"  stroke-width="3"/>
<line x1="526.2" y1="305.3" x2="491.5" y2="324.4" opacity="1.0" stroke="rgb(0,0,0)"  stroke-width="3"/>
<line x1="491.5" y1="324.4" x2="457.6" y2="303.8" opacity="1.0" stroke="rgb(0,0,0)"  stroke-width="3"/>
<line x1="490.1" y1="315.1" x2="466.4" y2="300.8" opacity="1.0" stroke="rgb(0,0,0)"  stroke-width="3"/>
<line x1="410.6" y1="121.5" x2="397.6" y2="158.9" opacity="1.0" stroke="rgb(0,0,0)"  stroke-width="3"/>
<line x1="397.6" y1="158.9" x2="423.5" y2="188.9" opacity="1.0" stroke="rgb(0,0,0)"  stroke-width="3"/>
<line x1="407.0" y1="158.8" x2="425.0" y2="179.7" opacity="1.0" stroke="rgb(0,0,0)"  stroke-width="3"/>
<line x1="475.5" y1="144.1" x2="449.6" y2="114.1" opacity="1.0" stroke="rgb(0,0,0)"  stroke-width="3"/>
<line x1="449.6" y1="114.1" x2="410.6" y2="121.5" opacity="1.0" stroke="rgb(0,0,0)"  stroke-width="3"/>
<line x1="445.0" y1="122.3" x2="417.9" y2="127.4" opacity="1.0" stroke="rgb(0,0,0)"  stroke-width="3"/>
<line x1="136.1" y1="115.7" x2="123.0" y2="153.1" opacity="1.0" stroke="rgb(0,0,0)"  stroke-width="3"/>
<line x1="123.0" y1="153.1" x2="148.9" y2="183.1" opacity="1.0" stroke="rgb(0,0,0)"  stroke-width="3"/>
<line x1="132.4" y1="153.0" x2="150.4" y2="173.9" opacity="1.0" stroke="rgb(0,0,0)"  stroke-width="3"/>
<line x1="148.9" y1="183.1" x2="187.9" y2="175.7" opacity="1.0" stroke="rgb(0,0,0)"  stroke-width="3"/>
<line x1="200.9" y1="138.3" x2="175.0" y2="108.3" opacity="1.0" stroke="rgb(0,0,0)"  stroke-width="3"/>
<line x1="175.0" y1="108.3" x2="136.1" y2="115.7" opacity="1.0" stroke="rgb(0,0,0)"  stroke-width="3"/>
<line x1="170.5" y1="116.5" x2="143.3" y2="121.6" opacity="1.0" stroke="rgb(0,0,0)"  stroke-width="3"/>
<line x1="250.0" y1="378.8" x2="249.1" y2="418.4" opacity="1.0" stroke="rgb(0,0,0)"  stroke-width="3"/>
<line x1="249.1" y1="418.4" x2="283.0" y2="438.9" opacity="1.0" stroke="rgb(0,0,0)"  stroke-width="3"/>
<line x1="258.0" y1="415.3" x2="281.6" y2="429.7" opacity="1.0" stroke="rgb(0,0,0)"  stroke-width="3"/>
<line x1="283.0" y1="438.9" x2="317.8" y2="419.8" opacity="1.0" stroke="rgb(0,0,0)"  stroke-width="3"/>
<line x1="317.8" y1="419.8" x2="318.6" y2="380.2" opacity="1.0" stroke="rgb(0,0,0)"  stroke-width="3"/>
<line x1="310.7" y1="413.7" x2="311.3" y2="386.1" opacity="1.0" stroke="rgb(0,0,0)"  stroke-width="3"/>
<line x1="318.6" y1="380.2" x2="284.7" y2="359.7" opacity="1.0" stroke="rgb(0,0,0)"  stroke-width="3"/>
<line x1="284.7" y1="359.7" x2="250.0" y2="378.8" opacity="1.0" stroke="rgb(0,0,0)"  stroke-width="3"/>
<line x1="282.9" y1="368.9" x2="258.7" y2="382.2" opacity="1.0" stroke="rgb(0,0,0)"  stroke-width="3"/>
<line x1="387.3" y1="381.7" x2="386.4" y2="421.3" opacity="1.0" stroke="rgb(0,0,0)"  stroke-width="3"/>
<line x1="386.4" y1="421.3" x2="420.3" y2="441.8" opacity="1.0" stroke="rgb(0,0,0)"  stroke-width="3"/>
<line x1="395.3" y1="418.2" x2="418.9" y2="432.6" opacity="1.0" stroke="rgb(0,0,0)"  stroke-width="3"/>
<line x1="420.3" y1="441.8" x2="455.1" y2="422.7" opacity="1.0" stroke="rgb(0,0,0)"  stroke-width="3"/>
<line x1="455.1" y1="422.7" x2="455.9" y2="383.1" opacity="1.0" stroke="rgb(0,0,0)"  stroke-width="3"/>
<line x1="448.0" y1="416.6" x2="448.6" y2="389.0" opacity="1.0" stroke="rgb(0,0,0)"  stroke-width="3"/>
<line x1="455.9" y1="383.1" x2="422.0" y2="362.6" opacity="1.0" stroke="rgb(0,0,0)"  stroke-width="3"/>
<line x1="422.0" y1="362.6" x2="387.3" y2="381.7" opacity="1.0" stroke="rgb(0,0,0)"  stroke-width="3"/>
<line x1="420.2" y1="371.8" x2="396.0" y2="385.1" opacity="1.0" stroke="rgb(0,0,0)"  stroke-width="3"/>
<line x1="240.5" y1="139.1" x2="267.7" y2="110.2" opacity="1.0" stroke="rgb(0,0,0)"  stroke-width="3"/>
<line x1="267.7" y1="110.2" x2="306.3" y2="119.3" opacity="1.0" stroke="rgb(0,0,0)"  stroke-width="3"/>
<line x1="271.9" y1="118.6" x2="298.8" y2="124.9" opacity="1.0" stroke="rgb(0,0,0)"  stroke-width="3"/>
<line x1="306.3" y1="119.3" x2="317.7" y2="157.2" opacity="1.0" stroke="rgb(0,0,0)"  stroke-width="3"/>
<line x1="317.7" y1="157.2" x2="290.6" y2="186.1" opacity="1.0" stroke="rgb(0,0,0)"  stroke-width="3"/>
<line x1="308.4" y1="156.7" x2="289.4" y2="176.8" opacity="1.0" stroke="rgb(0,0,0)"  stroke-width="3"/>
<line x1="143.2" y1="329.7" x2="160.6" y2="294.1" opacity="1.0" stroke="rgb(0,0,0)"  stroke-width="3"/>
<line x1="139.3" y1="321.2" x2="151.5" y2="296.3" opacity="1.0" stroke="rgb(0,0,0)"  stroke-width="3"/>
<line x1="160.6" y1="294.1" x2="138.4" y2="261.2" opacity="1.0" stroke="rgb(0,0,0)"  stroke-width="3"/>
<line x1="138.4" y1="261.2" x2="98.9" y2="263.9" opacity="1.0" stroke="rgb(0,0,0)"  stroke-width="3"/>
<line x1="133.0" y1="268.8" x2="105.4" y2="270.7" opacity="1.0" stroke="rgb(0,0,0)"  stroke-width="3"/>
<line x1="98.9" y1="263.9" x2="81.5" y2="299.6" opacity="1.0" stroke="rgb(0,0,0)"  stroke-width="3"/>
<line x1="81.5" y1="299.6" x2="103.6" y2="332.4" opacity="1.0" stroke="rgb(0,0,0)"  stroke-width="3"/>
<line x1="90.8" y1="300.5" x2="106.2" y2="323.4" opacity="1.0" stroke="rgb(0,0,0)"  stroke-width="3"/>
<line x1="103.6" y1="332.4" x2="143.2" y2="329.7" opacity="1.0" stroke="rgb(0,0,0)"  stroke-width="3"/>
<line x1="40.0" y1="174.5" x2="46.8" y2="213.6" opacity="1.0" stroke="rgb(0,0,0)"  stroke-width="3"/>
<line x1="48.1" y1="179.2" x2="52.9" y2="206.4" opacity="1.0" stroke="rgb(0,0,0)"  stroke-width="3"/>
<line x1="46.8" y1="213.6" x2="84.1" y2="227.2" opacity="1.0" stroke="rgb(0,0,0)"  stroke-width="3"/>
<line x1="84.1" y1="227.2" x2="114.5" y2="201.7" opacity="1.0" stroke="rgb(0,0,0)"  stroke-width="3"/>
<line x1="84.1" y1="217.8" x2="105.3" y2="200.1" opacity="1.0" stroke="rgb(0,0,0)"  stroke-width="3"/>
<line x1="114.5" y1="201.7" x2="107.6" y2="162.7" opacity="1.0" stroke="rgb(0,0,0)"  stroke-width="3"/>
<line x1="107.6" y1="162.7" x2="70.4" y2="149.1" opacity="1.0" stroke="rgb(0,0,0)"  stroke-width="3"/>
<line x1="99.5" y1="167.4" x2="73.6" y2="157.9" opacity="1.0" stroke="rgb(0,0,0)"  stroke-width="3"/>
<line x1="70.4" y1="149.1" x2="40.0" y2="174.5" opacity="1.0" stroke="rgb(0,0,0)"  stroke-width="3"/>
<line x1="604.1" y1="343.0" x2="627.6" y2="311.1" opacity="1.0" stroke="rgb(0,0,0)"  stroke-width="3"/>
<line x1="601.8" y1="333.9" x2="618.2" y2="311.7" opacity="1.0" stroke="rgb(0,0,0)"  stroke-width="3"/>
<line x1="627.6" y1="311.1" x2="611.7" y2="274.8" opacity="1.0" stroke="rgb(0,0,0)"  stroke-width="3"/>
<line x1="611.7" y1="274.8" x2="572.3" y2="270.4" opacity="1.0" stroke="rgb(0,0,0)"  stroke-width="3"/>
<line x1="604.9" y1="281.3" x2="577.5" y2="278.2" opacity="1.0" stroke="rgb(0,0,0)"  stroke-width="3"/>
<line x1="572.3" y1="270.4" x2="548.8" y2="302.3" opacity="1.0" stroke="rgb(0,0,0)"  stroke-width="3"/>
<line x1="548.8" y1="302.3" x2="564.7" y2="338.6" opacity="1.0" stroke="rgb(0,0,0)"  stroke-width="3"/>
<line x1="557.8" y1="304.9" x2="568.9" y2="330.2" opacity="1.0" stroke="rgb(0,0,0)"  stroke-width="3"/>
<line x1="564.7" y1="338.6" x2="604.1" y2="343.0" opacity="1.0" stroke="rgb(0,0,0)"  stroke-width="3"/>
<line x1="645.0" y1="161.2" x2="607.3" y2="173.2" opacity="1.0" stroke="rgb(0,0,0)"  stroke-width="3"/>
<line x1="641.5" y1="169.9" x2="615.2" y2="178.3" opacity="1.0" stroke="rgb(0,0,0)"  stroke-width="3"/>
<line x1="607.3" y1="173.2" x2="598.8" y2="212.0" opacity="1.0" stroke="rgb(0,0,0)"  stroke-width="3"/>
<line x1="598.8" y1="212.0" x2="628.1" y2="238.7" opacity="1.0" stroke="rgb(0,0,0)"  stroke-width="3"/>
<line x1="608.1" y1="210.7" x2="628.5" y2="229.3" opacity="1.0" stroke="rgb(0,0,0)"  stroke-width="3"/>
<line x1="628.1" y1="238.7" x2="665.8" y2="226.7" opacity="1.0" stroke="rgb(0,0,0)"  stroke-width="3"/>
<line x1="665.8" y1="226.7" x2="674.3" y2="188.0" opacity="1.0" stroke="rgb(0,0,0)"  stroke-width="3"/>
<line x1="660.1" y1="219.3" x2="666.0" y2="192.3" opacity="1.0" stroke="rgb(0,0,0)"  stroke-width="3"/>
<line x1="674.3" y1="188.0" x2="645.0" y2="161.2" opacity="1.0" stroke="rgb(0,0,0)"  stroke-width="3"/>
<line x1="84.1" y1="227.2" x2="98.9" y2="263.9" opacity="1.0" stroke="rgb(0,0,0)"  stroke-width="3"/>
<line x1="138.4" y1="261.2" x2="148.1" y2="222.8" opacity="1.0" stroke="rgb(0,0,0)"  stroke-width="3"/>
<line x1="148.1" y1="222.8" x2="114.5" y2="201.7" opacity="1.0" stroke="rgb(0,0,0)"  stroke-width="3"/>
<line x1="611.7" y1="274.8" x2="628.1" y2="238.7" opacity="1.0" stroke="rgb(0,0,0)"  stroke-width="3"/>
<line x1="598.8" y1="212.0" x2="564.3" y2="231.6" opacity="1.0" stroke="rgb(0,0,0)"  stroke-width="3"/>
<line x1="564.3" y1="231.6" x2="572.3" y2="270.4" opacity="1.0" stroke="rgb(0,0,0)"  stroke-width="3"/>
<line x1="148.9" y1="183.1" x2="148.1" y2="222.8" opacity="1.0" stroke="rgb(0,0,0)"  stroke-width="3"/>
<line x1="148.1" y1="222.8" x2="183.8" y2="258.4" opacity="1.0" stroke="rgb(0,0,0)"  stroke-width="3"/>
<line x1="564.3" y1="231.6" x2="565.1" y2="191.9" opacity="1.0" stroke="rgb(0,0,0)"  stroke-width="3"/>
<line x1="527.1" y1="265.7" x2="564.3" y2="231.6" opacity="1.0" stroke="rgb(0,0,0)"  stroke-width="3"/>
<text x="279.549698" y="328.030042" fill="rgb(12,12,255)" stroke-width="0" font-weight="bold" font-size="25.92" >N</text>
<text x="281.226679" y="248.765823" fill="rgb(255,181,181)" stroke-width="0" font-weight="bold" font-size="25.92" >B</text>
<text x="418.516299" y="251.670426" fill="rgb(255,181,181)" stroke-width="0" font-weight="bold" font-size="25.92" >B</text>
<text x="416.839318" y="330.934644" fill="rgb(12,12,255)" stroke-width="0" font-weight="bold" font-size="25.92" >N</text>
<text x="487.999624" y="213.490642" fill="rgb(12,12,255)" stroke-width="0" font-weight="bold" font-size="25.92" >N</text>
<text x="213.420336" y="207.681437" fill="rgb(12,12,255)" stroke-width="0" font-weight="bold" font-size="25.92" >N</text>
</svg>
</g>
</svg>
