<?xml version="1.0"?>
<svg version="1.1" id="topsvg"
xmlns="http://www.w3.org/2000/svg" xmlns:xlink="http://www.w3.org/1999/xlink"
xmlns:cml="http://www.xml-cml.org/schema" x="0" y="0" width="200px" height="200px" viewBox="0 0 100 100">
<title>GD361.sdf - Open Babel Depiction</title>
<rect x="0" y="0" width="100" height="100" fill="white"/>
<g transform="translate(0,0)">
<svg width="100" height="100" x="0" y="0" viewBox="0 0 568.584 546.025"
font-family="sans-serif" stroke="rgb(0,0,0)" stroke-width="3"  stroke-linecap="round">
<line x1="196.5" y1="176.8" x2="184.7" y2="140.5" opacity="1.0" stroke="rgb(0,0,0)"  stroke-width="3"/>
<line x1="114.6" y1="318.6" x2="77.3" y2="326.5" opacity="1.0" stroke="rgb(0,0,0)"  stroke-width="3"/>
<line x1="290.1" y1="363.5" x2="290.1" y2="388.6" opacity="1.0" stroke="rgb(0,0,0)"  stroke-width="3"/>
<line x1="184.7" y1="140.5" x2="174.8" y2="103.7" opacity="1.0" stroke="rgb(0,0,0)"  stroke-width="3"/>
<line x1="77.3" y1="326.5" x2="40.0" y2="334.5" opacity="1.0" stroke="rgb(0,0,0)"  stroke-width="3"/>
<line x1="65.5" y1="362.8" x2="77.3" y2="326.5" opacity="1.0" stroke="rgb(0,0,0)"  stroke-width="3"/>
<line x1="184.7" y1="140.5" x2="211.7" y2="113.6" opacity="1.0" stroke="rgb(0,0,0)"  stroke-width="3"/>
<line x1="184.7" y1="140.5" x2="147.9" y2="130.6" opacity="1.0" stroke="rgb(0,0,0)"  stroke-width="3"/>
<line x1="77.3" y1="326.5" x2="51.8" y2="298.2" opacity="1.0" stroke="rgb(0,0,0)"  stroke-width="3"/>
<line x1="391.4" y1="152.9" x2="383.7" y2="176.8" opacity="1.0" stroke="rgb(0,0,0)"  stroke-width="3"/>
<line x1="465.6" y1="318.6" x2="503.0" y2="326.6" opacity="1.0" stroke="rgb(0,0,0)"  stroke-width="3"/>
<line x1="503.0" y1="326.6" x2="514.8" y2="363.0" opacity="1.0" stroke="rgb(0,0,0)"  stroke-width="3"/>
<line x1="503.0" y1="326.6" x2="528.6" y2="298.1" opacity="1.0" stroke="rgb(0,0,0)"  stroke-width="3"/>
<line x1="503.0" y1="326.6" x2="491.2" y2="290.2" opacity="1.0" stroke="rgb(0,0,0)"  stroke-width="3"/>
<line x1="163.7" y1="274.4" x2="182.7" y2="241.4" opacity="1.0" stroke="rgb(0,0,0)"  stroke-width="3"/>
<line x1="182.7" y1="241.4" x2="220.0" y2="249.3" opacity="1.0" stroke="rgb(0,0,0)"  stroke-width="3"/>
<line x1="187.1" y1="249.7" x2="212.7" y2="255.1" opacity="1.0" stroke="rgb(0,0,0)"  stroke-width="3"/>
<line x1="220.0" y1="249.3" x2="222.7" y2="274.3" opacity="1.0" stroke="rgb(0,0,0)"  stroke-width="3"/>
<line x1="212.2" y1="292.5" x2="189.2" y2="302.7" opacity="1.0" stroke="rgb(0,0,0)"  stroke-width="3"/>
<line x1="189.2" y1="302.7" x2="163.7" y2="274.4" opacity="1.0" stroke="rgb(0,0,0)"  stroke-width="3"/>
<line x1="190.5" y1="293.5" x2="173.0" y2="274.1" opacity="1.0" stroke="rgb(0,0,0)"  stroke-width="3"/>
<line x1="416.5" y1="274.4" x2="391.0" y2="302.7" opacity="1.0" stroke="rgb(0,0,0)"  stroke-width="3"/>
<line x1="407.1" y1="274.1" x2="389.6" y2="293.5" opacity="1.0" stroke="rgb(0,0,0)"  stroke-width="3"/>
<line x1="391.0" y1="302.7" x2="368.0" y2="292.5" opacity="1.0" stroke="rgb(0,0,0)"  stroke-width="3"/>
<line x1="357.5" y1="274.3" x2="360.1" y2="249.3" opacity="1.0" stroke="rgb(0,0,0)"  stroke-width="3"/>
<line x1="360.1" y1="249.3" x2="397.4" y2="241.4" opacity="1.0" stroke="rgb(0,0,0)"  stroke-width="3"/>
<line x1="367.5" y1="255.1" x2="393.0" y2="249.7" opacity="1.0" stroke="rgb(0,0,0)"  stroke-width="3"/>
<line x1="397.4" y1="241.4" x2="416.5" y2="274.4" opacity="1.0" stroke="rgb(0,0,0)"  stroke-width="3"/>
<line x1="431.7" y1="128.7" x2="431.7" y2="90.6" opacity="1.0" stroke="rgb(0,0,0)"  stroke-width="3"/>
<line x1="424.5" y1="122.7" x2="424.5" y2="96.6" opacity="1.0" stroke="rgb(0,0,0)"  stroke-width="3"/>
<line x1="431.7" y1="90.6" x2="395.5" y2="78.8" opacity="1.0" stroke="rgb(0,0,0)"  stroke-width="3"/>
<line x1="395.5" y1="78.8" x2="373.0" y2="109.7" opacity="1.0" stroke="rgb(0,0,0)"  stroke-width="3"/>
<line x1="397.8" y1="87.9" x2="382.4" y2="109.0" opacity="1.0" stroke="rgb(0,0,0)"  stroke-width="3"/>
<line x1="373.0" y1="109.7" x2="387.8" y2="130.0" opacity="1.0" stroke="rgb(0,0,0)"  stroke-width="3"/>
<line x1="407.8" y1="136.5" x2="431.7" y2="128.7" opacity="1.0" stroke="rgb(0,0,0)"  stroke-width="3"/>
<line x1="257.1" y1="344.4" x2="290.1" y2="363.5" opacity="1.0" stroke="rgb(0,0,0)"  stroke-width="3"/>
<line x1="290.1" y1="363.5" x2="323.1" y2="344.4" opacity="1.0" stroke="rgb(0,0,0)"  stroke-width="3"/>
<line x1="291.7" y1="354.3" x2="314.3" y2="341.2" opacity="1.0" stroke="rgb(0,0,0)"  stroke-width="3"/>
<line x1="323.1" y1="344.4" x2="323.1" y2="306.3" opacity="1.0" stroke="rgb(0,0,0)"  stroke-width="3"/>
<line x1="323.1" y1="306.3" x2="290.1" y2="287.2" opacity="1.0" stroke="rgb(0,0,0)"  stroke-width="3"/>
<line x1="314.3" y1="309.5" x2="291.7" y2="296.5" opacity="1.0" stroke="rgb(0,0,0)"  stroke-width="3"/>
<line x1="290.1" y1="287.2" x2="257.1" y2="306.3" opacity="1.0" stroke="rgb(0,0,0)"  stroke-width="3"/>
<line x1="257.1" y1="306.3" x2="257.1" y2="344.4" opacity="1.0" stroke="rgb(0,0,0)"  stroke-width="3"/>
<line x1="264.3" y1="312.3" x2="264.3" y2="338.4" opacity="1.0" stroke="rgb(0,0,0)"  stroke-width="3"/>
<line x1="220.0" y1="249.3" x2="245.6" y2="221.0" opacity="1.0" stroke="rgb(0,0,0)"  stroke-width="3"/>
<line x1="245.6" y1="221.0" x2="279.1" y2="242.2" opacity="1.0" stroke="rgb(0,0,0)"  stroke-width="3"/>
<line x1="290.1" y1="262.1" x2="290.1" y2="287.2" opacity="1.0" stroke="rgb(0,0,0)"  stroke-width="3"/>
<line x1="257.1" y1="306.3" x2="235.3" y2="293.7" opacity="1.0" stroke="rgb(0,0,0)"  stroke-width="3"/>
<line x1="344.9" y1="293.7" x2="323.1" y2="306.3" opacity="1.0" stroke="rgb(0,0,0)"  stroke-width="3"/>
<line x1="301.1" y1="242.2" x2="334.6" y2="221.0" opacity="1.0" stroke="rgb(0,0,0)"  stroke-width="3"/>
<line x1="334.6" y1="221.0" x2="360.1" y2="249.3" opacity="1.0" stroke="rgb(0,0,0)"  stroke-width="3"/>
<line x1="114.6" y1="318.6" x2="140.1" y2="346.9" opacity="1.0" stroke="rgb(0,0,0)"  stroke-width="3"/>
<line x1="140.1" y1="346.9" x2="177.4" y2="339.0" opacity="1.0" stroke="rgb(0,0,0)"  stroke-width="3"/>
<line x1="144.5" y1="338.7" x2="170.0" y2="333.2" opacity="1.0" stroke="rgb(0,0,0)"  stroke-width="3"/>
<line x1="177.4" y1="339.0" x2="189.2" y2="302.7" opacity="1.0" stroke="rgb(0,0,0)"  stroke-width="3"/>
<line x1="163.7" y1="274.4" x2="126.4" y2="282.3" opacity="1.0" stroke="rgb(0,0,0)"  stroke-width="3"/>
<line x1="126.4" y1="282.3" x2="114.6" y2="318.6" opacity="1.0" stroke="rgb(0,0,0)"  stroke-width="3"/>
<line x1="131.4" y1="290.3" x2="123.3" y2="315.1" opacity="1.0" stroke="rgb(0,0,0)"  stroke-width="3"/>
<line x1="465.6" y1="318.6" x2="440.0" y2="346.9" opacity="1.0" stroke="rgb(0,0,0)"  stroke-width="3"/>
<line x1="440.0" y1="346.9" x2="402.7" y2="339.0" opacity="1.0" stroke="rgb(0,0,0)"  stroke-width="3"/>
<line x1="435.7" y1="338.7" x2="410.1" y2="333.2" opacity="1.0" stroke="rgb(0,0,0)"  stroke-width="3"/>
<line x1="402.7" y1="339.0" x2="391.0" y2="302.7" opacity="1.0" stroke="rgb(0,0,0)"  stroke-width="3"/>
<line x1="416.5" y1="274.4" x2="453.8" y2="282.3" opacity="1.0" stroke="rgb(0,0,0)"  stroke-width="3"/>
<line x1="453.8" y1="282.3" x2="465.6" y2="318.6" opacity="1.0" stroke="rgb(0,0,0)"  stroke-width="3"/>
<line x1="448.8" y1="290.3" x2="456.9" y2="315.1" opacity="1.0" stroke="rgb(0,0,0)"  stroke-width="3"/>
<line x1="383.7" y1="176.8" x2="346.4" y2="184.7" opacity="1.0" stroke="rgb(0,0,0)"  stroke-width="3"/>
<line x1="346.4" y1="184.7" x2="334.6" y2="221.0" opacity="1.0" stroke="rgb(0,0,0)"  stroke-width="3"/>
<line x1="351.4" y1="192.6" x2="343.3" y2="217.5" opacity="1.0" stroke="rgb(0,0,0)"  stroke-width="3"/>
<line x1="397.4" y1="241.4" x2="409.2" y2="205.1" opacity="1.0" stroke="rgb(0,0,0)"  stroke-width="3"/>
<line x1="409.2" y1="205.1" x2="383.7" y2="176.8" opacity="1.0" stroke="rgb(0,0,0)"  stroke-width="3"/>
<line x1="399.8" y1="205.5" x2="382.3" y2="186.1" opacity="1.0" stroke="rgb(0,0,0)"  stroke-width="3"/>
<line x1="182.7" y1="241.4" x2="171.0" y2="205.1" opacity="1.0" stroke="rgb(0,0,0)"  stroke-width="3"/>
<line x1="171.0" y1="205.1" x2="196.5" y2="176.8" opacity="1.0" stroke="rgb(0,0,0)"  stroke-width="3"/>
<line x1="180.3" y1="205.5" x2="197.8" y2="186.1" opacity="1.0" stroke="rgb(0,0,0)"  stroke-width="3"/>
<line x1="196.5" y1="176.8" x2="233.8" y2="184.7" opacity="1.0" stroke="rgb(0,0,0)"  stroke-width="3"/>
<line x1="233.8" y1="184.7" x2="245.6" y2="221.0" opacity="1.0" stroke="rgb(0,0,0)"  stroke-width="3"/>
<line x1="228.8" y1="192.6" x2="236.9" y2="217.5" opacity="1.0" stroke="rgb(0,0,0)"  stroke-width="3"/>
<line x1="272.6" y1="474.6" x2="256.3" y2="440.1" opacity="1.0" stroke="rgb(0,0,0)"  stroke-width="3"/>
<line x1="263.5" y1="472.3" x2="252.3" y2="448.7" opacity="1.0" stroke="rgb(0,0,0)"  stroke-width="3"/>
<line x1="256.3" y1="440.1" x2="218.2" y2="437.5" opacity="1.0" stroke="rgb(0,0,0)"  stroke-width="3"/>
<line x1="218.2" y1="437.5" x2="197.3" y2="469.3" opacity="1.0" stroke="rgb(0,0,0)"  stroke-width="3"/>
<line x1="220.9" y1="446.5" x2="206.6" y2="468.3" opacity="1.0" stroke="rgb(0,0,0)"  stroke-width="3"/>
<line x1="197.3" y1="469.3" x2="213.6" y2="503.4" opacity="1.0" stroke="rgb(0,0,0)"  stroke-width="3"/>
<line x1="213.6" y1="503.4" x2="251.7" y2="506.0" opacity="1.0" stroke="rgb(0,0,0)"  stroke-width="3"/>
<line x1="220.1" y1="496.6" x2="246.2" y2="498.4" opacity="1.0" stroke="rgb(0,0,0)"  stroke-width="3"/>
<line x1="251.7" y1="506.0" x2="272.6" y2="474.6" opacity="1.0" stroke="rgb(0,0,0)"  stroke-width="3"/>
<line x1="94.5" y1="462.2" x2="128.4" y2="479.7" opacity="1.0" stroke="rgb(0,0,0)"  stroke-width="3"/>
<line x1="103.2" y1="458.6" x2="126.4" y2="470.6" opacity="1.0" stroke="rgb(0,0,0)"  stroke-width="3"/>
<line x1="128.4" y1="479.7" x2="160.5" y2="459.2" opacity="1.0" stroke="rgb(0,0,0)"  stroke-width="3"/>
<line x1="160.5" y1="459.2" x2="158.8" y2="421.1" opacity="1.0" stroke="rgb(0,0,0)"  stroke-width="3"/>
<line x1="153.0" y1="453.5" x2="151.8" y2="427.4" opacity="1.0" stroke="rgb(0,0,0)"  stroke-width="3"/>
<line x1="158.8" y1="421.1" x2="124.9" y2="403.6" opacity="1.0" stroke="rgb(0,0,0)"  stroke-width="3"/>
<line x1="124.9" y1="403.6" x2="92.8" y2="424.1" opacity="1.0" stroke="rgb(0,0,0)"  stroke-width="3"/>
<line x1="123.7" y1="412.9" x2="101.7" y2="426.9" opacity="1.0" stroke="rgb(0,0,0)"  stroke-width="3"/>
<line x1="92.8" y1="424.1" x2="94.5" y2="462.2" opacity="1.0" stroke="rgb(0,0,0)"  stroke-width="3"/>
<line x1="309.7" y1="500.4" x2="347.8" y2="502.1" opacity="1.0" stroke="rgb(0,0,0)"  stroke-width="3"/>
<line x1="316.0" y1="493.5" x2="342.1" y2="494.6" opacity="1.0" stroke="rgb(0,0,0)"  stroke-width="3"/>
<line x1="347.8" y1="502.1" x2="368.6" y2="470.1" opacity="1.0" stroke="rgb(0,0,0)"  stroke-width="3"/>
<line x1="368.6" y1="470.1" x2="350.7" y2="436.5" opacity="1.0" stroke="rgb(0,0,0)"  stroke-width="3"/>
<line x1="359.4" y1="468.2" x2="347.2" y2="445.1" opacity="1.0" stroke="rgb(0,0,0)"  stroke-width="3"/>
<line x1="350.7" y1="436.5" x2="312.6" y2="434.8" opacity="1.0" stroke="rgb(0,0,0)"  stroke-width="3"/>
<line x1="312.6" y1="434.8" x2="292.4" y2="466.7" opacity="1.0" stroke="rgb(0,0,0)"  stroke-width="3"/>
<line x1="315.5" y1="443.7" x2="301.7" y2="465.5" opacity="1.0" stroke="rgb(0,0,0)"  stroke-width="3"/>
<line x1="292.4" y1="466.7" x2="309.7" y2="500.4" opacity="1.0" stroke="rgb(0,0,0)"  stroke-width="3"/>
<line x1="476.9" y1="435.0" x2="446.8" y2="411.5" opacity="1.0" stroke="rgb(0,0,0)"  stroke-width="3"/>
<line x1="467.7" y1="437.0" x2="447.1" y2="420.9" opacity="1.0" stroke="rgb(0,0,0)"  stroke-width="3"/>
<line x1="446.8" y1="411.5" x2="411.5" y2="425.8" opacity="1.0" stroke="rgb(0,0,0)"  stroke-width="3"/>
<line x1="411.5" y1="425.8" x2="406.2" y2="463.5" opacity="1.0" stroke="rgb(0,0,0)"  stroke-width="3"/>
<line x1="417.8" y1="432.7" x2="414.1" y2="458.6" opacity="1.0" stroke="rgb(0,0,0)"  stroke-width="3"/>
<line x1="406.2" y1="463.5" x2="436.2" y2="487.0" opacity="1.0" stroke="rgb(0,0,0)"  stroke-width="3"/>
<line x1="436.2" y1="487.0" x2="471.6" y2="472.8" opacity="1.0" stroke="rgb(0,0,0)"  stroke-width="3"/>
<line x1="439.1" y1="478.1" x2="463.3" y2="468.3" opacity="1.0" stroke="rgb(0,0,0)"  stroke-width="3"/>
<line x1="471.6" y1="472.8" x2="476.9" y2="435.0" opacity="1.0" stroke="rgb(0,0,0)"  stroke-width="3"/>
<line x1="319.6" y1="70.8" x2="335.1" y2="105.7" opacity="1.0" stroke="rgb(0,0,0)"  stroke-width="3"/>
<line x1="328.6" y1="73.4" x2="339.3" y2="97.3" opacity="1.0" stroke="rgb(0,0,0)"  stroke-width="3"/>
<line x1="335.1" y1="105.7" x2="373.0" y2="109.7" opacity="1.0" stroke="rgb(0,0,0)"  stroke-width="3"/>
<line x1="395.5" y1="78.8" x2="379.9" y2="44.0" opacity="1.0" stroke="rgb(0,0,0)"  stroke-width="3"/>
<line x1="379.9" y1="44.0" x2="342.0" y2="40.0" opacity="1.0" stroke="rgb(0,0,0)"  stroke-width="3"/>
<line x1="373.2" y1="50.5" x2="347.2" y2="47.8" opacity="1.0" stroke="rgb(0,0,0)"  stroke-width="3"/>
<line x1="342.0" y1="40.0" x2="319.6" y2="70.8" opacity="1.0" stroke="rgb(0,0,0)"  stroke-width="3"/>
<line x1="497.8" y1="90.6" x2="464.7" y2="71.5" opacity="1.0" stroke="rgb(0,0,0)"  stroke-width="3"/>
<line x1="489.0" y1="93.8" x2="466.3" y2="80.8" opacity="1.0" stroke="rgb(0,0,0)"  stroke-width="3"/>
<line x1="464.7" y1="71.5" x2="431.7" y2="90.6" opacity="1.0" stroke="rgb(0,0,0)"  stroke-width="3"/>
<line x1="431.7" y1="128.7" x2="464.7" y2="147.8" opacity="1.0" stroke="rgb(0,0,0)"  stroke-width="3"/>
<line x1="464.7" y1="147.8" x2="497.8" y2="128.7" opacity="1.0" stroke="rgb(0,0,0)"  stroke-width="3"/>
<line x1="466.3" y1="138.6" x2="489.0" y2="125.5" opacity="1.0" stroke="rgb(0,0,0)"  stroke-width="3"/>
<line x1="497.8" y1="128.7" x2="497.8" y2="90.6" opacity="1.0" stroke="rgb(0,0,0)"  stroke-width="3"/>
<line x1="160.5" y1="459.2" x2="197.3" y2="469.3" opacity="1.0" stroke="rgb(0,0,0)"  stroke-width="3"/>
<line x1="218.2" y1="437.5" x2="194.4" y2="407.7" opacity="1.0" stroke="rgb(0,0,0)"  stroke-width="3"/>
<line x1="194.4" y1="407.7" x2="158.8" y2="421.1" opacity="1.0" stroke="rgb(0,0,0)"  stroke-width="3"/>
<line x1="368.6" y1="470.1" x2="406.2" y2="463.5" opacity="1.0" stroke="rgb(0,0,0)"  stroke-width="3"/>
<line x1="411.5" y1="425.8" x2="377.2" y2="409.1" opacity="1.0" stroke="rgb(0,0,0)"  stroke-width="3"/>
<line x1="377.2" y1="409.1" x2="350.7" y2="436.5" opacity="1.0" stroke="rgb(0,0,0)"  stroke-width="3"/>
<line x1="323.1" y1="344.4" x2="377.2" y2="409.1" opacity="1.0" stroke="rgb(0,0,0)"  stroke-width="3"/>
<line x1="377.2" y1="409.1" x2="402.7" y2="339.0" opacity="1.0" stroke="rgb(0,0,0)"  stroke-width="3"/>
<line x1="177.4" y1="339.0" x2="194.4" y2="407.7" opacity="1.0" stroke="rgb(0,0,0)"  stroke-width="3"/>
<line x1="194.4" y1="407.7" x2="257.1" y2="344.4" opacity="1.0" stroke="rgb(0,0,0)"  stroke-width="3"/>
<text x="284.074447" y="409.632830" fill="rgb(127,178,255)" stroke-width="0" font-weight="bold" font-size="25.92" >F</text>
<text x="389.456199" y="148.519100" fill="rgb(12,12,255)" stroke-width="0" font-weight="bold" font-size="25.92" >N</text>
<text x="350.120349" y="295.237912" fill="rgb(12,12,255)" stroke-width="0" font-weight="bold" font-size="25.92" >N</text>
<text x="218.028499" y="295.237912" fill="rgb(12,12,255)" stroke-width="0" font-weight="bold" font-size="25.92" >N</text>
<text x="284.074447" y="257.106257" fill="rgb(255,181,181)" stroke-width="0" font-weight="bold" font-size="25.92" >B</text>
</svg>
</g>
</svg>
