<?xml version="1.0"?>
<svg version="1.1" id="topsvg"
xmlns="http://www.w3.org/2000/svg" xmlns:xlink="http://www.w3.org/1999/xlink"
xmlns:cml="http://www.xml-cml.org/schema" x="0" y="0" width="200px" height="200px" viewBox="0 0 100 100">
<title>GD364.sdf - Open Babel Depiction</title>
<rect x="0" y="0" width="100" height="100" fill="white"/>
<g transform="translate(0,0)">
<svg width="100" height="100" x="0" y="0" viewBox="0 0 713.79 476.455"
font-family="sans-serif" stroke="rgb(0,0,0)" stroke-width="3"  stroke-linecap="round">
<line x1="110.1" y1="80.6" x2="80.2" y2="106.4" opacity="1.0" stroke="rgb(0,0,0)"  stroke-width="3"/>
<line x1="110.1" y1="80.6" x2="84.3" y2="50.7" opacity="1.0" stroke="rgb(0,0,0)"  stroke-width="3"/>
<line x1="110.1" y1="80.6" x2="140.0" y2="54.8" opacity="1.0" stroke="rgb(0,0,0)"  stroke-width="3"/>
<line x1="136.0" y1="110.6" x2="110.1" y2="80.6" opacity="1.0" stroke="rgb(0,0,0)"  stroke-width="3"/>
<line x1="333.2" y1="85.3" x2="304.4" y2="58.3" opacity="1.0" stroke="rgb(0,0,0)"  stroke-width="3"/>
<line x1="333.2" y1="85.3" x2="360.2" y2="56.5" opacity="1.0" stroke="rgb(0,0,0)"  stroke-width="3"/>
<line x1="333.2" y1="85.3" x2="361.9" y2="112.3" opacity="1.0" stroke="rgb(0,0,0)"  stroke-width="3"/>
<line x1="306.0" y1="114.2" x2="333.2" y2="85.3" opacity="1.0" stroke="rgb(0,0,0)"  stroke-width="3"/>
<line x1="607.5" y1="91.1" x2="578.7" y2="64.1" opacity="1.0" stroke="rgb(0,0,0)"  stroke-width="3"/>
<line x1="607.5" y1="91.1" x2="634.5" y2="62.3" opacity="1.0" stroke="rgb(0,0,0)"  stroke-width="3"/>
<line x1="607.5" y1="91.1" x2="636.3" y2="118.1" opacity="1.0" stroke="rgb(0,0,0)"  stroke-width="3"/>
<line x1="580.4" y1="120.0" x2="607.5" y2="91.1" opacity="1.0" stroke="rgb(0,0,0)"  stroke-width="3"/>
<line x1="420.6" y1="78.1" x2="382.5" y2="67.9" opacity="1.0" stroke="rgb(0,0,0)"  stroke-width="3"/>
<line x1="420.6" y1="78.1" x2="430.8" y2="40.0" opacity="1.0" stroke="rgb(0,0,0)"  stroke-width="3"/>
<line x1="420.6" y1="78.1" x2="458.7" y2="88.3" opacity="1.0" stroke="rgb(0,0,0)"  stroke-width="3"/>
<line x1="410.3" y1="116.4" x2="420.6" y2="78.1" opacity="1.0" stroke="rgb(0,0,0)"  stroke-width="3"/>
<line x1="285.1" y1="327.8" x2="284.5" y2="354.4" opacity="1.0" stroke="rgb(0,0,0)"  stroke-width="3"/>
<line x1="422.2" y1="330.7" x2="421.7" y2="357.3" opacity="1.0" stroke="rgb(0,0,0)"  stroke-width="3"/>
<line x1="249.8" y1="373.4" x2="227.0" y2="359.6" opacity="1.0" stroke="rgb(0,0,0)"  stroke-width="3"/>
<line x1="318.4" y1="374.9" x2="341.7" y2="362.1" opacity="1.0" stroke="rgb(0,0,0)"  stroke-width="3"/>
<line x1="387.0" y1="376.3" x2="363.9" y2="389.6" opacity="1.0" stroke="rgb(0,0,0)"  stroke-width="3"/>
<line x1="455.6" y1="377.8" x2="478.9" y2="365.0" opacity="1.0" stroke="rgb(0,0,0)"  stroke-width="3"/>
<line x1="200.8" y1="133.2" x2="187.7" y2="170.6" opacity="1.0" stroke="rgb(0,0,0)"  stroke-width="3"/>
<line x1="205.6" y1="141.2" x2="196.5" y2="167.3" opacity="1.0" stroke="rgb(0,0,0)"  stroke-width="3"/>
<line x1="187.7" y1="170.6" x2="208.9" y2="186.6" opacity="1.0" stroke="rgb(0,0,0)"  stroke-width="3"/>
<line x1="229.9" y1="187.1" x2="251.8" y2="171.9" opacity="1.0" stroke="rgb(0,0,0)"  stroke-width="3"/>
<line x1="251.8" y1="171.9" x2="240.4" y2="134.0" opacity="1.0" stroke="rgb(0,0,0)"  stroke-width="3"/>
<line x1="243.2" y1="168.2" x2="235.2" y2="141.8" opacity="1.0" stroke="rgb(0,0,0)"  stroke-width="3"/>
<line x1="240.4" y1="134.0" x2="200.8" y2="133.2" opacity="1.0" stroke="rgb(0,0,0)"  stroke-width="3"/>
<line x1="514.7" y1="139.8" x2="475.1" y2="139.0" opacity="1.0" stroke="rgb(0,0,0)"  stroke-width="3"/>
<line x1="475.1" y1="139.0" x2="462.1" y2="176.4" opacity="1.0" stroke="rgb(0,0,0)"  stroke-width="3"/>
<line x1="479.9" y1="147.0" x2="470.8" y2="173.1" opacity="1.0" stroke="rgb(0,0,0)"  stroke-width="3"/>
<line x1="462.1" y1="176.4" x2="483.3" y2="192.5" opacity="1.0" stroke="rgb(0,0,0)"  stroke-width="3"/>
<line x1="504.3" y1="192.9" x2="526.1" y2="177.7" opacity="1.0" stroke="rgb(0,0,0)"  stroke-width="3"/>
<line x1="526.1" y1="177.7" x2="514.7" y2="139.8" opacity="1.0" stroke="rgb(0,0,0)"  stroke-width="3"/>
<line x1="517.5" y1="174.1" x2="509.5" y2="147.6" opacity="1.0" stroke="rgb(0,0,0)"  stroke-width="3"/>
<line x1="320.1" y1="295.7" x2="353.9" y2="316.2" opacity="1.0" stroke="rgb(0,0,0)"  stroke-width="3"/>
<line x1="353.9" y1="316.2" x2="388.6" y2="297.1" opacity="1.0" stroke="rgb(0,0,0)"  stroke-width="3"/>
<line x1="355.7" y1="307.0" x2="379.9" y2="293.7" opacity="1.0" stroke="rgb(0,0,0)"  stroke-width="3"/>
<line x1="388.6" y1="297.1" x2="389.5" y2="257.5" opacity="1.0" stroke="rgb(0,0,0)"  stroke-width="3"/>
<line x1="389.5" y1="257.5" x2="355.6" y2="237.0" opacity="1.0" stroke="rgb(0,0,0)"  stroke-width="3"/>
<line x1="380.6" y1="260.6" x2="357.0" y2="246.3" opacity="1.0" stroke="rgb(0,0,0)"  stroke-width="3"/>
<line x1="355.6" y1="237.0" x2="320.9" y2="256.1" opacity="1.0" stroke="rgb(0,0,0)"  stroke-width="3"/>
<line x1="320.9" y1="256.1" x2="320.1" y2="295.7" opacity="1.0" stroke="rgb(0,0,0)"  stroke-width="3"/>
<line x1="328.0" y1="262.2" x2="327.4" y2="289.8" opacity="1.0" stroke="rgb(0,0,0)"  stroke-width="3"/>
<line x1="458.1" y1="259.0" x2="435.3" y2="245.2" opacity="1.0" stroke="rgb(0,0,0)"  stroke-width="3"/>
<line x1="412.8" y1="244.7" x2="389.5" y2="257.5" opacity="1.0" stroke="rgb(0,0,0)"  stroke-width="3"/>
<line x1="388.6" y1="297.1" x2="411.4" y2="310.9" opacity="1.0" stroke="rgb(0,0,0)"  stroke-width="3"/>
<line x1="433.9" y1="311.4" x2="457.2" y2="298.6" opacity="1.0" stroke="rgb(0,0,0)"  stroke-width="3"/>
<line x1="457.2" y1="298.6" x2="458.1" y2="259.0" opacity="1.0" stroke="rgb(0,0,0)"  stroke-width="3"/>
<line x1="275.6" y1="241.8" x2="252.3" y2="254.6" opacity="1.0" stroke="rgb(0,0,0)"  stroke-width="3"/>
<line x1="252.3" y1="254.6" x2="251.5" y2="294.2" opacity="1.0" stroke="rgb(0,0,0)"  stroke-width="3"/>
<line x1="259.4" y1="260.8" x2="258.8" y2="288.4" opacity="1.0" stroke="rgb(0,0,0)"  stroke-width="3"/>
<line x1="251.5" y1="294.2" x2="274.2" y2="308.0" opacity="1.0" stroke="rgb(0,0,0)"  stroke-width="3"/>
<line x1="296.7" y1="308.5" x2="320.1" y2="295.7" opacity="1.0" stroke="rgb(0,0,0)"  stroke-width="3"/>
<line x1="320.9" y1="256.1" x2="298.1" y2="242.3" opacity="1.0" stroke="rgb(0,0,0)"  stroke-width="3"/>
<line x1="182.9" y1="292.8" x2="216.8" y2="313.3" opacity="1.0" stroke="rgb(0,0,0)"  stroke-width="3"/>
<line x1="191.7" y1="289.7" x2="215.4" y2="304.0" opacity="1.0" stroke="rgb(0,0,0)"  stroke-width="3"/>
<line x1="216.8" y1="313.3" x2="251.5" y2="294.2" opacity="1.0" stroke="rgb(0,0,0)"  stroke-width="3"/>
<line x1="252.3" y1="254.6" x2="218.4" y2="234.1" opacity="1.0" stroke="rgb(0,0,0)"  stroke-width="3"/>
<line x1="218.4" y1="234.1" x2="183.7" y2="253.2" opacity="1.0" stroke="rgb(0,0,0)"  stroke-width="3"/>
<line x1="216.6" y1="243.3" x2="192.4" y2="256.6" opacity="1.0" stroke="rgb(0,0,0)"  stroke-width="3"/>
<line x1="183.7" y1="253.2" x2="182.9" y2="292.8" opacity="1.0" stroke="rgb(0,0,0)"  stroke-width="3"/>
<line x1="219.0" y1="207.5" x2="218.4" y2="234.1" opacity="1.0" stroke="rgb(0,0,0)"  stroke-width="3"/>
<line x1="287.8" y1="222.6" x2="290.4" y2="181.0" opacity="1.0" stroke="rgb(0,0,0)"  stroke-width="3"/>
<line x1="290.4" y1="181.0" x2="251.8" y2="171.9" opacity="1.0" stroke="rgb(0,0,0)"  stroke-width="3"/>
<line x1="462.1" y1="176.4" x2="423.2" y2="183.8" opacity="1.0" stroke="rgb(0,0,0)"  stroke-width="3"/>
<line x1="423.2" y1="183.8" x2="423.9" y2="225.5" opacity="1.0" stroke="rgb(0,0,0)"  stroke-width="3"/>
<line x1="458.1" y1="259.0" x2="492.8" y2="239.9" opacity="1.0" stroke="rgb(0,0,0)"  stroke-width="3"/>
<line x1="459.9" y1="249.8" x2="484.1" y2="236.5" opacity="1.0" stroke="rgb(0,0,0)"  stroke-width="3"/>
<line x1="492.8" y1="239.9" x2="493.3" y2="213.3" opacity="1.0" stroke="rgb(0,0,0)"  stroke-width="3"/>
<line x1="580.4" y1="120.0" x2="541.8" y2="110.9" opacity="1.0" stroke="rgb(0,0,0)"  stroke-width="3"/>
<line x1="572.9" y1="125.6" x2="546.0" y2="119.3" opacity="1.0" stroke="rgb(0,0,0)"  stroke-width="3"/>
<line x1="541.8" y1="110.9" x2="514.7" y2="139.8" opacity="1.0" stroke="rgb(0,0,0)"  stroke-width="3"/>
<line x1="526.1" y1="177.7" x2="564.7" y2="186.8" opacity="1.0" stroke="rgb(0,0,0)"  stroke-width="3"/>
<line x1="564.7" y1="186.8" x2="591.8" y2="157.9" opacity="1.0" stroke="rgb(0,0,0)"  stroke-width="3"/>
<line x1="563.6" y1="177.5" x2="582.5" y2="157.3" opacity="1.0" stroke="rgb(0,0,0)"  stroke-width="3"/>
<line x1="591.8" y1="157.9" x2="580.4" y2="120.0" opacity="1.0" stroke="rgb(0,0,0)"  stroke-width="3"/>
<line x1="492.8" y1="239.9" x2="526.7" y2="260.4" opacity="1.0" stroke="rgb(0,0,0)"  stroke-width="3"/>
<line x1="526.7" y1="260.4" x2="525.8" y2="300.0" opacity="1.0" stroke="rgb(0,0,0)"  stroke-width="3"/>
<line x1="519.3" y1="266.3" x2="518.7" y2="293.9" opacity="1.0" stroke="rgb(0,0,0)"  stroke-width="3"/>
<line x1="525.8" y1="300.0" x2="491.1" y2="319.1" opacity="1.0" stroke="rgb(0,0,0)"  stroke-width="3"/>
<line x1="491.1" y1="319.1" x2="457.2" y2="298.6" opacity="1.0" stroke="rgb(0,0,0)"  stroke-width="3"/>
<line x1="489.7" y1="309.8" x2="466.1" y2="295.5" opacity="1.0" stroke="rgb(0,0,0)"  stroke-width="3"/>
<line x1="410.3" y1="116.4" x2="397.3" y2="153.8" opacity="1.0" stroke="rgb(0,0,0)"  stroke-width="3"/>
<line x1="397.3" y1="153.8" x2="423.2" y2="183.8" opacity="1.0" stroke="rgb(0,0,0)"  stroke-width="3"/>
<line x1="406.7" y1="153.6" x2="424.7" y2="174.5" opacity="1.0" stroke="rgb(0,0,0)"  stroke-width="3"/>
<line x1="475.1" y1="139.0" x2="449.2" y2="109.0" opacity="1.0" stroke="rgb(0,0,0)"  stroke-width="3"/>
<line x1="449.2" y1="109.0" x2="410.3" y2="116.4" opacity="1.0" stroke="rgb(0,0,0)"  stroke-width="3"/>
<line x1="444.7" y1="117.2" x2="417.6" y2="122.3" opacity="1.0" stroke="rgb(0,0,0)"  stroke-width="3"/>
<line x1="136.0" y1="110.6" x2="122.9" y2="148.0" opacity="1.0" stroke="rgb(0,0,0)"  stroke-width="3"/>
<line x1="122.9" y1="148.0" x2="148.8" y2="178.0" opacity="1.0" stroke="rgb(0,0,0)"  stroke-width="3"/>
<line x1="132.3" y1="147.8" x2="150.3" y2="168.7" opacity="1.0" stroke="rgb(0,0,0)"  stroke-width="3"/>
<line x1="148.8" y1="178.0" x2="187.7" y2="170.6" opacity="1.0" stroke="rgb(0,0,0)"  stroke-width="3"/>
<line x1="200.8" y1="133.2" x2="174.9" y2="103.2" opacity="1.0" stroke="rgb(0,0,0)"  stroke-width="3"/>
<line x1="174.9" y1="103.2" x2="136.0" y2="110.6" opacity="1.0" stroke="rgb(0,0,0)"  stroke-width="3"/>
<line x1="170.3" y1="111.4" x2="143.2" y2="116.5" opacity="1.0" stroke="rgb(0,0,0)"  stroke-width="3"/>
<line x1="249.8" y1="373.4" x2="249.0" y2="413.0" opacity="1.0" stroke="rgb(0,0,0)"  stroke-width="3"/>
<line x1="249.0" y1="413.0" x2="282.8" y2="433.6" opacity="1.0" stroke="rgb(0,0,0)"  stroke-width="3"/>
<line x1="257.8" y1="410.0" x2="281.4" y2="424.3" opacity="1.0" stroke="rgb(0,0,0)"  stroke-width="3"/>
<line x1="282.8" y1="433.6" x2="317.5" y2="414.5" opacity="1.0" stroke="rgb(0,0,0)"  stroke-width="3"/>
<line x1="317.5" y1="414.5" x2="318.4" y2="374.9" opacity="1.0" stroke="rgb(0,0,0)"  stroke-width="3"/>
<line x1="310.5" y1="408.3" x2="311.1" y2="380.7" opacity="1.0" stroke="rgb(0,0,0)"  stroke-width="3"/>
<line x1="318.4" y1="374.9" x2="284.5" y2="354.4" opacity="1.0" stroke="rgb(0,0,0)"  stroke-width="3"/>
<line x1="284.5" y1="354.4" x2="249.8" y2="373.4" opacity="1.0" stroke="rgb(0,0,0)"  stroke-width="3"/>
<line x1="282.7" y1="363.6" x2="258.5" y2="376.8" opacity="1.0" stroke="rgb(0,0,0)"  stroke-width="3"/>
<line x1="387.0" y1="376.3" x2="386.1" y2="415.9" opacity="1.0" stroke="rgb(0,0,0)"  stroke-width="3"/>
<line x1="386.1" y1="415.9" x2="420.0" y2="436.5" opacity="1.0" stroke="rgb(0,0,0)"  stroke-width="3"/>
<line x1="395.0" y1="412.9" x2="418.6" y2="427.2" opacity="1.0" stroke="rgb(0,0,0)"  stroke-width="3"/>
<line x1="420.0" y1="436.5" x2="454.7" y2="417.4" opacity="1.0" stroke="rgb(0,0,0)"  stroke-width="3"/>
<line x1="454.7" y1="417.4" x2="455.6" y2="377.8" opacity="1.0" stroke="rgb(0,0,0)"  stroke-width="3"/>
<line x1="447.6" y1="411.2" x2="448.2" y2="383.6" opacity="1.0" stroke="rgb(0,0,0)"  stroke-width="3"/>
<line x1="455.6" y1="377.8" x2="421.7" y2="357.3" opacity="1.0" stroke="rgb(0,0,0)"  stroke-width="3"/>
<line x1="421.7" y1="357.3" x2="387.0" y2="376.3" opacity="1.0" stroke="rgb(0,0,0)"  stroke-width="3"/>
<line x1="419.9" y1="366.5" x2="395.7" y2="379.8" opacity="1.0" stroke="rgb(0,0,0)"  stroke-width="3"/>
<line x1="240.4" y1="134.0" x2="267.5" y2="105.1" opacity="1.0" stroke="rgb(0,0,0)"  stroke-width="3"/>
<line x1="267.5" y1="105.1" x2="306.0" y2="114.2" opacity="1.0" stroke="rgb(0,0,0)"  stroke-width="3"/>
<line x1="271.7" y1="113.5" x2="298.5" y2="119.8" opacity="1.0" stroke="rgb(0,0,0)"  stroke-width="3"/>
<line x1="306.0" y1="114.2" x2="317.5" y2="152.1" opacity="1.0" stroke="rgb(0,0,0)"  stroke-width="3"/>
<line x1="317.5" y1="152.1" x2="290.4" y2="181.0" opacity="1.0" stroke="rgb(0,0,0)"  stroke-width="3"/>
<line x1="308.1" y1="151.5" x2="289.2" y2="171.7" opacity="1.0" stroke="rgb(0,0,0)"  stroke-width="3"/>
<line x1="143.1" y1="324.4" x2="160.5" y2="288.8" opacity="1.0" stroke="rgb(0,0,0)"  stroke-width="3"/>
<line x1="139.2" y1="315.9" x2="151.4" y2="291.1" opacity="1.0" stroke="rgb(0,0,0)"  stroke-width="3"/>
<line x1="160.5" y1="288.8" x2="138.4" y2="256.0" opacity="1.0" stroke="rgb(0,0,0)"  stroke-width="3"/>
<line x1="138.4" y1="256.0" x2="98.8" y2="258.7" opacity="1.0" stroke="rgb(0,0,0)"  stroke-width="3"/>
<line x1="132.9" y1="263.6" x2="105.3" y2="265.5" opacity="1.0" stroke="rgb(0,0,0)"  stroke-width="3"/>
<line x1="98.8" y1="258.7" x2="81.4" y2="294.3" opacity="1.0" stroke="rgb(0,0,0)"  stroke-width="3"/>
<line x1="81.4" y1="294.3" x2="103.6" y2="327.2" opacity="1.0" stroke="rgb(0,0,0)"  stroke-width="3"/>
<line x1="90.8" y1="295.3" x2="106.2" y2="318.2" opacity="1.0" stroke="rgb(0,0,0)"  stroke-width="3"/>
<line x1="103.6" y1="327.2" x2="143.1" y2="324.4" opacity="1.0" stroke="rgb(0,0,0)"  stroke-width="3"/>
<line x1="40.0" y1="169.4" x2="46.8" y2="208.4" opacity="1.0" stroke="rgb(0,0,0)"  stroke-width="3"/>
<line x1="48.1" y1="174.0" x2="52.9" y2="201.2" opacity="1.0" stroke="rgb(0,0,0)"  stroke-width="3"/>
<line x1="46.8" y1="208.4" x2="84.0" y2="222.0" opacity="1.0" stroke="rgb(0,0,0)"  stroke-width="3"/>
<line x1="84.0" y1="222.0" x2="114.4" y2="196.5" opacity="1.0" stroke="rgb(0,0,0)"  stroke-width="3"/>
<line x1="84.0" y1="212.6" x2="105.2" y2="194.9" opacity="1.0" stroke="rgb(0,0,0)"  stroke-width="3"/>
<line x1="114.4" y1="196.5" x2="107.6" y2="157.5" opacity="1.0" stroke="rgb(0,0,0)"  stroke-width="3"/>
<line x1="107.6" y1="157.5" x2="70.4" y2="144.0" opacity="1.0" stroke="rgb(0,0,0)"  stroke-width="3"/>
<line x1="99.5" y1="162.2" x2="73.5" y2="152.8" opacity="1.0" stroke="rgb(0,0,0)"  stroke-width="3"/>
<line x1="70.4" y1="144.0" x2="40.0" y2="169.4" opacity="1.0" stroke="rgb(0,0,0)"  stroke-width="3"/>
<line x1="603.6" y1="337.7" x2="627.1" y2="305.8" opacity="1.0" stroke="rgb(0,0,0)"  stroke-width="3"/>
<line x1="601.4" y1="328.6" x2="617.7" y2="306.4" opacity="1.0" stroke="rgb(0,0,0)"  stroke-width="3"/>
<line x1="627.1" y1="305.8" x2="611.2" y2="269.6" opacity="1.0" stroke="rgb(0,0,0)"  stroke-width="3"/>
<line x1="611.2" y1="269.6" x2="571.9" y2="265.2" opacity="1.0" stroke="rgb(0,0,0)"  stroke-width="3"/>
<line x1="604.5" y1="276.0" x2="577.0" y2="273.0" opacity="1.0" stroke="rgb(0,0,0)"  stroke-width="3"/>
<line x1="571.9" y1="265.2" x2="548.4" y2="297.1" opacity="1.0" stroke="rgb(0,0,0)"  stroke-width="3"/>
<line x1="548.4" y1="297.1" x2="564.2" y2="333.3" opacity="1.0" stroke="rgb(0,0,0)"  stroke-width="3"/>
<line x1="557.4" y1="299.7" x2="568.4" y2="325.0" opacity="1.0" stroke="rgb(0,0,0)"  stroke-width="3"/>
<line x1="564.2" y1="333.3" x2="603.6" y2="337.7" opacity="1.0" stroke="rgb(0,0,0)"  stroke-width="3"/>
<line x1="644.5" y1="156.1" x2="606.8" y2="168.1" opacity="1.0" stroke="rgb(0,0,0)"  stroke-width="3"/>
<line x1="641.0" y1="164.8" x2="614.7" y2="173.1" opacity="1.0" stroke="rgb(0,0,0)"  stroke-width="3"/>
<line x1="606.8" y1="168.1" x2="598.3" y2="206.8" opacity="1.0" stroke="rgb(0,0,0)"  stroke-width="3"/>
<line x1="598.3" y1="206.8" x2="627.6" y2="233.5" opacity="1.0" stroke="rgb(0,0,0)"  stroke-width="3"/>
<line x1="607.6" y1="205.5" x2="628.0" y2="224.1" opacity="1.0" stroke="rgb(0,0,0)"  stroke-width="3"/>
<line x1="627.6" y1="233.5" x2="665.3" y2="221.5" opacity="1.0" stroke="rgb(0,0,0)"  stroke-width="3"/>
<line x1="665.3" y1="221.5" x2="673.8" y2="182.8" opacity="1.0" stroke="rgb(0,0,0)"  stroke-width="3"/>
<line x1="659.6" y1="214.1" x2="665.5" y2="187.1" opacity="1.0" stroke="rgb(0,0,0)"  stroke-width="3"/>
<line x1="673.8" y1="182.8" x2="644.5" y2="156.1" opacity="1.0" stroke="rgb(0,0,0)"  stroke-width="3"/>
<line x1="84.0" y1="222.0" x2="98.8" y2="258.7" opacity="1.0" stroke="rgb(0,0,0)"  stroke-width="3"/>
<line x1="138.4" y1="256.0" x2="148.0" y2="217.6" opacity="1.0" stroke="rgb(0,0,0)"  stroke-width="3"/>
<line x1="148.0" y1="217.6" x2="114.4" y2="196.5" opacity="1.0" stroke="rgb(0,0,0)"  stroke-width="3"/>
<line x1="611.2" y1="269.6" x2="627.6" y2="233.5" opacity="1.0" stroke="rgb(0,0,0)"  stroke-width="3"/>
<line x1="598.3" y1="206.8" x2="563.9" y2="226.4" opacity="1.0" stroke="rgb(0,0,0)"  stroke-width="3"/>
<line x1="563.9" y1="226.4" x2="571.9" y2="265.2" opacity="1.0" stroke="rgb(0,0,0)"  stroke-width="3"/>
<line x1="148.8" y1="178.0" x2="148.0" y2="217.6" opacity="1.0" stroke="rgb(0,0,0)"  stroke-width="3"/>
<line x1="148.0" y1="217.6" x2="183.7" y2="253.2" opacity="1.0" stroke="rgb(0,0,0)"  stroke-width="3"/>
<line x1="563.9" y1="226.4" x2="564.7" y2="186.8" opacity="1.0" stroke="rgb(0,0,0)"  stroke-width="3"/>
<line x1="526.7" y1="260.4" x2="563.9" y2="226.4" opacity="1.0" stroke="rgb(0,0,0)"  stroke-width="3"/>
<text x="484.266749" y="366.708160" fill="rgb(127,178,255)" stroke-width="0" font-weight="bold" font-size="25.92" >F</text>
<text x="346.665954" y="404.134839" fill="rgb(127,178,255)" stroke-width="0" font-weight="bold" font-size="25.92" >F</text>
<text x="347.092517" y="363.806048" fill="rgb(127,178,255)" stroke-width="0" font-weight="bold" font-size="25.92" >F</text>
<text x="209.918333" y="360.903936" fill="rgb(127,178,255)" stroke-width="0" font-weight="bold" font-size="25.92" >F</text>
<text x="279.343234" y="322.756206" fill="rgb(12,12,255)" stroke-width="0" font-weight="bold" font-size="25.92" >N</text>
<text x="281.018806" y="243.558683" fill="rgb(255,181,181)" stroke-width="0" font-weight="bold" font-size="25.92" >B</text>
<text x="418.192990" y="246.460795" fill="rgb(255,181,181)" stroke-width="0" font-weight="bold" font-size="25.92" >B</text>
<text x="416.517418" y="325.658367" fill="rgb(12,12,255)" stroke-width="0" font-weight="bold" font-size="25.92" >N</text>
<text x="487.617891" y="208.313113" fill="rgb(12,12,255)" stroke-width="0" font-weight="bold" font-size="25.92" >N</text>
<text x="213.269475" y="202.508793" fill="rgb(12,12,255)" stroke-width="0" font-weight="bold" font-size="25.92" >N</text>
</svg>
</g>
</svg>
