<?xml version="1.0"?>
<svg version="1.1" id="topsvg"
xmlns="http://www.w3.org/2000/svg" xmlns:xlink="http://www.w3.org/1999/xlink"
xmlns:cml="http://www.xml-cml.org/schema" x="0" y="0" width="200px" height="200px" viewBox="0 0 100 100">
<title>GD365.sdf - Open Babel Depiction</title>
<rect x="0" y="0" width="100" height="100" fill="white"/>
<g transform="translate(0,0)">
<svg width="100" height="100" x="0" y="0" viewBox="0 0 537.152 669.941"
font-family="sans-serif" stroke="rgb(0,0,0)" stroke-width="3"  stroke-linecap="round">
<line x1="159.3" y1="504.3" x2="143.5" y2="539.7" opacity="1.0" stroke="rgb(0,0,0)"  stroke-width="3"/>
<line x1="197.3" y1="496.2" x2="215.8" y2="553.1" opacity="1.0" stroke="rgb(0,0,0)"  stroke-width="3"/>
<line x1="339.9" y1="496.2" x2="321.4" y2="553.1" opacity="1.0" stroke="rgb(0,0,0)"  stroke-width="3"/>
<line x1="377.8" y1="504.3" x2="393.6" y2="539.7" opacity="1.0" stroke="rgb(0,0,0)"  stroke-width="3"/>
<line x1="351.9" y1="260.7" x2="377.9" y2="231.8" opacity="1.0" stroke="rgb(0,0,0)"  stroke-width="3"/>
<line x1="185.2" y1="260.7" x2="134.0" y2="203.8" opacity="1.0" stroke="rgb(0,0,0)"  stroke-width="3"/>
<line x1="146.0" y1="166.9" x2="184.0" y2="158.8" opacity="1.0" stroke="rgb(0,0,0)"  stroke-width="3"/>
<line x1="233.9" y1="113.8" x2="245.9" y2="76.9" opacity="1.0" stroke="rgb(0,0,0)"  stroke-width="3"/>
<line x1="245.9" y1="76.9" x2="283.9" y2="68.8" opacity="1.0" stroke="rgb(0,0,0)"  stroke-width="3"/>
<line x1="245.9" y1="76.9" x2="257.9" y2="40.0" opacity="1.0" stroke="rgb(0,0,0)"  stroke-width="3"/>
<line x1="245.9" y1="76.9" x2="218.5" y2="49.5" opacity="1.0" stroke="rgb(0,0,0)"  stroke-width="3"/>
<line x1="247.9" y1="179.6" x2="273.9" y2="208.4" opacity="1.0" stroke="rgb(0,0,0)"  stroke-width="3"/>
<line x1="273.9" y1="208.4" x2="261.9" y2="245.3" opacity="1.0" stroke="rgb(0,0,0)"  stroke-width="3"/>
<line x1="273.9" y1="208.4" x2="301.3" y2="235.9" opacity="1.0" stroke="rgb(0,0,0)"  stroke-width="3"/>
<line x1="273.9" y1="208.4" x2="311.4" y2="198.4" opacity="1.0" stroke="rgb(0,0,0)"  stroke-width="3"/>
<line x1="288.0" y1="281.5" x2="300.0" y2="318.4" opacity="1.0" stroke="rgb(0,0,0)"  stroke-width="3"/>
<line x1="283.0" y1="289.4" x2="291.3" y2="314.9" opacity="1.0" stroke="rgb(0,0,0)"  stroke-width="3"/>
<line x1="300.0" y1="318.4" x2="279.1" y2="333.5" opacity="1.0" stroke="rgb(0,0,0)"  stroke-width="3"/>
<line x1="258.1" y1="333.5" x2="237.2" y2="318.4" opacity="1.0" stroke="rgb(0,0,0)"  stroke-width="3"/>
<line x1="237.2" y1="318.4" x2="249.2" y2="281.5" opacity="1.0" stroke="rgb(0,0,0)"  stroke-width="3"/>
<line x1="245.9" y1="314.9" x2="254.2" y2="289.4" opacity="1.0" stroke="rgb(0,0,0)"  stroke-width="3"/>
<line x1="249.2" y1="281.5" x2="288.0" y2="281.5" opacity="1.0" stroke="rgb(0,0,0)"  stroke-width="3"/>
<line x1="159.3" y1="504.3" x2="139.9" y2="470.7" opacity="1.0" stroke="rgb(0,0,0)"  stroke-width="3"/>
<line x1="139.9" y1="470.7" x2="165.9" y2="441.8" opacity="1.0" stroke="rgb(0,0,0)"  stroke-width="3"/>
<line x1="149.3" y1="471.0" x2="167.2" y2="451.1" opacity="1.0" stroke="rgb(0,0,0)"  stroke-width="3"/>
<line x1="165.9" y1="441.8" x2="189.5" y2="452.3" opacity="1.0" stroke="rgb(0,0,0)"  stroke-width="3"/>
<line x1="200.0" y1="470.5" x2="197.3" y2="496.2" opacity="1.0" stroke="rgb(0,0,0)"  stroke-width="3"/>
<line x1="197.3" y1="496.2" x2="159.3" y2="504.3" opacity="1.0" stroke="rgb(0,0,0)"  stroke-width="3"/>
<line x1="189.9" y1="490.4" x2="163.7" y2="496.0" opacity="1.0" stroke="rgb(0,0,0)"  stroke-width="3"/>
<line x1="339.9" y1="496.2" x2="377.8" y2="504.3" opacity="1.0" stroke="rgb(0,0,0)"  stroke-width="3"/>
<line x1="347.2" y1="490.4" x2="373.5" y2="496.0" opacity="1.0" stroke="rgb(0,0,0)"  stroke-width="3"/>
<line x1="377.8" y1="504.3" x2="397.2" y2="470.7" opacity="1.0" stroke="rgb(0,0,0)"  stroke-width="3"/>
<line x1="397.2" y1="470.7" x2="371.3" y2="441.8" opacity="1.0" stroke="rgb(0,0,0)"  stroke-width="3"/>
<line x1="387.9" y1="471.0" x2="369.9" y2="451.1" opacity="1.0" stroke="rgb(0,0,0)"  stroke-width="3"/>
<line x1="371.3" y1="441.8" x2="347.7" y2="452.3" opacity="1.0" stroke="rgb(0,0,0)"  stroke-width="3"/>
<line x1="337.2" y1="470.5" x2="339.9" y2="496.2" opacity="1.0" stroke="rgb(0,0,0)"  stroke-width="3"/>
<line x1="235.0" y1="438.2" x2="268.6" y2="457.6" opacity="1.0" stroke="rgb(0,0,0)"  stroke-width="3"/>
<line x1="268.6" y1="457.6" x2="302.2" y2="438.2" opacity="1.0" stroke="rgb(0,0,0)"  stroke-width="3"/>
<line x1="270.2" y1="448.4" x2="293.4" y2="435.0" opacity="1.0" stroke="rgb(0,0,0)"  stroke-width="3"/>
<line x1="302.2" y1="438.2" x2="302.2" y2="399.4" opacity="1.0" stroke="rgb(0,0,0)"  stroke-width="3"/>
<line x1="302.2" y1="399.4" x2="268.6" y2="380.0" opacity="1.0" stroke="rgb(0,0,0)"  stroke-width="3"/>
<line x1="293.4" y1="402.6" x2="270.2" y2="389.2" opacity="1.0" stroke="rgb(0,0,0)"  stroke-width="3"/>
<line x1="268.6" y1="380.0" x2="235.0" y2="399.4" opacity="1.0" stroke="rgb(0,0,0)"  stroke-width="3"/>
<line x1="235.0" y1="399.4" x2="235.0" y2="438.2" opacity="1.0" stroke="rgb(0,0,0)"  stroke-width="3"/>
<line x1="242.2" y1="405.4" x2="242.2" y2="432.2" opacity="1.0" stroke="rgb(0,0,0)"  stroke-width="3"/>
<line x1="268.6" y1="354.2" x2="268.6" y2="380.0" opacity="1.0" stroke="rgb(0,0,0)"  stroke-width="3"/>
<line x1="235.0" y1="399.4" x2="212.6" y2="386.5" opacity="1.0" stroke="rgb(0,0,0)"  stroke-width="3"/>
<line x1="200.8" y1="367.0" x2="199.2" y2="326.4" opacity="1.0" stroke="rgb(0,0,0)"  stroke-width="3"/>
<line x1="199.2" y1="326.4" x2="237.2" y2="318.4" opacity="1.0" stroke="rgb(0,0,0)"  stroke-width="3"/>
<line x1="447.2" y1="425.7" x2="421.2" y2="396.8" opacity="1.0" stroke="rgb(0,0,0)"  stroke-width="3"/>
<line x1="421.2" y1="396.8" x2="383.3" y2="404.9" opacity="1.0" stroke="rgb(0,0,0)"  stroke-width="3"/>
<line x1="416.8" y1="405.1" x2="390.6" y2="410.7" opacity="1.0" stroke="rgb(0,0,0)"  stroke-width="3"/>
<line x1="383.3" y1="404.9" x2="371.3" y2="441.8" opacity="1.0" stroke="rgb(0,0,0)"  stroke-width="3"/>
<line x1="397.2" y1="470.7" x2="435.2" y2="462.6" opacity="1.0" stroke="rgb(0,0,0)"  stroke-width="3"/>
<line x1="435.2" y1="462.6" x2="447.2" y2="425.7" opacity="1.0" stroke="rgb(0,0,0)"  stroke-width="3"/>
<line x1="430.2" y1="454.7" x2="438.5" y2="429.2" opacity="1.0" stroke="rgb(0,0,0)"  stroke-width="3"/>
<line x1="383.3" y1="404.9" x2="347.3" y2="386.0" opacity="1.0" stroke="rgb(0,0,0)"  stroke-width="3"/>
<line x1="324.5" y1="386.5" x2="302.2" y2="399.4" opacity="1.0" stroke="rgb(0,0,0)"  stroke-width="3"/>
<line x1="302.2" y1="438.2" x2="324.5" y2="451.1" opacity="1.0" stroke="rgb(0,0,0)"  stroke-width="3"/>
<line x1="351.9" y1="260.7" x2="363.9" y2="297.6" opacity="1.0" stroke="rgb(0,0,0)"  stroke-width="3"/>
<line x1="363.9" y1="297.6" x2="337.9" y2="326.4" opacity="1.0" stroke="rgb(0,0,0)"  stroke-width="3"/>
<line x1="354.5" y1="297.2" x2="336.6" y2="317.2" opacity="1.0" stroke="rgb(0,0,0)"  stroke-width="3"/>
<line x1="337.9" y1="326.4" x2="300.0" y2="318.4" opacity="1.0" stroke="rgb(0,0,0)"  stroke-width="3"/>
<line x1="288.0" y1="281.5" x2="314.0" y2="252.6" opacity="1.0" stroke="rgb(0,0,0)"  stroke-width="3"/>
<line x1="314.0" y1="252.6" x2="351.9" y2="260.7" opacity="1.0" stroke="rgb(0,0,0)"  stroke-width="3"/>
<line x1="318.3" y1="260.9" x2="344.6" y2="266.5" opacity="1.0" stroke="rgb(0,0,0)"  stroke-width="3"/>
<line x1="185.2" y1="260.7" x2="223.2" y2="252.6" opacity="1.0" stroke="rgb(0,0,0)"  stroke-width="3"/>
<line x1="192.6" y1="266.5" x2="218.8" y2="260.9" opacity="1.0" stroke="rgb(0,0,0)"  stroke-width="3"/>
<line x1="223.2" y1="252.6" x2="249.2" y2="281.5" opacity="1.0" stroke="rgb(0,0,0)"  stroke-width="3"/>
<line x1="199.2" y1="326.4" x2="173.2" y2="297.6" opacity="1.0" stroke="rgb(0,0,0)"  stroke-width="3"/>
<line x1="200.5" y1="317.2" x2="182.6" y2="297.2" opacity="1.0" stroke="rgb(0,0,0)"  stroke-width="3"/>
<line x1="173.2" y1="297.6" x2="185.2" y2="260.7" opacity="1.0" stroke="rgb(0,0,0)"  stroke-width="3"/>
<line x1="235.0" y1="438.2" x2="212.6" y2="451.1" opacity="1.0" stroke="rgb(0,0,0)"  stroke-width="3"/>
<line x1="165.9" y1="441.8" x2="153.9" y2="404.9" opacity="1.0" stroke="rgb(0,0,0)"  stroke-width="3"/>
<line x1="153.9" y1="404.9" x2="189.8" y2="386.0" opacity="1.0" stroke="rgb(0,0,0)"  stroke-width="3"/>
<line x1="336.3" y1="367.0" x2="337.9" y2="326.4" opacity="1.0" stroke="rgb(0,0,0)"  stroke-width="3"/>
<line x1="471.2" y1="351.9" x2="497.2" y2="380.7" opacity="1.0" stroke="rgb(0,0,0)"  stroke-width="3"/>
<line x1="497.2" y1="380.7" x2="485.2" y2="417.6" opacity="1.0" stroke="rgb(0,0,0)"  stroke-width="3"/>
<line x1="488.5" y1="384.2" x2="480.2" y2="409.7" opacity="1.0" stroke="rgb(0,0,0)"  stroke-width="3"/>
<line x1="485.2" y1="417.6" x2="447.2" y2="425.7" opacity="1.0" stroke="rgb(0,0,0)"  stroke-width="3"/>
<line x1="421.2" y1="396.8" x2="433.2" y2="359.9" opacity="1.0" stroke="rgb(0,0,0)"  stroke-width="3"/>
<line x1="433.2" y1="359.9" x2="471.2" y2="351.9" opacity="1.0" stroke="rgb(0,0,0)"  stroke-width="3"/>
<line x1="440.6" y1="365.7" x2="466.8" y2="360.2" opacity="1.0" stroke="rgb(0,0,0)"  stroke-width="3"/>
<line x1="139.9" y1="470.7" x2="102.0" y2="462.6" opacity="1.0" stroke="rgb(0,0,0)"  stroke-width="3"/>
<line x1="102.0" y1="462.6" x2="90.0" y2="425.7" opacity="1.0" stroke="rgb(0,0,0)"  stroke-width="3"/>
<line x1="106.9" y1="454.7" x2="98.7" y2="429.2" opacity="1.0" stroke="rgb(0,0,0)"  stroke-width="3"/>
<line x1="90.0" y1="425.7" x2="115.9" y2="396.8" opacity="1.0" stroke="rgb(0,0,0)"  stroke-width="3"/>
<line x1="115.9" y1="396.8" x2="153.9" y2="404.9" opacity="1.0" stroke="rgb(0,0,0)"  stroke-width="3"/>
<line x1="120.3" y1="405.1" x2="146.5" y2="410.7" opacity="1.0" stroke="rgb(0,0,0)"  stroke-width="3"/>
<line x1="40.0" y1="380.7" x2="66.0" y2="351.9" opacity="1.0" stroke="rgb(0,0,0)"  stroke-width="3"/>
<line x1="66.0" y1="351.9" x2="103.9" y2="359.9" opacity="1.0" stroke="rgb(0,0,0)"  stroke-width="3"/>
<line x1="70.3" y1="360.2" x2="96.6" y2="365.7" opacity="1.0" stroke="rgb(0,0,0)"  stroke-width="3"/>
<line x1="103.9" y1="359.9" x2="115.9" y2="396.8" opacity="1.0" stroke="rgb(0,0,0)"  stroke-width="3"/>
<line x1="90.0" y1="425.7" x2="52.0" y2="417.6" opacity="1.0" stroke="rgb(0,0,0)"  stroke-width="3"/>
<line x1="52.0" y1="417.6" x2="40.0" y2="380.7" opacity="1.0" stroke="rgb(0,0,0)"  stroke-width="3"/>
<line x1="57.0" y1="409.7" x2="48.7" y2="384.2" opacity="1.0" stroke="rgb(0,0,0)"  stroke-width="3"/>
<line x1="370.8" y1="571.2" x2="386.6" y2="606.6" opacity="1.0" stroke="rgb(0,0,0)"  stroke-width="3"/>
<line x1="386.6" y1="606.6" x2="425.2" y2="610.7" opacity="1.0" stroke="rgb(0,0,0)"  stroke-width="3"/>
<line x1="393.3" y1="600.1" x2="420.0" y2="602.9" opacity="1.0" stroke="rgb(0,0,0)"  stroke-width="3"/>
<line x1="425.2" y1="610.7" x2="448.0" y2="579.3" opacity="1.0" stroke="rgb(0,0,0)"  stroke-width="3"/>
<line x1="448.0" y1="579.3" x2="432.2" y2="543.8" opacity="1.0" stroke="rgb(0,0,0)"  stroke-width="3"/>
<line x1="439.0" y1="576.7" x2="428.1" y2="552.2" opacity="1.0" stroke="rgb(0,0,0)"  stroke-width="3"/>
<line x1="432.2" y1="543.8" x2="393.6" y2="539.7" opacity="1.0" stroke="rgb(0,0,0)"  stroke-width="3"/>
<line x1="393.6" y1="539.7" x2="370.8" y2="571.2" opacity="1.0" stroke="rgb(0,0,0)"  stroke-width="3"/>
<line x1="395.9" y1="548.8" x2="380.2" y2="570.5" opacity="1.0" stroke="rgb(0,0,0)"  stroke-width="3"/>
<line x1="104.9" y1="543.8" x2="89.2" y2="579.3" opacity="1.0" stroke="rgb(0,0,0)"  stroke-width="3"/>
<line x1="89.2" y1="579.3" x2="112.0" y2="610.7" opacity="1.0" stroke="rgb(0,0,0)"  stroke-width="3"/>
<line x1="98.5" y1="579.9" x2="114.3" y2="601.6" opacity="1.0" stroke="rgb(0,0,0)"  stroke-width="3"/>
<line x1="112.0" y1="610.7" x2="150.6" y2="606.6" opacity="1.0" stroke="rgb(0,0,0)"  stroke-width="3"/>
<line x1="150.6" y1="606.6" x2="166.4" y2="571.2" opacity="1.0" stroke="rgb(0,0,0)"  stroke-width="3"/>
<line x1="146.4" y1="598.2" x2="157.3" y2="573.7" opacity="1.0" stroke="rgb(0,0,0)"  stroke-width="3"/>
<line x1="166.4" y1="571.2" x2="143.5" y2="539.7" opacity="1.0" stroke="rgb(0,0,0)"  stroke-width="3"/>
<line x1="143.5" y1="539.7" x2="104.9" y2="543.8" opacity="1.0" stroke="rgb(0,0,0)"  stroke-width="3"/>
<line x1="138.3" y1="547.5" x2="111.7" y2="550.3" opacity="1.0" stroke="rgb(0,0,0)"  stroke-width="3"/>
<line x1="185.2" y1="577.0" x2="190.6" y2="615.4" opacity="1.0" stroke="rgb(0,0,0)"  stroke-width="3"/>
<line x1="190.6" y1="615.4" x2="226.6" y2="629.9" opacity="1.0" stroke="rgb(0,0,0)"  stroke-width="3"/>
<line x1="198.8" y1="611.0" x2="223.7" y2="621.0" opacity="1.0" stroke="rgb(0,0,0)"  stroke-width="3"/>
<line x1="226.6" y1="629.9" x2="257.2" y2="606.0" opacity="1.0" stroke="rgb(0,0,0)"  stroke-width="3"/>
<line x1="257.2" y1="606.0" x2="251.8" y2="567.6" opacity="1.0" stroke="rgb(0,0,0)"  stroke-width="3"/>
<line x1="249.2" y1="601.1" x2="245.5" y2="574.6" opacity="1.0" stroke="rgb(0,0,0)"  stroke-width="3"/>
<line x1="251.8" y1="567.6" x2="215.8" y2="553.1" opacity="1.0" stroke="rgb(0,0,0)"  stroke-width="3"/>
<line x1="215.8" y1="553.1" x2="185.2" y2="577.0" opacity="1.0" stroke="rgb(0,0,0)"  stroke-width="3"/>
<line x1="215.5" y1="562.4" x2="194.3" y2="578.9" opacity="1.0" stroke="rgb(0,0,0)"  stroke-width="3"/>
<line x1="285.4" y1="567.6" x2="280.0" y2="606.0" opacity="1.0" stroke="rgb(0,0,0)"  stroke-width="3"/>
<line x1="280.0" y1="606.0" x2="310.6" y2="629.9" opacity="1.0" stroke="rgb(0,0,0)"  stroke-width="3"/>
<line x1="289.2" y1="604.1" x2="310.3" y2="620.6" opacity="1.0" stroke="rgb(0,0,0)"  stroke-width="3"/>
<line x1="310.6" y1="629.9" x2="346.6" y2="615.4" opacity="1.0" stroke="rgb(0,0,0)"  stroke-width="3"/>
<line x1="346.6" y1="615.4" x2="352.0" y2="577.0" opacity="1.0" stroke="rgb(0,0,0)"  stroke-width="3"/>
<line x1="340.3" y1="608.5" x2="344.0" y2="581.9" opacity="1.0" stroke="rgb(0,0,0)"  stroke-width="3"/>
<line x1="352.0" y1="577.0" x2="321.4" y2="553.1" opacity="1.0" stroke="rgb(0,0,0)"  stroke-width="3"/>
<line x1="321.4" y1="553.1" x2="285.4" y2="567.6" opacity="1.0" stroke="rgb(0,0,0)"  stroke-width="3"/>
<line x1="318.5" y1="562.0" x2="293.7" y2="572.0" opacity="1.0" stroke="rgb(0,0,0)"  stroke-width="3"/>
<line x1="365.9" y1="194.9" x2="391.9" y2="166.1" opacity="1.0" stroke="rgb(0,0,0)"  stroke-width="3"/>
<line x1="391.9" y1="166.1" x2="429.8" y2="174.1" opacity="1.0" stroke="rgb(0,0,0)"  stroke-width="3"/>
<line x1="396.2" y1="174.4" x2="422.5" y2="179.9" opacity="1.0" stroke="rgb(0,0,0)"  stroke-width="3"/>
<line x1="429.8" y1="174.1" x2="441.8" y2="211.1" opacity="1.0" stroke="rgb(0,0,0)"  stroke-width="3"/>
<line x1="441.8" y1="211.1" x2="415.9" y2="239.9" opacity="1.0" stroke="rgb(0,0,0)"  stroke-width="3"/>
<line x1="432.5" y1="210.7" x2="414.5" y2="230.6" opacity="1.0" stroke="rgb(0,0,0)"  stroke-width="3"/>
<line x1="415.9" y1="239.9" x2="377.9" y2="231.8" opacity="1.0" stroke="rgb(0,0,0)"  stroke-width="3"/>
<line x1="377.9" y1="231.8" x2="365.9" y2="194.9" opacity="1.0" stroke="rgb(0,0,0)"  stroke-width="3"/>
<line x1="382.9" y1="223.9" x2="374.6" y2="198.4" opacity="1.0" stroke="rgb(0,0,0)"  stroke-width="3"/>
<line x1="96.1" y1="211.9" x2="70.1" y2="183.0" opacity="1.0" stroke="rgb(0,0,0)"  stroke-width="3"/>
<line x1="70.1" y1="183.0" x2="82.1" y2="146.1" opacity="1.0" stroke="rgb(0,0,0)"  stroke-width="3"/>
<line x1="78.8" y1="179.5" x2="87.1" y2="154.0" opacity="1.0" stroke="rgb(0,0,0)"  stroke-width="3"/>
<line x1="82.1" y1="146.1" x2="120.0" y2="138.0" opacity="1.0" stroke="rgb(0,0,0)"  stroke-width="3"/>
<line x1="120.0" y1="138.0" x2="146.0" y2="166.9" opacity="1.0" stroke="rgb(0,0,0)"  stroke-width="3"/>
<line x1="118.7" y1="147.3" x2="136.6" y2="167.2" opacity="1.0" stroke="rgb(0,0,0)"  stroke-width="3"/>
<line x1="146.0" y1="166.9" x2="134.0" y2="203.8" opacity="1.0" stroke="rgb(0,0,0)"  stroke-width="3"/>
<line x1="134.0" y1="203.8" x2="96.1" y2="211.9" opacity="1.0" stroke="rgb(0,0,0)"  stroke-width="3"/>
<line x1="126.7" y1="198.0" x2="100.4" y2="203.6" opacity="1.0" stroke="rgb(0,0,0)"  stroke-width="3"/>
<line x1="196.0" y1="121.9" x2="233.9" y2="113.8" opacity="1.0" stroke="rgb(0,0,0)"  stroke-width="3"/>
<line x1="233.9" y1="113.8" x2="259.9" y2="142.7" opacity="1.0" stroke="rgb(0,0,0)"  stroke-width="3"/>
<line x1="232.6" y1="123.1" x2="250.5" y2="143.0" opacity="1.0" stroke="rgb(0,0,0)"  stroke-width="3"/>
<line x1="259.9" y1="142.7" x2="247.9" y2="179.6" opacity="1.0" stroke="rgb(0,0,0)"  stroke-width="3"/>
<line x1="247.9" y1="179.6" x2="209.9" y2="187.7" opacity="1.0" stroke="rgb(0,0,0)"  stroke-width="3"/>
<line x1="240.5" y1="173.8" x2="214.3" y2="179.4" opacity="1.0" stroke="rgb(0,0,0)"  stroke-width="3"/>
<line x1="209.9" y1="187.7" x2="184.0" y2="158.8" opacity="1.0" stroke="rgb(0,0,0)"  stroke-width="3"/>
<line x1="184.0" y1="158.8" x2="196.0" y2="121.9" opacity="1.0" stroke="rgb(0,0,0)"  stroke-width="3"/>
<line x1="192.7" y1="155.3" x2="201.0" y2="129.8" opacity="1.0" stroke="rgb(0,0,0)"  stroke-width="3"/>
<text x="195.348933" y="387.993040" fill="rgb(255,181,181)" stroke-width="0" font-weight="bold" font-size="25.92" >B</text>
<text x="329.803591" y="387.993040" fill="rgb(255,181,181)" stroke-width="0" font-weight="bold" font-size="25.92" >B</text>
<text x="329.803591" y="465.620518" fill="rgb(12,12,255)" stroke-width="0" font-weight="bold" font-size="25.92" >N</text>
<text x="195.348933" y="465.620518" fill="rgb(12,12,255)" stroke-width="0" font-weight="bold" font-size="25.92" >N</text>
<text x="262.576238" y="349.179349" fill="rgb(12,12,255)" stroke-width="0" font-weight="bold" font-size="25.92" >N</text>
</svg>
</g>
</svg>
