<?xml version="1.0"?>
<svg version="1.1" id="topsvg"
xmlns="http://www.w3.org/2000/svg" xmlns:xlink="http://www.w3.org/1999/xlink"
xmlns:cml="http://www.xml-cml.org/schema" x="0" y="0" width="200px" height="200px" viewBox="0 0 100 100">
<title>GD362.sdf - Open Babel Depiction</title>
<rect x="0" y="0" width="100" height="100" fill="white"/>
<g transform="translate(0,0)">
<svg width="100" height="100" x="0" y="0" viewBox="0 0 555.084 524.073"
font-family="sans-serif" stroke="rgb(0,0,0)" stroke-width="3"  stroke-linecap="round">
<line x1="154.9" y1="145.4" x2="136.3" y2="113.2" opacity="1.0" stroke="rgb(0,0,0)"  stroke-width="3"/>
<line x1="107.6" y1="298.1" x2="73.8" y2="313.7" opacity="1.0" stroke="rgb(0,0,0)"  stroke-width="3"/>
<line x1="73.8" y1="313.7" x2="40.0" y2="329.3" opacity="1.0" stroke="rgb(0,0,0)"  stroke-width="3"/>
<line x1="73.8" y1="313.7" x2="70.4" y2="350.8" opacity="1.0" stroke="rgb(0,0,0)"  stroke-width="3"/>
<line x1="73.8" y1="313.7" x2="43.4" y2="292.3" opacity="1.0" stroke="rgb(0,0,0)"  stroke-width="3"/>
<line x1="136.3" y1="113.2" x2="117.7" y2="81.0" opacity="1.0" stroke="rgb(0,0,0)"  stroke-width="3"/>
<line x1="136.3" y1="113.2" x2="99.1" y2="113.2" opacity="1.0" stroke="rgb(0,0,0)"  stroke-width="3"/>
<line x1="136.3" y1="113.2" x2="154.9" y2="81.0" opacity="1.0" stroke="rgb(0,0,0)"  stroke-width="3"/>
<line x1="268.9" y1="320.0" x2="268.9" y2="357.2" opacity="1.0" stroke="rgb(0,0,0)"  stroke-width="3"/>
<line x1="427.5" y1="153.2" x2="448.9" y2="164.8" opacity="1.0" stroke="rgb(0,0,0)"  stroke-width="3"/>
<line x1="144.8" y1="245.5" x2="155.8" y2="209.9" opacity="1.0" stroke="rgb(0,0,0)"  stroke-width="3"/>
<line x1="155.8" y1="209.9" x2="193.0" y2="209.4" opacity="1.0" stroke="rgb(0,0,0)"  stroke-width="3"/>
<line x1="161.9" y1="217.0" x2="187.1" y2="216.7" opacity="1.0" stroke="rgb(0,0,0)"  stroke-width="3"/>
<line x1="193.0" y1="209.4" x2="200.8" y2="232.3" opacity="1.0" stroke="rgb(0,0,0)"  stroke-width="3"/>
<line x1="194.6" y1="252.4" x2="175.2" y2="266.9" opacity="1.0" stroke="rgb(0,0,0)"  stroke-width="3"/>
<line x1="175.2" y1="266.9" x2="144.8" y2="245.5" opacity="1.0" stroke="rgb(0,0,0)"  stroke-width="3"/>
<line x1="174.4" y1="257.6" x2="153.8" y2="243.0" opacity="1.0" stroke="rgb(0,0,0)"  stroke-width="3"/>
<line x1="391.4" y1="230.5" x2="367.3" y2="258.9" opacity="1.0" stroke="rgb(0,0,0)"  stroke-width="3"/>
<line x1="382.1" y1="230.4" x2="365.7" y2="249.6" opacity="1.0" stroke="rgb(0,0,0)"  stroke-width="3"/>
<line x1="367.3" y1="258.9" x2="344.9" y2="249.6" opacity="1.0" stroke="rgb(0,0,0)"  stroke-width="3"/>
<line x1="333.9" y1="231.7" x2="335.8" y2="207.5" opacity="1.0" stroke="rgb(0,0,0)"  stroke-width="3"/>
<line x1="335.8" y1="207.5" x2="372.0" y2="198.8" opacity="1.0" stroke="rgb(0,0,0)"  stroke-width="3"/>
<line x1="343.3" y1="213.1" x2="367.8" y2="207.2" opacity="1.0" stroke="rgb(0,0,0)"  stroke-width="3"/>
<line x1="372.0" y1="198.8" x2="391.4" y2="230.5" opacity="1.0" stroke="rgb(0,0,0)"  stroke-width="3"/>
<line x1="411.2" y1="110.2" x2="374.6" y2="103.4" opacity="1.0" stroke="rgb(0,0,0)"  stroke-width="3"/>
<line x1="404.0" y1="116.1" x2="379.2" y2="111.6" opacity="1.0" stroke="rgb(0,0,0)"  stroke-width="3"/>
<line x1="374.6" y1="103.4" x2="356.8" y2="136.1" opacity="1.0" stroke="rgb(0,0,0)"  stroke-width="3"/>
<line x1="356.8" y1="136.1" x2="382.5" y2="163.1" opacity="1.0" stroke="rgb(0,0,0)"  stroke-width="3"/>
<line x1="366.2" y1="135.5" x2="383.6" y2="153.8" opacity="1.0" stroke="rgb(0,0,0)"  stroke-width="3"/>
<line x1="382.5" y1="163.1" x2="404.3" y2="152.7" opacity="1.0" stroke="rgb(0,0,0)"  stroke-width="3"/>
<line x1="414.4" y1="134.2" x2="411.2" y2="110.2" opacity="1.0" stroke="rgb(0,0,0)"  stroke-width="3"/>
<line x1="236.7" y1="301.3" x2="268.9" y2="320.0" opacity="1.0" stroke="rgb(0,0,0)"  stroke-width="3"/>
<line x1="268.9" y1="320.0" x2="301.2" y2="301.3" opacity="1.0" stroke="rgb(0,0,0)"  stroke-width="3"/>
<line x1="270.5" y1="310.7" x2="292.4" y2="298.1" opacity="1.0" stroke="rgb(0,0,0)"  stroke-width="3"/>
<line x1="301.2" y1="301.3" x2="301.2" y2="264.1" opacity="1.0" stroke="rgb(0,0,0)"  stroke-width="3"/>
<line x1="301.2" y1="264.1" x2="268.9" y2="245.5" opacity="1.0" stroke="rgb(0,0,0)"  stroke-width="3"/>
<line x1="292.4" y1="267.4" x2="270.5" y2="254.8" opacity="1.0" stroke="rgb(0,0,0)"  stroke-width="3"/>
<line x1="268.9" y1="245.5" x2="236.7" y2="264.1" opacity="1.0" stroke="rgb(0,0,0)"  stroke-width="3"/>
<line x1="236.7" y1="264.1" x2="236.7" y2="301.3" opacity="1.0" stroke="rgb(0,0,0)"  stroke-width="3"/>
<line x1="243.9" y1="270.1" x2="243.9" y2="295.3" opacity="1.0" stroke="rgb(0,0,0)"  stroke-width="3"/>
<line x1="193.0" y1="209.4" x2="211.2" y2="176.9" opacity="1.0" stroke="rgb(0,0,0)"  stroke-width="3"/>
<line x1="211.2" y1="176.9" x2="257.5" y2="202.0" opacity="1.0" stroke="rgb(0,0,0)"  stroke-width="3"/>
<line x1="268.9" y1="221.2" x2="268.9" y2="245.5" opacity="1.0" stroke="rgb(0,0,0)"  stroke-width="3"/>
<line x1="236.7" y1="264.1" x2="216.1" y2="251.4" opacity="1.0" stroke="rgb(0,0,0)"  stroke-width="3"/>
<line x1="107.6" y1="298.1" x2="138.0" y2="319.6" opacity="1.0" stroke="rgb(0,0,0)"  stroke-width="3"/>
<line x1="138.0" y1="319.6" x2="171.8" y2="304.0" opacity="1.0" stroke="rgb(0,0,0)"  stroke-width="3"/>
<line x1="140.4" y1="310.5" x2="163.3" y2="300.0" opacity="1.0" stroke="rgb(0,0,0)"  stroke-width="3"/>
<line x1="171.8" y1="304.0" x2="175.2" y2="266.9" opacity="1.0" stroke="rgb(0,0,0)"  stroke-width="3"/>
<line x1="144.8" y1="245.5" x2="111.0" y2="261.1" opacity="1.0" stroke="rgb(0,0,0)"  stroke-width="3"/>
<line x1="111.0" y1="261.1" x2="107.6" y2="298.1" opacity="1.0" stroke="rgb(0,0,0)"  stroke-width="3"/>
<line x1="117.6" y1="267.7" x2="115.3" y2="292.8" opacity="1.0" stroke="rgb(0,0,0)"  stroke-width="3"/>
<line x1="321.8" y1="251.4" x2="301.2" y2="264.1" opacity="1.0" stroke="rgb(0,0,0)"  stroke-width="3"/>
<line x1="279.7" y1="200.9" x2="310.1" y2="180.6" opacity="1.0" stroke="rgb(0,0,0)"  stroke-width="3"/>
<line x1="310.1" y1="180.6" x2="335.8" y2="207.5" opacity="1.0" stroke="rgb(0,0,0)"  stroke-width="3"/>
<line x1="440.5" y1="272.3" x2="416.3" y2="300.7" opacity="1.0" stroke="rgb(0,0,0)"  stroke-width="3"/>
<line x1="416.3" y1="300.7" x2="379.7" y2="293.9" opacity="1.0" stroke="rgb(0,0,0)"  stroke-width="3"/>
<line x1="411.8" y1="292.5" x2="387.0" y2="287.9" opacity="1.0" stroke="rgb(0,0,0)"  stroke-width="3"/>
<line x1="379.7" y1="293.9" x2="367.3" y2="258.9" opacity="1.0" stroke="rgb(0,0,0)"  stroke-width="3"/>
<line x1="391.4" y1="230.5" x2="428.0" y2="237.3" opacity="1.0" stroke="rgb(0,0,0)"  stroke-width="3"/>
<line x1="428.0" y1="237.3" x2="440.5" y2="272.3" opacity="1.0" stroke="rgb(0,0,0)"  stroke-width="3"/>
<line x1="423.3" y1="245.3" x2="431.7" y2="269.1" opacity="1.0" stroke="rgb(0,0,0)"  stroke-width="3"/>
<line x1="356.8" y1="136.1" x2="320.7" y2="144.9" opacity="1.0" stroke="rgb(0,0,0)"  stroke-width="3"/>
<line x1="320.7" y1="144.9" x2="310.1" y2="180.6" opacity="1.0" stroke="rgb(0,0,0)"  stroke-width="3"/>
<line x1="325.9" y1="152.7" x2="318.7" y2="176.8" opacity="1.0" stroke="rgb(0,0,0)"  stroke-width="3"/>
<line x1="372.0" y1="198.8" x2="382.5" y2="163.1" opacity="1.0" stroke="rgb(0,0,0)"  stroke-width="3"/>
<line x1="155.8" y1="209.9" x2="136.7" y2="177.9" opacity="1.0" stroke="rgb(0,0,0)"  stroke-width="3"/>
<line x1="136.7" y1="177.9" x2="154.9" y2="145.4" opacity="1.0" stroke="rgb(0,0,0)"  stroke-width="3"/>
<line x1="146.0" y1="176.2" x2="158.3" y2="154.2" opacity="1.0" stroke="rgb(0,0,0)"  stroke-width="3"/>
<line x1="154.9" y1="145.4" x2="192.1" y2="144.9" opacity="1.0" stroke="rgb(0,0,0)"  stroke-width="3"/>
<line x1="192.1" y1="144.9" x2="211.2" y2="176.9" opacity="1.0" stroke="rgb(0,0,0)"  stroke-width="3"/>
<line x1="189.0" y1="153.8" x2="201.9" y2="175.5" opacity="1.0" stroke="rgb(0,0,0)"  stroke-width="3"/>
<line x1="135.3" y1="399.1" x2="136.0" y2="436.3" opacity="1.0" stroke="rgb(0,0,0)"  stroke-width="3"/>
<line x1="128.2" y1="405.2" x2="128.7" y2="430.4" opacity="1.0" stroke="rgb(0,0,0)"  stroke-width="3"/>
<line x1="136.0" y1="436.3" x2="104.1" y2="455.5" opacity="1.0" stroke="rgb(0,0,0)"  stroke-width="3"/>
<line x1="104.1" y1="455.5" x2="71.5" y2="437.5" opacity="1.0" stroke="rgb(0,0,0)"  stroke-width="3"/>
<line x1="102.3" y1="446.3" x2="80.2" y2="434.1" opacity="1.0" stroke="rgb(0,0,0)"  stroke-width="3"/>
<line x1="71.5" y1="437.5" x2="70.8" y2="400.3" opacity="1.0" stroke="rgb(0,0,0)"  stroke-width="3"/>
<line x1="70.8" y1="400.3" x2="102.7" y2="381.1" opacity="1.0" stroke="rgb(0,0,0)"  stroke-width="3"/>
<line x1="79.7" y1="403.4" x2="101.3" y2="390.3" opacity="1.0" stroke="rgb(0,0,0)"  stroke-width="3"/>
<line x1="102.7" y1="381.1" x2="135.3" y2="399.1" opacity="1.0" stroke="rgb(0,0,0)"  stroke-width="3"/>
<line x1="245.7" y1="453.6" x2="224.4" y2="484.1" opacity="1.0" stroke="rgb(0,0,0)"  stroke-width="3"/>
<line x1="224.4" y1="484.1" x2="187.3" y2="480.9" opacity="1.0" stroke="rgb(0,0,0)"  stroke-width="3"/>
<line x1="219.1" y1="476.4" x2="193.9" y2="474.2" opacity="1.0" stroke="rgb(0,0,0)"  stroke-width="3"/>
<line x1="187.3" y1="480.9" x2="171.6" y2="447.1" opacity="1.0" stroke="rgb(0,0,0)"  stroke-width="3"/>
<line x1="171.6" y1="447.1" x2="192.9" y2="416.6" opacity="1.0" stroke="rgb(0,0,0)"  stroke-width="3"/>
<line x1="180.9" y1="446.4" x2="195.4" y2="425.7" opacity="1.0" stroke="rgb(0,0,0)"  stroke-width="3"/>
<line x1="192.9" y1="416.6" x2="230.0" y2="419.8" opacity="1.0" stroke="rgb(0,0,0)"  stroke-width="3"/>
<line x1="230.0" y1="419.8" x2="245.7" y2="453.6" opacity="1.0" stroke="rgb(0,0,0)"  stroke-width="3"/>
<line x1="226.0" y1="428.3" x2="236.7" y2="451.2" opacity="1.0" stroke="rgb(0,0,0)"  stroke-width="3"/>
<line x1="402.6" y1="430.2" x2="402.3" y2="392.9" opacity="1.0" stroke="rgb(0,0,0)"  stroke-width="3"/>
<line x1="409.8" y1="424.1" x2="409.6" y2="398.9" opacity="1.0" stroke="rgb(0,0,0)"  stroke-width="3"/>
<line x1="402.3" y1="392.9" x2="434.4" y2="374.1" opacity="1.0" stroke="rgb(0,0,0)"  stroke-width="3"/>
<line x1="434.4" y1="374.1" x2="466.8" y2="392.4" opacity="1.0" stroke="rgb(0,0,0)"  stroke-width="3"/>
<line x1="436.1" y1="383.3" x2="458.0" y2="395.7" opacity="1.0" stroke="rgb(0,0,0)"  stroke-width="3"/>
<line x1="466.8" y1="392.4" x2="467.1" y2="429.6" opacity="1.0" stroke="rgb(0,0,0)"  stroke-width="3"/>
<line x1="467.1" y1="429.6" x2="435.0" y2="448.5" opacity="1.0" stroke="rgb(0,0,0)"  stroke-width="3"/>
<line x1="458.3" y1="426.5" x2="436.6" y2="439.3" opacity="1.0" stroke="rgb(0,0,0)"  stroke-width="3"/>
<line x1="435.0" y1="448.5" x2="402.6" y2="430.2" opacity="1.0" stroke="rgb(0,0,0)"  stroke-width="3"/>
<line x1="308.2" y1="416.2" x2="293.4" y2="450.4" opacity="1.0" stroke="rgb(0,0,0)"  stroke-width="3"/>
<line x1="312.4" y1="424.6" x2="302.4" y2="447.7" opacity="1.0" stroke="rgb(0,0,0)"  stroke-width="3"/>
<line x1="293.4" y1="450.4" x2="315.5" y2="480.3" opacity="1.0" stroke="rgb(0,0,0)"  stroke-width="3"/>
<line x1="315.5" y1="480.3" x2="352.5" y2="476.1" opacity="1.0" stroke="rgb(0,0,0)"  stroke-width="3"/>
<line x1="320.7" y1="472.5" x2="345.7" y2="469.6" opacity="1.0" stroke="rgb(0,0,0)"  stroke-width="3"/>
<line x1="352.5" y1="476.1" x2="367.3" y2="442.0" opacity="1.0" stroke="rgb(0,0,0)"  stroke-width="3"/>
<line x1="367.3" y1="442.0" x2="345.2" y2="412.0" opacity="1.0" stroke="rgb(0,0,0)"  stroke-width="3"/>
<line x1="358.0" y1="441.4" x2="343.0" y2="421.1" opacity="1.0" stroke="rgb(0,0,0)"  stroke-width="3"/>
<line x1="345.2" y1="412.0" x2="308.2" y2="416.2" opacity="1.0" stroke="rgb(0,0,0)"  stroke-width="3"/>
<line x1="386.2" y1="40.0" x2="362.1" y2="68.3" opacity="1.0" stroke="rgb(0,0,0)"  stroke-width="3"/>
<line x1="387.8" y1="49.2" x2="371.5" y2="68.4" opacity="1.0" stroke="rgb(0,0,0)"  stroke-width="3"/>
<line x1="362.1" y1="68.3" x2="374.6" y2="103.4" opacity="1.0" stroke="rgb(0,0,0)"  stroke-width="3"/>
<line x1="411.2" y1="110.2" x2="435.3" y2="81.8" opacity="1.0" stroke="rgb(0,0,0)"  stroke-width="3"/>
<line x1="435.3" y1="81.8" x2="422.8" y2="46.7" opacity="1.0" stroke="rgb(0,0,0)"  stroke-width="3"/>
<line x1="426.5" y1="78.6" x2="418.1" y2="54.8" opacity="1.0" stroke="rgb(0,0,0)"  stroke-width="3"/>
<line x1="422.8" y1="46.7" x2="386.2" y2="40.0" opacity="1.0" stroke="rgb(0,0,0)"  stroke-width="3"/>
<line x1="450.4" y1="202.2" x2="483.5" y2="219.5" opacity="1.0" stroke="rgb(0,0,0)"  stroke-width="3"/>
<line x1="483.5" y1="219.5" x2="515.1" y2="199.5" opacity="1.0" stroke="rgb(0,0,0)"  stroke-width="3"/>
<line x1="484.7" y1="210.2" x2="506.2" y2="196.6" opacity="1.0" stroke="rgb(0,0,0)"  stroke-width="3"/>
<line x1="515.1" y1="199.5" x2="515.1" y2="162.2" opacity="1.0" stroke="rgb(0,0,0)"  stroke-width="3"/>
<line x1="515.1" y1="162.2" x2="483.5" y2="144.8" opacity="1.0" stroke="rgb(0,0,0)"  stroke-width="3"/>
<line x1="506.4" y1="165.6" x2="485.3" y2="154.0" opacity="1.0" stroke="rgb(0,0,0)"  stroke-width="3"/>
<line x1="483.5" y1="144.8" x2="448.9" y2="164.8" opacity="1.0" stroke="rgb(0,0,0)"  stroke-width="3"/>
<line x1="448.9" y1="164.8" x2="450.4" y2="202.2" opacity="1.0" stroke="rgb(0,0,0)"  stroke-width="3"/>
<line x1="456.3" y1="170.5" x2="457.4" y2="195.9" opacity="1.0" stroke="rgb(0,0,0)"  stroke-width="3"/>
<line x1="171.6" y1="447.1" x2="136.0" y2="436.3" opacity="1.0" stroke="rgb(0,0,0)"  stroke-width="3"/>
<line x1="135.3" y1="399.1" x2="170.5" y2="386.9" opacity="1.0" stroke="rgb(0,0,0)"  stroke-width="3"/>
<line x1="170.5" y1="386.9" x2="192.9" y2="416.6" opacity="1.0" stroke="rgb(0,0,0)"  stroke-width="3"/>
<line x1="366.8" y1="381.7" x2="402.3" y2="392.9" opacity="1.0" stroke="rgb(0,0,0)"  stroke-width="3"/>
<line x1="402.6" y1="430.2" x2="367.3" y2="442.0" opacity="1.0" stroke="rgb(0,0,0)"  stroke-width="3"/>
<line x1="345.2" y1="412.0" x2="366.8" y2="381.7" opacity="1.0" stroke="rgb(0,0,0)"  stroke-width="3"/>
<line x1="301.2" y1="301.3" x2="366.8" y2="381.7" opacity="1.0" stroke="rgb(0,0,0)"  stroke-width="3"/>
<line x1="366.8" y1="381.7" x2="379.7" y2="293.9" opacity="1.0" stroke="rgb(0,0,0)"  stroke-width="3"/>
<line x1="171.8" y1="304.0" x2="170.5" y2="386.9" opacity="1.0" stroke="rgb(0,0,0)"  stroke-width="3"/>
<line x1="170.5" y1="386.9" x2="236.7" y2="301.3" opacity="1.0" stroke="rgb(0,0,0)"  stroke-width="3"/>
<text x="262.936323" y="216.166288" fill="rgb(255,181,181)" stroke-width="0" font-weight="bold" font-size="25.92" >B</text>
<text x="410.065397" y="155.049824" fill="rgb(12,12,255)" stroke-width="0" font-weight="bold" font-size="25.92" >N</text>
<text x="326.884203" y="252.642624" fill="rgb(12,12,255)" stroke-width="0" font-weight="bold" font-size="25.92" >N</text>
<text x="198.983825" y="252.642624" fill="rgb(12,12,255)" stroke-width="0" font-weight="bold" font-size="25.92" >N</text>
</svg>
</g>
</svg>
