<?xml version="1.0" standalone="no" ?>
<!DOCTYPE svg PUBLIC "-//W3C//DTD SVG 1.1//EN" "http://www.w3.org/Graphics/SVG/1.1/DTD/svg11.dtd">
<svg width="385px" height="239px" viewBox="0 0 385 239" style="background-color: #ffffff00" xmlns="http://www.w3.org/2000/svg" xmlns:xlink="http://www.w3.org/1999/xlink" version="1.1" >
<text x="0" y="0" stroke="none" fill="#000000" transform="matrix(0.0666667 0 0 0.0666667 152.897 104.851)" font-style="normal" font-weight="normal" font-size="200px" font-family="Arial" >
N</text>
<text x="0" y="0" stroke="none" fill="#000000" transform="matrix(0.0666667 0 0 0.0666667 219.408 104.851)" font-style="normal" font-weight="normal" font-size="200px" font-family="Arial" >
N</text>
<text x="0" y="0" stroke="none" fill="#000000" transform="matrix(0.0666667 0 0 0.0666667 307.064 169.612)" font-style="normal" font-weight="normal" font-size="200px" font-family="Arial" >
D</text>
<text x="0" y="0" stroke="none" fill="#000000" transform="matrix(0.0666667 0 0 0.0666667 343.425 157.265)" font-style="normal" font-weight="normal" font-size="200px" font-family="Arial" >
D</text>
<text x="0" y="0" stroke="none" fill="#000000" transform="matrix(0.0666667 0 0 0.0666667 372.298 182.581)" font-style="normal" font-weight="normal" font-size="200px" font-family="Arial" >
D</text>
<text x="0" y="0" stroke="none" fill="#000000" transform="matrix(0.0666667 0 0 0.0666667 364.811 220.244)" font-style="normal" font-weight="normal" font-size="200px" font-family="Arial" >
D</text>
<text x="0" y="0" stroke="none" fill="#000000" transform="matrix(0.0666667 0 0 0.0666667 328.45 232.591)" font-style="normal" font-weight="normal" font-size="200px" font-family="Arial" >
D</text>
<text x="0" y="0" stroke="none" fill="#000000" transform="matrix(0.0666667 0 0 0.0666667 186.152 181.652)" font-style="normal" font-weight="normal" font-size="200px" font-family="Arial" >
D</text>
<text x="0" y="0" stroke="none" fill="#000000" transform="matrix(0.0666667 0 0 0.0666667 202.78 172.052)" font-style="normal" font-weight="normal" font-size="200px" font-family="Arial" >
D</text>
<text x="0" y="0" stroke="none" fill="#000000" transform="matrix(0.0666667 0 0 0.0666667 169.524 172.052)" font-style="normal" font-weight="normal" font-size="200px" font-family="Arial" >
D</text>
<text x="0" y="0" stroke="none" fill="#000000" transform="matrix(0.0666667 0 0 0.0666667 46.1617 228.239)" font-style="normal" font-weight="normal" font-size="200px" font-family="Arial" >
D</text>
<text x="0" y="0" stroke="none" fill="#000000" transform="matrix(0.0666667 0 0 0.0666667 9.97822 215.381)" font-style="normal" font-weight="normal" font-size="200px" font-family="Arial" >
D</text>
<text x="0" y="0" stroke="none" fill="#000000" transform="matrix(0.0666667 0 0 0.0666667 3.02133 177.617)" font-style="normal" font-weight="normal" font-size="200px" font-family="Arial" >
D</text>
<text x="0" y="0" stroke="none" fill="#000000" transform="matrix(0.0666667 0 0 0.0666667 32.2479 152.71)" font-style="normal" font-weight="normal" font-size="200px" font-family="Arial" >
D</text>
<text x="0" y="0" stroke="none" fill="#000000" transform="matrix(0.0666667 0 0 0.0666667 68.4314 165.567)" font-style="normal" font-weight="normal" font-size="200px" font-family="Arial" >
D</text>
<text x="0" y="0" stroke="none" fill="#000000" transform="matrix(0.0666667 0 0 0.0666667 186.52 85.6514)" font-style="normal" font-weight="normal" font-size="200px" font-family="Arial" >
B</text>
<path stroke="none" fill="#000000" transform="matrix(0.0666667 0 0 0.0666667 -148.533 -189.867)" d="M 4587.67,2902.77 L 4599.67,2902.77 L 4599.27,3181.08 L 4593.67,3190.77 L 4588.07,3181.08 L 4587.67,2902.77 Z " />
<path stroke="none" fill="#000000" transform="matrix(0.0666667 0 0 0.0666667 -148.533 -189.867)" d="M 4599.53,3194.15 L 4593.67,3190.77 L 4599.27,3181.08 L 4840.08,3041.58 L 4846.08,3051.97 L 4599.53,3194.15 Z " />
<path stroke="none" fill="#000000" transform="matrix(0.0666667 0 0 0.0666667 -148.533 -189.867)" d="M 4588.07,3181.08 L 4593.67,3190.77 L 4587.81,3194.15 L 4341.25,3051.97 L 4347.25,3041.58 L 4588.07,3181.08 Z " />
<path stroke="none" fill="#000000" transform="matrix(0.0666667 0 0 0.0666667 -148.533 -189.867)" d="M 4587.81,3194.15 L 4593.67,3190.77 L 4599.53,3194.15 L 4599.53,3475.39 L 4593.67,3478.77 L 4587.81,3475.39 L 4587.81,3194.15 Z " />
<path stroke="none" fill="#000000" transform="matrix(0.0666667 0 0 0.0666667 -148.533 -189.867)" d="M 4587.81,3475.39 L 4593.67,3478.77 L 4593.67,3485.54 L 4350.11,3626.15 L 4338.11,3619.22 L 4587.81,3475.39 Z " />
<path stroke="none" fill="#000000" transform="matrix(0.0666667 0 0 0.0666667 -148.533 -189.867)" d="M 4590.67,3533.44 L 4596.67,3543.83 L 4399.09,3657.9 L 4393.09,3647.51 L 4590.67,3533.44 Z " />
<path stroke="none" fill="#000000" transform="matrix(0.0666667 0 0 0.0666667 -148.533 -189.867)" d="M 4338.11,3619.22 L 4350.11,3626.15 L 4350.11,3907.39 L 4344.25,3910.77 L 4338.32,3909.12 L 4338.11,3619.22 Z " />
<path stroke="none" fill="#000000" transform="matrix(0.0666667 0 0 0.0666667 -148.533 -189.867)" d="M 4346.45,3918.69 L 4344.25,3910.77 L 4350.11,3907.39 L 4593.67,4048.01 L 4593.67,4054.77 L 4587.88,4058.2 L 4346.45,3918.69 Z " />
<path stroke="none" fill="#000000" transform="matrix(0.0666667 0 0 0.0666667 -148.533 -189.867)" d="M 4393.09,3886.04 L 4399.09,3875.65 L 4596.67,3989.72 L 4590.67,4000.11 L 4393.09,3886.04 Z " />
<path stroke="none" fill="#000000" transform="matrix(0.0666667 0 0 0.0666667 -148.533 -189.867)" d="M 4587.88,4058.2 L 4593.67,4054.77 L 4599.46,4058.2 L 4599.67,4247.94 L 4587.67,4247.94 L 4587.88,4058.2 Z " />
<path stroke="none" fill="#000000" transform="matrix(0.0666667 0 0 0.0666667 -148.533 -189.867)" d="M 4692.77,4406.91 L 4698.77,4396.52 L 4842.98,4480.06 L 4843.08,4486.77 L 4837.22,4490.03 L 4692.77,4406.91 Z " />
<path stroke="none" fill="#000000" transform="matrix(0.0666667 0 0 0.0666667 -148.533 -189.867)" d="M 4848.94,4490.15 L 4843.08,4486.77 L 4842.98,4480.06 L 5086.73,4339.33 L 5092.5,4342.77 L 5092.5,4349.54 L 4848.94,4490.15 Z " />
<path stroke="none" fill="#000000" transform="matrix(0.0666667 0 0 0.0666667 -148.533 -189.867)" d="M 4897.92,4521.9 L 4891.92,4511.5 L 5089.5,4397.43 L 5095.5,4407.83 L 4897.92,4521.9 Z " />
<path stroke="none" fill="#000000" transform="matrix(0.0666667 0 0 0.0666667 -148.533 -189.867)" d="M 5092.5,4349.54 L 5092.5,4342.77 L 5098.27,4339.33 L 5342.02,4480.06 L 5341.92,4486.77 L 5336.06,4490.15 L 5092.5,4349.54 Z " />
<path stroke="none" fill="#000000" transform="matrix(0.0666667 0 0 0.0666667 -148.533 -189.867)" d="M 5347.78,4490.03 L 5341.92,4486.77 L 5342.02,4480.06 L 5485.47,4396.96 L 5491.47,4407.35 L 5347.78,4490.03 Z " />
<path stroke="none" fill="#000000" transform="matrix(0.0666667 0 0 0.0666667 -148.533 -189.867)" d="M 5690.43,4406.91 L 5696.43,4396.52 L 5840.64,4480.06 L 5840.75,4486.77 L 5834.88,4490.03 L 5690.43,4406.91 Z " />
<path stroke="none" fill="#000000" transform="matrix(0.0666667 0 0 0.0666667 -148.533 -189.867)" d="M 5834.88,4490.03 L 5840.75,4486.77 L 5846.6,4490.15 L 5846.6,4771.39 L 5840.75,4774.77 L 5834.89,4771.39 L 5834.88,4490.03 Z " />
<path stroke="none" fill="#000000" transform="matrix(0.0666667 0 0 0.0666667 -148.533 -189.867)" d="M 5834.89,4771.39 L 5840.75,4774.77 L 5840.75,4781.54 L 5599.5,4920.69 L 5591.33,4918.77 L 5591.33,4912.01 L 5834.89,4771.39 Z " />
<path stroke="none" fill="#000000" transform="matrix(0.0666667 0 0 0.0666667 -148.533 -189.867)" d="M 6162.43,5836.33 L 6157.35,5831.87 L 6159.99,5824.84 L 6431.44,5732.3 L 6428.73,5745.9 L 6162.43,5836.33 Z " />
<path stroke="none" fill="#000000" transform="matrix(0.0666667 0 0 0.0666667 -148.533 -189.867)" d="M 6428.73,5745.9 L 6431.44,5732.3 L 6647.88,5922.46 L 6646.6,5929.13 L 6640.2,5931.31 L 6428.73,5745.9 Z " />
<path stroke="none" fill="#000000" transform="matrix(0.0666667 0 0 0.0666667 -148.533 -189.867)" d="M 6414.43,5802.49 L 6422.34,5793.46 L 6593.88,5943.87 L 6585.97,5952.89 L 6414.43,5802.49 Z " />
<path stroke="none" fill="#000000" transform="matrix(0.0666667 0 0 0.0666667 -148.533 -189.867)" d="M 6651.68,5933.65 L 6646.6,5929.13 L 6647.88,5922.46 L 7061.5,5782 L 7066.57,5786.52 L 7065.3,5793.19 L 6651.68,5933.65 Z " />
<path stroke="none" fill="#000000" transform="matrix(0.0666667 0 0 0.0666667 -148.533 -189.867)" d="M 7072.98,5784.35 L 7066.57,5786.52 L 7061.5,5782 L 7116.34,5506.12 L 7122.73,5504.05 L 7127.81,5508.51 L 7072.98,5784.35 Z " />
<path stroke="none" fill="#000000" transform="matrix(0.0666667 0 0 0.0666667 -148.533 -189.867)" d="M 7129.14,5768.44 L 7117.37,5766.1 L 7161.85,5542.34 L 7173.62,5544.68 L 7129.14,5768.44 Z " />
<path stroke="none" fill="#000000" transform="matrix(0.0666667 0 0 0.0666667 -148.533 -189.867)" d="M 7123.95,5497.44 L 7122.73,5504.05 L 7116.34,5506.12 L 6981.99,5388.63 L 6989.9,5379.61 L 7123.95,5497.44 Z " />
<path stroke="none" fill="#000000" transform="matrix(0.0666667 0 0 0.0666667 -148.533 -189.867)" d="M 7127.81,5508.51 L 7122.73,5504.05 L 7123.95,5497.44 L 7390.46,5406.94 L 7395.43,5411.45 L 7394.11,5418.08 L 7127.81,5508.51 Z " />
<path stroke="none" fill="#000000" transform="matrix(0.0666667 0 0 0.0666667 -148.533 -189.867)" d="M 7401.75,5409.19 L 7395.43,5411.45 L 7390.46,5406.94 L 7422.68,5243.6 L 7434.45,5245.94 L 7401.75,5409.19 Z " />
<path stroke="none" fill="#000000" transform="matrix(0.0666667 0 0 0.0666667 -148.533 -189.867)" d="M 7394.11,5418.08 L 7395.43,5411.45 L 7401.75,5409.19 L 7613.38,5594.74 L 7611.98,5601.31 L 7605.58,5603.49 L 7394.11,5418.08 Z " />
<path stroke="none" fill="#000000" transform="matrix(0.0666667 0 0 0.0666667 -148.533 -189.867)" d="M 7379.8,5474.67 L 7387.72,5465.64 L 7559.26,5616.05 L 7551.35,5625.07 L 7379.8,5474.67 Z " />
<path stroke="none" fill="#000000" transform="matrix(0.0666667 0 0 0.0666667 -148.533 -189.867)" d="M 7617.09,5605.68 L 7611.98,5601.31 L 7613.38,5594.74 L 7784.04,5536.55 L 7787.9,5547.91 L 7617.09,5605.68 Z " />
<path stroke="none" fill="#000000" transform="matrix(0.0666667 0 0 0.0666667 -148.533 -189.867)" d="M 7605.58,5603.49 L 7611.98,5601.31 L 7617.09,5605.68 L 7562.21,5881.73 L 7555.83,5883.79 L 7550.74,5879.33 L 7605.58,5603.49 Z " />
<path stroke="none" fill="#000000" transform="matrix(0.0666667 0 0 0.0666667 -148.533 -189.867)" d="M 7554.62,5890.39 L 7555.83,5883.79 L 7562.21,5881.73 L 7689.34,5992.87 L 7681.43,6001.89 L 7554.62,5890.39 Z " />
<path stroke="none" fill="#000000" transform="matrix(0.0666667 0 0 0.0666667 -148.533 -189.867)" d="M 7550.74,5879.33 L 7555.83,5883.79 L 7554.62,5890.39 L 7288.13,5980.88 L 7283.12,5976.39 L 7284.44,5969.75 L 7550.74,5879.33 Z " />
<path stroke="none" fill="#000000" transform="matrix(0.0666667 0 0 0.0666667 -148.533 -189.867)" d="M 7508.89,5838.64 L 7512.75,5850 L 7296.72,5923.36 L 7292.86,5912 L 7508.89,5838.64 Z " />
<path stroke="none" fill="#000000" transform="matrix(0.0666667 0 0 0.0666667 -148.533 -189.867)" d="M 7065.3,5793.19 L 7066.57,5786.52 L 7072.98,5784.35 L 7284.44,5969.75 L 7283.12,5976.39 L 7276.78,5978.62 L 7065.3,5793.19 Z " />
<path stroke="none" fill="#000000" transform="matrix(0.0666667 0 0 0.0666667 -148.533 -189.867)" d="M 7276.78,5978.62 L 7283.12,5976.39 L 7288.13,5980.88 L 7251.4,6166.72 L 7239.63,6164.38 L 7276.78,5978.62 Z " />
<path stroke="none" fill="#000000" transform="matrix(0.0666667 0 0 0.0666667 -148.533 -189.867)" d="M 6640.2,5931.31 L 6646.6,5929.13 L 6651.68,5933.65 L 6595.79,6216.28 L 6585.36,6207.14 L 6640.2,5931.31 Z " />
<path stroke="none" fill="#000000" transform="matrix(0.0666667 0 0 0.0666667 -148.533 -189.867)" d="M 6585.36,6207.14 L 6595.79,6216.28 L 6316.36,6311.17 L 6319.06,6297.57 L 6585.36,6207.14 Z " />
<path stroke="none" fill="#000000" transform="matrix(0.0666667 0 0 0.0666667 -148.533 -189.867)" d="M 6543.51,6166.46 L 6547.37,6177.82 L 6331.34,6251.18 L 6327.48,6239.82 L 6543.51,6166.46 Z " />
<path stroke="none" fill="#000000" transform="matrix(0.0666667 0 0 0.0666667 -148.533 -189.867)" d="M 6151.09,5833.11 L 6157.35,5831.87 L 6162.43,5836.33 L 6107.6,6112.16 L 6101.19,6114.34 L 6096.3,6109.05 L 6151.09,5833.11 Z " />
<path stroke="none" fill="#000000" transform="matrix(0.0666667 0 0 0.0666667 -148.533 -189.867)" d="M 6196.47,5870.16 L 6208.24,5872.5 L 6163.76,6096.26 L 6151.99,6093.92 L 6196.47,5870.16 Z " />
<path stroke="none" fill="#000000" transform="matrix(0.0666667 0 0 0.0666667 -148.533 -189.867)" d="M 6319.06,6297.57 L 6316.36,6311.17 L 6099.28,6120.5 L 6101.19,6114.34 L 6107.6,6112.16 L 6319.06,6297.57 Z " />
<path stroke="none" fill="#000000" transform="matrix(0.0666667 0 0 0.0666667 -148.533 -189.867)" d="M 6096.3,6109.05 L 6101.19,6114.34 L 6099.28,6120.5 L 5818.49,6153.76 L 5815.19,6148.22 L 5818.71,6141.94 L 6096.3,6109.05 Z " />
<path stroke="none" fill="#000000" transform="matrix(0.0666667 0 0 0.0666667 -148.533 -189.867)" d="M 5818.71,6141.94 L 5815.19,6148.22 L 5808.45,6147.6 L 5690.69,5892.21 L 5694.59,5886.69 L 5700.45,5885.18 L 5818.71,6141.94 Z " />
<path stroke="none" fill="#000000" transform="matrix(0.0666667 0 0 0.0666667 -148.533 -189.867)" d="M 5761.03,6140.24 L 5750.13,6145.26 L 5654.6,5938.09 L 5665.5,5933.06 L 5761.03,6140.24 Z " />
<path stroke="none" fill="#000000" transform="matrix(0.0666667 0 0 0.0666667 -148.533 -189.867)" d="M 5687.97,5880.36 L 5694.59,5886.69 L 5690.69,5892.21 L 5410.63,5866.51 L 5404.82,5853.92 L 5687.97,5880.36 Z " />
<path stroke="none" fill="#000000" transform="matrix(0.0666667 0 0 0.0666667 -148.533 -189.867)" d="M 5404.82,5853.92 L 5410.63,5866.51 L 5248.34,6096.2 L 5234.53,6094.93 L 5404.82,5853.92 Z " />
<path stroke="none" fill="#000000" transform="matrix(0.0666667 0 0 0.0666667 -148.533 -189.867)" d="M 5427.96,5911.26 L 5437.76,5918.19 L 5306.11,6104.51 L 5296.31,6097.59 L 5427.96,5911.26 Z " />
<path stroke="none" fill="#000000" transform="matrix(0.0666667 0 0 0.0666667 -148.533 -189.867)" d="M 5234.53,6094.93 L 5248.34,6096.2 L 5366.11,6351.58 L 5358.11,6362.91 L 5234.53,6094.93 Z " />
<path stroke="none" fill="#000000" transform="matrix(0.0666667 0 0 0.0666667 -148.533 -189.867)" d="M 5358.11,6362.91 L 5366.11,6351.58 L 5646.17,6377.29 L 5651.97,6389.88 L 5358.11,6362.91 Z " />
<path stroke="none" fill="#000000" transform="matrix(0.0666667 0 0 0.0666667 -148.533 -189.867)" d="M 5396.2,6314.2 L 5397.3,6302.25 L 5624.48,6323.1 L 5623.38,6335.05 L 5396.2,6314.2 Z " />
<path stroke="none" fill="#000000" transform="matrix(0.0666667 0 0 0.0666667 -148.533 -189.867)" d="M 5808.45,6147.6 L 5815.19,6148.22 L 5818.49,6153.76 L 5651.97,6389.88 L 5646.17,6377.29 L 5808.45,6147.6 Z " />
<path stroke="none" fill="#000000" transform="matrix(0.0666667 0 0 0.0666667 -148.533 -189.867)" d="M 5840.75,4781.54 L 5840.75,4774.77 L 5846.6,4771.39 L 6090.16,4912.01 L 6090.16,4925.87 L 5840.75,4781.54 Z " />
<path stroke="none" fill="#000000" transform="matrix(0.0666667 0 0 0.0666667 -148.533 -189.867)" d="M 5889.59,4750.04 L 5895.59,4739.64 L 6093.16,4853.72 L 6087.16,4864.11 L 5889.59,4750.04 Z " />
<path stroke="none" fill="#000000" transform="matrix(0.0666667 0 0 0.0666667 -148.533 -189.867)" d="M 6090.16,4925.87 L 6090.16,4912.01 L 6333.72,4771.39 L 6339.58,4774.77 L 6339.58,4781.54 L 6090.16,4925.87 Z " />
<path stroke="none" fill="#000000" transform="matrix(0.0666667 0 0 0.0666667 -148.533 -189.867)" d="M 6339.58,4781.54 L 6339.58,4774.77 L 6345.44,4771.39 L 6588.99,4912.01 L 6588.99,4918.77 L 6583.13,4922.15 L 6339.58,4781.54 Z " />
<path stroke="none" fill="#000000" transform="matrix(0.0666667 0 0 0.0666667 -148.533 -189.867)" d="M 6594.59,4928.46 L 6588.99,4918.77 L 6600.18,4918.77 L 6841.41,5057.57 L 6835.41,5067.97 L 6594.59,4928.46 Z " />
<path stroke="none" fill="#000000" transform="matrix(0.0666667 0 0 0.0666667 -148.533 -189.867)" d="M 6583.13,4922.15 L 6588.99,4918.77 L 6594.59,4928.46 L 6594.99,5206.77 L 6582.99,5206.77 L 6583.13,4922.15 Z " />
<path stroke="none" fill="#000000" transform="matrix(0.0666667 0 0 0.0666667 -148.533 -189.867)" d="M 6600.18,4918.77 L 6588.99,4918.77 L 6588.99,4912.01 L 6835.41,4769.57 L 6841.41,4779.97 L 6600.18,4918.77 Z " />
<path stroke="none" fill="#000000" transform="matrix(0.0666667 0 0 0.0666667 -148.533 -189.867)" d="M 6345.44,4771.39 L 6339.58,4774.77 L 6333.72,4771.39 L 6333.72,4490.15 L 6345.72,4483.22 L 6345.44,4771.39 Z " />
<path stroke="none" fill="#000000" transform="matrix(0.0666667 0 0 0.0666667 -148.533 -189.867)" d="M 6293.74,4744.84 L 6281.74,4744.84 L 6281.74,4516.7 L 6293.74,4516.7 L 6293.74,4744.84 Z " />
<path stroke="none" fill="#000000" transform="matrix(0.0666667 0 0 0.0666667 -148.533 -189.867)" d="M 5846.6,4490.15 L 5840.75,4486.77 L 5840.64,4480.06 L 6082.21,4340.72 L 6090.16,4342.77 L 6090.16,4349.54 L 5846.6,4490.15 Z " />
<path stroke="none" fill="#000000" transform="matrix(0.0666667 0 0 0.0666667 -148.533 -189.867)" d="M 5895.59,4521.9 L 5889.59,4511.5 L 6087.16,4397.43 L 6093.16,4407.83 L 5895.59,4521.9 Z " />
<path stroke="none" fill="#000000" transform="matrix(0.0666667 0 0 0.0666667 -148.533 -189.867)" d="M 6345.72,4483.22 L 6333.72,4490.15 L 6090.16,4349.54 L 6090.16,4342.77 L 6094.56,4338.46 L 6345.72,4483.22 Z " />
<path stroke="none" fill="#000000" transform="matrix(0.0666667 0 0 0.0666667 -148.533 -189.867)" d="M 6094.56,4338.46 L 6090.16,4342.77 L 6082.21,4340.72 L 5838.55,3918.69 L 5840.75,3910.77 L 5846.68,3909.12 L 6094.56,4338.46 Z " />
<path stroke="none" fill="#000000" transform="matrix(0.0666667 0 0 0.0666667 -148.533 -189.867)" d="M 5834.89,3907.39 L 5840.75,3910.77 L 5838.55,3918.69 L 5597.12,4058.2 L 5591.33,4054.77 L 5591.33,4048.01 L 5834.89,3907.39 Z " />
<path stroke="none" fill="#000000" transform="matrix(0.0666667 0 0 0.0666667 -148.533 -189.867)" d="M 5785.91,3875.65 L 5791.91,3886.04 L 5594.33,4000.11 L 5588.33,3989.72 L 5785.91,3875.65 Z " />
<path stroke="none" fill="#000000" transform="matrix(0.0666667 0 0 0.0666667 -148.533 -189.867)" d="M 5597.33,4247.94 L 5585.33,4247.94 L 5585.54,4058.2 L 5591.33,4054.77 L 5597.12,4058.2 L 5597.33,4247.94 Z " />
<path stroke="none" fill="#000000" transform="matrix(0.0666667 0 0 0.0666667 -148.533 -189.867)" d="M 5591.33,4048.01 L 5591.33,4054.77 L 5585.54,4058.2 L 5341.84,3917.5 L 5341.92,3910.77 L 5347.77,3907.39 L 5591.33,4048.01 Z " />
<path stroke="none" fill="#000000" transform="matrix(0.0666667 0 0 0.0666667 -148.533 -189.867)" d="M 5347.77,3907.39 L 5341.92,3910.77 L 5336.05,3907.47 L 5335.77,3619.22 L 5347.77,3626.15 L 5347.77,3907.39 Z " />
<path stroke="none" fill="#000000" transform="matrix(0.0666667 0 0 0.0666667 -148.533 -189.867)" d="M 5399.76,3880.84 L 5387.76,3880.84 L 5387.76,3652.7 L 5399.76,3652.7 L 5399.76,3880.84 Z " />
<path stroke="none" fill="#000000" transform="matrix(0.0666667 0 0 0.0666667 -148.533 -189.867)" d="M 5347.77,3626.15 L 5335.77,3619.22 L 5585.47,3475.39 L 5591.33,3478.77 L 5591.33,3485.54 L 5347.77,3626.15 Z " />
<path stroke="none" fill="#000000" transform="matrix(0.0666667 0 0 0.0666667 -148.533 -189.867)" d="M 5597.19,3475.39 L 5591.33,3478.77 L 5585.47,3475.39 L 5585.47,3194.15 L 5591.33,3190.77 L 5597.19,3194.15 L 5597.19,3475.39 Z " />
<path stroke="none" fill="#000000" transform="matrix(0.0666667 0 0 0.0666667 -148.533 -189.867)" d="M 5585.73,3181.08 L 5591.33,3190.77 L 5585.47,3194.15 L 5338.92,3051.97 L 5344.92,3041.58 L 5585.73,3181.08 Z " />
<path stroke="none" fill="#000000" transform="matrix(0.0666667 0 0 0.0666667 -148.533 -189.867)" d="M 5596.93,3181.08 L 5591.33,3190.77 L 5585.73,3181.08 L 5585.33,2902.77 L 5597.33,2902.77 L 5596.93,3181.08 Z " />
<path stroke="none" fill="#000000" transform="matrix(0.0666667 0 0 0.0666667 -148.533 -189.867)" d="M 5597.19,3194.15 L 5591.33,3190.77 L 5596.93,3181.08 L 5837.75,3041.58 L 5843.75,3051.97 L 5597.19,3194.15 Z " />
<path stroke="none" fill="#000000" transform="matrix(0.0666667 0 0 0.0666667 -148.533 -189.867)" d="M 5591.33,3485.54 L 5591.33,3478.77 L 5597.19,3475.39 L 5846.89,3619.22 L 5834.89,3626.15 L 5591.33,3485.54 Z " />
<path stroke="none" fill="#000000" transform="matrix(0.0666667 0 0 0.0666667 -148.533 -189.867)" d="M 5588.33,3543.83 L 5594.33,3533.44 L 5791.91,3647.51 L 5785.91,3657.9 L 5588.33,3543.83 Z " />
<path stroke="none" fill="#000000" transform="matrix(0.0666667 0 0 0.0666667 -148.533 -189.867)" d="M 5846.68,3909.12 L 5840.75,3910.77 L 5834.89,3907.39 L 5834.89,3626.15 L 5846.89,3619.22 L 5846.68,3909.12 Z " />
<path stroke="none" fill="#000000" transform="matrix(0.0666667 0 0 0.0666667 -148.533 -189.867)" d="M 5336.06,4490.15 L 5341.92,4486.77 L 5347.78,4490.03 L 5347.77,4771.39 L 5341.92,4774.77 L 5336.06,4771.39 L 5336.06,4490.15 Z " />
<path stroke="none" fill="#000000" transform="matrix(0.0666667 0 0 0.0666667 -148.533 -189.867)" d="M 5284.08,4516.7 L 5296.08,4516.7 L 5296.08,4744.84 L 5284.08,4744.84 L 5284.08,4516.7 Z " />
<path stroke="none" fill="#000000" transform="matrix(0.0666667 0 0 0.0666667 -148.533 -189.867)" d="M 5591.33,4912.01 L 5591.33,4918.77 L 5585.71,4922.3 L 5341.92,4781.54 L 5341.92,4774.77 L 5347.77,4771.39 L 5591.33,4912.01 Z " />
<path stroke="none" fill="#000000" transform="matrix(0.0666667 0 0 0.0666667 -148.533 -189.867)" d="M 5336.06,4771.39 L 5341.92,4774.77 L 5341.92,4781.54 L 5098.36,4922.16 L 5092.5,4918.78 L 5092.5,4912.01 L 5336.06,4771.39 Z " />
<path stroke="none" fill="#000000" transform="matrix(0.0666667 0 0 0.0666667 -148.533 -189.867)" d="M 5086.64,4922.16 L 5092.5,4918.78 L 5098.36,4922.16 L 5098.36,5203.5 L 5092.5,5206.78 L 5086.63,5203.48 L 5086.64,4922.16 Z " />
<path stroke="none" fill="#000000" transform="matrix(0.0666667 0 0 0.0666667 -148.533 -189.867)" d="M 5087.08,5216.16 L 5092.5,5206.78 L 5097.92,5216.1 L 5098.5,5399.94 L 5086.5,5399.94 L 5087.08,5216.16 Z " />
<path stroke="none" fill="#000000" transform="matrix(0.0666667 0 0 0.0666667 -148.533 -189.867)" d="M 5097.92,5216.1 L 5092.5,5206.78 L 5098.36,5203.5 L 5247.83,5289.53 L 5241.83,5299.92 L 5097.92,5216.1 Z " />
<path stroke="none" fill="#000000" transform="matrix(0.0666667 0 0 0.0666667 -148.533 -189.867)" d="M 5086.63,5203.48 L 5092.5,5206.78 L 5087.08,5216.16 L 4927.72,5308.84 L 4921.72,5298.45 L 5086.63,5203.48 Z " />
<path stroke="none" fill="#000000" transform="matrix(0.0666667 0 0 0.0666667 -148.533 -189.867)" d="M 5092.5,4912.01 L 5092.5,4918.78 L 5086.64,4922.16 L 4843.08,4781.54 L 4843.08,4774.77 L 4848.94,4771.39 L 5092.5,4912.01 Z " />
<path stroke="none" fill="#000000" transform="matrix(0.0666667 0 0 0.0666667 -148.533 -189.867)" d="M 5095.5,4853.72 L 5089.5,4864.11 L 4891.92,4750.04 L 4897.92,4739.65 L 5095.5,4853.72 Z " />
<path stroke="none" fill="#000000" transform="matrix(0.0666667 0 0 0.0666667 -148.533 -189.867)" d="M 4837.22,4490.03 L 4843.08,4486.77 L 4848.94,4490.15 L 4848.94,4771.39 L 4843.08,4774.77 L 4837.23,4771.39 L 4837.22,4490.03 Z " />
<path stroke="none" fill="#000000" transform="matrix(0.0666667 0 0 0.0666667 -148.533 -189.867)" d="M 4837.23,4771.39 L 4843.08,4774.77 L 4843.08,4781.54 L 4599.41,4922.23 L 4593.67,4918.77 L 4593.67,4912.01 L 4837.23,4771.39 Z " />
<path stroke="none" fill="#000000" transform="matrix(0.0666667 0 0 0.0666667 -148.533 -189.867)" d="M 4533.93,5848.58 L 4530.1,5843 L 4536.46,5836.78 L 4820.3,5814.31 L 4814.32,5826.82 L 4533.93,5848.58 Z " />
<path stroke="none" fill="#000000" transform="matrix(0.0666667 0 0 0.0666667 -148.533 -189.867)" d="M 4814.32,5826.82 L 4820.3,5814.31 L 4987.18,6057.69 L 4973.36,6058.77 L 4814.32,5826.82 Z " />
<path stroke="none" fill="#000000" transform="matrix(0.0666667 0 0 0.0666667 -148.533 -189.867)" d="M 4786.46,5878.11 L 4796.36,5871.32 L 4925.37,6059.48 L 4915.48,6066.27 L 4786.46,5878.11 Z " />
<path stroke="none" fill="#000000" transform="matrix(0.0666667 0 0 0.0666667 -148.533 -189.867)" d="M 4973.36,6058.77 L 4987.18,6057.69 L 4859.85,6323.91 L 4852.01,6312.47 L 4973.36,6058.77 Z " />
<path stroke="none" fill="#000000" transform="matrix(0.0666667 0 0 0.0666667 -148.533 -189.867)" d="M 4852.01,6312.47 L 4859.85,6323.91 L 4565.64,6346.74 L 4571.62,6334.23 L 4852.01,6312.47 Z " />
<path stroke="none" fill="#000000" transform="matrix(0.0666667 0 0 0.0666667 -148.533 -189.867)" d="M 4821.52,6262.7 L 4822.45,6274.66 L 4594.99,6292.32 L 4594.06,6280.35 L 4821.52,6262.7 Z " />
<path stroke="none" fill="#000000" transform="matrix(0.0666667 0 0 0.0666667 -148.533 -189.867)" d="M 4524.2,5841.55 L 4530.1,5843 L 4533.93,5848.58 L 4412.58,6102.29 L 4405.83,6102.81 L 4402.4,6096.48 L 4524.2,5841.55 Z " />
<path stroke="none" fill="#000000" transform="matrix(0.0666667 0 0 0.0666667 -148.533 -189.867)" d="M 4558.54,5889.78 L 4569.37,5894.96 L 4470.93,6100.77 L 4460.1,6095.59 L 4558.54,5889.78 Z " />
<path stroke="none" fill="#000000" transform="matrix(0.0666667 0 0 0.0666667 -148.533 -189.867)" d="M 4571.62,6334.23 L 4565.64,6346.74 L 4402.46,6108.31 L 4405.83,6102.81 L 4412.58,6102.29 L 4571.62,6334.23 Z " />
<path stroke="none" fill="#000000" transform="matrix(0.0666667 0 0 0.0666667 -148.533 -189.867)" d="M 4402.4,6096.48 L 4405.83,6102.81 L 4402.46,6108.31 L 4122.16,6071.09 L 4120.34,6064.91 L 4125.3,6059.69 L 4402.4,6096.48 Z " />
<path stroke="none" fill="#000000" transform="matrix(0.0666667 0 0 0.0666667 -148.533 -189.867)" d="M 4125.3,6059.69 L 4120.34,6064.91 L 4113.96,6062.64 L 4063.01,5786.06 L 4068.16,5781.68 L 4074.39,5782.93 L 4125.3,6059.69 Z " />
<path stroke="none" fill="#000000" transform="matrix(0.0666667 0 0 0.0666667 -148.533 -189.867)" d="M 4069.83,6043.78 L 4058.03,6045.95 L 4016.7,5821.59 L 4028.5,5819.42 L 4069.83,6043.78 Z " />
<path stroke="none" fill="#000000" transform="matrix(0.0666667 0 0 0.0666667 -148.533 -189.867)" d="M 4065.52,5774.59 L 4068.16,5781.68 L 4063.01,5786.06 L 3798.01,5691.9 L 3795.5,5678.26 L 4065.52,5774.59 Z " />
<path stroke="none" fill="#000000" transform="matrix(0.0666667 0 0 0.0666667 -148.533 -189.867)" d="M 3795.5,5678.26 L 3798.01,5691.9 L 3583.96,5874.31 L 3577.58,5872.05 L 3576.41,5865.36 L 3795.5,5678.26 Z " />
<path stroke="none" fill="#000000" transform="matrix(0.0666667 0 0 0.0666667 -148.533 -189.867)" d="M 3803.74,5739.55 L 3811.52,5748.68 L 3637.88,5896.66 L 3630.1,5887.52 L 3803.74,5739.55 Z " />
<path stroke="none" fill="#000000" transform="matrix(0.0666667 0 0 0.0666667 -148.533 -189.867)" d="M 3576.41,5865.36 L 3577.58,5872.05 L 3572.45,5876.49 L 3160.84,5730.24 L 3159.67,5723.55 L 3164.8,5719.1 L 3576.41,5865.36 Z " />
<path stroke="none" fill="#000000" transform="matrix(0.0666667 0 0 0.0666667 -148.533 -189.867)" d="M 3153.29,5721.28 L 3159.67,5723.55 L 3160.84,5730.24 L 2946.77,5912.68 L 2940.47,5910.35 L 2939.24,5903.7 L 3153.29,5721.28 Z " />
<path stroke="none" fill="#000000" transform="matrix(0.0666667 0 0 0.0666667 -148.533 -189.867)" d="M 3099.37,5698.94 L 3107.15,5708.07 L 2933.51,5856.05 L 2925.73,5846.91 L 3099.37,5698.94 Z " />
<path stroke="none" fill="#000000" transform="matrix(0.0666667 0 0 0.0666667 -148.533 -189.867)" d="M 2935.41,5914.77 L 2940.47,5910.35 L 2946.77,5912.68 L 2979.94,6091.49 L 2968.13,6093.66 L 2935.41,5914.77 Z " />
<path stroke="none" fill="#000000" transform="matrix(0.0666667 0 0 0.0666667 -148.533 -189.867)" d="M 2939.24,5903.7 L 2940.47,5910.35 L 2935.41,5914.77 L 2670.23,5820.55 L 2669.09,5813.92 L 2674.24,5809.53 L 2939.24,5903.7 Z " />
<path stroke="none" fill="#000000" transform="matrix(0.0666667 0 0 0.0666667 -148.533 -189.867)" d="M 2662.73,5811.74 L 2669.09,5813.92 L 2670.23,5820.55 L 2526.3,5943.49 L 2518.51,5934.36 L 2662.73,5811.74 Z " />
<path stroke="none" fill="#000000" transform="matrix(0.0666667 0 0 0.0666667 -148.533 -189.867)" d="M 2674.24,5809.53 L 2669.09,5813.92 L 2662.73,5811.74 L 2611.74,5534.98 L 2616.91,5530.68 L 2623.29,5532.95 L 2674.24,5809.53 Z " />
<path stroke="none" fill="#000000" transform="matrix(0.0666667 0 0 0.0666667 -148.533 -189.867)" d="M 2720.55,5774 L 2708.75,5776.18 L 2667.42,5551.81 L 2679.22,5549.64 L 2720.55,5774 Z " />
<path stroke="none" fill="#000000" transform="matrix(0.0666667 0 0 0.0666667 -148.533 -189.867)" d="M 2615.62,5524.09 L 2616.91,5530.68 L 2611.74,5534.98 L 2436.51,5472.95 L 2440.53,5461.64 L 2615.62,5524.09 Z " />
<path stroke="none" fill="#000000" transform="matrix(0.0666667 0 0 0.0666667 -148.533 -189.867)" d="M 2623.29,5532.95 L 2616.91,5530.68 L 2615.62,5524.09 L 2829.82,5341.54 L 2836.11,5343.88 L 2837.34,5350.53 L 2623.29,5532.95 Z " />
<path stroke="none" fill="#000000" transform="matrix(0.0666667 0 0 0.0666667 -148.533 -189.867)" d="M 2841.16,5339.45 L 2836.11,5343.88 L 2829.82,5341.54 L 2798.2,5171.18 L 2810,5169.01 L 2841.16,5339.45 Z " />
<path stroke="none" fill="#000000" transform="matrix(0.0666667 0 0 0.0666667 -148.533 -189.867)" d="M 2837.34,5350.53 L 2836.11,5343.88 L 2841.16,5339.45 L 3106.39,5433.7 L 3107.49,5440.31 L 3102.34,5444.7 L 2837.34,5350.53 Z " />
<path stroke="none" fill="#000000" transform="matrix(0.0666667 0 0 0.0666667 -148.533 -189.867)" d="M 2844.95,5408.4 L 2848.97,5397.1 L 3063.94,5473.48 L 3059.92,5484.79 L 2844.95,5408.4 Z " />
<path stroke="none" fill="#000000" transform="matrix(0.0666667 0 0 0.0666667 -148.533 -189.867)" d="M 3164.8,5719.1 L 3159.67,5723.55 L 3153.29,5721.28 L 3102.34,5444.7 L 3107.49,5440.31 L 3113.84,5442.44 L 3164.8,5719.1 Z " />
<path stroke="none" fill="#000000" transform="matrix(0.0666667 0 0 0.0666667 -148.533 -189.867)" d="M 3113.84,5442.44 L 3107.49,5440.31 L 3106.39,5433.7 L 3227.78,5329.91 L 3235.56,5339.05 L 3113.84,5442.44 Z " />
<path stroke="none" fill="#000000" transform="matrix(0.0666667 0 0 0.0666667 -148.533 -189.867)" d="M 3572.45,5876.49 L 3577.58,5872.05 L 3583.96,5874.31 L 3634.91,6150.89 L 3624.36,6159.89 L 3572.45,5876.49 Z " />
<path stroke="none" fill="#000000" transform="matrix(0.0666667 0 0 0.0666667 -148.533 -189.867)" d="M 3624.36,6159.89 L 3634.91,6150.89 L 3899.91,6245.06 L 3902.42,6258.69 L 3624.36,6159.89 Z " />
<path stroke="none" fill="#000000" transform="matrix(0.0666667 0 0 0.0666667 -148.533 -189.867)" d="M 3673.31,6122.11 L 3677.33,6110.8 L 3892.3,6187.19 L 3888.28,6198.5 L 3673.31,6122.11 Z " />
<path stroke="none" fill="#000000" transform="matrix(0.0666667 0 0 0.0666667 -148.533 -189.867)" d="M 4113.96,6062.64 L 4120.34,6064.91 L 4122.16,6071.09 L 3902.42,6258.69 L 3899.91,6245.06 L 4113.96,6062.64 Z " />
<path stroke="none" fill="#000000" transform="matrix(0.0666667 0 0 0.0666667 -148.533 -189.867)" d="M 4593.67,4912.01 L 4593.67,4918.77 L 4585.54,4920.71 L 4344.25,4781.54 L 4344.25,4774.77 L 4350.11,4771.39 L 4593.67,4912.01 Z " />
<path stroke="none" fill="#000000" transform="matrix(0.0666667 0 0 0.0666667 -148.533 -189.867)" d="M 4338.4,4771.39 L 4344.25,4774.77 L 4344.25,4781.54 L 4094.84,4925.87 L 4094.84,4912.01 L 4338.4,4771.39 Z " />
<path stroke="none" fill="#000000" transform="matrix(0.0666667 0 0 0.0666667 -148.533 -189.867)" d="M 4289.41,4739.64 L 4295.41,4750.04 L 4097.84,4864.11 L 4091.84,4853.72 L 4289.41,4739.64 Z " />
<path stroke="none" fill="#000000" transform="matrix(0.0666667 0 0 0.0666667 -148.533 -189.867)" d="M 4094.84,4912.01 L 4094.84,4925.87 L 3845.42,4781.54 L 3845.42,4774.77 L 3851.28,4771.39 L 4094.84,4912.01 Z " />
<path stroke="none" fill="#000000" transform="matrix(0.0666667 0 0 0.0666667 -148.533 -189.867)" d="M 3839.56,4771.39 L 3845.42,4774.77 L 3845.42,4781.54 L 3601.87,4922.15 L 3596.01,4918.77 L 3596.01,4912.01 L 3839.56,4771.39 Z " />
<path stroke="none" fill="#000000" transform="matrix(0.0666667 0 0 0.0666667 -148.533 -189.867)" d="M 3590.41,4928.46 L 3596.01,4918.77 L 3601.87,4922.15 L 3602.01,5206.77 L 3590.01,5206.77 L 3590.41,4928.46 Z " />
<path stroke="none" fill="#000000" transform="matrix(0.0666667 0 0 0.0666667 -148.533 -189.867)" d="M 3584.82,4918.77 L 3596.01,4918.77 L 3590.41,4928.46 L 3349.59,5067.97 L 3343.59,5057.57 L 3584.82,4918.77 Z " />
<path stroke="none" fill="#000000" transform="matrix(0.0666667 0 0 0.0666667 -148.533 -189.867)" d="M 3596.01,4912.01 L 3596.01,4918.77 L 3584.82,4918.77 L 3343.59,4779.97 L 3349.59,4769.57 L 3596.01,4912.01 Z " />
<path stroke="none" fill="#000000" transform="matrix(0.0666667 0 0 0.0666667 -148.533 -189.867)" d="M 3851.28,4771.39 L 3845.42,4774.77 L 3839.56,4771.39 L 3839.28,4483.22 L 3851.28,4490.15 L 3851.28,4771.39 Z " />
<path stroke="none" fill="#000000" transform="matrix(0.0666667 0 0 0.0666667 -148.533 -189.867)" d="M 3903.26,4744.84 L 3891.26,4744.84 L 3891.26,4516.7 L 3903.26,4516.7 L 3903.26,4744.84 Z " />
<path stroke="none" fill="#000000" transform="matrix(0.0666667 0 0 0.0666667 -148.533 -189.867)" d="M 3851.28,4490.15 L 3839.28,4483.22 L 4090.44,4338.46 L 4094.84,4342.77 L 4094.84,4349.54 L 3851.28,4490.15 Z " />
<path stroke="none" fill="#000000" transform="matrix(0.0666667 0 0 0.0666667 -148.533 -189.867)" d="M 4338.32,3909.12 L 4344.25,3910.77 L 4346.45,3918.69 L 4102.79,4340.72 L 4094.84,4342.77 L 4090.44,4338.46 L 4338.32,3909.12 Z " />
<path stroke="none" fill="#000000" transform="matrix(0.0666667 0 0 0.0666667 -148.533 -189.867)" d="M 4094.84,4349.54 L 4094.84,4342.77 L 4102.79,4340.72 L 4344.36,4480.06 L 4344.25,4486.77 L 4338.4,4490.15 L 4094.84,4349.54 Z " />
<path stroke="none" fill="#000000" transform="matrix(0.0666667 0 0 0.0666667 -148.533 -189.867)" d="M 4091.84,4407.83 L 4097.84,4397.43 L 4295.41,4511.5 L 4289.41,4521.9 L 4091.84,4407.83 Z " />
<path stroke="none" fill="#000000" transform="matrix(0.0666667 0 0 0.0666667 -148.533 -189.867)" d="M 4487.81,4396.96 L 4493.81,4407.35 L 4350.12,4490.03 L 4344.25,4486.77 L 4344.36,4480.06 L 4487.81,4396.96 Z " />
<path stroke="none" fill="#000000" transform="matrix(0.0666667 0 0 0.0666667 -148.533 -189.867)" d="M 4350.11,4771.39 L 4344.25,4774.77 L 4338.4,4771.39 L 4338.4,4490.15 L 4344.25,4486.77 L 4350.12,4490.03 L 4350.11,4771.39 Z " />
<path stroke="none" fill="#000000" transform="matrix(0.0666667 0 0 0.0666667 -148.533 -189.867)" d="M 5098.27,4339.33 L 5092.5,4342.77 L 5086.73,4339.33 L 5086.5,4163.94 L 5098.5,4163.94 L 5098.27,4339.33 Z " />
<path stroke="none" fill="#000000" transform="matrix(0.0666667 0 0 0.0666667 -148.533 -189.867)" d="M 5336.05,3907.47 L 5341.92,3910.77 L 5341.84,3917.5 L 5175.42,4013.83 L 5169.42,4003.43 L 5336.05,3907.47 Z " />
<path stroke="none" fill="#000000" transform="matrix(0.0666667 0 0 0.0666667 -148.533 -189.867)" d="M 5001.81,3995.48 L 4995.81,4005.87 L 4843.18,3917.49 L 4843.08,3910.77 L 4848.95,3907.49 L 5001.81,3995.48 Z " />
<path stroke="none" fill="#000000" transform="matrix(0.0666667 0 0 0.0666667 -148.533 -189.867)" d="M 4599.46,4058.2 L 4593.67,4054.77 L 4593.67,4048.01 L 4837.23,3907.39 L 4843.08,3910.77 L 4843.18,3917.49 L 4599.46,4058.2 Z " />
<path stroke="none" fill="#000000" transform="matrix(0.0666667 0 0 0.0666667 -148.533 -189.867)" d="M 4848.95,3907.49 L 4843.08,3910.77 L 4837.23,3907.39 L 4837.23,3626.15 L 4849.23,3619.22 L 4848.95,3907.49 Z " />
<path stroke="none" fill="#000000" transform="matrix(0.0666667 0 0 0.0666667 -148.533 -189.867)" d="M 4797.24,3880.84 L 4785.24,3880.84 L 4785.24,3652.7 L 4797.24,3652.7 L 4797.24,3880.84 Z " />
<path stroke="none" fill="#000000" transform="matrix(0.0666667 0 0 0.0666667 -148.533 -189.867)" d="M 4593.67,3485.54 L 4593.67,3478.77 L 4599.53,3475.39 L 4849.23,3619.22 L 4837.23,3626.15 L 4593.67,3485.54 Z " />
<path stroke="none" fill="#000000" transform="matrix(0.0666667 0 0 0.0666667 -148.533 -189.867)" d="M 4585.54,4920.71 L 4593.67,4918.77 L 4586.38,4941.74 L 4074.39,5782.93 L 4068.16,5781.68 L 4065.52,5774.59 L 4585.54,4920.71 Z " />
<path stroke="none" fill="#000000" transform="matrix(0.0666667 0 0 0.0666667 -148.533 -189.867)" d="M 4586.38,4941.74 L 4593.67,4918.77 L 4599.41,4922.23 L 4536.46,5836.78 L 4530.1,5843 L 4524.2,5841.55 L 4586.38,4941.74 Z " />
<path stroke="none" fill="#000000" transform="matrix(0.0666667 0 0 0.0666667 -148.533 -189.867)" d="M 5585.71,4922.3 L 5591.33,4918.77 L 5599.64,4943.04 L 5700.45,5885.18 L 5694.59,5886.69 L 5687.97,5880.36 L 5585.71,4922.3 Z " />
<path stroke="none" fill="#000000" transform="matrix(0.0666667 0 0 0.0666667 -148.533 -189.867)" d="M 5599.64,4943.04 L 5591.33,4918.77 L 5599.5,4920.69 L 6159.99,5824.84 L 6157.35,5831.87 L 6151.09,5833.11 L 5599.64,4943.04 Z " />
</svg>
