<?xml version="1.0"?>
<svg version="1.1" id="topsvg"
xmlns="http://www.w3.org/2000/svg" xmlns:xlink="http://www.w3.org/1999/xlink"
xmlns:cml="http://www.xml-cml.org/schema" x="0" y="0" width="200px" height="200px" viewBox="0 0 100 100">
<title>GD379.sdf - Open Babel Depiction</title>
<rect x="0" y="0" width="100" height="100" fill="white"/>
<g transform="translate(0,0)">
<svg width="100" height="100" x="0" y="0" viewBox="0 0 605.673 617.604"
font-family="sans-serif" stroke="rgb(0,0,0)" stroke-width="3"  stroke-linecap="round">
<line x1="197.0" y1="247.3" x2="185.1" y2="211.0" opacity="1.0" stroke="rgb(0,0,0)"  stroke-width="3"/>
<line x1="114.8" y1="389.6" x2="77.4" y2="397.6" opacity="1.0" stroke="rgb(0,0,0)"  stroke-width="3"/>
<line x1="290.9" y1="434.6" x2="290.9" y2="459.9" opacity="1.0" stroke="rgb(0,0,0)"  stroke-width="3"/>
<line x1="185.1" y1="211.0" x2="175.2" y2="174.0" opacity="1.0" stroke="rgb(0,0,0)"  stroke-width="3"/>
<line x1="77.4" y1="397.6" x2="40.0" y2="405.5" opacity="1.0" stroke="rgb(0,0,0)"  stroke-width="3"/>
<line x1="65.6" y1="433.9" x2="77.4" y2="397.6" opacity="1.0" stroke="rgb(0,0,0)"  stroke-width="3"/>
<line x1="185.1" y1="211.0" x2="212.2" y2="183.9" opacity="1.0" stroke="rgb(0,0,0)"  stroke-width="3"/>
<line x1="185.1" y1="211.0" x2="148.2" y2="201.1" opacity="1.0" stroke="rgb(0,0,0)"  stroke-width="3"/>
<line x1="77.4" y1="397.6" x2="51.8" y2="369.1" opacity="1.0" stroke="rgb(0,0,0)"  stroke-width="3"/>
<line x1="392.5" y1="223.3" x2="384.7" y2="247.3" opacity="1.0" stroke="rgb(0,0,0)"  stroke-width="3"/>
<line x1="466.9" y1="389.6" x2="504.4" y2="397.6" opacity="1.0" stroke="rgb(0,0,0)"  stroke-width="3"/>
<line x1="504.4" y1="397.6" x2="516.3" y2="434.1" opacity="1.0" stroke="rgb(0,0,0)"  stroke-width="3"/>
<line x1="504.4" y1="397.6" x2="530.1" y2="369.1" opacity="1.0" stroke="rgb(0,0,0)"  stroke-width="3"/>
<line x1="504.4" y1="397.6" x2="492.6" y2="361.1" opacity="1.0" stroke="rgb(0,0,0)"  stroke-width="3"/>
<line x1="343.0" y1="110.1" x2="327.4" y2="75.1" opacity="1.0" stroke="rgb(0,0,0)"  stroke-width="3"/>
<line x1="327.4" y1="75.1" x2="349.9" y2="44.0" opacity="1.0" stroke="rgb(0,0,0)"  stroke-width="3"/>
<line x1="327.4" y1="75.1" x2="289.2" y2="71.1" opacity="1.0" stroke="rgb(0,0,0)"  stroke-width="3"/>
<line x1="327.4" y1="75.1" x2="311.7" y2="40.0" opacity="1.0" stroke="rgb(0,0,0)"  stroke-width="3"/>
<line x1="499.2" y1="160.9" x2="532.4" y2="141.7" opacity="1.0" stroke="rgb(0,0,0)"  stroke-width="3"/>
<line x1="532.4" y1="141.7" x2="565.7" y2="160.9" opacity="1.0" stroke="rgb(0,0,0)"  stroke-width="3"/>
<line x1="532.4" y1="141.7" x2="532.4" y2="103.3" opacity="1.0" stroke="rgb(0,0,0)"  stroke-width="3"/>
<line x1="532.4" y1="141.7" x2="565.7" y2="122.5" opacity="1.0" stroke="rgb(0,0,0)"  stroke-width="3"/>
<line x1="164.1" y1="345.3" x2="183.2" y2="312.1" opacity="1.0" stroke="rgb(0,0,0)"  stroke-width="3"/>
<line x1="183.2" y1="312.1" x2="220.6" y2="320.1" opacity="1.0" stroke="rgb(0,0,0)"  stroke-width="3"/>
<line x1="187.6" y1="320.4" x2="213.2" y2="325.9" opacity="1.0" stroke="rgb(0,0,0)"  stroke-width="3"/>
<line x1="220.6" y1="320.1" x2="223.2" y2="345.2" opacity="1.0" stroke="rgb(0,0,0)"  stroke-width="3"/>
<line x1="212.7" y1="363.4" x2="189.7" y2="373.7" opacity="1.0" stroke="rgb(0,0,0)"  stroke-width="3"/>
<line x1="189.7" y1="373.7" x2="164.1" y2="345.3" opacity="1.0" stroke="rgb(0,0,0)"  stroke-width="3"/>
<line x1="191.0" y1="364.4" x2="173.4" y2="344.9" opacity="1.0" stroke="rgb(0,0,0)"  stroke-width="3"/>
<line x1="417.6" y1="345.3" x2="392.0" y2="373.7" opacity="1.0" stroke="rgb(0,0,0)"  stroke-width="3"/>
<line x1="408.3" y1="344.9" x2="390.7" y2="364.4" opacity="1.0" stroke="rgb(0,0,0)"  stroke-width="3"/>
<line x1="392.0" y1="373.7" x2="369.0" y2="363.4" opacity="1.0" stroke="rgb(0,0,0)"  stroke-width="3"/>
<line x1="358.5" y1="345.2" x2="361.1" y2="320.1" opacity="1.0" stroke="rgb(0,0,0)"  stroke-width="3"/>
<line x1="361.1" y1="320.1" x2="398.5" y2="312.1" opacity="1.0" stroke="rgb(0,0,0)"  stroke-width="3"/>
<line x1="368.5" y1="325.9" x2="394.1" y2="320.4" opacity="1.0" stroke="rgb(0,0,0)"  stroke-width="3"/>
<line x1="398.5" y1="312.1" x2="417.6" y2="345.3" opacity="1.0" stroke="rgb(0,0,0)"  stroke-width="3"/>
<line x1="432.9" y1="199.1" x2="432.9" y2="160.9" opacity="1.0" stroke="rgb(0,0,0)"  stroke-width="3"/>
<line x1="425.7" y1="193.1" x2="425.7" y2="166.9" opacity="1.0" stroke="rgb(0,0,0)"  stroke-width="3"/>
<line x1="432.9" y1="160.9" x2="396.6" y2="149.1" opacity="1.0" stroke="rgb(0,0,0)"  stroke-width="3"/>
<line x1="396.6" y1="149.1" x2="374.1" y2="180.0" opacity="1.0" stroke="rgb(0,0,0)"  stroke-width="3"/>
<line x1="398.9" y1="158.2" x2="383.4" y2="179.4" opacity="1.0" stroke="rgb(0,0,0)"  stroke-width="3"/>
<line x1="374.1" y1="180.0" x2="388.9" y2="200.4" opacity="1.0" stroke="rgb(0,0,0)"  stroke-width="3"/>
<line x1="408.9" y1="206.9" x2="432.9" y2="199.1" opacity="1.0" stroke="rgb(0,0,0)"  stroke-width="3"/>
<line x1="257.7" y1="415.5" x2="290.9" y2="434.6" opacity="1.0" stroke="rgb(0,0,0)"  stroke-width="3"/>
<line x1="290.9" y1="434.6" x2="324.0" y2="415.5" opacity="1.0" stroke="rgb(0,0,0)"  stroke-width="3"/>
<line x1="292.4" y1="425.4" x2="315.2" y2="412.3" opacity="1.0" stroke="rgb(0,0,0)"  stroke-width="3"/>
<line x1="324.0" y1="415.5" x2="324.0" y2="377.3" opacity="1.0" stroke="rgb(0,0,0)"  stroke-width="3"/>
<line x1="324.0" y1="377.3" x2="290.9" y2="358.1" opacity="1.0" stroke="rgb(0,0,0)"  stroke-width="3"/>
<line x1="315.2" y1="380.5" x2="292.4" y2="367.4" opacity="1.0" stroke="rgb(0,0,0)"  stroke-width="3"/>
<line x1="290.9" y1="358.1" x2="257.7" y2="377.3" opacity="1.0" stroke="rgb(0,0,0)"  stroke-width="3"/>
<line x1="257.7" y1="377.3" x2="257.7" y2="415.5" opacity="1.0" stroke="rgb(0,0,0)"  stroke-width="3"/>
<line x1="264.9" y1="383.3" x2="264.9" y2="409.5" opacity="1.0" stroke="rgb(0,0,0)"  stroke-width="3"/>
<line x1="220.6" y1="320.1" x2="246.2" y2="291.7" opacity="1.0" stroke="rgb(0,0,0)"  stroke-width="3"/>
<line x1="246.2" y1="291.7" x2="279.9" y2="312.9" opacity="1.0" stroke="rgb(0,0,0)"  stroke-width="3"/>
<line x1="290.9" y1="332.9" x2="290.9" y2="358.1" opacity="1.0" stroke="rgb(0,0,0)"  stroke-width="3"/>
<line x1="257.7" y1="377.3" x2="235.9" y2="364.6" opacity="1.0" stroke="rgb(0,0,0)"  stroke-width="3"/>
<line x1="345.8" y1="364.6" x2="324.0" y2="377.3" opacity="1.0" stroke="rgb(0,0,0)"  stroke-width="3"/>
<line x1="301.8" y1="312.9" x2="335.5" y2="291.7" opacity="1.0" stroke="rgb(0,0,0)"  stroke-width="3"/>
<line x1="335.5" y1="291.7" x2="361.1" y2="320.1" opacity="1.0" stroke="rgb(0,0,0)"  stroke-width="3"/>
<line x1="114.8" y1="389.6" x2="140.4" y2="418.0" opacity="1.0" stroke="rgb(0,0,0)"  stroke-width="3"/>
<line x1="140.4" y1="418.0" x2="177.8" y2="410.1" opacity="1.0" stroke="rgb(0,0,0)"  stroke-width="3"/>
<line x1="144.8" y1="409.7" x2="170.5" y2="404.3" opacity="1.0" stroke="rgb(0,0,0)"  stroke-width="3"/>
<line x1="177.8" y1="410.1" x2="189.7" y2="373.7" opacity="1.0" stroke="rgb(0,0,0)"  stroke-width="3"/>
<line x1="164.1" y1="345.3" x2="126.6" y2="353.2" opacity="1.0" stroke="rgb(0,0,0)"  stroke-width="3"/>
<line x1="126.6" y1="353.2" x2="114.8" y2="389.6" opacity="1.0" stroke="rgb(0,0,0)"  stroke-width="3"/>
<line x1="131.6" y1="361.2" x2="123.5" y2="386.1" opacity="1.0" stroke="rgb(0,0,0)"  stroke-width="3"/>
<line x1="466.9" y1="389.6" x2="441.3" y2="418.0" opacity="1.0" stroke="rgb(0,0,0)"  stroke-width="3"/>
<line x1="441.3" y1="418.0" x2="403.9" y2="410.1" opacity="1.0" stroke="rgb(0,0,0)"  stroke-width="3"/>
<line x1="436.9" y1="409.7" x2="411.2" y2="404.3" opacity="1.0" stroke="rgb(0,0,0)"  stroke-width="3"/>
<line x1="403.9" y1="410.1" x2="392.0" y2="373.7" opacity="1.0" stroke="rgb(0,0,0)"  stroke-width="3"/>
<line x1="417.6" y1="345.3" x2="455.1" y2="353.2" opacity="1.0" stroke="rgb(0,0,0)"  stroke-width="3"/>
<line x1="455.1" y1="353.2" x2="466.9" y2="389.6" opacity="1.0" stroke="rgb(0,0,0)"  stroke-width="3"/>
<line x1="450.1" y1="361.2" x2="458.2" y2="386.1" opacity="1.0" stroke="rgb(0,0,0)"  stroke-width="3"/>
<line x1="384.7" y1="247.3" x2="347.3" y2="255.3" opacity="1.0" stroke="rgb(0,0,0)"  stroke-width="3"/>
<line x1="347.3" y1="255.3" x2="335.5" y2="291.7" opacity="1.0" stroke="rgb(0,0,0)"  stroke-width="3"/>
<line x1="352.3" y1="263.2" x2="344.2" y2="288.2" opacity="1.0" stroke="rgb(0,0,0)"  stroke-width="3"/>
<line x1="398.5" y1="312.1" x2="410.3" y2="275.8" opacity="1.0" stroke="rgb(0,0,0)"  stroke-width="3"/>
<line x1="410.3" y1="275.8" x2="384.7" y2="247.3" opacity="1.0" stroke="rgb(0,0,0)"  stroke-width="3"/>
<line x1="401.0" y1="276.1" x2="383.4" y2="256.6" opacity="1.0" stroke="rgb(0,0,0)"  stroke-width="3"/>
<line x1="183.2" y1="312.1" x2="171.4" y2="275.8" opacity="1.0" stroke="rgb(0,0,0)"  stroke-width="3"/>
<line x1="171.4" y1="275.8" x2="197.0" y2="247.3" opacity="1.0" stroke="rgb(0,0,0)"  stroke-width="3"/>
<line x1="180.7" y1="276.1" x2="198.3" y2="256.6" opacity="1.0" stroke="rgb(0,0,0)"  stroke-width="3"/>
<line x1="197.0" y1="247.3" x2="234.4" y2="255.3" opacity="1.0" stroke="rgb(0,0,0)"  stroke-width="3"/>
<line x1="234.4" y1="255.3" x2="246.2" y2="291.7" opacity="1.0" stroke="rgb(0,0,0)"  stroke-width="3"/>
<line x1="229.4" y1="263.2" x2="237.5" y2="288.2" opacity="1.0" stroke="rgb(0,0,0)"  stroke-width="3"/>
<line x1="273.3" y1="546.1" x2="256.9" y2="511.5" opacity="1.0" stroke="rgb(0,0,0)"  stroke-width="3"/>
<line x1="264.3" y1="543.7" x2="253.0" y2="520.0" opacity="1.0" stroke="rgb(0,0,0)"  stroke-width="3"/>
<line x1="256.9" y1="511.5" x2="218.8" y2="508.8" opacity="1.0" stroke="rgb(0,0,0)"  stroke-width="3"/>
<line x1="218.8" y1="508.8" x2="197.7" y2="540.8" opacity="1.0" stroke="rgb(0,0,0)"  stroke-width="3"/>
<line x1="221.5" y1="517.8" x2="207.1" y2="539.7" opacity="1.0" stroke="rgb(0,0,0)"  stroke-width="3"/>
<line x1="197.7" y1="540.8" x2="214.2" y2="574.9" opacity="1.0" stroke="rgb(0,0,0)"  stroke-width="3"/>
<line x1="214.2" y1="574.9" x2="252.3" y2="577.6" opacity="1.0" stroke="rgb(0,0,0)"  stroke-width="3"/>
<line x1="220.6" y1="568.2" x2="246.8" y2="570.0" opacity="1.0" stroke="rgb(0,0,0)"  stroke-width="3"/>
<line x1="252.3" y1="577.6" x2="273.3" y2="546.1" opacity="1.0" stroke="rgb(0,0,0)"  stroke-width="3"/>
<line x1="94.7" y1="533.6" x2="128.6" y2="551.2" opacity="1.0" stroke="rgb(0,0,0)"  stroke-width="3"/>
<line x1="103.3" y1="530.0" x2="126.6" y2="542.1" opacity="1.0" stroke="rgb(0,0,0)"  stroke-width="3"/>
<line x1="128.6" y1="551.2" x2="160.9" y2="530.6" opacity="1.0" stroke="rgb(0,0,0)"  stroke-width="3"/>
<line x1="160.9" y1="530.6" x2="159.1" y2="492.4" opacity="1.0" stroke="rgb(0,0,0)"  stroke-width="3"/>
<line x1="153.4" y1="525.0" x2="152.2" y2="498.7" opacity="1.0" stroke="rgb(0,0,0)"  stroke-width="3"/>
<line x1="159.1" y1="492.4" x2="125.2" y2="474.8" opacity="1.0" stroke="rgb(0,0,0)"  stroke-width="3"/>
<line x1="125.2" y1="474.8" x2="92.9" y2="495.4" opacity="1.0" stroke="rgb(0,0,0)"  stroke-width="3"/>
<line x1="124.0" y1="484.1" x2="101.9" y2="498.3" opacity="1.0" stroke="rgb(0,0,0)"  stroke-width="3"/>
<line x1="92.9" y1="495.4" x2="94.7" y2="533.6" opacity="1.0" stroke="rgb(0,0,0)"  stroke-width="3"/>
<line x1="310.5" y1="572.0" x2="348.7" y2="573.7" opacity="1.0" stroke="rgb(0,0,0)"  stroke-width="3"/>
<line x1="316.8" y1="565.0" x2="343.1" y2="566.2" opacity="1.0" stroke="rgb(0,0,0)"  stroke-width="3"/>
<line x1="348.7" y1="573.7" x2="369.6" y2="541.6" opacity="1.0" stroke="rgb(0,0,0)"  stroke-width="3"/>
<line x1="369.6" y1="541.6" x2="351.7" y2="507.8" opacity="1.0" stroke="rgb(0,0,0)"  stroke-width="3"/>
<line x1="360.5" y1="539.7" x2="348.1" y2="516.5" opacity="1.0" stroke="rgb(0,0,0)"  stroke-width="3"/>
<line x1="351.7" y1="507.8" x2="313.5" y2="506.1" opacity="1.0" stroke="rgb(0,0,0)"  stroke-width="3"/>
<line x1="313.5" y1="506.1" x2="293.2" y2="538.2" opacity="1.0" stroke="rgb(0,0,0)"  stroke-width="3"/>
<line x1="316.4" y1="515.0" x2="302.5" y2="537.0" opacity="1.0" stroke="rgb(0,0,0)"  stroke-width="3"/>
<line x1="293.2" y1="538.2" x2="310.5" y2="572.0" opacity="1.0" stroke="rgb(0,0,0)"  stroke-width="3"/>
<line x1="478.2" y1="506.4" x2="448.1" y2="482.8" opacity="1.0" stroke="rgb(0,0,0)"  stroke-width="3"/>
<line x1="469.1" y1="508.4" x2="448.4" y2="492.2" opacity="1.0" stroke="rgb(0,0,0)"  stroke-width="3"/>
<line x1="448.1" y1="482.8" x2="412.6" y2="497.1" opacity="1.0" stroke="rgb(0,0,0)"  stroke-width="3"/>
<line x1="412.6" y1="497.1" x2="407.3" y2="535.0" opacity="1.0" stroke="rgb(0,0,0)"  stroke-width="3"/>
<line x1="418.9" y1="504.1" x2="415.3" y2="530.1" opacity="1.0" stroke="rgb(0,0,0)"  stroke-width="3"/>
<line x1="407.3" y1="535.0" x2="437.4" y2="558.6" opacity="1.0" stroke="rgb(0,0,0)"  stroke-width="3"/>
<line x1="437.4" y1="558.6" x2="472.9" y2="544.3" opacity="1.0" stroke="rgb(0,0,0)"  stroke-width="3"/>
<line x1="440.3" y1="549.6" x2="464.6" y2="539.8" opacity="1.0" stroke="rgb(0,0,0)"  stroke-width="3"/>
<line x1="472.9" y1="544.3" x2="478.2" y2="506.4" opacity="1.0" stroke="rgb(0,0,0)"  stroke-width="3"/>
<line x1="320.5" y1="141.1" x2="336.0" y2="176.0" opacity="1.0" stroke="rgb(0,0,0)"  stroke-width="3"/>
<line x1="329.5" y1="143.6" x2="340.2" y2="167.6" opacity="1.0" stroke="rgb(0,0,0)"  stroke-width="3"/>
<line x1="336.0" y1="176.0" x2="374.1" y2="180.0" opacity="1.0" stroke="rgb(0,0,0)"  stroke-width="3"/>
<line x1="396.6" y1="149.1" x2="381.0" y2="114.1" opacity="1.0" stroke="rgb(0,0,0)"  stroke-width="3"/>
<line x1="381.0" y1="114.1" x2="343.0" y2="110.1" opacity="1.0" stroke="rgb(0,0,0)"  stroke-width="3"/>
<line x1="374.3" y1="120.7" x2="348.2" y2="117.9" opacity="1.0" stroke="rgb(0,0,0)"  stroke-width="3"/>
<line x1="343.0" y1="110.1" x2="320.5" y2="141.1" opacity="1.0" stroke="rgb(0,0,0)"  stroke-width="3"/>
<line x1="499.2" y1="160.9" x2="466.1" y2="141.8" opacity="1.0" stroke="rgb(0,0,0)"  stroke-width="3"/>
<line x1="490.4" y1="164.1" x2="467.7" y2="151.0" opacity="1.0" stroke="rgb(0,0,0)"  stroke-width="3"/>
<line x1="466.1" y1="141.8" x2="432.9" y2="160.9" opacity="1.0" stroke="rgb(0,0,0)"  stroke-width="3"/>
<line x1="432.9" y1="199.1" x2="466.1" y2="218.3" opacity="1.0" stroke="rgb(0,0,0)"  stroke-width="3"/>
<line x1="466.1" y1="218.3" x2="499.2" y2="199.1" opacity="1.0" stroke="rgb(0,0,0)"  stroke-width="3"/>
<line x1="467.7" y1="209.0" x2="490.4" y2="195.9" opacity="1.0" stroke="rgb(0,0,0)"  stroke-width="3"/>
<line x1="499.2" y1="199.1" x2="499.2" y2="160.9" opacity="1.0" stroke="rgb(0,0,0)"  stroke-width="3"/>
<line x1="160.9" y1="530.6" x2="197.7" y2="540.8" opacity="1.0" stroke="rgb(0,0,0)"  stroke-width="3"/>
<line x1="218.8" y1="508.8" x2="194.9" y2="479.0" opacity="1.0" stroke="rgb(0,0,0)"  stroke-width="3"/>
<line x1="194.9" y1="479.0" x2="159.1" y2="492.4" opacity="1.0" stroke="rgb(0,0,0)"  stroke-width="3"/>
<line x1="369.6" y1="541.6" x2="407.3" y2="535.0" opacity="1.0" stroke="rgb(0,0,0)"  stroke-width="3"/>
<line x1="412.6" y1="497.1" x2="378.3" y2="480.3" opacity="1.0" stroke="rgb(0,0,0)"  stroke-width="3"/>
<line x1="378.3" y1="480.3" x2="351.7" y2="507.8" opacity="1.0" stroke="rgb(0,0,0)"  stroke-width="3"/>
<line x1="324.0" y1="415.5" x2="378.3" y2="480.3" opacity="1.0" stroke="rgb(0,0,0)"  stroke-width="3"/>
<line x1="378.3" y1="480.3" x2="403.9" y2="410.1" opacity="1.0" stroke="rgb(0,0,0)"  stroke-width="3"/>
<line x1="177.8" y1="410.1" x2="194.9" y2="479.0" opacity="1.0" stroke="rgb(0,0,0)"  stroke-width="3"/>
<line x1="194.9" y1="479.0" x2="257.7" y2="415.5" opacity="1.0" stroke="rgb(0,0,0)"  stroke-width="3"/>
<text x="390.561214" y="218.961675" fill="rgb(12,12,255)" stroke-width="0" font-weight="bold" font-size="25.92" >N</text>
<text x="284.851859" y="480.887135" fill="rgb(127,178,255)" stroke-width="0" font-weight="bold" font-size="25.92" >F</text>
<text x="351.103126" y="366.136595" fill="rgb(12,12,255)" stroke-width="0" font-weight="bold" font-size="25.92" >N</text>
<text x="218.600592" y="366.136595" fill="rgb(12,12,255)" stroke-width="0" font-weight="bold" font-size="25.92" >N</text>
<text x="284.851859" y="327.886399" fill="rgb(255,181,181)" stroke-width="0" font-weight="bold" font-size="25.92" >B</text>
</svg>
</g>
</svg>
