<?xml version="1.0"?>
<svg version="1.1" id="topsvg"
xmlns="http://www.w3.org/2000/svg" xmlns:xlink="http://www.w3.org/1999/xlink"
xmlns:cml="http://www.xml-cml.org/schema" x="0" y="0" width="200px" height="200px" viewBox="0 0 100 100">
<title>GD38.sdf - Open Babel Depiction</title>
<rect x="0" y="0" width="100" height="100" fill="white"/>
<g transform="translate(0,0)">
<svg width="100" height="100" x="0" y="0" viewBox="0 0 640.776 562.005"
font-family="sans-serif" stroke="rgb(0,0,0)" stroke-width="3"  stroke-linecap="round">
<line x1="480.4" y1="290.2" x2="520.4" y2="290.1" opacity="1.0" stroke="rgb(0,0,0)"  stroke-width="3"/>
<line x1="295.8" y1="361.4" x2="295.9" y2="401.5" opacity="1.0" stroke="rgb(0,0,0)"  stroke-width="3"/>
<line x1="330.7" y1="461.8" x2="365.4" y2="481.8" opacity="1.0" stroke="rgb(0,0,0)"  stroke-width="3"/>
<line x1="261.1" y1="461.8" x2="226.3" y2="481.8" opacity="1.0" stroke="rgb(0,0,0)"  stroke-width="3"/>
<line x1="365.4" y1="481.8" x2="400.2" y2="461.8" opacity="1.0" stroke="rgb(0,0,0)"  stroke-width="3"/>
<line x1="365.4" y1="481.8" x2="365.4" y2="522.0" opacity="1.0" stroke="rgb(0,0,0)"  stroke-width="3"/>
<line x1="365.4" y1="481.8" x2="365.4" y2="441.7" opacity="1.0" stroke="rgb(0,0,0)"  stroke-width="3"/>
<line x1="226.3" y1="481.8" x2="191.5" y2="461.8" opacity="1.0" stroke="rgb(0,0,0)"  stroke-width="3"/>
<line x1="226.3" y1="481.8" x2="226.3" y2="522.0" opacity="1.0" stroke="rgb(0,0,0)"  stroke-width="3"/>
<line x1="226.3" y1="481.8" x2="226.3" y2="441.7" opacity="1.0" stroke="rgb(0,0,0)"  stroke-width="3"/>
<line x1="138.8" y1="179.6" x2="113.8" y2="190.3" opacity="1.0" stroke="rgb(0,0,0)"  stroke-width="3"/>
<line x1="365.2" y1="160.5" x2="365.2" y2="120.3" opacity="1.0" stroke="rgb(0,0,0)"  stroke-width="3"/>
<line x1="168.9" y1="266.3" x2="192.9" y2="234.3" opacity="1.0" stroke="rgb(0,0,0)"  stroke-width="3"/>
<line x1="192.9" y1="234.3" x2="230.8" y2="247.2" opacity="1.0" stroke="rgb(0,0,0)"  stroke-width="3"/>
<line x1="230.8" y1="247.2" x2="230.4" y2="274.2" opacity="1.0" stroke="rgb(0,0,0)"  stroke-width="3"/>
<line x1="217.8" y1="291.0" x2="192.0" y2="299.0" opacity="1.0" stroke="rgb(0,0,0)"  stroke-width="3"/>
<line x1="192.0" y1="299.0" x2="168.9" y2="266.3" opacity="1.0" stroke="rgb(0,0,0)"  stroke-width="3"/>
<line x1="194.4" y1="290.0" x2="178.2" y2="267.1" opacity="1.0" stroke="rgb(0,0,0)"  stroke-width="3"/>
<line x1="159.7" y1="135.5" x2="199.5" y2="131.9" opacity="1.0" stroke="rgb(0,0,0)"  stroke-width="3"/>
<line x1="166.3" y1="142.1" x2="194.2" y2="139.6" opacity="1.0" stroke="rgb(0,0,0)"  stroke-width="3"/>
<line x1="199.5" y1="131.9" x2="215.3" y2="168.7" opacity="1.0" stroke="rgb(0,0,0)"  stroke-width="3"/>
<line x1="215.3" y1="168.7" x2="185.1" y2="195.0" opacity="1.0" stroke="rgb(0,0,0)"  stroke-width="3"/>
<line x1="185.1" y1="195.0" x2="161.9" y2="181.1" opacity="1.0" stroke="rgb(0,0,0)"  stroke-width="3"/>
<line x1="153.7" y1="161.8" x2="159.7" y2="135.5" opacity="1.0" stroke="rgb(0,0,0)"  stroke-width="3"/>
<line x1="420.1" y1="255.5" x2="400.1" y2="290.3" opacity="1.0" stroke="rgb(0,0,0)"  stroke-width="3"/>
<line x1="410.9" y1="257.1" x2="396.9" y2="281.5" opacity="1.0" stroke="rgb(0,0,0)"  stroke-width="3"/>
<line x1="400.1" y1="290.3" x2="377.9" y2="284.3" opacity="1.0" stroke="rgb(0,0,0)"  stroke-width="3"/>
<line x1="365.3" y1="268.0" x2="365.3" y2="240.8" opacity="1.0" stroke="rgb(0,0,0)"  stroke-width="3"/>
<line x1="365.3" y1="240.8" x2="400.0" y2="220.7" opacity="1.0" stroke="rgb(0,0,0)"  stroke-width="3"/>
<line x1="400.0" y1="220.7" x2="420.1" y2="255.5" opacity="1.0" stroke="rgb(0,0,0)"  stroke-width="3"/>
<line x1="192.9" y1="234.3" x2="185.1" y2="195.0" opacity="1.0" stroke="rgb(0,0,0)"  stroke-width="3"/>
<line x1="198.8" y1="227.0" x2="193.4" y2="199.5" opacity="1.0" stroke="rgb(0,0,0)"  stroke-width="3"/>
<line x1="215.3" y1="168.7" x2="253.1" y2="181.6" opacity="1.0" stroke="rgb(0,0,0)"  stroke-width="3"/>
<line x1="218.6" y1="177.4" x2="245.1" y2="186.4" opacity="1.0" stroke="rgb(0,0,0)"  stroke-width="3"/>
<line x1="253.1" y1="181.6" x2="260.9" y2="220.8" opacity="1.0" stroke="rgb(0,0,0)"  stroke-width="3"/>
<line x1="260.9" y1="220.8" x2="230.8" y2="247.2" opacity="1.0" stroke="rgb(0,0,0)"  stroke-width="3"/>
<line x1="251.6" y1="219.4" x2="230.6" y2="237.8" opacity="1.0" stroke="rgb(0,0,0)"  stroke-width="3"/>
<line x1="135.3" y1="338.9" x2="112.2" y2="306.2" opacity="1.0" stroke="rgb(0,0,0)"  stroke-width="3"/>
<line x1="112.2" y1="306.2" x2="129.0" y2="269.9" opacity="1.0" stroke="rgb(0,0,0)"  stroke-width="3"/>
<line x1="121.3" y1="303.8" x2="133.1" y2="278.4" opacity="1.0" stroke="rgb(0,0,0)"  stroke-width="3"/>
<line x1="129.0" y1="269.9" x2="168.9" y2="266.3" opacity="1.0" stroke="rgb(0,0,0)"  stroke-width="3"/>
<line x1="192.0" y1="299.0" x2="175.1" y2="335.3" opacity="1.0" stroke="rgb(0,0,0)"  stroke-width="3"/>
<line x1="175.1" y1="335.3" x2="135.3" y2="338.9" opacity="1.0" stroke="rgb(0,0,0)"  stroke-width="3"/>
<line x1="168.5" y1="328.7" x2="140.6" y2="331.2" opacity="1.0" stroke="rgb(0,0,0)"  stroke-width="3"/>
<line x1="330.6" y1="341.3" x2="295.8" y2="361.4" opacity="1.0" stroke="rgb(0,0,0)"  stroke-width="3"/>
<line x1="295.8" y1="361.4" x2="261.0" y2="341.3" opacity="1.0" stroke="rgb(0,0,0)"  stroke-width="3"/>
<line x1="294.2" y1="352.1" x2="269.8" y2="338.1" opacity="1.0" stroke="rgb(0,0,0)"  stroke-width="3"/>
<line x1="261.0" y1="341.3" x2="261.0" y2="301.2" opacity="1.0" stroke="rgb(0,0,0)"  stroke-width="3"/>
<line x1="261.0" y1="301.2" x2="295.7" y2="281.0" opacity="1.0" stroke="rgb(0,0,0)"  stroke-width="3"/>
<line x1="269.8" y1="304.4" x2="294.2" y2="290.3" opacity="1.0" stroke="rgb(0,0,0)"  stroke-width="3"/>
<line x1="295.7" y1="281.0" x2="330.5" y2="301.1" opacity="1.0" stroke="rgb(0,0,0)"  stroke-width="3"/>
<line x1="330.5" y1="301.1" x2="330.6" y2="341.3" opacity="1.0" stroke="rgb(0,0,0)"  stroke-width="3"/>
<line x1="323.4" y1="307.1" x2="323.4" y2="335.3" opacity="1.0" stroke="rgb(0,0,0)"  stroke-width="3"/>
<line x1="153.4" y1="66.4" x2="193.3" y2="62.8" opacity="1.0" stroke="rgb(0,0,0)"  stroke-width="3"/>
<line x1="193.3" y1="62.8" x2="216.3" y2="95.5" opacity="1.0" stroke="rgb(0,0,0)"  stroke-width="3"/>
<line x1="190.8" y1="71.9" x2="207.0" y2="94.8" opacity="1.0" stroke="rgb(0,0,0)"  stroke-width="3"/>
<line x1="216.3" y1="95.5" x2="199.5" y2="131.9" opacity="1.0" stroke="rgb(0,0,0)"  stroke-width="3"/>
<line x1="159.7" y1="135.5" x2="136.6" y2="102.7" opacity="1.0" stroke="rgb(0,0,0)"  stroke-width="3"/>
<line x1="136.6" y1="102.7" x2="153.4" y2="66.4" opacity="1.0" stroke="rgb(0,0,0)"  stroke-width="3"/>
<line x1="145.7" y1="100.3" x2="157.4" y2="74.9" opacity="1.0" stroke="rgb(0,0,0)"  stroke-width="3"/>
<line x1="260.9" y1="220.8" x2="284.4" y2="234.4" opacity="1.0" stroke="rgb(0,0,0)"  stroke-width="3"/>
<line x1="295.7" y1="253.9" x2="295.7" y2="281.0" opacity="1.0" stroke="rgb(0,0,0)"  stroke-width="3"/>
<line x1="261.0" y1="301.2" x2="242.0" y2="292.6" opacity="1.0" stroke="rgb(0,0,0)"  stroke-width="3"/>
<line x1="354.1" y1="287.5" x2="330.5" y2="301.1" opacity="1.0" stroke="rgb(0,0,0)"  stroke-width="3"/>
<line x1="307.0" y1="234.4" x2="330.5" y2="220.8" opacity="1.0" stroke="rgb(0,0,0)"  stroke-width="3"/>
<line x1="330.5" y1="220.8" x2="365.3" y2="240.8" opacity="1.0" stroke="rgb(0,0,0)"  stroke-width="3"/>
<line x1="332.1" y1="230.0" x2="356.5" y2="244.1" opacity="1.0" stroke="rgb(0,0,0)"  stroke-width="3"/>
<line x1="480.4" y1="290.2" x2="460.4" y2="325.0" opacity="1.0" stroke="rgb(0,0,0)"  stroke-width="3"/>
<line x1="460.4" y1="325.0" x2="420.2" y2="325.0" opacity="1.0" stroke="rgb(0,0,0)"  stroke-width="3"/>
<line x1="454.4" y1="317.8" x2="426.2" y2="317.8" opacity="1.0" stroke="rgb(0,0,0)"  stroke-width="3"/>
<line x1="420.2" y1="325.0" x2="400.1" y2="290.3" opacity="1.0" stroke="rgb(0,0,0)"  stroke-width="3"/>
<line x1="420.1" y1="255.5" x2="460.3" y2="255.4" opacity="1.0" stroke="rgb(0,0,0)"  stroke-width="3"/>
<line x1="460.3" y1="255.4" x2="480.4" y2="290.2" opacity="1.0" stroke="rgb(0,0,0)"  stroke-width="3"/>
<line x1="457.1" y1="264.2" x2="471.2" y2="288.6" opacity="1.0" stroke="rgb(0,0,0)"  stroke-width="3"/>
<line x1="365.2" y1="160.5" x2="400.0" y2="180.5" opacity="1.0" stroke="rgb(0,0,0)"  stroke-width="3"/>
<line x1="400.0" y1="180.5" x2="400.0" y2="220.7" opacity="1.0" stroke="rgb(0,0,0)"  stroke-width="3"/>
<line x1="392.8" y1="186.5" x2="392.8" y2="214.7" opacity="1.0" stroke="rgb(0,0,0)"  stroke-width="3"/>
<line x1="330.5" y1="220.8" x2="330.4" y2="180.6" opacity="1.0" stroke="rgb(0,0,0)"  stroke-width="3"/>
<line x1="330.4" y1="180.6" x2="365.2" y2="160.5" opacity="1.0" stroke="rgb(0,0,0)"  stroke-width="3"/>
<line x1="339.2" y1="183.8" x2="363.6" y2="169.7" opacity="1.0" stroke="rgb(0,0,0)"  stroke-width="3"/>
<line x1="261.1" y1="421.6" x2="261.1" y2="461.8" opacity="1.0" stroke="rgb(0,0,0)"  stroke-width="3"/>
<line x1="261.1" y1="461.8" x2="295.9" y2="481.9" opacity="1.0" stroke="rgb(0,0,0)"  stroke-width="3"/>
<line x1="269.9" y1="458.5" x2="294.3" y2="472.6" opacity="1.0" stroke="rgb(0,0,0)"  stroke-width="3"/>
<line x1="295.9" y1="481.9" x2="330.7" y2="461.8" opacity="1.0" stroke="rgb(0,0,0)"  stroke-width="3"/>
<line x1="330.7" y1="461.8" x2="330.7" y2="421.6" opacity="1.0" stroke="rgb(0,0,0)"  stroke-width="3"/>
<line x1="323.5" y1="455.8" x2="323.5" y2="427.6" opacity="1.0" stroke="rgb(0,0,0)"  stroke-width="3"/>
<line x1="330.7" y1="421.6" x2="295.9" y2="401.5" opacity="1.0" stroke="rgb(0,0,0)"  stroke-width="3"/>
<line x1="295.9" y1="401.5" x2="261.1" y2="421.6" opacity="1.0" stroke="rgb(0,0,0)"  stroke-width="3"/>
<line x1="294.3" y1="410.8" x2="269.9" y2="424.8" opacity="1.0" stroke="rgb(0,0,0)"  stroke-width="3"/>
<line x1="540.6" y1="324.9" x2="580.7" y2="324.9" opacity="1.0" stroke="rgb(0,0,0)"  stroke-width="3"/>
<line x1="580.7" y1="324.9" x2="600.8" y2="290.1" opacity="1.0" stroke="rgb(0,0,0)"  stroke-width="3"/>
<line x1="577.5" y1="316.1" x2="591.5" y2="291.7" opacity="1.0" stroke="rgb(0,0,0)"  stroke-width="3"/>
<line x1="600.8" y1="290.1" x2="580.7" y2="255.4" opacity="1.0" stroke="rgb(0,0,0)"  stroke-width="3"/>
<line x1="580.7" y1="255.4" x2="540.6" y2="255.4" opacity="1.0" stroke="rgb(0,0,0)"  stroke-width="3"/>
<line x1="574.7" y1="262.6" x2="546.6" y2="262.6" opacity="1.0" stroke="rgb(0,0,0)"  stroke-width="3"/>
<line x1="540.6" y1="255.4" x2="520.4" y2="290.1" opacity="1.0" stroke="rgb(0,0,0)"  stroke-width="3"/>
<line x1="520.4" y1="290.1" x2="540.6" y2="324.9" opacity="1.0" stroke="rgb(0,0,0)"  stroke-width="3"/>
<line x1="529.7" y1="291.7" x2="543.8" y2="316.1" opacity="1.0" stroke="rgb(0,0,0)"  stroke-width="3"/>
<line x1="81.7" y1="166.2" x2="44.8" y2="182.0" opacity="1.0" stroke="rgb(0,0,0)"  stroke-width="3"/>
<line x1="44.8" y1="182.0" x2="40.0" y2="221.9" opacity="1.0" stroke="rgb(0,0,0)"  stroke-width="3"/>
<line x1="51.2" y1="188.8" x2="47.9" y2="216.8" opacity="1.0" stroke="rgb(0,0,0)"  stroke-width="3"/>
<line x1="40.0" y1="221.9" x2="72.1" y2="246.0" opacity="1.0" stroke="rgb(0,0,0)"  stroke-width="3"/>
<line x1="72.1" y1="246.0" x2="109.1" y2="230.2" opacity="1.0" stroke="rgb(0,0,0)"  stroke-width="3"/>
<line x1="74.8" y1="237.0" x2="100.7" y2="225.9" opacity="1.0" stroke="rgb(0,0,0)"  stroke-width="3"/>
<line x1="109.1" y1="230.2" x2="113.8" y2="190.3" opacity="1.0" stroke="rgb(0,0,0)"  stroke-width="3"/>
<line x1="113.8" y1="190.3" x2="81.7" y2="166.2" opacity="1.0" stroke="rgb(0,0,0)"  stroke-width="3"/>
<line x1="104.7" y1="192.5" x2="82.2" y2="175.6" opacity="1.0" stroke="rgb(0,0,0)"  stroke-width="3"/>
<line x1="399.9" y1="100.3" x2="399.9" y2="60.1" opacity="1.0" stroke="rgb(0,0,0)"  stroke-width="3"/>
<line x1="399.9" y1="60.1" x2="365.2" y2="40.0" opacity="1.0" stroke="rgb(0,0,0)"  stroke-width="3"/>
<line x1="391.1" y1="63.3" x2="366.7" y2="49.2" opacity="1.0" stroke="rgb(0,0,0)"  stroke-width="3"/>
<line x1="365.2" y1="40.0" x2="330.4" y2="60.1" opacity="1.0" stroke="rgb(0,0,0)"  stroke-width="3"/>
<line x1="330.4" y1="60.1" x2="330.4" y2="100.3" opacity="1.0" stroke="rgb(0,0,0)"  stroke-width="3"/>
<line x1="337.6" y1="66.1" x2="337.6" y2="94.3" opacity="1.0" stroke="rgb(0,0,0)"  stroke-width="3"/>
<line x1="330.4" y1="100.3" x2="365.2" y2="120.3" opacity="1.0" stroke="rgb(0,0,0)"  stroke-width="3"/>
<line x1="365.2" y1="120.3" x2="399.9" y2="100.3" opacity="1.0" stroke="rgb(0,0,0)"  stroke-width="3"/>
<line x1="366.8" y1="111.1" x2="391.1" y2="97.0" opacity="1.0" stroke="rgb(0,0,0)"  stroke-width="3"/>
<text x="144.771935" y="182.486279" fill="rgb(12,12,255)" stroke-width="0" font-weight="bold" font-size="25.92" >N</text>
<text x="289.704441" y="248.883923" fill="rgb(255,181,181)" stroke-width="0" font-weight="bold" font-size="25.92" >B</text>
<text x="224.193260" y="295.202745" fill="rgb(12,12,255)" stroke-width="0" font-weight="bold" font-size="25.92" >N</text>
<text x="359.308276" y="288.978911" fill="rgb(12,12,255)" stroke-width="0" font-weight="bold" font-size="25.92" >N</text>
</svg>
</g>
</svg>
