<?xml version="1.0"?>
<svg version="1.1" id="topsvg"
xmlns="http://www.w3.org/2000/svg" xmlns:xlink="http://www.w3.org/1999/xlink"
xmlns:cml="http://www.xml-cml.org/schema" x="0" y="0" width="200px" height="200px" viewBox="0 0 100 100">
<title>GD380.sdf - Open Babel Depiction</title>
<rect x="0" y="0" width="100" height="100" fill="white"/>
<g transform="translate(0,0)">
<svg width="100" height="100" x="0" y="0" viewBox="0 0 773.269 480.835"
font-family="sans-serif" stroke="rgb(0,0,0)" stroke-width="3"  stroke-linecap="round">
<line x1="207.3" y1="303.3" x2="235.7" y2="277.8" opacity="1.0" stroke="rgb(0,0,0)"  stroke-width="3"/>
<line x1="207.3" y1="303.3" x2="232.9" y2="331.6" opacity="1.0" stroke="rgb(0,0,0)"  stroke-width="3"/>
<line x1="207.3" y1="303.3" x2="179.0" y2="328.8" opacity="1.0" stroke="rgb(0,0,0)"  stroke-width="3"/>
<line x1="181.7" y1="274.9" x2="207.3" y2="303.3" opacity="1.0" stroke="rgb(0,0,0)"  stroke-width="3"/>
<line x1="76.3" y1="76.3" x2="40.0" y2="88.0" opacity="1.0" stroke="rgb(0,0,0)"  stroke-width="3"/>
<line x1="76.3" y1="76.3" x2="64.5" y2="40.0" opacity="1.0" stroke="rgb(0,0,0)"  stroke-width="3"/>
<line x1="76.3" y1="76.3" x2="112.5" y2="64.5" opacity="1.0" stroke="rgb(0,0,0)"  stroke-width="3"/>
<line x1="88.1" y1="112.7" x2="76.3" y2="76.3" opacity="1.0" stroke="rgb(0,0,0)"  stroke-width="3"/>
<line x1="565.9" y1="303.3" x2="594.2" y2="328.7" opacity="1.0" stroke="rgb(0,0,0)"  stroke-width="3"/>
<line x1="565.9" y1="303.3" x2="540.5" y2="331.6" opacity="1.0" stroke="rgb(0,0,0)"  stroke-width="3"/>
<line x1="565.9" y1="303.3" x2="537.7" y2="277.9" opacity="1.0" stroke="rgb(0,0,0)"  stroke-width="3"/>
<line x1="591.5" y1="274.9" x2="565.9" y2="303.3" opacity="1.0" stroke="rgb(0,0,0)"  stroke-width="3"/>
<line x1="697.0" y1="76.3" x2="660.7" y2="64.5" opacity="1.0" stroke="rgb(0,0,0)"  stroke-width="3"/>
<line x1="697.0" y1="76.3" x2="708.8" y2="40.0" opacity="1.0" stroke="rgb(0,0,0)"  stroke-width="3"/>
<line x1="697.0" y1="76.3" x2="733.3" y2="88.0" opacity="1.0" stroke="rgb(0,0,0)"  stroke-width="3"/>
<line x1="685.2" y1="112.7" x2="697.0" y2="76.3" opacity="1.0" stroke="rgb(0,0,0)"  stroke-width="3"/>
<line x1="564.8" y1="358.6" x2="555.7" y2="321.7" opacity="1.0" stroke="rgb(0,0,0)"  stroke-width="3"/>
<line x1="564.8" y1="358.6" x2="601.6" y2="349.5" opacity="1.0" stroke="rgb(0,0,0)"  stroke-width="3"/>
<line x1="564.8" y1="358.6" x2="573.8" y2="395.5" opacity="1.0" stroke="rgb(0,0,0)"  stroke-width="3"/>
<line x1="527.7" y1="367.7" x2="564.8" y2="358.6" opacity="1.0" stroke="rgb(0,0,0)"  stroke-width="3"/>
<line x1="390.3" y1="367.6" x2="447.0" y2="250.8" opacity="1.0" stroke="rgb(0,0,0)"  stroke-width="3"/>
<line x1="416.7" y1="395.1" x2="453.7" y2="386.0" opacity="1.0" stroke="rgb(0,0,0)"  stroke-width="3"/>
<line x1="551.7" y1="67.5" x2="485.7" y2="67.5" opacity="1.0" stroke="rgb(0,0,0)"  stroke-width="3"/>
<line x1="485.7" y1="67.5" x2="485.7" y2="105.6" opacity="1.0" stroke="rgb(0,0,0)"  stroke-width="3"/>
<line x1="492.9" y1="73.5" x2="492.9" y2="99.6" opacity="1.0" stroke="rgb(0,0,0)"  stroke-width="3"/>
<line x1="485.7" y1="105.6" x2="507.5" y2="118.2" opacity="1.0" stroke="rgb(0,0,0)"  stroke-width="3"/>
<line x1="530.0" y1="118.2" x2="551.7" y2="105.6" opacity="1.0" stroke="rgb(0,0,0)"  stroke-width="3"/>
<line x1="551.7" y1="105.6" x2="551.7" y2="67.5" opacity="1.0" stroke="rgb(0,0,0)"  stroke-width="3"/>
<line x1="544.5" y1="99.6" x2="544.5" y2="73.5" opacity="1.0" stroke="rgb(0,0,0)"  stroke-width="3"/>
<line x1="332.1" y1="304.1" x2="307.5" y2="274.9" opacity="1.0" stroke="rgb(0,0,0)"  stroke-width="3"/>
<line x1="307.5" y1="274.9" x2="316.1" y2="251.3" opacity="1.0" stroke="rgb(0,0,0)"  stroke-width="3"/>
<line x1="331.9" y1="232.6" x2="353.6" y2="220.0" opacity="1.0" stroke="rgb(0,0,0)"  stroke-width="3"/>
<line x1="353.6" y1="220.0" x2="386.6" y2="239.1" opacity="1.0" stroke="rgb(0,0,0)"  stroke-width="3"/>
<line x1="386.6" y1="239.1" x2="332.1" y2="304.1" opacity="1.0" stroke="rgb(0,0,0)"  stroke-width="3"/>
<line x1="265.8" y1="118.2" x2="287.6" y2="105.6" opacity="1.0" stroke="rgb(0,0,0)"  stroke-width="3"/>
<line x1="287.6" y1="105.6" x2="287.6" y2="67.5" opacity="1.0" stroke="rgb(0,0,0)"  stroke-width="3"/>
<line x1="280.4" y1="99.6" x2="280.4" y2="73.5" opacity="1.0" stroke="rgb(0,0,0)"  stroke-width="3"/>
<line x1="287.6" y1="67.5" x2="221.5" y2="67.5" opacity="1.0" stroke="rgb(0,0,0)"  stroke-width="3"/>
<line x1="221.5" y1="67.5" x2="221.5" y2="105.6" opacity="1.0" stroke="rgb(0,0,0)"  stroke-width="3"/>
<line x1="228.7" y1="73.5" x2="228.7" y2="99.6" opacity="1.0" stroke="rgb(0,0,0)"  stroke-width="3"/>
<line x1="221.5" y1="105.6" x2="243.3" y2="118.2" opacity="1.0" stroke="rgb(0,0,0)"  stroke-width="3"/>
<line x1="551.7" y1="181.9" x2="551.7" y2="220.0" opacity="1.0" stroke="rgb(0,0,0)"  stroke-width="3"/>
<line x1="551.7" y1="220.0" x2="518.7" y2="239.1" opacity="1.0" stroke="rgb(0,0,0)"  stroke-width="3"/>
<line x1="542.9" y1="216.8" x2="520.3" y2="229.8" opacity="1.0" stroke="rgb(0,0,0)"  stroke-width="3"/>
<line x1="518.7" y1="239.1" x2="485.7" y2="220.0" opacity="1.0" stroke="rgb(0,0,0)"  stroke-width="3"/>
<line x1="485.7" y1="220.0" x2="485.7" y2="181.9" opacity="1.0" stroke="rgb(0,0,0)"  stroke-width="3"/>
<line x1="492.9" y1="214.0" x2="492.9" y2="187.9" opacity="1.0" stroke="rgb(0,0,0)"  stroke-width="3"/>
<line x1="485.7" y1="181.9" x2="518.7" y2="162.8" opacity="1.0" stroke="rgb(0,0,0)"  stroke-width="3"/>
<line x1="518.7" y1="162.8" x2="551.7" y2="181.9" opacity="1.0" stroke="rgb(0,0,0)"  stroke-width="3"/>
<line x1="520.3" y1="172.1" x2="542.9" y2="185.1" opacity="1.0" stroke="rgb(0,0,0)"  stroke-width="3"/>
<line x1="485.7" y1="105.6" x2="452.7" y2="124.7" opacity="1.0" stroke="rgb(0,0,0)"  stroke-width="3"/>
<line x1="452.7" y1="124.7" x2="452.7" y2="150.0" opacity="1.0" stroke="rgb(0,0,0)"  stroke-width="3"/>
<line x1="464.0" y1="169.4" x2="485.7" y2="181.9" opacity="1.0" stroke="rgb(0,0,0)"  stroke-width="3"/>
<line x1="518.7" y1="162.8" x2="518.7" y2="137.7" opacity="1.0" stroke="rgb(0,0,0)"  stroke-width="3"/>
<line x1="617.8" y1="67.5" x2="617.8" y2="105.6" opacity="1.0" stroke="rgb(0,0,0)"  stroke-width="3"/>
<line x1="617.8" y1="105.6" x2="584.8" y2="124.7" opacity="1.0" stroke="rgb(0,0,0)"  stroke-width="3"/>
<line x1="609.0" y1="102.4" x2="586.4" y2="115.5" opacity="1.0" stroke="rgb(0,0,0)"  stroke-width="3"/>
<line x1="584.8" y1="124.7" x2="551.7" y2="105.6" opacity="1.0" stroke="rgb(0,0,0)"  stroke-width="3"/>
<line x1="551.7" y1="67.5" x2="584.8" y2="48.4" opacity="1.0" stroke="rgb(0,0,0)"  stroke-width="3"/>
<line x1="584.8" y1="48.4" x2="617.8" y2="67.5" opacity="1.0" stroke="rgb(0,0,0)"  stroke-width="3"/>
<line x1="586.4" y1="57.7" x2="609.0" y2="70.7" opacity="1.0" stroke="rgb(0,0,0)"  stroke-width="3"/>
<line x1="485.7" y1="67.5" x2="452.7" y2="48.4" opacity="1.0" stroke="rgb(0,0,0)"  stroke-width="3"/>
<line x1="452.7" y1="48.4" x2="419.7" y2="67.5" opacity="1.0" stroke="rgb(0,0,0)"  stroke-width="3"/>
<line x1="451.1" y1="57.7" x2="428.5" y2="70.7" opacity="1.0" stroke="rgb(0,0,0)"  stroke-width="3"/>
<line x1="419.7" y1="67.5" x2="419.7" y2="105.6" opacity="1.0" stroke="rgb(0,0,0)"  stroke-width="3"/>
<line x1="419.7" y1="105.6" x2="452.7" y2="124.7" opacity="1.0" stroke="rgb(0,0,0)"  stroke-width="3"/>
<line x1="428.5" y1="102.4" x2="451.1" y2="115.5" opacity="1.0" stroke="rgb(0,0,0)"  stroke-width="3"/>
<line x1="579.7" y1="238.6" x2="591.5" y2="274.9" opacity="1.0" stroke="rgb(0,0,0)"  stroke-width="3"/>
<line x1="588.4" y1="242.1" x2="596.5" y2="266.9" opacity="1.0" stroke="rgb(0,0,0)"  stroke-width="3"/>
<line x1="591.5" y1="274.9" x2="628.8" y2="282.8" opacity="1.0" stroke="rgb(0,0,0)"  stroke-width="3"/>
<line x1="628.8" y1="282.8" x2="654.3" y2="254.5" opacity="1.0" stroke="rgb(0,0,0)"  stroke-width="3"/>
<line x1="627.5" y1="273.5" x2="645.0" y2="254.1" opacity="1.0" stroke="rgb(0,0,0)"  stroke-width="3"/>
<line x1="654.3" y1="254.5" x2="642.6" y2="218.2" opacity="1.0" stroke="rgb(0,0,0)"  stroke-width="3"/>
<line x1="642.6" y1="218.2" x2="605.3" y2="210.3" opacity="1.0" stroke="rgb(0,0,0)"  stroke-width="3"/>
<line x1="635.2" y1="224.0" x2="609.6" y2="218.6" opacity="1.0" stroke="rgb(0,0,0)"  stroke-width="3"/>
<line x1="605.3" y1="210.3" x2="579.7" y2="238.6" opacity="1.0" stroke="rgb(0,0,0)"  stroke-width="3"/>
<line x1="685.2" y1="112.7" x2="647.9" y2="120.6" opacity="1.0" stroke="rgb(0,0,0)"  stroke-width="3"/>
<line x1="680.8" y1="120.9" x2="655.3" y2="126.4" opacity="1.0" stroke="rgb(0,0,0)"  stroke-width="3"/>
<line x1="647.9" y1="120.6" x2="636.1" y2="156.8" opacity="1.0" stroke="rgb(0,0,0)"  stroke-width="3"/>
<line x1="636.1" y1="156.8" x2="661.6" y2="185.2" opacity="1.0" stroke="rgb(0,0,0)"  stroke-width="3"/>
<line x1="645.5" y1="156.5" x2="663.0" y2="175.9" opacity="1.0" stroke="rgb(0,0,0)"  stroke-width="3"/>
<line x1="661.6" y1="185.2" x2="698.9" y2="177.3" opacity="1.0" stroke="rgb(0,0,0)"  stroke-width="3"/>
<line x1="698.9" y1="177.3" x2="710.7" y2="141.0" opacity="1.0" stroke="rgb(0,0,0)"  stroke-width="3"/>
<line x1="693.9" y1="169.3" x2="702.0" y2="144.5" opacity="1.0" stroke="rgb(0,0,0)"  stroke-width="3"/>
<line x1="710.7" y1="141.0" x2="685.2" y2="112.7" opacity="1.0" stroke="rgb(0,0,0)"  stroke-width="3"/>
<line x1="485.7" y1="220.0" x2="463.9" y2="232.6" opacity="1.0" stroke="rgb(0,0,0)"  stroke-width="3"/>
<line x1="441.4" y1="232.6" x2="419.7" y2="220.0" opacity="1.0" stroke="rgb(0,0,0)"  stroke-width="3"/>
<line x1="419.7" y1="220.0" x2="419.7" y2="181.9" opacity="1.0" stroke="rgb(0,0,0)"  stroke-width="3"/>
<line x1="419.7" y1="181.9" x2="441.4" y2="169.4" opacity="1.0" stroke="rgb(0,0,0)"  stroke-width="3"/>
<line x1="254.6" y1="162.8" x2="221.5" y2="181.9" opacity="1.0" stroke="rgb(0,0,0)"  stroke-width="3"/>
<line x1="253.0" y1="172.1" x2="230.3" y2="185.1" opacity="1.0" stroke="rgb(0,0,0)"  stroke-width="3"/>
<line x1="221.5" y1="181.9" x2="221.5" y2="220.0" opacity="1.0" stroke="rgb(0,0,0)"  stroke-width="3"/>
<line x1="221.5" y1="220.0" x2="254.6" y2="239.1" opacity="1.0" stroke="rgb(0,0,0)"  stroke-width="3"/>
<line x1="230.3" y1="216.8" x2="253.0" y2="229.8" opacity="1.0" stroke="rgb(0,0,0)"  stroke-width="3"/>
<line x1="254.6" y1="239.1" x2="287.6" y2="220.0" opacity="1.0" stroke="rgb(0,0,0)"  stroke-width="3"/>
<line x1="287.6" y1="220.0" x2="287.6" y2="181.9" opacity="1.0" stroke="rgb(0,0,0)"  stroke-width="3"/>
<line x1="280.4" y1="214.0" x2="280.4" y2="187.9" opacity="1.0" stroke="rgb(0,0,0)"  stroke-width="3"/>
<line x1="287.6" y1="181.9" x2="254.6" y2="162.8" opacity="1.0" stroke="rgb(0,0,0)"  stroke-width="3"/>
<line x1="155.5" y1="67.5" x2="155.5" y2="105.6" opacity="1.0" stroke="rgb(0,0,0)"  stroke-width="3"/>
<line x1="155.5" y1="105.6" x2="188.5" y2="124.7" opacity="1.0" stroke="rgb(0,0,0)"  stroke-width="3"/>
<line x1="164.3" y1="102.4" x2="186.9" y2="115.5" opacity="1.0" stroke="rgb(0,0,0)"  stroke-width="3"/>
<line x1="188.5" y1="124.7" x2="221.5" y2="105.6" opacity="1.0" stroke="rgb(0,0,0)"  stroke-width="3"/>
<line x1="221.5" y1="67.5" x2="188.5" y2="48.4" opacity="1.0" stroke="rgb(0,0,0)"  stroke-width="3"/>
<line x1="188.5" y1="48.4" x2="155.5" y2="67.5" opacity="1.0" stroke="rgb(0,0,0)"  stroke-width="3"/>
<line x1="186.9" y1="57.7" x2="164.3" y2="70.7" opacity="1.0" stroke="rgb(0,0,0)"  stroke-width="3"/>
<line x1="309.3" y1="232.6" x2="287.6" y2="220.0" opacity="1.0" stroke="rgb(0,0,0)"  stroke-width="3"/>
<line x1="287.6" y1="181.9" x2="309.3" y2="169.4" opacity="1.0" stroke="rgb(0,0,0)"  stroke-width="3"/>
<line x1="331.9" y1="169.4" x2="353.6" y2="181.9" opacity="1.0" stroke="rgb(0,0,0)"  stroke-width="3"/>
<line x1="353.6" y1="181.9" x2="353.6" y2="220.0" opacity="1.0" stroke="rgb(0,0,0)"  stroke-width="3"/>
<line x1="346.4" y1="187.9" x2="346.4" y2="214.0" opacity="1.0" stroke="rgb(0,0,0)"  stroke-width="3"/>
<line x1="419.7" y1="220.0" x2="386.6" y2="239.1" opacity="1.0" stroke="rgb(0,0,0)"  stroke-width="3"/>
<line x1="410.9" y1="216.8" x2="388.2" y2="229.8" opacity="1.0" stroke="rgb(0,0,0)"  stroke-width="3"/>
<line x1="353.6" y1="181.9" x2="386.6" y2="162.8" opacity="1.0" stroke="rgb(0,0,0)"  stroke-width="3"/>
<line x1="386.6" y1="162.8" x2="419.7" y2="181.9" opacity="1.0" stroke="rgb(0,0,0)"  stroke-width="3"/>
<line x1="388.2" y1="172.1" x2="410.9" y2="185.1" opacity="1.0" stroke="rgb(0,0,0)"  stroke-width="3"/>
<line x1="254.6" y1="162.8" x2="254.6" y2="137.7" opacity="1.0" stroke="rgb(0,0,0)"  stroke-width="3"/>
<line x1="287.6" y1="105.6" x2="320.6" y2="124.7" opacity="1.0" stroke="rgb(0,0,0)"  stroke-width="3"/>
<line x1="320.6" y1="124.7" x2="320.6" y2="150.0" opacity="1.0" stroke="rgb(0,0,0)"  stroke-width="3"/>
<line x1="287.6" y1="67.5" x2="320.6" y2="48.4" opacity="1.0" stroke="rgb(0,0,0)"  stroke-width="3"/>
<line x1="320.6" y1="48.4" x2="353.6" y2="67.5" opacity="1.0" stroke="rgb(0,0,0)"  stroke-width="3"/>
<line x1="322.2" y1="57.7" x2="344.8" y2="70.7" opacity="1.0" stroke="rgb(0,0,0)"  stroke-width="3"/>
<line x1="353.6" y1="67.5" x2="353.6" y2="105.6" opacity="1.0" stroke="rgb(0,0,0)"  stroke-width="3"/>
<line x1="353.6" y1="105.6" x2="320.6" y2="124.7" opacity="1.0" stroke="rgb(0,0,0)"  stroke-width="3"/>
<line x1="344.8" y1="102.4" x2="322.2" y2="115.5" opacity="1.0" stroke="rgb(0,0,0)"  stroke-width="3"/>
<line x1="193.5" y1="238.6" x2="181.7" y2="274.9" opacity="1.0" stroke="rgb(0,0,0)"  stroke-width="3"/>
<line x1="184.8" y1="242.1" x2="176.8" y2="266.9" opacity="1.0" stroke="rgb(0,0,0)"  stroke-width="3"/>
<line x1="181.7" y1="274.9" x2="144.4" y2="282.8" opacity="1.0" stroke="rgb(0,0,0)"  stroke-width="3"/>
<line x1="144.4" y1="282.8" x2="118.9" y2="254.5" opacity="1.0" stroke="rgb(0,0,0)"  stroke-width="3"/>
<line x1="145.8" y1="273.5" x2="128.3" y2="254.1" opacity="1.0" stroke="rgb(0,0,0)"  stroke-width="3"/>
<line x1="118.9" y1="254.5" x2="130.7" y2="218.2" opacity="1.0" stroke="rgb(0,0,0)"  stroke-width="3"/>
<line x1="130.7" y1="218.2" x2="168.0" y2="210.3" opacity="1.0" stroke="rgb(0,0,0)"  stroke-width="3"/>
<line x1="138.1" y1="224.0" x2="163.6" y2="218.6" opacity="1.0" stroke="rgb(0,0,0)"  stroke-width="3"/>
<line x1="168.0" y1="210.3" x2="193.5" y2="238.6" opacity="1.0" stroke="rgb(0,0,0)"  stroke-width="3"/>
<line x1="88.1" y1="112.7" x2="125.4" y2="120.6" opacity="1.0" stroke="rgb(0,0,0)"  stroke-width="3"/>
<line x1="92.5" y1="120.9" x2="118.0" y2="126.4" opacity="1.0" stroke="rgb(0,0,0)"  stroke-width="3"/>
<line x1="125.4" y1="120.6" x2="137.2" y2="156.8" opacity="1.0" stroke="rgb(0,0,0)"  stroke-width="3"/>
<line x1="137.2" y1="156.8" x2="111.7" y2="185.2" opacity="1.0" stroke="rgb(0,0,0)"  stroke-width="3"/>
<line x1="127.8" y1="156.5" x2="110.3" y2="175.9" opacity="1.0" stroke="rgb(0,0,0)"  stroke-width="3"/>
<line x1="111.7" y1="185.2" x2="74.4" y2="177.3" opacity="1.0" stroke="rgb(0,0,0)"  stroke-width="3"/>
<line x1="74.4" y1="177.3" x2="62.6" y2="141.0" opacity="1.0" stroke="rgb(0,0,0)"  stroke-width="3"/>
<line x1="79.4" y1="169.3" x2="71.3" y2="144.5" opacity="1.0" stroke="rgb(0,0,0)"  stroke-width="3"/>
<line x1="62.6" y1="141.0" x2="88.1" y2="112.7" opacity="1.0" stroke="rgb(0,0,0)"  stroke-width="3"/>
<line x1="319.0" y1="339.9" x2="332.1" y2="304.1" opacity="1.0" stroke="rgb(0,0,0)"  stroke-width="3"/>
<line x1="314.3" y1="331.8" x2="323.2" y2="307.3" opacity="1.0" stroke="rgb(0,0,0)"  stroke-width="3"/>
<line x1="307.5" y1="274.9" x2="270.0" y2="281.5" opacity="1.0" stroke="rgb(0,0,0)"  stroke-width="3"/>
<line x1="302.9" y1="283.0" x2="277.2" y2="287.6" opacity="1.0" stroke="rgb(0,0,0)"  stroke-width="3"/>
<line x1="270.0" y1="281.5" x2="257.0" y2="317.4" opacity="1.0" stroke="rgb(0,0,0)"  stroke-width="3"/>
<line x1="257.0" y1="317.4" x2="281.5" y2="346.6" opacity="1.0" stroke="rgb(0,0,0)"  stroke-width="3"/>
<line x1="266.3" y1="317.3" x2="283.1" y2="337.3" opacity="1.0" stroke="rgb(0,0,0)"  stroke-width="3"/>
<line x1="281.5" y1="346.6" x2="319.0" y2="339.9" opacity="1.0" stroke="rgb(0,0,0)"  stroke-width="3"/>
<line x1="342.6" y1="413.3" x2="353.2" y2="376.7" opacity="1.0" stroke="rgb(0,0,0)"  stroke-width="3"/>
<line x1="351.2" y1="409.6" x2="358.5" y2="384.5" opacity="1.0" stroke="rgb(0,0,0)"  stroke-width="3"/>
<line x1="353.2" y1="376.7" x2="390.3" y2="367.6" opacity="1.0" stroke="rgb(0,0,0)"  stroke-width="3"/>
<line x1="390.3" y1="367.6" x2="416.7" y2="395.1" opacity="1.0" stroke="rgb(0,0,0)"  stroke-width="3"/>
<line x1="389.2" y1="376.9" x2="407.3" y2="395.7" opacity="1.0" stroke="rgb(0,0,0)"  stroke-width="3"/>
<line x1="416.7" y1="395.1" x2="406.1" y2="431.7" opacity="1.0" stroke="rgb(0,0,0)"  stroke-width="3"/>
<line x1="406.1" y1="431.7" x2="369.0" y2="440.8" opacity="1.0" stroke="rgb(0,0,0)"  stroke-width="3"/>
<line x1="398.5" y1="426.2" x2="373.1" y2="432.4" opacity="1.0" stroke="rgb(0,0,0)"  stroke-width="3"/>
<line x1="369.0" y1="440.8" x2="342.6" y2="413.3" opacity="1.0" stroke="rgb(0,0,0)"  stroke-width="3"/>
<line x1="480.1" y1="413.5" x2="517.1" y2="404.3" opacity="1.0" stroke="rgb(0,0,0)"  stroke-width="3"/>
<line x1="517.1" y1="404.3" x2="527.7" y2="367.7" opacity="1.0" stroke="rgb(0,0,0)"  stroke-width="3"/>
<line x1="511.9" y1="396.6" x2="519.1" y2="371.5" opacity="1.0" stroke="rgb(0,0,0)"  stroke-width="3"/>
<line x1="527.7" y1="367.7" x2="501.3" y2="340.2" opacity="1.0" stroke="rgb(0,0,0)"  stroke-width="3"/>
<line x1="501.3" y1="340.2" x2="464.3" y2="349.3" opacity="1.0" stroke="rgb(0,0,0)"  stroke-width="3"/>
<line x1="497.2" y1="348.6" x2="471.8" y2="354.9" opacity="1.0" stroke="rgb(0,0,0)"  stroke-width="3"/>
<line x1="464.3" y1="349.3" x2="453.7" y2="386.0" opacity="1.0" stroke="rgb(0,0,0)"  stroke-width="3"/>
<line x1="453.7" y1="386.0" x2="480.1" y2="413.5" opacity="1.0" stroke="rgb(0,0,0)"  stroke-width="3"/>
<line x1="463.0" y1="385.3" x2="481.1" y2="404.1" opacity="1.0" stroke="rgb(0,0,0)"  stroke-width="3"/>
<line x1="642.6" y1="218.2" x2="661.6" y2="185.2" opacity="1.0" stroke="rgb(0,0,0)"  stroke-width="3"/>
<line x1="636.1" y1="156.8" x2="593.0" y2="167.6" opacity="1.0" stroke="rgb(0,0,0)"  stroke-width="3"/>
<line x1="593.0" y1="167.6" x2="605.3" y2="210.3" opacity="1.0" stroke="rgb(0,0,0)"  stroke-width="3"/>
<line x1="130.7" y1="218.2" x2="111.7" y2="185.2" opacity="1.0" stroke="rgb(0,0,0)"  stroke-width="3"/>
<line x1="137.2" y1="156.8" x2="180.3" y2="167.6" opacity="1.0" stroke="rgb(0,0,0)"  stroke-width="3"/>
<line x1="180.3" y1="167.6" x2="168.0" y2="210.3" opacity="1.0" stroke="rgb(0,0,0)"  stroke-width="3"/>
<line x1="584.8" y1="124.7" x2="593.0" y2="167.6" opacity="1.0" stroke="rgb(0,0,0)"  stroke-width="3"/>
<line x1="593.0" y1="167.6" x2="551.7" y2="181.9" opacity="1.0" stroke="rgb(0,0,0)"  stroke-width="3"/>
<line x1="188.5" y1="124.7" x2="180.3" y2="167.6" opacity="1.0" stroke="rgb(0,0,0)"  stroke-width="3"/>
<line x1="180.3" y1="167.6" x2="221.5" y2="181.9" opacity="1.0" stroke="rgb(0,0,0)"  stroke-width="3"/>
<text x="446.676001" y="247.081598" fill="rgb(12,12,255)" stroke-width="0" font-weight="bold" font-size="25.92" >N</text>
<text x="314.592682" y="247.081598" fill="rgb(12,12,255)" stroke-width="0" font-weight="bold" font-size="25.92" >N</text>
<text x="314.592682" y="170.950467" fill="rgb(255,181,181)" stroke-width="0" font-weight="bold" font-size="25.92" >B</text>
<text x="446.676001" y="170.950467" fill="rgb(255,181,181)" stroke-width="0" font-weight="bold" font-size="25.92" >B</text>
<text x="512.722282" y="132.690787" fill="rgb(12,12,255)" stroke-width="0" font-weight="bold" font-size="25.92" >N</text>
<text x="248.551023" y="132.690787" fill="rgb(12,12,255)" stroke-width="0" font-weight="bold" font-size="25.92" >N</text>
</svg>
</g>
</svg>
