<?xml version="1.0"?>
<svg version="1.1" id="topsvg"
xmlns="http://www.w3.org/2000/svg" xmlns:xlink="http://www.w3.org/1999/xlink"
xmlns:cml="http://www.xml-cml.org/schema" x="0" y="0" width="200px" height="200px" viewBox="0 0 100 100">
<title>GD388.sdf - Open Babel Depiction</title>
<rect x="0" y="0" width="100" height="100" fill="white"/>
<g transform="translate(0,0)">
<svg width="100" height="100" x="0" y="0" viewBox="0 0 584.733 505.731"
font-family="sans-serif" stroke="rgb(0,0,0)" stroke-width="3"  stroke-linecap="round">
<line x1="350.2" y1="164.7" x2="350.2" y2="79.0" opacity="1.0" stroke="rgb(0,0,0)"  stroke-width="3"/>
<line x1="350.2" y1="79.0" x2="350.2" y2="40.0" opacity="1.0" stroke="rgb(0,0,0)"  stroke-width="3"/>
<line x1="350.2" y1="79.0" x2="384.0" y2="59.5" opacity="1.0" stroke="rgb(0,0,0)"  stroke-width="3"/>
<line x1="350.2" y1="79.0" x2="316.5" y2="59.5" opacity="1.0" stroke="rgb(0,0,0)"  stroke-width="3"/>
<line x1="466.8" y1="287.5" x2="505.7" y2="287.5" opacity="1.0" stroke="rgb(0,0,0)"  stroke-width="3"/>
<line x1="505.7" y1="287.5" x2="525.2" y2="321.2" opacity="1.0" stroke="rgb(0,0,0)"  stroke-width="3"/>
<line x1="505.7" y1="287.5" x2="525.2" y2="253.7" opacity="1.0" stroke="rgb(0,0,0)"  stroke-width="3"/>
<line x1="505.7" y1="287.5" x2="544.7" y2="287.5" opacity="1.0" stroke="rgb(0,0,0)"  stroke-width="3"/>
<line x1="282.7" y1="359.7" x2="282.7" y2="385.8" opacity="1.0" stroke="rgb(0,0,0)"  stroke-width="3"/>
<line x1="98.7" y1="287.5" x2="59.6" y2="287.5" opacity="1.0" stroke="rgb(0,0,0)"  stroke-width="3"/>
<line x1="59.6" y1="287.5" x2="40.0" y2="253.6" opacity="1.0" stroke="rgb(0,0,0)"  stroke-width="3"/>
<line x1="59.6" y1="287.5" x2="40.0" y2="321.4" opacity="1.0" stroke="rgb(0,0,0)"  stroke-width="3"/>
<line x1="59.6" y1="287.5" x2="79.1" y2="253.6" opacity="1.0" stroke="rgb(0,0,0)"  stroke-width="3"/>
<line x1="157.2" y1="253.7" x2="181.4" y2="223.2" opacity="1.0" stroke="rgb(0,0,0)"  stroke-width="3"/>
<line x1="181.4" y1="223.2" x2="215.2" y2="242.7" opacity="1.0" stroke="rgb(0,0,0)"  stroke-width="3"/>
<line x1="183.0" y1="232.5" x2="206.4" y2="246.0" opacity="1.0" stroke="rgb(0,0,0)"  stroke-width="3"/>
<line x1="215.2" y1="242.7" x2="215.2" y2="268.7" opacity="1.0" stroke="rgb(0,0,0)"  stroke-width="3"/>
<line x1="202.3" y1="283.6" x2="176.6" y2="287.5" opacity="1.0" stroke="rgb(0,0,0)"  stroke-width="3"/>
<line x1="176.6" y1="287.5" x2="157.2" y2="253.7" opacity="1.0" stroke="rgb(0,0,0)"  stroke-width="3"/>
<line x1="179.9" y1="278.7" x2="166.4" y2="255.3" opacity="1.0" stroke="rgb(0,0,0)"  stroke-width="3"/>
<line x1="168.3" y1="122.5" x2="194.2" y2="125.3" opacity="1.0" stroke="rgb(0,0,0)"  stroke-width="3"/>
<line x1="209.8" y1="139.3" x2="215.2" y2="164.7" opacity="1.0" stroke="rgb(0,0,0)"  stroke-width="3"/>
<line x1="215.2" y1="164.7" x2="181.4" y2="184.2" opacity="1.0" stroke="rgb(0,0,0)"  stroke-width="3"/>
<line x1="206.4" y1="161.5" x2="183.0" y2="175.0" opacity="1.0" stroke="rgb(0,0,0)"  stroke-width="3"/>
<line x1="181.4" y1="184.2" x2="152.5" y2="158.2" opacity="1.0" stroke="rgb(0,0,0)"  stroke-width="3"/>
<line x1="152.5" y1="158.2" x2="168.3" y2="122.5" opacity="1.0" stroke="rgb(0,0,0)"  stroke-width="3"/>
<line x1="408.3" y1="253.7" x2="388.8" y2="287.5" opacity="1.0" stroke="rgb(0,0,0)"  stroke-width="3"/>
<line x1="399.1" y1="255.3" x2="385.6" y2="278.7" opacity="1.0" stroke="rgb(0,0,0)"  stroke-width="3"/>
<line x1="388.8" y1="287.5" x2="363.1" y2="283.6" opacity="1.0" stroke="rgb(0,0,0)"  stroke-width="3"/>
<line x1="350.2" y1="268.7" x2="350.2" y2="242.7" opacity="1.0" stroke="rgb(0,0,0)"  stroke-width="3"/>
<line x1="350.2" y1="242.7" x2="384.0" y2="223.2" opacity="1.0" stroke="rgb(0,0,0)"  stroke-width="3"/>
<line x1="359.0" y1="246.0" x2="382.4" y2="232.5" opacity="1.0" stroke="rgb(0,0,0)"  stroke-width="3"/>
<line x1="384.0" y1="223.2" x2="408.3" y2="253.7" opacity="1.0" stroke="rgb(0,0,0)"  stroke-width="3"/>
<line x1="245.3" y1="118.8" x2="268.2" y2="150.3" opacity="1.0" stroke="rgb(0,0,0)"  stroke-width="3"/>
<line x1="243.0" y1="127.9" x2="258.8" y2="149.7" opacity="1.0" stroke="rgb(0,0,0)"  stroke-width="3"/>
<line x1="268.2" y1="150.3" x2="249.0" y2="184.2" opacity="1.0" stroke="rgb(0,0,0)"  stroke-width="3"/>
<line x1="249.0" y1="184.2" x2="215.2" y2="164.7" opacity="1.0" stroke="rgb(0,0,0)"  stroke-width="3"/>
<line x1="219.8" y1="124.0" x2="245.3" y2="118.8" opacity="1.0" stroke="rgb(0,0,0)"  stroke-width="3"/>
<line x1="249.0" y1="340.2" x2="282.7" y2="359.7" opacity="1.0" stroke="rgb(0,0,0)"  stroke-width="3"/>
<line x1="282.7" y1="359.7" x2="316.5" y2="340.2" opacity="1.0" stroke="rgb(0,0,0)"  stroke-width="3"/>
<line x1="284.3" y1="350.4" x2="307.7" y2="336.9" opacity="1.0" stroke="rgb(0,0,0)"  stroke-width="3"/>
<line x1="316.5" y1="340.2" x2="316.5" y2="301.2" opacity="1.0" stroke="rgb(0,0,0)"  stroke-width="3"/>
<line x1="316.5" y1="301.2" x2="282.7" y2="281.7" opacity="1.0" stroke="rgb(0,0,0)"  stroke-width="3"/>
<line x1="307.7" y1="304.4" x2="284.3" y2="290.9" opacity="1.0" stroke="rgb(0,0,0)"  stroke-width="3"/>
<line x1="282.7" y1="281.7" x2="249.0" y2="301.2" opacity="1.0" stroke="rgb(0,0,0)"  stroke-width="3"/>
<line x1="249.0" y1="301.2" x2="249.0" y2="340.2" opacity="1.0" stroke="rgb(0,0,0)"  stroke-width="3"/>
<line x1="256.2" y1="307.2" x2="256.2" y2="334.2" opacity="1.0" stroke="rgb(0,0,0)"  stroke-width="3"/>
<line x1="215.2" y1="242.7" x2="249.0" y2="223.2" opacity="1.0" stroke="rgb(0,0,0)"  stroke-width="3"/>
<line x1="249.0" y1="223.2" x2="271.5" y2="236.2" opacity="1.0" stroke="rgb(0,0,0)"  stroke-width="3"/>
<line x1="282.7" y1="255.7" x2="282.7" y2="281.7" opacity="1.0" stroke="rgb(0,0,0)"  stroke-width="3"/>
<line x1="249.0" y1="301.2" x2="226.5" y2="288.2" opacity="1.0" stroke="rgb(0,0,0)"  stroke-width="3"/>
<line x1="118.2" y1="321.2" x2="98.7" y2="287.5" opacity="1.0" stroke="rgb(0,0,0)"  stroke-width="3"/>
<line x1="98.7" y1="287.5" x2="118.2" y2="253.7" opacity="1.0" stroke="rgb(0,0,0)"  stroke-width="3"/>
<line x1="107.9" y1="285.9" x2="121.4" y2="262.5" opacity="1.0" stroke="rgb(0,0,0)"  stroke-width="3"/>
<line x1="118.2" y1="253.7" x2="157.2" y2="253.7" opacity="1.0" stroke="rgb(0,0,0)"  stroke-width="3"/>
<line x1="176.6" y1="287.5" x2="157.2" y2="321.2" opacity="1.0" stroke="rgb(0,0,0)"  stroke-width="3"/>
<line x1="157.2" y1="321.2" x2="118.2" y2="321.2" opacity="1.0" stroke="rgb(0,0,0)"  stroke-width="3"/>
<line x1="151.2" y1="314.0" x2="124.2" y2="314.0" opacity="1.0" stroke="rgb(0,0,0)"  stroke-width="3"/>
<line x1="339.0" y1="288.2" x2="316.5" y2="301.2" opacity="1.0" stroke="rgb(0,0,0)"  stroke-width="3"/>
<line x1="294.0" y1="236.2" x2="316.5" y2="223.2" opacity="1.0" stroke="rgb(0,0,0)"  stroke-width="3"/>
<line x1="316.5" y1="223.2" x2="350.2" y2="242.7" opacity="1.0" stroke="rgb(0,0,0)"  stroke-width="3"/>
<line x1="466.8" y1="287.5" x2="447.3" y2="321.2" opacity="1.0" stroke="rgb(0,0,0)"  stroke-width="3"/>
<line x1="447.3" y1="321.2" x2="408.3" y2="321.2" opacity="1.0" stroke="rgb(0,0,0)"  stroke-width="3"/>
<line x1="441.3" y1="314.0" x2="414.3" y2="314.0" opacity="1.0" stroke="rgb(0,0,0)"  stroke-width="3"/>
<line x1="408.3" y1="321.2" x2="388.8" y2="287.5" opacity="1.0" stroke="rgb(0,0,0)"  stroke-width="3"/>
<line x1="408.3" y1="253.7" x2="447.3" y2="253.7" opacity="1.0" stroke="rgb(0,0,0)"  stroke-width="3"/>
<line x1="447.3" y1="253.7" x2="466.8" y2="287.5" opacity="1.0" stroke="rgb(0,0,0)"  stroke-width="3"/>
<line x1="444.0" y1="262.5" x2="457.5" y2="285.9" opacity="1.0" stroke="rgb(0,0,0)"  stroke-width="3"/>
<line x1="350.2" y1="164.7" x2="316.5" y2="184.2" opacity="1.0" stroke="rgb(0,0,0)"  stroke-width="3"/>
<line x1="316.5" y1="184.2" x2="316.5" y2="223.2" opacity="1.0" stroke="rgb(0,0,0)"  stroke-width="3"/>
<line x1="323.7" y1="190.2" x2="323.7" y2="217.2" opacity="1.0" stroke="rgb(0,0,0)"  stroke-width="3"/>
<line x1="384.0" y1="223.2" x2="384.0" y2="184.2" opacity="1.0" stroke="rgb(0,0,0)"  stroke-width="3"/>
<line x1="384.0" y1="184.2" x2="350.2" y2="164.7" opacity="1.0" stroke="rgb(0,0,0)"  stroke-width="3"/>
<line x1="375.2" y1="187.5" x2="351.8" y2="174.0" opacity="1.0" stroke="rgb(0,0,0)"  stroke-width="3"/>
<line x1="181.4" y1="223.2" x2="181.4" y2="184.2" opacity="1.0" stroke="rgb(0,0,0)"  stroke-width="3"/>
<line x1="249.0" y1="184.2" x2="249.0" y2="223.2" opacity="1.0" stroke="rgb(0,0,0)"  stroke-width="3"/>
<line x1="241.8" y1="190.2" x2="241.8" y2="217.2" opacity="1.0" stroke="rgb(0,0,0)"  stroke-width="3"/>
<line x1="299.9" y1="79.1" x2="322.8" y2="110.6" opacity="1.0" stroke="rgb(0,0,0)"  stroke-width="3"/>
<line x1="322.8" y1="110.6" x2="307.0" y2="146.3" opacity="1.0" stroke="rgb(0,0,0)"  stroke-width="3"/>
<line x1="313.8" y1="113.2" x2="302.8" y2="137.9" opacity="1.0" stroke="rgb(0,0,0)"  stroke-width="3"/>
<line x1="307.0" y1="146.3" x2="268.2" y2="150.3" opacity="1.0" stroke="rgb(0,0,0)"  stroke-width="3"/>
<line x1="245.3" y1="118.8" x2="261.1" y2="83.2" opacity="1.0" stroke="rgb(0,0,0)"  stroke-width="3"/>
<line x1="261.1" y1="83.2" x2="299.9" y2="79.1" opacity="1.0" stroke="rgb(0,0,0)"  stroke-width="3"/>
<line x1="267.9" y1="89.7" x2="294.7" y2="86.9" opacity="1.0" stroke="rgb(0,0,0)"  stroke-width="3"/>
<line x1="90.8" y1="130.7" x2="106.6" y2="95.1" opacity="1.0" stroke="rgb(0,0,0)"  stroke-width="3"/>
<line x1="99.8" y1="128.1" x2="110.8" y2="103.5" opacity="1.0" stroke="rgb(0,0,0)"  stroke-width="3"/>
<line x1="106.6" y1="95.1" x2="145.4" y2="91.0" opacity="1.0" stroke="rgb(0,0,0)"  stroke-width="3"/>
<line x1="145.4" y1="91.0" x2="168.3" y2="122.5" opacity="1.0" stroke="rgb(0,0,0)"  stroke-width="3"/>
<line x1="143.1" y1="100.1" x2="159.0" y2="121.9" opacity="1.0" stroke="rgb(0,0,0)"  stroke-width="3"/>
<line x1="152.5" y1="158.2" x2="113.7" y2="162.2" opacity="1.0" stroke="rgb(0,0,0)"  stroke-width="3"/>
<line x1="145.7" y1="151.6" x2="118.9" y2="154.4" opacity="1.0" stroke="rgb(0,0,0)"  stroke-width="3"/>
<line x1="113.7" y1="162.2" x2="90.8" y2="130.7" opacity="1.0" stroke="rgb(0,0,0)"  stroke-width="3"/>
<line x1="320.4" y1="465.7" x2="359.4" y2="463.0" opacity="1.0" stroke="rgb(0,0,0)"  stroke-width="3"/>
<line x1="325.9" y1="458.1" x2="352.9" y2="456.2" opacity="1.0" stroke="rgb(0,0,0)"  stroke-width="3"/>
<line x1="359.4" y1="463.0" x2="376.5" y2="427.8" opacity="1.0" stroke="rgb(0,0,0)"  stroke-width="3"/>
<line x1="376.5" y1="427.8" x2="354.6" y2="395.4" opacity="1.0" stroke="rgb(0,0,0)"  stroke-width="3"/>
<line x1="367.2" y1="426.9" x2="352.0" y2="404.4" opacity="1.0" stroke="rgb(0,0,0)"  stroke-width="3"/>
<line x1="354.6" y1="395.4" x2="315.6" y2="398.1" opacity="1.0" stroke="rgb(0,0,0)"  stroke-width="3"/>
<line x1="315.6" y1="398.1" x2="298.5" y2="433.3" opacity="1.0" stroke="rgb(0,0,0)"  stroke-width="3"/>
<line x1="319.5" y1="406.7" x2="307.6" y2="431.1" opacity="1.0" stroke="rgb(0,0,0)"  stroke-width="3"/>
<line x1="298.5" y1="433.3" x2="320.4" y2="465.7" opacity="1.0" stroke="rgb(0,0,0)"  stroke-width="3"/>
<line x1="481.8" y1="377.9" x2="448.0" y2="358.4" opacity="1.0" stroke="rgb(0,0,0)"  stroke-width="3"/>
<line x1="473.1" y1="381.2" x2="449.6" y2="367.6" opacity="1.0" stroke="rgb(0,0,0)"  stroke-width="3"/>
<line x1="448.0" y1="358.4" x2="414.1" y2="377.9" opacity="1.0" stroke="rgb(0,0,0)"  stroke-width="3"/>
<line x1="414.1" y1="377.9" x2="414.1" y2="417.0" opacity="1.0" stroke="rgb(0,0,0)"  stroke-width="3"/>
<line x1="421.3" y1="383.9" x2="421.3" y2="411.0" opacity="1.0" stroke="rgb(0,0,0)"  stroke-width="3"/>
<line x1="414.1" y1="417.0" x2="448.0" y2="436.6" opacity="1.0" stroke="rgb(0,0,0)"  stroke-width="3"/>
<line x1="448.0" y1="436.6" x2="481.8" y2="417.0" opacity="1.0" stroke="rgb(0,0,0)"  stroke-width="3"/>
<line x1="449.6" y1="427.3" x2="473.1" y2="413.8" opacity="1.0" stroke="rgb(0,0,0)"  stroke-width="3"/>
<line x1="481.8" y1="417.0" x2="481.8" y2="377.9" opacity="1.0" stroke="rgb(0,0,0)"  stroke-width="3"/>
<line x1="376.5" y1="427.8" x2="414.1" y2="417.0" opacity="1.0" stroke="rgb(0,0,0)"  stroke-width="3"/>
<line x1="414.1" y1="377.9" x2="378.7" y2="364.6" opacity="1.0" stroke="rgb(0,0,0)"  stroke-width="3"/>
<line x1="378.7" y1="364.6" x2="354.6" y2="395.4" opacity="1.0" stroke="rgb(0,0,0)"  stroke-width="3"/>
<line x1="316.5" y1="340.2" x2="378.7" y2="364.6" opacity="1.0" stroke="rgb(0,0,0)"  stroke-width="3"/>
<line x1="378.7" y1="364.6" x2="408.3" y2="321.2" opacity="1.0" stroke="rgb(0,0,0)"  stroke-width="3"/>
<text x="276.722276" y="406.787976" fill="rgb(127,178,255)" stroke-width="0" font-weight="bold" font-size="25.92" >F</text>
<text x="344.244744" y="289.700326" fill="rgb(12,12,255)" stroke-width="0" font-weight="bold" font-size="25.92" >N</text>
<text x="209.200518" y="289.700326" fill="rgb(12,12,255)" stroke-width="0" font-weight="bold" font-size="25.92" >N</text>
<text x="201.095288" y="134.616552" fill="rgb(12,12,255)" stroke-width="0" font-weight="bold" font-size="25.92" >N</text>
<text x="276.722608" y="250.716393" fill="rgb(255,181,181)" stroke-width="0" font-weight="bold" font-size="25.92" >B</text>
</svg>
</g>
</svg>
