<?xml version="1.0"?>
<svg version="1.1" id="topsvg"
xmlns="http://www.w3.org/2000/svg" xmlns:xlink="http://www.w3.org/1999/xlink"
xmlns:cml="http://www.xml-cml.org/schema" x="0" y="0" width="200px" height="200px" viewBox="0 0 100 100">
<title>GD385.sdf - Open Babel Depiction</title>
<rect x="0" y="0" width="100" height="100" fill="white"/>
<g transform="translate(0,0)">
<svg width="100" height="100" x="0" y="0" viewBox="0 0 646.924 527.88"
font-family="sans-serif" stroke="rgb(0,0,0)" stroke-width="3"  stroke-linecap="round">
<line x1="223.5" y1="166.6" x2="219.5" y2="128.0" opacity="1.0" stroke="rgb(0,0,0)"  stroke-width="3"/>
<line x1="219.5" y1="128.0" x2="184.0" y2="112.2" opacity="1.0" stroke="rgb(0,0,0)"  stroke-width="3"/>
<line x1="219.5" y1="128.0" x2="250.9" y2="105.2" opacity="1.0" stroke="rgb(0,0,0)"  stroke-width="3"/>
<line x1="219.5" y1="128.0" x2="215.4" y2="89.4" opacity="1.0" stroke="rgb(0,0,0)"  stroke-width="3"/>
<line x1="117.2" y1="298.6" x2="78.6" y2="302.6" opacity="1.0" stroke="rgb(0,0,0)"  stroke-width="3"/>
<line x1="78.6" y1="302.6" x2="55.8" y2="271.2" opacity="1.0" stroke="rgb(0,0,0)"  stroke-width="3"/>
<line x1="78.6" y1="302.6" x2="62.8" y2="338.1" opacity="1.0" stroke="rgb(0,0,0)"  stroke-width="3"/>
<line x1="78.6" y1="302.6" x2="40.0" y2="306.7" opacity="1.0" stroke="rgb(0,0,0)"  stroke-width="3"/>
<line x1="171.5" y1="259.1" x2="194.3" y2="227.7" opacity="1.0" stroke="rgb(0,0,0)"  stroke-width="3"/>
<line x1="194.3" y1="227.7" x2="231.2" y2="239.7" opacity="1.0" stroke="rgb(0,0,0)"  stroke-width="3"/>
<line x1="231.2" y1="239.7" x2="231.2" y2="265.5" opacity="1.0" stroke="rgb(0,0,0)"  stroke-width="3"/>
<line x1="218.9" y1="282.5" x2="194.3" y2="290.5" opacity="1.0" stroke="rgb(0,0,0)"  stroke-width="3"/>
<line x1="194.3" y1="290.5" x2="171.5" y2="259.1" opacity="1.0" stroke="rgb(0,0,0)"  stroke-width="3"/>
<line x1="426.6" y1="247.7" x2="407.2" y2="281.3" opacity="1.0" stroke="rgb(0,0,0)"  stroke-width="3"/>
<line x1="407.2" y1="281.3" x2="378.6" y2="279.4" opacity="1.0" stroke="rgb(0,0,0)"  stroke-width="3"/>
<line x1="365.6" y1="265.5" x2="365.6" y2="239.7" opacity="1.0" stroke="rgb(0,0,0)"  stroke-width="3"/>
<line x1="365.6" y1="239.7" x2="399.2" y2="220.3" opacity="1.0" stroke="rgb(0,0,0)"  stroke-width="3"/>
<line x1="374.4" y1="242.9" x2="397.6" y2="229.5" opacity="1.0" stroke="rgb(0,0,0)"  stroke-width="3"/>
<line x1="399.2" y1="220.3" x2="426.6" y2="247.7" opacity="1.0" stroke="rgb(0,0,0)"  stroke-width="3"/>
<line x1="552.6" y1="200.9" x2="529.8" y2="169.5" opacity="1.0" stroke="rgb(0,0,0)"  stroke-width="3"/>
<line x1="529.8" y1="169.5" x2="492.9" y2="181.5" opacity="1.0" stroke="rgb(0,0,0)"  stroke-width="3"/>
<line x1="526.3" y1="178.2" x2="500.8" y2="186.5" opacity="1.0" stroke="rgb(0,0,0)"  stroke-width="3"/>
<line x1="492.9" y1="181.5" x2="492.9" y2="207.3" opacity="1.0" stroke="rgb(0,0,0)"  stroke-width="3"/>
<line x1="505.2" y1="224.3" x2="529.8" y2="232.3" opacity="1.0" stroke="rgb(0,0,0)"  stroke-width="3"/>
<line x1="529.8" y1="232.3" x2="552.6" y2="200.9" opacity="1.0" stroke="rgb(0,0,0)"  stroke-width="3"/>
<line x1="527.5" y1="223.2" x2="543.2" y2="201.5" opacity="1.0" stroke="rgb(0,0,0)"  stroke-width="3"/>
<line x1="446.0" y1="94.4" x2="414.7" y2="117.2" opacity="1.0" stroke="rgb(0,0,0)"  stroke-width="3"/>
<line x1="445.4" y1="103.7" x2="423.7" y2="119.5" opacity="1.0" stroke="rgb(0,0,0)"  stroke-width="3"/>
<line x1="414.7" y1="117.2" x2="422.6" y2="141.7" opacity="1.0" stroke="rgb(0,0,0)"  stroke-width="3"/>
<line x1="439.6" y1="154.1" x2="465.4" y2="154.1" opacity="1.0" stroke="rgb(0,0,0)"  stroke-width="3"/>
<line x1="465.4" y1="154.1" x2="477.4" y2="117.2" opacity="1.0" stroke="rgb(0,0,0)"  stroke-width="3"/>
<line x1="460.4" y1="146.1" x2="468.7" y2="120.6" opacity="1.0" stroke="rgb(0,0,0)"  stroke-width="3"/>
<line x1="477.4" y1="117.2" x2="446.0" y2="94.4" opacity="1.0" stroke="rgb(0,0,0)"  stroke-width="3"/>
<line x1="264.8" y1="336.7" x2="298.4" y2="356.1" opacity="1.0" stroke="rgb(0,0,0)"  stroke-width="3"/>
<line x1="298.4" y1="356.1" x2="332.0" y2="336.7" opacity="1.0" stroke="rgb(0,0,0)"  stroke-width="3"/>
<line x1="300.0" y1="346.8" x2="323.2" y2="333.4" opacity="1.0" stroke="rgb(0,0,0)"  stroke-width="3"/>
<line x1="332.0" y1="336.7" x2="332.0" y2="297.9" opacity="1.0" stroke="rgb(0,0,0)"  stroke-width="3"/>
<line x1="332.0" y1="297.9" x2="298.4" y2="278.5" opacity="1.0" stroke="rgb(0,0,0)"  stroke-width="3"/>
<line x1="323.2" y1="301.1" x2="300.0" y2="287.7" opacity="1.0" stroke="rgb(0,0,0)"  stroke-width="3"/>
<line x1="298.4" y1="278.5" x2="264.8" y2="297.9" opacity="1.0" stroke="rgb(0,0,0)"  stroke-width="3"/>
<line x1="264.8" y1="297.9" x2="264.8" y2="336.7" opacity="1.0" stroke="rgb(0,0,0)"  stroke-width="3"/>
<line x1="272.0" y1="303.9" x2="272.0" y2="330.7" opacity="1.0" stroke="rgb(0,0,0)"  stroke-width="3"/>
<line x1="231.2" y1="239.7" x2="264.8" y2="220.3" opacity="1.0" stroke="rgb(0,0,0)"  stroke-width="3"/>
<line x1="240.0" y1="242.9" x2="263.2" y2="229.5" opacity="1.0" stroke="rgb(0,0,0)"  stroke-width="3"/>
<line x1="264.8" y1="220.3" x2="287.2" y2="233.2" opacity="1.0" stroke="rgb(0,0,0)"  stroke-width="3"/>
<line x1="298.4" y1="252.7" x2="298.4" y2="278.5" opacity="1.0" stroke="rgb(0,0,0)"  stroke-width="3"/>
<line x1="264.8" y1="297.9" x2="242.5" y2="285.0" opacity="1.0" stroke="rgb(0,0,0)"  stroke-width="3"/>
<line x1="465.4" y1="247.7" x2="426.6" y2="247.7" opacity="1.0" stroke="rgb(0,0,0)"  stroke-width="3"/>
<line x1="459.4" y1="254.9" x2="432.6" y2="254.9" opacity="1.0" stroke="rgb(0,0,0)"  stroke-width="3"/>
<line x1="407.2" y1="281.3" x2="426.6" y2="314.9" opacity="1.0" stroke="rgb(0,0,0)"  stroke-width="3"/>
<line x1="416.5" y1="282.9" x2="429.9" y2="306.1" opacity="1.0" stroke="rgb(0,0,0)"  stroke-width="3"/>
<line x1="426.6" y1="314.9" x2="465.4" y2="314.9" opacity="1.0" stroke="rgb(0,0,0)"  stroke-width="3"/>
<line x1="465.4" y1="314.9" x2="484.8" y2="281.3" opacity="1.0" stroke="rgb(0,0,0)"  stroke-width="3"/>
<line x1="462.2" y1="306.1" x2="475.6" y2="282.9" opacity="1.0" stroke="rgb(0,0,0)"  stroke-width="3"/>
<line x1="484.8" y1="281.3" x2="465.4" y2="247.7" opacity="1.0" stroke="rgb(0,0,0)"  stroke-width="3"/>
<line x1="191.8" y1="189.0" x2="223.5" y2="166.6" opacity="1.0" stroke="rgb(0,0,0)"  stroke-width="3"/>
<line x1="223.5" y1="166.6" x2="259.2" y2="181.9" opacity="1.0" stroke="rgb(0,0,0)"  stroke-width="3"/>
<line x1="226.2" y1="175.6" x2="250.8" y2="186.2" opacity="1.0" stroke="rgb(0,0,0)"  stroke-width="3"/>
<line x1="259.2" y1="181.9" x2="264.8" y2="220.3" opacity="1.0" stroke="rgb(0,0,0)"  stroke-width="3"/>
<line x1="194.3" y1="227.7" x2="191.8" y2="189.0" opacity="1.0" stroke="rgb(0,0,0)"  stroke-width="3"/>
<line x1="201.1" y1="221.2" x2="199.4" y2="194.5" opacity="1.0" stroke="rgb(0,0,0)"  stroke-width="3"/>
<line x1="354.4" y1="285.0" x2="332.0" y2="297.9" opacity="1.0" stroke="rgb(0,0,0)"  stroke-width="3"/>
<line x1="309.7" y1="233.2" x2="332.0" y2="220.3" opacity="1.0" stroke="rgb(0,0,0)"  stroke-width="3"/>
<line x1="332.0" y1="220.3" x2="365.6" y2="239.7" opacity="1.0" stroke="rgb(0,0,0)"  stroke-width="3"/>
<line x1="117.2" y1="298.6" x2="140.0" y2="330.0" opacity="1.0" stroke="rgb(0,0,0)"  stroke-width="3"/>
<line x1="126.5" y1="299.2" x2="142.3" y2="320.9" opacity="1.0" stroke="rgb(0,0,0)"  stroke-width="3"/>
<line x1="140.0" y1="330.0" x2="178.5" y2="325.9" opacity="1.0" stroke="rgb(0,0,0)"  stroke-width="3"/>
<line x1="178.5" y1="325.9" x2="194.3" y2="290.5" opacity="1.0" stroke="rgb(0,0,0)"  stroke-width="3"/>
<line x1="174.4" y1="317.5" x2="185.3" y2="293.0" opacity="1.0" stroke="rgb(0,0,0)"  stroke-width="3"/>
<line x1="171.5" y1="259.1" x2="132.9" y2="263.1" opacity="1.0" stroke="rgb(0,0,0)"  stroke-width="3"/>
<line x1="166.3" y1="266.9" x2="139.7" y2="269.7" opacity="1.0" stroke="rgb(0,0,0)"  stroke-width="3"/>
<line x1="132.9" y1="263.1" x2="117.2" y2="298.6" opacity="1.0" stroke="rgb(0,0,0)"  stroke-width="3"/>
<line x1="365.6" y1="162.1" x2="332.0" y2="181.5" opacity="1.0" stroke="rgb(0,0,0)"  stroke-width="3"/>
<line x1="332.0" y1="181.5" x2="332.0" y2="220.3" opacity="1.0" stroke="rgb(0,0,0)"  stroke-width="3"/>
<line x1="339.2" y1="187.5" x2="339.2" y2="214.3" opacity="1.0" stroke="rgb(0,0,0)"  stroke-width="3"/>
<line x1="399.2" y1="220.3" x2="399.2" y2="181.5" opacity="1.0" stroke="rgb(0,0,0)"  stroke-width="3"/>
<line x1="399.2" y1="181.5" x2="365.6" y2="162.1" opacity="1.0" stroke="rgb(0,0,0)"  stroke-width="3"/>
<line x1="390.4" y1="184.7" x2="367.2" y2="171.3" opacity="1.0" stroke="rgb(0,0,0)"  stroke-width="3"/>
<line x1="606.9" y1="240.4" x2="591.1" y2="204.9" opacity="1.0" stroke="rgb(0,0,0)"  stroke-width="3"/>
<line x1="597.9" y1="237.8" x2="587.0" y2="213.4" opacity="1.0" stroke="rgb(0,0,0)"  stroke-width="3"/>
<line x1="591.1" y1="204.9" x2="552.6" y2="200.9" opacity="1.0" stroke="rgb(0,0,0)"  stroke-width="3"/>
<line x1="529.8" y1="232.3" x2="545.5" y2="267.7" opacity="1.0" stroke="rgb(0,0,0)"  stroke-width="3"/>
<line x1="545.5" y1="267.7" x2="584.1" y2="271.8" opacity="1.0" stroke="rgb(0,0,0)"  stroke-width="3"/>
<line x1="552.3" y1="261.2" x2="578.9" y2="264.0" opacity="1.0" stroke="rgb(0,0,0)"  stroke-width="3"/>
<line x1="584.1" y1="271.8" x2="606.9" y2="240.4" opacity="1.0" stroke="rgb(0,0,0)"  stroke-width="3"/>
<line x1="138.8" y1="373.1" x2="104.4" y2="391.0" opacity="1.0" stroke="rgb(0,0,0)"  stroke-width="3"/>
<line x1="136.8" y1="382.2" x2="113.1" y2="394.6" opacity="1.0" stroke="rgb(0,0,0)"  stroke-width="3"/>
<line x1="104.4" y1="391.0" x2="102.8" y2="429.8" opacity="1.0" stroke="rgb(0,0,0)"  stroke-width="3"/>
<line x1="102.8" y1="429.8" x2="135.5" y2="450.6" opacity="1.0" stroke="rgb(0,0,0)"  stroke-width="3"/>
<line x1="111.7" y1="426.9" x2="134.3" y2="441.3" opacity="1.0" stroke="rgb(0,0,0)"  stroke-width="3"/>
<line x1="135.5" y1="450.6" x2="169.9" y2="432.6" opacity="1.0" stroke="rgb(0,0,0)"  stroke-width="3"/>
<line x1="169.9" y1="432.6" x2="171.6" y2="393.8" opacity="1.0" stroke="rgb(0,0,0)"  stroke-width="3"/>
<line x1="163.0" y1="426.3" x2="164.1" y2="399.5" opacity="1.0" stroke="rgb(0,0,0)"  stroke-width="3"/>
<line x1="171.6" y1="393.8" x2="138.8" y2="373.1" opacity="1.0" stroke="rgb(0,0,0)"  stroke-width="3"/>
<line x1="283.0" y1="457.5" x2="268.8" y2="421.4" opacity="1.0" stroke="rgb(0,0,0)"  stroke-width="3"/>
<line x1="274.1" y1="454.6" x2="264.3" y2="429.6" opacity="1.0" stroke="rgb(0,0,0)"  stroke-width="3"/>
<line x1="268.8" y1="421.4" x2="230.4" y2="415.7" opacity="1.0" stroke="rgb(0,0,0)"  stroke-width="3"/>
<line x1="230.4" y1="415.7" x2="206.3" y2="446.1" opacity="1.0" stroke="rgb(0,0,0)"  stroke-width="3"/>
<line x1="232.3" y1="424.9" x2="215.6" y2="445.9" opacity="1.0" stroke="rgb(0,0,0)"  stroke-width="3"/>
<line x1="206.3" y1="446.1" x2="220.6" y2="482.2" opacity="1.0" stroke="rgb(0,0,0)"  stroke-width="3"/>
<line x1="220.6" y1="482.2" x2="258.9" y2="487.9" opacity="1.0" stroke="rgb(0,0,0)"  stroke-width="3"/>
<line x1="227.5" y1="476.0" x2="254.1" y2="479.9" opacity="1.0" stroke="rgb(0,0,0)"  stroke-width="3"/>
<line x1="258.9" y1="487.9" x2="283.0" y2="457.5" opacity="1.0" stroke="rgb(0,0,0)"  stroke-width="3"/>
<line x1="338.4" y1="418.4" x2="325.9" y2="455.1" opacity="1.0" stroke="rgb(0,0,0)"  stroke-width="3"/>
<line x1="343.3" y1="426.4" x2="334.6" y2="451.8" opacity="1.0" stroke="rgb(0,0,0)"  stroke-width="3"/>
<line x1="325.9" y1="455.1" x2="351.4" y2="484.3" opacity="1.0" stroke="rgb(0,0,0)"  stroke-width="3"/>
<line x1="351.4" y1="484.3" x2="389.5" y2="476.8" opacity="1.0" stroke="rgb(0,0,0)"  stroke-width="3"/>
<line x1="355.9" y1="476.1" x2="382.2" y2="470.9" opacity="1.0" stroke="rgb(0,0,0)"  stroke-width="3"/>
<line x1="389.5" y1="476.8" x2="402.0" y2="440.0" opacity="1.0" stroke="rgb(0,0,0)"  stroke-width="3"/>
<line x1="402.0" y1="440.0" x2="376.4" y2="410.9" opacity="1.0" stroke="rgb(0,0,0)"  stroke-width="3"/>
<line x1="392.6" y1="440.3" x2="375.0" y2="420.1" opacity="1.0" stroke="rgb(0,0,0)"  stroke-width="3"/>
<line x1="376.4" y1="410.9" x2="338.4" y2="418.4" opacity="1.0" stroke="rgb(0,0,0)"  stroke-width="3"/>
<line x1="501.0" y1="380.0" x2="465.8" y2="363.7" opacity="1.0" stroke="rgb(0,0,0)"  stroke-width="3"/>
<line x1="492.6" y1="384.0" x2="468.2" y2="372.8" opacity="1.0" stroke="rgb(0,0,0)"  stroke-width="3"/>
<line x1="465.8" y1="363.7" x2="434.1" y2="386.1" opacity="1.0" stroke="rgb(0,0,0)"  stroke-width="3"/>
<line x1="434.1" y1="386.1" x2="437.6" y2="424.7" opacity="1.0" stroke="rgb(0,0,0)"  stroke-width="3"/>
<line x1="441.8" y1="391.4" x2="444.3" y2="418.1" opacity="1.0" stroke="rgb(0,0,0)"  stroke-width="3"/>
<line x1="437.6" y1="424.7" x2="472.9" y2="441.0" opacity="1.0" stroke="rgb(0,0,0)"  stroke-width="3"/>
<line x1="472.9" y1="441.0" x2="504.6" y2="418.6" opacity="1.0" stroke="rgb(0,0,0)"  stroke-width="3"/>
<line x1="473.6" y1="431.7" x2="495.5" y2="416.2" opacity="1.0" stroke="rgb(0,0,0)"  stroke-width="3"/>
<line x1="504.6" y1="418.6" x2="501.0" y2="380.0" opacity="1.0" stroke="rgb(0,0,0)"  stroke-width="3"/>
<line x1="375.2" y1="62.8" x2="379.2" y2="101.4" opacity="1.0" stroke="rgb(0,0,0)"  stroke-width="3"/>
<line x1="382.9" y1="68.0" x2="385.7" y2="94.7" opacity="1.0" stroke="rgb(0,0,0)"  stroke-width="3"/>
<line x1="379.2" y1="101.4" x2="414.7" y2="117.2" opacity="1.0" stroke="rgb(0,0,0)"  stroke-width="3"/>
<line x1="446.0" y1="94.4" x2="442.0" y2="55.8" opacity="1.0" stroke="rgb(0,0,0)"  stroke-width="3"/>
<line x1="442.0" y1="55.8" x2="406.5" y2="40.0" opacity="1.0" stroke="rgb(0,0,0)"  stroke-width="3"/>
<line x1="433.6" y1="59.9" x2="409.1" y2="49.0" opacity="1.0" stroke="rgb(0,0,0)"  stroke-width="3"/>
<line x1="406.5" y1="40.0" x2="375.2" y2="62.8" opacity="1.0" stroke="rgb(0,0,0)"  stroke-width="3"/>
<line x1="492.9" y1="181.5" x2="465.4" y2="154.1" opacity="1.0" stroke="rgb(0,0,0)"  stroke-width="3"/>
<line x1="477.4" y1="117.2" x2="514.3" y2="105.2" opacity="1.0" stroke="rgb(0,0,0)"  stroke-width="3"/>
<line x1="514.3" y1="105.2" x2="541.7" y2="132.6" opacity="1.0" stroke="rgb(0,0,0)"  stroke-width="3"/>
<line x1="513.5" y1="114.5" x2="532.4" y2="133.5" opacity="1.0" stroke="rgb(0,0,0)"  stroke-width="3"/>
<line x1="541.7" y1="132.6" x2="529.8" y2="169.5" opacity="1.0" stroke="rgb(0,0,0)"  stroke-width="3"/>
<line x1="483.7" y1="229.5" x2="465.4" y2="247.7" opacity="1.0" stroke="rgb(0,0,0)"  stroke-width="3"/>
<line x1="399.2" y1="181.5" x2="417.4" y2="163.3" opacity="1.0" stroke="rgb(0,0,0)"  stroke-width="3"/>
<line x1="169.9" y1="432.6" x2="206.3" y2="446.1" opacity="1.0" stroke="rgb(0,0,0)"  stroke-width="3"/>
<line x1="230.4" y1="415.7" x2="208.9" y2="383.4" opacity="1.0" stroke="rgb(0,0,0)"  stroke-width="3"/>
<line x1="208.9" y1="383.4" x2="171.6" y2="393.8" opacity="1.0" stroke="rgb(0,0,0)"  stroke-width="3"/>
<line x1="402.0" y1="440.0" x2="437.6" y2="424.7" opacity="1.0" stroke="rgb(0,0,0)"  stroke-width="3"/>
<line x1="434.1" y1="386.1" x2="396.3" y2="377.5" opacity="1.0" stroke="rgb(0,0,0)"  stroke-width="3"/>
<line x1="396.3" y1="377.5" x2="376.4" y2="410.9" opacity="1.0" stroke="rgb(0,0,0)"  stroke-width="3"/>
<line x1="332.0" y1="336.7" x2="396.3" y2="377.5" opacity="1.0" stroke="rgb(0,0,0)"  stroke-width="3"/>
<line x1="396.3" y1="377.5" x2="426.6" y2="314.9" opacity="1.0" stroke="rgb(0,0,0)"  stroke-width="3"/>
<line x1="178.5" y1="325.9" x2="208.9" y2="383.4" opacity="1.0" stroke="rgb(0,0,0)"  stroke-width="3"/>
<line x1="208.9" y1="383.4" x2="264.8" y2="336.7" opacity="1.0" stroke="rgb(0,0,0)"  stroke-width="3"/>
<text x="292.416657" y="247.682566" fill="rgb(255,181,181)" stroke-width="0" font-weight="bold" font-size="25.92" >B</text>
<text x="486.865117" y="228.285389" fill="rgb(12,12,255)" stroke-width="0" font-weight="bold" font-size="25.92" >N</text>
<text x="420.639055" y="162.059280" fill="rgb(12,12,255)" stroke-width="0" font-weight="bold" font-size="25.92" >N</text>
<text x="359.610436" y="286.476874" fill="rgb(12,12,255)" stroke-width="0" font-weight="bold" font-size="25.92" >N</text>
<text x="225.222879" y="286.476874" fill="rgb(12,12,255)" stroke-width="0" font-weight="bold" font-size="25.92" >N</text>
</svg>
</g>
</svg>
