<?xml version="1.0"?>
<svg version="1.1" id="topsvg"
xmlns="http://www.w3.org/2000/svg" xmlns:xlink="http://www.w3.org/1999/xlink"
xmlns:cml="http://www.xml-cml.org/schema" x="0" y="0" width="200px" height="200px" viewBox="0 0 100 100">
<title>GD383.sdf - Open Babel Depiction</title>
<rect x="0" y="0" width="100" height="100" fill="white"/>
<g transform="translate(0,0)">
<svg width="100" height="100" x="0" y="0" viewBox="0 0 737.986 524.469"
font-family="sans-serif" stroke="rgb(0,0,0)" stroke-width="3"  stroke-linecap="round">
<line x1="665.6" y1="235.7" x2="642.1" y2="203.4" opacity="1.0" stroke="rgb(0,0,0)"  stroke-width="3"/>
<line x1="665.6" y1="235.7" x2="698.0" y2="212.2" opacity="1.0" stroke="rgb(0,0,0)"  stroke-width="3"/>
<line x1="665.6" y1="235.7" x2="689.1" y2="268.1" opacity="1.0" stroke="rgb(0,0,0)"  stroke-width="3"/>
<line x1="633.2" y1="259.3" x2="665.6" y2="235.7" opacity="1.0" stroke="rgb(0,0,0)"  stroke-width="3"/>
<line x1="72.4" y1="288.7" x2="95.9" y2="321.1" opacity="1.0" stroke="rgb(0,0,0)"  stroke-width="3"/>
<line x1="72.4" y1="288.7" x2="40.0" y2="312.2" opacity="1.0" stroke="rgb(0,0,0)"  stroke-width="3"/>
<line x1="72.4" y1="288.7" x2="48.8" y2="256.4" opacity="1.0" stroke="rgb(0,0,0)"  stroke-width="3"/>
<line x1="104.8" y1="265.1" x2="72.4" y2="288.7" opacity="1.0" stroke="rgb(0,0,0)"  stroke-width="3"/>
<line x1="376.8" y1="445.8" x2="415.4" y2="456.2" opacity="1.0" stroke="rgb(0,0,0)"  stroke-width="3"/>
<line x1="376.8" y1="445.8" x2="366.4" y2="484.5" opacity="1.0" stroke="rgb(0,0,0)"  stroke-width="3"/>
<line x1="376.8" y1="445.8" x2="338.1" y2="435.5" opacity="1.0" stroke="rgb(0,0,0)"  stroke-width="3"/>
<line x1="387.1" y1="407.1" x2="376.8" y2="445.8" opacity="1.0" stroke="rgb(0,0,0)"  stroke-width="3"/>
<line x1="442.5" y1="443.5" x2="482.5" y2="443.5" opacity="1.0" stroke="rgb(0,0,0)"  stroke-width="3"/>
<line x1="442.5" y1="443.5" x2="442.5" y2="483.4" opacity="1.0" stroke="rgb(0,0,0)"  stroke-width="3"/>
<line x1="442.5" y1="443.5" x2="402.5" y2="443.5" opacity="1.0" stroke="rgb(0,0,0)"  stroke-width="3"/>
<line x1="442.5" y1="403.3" x2="442.5" y2="443.5" opacity="1.0" stroke="rgb(0,0,0)"  stroke-width="3"/>
<line x1="295.5" y1="81.0" x2="255.5" y2="81.0" opacity="1.0" stroke="rgb(0,0,0)"  stroke-width="3"/>
<line x1="295.5" y1="81.0" x2="295.5" y2="41.0" opacity="1.0" stroke="rgb(0,0,0)"  stroke-width="3"/>
<line x1="295.5" y1="81.0" x2="335.5" y2="81.0" opacity="1.0" stroke="rgb(0,0,0)"  stroke-width="3"/>
<line x1="295.5" y1="121.1" x2="295.5" y2="81.0" opacity="1.0" stroke="rgb(0,0,0)"  stroke-width="3"/>
<line x1="361.2" y1="78.6" x2="322.6" y2="68.3" opacity="1.0" stroke="rgb(0,0,0)"  stroke-width="3"/>
<line x1="361.2" y1="78.6" x2="371.6" y2="40.0" opacity="1.0" stroke="rgb(0,0,0)"  stroke-width="3"/>
<line x1="361.2" y1="78.6" x2="399.9" y2="89.0" opacity="1.0" stroke="rgb(0,0,0)"  stroke-width="3"/>
<line x1="350.8" y1="117.4" x2="361.2" y2="78.6" opacity="1.0" stroke="rgb(0,0,0)"  stroke-width="3"/>
<line x1="404.4" y1="176.8" x2="365.2" y2="185.1" opacity="1.0" stroke="rgb(0,0,0)"  stroke-width="3"/>
<line x1="400.0" y1="185.1" x2="372.6" y2="190.9" opacity="1.0" stroke="rgb(0,0,0)"  stroke-width="3"/>
<line x1="365.2" y1="185.1" x2="356.6" y2="224.2" opacity="1.0" stroke="rgb(0,0,0)"  stroke-width="3"/>
<line x1="356.6" y1="224.2" x2="395.8" y2="232.5" opacity="1.0" stroke="rgb(0,0,0)"  stroke-width="3"/>
<line x1="364.0" y1="218.4" x2="391.4" y2="224.2" opacity="1.0" stroke="rgb(0,0,0)"  stroke-width="3"/>
<line x1="395.8" y1="232.5" x2="417.6" y2="216.6" opacity="1.0" stroke="rgb(0,0,0)"  stroke-width="3"/>
<line x1="420.4" y1="198.5" x2="404.4" y2="176.8" opacity="1.0" stroke="rgb(0,0,0)"  stroke-width="3"/>
<line x1="460.5" y1="232.5" x2="438.6" y2="216.6" opacity="1.0" stroke="rgb(0,0,0)"  stroke-width="3"/>
<line x1="395.8" y1="232.5" x2="408.1" y2="270.5" opacity="1.0" stroke="rgb(0,0,0)"  stroke-width="3"/>
<line x1="408.1" y1="270.5" x2="448.1" y2="270.5" opacity="1.0" stroke="rgb(0,0,0)"  stroke-width="3"/>
<line x1="448.1" y1="270.5" x2="460.5" y2="232.5" opacity="1.0" stroke="rgb(0,0,0)"  stroke-width="3"/>
<line x1="443.1" y1="262.6" x2="451.8" y2="236.0" opacity="1.0" stroke="rgb(0,0,0)"  stroke-width="3"/>
<line x1="289.9" y1="253.9" x2="277.5" y2="292.0" opacity="1.0" stroke="rgb(0,0,0)"  stroke-width="3"/>
<line x1="294.9" y1="261.9" x2="286.2" y2="288.5" opacity="1.0" stroke="rgb(0,0,0)"  stroke-width="3"/>
<line x1="277.5" y1="292.0" x2="299.4" y2="307.8" opacity="1.0" stroke="rgb(0,0,0)"  stroke-width="3"/>
<line x1="320.4" y1="307.8" x2="342.2" y2="292.0" opacity="1.0" stroke="rgb(0,0,0)"  stroke-width="3"/>
<line x1="342.2" y1="292.0" x2="329.9" y2="253.9" opacity="1.0" stroke="rgb(0,0,0)"  stroke-width="3"/>
<line x1="333.5" y1="288.5" x2="324.9" y2="261.9" opacity="1.0" stroke="rgb(0,0,0)"  stroke-width="3"/>
<line x1="329.9" y1="253.9" x2="289.9" y2="253.9" opacity="1.0" stroke="rgb(0,0,0)"  stroke-width="3"/>
<line x1="333.6" y1="347.6" x2="372.7" y2="339.3" opacity="1.0" stroke="rgb(0,0,0)"  stroke-width="3"/>
<line x1="338.0" y1="339.3" x2="365.4" y2="333.5" opacity="1.0" stroke="rgb(0,0,0)"  stroke-width="3"/>
<line x1="372.7" y1="339.3" x2="381.4" y2="300.3" opacity="1.0" stroke="rgb(0,0,0)"  stroke-width="3"/>
<line x1="381.4" y1="300.3" x2="342.2" y2="292.0" opacity="1.0" stroke="rgb(0,0,0)"  stroke-width="3"/>
<line x1="317.6" y1="325.9" x2="333.6" y2="347.6" opacity="1.0" stroke="rgb(0,0,0)"  stroke-width="3"/>
<line x1="169.5" y1="218.1" x2="173.7" y2="257.9" opacity="1.0" stroke="rgb(0,0,0)"  stroke-width="3"/>
<line x1="177.3" y1="223.3" x2="180.2" y2="251.2" opacity="1.0" stroke="rgb(0,0,0)"  stroke-width="3"/>
<line x1="173.7" y1="257.9" x2="211.6" y2="270.5" opacity="1.0" stroke="rgb(0,0,0)"  stroke-width="3"/>
<line x1="211.6" y1="270.5" x2="224.0" y2="232.5" opacity="1.0" stroke="rgb(0,0,0)"  stroke-width="3"/>
<line x1="224.0" y1="232.5" x2="210.5" y2="209.1" opacity="1.0" stroke="rgb(0,0,0)"  stroke-width="3"/>
<line x1="192.8" y1="204.5" x2="169.5" y2="218.1" opacity="1.0" stroke="rgb(0,0,0)"  stroke-width="3"/>
<line x1="568.5" y1="306.3" x2="545.2" y2="320.0" opacity="1.0" stroke="rgb(0,0,0)"  stroke-width="3"/>
<line x1="527.5" y1="315.3" x2="514.0" y2="292.0" opacity="1.0" stroke="rgb(0,0,0)"  stroke-width="3"/>
<line x1="514.0" y1="292.0" x2="526.3" y2="253.9" opacity="1.0" stroke="rgb(0,0,0)"  stroke-width="3"/>
<line x1="526.3" y1="253.9" x2="564.3" y2="266.6" opacity="1.0" stroke="rgb(0,0,0)"  stroke-width="3"/>
<line x1="564.3" y1="266.6" x2="568.5" y2="306.3" opacity="1.0" stroke="rgb(0,0,0)"  stroke-width="3"/>
<line x1="557.7" y1="273.3" x2="560.7" y2="301.1" opacity="1.0" stroke="rgb(0,0,0)"  stroke-width="3"/>
<line x1="230.8" y1="168.2" x2="212.7" y2="188.2" opacity="1.0" stroke="rgb(0,0,0)"  stroke-width="3"/>
<line x1="224.0" y1="232.5" x2="263.1" y2="224.2" opacity="1.0" stroke="rgb(0,0,0)"  stroke-width="3"/>
<line x1="228.4" y1="224.2" x2="255.8" y2="218.4" opacity="1.0" stroke="rgb(0,0,0)"  stroke-width="3"/>
<line x1="263.1" y1="224.2" x2="267.3" y2="184.4" opacity="1.0" stroke="rgb(0,0,0)"  stroke-width="3"/>
<line x1="267.3" y1="184.4" x2="230.8" y2="168.2" opacity="1.0" stroke="rgb(0,0,0)"  stroke-width="3"/>
<line x1="507.2" y1="356.3" x2="525.3" y2="336.2" opacity="1.0" stroke="rgb(0,0,0)"  stroke-width="3"/>
<line x1="514.0" y1="292.0" x2="474.9" y2="300.3" opacity="1.0" stroke="rgb(0,0,0)"  stroke-width="3"/>
<line x1="509.6" y1="300.2" x2="482.2" y2="306.1" opacity="1.0" stroke="rgb(0,0,0)"  stroke-width="3"/>
<line x1="474.9" y1="300.3" x2="470.7" y2="340.0" opacity="1.0" stroke="rgb(0,0,0)"  stroke-width="3"/>
<line x1="470.7" y1="340.0" x2="507.2" y2="356.3" opacity="1.0" stroke="rgb(0,0,0)"  stroke-width="3"/>
<line x1="381.4" y1="300.3" x2="408.1" y2="270.5" opacity="1.0" stroke="rgb(0,0,0)"  stroke-width="3"/>
<line x1="380.0" y1="291.0" x2="398.7" y2="270.2" opacity="1.0" stroke="rgb(0,0,0)"  stroke-width="3"/>
<line x1="356.6" y1="224.2" x2="329.9" y2="253.9" opacity="1.0" stroke="rgb(0,0,0)"  stroke-width="3"/>
<line x1="350.8" y1="117.4" x2="338.5" y2="155.4" opacity="1.0" stroke="rgb(0,0,0)"  stroke-width="3"/>
<line x1="355.8" y1="125.3" x2="347.2" y2="151.9" opacity="1.0" stroke="rgb(0,0,0)"  stroke-width="3"/>
<line x1="338.5" y1="155.4" x2="365.2" y2="185.1" opacity="1.0" stroke="rgb(0,0,0)"  stroke-width="3"/>
<line x1="404.4" y1="176.8" x2="416.7" y2="138.8" opacity="1.0" stroke="rgb(0,0,0)"  stroke-width="3"/>
<line x1="416.7" y1="138.8" x2="390.0" y2="109.1" opacity="1.0" stroke="rgb(0,0,0)"  stroke-width="3"/>
<line x1="407.4" y1="139.2" x2="388.6" y2="118.4" opacity="1.0" stroke="rgb(0,0,0)"  stroke-width="3"/>
<line x1="390.0" y1="109.1" x2="350.8" y2="117.4" opacity="1.0" stroke="rgb(0,0,0)"  stroke-width="3"/>
<line x1="526.3" y1="253.9" x2="499.6" y2="224.2" opacity="1.0" stroke="rgb(0,0,0)"  stroke-width="3"/>
<line x1="517.0" y1="254.3" x2="498.2" y2="233.5" opacity="1.0" stroke="rgb(0,0,0)"  stroke-width="3"/>
<line x1="499.6" y1="224.2" x2="460.5" y2="232.5" opacity="1.0" stroke="rgb(0,0,0)"  stroke-width="3"/>
<line x1="448.1" y1="270.5" x2="474.9" y2="300.3" opacity="1.0" stroke="rgb(0,0,0)"  stroke-width="3"/>
<line x1="211.6" y1="270.5" x2="238.4" y2="300.3" opacity="1.0" stroke="rgb(0,0,0)"  stroke-width="3"/>
<line x1="221.0" y1="270.2" x2="239.7" y2="291.0" opacity="1.0" stroke="rgb(0,0,0)"  stroke-width="3"/>
<line x1="238.4" y1="300.3" x2="277.5" y2="292.0" opacity="1.0" stroke="rgb(0,0,0)"  stroke-width="3"/>
<line x1="289.9" y1="253.9" x2="263.1" y2="224.2" opacity="1.0" stroke="rgb(0,0,0)"  stroke-width="3"/>
<line x1="387.1" y1="407.1" x2="399.5" y2="369.0" opacity="1.0" stroke="rgb(0,0,0)"  stroke-width="3"/>
<line x1="382.2" y1="399.1" x2="390.8" y2="372.5" opacity="1.0" stroke="rgb(0,0,0)"  stroke-width="3"/>
<line x1="399.5" y1="369.0" x2="372.7" y2="339.3" opacity="1.0" stroke="rgb(0,0,0)"  stroke-width="3"/>
<line x1="333.6" y1="347.6" x2="321.3" y2="385.7" opacity="1.0" stroke="rgb(0,0,0)"  stroke-width="3"/>
<line x1="321.3" y1="385.7" x2="348.0" y2="415.4" opacity="1.0" stroke="rgb(0,0,0)"  stroke-width="3"/>
<line x1="330.6" y1="385.3" x2="349.4" y2="406.1" opacity="1.0" stroke="rgb(0,0,0)"  stroke-width="3"/>
<line x1="348.0" y1="415.4" x2="387.1" y2="407.1" opacity="1.0" stroke="rgb(0,0,0)"  stroke-width="3"/>
<line x1="633.2" y1="259.3" x2="596.6" y2="243.1" opacity="1.0" stroke="rgb(0,0,0)"  stroke-width="3"/>
<line x1="624.8" y1="263.5" x2="599.2" y2="252.1" opacity="1.0" stroke="rgb(0,0,0)"  stroke-width="3"/>
<line x1="596.6" y1="243.1" x2="564.3" y2="266.6" opacity="1.0" stroke="rgb(0,0,0)"  stroke-width="3"/>
<line x1="568.5" y1="306.3" x2="605.0" y2="322.6" opacity="1.0" stroke="rgb(0,0,0)"  stroke-width="3"/>
<line x1="605.0" y1="322.6" x2="637.3" y2="299.1" opacity="1.0" stroke="rgb(0,0,0)"  stroke-width="3"/>
<line x1="605.6" y1="313.2" x2="628.3" y2="296.8" opacity="1.0" stroke="rgb(0,0,0)"  stroke-width="3"/>
<line x1="637.3" y1="299.1" x2="633.2" y2="259.3" opacity="1.0" stroke="rgb(0,0,0)"  stroke-width="3"/>
<line x1="104.8" y1="265.1" x2="141.4" y2="281.4" opacity="1.0" stroke="rgb(0,0,0)"  stroke-width="3"/>
<line x1="113.2" y1="261.0" x2="138.8" y2="272.4" opacity="1.0" stroke="rgb(0,0,0)"  stroke-width="3"/>
<line x1="141.4" y1="281.4" x2="173.7" y2="257.9" opacity="1.0" stroke="rgb(0,0,0)"  stroke-width="3"/>
<line x1="169.5" y1="218.1" x2="133.0" y2="201.9" opacity="1.0" stroke="rgb(0,0,0)"  stroke-width="3"/>
<line x1="133.0" y1="201.9" x2="100.6" y2="225.4" opacity="1.0" stroke="rgb(0,0,0)"  stroke-width="3"/>
<line x1="132.4" y1="211.2" x2="109.7" y2="227.7" opacity="1.0" stroke="rgb(0,0,0)"  stroke-width="3"/>
<line x1="100.6" y1="225.4" x2="104.8" y2="265.1" opacity="1.0" stroke="rgb(0,0,0)"  stroke-width="3"/>
<line x1="226.6" y1="128.4" x2="230.8" y2="168.2" opacity="1.0" stroke="rgb(0,0,0)"  stroke-width="3"/>
<line x1="234.4" y1="133.6" x2="237.3" y2="161.4" opacity="1.0" stroke="rgb(0,0,0)"  stroke-width="3"/>
<line x1="267.3" y1="184.4" x2="299.7" y2="160.9" opacity="1.0" stroke="rgb(0,0,0)"  stroke-width="3"/>
<line x1="267.9" y1="175.1" x2="290.6" y2="158.6" opacity="1.0" stroke="rgb(0,0,0)"  stroke-width="3"/>
<line x1="299.7" y1="160.9" x2="295.5" y2="121.1" opacity="1.0" stroke="rgb(0,0,0)"  stroke-width="3"/>
<line x1="295.5" y1="121.1" x2="258.9" y2="104.9" opacity="1.0" stroke="rgb(0,0,0)"  stroke-width="3"/>
<line x1="287.1" y1="125.3" x2="261.5" y2="113.9" opacity="1.0" stroke="rgb(0,0,0)"  stroke-width="3"/>
<line x1="258.9" y1="104.9" x2="226.6" y2="128.4" opacity="1.0" stroke="rgb(0,0,0)"  stroke-width="3"/>
<line x1="511.4" y1="396.1" x2="507.2" y2="356.3" opacity="1.0" stroke="rgb(0,0,0)"  stroke-width="3"/>
<line x1="503.6" y1="390.9" x2="500.7" y2="363.0" opacity="1.0" stroke="rgb(0,0,0)"  stroke-width="3"/>
<line x1="470.7" y1="340.0" x2="438.3" y2="363.5" opacity="1.0" stroke="rgb(0,0,0)"  stroke-width="3"/>
<line x1="470.1" y1="349.4" x2="447.4" y2="365.8" opacity="1.0" stroke="rgb(0,0,0)"  stroke-width="3"/>
<line x1="438.3" y1="363.5" x2="442.5" y2="403.3" opacity="1.0" stroke="rgb(0,0,0)"  stroke-width="3"/>
<line x1="442.5" y1="403.3" x2="479.0" y2="419.6" opacity="1.0" stroke="rgb(0,0,0)"  stroke-width="3"/>
<line x1="450.9" y1="399.2" x2="476.5" y2="410.6" opacity="1.0" stroke="rgb(0,0,0)"  stroke-width="3"/>
<line x1="479.0" y1="419.6" x2="511.4" y2="396.1" opacity="1.0" stroke="rgb(0,0,0)"  stroke-width="3"/>
<text x="303.879831" y="323.460249" fill="rgb(12,12,255)" stroke-width="0" font-weight="bold" font-size="25.92" >N</text>
<text x="422.106414" y="217.008527" fill="rgb(12,12,255)" stroke-width="0" font-weight="bold" font-size="25.92" >N</text>
<text x="198.011295" y="205.881304" fill="rgb(12,12,255)" stroke-width="0" font-weight="bold" font-size="25.92" >N</text>
<text x="527.974999" y="334.587473" fill="rgb(12,12,255)" stroke-width="0" font-weight="bold" font-size="25.92" >N</text>
</svg>
</g>
</svg>
