<?xml version="1.0"?>
<svg version="1.1" id="topsvg"
xmlns="http://www.w3.org/2000/svg" xmlns:xlink="http://www.w3.org/1999/xlink"
xmlns:cml="http://www.xml-cml.org/schema" x="0" y="0" width="200px" height="200px" viewBox="0 0 100 100">
<title>GD387.sdf - Open Babel Depiction</title>
<rect x="0" y="0" width="100" height="100" fill="white"/>
<g transform="translate(0,0)">
<svg width="100" height="100" x="0" y="0" viewBox="0 0 564.285 493.839"
font-family="sans-serif" stroke="rgb(0,0,0)" stroke-width="3"  stroke-linecap="round">
<line x1="278.8" y1="333.2" x2="254.5" y2="333.2" opacity="1.0" stroke="rgb(0,0,0)"  stroke-width="3"/>
<line x1="278.8" y1="333.2" x2="278.8" y2="357.6" opacity="1.0" stroke="rgb(0,0,0)"  stroke-width="3"/>
<line x1="278.8" y1="333.2" x2="303.2" y2="333.2" opacity="1.0" stroke="rgb(0,0,0)"  stroke-width="3"/>
<line x1="278.8" y1="295.9" x2="278.8" y2="333.2" opacity="1.0" stroke="rgb(0,0,0)"  stroke-width="3"/>
<line x1="164.5" y1="120.9" x2="145.8" y2="88.6" opacity="1.0" stroke="rgb(0,0,0)"  stroke-width="3"/>
<line x1="117.0" y1="274.0" x2="83.2" y2="289.7" opacity="1.0" stroke="rgb(0,0,0)"  stroke-width="3"/>
<line x1="83.2" y1="289.7" x2="79.8" y2="326.8" opacity="1.0" stroke="rgb(0,0,0)"  stroke-width="3"/>
<line x1="83.2" y1="289.7" x2="49.3" y2="305.3" opacity="1.0" stroke="rgb(0,0,0)"  stroke-width="3"/>
<line x1="145.8" y1="88.6" x2="127.2" y2="56.3" opacity="1.0" stroke="rgb(0,0,0)"  stroke-width="3"/>
<line x1="145.8" y1="88.6" x2="108.5" y2="88.6" opacity="1.0" stroke="rgb(0,0,0)"  stroke-width="3"/>
<line x1="145.8" y1="88.6" x2="164.5" y2="56.3" opacity="1.0" stroke="rgb(0,0,0)"  stroke-width="3"/>
<line x1="377.5" y1="75.8" x2="367.0" y2="111.6" opacity="1.0" stroke="rgb(0,0,0)"  stroke-width="3"/>
<line x1="377.5" y1="75.8" x2="351.2" y2="49.4" opacity="1.0" stroke="rgb(0,0,0)"  stroke-width="3"/>
<line x1="377.5" y1="75.8" x2="413.8" y2="67.0" opacity="1.0" stroke="rgb(0,0,0)"  stroke-width="3"/>
<line x1="377.5" y1="75.8" x2="388.1" y2="40.0" opacity="1.0" stroke="rgb(0,0,0)"  stroke-width="3"/>
<line x1="450.9" y1="248.2" x2="487.6" y2="254.9" opacity="1.0" stroke="rgb(0,0,0)"  stroke-width="3"/>
<line x1="487.6" y1="254.9" x2="524.3" y2="261.7" opacity="1.0" stroke="rgb(0,0,0)"  stroke-width="3"/>
<line x1="487.6" y1="254.9" x2="500.1" y2="290.1" opacity="1.0" stroke="rgb(0,0,0)"  stroke-width="3"/>
<line x1="487.6" y1="254.9" x2="511.8" y2="226.5" opacity="1.0" stroke="rgb(0,0,0)"  stroke-width="3"/>
<line x1="83.2" y1="289.7" x2="52.7" y2="268.2" opacity="1.0" stroke="rgb(0,0,0)"  stroke-width="3"/>
<line x1="154.3" y1="221.2" x2="165.4" y2="185.6" opacity="1.0" stroke="rgb(0,0,0)"  stroke-width="3"/>
<line x1="165.4" y1="185.6" x2="202.7" y2="185.1" opacity="1.0" stroke="rgb(0,0,0)"  stroke-width="3"/>
<line x1="171.5" y1="192.7" x2="196.8" y2="192.4" opacity="1.0" stroke="rgb(0,0,0)"  stroke-width="3"/>
<line x1="202.7" y1="185.1" x2="210.5" y2="208.1" opacity="1.0" stroke="rgb(0,0,0)"  stroke-width="3"/>
<line x1="204.3" y1="228.2" x2="184.8" y2="242.8" opacity="1.0" stroke="rgb(0,0,0)"  stroke-width="3"/>
<line x1="184.8" y1="242.8" x2="154.3" y2="221.2" opacity="1.0" stroke="rgb(0,0,0)"  stroke-width="3"/>
<line x1="184.1" y1="233.4" x2="163.4" y2="218.8" opacity="1.0" stroke="rgb(0,0,0)"  stroke-width="3"/>
<line x1="401.7" y1="206.2" x2="377.5" y2="234.7" opacity="1.0" stroke="rgb(0,0,0)"  stroke-width="3"/>
<line x1="392.3" y1="206.1" x2="375.9" y2="225.4" opacity="1.0" stroke="rgb(0,0,0)"  stroke-width="3"/>
<line x1="377.5" y1="234.7" x2="355.0" y2="225.4" opacity="1.0" stroke="rgb(0,0,0)"  stroke-width="3"/>
<line x1="344.0" y1="207.4" x2="345.9" y2="183.2" opacity="1.0" stroke="rgb(0,0,0)"  stroke-width="3"/>
<line x1="345.9" y1="183.2" x2="382.1" y2="174.4" opacity="1.0" stroke="rgb(0,0,0)"  stroke-width="3"/>
<line x1="353.4" y1="188.8" x2="378.0" y2="182.8" opacity="1.0" stroke="rgb(0,0,0)"  stroke-width="3"/>
<line x1="382.1" y1="174.4" x2="401.7" y2="206.2" opacity="1.0" stroke="rgb(0,0,0)"  stroke-width="3"/>
<line x1="112.8" y1="385.8" x2="101.7" y2="421.4" opacity="1.0" stroke="rgb(0,0,0)"  stroke-width="3"/>
<line x1="117.9" y1="393.7" x2="110.4" y2="417.9" opacity="1.0" stroke="rgb(0,0,0)"  stroke-width="3"/>
<line x1="101.7" y1="421.4" x2="120.7" y2="435.6" opacity="1.0" stroke="rgb(0,0,0)"  stroke-width="3"/>
<line x1="141.6" y1="435.7" x2="162.1" y2="420.7" opacity="1.0" stroke="rgb(0,0,0)"  stroke-width="3"/>
<line x1="162.1" y1="420.7" x2="150.2" y2="385.4" opacity="1.0" stroke="rgb(0,0,0)"  stroke-width="3"/>
<line x1="153.4" y1="417.4" x2="145.3" y2="393.4" opacity="1.0" stroke="rgb(0,0,0)"  stroke-width="3"/>
<line x1="150.2" y1="385.4" x2="112.8" y2="385.8" opacity="1.0" stroke="rgb(0,0,0)"  stroke-width="3"/>
<line x1="468.5" y1="392.2" x2="448.4" y2="361.1" opacity="1.0" stroke="rgb(0,0,0)"  stroke-width="3"/>
<line x1="459.2" y1="391.1" x2="445.6" y2="370.0" opacity="1.0" stroke="rgb(0,0,0)"  stroke-width="3"/>
<line x1="448.4" y1="361.1" x2="412.0" y2="371.0" opacity="1.0" stroke="rgb(0,0,0)"  stroke-width="3"/>
<line x1="412.0" y1="371.0" x2="410.3" y2="408.3" opacity="1.0" stroke="rgb(0,0,0)"  stroke-width="3"/>
<line x1="418.9" y1="377.3" x2="417.8" y2="402.6" opacity="1.0" stroke="rgb(0,0,0)"  stroke-width="3"/>
<line x1="410.3" y1="408.3" x2="433.1" y2="416.8" opacity="1.0" stroke="rgb(0,0,0)"  stroke-width="3"/>
<line x1="453.3" y1="411.2" x2="468.5" y2="392.2" opacity="1.0" stroke="rgb(0,0,0)"  stroke-width="3"/>
<line x1="246.5" y1="277.3" x2="278.8" y2="295.9" opacity="1.0" stroke="rgb(0,0,0)"  stroke-width="3"/>
<line x1="278.8" y1="295.9" x2="311.2" y2="277.3" opacity="1.0" stroke="rgb(0,0,0)"  stroke-width="3"/>
<line x1="280.4" y1="286.7" x2="302.4" y2="274.0" opacity="1.0" stroke="rgb(0,0,0)"  stroke-width="3"/>
<line x1="311.2" y1="277.3" x2="311.2" y2="239.9" opacity="1.0" stroke="rgb(0,0,0)"  stroke-width="3"/>
<line x1="311.2" y1="239.9" x2="278.8" y2="221.3" opacity="1.0" stroke="rgb(0,0,0)"  stroke-width="3"/>
<line x1="302.4" y1="243.2" x2="280.4" y2="230.5" opacity="1.0" stroke="rgb(0,0,0)"  stroke-width="3"/>
<line x1="278.8" y1="221.3" x2="246.5" y2="239.9" opacity="1.0" stroke="rgb(0,0,0)"  stroke-width="3"/>
<line x1="246.5" y1="239.9" x2="246.5" y2="277.3" opacity="1.0" stroke="rgb(0,0,0)"  stroke-width="3"/>
<line x1="253.7" y1="245.9" x2="253.7" y2="271.3" opacity="1.0" stroke="rgb(0,0,0)"  stroke-width="3"/>
<line x1="202.7" y1="185.1" x2="220.9" y2="152.5" opacity="1.0" stroke="rgb(0,0,0)"  stroke-width="3"/>
<line x1="220.9" y1="152.5" x2="267.4" y2="177.6" opacity="1.0" stroke="rgb(0,0,0)"  stroke-width="3"/>
<line x1="278.8" y1="196.8" x2="278.8" y2="221.3" opacity="1.0" stroke="rgb(0,0,0)"  stroke-width="3"/>
<line x1="246.5" y1="239.9" x2="225.8" y2="227.2" opacity="1.0" stroke="rgb(0,0,0)"  stroke-width="3"/>
<line x1="117.0" y1="274.0" x2="147.5" y2="295.6" opacity="1.0" stroke="rgb(0,0,0)"  stroke-width="3"/>
<line x1="147.5" y1="295.6" x2="181.4" y2="279.9" opacity="1.0" stroke="rgb(0,0,0)"  stroke-width="3"/>
<line x1="150.0" y1="286.5" x2="173.0" y2="275.9" opacity="1.0" stroke="rgb(0,0,0)"  stroke-width="3"/>
<line x1="181.4" y1="279.9" x2="184.8" y2="242.8" opacity="1.0" stroke="rgb(0,0,0)"  stroke-width="3"/>
<line x1="154.3" y1="221.2" x2="120.4" y2="236.9" opacity="1.0" stroke="rgb(0,0,0)"  stroke-width="3"/>
<line x1="120.4" y1="236.9" x2="117.0" y2="274.0" opacity="1.0" stroke="rgb(0,0,0)"  stroke-width="3"/>
<line x1="127.1" y1="243.5" x2="124.8" y2="268.7" opacity="1.0" stroke="rgb(0,0,0)"  stroke-width="3"/>
<line x1="331.9" y1="227.2" x2="311.2" y2="239.9" opacity="1.0" stroke="rgb(0,0,0)"  stroke-width="3"/>
<line x1="289.6" y1="176.6" x2="320.1" y2="156.1" opacity="1.0" stroke="rgb(0,0,0)"  stroke-width="3"/>
<line x1="320.1" y1="156.1" x2="345.9" y2="183.2" opacity="1.0" stroke="rgb(0,0,0)"  stroke-width="3"/>
<line x1="450.9" y1="248.2" x2="426.7" y2="276.6" opacity="1.0" stroke="rgb(0,0,0)"  stroke-width="3"/>
<line x1="426.7" y1="276.6" x2="390.0" y2="269.8" opacity="1.0" stroke="rgb(0,0,0)"  stroke-width="3"/>
<line x1="422.1" y1="268.4" x2="397.2" y2="263.8" opacity="1.0" stroke="rgb(0,0,0)"  stroke-width="3"/>
<line x1="390.0" y1="269.8" x2="377.5" y2="234.7" opacity="1.0" stroke="rgb(0,0,0)"  stroke-width="3"/>
<line x1="401.7" y1="206.2" x2="438.4" y2="213.0" opacity="1.0" stroke="rgb(0,0,0)"  stroke-width="3"/>
<line x1="438.4" y1="213.0" x2="450.9" y2="248.2" opacity="1.0" stroke="rgb(0,0,0)"  stroke-width="3"/>
<line x1="433.6" y1="221.1" x2="442.1" y2="244.9" opacity="1.0" stroke="rgb(0,0,0)"  stroke-width="3"/>
<line x1="367.0" y1="111.6" x2="330.7" y2="120.3" opacity="1.0" stroke="rgb(0,0,0)"  stroke-width="3"/>
<line x1="330.7" y1="120.3" x2="320.1" y2="156.1" opacity="1.0" stroke="rgb(0,0,0)"  stroke-width="3"/>
<line x1="335.9" y1="128.1" x2="328.7" y2="152.4" opacity="1.0" stroke="rgb(0,0,0)"  stroke-width="3"/>
<line x1="382.1" y1="174.4" x2="392.7" y2="138.6" opacity="1.0" stroke="rgb(0,0,0)"  stroke-width="3"/>
<line x1="392.7" y1="138.6" x2="367.0" y2="111.6" opacity="1.0" stroke="rgb(0,0,0)"  stroke-width="3"/>
<line x1="383.4" y1="139.3" x2="365.9" y2="120.9" opacity="1.0" stroke="rgb(0,0,0)"  stroke-width="3"/>
<line x1="165.4" y1="185.6" x2="146.3" y2="153.5" opacity="1.0" stroke="rgb(0,0,0)"  stroke-width="3"/>
<line x1="146.3" y1="153.5" x2="164.5" y2="120.9" opacity="1.0" stroke="rgb(0,0,0)"  stroke-width="3"/>
<line x1="155.5" y1="151.8" x2="167.8" y2="129.7" opacity="1.0" stroke="rgb(0,0,0)"  stroke-width="3"/>
<line x1="164.5" y1="120.9" x2="201.8" y2="120.4" opacity="1.0" stroke="rgb(0,0,0)"  stroke-width="3"/>
<line x1="201.8" y1="120.4" x2="220.9" y2="152.5" opacity="1.0" stroke="rgb(0,0,0)"  stroke-width="3"/>
<line x1="198.7" y1="129.3" x2="211.7" y2="151.0" opacity="1.0" stroke="rgb(0,0,0)"  stroke-width="3"/>
<line x1="272.3" y1="403.9" x2="247.0" y2="376.5" opacity="1.0" stroke="rgb(0,0,0)"  stroke-width="3"/>
<line x1="262.9" y1="404.4" x2="245.7" y2="385.8" opacity="1.0" stroke="rgb(0,0,0)"  stroke-width="3"/>
<line x1="247.0" y1="376.5" x2="210.5" y2="384.7" opacity="1.0" stroke="rgb(0,0,0)"  stroke-width="3"/>
<line x1="210.5" y1="384.7" x2="199.4" y2="420.3" opacity="1.0" stroke="rgb(0,0,0)"  stroke-width="3"/>
<line x1="215.6" y1="392.5" x2="208.1" y2="416.7" opacity="1.0" stroke="rgb(0,0,0)"  stroke-width="3"/>
<line x1="199.4" y1="420.3" x2="224.7" y2="447.7" opacity="1.0" stroke="rgb(0,0,0)"  stroke-width="3"/>
<line x1="224.7" y1="447.7" x2="261.1" y2="439.6" opacity="1.0" stroke="rgb(0,0,0)"  stroke-width="3"/>
<line x1="229.0" y1="439.4" x2="253.7" y2="433.8" opacity="1.0" stroke="rgb(0,0,0)"  stroke-width="3"/>
<line x1="261.1" y1="439.6" x2="272.3" y2="403.9" opacity="1.0" stroke="rgb(0,0,0)"  stroke-width="3"/>
<line x1="40.0" y1="402.2" x2="65.3" y2="429.6" opacity="1.0" stroke="rgb(0,0,0)"  stroke-width="3"/>
<line x1="49.4" y1="401.7" x2="66.5" y2="420.3" opacity="1.0" stroke="rgb(0,0,0)"  stroke-width="3"/>
<line x1="65.3" y1="429.6" x2="101.7" y2="421.4" opacity="1.0" stroke="rgb(0,0,0)"  stroke-width="3"/>
<line x1="112.8" y1="385.8" x2="87.5" y2="358.4" opacity="1.0" stroke="rgb(0,0,0)"  stroke-width="3"/>
<line x1="87.5" y1="358.4" x2="51.1" y2="366.6" opacity="1.0" stroke="rgb(0,0,0)"  stroke-width="3"/>
<line x1="83.3" y1="366.7" x2="58.6" y2="372.3" opacity="1.0" stroke="rgb(0,0,0)"  stroke-width="3"/>
<line x1="51.1" y1="366.6" x2="40.0" y2="402.2" opacity="1.0" stroke="rgb(0,0,0)"  stroke-width="3"/>
<line x1="316.5" y1="389.3" x2="299.8" y2="422.7" opacity="1.0" stroke="rgb(0,0,0)"  stroke-width="3"/>
<line x1="320.2" y1="397.9" x2="308.9" y2="420.5" opacity="1.0" stroke="rgb(0,0,0)"  stroke-width="3"/>
<line x1="299.8" y1="422.7" x2="320.4" y2="453.8" opacity="1.0" stroke="rgb(0,0,0)"  stroke-width="3"/>
<line x1="320.4" y1="453.8" x2="357.6" y2="451.6" opacity="1.0" stroke="rgb(0,0,0)"  stroke-width="3"/>
<line x1="325.9" y1="446.3" x2="351.2" y2="444.8" opacity="1.0" stroke="rgb(0,0,0)"  stroke-width="3"/>
<line x1="357.6" y1="451.6" x2="374.3" y2="418.2" opacity="1.0" stroke="rgb(0,0,0)"  stroke-width="3"/>
<line x1="374.3" y1="418.2" x2="353.7" y2="387.1" opacity="1.0" stroke="rgb(0,0,0)"  stroke-width="3"/>
<line x1="365.0" y1="417.2" x2="351.0" y2="396.0" opacity="1.0" stroke="rgb(0,0,0)"  stroke-width="3"/>
<line x1="353.7" y1="387.1" x2="316.5" y2="389.3" opacity="1.0" stroke="rgb(0,0,0)"  stroke-width="3"/>
<line x1="502.3" y1="326.3" x2="465.4" y2="328.1" opacity="1.0" stroke="rgb(0,0,0)"  stroke-width="3"/>
<line x1="496.7" y1="333.8" x2="471.7" y2="335.0" opacity="1.0" stroke="rgb(0,0,0)"  stroke-width="3"/>
<line x1="465.4" y1="328.1" x2="448.4" y2="361.1" opacity="1.0" stroke="rgb(0,0,0)"  stroke-width="3"/>
<line x1="468.5" y1="392.2" x2="505.5" y2="390.4" opacity="1.0" stroke="rgb(0,0,0)"  stroke-width="3"/>
<line x1="505.5" y1="390.4" x2="522.4" y2="357.5" opacity="1.0" stroke="rgb(0,0,0)"  stroke-width="3"/>
<line x1="501.8" y1="381.8" x2="513.3" y2="359.5" opacity="1.0" stroke="rgb(0,0,0)"  stroke-width="3"/>
<line x1="522.4" y1="357.5" x2="502.3" y2="326.3" opacity="1.0" stroke="rgb(0,0,0)"  stroke-width="3"/>
<line x1="162.1" y1="420.7" x2="199.4" y2="420.3" opacity="1.0" stroke="rgb(0,0,0)"  stroke-width="3"/>
<line x1="210.5" y1="384.7" x2="180.1" y2="363.1" opacity="1.0" stroke="rgb(0,0,0)"  stroke-width="3"/>
<line x1="180.1" y1="363.1" x2="150.2" y2="385.4" opacity="1.0" stroke="rgb(0,0,0)"  stroke-width="3"/>
<line x1="412.0" y1="371.0" x2="377.0" y2="357.9" opacity="1.0" stroke="rgb(0,0,0)"  stroke-width="3"/>
<line x1="377.0" y1="357.9" x2="353.7" y2="387.1" opacity="1.0" stroke="rgb(0,0,0)"  stroke-width="3"/>
<line x1="374.3" y1="418.2" x2="410.3" y2="408.3" opacity="1.0" stroke="rgb(0,0,0)"  stroke-width="3"/>
<line x1="311.2" y1="277.3" x2="377.0" y2="357.9" opacity="1.0" stroke="rgb(0,0,0)"  stroke-width="3"/>
<line x1="377.0" y1="357.9" x2="390.0" y2="269.8" opacity="1.0" stroke="rgb(0,0,0)"  stroke-width="3"/>
<line x1="181.4" y1="279.9" x2="180.1" y2="363.1" opacity="1.0" stroke="rgb(0,0,0)"  stroke-width="3"/>
<line x1="180.1" y1="363.1" x2="246.5" y2="277.3" opacity="1.0" stroke="rgb(0,0,0)"  stroke-width="3"/>
<text x="310.163629" y="341.248696" fill="rgb(191,191,191)" stroke-width="0" font-weight="bold" font-size="25.92" >D</text>
<text x="272.839640" y="378.572639" fill="rgb(191,191,191)" stroke-width="0" font-weight="bold" font-size="25.92" >D</text>
<text x="235.515697" y="341.248696" fill="rgb(191,191,191)" stroke-width="0" font-weight="bold" font-size="25.92" >D</text>
<text x="125.104588" y="451.366256" fill="rgb(255,12,12)" stroke-width="0" font-weight="bold" font-size="25.92" >O</text>
<text x="439.237141" y="429.385564" fill="rgb(255,12,12)" stroke-width="0" font-weight="bold" font-size="25.92" >O</text>
<text x="336.965310" y="228.403938" fill="rgb(12,12,255)" stroke-width="0" font-weight="bold" font-size="25.92" >N</text>
<text x="208.709476" y="228.403938" fill="rgb(12,12,255)" stroke-width="0" font-weight="bold" font-size="25.92" >N</text>
<text x="272.839640" y="191.826170" fill="rgb(255,181,181)" stroke-width="0" font-weight="bold" font-size="25.92" >B</text>
</svg>
</g>
</svg>
