<?xml version="1.0"?>
<svg version="1.1" id="topsvg"
xmlns="http://www.w3.org/2000/svg" xmlns:xlink="http://www.w3.org/1999/xlink"
xmlns:cml="http://www.xml-cml.org/schema" x="0" y="0" width="200px" height="200px" viewBox="0 0 100 100">
<title>GD386.sdf - Open Babel Depiction</title>
<rect x="0" y="0" width="100" height="100" fill="white"/>
<g transform="translate(0,0)">
<svg width="100" height="100" x="0" y="0" viewBox="0 0 657.351 423.964"
font-family="sans-serif" stroke="rgb(0,0,0)" stroke-width="3"  stroke-linecap="round">
<line x1="542.4" y1="194.0" x2="550.6" y2="168.6" opacity="1.0" stroke="rgb(0,0,0)"  stroke-width="3"/>
<line x1="106.7" y1="168.6" x2="115.0" y2="194.0" opacity="1.0" stroke="rgb(0,0,0)"  stroke-width="3"/>
<line x1="225.5" y1="99.6" x2="191.1" y2="79.7" opacity="1.0" stroke="rgb(0,0,0)"  stroke-width="3"/>
<line x1="431.8" y1="99.6" x2="466.2" y2="79.7" opacity="1.0" stroke="rgb(0,0,0)"  stroke-width="3"/>
<line x1="466.2" y1="79.7" x2="500.6" y2="99.6" opacity="1.0" stroke="rgb(0,0,0)"  stroke-width="3"/>
<line x1="466.2" y1="40.0" x2="466.2" y2="79.7" opacity="1.0" stroke="rgb(0,0,0)"  stroke-width="3"/>
<line x1="191.1" y1="79.7" x2="191.1" y2="40.0" opacity="1.0" stroke="rgb(0,0,0)"  stroke-width="3"/>
<line x1="156.7" y1="99.6" x2="191.1" y2="79.7" opacity="1.0" stroke="rgb(0,0,0)"  stroke-width="3"/>
<line x1="191.1" y1="79.7" x2="225.6" y2="59.8" opacity="1.0" stroke="rgb(0,0,0)"  stroke-width="3"/>
<line x1="466.2" y1="79.7" x2="500.7" y2="59.8" opacity="1.0" stroke="rgb(0,0,0)"  stroke-width="3"/>
<line x1="561.7" y1="238.5" x2="546.0" y2="216.9" opacity="1.0" stroke="rgb(0,0,0)"  stroke-width="3"/>
<line x1="526.0" y1="210.4" x2="500.6" y2="218.7" opacity="1.0" stroke="rgb(0,0,0)"  stroke-width="3"/>
<line x1="500.6" y1="218.7" x2="500.6" y2="258.4" opacity="1.0" stroke="rgb(0,0,0)"  stroke-width="3"/>
<line x1="507.8" y1="224.7" x2="507.8" y2="252.4" opacity="1.0" stroke="rgb(0,0,0)"  stroke-width="3"/>
<line x1="500.6" y1="258.4" x2="538.4" y2="270.7" opacity="1.0" stroke="rgb(0,0,0)"  stroke-width="3"/>
<line x1="538.4" y1="270.7" x2="561.7" y2="238.5" opacity="1.0" stroke="rgb(0,0,0)"  stroke-width="3"/>
<line x1="536.1" y1="261.6" x2="552.4" y2="239.2" opacity="1.0" stroke="rgb(0,0,0)"  stroke-width="3"/>
<line x1="363.1" y1="99.6" x2="363.1" y2="139.3" opacity="1.0" stroke="rgb(0,0,0)"  stroke-width="3"/>
<line x1="355.9" y1="105.6" x2="355.9" y2="133.3" opacity="1.0" stroke="rgb(0,0,0)"  stroke-width="3"/>
<line x1="363.1" y1="139.3" x2="339.9" y2="152.6" opacity="1.0" stroke="rgb(0,0,0)"  stroke-width="3"/>
<line x1="317.4" y1="152.6" x2="294.3" y2="139.3" opacity="1.0" stroke="rgb(0,0,0)"  stroke-width="3"/>
<line x1="294.3" y1="139.3" x2="294.3" y2="99.6" opacity="1.0" stroke="rgb(0,0,0)"  stroke-width="3"/>
<line x1="301.5" y1="133.3" x2="301.5" y2="105.6" opacity="1.0" stroke="rgb(0,0,0)"  stroke-width="3"/>
<line x1="294.3" y1="99.6" x2="363.1" y2="99.6" opacity="1.0" stroke="rgb(0,0,0)"  stroke-width="3"/>
<line x1="205.7" y1="315.2" x2="191.1" y2="278.2" opacity="1.0" stroke="rgb(0,0,0)"  stroke-width="3"/>
<line x1="191.1" y1="278.2" x2="225.5" y2="258.4" opacity="1.0" stroke="rgb(0,0,0)"  stroke-width="3"/>
<line x1="199.9" y1="281.5" x2="223.9" y2="267.6" opacity="1.0" stroke="rgb(0,0,0)"  stroke-width="3"/>
<line x1="225.5" y1="258.4" x2="248.6" y2="271.7" opacity="1.0" stroke="rgb(0,0,0)"  stroke-width="3"/>
<line x1="255.1" y1="290.3" x2="245.4" y2="315.2" opacity="1.0" stroke="rgb(0,0,0)"  stroke-width="3"/>
<line x1="245.4" y1="315.2" x2="205.7" y2="315.2" opacity="1.0" stroke="rgb(0,0,0)"  stroke-width="3"/>
<line x1="239.4" y1="308.0" x2="211.7" y2="308.0" opacity="1.0" stroke="rgb(0,0,0)"  stroke-width="3"/>
<line x1="95.6" y1="238.5" x2="111.3" y2="216.9" opacity="1.0" stroke="rgb(0,0,0)"  stroke-width="3"/>
<line x1="131.3" y1="210.4" x2="156.7" y2="218.7" opacity="1.0" stroke="rgb(0,0,0)"  stroke-width="3"/>
<line x1="156.7" y1="218.7" x2="156.7" y2="258.4" opacity="1.0" stroke="rgb(0,0,0)"  stroke-width="3"/>
<line x1="149.5" y1="224.7" x2="149.5" y2="252.4" opacity="1.0" stroke="rgb(0,0,0)"  stroke-width="3"/>
<line x1="156.7" y1="258.4" x2="119.0" y2="270.7" opacity="1.0" stroke="rgb(0,0,0)"  stroke-width="3"/>
<line x1="119.0" y1="270.7" x2="95.6" y2="238.5" opacity="1.0" stroke="rgb(0,0,0)"  stroke-width="3"/>
<line x1="412.0" y1="315.2" x2="451.7" y2="315.2" opacity="1.0" stroke="rgb(0,0,0)"  stroke-width="3"/>
<line x1="418.0" y1="308.0" x2="445.7" y2="308.0" opacity="1.0" stroke="rgb(0,0,0)"  stroke-width="3"/>
<line x1="451.7" y1="315.2" x2="466.2" y2="278.2" opacity="1.0" stroke="rgb(0,0,0)"  stroke-width="3"/>
<line x1="466.2" y1="278.2" x2="431.8" y2="258.4" opacity="1.0" stroke="rgb(0,0,0)"  stroke-width="3"/>
<line x1="457.4" y1="281.5" x2="433.4" y2="267.6" opacity="1.0" stroke="rgb(0,0,0)"  stroke-width="3"/>
<line x1="431.8" y1="258.4" x2="408.7" y2="271.7" opacity="1.0" stroke="rgb(0,0,0)"  stroke-width="3"/>
<line x1="402.2" y1="290.3" x2="412.0" y2="315.2" opacity="1.0" stroke="rgb(0,0,0)"  stroke-width="3"/>
<line x1="294.3" y1="258.4" x2="328.7" y2="278.2" opacity="1.0" stroke="rgb(0,0,0)"  stroke-width="3"/>
<line x1="328.7" y1="278.2" x2="363.1" y2="258.4" opacity="1.0" stroke="rgb(0,0,0)"  stroke-width="3"/>
<line x1="330.3" y1="269.0" x2="354.3" y2="255.2" opacity="1.0" stroke="rgb(0,0,0)"  stroke-width="3"/>
<line x1="363.1" y1="258.4" x2="363.1" y2="218.7" opacity="1.0" stroke="rgb(0,0,0)"  stroke-width="3"/>
<line x1="363.1" y1="218.7" x2="328.7" y2="198.8" opacity="1.0" stroke="rgb(0,0,0)"  stroke-width="3"/>
<line x1="354.3" y1="221.9" x2="330.3" y2="208.1" opacity="1.0" stroke="rgb(0,0,0)"  stroke-width="3"/>
<line x1="328.7" y1="198.8" x2="294.3" y2="218.7" opacity="1.0" stroke="rgb(0,0,0)"  stroke-width="3"/>
<line x1="294.3" y1="218.7" x2="294.3" y2="258.4" opacity="1.0" stroke="rgb(0,0,0)"  stroke-width="3"/>
<line x1="301.5" y1="224.7" x2="301.5" y2="252.4" opacity="1.0" stroke="rgb(0,0,0)"  stroke-width="3"/>
<line x1="500.6" y1="218.7" x2="466.2" y2="198.8" opacity="1.0" stroke="rgb(0,0,0)"  stroke-width="3"/>
<line x1="466.2" y1="198.8" x2="431.8" y2="218.7" opacity="1.0" stroke="rgb(0,0,0)"  stroke-width="3"/>
<line x1="464.6" y1="208.1" x2="440.6" y2="221.9" opacity="1.0" stroke="rgb(0,0,0)"  stroke-width="3"/>
<line x1="431.8" y1="218.7" x2="431.8" y2="258.4" opacity="1.0" stroke="rgb(0,0,0)"  stroke-width="3"/>
<line x1="466.2" y1="278.2" x2="500.6" y2="258.4" opacity="1.0" stroke="rgb(0,0,0)"  stroke-width="3"/>
<line x1="431.8" y1="218.7" x2="408.7" y2="205.3" opacity="1.0" stroke="rgb(0,0,0)"  stroke-width="3"/>
<line x1="386.2" y1="205.3" x2="363.1" y2="218.7" opacity="1.0" stroke="rgb(0,0,0)"  stroke-width="3"/>
<line x1="363.1" y1="258.4" x2="386.2" y2="271.7" opacity="1.0" stroke="rgb(0,0,0)"  stroke-width="3"/>
<line x1="617.4" y1="279.0" x2="601.2" y2="242.7" opacity="1.0" stroke="rgb(0,0,0)"  stroke-width="3"/>
<line x1="608.3" y1="276.4" x2="597.1" y2="251.1" opacity="1.0" stroke="rgb(0,0,0)"  stroke-width="3"/>
<line x1="601.2" y1="242.7" x2="561.7" y2="238.5" opacity="1.0" stroke="rgb(0,0,0)"  stroke-width="3"/>
<line x1="538.4" y1="270.7" x2="554.5" y2="306.9" opacity="1.0" stroke="rgb(0,0,0)"  stroke-width="3"/>
<line x1="554.5" y1="306.9" x2="594.0" y2="311.1" opacity="1.0" stroke="rgb(0,0,0)"  stroke-width="3"/>
<line x1="561.2" y1="300.4" x2="588.8" y2="303.3" opacity="1.0" stroke="rgb(0,0,0)"  stroke-width="3"/>
<line x1="594.0" y1="311.1" x2="617.4" y2="279.0" opacity="1.0" stroke="rgb(0,0,0)"  stroke-width="3"/>
<line x1="328.7" y1="172.1" x2="328.7" y2="198.8" opacity="1.0" stroke="rgb(0,0,0)"  stroke-width="3"/>
<line x1="294.3" y1="218.7" x2="271.2" y2="205.3" opacity="1.0" stroke="rgb(0,0,0)"  stroke-width="3"/>
<line x1="259.9" y1="185.8" x2="259.9" y2="159.1" opacity="1.0" stroke="rgb(0,0,0)"  stroke-width="3"/>
<line x1="259.9" y1="159.1" x2="294.3" y2="139.3" opacity="1.0" stroke="rgb(0,0,0)"  stroke-width="3"/>
<line x1="431.8" y1="99.6" x2="431.8" y2="139.3" opacity="1.0" stroke="rgb(0,0,0)"  stroke-width="3"/>
<line x1="431.8" y1="139.3" x2="397.4" y2="159.1" opacity="1.0" stroke="rgb(0,0,0)"  stroke-width="3"/>
<line x1="423.0" y1="136.0" x2="399.0" y2="149.9" opacity="1.0" stroke="rgb(0,0,0)"  stroke-width="3"/>
<line x1="397.4" y1="159.1" x2="363.1" y2="139.3" opacity="1.0" stroke="rgb(0,0,0)"  stroke-width="3"/>
<line x1="363.1" y1="99.6" x2="397.4" y2="79.7" opacity="1.0" stroke="rgb(0,0,0)"  stroke-width="3"/>
<line x1="397.4" y1="79.7" x2="431.8" y2="99.6" opacity="1.0" stroke="rgb(0,0,0)"  stroke-width="3"/>
<line x1="399.0" y1="88.9" x2="423.0" y2="102.8" opacity="1.0" stroke="rgb(0,0,0)"  stroke-width="3"/>
<line x1="225.5" y1="99.6" x2="259.9" y2="79.7" opacity="1.0" stroke="rgb(0,0,0)"  stroke-width="3"/>
<line x1="234.3" y1="102.8" x2="258.3" y2="88.9" opacity="1.0" stroke="rgb(0,0,0)"  stroke-width="3"/>
<line x1="259.9" y1="79.7" x2="294.3" y2="99.6" opacity="1.0" stroke="rgb(0,0,0)"  stroke-width="3"/>
<line x1="259.9" y1="159.1" x2="225.5" y2="139.3" opacity="1.0" stroke="rgb(0,0,0)"  stroke-width="3"/>
<line x1="258.3" y1="149.9" x2="234.3" y2="136.0" opacity="1.0" stroke="rgb(0,0,0)"  stroke-width="3"/>
<line x1="225.5" y1="139.3" x2="225.5" y2="99.6" opacity="1.0" stroke="rgb(0,0,0)"  stroke-width="3"/>
<line x1="294.3" y1="258.4" x2="271.2" y2="271.7" opacity="1.0" stroke="rgb(0,0,0)"  stroke-width="3"/>
<line x1="225.5" y1="258.4" x2="225.5" y2="218.7" opacity="1.0" stroke="rgb(0,0,0)"  stroke-width="3"/>
<line x1="225.5" y1="218.7" x2="248.6" y2="205.3" opacity="1.0" stroke="rgb(0,0,0)"  stroke-width="3"/>
<line x1="245.4" y1="384.0" x2="205.7" y2="384.0" opacity="1.0" stroke="rgb(0,0,0)"  stroke-width="3"/>
<line x1="205.7" y1="384.0" x2="185.8" y2="349.6" opacity="1.0" stroke="rgb(0,0,0)"  stroke-width="3"/>
<line x1="208.9" y1="375.2" x2="195.0" y2="351.2" opacity="1.0" stroke="rgb(0,0,0)"  stroke-width="3"/>
<line x1="185.8" y1="349.6" x2="205.7" y2="315.2" opacity="1.0" stroke="rgb(0,0,0)"  stroke-width="3"/>
<line x1="245.4" y1="315.2" x2="265.2" y2="349.6" opacity="1.0" stroke="rgb(0,0,0)"  stroke-width="3"/>
<line x1="265.2" y1="349.6" x2="245.4" y2="384.0" opacity="1.0" stroke="rgb(0,0,0)"  stroke-width="3"/>
<line x1="256.0" y1="351.2" x2="242.1" y2="375.2" opacity="1.0" stroke="rgb(0,0,0)"  stroke-width="3"/>
<line x1="451.7" y1="384.0" x2="471.5" y2="349.6" opacity="1.0" stroke="rgb(0,0,0)"  stroke-width="3"/>
<line x1="448.5" y1="375.2" x2="462.3" y2="351.2" opacity="1.0" stroke="rgb(0,0,0)"  stroke-width="3"/>
<line x1="471.5" y1="349.6" x2="451.7" y2="315.2" opacity="1.0" stroke="rgb(0,0,0)"  stroke-width="3"/>
<line x1="412.0" y1="315.2" x2="392.1" y2="349.6" opacity="1.0" stroke="rgb(0,0,0)"  stroke-width="3"/>
<line x1="392.1" y1="349.6" x2="412.0" y2="384.0" opacity="1.0" stroke="rgb(0,0,0)"  stroke-width="3"/>
<line x1="401.4" y1="351.2" x2="415.2" y2="375.2" opacity="1.0" stroke="rgb(0,0,0)"  stroke-width="3"/>
<line x1="412.0" y1="384.0" x2="451.7" y2="384.0" opacity="1.0" stroke="rgb(0,0,0)"  stroke-width="3"/>
<line x1="397.4" y1="185.8" x2="397.4" y2="159.1" opacity="1.0" stroke="rgb(0,0,0)"  stroke-width="3"/>
<line x1="191.1" y1="278.2" x2="156.7" y2="258.4" opacity="1.0" stroke="rgb(0,0,0)"  stroke-width="3"/>
<line x1="156.7" y1="218.7" x2="191.1" y2="198.8" opacity="1.0" stroke="rgb(0,0,0)"  stroke-width="3"/>
<line x1="191.1" y1="198.8" x2="225.5" y2="218.7" opacity="1.0" stroke="rgb(0,0,0)"  stroke-width="3"/>
<line x1="192.7" y1="208.1" x2="216.7" y2="221.9" opacity="1.0" stroke="rgb(0,0,0)"  stroke-width="3"/>
<line x1="133.3" y1="139.1" x2="121.0" y2="101.4" opacity="1.0" stroke="rgb(0,0,0)"  stroke-width="3"/>
<line x1="121.0" y1="101.4" x2="82.2" y2="93.1" opacity="1.0" stroke="rgb(0,0,0)"  stroke-width="3"/>
<line x1="113.6" y1="107.2" x2="86.5" y2="101.4" opacity="1.0" stroke="rgb(0,0,0)"  stroke-width="3"/>
<line x1="82.2" y1="93.1" x2="55.6" y2="122.6" opacity="1.0" stroke="rgb(0,0,0)"  stroke-width="3"/>
<line x1="55.6" y1="122.6" x2="67.9" y2="160.4" opacity="1.0" stroke="rgb(0,0,0)"  stroke-width="3"/>
<line x1="64.3" y1="126.1" x2="72.9" y2="152.5" opacity="1.0" stroke="rgb(0,0,0)"  stroke-width="3"/>
<line x1="67.9" y1="160.4" x2="106.7" y2="168.6" opacity="1.0" stroke="rgb(0,0,0)"  stroke-width="3"/>
<line x1="106.7" y1="168.6" x2="133.3" y2="139.1" opacity="1.0" stroke="rgb(0,0,0)"  stroke-width="3"/>
<line x1="105.4" y1="159.4" x2="123.9" y2="138.8" opacity="1.0" stroke="rgb(0,0,0)"  stroke-width="3"/>
<line x1="524.1" y1="139.1" x2="550.6" y2="168.6" opacity="1.0" stroke="rgb(0,0,0)"  stroke-width="3"/>
<line x1="533.4" y1="138.8" x2="552.0" y2="159.4" opacity="1.0" stroke="rgb(0,0,0)"  stroke-width="3"/>
<line x1="550.6" y1="168.6" x2="589.5" y2="160.4" opacity="1.0" stroke="rgb(0,0,0)"  stroke-width="3"/>
<line x1="589.5" y1="160.4" x2="601.8" y2="122.6" opacity="1.0" stroke="rgb(0,0,0)"  stroke-width="3"/>
<line x1="584.5" y1="152.5" x2="593.1" y2="126.1" opacity="1.0" stroke="rgb(0,0,0)"  stroke-width="3"/>
<line x1="601.8" y1="122.6" x2="575.2" y2="93.1" opacity="1.0" stroke="rgb(0,0,0)"  stroke-width="3"/>
<line x1="575.2" y1="93.1" x2="536.3" y2="101.4" opacity="1.0" stroke="rgb(0,0,0)"  stroke-width="3"/>
<line x1="570.8" y1="101.4" x2="543.7" y2="107.2" opacity="1.0" stroke="rgb(0,0,0)"  stroke-width="3"/>
<line x1="536.3" y1="101.4" x2="524.1" y2="139.1" opacity="1.0" stroke="rgb(0,0,0)"  stroke-width="3"/>
<line x1="56.2" y1="242.7" x2="40.0" y2="279.0" opacity="1.0" stroke="rgb(0,0,0)"  stroke-width="3"/>
<line x1="40.0" y1="279.0" x2="63.3" y2="311.1" opacity="1.0" stroke="rgb(0,0,0)"  stroke-width="3"/>
<line x1="49.4" y1="279.6" x2="65.6" y2="302.0" opacity="1.0" stroke="rgb(0,0,0)"  stroke-width="3"/>
<line x1="63.3" y1="311.1" x2="102.8" y2="306.9" opacity="1.0" stroke="rgb(0,0,0)"  stroke-width="3"/>
<line x1="102.8" y1="306.9" x2="119.0" y2="270.7" opacity="1.0" stroke="rgb(0,0,0)"  stroke-width="3"/>
<line x1="98.7" y1="298.5" x2="110.0" y2="273.2" opacity="1.0" stroke="rgb(0,0,0)"  stroke-width="3"/>
<line x1="95.6" y1="238.5" x2="56.2" y2="242.7" opacity="1.0" stroke="rgb(0,0,0)"  stroke-width="3"/>
<line x1="90.4" y1="246.3" x2="62.9" y2="249.2" opacity="1.0" stroke="rgb(0,0,0)"  stroke-width="3"/>
<text x="322.675650" y="167.119684" fill="rgb(12,12,255)" stroke-width="0" font-weight="bold" font-size="25.92" >N</text>
<text x="253.901884" y="206.826246" fill="rgb(255,181,181)" stroke-width="0" font-weight="bold" font-size="25.92" >B</text>
<text x="391.449416" y="206.826246" fill="rgb(255,181,181)" stroke-width="0" font-weight="bold" font-size="25.92" >B</text>
<text x="391.449416" y="286.239320" fill="rgb(12,12,255)" stroke-width="0" font-weight="bold" font-size="25.92" >N</text>
<text x="253.901884" y="286.239320" fill="rgb(12,12,255)" stroke-width="0" font-weight="bold" font-size="25.92" >N</text>
<text x="112.978065" y="214.409524" fill="rgb(12,12,255)" stroke-width="0" font-weight="bold" font-size="25.92" >N</text>
<text x="532.373235" y="214.409524" fill="rgb(12,12,255)" stroke-width="0" font-weight="bold" font-size="25.92" >N</text>
</svg>
</g>
</svg>
