<?xml version="1.0"?>
<svg version="1.1" id="topsvg"
xmlns="http://www.w3.org/2000/svg" xmlns:xlink="http://www.w3.org/1999/xlink"
xmlns:cml="http://www.xml-cml.org/schema" x="0" y="0" width="200px" height="200px" viewBox="0 0 100 100">
<title>GD396.sdf - Open Babel Depiction</title>
<rect x="0" y="0" width="100" height="100" fill="white"/>
<g transform="translate(0,0)">
<svg width="100" height="100" x="0" y="0" viewBox="0 0 544.116 540.951"
font-family="sans-serif" stroke="rgb(0,0,0)" stroke-width="3"  stroke-linecap="round">
<line x1="371.5" y1="174.0" x2="393.4" y2="161.3" opacity="1.0" stroke="rgb(0,0,0)"  stroke-width="3"/>
<line x1="415.9" y1="161.3" x2="437.8" y2="174.0" opacity="1.0" stroke="rgb(0,0,0)"  stroke-width="3"/>
<line x1="404.7" y1="141.8" x2="404.7" y2="116.6" opacity="1.0" stroke="rgb(0,0,0)"  stroke-width="3"/>
<line x1="437.8" y1="327.1" x2="471.0" y2="346.2" opacity="1.0" stroke="rgb(0,0,0)"  stroke-width="3"/>
<line x1="471.0" y1="346.2" x2="504.1" y2="365.4" opacity="1.0" stroke="rgb(0,0,0)"  stroke-width="3"/>
<line x1="471.0" y1="346.2" x2="471.0" y2="384.5" opacity="1.0" stroke="rgb(0,0,0)"  stroke-width="3"/>
<line x1="471.0" y1="346.2" x2="504.1" y2="327.1" opacity="1.0" stroke="rgb(0,0,0)"  stroke-width="3"/>
<line x1="172.6" y1="174.0" x2="150.7" y2="161.3" opacity="1.0" stroke="rgb(0,0,0)"  stroke-width="3"/>
<line x1="139.5" y1="141.8" x2="139.5" y2="116.6" opacity="1.0" stroke="rgb(0,0,0)"  stroke-width="3"/>
<line x1="128.2" y1="161.3" x2="106.3" y2="174.0" opacity="1.0" stroke="rgb(0,0,0)"  stroke-width="3"/>
<line x1="106.3" y1="327.1" x2="73.2" y2="346.2" opacity="1.0" stroke="rgb(0,0,0)"  stroke-width="3"/>
<line x1="73.2" y1="346.2" x2="73.2" y2="384.5" opacity="1.0" stroke="rgb(0,0,0)"  stroke-width="3"/>
<line x1="73.2" y1="346.2" x2="40.0" y2="365.4" opacity="1.0" stroke="rgb(0,0,0)"  stroke-width="3"/>
<line x1="73.2" y1="346.2" x2="40.0" y2="327.1" opacity="1.0" stroke="rgb(0,0,0)"  stroke-width="3"/>
<line x1="272.1" y1="346.2" x2="272.1" y2="371.5" opacity="1.0" stroke="rgb(0,0,0)"  stroke-width="3"/>
<line x1="371.5" y1="212.3" x2="338.4" y2="231.4" opacity="1.0" stroke="rgb(0,0,0)"  stroke-width="3"/>
<line x1="369.9" y1="221.5" x2="347.2" y2="234.6" opacity="1.0" stroke="rgb(0,0,0)"  stroke-width="3"/>
<line x1="338.4" y1="231.4" x2="338.4" y2="256.7" opacity="1.0" stroke="rgb(0,0,0)"  stroke-width="3"/>
<line x1="349.6" y1="276.2" x2="371.5" y2="288.8" opacity="1.0" stroke="rgb(0,0,0)"  stroke-width="3"/>
<line x1="371.5" y1="288.8" x2="404.7" y2="269.7" opacity="1.0" stroke="rgb(0,0,0)"  stroke-width="3"/>
<line x1="373.1" y1="279.6" x2="395.9" y2="266.4" opacity="1.0" stroke="rgb(0,0,0)"  stroke-width="3"/>
<line x1="404.7" y1="269.7" x2="371.5" y2="212.3" opacity="1.0" stroke="rgb(0,0,0)"  stroke-width="3"/>
<line x1="139.5" y1="269.7" x2="172.6" y2="288.8" opacity="1.0" stroke="rgb(0,0,0)"  stroke-width="3"/>
<line x1="148.2" y1="266.4" x2="171.0" y2="279.6" opacity="1.0" stroke="rgb(0,0,0)"  stroke-width="3"/>
<line x1="172.6" y1="288.8" x2="194.5" y2="276.2" opacity="1.0" stroke="rgb(0,0,0)"  stroke-width="3"/>
<line x1="205.8" y1="256.7" x2="205.8" y2="231.4" opacity="1.0" stroke="rgb(0,0,0)"  stroke-width="3"/>
<line x1="205.8" y1="231.4" x2="172.6" y2="212.3" opacity="1.0" stroke="rgb(0,0,0)"  stroke-width="3"/>
<line x1="197.0" y1="234.6" x2="174.2" y2="221.5" opacity="1.0" stroke="rgb(0,0,0)"  stroke-width="3"/>
<line x1="172.6" y1="212.3" x2="139.5" y2="269.7" opacity="1.0" stroke="rgb(0,0,0)"  stroke-width="3"/>
<line x1="272.1" y1="346.2" x2="238.9" y2="327.1" opacity="1.0" stroke="rgb(0,0,0)"  stroke-width="3"/>
<line x1="270.5" y1="337.0" x2="247.7" y2="323.9" opacity="1.0" stroke="rgb(0,0,0)"  stroke-width="3"/>
<line x1="238.9" y1="327.1" x2="238.9" y2="288.8" opacity="1.0" stroke="rgb(0,0,0)"  stroke-width="3"/>
<line x1="238.9" y1="288.8" x2="272.1" y2="269.7" opacity="1.0" stroke="rgb(0,0,0)"  stroke-width="3"/>
<line x1="247.7" y1="292.1" x2="270.5" y2="278.9" opacity="1.0" stroke="rgb(0,0,0)"  stroke-width="3"/>
<line x1="272.1" y1="269.7" x2="305.2" y2="288.8" opacity="1.0" stroke="rgb(0,0,0)"  stroke-width="3"/>
<line x1="305.2" y1="288.8" x2="305.2" y2="327.1" opacity="1.0" stroke="rgb(0,0,0)"  stroke-width="3"/>
<line x1="298.0" y1="294.8" x2="298.0" y2="321.1" opacity="1.0" stroke="rgb(0,0,0)"  stroke-width="3"/>
<line x1="305.2" y1="327.1" x2="272.1" y2="346.2" opacity="1.0" stroke="rgb(0,0,0)"  stroke-width="3"/>
<line x1="238.9" y1="212.3" x2="260.8" y2="224.9" opacity="1.0" stroke="rgb(0,0,0)"  stroke-width="3"/>
<line x1="272.1" y1="244.4" x2="272.1" y2="269.7" opacity="1.0" stroke="rgb(0,0,0)"  stroke-width="3"/>
<line x1="238.9" y1="288.8" x2="217.0" y2="276.2" opacity="1.0" stroke="rgb(0,0,0)"  stroke-width="3"/>
<line x1="205.8" y1="231.4" x2="238.9" y2="212.3" opacity="1.0" stroke="rgb(0,0,0)"  stroke-width="3"/>
<line x1="437.8" y1="327.1" x2="437.8" y2="288.8" opacity="1.0" stroke="rgb(0,0,0)"  stroke-width="3"/>
<line x1="430.6" y1="321.1" x2="430.6" y2="294.8" opacity="1.0" stroke="rgb(0,0,0)"  stroke-width="3"/>
<line x1="437.8" y1="288.8" x2="404.7" y2="269.7" opacity="1.0" stroke="rgb(0,0,0)"  stroke-width="3"/>
<line x1="371.5" y1="288.8" x2="371.5" y2="327.1" opacity="1.0" stroke="rgb(0,0,0)"  stroke-width="3"/>
<line x1="371.5" y1="327.1" x2="404.7" y2="346.2" opacity="1.0" stroke="rgb(0,0,0)"  stroke-width="3"/>
<line x1="380.3" y1="323.9" x2="403.1" y2="337.0" opacity="1.0" stroke="rgb(0,0,0)"  stroke-width="3"/>
<line x1="404.7" y1="346.2" x2="437.8" y2="327.1" opacity="1.0" stroke="rgb(0,0,0)"  stroke-width="3"/>
<line x1="172.6" y1="174.0" x2="205.8" y2="154.8" opacity="1.0" stroke="rgb(0,0,0)"  stroke-width="3"/>
<line x1="181.4" y1="177.2" x2="204.2" y2="164.1" opacity="1.0" stroke="rgb(0,0,0)"  stroke-width="3"/>
<line x1="205.8" y1="154.8" x2="238.9" y2="174.0" opacity="1.0" stroke="rgb(0,0,0)"  stroke-width="3"/>
<line x1="238.9" y1="174.0" x2="238.9" y2="212.3" opacity="1.0" stroke="rgb(0,0,0)"  stroke-width="3"/>
<line x1="231.7" y1="180.0" x2="231.7" y2="206.3" opacity="1.0" stroke="rgb(0,0,0)"  stroke-width="3"/>
<line x1="172.6" y1="212.3" x2="172.6" y2="174.0" opacity="1.0" stroke="rgb(0,0,0)"  stroke-width="3"/>
<line x1="106.3" y1="327.1" x2="106.3" y2="288.8" opacity="1.0" stroke="rgb(0,0,0)"  stroke-width="3"/>
<line x1="113.5" y1="321.1" x2="113.5" y2="294.8" opacity="1.0" stroke="rgb(0,0,0)"  stroke-width="3"/>
<line x1="106.3" y1="288.8" x2="139.5" y2="269.7" opacity="1.0" stroke="rgb(0,0,0)"  stroke-width="3"/>
<line x1="172.6" y1="288.8" x2="172.6" y2="327.1" opacity="1.0" stroke="rgb(0,0,0)"  stroke-width="3"/>
<line x1="172.6" y1="327.1" x2="139.5" y2="346.2" opacity="1.0" stroke="rgb(0,0,0)"  stroke-width="3"/>
<line x1="163.8" y1="323.9" x2="141.0" y2="337.0" opacity="1.0" stroke="rgb(0,0,0)"  stroke-width="3"/>
<line x1="139.5" y1="346.2" x2="106.3" y2="327.1" opacity="1.0" stroke="rgb(0,0,0)"  stroke-width="3"/>
<line x1="88.9" y1="396.7" x2="89.4" y2="435.0" opacity="1.0" stroke="rgb(0,0,0)"  stroke-width="3"/>
<line x1="89.4" y1="435.0" x2="122.8" y2="453.7" opacity="1.0" stroke="rgb(0,0,0)"  stroke-width="3"/>
<line x1="98.2" y1="431.6" x2="121.1" y2="444.4" opacity="1.0" stroke="rgb(0,0,0)"  stroke-width="3"/>
<line x1="122.8" y1="453.7" x2="155.7" y2="434.1" opacity="1.0" stroke="rgb(0,0,0)"  stroke-width="3"/>
<line x1="155.7" y1="434.1" x2="155.2" y2="395.8" opacity="1.0" stroke="rgb(0,0,0)"  stroke-width="3"/>
<line x1="148.4" y1="428.2" x2="148.1" y2="401.9" opacity="1.0" stroke="rgb(0,0,0)"  stroke-width="3"/>
<line x1="155.2" y1="395.8" x2="121.8" y2="377.1" opacity="1.0" stroke="rgb(0,0,0)"  stroke-width="3"/>
<line x1="121.8" y1="377.1" x2="88.9" y2="396.7" opacity="1.0" stroke="rgb(0,0,0)"  stroke-width="3"/>
<line x1="120.3" y1="386.4" x2="97.7" y2="399.8" opacity="1.0" stroke="rgb(0,0,0)"  stroke-width="3"/>
<line x1="268.5" y1="452.3" x2="252.5" y2="417.6" opacity="1.0" stroke="rgb(0,0,0)"  stroke-width="3"/>
<line x1="259.5" y1="449.9" x2="248.5" y2="426.0" opacity="1.0" stroke="rgb(0,0,0)"  stroke-width="3"/>
<line x1="252.5" y1="417.6" x2="214.4" y2="414.1" opacity="1.0" stroke="rgb(0,0,0)"  stroke-width="3"/>
<line x1="214.4" y1="414.1" x2="192.3" y2="445.4" opacity="1.0" stroke="rgb(0,0,0)"  stroke-width="3"/>
<line x1="216.8" y1="423.2" x2="201.6" y2="444.6" opacity="1.0" stroke="rgb(0,0,0)"  stroke-width="3"/>
<line x1="192.3" y1="445.4" x2="208.3" y2="480.1" opacity="1.0" stroke="rgb(0,0,0)"  stroke-width="3"/>
<line x1="208.3" y1="480.1" x2="246.5" y2="483.6" opacity="1.0" stroke="rgb(0,0,0)"  stroke-width="3"/>
<line x1="215.0" y1="473.5" x2="241.1" y2="475.9" opacity="1.0" stroke="rgb(0,0,0)"  stroke-width="3"/>
<line x1="246.5" y1="483.6" x2="268.5" y2="452.3" opacity="1.0" stroke="rgb(0,0,0)"  stroke-width="3"/>
<line x1="471.0" y1="154.8" x2="437.8" y2="174.0" opacity="1.0" stroke="rgb(0,0,0)"  stroke-width="3"/>
<line x1="437.8" y1="174.0" x2="437.8" y2="212.3" opacity="1.0" stroke="rgb(0,0,0)"  stroke-width="3"/>
<line x1="445.0" y1="180.0" x2="445.0" y2="206.3" opacity="1.0" stroke="rgb(0,0,0)"  stroke-width="3"/>
<line x1="437.8" y1="212.3" x2="471.0" y2="231.4" opacity="1.0" stroke="rgb(0,0,0)"  stroke-width="3"/>
<line x1="471.0" y1="231.4" x2="504.1" y2="212.3" opacity="1.0" stroke="rgb(0,0,0)"  stroke-width="3"/>
<line x1="472.6" y1="222.2" x2="495.3" y2="209.0" opacity="1.0" stroke="rgb(0,0,0)"  stroke-width="3"/>
<line x1="504.1" y1="212.3" x2="504.1" y2="174.0" opacity="1.0" stroke="rgb(0,0,0)"  stroke-width="3"/>
<line x1="504.1" y1="174.0" x2="471.0" y2="154.8" opacity="1.0" stroke="rgb(0,0,0)"  stroke-width="3"/>
<line x1="495.3" y1="177.2" x2="472.6" y2="164.1" opacity="1.0" stroke="rgb(0,0,0)"  stroke-width="3"/>
<line x1="371.5" y1="97.4" x2="404.7" y2="116.6" opacity="1.0" stroke="rgb(0,0,0)"  stroke-width="3"/>
<line x1="404.7" y1="116.6" x2="437.8" y2="97.4" opacity="1.0" stroke="rgb(0,0,0)"  stroke-width="3"/>
<line x1="406.3" y1="107.3" x2="429.0" y2="94.2" opacity="1.0" stroke="rgb(0,0,0)"  stroke-width="3"/>
<line x1="437.8" y1="97.4" x2="437.8" y2="59.1" opacity="1.0" stroke="rgb(0,0,0)"  stroke-width="3"/>
<line x1="437.8" y1="59.1" x2="404.7" y2="40.0" opacity="1.0" stroke="rgb(0,0,0)"  stroke-width="3"/>
<line x1="429.0" y1="62.4" x2="406.3" y2="49.2" opacity="1.0" stroke="rgb(0,0,0)"  stroke-width="3"/>
<line x1="404.7" y1="40.0" x2="371.5" y2="59.1" opacity="1.0" stroke="rgb(0,0,0)"  stroke-width="3"/>
<line x1="371.5" y1="59.1" x2="371.5" y2="97.4" opacity="1.0" stroke="rgb(0,0,0)"  stroke-width="3"/>
<line x1="378.7" y1="65.1" x2="378.7" y2="91.4" opacity="1.0" stroke="rgb(0,0,0)"  stroke-width="3"/>
<line x1="338.4" y1="154.8" x2="305.2" y2="174.0" opacity="1.0" stroke="rgb(0,0,0)"  stroke-width="3"/>
<line x1="305.2" y1="174.0" x2="305.2" y2="212.3" opacity="1.0" stroke="rgb(0,0,0)"  stroke-width="3"/>
<line x1="312.4" y1="180.0" x2="312.4" y2="206.3" opacity="1.0" stroke="rgb(0,0,0)"  stroke-width="3"/>
<line x1="305.2" y1="212.3" x2="338.4" y2="231.4" opacity="1.0" stroke="rgb(0,0,0)"  stroke-width="3"/>
<line x1="371.5" y1="212.3" x2="371.5" y2="174.0" opacity="1.0" stroke="rgb(0,0,0)"  stroke-width="3"/>
<line x1="371.5" y1="174.0" x2="338.4" y2="154.8" opacity="1.0" stroke="rgb(0,0,0)"  stroke-width="3"/>
<line x1="362.7" y1="177.2" x2="340.0" y2="164.1" opacity="1.0" stroke="rgb(0,0,0)"  stroke-width="3"/>
<line x1="305.2" y1="288.8" x2="327.1" y2="276.2" opacity="1.0" stroke="rgb(0,0,0)"  stroke-width="3"/>
<line x1="305.2" y1="212.3" x2="283.3" y2="224.9" opacity="1.0" stroke="rgb(0,0,0)"  stroke-width="3"/>
<line x1="106.3" y1="97.4" x2="139.5" y2="116.6" opacity="1.0" stroke="rgb(0,0,0)"  stroke-width="3"/>
<line x1="139.5" y1="116.6" x2="172.6" y2="97.4" opacity="1.0" stroke="rgb(0,0,0)"  stroke-width="3"/>
<line x1="141.0" y1="107.3" x2="163.8" y2="94.2" opacity="1.0" stroke="rgb(0,0,0)"  stroke-width="3"/>
<line x1="172.6" y1="97.4" x2="172.6" y2="59.1" opacity="1.0" stroke="rgb(0,0,0)"  stroke-width="3"/>
<line x1="172.6" y1="59.1" x2="139.5" y2="40.0" opacity="1.0" stroke="rgb(0,0,0)"  stroke-width="3"/>
<line x1="163.8" y1="62.4" x2="141.0" y2="49.2" opacity="1.0" stroke="rgb(0,0,0)"  stroke-width="3"/>
<line x1="139.5" y1="40.0" x2="106.3" y2="59.1" opacity="1.0" stroke="rgb(0,0,0)"  stroke-width="3"/>
<line x1="106.3" y1="59.1" x2="106.3" y2="97.4" opacity="1.0" stroke="rgb(0,0,0)"  stroke-width="3"/>
<line x1="113.5" y1="65.1" x2="113.5" y2="91.4" opacity="1.0" stroke="rgb(0,0,0)"  stroke-width="3"/>
<line x1="106.3" y1="212.3" x2="106.3" y2="174.0" opacity="1.0" stroke="rgb(0,0,0)"  stroke-width="3"/>
<line x1="106.3" y1="174.0" x2="73.2" y2="154.8" opacity="1.0" stroke="rgb(0,0,0)"  stroke-width="3"/>
<line x1="97.5" y1="177.2" x2="74.7" y2="164.1" opacity="1.0" stroke="rgb(0,0,0)"  stroke-width="3"/>
<line x1="73.2" y1="154.8" x2="40.0" y2="174.0" opacity="1.0" stroke="rgb(0,0,0)"  stroke-width="3"/>
<line x1="40.0" y1="174.0" x2="40.0" y2="212.3" opacity="1.0" stroke="rgb(0,0,0)"  stroke-width="3"/>
<line x1="47.2" y1="180.0" x2="47.2" y2="206.3" opacity="1.0" stroke="rgb(0,0,0)"  stroke-width="3"/>
<line x1="40.0" y1="212.3" x2="73.2" y2="231.4" opacity="1.0" stroke="rgb(0,0,0)"  stroke-width="3"/>
<line x1="73.2" y1="231.4" x2="106.3" y2="212.3" opacity="1.0" stroke="rgb(0,0,0)"  stroke-width="3"/>
<line x1="74.7" y1="222.2" x2="97.5" y2="209.0" opacity="1.0" stroke="rgb(0,0,0)"  stroke-width="3"/>
<line x1="465.8" y1="399.3" x2="430.8" y2="383.8" opacity="1.0" stroke="rgb(0,0,0)"  stroke-width="3"/>
<line x1="457.4" y1="403.4" x2="433.4" y2="392.8" opacity="1.0" stroke="rgb(0,0,0)"  stroke-width="3"/>
<line x1="430.8" y1="383.8" x2="399.9" y2="406.3" opacity="1.0" stroke="rgb(0,0,0)"  stroke-width="3"/>
<line x1="399.9" y1="406.3" x2="403.9" y2="444.3" opacity="1.0" stroke="rgb(0,0,0)"  stroke-width="3"/>
<line x1="407.7" y1="411.5" x2="410.4" y2="437.6" opacity="1.0" stroke="rgb(0,0,0)"  stroke-width="3"/>
<line x1="403.9" y1="444.3" x2="438.9" y2="459.9" opacity="1.0" stroke="rgb(0,0,0)"  stroke-width="3"/>
<line x1="438.9" y1="459.9" x2="469.9" y2="437.4" opacity="1.0" stroke="rgb(0,0,0)"  stroke-width="3"/>
<line x1="439.5" y1="450.5" x2="460.8" y2="435.1" opacity="1.0" stroke="rgb(0,0,0)"  stroke-width="3"/>
<line x1="469.9" y1="437.4" x2="465.8" y2="399.3" opacity="1.0" stroke="rgb(0,0,0)"  stroke-width="3"/>
<line x1="319.2" y1="501.0" x2="356.9" y2="494.7" opacity="1.0" stroke="rgb(0,0,0)"  stroke-width="3"/>
<line x1="323.9" y1="492.9" x2="349.8" y2="488.5" opacity="1.0" stroke="rgb(0,0,0)"  stroke-width="3"/>
<line x1="356.9" y1="494.7" x2="369.0" y2="460.0" opacity="1.0" stroke="rgb(0,0,0)"  stroke-width="3"/>
<line x1="369.0" y1="460.0" x2="343.3" y2="431.5" opacity="1.0" stroke="rgb(0,0,0)"  stroke-width="3"/>
<line x1="359.6" y1="460.3" x2="342.0" y2="440.8" opacity="1.0" stroke="rgb(0,0,0)"  stroke-width="3"/>
<line x1="343.3" y1="431.5" x2="305.6" y2="437.8" opacity="1.0" stroke="rgb(0,0,0)"  stroke-width="3"/>
<line x1="305.6" y1="437.8" x2="293.5" y2="472.5" opacity="1.0" stroke="rgb(0,0,0)"  stroke-width="3"/>
<line x1="310.4" y1="445.8" x2="302.3" y2="469.2" opacity="1.0" stroke="rgb(0,0,0)"  stroke-width="3"/>
<line x1="293.5" y1="472.5" x2="319.2" y2="501.0" opacity="1.0" stroke="rgb(0,0,0)"  stroke-width="3"/>
<line x1="214.4" y1="414.1" x2="191.4" y2="383.4" opacity="1.0" stroke="rgb(0,0,0)"  stroke-width="3"/>
<line x1="191.4" y1="383.4" x2="155.2" y2="395.8" opacity="1.0" stroke="rgb(0,0,0)"  stroke-width="3"/>
<line x1="155.7" y1="434.1" x2="192.3" y2="445.4" opacity="1.0" stroke="rgb(0,0,0)"  stroke-width="3"/>
<line x1="369.0" y1="460.0" x2="403.9" y2="444.3" opacity="1.0" stroke="rgb(0,0,0)"  stroke-width="3"/>
<line x1="399.9" y1="406.3" x2="362.4" y2="398.4" opacity="1.0" stroke="rgb(0,0,0)"  stroke-width="3"/>
<line x1="362.4" y1="398.4" x2="343.3" y2="431.5" opacity="1.0" stroke="rgb(0,0,0)"  stroke-width="3"/>
<line x1="305.2" y1="327.1" x2="362.4" y2="398.4" opacity="1.0" stroke="rgb(0,0,0)"  stroke-width="3"/>
<line x1="362.4" y1="398.4" x2="371.5" y2="327.1" opacity="1.0" stroke="rgb(0,0,0)"  stroke-width="3"/>
<line x1="238.9" y1="327.1" x2="191.4" y2="383.4" opacity="1.0" stroke="rgb(0,0,0)"  stroke-width="3"/>
<line x1="191.4" y1="383.4" x2="172.6" y2="327.1" opacity="1.0" stroke="rgb(0,0,0)"  stroke-width="3"/>
<text x="133.453494" y="162.838997" fill="rgb(12,12,255)" stroke-width="0" font-weight="bold" font-size="25.92" >N</text>
<text x="266.057597" y="392.517594" fill="rgb(127,178,255)" stroke-width="0" font-weight="bold" font-size="25.92" >F</text>
<text x="266.058154" y="239.398328" fill="rgb(255,181,181)" stroke-width="0" font-weight="bold" font-size="25.92" >B</text>
<text x="199.755824" y="277.677994" fill="rgb(12,12,255)" stroke-width="0" font-weight="bold" font-size="25.92" >N</text>
<text x="332.360483" y="277.677994" fill="rgb(12,12,255)" stroke-width="0" font-weight="bold" font-size="25.92" >N</text>
<text x="398.662813" y="162.838997" fill="rgb(12,12,255)" stroke-width="0" font-weight="bold" font-size="25.92" >N</text>
</svg>
</g>
</svg>
