<?xml version="1.0"?>
<svg version="1.1" id="topsvg"
xmlns="http://www.w3.org/2000/svg" xmlns:xlink="http://www.w3.org/1999/xlink"
xmlns:cml="http://www.xml-cml.org/schema" x="0" y="0" width="200px" height="200px" viewBox="0 0 100 100">
<title>GD397.sdf - Open Babel Depiction</title>
<rect x="0" y="0" width="100" height="100" fill="white"/>
<g transform="translate(0,0)">
<svg width="100" height="100" x="0" y="0" viewBox="0 0 555.323 537.907"
font-family="sans-serif" stroke="rgb(0,0,0)" stroke-width="3"  stroke-linecap="round">
<line x1="277.7" y1="354.9" x2="277.7" y2="379.8" opacity="1.0" stroke="rgb(0,0,0)"  stroke-width="3"/>
<line x1="376.3" y1="184.0" x2="397.9" y2="171.5" opacity="1.0" stroke="rgb(0,0,0)"  stroke-width="3"/>
<line x1="455.0" y1="298.6" x2="492.9" y2="302.6" opacity="1.0" stroke="rgb(0,0,0)"  stroke-width="3"/>
<line x1="492.9" y1="302.6" x2="508.4" y2="337.4" opacity="1.0" stroke="rgb(0,0,0)"  stroke-width="3"/>
<line x1="492.9" y1="302.6" x2="515.3" y2="271.8" opacity="1.0" stroke="rgb(0,0,0)"  stroke-width="3"/>
<line x1="492.9" y1="302.6" x2="477.4" y2="267.8" opacity="1.0" stroke="rgb(0,0,0)"  stroke-width="3"/>
<line x1="100.3" y1="298.6" x2="62.4" y2="302.6" opacity="1.0" stroke="rgb(0,0,0)"  stroke-width="3"/>
<line x1="62.4" y1="302.6" x2="46.9" y2="337.4" opacity="1.0" stroke="rgb(0,0,0)"  stroke-width="3"/>
<line x1="62.4" y1="302.6" x2="40.0" y2="271.8" opacity="1.0" stroke="rgb(0,0,0)"  stroke-width="3"/>
<line x1="62.4" y1="302.6" x2="77.9" y2="267.8" opacity="1.0" stroke="rgb(0,0,0)"  stroke-width="3"/>
<line x1="211.9" y1="165.0" x2="211.9" y2="139.9" opacity="1.0" stroke="rgb(0,0,0)"  stroke-width="3"/>
<line x1="401.8" y1="259.9" x2="376.3" y2="222.0" opacity="1.0" stroke="rgb(0,0,0)"  stroke-width="3"/>
<line x1="376.3" y1="222.0" x2="343.4" y2="241.0" opacity="1.0" stroke="rgb(0,0,0)"  stroke-width="3"/>
<line x1="374.7" y1="231.2" x2="352.2" y2="244.2" opacity="1.0" stroke="rgb(0,0,0)"  stroke-width="3"/>
<line x1="343.4" y1="241.0" x2="343.4" y2="265.9" opacity="1.0" stroke="rgb(0,0,0)"  stroke-width="3"/>
<line x1="355.8" y1="282.9" x2="379.5" y2="290.7" opacity="1.0" stroke="rgb(0,0,0)"  stroke-width="3"/>
<line x1="379.5" y1="290.7" x2="401.8" y2="259.9" opacity="1.0" stroke="rgb(0,0,0)"  stroke-width="3"/>
<line x1="377.2" y1="281.6" x2="392.5" y2="260.6" opacity="1.0" stroke="rgb(0,0,0)"  stroke-width="3"/>
<line x1="153.5" y1="259.9" x2="175.8" y2="290.7" opacity="1.0" stroke="rgb(0,0,0)"  stroke-width="3"/>
<line x1="162.8" y1="260.6" x2="178.1" y2="281.6" opacity="1.0" stroke="rgb(0,0,0)"  stroke-width="3"/>
<line x1="175.8" y1="290.7" x2="199.5" y2="282.9" opacity="1.0" stroke="rgb(0,0,0)"  stroke-width="3"/>
<line x1="211.9" y1="265.9" x2="211.9" y2="241.0" opacity="1.0" stroke="rgb(0,0,0)"  stroke-width="3"/>
<line x1="211.9" y1="241.0" x2="179.0" y2="222.0" opacity="1.0" stroke="rgb(0,0,0)"  stroke-width="3"/>
<line x1="203.1" y1="244.2" x2="180.6" y2="231.2" opacity="1.0" stroke="rgb(0,0,0)"  stroke-width="3"/>
<line x1="179.0" y1="222.0" x2="153.5" y2="259.9" opacity="1.0" stroke="rgb(0,0,0)"  stroke-width="3"/>
<line x1="409.2" y1="152.0" x2="409.2" y2="127.1" opacity="1.0" stroke="rgb(0,0,0)"  stroke-width="3"/>
<line x1="409.2" y1="127.1" x2="442.1" y2="108.1" opacity="1.0" stroke="rgb(0,0,0)"  stroke-width="3"/>
<line x1="442.1" y1="108.1" x2="474.9" y2="165.0" opacity="1.0" stroke="rgb(0,0,0)"  stroke-width="3"/>
<line x1="474.9" y1="165.0" x2="442.1" y2="184.0" opacity="1.0" stroke="rgb(0,0,0)"  stroke-width="3"/>
<line x1="442.1" y1="184.0" x2="420.4" y2="171.5" opacity="1.0" stroke="rgb(0,0,0)"  stroke-width="3"/>
<line x1="242.7" y1="104.5" x2="231.0" y2="68.3" opacity="1.0" stroke="rgb(0,0,0)"  stroke-width="3"/>
<line x1="234.0" y1="101.1" x2="226.0" y2="76.2" opacity="1.0" stroke="rgb(0,0,0)"  stroke-width="3"/>
<line x1="231.0" y1="68.3" x2="192.9" y2="68.3" opacity="1.0" stroke="rgb(0,0,0)"  stroke-width="3"/>
<line x1="192.9" y1="68.3" x2="181.1" y2="104.5" opacity="1.0" stroke="rgb(0,0,0)"  stroke-width="3"/>
<line x1="197.8" y1="76.2" x2="189.8" y2="101.1" opacity="1.0" stroke="rgb(0,0,0)"  stroke-width="3"/>
<line x1="181.1" y1="104.5" x2="201.4" y2="119.3" opacity="1.0" stroke="rgb(0,0,0)"  stroke-width="3"/>
<line x1="222.4" y1="119.3" x2="242.7" y2="104.5" opacity="1.0" stroke="rgb(0,0,0)"  stroke-width="3"/>
<line x1="310.5" y1="335.9" x2="277.7" y2="354.9" opacity="1.0" stroke="rgb(0,0,0)"  stroke-width="3"/>
<line x1="277.7" y1="354.9" x2="244.8" y2="335.9" opacity="1.0" stroke="rgb(0,0,0)"  stroke-width="3"/>
<line x1="276.1" y1="345.6" x2="253.6" y2="332.6" opacity="1.0" stroke="rgb(0,0,0)"  stroke-width="3"/>
<line x1="244.8" y1="335.9" x2="244.8" y2="297.9" opacity="1.0" stroke="rgb(0,0,0)"  stroke-width="3"/>
<line x1="244.8" y1="297.9" x2="277.7" y2="278.9" opacity="1.0" stroke="rgb(0,0,0)"  stroke-width="3"/>
<line x1="253.6" y1="301.1" x2="276.1" y2="288.2" opacity="1.0" stroke="rgb(0,0,0)"  stroke-width="3"/>
<line x1="277.7" y1="278.9" x2="310.5" y2="297.9" opacity="1.0" stroke="rgb(0,0,0)"  stroke-width="3"/>
<line x1="310.5" y1="297.9" x2="310.5" y2="335.9" opacity="1.0" stroke="rgb(0,0,0)"  stroke-width="3"/>
<line x1="303.3" y1="303.9" x2="303.3" y2="329.9" opacity="1.0" stroke="rgb(0,0,0)"  stroke-width="3"/>
<line x1="343.4" y1="241.0" x2="310.5" y2="222.0" opacity="1.0" stroke="rgb(0,0,0)"  stroke-width="3"/>
<line x1="310.5" y1="222.0" x2="288.9" y2="234.5" opacity="1.0" stroke="rgb(0,0,0)"  stroke-width="3"/>
<line x1="277.7" y1="254.0" x2="277.7" y2="278.9" opacity="1.0" stroke="rgb(0,0,0)"  stroke-width="3"/>
<line x1="310.5" y1="297.9" x2="332.2" y2="285.4" opacity="1.0" stroke="rgb(0,0,0)"  stroke-width="3"/>
<line x1="455.0" y1="298.6" x2="439.6" y2="263.9" opacity="1.0" stroke="rgb(0,0,0)"  stroke-width="3"/>
<line x1="446.0" y1="296.0" x2="435.5" y2="272.3" opacity="1.0" stroke="rgb(0,0,0)"  stroke-width="3"/>
<line x1="439.6" y1="263.9" x2="401.8" y2="259.9" opacity="1.0" stroke="rgb(0,0,0)"  stroke-width="3"/>
<line x1="379.5" y1="290.7" x2="395.0" y2="325.3" opacity="1.0" stroke="rgb(0,0,0)"  stroke-width="3"/>
<line x1="395.0" y1="325.3" x2="432.7" y2="329.3" opacity="1.0" stroke="rgb(0,0,0)"  stroke-width="3"/>
<line x1="401.7" y1="318.8" x2="427.5" y2="321.5" opacity="1.0" stroke="rgb(0,0,0)"  stroke-width="3"/>
<line x1="432.7" y1="329.3" x2="455.0" y2="298.6" opacity="1.0" stroke="rgb(0,0,0)"  stroke-width="3"/>
<line x1="100.3" y1="298.6" x2="115.7" y2="263.9" opacity="1.0" stroke="rgb(0,0,0)"  stroke-width="3"/>
<line x1="109.3" y1="296.0" x2="119.9" y2="272.3" opacity="1.0" stroke="rgb(0,0,0)"  stroke-width="3"/>
<line x1="115.7" y1="263.9" x2="153.5" y2="259.9" opacity="1.0" stroke="rgb(0,0,0)"  stroke-width="3"/>
<line x1="175.8" y1="290.7" x2="160.4" y2="325.3" opacity="1.0" stroke="rgb(0,0,0)"  stroke-width="3"/>
<line x1="160.4" y1="325.3" x2="122.6" y2="329.3" opacity="1.0" stroke="rgb(0,0,0)"  stroke-width="3"/>
<line x1="153.6" y1="318.8" x2="127.8" y2="321.5" opacity="1.0" stroke="rgb(0,0,0)"  stroke-width="3"/>
<line x1="122.6" y1="329.3" x2="100.3" y2="298.6" opacity="1.0" stroke="rgb(0,0,0)"  stroke-width="3"/>
<line x1="223.2" y1="285.4" x2="244.8" y2="297.9" opacity="1.0" stroke="rgb(0,0,0)"  stroke-width="3"/>
<line x1="266.4" y1="234.5" x2="244.8" y2="222.0" opacity="1.0" stroke="rgb(0,0,0)"  stroke-width="3"/>
<line x1="244.8" y1="222.0" x2="211.9" y2="241.0" opacity="1.0" stroke="rgb(0,0,0)"  stroke-width="3"/>
<line x1="211.9" y1="165.0" x2="244.8" y2="184.0" opacity="1.0" stroke="rgb(0,0,0)"  stroke-width="3"/>
<line x1="244.8" y1="184.0" x2="244.8" y2="222.0" opacity="1.0" stroke="rgb(0,0,0)"  stroke-width="3"/>
<line x1="237.6" y1="190.0" x2="237.6" y2="216.0" opacity="1.0" stroke="rgb(0,0,0)"  stroke-width="3"/>
<line x1="179.0" y1="222.0" x2="179.0" y2="184.0" opacity="1.0" stroke="rgb(0,0,0)"  stroke-width="3"/>
<line x1="179.0" y1="184.0" x2="211.9" y2="165.0" opacity="1.0" stroke="rgb(0,0,0)"  stroke-width="3"/>
<line x1="187.8" y1="187.3" x2="210.3" y2="174.3" opacity="1.0" stroke="rgb(0,0,0)"  stroke-width="3"/>
<line x1="376.3" y1="222.0" x2="376.3" y2="184.0" opacity="1.0" stroke="rgb(0,0,0)"  stroke-width="3"/>
<line x1="376.3" y1="184.0" x2="343.4" y2="165.0" opacity="1.0" stroke="rgb(0,0,0)"  stroke-width="3"/>
<line x1="367.5" y1="187.3" x2="345.0" y2="174.3" opacity="1.0" stroke="rgb(0,0,0)"  stroke-width="3"/>
<line x1="343.4" y1="165.0" x2="310.5" y2="184.0" opacity="1.0" stroke="rgb(0,0,0)"  stroke-width="3"/>
<line x1="310.5" y1="184.0" x2="310.5" y2="222.0" opacity="1.0" stroke="rgb(0,0,0)"  stroke-width="3"/>
<line x1="317.7" y1="190.0" x2="317.7" y2="216.0" opacity="1.0" stroke="rgb(0,0,0)"  stroke-width="3"/>
<line x1="317.2" y1="497.9" x2="355.1" y2="495.8" opacity="1.0" stroke="rgb(0,0,0)"  stroke-width="3"/>
<line x1="322.8" y1="490.4" x2="348.7" y2="488.9" opacity="1.0" stroke="rgb(0,0,0)"  stroke-width="3"/>
<line x1="355.1" y1="495.8" x2="372.3" y2="461.9" opacity="1.0" stroke="rgb(0,0,0)"  stroke-width="3"/>
<line x1="372.3" y1="461.9" x2="351.5" y2="430.1" opacity="1.0" stroke="rgb(0,0,0)"  stroke-width="3"/>
<line x1="362.9" y1="460.8" x2="348.7" y2="439.1" opacity="1.0" stroke="rgb(0,0,0)"  stroke-width="3"/>
<line x1="351.5" y1="430.1" x2="313.6" y2="432.3" opacity="1.0" stroke="rgb(0,0,0)"  stroke-width="3"/>
<line x1="313.6" y1="432.3" x2="296.4" y2="466.1" opacity="1.0" stroke="rgb(0,0,0)"  stroke-width="3"/>
<line x1="317.3" y1="440.9" x2="305.6" y2="464.0" opacity="1.0" stroke="rgb(0,0,0)"  stroke-width="3"/>
<line x1="296.4" y1="466.1" x2="317.2" y2="497.9" opacity="1.0" stroke="rgb(0,0,0)"  stroke-width="3"/>
<line x1="476.4" y1="417.3" x2="444.5" y2="396.7" opacity="1.0" stroke="rgb(0,0,0)"  stroke-width="3"/>
<line x1="467.5" y1="420.1" x2="445.7" y2="406.0" opacity="1.0" stroke="rgb(0,0,0)"  stroke-width="3"/>
<line x1="444.5" y1="396.7" x2="410.8" y2="414.1" opacity="1.0" stroke="rgb(0,0,0)"  stroke-width="3"/>
<line x1="410.8" y1="414.1" x2="408.9" y2="452.0" opacity="1.0" stroke="rgb(0,0,0)"  stroke-width="3"/>
<line x1="417.7" y1="420.4" x2="416.4" y2="446.3" opacity="1.0" stroke="rgb(0,0,0)"  stroke-width="3"/>
<line x1="408.9" y1="452.0" x2="440.8" y2="472.6" opacity="1.0" stroke="rgb(0,0,0)"  stroke-width="3"/>
<line x1="440.8" y1="472.6" x2="474.6" y2="455.2" opacity="1.0" stroke="rgb(0,0,0)"  stroke-width="3"/>
<line x1="442.9" y1="463.4" x2="466.0" y2="451.6" opacity="1.0" stroke="rgb(0,0,0)"  stroke-width="3"/>
<line x1="474.6" y1="455.2" x2="476.4" y2="417.3" opacity="1.0" stroke="rgb(0,0,0)"  stroke-width="3"/>
<line x1="271.1" y1="463.0" x2="251.3" y2="430.6" opacity="1.0" stroke="rgb(0,0,0)"  stroke-width="3"/>
<line x1="261.8" y1="461.6" x2="248.3" y2="439.4" opacity="1.0" stroke="rgb(0,0,0)"  stroke-width="3"/>
<line x1="251.3" y1="430.6" x2="213.4" y2="431.5" opacity="1.0" stroke="rgb(0,0,0)"  stroke-width="3"/>
<line x1="213.4" y1="431.5" x2="195.2" y2="464.8" opacity="1.0" stroke="rgb(0,0,0)"  stroke-width="3"/>
<line x1="216.8" y1="440.2" x2="204.4" y2="463.0" opacity="1.0" stroke="rgb(0,0,0)"  stroke-width="3"/>
<line x1="195.2" y1="464.8" x2="214.9" y2="497.2" opacity="1.0" stroke="rgb(0,0,0)"  stroke-width="3"/>
<line x1="214.9" y1="497.2" x2="252.9" y2="496.3" opacity="1.0" stroke="rgb(0,0,0)"  stroke-width="3"/>
<line x1="220.7" y1="489.9" x2="246.7" y2="489.3" opacity="1.0" stroke="rgb(0,0,0)"  stroke-width="3"/>
<line x1="252.9" y1="496.3" x2="271.1" y2="463.0" opacity="1.0" stroke="rgb(0,0,0)"  stroke-width="3"/>
<line x1="92.6" y1="466.2" x2="127.7" y2="480.8" opacity="1.0" stroke="rgb(0,0,0)"  stroke-width="3"/>
<line x1="100.9" y1="461.9" x2="124.9" y2="471.9" opacity="1.0" stroke="rgb(0,0,0)"  stroke-width="3"/>
<line x1="127.7" y1="480.8" x2="157.9" y2="457.8" opacity="1.0" stroke="rgb(0,0,0)"  stroke-width="3"/>
<line x1="157.9" y1="457.8" x2="153.0" y2="420.1" opacity="1.0" stroke="rgb(0,0,0)"  stroke-width="3"/>
<line x1="149.9" y1="452.8" x2="146.6" y2="427.0" opacity="1.0" stroke="rgb(0,0,0)"  stroke-width="3"/>
<line x1="153.0" y1="420.1" x2="117.9" y2="405.5" opacity="1.0" stroke="rgb(0,0,0)"  stroke-width="3"/>
<line x1="117.9" y1="405.5" x2="87.8" y2="428.6" opacity="1.0" stroke="rgb(0,0,0)"  stroke-width="3"/>
<line x1="117.5" y1="414.9" x2="96.9" y2="430.6" opacity="1.0" stroke="rgb(0,0,0)"  stroke-width="3"/>
<line x1="87.8" y1="428.6" x2="92.6" y2="466.2" opacity="1.0" stroke="rgb(0,0,0)"  stroke-width="3"/>
<line x1="376.3" y1="108.1" x2="409.2" y2="127.1" opacity="1.0" stroke="rgb(0,0,0)"  stroke-width="3"/>
<line x1="385.1" y1="104.9" x2="407.6" y2="117.8" opacity="1.0" stroke="rgb(0,0,0)"  stroke-width="3"/>
<line x1="442.1" y1="108.1" x2="442.1" y2="70.1" opacity="1.0" stroke="rgb(0,0,0)"  stroke-width="3"/>
<line x1="434.9" y1="102.1" x2="434.9" y2="76.1" opacity="1.0" stroke="rgb(0,0,0)"  stroke-width="3"/>
<line x1="442.1" y1="70.1" x2="409.2" y2="51.1" opacity="1.0" stroke="rgb(0,0,0)"  stroke-width="3"/>
<line x1="409.2" y1="51.1" x2="376.3" y2="70.1" opacity="1.0" stroke="rgb(0,0,0)"  stroke-width="3"/>
<line x1="407.6" y1="60.4" x2="385.1" y2="73.4" opacity="1.0" stroke="rgb(0,0,0)"  stroke-width="3"/>
<line x1="376.3" y1="70.1" x2="376.3" y2="108.1" opacity="1.0" stroke="rgb(0,0,0)"  stroke-width="3"/>
<line x1="507.8" y1="222.0" x2="474.9" y2="241.0" opacity="1.0" stroke="rgb(0,0,0)"  stroke-width="3"/>
<line x1="499.0" y1="218.7" x2="476.5" y2="231.7" opacity="1.0" stroke="rgb(0,0,0)"  stroke-width="3"/>
<line x1="474.9" y1="241.0" x2="442.1" y2="222.0" opacity="1.0" stroke="rgb(0,0,0)"  stroke-width="3"/>
<line x1="442.1" y1="222.0" x2="442.1" y2="184.0" opacity="1.0" stroke="rgb(0,0,0)"  stroke-width="3"/>
<line x1="449.3" y1="216.0" x2="449.3" y2="190.0" opacity="1.0" stroke="rgb(0,0,0)"  stroke-width="3"/>
<line x1="474.9" y1="165.0" x2="507.8" y2="184.0" opacity="1.0" stroke="rgb(0,0,0)"  stroke-width="3"/>
<line x1="476.5" y1="174.3" x2="499.0" y2="187.3" opacity="1.0" stroke="rgb(0,0,0)"  stroke-width="3"/>
<line x1="507.8" y1="184.0" x2="507.8" y2="222.0" opacity="1.0" stroke="rgb(0,0,0)"  stroke-width="3"/>
<line x1="118.3" y1="84.2" x2="143.8" y2="112.5" opacity="1.0" stroke="rgb(0,0,0)"  stroke-width="3"/>
<line x1="127.7" y1="83.8" x2="145.2" y2="103.2" opacity="1.0" stroke="rgb(0,0,0)"  stroke-width="3"/>
<line x1="143.8" y1="112.5" x2="181.1" y2="104.5" opacity="1.0" stroke="rgb(0,0,0)"  stroke-width="3"/>
<line x1="192.9" y1="68.3" x2="167.4" y2="40.0" opacity="1.0" stroke="rgb(0,0,0)"  stroke-width="3"/>
<line x1="167.4" y1="40.0" x2="130.1" y2="47.9" opacity="1.0" stroke="rgb(0,0,0)"  stroke-width="3"/>
<line x1="163.0" y1="48.3" x2="137.5" y2="53.7" opacity="1.0" stroke="rgb(0,0,0)"  stroke-width="3"/>
<line x1="130.1" y1="47.9" x2="118.3" y2="84.2" opacity="1.0" stroke="rgb(0,0,0)"  stroke-width="3"/>
<line x1="293.7" y1="47.9" x2="256.4" y2="40.0" opacity="1.0" stroke="rgb(0,0,0)"  stroke-width="3"/>
<line x1="286.3" y1="53.7" x2="260.8" y2="48.3" opacity="1.0" stroke="rgb(0,0,0)"  stroke-width="3"/>
<line x1="256.4" y1="40.0" x2="231.0" y2="68.3" opacity="1.0" stroke="rgb(0,0,0)"  stroke-width="3"/>
<line x1="242.7" y1="104.5" x2="280.0" y2="112.5" opacity="1.0" stroke="rgb(0,0,0)"  stroke-width="3"/>
<line x1="280.0" y1="112.5" x2="305.5" y2="84.2" opacity="1.0" stroke="rgb(0,0,0)"  stroke-width="3"/>
<line x1="278.7" y1="103.2" x2="296.1" y2="83.8" opacity="1.0" stroke="rgb(0,0,0)"  stroke-width="3"/>
<line x1="305.5" y1="84.2" x2="293.7" y2="47.9" opacity="1.0" stroke="rgb(0,0,0)"  stroke-width="3"/>
<line x1="372.3" y1="461.9" x2="408.9" y2="452.0" opacity="1.0" stroke="rgb(0,0,0)"  stroke-width="3"/>
<line x1="410.8" y1="414.1" x2="375.3" y2="400.6" opacity="1.0" stroke="rgb(0,0,0)"  stroke-width="3"/>
<line x1="375.3" y1="400.6" x2="351.5" y2="430.1" opacity="1.0" stroke="rgb(0,0,0)"  stroke-width="3"/>
<line x1="157.9" y1="457.8" x2="195.2" y2="464.8" opacity="1.0" stroke="rgb(0,0,0)"  stroke-width="3"/>
<line x1="213.4" y1="431.5" x2="187.3" y2="403.9" opacity="1.0" stroke="rgb(0,0,0)"  stroke-width="3"/>
<line x1="187.3" y1="403.9" x2="153.0" y2="420.1" opacity="1.0" stroke="rgb(0,0,0)"  stroke-width="3"/>
<line x1="244.8" y1="335.9" x2="187.3" y2="403.9" opacity="1.0" stroke="rgb(0,0,0)"  stroke-width="3"/>
<line x1="187.3" y1="403.9" x2="160.4" y2="325.3" opacity="1.0" stroke="rgb(0,0,0)"  stroke-width="3"/>
<line x1="395.0" y1="325.3" x2="375.3" y2="400.6" opacity="1.0" stroke="rgb(0,0,0)"  stroke-width="3"/>
<line x1="375.3" y1="400.6" x2="310.5" y2="335.9" opacity="1.0" stroke="rgb(0,0,0)"  stroke-width="3"/>
<text x="271.661778" y="400.827822" fill="rgb(127,178,255)" stroke-width="0" font-weight="bold" font-size="25.92" >F</text>
<text x="403.176977" y="173.035616" fill="rgb(12,12,255)" stroke-width="0" font-weight="bold" font-size="25.92" >N</text>
<text x="205.903670" y="134.938077" fill="rgb(12,12,255)" stroke-width="0" font-weight="bold" font-size="25.92" >N</text>
<text x="271.661455" y="248.966136" fill="rgb(255,181,181)" stroke-width="0" font-weight="bold" font-size="25.92" >B</text>
<text x="205.903670" y="286.931419" fill="rgb(12,12,255)" stroke-width="0" font-weight="bold" font-size="25.92" >N</text>
<text x="337.419239" y="286.931419" fill="rgb(12,12,255)" stroke-width="0" font-weight="bold" font-size="25.92" >N</text>
</svg>
</g>
</svg>
