<?xml version="1.0"?>
<svg version="1.1" id="topsvg"
xmlns="http://www.w3.org/2000/svg" xmlns:xlink="http://www.w3.org/1999/xlink"
xmlns:cml="http://www.xml-cml.org/schema" x="0" y="0" width="200px" height="200px" viewBox="0 0 100 100">
<title>GD399.sdf - Open Babel Depiction</title>
<rect x="0" y="0" width="100" height="100" fill="white"/>
<g transform="translate(0,0)">
<svg width="100" height="100" x="0" y="0" viewBox="0 0 663.954 405.561"
font-family="sans-serif" stroke="rgb(0,0,0)" stroke-width="3"  stroke-linecap="round">
<line x1="229.1" y1="170.4" x2="224.9" y2="130.7" opacity="1.0" stroke="rgb(0,0,0)"  stroke-width="3"/>
<line x1="224.9" y1="130.7" x2="188.4" y2="114.4" opacity="1.0" stroke="rgb(0,0,0)"  stroke-width="3"/>
<line x1="224.9" y1="130.7" x2="257.2" y2="107.2" opacity="1.0" stroke="rgb(0,0,0)"  stroke-width="3"/>
<line x1="224.9" y1="130.7" x2="220.7" y2="90.9" opacity="1.0" stroke="rgb(0,0,0)"  stroke-width="3"/>
<line x1="119.5" y1="306.3" x2="79.7" y2="310.5" opacity="1.0" stroke="rgb(0,0,0)"  stroke-width="3"/>
<line x1="79.7" y1="310.5" x2="40.0" y2="314.7" opacity="1.0" stroke="rgb(0,0,0)"  stroke-width="3"/>
<line x1="79.7" y1="310.5" x2="56.3" y2="278.2" opacity="1.0" stroke="rgb(0,0,0)"  stroke-width="3"/>
<line x1="79.7" y1="310.5" x2="63.5" y2="347.0" opacity="1.0" stroke="rgb(0,0,0)"  stroke-width="3"/>
<line x1="175.5" y1="265.7" x2="199.0" y2="233.3" opacity="1.0" stroke="rgb(0,0,0)"  stroke-width="3"/>
<line x1="199.0" y1="233.3" x2="237.0" y2="245.7" opacity="1.0" stroke="rgb(0,0,0)"  stroke-width="3"/>
<line x1="237.0" y1="245.7" x2="237.0" y2="272.6" opacity="1.0" stroke="rgb(0,0,0)"  stroke-width="3"/>
<line x1="224.6" y1="289.7" x2="199.0" y2="298.0" opacity="1.0" stroke="rgb(0,0,0)"  stroke-width="3"/>
<line x1="199.0" y1="298.0" x2="175.5" y2="265.7" opacity="1.0" stroke="rgb(0,0,0)"  stroke-width="3"/>
<line x1="438.3" y1="254.0" x2="418.3" y2="288.6" opacity="1.0" stroke="rgb(0,0,0)"  stroke-width="3"/>
<line x1="418.3" y1="288.6" x2="388.4" y2="286.5" opacity="1.0" stroke="rgb(0,0,0)"  stroke-width="3"/>
<line x1="375.4" y1="272.6" x2="375.4" y2="245.7" opacity="1.0" stroke="rgb(0,0,0)"  stroke-width="3"/>
<line x1="375.4" y1="245.7" x2="410.0" y2="225.7" opacity="1.0" stroke="rgb(0,0,0)"  stroke-width="3"/>
<line x1="384.2" y1="248.9" x2="408.4" y2="234.9" opacity="1.0" stroke="rgb(0,0,0)"  stroke-width="3"/>
<line x1="410.0" y1="225.7" x2="438.3" y2="254.0" opacity="1.0" stroke="rgb(0,0,0)"  stroke-width="3"/>
<line x1="568.0" y1="205.7" x2="544.5" y2="173.4" opacity="1.0" stroke="rgb(0,0,0)"  stroke-width="3"/>
<line x1="544.5" y1="173.4" x2="506.5" y2="185.7" opacity="1.0" stroke="rgb(0,0,0)"  stroke-width="3"/>
<line x1="541.0" y1="182.1" x2="514.4" y2="190.7" opacity="1.0" stroke="rgb(0,0,0)"  stroke-width="3"/>
<line x1="506.5" y1="185.7" x2="506.5" y2="212.7" opacity="1.0" stroke="rgb(0,0,0)"  stroke-width="3"/>
<line x1="518.8" y1="229.7" x2="544.5" y2="238.0" opacity="1.0" stroke="rgb(0,0,0)"  stroke-width="3"/>
<line x1="544.5" y1="238.0" x2="568.0" y2="205.7" opacity="1.0" stroke="rgb(0,0,0)"  stroke-width="3"/>
<line x1="542.2" y1="229.0" x2="558.6" y2="206.3" opacity="1.0" stroke="rgb(0,0,0)"  stroke-width="3"/>
<line x1="458.2" y1="96.0" x2="425.9" y2="119.5" opacity="1.0" stroke="rgb(0,0,0)"  stroke-width="3"/>
<line x1="457.6" y1="105.3" x2="435.0" y2="121.8" opacity="1.0" stroke="rgb(0,0,0)"  stroke-width="3"/>
<line x1="425.9" y1="119.5" x2="434.2" y2="145.1" opacity="1.0" stroke="rgb(0,0,0)"  stroke-width="3"/>
<line x1="451.3" y1="157.5" x2="478.2" y2="157.5" opacity="1.0" stroke="rgb(0,0,0)"  stroke-width="3"/>
<line x1="478.2" y1="157.5" x2="490.6" y2="119.5" opacity="1.0" stroke="rgb(0,0,0)"  stroke-width="3"/>
<line x1="473.2" y1="149.6" x2="481.9" y2="123.0" opacity="1.0" stroke="rgb(0,0,0)"  stroke-width="3"/>
<line x1="490.6" y1="119.5" x2="458.2" y2="96.0" opacity="1.0" stroke="rgb(0,0,0)"  stroke-width="3"/>
<line x1="271.6" y1="345.6" x2="306.2" y2="365.6" opacity="1.0" stroke="rgb(0,0,0)"  stroke-width="3"/>
<line x1="306.2" y1="365.6" x2="340.8" y2="345.6" opacity="1.0" stroke="rgb(0,0,0)"  stroke-width="3"/>
<line x1="307.8" y1="356.3" x2="332.0" y2="342.3" opacity="1.0" stroke="rgb(0,0,0)"  stroke-width="3"/>
<line x1="340.8" y1="345.6" x2="340.8" y2="305.6" opacity="1.0" stroke="rgb(0,0,0)"  stroke-width="3"/>
<line x1="340.8" y1="305.6" x2="306.2" y2="285.6" opacity="1.0" stroke="rgb(0,0,0)"  stroke-width="3"/>
<line x1="332.0" y1="308.9" x2="307.8" y2="294.9" opacity="1.0" stroke="rgb(0,0,0)"  stroke-width="3"/>
<line x1="306.2" y1="285.6" x2="271.6" y2="305.6" opacity="1.0" stroke="rgb(0,0,0)"  stroke-width="3"/>
<line x1="271.6" y1="305.6" x2="271.6" y2="345.6" opacity="1.0" stroke="rgb(0,0,0)"  stroke-width="3"/>
<line x1="278.8" y1="311.6" x2="278.8" y2="339.6" opacity="1.0" stroke="rgb(0,0,0)"  stroke-width="3"/>
<line x1="237.0" y1="245.7" x2="271.6" y2="225.7" opacity="1.0" stroke="rgb(0,0,0)"  stroke-width="3"/>
<line x1="245.8" y1="248.9" x2="270.0" y2="234.9" opacity="1.0" stroke="rgb(0,0,0)"  stroke-width="3"/>
<line x1="271.6" y1="225.7" x2="294.9" y2="239.2" opacity="1.0" stroke="rgb(0,0,0)"  stroke-width="3"/>
<line x1="306.2" y1="258.7" x2="306.2" y2="285.6" opacity="1.0" stroke="rgb(0,0,0)"  stroke-width="3"/>
<line x1="271.6" y1="305.6" x2="248.2" y2="292.1" opacity="1.0" stroke="rgb(0,0,0)"  stroke-width="3"/>
<line x1="196.4" y1="193.5" x2="229.1" y2="170.4" opacity="1.0" stroke="rgb(0,0,0)"  stroke-width="3"/>
<line x1="229.1" y1="170.4" x2="265.8" y2="186.2" opacity="1.0" stroke="rgb(0,0,0)"  stroke-width="3"/>
<line x1="231.7" y1="179.4" x2="257.4" y2="190.4" opacity="1.0" stroke="rgb(0,0,0)"  stroke-width="3"/>
<line x1="265.8" y1="186.2" x2="271.6" y2="225.7" opacity="1.0" stroke="rgb(0,0,0)"  stroke-width="3"/>
<line x1="199.0" y1="233.3" x2="196.4" y2="193.5" opacity="1.0" stroke="rgb(0,0,0)"  stroke-width="3"/>
<line x1="205.8" y1="226.9" x2="204.0" y2="199.0" opacity="1.0" stroke="rgb(0,0,0)"  stroke-width="3"/>
<line x1="364.1" y1="292.1" x2="340.8" y2="305.6" opacity="1.0" stroke="rgb(0,0,0)"  stroke-width="3"/>
<line x1="317.4" y1="239.2" x2="340.8" y2="225.7" opacity="1.0" stroke="rgb(0,0,0)"  stroke-width="3"/>
<line x1="340.8" y1="225.7" x2="375.4" y2="245.7" opacity="1.0" stroke="rgb(0,0,0)"  stroke-width="3"/>
<line x1="498.2" y1="288.6" x2="478.2" y2="323.2" opacity="1.0" stroke="rgb(0,0,0)"  stroke-width="3"/>
<line x1="489.0" y1="290.2" x2="475.0" y2="314.4" opacity="1.0" stroke="rgb(0,0,0)"  stroke-width="3"/>
<line x1="478.2" y1="323.2" x2="438.3" y2="323.2" opacity="1.0" stroke="rgb(0,0,0)"  stroke-width="3"/>
<line x1="438.3" y1="323.2" x2="418.3" y2="288.6" opacity="1.0" stroke="rgb(0,0,0)"  stroke-width="3"/>
<line x1="441.5" y1="314.4" x2="427.5" y2="290.2" opacity="1.0" stroke="rgb(0,0,0)"  stroke-width="3"/>
<line x1="438.3" y1="254.0" x2="478.2" y2="254.0" opacity="1.0" stroke="rgb(0,0,0)"  stroke-width="3"/>
<line x1="444.3" y1="261.2" x2="472.2" y2="261.2" opacity="1.0" stroke="rgb(0,0,0)"  stroke-width="3"/>
<line x1="478.2" y1="254.0" x2="498.2" y2="288.6" opacity="1.0" stroke="rgb(0,0,0)"  stroke-width="3"/>
<line x1="375.4" y1="165.8" x2="340.8" y2="185.7" opacity="1.0" stroke="rgb(0,0,0)"  stroke-width="3"/>
<line x1="340.8" y1="185.7" x2="340.8" y2="225.7" opacity="1.0" stroke="rgb(0,0,0)"  stroke-width="3"/>
<line x1="348.0" y1="191.7" x2="348.0" y2="219.7" opacity="1.0" stroke="rgb(0,0,0)"  stroke-width="3"/>
<line x1="410.0" y1="225.7" x2="410.0" y2="185.7" opacity="1.0" stroke="rgb(0,0,0)"  stroke-width="3"/>
<line x1="410.0" y1="185.7" x2="375.4" y2="165.8" opacity="1.0" stroke="rgb(0,0,0)"  stroke-width="3"/>
<line x1="401.2" y1="189.0" x2="377.0" y2="175.0" opacity="1.0" stroke="rgb(0,0,0)"  stroke-width="3"/>
<line x1="624.0" y1="246.4" x2="607.7" y2="209.9" opacity="1.0" stroke="rgb(0,0,0)"  stroke-width="3"/>
<line x1="614.9" y1="243.8" x2="603.6" y2="218.3" opacity="1.0" stroke="rgb(0,0,0)"  stroke-width="3"/>
<line x1="607.7" y1="209.9" x2="568.0" y2="205.7" opacity="1.0" stroke="rgb(0,0,0)"  stroke-width="3"/>
<line x1="544.5" y1="238.0" x2="560.7" y2="274.6" opacity="1.0" stroke="rgb(0,0,0)"  stroke-width="3"/>
<line x1="560.7" y1="274.6" x2="600.5" y2="278.7" opacity="1.0" stroke="rgb(0,0,0)"  stroke-width="3"/>
<line x1="567.4" y1="268.0" x2="595.3" y2="270.9" opacity="1.0" stroke="rgb(0,0,0)"  stroke-width="3"/>
<line x1="600.5" y1="278.7" x2="624.0" y2="246.4" opacity="1.0" stroke="rgb(0,0,0)"  stroke-width="3"/>
<line x1="182.7" y1="334.5" x2="199.0" y2="298.0" opacity="1.0" stroke="rgb(0,0,0)"  stroke-width="3"/>
<line x1="178.6" y1="326.1" x2="189.9" y2="300.5" opacity="1.0" stroke="rgb(0,0,0)"  stroke-width="3"/>
<line x1="175.5" y1="265.7" x2="135.7" y2="269.8" opacity="1.0" stroke="rgb(0,0,0)"  stroke-width="3"/>
<line x1="170.3" y1="273.5" x2="142.5" y2="276.4" opacity="1.0" stroke="rgb(0,0,0)"  stroke-width="3"/>
<line x1="135.7" y1="269.8" x2="119.5" y2="306.3" opacity="1.0" stroke="rgb(0,0,0)"  stroke-width="3"/>
<line x1="119.5" y1="306.3" x2="143.0" y2="338.7" opacity="1.0" stroke="rgb(0,0,0)"  stroke-width="3"/>
<line x1="128.8" y1="307.0" x2="145.3" y2="329.6" opacity="1.0" stroke="rgb(0,0,0)"  stroke-width="3"/>
<line x1="143.0" y1="338.7" x2="182.7" y2="334.5" opacity="1.0" stroke="rgb(0,0,0)"  stroke-width="3"/>
<line x1="385.2" y1="63.5" x2="389.4" y2="103.2" opacity="1.0" stroke="rgb(0,0,0)"  stroke-width="3"/>
<line x1="393.0" y1="68.7" x2="395.9" y2="96.5" opacity="1.0" stroke="rgb(0,0,0)"  stroke-width="3"/>
<line x1="389.4" y1="103.2" x2="425.9" y2="119.5" opacity="1.0" stroke="rgb(0,0,0)"  stroke-width="3"/>
<line x1="458.2" y1="96.0" x2="454.1" y2="56.3" opacity="1.0" stroke="rgb(0,0,0)"  stroke-width="3"/>
<line x1="454.1" y1="56.3" x2="417.5" y2="40.0" opacity="1.0" stroke="rgb(0,0,0)"  stroke-width="3"/>
<line x1="445.6" y1="60.4" x2="420.1" y2="49.0" opacity="1.0" stroke="rgb(0,0,0)"  stroke-width="3"/>
<line x1="417.5" y1="40.0" x2="385.2" y2="63.5" opacity="1.0" stroke="rgb(0,0,0)"  stroke-width="3"/>
<line x1="506.5" y1="185.7" x2="478.2" y2="157.5" opacity="1.0" stroke="rgb(0,0,0)"  stroke-width="3"/>
<line x1="490.6" y1="119.5" x2="528.6" y2="107.1" opacity="1.0" stroke="rgb(0,0,0)"  stroke-width="3"/>
<line x1="528.6" y1="107.1" x2="556.8" y2="135.4" opacity="1.0" stroke="rgb(0,0,0)"  stroke-width="3"/>
<line x1="527.7" y1="116.5" x2="547.5" y2="136.2" opacity="1.0" stroke="rgb(0,0,0)"  stroke-width="3"/>
<line x1="556.8" y1="135.4" x2="544.5" y2="173.4" opacity="1.0" stroke="rgb(0,0,0)"  stroke-width="3"/>
<line x1="497.3" y1="234.9" x2="478.2" y2="254.0" opacity="1.0" stroke="rgb(0,0,0)"  stroke-width="3"/>
<line x1="410.0" y1="185.7" x2="429.1" y2="166.7" opacity="1.0" stroke="rgb(0,0,0)"  stroke-width="3"/>
<text x="300.178951" y="253.681775" fill="rgb(255,181,181)" stroke-width="0" font-weight="bold" font-size="25.92" >B</text>
<text x="432.252417" y="165.485428" fill="rgb(12,12,255)" stroke-width="0" font-weight="bold" font-size="25.92" >N</text>
<text x="500.468417" y="233.700408" fill="rgb(12,12,255)" stroke-width="0" font-weight="bold" font-size="25.92" >N</text>
<text x="230.966991" y="293.641982" fill="rgb(12,12,255)" stroke-width="0" font-weight="bold" font-size="25.92" >N</text>
<text x="369.391446" y="293.640962" fill="rgb(12,12,255)" stroke-width="0" font-weight="bold" font-size="25.92" >N</text>
</svg>
</g>
</svg>
