<?xml version="1.0"?>
<svg version="1.1" id="topsvg"
xmlns="http://www.w3.org/2000/svg" xmlns:xlink="http://www.w3.org/1999/xlink"
xmlns:cml="http://www.xml-cml.org/schema" x="0" y="0" width="200px" height="200px" viewBox="0 0 100 100">
<title>GD394.sdf - Open Babel Depiction</title>
<rect x="0" y="0" width="100" height="100" fill="white"/>
<g transform="translate(0,0)">
<svg width="100" height="100" x="0" y="0" viewBox="0 0 610.452 528.64"
font-family="sans-serif" stroke="rgb(0,0,0)" stroke-width="3"  stroke-linecap="round">
<line x1="332.0" y1="345.1" x2="332.0" y2="370.2" opacity="1.0" stroke="rgb(0,0,0)"  stroke-width="3"/>
<line x1="431.0" y1="173.7" x2="452.7" y2="161.2" opacity="1.0" stroke="rgb(0,0,0)"  stroke-width="3"/>
<line x1="464.0" y1="141.7" x2="464.0" y2="116.6" opacity="1.0" stroke="rgb(0,0,0)"  stroke-width="3"/>
<line x1="475.2" y1="161.2" x2="496.9" y2="173.7" opacity="1.0" stroke="rgb(0,0,0)"  stroke-width="3"/>
<line x1="510.0" y1="288.7" x2="548.0" y2="292.7" opacity="1.0" stroke="rgb(0,0,0)"  stroke-width="3"/>
<line x1="548.0" y1="292.7" x2="563.5" y2="327.6" opacity="1.0" stroke="rgb(0,0,0)"  stroke-width="3"/>
<line x1="548.0" y1="292.7" x2="570.5" y2="261.7" opacity="1.0" stroke="rgb(0,0,0)"  stroke-width="3"/>
<line x1="548.0" y1="292.7" x2="532.4" y2="257.8" opacity="1.0" stroke="rgb(0,0,0)"  stroke-width="3"/>
<line x1="154.0" y1="288.7" x2="116.0" y2="292.7" opacity="1.0" stroke="rgb(0,0,0)"  stroke-width="3"/>
<line x1="266.0" y1="154.7" x2="266.0" y2="116.4" opacity="1.0" stroke="rgb(0,0,0)"  stroke-width="3"/>
<line x1="456.6" y1="249.9" x2="431.0" y2="211.8" opacity="1.0" stroke="rgb(0,0,0)"  stroke-width="3"/>
<line x1="431.0" y1="211.8" x2="398.0" y2="230.9" opacity="1.0" stroke="rgb(0,0,0)"  stroke-width="3"/>
<line x1="429.4" y1="221.0" x2="406.8" y2="234.1" opacity="1.0" stroke="rgb(0,0,0)"  stroke-width="3"/>
<line x1="398.0" y1="230.9" x2="398.0" y2="255.9" opacity="1.0" stroke="rgb(0,0,0)"  stroke-width="3"/>
<line x1="410.3" y1="273.0" x2="434.2" y2="280.7" opacity="1.0" stroke="rgb(0,0,0)"  stroke-width="3"/>
<line x1="434.2" y1="280.7" x2="456.6" y2="249.9" opacity="1.0" stroke="rgb(0,0,0)"  stroke-width="3"/>
<line x1="431.9" y1="271.6" x2="447.2" y2="250.5" opacity="1.0" stroke="rgb(0,0,0)"  stroke-width="3"/>
<line x1="207.4" y1="249.9" x2="229.8" y2="280.7" opacity="1.0" stroke="rgb(0,0,0)"  stroke-width="3"/>
<line x1="216.8" y1="250.5" x2="232.1" y2="271.6" opacity="1.0" stroke="rgb(0,0,0)"  stroke-width="3"/>
<line x1="229.8" y1="280.7" x2="253.7" y2="273.0" opacity="1.0" stroke="rgb(0,0,0)"  stroke-width="3"/>
<line x1="266.0" y1="255.9" x2="266.0" y2="230.9" opacity="1.0" stroke="rgb(0,0,0)"  stroke-width="3"/>
<line x1="266.0" y1="230.9" x2="233.0" y2="211.8" opacity="1.0" stroke="rgb(0,0,0)"  stroke-width="3"/>
<line x1="257.2" y1="234.1" x2="234.6" y2="221.0" opacity="1.0" stroke="rgb(0,0,0)"  stroke-width="3"/>
<line x1="233.0" y1="211.8" x2="207.4" y2="249.9" opacity="1.0" stroke="rgb(0,0,0)"  stroke-width="3"/>
<line x1="365.0" y1="326.1" x2="332.0" y2="345.1" opacity="1.0" stroke="rgb(0,0,0)"  stroke-width="3"/>
<line x1="332.0" y1="345.1" x2="299.0" y2="326.1" opacity="1.0" stroke="rgb(0,0,0)"  stroke-width="3"/>
<line x1="330.4" y1="335.9" x2="307.8" y2="322.8" opacity="1.0" stroke="rgb(0,0,0)"  stroke-width="3"/>
<line x1="299.0" y1="326.1" x2="299.0" y2="288.0" opacity="1.0" stroke="rgb(0,0,0)"  stroke-width="3"/>
<line x1="299.0" y1="288.0" x2="332.0" y2="268.9" opacity="1.0" stroke="rgb(0,0,0)"  stroke-width="3"/>
<line x1="307.8" y1="291.2" x2="330.4" y2="278.2" opacity="1.0" stroke="rgb(0,0,0)"  stroke-width="3"/>
<line x1="332.0" y1="268.9" x2="365.0" y2="288.0" opacity="1.0" stroke="rgb(0,0,0)"  stroke-width="3"/>
<line x1="365.0" y1="288.0" x2="365.0" y2="326.1" opacity="1.0" stroke="rgb(0,0,0)"  stroke-width="3"/>
<line x1="357.8" y1="294.0" x2="357.8" y2="320.1" opacity="1.0" stroke="rgb(0,0,0)"  stroke-width="3"/>
<line x1="398.0" y1="230.9" x2="365.0" y2="211.8" opacity="1.0" stroke="rgb(0,0,0)"  stroke-width="3"/>
<line x1="365.0" y1="211.8" x2="343.3" y2="224.4" opacity="1.0" stroke="rgb(0,0,0)"  stroke-width="3"/>
<line x1="332.0" y1="243.9" x2="332.0" y2="268.9" opacity="1.0" stroke="rgb(0,0,0)"  stroke-width="3"/>
<line x1="365.0" y1="288.0" x2="386.7" y2="275.4" opacity="1.0" stroke="rgb(0,0,0)"  stroke-width="3"/>
<line x1="510.0" y1="288.7" x2="494.5" y2="253.9" opacity="1.0" stroke="rgb(0,0,0)"  stroke-width="3"/>
<line x1="501.0" y1="286.1" x2="490.3" y2="262.3" opacity="1.0" stroke="rgb(0,0,0)"  stroke-width="3"/>
<line x1="494.5" y1="253.9" x2="456.6" y2="249.9" opacity="1.0" stroke="rgb(0,0,0)"  stroke-width="3"/>
<line x1="434.2" y1="280.7" x2="449.7" y2="315.5" opacity="1.0" stroke="rgb(0,0,0)"  stroke-width="3"/>
<line x1="449.7" y1="315.5" x2="487.6" y2="319.5" opacity="1.0" stroke="rgb(0,0,0)"  stroke-width="3"/>
<line x1="456.4" y1="309.0" x2="482.4" y2="311.7" opacity="1.0" stroke="rgb(0,0,0)"  stroke-width="3"/>
<line x1="487.6" y1="319.5" x2="510.0" y2="288.7" opacity="1.0" stroke="rgb(0,0,0)"  stroke-width="3"/>
<line x1="154.0" y1="288.7" x2="169.5" y2="253.9" opacity="1.0" stroke="rgb(0,0,0)"  stroke-width="3"/>
<line x1="163.1" y1="286.1" x2="173.7" y2="262.3" opacity="1.0" stroke="rgb(0,0,0)"  stroke-width="3"/>
<line x1="169.5" y1="253.9" x2="207.4" y2="249.9" opacity="1.0" stroke="rgb(0,0,0)"  stroke-width="3"/>
<line x1="229.8" y1="280.7" x2="214.3" y2="315.5" opacity="1.0" stroke="rgb(0,0,0)"  stroke-width="3"/>
<line x1="214.3" y1="315.5" x2="176.4" y2="319.5" opacity="1.0" stroke="rgb(0,0,0)"  stroke-width="3"/>
<line x1="207.6" y1="309.0" x2="181.6" y2="311.7" opacity="1.0" stroke="rgb(0,0,0)"  stroke-width="3"/>
<line x1="176.4" y1="319.5" x2="154.0" y2="288.7" opacity="1.0" stroke="rgb(0,0,0)"  stroke-width="3"/>
<line x1="277.3" y1="275.4" x2="299.0" y2="288.0" opacity="1.0" stroke="rgb(0,0,0)"  stroke-width="3"/>
<line x1="320.7" y1="224.4" x2="299.0" y2="211.8" opacity="1.0" stroke="rgb(0,0,0)"  stroke-width="3"/>
<line x1="299.0" y1="211.8" x2="266.0" y2="230.9" opacity="1.0" stroke="rgb(0,0,0)"  stroke-width="3"/>
<line x1="266.0" y1="154.7" x2="299.0" y2="173.7" opacity="1.0" stroke="rgb(0,0,0)"  stroke-width="3"/>
<line x1="299.0" y1="173.7" x2="299.0" y2="211.8" opacity="1.0" stroke="rgb(0,0,0)"  stroke-width="3"/>
<line x1="291.8" y1="179.7" x2="291.8" y2="205.8" opacity="1.0" stroke="rgb(0,0,0)"  stroke-width="3"/>
<line x1="233.0" y1="211.8" x2="233.0" y2="173.7" opacity="1.0" stroke="rgb(0,0,0)"  stroke-width="3"/>
<line x1="233.0" y1="173.7" x2="266.0" y2="154.7" opacity="1.0" stroke="rgb(0,0,0)"  stroke-width="3"/>
<line x1="241.8" y1="177.0" x2="264.4" y2="163.9" opacity="1.0" stroke="rgb(0,0,0)"  stroke-width="3"/>
<line x1="431.0" y1="211.8" x2="431.0" y2="173.7" opacity="1.0" stroke="rgb(0,0,0)"  stroke-width="3"/>
<line x1="431.0" y1="173.7" x2="398.0" y2="154.7" opacity="1.0" stroke="rgb(0,0,0)"  stroke-width="3"/>
<line x1="422.2" y1="177.0" x2="399.6" y2="163.9" opacity="1.0" stroke="rgb(0,0,0)"  stroke-width="3"/>
<line x1="398.0" y1="154.7" x2="365.0" y2="173.7" opacity="1.0" stroke="rgb(0,0,0)"  stroke-width="3"/>
<line x1="365.0" y1="173.7" x2="365.0" y2="211.8" opacity="1.0" stroke="rgb(0,0,0)"  stroke-width="3"/>
<line x1="372.2" y1="179.7" x2="372.2" y2="205.8" opacity="1.0" stroke="rgb(0,0,0)"  stroke-width="3"/>
<line x1="371.7" y1="488.6" x2="409.7" y2="486.5" opacity="1.0" stroke="rgb(0,0,0)"  stroke-width="3"/>
<line x1="377.3" y1="481.1" x2="403.3" y2="479.7" opacity="1.0" stroke="rgb(0,0,0)"  stroke-width="3"/>
<line x1="409.7" y1="486.5" x2="426.9" y2="452.5" opacity="1.0" stroke="rgb(0,0,0)"  stroke-width="3"/>
<line x1="426.9" y1="452.5" x2="406.1" y2="420.7" opacity="1.0" stroke="rgb(0,0,0)"  stroke-width="3"/>
<line x1="417.6" y1="451.5" x2="403.3" y2="429.6" opacity="1.0" stroke="rgb(0,0,0)"  stroke-width="3"/>
<line x1="406.1" y1="420.7" x2="368.0" y2="422.8" opacity="1.0" stroke="rgb(0,0,0)"  stroke-width="3"/>
<line x1="368.0" y1="422.8" x2="350.9" y2="456.8" opacity="1.0" stroke="rgb(0,0,0)"  stroke-width="3"/>
<line x1="371.8" y1="431.4" x2="360.0" y2="454.7" opacity="1.0" stroke="rgb(0,0,0)"  stroke-width="3"/>
<line x1="350.9" y1="456.8" x2="371.7" y2="488.6" opacity="1.0" stroke="rgb(0,0,0)"  stroke-width="3"/>
<line x1="531.4" y1="407.8" x2="499.4" y2="387.1" opacity="1.0" stroke="rgb(0,0,0)"  stroke-width="3"/>
<line x1="522.5" y1="410.6" x2="500.6" y2="396.4" opacity="1.0" stroke="rgb(0,0,0)"  stroke-width="3"/>
<line x1="499.4" y1="387.1" x2="465.6" y2="404.5" opacity="1.0" stroke="rgb(0,0,0)"  stroke-width="3"/>
<line x1="465.6" y1="404.5" x2="463.7" y2="442.6" opacity="1.0" stroke="rgb(0,0,0)"  stroke-width="3"/>
<line x1="472.4" y1="410.9" x2="471.2" y2="436.9" opacity="1.0" stroke="rgb(0,0,0)"  stroke-width="3"/>
<line x1="463.7" y1="442.6" x2="495.7" y2="463.2" opacity="1.0" stroke="rgb(0,0,0)"  stroke-width="3"/>
<line x1="495.7" y1="463.2" x2="529.6" y2="445.8" opacity="1.0" stroke="rgb(0,0,0)"  stroke-width="3"/>
<line x1="497.7" y1="454.1" x2="520.9" y2="442.1" opacity="1.0" stroke="rgb(0,0,0)"  stroke-width="3"/>
<line x1="529.6" y1="445.8" x2="531.4" y2="407.8" opacity="1.0" stroke="rgb(0,0,0)"  stroke-width="3"/>
<line x1="325.4" y1="453.6" x2="305.6" y2="421.1" opacity="1.0" stroke="rgb(0,0,0)"  stroke-width="3"/>
<line x1="316.1" y1="452.2" x2="302.5" y2="430.0" opacity="1.0" stroke="rgb(0,0,0)"  stroke-width="3"/>
<line x1="305.6" y1="421.1" x2="267.5" y2="422.0" opacity="1.0" stroke="rgb(0,0,0)"  stroke-width="3"/>
<line x1="267.5" y1="422.0" x2="249.2" y2="455.4" opacity="1.0" stroke="rgb(0,0,0)"  stroke-width="3"/>
<line x1="270.9" y1="430.7" x2="258.4" y2="453.6" opacity="1.0" stroke="rgb(0,0,0)"  stroke-width="3"/>
<line x1="249.2" y1="455.4" x2="269.1" y2="487.9" opacity="1.0" stroke="rgb(0,0,0)"  stroke-width="3"/>
<line x1="269.1" y1="487.9" x2="307.1" y2="487.0" opacity="1.0" stroke="rgb(0,0,0)"  stroke-width="3"/>
<line x1="274.9" y1="480.6" x2="301.0" y2="480.0" opacity="1.0" stroke="rgb(0,0,0)"  stroke-width="3"/>
<line x1="307.1" y1="487.0" x2="325.4" y2="453.6" opacity="1.0" stroke="rgb(0,0,0)"  stroke-width="3"/>
<line x1="146.4" y1="456.8" x2="181.5" y2="471.5" opacity="1.0" stroke="rgb(0,0,0)"  stroke-width="3"/>
<line x1="154.7" y1="452.5" x2="178.8" y2="462.5" opacity="1.0" stroke="rgb(0,0,0)"  stroke-width="3"/>
<line x1="181.5" y1="471.5" x2="211.8" y2="448.4" opacity="1.0" stroke="rgb(0,0,0)"  stroke-width="3"/>
<line x1="211.8" y1="448.4" x2="206.9" y2="410.6" opacity="1.0" stroke="rgb(0,0,0)"  stroke-width="3"/>
<line x1="203.9" y1="443.4" x2="200.5" y2="417.5" opacity="1.0" stroke="rgb(0,0,0)"  stroke-width="3"/>
<line x1="206.9" y1="410.6" x2="171.8" y2="396.0" opacity="1.0" stroke="rgb(0,0,0)"  stroke-width="3"/>
<line x1="171.8" y1="396.0" x2="141.5" y2="419.1" opacity="1.0" stroke="rgb(0,0,0)"  stroke-width="3"/>
<line x1="171.4" y1="405.3" x2="150.6" y2="421.1" opacity="1.0" stroke="rgb(0,0,0)"  stroke-width="3"/>
<line x1="141.5" y1="419.1" x2="146.4" y2="456.8" opacity="1.0" stroke="rgb(0,0,0)"  stroke-width="3"/>
<line x1="431.0" y1="97.5" x2="464.0" y2="116.6" opacity="1.0" stroke="rgb(0,0,0)"  stroke-width="3"/>
<line x1="439.8" y1="94.3" x2="462.4" y2="107.3" opacity="1.0" stroke="rgb(0,0,0)"  stroke-width="3"/>
<line x1="464.0" y1="116.6" x2="496.9" y2="97.5" opacity="1.0" stroke="rgb(0,0,0)"  stroke-width="3"/>
<line x1="496.9" y1="97.5" x2="496.9" y2="59.4" opacity="1.0" stroke="rgb(0,0,0)"  stroke-width="3"/>
<line x1="489.7" y1="91.5" x2="489.7" y2="65.4" opacity="1.0" stroke="rgb(0,0,0)"  stroke-width="3"/>
<line x1="496.9" y1="59.4" x2="464.0" y2="40.4" opacity="1.0" stroke="rgb(0,0,0)"  stroke-width="3"/>
<line x1="464.0" y1="40.4" x2="431.0" y2="59.4" opacity="1.0" stroke="rgb(0,0,0)"  stroke-width="3"/>
<line x1="462.4" y1="49.6" x2="439.8" y2="62.7" opacity="1.0" stroke="rgb(0,0,0)"  stroke-width="3"/>
<line x1="431.0" y1="59.4" x2="431.0" y2="97.5" opacity="1.0" stroke="rgb(0,0,0)"  stroke-width="3"/>
<line x1="496.9" y1="211.8" x2="529.9" y2="230.9" opacity="1.0" stroke="rgb(0,0,0)"  stroke-width="3"/>
<line x1="529.9" y1="230.9" x2="562.9" y2="211.8" opacity="1.0" stroke="rgb(0,0,0)"  stroke-width="3"/>
<line x1="531.5" y1="221.6" x2="554.1" y2="208.6" opacity="1.0" stroke="rgb(0,0,0)"  stroke-width="3"/>
<line x1="562.9" y1="211.8" x2="562.9" y2="173.7" opacity="1.0" stroke="rgb(0,0,0)"  stroke-width="3"/>
<line x1="562.9" y1="173.7" x2="529.9" y2="154.7" opacity="1.0" stroke="rgb(0,0,0)"  stroke-width="3"/>
<line x1="554.1" y1="177.0" x2="531.5" y2="163.9" opacity="1.0" stroke="rgb(0,0,0)"  stroke-width="3"/>
<line x1="529.9" y1="154.7" x2="496.9" y2="173.7" opacity="1.0" stroke="rgb(0,0,0)"  stroke-width="3"/>
<line x1="496.9" y1="173.7" x2="496.9" y2="211.8" opacity="1.0" stroke="rgb(0,0,0)"  stroke-width="3"/>
<line x1="504.1" y1="179.7" x2="504.1" y2="205.8" opacity="1.0" stroke="rgb(0,0,0)"  stroke-width="3"/>
<line x1="93.6" y1="261.7" x2="55.5" y2="265.7" opacity="1.0" stroke="rgb(0,0,0)"  stroke-width="3"/>
<line x1="55.5" y1="265.7" x2="40.0" y2="300.7" opacity="1.0" stroke="rgb(0,0,0)"  stroke-width="3"/>
<line x1="59.7" y1="274.2" x2="49.0" y2="298.1" opacity="1.0" stroke="rgb(0,0,0)"  stroke-width="3"/>
<line x1="40.0" y1="300.7" x2="62.5" y2="331.6" opacity="1.0" stroke="rgb(0,0,0)"  stroke-width="3"/>
<line x1="62.5" y1="331.6" x2="100.5" y2="327.6" opacity="1.0" stroke="rgb(0,0,0)"  stroke-width="3"/>
<line x1="67.7" y1="323.8" x2="93.8" y2="321.1" opacity="1.0" stroke="rgb(0,0,0)"  stroke-width="3"/>
<line x1="100.5" y1="327.6" x2="116.0" y2="292.7" opacity="1.0" stroke="rgb(0,0,0)"  stroke-width="3"/>
<line x1="116.0" y1="292.7" x2="93.6" y2="261.7" opacity="1.0" stroke="rgb(0,0,0)"  stroke-width="3"/>
<line x1="106.7" y1="292.0" x2="91.3" y2="270.8" opacity="1.0" stroke="rgb(0,0,0)"  stroke-width="3"/>
<line x1="299.1" y1="97.3" x2="299.1" y2="59.1" opacity="1.0" stroke="rgb(0,0,0)"  stroke-width="3"/>
<line x1="299.1" y1="59.1" x2="266.0" y2="40.0" opacity="1.0" stroke="rgb(0,0,0)"  stroke-width="3"/>
<line x1="290.3" y1="62.3" x2="267.6" y2="49.2" opacity="1.0" stroke="rgb(0,0,0)"  stroke-width="3"/>
<line x1="266.0" y1="40.0" x2="232.9" y2="59.1" opacity="1.0" stroke="rgb(0,0,0)"  stroke-width="3"/>
<line x1="232.9" y1="59.1" x2="232.9" y2="97.3" opacity="1.0" stroke="rgb(0,0,0)"  stroke-width="3"/>
<line x1="240.1" y1="65.1" x2="240.1" y2="91.3" opacity="1.0" stroke="rgb(0,0,0)"  stroke-width="3"/>
<line x1="232.9" y1="97.3" x2="266.0" y2="116.4" opacity="1.0" stroke="rgb(0,0,0)"  stroke-width="3"/>
<line x1="266.0" y1="116.4" x2="299.1" y2="97.3" opacity="1.0" stroke="rgb(0,0,0)"  stroke-width="3"/>
<line x1="267.6" y1="107.2" x2="290.3" y2="94.1" opacity="1.0" stroke="rgb(0,0,0)"  stroke-width="3"/>
<line x1="426.9" y1="452.5" x2="463.7" y2="442.6" opacity="1.0" stroke="rgb(0,0,0)"  stroke-width="3"/>
<line x1="465.6" y1="404.5" x2="429.9" y2="391.0" opacity="1.0" stroke="rgb(0,0,0)"  stroke-width="3"/>
<line x1="429.9" y1="391.0" x2="406.1" y2="420.7" opacity="1.0" stroke="rgb(0,0,0)"  stroke-width="3"/>
<line x1="211.8" y1="448.4" x2="249.2" y2="455.4" opacity="1.0" stroke="rgb(0,0,0)"  stroke-width="3"/>
<line x1="267.5" y1="422.0" x2="241.3" y2="394.3" opacity="1.0" stroke="rgb(0,0,0)"  stroke-width="3"/>
<line x1="241.3" y1="394.3" x2="206.9" y2="410.6" opacity="1.0" stroke="rgb(0,0,0)"  stroke-width="3"/>
<line x1="299.0" y1="326.1" x2="241.3" y2="394.3" opacity="1.0" stroke="rgb(0,0,0)"  stroke-width="3"/>
<line x1="241.3" y1="394.3" x2="214.3" y2="315.5" opacity="1.0" stroke="rgb(0,0,0)"  stroke-width="3"/>
<line x1="449.7" y1="315.5" x2="429.9" y2="391.0" opacity="1.0" stroke="rgb(0,0,0)"  stroke-width="3"/>
<line x1="429.9" y1="391.0" x2="365.0" y2="326.1" opacity="1.0" stroke="rgb(0,0,0)"  stroke-width="3"/>
<text x="457.956185" y="162.669843" fill="rgb(12,12,255)" stroke-width="0" font-weight="bold" font-size="25.92" >N</text>
<text x="326.006917" y="391.213882" fill="rgb(127,178,255)" stroke-width="0" font-weight="bold" font-size="25.92" >F</text>
<text x="326.006593" y="238.850973" fill="rgb(255,181,181)" stroke-width="0" font-weight="bold" font-size="25.92" >B</text>
<text x="260.031773" y="276.941608" fill="rgb(12,12,255)" stroke-width="0" font-weight="bold" font-size="25.92" >N</text>
<text x="391.981365" y="276.941608" fill="rgb(12,12,255)" stroke-width="0" font-weight="bold" font-size="25.92" >N</text>
</svg>
</g>
</svg>
