<?xml version="1.0"?>
<svg version="1.1" id="topsvg"
xmlns="http://www.w3.org/2000/svg" xmlns:xlink="http://www.w3.org/1999/xlink"
xmlns:cml="http://www.xml-cml.org/schema" x="0" y="0" width="200px" height="200px" viewBox="0 0 100 100">
<title>GD395.sdf - Open Babel Depiction</title>
<rect x="0" y="0" width="100" height="100" fill="white"/>
<g transform="translate(0,0)">
<svg width="100" height="100" x="0" y="0" viewBox="0 0 578.373 529.23"
font-family="sans-serif" stroke="rgb(0,0,0)" stroke-width="3"  stroke-linecap="round">
<line x1="403.4" y1="175.1" x2="425.2" y2="162.1" opacity="1.0" stroke="rgb(0,0,0)"  stroke-width="3"/>
<line x1="447.8" y1="161.7" x2="470.2" y2="173.8" opacity="1.0" stroke="rgb(0,0,0)"  stroke-width="3"/>
<line x1="436.4" y1="117.0" x2="436.4" y2="142.5" opacity="1.0" stroke="rgb(0,0,0)"  stroke-width="3"/>
<line x1="306.1" y1="349.0" x2="306.4" y2="374.5" opacity="1.0" stroke="rgb(0,0,0)"  stroke-width="3"/>
<line x1="139.7" y1="332.1" x2="106.6" y2="351.7" opacity="1.0" stroke="rgb(0,0,0)"  stroke-width="3"/>
<line x1="237.1" y1="158.1" x2="236.6" y2="119.6" opacity="1.0" stroke="rgb(0,0,0)"  stroke-width="3"/>
<line x1="172.2" y1="274.1" x2="204.6" y2="216.1" opacity="1.0" stroke="rgb(0,0,0)"  stroke-width="3"/>
<line x1="204.6" y1="216.1" x2="238.1" y2="234.8" opacity="1.0" stroke="rgb(0,0,0)"  stroke-width="3"/>
<line x1="206.3" y1="225.3" x2="229.3" y2="238.2" opacity="1.0" stroke="rgb(0,0,0)"  stroke-width="3"/>
<line x1="238.1" y1="234.8" x2="238.4" y2="260.2" opacity="1.0" stroke="rgb(0,0,0)"  stroke-width="3"/>
<line x1="227.4" y1="279.8" x2="205.6" y2="292.8" opacity="1.0" stroke="rgb(0,0,0)"  stroke-width="3"/>
<line x1="205.6" y1="292.8" x2="172.2" y2="274.1" opacity="1.0" stroke="rgb(0,0,0)"  stroke-width="3"/>
<line x1="203.9" y1="283.6" x2="180.9" y2="270.7" opacity="1.0" stroke="rgb(0,0,0)"  stroke-width="3"/>
<line x1="437.9" y1="270.5" x2="404.9" y2="290.1" opacity="1.0" stroke="rgb(0,0,0)"  stroke-width="3"/>
<line x1="429.1" y1="267.4" x2="406.4" y2="280.9" opacity="1.0" stroke="rgb(0,0,0)"  stroke-width="3"/>
<line x1="404.9" y1="290.1" x2="382.8" y2="277.8" opacity="1.0" stroke="rgb(0,0,0)"  stroke-width="3"/>
<line x1="371.3" y1="258.4" x2="371.0" y2="233.1" opacity="1.0" stroke="rgb(0,0,0)"  stroke-width="3"/>
<line x1="371.0" y1="233.1" x2="403.9" y2="213.4" opacity="1.0" stroke="rgb(0,0,0)"  stroke-width="3"/>
<line x1="379.8" y1="236.2" x2="402.4" y2="222.7" opacity="1.0" stroke="rgb(0,0,0)"  stroke-width="3"/>
<line x1="403.9" y1="213.4" x2="437.9" y2="270.5" opacity="1.0" stroke="rgb(0,0,0)"  stroke-width="3"/>
<line x1="272.6" y1="330.3" x2="306.1" y2="349.0" opacity="1.0" stroke="rgb(0,0,0)"  stroke-width="3"/>
<line x1="306.1" y1="349.0" x2="339.0" y2="329.4" opacity="1.0" stroke="rgb(0,0,0)"  stroke-width="3"/>
<line x1="307.5" y1="339.8" x2="330.2" y2="326.3" opacity="1.0" stroke="rgb(0,0,0)"  stroke-width="3"/>
<line x1="339.0" y1="329.4" x2="338.5" y2="291.0" opacity="1.0" stroke="rgb(0,0,0)"  stroke-width="3"/>
<line x1="338.5" y1="291.0" x2="305.0" y2="272.3" opacity="1.0" stroke="rgb(0,0,0)"  stroke-width="3"/>
<line x1="329.8" y1="294.4" x2="306.8" y2="281.5" opacity="1.0" stroke="rgb(0,0,0)"  stroke-width="3"/>
<line x1="305.0" y1="272.3" x2="272.1" y2="291.9" opacity="1.0" stroke="rgb(0,0,0)"  stroke-width="3"/>
<line x1="272.1" y1="291.9" x2="272.6" y2="330.3" opacity="1.0" stroke="rgb(0,0,0)"  stroke-width="3"/>
<line x1="279.4" y1="297.8" x2="279.7" y2="324.2" opacity="1.0" stroke="rgb(0,0,0)"  stroke-width="3"/>
<line x1="238.1" y1="234.8" x2="271.1" y2="215.2" opacity="1.0" stroke="rgb(0,0,0)"  stroke-width="3"/>
<line x1="271.1" y1="215.2" x2="293.2" y2="227.6" opacity="1.0" stroke="rgb(0,0,0)"  stroke-width="3"/>
<line x1="304.7" y1="246.9" x2="305.0" y2="272.3" opacity="1.0" stroke="rgb(0,0,0)"  stroke-width="3"/>
<line x1="272.1" y1="291.9" x2="249.9" y2="279.5" opacity="1.0" stroke="rgb(0,0,0)"  stroke-width="3"/>
<line x1="139.7" y1="332.1" x2="173.2" y2="350.8" opacity="1.0" stroke="rgb(0,0,0)"  stroke-width="3"/>
<line x1="173.2" y1="350.8" x2="206.2" y2="331.2" opacity="1.0" stroke="rgb(0,0,0)"  stroke-width="3"/>
<line x1="174.7" y1="341.5" x2="197.3" y2="328.0" opacity="1.0" stroke="rgb(0,0,0)"  stroke-width="3"/>
<line x1="206.2" y1="331.2" x2="205.6" y2="292.8" opacity="1.0" stroke="rgb(0,0,0)"  stroke-width="3"/>
<line x1="172.2" y1="274.1" x2="139.2" y2="293.7" opacity="1.0" stroke="rgb(0,0,0)"  stroke-width="3"/>
<line x1="139.2" y1="293.7" x2="139.7" y2="332.1" opacity="1.0" stroke="rgb(0,0,0)"  stroke-width="3"/>
<line x1="146.5" y1="299.6" x2="146.8" y2="326.0" opacity="1.0" stroke="rgb(0,0,0)"  stroke-width="3"/>
<line x1="360.3" y1="278.1" x2="338.5" y2="291.0" opacity="1.0" stroke="rgb(0,0,0)"  stroke-width="3"/>
<line x1="315.7" y1="227.3" x2="337.5" y2="214.3" opacity="1.0" stroke="rgb(0,0,0)"  stroke-width="3"/>
<line x1="337.5" y1="214.3" x2="371.0" y2="233.1" opacity="1.0" stroke="rgb(0,0,0)"  stroke-width="3"/>
<line x1="471.9" y1="327.6" x2="438.9" y2="347.2" opacity="1.0" stroke="rgb(0,0,0)"  stroke-width="3"/>
<line x1="438.9" y1="347.2" x2="405.5" y2="328.5" opacity="1.0" stroke="rgb(0,0,0)"  stroke-width="3"/>
<line x1="437.2" y1="338.0" x2="414.2" y2="325.2" opacity="1.0" stroke="rgb(0,0,0)"  stroke-width="3"/>
<line x1="405.5" y1="328.5" x2="404.9" y2="290.1" opacity="1.0" stroke="rgb(0,0,0)"  stroke-width="3"/>
<line x1="437.9" y1="270.5" x2="471.4" y2="289.3" opacity="1.0" stroke="rgb(0,0,0)"  stroke-width="3"/>
<line x1="471.4" y1="289.3" x2="471.9" y2="327.6" opacity="1.0" stroke="rgb(0,0,0)"  stroke-width="3"/>
<line x1="464.3" y1="295.4" x2="464.6" y2="321.7" opacity="1.0" stroke="rgb(0,0,0)"  stroke-width="3"/>
<line x1="369.9" y1="156.3" x2="337.0" y2="176.0" opacity="1.0" stroke="rgb(0,0,0)"  stroke-width="3"/>
<line x1="337.0" y1="176.0" x2="337.5" y2="214.3" opacity="1.0" stroke="rgb(0,0,0)"  stroke-width="3"/>
<line x1="344.3" y1="181.9" x2="344.6" y2="208.2" opacity="1.0" stroke="rgb(0,0,0)"  stroke-width="3"/>
<line x1="403.9" y1="213.4" x2="403.4" y2="175.1" opacity="1.0" stroke="rgb(0,0,0)"  stroke-width="3"/>
<line x1="403.4" y1="175.1" x2="369.9" y2="156.3" opacity="1.0" stroke="rgb(0,0,0)"  stroke-width="3"/>
<line x1="394.7" y1="178.4" x2="371.7" y2="165.6" opacity="1.0" stroke="rgb(0,0,0)"  stroke-width="3"/>
<line x1="204.6" y1="216.1" x2="204.1" y2="177.7" opacity="1.0" stroke="rgb(0,0,0)"  stroke-width="3"/>
<line x1="204.1" y1="177.7" x2="237.1" y2="158.1" opacity="1.0" stroke="rgb(0,0,0)"  stroke-width="3"/>
<line x1="212.9" y1="180.9" x2="235.6" y2="167.4" opacity="1.0" stroke="rgb(0,0,0)"  stroke-width="3"/>
<line x1="237.1" y1="158.1" x2="270.5" y2="176.9" opacity="1.0" stroke="rgb(0,0,0)"  stroke-width="3"/>
<line x1="270.5" y1="176.9" x2="271.1" y2="215.2" opacity="1.0" stroke="rgb(0,0,0)"  stroke-width="3"/>
<line x1="263.4" y1="183.0" x2="263.8" y2="209.3" opacity="1.0" stroke="rgb(0,0,0)"  stroke-width="3"/>
<line x1="120.4" y1="438.2" x2="153.8" y2="457.3" opacity="1.0" stroke="rgb(0,0,0)"  stroke-width="3"/>
<line x1="129.2" y1="435.0" x2="152.2" y2="448.0" opacity="1.0" stroke="rgb(0,0,0)"  stroke-width="3"/>
<line x1="153.8" y1="457.3" x2="187.0" y2="437.8" opacity="1.0" stroke="rgb(0,0,0)"  stroke-width="3"/>
<line x1="187.0" y1="437.8" x2="186.8" y2="399.3" opacity="1.0" stroke="rgb(0,0,0)"  stroke-width="3"/>
<line x1="179.8" y1="431.8" x2="179.6" y2="405.3" opacity="1.0" stroke="rgb(0,0,0)"  stroke-width="3"/>
<line x1="186.8" y1="399.3" x2="153.3" y2="380.3" opacity="1.0" stroke="rgb(0,0,0)"  stroke-width="3"/>
<line x1="153.3" y1="380.3" x2="120.1" y2="399.8" opacity="1.0" stroke="rgb(0,0,0)"  stroke-width="3"/>
<line x1="151.8" y1="389.5" x2="128.9" y2="402.9" opacity="1.0" stroke="rgb(0,0,0)"  stroke-width="3"/>
<line x1="120.1" y1="399.8" x2="120.4" y2="438.2" opacity="1.0" stroke="rgb(0,0,0)"  stroke-width="3"/>
<line x1="297.6" y1="458.9" x2="282.4" y2="424.7" opacity="1.0" stroke="rgb(0,0,0)"  stroke-width="3"/>
<line x1="288.6" y1="456.4" x2="278.3" y2="433.1" opacity="1.0" stroke="rgb(0,0,0)"  stroke-width="3"/>
<line x1="282.4" y1="424.7" x2="245.2" y2="420.8" opacity="1.0" stroke="rgb(0,0,0)"  stroke-width="3"/>
<line x1="245.2" y1="420.8" x2="223.1" y2="451.1" opacity="1.0" stroke="rgb(0,0,0)"  stroke-width="3"/>
<line x1="247.5" y1="429.9" x2="232.5" y2="450.4" opacity="1.0" stroke="rgb(0,0,0)"  stroke-width="3"/>
<line x1="223.1" y1="451.1" x2="238.4" y2="485.3" opacity="1.0" stroke="rgb(0,0,0)"  stroke-width="3"/>
<line x1="238.4" y1="485.3" x2="275.6" y2="489.2" opacity="1.0" stroke="rgb(0,0,0)"  stroke-width="3"/>
<line x1="245.1" y1="478.8" x2="270.4" y2="481.4" opacity="1.0" stroke="rgb(0,0,0)"  stroke-width="3"/>
<line x1="275.6" y1="489.2" x2="297.6" y2="458.9" opacity="1.0" stroke="rgb(0,0,0)"  stroke-width="3"/>
<line x1="505.1" y1="399.6" x2="472.9" y2="378.6" opacity="1.0" stroke="rgb(0,0,0)"  stroke-width="3"/>
<line x1="496.1" y1="402.4" x2="474.0" y2="387.9" opacity="1.0" stroke="rgb(0,0,0)"  stroke-width="3"/>
<line x1="472.9" y1="378.6" x2="438.5" y2="395.9" opacity="1.0" stroke="rgb(0,0,0)"  stroke-width="3"/>
<line x1="438.5" y1="395.9" x2="436.4" y2="434.4" opacity="1.0" stroke="rgb(0,0,0)"  stroke-width="3"/>
<line x1="445.4" y1="402.3" x2="443.9" y2="428.8" opacity="1.0" stroke="rgb(0,0,0)"  stroke-width="3"/>
<line x1="436.4" y1="434.4" x2="468.6" y2="455.4" opacity="1.0" stroke="rgb(0,0,0)"  stroke-width="3"/>
<line x1="468.6" y1="455.4" x2="503.0" y2="438.0" opacity="1.0" stroke="rgb(0,0,0)"  stroke-width="3"/>
<line x1="470.7" y1="446.3" x2="494.4" y2="434.3" opacity="1.0" stroke="rgb(0,0,0)"  stroke-width="3"/>
<line x1="503.0" y1="438.0" x2="505.1" y2="399.6" opacity="1.0" stroke="rgb(0,0,0)"  stroke-width="3"/>
<line x1="343.2" y1="476.6" x2="381.6" y2="476.6" opacity="1.0" stroke="rgb(0,0,0)"  stroke-width="3"/>
<line x1="349.2" y1="469.4" x2="375.6" y2="469.4" opacity="1.0" stroke="rgb(0,0,0)"  stroke-width="3"/>
<line x1="381.6" y1="476.6" x2="399.2" y2="444.2" opacity="1.0" stroke="rgb(0,0,0)"  stroke-width="3"/>
<line x1="399.2" y1="444.2" x2="378.3" y2="411.9" opacity="1.0" stroke="rgb(0,0,0)"  stroke-width="3"/>
<line x1="389.9" y1="443.1" x2="375.5" y2="420.8" opacity="1.0" stroke="rgb(0,0,0)"  stroke-width="3"/>
<line x1="378.3" y1="411.9" x2="339.9" y2="411.9" opacity="1.0" stroke="rgb(0,0,0)"  stroke-width="3"/>
<line x1="339.9" y1="411.9" x2="322.3" y2="444.2" opacity="1.0" stroke="rgb(0,0,0)"  stroke-width="3"/>
<line x1="343.3" y1="420.6" x2="331.5" y2="442.4" opacity="1.0" stroke="rgb(0,0,0)"  stroke-width="3"/>
<line x1="322.3" y1="444.2" x2="343.2" y2="476.6" opacity="1.0" stroke="rgb(0,0,0)"  stroke-width="3"/>
<line x1="72.8" y1="333.4" x2="40.0" y2="351.7" opacity="1.0" stroke="rgb(0,0,0)"  stroke-width="3"/>
<line x1="40.0" y1="351.7" x2="40.0" y2="390.2" opacity="1.0" stroke="rgb(0,0,0)"  stroke-width="3"/>
<line x1="47.2" y1="357.7" x2="47.2" y2="384.2" opacity="1.0" stroke="rgb(0,0,0)"  stroke-width="3"/>
<line x1="40.0" y1="390.2" x2="72.8" y2="408.6" opacity="1.0" stroke="rgb(0,0,0)"  stroke-width="3"/>
<line x1="72.8" y1="408.6" x2="106.6" y2="390.2" opacity="1.0" stroke="rgb(0,0,0)"  stroke-width="3"/>
<line x1="74.7" y1="399.4" x2="97.9" y2="386.7" opacity="1.0" stroke="rgb(0,0,0)"  stroke-width="3"/>
<line x1="106.6" y1="390.2" x2="106.6" y2="351.7" opacity="1.0" stroke="rgb(0,0,0)"  stroke-width="3"/>
<line x1="106.6" y1="351.7" x2="72.8" y2="333.4" opacity="1.0" stroke="rgb(0,0,0)"  stroke-width="3"/>
<line x1="97.9" y1="355.2" x2="74.7" y2="342.6" opacity="1.0" stroke="rgb(0,0,0)"  stroke-width="3"/>
<line x1="270.0" y1="100.6" x2="270.0" y2="62.1" opacity="1.0" stroke="rgb(0,0,0)"  stroke-width="3"/>
<line x1="270.0" y1="62.1" x2="236.6" y2="42.7" opacity="1.0" stroke="rgb(0,0,0)"  stroke-width="3"/>
<line x1="261.2" y1="65.3" x2="238.1" y2="51.9" opacity="1.0" stroke="rgb(0,0,0)"  stroke-width="3"/>
<line x1="236.6" y1="42.7" x2="203.1" y2="62.1" opacity="1.0" stroke="rgb(0,0,0)"  stroke-width="3"/>
<line x1="203.1" y1="62.1" x2="203.1" y2="100.6" opacity="1.0" stroke="rgb(0,0,0)"  stroke-width="3"/>
<line x1="210.3" y1="68.1" x2="210.3" y2="94.6" opacity="1.0" stroke="rgb(0,0,0)"  stroke-width="3"/>
<line x1="203.1" y1="100.6" x2="236.6" y2="119.6" opacity="1.0" stroke="rgb(0,0,0)"  stroke-width="3"/>
<line x1="236.6" y1="119.6" x2="270.0" y2="100.6" opacity="1.0" stroke="rgb(0,0,0)"  stroke-width="3"/>
<line x1="238.2" y1="110.4" x2="261.2" y2="97.3" opacity="1.0" stroke="rgb(0,0,0)"  stroke-width="3"/>
<line x1="469.7" y1="97.7" x2="469.7" y2="59.2" opacity="1.0" stroke="rgb(0,0,0)"  stroke-width="3"/>
<line x1="469.7" y1="59.2" x2="436.4" y2="40.0" opacity="1.0" stroke="rgb(0,0,0)"  stroke-width="3"/>
<line x1="460.9" y1="62.5" x2="438.0" y2="49.2" opacity="1.0" stroke="rgb(0,0,0)"  stroke-width="3"/>
<line x1="436.4" y1="40.0" x2="403.0" y2="59.2" opacity="1.0" stroke="rgb(0,0,0)"  stroke-width="3"/>
<line x1="403.0" y1="59.2" x2="403.0" y2="97.7" opacity="1.0" stroke="rgb(0,0,0)"  stroke-width="3"/>
<line x1="410.2" y1="65.2" x2="410.2" y2="91.7" opacity="1.0" stroke="rgb(0,0,0)"  stroke-width="3"/>
<line x1="403.0" y1="97.7" x2="436.4" y2="117.0" opacity="1.0" stroke="rgb(0,0,0)"  stroke-width="3"/>
<line x1="436.4" y1="117.0" x2="469.7" y2="97.7" opacity="1.0" stroke="rgb(0,0,0)"  stroke-width="3"/>
<line x1="438.0" y1="107.7" x2="460.9" y2="94.5" opacity="1.0" stroke="rgb(0,0,0)"  stroke-width="3"/>
<line x1="471.8" y1="212.3" x2="505.8" y2="230.2" opacity="1.0" stroke="rgb(0,0,0)"  stroke-width="3"/>
<line x1="505.8" y1="230.2" x2="538.4" y2="209.6" opacity="1.0" stroke="rgb(0,0,0)"  stroke-width="3"/>
<line x1="507.1" y1="220.9" x2="529.5" y2="206.7" opacity="1.0" stroke="rgb(0,0,0)"  stroke-width="3"/>
<line x1="538.4" y1="209.6" x2="538.4" y2="171.1" opacity="1.0" stroke="rgb(0,0,0)"  stroke-width="3"/>
<line x1="538.4" y1="171.1" x2="505.8" y2="153.2" opacity="1.0" stroke="rgb(0,0,0)"  stroke-width="3"/>
<line x1="529.6" y1="174.5" x2="507.6" y2="162.4" opacity="1.0" stroke="rgb(0,0,0)"  stroke-width="3"/>
<line x1="505.8" y1="153.2" x2="470.2" y2="173.8" opacity="1.0" stroke="rgb(0,0,0)"  stroke-width="3"/>
<line x1="470.2" y1="173.8" x2="471.8" y2="212.3" opacity="1.0" stroke="rgb(0,0,0)"  stroke-width="3"/>
<line x1="477.6" y1="179.5" x2="478.7" y2="206.0" opacity="1.0" stroke="rgb(0,0,0)"  stroke-width="3"/>
<line x1="187.0" y1="437.8" x2="223.1" y2="451.1" opacity="1.0" stroke="rgb(0,0,0)"  stroke-width="3"/>
<line x1="245.2" y1="420.8" x2="223.3" y2="387.1" opacity="1.0" stroke="rgb(0,0,0)"  stroke-width="3"/>
<line x1="223.3" y1="387.1" x2="186.8" y2="399.3" opacity="1.0" stroke="rgb(0,0,0)"  stroke-width="3"/>
<line x1="399.2" y1="444.2" x2="436.4" y2="434.4" opacity="1.0" stroke="rgb(0,0,0)"  stroke-width="3"/>
<line x1="438.5" y1="395.9" x2="402.6" y2="382.0" opacity="1.0" stroke="rgb(0,0,0)"  stroke-width="3"/>
<line x1="402.6" y1="382.0" x2="378.3" y2="411.9" opacity="1.0" stroke="rgb(0,0,0)"  stroke-width="3"/>
<line x1="339.0" y1="329.4" x2="402.6" y2="382.0" opacity="1.0" stroke="rgb(0,0,0)"  stroke-width="3"/>
<line x1="402.6" y1="382.0" x2="405.5" y2="328.5" opacity="1.0" stroke="rgb(0,0,0)"  stroke-width="3"/>
<line x1="206.2" y1="331.2" x2="223.3" y2="387.1" opacity="1.0" stroke="rgb(0,0,0)"  stroke-width="3"/>
<line x1="223.3" y1="387.1" x2="272.6" y2="330.3" opacity="1.0" stroke="rgb(0,0,0)"  stroke-width="3"/>
<text x="300.573741" y="395.500940" fill="rgb(127,178,255)" stroke-width="0" font-weight="bold" font-size="25.92" >F</text>
<text x="365.470085" y="279.414785" fill="rgb(12,12,255)" stroke-width="0" font-weight="bold" font-size="25.92" >N</text>
<text x="232.603993" y="281.187712" fill="rgb(12,12,255)" stroke-width="0" font-weight="bold" font-size="25.92" >N</text>
<text x="430.367736" y="163.462909" fill="rgb(12,12,255)" stroke-width="0" font-weight="bold" font-size="25.92" >N</text>
<text x="298.525256" y="241.946111" fill="rgb(255,181,181)" stroke-width="0" font-weight="bold" font-size="25.92" >B</text>
</svg>
</g>
</svg>
