<?xml version="1.0"?>
<svg version="1.1" id="topsvg"
xmlns="http://www.w3.org/2000/svg" xmlns:xlink="http://www.w3.org/1999/xlink"
xmlns:cml="http://www.xml-cml.org/schema" x="0" y="0" width="200px" height="200px" viewBox="0 0 100 100">
<title>GD404.sdf - Open Babel Depiction</title>
<rect x="0" y="0" width="100" height="100" fill="white"/>
<g transform="translate(0,0)">
<svg width="100" height="100" x="0" y="0" viewBox="0 0 668.722 539.748"
font-family="sans-serif" stroke="rgb(0,0,0)" stroke-width="3"  stroke-linecap="round">
<line x1="188.4" y1="156.4" x2="169.8" y2="124.2" opacity="1.0" stroke="rgb(0,0,0)"  stroke-width="3"/>
<line x1="302.1" y1="330.5" x2="302.1" y2="354.6" opacity="1.0" stroke="rgb(0,0,0)"  stroke-width="3"/>
<line x1="141.2" y1="308.7" x2="107.4" y2="324.3" opacity="1.0" stroke="rgb(0,0,0)"  stroke-width="3"/>
<line x1="389.8" y1="147.1" x2="400.3" y2="111.5" opacity="1.0" stroke="rgb(0,0,0)"  stroke-width="3"/>
<line x1="473.3" y1="283.0" x2="545.3" y2="296.3" opacity="1.0" stroke="rgb(0,0,0)"  stroke-width="3"/>
<line x1="569.4" y1="268.0" x2="557.0" y2="233.0" opacity="1.0" stroke="rgb(0,0,0)"  stroke-width="3"/>
<line x1="519.7" y1="128.0" x2="501.1" y2="95.8" opacity="1.0" stroke="rgb(0,0,0)"  stroke-width="3"/>
<line x1="519.7" y1="128.0" x2="483.7" y2="137.7" opacity="1.0" stroke="rgb(0,0,0)"  stroke-width="3"/>
<line x1="592.7" y1="141.5" x2="628.7" y2="131.9" opacity="1.0" stroke="rgb(0,0,0)"  stroke-width="3"/>
<line x1="592.7" y1="141.5" x2="611.4" y2="173.8" opacity="1.0" stroke="rgb(0,0,0)"  stroke-width="3"/>
<line x1="178.2" y1="256.2" x2="189.2" y2="220.7" opacity="1.0" stroke="rgb(0,0,0)"  stroke-width="3"/>
<line x1="189.2" y1="220.7" x2="226.4" y2="220.2" opacity="1.0" stroke="rgb(0,0,0)"  stroke-width="3"/>
<line x1="195.3" y1="227.8" x2="220.5" y2="227.5" opacity="1.0" stroke="rgb(0,0,0)"  stroke-width="3"/>
<line x1="226.4" y1="220.2" x2="234.1" y2="243.1" opacity="1.0" stroke="rgb(0,0,0)"  stroke-width="3"/>
<line x1="227.9" y1="263.1" x2="208.6" y2="277.6" opacity="1.0" stroke="rgb(0,0,0)"  stroke-width="3"/>
<line x1="208.6" y1="277.6" x2="178.2" y2="256.2" opacity="1.0" stroke="rgb(0,0,0)"  stroke-width="3"/>
<line x1="207.8" y1="268.3" x2="187.3" y2="253.8" opacity="1.0" stroke="rgb(0,0,0)"  stroke-width="3"/>
<line x1="424.4" y1="241.3" x2="400.3" y2="269.5" opacity="1.0" stroke="rgb(0,0,0)"  stroke-width="3"/>
<line x1="415.0" y1="241.2" x2="398.7" y2="260.3" opacity="1.0" stroke="rgb(0,0,0)"  stroke-width="3"/>
<line x1="400.3" y1="269.5" x2="378.0" y2="260.3" opacity="1.0" stroke="rgb(0,0,0)"  stroke-width="3"/>
<line x1="366.9" y1="242.4" x2="368.8" y2="218.3" opacity="1.0" stroke="rgb(0,0,0)"  stroke-width="3"/>
<line x1="368.8" y1="218.3" x2="404.9" y2="209.6" opacity="1.0" stroke="rgb(0,0,0)"  stroke-width="3"/>
<line x1="376.3" y1="223.9" x2="400.8" y2="218.0" opacity="1.0" stroke="rgb(0,0,0)"  stroke-width="3"/>
<line x1="404.9" y1="209.6" x2="424.4" y2="241.3" opacity="1.0" stroke="rgb(0,0,0)"  stroke-width="3"/>
<line x1="270.0" y1="311.9" x2="302.1" y2="330.5" opacity="1.0" stroke="rgb(0,0,0)"  stroke-width="3"/>
<line x1="302.1" y1="330.5" x2="334.3" y2="311.9" opacity="1.0" stroke="rgb(0,0,0)"  stroke-width="3"/>
<line x1="303.7" y1="321.3" x2="325.5" y2="308.7" opacity="1.0" stroke="rgb(0,0,0)"  stroke-width="3"/>
<line x1="334.3" y1="311.9" x2="334.3" y2="274.8" opacity="1.0" stroke="rgb(0,0,0)"  stroke-width="3"/>
<line x1="334.3" y1="274.8" x2="302.1" y2="256.2" opacity="1.0" stroke="rgb(0,0,0)"  stroke-width="3"/>
<line x1="325.5" y1="278.0" x2="303.7" y2="265.5" opacity="1.0" stroke="rgb(0,0,0)"  stroke-width="3"/>
<line x1="302.1" y1="256.2" x2="270.0" y2="274.8" opacity="1.0" stroke="rgb(0,0,0)"  stroke-width="3"/>
<line x1="270.0" y1="274.8" x2="270.0" y2="311.9" opacity="1.0" stroke="rgb(0,0,0)"  stroke-width="3"/>
<line x1="277.2" y1="280.8" x2="277.2" y2="305.9" opacity="1.0" stroke="rgb(0,0,0)"  stroke-width="3"/>
<line x1="226.4" y1="220.2" x2="244.5" y2="187.8" opacity="1.0" stroke="rgb(0,0,0)"  stroke-width="3"/>
<line x1="244.5" y1="187.8" x2="290.7" y2="212.8" opacity="1.0" stroke="rgb(0,0,0)"  stroke-width="3"/>
<line x1="302.1" y1="232.0" x2="302.1" y2="256.2" opacity="1.0" stroke="rgb(0,0,0)"  stroke-width="3"/>
<line x1="270.0" y1="274.8" x2="249.4" y2="262.2" opacity="1.0" stroke="rgb(0,0,0)"  stroke-width="3"/>
<line x1="141.2" y1="308.7" x2="171.5" y2="330.1" opacity="1.0" stroke="rgb(0,0,0)"  stroke-width="3"/>
<line x1="171.5" y1="330.1" x2="205.2" y2="314.6" opacity="1.0" stroke="rgb(0,0,0)"  stroke-width="3"/>
<line x1="173.9" y1="321.1" x2="196.7" y2="310.6" opacity="1.0" stroke="rgb(0,0,0)"  stroke-width="3"/>
<line x1="205.2" y1="314.6" x2="208.6" y2="277.6" opacity="1.0" stroke="rgb(0,0,0)"  stroke-width="3"/>
<line x1="178.2" y1="256.2" x2="144.5" y2="271.7" opacity="1.0" stroke="rgb(0,0,0)"  stroke-width="3"/>
<line x1="144.5" y1="271.7" x2="141.2" y2="308.7" opacity="1.0" stroke="rgb(0,0,0)"  stroke-width="3"/>
<line x1="151.2" y1="278.4" x2="148.9" y2="303.4" opacity="1.0" stroke="rgb(0,0,0)"  stroke-width="3"/>
<line x1="354.9" y1="262.2" x2="334.3" y2="274.8" opacity="1.0" stroke="rgb(0,0,0)"  stroke-width="3"/>
<line x1="312.9" y1="211.7" x2="343.2" y2="191.4" opacity="1.0" stroke="rgb(0,0,0)"  stroke-width="3"/>
<line x1="343.2" y1="191.4" x2="368.8" y2="218.3" opacity="1.0" stroke="rgb(0,0,0)"  stroke-width="3"/>
<line x1="473.3" y1="283.0" x2="449.2" y2="311.3" opacity="1.0" stroke="rgb(0,0,0)"  stroke-width="3"/>
<line x1="449.2" y1="311.3" x2="412.7" y2="304.5" opacity="1.0" stroke="rgb(0,0,0)"  stroke-width="3"/>
<line x1="444.6" y1="303.1" x2="419.9" y2="298.5" opacity="1.0" stroke="rgb(0,0,0)"  stroke-width="3"/>
<line x1="412.7" y1="304.5" x2="400.3" y2="269.5" opacity="1.0" stroke="rgb(0,0,0)"  stroke-width="3"/>
<line x1="424.4" y1="241.3" x2="460.9" y2="248.0" opacity="1.0" stroke="rgb(0,0,0)"  stroke-width="3"/>
<line x1="460.9" y1="248.0" x2="473.3" y2="283.0" opacity="1.0" stroke="rgb(0,0,0)"  stroke-width="3"/>
<line x1="456.1" y1="256.1" x2="464.5" y2="279.8" opacity="1.0" stroke="rgb(0,0,0)"  stroke-width="3"/>
<line x1="389.8" y1="147.1" x2="353.7" y2="155.8" opacity="1.0" stroke="rgb(0,0,0)"  stroke-width="3"/>
<line x1="353.7" y1="155.8" x2="343.2" y2="191.4" opacity="1.0" stroke="rgb(0,0,0)"  stroke-width="3"/>
<line x1="358.9" y1="163.6" x2="351.8" y2="187.7" opacity="1.0" stroke="rgb(0,0,0)"  stroke-width="3"/>
<line x1="404.9" y1="209.6" x2="415.4" y2="174.0" opacity="1.0" stroke="rgb(0,0,0)"  stroke-width="3"/>
<line x1="415.4" y1="174.0" x2="389.8" y2="147.1" opacity="1.0" stroke="rgb(0,0,0)"  stroke-width="3"/>
<line x1="406.1" y1="174.6" x2="388.7" y2="156.4" opacity="1.0" stroke="rgb(0,0,0)"  stroke-width="3"/>
<line x1="189.2" y1="220.7" x2="170.2" y2="188.8" opacity="1.0" stroke="rgb(0,0,0)"  stroke-width="3"/>
<line x1="170.2" y1="188.8" x2="188.4" y2="156.4" opacity="1.0" stroke="rgb(0,0,0)"  stroke-width="3"/>
<line x1="179.5" y1="187.1" x2="191.7" y2="165.1" opacity="1.0" stroke="rgb(0,0,0)"  stroke-width="3"/>
<line x1="188.4" y1="156.4" x2="225.5" y2="155.9" opacity="1.0" stroke="rgb(0,0,0)"  stroke-width="3"/>
<line x1="225.5" y1="155.9" x2="244.5" y2="187.8" opacity="1.0" stroke="rgb(0,0,0)"  stroke-width="3"/>
<line x1="222.4" y1="164.7" x2="235.2" y2="186.3" opacity="1.0" stroke="rgb(0,0,0)"  stroke-width="3"/>
<line x1="179.5" y1="421.7" x2="182.9" y2="458.7" opacity="1.0" stroke="rgb(0,0,0)"  stroke-width="3"/>
<line x1="172.8" y1="428.3" x2="175.1" y2="453.4" opacity="1.0" stroke="rgb(0,0,0)"  stroke-width="3"/>
<line x1="182.9" y1="458.7" x2="152.5" y2="480.1" opacity="1.0" stroke="rgb(0,0,0)"  stroke-width="3"/>
<line x1="152.5" y1="480.1" x2="118.8" y2="464.6" opacity="1.0" stroke="rgb(0,0,0)"  stroke-width="3"/>
<line x1="150.1" y1="471.1" x2="127.3" y2="460.5" opacity="1.0" stroke="rgb(0,0,0)"  stroke-width="3"/>
<line x1="118.8" y1="464.6" x2="115.4" y2="427.6" opacity="1.0" stroke="rgb(0,0,0)"  stroke-width="3"/>
<line x1="115.4" y1="427.6" x2="145.7" y2="406.2" opacity="1.0" stroke="rgb(0,0,0)"  stroke-width="3"/>
<line x1="124.5" y1="430.0" x2="145.0" y2="415.5" opacity="1.0" stroke="rgb(0,0,0)"  stroke-width="3"/>
<line x1="145.7" y1="406.2" x2="179.5" y2="421.7" opacity="1.0" stroke="rgb(0,0,0)"  stroke-width="3"/>
<line x1="293.4" y1="467.8" x2="274.4" y2="499.7" opacity="1.0" stroke="rgb(0,0,0)"  stroke-width="3"/>
<line x1="274.4" y1="499.7" x2="237.2" y2="499.3" opacity="1.0" stroke="rgb(0,0,0)"  stroke-width="3"/>
<line x1="268.5" y1="492.5" x2="243.3" y2="492.1" opacity="1.0" stroke="rgb(0,0,0)"  stroke-width="3"/>
<line x1="237.2" y1="499.3" x2="219.1" y2="466.9" opacity="1.0" stroke="rgb(0,0,0)"  stroke-width="3"/>
<line x1="219.1" y1="466.9" x2="238.1" y2="435.0" opacity="1.0" stroke="rgb(0,0,0)"  stroke-width="3"/>
<line x1="228.3" y1="465.4" x2="241.2" y2="443.8" opacity="1.0" stroke="rgb(0,0,0)"  stroke-width="3"/>
<line x1="238.1" y1="435.0" x2="275.2" y2="435.4" opacity="1.0" stroke="rgb(0,0,0)"  stroke-width="3"/>
<line x1="275.2" y1="435.4" x2="293.4" y2="467.8" opacity="1.0" stroke="rgb(0,0,0)"  stroke-width="3"/>
<line x1="271.9" y1="444.2" x2="284.1" y2="466.1" opacity="1.0" stroke="rgb(0,0,0)"  stroke-width="3"/>
<line x1="423.3" y1="456.3" x2="427.7" y2="419.4" opacity="1.0" stroke="rgb(0,0,0)"  stroke-width="3"/>
<line x1="431.1" y1="451.2" x2="434.1" y2="426.2" opacity="1.0" stroke="rgb(0,0,0)"  stroke-width="3"/>
<line x1="427.7" y1="419.4" x2="461.8" y2="404.8" opacity="1.0" stroke="rgb(0,0,0)"  stroke-width="3"/>
<line x1="461.8" y1="404.8" x2="491.7" y2="427.1" opacity="1.0" stroke="rgb(0,0,0)"  stroke-width="3"/>
<line x1="462.3" y1="414.1" x2="482.5" y2="429.3" opacity="1.0" stroke="rgb(0,0,0)"  stroke-width="3"/>
<line x1="491.7" y1="427.1" x2="487.1" y2="463.9" opacity="1.0" stroke="rgb(0,0,0)"  stroke-width="3"/>
<line x1="487.1" y1="463.9" x2="453.0" y2="478.5" opacity="1.0" stroke="rgb(0,0,0)"  stroke-width="3"/>
<line x1="478.8" y1="459.6" x2="455.7" y2="469.5" opacity="1.0" stroke="rgb(0,0,0)"  stroke-width="3"/>
<line x1="453.0" y1="478.5" x2="423.3" y2="456.3" opacity="1.0" stroke="rgb(0,0,0)"  stroke-width="3"/>
<line x1="331.6" y1="430.5" x2="312.6" y2="462.4" opacity="1.0" stroke="rgb(0,0,0)"  stroke-width="3"/>
<line x1="334.7" y1="439.3" x2="321.8" y2="460.9" opacity="1.0" stroke="rgb(0,0,0)"  stroke-width="3"/>
<line x1="312.6" y1="462.4" x2="330.7" y2="494.8" opacity="1.0" stroke="rgb(0,0,0)"  stroke-width="3"/>
<line x1="330.7" y1="494.8" x2="367.8" y2="495.3" opacity="1.0" stroke="rgb(0,0,0)"  stroke-width="3"/>
<line x1="336.8" y1="487.7" x2="361.9" y2="488.1" opacity="1.0" stroke="rgb(0,0,0)"  stroke-width="3"/>
<line x1="367.8" y1="495.3" x2="386.8" y2="463.5" opacity="1.0" stroke="rgb(0,0,0)"  stroke-width="3"/>
<line x1="386.8" y1="463.5" x2="368.7" y2="431.0" opacity="1.0" stroke="rgb(0,0,0)"  stroke-width="3"/>
<line x1="377.6" y1="461.7" x2="365.4" y2="439.8" opacity="1.0" stroke="rgb(0,0,0)"  stroke-width="3"/>
<line x1="368.7" y1="431.0" x2="331.6" y2="430.5" opacity="1.0" stroke="rgb(0,0,0)"  stroke-width="3"/>
<line x1="188.4" y1="92.1" x2="169.8" y2="59.9" opacity="1.0" stroke="rgb(0,0,0)"  stroke-width="3"/>
<line x1="169.8" y1="59.9" x2="132.7" y2="59.9" opacity="1.0" stroke="rgb(0,0,0)"  stroke-width="3"/>
<line x1="163.8" y1="67.1" x2="138.7" y2="67.1" opacity="1.0" stroke="rgb(0,0,0)"  stroke-width="3"/>
<line x1="132.7" y1="59.9" x2="114.1" y2="92.1" opacity="1.0" stroke="rgb(0,0,0)"  stroke-width="3"/>
<line x1="114.1" y1="92.1" x2="132.7" y2="124.2" opacity="1.0" stroke="rgb(0,0,0)"  stroke-width="3"/>
<line x1="123.3" y1="93.7" x2="135.9" y2="115.4" opacity="1.0" stroke="rgb(0,0,0)"  stroke-width="3"/>
<line x1="132.7" y1="124.2" x2="169.8" y2="124.2" opacity="1.0" stroke="rgb(0,0,0)"  stroke-width="3"/>
<line x1="169.8" y1="124.2" x2="188.4" y2="92.1" opacity="1.0" stroke="rgb(0,0,0)"  stroke-width="3"/>
<line x1="166.6" y1="115.4" x2="179.1" y2="93.7" opacity="1.0" stroke="rgb(0,0,0)"  stroke-width="3"/>
<line x1="77.1" y1="302.9" x2="43.4" y2="318.4" opacity="1.0" stroke="rgb(0,0,0)"  stroke-width="3"/>
<line x1="43.4" y1="318.4" x2="40.0" y2="355.4" opacity="1.0" stroke="rgb(0,0,0)"  stroke-width="3"/>
<line x1="50.0" y1="325.1" x2="47.7" y2="350.1" opacity="1.0" stroke="rgb(0,0,0)"  stroke-width="3"/>
<line x1="40.0" y1="355.4" x2="70.3" y2="376.8" opacity="1.0" stroke="rgb(0,0,0)"  stroke-width="3"/>
<line x1="70.3" y1="376.8" x2="104.1" y2="361.3" opacity="1.0" stroke="rgb(0,0,0)"  stroke-width="3"/>
<line x1="72.8" y1="367.8" x2="95.6" y2="357.2" opacity="1.0" stroke="rgb(0,0,0)"  stroke-width="3"/>
<line x1="104.1" y1="361.3" x2="107.4" y2="324.3" opacity="1.0" stroke="rgb(0,0,0)"  stroke-width="3"/>
<line x1="107.4" y1="324.3" x2="77.1" y2="302.9" opacity="1.0" stroke="rgb(0,0,0)"  stroke-width="3"/>
<line x1="98.4" y1="326.7" x2="77.8" y2="312.2" opacity="1.0" stroke="rgb(0,0,0)"  stroke-width="3"/>
<line x1="557.8" y1="331.3" x2="594.3" y2="338.0" opacity="1.0" stroke="rgb(0,0,0)"  stroke-width="3"/>
<line x1="594.3" y1="338.0" x2="618.4" y2="309.7" opacity="1.0" stroke="rgb(0,0,0)"  stroke-width="3"/>
<line x1="592.7" y1="328.8" x2="609.0" y2="309.6" opacity="1.0" stroke="rgb(0,0,0)"  stroke-width="3"/>
<line x1="618.4" y1="309.7" x2="605.9" y2="274.7" opacity="1.0" stroke="rgb(0,0,0)"  stroke-width="3"/>
<line x1="605.9" y1="274.7" x2="569.4" y2="268.0" opacity="1.0" stroke="rgb(0,0,0)"  stroke-width="3"/>
<line x1="598.7" y1="280.7" x2="574.0" y2="276.2" opacity="1.0" stroke="rgb(0,0,0)"  stroke-width="3"/>
<line x1="569.4" y1="268.0" x2="545.3" y2="296.3" opacity="1.0" stroke="rgb(0,0,0)"  stroke-width="3"/>
<line x1="545.3" y1="296.3" x2="557.8" y2="331.3" opacity="1.0" stroke="rgb(0,0,0)"  stroke-width="3"/>
<line x1="554.1" y1="299.5" x2="562.5" y2="323.2" opacity="1.0" stroke="rgb(0,0,0)"  stroke-width="3"/>
<line x1="581.1" y1="204.8" x2="568.6" y2="169.8" opacity="1.0" stroke="rgb(0,0,0)"  stroke-width="3"/>
<line x1="568.6" y1="169.8" x2="532.1" y2="163.0" opacity="1.0" stroke="rgb(0,0,0)"  stroke-width="3"/>
<line x1="561.4" y1="175.8" x2="536.7" y2="171.2" opacity="1.0" stroke="rgb(0,0,0)"  stroke-width="3"/>
<line x1="532.1" y1="163.0" x2="508.0" y2="191.3" opacity="1.0" stroke="rgb(0,0,0)"  stroke-width="3"/>
<line x1="508.0" y1="191.3" x2="520.5" y2="226.3" opacity="1.0" stroke="rgb(0,0,0)"  stroke-width="3"/>
<line x1="516.8" y1="194.5" x2="525.2" y2="218.2" opacity="1.0" stroke="rgb(0,0,0)"  stroke-width="3"/>
<line x1="520.5" y1="226.3" x2="557.0" y2="233.0" opacity="1.0" stroke="rgb(0,0,0)"  stroke-width="3"/>
<line x1="557.0" y1="233.0" x2="581.1" y2="204.8" opacity="1.0" stroke="rgb(0,0,0)"  stroke-width="3"/>
<line x1="555.4" y1="223.8" x2="571.7" y2="204.7" opacity="1.0" stroke="rgb(0,0,0)"  stroke-width="3"/>
<line x1="436.6" y1="102.7" x2="447.1" y2="67.0" opacity="1.0" stroke="rgb(0,0,0)"  stroke-width="3"/>
<line x1="447.1" y1="67.0" x2="421.4" y2="40.0" opacity="1.0" stroke="rgb(0,0,0)"  stroke-width="3"/>
<line x1="437.8" y1="67.6" x2="420.3" y2="49.3" opacity="1.0" stroke="rgb(0,0,0)"  stroke-width="3"/>
<line x1="421.4" y1="40.0" x2="385.2" y2="48.7" opacity="1.0" stroke="rgb(0,0,0)"  stroke-width="3"/>
<line x1="385.2" y1="48.7" x2="374.7" y2="84.5" opacity="1.0" stroke="rgb(0,0,0)"  stroke-width="3"/>
<line x1="390.4" y1="56.5" x2="383.3" y2="80.8" opacity="1.0" stroke="rgb(0,0,0)"  stroke-width="3"/>
<line x1="374.7" y1="84.5" x2="400.3" y2="111.5" opacity="1.0" stroke="rgb(0,0,0)"  stroke-width="3"/>
<line x1="400.3" y1="111.5" x2="436.6" y2="102.7" opacity="1.0" stroke="rgb(0,0,0)"  stroke-width="3"/>
<line x1="404.5" y1="103.1" x2="429.0" y2="97.2" opacity="1.0" stroke="rgb(0,0,0)"  stroke-width="3"/>
<line x1="219.1" y1="466.9" x2="182.9" y2="458.7" opacity="1.0" stroke="rgb(0,0,0)"  stroke-width="3"/>
<line x1="179.5" y1="421.7" x2="213.6" y2="407.0" opacity="1.0" stroke="rgb(0,0,0)"  stroke-width="3"/>
<line x1="213.6" y1="407.0" x2="238.1" y2="435.0" opacity="1.0" stroke="rgb(0,0,0)"  stroke-width="3"/>
<line x1="394.0" y1="403.8" x2="427.7" y2="419.4" opacity="1.0" stroke="rgb(0,0,0)"  stroke-width="3"/>
<line x1="423.3" y1="456.3" x2="386.8" y2="463.5" opacity="1.0" stroke="rgb(0,0,0)"  stroke-width="3"/>
<line x1="368.7" y1="431.0" x2="394.0" y2="403.8" opacity="1.0" stroke="rgb(0,0,0)"  stroke-width="3"/>
<line x1="334.3" y1="311.9" x2="394.0" y2="403.8" opacity="1.0" stroke="rgb(0,0,0)"  stroke-width="3"/>
<line x1="394.0" y1="403.8" x2="412.7" y2="304.5" opacity="1.0" stroke="rgb(0,0,0)"  stroke-width="3"/>
<line x1="205.2" y1="314.6" x2="213.6" y2="407.0" opacity="1.0" stroke="rgb(0,0,0)"  stroke-width="3"/>
<line x1="213.6" y1="407.0" x2="270.0" y2="311.9" opacity="1.0" stroke="rgb(0,0,0)"  stroke-width="3"/>
<line x1="543.8" y1="99.8" x2="519.7" y2="128.0" opacity="1.0" stroke="rgb(0,0,0)"  stroke-width="3"/>
<line x1="519.7" y1="128.0" x2="532.1" y2="163.0" opacity="1.0" stroke="rgb(0,0,0)"  stroke-width="3"/>
<line x1="568.6" y1="169.8" x2="592.7" y2="141.5" opacity="1.0" stroke="rgb(0,0,0)"  stroke-width="3"/>
<line x1="592.7" y1="141.5" x2="580.3" y2="106.5" opacity="1.0" stroke="rgb(0,0,0)"  stroke-width="3"/>
<line x1="580.3" y1="106.5" x2="543.8" y2="99.8" opacity="1.0" stroke="rgb(0,0,0)"  stroke-width="3"/>
<text x="296.134068" y="375.638269" fill="rgb(127,178,255)" stroke-width="0" font-weight="bold" font-size="25.92" >F</text>
<text x="296.135152" y="226.968136" fill="rgb(255,181,181)" stroke-width="0" font-weight="bold" font-size="25.92" >B</text>
<text x="359.936843" y="263.361769" fill="rgb(12,12,255)" stroke-width="0" font-weight="bold" font-size="25.92" >N</text>
<text x="232.326775" y="263.361769" fill="rgb(12,12,255)" stroke-width="0" font-weight="bold" font-size="25.92" >N</text>
</svg>
</g>
</svg>
