<?xml version="1.0"?>
<svg version="1.1" id="topsvg"
xmlns="http://www.w3.org/2000/svg" xmlns:xlink="http://www.w3.org/1999/xlink"
xmlns:cml="http://www.xml-cml.org/schema" x="0" y="0" width="200px" height="200px" viewBox="0 0 100 100">
<title>GD405.sdf - Open Babel Depiction</title>
<rect x="0" y="0" width="100" height="100" fill="white"/>
<g transform="translate(0,0)">
<svg width="100" height="100" x="0" y="0" viewBox="0 0 547.319 552.36"
font-family="sans-serif" stroke="rgb(0,0,0)" stroke-width="3"  stroke-linecap="round">
<line x1="273.7" y1="329.8" x2="273.7" y2="354.2" opacity="1.0" stroke="rgb(0,0,0)"  stroke-width="3"/>
<line x1="181.9" y1="146.7" x2="170.3" y2="111.1" opacity="1.0" stroke="rgb(0,0,0)"  stroke-width="3"/>
<line x1="101.6" y1="285.7" x2="65.0" y2="293.5" opacity="1.0" stroke="rgb(0,0,0)"  stroke-width="3"/>
<line x1="65.0" y1="293.5" x2="40.0" y2="265.7" opacity="1.0" stroke="rgb(0,0,0)"  stroke-width="3"/>
<line x1="65.0" y1="293.5" x2="53.5" y2="329.1" opacity="1.0" stroke="rgb(0,0,0)"  stroke-width="3"/>
<line x1="65.0" y1="293.5" x2="76.6" y2="258.0" opacity="1.0" stroke="rgb(0,0,0)"  stroke-width="3"/>
<line x1="365.4" y1="146.7" x2="377.0" y2="111.1" opacity="1.0" stroke="rgb(0,0,0)"  stroke-width="3"/>
<line x1="445.7" y1="285.7" x2="482.3" y2="293.5" opacity="1.0" stroke="rgb(0,0,0)"  stroke-width="3"/>
<line x1="482.3" y1="293.5" x2="507.3" y2="265.7" opacity="1.0" stroke="rgb(0,0,0)"  stroke-width="3"/>
<line x1="482.3" y1="293.5" x2="493.9" y2="329.1" opacity="1.0" stroke="rgb(0,0,0)"  stroke-width="3"/>
<line x1="482.3" y1="293.5" x2="470.7" y2="258.0" opacity="1.0" stroke="rgb(0,0,0)"  stroke-width="3"/>
<line x1="149.7" y1="242.4" x2="168.4" y2="210.0" opacity="1.0" stroke="rgb(0,0,0)"  stroke-width="3"/>
<line x1="168.4" y1="210.0" x2="205.0" y2="217.8" opacity="1.0" stroke="rgb(0,0,0)"  stroke-width="3"/>
<line x1="172.8" y1="218.3" x2="197.6" y2="223.6" opacity="1.0" stroke="rgb(0,0,0)"  stroke-width="3"/>
<line x1="205.0" y1="217.8" x2="207.5" y2="242.1" opacity="1.0" stroke="rgb(0,0,0)"  stroke-width="3"/>
<line x1="197.0" y1="260.3" x2="174.7" y2="270.2" opacity="1.0" stroke="rgb(0,0,0)"  stroke-width="3"/>
<line x1="174.7" y1="270.2" x2="149.7" y2="242.4" opacity="1.0" stroke="rgb(0,0,0)"  stroke-width="3"/>
<line x1="176.1" y1="260.9" x2="159.1" y2="242.1" opacity="1.0" stroke="rgb(0,0,0)"  stroke-width="3"/>
<line x1="397.6" y1="242.4" x2="372.6" y2="270.2" opacity="1.0" stroke="rgb(0,0,0)"  stroke-width="3"/>
<line x1="388.2" y1="242.1" x2="371.2" y2="260.9" opacity="1.0" stroke="rgb(0,0,0)"  stroke-width="3"/>
<line x1="372.6" y1="270.2" x2="350.3" y2="260.3" opacity="1.0" stroke="rgb(0,0,0)"  stroke-width="3"/>
<line x1="339.8" y1="242.1" x2="342.3" y2="217.8" opacity="1.0" stroke="rgb(0,0,0)"  stroke-width="3"/>
<line x1="342.3" y1="217.8" x2="378.9" y2="210.0" opacity="1.0" stroke="rgb(0,0,0)"  stroke-width="3"/>
<line x1="349.7" y1="223.6" x2="374.5" y2="218.3" opacity="1.0" stroke="rgb(0,0,0)"  stroke-width="3"/>
<line x1="378.9" y1="210.0" x2="397.6" y2="242.4" opacity="1.0" stroke="rgb(0,0,0)"  stroke-width="3"/>
<line x1="241.3" y1="311.1" x2="273.7" y2="329.8" opacity="1.0" stroke="rgb(0,0,0)"  stroke-width="3"/>
<line x1="273.7" y1="329.8" x2="306.0" y2="311.1" opacity="1.0" stroke="rgb(0,0,0)"  stroke-width="3"/>
<line x1="275.3" y1="320.5" x2="297.2" y2="307.8" opacity="1.0" stroke="rgb(0,0,0)"  stroke-width="3"/>
<line x1="306.0" y1="311.1" x2="306.0" y2="273.7" opacity="1.0" stroke="rgb(0,0,0)"  stroke-width="3"/>
<line x1="306.0" y1="273.7" x2="273.7" y2="255.0" opacity="1.0" stroke="rgb(0,0,0)"  stroke-width="3"/>
<line x1="297.2" y1="276.9" x2="275.3" y2="264.2" opacity="1.0" stroke="rgb(0,0,0)"  stroke-width="3"/>
<line x1="273.7" y1="255.0" x2="241.3" y2="273.7" opacity="1.0" stroke="rgb(0,0,0)"  stroke-width="3"/>
<line x1="241.3" y1="273.7" x2="241.3" y2="311.1" opacity="1.0" stroke="rgb(0,0,0)"  stroke-width="3"/>
<line x1="248.5" y1="279.7" x2="248.5" y2="305.1" opacity="1.0" stroke="rgb(0,0,0)"  stroke-width="3"/>
<line x1="205.0" y1="217.8" x2="230.0" y2="190.0" opacity="1.0" stroke="rgb(0,0,0)"  stroke-width="3"/>
<line x1="230.0" y1="190.0" x2="262.7" y2="210.7" opacity="1.0" stroke="rgb(0,0,0)"  stroke-width="3"/>
<line x1="273.7" y1="230.6" x2="273.7" y2="255.0" opacity="1.0" stroke="rgb(0,0,0)"  stroke-width="3"/>
<line x1="241.3" y1="273.7" x2="220.2" y2="261.5" opacity="1.0" stroke="rgb(0,0,0)"  stroke-width="3"/>
<line x1="101.6" y1="285.7" x2="126.6" y2="313.5" opacity="1.0" stroke="rgb(0,0,0)"  stroke-width="3"/>
<line x1="126.6" y1="313.5" x2="163.2" y2="305.8" opacity="1.0" stroke="rgb(0,0,0)"  stroke-width="3"/>
<line x1="131.0" y1="305.2" x2="155.8" y2="300.0" opacity="1.0" stroke="rgb(0,0,0)"  stroke-width="3"/>
<line x1="163.2" y1="305.8" x2="174.7" y2="270.2" opacity="1.0" stroke="rgb(0,0,0)"  stroke-width="3"/>
<line x1="149.7" y1="242.4" x2="113.1" y2="250.2" opacity="1.0" stroke="rgb(0,0,0)"  stroke-width="3"/>
<line x1="113.1" y1="250.2" x2="101.6" y2="285.7" opacity="1.0" stroke="rgb(0,0,0)"  stroke-width="3"/>
<line x1="118.1" y1="258.1" x2="110.3" y2="282.3" opacity="1.0" stroke="rgb(0,0,0)"  stroke-width="3"/>
<line x1="327.2" y1="261.5" x2="306.0" y2="273.7" opacity="1.0" stroke="rgb(0,0,0)"  stroke-width="3"/>
<line x1="284.6" y1="210.7" x2="317.3" y2="190.0" opacity="1.0" stroke="rgb(0,0,0)"  stroke-width="3"/>
<line x1="317.3" y1="190.0" x2="342.3" y2="217.8" opacity="1.0" stroke="rgb(0,0,0)"  stroke-width="3"/>
<line x1="445.7" y1="285.7" x2="420.7" y2="313.5" opacity="1.0" stroke="rgb(0,0,0)"  stroke-width="3"/>
<line x1="420.7" y1="313.5" x2="384.1" y2="305.8" opacity="1.0" stroke="rgb(0,0,0)"  stroke-width="3"/>
<line x1="416.3" y1="305.2" x2="391.5" y2="300.0" opacity="1.0" stroke="rgb(0,0,0)"  stroke-width="3"/>
<line x1="384.1" y1="305.8" x2="372.6" y2="270.2" opacity="1.0" stroke="rgb(0,0,0)"  stroke-width="3"/>
<line x1="397.6" y1="242.4" x2="434.2" y2="250.2" opacity="1.0" stroke="rgb(0,0,0)"  stroke-width="3"/>
<line x1="434.2" y1="250.2" x2="445.7" y2="285.7" opacity="1.0" stroke="rgb(0,0,0)"  stroke-width="3"/>
<line x1="429.2" y1="258.1" x2="437.0" y2="282.3" opacity="1.0" stroke="rgb(0,0,0)"  stroke-width="3"/>
<line x1="365.4" y1="146.7" x2="328.9" y2="154.5" opacity="1.0" stroke="rgb(0,0,0)"  stroke-width="3"/>
<line x1="328.9" y1="154.5" x2="317.3" y2="190.0" opacity="1.0" stroke="rgb(0,0,0)"  stroke-width="3"/>
<line x1="333.9" y1="162.4" x2="326.0" y2="186.5" opacity="1.0" stroke="rgb(0,0,0)"  stroke-width="3"/>
<line x1="378.9" y1="210.0" x2="390.5" y2="174.5" opacity="1.0" stroke="rgb(0,0,0)"  stroke-width="3"/>
<line x1="390.5" y1="174.5" x2="365.4" y2="146.7" opacity="1.0" stroke="rgb(0,0,0)"  stroke-width="3"/>
<line x1="381.1" y1="174.8" x2="364.1" y2="156.0" opacity="1.0" stroke="rgb(0,0,0)"  stroke-width="3"/>
<line x1="168.4" y1="210.0" x2="156.9" y2="174.5" opacity="1.0" stroke="rgb(0,0,0)"  stroke-width="3"/>
<line x1="156.9" y1="174.5" x2="181.9" y2="146.7" opacity="1.0" stroke="rgb(0,0,0)"  stroke-width="3"/>
<line x1="166.2" y1="174.8" x2="183.2" y2="156.0" opacity="1.0" stroke="rgb(0,0,0)"  stroke-width="3"/>
<line x1="181.9" y1="146.7" x2="218.5" y2="154.5" opacity="1.0" stroke="rgb(0,0,0)"  stroke-width="3"/>
<line x1="218.5" y1="154.5" x2="230.0" y2="190.0" opacity="1.0" stroke="rgb(0,0,0)"  stroke-width="3"/>
<line x1="213.5" y1="162.4" x2="221.3" y2="186.5" opacity="1.0" stroke="rgb(0,0,0)"  stroke-width="3"/>
<line x1="116.2" y1="383.5" x2="83.8" y2="402.2" opacity="1.0" stroke="rgb(0,0,0)"  stroke-width="3"/>
<line x1="114.6" y1="392.8" x2="92.6" y2="405.4" opacity="1.0" stroke="rgb(0,0,0)"  stroke-width="3"/>
<line x1="83.8" y1="402.2" x2="83.8" y2="439.6" opacity="1.0" stroke="rgb(0,0,0)"  stroke-width="3"/>
<line x1="83.8" y1="439.6" x2="116.2" y2="458.3" opacity="1.0" stroke="rgb(0,0,0)"  stroke-width="3"/>
<line x1="92.6" y1="436.4" x2="114.6" y2="449.1" opacity="1.0" stroke="rgb(0,0,0)"  stroke-width="3"/>
<line x1="116.2" y1="458.3" x2="148.6" y2="439.6" opacity="1.0" stroke="rgb(0,0,0)"  stroke-width="3"/>
<line x1="148.6" y1="439.6" x2="148.6" y2="402.2" opacity="1.0" stroke="rgb(0,0,0)"  stroke-width="3"/>
<line x1="141.4" y1="433.6" x2="141.4" y2="408.2" opacity="1.0" stroke="rgb(0,0,0)"  stroke-width="3"/>
<line x1="148.6" y1="402.2" x2="116.2" y2="383.5" opacity="1.0" stroke="rgb(0,0,0)"  stroke-width="3"/>
<line x1="258.5" y1="459.0" x2="243.3" y2="424.8" opacity="1.0" stroke="rgb(0,0,0)"  stroke-width="3"/>
<line x1="249.5" y1="456.4" x2="239.2" y2="433.2" opacity="1.0" stroke="rgb(0,0,0)"  stroke-width="3"/>
<line x1="243.3" y1="424.8" x2="206.1" y2="420.9" opacity="1.0" stroke="rgb(0,0,0)"  stroke-width="3"/>
<line x1="206.1" y1="420.9" x2="184.2" y2="451.2" opacity="1.0" stroke="rgb(0,0,0)"  stroke-width="3"/>
<line x1="208.4" y1="430.0" x2="193.5" y2="450.5" opacity="1.0" stroke="rgb(0,0,0)"  stroke-width="3"/>
<line x1="184.2" y1="451.2" x2="199.4" y2="485.3" opacity="1.0" stroke="rgb(0,0,0)"  stroke-width="3"/>
<line x1="199.4" y1="485.3" x2="236.6" y2="489.2" opacity="1.0" stroke="rgb(0,0,0)"  stroke-width="3"/>
<line x1="206.1" y1="478.8" x2="231.3" y2="481.4" opacity="1.0" stroke="rgb(0,0,0)"  stroke-width="3"/>
<line x1="236.6" y1="489.2" x2="258.5" y2="459.0" opacity="1.0" stroke="rgb(0,0,0)"  stroke-width="3"/>
<line x1="51.5" y1="346.1" x2="51.5" y2="383.5" opacity="1.0" stroke="rgb(0,0,0)"  stroke-width="3"/>
<line x1="58.7" y1="352.1" x2="58.7" y2="377.5" opacity="1.0" stroke="rgb(0,0,0)"  stroke-width="3"/>
<line x1="51.5" y1="383.5" x2="83.8" y2="402.2" opacity="1.0" stroke="rgb(0,0,0)"  stroke-width="3"/>
<line x1="116.2" y1="383.5" x2="116.2" y2="346.1" opacity="1.0" stroke="rgb(0,0,0)"  stroke-width="3"/>
<line x1="116.2" y1="346.1" x2="83.8" y2="327.4" opacity="1.0" stroke="rgb(0,0,0)"  stroke-width="3"/>
<line x1="107.4" y1="349.4" x2="85.4" y2="336.7" opacity="1.0" stroke="rgb(0,0,0)"  stroke-width="3"/>
<line x1="83.8" y1="327.4" x2="51.5" y2="346.1" opacity="1.0" stroke="rgb(0,0,0)"  stroke-width="3"/>
<line x1="291.0" y1="448.7" x2="278.6" y2="484.0" opacity="1.0" stroke="rgb(0,0,0)"  stroke-width="3"/>
<line x1="295.8" y1="456.8" x2="287.4" y2="480.7" opacity="1.0" stroke="rgb(0,0,0)"  stroke-width="3"/>
<line x1="278.6" y1="484.0" x2="302.9" y2="512.4" opacity="1.0" stroke="rgb(0,0,0)"  stroke-width="3"/>
<line x1="302.9" y1="512.4" x2="339.7" y2="505.4" opacity="1.0" stroke="rgb(0,0,0)"  stroke-width="3"/>
<line x1="307.5" y1="504.2" x2="332.5" y2="499.5" opacity="1.0" stroke="rgb(0,0,0)"  stroke-width="3"/>
<line x1="339.7" y1="505.4" x2="352.1" y2="470.2" opacity="1.0" stroke="rgb(0,0,0)"  stroke-width="3"/>
<line x1="352.1" y1="470.2" x2="327.7" y2="441.8" opacity="1.0" stroke="rgb(0,0,0)"  stroke-width="3"/>
<line x1="342.7" y1="470.3" x2="326.2" y2="451.0" opacity="1.0" stroke="rgb(0,0,0)"  stroke-width="3"/>
<line x1="327.7" y1="441.8" x2="291.0" y2="448.7" opacity="1.0" stroke="rgb(0,0,0)"  stroke-width="3"/>
<line x1="448.1" y1="413.2" x2="414.3" y2="397.2" opacity="1.0" stroke="rgb(0,0,0)"  stroke-width="3"/>
<line x1="439.6" y1="417.2" x2="416.6" y2="406.3" opacity="1.0" stroke="rgb(0,0,0)"  stroke-width="3"/>
<line x1="414.3" y1="397.2" x2="383.5" y2="418.5" opacity="1.0" stroke="rgb(0,0,0)"  stroke-width="3"/>
<line x1="383.5" y1="418.5" x2="386.6" y2="455.8" opacity="1.0" stroke="rgb(0,0,0)"  stroke-width="3"/>
<line x1="391.2" y1="423.9" x2="393.3" y2="449.2" opacity="1.0" stroke="rgb(0,0,0)"  stroke-width="3"/>
<line x1="386.6" y1="455.8" x2="420.4" y2="471.8" opacity="1.0" stroke="rgb(0,0,0)"  stroke-width="3"/>
<line x1="420.4" y1="471.8" x2="451.1" y2="450.5" opacity="1.0" stroke="rgb(0,0,0)"  stroke-width="3"/>
<line x1="421.2" y1="462.4" x2="442.1" y2="448.0" opacity="1.0" stroke="rgb(0,0,0)"  stroke-width="3"/>
<line x1="451.1" y1="450.5" x2="448.1" y2="413.2" opacity="1.0" stroke="rgb(0,0,0)"  stroke-width="3"/>
<line x1="442.0" y1="338.7" x2="411.2" y2="360.0" opacity="1.0" stroke="rgb(0,0,0)"  stroke-width="3"/>
<line x1="441.2" y1="348.0" x2="420.3" y2="362.5" opacity="1.0" stroke="rgb(0,0,0)"  stroke-width="3"/>
<line x1="411.2" y1="360.0" x2="414.3" y2="397.2" opacity="1.0" stroke="rgb(0,0,0)"  stroke-width="3"/>
<line x1="448.1" y1="413.2" x2="478.8" y2="392.0" opacity="1.0" stroke="rgb(0,0,0)"  stroke-width="3"/>
<line x1="478.8" y1="392.0" x2="475.8" y2="354.7" opacity="1.0" stroke="rgb(0,0,0)"  stroke-width="3"/>
<line x1="471.2" y1="386.6" x2="469.1" y2="361.3" opacity="1.0" stroke="rgb(0,0,0)"  stroke-width="3"/>
<line x1="475.8" y1="354.7" x2="442.0" y2="338.7" opacity="1.0" stroke="rgb(0,0,0)"  stroke-width="3"/>
<line x1="195.3" y1="83.3" x2="183.8" y2="47.8" opacity="1.0" stroke="rgb(0,0,0)"  stroke-width="3"/>
<line x1="183.8" y1="47.8" x2="147.2" y2="40.0" opacity="1.0" stroke="rgb(0,0,0)"  stroke-width="3"/>
<line x1="176.4" y1="53.6" x2="151.6" y2="48.3" opacity="1.0" stroke="rgb(0,0,0)"  stroke-width="3"/>
<line x1="147.2" y1="40.0" x2="122.2" y2="67.8" opacity="1.0" stroke="rgb(0,0,0)"  stroke-width="3"/>
<line x1="122.2" y1="67.8" x2="133.8" y2="103.3" opacity="1.0" stroke="rgb(0,0,0)"  stroke-width="3"/>
<line x1="130.9" y1="71.3" x2="138.7" y2="95.4" opacity="1.0" stroke="rgb(0,0,0)"  stroke-width="3"/>
<line x1="133.8" y1="103.3" x2="170.3" y2="111.1" opacity="1.0" stroke="rgb(0,0,0)"  stroke-width="3"/>
<line x1="170.3" y1="111.1" x2="195.3" y2="83.3" opacity="1.0" stroke="rgb(0,0,0)"  stroke-width="3"/>
<line x1="169.0" y1="101.8" x2="186.0" y2="83.0" opacity="1.0" stroke="rgb(0,0,0)"  stroke-width="3"/>
<line x1="413.6" y1="103.3" x2="425.1" y2="67.8" opacity="1.0" stroke="rgb(0,0,0)"  stroke-width="3"/>
<line x1="425.1" y1="67.8" x2="400.1" y2="40.0" opacity="1.0" stroke="rgb(0,0,0)"  stroke-width="3"/>
<line x1="415.8" y1="68.1" x2="398.8" y2="49.3" opacity="1.0" stroke="rgb(0,0,0)"  stroke-width="3"/>
<line x1="400.1" y1="40.0" x2="363.5" y2="47.8" opacity="1.0" stroke="rgb(0,0,0)"  stroke-width="3"/>
<line x1="363.5" y1="47.8" x2="352.0" y2="83.3" opacity="1.0" stroke="rgb(0,0,0)"  stroke-width="3"/>
<line x1="368.5" y1="55.7" x2="360.7" y2="79.9" opacity="1.0" stroke="rgb(0,0,0)"  stroke-width="3"/>
<line x1="352.0" y1="83.3" x2="377.0" y2="111.1" opacity="1.0" stroke="rgb(0,0,0)"  stroke-width="3"/>
<line x1="377.0" y1="111.1" x2="413.6" y2="103.3" opacity="1.0" stroke="rgb(0,0,0)"  stroke-width="3"/>
<line x1="381.4" y1="102.8" x2="406.2" y2="97.6" opacity="1.0" stroke="rgb(0,0,0)"  stroke-width="3"/>
<line x1="148.6" y1="439.6" x2="184.2" y2="451.2" opacity="1.0" stroke="rgb(0,0,0)"  stroke-width="3"/>
<line x1="206.1" y1="420.9" x2="184.2" y2="390.7" opacity="1.0" stroke="rgb(0,0,0)"  stroke-width="3"/>
<line x1="184.2" y1="390.7" x2="148.6" y2="402.2" opacity="1.0" stroke="rgb(0,0,0)"  stroke-width="3"/>
<line x1="352.1" y1="470.2" x2="386.6" y2="455.8" opacity="1.0" stroke="rgb(0,0,0)"  stroke-width="3"/>
<line x1="383.5" y1="418.5" x2="347.2" y2="409.9" opacity="1.0" stroke="rgb(0,0,0)"  stroke-width="3"/>
<line x1="347.2" y1="409.9" x2="327.7" y2="441.8" opacity="1.0" stroke="rgb(0,0,0)"  stroke-width="3"/>
<line x1="306.0" y1="311.1" x2="347.2" y2="409.9" opacity="1.0" stroke="rgb(0,0,0)"  stroke-width="3"/>
<line x1="347.2" y1="409.9" x2="384.1" y2="305.8" opacity="1.0" stroke="rgb(0,0,0)"  stroke-width="3"/>
<line x1="163.2" y1="305.8" x2="184.2" y2="390.7" opacity="1.0" stroke="rgb(0,0,0)"  stroke-width="3"/>
<line x1="184.2" y1="390.7" x2="241.3" y2="311.1" opacity="1.0" stroke="rgb(0,0,0)"  stroke-width="3"/>
<text x="267.659698" y="225.597669" fill="rgb(255,181,181)" stroke-width="0" font-weight="bold" font-size="25.92" >B</text>
<text x="332.421981" y="262.988188" fill="rgb(12,12,255)" stroke-width="0" font-weight="bold" font-size="25.92" >N</text>
<text x="267.659698" y="375.159745" fill="rgb(127,178,255)" stroke-width="0" font-weight="bold" font-size="25.92" >F</text>
<text x="202.897416" y="262.988188" fill="rgb(12,12,255)" stroke-width="0" font-weight="bold" font-size="25.92" >N</text>
</svg>
</g>
</svg>
