<?xml version="1.0"?>
<svg version="1.1" id="topsvg"
xmlns="http://www.w3.org/2000/svg" xmlns:xlink="http://www.w3.org/1999/xlink"
xmlns:cml="http://www.xml-cml.org/schema" x="0" y="0" width="200px" height="200px" viewBox="0 0 100 100">
<title>GD40.sdf - Open Babel Depiction</title>
<rect x="0" y="0" width="100" height="100" fill="white"/>
<g transform="translate(0,0)">
<svg width="100" height="100" x="0" y="0" viewBox="0 0 568.054 655.207"
font-family="sans-serif" stroke="rgb(0,0,0)" stroke-width="3"  stroke-linecap="round">
<line x1="411.5" y1="136.8" x2="400.7" y2="112.5" opacity="1.0" stroke="rgb(0,0,0)"  stroke-width="3"/>
<line x1="202.3" y1="183.0" x2="190.0" y2="145.3" opacity="1.0" stroke="rgb(0,0,0)"  stroke-width="3"/>
<line x1="117.1" y1="330.5" x2="78.3" y2="338.8" opacity="1.0" stroke="rgb(0,0,0)"  stroke-width="3"/>
<line x1="299.6" y1="377.2" x2="299.6" y2="416.9" opacity="1.0" stroke="rgb(0,0,0)"  stroke-width="3"/>
<line x1="190.0" y1="145.3" x2="216.5" y2="115.8" opacity="1.0" stroke="rgb(0,0,0)"  stroke-width="3"/>
<line x1="190.0" y1="145.3" x2="151.2" y2="137.1" opacity="1.0" stroke="rgb(0,0,0)"  stroke-width="3"/>
<line x1="190.0" y1="145.3" x2="179.7" y2="107.0" opacity="1.0" stroke="rgb(0,0,0)"  stroke-width="3"/>
<line x1="78.3" y1="338.8" x2="51.8" y2="309.3" opacity="1.0" stroke="rgb(0,0,0)"  stroke-width="3"/>
<line x1="78.3" y1="338.8" x2="66.1" y2="376.5" opacity="1.0" stroke="rgb(0,0,0)"  stroke-width="3"/>
<line x1="78.3" y1="338.8" x2="40.0" y2="349.1" opacity="1.0" stroke="rgb(0,0,0)"  stroke-width="3"/>
<line x1="299.6" y1="496.2" x2="299.6" y2="535.9" opacity="1.0" stroke="rgb(0,0,0)"  stroke-width="3"/>
<line x1="168.2" y1="284.6" x2="188.0" y2="250.2" opacity="1.0" stroke="rgb(0,0,0)"  stroke-width="3"/>
<line x1="188.0" y1="250.2" x2="226.8" y2="258.5" opacity="1.0" stroke="rgb(0,0,0)"  stroke-width="3"/>
<line x1="192.4" y1="258.5" x2="219.4" y2="264.3" opacity="1.0" stroke="rgb(0,0,0)"  stroke-width="3"/>
<line x1="226.8" y1="258.5" x2="229.6" y2="285.0" opacity="1.0" stroke="rgb(0,0,0)"  stroke-width="3"/>
<line x1="219.0" y1="303.2" x2="194.7" y2="314.1" opacity="1.0" stroke="rgb(0,0,0)"  stroke-width="3"/>
<line x1="194.7" y1="314.1" x2="168.2" y2="284.6" opacity="1.0" stroke="rgb(0,0,0)"  stroke-width="3"/>
<line x1="196.0" y1="304.8" x2="177.5" y2="284.2" opacity="1.0" stroke="rgb(0,0,0)"  stroke-width="3"/>
<line x1="404.5" y1="314.1" x2="431.1" y2="284.6" opacity="1.0" stroke="rgb(0,0,0)"  stroke-width="3"/>
<line x1="403.2" y1="304.8" x2="421.7" y2="284.2" opacity="1.0" stroke="rgb(0,0,0)"  stroke-width="3"/>
<line x1="431.1" y1="284.6" x2="411.2" y2="250.2" opacity="1.0" stroke="rgb(0,0,0)"  stroke-width="3"/>
<line x1="411.2" y1="250.2" x2="372.5" y2="258.5" opacity="1.0" stroke="rgb(0,0,0)"  stroke-width="3"/>
<line x1="406.9" y1="258.5" x2="379.8" y2="264.3" opacity="1.0" stroke="rgb(0,0,0)"  stroke-width="3"/>
<line x1="372.5" y1="258.5" x2="369.7" y2="285.0" opacity="1.0" stroke="rgb(0,0,0)"  stroke-width="3"/>
<line x1="380.2" y1="303.2" x2="404.5" y2="314.1" opacity="1.0" stroke="rgb(0,0,0)"  stroke-width="3"/>
<line x1="455.6" y1="156.9" x2="429.5" y2="151.4" opacity="1.0" stroke="rgb(0,0,0)"  stroke-width="3"/>
<line x1="410.3" y1="160.0" x2="397.0" y2="183.0" opacity="1.0" stroke="rgb(0,0,0)"  stroke-width="3"/>
<line x1="397.0" y1="183.0" x2="423.5" y2="212.5" opacity="1.0" stroke="rgb(0,0,0)"  stroke-width="3"/>
<line x1="406.3" y1="182.7" x2="424.8" y2="203.2" opacity="1.0" stroke="rgb(0,0,0)"  stroke-width="3"/>
<line x1="423.5" y1="212.5" x2="459.7" y2="196.4" opacity="1.0" stroke="rgb(0,0,0)"  stroke-width="3"/>
<line x1="459.7" y1="196.4" x2="455.6" y2="156.9" opacity="1.0" stroke="rgb(0,0,0)"  stroke-width="3"/>
<line x1="451.9" y1="191.2" x2="449.1" y2="163.7" opacity="1.0" stroke="rgb(0,0,0)"  stroke-width="3"/>
<line x1="265.3" y1="357.4" x2="299.6" y2="377.2" opacity="1.0" stroke="rgb(0,0,0)"  stroke-width="3"/>
<line x1="299.6" y1="377.2" x2="334.0" y2="357.4" opacity="1.0" stroke="rgb(0,0,0)"  stroke-width="3"/>
<line x1="301.2" y1="368.0" x2="325.2" y2="354.2" opacity="1.0" stroke="rgb(0,0,0)"  stroke-width="3"/>
<line x1="334.0" y1="357.4" x2="334.0" y2="317.8" opacity="1.0" stroke="rgb(0,0,0)"  stroke-width="3"/>
<line x1="334.0" y1="317.8" x2="299.6" y2="297.9" opacity="1.0" stroke="rgb(0,0,0)"  stroke-width="3"/>
<line x1="325.2" y1="321.0" x2="301.2" y2="307.2" opacity="1.0" stroke="rgb(0,0,0)"  stroke-width="3"/>
<line x1="299.6" y1="297.9" x2="265.3" y2="317.8" opacity="1.0" stroke="rgb(0,0,0)"  stroke-width="3"/>
<line x1="265.3" y1="317.8" x2="265.3" y2="357.4" opacity="1.0" stroke="rgb(0,0,0)"  stroke-width="3"/>
<line x1="272.5" y1="323.8" x2="272.5" y2="351.4" opacity="1.0" stroke="rgb(0,0,0)"  stroke-width="3"/>
<line x1="299.6" y1="271.3" x2="299.6" y2="297.9" opacity="1.0" stroke="rgb(0,0,0)"  stroke-width="3"/>
<line x1="265.3" y1="317.8" x2="242.2" y2="304.4" opacity="1.0" stroke="rgb(0,0,0)"  stroke-width="3"/>
<line x1="226.8" y1="258.5" x2="253.3" y2="229.0" opacity="1.0" stroke="rgb(0,0,0)"  stroke-width="3"/>
<line x1="253.3" y1="229.0" x2="288.6" y2="251.3" opacity="1.0" stroke="rgb(0,0,0)"  stroke-width="3"/>
<line x1="334.0" y1="317.8" x2="357.1" y2="304.4" opacity="1.0" stroke="rgb(0,0,0)"  stroke-width="3"/>
<line x1="372.5" y1="258.5" x2="345.9" y2="229.0" opacity="1.0" stroke="rgb(0,0,0)"  stroke-width="3"/>
<line x1="345.9" y1="229.0" x2="310.6" y2="251.3" opacity="1.0" stroke="rgb(0,0,0)"  stroke-width="3"/>
<line x1="397.0" y1="183.0" x2="358.2" y2="191.3" opacity="1.0" stroke="rgb(0,0,0)"  stroke-width="3"/>
<line x1="358.2" y1="191.3" x2="345.9" y2="229.0" opacity="1.0" stroke="rgb(0,0,0)"  stroke-width="3"/>
<line x1="363.2" y1="199.2" x2="354.6" y2="225.5" opacity="1.0" stroke="rgb(0,0,0)"  stroke-width="3"/>
<line x1="411.2" y1="250.2" x2="423.5" y2="212.5" opacity="1.0" stroke="rgb(0,0,0)"  stroke-width="3"/>
<line x1="482.1" y1="330.5" x2="469.9" y2="292.8" opacity="1.0" stroke="rgb(0,0,0)"  stroke-width="3"/>
<line x1="473.4" y1="327.1" x2="464.9" y2="300.8" opacity="1.0" stroke="rgb(0,0,0)"  stroke-width="3"/>
<line x1="469.9" y1="292.8" x2="431.1" y2="284.6" opacity="1.0" stroke="rgb(0,0,0)"  stroke-width="3"/>
<line x1="404.5" y1="314.1" x2="416.8" y2="351.8" opacity="1.0" stroke="rgb(0,0,0)"  stroke-width="3"/>
<line x1="416.8" y1="351.8" x2="455.6" y2="360.0" opacity="1.0" stroke="rgb(0,0,0)"  stroke-width="3"/>
<line x1="424.2" y1="346.0" x2="451.2" y2="351.7" opacity="1.0" stroke="rgb(0,0,0)"  stroke-width="3"/>
<line x1="455.6" y1="360.0" x2="482.1" y2="330.5" opacity="1.0" stroke="rgb(0,0,0)"  stroke-width="3"/>
<line x1="523.9" y1="149.8" x2="487.7" y2="133.6" opacity="1.0" stroke="rgb(0,0,0)"  stroke-width="3"/>
<line x1="515.5" y1="153.9" x2="490.2" y2="142.6" opacity="1.0" stroke="rgb(0,0,0)"  stroke-width="3"/>
<line x1="487.7" y1="133.6" x2="455.6" y2="156.9" opacity="1.0" stroke="rgb(0,0,0)"  stroke-width="3"/>
<line x1="459.7" y1="196.4" x2="496.0" y2="212.5" opacity="1.0" stroke="rgb(0,0,0)"  stroke-width="3"/>
<line x1="496.0" y1="212.5" x2="528.1" y2="189.2" opacity="1.0" stroke="rgb(0,0,0)"  stroke-width="3"/>
<line x1="496.6" y1="203.2" x2="519.0" y2="186.9" opacity="1.0" stroke="rgb(0,0,0)"  stroke-width="3"/>
<line x1="528.1" y1="189.2" x2="523.9" y2="149.8" opacity="1.0" stroke="rgb(0,0,0)"  stroke-width="3"/>
<line x1="143.6" y1="360.0" x2="117.1" y2="330.5" opacity="1.0" stroke="rgb(0,0,0)"  stroke-width="3"/>
<line x1="117.1" y1="330.5" x2="129.4" y2="292.8" opacity="1.0" stroke="rgb(0,0,0)"  stroke-width="3"/>
<line x1="125.8" y1="327.1" x2="134.4" y2="300.8" opacity="1.0" stroke="rgb(0,0,0)"  stroke-width="3"/>
<line x1="129.4" y1="292.8" x2="168.2" y2="284.6" opacity="1.0" stroke="rgb(0,0,0)"  stroke-width="3"/>
<line x1="194.7" y1="314.1" x2="182.4" y2="351.8" opacity="1.0" stroke="rgb(0,0,0)"  stroke-width="3"/>
<line x1="182.4" y1="351.8" x2="143.6" y2="360.0" opacity="1.0" stroke="rgb(0,0,0)"  stroke-width="3"/>
<line x1="175.1" y1="346.0" x2="148.0" y2="351.7" opacity="1.0" stroke="rgb(0,0,0)"  stroke-width="3"/>
<line x1="188.0" y1="250.2" x2="175.7" y2="212.5" opacity="1.0" stroke="rgb(0,0,0)"  stroke-width="3"/>
<line x1="175.7" y1="212.5" x2="202.3" y2="183.0" opacity="1.0" stroke="rgb(0,0,0)"  stroke-width="3"/>
<line x1="185.1" y1="212.9" x2="203.6" y2="192.3" opacity="1.0" stroke="rgb(0,0,0)"  stroke-width="3"/>
<line x1="202.3" y1="183.0" x2="241.1" y2="191.3" opacity="1.0" stroke="rgb(0,0,0)"  stroke-width="3"/>
<line x1="241.1" y1="191.3" x2="253.3" y2="229.0" opacity="1.0" stroke="rgb(0,0,0)"  stroke-width="3"/>
<line x1="236.1" y1="199.2" x2="244.6" y2="225.5" opacity="1.0" stroke="rgb(0,0,0)"  stroke-width="3"/>
<line x1="424.0" y1="80.4" x2="407.8" y2="44.1" opacity="1.0" stroke="rgb(0,0,0)"  stroke-width="3"/>
<line x1="407.8" y1="44.1" x2="368.4" y2="40.0" opacity="1.0" stroke="rgb(0,0,0)"  stroke-width="3"/>
<line x1="401.1" y1="50.7" x2="373.6" y2="47.8" opacity="1.0" stroke="rgb(0,0,0)"  stroke-width="3"/>
<line x1="368.4" y1="40.0" x2="345.1" y2="72.1" opacity="1.0" stroke="rgb(0,0,0)"  stroke-width="3"/>
<line x1="345.1" y1="72.1" x2="361.2" y2="108.3" opacity="1.0" stroke="rgb(0,0,0)"  stroke-width="3"/>
<line x1="354.1" y1="74.6" x2="365.4" y2="99.9" opacity="1.0" stroke="rgb(0,0,0)"  stroke-width="3"/>
<line x1="361.2" y1="108.3" x2="400.7" y2="112.5" opacity="1.0" stroke="rgb(0,0,0)"  stroke-width="3"/>
<line x1="400.7" y1="112.5" x2="424.0" y2="80.4" opacity="1.0" stroke="rgb(0,0,0)"  stroke-width="3"/>
<line x1="398.4" y1="103.4" x2="414.6" y2="81.0" opacity="1.0" stroke="rgb(0,0,0)"  stroke-width="3"/>
<line x1="265.3" y1="436.7" x2="265.3" y2="476.4" opacity="1.0" stroke="rgb(0,0,0)"  stroke-width="3"/>
<line x1="265.3" y1="476.4" x2="299.6" y2="496.2" opacity="1.0" stroke="rgb(0,0,0)"  stroke-width="3"/>
<line x1="274.1" y1="473.2" x2="298.0" y2="487.0" opacity="1.0" stroke="rgb(0,0,0)"  stroke-width="3"/>
<line x1="299.6" y1="496.2" x2="334.0" y2="476.4" opacity="1.0" stroke="rgb(0,0,0)"  stroke-width="3"/>
<line x1="334.0" y1="476.4" x2="334.0" y2="436.7" opacity="1.0" stroke="rgb(0,0,0)"  stroke-width="3"/>
<line x1="326.8" y1="470.4" x2="326.8" y2="442.7" opacity="1.0" stroke="rgb(0,0,0)"  stroke-width="3"/>
<line x1="334.0" y1="436.7" x2="299.6" y2="416.9" opacity="1.0" stroke="rgb(0,0,0)"  stroke-width="3"/>
<line x1="299.6" y1="416.9" x2="265.3" y2="436.7" opacity="1.0" stroke="rgb(0,0,0)"  stroke-width="3"/>
<line x1="298.0" y1="426.1" x2="274.1" y2="440.0" opacity="1.0" stroke="rgb(0,0,0)"  stroke-width="3"/>
<line x1="265.3" y1="555.7" x2="265.3" y2="595.4" opacity="1.0" stroke="rgb(0,0,0)"  stroke-width="3"/>
<line x1="265.3" y1="595.4" x2="299.6" y2="615.2" opacity="1.0" stroke="rgb(0,0,0)"  stroke-width="3"/>
<line x1="274.1" y1="592.1" x2="298.0" y2="606.0" opacity="1.0" stroke="rgb(0,0,0)"  stroke-width="3"/>
<line x1="299.6" y1="615.2" x2="334.0" y2="595.4" opacity="1.0" stroke="rgb(0,0,0)"  stroke-width="3"/>
<line x1="334.0" y1="595.4" x2="334.0" y2="555.7" opacity="1.0" stroke="rgb(0,0,0)"  stroke-width="3"/>
<line x1="326.8" y1="589.4" x2="326.8" y2="561.7" opacity="1.0" stroke="rgb(0,0,0)"  stroke-width="3"/>
<line x1="334.0" y1="555.7" x2="299.6" y2="535.9" opacity="1.0" stroke="rgb(0,0,0)"  stroke-width="3"/>
<line x1="299.6" y1="535.9" x2="265.3" y2="555.7" opacity="1.0" stroke="rgb(0,0,0)"  stroke-width="3"/>
<line x1="298.0" y1="545.1" x2="274.1" y2="559.0" opacity="1.0" stroke="rgb(0,0,0)"  stroke-width="3"/>
<line x1="196.6" y1="595.4" x2="230.9" y2="615.2" opacity="1.0" stroke="rgb(0,0,0)"  stroke-width="3"/>
<line x1="205.4" y1="592.1" x2="229.3" y2="606.0" opacity="1.0" stroke="rgb(0,0,0)"  stroke-width="3"/>
<line x1="230.9" y1="615.2" x2="265.3" y2="595.4" opacity="1.0" stroke="rgb(0,0,0)"  stroke-width="3"/>
<line x1="265.3" y1="555.7" x2="230.9" y2="535.9" opacity="1.0" stroke="rgb(0,0,0)"  stroke-width="3"/>
<line x1="230.9" y1="535.9" x2="196.6" y2="555.7" opacity="1.0" stroke="rgb(0,0,0)"  stroke-width="3"/>
<line x1="229.3" y1="545.1" x2="205.4" y2="559.0" opacity="1.0" stroke="rgb(0,0,0)"  stroke-width="3"/>
<line x1="196.6" y1="555.7" x2="196.6" y2="595.4" opacity="1.0" stroke="rgb(0,0,0)"  stroke-width="3"/>
<line x1="402.7" y1="555.7" x2="368.3" y2="535.9" opacity="1.0" stroke="rgb(0,0,0)"  stroke-width="3"/>
<line x1="393.9" y1="559.0" x2="369.9" y2="545.1" opacity="1.0" stroke="rgb(0,0,0)"  stroke-width="3"/>
<line x1="368.3" y1="535.9" x2="334.0" y2="555.7" opacity="1.0" stroke="rgb(0,0,0)"  stroke-width="3"/>
<line x1="334.0" y1="595.4" x2="368.3" y2="615.2" opacity="1.0" stroke="rgb(0,0,0)"  stroke-width="3"/>
<line x1="368.3" y1="615.2" x2="402.7" y2="595.4" opacity="1.0" stroke="rgb(0,0,0)"  stroke-width="3"/>
<line x1="369.9" y1="606.0" x2="393.9" y2="592.1" opacity="1.0" stroke="rgb(0,0,0)"  stroke-width="3"/>
<line x1="402.7" y1="595.4" x2="402.7" y2="555.7" opacity="1.0" stroke="rgb(0,0,0)"  stroke-width="3"/>
<text x="224.922050" y="305.923762" fill="rgb(12,12,255)" stroke-width="0" font-weight="bold" font-size="25.92" >N</text>
<text x="362.309928" y="305.923713" fill="rgb(12,12,255)" stroke-width="0" font-weight="bold" font-size="25.92" >N</text>
<text x="293.615989" y="266.263300" fill="rgb(255,181,181)" stroke-width="0" font-weight="bold" font-size="25.92" >B</text>
<text x="410.797271" y="156.694904" fill="rgb(12,12,255)" stroke-width="0" font-weight="bold" font-size="25.92" >N</text>
</svg>
</g>
</svg>
