<?xml version="1.0"?>
<svg version="1.1" id="topsvg"
xmlns="http://www.w3.org/2000/svg" xmlns:xlink="http://www.w3.org/1999/xlink"
xmlns:cml="http://www.xml-cml.org/schema" x="0" y="0" width="200px" height="200px" viewBox="0 0 100 100">
<title>GD401.sdf - Open Babel Depiction</title>
<rect x="0" y="0" width="100" height="100" fill="white"/>
<g transform="translate(0,0)">
<svg width="100" height="100" x="0" y="0" viewBox="0 0 551.928 557.019"
font-family="sans-serif" stroke="rgb(0,0,0)" stroke-width="3"  stroke-linecap="round">
<line x1="276.0" y1="332.6" x2="276.0" y2="357.4" opacity="1.0" stroke="rgb(0,0,0)"  stroke-width="3"/>
<line x1="183.3" y1="147.7" x2="171.6" y2="111.8" opacity="1.0" stroke="rgb(0,0,0)"  stroke-width="3"/>
<line x1="102.2" y1="288.2" x2="65.3" y2="296.0" opacity="1.0" stroke="rgb(0,0,0)"  stroke-width="3"/>
<line x1="65.3" y1="296.0" x2="40.0" y2="268.0" opacity="1.0" stroke="rgb(0,0,0)"  stroke-width="3"/>
<line x1="65.3" y1="296.0" x2="53.6" y2="331.9" opacity="1.0" stroke="rgb(0,0,0)"  stroke-width="3"/>
<line x1="65.3" y1="296.0" x2="76.9" y2="260.1" opacity="1.0" stroke="rgb(0,0,0)"  stroke-width="3"/>
<line x1="368.6" y1="147.7" x2="380.3" y2="111.8" opacity="1.0" stroke="rgb(0,0,0)"  stroke-width="3"/>
<line x1="449.7" y1="288.2" x2="486.7" y2="296.0" opacity="1.0" stroke="rgb(0,0,0)"  stroke-width="3"/>
<line x1="486.7" y1="296.0" x2="511.9" y2="268.0" opacity="1.0" stroke="rgb(0,0,0)"  stroke-width="3"/>
<line x1="486.7" y1="296.0" x2="498.3" y2="331.9" opacity="1.0" stroke="rgb(0,0,0)"  stroke-width="3"/>
<line x1="486.7" y1="296.0" x2="475.0" y2="260.1" opacity="1.0" stroke="rgb(0,0,0)"  stroke-width="3"/>
<line x1="150.8" y1="244.4" x2="169.7" y2="211.7" opacity="1.0" stroke="rgb(0,0,0)"  stroke-width="3"/>
<line x1="169.7" y1="211.7" x2="206.6" y2="219.6" opacity="1.0" stroke="rgb(0,0,0)"  stroke-width="3"/>
<line x1="174.1" y1="220.0" x2="199.3" y2="225.4" opacity="1.0" stroke="rgb(0,0,0)"  stroke-width="3"/>
<line x1="206.6" y1="219.6" x2="209.2" y2="244.2" opacity="1.0" stroke="rgb(0,0,0)"  stroke-width="3"/>
<line x1="198.7" y1="262.4" x2="176.1" y2="272.5" opacity="1.0" stroke="rgb(0,0,0)"  stroke-width="3"/>
<line x1="176.1" y1="272.5" x2="150.8" y2="244.4" opacity="1.0" stroke="rgb(0,0,0)"  stroke-width="3"/>
<line x1="177.4" y1="263.2" x2="160.2" y2="244.0" opacity="1.0" stroke="rgb(0,0,0)"  stroke-width="3"/>
<line x1="401.1" y1="244.4" x2="375.9" y2="272.5" opacity="1.0" stroke="rgb(0,0,0)"  stroke-width="3"/>
<line x1="391.8" y1="244.0" x2="374.5" y2="263.2" opacity="1.0" stroke="rgb(0,0,0)"  stroke-width="3"/>
<line x1="375.9" y1="272.5" x2="353.2" y2="262.4" opacity="1.0" stroke="rgb(0,0,0)"  stroke-width="3"/>
<line x1="342.7" y1="244.2" x2="345.3" y2="219.6" opacity="1.0" stroke="rgb(0,0,0)"  stroke-width="3"/>
<line x1="345.3" y1="219.6" x2="382.2" y2="211.7" opacity="1.0" stroke="rgb(0,0,0)"  stroke-width="3"/>
<line x1="352.7" y1="225.4" x2="377.9" y2="220.0" opacity="1.0" stroke="rgb(0,0,0)"  stroke-width="3"/>
<line x1="382.2" y1="211.7" x2="401.1" y2="244.4" opacity="1.0" stroke="rgb(0,0,0)"  stroke-width="3"/>
<line x1="243.3" y1="313.7" x2="276.0" y2="332.6" opacity="1.0" stroke="rgb(0,0,0)"  stroke-width="3"/>
<line x1="276.0" y1="332.6" x2="308.7" y2="313.7" opacity="1.0" stroke="rgb(0,0,0)"  stroke-width="3"/>
<line x1="277.6" y1="323.4" x2="299.9" y2="310.5" opacity="1.0" stroke="rgb(0,0,0)"  stroke-width="3"/>
<line x1="308.7" y1="313.7" x2="308.7" y2="276.0" opacity="1.0" stroke="rgb(0,0,0)"  stroke-width="3"/>
<line x1="308.7" y1="276.0" x2="276.0" y2="257.1" opacity="1.0" stroke="rgb(0,0,0)"  stroke-width="3"/>
<line x1="299.9" y1="279.2" x2="277.6" y2="266.3" opacity="1.0" stroke="rgb(0,0,0)"  stroke-width="3"/>
<line x1="276.0" y1="257.1" x2="243.3" y2="276.0" opacity="1.0" stroke="rgb(0,0,0)"  stroke-width="3"/>
<line x1="243.3" y1="276.0" x2="243.3" y2="313.7" opacity="1.0" stroke="rgb(0,0,0)"  stroke-width="3"/>
<line x1="250.5" y1="282.0" x2="250.5" y2="307.7" opacity="1.0" stroke="rgb(0,0,0)"  stroke-width="3"/>
<line x1="206.6" y1="219.6" x2="231.9" y2="191.5" opacity="1.0" stroke="rgb(0,0,0)"  stroke-width="3"/>
<line x1="231.9" y1="191.5" x2="265.0" y2="212.4" opacity="1.0" stroke="rgb(0,0,0)"  stroke-width="3"/>
<line x1="276.0" y1="232.3" x2="276.0" y2="257.1" opacity="1.0" stroke="rgb(0,0,0)"  stroke-width="3"/>
<line x1="243.3" y1="276.0" x2="221.8" y2="263.6" opacity="1.0" stroke="rgb(0,0,0)"  stroke-width="3"/>
<line x1="102.2" y1="288.2" x2="127.5" y2="316.2" opacity="1.0" stroke="rgb(0,0,0)"  stroke-width="3"/>
<line x1="127.5" y1="316.2" x2="164.4" y2="308.4" opacity="1.0" stroke="rgb(0,0,0)"  stroke-width="3"/>
<line x1="131.8" y1="307.9" x2="157.0" y2="302.6" opacity="1.0" stroke="rgb(0,0,0)"  stroke-width="3"/>
<line x1="164.4" y1="308.4" x2="176.1" y2="272.5" opacity="1.0" stroke="rgb(0,0,0)"  stroke-width="3"/>
<line x1="150.8" y1="244.4" x2="113.9" y2="252.3" opacity="1.0" stroke="rgb(0,0,0)"  stroke-width="3"/>
<line x1="113.9" y1="252.3" x2="102.2" y2="288.2" opacity="1.0" stroke="rgb(0,0,0)"  stroke-width="3"/>
<line x1="118.9" y1="260.2" x2="110.9" y2="284.7" opacity="1.0" stroke="rgb(0,0,0)"  stroke-width="3"/>
<line x1="330.1" y1="263.6" x2="308.7" y2="276.0" opacity="1.0" stroke="rgb(0,0,0)"  stroke-width="3"/>
<line x1="287.0" y1="212.4" x2="320.0" y2="191.5" opacity="1.0" stroke="rgb(0,0,0)"  stroke-width="3"/>
<line x1="320.0" y1="191.5" x2="345.3" y2="219.6" opacity="1.0" stroke="rgb(0,0,0)"  stroke-width="3"/>
<line x1="449.7" y1="288.2" x2="424.5" y2="316.2" opacity="1.0" stroke="rgb(0,0,0)"  stroke-width="3"/>
<line x1="424.5" y1="316.2" x2="387.5" y2="308.4" opacity="1.0" stroke="rgb(0,0,0)"  stroke-width="3"/>
<line x1="420.1" y1="307.9" x2="394.9" y2="302.6" opacity="1.0" stroke="rgb(0,0,0)"  stroke-width="3"/>
<line x1="387.5" y1="308.4" x2="375.9" y2="272.5" opacity="1.0" stroke="rgb(0,0,0)"  stroke-width="3"/>
<line x1="401.1" y1="244.4" x2="438.1" y2="252.3" opacity="1.0" stroke="rgb(0,0,0)"  stroke-width="3"/>
<line x1="438.1" y1="252.3" x2="449.7" y2="288.2" opacity="1.0" stroke="rgb(0,0,0)"  stroke-width="3"/>
<line x1="433.1" y1="260.2" x2="441.0" y2="284.7" opacity="1.0" stroke="rgb(0,0,0)"  stroke-width="3"/>
<line x1="368.6" y1="147.7" x2="331.7" y2="155.6" opacity="1.0" stroke="rgb(0,0,0)"  stroke-width="3"/>
<line x1="331.7" y1="155.6" x2="320.0" y2="191.5" opacity="1.0" stroke="rgb(0,0,0)"  stroke-width="3"/>
<line x1="336.7" y1="163.5" x2="328.7" y2="188.0" opacity="1.0" stroke="rgb(0,0,0)"  stroke-width="3"/>
<line x1="382.2" y1="211.7" x2="393.9" y2="175.8" opacity="1.0" stroke="rgb(0,0,0)"  stroke-width="3"/>
<line x1="393.9" y1="175.8" x2="368.6" y2="147.7" opacity="1.0" stroke="rgb(0,0,0)"  stroke-width="3"/>
<line x1="384.5" y1="176.2" x2="367.3" y2="157.0" opacity="1.0" stroke="rgb(0,0,0)"  stroke-width="3"/>
<line x1="169.7" y1="211.7" x2="158.0" y2="175.8" opacity="1.0" stroke="rgb(0,0,0)"  stroke-width="3"/>
<line x1="158.0" y1="175.8" x2="183.3" y2="147.7" opacity="1.0" stroke="rgb(0,0,0)"  stroke-width="3"/>
<line x1="167.4" y1="176.2" x2="184.6" y2="157.0" opacity="1.0" stroke="rgb(0,0,0)"  stroke-width="3"/>
<line x1="183.3" y1="147.7" x2="220.2" y2="155.6" opacity="1.0" stroke="rgb(0,0,0)"  stroke-width="3"/>
<line x1="220.2" y1="155.6" x2="231.9" y2="191.5" opacity="1.0" stroke="rgb(0,0,0)"  stroke-width="3"/>
<line x1="215.2" y1="163.5" x2="223.2" y2="188.0" opacity="1.0" stroke="rgb(0,0,0)"  stroke-width="3"/>
<line x1="124.8" y1="349.5" x2="92.1" y2="368.4" opacity="1.0" stroke="rgb(0,0,0)"  stroke-width="3"/>
<line x1="123.3" y1="358.8" x2="100.9" y2="371.7" opacity="1.0" stroke="rgb(0,0,0)"  stroke-width="3"/>
<line x1="92.1" y1="368.4" x2="92.1" y2="406.2" opacity="1.0" stroke="rgb(0,0,0)"  stroke-width="3"/>
<line x1="92.1" y1="406.2" x2="124.8" y2="425.1" opacity="1.0" stroke="rgb(0,0,0)"  stroke-width="3"/>
<line x1="100.9" y1="402.9" x2="123.3" y2="415.8" opacity="1.0" stroke="rgb(0,0,0)"  stroke-width="3"/>
<line x1="124.8" y1="425.1" x2="157.5" y2="406.2" opacity="1.0" stroke="rgb(0,0,0)"  stroke-width="3"/>
<line x1="157.5" y1="406.2" x2="157.5" y2="368.4" opacity="1.0" stroke="rgb(0,0,0)"  stroke-width="3"/>
<line x1="150.3" y1="400.2" x2="150.3" y2="374.4" opacity="1.0" stroke="rgb(0,0,0)"  stroke-width="3"/>
<line x1="157.5" y1="368.4" x2="124.8" y2="349.5" opacity="1.0" stroke="rgb(0,0,0)"  stroke-width="3"/>
<line x1="268.6" y1="425.7" x2="253.2" y2="391.2" opacity="1.0" stroke="rgb(0,0,0)"  stroke-width="3"/>
<line x1="259.5" y1="423.2" x2="249.1" y2="399.7" opacity="1.0" stroke="rgb(0,0,0)"  stroke-width="3"/>
<line x1="253.2" y1="391.2" x2="215.7" y2="387.3" opacity="1.0" stroke="rgb(0,0,0)"  stroke-width="3"/>
<line x1="215.7" y1="387.3" x2="193.5" y2="417.8" opacity="1.0" stroke="rgb(0,0,0)"  stroke-width="3"/>
<line x1="218.0" y1="396.4" x2="202.8" y2="417.2" opacity="1.0" stroke="rgb(0,0,0)"  stroke-width="3"/>
<line x1="193.5" y1="417.8" x2="208.8" y2="452.3" opacity="1.0" stroke="rgb(0,0,0)"  stroke-width="3"/>
<line x1="208.8" y1="452.3" x2="246.4" y2="456.3" opacity="1.0" stroke="rgb(0,0,0)"  stroke-width="3"/>
<line x1="215.5" y1="445.8" x2="241.2" y2="448.5" opacity="1.0" stroke="rgb(0,0,0)"  stroke-width="3"/>
<line x1="246.4" y1="456.3" x2="268.6" y2="425.7" opacity="1.0" stroke="rgb(0,0,0)"  stroke-width="3"/>
<line x1="293.4" y1="452.7" x2="280.9" y2="488.4" opacity="1.0" stroke="rgb(0,0,0)"  stroke-width="3"/>
<line x1="298.2" y1="460.8" x2="289.7" y2="485.1" opacity="1.0" stroke="rgb(0,0,0)"  stroke-width="3"/>
<line x1="280.9" y1="488.4" x2="305.5" y2="517.0" opacity="1.0" stroke="rgb(0,0,0)"  stroke-width="3"/>
<line x1="305.5" y1="517.0" x2="342.6" y2="510.0" opacity="1.0" stroke="rgb(0,0,0)"  stroke-width="3"/>
<line x1="310.1" y1="508.8" x2="335.4" y2="504.1" opacity="1.0" stroke="rgb(0,0,0)"  stroke-width="3"/>
<line x1="342.6" y1="510.0" x2="355.1" y2="474.4" opacity="1.0" stroke="rgb(0,0,0)"  stroke-width="3"/>
<line x1="355.1" y1="474.4" x2="330.5" y2="445.8" opacity="1.0" stroke="rgb(0,0,0)"  stroke-width="3"/>
<line x1="345.8" y1="474.5" x2="329.0" y2="455.0" opacity="1.0" stroke="rgb(0,0,0)"  stroke-width="3"/>
<line x1="330.5" y1="445.8" x2="293.4" y2="452.7" opacity="1.0" stroke="rgb(0,0,0)"  stroke-width="3"/>
<line x1="452.1" y1="416.9" x2="418.0" y2="400.8" opacity="1.0" stroke="rgb(0,0,0)"  stroke-width="3"/>
<line x1="443.6" y1="420.8" x2="420.3" y2="409.8" opacity="1.0" stroke="rgb(0,0,0)"  stroke-width="3"/>
<line x1="418.0" y1="400.8" x2="386.9" y2="422.2" opacity="1.0" stroke="rgb(0,0,0)"  stroke-width="3"/>
<line x1="386.9" y1="422.2" x2="390.0" y2="459.9" opacity="1.0" stroke="rgb(0,0,0)"  stroke-width="3"/>
<line x1="394.6" y1="427.6" x2="396.7" y2="453.3" opacity="1.0" stroke="rgb(0,0,0)"  stroke-width="3"/>
<line x1="390.0" y1="459.9" x2="424.1" y2="476.0" opacity="1.0" stroke="rgb(0,0,0)"  stroke-width="3"/>
<line x1="424.1" y1="476.0" x2="455.2" y2="454.5" opacity="1.0" stroke="rgb(0,0,0)"  stroke-width="3"/>
<line x1="425.0" y1="466.7" x2="446.1" y2="452.0" opacity="1.0" stroke="rgb(0,0,0)"  stroke-width="3"/>
<line x1="455.2" y1="454.5" x2="452.1" y2="416.9" opacity="1.0" stroke="rgb(0,0,0)"  stroke-width="3"/>
<line x1="196.9" y1="83.8" x2="185.2" y2="47.9" opacity="1.0" stroke="rgb(0,0,0)"  stroke-width="3"/>
<line x1="185.2" y1="47.9" x2="148.3" y2="40.0" opacity="1.0" stroke="rgb(0,0,0)"  stroke-width="3"/>
<line x1="177.8" y1="53.6" x2="152.6" y2="48.3" opacity="1.0" stroke="rgb(0,0,0)"  stroke-width="3"/>
<line x1="148.3" y1="40.0" x2="123.0" y2="68.1" opacity="1.0" stroke="rgb(0,0,0)"  stroke-width="3"/>
<line x1="123.0" y1="68.1" x2="134.7" y2="104.0" opacity="1.0" stroke="rgb(0,0,0)"  stroke-width="3"/>
<line x1="131.7" y1="71.5" x2="139.7" y2="96.0" opacity="1.0" stroke="rgb(0,0,0)"  stroke-width="3"/>
<line x1="134.7" y1="104.0" x2="171.6" y2="111.8" opacity="1.0" stroke="rgb(0,0,0)"  stroke-width="3"/>
<line x1="171.6" y1="111.8" x2="196.9" y2="83.8" opacity="1.0" stroke="rgb(0,0,0)"  stroke-width="3"/>
<line x1="170.3" y1="102.5" x2="187.5" y2="83.4" opacity="1.0" stroke="rgb(0,0,0)"  stroke-width="3"/>
<line x1="417.3" y1="104.0" x2="428.9" y2="68.1" opacity="1.0" stroke="rgb(0,0,0)"  stroke-width="3"/>
<line x1="428.9" y1="68.1" x2="403.7" y2="40.0" opacity="1.0" stroke="rgb(0,0,0)"  stroke-width="3"/>
<line x1="419.6" y1="68.4" x2="402.3" y2="49.3" opacity="1.0" stroke="rgb(0,0,0)"  stroke-width="3"/>
<line x1="403.7" y1="40.0" x2="366.7" y2="47.9" opacity="1.0" stroke="rgb(0,0,0)"  stroke-width="3"/>
<line x1="366.7" y1="47.9" x2="355.1" y2="83.8" opacity="1.0" stroke="rgb(0,0,0)"  stroke-width="3"/>
<line x1="371.7" y1="55.8" x2="363.8" y2="80.3" opacity="1.0" stroke="rgb(0,0,0)"  stroke-width="3"/>
<line x1="355.1" y1="83.8" x2="380.3" y2="111.8" opacity="1.0" stroke="rgb(0,0,0)"  stroke-width="3"/>
<line x1="380.3" y1="111.8" x2="417.3" y2="104.0" opacity="1.0" stroke="rgb(0,0,0)"  stroke-width="3"/>
<line x1="384.7" y1="103.5" x2="409.9" y2="98.2" opacity="1.0" stroke="rgb(0,0,0)"  stroke-width="3"/>
<line x1="157.5" y1="406.2" x2="193.5" y2="417.8" opacity="1.0" stroke="rgb(0,0,0)"  stroke-width="3"/>
<line x1="215.7" y1="387.3" x2="193.5" y2="356.8" opacity="1.0" stroke="rgb(0,0,0)"  stroke-width="3"/>
<line x1="193.5" y1="356.8" x2="157.5" y2="368.4" opacity="1.0" stroke="rgb(0,0,0)"  stroke-width="3"/>
<line x1="355.1" y1="474.4" x2="390.0" y2="459.9" opacity="1.0" stroke="rgb(0,0,0)"  stroke-width="3"/>
<line x1="386.9" y1="422.2" x2="350.2" y2="413.5" opacity="1.0" stroke="rgb(0,0,0)"  stroke-width="3"/>
<line x1="350.2" y1="413.5" x2="330.5" y2="445.8" opacity="1.0" stroke="rgb(0,0,0)"  stroke-width="3"/>
<line x1="308.7" y1="313.7" x2="350.2" y2="413.5" opacity="1.0" stroke="rgb(0,0,0)"  stroke-width="3"/>
<line x1="350.2" y1="413.5" x2="387.5" y2="308.4" opacity="1.0" stroke="rgb(0,0,0)"  stroke-width="3"/>
<line x1="164.4" y1="308.4" x2="193.5" y2="356.8" opacity="1.0" stroke="rgb(0,0,0)"  stroke-width="3"/>
<line x1="193.5" y1="356.8" x2="243.3" y2="313.7" opacity="1.0" stroke="rgb(0,0,0)"  stroke-width="3"/>
<text x="269.963878" y="227.349006" fill="rgb(255,181,181)" stroke-width="0" font-weight="bold" font-size="25.92" >B</text>
<text x="335.364798" y="265.108242" fill="rgb(12,12,255)" stroke-width="0" font-weight="bold" font-size="25.92" >N</text>
<text x="269.963878" y="378.385952" fill="rgb(127,178,255)" stroke-width="0" font-weight="bold" font-size="25.92" >F</text>
<text x="204.562958" y="265.108242" fill="rgb(12,12,255)" stroke-width="0" font-weight="bold" font-size="25.92" >N</text>
</svg>
</g>
</svg>
