<?xml version="1.0"?>
<svg version="1.1" id="topsvg"
xmlns="http://www.w3.org/2000/svg" xmlns:xlink="http://www.w3.org/1999/xlink"
xmlns:cml="http://www.xml-cml.org/schema" x="0" y="0" width="200px" height="200px" viewBox="0 0 100 100">
<title>GD414.sdf - Open Babel Depiction</title>
<rect x="0" y="0" width="100" height="100" fill="white"/>
<g transform="translate(0,0)">
<svg width="100" height="100" x="0" y="0" viewBox="0 0 567.142 481.15"
font-family="sans-serif" stroke="rgb(0,0,0)" stroke-width="3"  stroke-linecap="round">
<line x1="289.3" y1="299.0" x2="289.3" y2="337.1" opacity="1.0" stroke="rgb(0,0,0)"  stroke-width="3"/>
<line x1="196.0" y1="112.9" x2="184.3" y2="76.7" opacity="1.0" stroke="rgb(0,0,0)"  stroke-width="3"/>
<line x1="114.4" y1="254.3" x2="77.2" y2="262.2" opacity="1.0" stroke="rgb(0,0,0)"  stroke-width="3"/>
<line x1="184.3" y1="76.7" x2="174.4" y2="40.0" opacity="1.0" stroke="rgb(0,0,0)"  stroke-width="3"/>
<line x1="77.2" y1="262.2" x2="40.0" y2="270.1" opacity="1.0" stroke="rgb(0,0,0)"  stroke-width="3"/>
<line x1="65.4" y1="298.3" x2="77.2" y2="262.2" opacity="1.0" stroke="rgb(0,0,0)"  stroke-width="3"/>
<line x1="184.3" y1="76.7" x2="211.1" y2="49.8" opacity="1.0" stroke="rgb(0,0,0)"  stroke-width="3"/>
<line x1="184.3" y1="76.7" x2="147.5" y2="66.9" opacity="1.0" stroke="rgb(0,0,0)"  stroke-width="3"/>
<line x1="77.2" y1="262.2" x2="51.7" y2="233.9" opacity="1.0" stroke="rgb(0,0,0)"  stroke-width="3"/>
<line x1="394.4" y1="76.7" x2="382.7" y2="112.9" opacity="1.0" stroke="rgb(0,0,0)"  stroke-width="3"/>
<line x1="464.3" y1="254.3" x2="501.6" y2="262.2" opacity="1.0" stroke="rgb(0,0,0)"  stroke-width="3"/>
<line x1="501.6" y1="262.2" x2="513.4" y2="298.5" opacity="1.0" stroke="rgb(0,0,0)"  stroke-width="3"/>
<line x1="501.6" y1="262.2" x2="527.1" y2="233.9" opacity="1.0" stroke="rgb(0,0,0)"  stroke-width="3"/>
<line x1="501.6" y1="262.2" x2="489.8" y2="225.9" opacity="1.0" stroke="rgb(0,0,0)"  stroke-width="3"/>
<line x1="394.4" y1="76.7" x2="368.9" y2="48.4" opacity="1.0" stroke="rgb(0,0,0)"  stroke-width="3"/>
<line x1="394.4" y1="76.7" x2="431.7" y2="68.8" opacity="1.0" stroke="rgb(0,0,0)"  stroke-width="3"/>
<line x1="394.4" y1="76.7" x2="406.2" y2="40.4" opacity="1.0" stroke="rgb(0,0,0)"  stroke-width="3"/>
<line x1="163.3" y1="210.2" x2="182.3" y2="177.3" opacity="1.0" stroke="rgb(0,0,0)"  stroke-width="3"/>
<line x1="182.3" y1="177.3" x2="219.5" y2="185.2" opacity="1.0" stroke="rgb(0,0,0)"  stroke-width="3"/>
<line x1="186.7" y1="185.6" x2="212.1" y2="191.0" opacity="1.0" stroke="rgb(0,0,0)"  stroke-width="3"/>
<line x1="219.5" y1="185.2" x2="222.1" y2="210.1" opacity="1.0" stroke="rgb(0,0,0)"  stroke-width="3"/>
<line x1="211.6" y1="228.3" x2="188.8" y2="238.5" opacity="1.0" stroke="rgb(0,0,0)"  stroke-width="3"/>
<line x1="188.8" y1="238.5" x2="163.3" y2="210.2" opacity="1.0" stroke="rgb(0,0,0)"  stroke-width="3"/>
<line x1="190.1" y1="229.2" x2="172.7" y2="209.9" opacity="1.0" stroke="rgb(0,0,0)"  stroke-width="3"/>
<line x1="415.4" y1="210.2" x2="389.9" y2="238.5" opacity="1.0" stroke="rgb(0,0,0)"  stroke-width="3"/>
<line x1="406.0" y1="209.9" x2="388.6" y2="229.2" opacity="1.0" stroke="rgb(0,0,0)"  stroke-width="3"/>
<line x1="389.9" y1="238.5" x2="367.1" y2="228.3" opacity="1.0" stroke="rgb(0,0,0)"  stroke-width="3"/>
<line x1="356.5" y1="210.1" x2="359.2" y2="185.2" opacity="1.0" stroke="rgb(0,0,0)"  stroke-width="3"/>
<line x1="359.2" y1="185.2" x2="396.3" y2="177.3" opacity="1.0" stroke="rgb(0,0,0)"  stroke-width="3"/>
<line x1="366.5" y1="191.0" x2="392.0" y2="185.6" opacity="1.0" stroke="rgb(0,0,0)"  stroke-width="3"/>
<line x1="396.3" y1="177.3" x2="415.4" y2="210.2" opacity="1.0" stroke="rgb(0,0,0)"  stroke-width="3"/>
<line x1="256.4" y1="356.1" x2="289.3" y2="337.1" opacity="1.0" stroke="rgb(0,0,0)"  stroke-width="3"/>
<line x1="265.2" y1="359.3" x2="287.7" y2="346.3" opacity="1.0" stroke="rgb(0,0,0)"  stroke-width="3"/>
<line x1="289.3" y1="337.1" x2="322.3" y2="356.1" opacity="1.0" stroke="rgb(0,0,0)"  stroke-width="3"/>
<line x1="322.3" y1="356.1" x2="322.3" y2="394.1" opacity="1.0" stroke="rgb(0,0,0)"  stroke-width="3"/>
<line x1="315.1" y1="362.1" x2="315.1" y2="388.1" opacity="1.0" stroke="rgb(0,0,0)"  stroke-width="3"/>
<line x1="322.3" y1="394.1" x2="289.3" y2="413.1" opacity="1.0" stroke="rgb(0,0,0)"  stroke-width="3"/>
<line x1="289.3" y1="413.1" x2="256.4" y2="394.1" opacity="1.0" stroke="rgb(0,0,0)"  stroke-width="3"/>
<line x1="287.7" y1="403.9" x2="265.2" y2="390.9" opacity="1.0" stroke="rgb(0,0,0)"  stroke-width="3"/>
<line x1="256.4" y1="394.1" x2="256.4" y2="356.1" opacity="1.0" stroke="rgb(0,0,0)"  stroke-width="3"/>
<line x1="256.4" y1="280.0" x2="289.3" y2="299.0" opacity="1.0" stroke="rgb(0,0,0)"  stroke-width="3"/>
<line x1="289.3" y1="299.0" x2="322.3" y2="280.0" opacity="1.0" stroke="rgb(0,0,0)"  stroke-width="3"/>
<line x1="290.9" y1="289.8" x2="313.5" y2="276.8" opacity="1.0" stroke="rgb(0,0,0)"  stroke-width="3"/>
<line x1="322.3" y1="280.0" x2="322.3" y2="242.0" opacity="1.0" stroke="rgb(0,0,0)"  stroke-width="3"/>
<line x1="322.3" y1="242.0" x2="289.3" y2="223.0" opacity="1.0" stroke="rgb(0,0,0)"  stroke-width="3"/>
<line x1="313.5" y1="245.3" x2="290.9" y2="232.2" opacity="1.0" stroke="rgb(0,0,0)"  stroke-width="3"/>
<line x1="289.3" y1="223.0" x2="256.4" y2="242.0" opacity="1.0" stroke="rgb(0,0,0)"  stroke-width="3"/>
<line x1="256.4" y1="242.0" x2="256.4" y2="280.0" opacity="1.0" stroke="rgb(0,0,0)"  stroke-width="3"/>
<line x1="263.6" y1="248.0" x2="263.6" y2="274.0" opacity="1.0" stroke="rgb(0,0,0)"  stroke-width="3"/>
<line x1="219.5" y1="185.2" x2="245.0" y2="156.9" opacity="1.0" stroke="rgb(0,0,0)"  stroke-width="3"/>
<line x1="245.0" y1="156.9" x2="278.3" y2="178.0" opacity="1.0" stroke="rgb(0,0,0)"  stroke-width="3"/>
<line x1="289.3" y1="198.0" x2="289.3" y2="223.0" opacity="1.0" stroke="rgb(0,0,0)"  stroke-width="3"/>
<line x1="256.4" y1="242.0" x2="234.7" y2="229.5" opacity="1.0" stroke="rgb(0,0,0)"  stroke-width="3"/>
<line x1="343.9" y1="229.5" x2="322.3" y2="242.0" opacity="1.0" stroke="rgb(0,0,0)"  stroke-width="3"/>
<line x1="300.3" y1="178.0" x2="333.7" y2="156.9" opacity="1.0" stroke="rgb(0,0,0)"  stroke-width="3"/>
<line x1="333.7" y1="156.9" x2="359.2" y2="185.2" opacity="1.0" stroke="rgb(0,0,0)"  stroke-width="3"/>
<line x1="114.4" y1="254.3" x2="139.8" y2="282.5" opacity="1.0" stroke="rgb(0,0,0)"  stroke-width="3"/>
<line x1="139.8" y1="282.5" x2="177.0" y2="274.6" opacity="1.0" stroke="rgb(0,0,0)"  stroke-width="3"/>
<line x1="144.2" y1="274.2" x2="169.6" y2="268.8" opacity="1.0" stroke="rgb(0,0,0)"  stroke-width="3"/>
<line x1="177.0" y1="274.6" x2="188.8" y2="238.5" opacity="1.0" stroke="rgb(0,0,0)"  stroke-width="3"/>
<line x1="163.3" y1="210.2" x2="126.1" y2="218.1" opacity="1.0" stroke="rgb(0,0,0)"  stroke-width="3"/>
<line x1="126.1" y1="218.1" x2="114.4" y2="254.3" opacity="1.0" stroke="rgb(0,0,0)"  stroke-width="3"/>
<line x1="131.1" y1="226.1" x2="123.1" y2="250.8" opacity="1.0" stroke="rgb(0,0,0)"  stroke-width="3"/>
<line x1="464.3" y1="254.3" x2="438.9" y2="282.5" opacity="1.0" stroke="rgb(0,0,0)"  stroke-width="3"/>
<line x1="438.9" y1="282.5" x2="401.7" y2="274.6" opacity="1.0" stroke="rgb(0,0,0)"  stroke-width="3"/>
<line x1="434.5" y1="274.2" x2="409.0" y2="268.8" opacity="1.0" stroke="rgb(0,0,0)"  stroke-width="3"/>
<line x1="401.7" y1="274.6" x2="389.9" y2="238.5" opacity="1.0" stroke="rgb(0,0,0)"  stroke-width="3"/>
<line x1="415.4" y1="210.2" x2="452.5" y2="218.1" opacity="1.0" stroke="rgb(0,0,0)"  stroke-width="3"/>
<line x1="452.5" y1="218.1" x2="464.3" y2="254.3" opacity="1.0" stroke="rgb(0,0,0)"  stroke-width="3"/>
<line x1="447.6" y1="226.1" x2="455.6" y2="250.8" opacity="1.0" stroke="rgb(0,0,0)"  stroke-width="3"/>
<line x1="382.7" y1="112.9" x2="345.5" y2="120.8" opacity="1.0" stroke="rgb(0,0,0)"  stroke-width="3"/>
<line x1="345.5" y1="120.8" x2="333.7" y2="156.9" opacity="1.0" stroke="rgb(0,0,0)"  stroke-width="3"/>
<line x1="350.5" y1="128.7" x2="342.4" y2="153.5" opacity="1.0" stroke="rgb(0,0,0)"  stroke-width="3"/>
<line x1="396.3" y1="177.3" x2="408.1" y2="141.1" opacity="1.0" stroke="rgb(0,0,0)"  stroke-width="3"/>
<line x1="408.1" y1="141.1" x2="382.7" y2="112.9" opacity="1.0" stroke="rgb(0,0,0)"  stroke-width="3"/>
<line x1="398.7" y1="141.5" x2="381.3" y2="122.2" opacity="1.0" stroke="rgb(0,0,0)"  stroke-width="3"/>
<line x1="182.3" y1="177.3" x2="170.6" y2="141.1" opacity="1.0" stroke="rgb(0,0,0)"  stroke-width="3"/>
<line x1="170.6" y1="141.1" x2="196.0" y2="112.9" opacity="1.0" stroke="rgb(0,0,0)"  stroke-width="3"/>
<line x1="179.9" y1="141.5" x2="197.3" y2="122.2" opacity="1.0" stroke="rgb(0,0,0)"  stroke-width="3"/>
<line x1="196.0" y1="112.9" x2="233.2" y2="120.8" opacity="1.0" stroke="rgb(0,0,0)"  stroke-width="3"/>
<line x1="233.2" y1="120.8" x2="245.0" y2="156.9" opacity="1.0" stroke="rgb(0,0,0)"  stroke-width="3"/>
<line x1="228.2" y1="128.7" x2="236.2" y2="153.5" opacity="1.0" stroke="rgb(0,0,0)"  stroke-width="3"/>
<line x1="271.9" y1="409.8" x2="255.6" y2="375.5" opacity="1.0" stroke="rgb(0,0,0)"  stroke-width="3"/>
<line x1="262.8" y1="407.5" x2="251.7" y2="384.0" opacity="1.0" stroke="rgb(0,0,0)"  stroke-width="3"/>
<line x1="255.6" y1="375.5" x2="217.7" y2="372.8" opacity="1.0" stroke="rgb(0,0,0)"  stroke-width="3"/>
<line x1="217.7" y1="372.8" x2="196.8" y2="404.6" opacity="1.0" stroke="rgb(0,0,0)"  stroke-width="3"/>
<line x1="220.4" y1="381.8" x2="206.1" y2="403.5" opacity="1.0" stroke="rgb(0,0,0)"  stroke-width="3"/>
<line x1="196.8" y1="404.6" x2="213.1" y2="438.5" opacity="1.0" stroke="rgb(0,0,0)"  stroke-width="3"/>
<line x1="213.1" y1="438.5" x2="251.0" y2="441.2" opacity="1.0" stroke="rgb(0,0,0)"  stroke-width="3"/>
<line x1="219.6" y1="431.7" x2="245.5" y2="433.5" opacity="1.0" stroke="rgb(0,0,0)"  stroke-width="3"/>
<line x1="251.0" y1="441.2" x2="271.9" y2="409.8" opacity="1.0" stroke="rgb(0,0,0)"  stroke-width="3"/>
<line x1="94.4" y1="397.5" x2="128.1" y2="415.0" opacity="1.0" stroke="rgb(0,0,0)"  stroke-width="3"/>
<line x1="103.0" y1="393.8" x2="126.1" y2="405.8" opacity="1.0" stroke="rgb(0,0,0)"  stroke-width="3"/>
<line x1="128.1" y1="415.0" x2="160.1" y2="394.5" opacity="1.0" stroke="rgb(0,0,0)"  stroke-width="3"/>
<line x1="160.1" y1="394.5" x2="158.4" y2="356.5" opacity="1.0" stroke="rgb(0,0,0)"  stroke-width="3"/>
<line x1="152.7" y1="388.8" x2="151.5" y2="362.8" opacity="1.0" stroke="rgb(0,0,0)"  stroke-width="3"/>
<line x1="158.4" y1="356.5" x2="124.6" y2="339.0" opacity="1.0" stroke="rgb(0,0,0)"  stroke-width="3"/>
<line x1="124.6" y1="339.0" x2="92.6" y2="359.5" opacity="1.0" stroke="rgb(0,0,0)"  stroke-width="3"/>
<line x1="123.5" y1="348.3" x2="101.6" y2="362.3" opacity="1.0" stroke="rgb(0,0,0)"  stroke-width="3"/>
<line x1="92.6" y1="359.5" x2="94.4" y2="397.5" opacity="1.0" stroke="rgb(0,0,0)"  stroke-width="3"/>
<line x1="308.9" y1="435.5" x2="346.9" y2="437.2" opacity="1.0" stroke="rgb(0,0,0)"  stroke-width="3"/>
<line x1="315.2" y1="428.6" x2="341.2" y2="429.8" opacity="1.0" stroke="rgb(0,0,0)"  stroke-width="3"/>
<line x1="346.9" y1="437.2" x2="367.6" y2="405.4" opacity="1.0" stroke="rgb(0,0,0)"  stroke-width="3"/>
<line x1="367.6" y1="405.4" x2="349.8" y2="371.8" opacity="1.0" stroke="rgb(0,0,0)"  stroke-width="3"/>
<line x1="358.5" y1="403.5" x2="346.3" y2="380.5" opacity="1.0" stroke="rgb(0,0,0)"  stroke-width="3"/>
<line x1="349.8" y1="371.8" x2="311.8" y2="370.1" opacity="1.0" stroke="rgb(0,0,0)"  stroke-width="3"/>
<line x1="311.8" y1="370.1" x2="291.7" y2="402.0" opacity="1.0" stroke="rgb(0,0,0)"  stroke-width="3"/>
<line x1="314.7" y1="379.0" x2="301.0" y2="400.8" opacity="1.0" stroke="rgb(0,0,0)"  stroke-width="3"/>
<line x1="291.7" y1="402.0" x2="308.9" y2="435.5" opacity="1.0" stroke="rgb(0,0,0)"  stroke-width="3"/>
<line x1="475.6" y1="370.4" x2="445.6" y2="346.9" opacity="1.0" stroke="rgb(0,0,0)"  stroke-width="3"/>
<line x1="466.4" y1="372.3" x2="445.9" y2="356.3" opacity="1.0" stroke="rgb(0,0,0)"  stroke-width="3"/>
<line x1="445.6" y1="346.9" x2="410.4" y2="361.2" opacity="1.0" stroke="rgb(0,0,0)"  stroke-width="3"/>
<line x1="410.4" y1="361.2" x2="405.1" y2="398.8" opacity="1.0" stroke="rgb(0,0,0)"  stroke-width="3"/>
<line x1="416.7" y1="368.1" x2="413.0" y2="393.9" opacity="1.0" stroke="rgb(0,0,0)"  stroke-width="3"/>
<line x1="405.1" y1="398.8" x2="435.0" y2="422.2" opacity="1.0" stroke="rgb(0,0,0)"  stroke-width="3"/>
<line x1="435.0" y1="422.2" x2="470.3" y2="408.0" opacity="1.0" stroke="rgb(0,0,0)"  stroke-width="3"/>
<line x1="437.9" y1="413.3" x2="462.0" y2="403.6" opacity="1.0" stroke="rgb(0,0,0)"  stroke-width="3"/>
<line x1="470.3" y1="408.0" x2="475.6" y2="370.4" opacity="1.0" stroke="rgb(0,0,0)"  stroke-width="3"/>
<line x1="160.1" y1="394.5" x2="196.8" y2="404.6" opacity="1.0" stroke="rgb(0,0,0)"  stroke-width="3"/>
<line x1="217.7" y1="372.8" x2="194.0" y2="343.1" opacity="1.0" stroke="rgb(0,0,0)"  stroke-width="3"/>
<line x1="194.0" y1="343.1" x2="158.4" y2="356.5" opacity="1.0" stroke="rgb(0,0,0)"  stroke-width="3"/>
<line x1="367.6" y1="405.4" x2="405.1" y2="398.8" opacity="1.0" stroke="rgb(0,0,0)"  stroke-width="3"/>
<line x1="410.4" y1="361.2" x2="376.2" y2="344.5" opacity="1.0" stroke="rgb(0,0,0)"  stroke-width="3"/>
<line x1="376.2" y1="344.5" x2="349.8" y2="371.8" opacity="1.0" stroke="rgb(0,0,0)"  stroke-width="3"/>
<line x1="322.3" y1="280.0" x2="376.2" y2="344.5" opacity="1.0" stroke="rgb(0,0,0)"  stroke-width="3"/>
<line x1="376.2" y1="344.5" x2="401.7" y2="274.6" opacity="1.0" stroke="rgb(0,0,0)"  stroke-width="3"/>
<line x1="177.0" y1="274.6" x2="194.0" y2="343.1" opacity="1.0" stroke="rgb(0,0,0)"  stroke-width="3"/>
<line x1="194.0" y1="343.1" x2="256.4" y2="280.0" opacity="1.0" stroke="rgb(0,0,0)"  stroke-width="3"/>
<text x="349.186949" y="231.009177" fill="rgb(12,12,255)" stroke-width="0" font-weight="bold" font-size="25.92" >N</text>
<text x="217.485122" y="231.009177" fill="rgb(12,12,255)" stroke-width="0" font-weight="bold" font-size="25.92" >N</text>
<text x="283.336059" y="192.990112" fill="rgb(255,181,181)" stroke-width="0" font-weight="bold" font-size="25.92" >B</text>
</svg>
</g>
</svg>
