<?xml version="1.0"?>
<svg version="1.1" id="topsvg"
xmlns="http://www.w3.org/2000/svg" xmlns:xlink="http://www.w3.org/1999/xlink"
xmlns:cml="http://www.xml-cml.org/schema" x="0" y="0" width="200px" height="200px" viewBox="0 0 100 100">
<title>GD416.sdf - Open Babel Depiction</title>
<rect x="0" y="0" width="100" height="100" fill="white"/>
<g transform="translate(0,0)">
<svg width="100" height="100" x="0" y="0" viewBox="0 0 610.943 608.551"
font-family="sans-serif" stroke="rgb(0,0,0)" stroke-width="3"  stroke-linecap="round">
<line x1="205.9" y1="231.6" x2="205.9" y2="181.8" opacity="1.0" stroke="rgb(0,0,0)"  stroke-width="3"/>
<line x1="205.9" y1="181.8" x2="239.1" y2="162.6" opacity="1.0" stroke="rgb(0,0,0)"  stroke-width="3"/>
<line x1="205.9" y1="181.8" x2="172.7" y2="162.6" opacity="1.0" stroke="rgb(0,0,0)"  stroke-width="3"/>
<line x1="205.9" y1="181.8" x2="205.9" y2="143.5" opacity="1.0" stroke="rgb(0,0,0)"  stroke-width="3"/>
<line x1="106.4" y1="404.0" x2="73.2" y2="423.2" opacity="1.0" stroke="rgb(0,0,0)"  stroke-width="3"/>
<line x1="73.2" y1="423.2" x2="40.0" y2="442.3" opacity="1.0" stroke="rgb(0,0,0)"  stroke-width="3"/>
<line x1="73.2" y1="423.2" x2="40.0" y2="404.0" opacity="1.0" stroke="rgb(0,0,0)"  stroke-width="3"/>
<line x1="73.2" y1="423.2" x2="73.2" y2="461.5" opacity="1.0" stroke="rgb(0,0,0)"  stroke-width="3"/>
<line x1="504.6" y1="289.1" x2="537.8" y2="308.2" opacity="1.0" stroke="rgb(0,0,0)"  stroke-width="3"/>
<line x1="537.8" y1="308.2" x2="537.8" y2="346.5" opacity="1.0" stroke="rgb(0,0,0)"  stroke-width="3"/>
<line x1="537.8" y1="308.2" x2="570.9" y2="289.1" opacity="1.0" stroke="rgb(0,0,0)"  stroke-width="3"/>
<line x1="537.8" y1="308.2" x2="570.9" y2="327.4" opacity="1.0" stroke="rgb(0,0,0)"  stroke-width="3"/>
<line x1="405.0" y1="116.6" x2="405.0" y2="78.3" opacity="1.0" stroke="rgb(0,0,0)"  stroke-width="3"/>
<line x1="405.0" y1="78.3" x2="405.0" y2="40.0" opacity="1.0" stroke="rgb(0,0,0)"  stroke-width="3"/>
<line x1="405.0" y1="78.3" x2="438.2" y2="59.2" opacity="1.0" stroke="rgb(0,0,0)"  stroke-width="3"/>
<line x1="405.0" y1="78.3" x2="371.8" y2="59.2" opacity="1.0" stroke="rgb(0,0,0)"  stroke-width="3"/>
<line x1="139.6" y1="346.5" x2="172.7" y2="289.1" opacity="1.0" stroke="rgb(0,0,0)"  stroke-width="3"/>
<line x1="172.7" y1="289.1" x2="205.9" y2="308.2" opacity="1.0" stroke="rgb(0,0,0)"  stroke-width="3"/>
<line x1="174.3" y1="298.3" x2="197.1" y2="311.5" opacity="1.0" stroke="rgb(0,0,0)"  stroke-width="3"/>
<line x1="205.9" y1="308.2" x2="205.9" y2="333.5" opacity="1.0" stroke="rgb(0,0,0)"  stroke-width="3"/>
<line x1="194.7" y1="353.0" x2="172.7" y2="365.7" opacity="1.0" stroke="rgb(0,0,0)"  stroke-width="3"/>
<line x1="172.7" y1="365.7" x2="139.6" y2="346.5" opacity="1.0" stroke="rgb(0,0,0)"  stroke-width="3"/>
<line x1="171.1" y1="356.5" x2="148.3" y2="343.3" opacity="1.0" stroke="rgb(0,0,0)"  stroke-width="3"/>
<line x1="438.2" y1="174.1" x2="471.4" y2="231.6" opacity="1.0" stroke="rgb(0,0,0)"  stroke-width="3"/>
<line x1="471.4" y1="231.6" x2="438.2" y2="250.7" opacity="1.0" stroke="rgb(0,0,0)"  stroke-width="3"/>
<line x1="462.6" y1="228.4" x2="439.8" y2="241.5" opacity="1.0" stroke="rgb(0,0,0)"  stroke-width="3"/>
<line x1="438.2" y1="250.7" x2="416.3" y2="238.1" opacity="1.0" stroke="rgb(0,0,0)"  stroke-width="3"/>
<line x1="405.0" y1="218.6" x2="405.0" y2="193.3" opacity="1.0" stroke="rgb(0,0,0)"  stroke-width="3"/>
<line x1="405.0" y1="193.3" x2="438.2" y2="174.1" opacity="1.0" stroke="rgb(0,0,0)"  stroke-width="3"/>
<line x1="413.8" y1="196.5" x2="436.6" y2="183.3" opacity="1.0" stroke="rgb(0,0,0)"  stroke-width="3"/>
<line x1="239.1" y1="404.0" x2="272.3" y2="423.2" opacity="1.0" stroke="rgb(0,0,0)"  stroke-width="3"/>
<line x1="272.3" y1="423.2" x2="305.5" y2="404.0" opacity="1.0" stroke="rgb(0,0,0)"  stroke-width="3"/>
<line x1="273.9" y1="413.9" x2="296.7" y2="400.8" opacity="1.0" stroke="rgb(0,0,0)"  stroke-width="3"/>
<line x1="305.5" y1="404.0" x2="305.5" y2="365.7" opacity="1.0" stroke="rgb(0,0,0)"  stroke-width="3"/>
<line x1="305.5" y1="365.7" x2="272.3" y2="346.5" opacity="1.0" stroke="rgb(0,0,0)"  stroke-width="3"/>
<line x1="296.7" y1="368.9" x2="273.9" y2="355.8" opacity="1.0" stroke="rgb(0,0,0)"  stroke-width="3"/>
<line x1="272.3" y1="346.5" x2="239.1" y2="365.7" opacity="1.0" stroke="rgb(0,0,0)"  stroke-width="3"/>
<line x1="239.1" y1="365.7" x2="239.1" y2="404.0" opacity="1.0" stroke="rgb(0,0,0)"  stroke-width="3"/>
<line x1="246.3" y1="371.7" x2="246.3" y2="398.0" opacity="1.0" stroke="rgb(0,0,0)"  stroke-width="3"/>
<line x1="205.9" y1="308.2" x2="239.1" y2="289.1" opacity="1.0" stroke="rgb(0,0,0)"  stroke-width="3"/>
<line x1="239.1" y1="289.1" x2="261.0" y2="301.7" opacity="1.0" stroke="rgb(0,0,0)"  stroke-width="3"/>
<line x1="272.3" y1="321.2" x2="272.3" y2="346.5" opacity="1.0" stroke="rgb(0,0,0)"  stroke-width="3"/>
<line x1="239.1" y1="365.7" x2="217.2" y2="353.0" opacity="1.0" stroke="rgb(0,0,0)"  stroke-width="3"/>
<line x1="438.2" y1="365.7" x2="405.0" y2="346.5" opacity="1.0" stroke="rgb(0,0,0)"  stroke-width="3"/>
<line x1="429.4" y1="368.9" x2="406.6" y2="355.8" opacity="1.0" stroke="rgb(0,0,0)"  stroke-width="3"/>
<line x1="405.0" y1="346.5" x2="371.8" y2="365.7" opacity="1.0" stroke="rgb(0,0,0)"  stroke-width="3"/>
<line x1="371.8" y1="365.7" x2="371.8" y2="404.0" opacity="1.0" stroke="rgb(0,0,0)"  stroke-width="3"/>
<line x1="379.0" y1="371.7" x2="379.0" y2="398.0" opacity="1.0" stroke="rgb(0,0,0)"  stroke-width="3"/>
<line x1="371.8" y1="404.0" x2="405.0" y2="423.2" opacity="1.0" stroke="rgb(0,0,0)"  stroke-width="3"/>
<line x1="405.0" y1="423.2" x2="438.2" y2="404.0" opacity="1.0" stroke="rgb(0,0,0)"  stroke-width="3"/>
<line x1="406.6" y1="413.9" x2="429.4" y2="400.8" opacity="1.0" stroke="rgb(0,0,0)"  stroke-width="3"/>
<line x1="438.2" y1="404.0" x2="438.2" y2="365.7" opacity="1.0" stroke="rgb(0,0,0)"  stroke-width="3"/>
<line x1="106.4" y1="404.0" x2="139.6" y2="423.2" opacity="1.0" stroke="rgb(0,0,0)"  stroke-width="3"/>
<line x1="139.6" y1="423.2" x2="172.7" y2="404.0" opacity="1.0" stroke="rgb(0,0,0)"  stroke-width="3"/>
<line x1="141.1" y1="413.9" x2="163.9" y2="400.8" opacity="1.0" stroke="rgb(0,0,0)"  stroke-width="3"/>
<line x1="172.7" y1="404.0" x2="172.7" y2="365.7" opacity="1.0" stroke="rgb(0,0,0)"  stroke-width="3"/>
<line x1="139.6" y1="346.5" x2="106.4" y2="365.7" opacity="1.0" stroke="rgb(0,0,0)"  stroke-width="3"/>
<line x1="106.4" y1="365.7" x2="106.4" y2="404.0" opacity="1.0" stroke="rgb(0,0,0)"  stroke-width="3"/>
<line x1="113.6" y1="371.7" x2="113.6" y2="398.0" opacity="1.0" stroke="rgb(0,0,0)"  stroke-width="3"/>
<line x1="338.7" y1="308.2" x2="338.7" y2="333.5" opacity="1.0" stroke="rgb(0,0,0)"  stroke-width="3"/>
<line x1="327.4" y1="353.0" x2="305.5" y2="365.7" opacity="1.0" stroke="rgb(0,0,0)"  stroke-width="3"/>
<line x1="283.5" y1="301.7" x2="305.5" y2="289.1" opacity="1.0" stroke="rgb(0,0,0)"  stroke-width="3"/>
<line x1="305.5" y1="289.1" x2="338.7" y2="308.2" opacity="1.0" stroke="rgb(0,0,0)"  stroke-width="3"/>
<line x1="405.0" y1="321.2" x2="405.0" y2="346.5" opacity="1.0" stroke="rgb(0,0,0)"  stroke-width="3"/>
<line x1="371.8" y1="365.7" x2="349.9" y2="353.0" opacity="1.0" stroke="rgb(0,0,0)"  stroke-width="3"/>
<line x1="338.7" y1="308.2" x2="371.8" y2="289.1" opacity="1.0" stroke="rgb(0,0,0)"  stroke-width="3"/>
<line x1="347.5" y1="311.5" x2="370.2" y2="298.3" opacity="1.0" stroke="rgb(0,0,0)"  stroke-width="3"/>
<line x1="371.8" y1="289.1" x2="393.8" y2="301.7" opacity="1.0" stroke="rgb(0,0,0)"  stroke-width="3"/>
<line x1="172.7" y1="289.1" x2="172.7" y2="250.7" opacity="1.0" stroke="rgb(0,0,0)"  stroke-width="3"/>
<line x1="172.7" y1="250.7" x2="205.9" y2="231.6" opacity="1.0" stroke="rgb(0,0,0)"  stroke-width="3"/>
<line x1="181.5" y1="254.0" x2="204.3" y2="240.8" opacity="1.0" stroke="rgb(0,0,0)"  stroke-width="3"/>
<line x1="205.9" y1="231.6" x2="239.1" y2="250.7" opacity="1.0" stroke="rgb(0,0,0)"  stroke-width="3"/>
<line x1="239.1" y1="250.7" x2="239.1" y2="289.1" opacity="1.0" stroke="rgb(0,0,0)"  stroke-width="3"/>
<line x1="231.9" y1="256.7" x2="231.9" y2="283.1" opacity="1.0" stroke="rgb(0,0,0)"  stroke-width="3"/>
<line x1="273.0" y1="522.0" x2="254.6" y2="488.4" opacity="1.0" stroke="rgb(0,0,0)"  stroke-width="3"/>
<line x1="263.8" y1="520.2" x2="251.1" y2="497.2" opacity="1.0" stroke="rgb(0,0,0)"  stroke-width="3"/>
<line x1="254.6" y1="488.4" x2="216.3" y2="487.6" opacity="1.0" stroke="rgb(0,0,0)"  stroke-width="3"/>
<line x1="216.3" y1="487.6" x2="196.4" y2="520.4" opacity="1.0" stroke="rgb(0,0,0)"  stroke-width="3"/>
<line x1="219.3" y1="496.5" x2="205.7" y2="519.0" opacity="1.0" stroke="rgb(0,0,0)"  stroke-width="3"/>
<line x1="196.4" y1="520.4" x2="214.8" y2="554.0" opacity="1.0" stroke="rgb(0,0,0)"  stroke-width="3"/>
<line x1="214.8" y1="554.0" x2="253.1" y2="554.8" opacity="1.0" stroke="rgb(0,0,0)"  stroke-width="3"/>
<line x1="221.0" y1="546.9" x2="247.3" y2="547.5" opacity="1.0" stroke="rgb(0,0,0)"  stroke-width="3"/>
<line x1="253.1" y1="554.8" x2="273.0" y2="522.0" opacity="1.0" stroke="rgb(0,0,0)"  stroke-width="3"/>
<line x1="93.0" y1="517.1" x2="127.6" y2="533.5" opacity="1.0" stroke="rgb(0,0,0)"  stroke-width="3"/>
<line x1="101.5" y1="513.2" x2="125.3" y2="524.4" opacity="1.0" stroke="rgb(0,0,0)"  stroke-width="3"/>
<line x1="127.6" y1="533.5" x2="159.1" y2="511.6" opacity="1.0" stroke="rgb(0,0,0)"  stroke-width="3"/>
<line x1="159.1" y1="511.6" x2="155.9" y2="473.4" opacity="1.0" stroke="rgb(0,0,0)"  stroke-width="3"/>
<line x1="151.4" y1="506.2" x2="149.2" y2="480.0" opacity="1.0" stroke="rgb(0,0,0)"  stroke-width="3"/>
<line x1="155.9" y1="473.4" x2="121.2" y2="457.1" opacity="1.0" stroke="rgb(0,0,0)"  stroke-width="3"/>
<line x1="121.2" y1="457.1" x2="89.8" y2="478.9" opacity="1.0" stroke="rgb(0,0,0)"  stroke-width="3"/>
<line x1="120.4" y1="466.4" x2="98.8" y2="481.4" opacity="1.0" stroke="rgb(0,0,0)"  stroke-width="3"/>
<line x1="89.8" y1="478.9" x2="93.0" y2="517.1" opacity="1.0" stroke="rgb(0,0,0)"  stroke-width="3"/>
<line x1="371.8" y1="250.7" x2="338.7" y2="231.6" opacity="1.0" stroke="rgb(0,0,0)"  stroke-width="3"/>
<line x1="363.0" y1="254.0" x2="340.3" y2="240.8" opacity="1.0" stroke="rgb(0,0,0)"  stroke-width="3"/>
<line x1="338.7" y1="231.6" x2="305.5" y2="250.7" opacity="1.0" stroke="rgb(0,0,0)"  stroke-width="3"/>
<line x1="305.5" y1="250.7" x2="305.5" y2="289.1" opacity="1.0" stroke="rgb(0,0,0)"  stroke-width="3"/>
<line x1="312.7" y1="256.7" x2="312.7" y2="283.1" opacity="1.0" stroke="rgb(0,0,0)"  stroke-width="3"/>
<line x1="371.8" y1="289.1" x2="371.8" y2="250.7" opacity="1.0" stroke="rgb(0,0,0)"  stroke-width="3"/>
<line x1="438.2" y1="250.7" x2="438.2" y2="289.1" opacity="1.0" stroke="rgb(0,0,0)"  stroke-width="3"/>
<line x1="438.2" y1="289.1" x2="416.3" y2="301.7" opacity="1.0" stroke="rgb(0,0,0)"  stroke-width="3"/>
<line x1="371.8" y1="250.7" x2="393.8" y2="238.1" opacity="1.0" stroke="rgb(0,0,0)"  stroke-width="3"/>
<line x1="371.8" y1="135.8" x2="405.0" y2="116.6" opacity="1.0" stroke="rgb(0,0,0)"  stroke-width="3"/>
<line x1="405.0" y1="116.6" x2="438.2" y2="135.8" opacity="1.0" stroke="rgb(0,0,0)"  stroke-width="3"/>
<line x1="406.6" y1="125.9" x2="429.4" y2="139.0" opacity="1.0" stroke="rgb(0,0,0)"  stroke-width="3"/>
<line x1="438.2" y1="135.8" x2="438.2" y2="174.1" opacity="1.0" stroke="rgb(0,0,0)"  stroke-width="3"/>
<line x1="405.0" y1="193.3" x2="371.8" y2="174.1" opacity="1.0" stroke="rgb(0,0,0)"  stroke-width="3"/>
<line x1="371.8" y1="174.1" x2="371.8" y2="135.8" opacity="1.0" stroke="rgb(0,0,0)"  stroke-width="3"/>
<line x1="379.0" y1="168.1" x2="379.0" y2="141.8" opacity="1.0" stroke="rgb(0,0,0)"  stroke-width="3"/>
<line x1="471.4" y1="231.6" x2="504.6" y2="250.7" opacity="1.0" stroke="rgb(0,0,0)"  stroke-width="3"/>
<line x1="504.6" y1="250.7" x2="504.6" y2="289.1" opacity="1.0" stroke="rgb(0,0,0)"  stroke-width="3"/>
<line x1="497.4" y1="256.7" x2="497.4" y2="283.1" opacity="1.0" stroke="rgb(0,0,0)"  stroke-width="3"/>
<line x1="504.6" y1="289.1" x2="471.4" y2="308.2" opacity="1.0" stroke="rgb(0,0,0)"  stroke-width="3"/>
<line x1="471.4" y1="308.2" x2="438.2" y2="289.1" opacity="1.0" stroke="rgb(0,0,0)"  stroke-width="3"/>
<line x1="469.8" y1="299.0" x2="447.0" y2="285.8" opacity="1.0" stroke="rgb(0,0,0)"  stroke-width="3"/>
<line x1="312.9" y1="568.6" x2="350.7" y2="562.0" opacity="1.0" stroke="rgb(0,0,0)"  stroke-width="3"/>
<line x1="317.6" y1="560.4" x2="343.5" y2="555.9" opacity="1.0" stroke="rgb(0,0,0)"  stroke-width="3"/>
<line x1="350.7" y1="562.0" x2="363.9" y2="526.0" opacity="1.0" stroke="rgb(0,0,0)"  stroke-width="3"/>
<line x1="363.9" y1="526.0" x2="339.3" y2="496.6" opacity="1.0" stroke="rgb(0,0,0)"  stroke-width="3"/>
<line x1="354.5" y1="526.0" x2="337.6" y2="505.8" opacity="1.0" stroke="rgb(0,0,0)"  stroke-width="3"/>
<line x1="339.3" y1="496.6" x2="301.6" y2="503.2" opacity="1.0" stroke="rgb(0,0,0)"  stroke-width="3"/>
<line x1="301.6" y1="503.2" x2="288.4" y2="539.1" opacity="1.0" stroke="rgb(0,0,0)"  stroke-width="3"/>
<line x1="306.3" y1="511.3" x2="297.2" y2="536.0" opacity="1.0" stroke="rgb(0,0,0)"  stroke-width="3"/>
<line x1="288.4" y1="539.1" x2="312.9" y2="568.6" opacity="1.0" stroke="rgb(0,0,0)"  stroke-width="3"/>
<line x1="463.1" y1="469.1" x2="428.7" y2="452.2" opacity="1.0" stroke="rgb(0,0,0)"  stroke-width="3"/>
<line x1="454.5" y1="473.0" x2="430.9" y2="461.3" opacity="1.0" stroke="rgb(0,0,0)"  stroke-width="3"/>
<line x1="428.7" y1="452.2" x2="396.9" y2="473.6" opacity="1.0" stroke="rgb(0,0,0)"  stroke-width="3"/>
<line x1="396.9" y1="473.6" x2="399.4" y2="511.8" opacity="1.0" stroke="rgb(0,0,0)"  stroke-width="3"/>
<line x1="404.5" y1="479.1" x2="406.2" y2="505.3" opacity="1.0" stroke="rgb(0,0,0)"  stroke-width="3"/>
<line x1="399.4" y1="511.8" x2="433.8" y2="528.7" opacity="1.0" stroke="rgb(0,0,0)"  stroke-width="3"/>
<line x1="433.8" y1="528.7" x2="465.7" y2="507.4" opacity="1.0" stroke="rgb(0,0,0)"  stroke-width="3"/>
<line x1="434.8" y1="519.4" x2="456.7" y2="504.7" opacity="1.0" stroke="rgb(0,0,0)"  stroke-width="3"/>
<line x1="465.7" y1="507.4" x2="463.1" y2="469.1" opacity="1.0" stroke="rgb(0,0,0)"  stroke-width="3"/>
<line x1="159.1" y1="511.6" x2="196.4" y2="520.4" opacity="1.0" stroke="rgb(0,0,0)"  stroke-width="3"/>
<line x1="216.3" y1="487.6" x2="193.4" y2="449.3" opacity="1.0" stroke="rgb(0,0,0)"  stroke-width="3"/>
<line x1="193.4" y1="449.3" x2="155.9" y2="473.4" opacity="1.0" stroke="rgb(0,0,0)"  stroke-width="3"/>
<line x1="363.9" y1="526.0" x2="399.4" y2="511.8" opacity="1.0" stroke="rgb(0,0,0)"  stroke-width="3"/>
<line x1="396.9" y1="473.6" x2="359.7" y2="464.2" opacity="1.0" stroke="rgb(0,0,0)"  stroke-width="3"/>
<line x1="359.7" y1="464.2" x2="339.3" y2="496.6" opacity="1.0" stroke="rgb(0,0,0)"  stroke-width="3"/>
<line x1="305.5" y1="404.0" x2="359.7" y2="464.2" opacity="1.0" stroke="rgb(0,0,0)"  stroke-width="3"/>
<line x1="359.7" y1="464.2" x2="371.8" y2="404.0" opacity="1.0" stroke="rgb(0,0,0)"  stroke-width="3"/>
<line x1="172.7" y1="404.0" x2="193.4" y2="449.3" opacity="1.0" stroke="rgb(0,0,0)"  stroke-width="3"/>
<line x1="193.4" y1="449.3" x2="239.1" y2="404.0" opacity="1.0" stroke="rgb(0,0,0)"  stroke-width="3"/>
<text x="399.023558" y="239.587601" fill="rgb(12,12,255)" stroke-width="0" font-weight="bold" font-size="25.92" >N</text>
<text x="399.023558" y="316.222726" fill="rgb(255,181,181)" stroke-width="0" font-weight="bold" font-size="25.92" >B</text>
<text x="266.287702" y="316.222726" fill="rgb(255,181,181)" stroke-width="0" font-weight="bold" font-size="25.92" >B</text>
<text x="199.919774" y="354.540264" fill="rgb(12,12,255)" stroke-width="0" font-weight="bold" font-size="25.92" >N</text>
<text x="332.655630" y="354.540264" fill="rgb(12,12,255)" stroke-width="0" font-weight="bold" font-size="25.92" >N</text>
</svg>
</g>
</svg>
