<?xml version="1.0"?>
<svg version="1.1" id="topsvg"
xmlns="http://www.w3.org/2000/svg" xmlns:xlink="http://www.w3.org/1999/xlink"
xmlns:cml="http://www.xml-cml.org/schema" x="0" y="0" width="200px" height="200px" viewBox="0 0 100 100">
<title>GD417.sdf - Open Babel Depiction</title>
<rect x="0" y="0" width="100" height="100" fill="white"/>
<g transform="translate(0,0)">
<svg width="100" height="100" x="0" y="0" viewBox="0 0 548.877 522.441"
font-family="sans-serif" stroke="rgb(0,0,0)" stroke-width="3"  stroke-linecap="round">
<line x1="306.1" y1="346.6" x2="306.1" y2="372.0" opacity="1.0" stroke="rgb(0,0,0)"  stroke-width="3"/>
<line x1="239.7" y1="155.0" x2="239.7" y2="116.7" opacity="1.0" stroke="rgb(0,0,0)"  stroke-width="3"/>
<line x1="372.5" y1="155.0" x2="372.5" y2="116.7" opacity="1.0" stroke="rgb(0,0,0)"  stroke-width="3"/>
<line x1="140.1" y1="327.5" x2="106.9" y2="346.6" opacity="1.0" stroke="rgb(0,0,0)"  stroke-width="3"/>
<line x1="472.0" y1="327.5" x2="494.0" y2="340.1" opacity="1.0" stroke="rgb(0,0,0)"  stroke-width="3"/>
<line x1="173.3" y1="270.0" x2="206.5" y2="212.5" opacity="1.0" stroke="rgb(0,0,0)"  stroke-width="3"/>
<line x1="206.5" y1="212.5" x2="239.7" y2="231.6" opacity="1.0" stroke="rgb(0,0,0)"  stroke-width="3"/>
<line x1="208.1" y1="221.7" x2="230.9" y2="234.9" opacity="1.0" stroke="rgb(0,0,0)"  stroke-width="3"/>
<line x1="239.7" y1="231.6" x2="239.7" y2="257.0" opacity="1.0" stroke="rgb(0,0,0)"  stroke-width="3"/>
<line x1="228.4" y1="276.5" x2="206.5" y2="289.1" opacity="1.0" stroke="rgb(0,0,0)"  stroke-width="3"/>
<line x1="206.5" y1="289.1" x2="173.3" y2="270.0" opacity="1.0" stroke="rgb(0,0,0)"  stroke-width="3"/>
<line x1="204.9" y1="279.9" x2="182.1" y2="266.7" opacity="1.0" stroke="rgb(0,0,0)"  stroke-width="3"/>
<line x1="438.8" y1="270.0" x2="405.6" y2="289.1" opacity="1.0" stroke="rgb(0,0,0)"  stroke-width="3"/>
<line x1="430.0" y1="266.7" x2="407.2" y2="279.9" opacity="1.0" stroke="rgb(0,0,0)"  stroke-width="3"/>
<line x1="405.6" y1="289.1" x2="383.7" y2="276.5" opacity="1.0" stroke="rgb(0,0,0)"  stroke-width="3"/>
<line x1="372.5" y1="257.0" x2="372.5" y2="231.6" opacity="1.0" stroke="rgb(0,0,0)"  stroke-width="3"/>
<line x1="372.5" y1="231.6" x2="405.6" y2="212.5" opacity="1.0" stroke="rgb(0,0,0)"  stroke-width="3"/>
<line x1="381.3" y1="234.9" x2="404.1" y2="221.7" opacity="1.0" stroke="rgb(0,0,0)"  stroke-width="3"/>
<line x1="405.6" y1="212.5" x2="438.8" y2="270.0" opacity="1.0" stroke="rgb(0,0,0)"  stroke-width="3"/>
<line x1="272.9" y1="327.5" x2="306.1" y2="346.6" opacity="1.0" stroke="rgb(0,0,0)"  stroke-width="3"/>
<line x1="306.1" y1="346.6" x2="339.3" y2="327.5" opacity="1.0" stroke="rgb(0,0,0)"  stroke-width="3"/>
<line x1="307.7" y1="337.4" x2="330.5" y2="324.2" opacity="1.0" stroke="rgb(0,0,0)"  stroke-width="3"/>
<line x1="339.3" y1="327.5" x2="339.3" y2="289.1" opacity="1.0" stroke="rgb(0,0,0)"  stroke-width="3"/>
<line x1="339.3" y1="289.1" x2="306.1" y2="270.0" opacity="1.0" stroke="rgb(0,0,0)"  stroke-width="3"/>
<line x1="330.5" y1="292.4" x2="307.7" y2="279.2" opacity="1.0" stroke="rgb(0,0,0)"  stroke-width="3"/>
<line x1="306.1" y1="270.0" x2="272.9" y2="289.1" opacity="1.0" stroke="rgb(0,0,0)"  stroke-width="3"/>
<line x1="272.9" y1="289.1" x2="272.9" y2="327.5" opacity="1.0" stroke="rgb(0,0,0)"  stroke-width="3"/>
<line x1="280.1" y1="295.1" x2="280.1" y2="321.5" opacity="1.0" stroke="rgb(0,0,0)"  stroke-width="3"/>
<line x1="239.7" y1="231.6" x2="272.9" y2="212.5" opacity="1.0" stroke="rgb(0,0,0)"  stroke-width="3"/>
<line x1="272.9" y1="212.5" x2="294.8" y2="225.1" opacity="1.0" stroke="rgb(0,0,0)"  stroke-width="3"/>
<line x1="306.1" y1="244.6" x2="306.1" y2="270.0" opacity="1.0" stroke="rgb(0,0,0)"  stroke-width="3"/>
<line x1="272.9" y1="289.1" x2="250.9" y2="276.5" opacity="1.0" stroke="rgb(0,0,0)"  stroke-width="3"/>
<line x1="140.1" y1="327.5" x2="173.3" y2="346.6" opacity="1.0" stroke="rgb(0,0,0)"  stroke-width="3"/>
<line x1="173.3" y1="346.6" x2="206.5" y2="327.5" opacity="1.0" stroke="rgb(0,0,0)"  stroke-width="3"/>
<line x1="174.9" y1="337.4" x2="197.7" y2="324.2" opacity="1.0" stroke="rgb(0,0,0)"  stroke-width="3"/>
<line x1="206.5" y1="327.5" x2="206.5" y2="289.1" opacity="1.0" stroke="rgb(0,0,0)"  stroke-width="3"/>
<line x1="173.3" y1="270.0" x2="140.1" y2="289.1" opacity="1.0" stroke="rgb(0,0,0)"  stroke-width="3"/>
<line x1="140.1" y1="289.1" x2="140.1" y2="327.5" opacity="1.0" stroke="rgb(0,0,0)"  stroke-width="3"/>
<line x1="147.3" y1="295.1" x2="147.3" y2="321.5" opacity="1.0" stroke="rgb(0,0,0)"  stroke-width="3"/>
<line x1="361.2" y1="276.5" x2="339.3" y2="289.1" opacity="1.0" stroke="rgb(0,0,0)"  stroke-width="3"/>
<line x1="317.3" y1="225.1" x2="339.3" y2="212.5" opacity="1.0" stroke="rgb(0,0,0)"  stroke-width="3"/>
<line x1="339.3" y1="212.5" x2="372.5" y2="231.6" opacity="1.0" stroke="rgb(0,0,0)"  stroke-width="3"/>
<line x1="472.0" y1="327.5" x2="438.8" y2="346.6" opacity="1.0" stroke="rgb(0,0,0)"  stroke-width="3"/>
<line x1="438.8" y1="346.6" x2="405.6" y2="327.5" opacity="1.0" stroke="rgb(0,0,0)"  stroke-width="3"/>
<line x1="437.2" y1="337.4" x2="414.4" y2="324.2" opacity="1.0" stroke="rgb(0,0,0)"  stroke-width="3"/>
<line x1="405.6" y1="327.5" x2="405.6" y2="289.1" opacity="1.0" stroke="rgb(0,0,0)"  stroke-width="3"/>
<line x1="438.8" y1="270.0" x2="472.0" y2="289.1" opacity="1.0" stroke="rgb(0,0,0)"  stroke-width="3"/>
<line x1="472.0" y1="289.1" x2="472.0" y2="327.5" opacity="1.0" stroke="rgb(0,0,0)"  stroke-width="3"/>
<line x1="464.8" y1="295.1" x2="464.8" y2="321.5" opacity="1.0" stroke="rgb(0,0,0)"  stroke-width="3"/>
<line x1="372.5" y1="155.0" x2="339.3" y2="174.2" opacity="1.0" stroke="rgb(0,0,0)"  stroke-width="3"/>
<line x1="339.3" y1="174.2" x2="339.3" y2="212.5" opacity="1.0" stroke="rgb(0,0,0)"  stroke-width="3"/>
<line x1="346.5" y1="180.2" x2="346.5" y2="206.5" opacity="1.0" stroke="rgb(0,0,0)"  stroke-width="3"/>
<line x1="405.6" y1="212.5" x2="405.6" y2="174.2" opacity="1.0" stroke="rgb(0,0,0)"  stroke-width="3"/>
<line x1="405.6" y1="174.2" x2="372.5" y2="155.0" opacity="1.0" stroke="rgb(0,0,0)"  stroke-width="3"/>
<line x1="396.9" y1="177.4" x2="374.1" y2="164.2" opacity="1.0" stroke="rgb(0,0,0)"  stroke-width="3"/>
<line x1="206.5" y1="212.5" x2="206.5" y2="174.2" opacity="1.0" stroke="rgb(0,0,0)"  stroke-width="3"/>
<line x1="206.5" y1="174.2" x2="239.7" y2="155.0" opacity="1.0" stroke="rgb(0,0,0)"  stroke-width="3"/>
<line x1="215.3" y1="177.4" x2="238.1" y2="164.2" opacity="1.0" stroke="rgb(0,0,0)"  stroke-width="3"/>
<line x1="239.7" y1="155.0" x2="272.9" y2="174.2" opacity="1.0" stroke="rgb(0,0,0)"  stroke-width="3"/>
<line x1="272.9" y1="174.2" x2="272.9" y2="212.5" opacity="1.0" stroke="rgb(0,0,0)"  stroke-width="3"/>
<line x1="265.7" y1="180.2" x2="265.7" y2="206.5" opacity="1.0" stroke="rgb(0,0,0)"  stroke-width="3"/>
<line x1="126.9" y1="445.9" x2="162.2" y2="460.9" opacity="1.0" stroke="rgb(0,0,0)"  stroke-width="3"/>
<line x1="135.2" y1="441.6" x2="159.4" y2="451.9" opacity="1.0" stroke="rgb(0,0,0)"  stroke-width="3"/>
<line x1="162.2" y1="460.9" x2="192.8" y2="437.9" opacity="1.0" stroke="rgb(0,0,0)"  stroke-width="3"/>
<line x1="192.8" y1="437.9" x2="188.1" y2="399.8" opacity="1.0" stroke="rgb(0,0,0)"  stroke-width="3"/>
<line x1="184.9" y1="432.8" x2="181.7" y2="406.7" opacity="1.0" stroke="rgb(0,0,0)"  stroke-width="3"/>
<line x1="188.1" y1="399.8" x2="152.8" y2="384.8" opacity="1.0" stroke="rgb(0,0,0)"  stroke-width="3"/>
<line x1="152.8" y1="384.8" x2="122.2" y2="407.9" opacity="1.0" stroke="rgb(0,0,0)"  stroke-width="3"/>
<line x1="152.4" y1="394.2" x2="131.3" y2="410.0" opacity="1.0" stroke="rgb(0,0,0)"  stroke-width="3"/>
<line x1="122.2" y1="407.9" x2="126.9" y2="445.9" opacity="1.0" stroke="rgb(0,0,0)"  stroke-width="3"/>
<line x1="304.6" y1="446.2" x2="285.6" y2="414.1" opacity="1.0" stroke="rgb(0,0,0)"  stroke-width="3"/>
<line x1="295.3" y1="444.7" x2="282.5" y2="422.9" opacity="1.0" stroke="rgb(0,0,0)"  stroke-width="3"/>
<line x1="285.6" y1="414.1" x2="248.3" y2="414.4" opacity="1.0" stroke="rgb(0,0,0)"  stroke-width="3"/>
<line x1="248.3" y1="414.4" x2="230.0" y2="446.9" opacity="1.0" stroke="rgb(0,0,0)"  stroke-width="3"/>
<line x1="251.7" y1="423.2" x2="239.2" y2="445.2" opacity="1.0" stroke="rgb(0,0,0)"  stroke-width="3"/>
<line x1="230.0" y1="446.9" x2="248.9" y2="479.0" opacity="1.0" stroke="rgb(0,0,0)"  stroke-width="3"/>
<line x1="248.9" y1="479.0" x2="286.2" y2="478.7" opacity="1.0" stroke="rgb(0,0,0)"  stroke-width="3"/>
<line x1="254.9" y1="471.8" x2="280.2" y2="471.5" opacity="1.0" stroke="rgb(0,0,0)"  stroke-width="3"/>
<line x1="286.2" y1="478.7" x2="304.6" y2="446.2" opacity="1.0" stroke="rgb(0,0,0)"  stroke-width="3"/>
<line x1="505.6" y1="383.9" x2="470.9" y2="367.7" opacity="1.0" stroke="rgb(0,0,0)"  stroke-width="3"/>
<line x1="497.1" y1="387.9" x2="473.3" y2="376.7" opacity="1.0" stroke="rgb(0,0,0)"  stroke-width="3"/>
<line x1="470.9" y1="367.7" x2="439.4" y2="389.6" opacity="1.0" stroke="rgb(0,0,0)"  stroke-width="3"/>
<line x1="439.4" y1="389.6" x2="442.7" y2="427.8" opacity="1.0" stroke="rgb(0,0,0)"  stroke-width="3"/>
<line x1="447.1" y1="395.0" x2="449.4" y2="421.2" opacity="1.0" stroke="rgb(0,0,0)"  stroke-width="3"/>
<line x1="442.7" y1="427.8" x2="477.4" y2="444.0" opacity="1.0" stroke="rgb(0,0,0)"  stroke-width="3"/>
<line x1="477.4" y1="444.0" x2="508.9" y2="422.1" opacity="1.0" stroke="rgb(0,0,0)"  stroke-width="3"/>
<line x1="478.2" y1="434.7" x2="499.8" y2="419.6" opacity="1.0" stroke="rgb(0,0,0)"  stroke-width="3"/>
<line x1="508.9" y1="422.1" x2="505.6" y2="383.9" opacity="1.0" stroke="rgb(0,0,0)"  stroke-width="3"/>
<line x1="356.7" y1="482.4" x2="394.6" y2="477.1" opacity="1.0" stroke="rgb(0,0,0)"  stroke-width="3"/>
<line x1="361.7" y1="474.5" x2="387.7" y2="470.8" opacity="1.0" stroke="rgb(0,0,0)"  stroke-width="3"/>
<line x1="394.6" y1="477.1" x2="407.4" y2="442.7" opacity="1.0" stroke="rgb(0,0,0)"  stroke-width="3"/>
<line x1="407.4" y1="442.7" x2="382.3" y2="413.7" opacity="1.0" stroke="rgb(0,0,0)"  stroke-width="3"/>
<line x1="398.1" y1="442.9" x2="380.8" y2="423.0" opacity="1.0" stroke="rgb(0,0,0)"  stroke-width="3"/>
<line x1="382.3" y1="413.7" x2="344.4" y2="419.1" opacity="1.0" stroke="rgb(0,0,0)"  stroke-width="3"/>
<line x1="344.4" y1="419.1" x2="331.6" y2="453.5" opacity="1.0" stroke="rgb(0,0,0)"  stroke-width="3"/>
<line x1="349.1" y1="427.3" x2="340.5" y2="450.4" opacity="1.0" stroke="rgb(0,0,0)"  stroke-width="3"/>
<line x1="331.6" y1="453.5" x2="356.7" y2="482.4" opacity="1.0" stroke="rgb(0,0,0)"  stroke-width="3"/>
<line x1="273.0" y1="97.7" x2="273.0" y2="59.4" opacity="1.0" stroke="rgb(0,0,0)"  stroke-width="3"/>
<line x1="273.0" y1="59.4" x2="239.7" y2="40.0" opacity="1.0" stroke="rgb(0,0,0)"  stroke-width="3"/>
<line x1="264.2" y1="62.6" x2="241.2" y2="49.2" opacity="1.0" stroke="rgb(0,0,0)"  stroke-width="3"/>
<line x1="239.7" y1="40.0" x2="206.4" y2="59.4" opacity="1.0" stroke="rgb(0,0,0)"  stroke-width="3"/>
<line x1="206.4" y1="59.4" x2="206.4" y2="97.7" opacity="1.0" stroke="rgb(0,0,0)"  stroke-width="3"/>
<line x1="213.6" y1="65.4" x2="213.6" y2="91.7" opacity="1.0" stroke="rgb(0,0,0)"  stroke-width="3"/>
<line x1="206.4" y1="97.7" x2="239.7" y2="116.7" opacity="1.0" stroke="rgb(0,0,0)"  stroke-width="3"/>
<line x1="239.7" y1="116.7" x2="273.0" y2="97.7" opacity="1.0" stroke="rgb(0,0,0)"  stroke-width="3"/>
<line x1="241.3" y1="107.4" x2="264.2" y2="94.4" opacity="1.0" stroke="rgb(0,0,0)"  stroke-width="3"/>
<line x1="405.8" y1="97.7" x2="405.8" y2="59.4" opacity="1.0" stroke="rgb(0,0,0)"  stroke-width="3"/>
<line x1="405.8" y1="59.4" x2="372.5" y2="40.0" opacity="1.0" stroke="rgb(0,0,0)"  stroke-width="3"/>
<line x1="397.0" y1="62.6" x2="374.0" y2="49.2" opacity="1.0" stroke="rgb(0,0,0)"  stroke-width="3"/>
<line x1="372.5" y1="40.0" x2="339.1" y2="59.4" opacity="1.0" stroke="rgb(0,0,0)"  stroke-width="3"/>
<line x1="339.1" y1="59.4" x2="339.1" y2="97.7" opacity="1.0" stroke="rgb(0,0,0)"  stroke-width="3"/>
<line x1="346.3" y1="65.4" x2="346.3" y2="91.7" opacity="1.0" stroke="rgb(0,0,0)"  stroke-width="3"/>
<line x1="339.1" y1="97.7" x2="372.5" y2="116.7" opacity="1.0" stroke="rgb(0,0,0)"  stroke-width="3"/>
<line x1="372.5" y1="116.7" x2="405.8" y2="97.7" opacity="1.0" stroke="rgb(0,0,0)"  stroke-width="3"/>
<line x1="374.1" y1="107.4" x2="397.0" y2="94.4" opacity="1.0" stroke="rgb(0,0,0)"  stroke-width="3"/>
<line x1="73.4" y1="327.9" x2="40.5" y2="345.8" opacity="1.0" stroke="rgb(0,0,0)"  stroke-width="3"/>
<line x1="40.5" y1="345.8" x2="40.0" y2="384.1" opacity="1.0" stroke="rgb(0,0,0)"  stroke-width="3"/>
<line x1="47.6" y1="351.8" x2="47.3" y2="378.2" opacity="1.0" stroke="rgb(0,0,0)"  stroke-width="3"/>
<line x1="40.0" y1="384.1" x2="72.4" y2="402.8" opacity="1.0" stroke="rgb(0,0,0)"  stroke-width="3"/>
<line x1="72.4" y1="402.8" x2="106.4" y2="385.0" opacity="1.0" stroke="rgb(0,0,0)"  stroke-width="3"/>
<line x1="74.4" y1="393.6" x2="97.7" y2="381.4" opacity="1.0" stroke="rgb(0,0,0)"  stroke-width="3"/>
<line x1="106.4" y1="385.0" x2="106.9" y2="346.6" opacity="1.0" stroke="rgb(0,0,0)"  stroke-width="3"/>
<line x1="106.9" y1="346.6" x2="73.4" y2="327.9" opacity="1.0" stroke="rgb(0,0,0)"  stroke-width="3"/>
<line x1="98.1" y1="350.0" x2="75.2" y2="337.1" opacity="1.0" stroke="rgb(0,0,0)"  stroke-width="3"/>
<line x1="192.8" y1="437.9" x2="230.0" y2="446.9" opacity="1.0" stroke="rgb(0,0,0)"  stroke-width="3"/>
<line x1="248.3" y1="414.4" x2="222.9" y2="383.6" opacity="1.0" stroke="rgb(0,0,0)"  stroke-width="3"/>
<line x1="222.9" y1="383.6" x2="188.1" y2="399.8" opacity="1.0" stroke="rgb(0,0,0)"  stroke-width="3"/>
<line x1="407.4" y1="442.7" x2="442.7" y2="427.8" opacity="1.0" stroke="rgb(0,0,0)"  stroke-width="3"/>
<line x1="439.4" y1="389.6" x2="402.1" y2="380.9" opacity="1.0" stroke="rgb(0,0,0)"  stroke-width="3"/>
<line x1="402.1" y1="380.9" x2="382.3" y2="413.7" opacity="1.0" stroke="rgb(0,0,0)"  stroke-width="3"/>
<line x1="339.3" y1="327.5" x2="402.1" y2="380.9" opacity="1.0" stroke="rgb(0,0,0)"  stroke-width="3"/>
<line x1="402.1" y1="380.9" x2="405.6" y2="327.5" opacity="1.0" stroke="rgb(0,0,0)"  stroke-width="3"/>
<line x1="206.5" y1="327.5" x2="222.9" y2="383.6" opacity="1.0" stroke="rgb(0,0,0)"  stroke-width="3"/>
<line x1="222.9" y1="383.6" x2="272.9" y2="327.5" opacity="1.0" stroke="rgb(0,0,0)"  stroke-width="3"/>
<text x="300.064486" y="392.970707" fill="rgb(127,178,255)" stroke-width="0" font-weight="bold" font-size="25.92" >F</text>
<text x="499.234344" y="354.639898" fill="rgb(127,178,255)" stroke-width="0" font-weight="bold" font-size="25.92" >F</text>
<text x="366.454656" y="277.979492" fill="rgb(12,12,255)" stroke-width="0" font-weight="bold" font-size="25.92" >N</text>
<text x="233.675015" y="277.979539" fill="rgb(12,12,255)" stroke-width="0" font-weight="bold" font-size="25.92" >N</text>
<text x="300.064859" y="239.649336" fill="rgb(255,181,181)" stroke-width="0" font-weight="bold" font-size="25.92" >B</text>
</svg>
</g>
</svg>
