<?xml version="1.0"?>
<svg version="1.1" id="topsvg"
xmlns="http://www.w3.org/2000/svg" xmlns:xlink="http://www.w3.org/1999/xlink"
xmlns:cml="http://www.xml-cml.org/schema" x="0" y="0" width="200px" height="200px" viewBox="0 0 100 100">
<title>GD418.sdf - Open Babel Depiction</title>
<rect x="0" y="0" width="100" height="100" fill="white"/>
<g transform="translate(0,0)">
<svg width="100" height="100" x="0" y="0" viewBox="0 0 514.476 547.974"
font-family="sans-serif" stroke="rgb(0,0,0)" stroke-width="3"  stroke-linecap="round">
<line x1="266.6" y1="344.2" x2="266.6" y2="368.6" opacity="1.0" stroke="rgb(0,0,0)"  stroke-width="3"/>
<line x1="201.9" y1="157.3" x2="201.9" y2="120.0" opacity="1.0" stroke="rgb(0,0,0)"  stroke-width="3"/>
<line x1="201.9" y1="120.0" x2="234.2" y2="101.3" opacity="1.0" stroke="rgb(0,0,0)"  stroke-width="3"/>
<line x1="169.5" y1="101.3" x2="201.9" y2="120.0" opacity="1.0" stroke="rgb(0,0,0)"  stroke-width="3"/>
<line x1="201.9" y1="120.0" x2="201.9" y2="82.6" opacity="1.0" stroke="rgb(0,0,0)"  stroke-width="3"/>
<line x1="104.7" y1="325.6" x2="72.4" y2="344.2" opacity="1.0" stroke="rgb(0,0,0)"  stroke-width="3"/>
<line x1="72.4" y1="344.2" x2="40.0" y2="325.6" opacity="1.0" stroke="rgb(0,0,0)"  stroke-width="3"/>
<line x1="72.4" y1="344.2" x2="72.4" y2="381.6" opacity="1.0" stroke="rgb(0,0,0)"  stroke-width="3"/>
<line x1="72.4" y1="344.2" x2="72.4" y2="306.9" opacity="1.0" stroke="rgb(0,0,0)"  stroke-width="3"/>
<line x1="137.1" y1="269.5" x2="169.5" y2="213.4" opacity="1.0" stroke="rgb(0,0,0)"  stroke-width="3"/>
<line x1="169.5" y1="213.4" x2="201.9" y2="232.1" opacity="1.0" stroke="rgb(0,0,0)"  stroke-width="3"/>
<line x1="201.9" y1="232.1" x2="201.9" y2="256.5" opacity="1.0" stroke="rgb(0,0,0)"  stroke-width="3"/>
<line x1="190.6" y1="276.0" x2="169.5" y2="288.2" opacity="1.0" stroke="rgb(0,0,0)"  stroke-width="3"/>
<line x1="169.5" y1="288.2" x2="137.1" y2="269.5" opacity="1.0" stroke="rgb(0,0,0)"  stroke-width="3"/>
<line x1="396.1" y1="269.5" x2="363.7" y2="288.2" opacity="1.0" stroke="rgb(0,0,0)"  stroke-width="3"/>
<line x1="363.7" y1="288.2" x2="342.6" y2="276.0" opacity="1.0" stroke="rgb(0,0,0)"  stroke-width="3"/>
<line x1="331.4" y1="256.5" x2="331.4" y2="232.1" opacity="1.0" stroke="rgb(0,0,0)"  stroke-width="3"/>
<line x1="331.4" y1="232.1" x2="363.7" y2="213.4" opacity="1.0" stroke="rgb(0,0,0)"  stroke-width="3"/>
<line x1="340.2" y1="235.3" x2="362.1" y2="222.6" opacity="1.0" stroke="rgb(0,0,0)"  stroke-width="3"/>
<line x1="363.7" y1="213.4" x2="396.1" y2="269.5" opacity="1.0" stroke="rgb(0,0,0)"  stroke-width="3"/>
<line x1="234.2" y1="325.6" x2="266.6" y2="344.2" opacity="1.0" stroke="rgb(0,0,0)"  stroke-width="3"/>
<line x1="266.6" y1="344.2" x2="299.0" y2="325.6" opacity="1.0" stroke="rgb(0,0,0)"  stroke-width="3"/>
<line x1="268.2" y1="335.0" x2="290.2" y2="322.3" opacity="1.0" stroke="rgb(0,0,0)"  stroke-width="3"/>
<line x1="299.0" y1="325.6" x2="299.0" y2="288.2" opacity="1.0" stroke="rgb(0,0,0)"  stroke-width="3"/>
<line x1="299.0" y1="288.2" x2="266.6" y2="269.5" opacity="1.0" stroke="rgb(0,0,0)"  stroke-width="3"/>
<line x1="290.2" y1="291.4" x2="268.2" y2="278.7" opacity="1.0" stroke="rgb(0,0,0)"  stroke-width="3"/>
<line x1="266.6" y1="269.5" x2="234.2" y2="288.2" opacity="1.0" stroke="rgb(0,0,0)"  stroke-width="3"/>
<line x1="234.2" y1="288.2" x2="234.2" y2="325.6" opacity="1.0" stroke="rgb(0,0,0)"  stroke-width="3"/>
<line x1="241.4" y1="294.2" x2="241.4" y2="319.6" opacity="1.0" stroke="rgb(0,0,0)"  stroke-width="3"/>
<line x1="201.9" y1="232.1" x2="234.2" y2="213.4" opacity="1.0" stroke="rgb(0,0,0)"  stroke-width="3"/>
<line x1="210.7" y1="235.3" x2="232.6" y2="222.6" opacity="1.0" stroke="rgb(0,0,0)"  stroke-width="3"/>
<line x1="234.2" y1="213.4" x2="255.4" y2="225.6" opacity="1.0" stroke="rgb(0,0,0)"  stroke-width="3"/>
<line x1="266.6" y1="245.1" x2="266.6" y2="269.5" opacity="1.0" stroke="rgb(0,0,0)"  stroke-width="3"/>
<line x1="234.2" y1="288.2" x2="213.1" y2="276.0" opacity="1.0" stroke="rgb(0,0,0)"  stroke-width="3"/>
<line x1="428.5" y1="288.2" x2="396.1" y2="269.5" opacity="1.0" stroke="rgb(0,0,0)"  stroke-width="3"/>
<line x1="419.7" y1="291.4" x2="397.7" y2="278.7" opacity="1.0" stroke="rgb(0,0,0)"  stroke-width="3"/>
<line x1="363.7" y1="288.2" x2="363.7" y2="325.6" opacity="1.0" stroke="rgb(0,0,0)"  stroke-width="3"/>
<line x1="370.9" y1="294.2" x2="370.9" y2="319.6" opacity="1.0" stroke="rgb(0,0,0)"  stroke-width="3"/>
<line x1="363.7" y1="325.6" x2="396.1" y2="344.2" opacity="1.0" stroke="rgb(0,0,0)"  stroke-width="3"/>
<line x1="396.1" y1="344.2" x2="428.5" y2="325.6" opacity="1.0" stroke="rgb(0,0,0)"  stroke-width="3"/>
<line x1="397.7" y1="335.0" x2="419.7" y2="322.3" opacity="1.0" stroke="rgb(0,0,0)"  stroke-width="3"/>
<line x1="428.5" y1="325.6" x2="428.5" y2="288.2" opacity="1.0" stroke="rgb(0,0,0)"  stroke-width="3"/>
<line x1="169.5" y1="176.0" x2="201.9" y2="157.3" opacity="1.0" stroke="rgb(0,0,0)"  stroke-width="3"/>
<line x1="201.9" y1="157.3" x2="234.2" y2="176.0" opacity="1.0" stroke="rgb(0,0,0)"  stroke-width="3"/>
<line x1="203.5" y1="166.6" x2="225.4" y2="179.3" opacity="1.0" stroke="rgb(0,0,0)"  stroke-width="3"/>
<line x1="234.2" y1="176.0" x2="234.2" y2="213.4" opacity="1.0" stroke="rgb(0,0,0)"  stroke-width="3"/>
<line x1="169.5" y1="213.4" x2="169.5" y2="176.0" opacity="1.0" stroke="rgb(0,0,0)"  stroke-width="3"/>
<line x1="176.7" y1="207.4" x2="176.7" y2="182.0" opacity="1.0" stroke="rgb(0,0,0)"  stroke-width="3"/>
<line x1="320.1" y1="276.0" x2="299.0" y2="288.2" opacity="1.0" stroke="rgb(0,0,0)"  stroke-width="3"/>
<line x1="277.9" y1="225.6" x2="299.0" y2="213.4" opacity="1.0" stroke="rgb(0,0,0)"  stroke-width="3"/>
<line x1="299.0" y1="213.4" x2="331.4" y2="232.1" opacity="1.0" stroke="rgb(0,0,0)"  stroke-width="3"/>
<line x1="104.7" y1="325.6" x2="137.1" y2="344.2" opacity="1.0" stroke="rgb(0,0,0)"  stroke-width="3"/>
<line x1="113.5" y1="322.3" x2="135.5" y2="335.0" opacity="1.0" stroke="rgb(0,0,0)"  stroke-width="3"/>
<line x1="137.1" y1="344.2" x2="169.5" y2="325.6" opacity="1.0" stroke="rgb(0,0,0)"  stroke-width="3"/>
<line x1="169.5" y1="325.6" x2="169.5" y2="288.2" opacity="1.0" stroke="rgb(0,0,0)"  stroke-width="3"/>
<line x1="162.3" y1="319.6" x2="162.3" y2="294.2" opacity="1.0" stroke="rgb(0,0,0)"  stroke-width="3"/>
<line x1="137.1" y1="269.5" x2="104.7" y2="288.2" opacity="1.0" stroke="rgb(0,0,0)"  stroke-width="3"/>
<line x1="135.5" y1="278.7" x2="113.5" y2="291.4" opacity="1.0" stroke="rgb(0,0,0)"  stroke-width="3"/>
<line x1="104.7" y1="288.2" x2="104.7" y2="325.6" opacity="1.0" stroke="rgb(0,0,0)"  stroke-width="3"/>
<line x1="331.4" y1="157.3" x2="299.0" y2="176.0" opacity="1.0" stroke="rgb(0,0,0)"  stroke-width="3"/>
<line x1="299.0" y1="176.0" x2="299.0" y2="213.4" opacity="1.0" stroke="rgb(0,0,0)"  stroke-width="3"/>
<line x1="306.2" y1="182.0" x2="306.2" y2="207.4" opacity="1.0" stroke="rgb(0,0,0)"  stroke-width="3"/>
<line x1="363.7" y1="213.4" x2="363.7" y2="176.0" opacity="1.0" stroke="rgb(0,0,0)"  stroke-width="3"/>
<line x1="363.7" y1="176.0" x2="331.4" y2="157.3" opacity="1.0" stroke="rgb(0,0,0)"  stroke-width="3"/>
<line x1="354.9" y1="179.3" x2="333.0" y2="166.6" opacity="1.0" stroke="rgb(0,0,0)"  stroke-width="3"/>
<line x1="100.5" y1="394.9" x2="67.4" y2="412.2" opacity="1.0" stroke="rgb(0,0,0)"  stroke-width="3"/>
<line x1="98.6" y1="404.1" x2="76.1" y2="415.8" opacity="1.0" stroke="rgb(0,0,0)"  stroke-width="3"/>
<line x1="67.4" y1="412.2" x2="65.8" y2="449.6" opacity="1.0" stroke="rgb(0,0,0)"  stroke-width="3"/>
<line x1="65.8" y1="449.6" x2="97.4" y2="469.6" opacity="1.0" stroke="rgb(0,0,0)"  stroke-width="3"/>
<line x1="74.8" y1="446.7" x2="96.2" y2="460.3" opacity="1.0" stroke="rgb(0,0,0)"  stroke-width="3"/>
<line x1="97.4" y1="469.6" x2="130.5" y2="452.3" opacity="1.0" stroke="rgb(0,0,0)"  stroke-width="3"/>
<line x1="130.5" y1="452.3" x2="132.1" y2="414.9" opacity="1.0" stroke="rgb(0,0,0)"  stroke-width="3"/>
<line x1="123.6" y1="446.0" x2="124.7" y2="420.6" opacity="1.0" stroke="rgb(0,0,0)"  stroke-width="3"/>
<line x1="132.1" y1="414.9" x2="100.5" y2="394.9" opacity="1.0" stroke="rgb(0,0,0)"  stroke-width="3"/>
<line x1="239.5" y1="476.3" x2="225.8" y2="441.5" opacity="1.0" stroke="rgb(0,0,0)"  stroke-width="3"/>
<line x1="230.6" y1="473.3" x2="221.3" y2="449.7" opacity="1.0" stroke="rgb(0,0,0)"  stroke-width="3"/>
<line x1="225.8" y1="441.5" x2="188.8" y2="436.0" opacity="1.0" stroke="rgb(0,0,0)"  stroke-width="3"/>
<line x1="188.8" y1="436.0" x2="165.6" y2="465.3" opacity="1.0" stroke="rgb(0,0,0)"  stroke-width="3"/>
<line x1="190.7" y1="445.2" x2="174.9" y2="465.1" opacity="1.0" stroke="rgb(0,0,0)"  stroke-width="3"/>
<line x1="165.6" y1="465.3" x2="179.3" y2="500.1" opacity="1.0" stroke="rgb(0,0,0)"  stroke-width="3"/>
<line x1="179.3" y1="500.1" x2="216.3" y2="505.6" opacity="1.0" stroke="rgb(0,0,0)"  stroke-width="3"/>
<line x1="186.3" y1="493.8" x2="211.4" y2="497.6" opacity="1.0" stroke="rgb(0,0,0)"  stroke-width="3"/>
<line x1="216.3" y1="505.6" x2="239.5" y2="476.3" opacity="1.0" stroke="rgb(0,0,0)"  stroke-width="3"/>
<line x1="314.3" y1="444.5" x2="302.3" y2="479.9" opacity="1.0" stroke="rgb(0,0,0)"  stroke-width="3"/>
<line x1="319.2" y1="452.5" x2="311.1" y2="476.5" opacity="1.0" stroke="rgb(0,0,0)"  stroke-width="3"/>
<line x1="302.3" y1="479.9" x2="326.9" y2="508.0" opacity="1.0" stroke="rgb(0,0,0)"  stroke-width="3"/>
<line x1="326.9" y1="508.0" x2="363.6" y2="500.7" opacity="1.0" stroke="rgb(0,0,0)"  stroke-width="3"/>
<line x1="331.4" y1="499.7" x2="356.3" y2="494.8" opacity="1.0" stroke="rgb(0,0,0)"  stroke-width="3"/>
<line x1="363.6" y1="500.7" x2="375.6" y2="465.3" opacity="1.0" stroke="rgb(0,0,0)"  stroke-width="3"/>
<line x1="375.6" y1="465.3" x2="351.0" y2="437.2" opacity="1.0" stroke="rgb(0,0,0)"  stroke-width="3"/>
<line x1="366.3" y1="465.5" x2="349.5" y2="446.4" opacity="1.0" stroke="rgb(0,0,0)"  stroke-width="3"/>
<line x1="351.0" y1="437.2" x2="314.3" y2="444.5" opacity="1.0" stroke="rgb(0,0,0)"  stroke-width="3"/>
<line x1="471.1" y1="407.5" x2="437.1" y2="391.8" opacity="1.0" stroke="rgb(0,0,0)"  stroke-width="3"/>
<line x1="462.6" y1="411.5" x2="439.6" y2="400.8" opacity="1.0" stroke="rgb(0,0,0)"  stroke-width="3"/>
<line x1="437.1" y1="391.8" x2="406.6" y2="413.4" opacity="1.0" stroke="rgb(0,0,0)"  stroke-width="3"/>
<line x1="406.6" y1="413.4" x2="410.0" y2="450.6" opacity="1.0" stroke="rgb(0,0,0)"  stroke-width="3"/>
<line x1="414.3" y1="418.7" x2="416.6" y2="444.0" opacity="1.0" stroke="rgb(0,0,0)"  stroke-width="3"/>
<line x1="410.0" y1="450.6" x2="443.9" y2="466.3" opacity="1.0" stroke="rgb(0,0,0)"  stroke-width="3"/>
<line x1="443.9" y1="466.3" x2="474.5" y2="444.7" opacity="1.0" stroke="rgb(0,0,0)"  stroke-width="3"/>
<line x1="444.7" y1="456.9" x2="465.4" y2="442.3" opacity="1.0" stroke="rgb(0,0,0)"  stroke-width="3"/>
<line x1="474.5" y1="444.7" x2="471.1" y2="407.5" opacity="1.0" stroke="rgb(0,0,0)"  stroke-width="3"/>
<line x1="298.9" y1="63.7" x2="331.4" y2="44.9" opacity="1.0" stroke="rgb(0,0,0)"  stroke-width="3"/>
<line x1="331.4" y1="44.9" x2="363.9" y2="63.7" opacity="1.0" stroke="rgb(0,0,0)"  stroke-width="3"/>
<line x1="333.0" y1="54.2" x2="355.1" y2="66.9" opacity="1.0" stroke="rgb(0,0,0)"  stroke-width="3"/>
<line x1="363.9" y1="63.7" x2="363.9" y2="101.2" opacity="1.0" stroke="rgb(0,0,0)"  stroke-width="3"/>
<line x1="363.9" y1="101.2" x2="331.4" y2="120.0" opacity="1.0" stroke="rgb(0,0,0)"  stroke-width="3"/>
<line x1="355.1" y1="98.0" x2="333.0" y2="110.7" opacity="1.0" stroke="rgb(0,0,0)"  stroke-width="3"/>
<line x1="331.4" y1="120.0" x2="298.9" y2="101.2" opacity="1.0" stroke="rgb(0,0,0)"  stroke-width="3"/>
<line x1="298.9" y1="101.2" x2="298.9" y2="63.7" opacity="1.0" stroke="rgb(0,0,0)"  stroke-width="3"/>
<line x1="306.1" y1="95.2" x2="306.1" y2="69.7" opacity="1.0" stroke="rgb(0,0,0)"  stroke-width="3"/>
<line x1="419.8" y1="40.0" x2="393.7" y2="66.4" opacity="1.0" stroke="rgb(0,0,0)"  stroke-width="3"/>
<line x1="420.7" y1="49.3" x2="403.1" y2="67.2" opacity="1.0" stroke="rgb(0,0,0)"  stroke-width="3"/>
<line x1="393.7" y1="66.4" x2="403.6" y2="102.1" opacity="1.0" stroke="rgb(0,0,0)"  stroke-width="3"/>
<line x1="403.6" y1="102.1" x2="439.4" y2="111.4" opacity="1.0" stroke="rgb(0,0,0)"  stroke-width="3"/>
<line x1="411.2" y1="96.6" x2="435.4" y2="102.9" opacity="1.0" stroke="rgb(0,0,0)"  stroke-width="3"/>
<line x1="439.4" y1="111.4" x2="465.4" y2="85.1" opacity="1.0" stroke="rgb(0,0,0)"  stroke-width="3"/>
<line x1="465.4" y1="85.1" x2="455.6" y2="49.3" opacity="1.0" stroke="rgb(0,0,0)"  stroke-width="3"/>
<line x1="456.9" y1="81.2" x2="450.3" y2="57.0" opacity="1.0" stroke="rgb(0,0,0)"  stroke-width="3"/>
<line x1="455.6" y1="49.3" x2="419.8" y2="40.0" opacity="1.0" stroke="rgb(0,0,0)"  stroke-width="3"/>
<line x1="465.0" y1="209.0" x2="470.5" y2="172.0" opacity="1.0" stroke="rgb(0,0,0)"  stroke-width="3"/>
<line x1="458.7" y1="202.0" x2="462.5" y2="176.9" opacity="1.0" stroke="rgb(0,0,0)"  stroke-width="3"/>
<line x1="470.5" y1="172.0" x2="441.2" y2="148.8" opacity="1.0" stroke="rgb(0,0,0)"  stroke-width="3"/>
<line x1="441.2" y1="148.8" x2="406.4" y2="162.5" opacity="1.0" stroke="rgb(0,0,0)"  stroke-width="3"/>
<line x1="438.3" y1="157.7" x2="414.6" y2="167.0" opacity="1.0" stroke="rgb(0,0,0)"  stroke-width="3"/>
<line x1="406.4" y1="162.5" x2="400.9" y2="199.5" opacity="1.0" stroke="rgb(0,0,0)"  stroke-width="3"/>
<line x1="400.9" y1="199.5" x2="430.2" y2="222.7" opacity="1.0" stroke="rgb(0,0,0)"  stroke-width="3"/>
<line x1="410.1" y1="197.6" x2="430.0" y2="213.4" opacity="1.0" stroke="rgb(0,0,0)"  stroke-width="3"/>
<line x1="430.2" y1="222.7" x2="465.0" y2="209.0" opacity="1.0" stroke="rgb(0,0,0)"  stroke-width="3"/>
<line x1="331.4" y1="120.0" x2="331.4" y2="157.3" opacity="1.0" stroke="rgb(0,0,0)"  stroke-width="3"/>
<line x1="363.7" y1="176.0" x2="382.6" y2="133.7" opacity="1.0" stroke="rgb(0,0,0)"  stroke-width="3"/>
<line x1="382.6" y1="133.7" x2="363.9" y2="101.2" opacity="1.0" stroke="rgb(0,0,0)"  stroke-width="3"/>
<line x1="130.5" y1="452.3" x2="165.6" y2="465.3" opacity="1.0" stroke="rgb(0,0,0)"  stroke-width="3"/>
<line x1="188.8" y1="436.0" x2="168.1" y2="404.9" opacity="1.0" stroke="rgb(0,0,0)"  stroke-width="3"/>
<line x1="168.1" y1="404.9" x2="132.1" y2="414.9" opacity="1.0" stroke="rgb(0,0,0)"  stroke-width="3"/>
<line x1="375.6" y1="465.3" x2="410.0" y2="450.6" opacity="1.0" stroke="rgb(0,0,0)"  stroke-width="3"/>
<line x1="406.6" y1="413.4" x2="370.1" y2="405.1" opacity="1.0" stroke="rgb(0,0,0)"  stroke-width="3"/>
<line x1="370.1" y1="405.1" x2="351.0" y2="437.2" opacity="1.0" stroke="rgb(0,0,0)"  stroke-width="3"/>
<line x1="441.2" y1="148.8" x2="439.4" y2="111.4" opacity="1.0" stroke="rgb(0,0,0)"  stroke-width="3"/>
<line x1="403.6" y1="102.1" x2="382.6" y2="133.7" opacity="1.0" stroke="rgb(0,0,0)"  stroke-width="3"/>
<line x1="382.6" y1="133.7" x2="406.4" y2="162.5" opacity="1.0" stroke="rgb(0,0,0)"  stroke-width="3"/>
<line x1="299.0" y1="325.6" x2="370.1" y2="405.1" opacity="1.0" stroke="rgb(0,0,0)"  stroke-width="3"/>
<line x1="370.1" y1="405.1" x2="363.7" y2="325.6" opacity="1.0" stroke="rgb(0,0,0)"  stroke-width="3"/>
<line x1="169.5" y1="325.6" x2="168.1" y2="404.9" opacity="1.0" stroke="rgb(0,0,0)"  stroke-width="3"/>
<line x1="168.1" y1="404.9" x2="234.2" y2="325.6" opacity="1.0" stroke="rgb(0,0,0)"  stroke-width="3"/>
<text x="325.365357" y="277.482635" fill="rgb(12,12,255)" stroke-width="0" font-weight="bold" font-size="25.92" >N</text>
<text x="195.869744" y="277.482453" fill="rgb(12,12,255)" stroke-width="0" font-weight="bold" font-size="25.92" >N</text>
<text x="260.617459" y="389.629048" fill="rgb(127,178,255)" stroke-width="0" font-weight="bold" font-size="25.92" >F</text>
<text x="260.617550" y="240.100346" fill="rgb(255,181,181)" stroke-width="0" font-weight="bold" font-size="25.92" >B</text>
</svg>
</g>
</svg>
