<?xml version="1.0"?>
<svg version="1.1" id="topsvg"
xmlns="http://www.w3.org/2000/svg" xmlns:xlink="http://www.w3.org/1999/xlink"
xmlns:cml="http://www.xml-cml.org/schema" x="0" y="0" width="200px" height="200px" viewBox="0 0 100 100">
<title>GD411.sdf - Open Babel Depiction</title>
<rect x="0" y="0" width="100" height="100" fill="white"/>
<g transform="translate(0,0)">
<svg width="100" height="100" x="0" y="0" viewBox="0 0 605.852 486.857"
font-family="sans-serif" stroke="rgb(0,0,0)" stroke-width="3"  stroke-linecap="round">
<line x1="276.4" y1="304.6" x2="276.4" y2="329.3" opacity="1.0" stroke="rgb(0,0,0)"  stroke-width="3"/>
<line x1="452.8" y1="248.6" x2="490.5" y2="252.6" opacity="1.0" stroke="rgb(0,0,0)"  stroke-width="3"/>
<line x1="100.0" y1="248.6" x2="62.3" y2="252.6" opacity="1.0" stroke="rgb(0,0,0)"  stroke-width="3"/>
<line x1="211.0" y1="115.8" x2="211.0" y2="77.9" opacity="1.0" stroke="rgb(0,0,0)"  stroke-width="3"/>
<line x1="62.3" y1="252.6" x2="40.0" y2="221.9" opacity="1.0" stroke="rgb(0,0,0)"  stroke-width="3"/>
<line x1="46.9" y1="287.2" x2="62.3" y2="252.6" opacity="1.0" stroke="rgb(0,0,0)"  stroke-width="3"/>
<line x1="211.0" y1="77.9" x2="243.8" y2="58.9" opacity="1.0" stroke="rgb(0,0,0)"  stroke-width="3"/>
<line x1="178.2" y1="58.9" x2="211.0" y2="77.9" opacity="1.0" stroke="rgb(0,0,0)"  stroke-width="3"/>
<line x1="341.8" y1="115.8" x2="341.8" y2="90.9" opacity="1.0" stroke="rgb(0,0,0)"  stroke-width="3"/>
<line x1="211.0" y1="77.9" x2="211.0" y2="40.0" opacity="1.0" stroke="rgb(0,0,0)"  stroke-width="3"/>
<line x1="62.3" y1="252.6" x2="77.7" y2="218.0" opacity="1.0" stroke="rgb(0,0,0)"  stroke-width="3"/>
<line x1="399.9" y1="210.2" x2="374.5" y2="172.4" opacity="1.0" stroke="rgb(0,0,0)"  stroke-width="3"/>
<line x1="374.5" y1="172.4" x2="341.8" y2="191.3" opacity="1.0" stroke="rgb(0,0,0)"  stroke-width="3"/>
<line x1="372.9" y1="181.7" x2="350.6" y2="194.5" opacity="1.0" stroke="rgb(0,0,0)"  stroke-width="3"/>
<line x1="341.8" y1="191.3" x2="341.8" y2="216.1" opacity="1.0" stroke="rgb(0,0,0)"  stroke-width="3"/>
<line x1="354.1" y1="233.1" x2="377.7" y2="240.7" opacity="1.0" stroke="rgb(0,0,0)"  stroke-width="3"/>
<line x1="377.7" y1="240.7" x2="399.9" y2="210.2" opacity="1.0" stroke="rgb(0,0,0)"  stroke-width="3"/>
<line x1="375.4" y1="231.6" x2="390.5" y2="210.8" opacity="1.0" stroke="rgb(0,0,0)"  stroke-width="3"/>
<line x1="152.9" y1="210.2" x2="175.1" y2="240.7" opacity="1.0" stroke="rgb(0,0,0)"  stroke-width="3"/>
<line x1="162.2" y1="210.8" x2="177.4" y2="231.6" opacity="1.0" stroke="rgb(0,0,0)"  stroke-width="3"/>
<line x1="175.1" y1="240.7" x2="198.6" y2="233.1" opacity="1.0" stroke="rgb(0,0,0)"  stroke-width="3"/>
<line x1="211.0" y1="216.1" x2="211.0" y2="191.3" opacity="1.0" stroke="rgb(0,0,0)"  stroke-width="3"/>
<line x1="211.0" y1="191.3" x2="178.3" y2="172.4" opacity="1.0" stroke="rgb(0,0,0)"  stroke-width="3"/>
<line x1="202.2" y1="194.5" x2="179.9" y2="181.7" opacity="1.0" stroke="rgb(0,0,0)"  stroke-width="3"/>
<line x1="178.3" y1="172.4" x2="152.9" y2="210.2" opacity="1.0" stroke="rgb(0,0,0)"  stroke-width="3"/>
<line x1="309.1" y1="285.7" x2="276.4" y2="304.6" opacity="1.0" stroke="rgb(0,0,0)"  stroke-width="3"/>
<line x1="276.4" y1="304.6" x2="243.7" y2="285.7" opacity="1.0" stroke="rgb(0,0,0)"  stroke-width="3"/>
<line x1="274.8" y1="295.3" x2="252.5" y2="282.5" opacity="1.0" stroke="rgb(0,0,0)"  stroke-width="3"/>
<line x1="243.7" y1="285.7" x2="243.7" y2="247.9" opacity="1.0" stroke="rgb(0,0,0)"  stroke-width="3"/>
<line x1="243.7" y1="247.9" x2="276.4" y2="229.1" opacity="1.0" stroke="rgb(0,0,0)"  stroke-width="3"/>
<line x1="252.5" y1="251.2" x2="274.8" y2="238.3" opacity="1.0" stroke="rgb(0,0,0)"  stroke-width="3"/>
<line x1="276.4" y1="229.1" x2="309.1" y2="247.9" opacity="1.0" stroke="rgb(0,0,0)"  stroke-width="3"/>
<line x1="309.1" y1="247.9" x2="309.1" y2="285.7" opacity="1.0" stroke="rgb(0,0,0)"  stroke-width="3"/>
<line x1="301.9" y1="253.9" x2="301.9" y2="279.7" opacity="1.0" stroke="rgb(0,0,0)"  stroke-width="3"/>
<line x1="341.8" y1="191.3" x2="309.1" y2="172.4" opacity="1.0" stroke="rgb(0,0,0)"  stroke-width="3"/>
<line x1="309.1" y1="172.4" x2="287.6" y2="184.8" opacity="1.0" stroke="rgb(0,0,0)"  stroke-width="3"/>
<line x1="276.4" y1="204.3" x2="276.4" y2="229.1" opacity="1.0" stroke="rgb(0,0,0)"  stroke-width="3"/>
<line x1="309.1" y1="247.9" x2="330.5" y2="235.6" opacity="1.0" stroke="rgb(0,0,0)"  stroke-width="3"/>
<line x1="452.8" y1="248.6" x2="437.4" y2="214.1" opacity="1.0" stroke="rgb(0,0,0)"  stroke-width="3"/>
<line x1="443.8" y1="246.1" x2="433.3" y2="222.5" opacity="1.0" stroke="rgb(0,0,0)"  stroke-width="3"/>
<line x1="437.4" y1="214.1" x2="399.9" y2="210.2" opacity="1.0" stroke="rgb(0,0,0)"  stroke-width="3"/>
<line x1="377.7" y1="240.7" x2="393.1" y2="275.2" opacity="1.0" stroke="rgb(0,0,0)"  stroke-width="3"/>
<line x1="393.1" y1="275.2" x2="430.6" y2="279.2" opacity="1.0" stroke="rgb(0,0,0)"  stroke-width="3"/>
<line x1="399.8" y1="268.7" x2="425.4" y2="271.4" opacity="1.0" stroke="rgb(0,0,0)"  stroke-width="3"/>
<line x1="430.6" y1="279.2" x2="452.8" y2="248.6" opacity="1.0" stroke="rgb(0,0,0)"  stroke-width="3"/>
<line x1="100.0" y1="248.6" x2="115.3" y2="214.1" opacity="1.0" stroke="rgb(0,0,0)"  stroke-width="3"/>
<line x1="109.0" y1="246.1" x2="119.5" y2="222.5" opacity="1.0" stroke="rgb(0,0,0)"  stroke-width="3"/>
<line x1="115.3" y1="214.1" x2="152.9" y2="210.2" opacity="1.0" stroke="rgb(0,0,0)"  stroke-width="3"/>
<line x1="175.1" y1="240.7" x2="159.7" y2="275.2" opacity="1.0" stroke="rgb(0,0,0)"  stroke-width="3"/>
<line x1="159.7" y1="275.2" x2="122.2" y2="279.2" opacity="1.0" stroke="rgb(0,0,0)"  stroke-width="3"/>
<line x1="153.0" y1="268.7" x2="127.4" y2="271.4" opacity="1.0" stroke="rgb(0,0,0)"  stroke-width="3"/>
<line x1="122.2" y1="279.2" x2="100.0" y2="248.6" opacity="1.0" stroke="rgb(0,0,0)"  stroke-width="3"/>
<line x1="222.2" y1="235.6" x2="243.7" y2="247.9" opacity="1.0" stroke="rgb(0,0,0)"  stroke-width="3"/>
<line x1="265.1" y1="184.8" x2="243.7" y2="172.4" opacity="1.0" stroke="rgb(0,0,0)"  stroke-width="3"/>
<line x1="243.7" y1="172.4" x2="211.0" y2="191.3" opacity="1.0" stroke="rgb(0,0,0)"  stroke-width="3"/>
<line x1="211.0" y1="115.8" x2="243.7" y2="134.7" opacity="1.0" stroke="rgb(0,0,0)"  stroke-width="3"/>
<line x1="243.7" y1="134.7" x2="243.7" y2="172.4" opacity="1.0" stroke="rgb(0,0,0)"  stroke-width="3"/>
<line x1="236.5" y1="140.7" x2="236.5" y2="166.4" opacity="1.0" stroke="rgb(0,0,0)"  stroke-width="3"/>
<line x1="178.3" y1="172.4" x2="178.3" y2="134.7" opacity="1.0" stroke="rgb(0,0,0)"  stroke-width="3"/>
<line x1="178.3" y1="134.7" x2="211.0" y2="115.8" opacity="1.0" stroke="rgb(0,0,0)"  stroke-width="3"/>
<line x1="187.1" y1="137.9" x2="209.4" y2="125.0" opacity="1.0" stroke="rgb(0,0,0)"  stroke-width="3"/>
<line x1="374.5" y1="172.4" x2="374.5" y2="134.7" opacity="1.0" stroke="rgb(0,0,0)"  stroke-width="3"/>
<line x1="374.5" y1="134.7" x2="341.8" y2="115.8" opacity="1.0" stroke="rgb(0,0,0)"  stroke-width="3"/>
<line x1="365.7" y1="137.9" x2="343.4" y2="125.0" opacity="1.0" stroke="rgb(0,0,0)"  stroke-width="3"/>
<line x1="341.8" y1="115.8" x2="309.1" y2="134.7" opacity="1.0" stroke="rgb(0,0,0)"  stroke-width="3"/>
<line x1="309.1" y1="134.7" x2="309.1" y2="172.4" opacity="1.0" stroke="rgb(0,0,0)"  stroke-width="3"/>
<line x1="316.3" y1="140.7" x2="316.3" y2="166.4" opacity="1.0" stroke="rgb(0,0,0)"  stroke-width="3"/>
<line x1="315.7" y1="446.9" x2="353.4" y2="444.8" opacity="1.0" stroke="rgb(0,0,0)"  stroke-width="3"/>
<line x1="321.3" y1="439.3" x2="347.0" y2="437.9" opacity="1.0" stroke="rgb(0,0,0)"  stroke-width="3"/>
<line x1="353.4" y1="444.8" x2="370.5" y2="411.1" opacity="1.0" stroke="rgb(0,0,0)"  stroke-width="3"/>
<line x1="370.5" y1="411.1" x2="349.8" y2="379.5" opacity="1.0" stroke="rgb(0,0,0)"  stroke-width="3"/>
<line x1="361.2" y1="410.0" x2="347.1" y2="388.4" opacity="1.0" stroke="rgb(0,0,0)"  stroke-width="3"/>
<line x1="349.8" y1="379.5" x2="312.1" y2="381.6" opacity="1.0" stroke="rgb(0,0,0)"  stroke-width="3"/>
<line x1="312.1" y1="381.6" x2="295.1" y2="415.3" opacity="1.0" stroke="rgb(0,0,0)"  stroke-width="3"/>
<line x1="315.8" y1="390.2" x2="304.2" y2="413.1" opacity="1.0" stroke="rgb(0,0,0)"  stroke-width="3"/>
<line x1="295.1" y1="415.3" x2="315.7" y2="446.9" opacity="1.0" stroke="rgb(0,0,0)"  stroke-width="3"/>
<line x1="474.1" y1="366.7" x2="442.4" y2="346.2" opacity="1.0" stroke="rgb(0,0,0)"  stroke-width="3"/>
<line x1="465.1" y1="369.5" x2="443.5" y2="355.5" opacity="1.0" stroke="rgb(0,0,0)"  stroke-width="3"/>
<line x1="442.4" y1="346.2" x2="408.8" y2="363.5" opacity="1.0" stroke="rgb(0,0,0)"  stroke-width="3"/>
<line x1="408.8" y1="363.5" x2="406.9" y2="401.2" opacity="1.0" stroke="rgb(0,0,0)"  stroke-width="3"/>
<line x1="415.7" y1="369.8" x2="414.4" y2="395.5" opacity="1.0" stroke="rgb(0,0,0)"  stroke-width="3"/>
<line x1="406.9" y1="401.2" x2="438.6" y2="421.6" opacity="1.0" stroke="rgb(0,0,0)"  stroke-width="3"/>
<line x1="438.6" y1="421.6" x2="472.2" y2="404.4" opacity="1.0" stroke="rgb(0,0,0)"  stroke-width="3"/>
<line x1="440.7" y1="412.5" x2="463.6" y2="400.7" opacity="1.0" stroke="rgb(0,0,0)"  stroke-width="3"/>
<line x1="472.2" y1="404.4" x2="474.1" y2="366.7" opacity="1.0" stroke="rgb(0,0,0)"  stroke-width="3"/>
<line x1="269.8" y1="412.1" x2="250.2" y2="379.9" opacity="1.0" stroke="rgb(0,0,0)"  stroke-width="3"/>
<line x1="260.6" y1="410.8" x2="247.1" y2="388.8" opacity="1.0" stroke="rgb(0,0,0)"  stroke-width="3"/>
<line x1="250.2" y1="379.9" x2="212.4" y2="380.8" opacity="1.0" stroke="rgb(0,0,0)"  stroke-width="3"/>
<line x1="212.4" y1="380.8" x2="194.3" y2="413.9" opacity="1.0" stroke="rgb(0,0,0)"  stroke-width="3"/>
<line x1="215.9" y1="389.5" x2="203.5" y2="412.1" opacity="1.0" stroke="rgb(0,0,0)"  stroke-width="3"/>
<line x1="194.3" y1="413.9" x2="214.0" y2="446.2" opacity="1.0" stroke="rgb(0,0,0)"  stroke-width="3"/>
<line x1="214.0" y1="446.2" x2="251.7" y2="445.3" opacity="1.0" stroke="rgb(0,0,0)"  stroke-width="3"/>
<line x1="219.8" y1="438.8" x2="245.6" y2="438.2" opacity="1.0" stroke="rgb(0,0,0)"  stroke-width="3"/>
<line x1="251.7" y1="445.3" x2="269.8" y2="412.1" opacity="1.0" stroke="rgb(0,0,0)"  stroke-width="3"/>
<line x1="92.4" y1="415.3" x2="127.2" y2="429.9" opacity="1.0" stroke="rgb(0,0,0)"  stroke-width="3"/>
<line x1="100.7" y1="411.0" x2="124.4" y2="420.9" opacity="1.0" stroke="rgb(0,0,0)"  stroke-width="3"/>
<line x1="127.2" y1="429.9" x2="157.2" y2="407.0" opacity="1.0" stroke="rgb(0,0,0)"  stroke-width="3"/>
<line x1="157.2" y1="407.0" x2="152.4" y2="369.5" opacity="1.0" stroke="rgb(0,0,0)"  stroke-width="3"/>
<line x1="149.3" y1="401.9" x2="146.0" y2="376.4" opacity="1.0" stroke="rgb(0,0,0)"  stroke-width="3"/>
<line x1="152.4" y1="369.5" x2="117.5" y2="355.0" opacity="1.0" stroke="rgb(0,0,0)"  stroke-width="3"/>
<line x1="117.5" y1="355.0" x2="87.5" y2="377.9" opacity="1.0" stroke="rgb(0,0,0)"  stroke-width="3"/>
<line x1="117.1" y1="364.3" x2="96.7" y2="380.0" opacity="1.0" stroke="rgb(0,0,0)"  stroke-width="3"/>
<line x1="87.5" y1="377.9" x2="92.4" y2="415.3" opacity="1.0" stroke="rgb(0,0,0)"  stroke-width="3"/>
<line x1="505.9" y1="287.2" x2="543.6" y2="291.2" opacity="1.0" stroke="rgb(0,0,0)"  stroke-width="3"/>
<line x1="543.6" y1="291.2" x2="565.9" y2="260.5" opacity="1.0" stroke="rgb(0,0,0)"  stroke-width="3"/>
<line x1="541.3" y1="282.1" x2="556.5" y2="261.1" opacity="1.0" stroke="rgb(0,0,0)"  stroke-width="3"/>
<line x1="565.9" y1="260.5" x2="550.4" y2="225.9" opacity="1.0" stroke="rgb(0,0,0)"  stroke-width="3"/>
<line x1="550.4" y1="225.9" x2="512.8" y2="221.9" opacity="1.0" stroke="rgb(0,0,0)"  stroke-width="3"/>
<line x1="543.7" y1="232.4" x2="518.0" y2="229.7" opacity="1.0" stroke="rgb(0,0,0)"  stroke-width="3"/>
<line x1="512.8" y1="221.9" x2="490.5" y2="252.6" opacity="1.0" stroke="rgb(0,0,0)"  stroke-width="3"/>
<line x1="490.5" y1="252.6" x2="505.9" y2="287.2" opacity="1.0" stroke="rgb(0,0,0)"  stroke-width="3"/>
<line x1="499.5" y1="255.1" x2="510.0" y2="278.8" opacity="1.0" stroke="rgb(0,0,0)"  stroke-width="3"/>
<line x1="370.5" y1="411.1" x2="406.9" y2="401.2" opacity="1.0" stroke="rgb(0,0,0)"  stroke-width="3"/>
<line x1="408.8" y1="363.5" x2="373.5" y2="350.0" opacity="1.0" stroke="rgb(0,0,0)"  stroke-width="3"/>
<line x1="373.5" y1="350.0" x2="349.8" y2="379.5" opacity="1.0" stroke="rgb(0,0,0)"  stroke-width="3"/>
<line x1="157.2" y1="407.0" x2="194.3" y2="413.9" opacity="1.0" stroke="rgb(0,0,0)"  stroke-width="3"/>
<line x1="212.4" y1="380.8" x2="186.5" y2="353.3" opacity="1.0" stroke="rgb(0,0,0)"  stroke-width="3"/>
<line x1="186.5" y1="353.3" x2="152.4" y2="369.5" opacity="1.0" stroke="rgb(0,0,0)"  stroke-width="3"/>
<line x1="243.7" y1="285.7" x2="186.5" y2="353.3" opacity="1.0" stroke="rgb(0,0,0)"  stroke-width="3"/>
<line x1="186.5" y1="353.3" x2="159.7" y2="275.2" opacity="1.0" stroke="rgb(0,0,0)"  stroke-width="3"/>
<line x1="393.1" y1="275.2" x2="373.5" y2="350.0" opacity="1.0" stroke="rgb(0,0,0)"  stroke-width="3"/>
<line x1="373.5" y1="350.0" x2="309.1" y2="285.7" opacity="1.0" stroke="rgb(0,0,0)"  stroke-width="3"/>
<text x="335.780540" y="85.891783" fill="rgb(127,178,255)" stroke-width="0" font-weight="bold" font-size="25.92" >F</text>
<text x="270.378220" y="350.345518" fill="rgb(127,178,255)" stroke-width="0" font-weight="bold" font-size="25.92" >F</text>
<text x="204.975257" y="237.064289" fill="rgb(12,12,255)" stroke-width="0" font-weight="bold" font-size="25.92" >N</text>
<text x="335.780540" y="237.064289" fill="rgb(12,12,255)" stroke-width="0" font-weight="bold" font-size="25.92" >N</text>
<text x="270.377898" y="199.304002" fill="rgb(255,181,181)" stroke-width="0" font-weight="bold" font-size="25.92" >B</text>
</svg>
</g>
</svg>
