<?xml version="1.0" standalone="no" ?>
<!DOCTYPE svg PUBLIC "-//W3C//DTD SVG 1.1//EN" "http://www.w3.org/Graphics/SVG/1.1/DTD/svg11.dtd">
<svg width="251px" height="257px" viewBox="0 0 251 257" style="background-color: #ffffff00" xmlns="http://www.w3.org/2000/svg" xmlns:xlink="http://www.w3.org/1999/xlink" version="1.1" >
<text x="0" y="0" stroke="none" fill="#000000" transform="matrix(0.0666667 0 0 0.0666667 84.0196 120.511)" font-style="normal" font-weight="normal" font-size="200px" font-family="Arial" >
N</text>
<text x="0" y="0" stroke="none" fill="#000000" transform="matrix(0.0666667 0 0 0.0666667 149.767 120.511)" font-style="normal" font-weight="normal" font-size="200px" font-family="Arial" >
N</text>
<path stroke="none" fill="#000000" transform="matrix(0.0666667 0 0 0.0666667 -428.567 -347)" d="M 7992.08,7091.64 L 8005.58,7084.88 L 8018.99,7092.63 L 8018.99,7364.16 L 8005.58,7371.91 L 7991.82,7367.76 L 7992.08,7091.64 Z " />
<path stroke="none" fill="#000000" transform="matrix(0.0666667 0 0 0.0666667 -428.567 -347)" d="M 8062.28,7125.8 L 8090.62,7125.8 L 8090.62,7330.99 L 8062.28,7330.99 L 8062.28,7125.8 Z " />
<path stroke="none" fill="#000000" transform="matrix(0.0666667 0 0 0.0666667 -428.567 -347)" d="M 8011.53,7390.08 L 8005.58,7371.91 L 8018.99,7364.16 L 8254.14,7499.9 L 8254.14,7515.38 L 8241.15,7523.42 L 8011.53,7390.08 Z " />
<path stroke="none" fill="#000000" transform="matrix(0.0666667 0 0 0.0666667 -428.567 -347)" d="M 8267.12,7523.42 L 8254.14,7515.38 L 8254.14,7499.9 L 8489.24,7364.16 L 8502.65,7371.91 L 8498.32,7389.35 L 8267.12,7523.42 Z " />
<path stroke="none" fill="#000000" transform="matrix(0.0666667 0 0 0.0666667 -428.567 -347)" d="M 8261.22,7445.83 L 8247.05,7421.28 L 8424.7,7318.72 L 8438.87,7343.27 L 8261.22,7445.83 Z " />
<path stroke="none" fill="#000000" transform="matrix(0.0666667 0 0 0.0666667 -428.567 -347)" d="M 8516.31,7366.71 L 8502.65,7371.91 L 8489.24,7364.16 L 8489.24,7092.63 L 8502.65,7084.88 L 8516.16,7091.63 L 8516.31,7366.71 Z " />
<path stroke="none" fill="#000000" transform="matrix(0.0666667 0 0 0.0666667 -428.567 -347)" d="M 8503.14,7069.62 L 8502.65,7084.88 L 8489.24,7092.63 L 8254.14,6956.89 L 8254.14,6941.41 L 8267.02,6933.29 L 8503.14,7069.62 Z " />
<path stroke="none" fill="#000000" transform="matrix(0.0666667 0 0 0.0666667 -428.567 -347)" d="M 8438.87,7113.52 L 8424.7,7138.07 L 8247.05,7035.51 L 8261.22,7010.96 L 8438.87,7113.52 Z " />
<path stroke="none" fill="#000000" transform="matrix(0.0666667 0 0 0.0666667 -428.567 -347)" d="M 8241.25,6933.29 L 8254.14,6941.41 L 8254.14,6956.89 L 8018.99,7092.63 L 8005.58,7084.88 L 8005.1,7069.62 L 8241.25,6933.29 Z " />
<path stroke="none" fill="#000000" transform="matrix(0.0666667 0 0 0.0666667 -428.567 -347)" d="M 8005.1,7069.62 L 8005.58,7084.88 L 7992.08,7091.64 L 7855.56,7009.38 L 7870.4,6985.22 L 8005.1,7069.62 Z " />
<path stroke="none" fill="#000000" transform="matrix(0.0666667 0 0 0.0666667 -428.567 -347)" d="M 8516.16,7091.63 L 8502.65,7084.88 L 8503.14,7069.62 L 8637.52,6985.42 L 8652.36,7009.57 L 8516.16,7091.63 Z " />
<path stroke="none" fill="#000000" transform="matrix(0.0666667 0 0 0.0666667 -428.567 -347)" d="M 7739.24,6826.59 L 7712.4,6835.72 L 7659.9,6676.39 L 7668.64,6662.97 L 7683.18,6664.93 L 7739.24,6826.59 Z " />
<path stroke="none" fill="#000000" transform="matrix(0.0666667 0 0 0.0666667 -428.567 -347)" d="M 7660.72,6649.67 L 7668.64,6662.97 L 7659.9,6676.39 L 7391.44,6679.98 L 7381.65,6666.88 L 7389.21,6653.37 L 7660.72,6649.67 Z " />
<path stroke="none" fill="#000000" transform="matrix(0.0666667 0 0 0.0666667 -428.567 -347)" d="M 7626.57,6578.5 L 7626.96,6606.84 L 7421.8,6609.64 L 7421.41,6581.29 L 7626.57,6578.5 Z " />
<path stroke="none" fill="#000000" transform="matrix(0.0666667 0 0 0.0666667 -428.567 -347)" d="M 7366.9,6668.64 L 7381.65,6666.88 L 7391.44,6679.98 L 7312.16,6935.73 L 7296.69,6940.99 L 7285.51,6931.2 L 7366.9,6668.64 Z " />
<path stroke="none" fill="#000000" transform="matrix(0.0666667 0 0 0.0666667 -428.567 -347)" d="M 7295.28,6956.41 L 7296.69,6940.99 L 7312.16,6935.73 L 7531.64,7090.6 L 7531.13,7106.53 L 7517.08,7113.02 L 7295.28,6956.41 Z " />
<path stroke="none" fill="#000000" transform="matrix(0.0666667 0 0 0.0666667 -428.567 -347)" d="M 7281.06,7034.06 L 7297.41,7010.9 L 7465.02,7129.24 L 7448.67,7152.4 L 7281.06,7034.06 Z " />
<path stroke="none" fill="#000000" transform="matrix(0.0666667 0 0 0.0666667 -428.567 -347)" d="M 7544.26,7112.98 L 7531.13,7106.53 L 7531.64,7090.6 L 7654.03,6996.95 L 7671,7019.66 L 7544.26,7112.98 Z " />
<path stroke="none" fill="#000000" transform="matrix(0.0666667 0 0 0.0666667 -428.567 -347)" d="M 7285.51,6931.2 L 7296.69,6940.99 L 7295.28,6956.41 L 7048.77,7070.21 L 7021.95,7051.28 L 7285.51,6931.2 Z " />
<path stroke="none" fill="#000000" transform="matrix(0.0666667 0 0 0.0666667 -428.567 -347)" d="M 7021.95,7051.28 L 7048.77,7070.21 L 7024.07,7340.6 L 7010.01,7347.09 L 6997.36,7338.16 L 7021.95,7051.28 Z " />
<path stroke="none" fill="#000000" transform="matrix(0.0666667 0 0 0.0666667 -428.567 -347)" d="M 7088.86,7107.19 L 7117.09,7109.77 L 7098.42,7314.08 L 7070.19,7311.5 L 7088.86,7107.19 Z " />
<path stroke="none" fill="#000000" transform="matrix(0.0666667 0 0 0.0666667 -428.567 -347)" d="M 7008.6,7362.5 L 7010.01,7347.09 L 7024.07,7340.6 L 7245.87,7497.2 L 7242.88,7529.91 L 7008.6,7362.5 Z " />
<path stroke="none" fill="#000000" transform="matrix(0.0666667 0 0 0.0666667 -428.567 -347)" d="M 7242.88,7529.91 L 7245.87,7497.2 L 7492.37,7383.4 L 7505.02,7392.33 L 7491.9,7411.81 L 7242.88,7529.91 Z " />
<path stroke="none" fill="#000000" transform="matrix(0.0666667 0 0 0.0666667 -428.567 -347)" d="M 7257.85,7444 L 7245.97,7418.26 L 7432.23,7332.27 L 7444.12,7358 L 7257.85,7444 Z " />
<path stroke="none" fill="#000000" transform="matrix(0.0666667 0 0 0.0666667 -428.567 -347)" d="M 7519.14,7393.62 L 7505.02,7392.33 L 7492.37,7383.4 L 7517.08,7113.02 L 7531.13,7106.53 L 7544.26,7112.98 L 7519.14,7393.62 Z " />
<path stroke="none" fill="#000000" transform="matrix(0.0666667 0 0 0.0666667 -428.567 -347)" d="M 7683.18,6664.93 L 7668.64,6662.97 L 7660.72,6649.67 L 7793.25,6412.71 L 7808.73,6412.5 L 7813.58,6430.21 L 7683.18,6664.93 Z " />
<path stroke="none" fill="#000000" transform="matrix(0.0666667 0 0 0.0666667 -428.567 -347)" d="M 7818.47,6401.94 L 7808.73,6412.5 L 7793.25,6412.71 L 7654.31,6179.42 L 7670.34,6150.76 L 7818.47,6401.94 Z " />
<path stroke="none" fill="#000000" transform="matrix(0.0666667 0 0 0.0666667 -428.567 -347)" d="M 7739.09,6406.36 L 7714.74,6420.87 L 7609.74,6244.57 L 7634.1,6230.07 L 7739.09,6406.36 Z " />
<path stroke="none" fill="#000000" transform="matrix(0.0666667 0 0 0.0666667 -428.567 -347)" d="M 7670.34,6150.76 L 7654.31,6179.42 L 7382.81,6183.12 L 7374.88,6169.81 L 7382.56,6156.31 L 7670.34,6150.76 Z " />
<path stroke="none" fill="#000000" transform="matrix(0.0666667 0 0 0.0666667 -428.567 -347)" d="M 7359.45,6169.92 L 7374.88,6169.81 L 7382.81,6183.12 L 7250.27,6420.08 L 7217.44,6420.52 L 7359.45,6169.92 Z " />
<path stroke="none" fill="#000000" transform="matrix(0.0666667 0 0 0.0666667 -428.567 -347)" d="M 7404.39,6233.2 L 7429.13,6247.03 L 7328.98,6426.09 L 7304.24,6412.26 L 7404.39,6233.2 Z " />
<path stroke="none" fill="#000000" transform="matrix(0.0666667 0 0 0.0666667 -428.567 -347)" d="M 7217.44,6420.52 L 7250.27,6420.08 L 7389.21,6653.37 L 7381.65,6666.88 L 7366.9,6668.64 L 7217.44,6420.52 Z " />
<path stroke="none" fill="#000000" transform="matrix(0.0666667 0 0 0.0666667 -428.567 -347)" d="M 8844.27,6990.09 L 8855.1,6963.9 L 9008.16,7028.85 L 9012.5,7044.25 L 9001.44,7053.88 L 8844.27,6990.09 Z " />
<path stroke="none" fill="#000000" transform="matrix(0.0666667 0 0 0.0666667 -428.567 -347)" d="M 9027.73,7047.06 L 9012.5,7044.25 L 9008.16,7028.85 L 9182.37,6824.56 L 9198.67,6825.82 L 9203.85,6840.41 L 9027.73,7047.06 Z " />
<path stroke="none" fill="#000000" transform="matrix(0.0666667 0 0 0.0666667 -428.567 -347)" d="M 9103.76,7068.27 L 9082.19,7049.89 L 9215.28,6893.74 L 9236.85,6912.13 L 9103.76,7068.27 Z " />
<path stroke="none" fill="#000000" transform="matrix(0.0666667 0 0 0.0666667 -428.567 -347)" d="M 9207.07,6813.57 L 9198.67,6825.82 L 9182.37,6824.56 L 9042.22,6596.36 L 9048.46,6581.25 L 9063.19,6579.3 L 9207.07,6813.57 Z " />
<path stroke="none" fill="#000000" transform="matrix(0.0666667 0 0 0.0666667 -428.567 -347)" d="M 9037.79,6570.03 L 9048.46,6581.25 L 9042.22,6596.36 L 8781.39,6659.34 L 8769.46,6648.56 L 8773.84,6633.71 L 9037.79,6570.03 Z " />
<path stroke="none" fill="#000000" transform="matrix(0.0666667 0 0 0.0666667 -428.567 -347)" d="M 8988.74,6508.18 L 8995.39,6535.73 L 8795.94,6583.85 L 8789.29,6556.29 L 8988.74,6508.18 Z " />
<path stroke="none" fill="#000000" transform="matrix(0.0666667 0 0 0.0666667 -428.567 -347)" d="M 8755.78,6653.94 L 8769.46,6648.56 L 8781.39,6659.34 L 8768.67,6841.66 L 8740.41,6839.46 L 8755.78,6653.94 Z " />
<path stroke="none" fill="#000000" transform="matrix(0.0666667 0 0 0.0666667 -428.567 -347)" d="M 9063.19,6579.3 L 9048.46,6581.25 L 9037.79,6570.03 L 9114.64,6309.62 L 9146.56,6301.92 L 9063.19,6579.3 Z " />
<path stroke="none" fill="#000000" transform="matrix(0.0666667 0 0 0.0666667 -428.567 -347)" d="M 9146.56,6301.92 L 9114.64,6309.62 L 8927.51,6112.86 L 8931.89,6098.01 L 8946.95,6094.38 L 9146.56,6301.92 Z " />
<path stroke="none" fill="#000000" transform="matrix(0.0666667 0 0 0.0666667 -428.567 -347)" d="M 9060.41,6315.41 L 9039.87,6334.95 L 8898.47,6186.26 L 8919.01,6166.72 L 9060.41,6315.41 Z " />
<path stroke="none" fill="#000000" transform="matrix(0.0666667 0 0 0.0666667 -428.567 -347)" d="M 8921.22,6086.79 L 8931.89,6098.01 L 8927.51,6112.86 L 8663.57,6176.53 L 8640.94,6152.73 L 8921.22,6086.79 Z " />
<path stroke="none" fill="#000000" transform="matrix(0.0666667 0 0 0.0666667 -428.567 -347)" d="M 8640.94,6152.73 L 8663.57,6176.53 L 8586.72,6436.94 L 8571.67,6440.57 L 8559.95,6431.95 L 8640.94,6152.73 Z " />
<path stroke="none" fill="#000000" transform="matrix(0.0666667 0 0 0.0666667 -428.567 -347)" d="M 8695.7,6220.59 L 8722.88,6228.62 L 8664.81,6425.39 L 8637.62,6417.37 L 8695.7,6220.59 Z " />
<path stroke="none" fill="#000000" transform="matrix(0.0666667 0 0 0.0666667 -428.567 -347)" d="M 8569.8,6457.58 L 8571.67,6440.57 L 8586.72,6436.94 L 8773.84,6633.71 L 8769.46,6648.56 L 8755.78,6653.94 L 8569.8,6457.58 Z " />
<path stroke="none" fill="#000000" transform="matrix(0.0666667 0 0 0.0666667 -428.567 -347)" d="M 7295.17,8657.51 L 7282.76,8668.15 L 7268.77,8661.5 L 7247.06,8390.86 L 7259.8,8382.07 L 7273.75,8390.59 L 7295.17,8657.51 Z " />
<path stroke="none" fill="#000000" transform="matrix(0.0666667 0 0 0.0666667 -428.567 -347)" d="M 7222.97,8631.9 L 7194.72,8634.17 L 7178.31,8429.66 L 7206.57,8427.39 L 7222.97,8631.9 Z " />
<path stroke="none" fill="#000000" transform="matrix(0.0666667 0 0 0.0666667 -428.567 -347)" d="M 7268.77,8661.5 L 7282.76,8668.15 L 7285.49,8682.76 L 7047.91,8848.38 L 7045.28,8815.65 L 7268.77,8661.5 Z " />
<path stroke="none" fill="#000000" transform="matrix(0.0666667 0 0 0.0666667 -428.567 -347)" d="M 7045.28,8815.65 L 7047.91,8848.38 L 6773,8717.79 L 6800.03,8699.15 L 7045.28,8815.65 Z " />
<path stroke="none" fill="#000000" transform="matrix(0.0666667 0 0 0.0666667 -428.567 -347)" d="M 7046.05,8736.71 L 7033.89,8762.32 L 6848.56,8674.29 L 6860.73,8648.68 L 7046.05,8736.71 Z " />
<path stroke="none" fill="#000000" transform="matrix(0.0666667 0 0 0.0666667 -428.567 -347)" d="M 6800.03,8699.15 L 6773,8717.79 L 6748.63,8414.44 L 6778.29,8428.53 L 6800.03,8699.15 Z " />
<path stroke="none" fill="#000000" transform="matrix(0.0666667 0 0 0.0666667 -428.567 -347)" d="M 6778.29,8428.53 L 6748.63,8414.44 L 6987.59,8251.48 L 7000.57,8258.97 L 7001.81,8274.4 L 6778.29,8428.53 Z " />
<path stroke="none" fill="#000000" transform="matrix(0.0666667 0 0 0.0666667 -428.567 -347)" d="M 6846.27,8468.67 L 6830.18,8445.33 L 6999.08,8328.86 L 7015.17,8352.2 L 6846.27,8468.67 Z " />
<path stroke="none" fill="#000000" transform="matrix(0.0666667 0 0 0.0666667 -428.567 -347)" d="M 7001.81,8274.4 L 7000.57,8258.97 L 7013.35,8250.2 L 7260.17,8367.21 L 7259.8,8382.07 L 7247.06,8390.86 L 7001.81,8274.4 Z " />
<path stroke="none" fill="#000000" transform="matrix(0.0666667 0 0 0.0666667 -428.567 -347)" d="M 9001.44,7053.88 L 9012.5,7044.25 L 9027.73,7047.06 L 9118.61,7302.91 L 9108.57,7314.69 L 9095.21,7319.43 L 9001.44,7053.88 Z " />
<path stroke="none" fill="#000000" transform="matrix(0.0666667 0 0 0.0666667 -428.567 -347)" d="M 9122.6,7330.02 L 9108.57,7314.69 L 9118.61,7302.91 L 9385.62,7352.11 L 9396.62,7383.06 L 9122.6,7330.02 Z " />
<path stroke="none" fill="#000000" transform="matrix(0.0666667 0 0 0.0666667 -428.567 -347)" d="M 9159.08,7266.35 L 9164.22,7238.47 L 9365.98,7275.66 L 9360.85,7303.54 L 9159.08,7266.35 Z " />
<path stroke="none" fill="#000000" transform="matrix(0.0666667 0 0 0.0666667 -428.567 -347)" d="M 9396.62,7383.06 L 9385.62,7352.11 L 9561.75,7145.47 L 9576.98,7148.28 L 9582.16,7162.87 L 9396.62,7383.06 Z " />
<path stroke="none" fill="#000000" transform="matrix(0.0666667 0 0 0.0666667 -428.567 -347)" d="M 9587.02,7136.5 L 9576.98,7148.28 L 9561.75,7145.47 L 9470.86,6889.62 L 9492.17,6864.63 L 9587.02,7136.5 Z " />
<path stroke="none" fill="#000000" transform="matrix(0.0666667 0 0 0.0666667 -428.567 -347)" d="M 9509.86,7128.7 L 9483.15,7138.19 L 9414.47,6944.86 L 9441.18,6935.37 L 9509.86,7128.7 Z " />
<path stroke="none" fill="#000000" transform="matrix(0.0666667 0 0 0.0666667 -428.567 -347)" d="M 9492.17,6864.63 L 9470.86,6889.62 L 9203.85,6840.41 L 9198.67,6825.82 L 9207.07,6813.57 L 9492.17,6864.63 Z " />
<path stroke="none" fill="#000000" transform="matrix(0.0666667 0 0 0.0666667 -428.567 -347)" d="M 9390.3,8310.9 L 9403.37,8301.08 L 9416.9,8308.6 L 9421.28,8580.08 L 9408,8588.04 L 9394.62,8578.65 L 9390.3,8310.9 Z " />
<path stroke="none" fill="#000000" transform="matrix(0.0666667 0 0 0.0666667 -428.567 -347)" d="M 9460.71,8341.07 L 9489.06,8340.61 L 9492.37,8545.75 L 9464.02,8546.21 L 9460.71,8341.07 Z " />
<path stroke="none" fill="#000000" transform="matrix(0.0666667 0 0 0.0666667 -428.567 -347)" d="M 9416.9,8308.6 L 9403.37,8301.08 L 9401.57,8286.32 L 9636.64,8145.59 L 9649.54,8153.58 L 9649.79,8169.06 L 9416.9,8308.6 Z " />
<path stroke="none" fill="#000000" transform="matrix(0.0666667 0 0 0.0666667 -428.567 -347)" d="M 9891.52,8572.45 L 9920.17,8588.43 L 9659.13,8744.84 L 9658.6,8712.01 L 9891.52,8572.45 Z " />
<path stroke="none" fill="#000000" transform="matrix(0.0666667 0 0 0.0666667 -428.567 -347)" d="M 9826.35,8527.99 L 9840.91,8552.31 L 9664.8,8657.83 L 9650.24,8633.51 L 9826.35,8527.99 Z " />
<path stroke="none" fill="#000000" transform="matrix(0.0666667 0 0 0.0666667 -428.567 -347)" d="M 9658.6,8712.01 L 9659.13,8744.84 L 9406.69,8602.84 L 9408,8588.04 L 9421.28,8580.08 L 9658.6,8712.01 Z " />
<path stroke="none" fill="#000000" transform="matrix(0.0666667 0 0 0.0666667 -428.567 -347)" d="M 7285.49,8682.76 L 7282.76,8668.15 L 7295.17,8657.51 L 7555.65,8719.63 L 7561.93,8734.72 L 7552.9,8746.53 L 7285.49,8682.76 Z " />
<path stroke="none" fill="#000000" transform="matrix(0.0666667 0 0 0.0666667 -428.567 -347)" d="M 7577.41,8735.1 L 7561.93,8734.72 L 7555.65,8719.63 L 7695.22,8491.09 L 7711.51,8489.79 L 7718.92,8503.38 L 7577.41,8735.1 Z " />
<path stroke="none" fill="#000000" transform="matrix(0.0666667 0 0 0.0666667 -428.567 -347)" d="M 7655.83,8744.13 L 7631.64,8729.35 L 7738.57,8554.25 L 7762.76,8569.03 L 7655.83,8744.13 Z " />
<path stroke="none" fill="#000000" transform="matrix(0.0666667 0 0 0.0666667 -428.567 -347)" d="M 7717.89,8476.36 L 7711.51,8489.79 L 7695.22,8491.09 L 7521,8287.73 L 7524.79,8271.83 L 7541.2,8270.69 L 7717.89,8476.36 Z " />
<path stroke="none" fill="#000000" transform="matrix(0.0666667 0 0 0.0666667 -428.567 -347)" d="M 7510.71,8263.39 L 7524.79,8271.83 L 7521,8287.73 L 7273.75,8390.59 L 7259.8,8382.07 L 7260.17,8367.21 L 7510.71,8263.39 Z " />
<path stroke="none" fill="#000000" transform="matrix(0.0666667 0 0 0.0666667 -428.567 -347)" d="M 7552.9,8746.53 L 7561.93,8734.72 L 7577.41,8735.1 L 7707.32,8973.52 L 7690.21,9001.55 L 7552.9,8746.53 Z " />
<path stroke="none" fill="#000000" transform="matrix(0.0666667 0 0 0.0666667 -428.567 -347)" d="M 7690.21,9001.55 L 7707.32,8973.52 L 7978.76,8980.22 L 7994.47,9009.05 L 7690.21,9001.55 Z " />
<path stroke="none" fill="#000000" transform="matrix(0.0666667 0 0 0.0666667 -428.567 -347)" d="M 7741.55,8931.07 L 7742.25,8902.73 L 7947.36,8907.79 L 7946.66,8936.13 L 7741.55,8931.07 Z " />
<path stroke="none" fill="#000000" transform="matrix(0.0666667 0 0 0.0666667 -428.567 -347)" d="M 7994.47,9009.05 L 7978.76,8980.22 L 8120.27,8748.5 L 8153.1,8749.31 L 7994.47,9009.05 Z " />
<path stroke="none" fill="#000000" transform="matrix(0.0666667 0 0 0.0666667 -428.567 -347)" d="M 8153.1,8749.31 L 8120.27,8748.5 L 7990.36,8510.08 L 8007.47,8482.05 L 8153.1,8749.31 Z " />
<path stroke="none" fill="#000000" transform="matrix(0.0666667 0 0 0.0666667 -428.567 -347)" d="M 8066.39,8740.08 L 8041.5,8753.64 L 7943.33,8573.48 L 7968.22,8559.92 L 8066.39,8740.08 Z " />
<path stroke="none" fill="#000000" transform="matrix(0.0666667 0 0 0.0666667 -428.567 -347)" d="M 8007.47,8482.05 L 7990.36,8510.08 L 7718.92,8503.38 L 7711.51,8489.79 L 7717.89,8476.36 L 8007.47,8482.05 Z " />
<path stroke="none" fill="#000000" transform="matrix(0.0666667 0 0 0.0666667 -428.567 -347)" d="M 7491.9,7411.81 L 7505.02,7392.33 L 7519.19,7392.01 L 7536.31,8223.06 L 7524.79,8271.83 L 7510.71,8263.39 L 7491.9,7411.81 Z " />
<path stroke="none" fill="#000000" transform="matrix(0.0666667 0 0 0.0666667 -428.567 -347)" d="M 7991.82,7367.76 L 8005.58,7371.91 L 8011.53,7390.08 L 7541.2,8270.69 L 7524.79,8271.83 L 7536.31,8223.06 L 7991.82,7367.76 Z " />
<path stroke="none" fill="#000000" transform="matrix(0.0666667 0 0 0.0666667 -428.567 -347)" d="M 9401.57,8286.32 L 9403.37,8301.08 L 9390.3,8310.9 L 9134.32,8232.27 L 9129.02,8216.81 L 9142.69,8207.24 L 9401.57,8286.32 Z " />
<path stroke="none" fill="#000000" transform="matrix(0.0666667 0 0 0.0666667 -428.567 -347)" d="M 9112.33,8217.68 L 9129.02,8216.81 L 9134.32,8232.27 L 8980.44,8451.42 L 8964.09,8451.69 L 8956.46,8438.94 L 9112.33,8217.68 Z " />
<path stroke="none" fill="#000000" transform="matrix(0.0666667 0 0 0.0666667 -428.567 -347)" d="M 8958.03,8465.93 L 8964.09,8451.69 L 8980.44,8451.42 L 9141.31,8665.5 L 9136.51,8681.12 L 9121.14,8682.99 L 8958.03,8465.93 Z " />
<path stroke="none" fill="#000000" transform="matrix(0.0666667 0 0 0.0666667 -428.567 -347)" d="M 8920.69,8535.48 L 8943.35,8518.46 L 9066.61,8682.47 L 9043.95,8699.5 L 8920.69,8535.48 Z " />
<path stroke="none" fill="#000000" transform="matrix(0.0666667 0 0 0.0666667 -428.567 -347)" d="M 9146.63,8692 L 9136.51,8681.12 L 9141.31,8665.5 L 9394.62,8578.65 L 9408,8588.04 L 9406.69,8602.84 L 9146.63,8692 Z " />
<path stroke="none" fill="#000000" transform="matrix(0.0666667 0 0 0.0666667 -428.567 -347)" d="M 8956.46,8438.94 L 8964.09,8451.69 L 8958.03,8465.93 L 8688.49,8498.67 L 8668.76,8472.42 L 8956.46,8438.94 Z " />
<path stroke="none" fill="#000000" transform="matrix(0.0666667 0 0 0.0666667 -428.567 -347)" d="M 8668.76,8472.42 L 8688.49,8498.67 L 8582.07,8748.46 L 8549.47,8752.42 L 8668.76,8472.42 Z " />
<path stroke="none" fill="#000000" transform="matrix(0.0666667 0 0 0.0666667 -428.567 -347)" d="M 8715.31,8546.15 L 8741.39,8557.26 L 8660.97,8746.02 L 8634.89,8734.91 L 8715.31,8546.15 Z " />
<path stroke="none" fill="#000000" transform="matrix(0.0666667 0 0 0.0666667 -428.567 -347)" d="M 8549.47,8752.42 L 8582.07,8748.46 L 8745.19,8965.52 L 8732.32,8995.73 L 8549.47,8752.42 Z " />
<path stroke="none" fill="#000000" transform="matrix(0.0666667 0 0 0.0666667 -428.567 -347)" d="M 8732.32,8995.73 L 8745.19,8965.52 L 9014.73,8932.78 L 9034.45,8959.03 L 8732.32,8995.73 Z " />
<path stroke="none" fill="#000000" transform="matrix(0.0666667 0 0 0.0666667 -428.567 -347)" d="M 8772.9,8918.55 L 8769.48,8890.41 L 8973.16,8865.68 L 8976.58,8893.81 L 8772.9,8918.55 Z " />
<path stroke="none" fill="#000000" transform="matrix(0.0666667 0 0 0.0666667 -428.567 -347)" d="M 9034.45,8959.03 L 9014.73,8932.78 L 9121.14,8682.99 L 9136.51,8681.12 L 9146.63,8692 L 9034.45,8959.03 Z " />
<path stroke="none" fill="#000000" transform="matrix(0.0666667 0 0 0.0666667 -428.567 -347)" d="M 9094.48,7316.47 L 9108.57,7314.69 L 9122.6,7330.02 L 9142.69,8207.24 L 9129.02,8216.81 L 9115.21,8176.23 L 9094.48,7316.47 Z " />
<path stroke="none" fill="#000000" transform="matrix(0.0666667 0 0 0.0666667 -428.567 -347)" d="M 9115.21,8176.23 L 9129.02,8216.81 L 9112.33,8217.68 L 8498.32,7389.35 L 8502.65,7371.91 L 8516.31,7366.71 L 9115.21,8176.23 Z " />
<path stroke="none" fill="#000000" transform="matrix(0.0666667 0 0 0.0666667 -428.567 -347)" d="M 7382.56,6156.31 L 7374.88,6169.81 L 7359.45,6169.92 L 7223.64,5934.67 L 7231.38,5921.26 L 7246.87,5921.26 L 7382.56,6156.31 Z " />
<text x="0" y="0" stroke="none" fill="#000000" transform="matrix(0.0666667 0 0 0.0666667 117.637 178.359)" font-style="normal" font-weight="normal" font-size="200px" font-family="Arial" >
F</text>
<path stroke="none" fill="#000000" transform="matrix(0.0666667 0 0 0.0666667 -428.567 -347)" d="M 8241.15,7523.42 L 8254.14,7515.38 L 8267.12,7523.42 L 8268.31,7707.8 L 8239.96,7707.8 L 8241.15,7523.42 Z " />
<path stroke="none" fill="#000000" transform="matrix(0.0666667 0 0 0.0666667 -428.567 -347)" d="M 9649.79,8169.06 L 9649.54,8153.58 L 9662.4,8145.33 L 9916.18,8284.62 L 9887.96,8301.47 L 9649.79,8169.06 Z " />
<path stroke="none" fill="#000000" transform="matrix(0.0666667 0 0 0.0666667 -428.567 -347)" d="M 9643.98,8247.79 L 9657.76,8223.01 L 9837.83,8323.12 L 9824.05,8347.9 L 9643.98,8247.79 Z " />
<path stroke="none" fill="#000000" transform="matrix(0.0666667 0 0 0.0666667 -428.567 -347)" d="M 9920.17,8588.43 L 9891.52,8572.45 L 9887.96,8301.47 L 9916.18,8284.62 L 9920.17,8588.43 Z " />
<path stroke="none" fill="#000000" transform="matrix(0.0666667 0 0 0.0666667 -428.567 -347)" d="M 6997.36,7338.16 L 7010.01,7347.09 L 7008.6,7362.5 L 6762.08,7476.29 L 6749.43,7467.37 L 6750.84,7451.95 L 6997.36,7338.16 Z " />
<path stroke="none" fill="#000000" transform="matrix(0.0666667 0 0 0.0666667 -428.567 -347)" d="M 7246.87,5921.26 L 7231.38,5921.26 L 7223.64,5907.86 L 7359.4,5672.72 L 7392.24,5672.72 L 7246.87,5921.26 Z " />
<path stroke="none" fill="#000000" transform="matrix(0.0666667 0 0 0.0666667 -428.567 -347)" d="M 7202.74,5857.49 L 7178.19,5843.31 L 7280.78,5665.63 L 7305.33,5679.8 L 7202.74,5857.49 Z " />
<path stroke="none" fill="#000000" transform="matrix(0.0666667 0 0 0.0666667 -428.567 -347)" d="M 7392.24,5672.72 L 7359.4,5672.72 L 7223.64,5437.57 L 7240.06,5409.14 L 7392.24,5672.72 Z " />
<path stroke="none" fill="#000000" transform="matrix(0.0666667 0 0 0.0666667 -428.567 -347)" d="M 7240.06,5409.14 L 7223.64,5437.57 L 6952.12,5437.57 L 6935.7,5409.14 L 7240.06,5409.14 Z " />
<path stroke="none" fill="#000000" transform="matrix(0.0666667 0 0 0.0666667 -428.567 -347)" d="M 7190.47,5480.86 L 7190.47,5509.21 L 6985.3,5509.21 L 6985.3,5480.86 L 7190.47,5480.86 Z " />
<path stroke="none" fill="#000000" transform="matrix(0.0666667 0 0 0.0666667 -428.567 -347)" d="M 6935.7,5409.14 L 6952.12,5437.57 L 6816.37,5672.72 L 6783.53,5672.72 L 6935.7,5409.14 Z " />
<path stroke="none" fill="#000000" transform="matrix(0.0666667 0 0 0.0666667 -428.567 -347)" d="M 6783.53,5672.72 L 6816.37,5672.72 L 6952.12,5907.86 L 6935.7,5936.29 L 6783.53,5672.72 Z " />
<path stroke="none" fill="#000000" transform="matrix(0.0666667 0 0 0.0666667 -428.567 -347)" d="M 6870.44,5679.8 L 6894.99,5665.63 L 6997.57,5843.31 L 6973.02,5857.49 L 6870.44,5679.8 Z " />
<path stroke="none" fill="#000000" transform="matrix(0.0666667 0 0 0.0666667 -428.567 -347)" d="M 6935.7,5936.29 L 6952.12,5907.86 L 7223.64,5907.86 L 7231.38,5921.26 L 7223.64,5934.67 L 6935.7,5936.29 Z " />
<path stroke="none" fill="#000000" transform="matrix(0.0666667 0 0 0.0666667 -428.567 -347)" d="M 8946.95,6094.38 L 8931.89,6098.01 L 8921.22,6086.79 L 8998.06,5826.37 L 9013.11,5822.74 L 9023.78,5833.96 L 8946.95,6094.38 Z " />
<text x="0" y="0" stroke="none" fill="#000000" transform="matrix(0.0666667 0 0 0.0666667 117.263 101.761)" font-style="normal" font-weight="normal" font-size="200px" font-family="Arial" >
B</text>
<path stroke="none" fill="#000000" transform="matrix(0.0666667 0 0 0.0666667 -428.567 -347)" d="M 8239.97,6762.32 L 8268.31,6762.32 L 8267.02,6933.29 L 8254.14,6941.41 L 8241.25,6933.29 L 8239.97,6762.32 Z " />
<path stroke="none" fill="#000000" transform="matrix(0.0666667 0 0 0.0666667 -428.567 -347)" d="M 7813.58,6430.21 L 7808.73,6412.5 L 7818.47,6401.94 L 8166.67,6589.98 L 8153.19,6614.92 L 7813.58,6430.21 Z " />
<path stroke="none" fill="#000000" transform="matrix(0.0666667 0 0 0.0666667 -428.567 -347)" d="M 8339.25,6613.42 L 8323.47,6589.87 L 8559.95,6431.95 L 8571.67,6440.57 L 8569.8,6457.58 L 8339.25,6613.42 Z " />
<path stroke="none" fill="#000000" transform="matrix(0.0666667 0 0 0.0666667 -428.567 -347)" d="M 9023.78,5833.96 L 9013.11,5822.74 L 9017.49,5807.89 L 9281.44,5744.22 L 9304.07,5768.01 L 9023.78,5833.96 Z " />
<path stroke="none" fill="#000000" transform="matrix(0.0666667 0 0 0.0666667 -428.567 -347)" d="M 9039.59,5758.03 L 9032.94,5730.47 L 9232.39,5682.36 L 9239.04,5709.92 L 9039.59,5758.03 Z " />
<path stroke="none" fill="#000000" transform="matrix(0.0666667 0 0 0.0666667 -428.567 -347)" d="M 9304.07,5768.01 L 9281.44,5744.22 L 9358.27,5483.8 L 9390.19,5476.1 L 9304.07,5768.01 Z " />
<path stroke="none" fill="#000000" transform="matrix(0.0666667 0 0 0.0666667 -428.567 -347)" d="M 9390.19,5476.1 L 9358.27,5483.8 L 9171.16,5287.05 L 9180.45,5255.55 L 9390.19,5476.1 Z " />
<path stroke="none" fill="#000000" transform="matrix(0.0666667 0 0 0.0666667 -428.567 -347)" d="M 9304.04,5489.59 L 9283.5,5509.12 L 9142.11,5360.45 L 9162.65,5340.91 L 9304.04,5489.59 Z " />
<path stroke="none" fill="#000000" transform="matrix(0.0666667 0 0 0.0666667 -428.567 -347)" d="M 9180.45,5255.55 L 9171.16,5287.05 L 8907.21,5350.72 L 8884.58,5326.92 L 9180.45,5255.55 Z " />
<path stroke="none" fill="#000000" transform="matrix(0.0666667 0 0 0.0666667 -428.567 -347)" d="M 8884.58,5326.92 L 8907.21,5350.72 L 8830.38,5611.14 L 8798.45,5618.84 L 8884.58,5326.92 Z " />
<path stroke="none" fill="#000000" transform="matrix(0.0666667 0 0 0.0666667 -428.567 -347)" d="M 8939.34,5394.78 L 8966.53,5402.8 L 8908.47,5599.59 L 8881.28,5591.57 L 8939.34,5394.78 Z " />
<path stroke="none" fill="#000000" transform="matrix(0.0666667 0 0 0.0666667 -428.567 -347)" d="M 8798.45,5618.84 L 8830.38,5611.14 L 9017.49,5807.89 L 9013.11,5822.74 L 8998.06,5826.37 L 8798.45,5618.84 Z " />
<path stroke="none" fill="#000000" transform="matrix(0.0666667 0 0 0.0666667 -428.567 -347)" d="M 9582.16,7162.87 L 9576.98,7148.28 L 9587.02,7136.5 L 9854.04,7185.71 L 9859.22,7200.3 L 9849.18,7212.08 L 9582.16,7162.87 Z " />
<path stroke="none" fill="#000000" transform="matrix(0.0666667 0 0 0.0666667 -428.567 -347)" d="M 9877.65,7216 L 9859.22,7200.3 L 9882.03,7192.19 L 10144,7238.38 L 10138.9,7266.25 L 9877.65,7216 Z " />
<path stroke="none" fill="#000000" transform="matrix(0.0666667 0 0 0.0666667 -428.567 -347)" d="M 9849.18,7212.08 L 9859.22,7200.3 L 9877.65,7216 L 9968.65,7465.99 L 9941.94,7475.48 L 9849.18,7212.08 Z " />
<path stroke="none" fill="#000000" transform="matrix(0.0666667 0 0 0.0666667 -428.567 -347)" d="M 9882.03,7192.19 L 9859.22,7200.3 L 9854.04,7185.71 L 10034.6,6972.68 L 10056.2,6991.07 L 9882.03,7192.19 Z " />
<path stroke="none" fill="#000000" transform="matrix(0.0666667 0 0 0.0666667 -428.567 -347)" d="M 6725.33,7465.16 L 6749.43,7467.37 L 6735.47,7487.14 L 6494.79,7600.51 L 6482.91,7574.78 L 6725.33,7465.16 Z " />
<path stroke="none" fill="#000000" transform="matrix(0.0666667 0 0 0.0666667 -428.567 -347)" d="M 6735.47,7487.14 L 6749.43,7467.37 L 6762.08,7476.29 L 6737.42,7754.46 L 6709.2,7751.88 L 6735.47,7487.14 Z " />
<path stroke="none" fill="#000000" transform="matrix(0.0666667 0 0 0.0666667 -428.567 -347)" d="M 6750.84,7451.95 L 6749.43,7467.37 L 6725.33,7465.16 L 6506.8,7313.41 L 6523.15,7290.26 L 6750.84,7451.95 Z " />
<text x="0" y="0" stroke="none" fill="#008040" transform="matrix(0.0666667 0 0 0.0666667 33.6913 189.665)" font-style="normal" font-weight="normal" font-size="200px" font-family="Arial" >
Ph</text>
<path stroke="none" fill="#008040" transform="matrix(0.0666667 0 0 0.0666667 -428.567 -347)" d="M 7013.35,8250.2 L 7000.57,8258.97 L 6987.59,8251.48 L 6986.4,8080.89 L 7014.74,8080.89 L 7013.35,8250.2 Z " />
<text x="0" y="0" stroke="none" fill="#008040" transform="matrix(0.0666667 0 0 0.0666667 210.29 182.639)" font-style="normal" font-weight="normal" font-size="200px" font-family="Arial" >
Ph</text>
<path stroke="none" fill="#008040" transform="matrix(0.0666667 0 0 0.0666667 -428.567 -347)" d="M 9662.4,8145.33 L 9649.54,8153.58 L 9636.64,8145.59 L 9635.37,7975.5 L 9663.72,7975.5 L 9662.4,8145.33 Z " />
</svg>
