<?xml version="1.0"?>
<svg version="1.1" id="topsvg"
xmlns="http://www.w3.org/2000/svg" xmlns:xlink="http://www.w3.org/1999/xlink"
xmlns:cml="http://www.xml-cml.org/schema" x="0" y="0" width="200px" height="200px" viewBox="0 0 100 100">
<title>GD420.sdf - Open Babel Depiction</title>
<rect x="0" y="0" width="100" height="100" fill="white"/>
<g transform="translate(0,0)">
<svg width="100" height="100" x="0" y="0" viewBox="0 0 518.348 520.168"
font-family="sans-serif" stroke="rgb(0,0,0)" stroke-width="3"  stroke-linecap="round">
<line x1="316.5" y1="110.9" x2="316.5" y2="75.5" opacity="1.0" stroke="rgb(0,0,0)"  stroke-width="3"/>
<line x1="316.5" y1="75.5" x2="285.8" y2="57.7" opacity="1.0" stroke="rgb(0,0,0)"  stroke-width="3"/>
<line x1="316.5" y1="75.5" x2="316.5" y2="40.0" opacity="1.0" stroke="rgb(0,0,0)"  stroke-width="3"/>
<line x1="316.5" y1="75.5" x2="347.2" y2="57.7" opacity="1.0" stroke="rgb(0,0,0)"  stroke-width="3"/>
<line x1="193.6" y1="110.9" x2="193.6" y2="75.5" opacity="1.0" stroke="rgb(0,0,0)"  stroke-width="3"/>
<line x1="193.6" y1="75.5" x2="193.6" y2="40.0" opacity="1.0" stroke="rgb(0,0,0)"  stroke-width="3"/>
<line x1="193.6" y1="75.5" x2="224.3" y2="57.7" opacity="1.0" stroke="rgb(0,0,0)"  stroke-width="3"/>
<line x1="193.6" y1="75.5" x2="162.9" y2="57.7" opacity="1.0" stroke="rgb(0,0,0)"  stroke-width="3"/>
<line x1="101.4" y1="270.6" x2="70.7" y2="288.3" opacity="1.0" stroke="rgb(0,0,0)"  stroke-width="3"/>
<line x1="70.7" y1="288.3" x2="40.0" y2="270.6" opacity="1.0" stroke="rgb(0,0,0)"  stroke-width="3"/>
<line x1="70.7" y1="288.3" x2="70.7" y2="323.8" opacity="1.0" stroke="rgb(0,0,0)"  stroke-width="3"/>
<line x1="70.7" y1="288.3" x2="40.0" y2="306.0" opacity="1.0" stroke="rgb(0,0,0)"  stroke-width="3"/>
<line x1="255.0" y1="288.3" x2="255.0" y2="323.8" opacity="1.0" stroke="rgb(0,0,0)"  stroke-width="3"/>
<line x1="408.6" y1="270.6" x2="439.4" y2="288.3" opacity="1.0" stroke="rgb(0,0,0)"  stroke-width="3"/>
<line x1="439.4" y1="288.3" x2="470.1" y2="270.6" opacity="1.0" stroke="rgb(0,0,0)"  stroke-width="3"/>
<line x1="439.4" y1="288.3" x2="439.4" y2="323.8" opacity="1.0" stroke="rgb(0,0,0)"  stroke-width="3"/>
<line x1="439.4" y1="288.3" x2="470.1" y2="306.0" opacity="1.0" stroke="rgb(0,0,0)"  stroke-width="3"/>
<line x1="224.3" y1="377.0" x2="204.9" y2="388.2" opacity="1.0" stroke="rgb(0,0,0)"  stroke-width="3"/>
<line x1="285.8" y1="377.0" x2="305.2" y2="388.2" opacity="1.0" stroke="rgb(0,0,0)"  stroke-width="3"/>
<line x1="162.9" y1="164.2" x2="193.6" y2="181.9" opacity="1.0" stroke="rgb(0,0,0)"  stroke-width="3"/>
<line x1="164.5" y1="173.4" x2="184.8" y2="185.1" opacity="1.0" stroke="rgb(0,0,0)"  stroke-width="3"/>
<line x1="193.6" y1="181.9" x2="193.6" y2="204.4" opacity="1.0" stroke="rgb(0,0,0)"  stroke-width="3"/>
<line x1="182.3" y1="223.9" x2="162.9" y2="235.1" opacity="1.0" stroke="rgb(0,0,0)"  stroke-width="3"/>
<line x1="162.9" y1="235.1" x2="132.2" y2="217.4" opacity="1.0" stroke="rgb(0,0,0)"  stroke-width="3"/>
<line x1="161.3" y1="225.9" x2="141.0" y2="214.1" opacity="1.0" stroke="rgb(0,0,0)"  stroke-width="3"/>
<line x1="132.2" y1="217.4" x2="162.9" y2="164.2" opacity="1.0" stroke="rgb(0,0,0)"  stroke-width="3"/>
<line x1="377.9" y1="217.4" x2="347.2" y2="235.1" opacity="1.0" stroke="rgb(0,0,0)"  stroke-width="3"/>
<line x1="369.1" y1="214.1" x2="348.8" y2="225.9" opacity="1.0" stroke="rgb(0,0,0)"  stroke-width="3"/>
<line x1="347.2" y1="235.1" x2="327.7" y2="223.9" opacity="1.0" stroke="rgb(0,0,0)"  stroke-width="3"/>
<line x1="316.5" y1="204.4" x2="316.5" y2="181.9" opacity="1.0" stroke="rgb(0,0,0)"  stroke-width="3"/>
<line x1="316.5" y1="181.9" x2="347.2" y2="164.2" opacity="1.0" stroke="rgb(0,0,0)"  stroke-width="3"/>
<line x1="325.3" y1="185.1" x2="345.6" y2="173.4" opacity="1.0" stroke="rgb(0,0,0)"  stroke-width="3"/>
<line x1="347.2" y1="164.2" x2="377.9" y2="217.4" opacity="1.0" stroke="rgb(0,0,0)"  stroke-width="3"/>
<line x1="255.0" y1="288.3" x2="285.8" y2="270.6" opacity="1.0" stroke="rgb(0,0,0)"  stroke-width="3"/>
<line x1="256.6" y1="279.1" x2="277.0" y2="267.3" opacity="1.0" stroke="rgb(0,0,0)"  stroke-width="3"/>
<line x1="285.8" y1="270.6" x2="285.8" y2="235.1" opacity="1.0" stroke="rgb(0,0,0)"  stroke-width="3"/>
<line x1="285.8" y1="235.1" x2="255.0" y2="217.4" opacity="1.0" stroke="rgb(0,0,0)"  stroke-width="3"/>
<line x1="277.0" y1="238.3" x2="256.6" y2="226.6" opacity="1.0" stroke="rgb(0,0,0)"  stroke-width="3"/>
<line x1="255.0" y1="217.4" x2="224.3" y2="235.1" opacity="1.0" stroke="rgb(0,0,0)"  stroke-width="3"/>
<line x1="224.3" y1="235.1" x2="224.3" y2="270.6" opacity="1.0" stroke="rgb(0,0,0)"  stroke-width="3"/>
<line x1="231.5" y1="241.1" x2="231.5" y2="264.6" opacity="1.0" stroke="rgb(0,0,0)"  stroke-width="3"/>
<line x1="224.3" y1="270.6" x2="255.0" y2="288.3" opacity="1.0" stroke="rgb(0,0,0)"  stroke-width="3"/>
<line x1="408.6" y1="235.1" x2="377.9" y2="217.4" opacity="1.0" stroke="rgb(0,0,0)"  stroke-width="3"/>
<line x1="347.2" y1="235.1" x2="347.2" y2="270.6" opacity="1.0" stroke="rgb(0,0,0)"  stroke-width="3"/>
<line x1="347.2" y1="270.6" x2="377.9" y2="288.3" opacity="1.0" stroke="rgb(0,0,0)"  stroke-width="3"/>
<line x1="356.0" y1="267.3" x2="376.3" y2="279.1" opacity="1.0" stroke="rgb(0,0,0)"  stroke-width="3"/>
<line x1="377.9" y1="288.3" x2="408.6" y2="270.6" opacity="1.0" stroke="rgb(0,0,0)"  stroke-width="3"/>
<line x1="408.6" y1="270.6" x2="408.6" y2="235.1" opacity="1.0" stroke="rgb(0,0,0)"  stroke-width="3"/>
<line x1="401.4" y1="264.6" x2="401.4" y2="241.1" opacity="1.0" stroke="rgb(0,0,0)"  stroke-width="3"/>
<line x1="316.5" y1="110.9" x2="285.8" y2="128.7" opacity="1.0" stroke="rgb(0,0,0)"  stroke-width="3"/>
<line x1="285.8" y1="128.7" x2="285.8" y2="164.2" opacity="1.0" stroke="rgb(0,0,0)"  stroke-width="3"/>
<line x1="293.0" y1="134.7" x2="293.0" y2="158.2" opacity="1.0" stroke="rgb(0,0,0)"  stroke-width="3"/>
<line x1="285.8" y1="164.2" x2="316.5" y2="181.9" opacity="1.0" stroke="rgb(0,0,0)"  stroke-width="3"/>
<line x1="347.2" y1="164.2" x2="347.2" y2="128.7" opacity="1.0" stroke="rgb(0,0,0)"  stroke-width="3"/>
<line x1="347.2" y1="128.7" x2="316.5" y2="110.9" opacity="1.0" stroke="rgb(0,0,0)"  stroke-width="3"/>
<line x1="338.4" y1="131.9" x2="318.1" y2="120.2" opacity="1.0" stroke="rgb(0,0,0)"  stroke-width="3"/>
<line x1="101.4" y1="270.6" x2="101.4" y2="235.1" opacity="1.0" stroke="rgb(0,0,0)"  stroke-width="3"/>
<line x1="108.6" y1="264.6" x2="108.6" y2="241.1" opacity="1.0" stroke="rgb(0,0,0)"  stroke-width="3"/>
<line x1="101.4" y1="235.1" x2="132.2" y2="217.4" opacity="1.0" stroke="rgb(0,0,0)"  stroke-width="3"/>
<line x1="162.9" y1="235.1" x2="162.9" y2="270.6" opacity="1.0" stroke="rgb(0,0,0)"  stroke-width="3"/>
<line x1="162.9" y1="270.6" x2="132.2" y2="288.3" opacity="1.0" stroke="rgb(0,0,0)"  stroke-width="3"/>
<line x1="154.1" y1="267.3" x2="133.8" y2="279.1" opacity="1.0" stroke="rgb(0,0,0)"  stroke-width="3"/>
<line x1="132.2" y1="288.3" x2="101.4" y2="270.6" opacity="1.0" stroke="rgb(0,0,0)"  stroke-width="3"/>
<line x1="285.8" y1="164.2" x2="266.3" y2="175.4" opacity="1.0" stroke="rgb(0,0,0)"  stroke-width="3"/>
<line x1="255.0" y1="194.9" x2="255.0" y2="217.4" opacity="1.0" stroke="rgb(0,0,0)"  stroke-width="3"/>
<line x1="285.8" y1="235.1" x2="305.2" y2="223.9" opacity="1.0" stroke="rgb(0,0,0)"  stroke-width="3"/>
<line x1="193.6" y1="110.9" x2="224.3" y2="128.7" opacity="1.0" stroke="rgb(0,0,0)"  stroke-width="3"/>
<line x1="224.3" y1="128.7" x2="224.3" y2="164.2" opacity="1.0" stroke="rgb(0,0,0)"  stroke-width="3"/>
<line x1="217.1" y1="134.7" x2="217.1" y2="158.2" opacity="1.0" stroke="rgb(0,0,0)"  stroke-width="3"/>
<line x1="224.3" y1="164.2" x2="193.6" y2="181.9" opacity="1.0" stroke="rgb(0,0,0)"  stroke-width="3"/>
<line x1="162.9" y1="164.2" x2="162.9" y2="128.7" opacity="1.0" stroke="rgb(0,0,0)"  stroke-width="3"/>
<line x1="162.9" y1="128.7" x2="193.6" y2="110.9" opacity="1.0" stroke="rgb(0,0,0)"  stroke-width="3"/>
<line x1="171.7" y1="131.9" x2="192.0" y2="120.2" opacity="1.0" stroke="rgb(0,0,0)"  stroke-width="3"/>
<line x1="224.3" y1="235.1" x2="204.9" y2="223.9" opacity="1.0" stroke="rgb(0,0,0)"  stroke-width="3"/>
<line x1="224.3" y1="164.2" x2="243.8" y2="175.4" opacity="1.0" stroke="rgb(0,0,0)"  stroke-width="3"/>
<line x1="205.7" y1="447.7" x2="191.3" y2="415.3" opacity="1.0" stroke="rgb(0,0,0)"  stroke-width="3"/>
<line x1="196.7" y1="445.2" x2="187.2" y2="423.7" opacity="1.0" stroke="rgb(0,0,0)"  stroke-width="3"/>
<line x1="191.3" y1="415.3" x2="156.0" y2="411.6" opacity="1.0" stroke="rgb(0,0,0)"  stroke-width="3"/>
<line x1="156.0" y1="411.6" x2="135.2" y2="440.3" opacity="1.0" stroke="rgb(0,0,0)"  stroke-width="3"/>
<line x1="158.3" y1="420.7" x2="144.5" y2="439.7" opacity="1.0" stroke="rgb(0,0,0)"  stroke-width="3"/>
<line x1="135.2" y1="440.3" x2="149.6" y2="472.7" opacity="1.0" stroke="rgb(0,0,0)"  stroke-width="3"/>
<line x1="149.6" y1="472.7" x2="184.9" y2="476.4" opacity="1.0" stroke="rgb(0,0,0)"  stroke-width="3"/>
<line x1="156.3" y1="466.2" x2="179.7" y2="468.6" opacity="1.0" stroke="rgb(0,0,0)"  stroke-width="3"/>
<line x1="184.9" y1="476.4" x2="205.7" y2="447.7" opacity="1.0" stroke="rgb(0,0,0)"  stroke-width="3"/>
<line x1="40.0" y1="429.4" x2="70.7" y2="447.1" opacity="1.0" stroke="rgb(0,0,0)"  stroke-width="3"/>
<line x1="48.8" y1="426.2" x2="69.1" y2="437.9" opacity="1.0" stroke="rgb(0,0,0)"  stroke-width="3"/>
<line x1="70.7" y1="447.1" x2="101.4" y2="429.4" opacity="1.0" stroke="rgb(0,0,0)"  stroke-width="3"/>
<line x1="101.4" y1="429.4" x2="101.4" y2="393.9" opacity="1.0" stroke="rgb(0,0,0)"  stroke-width="3"/>
<line x1="94.2" y1="423.4" x2="94.2" y2="399.9" opacity="1.0" stroke="rgb(0,0,0)"  stroke-width="3"/>
<line x1="101.4" y1="393.9" x2="70.7" y2="376.2" opacity="1.0" stroke="rgb(0,0,0)"  stroke-width="3"/>
<line x1="70.7" y1="376.2" x2="40.0" y2="393.9" opacity="1.0" stroke="rgb(0,0,0)"  stroke-width="3"/>
<line x1="69.1" y1="385.4" x2="48.8" y2="397.2" opacity="1.0" stroke="rgb(0,0,0)"  stroke-width="3"/>
<line x1="40.0" y1="393.9" x2="40.0" y2="429.4" opacity="1.0" stroke="rgb(0,0,0)"  stroke-width="3"/>
<line x1="325.7" y1="480.2" x2="361.2" y2="480.2" opacity="1.0" stroke="rgb(0,0,0)"  stroke-width="3"/>
<line x1="331.7" y1="473.0" x2="355.2" y2="473.0" opacity="1.0" stroke="rgb(0,0,0)"  stroke-width="3"/>
<line x1="361.2" y1="480.2" x2="379.4" y2="449.7" opacity="1.0" stroke="rgb(0,0,0)"  stroke-width="3"/>
<line x1="379.4" y1="449.7" x2="361.2" y2="419.3" opacity="1.0" stroke="rgb(0,0,0)"  stroke-width="3"/>
<line x1="370.1" y1="448.3" x2="358.1" y2="428.1" opacity="1.0" stroke="rgb(0,0,0)"  stroke-width="3"/>
<line x1="361.2" y1="419.3" x2="325.7" y2="419.3" opacity="1.0" stroke="rgb(0,0,0)"  stroke-width="3"/>
<line x1="325.7" y1="419.3" x2="308.5" y2="449.7" opacity="1.0" stroke="rgb(0,0,0)"  stroke-width="3"/>
<line x1="329.0" y1="428.0" x2="317.7" y2="448.1" opacity="1.0" stroke="rgb(0,0,0)"  stroke-width="3"/>
<line x1="308.5" y1="449.7" x2="325.7" y2="480.2" opacity="1.0" stroke="rgb(0,0,0)"  stroke-width="3"/>
<line x1="478.3" y1="412.0" x2="449.3" y2="391.6" opacity="1.0" stroke="rgb(0,0,0)"  stroke-width="3"/>
<line x1="469.3" y1="414.4" x2="450.1" y2="400.9" opacity="1.0" stroke="rgb(0,0,0)"  stroke-width="3"/>
<line x1="449.3" y1="391.6" x2="417.2" y2="406.5" opacity="1.0" stroke="rgb(0,0,0)"  stroke-width="3"/>
<line x1="417.2" y1="406.5" x2="414.0" y2="441.8" opacity="1.0" stroke="rgb(0,0,0)"  stroke-width="3"/>
<line x1="423.8" y1="413.1" x2="421.7" y2="436.5" opacity="1.0" stroke="rgb(0,0,0)"  stroke-width="3"/>
<line x1="414.0" y1="441.8" x2="443.0" y2="462.2" opacity="1.0" stroke="rgb(0,0,0)"  stroke-width="3"/>
<line x1="443.0" y1="462.2" x2="475.2" y2="447.3" opacity="1.0" stroke="rgb(0,0,0)"  stroke-width="3"/>
<line x1="445.4" y1="453.2" x2="466.7" y2="443.3" opacity="1.0" stroke="rgb(0,0,0)"  stroke-width="3"/>
<line x1="475.2" y1="447.3" x2="478.3" y2="412.0" opacity="1.0" stroke="rgb(0,0,0)"  stroke-width="3"/>
<line x1="224.3" y1="341.5" x2="224.3" y2="377.0" opacity="1.0" stroke="rgb(0,0,0)"  stroke-width="3"/>
<line x1="224.3" y1="377.0" x2="255.0" y2="394.7" opacity="1.0" stroke="rgb(0,0,0)"  stroke-width="3"/>
<line x1="233.1" y1="373.7" x2="253.4" y2="385.5" opacity="1.0" stroke="rgb(0,0,0)"  stroke-width="3"/>
<line x1="255.0" y1="394.7" x2="285.8" y2="377.0" opacity="1.0" stroke="rgb(0,0,0)"  stroke-width="3"/>
<line x1="285.8" y1="377.0" x2="285.8" y2="341.5" opacity="1.0" stroke="rgb(0,0,0)"  stroke-width="3"/>
<line x1="278.6" y1="371.0" x2="278.6" y2="347.5" opacity="1.0" stroke="rgb(0,0,0)"  stroke-width="3"/>
<line x1="285.8" y1="341.5" x2="255.0" y2="323.8" opacity="1.0" stroke="rgb(0,0,0)"  stroke-width="3"/>
<line x1="255.0" y1="323.8" x2="224.3" y2="341.5" opacity="1.0" stroke="rgb(0,0,0)"  stroke-width="3"/>
<line x1="253.4" y1="333.0" x2="233.1" y2="344.7" opacity="1.0" stroke="rgb(0,0,0)"  stroke-width="3"/>
<line x1="101.4" y1="429.4" x2="135.2" y2="440.3" opacity="1.0" stroke="rgb(0,0,0)"  stroke-width="3"/>
<line x1="156.0" y1="411.6" x2="135.2" y2="382.9" opacity="1.0" stroke="rgb(0,0,0)"  stroke-width="3"/>
<line x1="135.2" y1="382.9" x2="101.4" y2="393.9" opacity="1.0" stroke="rgb(0,0,0)"  stroke-width="3"/>
<line x1="379.4" y1="449.7" x2="414.0" y2="441.8" opacity="1.0" stroke="rgb(0,0,0)"  stroke-width="3"/>
<line x1="417.2" y1="406.5" x2="384.5" y2="392.6" opacity="1.0" stroke="rgb(0,0,0)"  stroke-width="3"/>
<line x1="384.5" y1="392.6" x2="361.2" y2="419.3" opacity="1.0" stroke="rgb(0,0,0)"  stroke-width="3"/>
<line x1="224.3" y1="270.6" x2="135.2" y2="382.9" opacity="1.0" stroke="rgb(0,0,0)"  stroke-width="3"/>
<line x1="135.2" y1="382.9" x2="162.9" y2="270.6" opacity="1.0" stroke="rgb(0,0,0)"  stroke-width="3"/>
<line x1="285.8" y1="270.6" x2="384.5" y2="392.6" opacity="1.0" stroke="rgb(0,0,0)"  stroke-width="3"/>
<line x1="384.5" y1="392.6" x2="347.2" y2="270.6" opacity="1.0" stroke="rgb(0,0,0)"  stroke-width="3"/>
<text x="310.482094" y="402.721304" fill="rgb(127,178,255)" stroke-width="0" font-weight="bold" font-size="25.92" >F</text>
<text x="187.603251" y="402.721304" fill="rgb(127,178,255)" stroke-width="0" font-weight="bold" font-size="25.92" >F</text>
<text x="249.042221" y="189.888109" fill="rgb(255,181,181)" stroke-width="0" font-weight="bold" font-size="25.92" >B</text>
<text x="187.602821" y="225.360136" fill="rgb(12,12,255)" stroke-width="0" font-weight="bold" font-size="25.92" >N</text>
<text x="310.481535" y="225.360136" fill="rgb(12,12,255)" stroke-width="0" font-weight="bold" font-size="25.92" >N</text>
</svg>
</g>
</svg>
