<?xml version="1.0"?>
<svg version="1.1" id="topsvg"
xmlns="http://www.w3.org/2000/svg" xmlns:xlink="http://www.w3.org/1999/xlink"
xmlns:cml="http://www.xml-cml.org/schema" x="0" y="0" width="200px" height="200px" viewBox="0 0 100 100">
<title>GD425.sdf - Open Babel Depiction</title>
<rect x="0" y="0" width="100" height="100" fill="white"/>
<g transform="translate(0,0)">
<svg width="100" height="100" x="0" y="0" viewBox="0 0 566.961 516.959"
font-family="sans-serif" stroke="rgb(0,0,0)" stroke-width="3"  stroke-linecap="round">
<line x1="114.3" y1="290.2" x2="77.2" y2="298.1" opacity="1.0" stroke="rgb(0,0,0)"  stroke-width="3"/>
<line x1="289.2" y1="334.9" x2="289.2" y2="359.9" opacity="1.0" stroke="rgb(0,0,0)"  stroke-width="3"/>
<line x1="77.2" y1="298.1" x2="40.0" y2="306.0" opacity="1.0" stroke="rgb(0,0,0)"  stroke-width="3"/>
<line x1="65.4" y1="334.2" x2="77.2" y2="298.1" opacity="1.0" stroke="rgb(0,0,0)"  stroke-width="3"/>
<line x1="77.2" y1="298.1" x2="51.7" y2="269.8" opacity="1.0" stroke="rgb(0,0,0)"  stroke-width="3"/>
<line x1="464.1" y1="290.2" x2="501.4" y2="298.1" opacity="1.0" stroke="rgb(0,0,0)"  stroke-width="3"/>
<line x1="501.4" y1="298.1" x2="513.2" y2="334.4" opacity="1.0" stroke="rgb(0,0,0)"  stroke-width="3"/>
<line x1="501.4" y1="298.1" x2="527.0" y2="269.7" opacity="1.0" stroke="rgb(0,0,0)"  stroke-width="3"/>
<line x1="501.4" y1="298.1" x2="489.7" y2="261.8" opacity="1.0" stroke="rgb(0,0,0)"  stroke-width="3"/>
<line x1="170.5" y1="177.1" x2="133.2" y2="169.1" opacity="1.0" stroke="rgb(0,0,0)"  stroke-width="3"/>
<line x1="382.5" y1="148.8" x2="394.3" y2="112.5" opacity="1.0" stroke="rgb(0,0,0)"  stroke-width="3"/>
<line x1="163.3" y1="246.1" x2="182.3" y2="213.2" opacity="1.0" stroke="rgb(0,0,0)"  stroke-width="3"/>
<line x1="182.3" y1="213.2" x2="219.4" y2="221.1" opacity="1.0" stroke="rgb(0,0,0)"  stroke-width="3"/>
<line x1="186.6" y1="221.5" x2="212.1" y2="226.9" opacity="1.0" stroke="rgb(0,0,0)"  stroke-width="3"/>
<line x1="219.4" y1="221.1" x2="222.1" y2="246.0" opacity="1.0" stroke="rgb(0,0,0)"  stroke-width="3"/>
<line x1="211.5" y1="264.2" x2="188.7" y2="274.4" opacity="1.0" stroke="rgb(0,0,0)"  stroke-width="3"/>
<line x1="188.7" y1="274.4" x2="163.3" y2="246.1" opacity="1.0" stroke="rgb(0,0,0)"  stroke-width="3"/>
<line x1="190.0" y1="265.1" x2="172.6" y2="245.8" opacity="1.0" stroke="rgb(0,0,0)"  stroke-width="3"/>
<line x1="415.2" y1="246.1" x2="389.8" y2="274.4" opacity="1.0" stroke="rgb(0,0,0)"  stroke-width="3"/>
<line x1="405.9" y1="245.8" x2="388.5" y2="265.1" opacity="1.0" stroke="rgb(0,0,0)"  stroke-width="3"/>
<line x1="389.8" y1="274.4" x2="366.9" y2="264.2" opacity="1.0" stroke="rgb(0,0,0)"  stroke-width="3"/>
<line x1="356.4" y1="246.0" x2="359.0" y2="221.1" opacity="1.0" stroke="rgb(0,0,0)"  stroke-width="3"/>
<line x1="359.0" y1="221.1" x2="396.2" y2="213.2" opacity="1.0" stroke="rgb(0,0,0)"  stroke-width="3"/>
<line x1="366.4" y1="226.9" x2="391.8" y2="221.5" opacity="1.0" stroke="rgb(0,0,0)"  stroke-width="3"/>
<line x1="396.2" y1="213.2" x2="415.2" y2="246.1" opacity="1.0" stroke="rgb(0,0,0)"  stroke-width="3"/>
<line x1="256.3" y1="315.9" x2="289.2" y2="334.9" opacity="1.0" stroke="rgb(0,0,0)"  stroke-width="3"/>
<line x1="289.2" y1="334.9" x2="322.2" y2="315.9" opacity="1.0" stroke="rgb(0,0,0)"  stroke-width="3"/>
<line x1="290.8" y1="325.7" x2="313.4" y2="312.7" opacity="1.0" stroke="rgb(0,0,0)"  stroke-width="3"/>
<line x1="322.2" y1="315.9" x2="322.2" y2="277.9" opacity="1.0" stroke="rgb(0,0,0)"  stroke-width="3"/>
<line x1="322.2" y1="277.9" x2="289.2" y2="258.9" opacity="1.0" stroke="rgb(0,0,0)"  stroke-width="3"/>
<line x1="313.4" y1="281.1" x2="290.8" y2="268.1" opacity="1.0" stroke="rgb(0,0,0)"  stroke-width="3"/>
<line x1="289.2" y1="258.9" x2="256.3" y2="277.9" opacity="1.0" stroke="rgb(0,0,0)"  stroke-width="3"/>
<line x1="256.3" y1="277.9" x2="256.3" y2="315.9" opacity="1.0" stroke="rgb(0,0,0)"  stroke-width="3"/>
<line x1="263.5" y1="283.9" x2="263.5" y2="309.9" opacity="1.0" stroke="rgb(0,0,0)"  stroke-width="3"/>
<line x1="219.4" y1="221.1" x2="244.9" y2="192.9" opacity="1.0" stroke="rgb(0,0,0)"  stroke-width="3"/>
<line x1="244.9" y1="192.9" x2="278.3" y2="213.9" opacity="1.0" stroke="rgb(0,0,0)"  stroke-width="3"/>
<line x1="289.2" y1="233.9" x2="289.2" y2="258.9" opacity="1.0" stroke="rgb(0,0,0)"  stroke-width="3"/>
<line x1="256.3" y1="277.9" x2="234.7" y2="265.4" opacity="1.0" stroke="rgb(0,0,0)"  stroke-width="3"/>
<line x1="343.8" y1="265.4" x2="322.2" y2="277.9" opacity="1.0" stroke="rgb(0,0,0)"  stroke-width="3"/>
<line x1="300.2" y1="213.9" x2="333.6" y2="192.9" opacity="1.0" stroke="rgb(0,0,0)"  stroke-width="3"/>
<line x1="333.6" y1="192.9" x2="359.0" y2="221.1" opacity="1.0" stroke="rgb(0,0,0)"  stroke-width="3"/>
<line x1="114.3" y1="290.2" x2="139.8" y2="318.4" opacity="1.0" stroke="rgb(0,0,0)"  stroke-width="3"/>
<line x1="139.8" y1="318.4" x2="177.0" y2="310.5" opacity="1.0" stroke="rgb(0,0,0)"  stroke-width="3"/>
<line x1="144.2" y1="310.1" x2="169.6" y2="304.7" opacity="1.0" stroke="rgb(0,0,0)"  stroke-width="3"/>
<line x1="177.0" y1="310.5" x2="188.7" y2="274.4" opacity="1.0" stroke="rgb(0,0,0)"  stroke-width="3"/>
<line x1="163.3" y1="246.1" x2="126.1" y2="254.0" opacity="1.0" stroke="rgb(0,0,0)"  stroke-width="3"/>
<line x1="126.1" y1="254.0" x2="114.3" y2="290.2" opacity="1.0" stroke="rgb(0,0,0)"  stroke-width="3"/>
<line x1="131.1" y1="261.9" x2="123.1" y2="286.7" opacity="1.0" stroke="rgb(0,0,0)"  stroke-width="3"/>
<line x1="464.1" y1="290.2" x2="438.7" y2="318.4" opacity="1.0" stroke="rgb(0,0,0)"  stroke-width="3"/>
<line x1="438.7" y1="318.4" x2="401.5" y2="310.5" opacity="1.0" stroke="rgb(0,0,0)"  stroke-width="3"/>
<line x1="434.3" y1="310.1" x2="408.9" y2="304.7" opacity="1.0" stroke="rgb(0,0,0)"  stroke-width="3"/>
<line x1="401.5" y1="310.5" x2="389.8" y2="274.4" opacity="1.0" stroke="rgb(0,0,0)"  stroke-width="3"/>
<line x1="415.2" y1="246.1" x2="452.4" y2="254.0" opacity="1.0" stroke="rgb(0,0,0)"  stroke-width="3"/>
<line x1="452.4" y1="254.0" x2="464.1" y2="290.2" opacity="1.0" stroke="rgb(0,0,0)"  stroke-width="3"/>
<line x1="447.4" y1="261.9" x2="455.4" y2="286.7" opacity="1.0" stroke="rgb(0,0,0)"  stroke-width="3"/>
<line x1="382.5" y1="148.8" x2="345.4" y2="156.7" opacity="1.0" stroke="rgb(0,0,0)"  stroke-width="3"/>
<line x1="345.4" y1="156.7" x2="333.6" y2="192.9" opacity="1.0" stroke="rgb(0,0,0)"  stroke-width="3"/>
<line x1="350.3" y1="164.6" x2="342.3" y2="189.4" opacity="1.0" stroke="rgb(0,0,0)"  stroke-width="3"/>
<line x1="396.2" y1="213.2" x2="408.0" y2="177.1" opacity="1.0" stroke="rgb(0,0,0)"  stroke-width="3"/>
<line x1="408.0" y1="177.1" x2="382.5" y2="148.8" opacity="1.0" stroke="rgb(0,0,0)"  stroke-width="3"/>
<line x1="398.6" y1="177.4" x2="381.2" y2="158.1" opacity="1.0" stroke="rgb(0,0,0)"  stroke-width="3"/>
<line x1="182.3" y1="213.2" x2="170.5" y2="177.1" opacity="1.0" stroke="rgb(0,0,0)"  stroke-width="3"/>
<line x1="170.5" y1="177.1" x2="196.0" y2="148.8" opacity="1.0" stroke="rgb(0,0,0)"  stroke-width="3"/>
<line x1="179.9" y1="177.4" x2="197.3" y2="158.1" opacity="1.0" stroke="rgb(0,0,0)"  stroke-width="3"/>
<line x1="196.0" y1="148.8" x2="233.1" y2="156.7" opacity="1.0" stroke="rgb(0,0,0)"  stroke-width="3"/>
<line x1="233.1" y1="156.7" x2="244.9" y2="192.9" opacity="1.0" stroke="rgb(0,0,0)"  stroke-width="3"/>
<line x1="228.1" y1="164.6" x2="236.2" y2="189.4" opacity="1.0" stroke="rgb(0,0,0)"  stroke-width="3"/>
<line x1="271.8" y1="445.6" x2="255.6" y2="411.3" opacity="1.0" stroke="rgb(0,0,0)"  stroke-width="3"/>
<line x1="262.8" y1="443.3" x2="251.6" y2="419.8" opacity="1.0" stroke="rgb(0,0,0)"  stroke-width="3"/>
<line x1="255.6" y1="411.3" x2="217.6" y2="408.6" opacity="1.0" stroke="rgb(0,0,0)"  stroke-width="3"/>
<line x1="217.6" y1="408.6" x2="196.7" y2="440.4" opacity="1.0" stroke="rgb(0,0,0)"  stroke-width="3"/>
<line x1="220.4" y1="417.6" x2="206.0" y2="439.3" opacity="1.0" stroke="rgb(0,0,0)"  stroke-width="3"/>
<line x1="196.7" y1="440.4" x2="213.0" y2="474.3" opacity="1.0" stroke="rgb(0,0,0)"  stroke-width="3"/>
<line x1="213.0" y1="474.3" x2="251.0" y2="477.0" opacity="1.0" stroke="rgb(0,0,0)"  stroke-width="3"/>
<line x1="219.5" y1="467.5" x2="245.5" y2="469.4" opacity="1.0" stroke="rgb(0,0,0)"  stroke-width="3"/>
<line x1="251.0" y1="477.0" x2="271.8" y2="445.6" opacity="1.0" stroke="rgb(0,0,0)"  stroke-width="3"/>
<line x1="94.3" y1="433.3" x2="128.1" y2="450.8" opacity="1.0" stroke="rgb(0,0,0)"  stroke-width="3"/>
<line x1="103.0" y1="429.7" x2="126.1" y2="441.6" opacity="1.0" stroke="rgb(0,0,0)"  stroke-width="3"/>
<line x1="128.1" y1="450.8" x2="160.1" y2="430.3" opacity="1.0" stroke="rgb(0,0,0)"  stroke-width="3"/>
<line x1="160.1" y1="430.3" x2="158.4" y2="392.3" opacity="1.0" stroke="rgb(0,0,0)"  stroke-width="3"/>
<line x1="152.6" y1="424.6" x2="151.4" y2="398.6" opacity="1.0" stroke="rgb(0,0,0)"  stroke-width="3"/>
<line x1="158.4" y1="392.3" x2="124.6" y2="374.8" opacity="1.0" stroke="rgb(0,0,0)"  stroke-width="3"/>
<line x1="124.6" y1="374.8" x2="92.6" y2="395.3" opacity="1.0" stroke="rgb(0,0,0)"  stroke-width="3"/>
<line x1="123.4" y1="384.1" x2="101.5" y2="398.2" opacity="1.0" stroke="rgb(0,0,0)"  stroke-width="3"/>
<line x1="92.6" y1="395.3" x2="94.3" y2="433.3" opacity="1.0" stroke="rgb(0,0,0)"  stroke-width="3"/>
<line x1="308.8" y1="471.3" x2="346.8" y2="473.0" opacity="1.0" stroke="rgb(0,0,0)"  stroke-width="3"/>
<line x1="315.1" y1="464.4" x2="341.1" y2="465.6" opacity="1.0" stroke="rgb(0,0,0)"  stroke-width="3"/>
<line x1="346.8" y1="473.0" x2="367.5" y2="441.2" opacity="1.0" stroke="rgb(0,0,0)"  stroke-width="3"/>
<line x1="367.5" y1="441.2" x2="349.7" y2="407.6" opacity="1.0" stroke="rgb(0,0,0)"  stroke-width="3"/>
<line x1="358.3" y1="439.3" x2="346.1" y2="416.3" opacity="1.0" stroke="rgb(0,0,0)"  stroke-width="3"/>
<line x1="349.7" y1="407.6" x2="311.7" y2="405.9" opacity="1.0" stroke="rgb(0,0,0)"  stroke-width="3"/>
<line x1="311.7" y1="405.9" x2="291.6" y2="437.8" opacity="1.0" stroke="rgb(0,0,0)"  stroke-width="3"/>
<line x1="314.6" y1="414.9" x2="300.9" y2="436.6" opacity="1.0" stroke="rgb(0,0,0)"  stroke-width="3"/>
<line x1="291.6" y1="437.8" x2="308.8" y2="471.3" opacity="1.0" stroke="rgb(0,0,0)"  stroke-width="3"/>
<line x1="475.4" y1="406.2" x2="445.5" y2="382.8" opacity="1.0" stroke="rgb(0,0,0)"  stroke-width="3"/>
<line x1="466.3" y1="408.2" x2="445.8" y2="392.1" opacity="1.0" stroke="rgb(0,0,0)"  stroke-width="3"/>
<line x1="445.5" y1="382.8" x2="410.3" y2="397.0" opacity="1.0" stroke="rgb(0,0,0)"  stroke-width="3"/>
<line x1="410.3" y1="397.0" x2="404.9" y2="434.6" opacity="1.0" stroke="rgb(0,0,0)"  stroke-width="3"/>
<line x1="416.5" y1="403.9" x2="412.9" y2="429.7" opacity="1.0" stroke="rgb(0,0,0)"  stroke-width="3"/>
<line x1="404.9" y1="434.6" x2="434.9" y2="458.0" opacity="1.0" stroke="rgb(0,0,0)"  stroke-width="3"/>
<line x1="434.9" y1="458.0" x2="470.1" y2="443.8" opacity="1.0" stroke="rgb(0,0,0)"  stroke-width="3"/>
<line x1="437.7" y1="449.1" x2="461.9" y2="439.4" opacity="1.0" stroke="rgb(0,0,0)"  stroke-width="3"/>
<line x1="470.1" y1="443.8" x2="475.4" y2="406.2" opacity="1.0" stroke="rgb(0,0,0)"  stroke-width="3"/>
<line x1="121.4" y1="132.9" x2="84.1" y2="124.9" opacity="1.0" stroke="rgb(0,0,0)"  stroke-width="3"/>
<line x1="84.1" y1="124.9" x2="58.6" y2="153.3" opacity="1.0" stroke="rgb(0,0,0)"  stroke-width="3"/>
<line x1="85.5" y1="134.2" x2="68.0" y2="153.6" opacity="1.0" stroke="rgb(0,0,0)"  stroke-width="3"/>
<line x1="58.6" y1="153.3" x2="70.4" y2="189.5" opacity="1.0" stroke="rgb(0,0,0)"  stroke-width="3"/>
<line x1="70.4" y1="189.5" x2="107.7" y2="197.5" opacity="1.0" stroke="rgb(0,0,0)"  stroke-width="3"/>
<line x1="77.8" y1="183.7" x2="103.3" y2="189.2" opacity="1.0" stroke="rgb(0,0,0)"  stroke-width="3"/>
<line x1="107.7" y1="197.5" x2="133.2" y2="169.1" opacity="1.0" stroke="rgb(0,0,0)"  stroke-width="3"/>
<line x1="133.2" y1="169.1" x2="121.4" y2="132.9" opacity="1.0" stroke="rgb(0,0,0)"  stroke-width="3"/>
<line x1="124.5" y1="165.6" x2="116.4" y2="140.8" opacity="1.0" stroke="rgb(0,0,0)"  stroke-width="3"/>
<line x1="431.6" y1="104.6" x2="443.4" y2="68.3" opacity="1.0" stroke="rgb(0,0,0)"  stroke-width="3"/>
<line x1="443.4" y1="68.3" x2="417.9" y2="40.0" opacity="1.0" stroke="rgb(0,0,0)"  stroke-width="3"/>
<line x1="434.0" y1="68.7" x2="416.6" y2="49.3" opacity="1.0" stroke="rgb(0,0,0)"  stroke-width="3"/>
<line x1="417.9" y1="40.0" x2="380.6" y2="47.9" opacity="1.0" stroke="rgb(0,0,0)"  stroke-width="3"/>
<line x1="380.6" y1="47.9" x2="368.8" y2="84.2" opacity="1.0" stroke="rgb(0,0,0)"  stroke-width="3"/>
<line x1="385.6" y1="55.9" x2="377.5" y2="80.7" opacity="1.0" stroke="rgb(0,0,0)"  stroke-width="3"/>
<line x1="368.8" y1="84.2" x2="394.3" y2="112.5" opacity="1.0" stroke="rgb(0,0,0)"  stroke-width="3"/>
<line x1="394.3" y1="112.5" x2="431.6" y2="104.6" opacity="1.0" stroke="rgb(0,0,0)"  stroke-width="3"/>
<line x1="398.7" y1="104.3" x2="424.3" y2="98.8" opacity="1.0" stroke="rgb(0,0,0)"  stroke-width="3"/>
<line x1="160.1" y1="430.3" x2="196.7" y2="440.4" opacity="1.0" stroke="rgb(0,0,0)"  stroke-width="3"/>
<line x1="217.6" y1="408.6" x2="193.9" y2="378.9" opacity="1.0" stroke="rgb(0,0,0)"  stroke-width="3"/>
<line x1="193.9" y1="378.9" x2="158.4" y2="392.3" opacity="1.0" stroke="rgb(0,0,0)"  stroke-width="3"/>
<line x1="367.5" y1="441.2" x2="404.9" y2="434.6" opacity="1.0" stroke="rgb(0,0,0)"  stroke-width="3"/>
<line x1="410.3" y1="397.0" x2="376.1" y2="380.3" opacity="1.0" stroke="rgb(0,0,0)"  stroke-width="3"/>
<line x1="376.1" y1="380.3" x2="349.7" y2="407.6" opacity="1.0" stroke="rgb(0,0,0)"  stroke-width="3"/>
<line x1="322.2" y1="315.9" x2="376.1" y2="380.3" opacity="1.0" stroke="rgb(0,0,0)"  stroke-width="3"/>
<line x1="376.1" y1="380.3" x2="401.5" y2="310.5" opacity="1.0" stroke="rgb(0,0,0)"  stroke-width="3"/>
<line x1="177.0" y1="310.5" x2="193.9" y2="378.9" opacity="1.0" stroke="rgb(0,0,0)"  stroke-width="3"/>
<line x1="193.9" y1="378.9" x2="256.3" y2="315.9" opacity="1.0" stroke="rgb(0,0,0)"  stroke-width="3"/>
<text x="283.243420" y="380.913493" fill="rgb(127,178,255)" stroke-width="0" font-weight="bold" font-size="25.92" >F</text>
<text x="349.069844" y="266.898723" fill="rgb(12,12,255)" stroke-width="0" font-weight="bold" font-size="25.92" >N</text>
<text x="217.416950" y="266.898723" fill="rgb(12,12,255)" stroke-width="0" font-weight="bold" font-size="25.92" >N</text>
<text x="283.243420" y="228.893784" fill="rgb(255,181,181)" stroke-width="0" font-weight="bold" font-size="25.92" >B</text>
</svg>
</g>
</svg>
