<?xml version="1.0"?>
<svg version="1.1" id="topsvg"
xmlns="http://www.w3.org/2000/svg" xmlns:xlink="http://www.w3.org/1999/xlink"
xmlns:cml="http://www.xml-cml.org/schema" x="0" y="0" width="200px" height="200px" viewBox="0 0 100 100">
<title>GD421.sdf - Open Babel Depiction</title>
<rect x="0" y="0" width="100" height="100" fill="white"/>
<g transform="translate(0,0)">
<svg width="100" height="100" x="0" y="0" viewBox="0 0 676.732 490.464"
font-family="sans-serif" stroke="rgb(0,0,0)" stroke-width="3"  stroke-linecap="round">
<line x1="344.4" y1="299.1" x2="344.4" y2="337.1" opacity="1.0" stroke="rgb(0,0,0)"  stroke-width="3"/>
<line x1="251.1" y1="112.9" x2="239.3" y2="76.7" opacity="1.0" stroke="rgb(0,0,0)"  stroke-width="3"/>
<line x1="169.4" y1="254.3" x2="132.2" y2="262.2" opacity="1.0" stroke="rgb(0,0,0)"  stroke-width="3"/>
<line x1="239.3" y1="76.7" x2="229.5" y2="40.0" opacity="1.0" stroke="rgb(0,0,0)"  stroke-width="3"/>
<line x1="132.2" y1="262.2" x2="95.0" y2="270.1" opacity="1.0" stroke="rgb(0,0,0)"  stroke-width="3"/>
<line x1="120.5" y1="298.4" x2="132.2" y2="262.2" opacity="1.0" stroke="rgb(0,0,0)"  stroke-width="3"/>
<line x1="239.3" y1="76.7" x2="266.2" y2="49.8" opacity="1.0" stroke="rgb(0,0,0)"  stroke-width="3"/>
<line x1="239.3" y1="76.7" x2="202.6" y2="66.9" opacity="1.0" stroke="rgb(0,0,0)"  stroke-width="3"/>
<line x1="132.2" y1="262.2" x2="106.8" y2="234.0" opacity="1.0" stroke="rgb(0,0,0)"  stroke-width="3"/>
<line x1="449.5" y1="76.7" x2="437.7" y2="112.9" opacity="1.0" stroke="rgb(0,0,0)"  stroke-width="3"/>
<line x1="519.4" y1="254.3" x2="556.7" y2="262.2" opacity="1.0" stroke="rgb(0,0,0)"  stroke-width="3"/>
<line x1="556.7" y1="262.2" x2="568.5" y2="298.5" opacity="1.0" stroke="rgb(0,0,0)"  stroke-width="3"/>
<line x1="556.7" y1="262.2" x2="582.2" y2="233.9" opacity="1.0" stroke="rgb(0,0,0)"  stroke-width="3"/>
<line x1="556.7" y1="262.2" x2="544.9" y2="226.0" opacity="1.0" stroke="rgb(0,0,0)"  stroke-width="3"/>
<line x1="449.5" y1="76.7" x2="424.0" y2="48.4" opacity="1.0" stroke="rgb(0,0,0)"  stroke-width="3"/>
<line x1="449.5" y1="76.7" x2="486.8" y2="68.8" opacity="1.0" stroke="rgb(0,0,0)"  stroke-width="3"/>
<line x1="449.5" y1="76.7" x2="461.3" y2="40.4" opacity="1.0" stroke="rgb(0,0,0)"  stroke-width="3"/>
<line x1="530.7" y1="370.4" x2="566.0" y2="356.2" opacity="1.0" stroke="rgb(0,0,0)"  stroke-width="3"/>
<line x1="145.4" y1="381.4" x2="110.4" y2="366.7" opacity="1.0" stroke="rgb(0,0,0)"  stroke-width="3"/>
<line x1="218.4" y1="210.2" x2="237.4" y2="177.3" opacity="1.0" stroke="rgb(0,0,0)"  stroke-width="3"/>
<line x1="237.4" y1="177.3" x2="274.6" y2="185.2" opacity="1.0" stroke="rgb(0,0,0)"  stroke-width="3"/>
<line x1="241.8" y1="185.6" x2="267.2" y2="191.0" opacity="1.0" stroke="rgb(0,0,0)"  stroke-width="3"/>
<line x1="274.6" y1="185.2" x2="277.2" y2="210.1" opacity="1.0" stroke="rgb(0,0,0)"  stroke-width="3"/>
<line x1="266.7" y1="228.3" x2="243.8" y2="238.5" opacity="1.0" stroke="rgb(0,0,0)"  stroke-width="3"/>
<line x1="243.8" y1="238.5" x2="218.4" y2="210.2" opacity="1.0" stroke="rgb(0,0,0)"  stroke-width="3"/>
<line x1="245.1" y1="229.2" x2="227.7" y2="209.9" opacity="1.0" stroke="rgb(0,0,0)"  stroke-width="3"/>
<line x1="470.4" y1="210.2" x2="445.0" y2="238.5" opacity="1.0" stroke="rgb(0,0,0)"  stroke-width="3"/>
<line x1="461.1" y1="209.9" x2="443.7" y2="229.2" opacity="1.0" stroke="rgb(0,0,0)"  stroke-width="3"/>
<line x1="445.0" y1="238.5" x2="422.1" y2="228.3" opacity="1.0" stroke="rgb(0,0,0)"  stroke-width="3"/>
<line x1="411.6" y1="210.1" x2="414.2" y2="185.2" opacity="1.0" stroke="rgb(0,0,0)"  stroke-width="3"/>
<line x1="414.2" y1="185.2" x2="451.4" y2="177.3" opacity="1.0" stroke="rgb(0,0,0)"  stroke-width="3"/>
<line x1="421.6" y1="191.0" x2="447.1" y2="185.6" opacity="1.0" stroke="rgb(0,0,0)"  stroke-width="3"/>
<line x1="451.4" y1="177.3" x2="470.4" y2="210.2" opacity="1.0" stroke="rgb(0,0,0)"  stroke-width="3"/>
<line x1="311.5" y1="356.1" x2="344.4" y2="337.1" opacity="1.0" stroke="rgb(0,0,0)"  stroke-width="3"/>
<line x1="320.3" y1="359.4" x2="342.8" y2="346.3" opacity="1.0" stroke="rgb(0,0,0)"  stroke-width="3"/>
<line x1="344.4" y1="337.1" x2="377.3" y2="356.1" opacity="1.0" stroke="rgb(0,0,0)"  stroke-width="3"/>
<line x1="377.3" y1="356.1" x2="377.3" y2="394.1" opacity="1.0" stroke="rgb(0,0,0)"  stroke-width="3"/>
<line x1="370.1" y1="362.1" x2="370.1" y2="388.1" opacity="1.0" stroke="rgb(0,0,0)"  stroke-width="3"/>
<line x1="377.3" y1="394.1" x2="344.4" y2="413.2" opacity="1.0" stroke="rgb(0,0,0)"  stroke-width="3"/>
<line x1="344.4" y1="413.2" x2="311.5" y2="394.1" opacity="1.0" stroke="rgb(0,0,0)"  stroke-width="3"/>
<line x1="342.8" y1="403.9" x2="320.3" y2="390.9" opacity="1.0" stroke="rgb(0,0,0)"  stroke-width="3"/>
<line x1="311.5" y1="394.1" x2="311.5" y2="356.1" opacity="1.0" stroke="rgb(0,0,0)"  stroke-width="3"/>
<line x1="311.5" y1="280.1" x2="344.4" y2="299.1" opacity="1.0" stroke="rgb(0,0,0)"  stroke-width="3"/>
<line x1="344.4" y1="299.1" x2="377.3" y2="280.1" opacity="1.0" stroke="rgb(0,0,0)"  stroke-width="3"/>
<line x1="346.0" y1="289.9" x2="368.5" y2="276.8" opacity="1.0" stroke="rgb(0,0,0)"  stroke-width="3"/>
<line x1="377.3" y1="280.1" x2="377.3" y2="242.0" opacity="1.0" stroke="rgb(0,0,0)"  stroke-width="3"/>
<line x1="377.3" y1="242.0" x2="344.4" y2="223.0" opacity="1.0" stroke="rgb(0,0,0)"  stroke-width="3"/>
<line x1="368.5" y1="245.3" x2="346.0" y2="232.3" opacity="1.0" stroke="rgb(0,0,0)"  stroke-width="3"/>
<line x1="344.4" y1="223.0" x2="311.5" y2="242.0" opacity="1.0" stroke="rgb(0,0,0)"  stroke-width="3"/>
<line x1="311.5" y1="242.0" x2="311.5" y2="280.1" opacity="1.0" stroke="rgb(0,0,0)"  stroke-width="3"/>
<line x1="318.7" y1="248.0" x2="318.7" y2="274.1" opacity="1.0" stroke="rgb(0,0,0)"  stroke-width="3"/>
<line x1="274.6" y1="185.2" x2="300.0" y2="157.0" opacity="1.0" stroke="rgb(0,0,0)"  stroke-width="3"/>
<line x1="300.0" y1="157.0" x2="333.4" y2="178.1" opacity="1.0" stroke="rgb(0,0,0)"  stroke-width="3"/>
<line x1="344.4" y1="198.0" x2="344.4" y2="223.0" opacity="1.0" stroke="rgb(0,0,0)"  stroke-width="3"/>
<line x1="311.5" y1="242.0" x2="289.8" y2="229.5" opacity="1.0" stroke="rgb(0,0,0)"  stroke-width="3"/>
<line x1="399.0" y1="229.5" x2="377.3" y2="242.0" opacity="1.0" stroke="rgb(0,0,0)"  stroke-width="3"/>
<line x1="355.4" y1="178.1" x2="388.8" y2="157.0" opacity="1.0" stroke="rgb(0,0,0)"  stroke-width="3"/>
<line x1="388.8" y1="157.0" x2="414.2" y2="185.2" opacity="1.0" stroke="rgb(0,0,0)"  stroke-width="3"/>
<line x1="169.4" y1="254.3" x2="194.9" y2="282.6" opacity="1.0" stroke="rgb(0,0,0)"  stroke-width="3"/>
<line x1="194.9" y1="282.6" x2="232.1" y2="274.7" opacity="1.0" stroke="rgb(0,0,0)"  stroke-width="3"/>
<line x1="199.2" y1="274.3" x2="224.7" y2="268.9" opacity="1.0" stroke="rgb(0,0,0)"  stroke-width="3"/>
<line x1="232.1" y1="274.7" x2="243.8" y2="238.5" opacity="1.0" stroke="rgb(0,0,0)"  stroke-width="3"/>
<line x1="218.4" y1="210.2" x2="181.2" y2="218.2" opacity="1.0" stroke="rgb(0,0,0)"  stroke-width="3"/>
<line x1="181.2" y1="218.2" x2="169.4" y2="254.3" opacity="1.0" stroke="rgb(0,0,0)"  stroke-width="3"/>
<line x1="186.2" y1="226.1" x2="178.1" y2="250.8" opacity="1.0" stroke="rgb(0,0,0)"  stroke-width="3"/>
<line x1="519.4" y1="254.3" x2="494.0" y2="282.6" opacity="1.0" stroke="rgb(0,0,0)"  stroke-width="3"/>
<line x1="494.0" y1="282.6" x2="456.8" y2="274.7" opacity="1.0" stroke="rgb(0,0,0)"  stroke-width="3"/>
<line x1="489.6" y1="274.3" x2="464.1" y2="268.9" opacity="1.0" stroke="rgb(0,0,0)"  stroke-width="3"/>
<line x1="456.8" y1="274.7" x2="445.0" y2="238.5" opacity="1.0" stroke="rgb(0,0,0)"  stroke-width="3"/>
<line x1="470.4" y1="210.2" x2="507.6" y2="218.2" opacity="1.0" stroke="rgb(0,0,0)"  stroke-width="3"/>
<line x1="507.6" y1="218.2" x2="519.4" y2="254.3" opacity="1.0" stroke="rgb(0,0,0)"  stroke-width="3"/>
<line x1="502.6" y1="226.1" x2="510.7" y2="250.8" opacity="1.0" stroke="rgb(0,0,0)"  stroke-width="3"/>
<line x1="437.7" y1="112.9" x2="400.6" y2="120.8" opacity="1.0" stroke="rgb(0,0,0)"  stroke-width="3"/>
<line x1="400.6" y1="120.8" x2="388.8" y2="157.0" opacity="1.0" stroke="rgb(0,0,0)"  stroke-width="3"/>
<line x1="405.5" y1="128.7" x2="397.5" y2="153.5" opacity="1.0" stroke="rgb(0,0,0)"  stroke-width="3"/>
<line x1="451.4" y1="177.3" x2="463.2" y2="141.2" opacity="1.0" stroke="rgb(0,0,0)"  stroke-width="3"/>
<line x1="463.2" y1="141.2" x2="437.7" y2="112.9" opacity="1.0" stroke="rgb(0,0,0)"  stroke-width="3"/>
<line x1="453.8" y1="141.5" x2="436.4" y2="122.2" opacity="1.0" stroke="rgb(0,0,0)"  stroke-width="3"/>
<line x1="237.4" y1="177.3" x2="225.6" y2="141.2" opacity="1.0" stroke="rgb(0,0,0)"  stroke-width="3"/>
<line x1="225.6" y1="141.2" x2="251.1" y2="112.9" opacity="1.0" stroke="rgb(0,0,0)"  stroke-width="3"/>
<line x1="235.0" y1="141.5" x2="252.4" y2="122.2" opacity="1.0" stroke="rgb(0,0,0)"  stroke-width="3"/>
<line x1="251.1" y1="112.9" x2="288.3" y2="120.8" opacity="1.0" stroke="rgb(0,0,0)"  stroke-width="3"/>
<line x1="288.3" y1="120.8" x2="300.0" y2="157.0" opacity="1.0" stroke="rgb(0,0,0)"  stroke-width="3"/>
<line x1="283.3" y1="128.7" x2="291.3" y2="153.5" opacity="1.0" stroke="rgb(0,0,0)"  stroke-width="3"/>
<line x1="328.2" y1="417.1" x2="309.2" y2="384.2" opacity="1.0" stroke="rgb(0,0,0)"  stroke-width="3"/>
<line x1="319.0" y1="415.5" x2="306.0" y2="393.0" opacity="1.0" stroke="rgb(0,0,0)"  stroke-width="3"/>
<line x1="309.2" y1="384.2" x2="271.2" y2="384.6" opacity="1.0" stroke="rgb(0,0,0)"  stroke-width="3"/>
<line x1="271.2" y1="384.6" x2="252.9" y2="417.9" opacity="1.0" stroke="rgb(0,0,0)"  stroke-width="3"/>
<line x1="274.6" y1="393.3" x2="262.1" y2="416.1" opacity="1.0" stroke="rgb(0,0,0)"  stroke-width="3"/>
<line x1="252.9" y1="417.9" x2="271.9" y2="450.5" opacity="1.0" stroke="rgb(0,0,0)"  stroke-width="3"/>
<line x1="271.9" y1="450.5" x2="309.9" y2="450.1" opacity="1.0" stroke="rgb(0,0,0)"  stroke-width="3"/>
<line x1="277.8" y1="443.2" x2="303.9" y2="442.9" opacity="1.0" stroke="rgb(0,0,0)"  stroke-width="3"/>
<line x1="309.9" y1="450.1" x2="328.2" y2="417.1" opacity="1.0" stroke="rgb(0,0,0)"  stroke-width="3"/>
<line x1="150.2" y1="419.1" x2="185.3" y2="433.9" opacity="1.0" stroke="rgb(0,0,0)"  stroke-width="3"/>
<line x1="158.5" y1="414.8" x2="182.5" y2="424.9" opacity="1.0" stroke="rgb(0,0,0)"  stroke-width="3"/>
<line x1="185.3" y1="433.9" x2="215.6" y2="410.8" opacity="1.0" stroke="rgb(0,0,0)"  stroke-width="3"/>
<line x1="215.6" y1="410.8" x2="210.8" y2="373.1" opacity="1.0" stroke="rgb(0,0,0)"  stroke-width="3"/>
<line x1="207.7" y1="405.8" x2="204.4" y2="380.0" opacity="1.0" stroke="rgb(0,0,0)"  stroke-width="3"/>
<line x1="210.8" y1="373.1" x2="175.7" y2="358.4" opacity="1.0" stroke="rgb(0,0,0)"  stroke-width="3"/>
<line x1="175.7" y1="358.4" x2="145.4" y2="381.4" opacity="1.0" stroke="rgb(0,0,0)"  stroke-width="3"/>
<line x1="175.3" y1="367.8" x2="154.6" y2="383.5" opacity="1.0" stroke="rgb(0,0,0)"  stroke-width="3"/>
<line x1="145.4" y1="381.4" x2="150.2" y2="419.1" opacity="1.0" stroke="rgb(0,0,0)"  stroke-width="3"/>
<line x1="364.0" y1="435.6" x2="402.0" y2="437.3" opacity="1.0" stroke="rgb(0,0,0)"  stroke-width="3"/>
<line x1="370.3" y1="428.7" x2="396.3" y2="429.8" opacity="1.0" stroke="rgb(0,0,0)"  stroke-width="3"/>
<line x1="402.0" y1="437.3" x2="422.7" y2="405.4" opacity="1.0" stroke="rgb(0,0,0)"  stroke-width="3"/>
<line x1="422.7" y1="405.4" x2="404.9" y2="371.9" opacity="1.0" stroke="rgb(0,0,0)"  stroke-width="3"/>
<line x1="413.5" y1="403.5" x2="401.3" y2="380.5" opacity="1.0" stroke="rgb(0,0,0)"  stroke-width="3"/>
<line x1="404.9" y1="371.9" x2="366.9" y2="370.2" opacity="1.0" stroke="rgb(0,0,0)"  stroke-width="3"/>
<line x1="366.9" y1="370.2" x2="346.7" y2="402.0" opacity="1.0" stroke="rgb(0,0,0)"  stroke-width="3"/>
<line x1="369.8" y1="379.1" x2="356.0" y2="400.8" opacity="1.0" stroke="rgb(0,0,0)"  stroke-width="3"/>
<line x1="346.7" y1="402.0" x2="364.0" y2="435.6" opacity="1.0" stroke="rgb(0,0,0)"  stroke-width="3"/>
<line x1="530.7" y1="370.4" x2="500.7" y2="347.0" opacity="1.0" stroke="rgb(0,0,0)"  stroke-width="3"/>
<line x1="521.5" y1="372.4" x2="501.0" y2="356.3" opacity="1.0" stroke="rgb(0,0,0)"  stroke-width="3"/>
<line x1="500.7" y1="347.0" x2="465.5" y2="361.2" opacity="1.0" stroke="rgb(0,0,0)"  stroke-width="3"/>
<line x1="465.5" y1="361.2" x2="460.2" y2="398.9" opacity="1.0" stroke="rgb(0,0,0)"  stroke-width="3"/>
<line x1="471.8" y1="368.1" x2="468.1" y2="393.9" opacity="1.0" stroke="rgb(0,0,0)"  stroke-width="3"/>
<line x1="460.2" y1="398.9" x2="490.1" y2="422.3" opacity="1.0" stroke="rgb(0,0,0)"  stroke-width="3"/>
<line x1="490.1" y1="422.3" x2="525.4" y2="408.1" opacity="1.0" stroke="rgb(0,0,0)"  stroke-width="3"/>
<line x1="493.0" y1="413.4" x2="517.1" y2="403.6" opacity="1.0" stroke="rgb(0,0,0)"  stroke-width="3"/>
<line x1="525.4" y1="408.1" x2="530.7" y2="370.4" opacity="1.0" stroke="rgb(0,0,0)"  stroke-width="3"/>
<line x1="596.0" y1="379.7" x2="631.4" y2="365.4" opacity="1.0" stroke="rgb(0,0,0)"  stroke-width="3"/>
<line x1="631.4" y1="365.4" x2="636.7" y2="327.6" opacity="1.0" stroke="rgb(0,0,0)"  stroke-width="3"/>
<line x1="625.1" y1="358.5" x2="628.8" y2="332.6" opacity="1.0" stroke="rgb(0,0,0)"  stroke-width="3"/>
<line x1="636.7" y1="327.6" x2="606.7" y2="304.1" opacity="1.0" stroke="rgb(0,0,0)"  stroke-width="3"/>
<line x1="606.7" y1="304.1" x2="571.3" y2="318.4" opacity="1.0" stroke="rgb(0,0,0)"  stroke-width="3"/>
<line x1="603.8" y1="313.0" x2="579.5" y2="322.8" opacity="1.0" stroke="rgb(0,0,0)"  stroke-width="3"/>
<line x1="571.3" y1="318.4" x2="566.0" y2="356.2" opacity="1.0" stroke="rgb(0,0,0)"  stroke-width="3"/>
<line x1="566.0" y1="356.2" x2="596.0" y2="379.7" opacity="1.0" stroke="rgb(0,0,0)"  stroke-width="3"/>
<line x1="575.1" y1="354.2" x2="595.7" y2="370.3" opacity="1.0" stroke="rgb(0,0,0)"  stroke-width="3"/>
<line x1="105.6" y1="328.9" x2="70.4" y2="314.1" opacity="1.0" stroke="rgb(0,0,0)"  stroke-width="3"/>
<line x1="70.4" y1="314.1" x2="40.0" y2="337.2" opacity="1.0" stroke="rgb(0,0,0)"  stroke-width="3"/>
<line x1="70.0" y1="323.5" x2="49.1" y2="339.3" opacity="1.0" stroke="rgb(0,0,0)"  stroke-width="3"/>
<line x1="40.0" y1="337.2" x2="44.8" y2="375.0" opacity="1.0" stroke="rgb(0,0,0)"  stroke-width="3"/>
<line x1="44.8" y1="375.0" x2="80.0" y2="389.8" opacity="1.0" stroke="rgb(0,0,0)"  stroke-width="3"/>
<line x1="53.1" y1="370.7" x2="77.2" y2="380.8" opacity="1.0" stroke="rgb(0,0,0)"  stroke-width="3"/>
<line x1="80.0" y1="389.8" x2="110.4" y2="366.7" opacity="1.0" stroke="rgb(0,0,0)"  stroke-width="3"/>
<line x1="110.4" y1="366.7" x2="105.6" y2="328.9" opacity="1.0" stroke="rgb(0,0,0)"  stroke-width="3"/>
<line x1="102.5" y1="361.7" x2="99.2" y2="335.7" opacity="1.0" stroke="rgb(0,0,0)"  stroke-width="3"/>
<line x1="215.6" y1="410.8" x2="252.9" y2="417.9" opacity="1.0" stroke="rgb(0,0,0)"  stroke-width="3"/>
<line x1="271.2" y1="384.6" x2="245.2" y2="356.9" opacity="1.0" stroke="rgb(0,0,0)"  stroke-width="3"/>
<line x1="245.2" y1="356.9" x2="210.8" y2="373.1" opacity="1.0" stroke="rgb(0,0,0)"  stroke-width="3"/>
<line x1="422.7" y1="405.4" x2="460.2" y2="398.9" opacity="1.0" stroke="rgb(0,0,0)"  stroke-width="3"/>
<line x1="465.5" y1="361.2" x2="431.3" y2="344.5" opacity="1.0" stroke="rgb(0,0,0)"  stroke-width="3"/>
<line x1="431.3" y1="344.5" x2="404.9" y2="371.9" opacity="1.0" stroke="rgb(0,0,0)"  stroke-width="3"/>
<line x1="377.3" y1="280.1" x2="431.3" y2="344.5" opacity="1.0" stroke="rgb(0,0,0)"  stroke-width="3"/>
<line x1="431.3" y1="344.5" x2="456.8" y2="274.7" opacity="1.0" stroke="rgb(0,0,0)"  stroke-width="3"/>
<line x1="232.1" y1="274.7" x2="245.2" y2="356.9" opacity="1.0" stroke="rgb(0,0,0)"  stroke-width="3"/>
<line x1="245.2" y1="356.9" x2="311.5" y2="280.1" opacity="1.0" stroke="rgb(0,0,0)"  stroke-width="3"/>
<text x="404.268739" y="231.036556" fill="rgb(12,12,255)" stroke-width="0" font-weight="bold" font-size="25.92" >N</text>
<text x="272.547196" y="231.036556" fill="rgb(12,12,255)" stroke-width="0" font-weight="bold" font-size="25.92" >N</text>
<text x="338.407967" y="193.011813" fill="rgb(255,181,181)" stroke-width="0" font-weight="bold" font-size="25.92" >B</text>
</svg>
</g>
</svg>
