<?xml version="1.0"?>
<svg version="1.1" id="topsvg"
xmlns="http://www.w3.org/2000/svg" xmlns:xlink="http://www.w3.org/1999/xlink"
xmlns:cml="http://www.xml-cml.org/schema" x="0" y="0" width="200px" height="200px" viewBox="0 0 100 100">
<title>GD422.sdf - Open Babel Depiction</title>
<rect x="0" y="0" width="100" height="100" fill="white"/>
<g transform="translate(0,0)">
<svg width="100" height="100" x="0" y="0" viewBox="0 0 650.025 534.864"
font-family="sans-serif" stroke="rgb(0,0,0)" stroke-width="3"  stroke-linecap="round">
<line x1="355.6" y1="296.7" x2="355.6" y2="334.3" opacity="1.0" stroke="rgb(0,0,0)"  stroke-width="3"/>
<line x1="263.2" y1="112.2" x2="251.5" y2="76.4" opacity="1.0" stroke="rgb(0,0,0)"  stroke-width="3"/>
<line x1="182.3" y1="252.3" x2="145.4" y2="260.1" opacity="1.0" stroke="rgb(0,0,0)"  stroke-width="3"/>
<line x1="251.5" y1="76.4" x2="241.8" y2="40.0" opacity="1.0" stroke="rgb(0,0,0)"  stroke-width="3"/>
<line x1="145.4" y1="260.1" x2="108.6" y2="268.0" opacity="1.0" stroke="rgb(0,0,0)"  stroke-width="3"/>
<line x1="133.8" y1="296.0" x2="145.4" y2="260.1" opacity="1.0" stroke="rgb(0,0,0)"  stroke-width="3"/>
<line x1="251.5" y1="76.4" x2="278.2" y2="49.7" opacity="1.0" stroke="rgb(0,0,0)"  stroke-width="3"/>
<line x1="251.5" y1="76.4" x2="215.1" y2="66.6" opacity="1.0" stroke="rgb(0,0,0)"  stroke-width="3"/>
<line x1="145.4" y1="260.1" x2="120.2" y2="232.1" opacity="1.0" stroke="rgb(0,0,0)"  stroke-width="3"/>
<line x1="459.7" y1="76.4" x2="448.1" y2="112.2" opacity="1.0" stroke="rgb(0,0,0)"  stroke-width="3"/>
<line x1="529.0" y1="252.3" x2="565.9" y2="260.2" opacity="1.0" stroke="rgb(0,0,0)"  stroke-width="3"/>
<line x1="565.9" y1="260.2" x2="577.6" y2="296.1" opacity="1.0" stroke="rgb(0,0,0)"  stroke-width="3"/>
<line x1="565.9" y1="260.2" x2="591.2" y2="232.1" opacity="1.0" stroke="rgb(0,0,0)"  stroke-width="3"/>
<line x1="565.9" y1="260.2" x2="554.3" y2="224.2" opacity="1.0" stroke="rgb(0,0,0)"  stroke-width="3"/>
<line x1="459.7" y1="76.4" x2="434.4" y2="48.3" opacity="1.0" stroke="rgb(0,0,0)"  stroke-width="3"/>
<line x1="459.7" y1="76.4" x2="496.7" y2="68.5" opacity="1.0" stroke="rgb(0,0,0)"  stroke-width="3"/>
<line x1="459.7" y1="76.4" x2="471.4" y2="40.4" opacity="1.0" stroke="rgb(0,0,0)"  stroke-width="3"/>
<line x1="540.2" y1="367.3" x2="575.1" y2="353.2" opacity="1.0" stroke="rgb(0,0,0)"  stroke-width="3"/>
<line x1="104.4" y1="362.2" x2="75.3" y2="338.3" opacity="1.0" stroke="rgb(0,0,0)"  stroke-width="3"/>
<line x1="75.3" y1="338.3" x2="40.0" y2="351.5" opacity="1.0" stroke="rgb(0,0,0)"  stroke-width="3"/>
<line x1="75.3" y1="338.3" x2="81.4" y2="301.1" opacity="1.0" stroke="rgb(0,0,0)"  stroke-width="3"/>
<line x1="75.3" y1="338.3" x2="110.5" y2="325.0" opacity="1.0" stroke="rgb(0,0,0)"  stroke-width="3"/>
<line x1="575.1" y1="353.2" x2="604.8" y2="376.4" opacity="1.0" stroke="rgb(0,0,0)"  stroke-width="3"/>
<line x1="575.1" y1="353.2" x2="580.4" y2="315.9" opacity="1.0" stroke="rgb(0,0,0)"  stroke-width="3"/>
<line x1="575.1" y1="353.2" x2="610.0" y2="339.1" opacity="1.0" stroke="rgb(0,0,0)"  stroke-width="3"/>
<line x1="267.8" y1="447.8" x2="304.0" y2="458.3" opacity="1.0" stroke="rgb(0,0,0)"  stroke-width="3"/>
<line x1="304.0" y1="458.3" x2="331.1" y2="432.2" opacity="1.0" stroke="rgb(0,0,0)"  stroke-width="3"/>
<line x1="304.0" y1="458.3" x2="313.0" y2="494.9" opacity="1.0" stroke="rgb(0,0,0)"  stroke-width="3"/>
<line x1="304.0" y1="458.3" x2="295.0" y2="421.7" opacity="1.0" stroke="rgb(0,0,0)"  stroke-width="3"/>
<line x1="357.9" y1="398.6" x2="320.6" y2="397.0" opacity="1.0" stroke="rgb(0,0,0)"  stroke-width="3"/>
<line x1="320.6" y1="397.0" x2="310.8" y2="360.3" opacity="1.0" stroke="rgb(0,0,0)"  stroke-width="3"/>
<line x1="320.6" y1="397.0" x2="293.9" y2="397.0" opacity="1.0" stroke="rgb(0,0,0)"  stroke-width="3"/>
<line x1="320.6" y1="397.0" x2="312.7" y2="426.5" opacity="1.0" stroke="rgb(0,0,0)"  stroke-width="3"/>
<line x1="230.8" y1="208.6" x2="249.6" y2="176.0" opacity="1.0" stroke="rgb(0,0,0)"  stroke-width="3"/>
<line x1="249.6" y1="176.0" x2="286.4" y2="183.9" opacity="1.0" stroke="rgb(0,0,0)"  stroke-width="3"/>
<line x1="254.0" y1="184.3" x2="279.1" y2="189.7" opacity="1.0" stroke="rgb(0,0,0)"  stroke-width="3"/>
<line x1="286.4" y1="183.9" x2="289.0" y2="208.4" opacity="1.0" stroke="rgb(0,0,0)"  stroke-width="3"/>
<line x1="278.5" y1="226.6" x2="256.0" y2="236.6" opacity="1.0" stroke="rgb(0,0,0)"  stroke-width="3"/>
<line x1="256.0" y1="236.6" x2="230.8" y2="208.6" opacity="1.0" stroke="rgb(0,0,0)"  stroke-width="3"/>
<line x1="257.3" y1="227.4" x2="240.1" y2="208.3" opacity="1.0" stroke="rgb(0,0,0)"  stroke-width="3"/>
<line x1="480.5" y1="208.6" x2="455.3" y2="236.6" opacity="1.0" stroke="rgb(0,0,0)"  stroke-width="3"/>
<line x1="471.1" y1="208.3" x2="453.9" y2="227.4" opacity="1.0" stroke="rgb(0,0,0)"  stroke-width="3"/>
<line x1="455.3" y1="236.6" x2="432.7" y2="226.6" opacity="1.0" stroke="rgb(0,0,0)"  stroke-width="3"/>
<line x1="422.2" y1="208.4" x2="424.8" y2="183.9" opacity="1.0" stroke="rgb(0,0,0)"  stroke-width="3"/>
<line x1="424.8" y1="183.9" x2="461.6" y2="176.0" opacity="1.0" stroke="rgb(0,0,0)"  stroke-width="3"/>
<line x1="432.2" y1="189.7" x2="457.3" y2="184.3" opacity="1.0" stroke="rgb(0,0,0)"  stroke-width="3"/>
<line x1="461.6" y1="176.0" x2="480.5" y2="208.6" opacity="1.0" stroke="rgb(0,0,0)"  stroke-width="3"/>
<line x1="323.0" y1="353.2" x2="355.6" y2="334.3" opacity="1.0" stroke="rgb(0,0,0)"  stroke-width="3"/>
<line x1="331.8" y1="356.4" x2="354.0" y2="343.6" opacity="1.0" stroke="rgb(0,0,0)"  stroke-width="3"/>
<line x1="355.6" y1="334.3" x2="388.2" y2="353.2" opacity="1.0" stroke="rgb(0,0,0)"  stroke-width="3"/>
<line x1="388.2" y1="353.2" x2="388.2" y2="390.8" opacity="1.0" stroke="rgb(0,0,0)"  stroke-width="3"/>
<line x1="381.0" y1="359.2" x2="381.0" y2="384.8" opacity="1.0" stroke="rgb(0,0,0)"  stroke-width="3"/>
<line x1="388.2" y1="390.8" x2="355.6" y2="409.7" opacity="1.0" stroke="rgb(0,0,0)"  stroke-width="3"/>
<line x1="355.6" y1="409.7" x2="323.0" y2="390.8" opacity="1.0" stroke="rgb(0,0,0)"  stroke-width="3"/>
<line x1="354.0" y1="400.4" x2="331.8" y2="387.6" opacity="1.0" stroke="rgb(0,0,0)"  stroke-width="3"/>
<line x1="323.0" y1="390.8" x2="323.0" y2="353.2" opacity="1.0" stroke="rgb(0,0,0)"  stroke-width="3"/>
<line x1="323.0" y1="277.8" x2="355.6" y2="296.7" opacity="1.0" stroke="rgb(0,0,0)"  stroke-width="3"/>
<line x1="355.6" y1="296.7" x2="388.2" y2="277.8" opacity="1.0" stroke="rgb(0,0,0)"  stroke-width="3"/>
<line x1="357.2" y1="287.4" x2="379.4" y2="274.6" opacity="1.0" stroke="rgb(0,0,0)"  stroke-width="3"/>
<line x1="388.2" y1="277.8" x2="388.2" y2="240.2" opacity="1.0" stroke="rgb(0,0,0)"  stroke-width="3"/>
<line x1="388.2" y1="240.2" x2="355.6" y2="221.3" opacity="1.0" stroke="rgb(0,0,0)"  stroke-width="3"/>
<line x1="379.4" y1="243.4" x2="357.2" y2="230.6" opacity="1.0" stroke="rgb(0,0,0)"  stroke-width="3"/>
<line x1="355.6" y1="221.3" x2="323.0" y2="240.2" opacity="1.0" stroke="rgb(0,0,0)"  stroke-width="3"/>
<line x1="323.0" y1="240.2" x2="323.0" y2="277.8" opacity="1.0" stroke="rgb(0,0,0)"  stroke-width="3"/>
<line x1="330.2" y1="246.2" x2="330.2" y2="271.8" opacity="1.0" stroke="rgb(0,0,0)"  stroke-width="3"/>
<line x1="286.4" y1="183.9" x2="311.6" y2="155.9" opacity="1.0" stroke="rgb(0,0,0)"  stroke-width="3"/>
<line x1="311.6" y1="155.9" x2="344.6" y2="176.7" opacity="1.0" stroke="rgb(0,0,0)"  stroke-width="3"/>
<line x1="355.6" y1="196.7" x2="355.6" y2="221.3" opacity="1.0" stroke="rgb(0,0,0)"  stroke-width="3"/>
<line x1="323.0" y1="240.2" x2="301.6" y2="227.8" opacity="1.0" stroke="rgb(0,0,0)"  stroke-width="3"/>
<line x1="409.6" y1="227.8" x2="388.2" y2="240.2" opacity="1.0" stroke="rgb(0,0,0)"  stroke-width="3"/>
<line x1="366.6" y1="176.7" x2="399.6" y2="155.9" opacity="1.0" stroke="rgb(0,0,0)"  stroke-width="3"/>
<line x1="399.6" y1="155.9" x2="424.8" y2="183.9" opacity="1.0" stroke="rgb(0,0,0)"  stroke-width="3"/>
<line x1="182.3" y1="252.3" x2="207.5" y2="280.3" opacity="1.0" stroke="rgb(0,0,0)"  stroke-width="3"/>
<line x1="207.5" y1="280.3" x2="244.3" y2="272.5" opacity="1.0" stroke="rgb(0,0,0)"  stroke-width="3"/>
<line x1="211.9" y1="272.0" x2="237.0" y2="266.7" opacity="1.0" stroke="rgb(0,0,0)"  stroke-width="3"/>
<line x1="244.3" y1="272.5" x2="256.0" y2="236.6" opacity="1.0" stroke="rgb(0,0,0)"  stroke-width="3"/>
<line x1="230.8" y1="208.6" x2="193.9" y2="216.5" opacity="1.0" stroke="rgb(0,0,0)"  stroke-width="3"/>
<line x1="193.9" y1="216.5" x2="182.3" y2="252.3" opacity="1.0" stroke="rgb(0,0,0)"  stroke-width="3"/>
<line x1="198.9" y1="224.4" x2="191.0" y2="248.8" opacity="1.0" stroke="rgb(0,0,0)"  stroke-width="3"/>
<line x1="529.0" y1="252.3" x2="503.8" y2="280.3" opacity="1.0" stroke="rgb(0,0,0)"  stroke-width="3"/>
<line x1="503.8" y1="280.3" x2="466.9" y2="272.5" opacity="1.0" stroke="rgb(0,0,0)"  stroke-width="3"/>
<line x1="499.4" y1="272.0" x2="474.3" y2="266.7" opacity="1.0" stroke="rgb(0,0,0)"  stroke-width="3"/>
<line x1="466.9" y1="272.5" x2="455.3" y2="236.6" opacity="1.0" stroke="rgb(0,0,0)"  stroke-width="3"/>
<line x1="480.5" y1="208.6" x2="517.3" y2="216.5" opacity="1.0" stroke="rgb(0,0,0)"  stroke-width="3"/>
<line x1="517.3" y1="216.5" x2="529.0" y2="252.3" opacity="1.0" stroke="rgb(0,0,0)"  stroke-width="3"/>
<line x1="512.3" y1="224.4" x2="520.3" y2="248.8" opacity="1.0" stroke="rgb(0,0,0)"  stroke-width="3"/>
<line x1="448.1" y1="112.2" x2="411.2" y2="120.0" opacity="1.0" stroke="rgb(0,0,0)"  stroke-width="3"/>
<line x1="411.2" y1="120.0" x2="399.6" y2="155.9" opacity="1.0" stroke="rgb(0,0,0)"  stroke-width="3"/>
<line x1="416.2" y1="128.0" x2="408.3" y2="152.4" opacity="1.0" stroke="rgb(0,0,0)"  stroke-width="3"/>
<line x1="461.6" y1="176.0" x2="473.3" y2="140.2" opacity="1.0" stroke="rgb(0,0,0)"  stroke-width="3"/>
<line x1="473.3" y1="140.2" x2="448.1" y2="112.2" opacity="1.0" stroke="rgb(0,0,0)"  stroke-width="3"/>
<line x1="463.9" y1="140.6" x2="446.7" y2="121.5" opacity="1.0" stroke="rgb(0,0,0)"  stroke-width="3"/>
<line x1="249.6" y1="176.0" x2="238.0" y2="140.2" opacity="1.0" stroke="rgb(0,0,0)"  stroke-width="3"/>
<line x1="238.0" y1="140.2" x2="263.2" y2="112.2" opacity="1.0" stroke="rgb(0,0,0)"  stroke-width="3"/>
<line x1="247.3" y1="140.6" x2="264.5" y2="121.5" opacity="1.0" stroke="rgb(0,0,0)"  stroke-width="3"/>
<line x1="263.2" y1="112.2" x2="300.0" y2="120.0" opacity="1.0" stroke="rgb(0,0,0)"  stroke-width="3"/>
<line x1="300.0" y1="120.0" x2="311.6" y2="155.9" opacity="1.0" stroke="rgb(0,0,0)"  stroke-width="3"/>
<line x1="295.0" y1="128.0" x2="302.9" y2="152.4" opacity="1.0" stroke="rgb(0,0,0)"  stroke-width="3"/>
<line x1="267.8" y1="447.8" x2="259.1" y2="411.2" opacity="1.0" stroke="rgb(0,0,0)"  stroke-width="3"/>
<line x1="259.4" y1="443.6" x2="253.5" y2="418.7" opacity="1.0" stroke="rgb(0,0,0)"  stroke-width="3"/>
<line x1="259.1" y1="411.2" x2="222.9" y2="400.8" opacity="1.0" stroke="rgb(0,0,0)"  stroke-width="3"/>
<line x1="222.9" y1="400.8" x2="196.1" y2="427.3" opacity="1.0" stroke="rgb(0,0,0)"  stroke-width="3"/>
<line x1="223.7" y1="410.1" x2="205.4" y2="428.2" opacity="1.0" stroke="rgb(0,0,0)"  stroke-width="3"/>
<line x1="196.1" y1="427.3" x2="204.9" y2="463.5" opacity="1.0" stroke="rgb(0,0,0)"  stroke-width="3"/>
<line x1="204.9" y1="463.5" x2="241.1" y2="473.9" opacity="1.0" stroke="rgb(0,0,0)"  stroke-width="3"/>
<line x1="212.6" y1="458.2" x2="237.3" y2="465.3" opacity="1.0" stroke="rgb(0,0,0)"  stroke-width="3"/>
<line x1="241.1" y1="473.9" x2="267.8" y2="447.8" opacity="1.0" stroke="rgb(0,0,0)"  stroke-width="3"/>
<line x1="98.2" y1="399.3" x2="127.4" y2="423.2" opacity="1.0" stroke="rgb(0,0,0)"  stroke-width="3"/>
<line x1="107.4" y1="397.6" x2="127.3" y2="413.8" opacity="1.0" stroke="rgb(0,0,0)"  stroke-width="3"/>
<line x1="127.4" y1="423.2" x2="162.6" y2="409.9" opacity="1.0" stroke="rgb(0,0,0)"  stroke-width="3"/>
<line x1="162.6" y1="409.9" x2="168.7" y2="372.8" opacity="1.0" stroke="rgb(0,0,0)"  stroke-width="3"/>
<line x1="156.5" y1="402.9" x2="160.7" y2="377.5" opacity="1.0" stroke="rgb(0,0,0)"  stroke-width="3"/>
<line x1="168.7" y1="372.8" x2="139.6" y2="348.9" opacity="1.0" stroke="rgb(0,0,0)"  stroke-width="3"/>
<line x1="139.6" y1="348.9" x2="104.4" y2="362.2" opacity="1.0" stroke="rgb(0,0,0)"  stroke-width="3"/>
<line x1="136.5" y1="357.7" x2="112.5" y2="366.8" opacity="1.0" stroke="rgb(0,0,0)"  stroke-width="3"/>
<line x1="104.4" y1="362.2" x2="98.2" y2="399.3" opacity="1.0" stroke="rgb(0,0,0)"  stroke-width="3"/>
<line x1="375.0" y1="431.9" x2="412.6" y2="433.6" opacity="1.0" stroke="rgb(0,0,0)"  stroke-width="3"/>
<line x1="381.3" y1="425.0" x2="407.0" y2="426.1" opacity="1.0" stroke="rgb(0,0,0)"  stroke-width="3"/>
<line x1="412.6" y1="433.6" x2="433.2" y2="402.0" opacity="1.0" stroke="rgb(0,0,0)"  stroke-width="3"/>
<line x1="433.2" y1="402.0" x2="415.5" y2="368.7" opacity="1.0" stroke="rgb(0,0,0)"  stroke-width="3"/>
<line x1="424.0" y1="400.1" x2="412.0" y2="377.4" opacity="1.0" stroke="rgb(0,0,0)"  stroke-width="3"/>
<line x1="415.5" y1="368.7" x2="377.9" y2="367.1" opacity="1.0" stroke="rgb(0,0,0)"  stroke-width="3"/>
<line x1="377.9" y1="367.1" x2="357.9" y2="398.6" opacity="1.0" stroke="rgb(0,0,0)"  stroke-width="3"/>
<line x1="380.8" y1="376.0" x2="367.2" y2="397.4" opacity="1.0" stroke="rgb(0,0,0)"  stroke-width="3"/>
<line x1="357.9" y1="398.6" x2="375.0" y2="431.9" opacity="1.0" stroke="rgb(0,0,0)"  stroke-width="3"/>
<line x1="540.2" y1="367.3" x2="510.5" y2="344.1" opacity="1.0" stroke="rgb(0,0,0)"  stroke-width="3"/>
<line x1="531.0" y1="369.3" x2="510.8" y2="353.5" opacity="1.0" stroke="rgb(0,0,0)"  stroke-width="3"/>
<line x1="510.5" y1="344.1" x2="475.6" y2="358.2" opacity="1.0" stroke="rgb(0,0,0)"  stroke-width="3"/>
<line x1="475.6" y1="358.2" x2="470.3" y2="395.5" opacity="1.0" stroke="rgb(0,0,0)"  stroke-width="3"/>
<line x1="481.8" y1="365.1" x2="478.3" y2="390.6" opacity="1.0" stroke="rgb(0,0,0)"  stroke-width="3"/>
<line x1="470.3" y1="395.5" x2="500.0" y2="418.7" opacity="1.0" stroke="rgb(0,0,0)"  stroke-width="3"/>
<line x1="500.0" y1="418.7" x2="534.9" y2="404.6" opacity="1.0" stroke="rgb(0,0,0)"  stroke-width="3"/>
<line x1="502.8" y1="409.8" x2="526.6" y2="400.2" opacity="1.0" stroke="rgb(0,0,0)"  stroke-width="3"/>
<line x1="534.9" y1="404.6" x2="540.2" y2="367.3" opacity="1.0" stroke="rgb(0,0,0)"  stroke-width="3"/>
<line x1="162.6" y1="409.9" x2="196.1" y2="427.3" opacity="1.0" stroke="rgb(0,0,0)"  stroke-width="3"/>
<line x1="222.9" y1="400.8" x2="206.0" y2="367.1" opacity="1.0" stroke="rgb(0,0,0)"  stroke-width="3"/>
<line x1="206.0" y1="367.1" x2="168.7" y2="372.8" opacity="1.0" stroke="rgb(0,0,0)"  stroke-width="3"/>
<line x1="433.2" y1="402.0" x2="470.3" y2="395.5" opacity="1.0" stroke="rgb(0,0,0)"  stroke-width="3"/>
<line x1="475.6" y1="358.2" x2="441.7" y2="341.7" opacity="1.0" stroke="rgb(0,0,0)"  stroke-width="3"/>
<line x1="441.7" y1="341.7" x2="415.5" y2="368.7" opacity="1.0" stroke="rgb(0,0,0)"  stroke-width="3"/>
<line x1="388.2" y1="277.8" x2="441.7" y2="341.7" opacity="1.0" stroke="rgb(0,0,0)"  stroke-width="3"/>
<line x1="441.7" y1="341.7" x2="466.9" y2="272.5" opacity="1.0" stroke="rgb(0,0,0)"  stroke-width="3"/>
<line x1="244.3" y1="272.5" x2="206.0" y2="367.1" opacity="1.0" stroke="rgb(0,0,0)"  stroke-width="3"/>
<line x1="206.0" y1="367.1" x2="323.0" y2="277.8" opacity="1.0" stroke="rgb(0,0,0)"  stroke-width="3"/>
<text x="414.863546" y="229.319124" fill="rgb(12,12,255)" stroke-width="0" font-weight="bold" font-size="25.92" >N</text>
<text x="284.377946" y="229.319124" fill="rgb(12,12,255)" stroke-width="0" font-weight="bold" font-size="25.92" >N</text>
<text x="349.620791" y="191.651168" fill="rgb(255,181,181)" stroke-width="0" font-weight="bold" font-size="25.92" >B</text>
</svg>
</g>
</svg>
