<?xml version="1.0" standalone="no" ?>
<!DOCTYPE svg PUBLIC "-//W3C//DTD SVG 1.1//EN" "http://www.w3.org/Graphics/SVG/1.1/DTD/svg11.dtd">
<svg width="273px" height="252px" viewBox="0 0 273 252" style="background-color: #ffffff00" xmlns="http://www.w3.org/2000/svg" xmlns:xlink="http://www.w3.org/1999/xlink" version="1.1" >
<text x="0" y="0" stroke="none" fill="#000000" transform="matrix(0.0666667 0 0 0.0666667 81.7358 161.873)" font-style="normal" font-weight="normal" font-size="200px" font-family="Arial" >
N</text>
<text x="0" y="0" stroke="none" fill="#000000" transform="matrix(0.0666667 0 0 0.0666667 148.247 161.873)" font-style="normal" font-weight="normal" font-size="200px" font-family="Arial" >
N</text>
<text x="0" y="0" stroke="none" fill="#000000" transform="matrix(0.0666667 0 0 0.0666667 181.502 104.273)" font-style="normal" font-weight="normal" font-size="200px" font-family="Arial" >
N</text>
<text x="0" y="0" stroke="none" fill="#000000" transform="matrix(0.0666667 0 0 0.0666667 115.359 142.673)" font-style="normal" font-weight="normal" font-size="200px" font-family="Arial" >
B</text>
<text x="0" y="0" stroke="none" fill="#000000" transform="matrix(0.0666667 0 0 0.0666667 181.87 142.673)" font-style="normal" font-weight="normal" font-size="200px" font-family="Arial" >
B</text>
<path stroke="none" fill="#000000" transform="matrix(0.0666667 0 0 0.0666667 -85.5667 -234)" d="M 2825.31,6007.36 L 2831.17,6004.1 L 2837.03,6007.48 L 2837.03,6288.72 L 2831.17,6292.1 L 2825.28,6289.39 L 2825.31,6007.36 Z " />
<path stroke="none" fill="#000000" transform="matrix(0.0666667 0 0 0.0666667 -85.5667 -234)" d="M 2877.01,6034.03 L 2889.01,6034.03 L 2889.01,6262.17 L 2877.01,6262.17 L 2877.01,6034.03 Z " />
<path stroke="none" fill="#000000" transform="matrix(0.0666667 0 0 0.0666667 -85.5667 -234)" d="M 2831.87,6299.23 L 2831.17,6292.1 L 2837.03,6288.72 L 3080.58,6429.33 L 3080.58,6436.1 L 3077.03,6440.94 L 2831.87,6299.23 Z " />
<path stroke="none" fill="#000000" transform="matrix(0.0666667 0 0 0.0666667 -85.5667 -234)" d="M 3089.7,6437.42 L 3080.58,6436.1 L 3080.58,6429.33 L 3324.14,6288.72 L 3336.15,6295.65 L 3089.7,6437.42 Z " />
<path stroke="none" fill="#000000" transform="matrix(0.0666667 0 0 0.0666667 -85.5667 -234)" d="M 3083.58,6381.44 L 3077.58,6371.04 L 3275.16,6256.97 L 3281.16,6267.37 L 3083.58,6381.44 Z " />
<path stroke="none" fill="#000000" transform="matrix(0.0666667 0 0 0.0666667 -85.5667 -234)" d="M 3336.15,6295.65 L 3324.14,6288.72 L 3324.14,6007.48 L 3330,6004.1 L 3335.86,6007.36 L 3336.15,6295.65 Z " />
<path stroke="none" fill="#000000" transform="matrix(0.0666667 0 0 0.0666667 -85.5667 -234)" d="M 3330.11,5997.39 L 3330,6004.1 L 3324.14,6007.48 L 3080.58,5866.86 L 3080.58,5860.1 L 3086.35,5856.66 L 3330.11,5997.39 Z " />
<path stroke="none" fill="#000000" transform="matrix(0.0666667 0 0 0.0666667 -85.5667 -234)" d="M 3281.16,6028.83 L 3275.16,6039.22 L 3077.58,5925.15 L 3083.58,5914.76 L 3281.16,6028.83 Z " />
<path stroke="none" fill="#000000" transform="matrix(0.0666667 0 0 0.0666667 -85.5667 -234)" d="M 3074.82,5856.66 L 3080.58,5860.1 L 3080.58,5866.86 L 2837.03,6007.48 L 2831.17,6004.1 L 2831.06,5997.39 L 3074.82,5856.66 Z " />
<path stroke="none" fill="#000000" transform="matrix(0.0666667 0 0 0.0666667 -85.5667 -234)" d="M 2831.06,5997.39 L 2831.17,6004.1 L 2825.31,6007.36 L 2680.63,5924.12 L 2686.63,5913.72 L 2831.06,5997.39 Z " />
<path stroke="none" fill="#000000" transform="matrix(0.0666667 0 0 0.0666667 -85.5667 -234)" d="M 2587.75,5765.52 L 2575.75,5765.52 L 2575.97,5575.53 L 2581.75,5572.1 L 2587.54,5575.53 L 2587.75,5765.52 Z " />
<path stroke="none" fill="#000000" transform="matrix(0.0666667 0 0 0.0666667 -85.5667 -234)" d="M 2581.75,5565.33 L 2581.75,5572.1 L 2575.97,5575.53 L 2334.54,5436.01 L 2332.34,5428.1 L 2338.2,5424.72 L 2581.75,5565.33 Z " />
<path stroke="none" fill="#000000" transform="matrix(0.0666667 0 0 0.0666667 -85.5667 -234)" d="M 2584.75,5507.04 L 2578.75,5517.44 L 2381.18,5403.37 L 2387.18,5392.97 L 2584.75,5507.04 Z " />
<path stroke="none" fill="#000000" transform="matrix(0.0666667 0 0 0.0666667 -85.5667 -234)" d="M 2326.41,5426.45 L 2332.34,5428.1 L 2334.54,5436.01 L 2090.88,5858.05 L 2082.92,5860.1 L 2078.53,5855.79 L 2326.41,5426.45 Z " />
<path stroke="none" fill="#000000" transform="matrix(0.0666667 0 0 0.0666667 -85.5667 -234)" d="M 2082.92,5866.86 L 2082.92,5860.1 L 2090.88,5858.05 L 2332.45,5997.39 L 2332.34,6004.1 L 2326.48,6007.48 L 2082.92,5866.86 Z " />
<path stroke="none" fill="#000000" transform="matrix(0.0666667 0 0 0.0666667 -85.5667 -234)" d="M 2079.92,5925.15 L 2085.92,5914.76 L 2283.5,6028.83 L 2277.5,6039.22 L 2079.92,5925.15 Z " />
<path stroke="none" fill="#000000" transform="matrix(0.0666667 0 0 0.0666667 -85.5667 -234)" d="M 2338.2,6007.36 L 2332.34,6004.1 L 2332.45,5997.39 L 2476.55,5913.91 L 2482.55,5924.3 L 2338.2,6007.36 Z " />
<path stroke="none" fill="#000000" transform="matrix(0.0666667 0 0 0.0666667 -85.5667 -234)" d="M 2587.54,5575.53 L 2581.75,5572.1 L 2581.75,5565.33 L 2825.31,5424.72 L 2831.17,5428.1 L 2831.26,5434.82 L 2587.54,5575.53 Z " />
<path stroke="none" fill="#000000" transform="matrix(0.0666667 0 0 0.0666667 -85.5667 -234)" d="M 2837.03,5424.82 L 2831.17,5428.1 L 2825.31,5424.72 L 2825.31,5143.48 L 2837.32,5136.55 L 2837.03,5424.82 L 2837.03,5424.82 Z " />
<path stroke="none" fill="#000000" transform="matrix(0.0666667 0 0 0.0666667 -85.5667 -234)" d="M 2785.33,5398.17 L 2773.33,5398.17 L 2773.33,5170.03 L 2785.33,5170.03 L 2785.33,5398.17 L 2785.33,5398.17 Z " />
<path stroke="none" fill="#000000" transform="matrix(0.0666667 0 0 0.0666667 -85.5667 -234)" d="M 2837.32,5136.55 L 2825.31,5143.48 L 2581.75,5002.86 L 2581.75,4996.1 L 2587.65,4992.74 L 2837.32,5136.55 Z " />
<path stroke="none" fill="#000000" transform="matrix(0.0666667 0 0 0.0666667 -85.5667 -234)" d="M 2575.86,4992.74 L 2581.75,4996.1 L 2581.75,5002.86 L 2338.2,5143.48 L 2326.19,5136.55 L 2575.86,4992.74 Z " />
<path stroke="none" fill="#000000" transform="matrix(0.0666667 0 0 0.0666667 -85.5667 -234)" d="M 2578.75,5050.76 L 2584.75,5061.15 L 2387.18,5175.22 L 2381.18,5164.83 L 2578.75,5050.76 Z " />
<path stroke="none" fill="#000000" transform="matrix(0.0666667 0 0 0.0666667 -85.5667 -234)" d="M 2326.19,5136.55 L 2338.2,5143.48 L 2338.2,5424.72 L 2332.34,5428.1 L 2326.41,5426.45 L 2326.19,5136.55 Z " />
<path stroke="none" fill="#000000" transform="matrix(0.0666667 0 0 0.0666667 -85.5667 -234)" d="M 2078.53,5855.79 L 2082.92,5860.1 L 2082.92,5866.86 L 1839.37,6007.48 L 1827.36,6000.55 L 2078.53,5855.79 Z " />
<path stroke="none" fill="#000000" transform="matrix(0.0666667 0 0 0.0666667 -85.5667 -234)" d="M 1827.36,6000.55 L 1839.37,6007.48 L 1839.37,6288.72 L 1833.51,6292.1 L 1827.65,6288.72 L 1827.36,6000.55 Z " />
<path stroke="none" fill="#000000" transform="matrix(0.0666667 0 0 0.0666667 -85.5667 -234)" d="M 1879.35,6034.03 L 1891.35,6034.03 L 1891.35,6262.17 L 1879.35,6262.17 L 1879.35,6034.03 Z " />
<path stroke="none" fill="#000000" transform="matrix(0.0666667 0 0 0.0666667 -85.5667 -234)" d="M 1833.51,6298.86 L 1833.51,6292.1 L 1839.37,6288.72 L 2082.92,6429.33 L 2082.92,6443.2 L 1833.51,6298.86 Z " />
<path stroke="none" fill="#000000" transform="matrix(0.0666667 0 0 0.0666667 -85.5667 -234)" d="M 2082.92,6443.2 L 2082.92,6429.33 L 2326.48,6288.72 L 2332.34,6292.1 L 2331.64,6299.23 L 2082.92,6443.2 Z " />
<path stroke="none" fill="#000000" transform="matrix(0.0666667 0 0 0.0666667 -85.5667 -234)" d="M 2085.92,6381.43 L 2079.92,6371.04 L 2277.5,6256.97 L 2283.5,6267.36 L 2085.92,6381.43 Z " />
<path stroke="none" fill="#000000" transform="matrix(0.0666667 0 0 0.0666667 -85.5667 -234)" d="M 2338.23,6289.39 L 2332.34,6292.1 L 2326.48,6288.72 L 2326.48,6007.48 L 2332.34,6004.1 L 2338.2,6007.36 L 2338.23,6289.39 Z " />
<path stroke="none" fill="#000000" transform="matrix(0.0666667 0 0 0.0666667 -85.5667 -234)" d="M 2331.64,6299.23 L 2332.34,6292.1 L 2338.23,6289.39 L 2581.75,6500.4 L 2581.75,6508.1 L 2573.36,6508.47 L 2331.64,6299.23 Z " />
<path stroke="none" fill="#000000" transform="matrix(0.0666667 0 0 0.0666667 -85.5667 -234)" d="M 2590.15,6508.47 L 2581.75,6508.1 L 2581.75,6500.4 L 2825.28,6289.39 L 2831.17,6292.1 L 2831.87,6299.23 L 2590.15,6508.47 Z " />
<path stroke="none" fill="#000000" transform="matrix(0.0666667 0 0 0.0666667 -85.5667 -234)" d="M 2573.36,6508.47 L 2581.75,6508.1 L 2581.75,6516.43 L 2355.42,6750.94 L 2348.76,6749.38 L 2346.77,6742.96 L 2573.36,6508.47 Z " />
<path stroke="none" fill="#000000" transform="matrix(0.0666667 0 0 0.0666667 -85.5667 -234)" d="M 2344.23,6754.41 L 2348.76,6749.38 L 2355.42,6750.94 L 2441.99,7017.46 L 2437.75,7023.29 L 2431.14,7021.88 L 2344.23,6754.41 Z " />
<path stroke="none" fill="#000000" transform="matrix(0.0666667 0 0 0.0666667 -85.5667 -234)" d="M 2303,6795.72 L 2314.41,6792.01 L 2384.91,7008.99 L 2373.5,7012.69 L 2303,6795.72 Z " />
<path stroke="none" fill="#000000" transform="matrix(0.0666667 0 0 0.0666667 -85.5667 -234)" d="M 2440.38,7029.18 L 2437.75,7023.29 L 2441.99,7017.46 L 2721.52,7017.46 L 2725.75,7023.29 L 2723.13,7029.18 L 2440.38,7029.18 Z " />
<path stroke="none" fill="#000000" transform="matrix(0.0666667 0 0 0.0666667 -85.5667 -234)" d="M 2732.37,7021.88 L 2725.75,7023.29 L 2721.52,7017.46 L 2808.09,6750.94 L 2814.75,6749.38 L 2819.28,6754.41 L 2732.37,7021.88 Z " />
<path stroke="none" fill="#000000" transform="matrix(0.0666667 0 0 0.0666667 -85.5667 -234)" d="M 2790.01,7012.69 L 2778.6,7008.99 L 2849.1,6792.01 L 2860.51,6795.72 L 2790.01,7012.69 Z " />
<path stroke="none" fill="#000000" transform="matrix(0.0666667 0 0 0.0666667 -85.5667 -234)" d="M 2816.73,6742.96 L 2814.75,6749.38 L 2808.09,6750.94 L 2581.75,6516.43 L 2581.75,6508.1 L 2590.15,6508.47 L 2816.73,6742.96 Z " />
<path stroke="none" fill="#000000" transform="matrix(0.0666667 0 0 0.0666667 -85.5667 -234)" d="M 2723.13,7029.18 L 2725.75,7023.29 L 2732.37,7021.88 L 2920.55,7230.88 L 2916.27,7244.06 L 2723.13,7029.18 Z " />
<path stroke="none" fill="#000000" transform="matrix(0.0666667 0 0 0.0666667 -85.5667 -234)" d="M 2916.27,7244.06 L 2920.55,7230.88 L 3195.64,7172.4 L 3204.92,7182.71 L 2916.27,7244.06 Z " />
<path stroke="none" fill="#000000" transform="matrix(0.0666667 0 0 0.0666667 -85.5667 -234)" d="M 2938.21,7186.25 L 2935.71,7174.51 L 3158.87,7127.08 L 3161.36,7138.82 L 2938.21,7186.25 Z " />
<path stroke="none" fill="#000000" transform="matrix(0.0666667 0 0 0.0666667 -85.5667 -234)" d="M 3204.92,7182.71 L 3195.64,7172.4 L 3282.55,6904.93 L 3296.11,6902.05 L 3204.92,7182.71 Z " />
<path stroke="none" fill="#000000" transform="matrix(0.0666667 0 0 0.0666667 -85.5667 -234)" d="M 3296.11,6902.05 L 3282.55,6904.93 L 3094.37,6695.94 L 3098.65,6682.75 L 3296.11,6902.05 Z " />
<path stroke="none" fill="#000000" transform="matrix(0.0666667 0 0 0.0666667 -85.5667 -234)" d="M 3235.07,6911.96 L 3226.16,6919.99 L 3073.5,6750.45 L 3082.42,6742.42 L 3235.07,6911.96 Z " />
<path stroke="none" fill="#000000" transform="matrix(0.0666667 0 0 0.0666667 -85.5667 -234)" d="M 3098.65,6682.75 L 3094.37,6695.94 L 2819.28,6754.41 L 2814.75,6749.38 L 2816.73,6742.96 L 3098.65,6682.75 Z " />
<path stroke="none" fill="#000000" transform="matrix(0.0666667 0 0 0.0666667 -85.5667 -234)" d="M 2346.77,6742.96 L 2348.76,6749.38 L 2344.23,6754.41 L 2069.14,6695.94 L 2064.86,6682.75 L 2346.77,6742.96 Z " />
<path stroke="none" fill="#000000" transform="matrix(0.0666667 0 0 0.0666667 -85.5667 -234)" d="M 2064.86,6682.75 L 2069.14,6695.94 L 1880.96,6904.93 L 1867.4,6902.05 L 2064.86,6682.75 Z " />
<path stroke="none" fill="#000000" transform="matrix(0.0666667 0 0 0.0666667 -85.5667 -234)" d="M 2081.09,6742.42 L 2090.01,6750.45 L 1937.35,6919.99 L 1928.43,6911.96 L 2081.09,6742.42 Z " />
<path stroke="none" fill="#000000" transform="matrix(0.0666667 0 0 0.0666667 -85.5667 -234)" d="M 1867.4,6902.05 L 1880.96,6904.93 L 1967.86,7172.4 L 1958.59,7182.71 L 1867.4,6902.05 Z " />
<path stroke="none" fill="#000000" transform="matrix(0.0666667 0 0 0.0666667 -85.5667 -234)" d="M 1958.59,7182.71 L 1967.86,7172.4 L 2242.95,7230.88 L 2247.24,7244.06 L 1958.59,7182.71 Z " />
<path stroke="none" fill="#000000" transform="matrix(0.0666667 0 0 0.0666667 -85.5667 -234)" d="M 2002.14,7138.82 L 2004.64,7127.08 L 2227.79,7174.51 L 2225.3,7186.25 L 2002.14,7138.82 Z " />
<path stroke="none" fill="#000000" transform="matrix(0.0666667 0 0 0.0666667 -85.5667 -234)" d="M 2247.24,7244.06 L 2242.95,7230.88 L 2431.14,7021.88 L 2437.75,7023.29 L 2440.38,7029.18 L 2247.24,7244.06 Z " />
<path stroke="none" fill="#000000" transform="matrix(0.0666667 0 0 0.0666667 -85.5667 -234)" d="M 2587.65,4992.74 L 2581.75,4996.1 L 2575.86,4992.74 L 2575.86,4625.06 L 2581.75,4621.7 L 2587.65,4625.06 L 2587.65,4992.74 Z " />
<path stroke="none" fill="#000000" transform="matrix(0.0666667 0 0 0.0666667 -85.5667 -234)" d="M 2587.65,4625.06 L 2581.75,4621.7 L 2587.35,4612.01 L 2828.17,4472.5 L 2834.17,4482.9 L 2587.65,4625.06 Z " />
<path stroke="none" fill="#000000" transform="matrix(0.0666667 0 0 0.0666667 -85.5667 -234)" d="M 2576.16,4612.01 L 2581.75,4621.7 L 2575.86,4625.06 L 2329.34,4482.9 L 2335.34,4472.5 L 2576.16,4612.01 Z " />
<path stroke="none" fill="#000000" transform="matrix(0.0666667 0 0 0.0666667 -85.5667 -234)" d="M 2587.35,4612.01 L 2581.75,4621.7 L 2576.16,4612.01 L 2575.75,4333.7 L 2587.75,4333.7 L 2587.35,4612.01 Z " />
<path stroke="none" fill="#000000" transform="matrix(0.0666667 0 0 0.0666667 -85.5667 -234)" d="M 1827.65,6288.72 L 1833.51,6292.1 L 1833.51,6298.86 L 1589.95,6439.48 L 1584.09,6436.1 L 1584.09,6429.33 L 1827.65,6288.72 Z " />
<path stroke="none" fill="#000000" transform="matrix(0.0666667 0 0 0.0666667 -85.5667 -234)" d="M 1572.9,6436.1 L 1584.09,6436.1 L 1578.5,6445.79 L 1337.68,6585.29 L 1331.68,6574.9 L 1572.9,6436.1 Z " />
<path stroke="none" fill="#000000" transform="matrix(0.0666667 0 0 0.0666667 -85.5667 -234)" d="M 1584.09,6429.33 L 1584.09,6436.1 L 1572.9,6436.1 L 1331.68,6297.29 L 1337.68,6286.9 L 1584.09,6429.33 Z " />
<path stroke="none" fill="#000000" transform="matrix(0.0666667 0 0 0.0666667 -85.5667 -234)" d="M 1578.5,6445.79 L 1584.09,6436.1 L 1589.95,6439.48 L 1590.09,6724.1 L 1578.09,6724.1 L 1578.5,6445.79 Z " />
<path stroke="none" fill="#000000" transform="matrix(0.0666667 0 0 0.0666667 -85.5667 -234)" d="M 3335.86,6007.36 L 3330,6004.1 L 3330.11,5997.39 L 3474.21,5913.91 L 3480.21,5924.3 L 3335.86,6007.36 Z " />
<path stroke="none" fill="#000000" transform="matrix(0.0666667 0 0 0.0666667 -85.5667 -234)" d="M 3678.29,5924.12 L 3684.29,5913.72 L 3828.72,5997.39 L 3828.83,6004.1 L 3822.97,6007.36 L 3678.29,5924.12 Z " />
<path stroke="none" fill="#000000" transform="matrix(0.0666667 0 0 0.0666667 -85.5667 -234)" d="M 3822.97,6007.36 L 3828.83,6004.1 L 3834.69,6007.48 L 3834.69,6288.72 L 3822.68,6295.65 L 3822.97,6007.36 Z " />
<path stroke="none" fill="#000000" transform="matrix(0.0666667 0 0 0.0666667 -85.5667 -234)" d="M 3874.67,6034.03 L 3886.67,6034.03 L 3886.67,6262.17 L 3874.67,6262.17 L 3874.67,6034.03 Z " />
<path stroke="none" fill="#000000" transform="matrix(0.0666667 0 0 0.0666667 -85.5667 -234)" d="M 3822.68,6295.65 L 3834.69,6288.72 L 4078.25,6429.33 L 4078.25,6443.2 L 3822.68,6295.65 Z " />
<path stroke="none" fill="#000000" transform="matrix(0.0666667 0 0 0.0666667 -85.5667 -234)" d="M 4078.25,6443.2 L 4078.25,6429.33 L 4321.8,6288.72 L 4327.66,6292.1 L 4327.66,6298.86 L 4078.25,6443.2 Z " />
<path stroke="none" fill="#000000" transform="matrix(0.0666667 0 0 0.0666667 -85.5667 -234)" d="M 4081.25,6381.43 L 4075.25,6371.04 L 4272.82,6256.97 L 4278.82,6267.36 L 4081.25,6381.43 Z " />
<path stroke="none" fill="#000000" transform="matrix(0.0666667 0 0 0.0666667 -85.5667 -234)" d="M 4333.52,6288.72 L 4327.66,6292.1 L 4321.8,6288.72 L 4321.8,6007.48 L 4333.81,6000.55 L 4333.52,6288.72 Z " />
<path stroke="none" fill="#000000" transform="matrix(0.0666667 0 0 0.0666667 -85.5667 -234)" d="M 4333.81,6000.55 L 4321.8,6007.48 L 4078.25,5866.86 L 4078.25,5860.1 L 4084.01,5856.66 L 4333.81,6000.55 Z " />
<path stroke="none" fill="#000000" transform="matrix(0.0666667 0 0 0.0666667 -85.5667 -234)" d="M 4278.82,6028.83 L 4272.82,6039.22 L 4075.25,5925.15 L 4081.25,5914.76 L 4278.82,6028.83 Z " />
<path stroke="none" fill="#000000" transform="matrix(0.0666667 0 0 0.0666667 -85.5667 -234)" d="M 4072.48,5856.66 L 4078.25,5860.1 L 4078.25,5866.86 L 3834.69,6007.48 L 3828.83,6004.1 L 3828.72,5997.39 L 4072.48,5856.66 Z " />
<path stroke="none" fill="#000000" transform="matrix(0.0666667 0 0 0.0666667 -85.5667 -234)" d="M 3828.94,5133.39 L 3828.83,5140.1 L 3822.97,5143.48 L 3579.42,5002.86 L 3579.41,4996.1 L 3585.27,4992.72 L 3828.94,5133.39 Z " />
<path stroke="none" fill="#000000" transform="matrix(0.0666667 0 0 0.0666667 -85.5667 -234)" d="M 3779.99,5164.83 L 3773.99,5175.22 L 3576.42,5061.15 L 3582.42,5050.76 L 3779.99,5164.83 Z " />
<path stroke="none" fill="#000000" transform="matrix(0.0666667 0 0 0.0666667 -85.5667 -234)" d="M 3573.56,4992.72 L 3579.41,4996.1 L 3579.42,5002.86 L 3335.86,5143.48 L 3323.85,5136.55 L 3573.56,4992.72 Z " />
<path stroke="none" fill="#000000" transform="matrix(0.0666667 0 0 0.0666667 -85.5667 -234)" d="M 3323.85,5136.55 L 3335.86,5143.48 L 3335.86,5424.72 L 3330,5428.1 L 3324.14,5424.8 L 3323.85,5136.55 L 3323.85,5136.55 Z " />
<path stroke="none" fill="#000000" transform="matrix(0.0666667 0 0 0.0666667 -85.5667 -234)" d="M 3375.84,5170.03 L 3387.84,5170.03 L 3387.84,5398.17 L 3375.84,5398.17 L 3375.84,5170.03 L 3375.84,5170.03 Z " />
<path stroke="none" fill="#000000" transform="matrix(0.0666667 0 0 0.0666667 -85.5667 -234)" d="M 3329.93,5434.83 L 3330,5428.1 L 3335.86,5424.72 L 3579.41,5565.33 L 3579.41,5572.1 L 3573.63,5575.53 L 3329.93,5434.83 Z " />
<path stroke="none" fill="#000000" transform="matrix(0.0666667 0 0 0.0666667 -85.5667 -234)" d="M 3585.2,5575.53 L 3579.41,5572.1 L 3579.41,5565.33 L 3822.97,5424.72 L 3828.83,5428.1 L 3828.92,5434.82 L 3585.2,5575.53 Z " />
<path stroke="none" fill="#000000" transform="matrix(0.0666667 0 0 0.0666667 -85.5667 -234)" d="M 3582.41,5517.44 L 3576.42,5507.04 L 3773.99,5392.97 L 3779.99,5403.37 L 3582.41,5517.44 Z " />
<path stroke="none" fill="#000000" transform="matrix(0.0666667 0 0 0.0666667 -85.5667 -234)" d="M 3834.69,5424.82 L 3828.83,5428.1 L 3822.97,5424.72 L 3822.97,5143.48 L 3828.83,5140.1 L 3834.69,5143.36 L 3834.69,5424.82 Z " />
<path stroke="none" fill="#000000" transform="matrix(0.0666667 0 0 0.0666667 -85.5667 -234)" d="M 3834.69,5143.36 L 3828.83,5140.1 L 3828.94,5133.39 L 3973.04,5049.91 L 3979.04,5060.3 L 3834.69,5143.36 Z " />
<path stroke="none" fill="#000000" transform="matrix(0.0666667 0 0 0.0666667 -85.5667 -234)" d="M 4177.13,5060.12 L 4183.13,5049.72 L 4327.55,5133.39 L 4327.66,5140.1 L 4321.8,5143.36 L 4177.13,5060.12 Z " />
<path stroke="none" fill="#000000" transform="matrix(0.0666667 0 0 0.0666667 -85.5667 -234)" d="M 4333.52,5143.48 L 4327.66,5140.1 L 4327.55,5133.39 L 4569.12,4994.05 L 4577.08,4996.1 L 4577.08,5002.86 L 4333.52,5143.48 Z " />
<path stroke="none" fill="#000000" transform="matrix(0.0666667 0 0 0.0666667 -85.5667 -234)" d="M 4382.5,5175.22 L 4376.5,5164.83 L 4574.08,5050.76 L 4580.08,5061.15 L 4382.5,5175.22 Z " />
<path stroke="none" fill="#000000" transform="matrix(0.0666667 0 0 0.0666667 -85.5667 -234)" d="M 4581.47,4991.79 L 4577.08,4996.1 L 4569.12,4994.05 L 4325.46,4572.01 L 4327.66,4564.1 L 4333.59,4562.45 L 4581.47,4991.79 Z " />
<path stroke="none" fill="#000000" transform="matrix(0.0666667 0 0 0.0666667 -85.5667 -234)" d="M 4321.8,4560.72 L 4327.66,4564.1 L 4325.46,4572.01 L 4084.03,4711.53 L 4078.25,4708.1 L 4078.25,4701.33 L 4321.8,4560.72 Z " />
<path stroke="none" fill="#000000" transform="matrix(0.0666667 0 0 0.0666667 -85.5667 -234)" d="M 4272.82,4528.97 L 4278.82,4539.37 L 4081.25,4653.44 L 4075.25,4643.04 L 4272.82,4528.97 Z " />
<path stroke="none" fill="#000000" transform="matrix(0.0666667 0 0 0.0666667 -85.5667 -234)" d="M 4072.46,4711.53 L 4078.25,4708.1 L 4084.03,4711.53 L 4084.25,4901.52 L 4072.25,4901.52 L 4072.46,4711.53 Z " />
<path stroke="none" fill="#000000" transform="matrix(0.0666667 0 0 0.0666667 -85.5667 -234)" d="M 4321.8,5143.36 L 4327.66,5140.1 L 4333.52,5143.48 L 4333.52,5424.72 L 4327.66,5428.1 L 4321.8,5424.8 L 4321.8,5143.36 Z " />
<path stroke="none" fill="#000000" transform="matrix(0.0666667 0 0 0.0666667 -85.5667 -234)" d="M 4327.59,5434.83 L 4327.66,5428.1 L 4333.52,5424.72 L 4577.08,5565.33 L 4577.08,5579.2 L 4327.59,5434.83 Z " />
<path stroke="none" fill="#000000" transform="matrix(0.0666667 0 0 0.0666667 -85.5667 -234)" d="M 4376.5,5403.36 L 4382.5,5392.97 L 4580.08,5507.04 L 4574.08,5517.44 L 4376.5,5403.36 Z " />
<path stroke="none" fill="#000000" transform="matrix(0.0666667 0 0 0.0666667 -85.5667 -234)" d="M 4577.08,5579.2 L 4577.08,5565.33 L 4820.63,5424.72 L 4826.49,5428.1 L 4826.49,5434.86 L 4577.08,5579.2 Z " />
<path stroke="none" fill="#000000" transform="matrix(0.0666667 0 0 0.0666667 -85.5667 -234)" d="M 4832.35,5424.72 L 4826.49,5428.1 L 4820.63,5424.72 L 4820.63,5143.48 L 4832.64,5136.55 L 4832.35,5424.72 Z " />
<path stroke="none" fill="#000000" transform="matrix(0.0666667 0 0 0.0666667 -85.5667 -234)" d="M 4780.65,5398.17 L 4768.65,5398.17 L 4768.65,5170.03 L 4780.65,5170.03 L 4780.65,5398.17 Z " />
<path stroke="none" fill="#000000" transform="matrix(0.0666667 0 0 0.0666667 -85.5667 -234)" d="M 4832.64,5136.55 L 4820.63,5143.48 L 4577.08,5002.86 L 4577.08,4996.1 L 4581.47,4991.79 L 4832.64,5136.55 Z " />
<path stroke="none" fill="#000000" transform="matrix(0.0666667 0 0 0.0666667 -85.5667 -234)" d="M 4333.59,4562.45 L 4327.66,4564.1 L 4321.8,4560.72 L 4321.8,4279.48 L 4333.81,4272.55 L 4333.59,4562.45 Z " />
<path stroke="none" fill="#000000" transform="matrix(0.0666667 0 0 0.0666667 -85.5667 -234)" d="M 4333.81,4272.55 L 4321.8,4279.48 L 4078.25,4138.86 L 4078.25,4132.1 L 4084.1,4128.72 L 4333.81,4272.55 Z " />
<path stroke="none" fill="#000000" transform="matrix(0.0666667 0 0 0.0666667 -85.5667 -234)" d="M 4278.82,4300.83 L 4272.82,4311.23 L 4075.25,4197.16 L 4081.25,4186.76 L 4278.82,4300.83 Z " />
<path stroke="none" fill="#000000" transform="matrix(0.0666667 0 0 0.0666667 -85.5667 -234)" d="M 4072.39,4128.72 L 4078.25,4132.1 L 4078.25,4138.86 L 3834.69,4279.48 L 3822.68,4272.55 L 4072.39,4128.72 Z " />
<path stroke="none" fill="#000000" transform="matrix(0.0666667 0 0 0.0666667 -85.5667 -234)" d="M 3822.68,4272.55 L 3834.69,4279.48 L 3834.69,4560.72 L 3828.83,4564.1 L 3822.97,4560.72 L 3822.68,4272.55 L 3822.68,4272.55 Z " />
<path stroke="none" fill="#000000" transform="matrix(0.0666667 0 0 0.0666667 -85.5667 -234)" d="M 3874.67,4306.03 L 3886.67,4306.03 L 3886.67,4534.17 L 3874.67,4534.17 L 3874.67,4306.03 L 3874.67,4306.03 Z " />
<path stroke="none" fill="#000000" transform="matrix(0.0666667 0 0 0.0666667 -85.5667 -234)" d="M 3828.83,4570.86 L 3828.83,4564.1 L 3834.69,4560.72 L 4078.25,4701.33 L 4078.25,4708.1 L 4072.46,4711.53 L 3828.83,4570.86 Z " />
<path stroke="none" fill="#000000" transform="matrix(0.0666667 0 0 0.0666667 -85.5667 -234)" d="M 3822.97,4560.72 L 3828.83,4564.1 L 3828.83,4570.86 L 3585.27,4711.48 L 3579.41,4708.1 L 3584.11,4698.88 L 3822.97,4560.72 Z " />
<path stroke="none" fill="#000000" transform="matrix(0.0666667 0 0 0.0666667 -85.5667 -234)" d="M 3573.78,4716.78 L 3579.41,4708.1 L 3585.27,4711.48 L 3585.27,4992.72 L 3579.41,4996.1 L 3573.56,4992.72 L 3573.78,4716.78 Z " />
<path stroke="none" fill="#000000" transform="matrix(0.0666667 0 0 0.0666667 -85.5667 -234)" d="M 3584.11,4698.88 L 3579.41,4708.1 L 3573.18,4704.5 L 3543.96,4426.49 L 3549.31,4421.68 L 3555.44,4423.67 L 3584.11,4698.88 Z " />
<path stroke="none" fill="#000000" transform="matrix(0.0666667 0 0 0.0666667 -85.5667 -234)" d="M 3547.22,4415.24 L 3549.31,4421.68 L 3543.96,4426.49 L 3270.53,4368.37 L 3267.6,4361.8 L 3272.13,4356.77 L 3547.22,4415.24 Z " />
<path stroke="none" fill="#000000" transform="matrix(0.0666667 0 0 0.0666667 -85.5667 -234)" d="M 3532.06,4358.88 L 3529.57,4370.62 L 3306.41,4323.18 L 3308.91,4311.45 L 3532.06,4358.88 Z " />
<path stroke="none" fill="#000000" transform="matrix(0.0666667 0 0 0.0666667 -85.5667 -234)" d="M 3261.19,4361.12 L 3267.6,4361.8 L 3270.53,4368.37 L 3130.76,4610.46 L 3123.6,4611.21 L 3119.81,4606 L 3261.19,4361.12 Z " />
<path stroke="none" fill="#000000" transform="matrix(0.0666667 0 0 0.0666667 -85.5667 -234)" d="M 3121.51,4617.65 L 3123.6,4611.21 L 3130.76,4610.46 L 3317.81,4818.2 L 3316.31,4825.24 L 3309.7,4826.65 L 3121.51,4617.65 Z " />
<path stroke="none" fill="#000000" transform="matrix(0.0666667 0 0 0.0666667 -85.5667 -234)" d="M 3100.65,4672.16 L 3109.57,4664.13 L 3262.22,4833.67 L 3253.3,4841.7 L 3100.65,4672.16 Z " />
<path stroke="none" fill="#000000" transform="matrix(0.0666667 0 0 0.0666667 -85.5667 -234)" d="M 3321.11,4829.55 L 3316.31,4825.24 L 3317.81,4818.2 L 3573.18,4704.5 L 3579.41,4708.1 L 3573.78,4716.78 L 3321.11,4829.55 Z " />
<path stroke="none" fill="#000000" transform="matrix(0.0666667 0 0 0.0666667 -85.5667 -234)" d="M 3119.81,4606 L 3123.6,4611.21 L 3121.51,4617.65 L 2846.43,4676.12 L 2837.15,4665.82 L 3119.81,4606 Z " />
<path stroke="none" fill="#000000" transform="matrix(0.0666667 0 0 0.0666667 -85.5667 -234)" d="M 2837.15,4665.82 L 2846.43,4676.12 L 2759.52,4943.59 L 2745.96,4946.47 L 2837.15,4665.82 Z " />
<path stroke="none" fill="#000000" transform="matrix(0.0666667 0 0 0.0666667 -85.5667 -234)" d="M 2876.25,4713.72 L 2887.66,4717.43 L 2817.16,4934.4 L 2805.75,4930.7 L 2876.25,4713.72 Z " />
<path stroke="none" fill="#000000" transform="matrix(0.0666667 0 0 0.0666667 -85.5667 -234)" d="M 2745.96,4946.47 L 2759.52,4943.59 L 2947.7,5152.59 L 2943.42,5165.77 L 2745.96,4946.47 Z " />
<path stroke="none" fill="#000000" transform="matrix(0.0666667 0 0 0.0666667 -85.5667 -234)" d="M 2943.42,5165.77 L 2947.7,5152.59 L 3222.79,5094.12 L 3232.07,5104.42 L 2943.42,5165.77 Z " />
<path stroke="none" fill="#000000" transform="matrix(0.0666667 0 0 0.0666667 -85.5667 -234)" d="M 2965.36,5107.96 L 2962.86,5096.22 L 3186.02,5048.79 L 3188.51,5060.53 L 2965.36,5107.96 Z " />
<path stroke="none" fill="#000000" transform="matrix(0.0666667 0 0 0.0666667 -85.5667 -234)" d="M 3232.07,5104.42 L 3222.79,5094.12 L 3309.7,4826.65 L 3316.31,4825.24 L 3321.11,4829.55 L 3232.07,5104.42 Z " />
<path stroke="none" fill="#000000" transform="matrix(0.0666667 0 0 0.0666667 -85.5667 -234)" d="M 3555.44,4423.67 L 3549.31,4421.68 L 3547.22,4415.24 L 3735.4,4206.25 L 3748.96,4209.13 L 3555.44,4423.67 Z " />
<path stroke="none" fill="#000000" transform="matrix(0.0666667 0 0 0.0666667 -85.5667 -234)" d="M 3748.96,4209.13 L 3735.4,4206.25 L 3648.5,3938.78 L 3657.77,3928.47 L 3748.96,4209.13 Z " />
<path stroke="none" fill="#000000" transform="matrix(0.0666667 0 0 0.0666667 -85.5667 -234)" d="M 3689.18,4193.35 L 3677.76,4197.06 L 3607.26,3980.09 L 3618.68,3976.38 L 3689.18,4193.35 Z " />
<path stroke="none" fill="#000000" transform="matrix(0.0666667 0 0 0.0666667 -85.5667 -234)" d="M 3657.77,3928.47 L 3648.5,3938.78 L 3373.41,3880.3 L 3369.12,3867.12 L 3657.77,3928.47 Z " />
<path stroke="none" fill="#000000" transform="matrix(0.0666667 0 0 0.0666667 -85.5667 -234)" d="M 3369.12,3867.12 L 3373.41,3880.3 L 3185.22,4089.3 L 3171.66,4086.42 L 3369.12,3867.12 Z " />
<path stroke="none" fill="#000000" transform="matrix(0.0666667 0 0 0.0666667 -85.5667 -234)" d="M 3385.36,3926.78 L 3394.27,3934.81 L 3241.62,4104.35 L 3232.7,4096.33 L 3385.36,3926.78 Z " />
<path stroke="none" fill="#000000" transform="matrix(0.0666667 0 0 0.0666667 -85.5667 -234)" d="M 3171.66,4086.42 L 3185.22,4089.3 L 3272.13,4356.77 L 3267.6,4361.8 L 3261.19,4361.12 L 3171.66,4086.42 Z " />
<path stroke="none" fill="#000000" transform="matrix(0.0666667 0 0 0.0666667 -85.5667 -234)" d="M 4826.49,5434.86 L 4826.49,5428.1 L 4832.35,5424.72 L 5075.91,5565.33 L 5075.91,5572.1 L 5070.05,5575.48 L 4826.49,5434.86 Z " />
<path stroke="none" fill="#000000" transform="matrix(0.0666667 0 0 0.0666667 -85.5667 -234)" d="M 5070.05,5575.48 L 5075.91,5572.1 L 5081.5,5581.79 L 5081.91,5860.1 L 5069.91,5860.1 L 5070.05,5575.48 Z " />
<path stroke="none" fill="#000000" transform="matrix(0.0666667 0 0 0.0666667 -85.5667 -234)" d="M 5087.1,5572.1 L 5075.91,5572.1 L 5075.91,5565.33 L 5322.32,5422.9 L 5328.32,5433.29 L 5087.1,5572.1 Z " />
<path stroke="none" fill="#000000" transform="matrix(0.0666667 0 0 0.0666667 -85.5667 -234)" d="M 5081.5,5581.79 L 5075.91,5572.1 L 5087.1,5572.1 L 5328.32,5710.9 L 5322.32,5721.3 L 5081.5,5581.79 Z " />
<path stroke="none" fill="#000000" transform="matrix(0.0666667 0 0 0.0666667 -85.5667 -234)" d="M 4084.1,4128.72 L 4078.25,4132.1 L 4072.39,4128.72 L 4072.39,3847.48 L 4078.25,3844.1 L 4084.1,3847.48 L 4084.1,4128.72 Z " />
<path stroke="none" fill="#000000" transform="matrix(0.0666667 0 0 0.0666667 -85.5667 -234)" d="M 4083.84,3834.41 L 4078.25,3844.1 L 4072.65,3834.41 L 4072.25,3556.1 L 4084.25,3556.1 L 4083.84,3834.41 Z " />
<path stroke="none" fill="#000000" transform="matrix(0.0666667 0 0 0.0666667 -85.5667 -234)" d="M 4084.1,3847.48 L 4078.25,3844.1 L 4083.84,3834.41 L 4324.66,3694.9 L 4330.66,3705.3 L 4084.1,3847.48 Z " />
<path stroke="none" fill="#000000" transform="matrix(0.0666667 0 0 0.0666667 -85.5667 -234)" d="M 4072.65,3834.41 L 4078.25,3844.1 L 4072.39,3847.48 L 3825.83,3705.3 L 3831.83,3694.9 L 4072.65,3834.41 Z " />
<path stroke="none" fill="#000000" transform="matrix(0.0666667 0 0 0.0666667 -85.5667 -234)" d="M 3573.63,5575.53 L 3579.41,5572.1 L 3585.2,5575.53 L 3585.41,5765.52 L 3573.42,5765.52 L 3573.63,5575.53 Z " />
<path stroke="none" fill="#000000" transform="matrix(0.0666667 0 0 0.0666667 -85.5667 -234)" d="M 4583.08,6724.1 L 4571.08,6724.1 L 4571.22,6439.48 L 4577.08,6436.1 L 4582.84,6441.86 L 4583.08,6724.1 Z " />
<path stroke="none" fill="#000000" transform="matrix(0.0666667 0 0 0.0666667 -85.5667 -234)" d="M 4574.97,6428.23 L 4577.08,6436.1 L 4571.22,6439.48 L 4327.66,6298.86 L 4327.66,6292.1 L 4333.52,6288.72 L 4574.97,6428.23 Z " />
<path stroke="none" fill="#000000" transform="matrix(0.0666667 0 0 0.0666667 -85.5667 -234)" d="M 4582.84,6441.86 L 4577.08,6436.1 L 4586.77,6430.5 L 4865.08,6430.1 L 4865.08,6442.1 L 4582.84,6441.86 Z " />
<path stroke="none" fill="#000000" transform="matrix(0.0666667 0 0 0.0666667 -85.5667 -234)" d="M 4586.77,6430.5 L 4577.08,6436.1 L 4574.97,6428.23 L 4715.88,6183.68 L 4726.27,6189.68 L 4586.77,6430.5 Z " />
<path stroke="none" fill="#000000" transform="matrix(0.0666667 0 0 0.0666667 -85.5667 -234)" d="M 3086.35,5856.66 L 3080.58,5860.1 L 3074.82,5856.66 L 3074.58,5681.01 L 3086.58,5681.01 L 3086.35,5856.66 Z " />
<path stroke="none" fill="#000000" transform="matrix(0.0666667 0 0 0.0666667 -85.5667 -234)" d="M 3828.92,5434.82 L 3828.83,5428.1 L 3834.69,5424.82 L 3987.77,5512.93 L 3981.77,5523.33 L 3828.92,5434.82 Z " />
<path stroke="none" fill="#000000" transform="matrix(0.0666667 0 0 0.0666667 -85.5667 -234)" d="M 2831.26,5434.82 L 2831.17,5428.1 L 2837.03,5424.82 L 2990.11,5512.93 L 2984.11,5523.33 L 2831.26,5434.82 Z " />
<path stroke="none" fill="#000000" transform="matrix(0.0666667 0 0 0.0666667 -85.5667 -234)" d="M 3163.28,5531.28 L 3157.29,5520.89 L 3324.14,5424.8 L 3330,5428.1 L 3329.93,5434.83 L 3163.28,5531.28 Z " />
<path stroke="none" fill="#000000" transform="matrix(0.0666667 0 0 0.0666667 -85.5667 -234)" d="M 4160.95,5531.28 L 4154.95,5520.89 L 4321.8,5424.8 L 4327.66,5428.1 L 4327.59,5434.83 L 4160.95,5531.28 Z " />
<path stroke="none" fill="#000000" transform="matrix(0.0666667 0 0 0.0666667 -85.5667 -234)" d="M 4072.25,5681.01 L 4084.25,5681.01 L 4084.01,5856.66 L 4078.25,5860.1 L 4072.48,5856.66 L 4072.25,5681.01 Z " />
<text x="0" y="0" stroke="none" fill="#000000" transform="matrix(0.0666667 0 0 0.0666667 129.31 213.85)" font-style="normal" font-weight="normal" font-size="200px" font-family="Arial" >
F</text>
<path stroke="none" fill="#000000" transform="matrix(0.0666667 0 0 0.0666667 -85.5667 -234)" d="M 3076.34,6440.34 L 3080.58,6436.1 L 3089.7,6437.42 L 3212.57,6559.6 L 3204.08,6568.08 L 3076.34,6440.34 Z " />
</svg>
