<?xml version="1.0"?>
<svg version="1.1" id="topsvg"
xmlns="http://www.w3.org/2000/svg" xmlns:xlink="http://www.w3.org/1999/xlink"
xmlns:cml="http://www.xml-cml.org/schema" x="0" y="0" width="200px" height="200px" viewBox="0 0 100 100">
<title>GD431.sdf - Open Babel Depiction</title>
<rect x="0" y="0" width="100" height="100" fill="white"/>
<g transform="translate(0,0)">
<svg width="100" height="100" x="0" y="0" viewBox="0 0 653.062 547.245"
font-family="sans-serif" stroke="rgb(0,0,0)" stroke-width="3"  stroke-linecap="round">
<line x1="580.5" y1="402.8" x2="565.4" y2="370.2" opacity="1.0" stroke="rgb(0,0,0)"  stroke-width="3"/>
<line x1="580.5" y1="402.8" x2="613.1" y2="387.7" opacity="1.0" stroke="rgb(0,0,0)"  stroke-width="3"/>
<line x1="580.5" y1="402.8" x2="595.6" y2="435.4" opacity="1.0" stroke="rgb(0,0,0)"  stroke-width="3"/>
<line x1="547.8" y1="418.0" x2="580.5" y2="402.8" opacity="1.0" stroke="rgb(0,0,0)"  stroke-width="3"/>
<line x1="71.1" y1="381.6" x2="53.1" y2="412.7" opacity="1.0" stroke="rgb(0,0,0)"  stroke-width="3"/>
<line x1="71.1" y1="381.6" x2="40.0" y2="363.7" opacity="1.0" stroke="rgb(0,0,0)"  stroke-width="3"/>
<line x1="71.1" y1="381.6" x2="89.1" y2="350.5" opacity="1.0" stroke="rgb(0,0,0)"  stroke-width="3"/>
<line x1="102.3" y1="399.7" x2="71.1" y2="381.6" opacity="1.0" stroke="rgb(0,0,0)"  stroke-width="3"/>
<line x1="305.6" y1="445.0" x2="296.3" y2="410.3" opacity="1.0" stroke="rgb(0,0,0)"  stroke-width="3"/>
<line x1="305.6" y1="445.0" x2="340.3" y2="435.7" opacity="1.0" stroke="rgb(0,0,0)"  stroke-width="3"/>
<line x1="305.6" y1="445.0" x2="314.9" y2="479.7" opacity="1.0" stroke="rgb(0,0,0)"  stroke-width="3"/>
<line x1="270.7" y1="454.3" x2="305.6" y2="445.0" opacity="1.0" stroke="rgb(0,0,0)"  stroke-width="3"/>
<line x1="349.7" y1="481.8" x2="375.1" y2="507.2" opacity="1.0" stroke="rgb(0,0,0)"  stroke-width="3"/>
<line x1="349.7" y1="481.8" x2="324.3" y2="507.2" opacity="1.0" stroke="rgb(0,0,0)"  stroke-width="3"/>
<line x1="349.7" y1="481.8" x2="324.3" y2="456.4" opacity="1.0" stroke="rgb(0,0,0)"  stroke-width="3"/>
<line x1="375.1" y1="456.4" x2="349.7" y2="481.8" opacity="1.0" stroke="rgb(0,0,0)"  stroke-width="3"/>
<line x1="383.3" y1="112.1" x2="383.3" y2="76.0" opacity="1.0" stroke="rgb(0,0,0)"  stroke-width="3"/>
<line x1="383.3" y1="76.0" x2="352.1" y2="58.0" opacity="1.0" stroke="rgb(0,0,0)"  stroke-width="3"/>
<line x1="383.3" y1="76.0" x2="383.3" y2="40.0" opacity="1.0" stroke="rgb(0,0,0)"  stroke-width="3"/>
<line x1="383.3" y1="76.0" x2="414.5" y2="58.0" opacity="1.0" stroke="rgb(0,0,0)"  stroke-width="3"/>
<line x1="258.4" y1="112.1" x2="258.4" y2="76.0" opacity="1.0" stroke="rgb(0,0,0)"  stroke-width="3"/>
<line x1="258.4" y1="76.0" x2="258.4" y2="40.0" opacity="1.0" stroke="rgb(0,0,0)"  stroke-width="3"/>
<line x1="258.4" y1="76.0" x2="289.6" y2="58.0" opacity="1.0" stroke="rgb(0,0,0)"  stroke-width="3"/>
<line x1="258.4" y1="76.0" x2="227.2" y2="58.0" opacity="1.0" stroke="rgb(0,0,0)"  stroke-width="3"/>
<line x1="164.8" y1="274.3" x2="133.5" y2="292.3" opacity="1.0" stroke="rgb(0,0,0)"  stroke-width="3"/>
<line x1="133.5" y1="292.3" x2="102.3" y2="274.3" opacity="1.0" stroke="rgb(0,0,0)"  stroke-width="3"/>
<line x1="133.5" y1="292.3" x2="133.5" y2="328.4" opacity="1.0" stroke="rgb(0,0,0)"  stroke-width="3"/>
<line x1="133.5" y1="292.3" x2="102.3" y2="310.3" opacity="1.0" stroke="rgb(0,0,0)"  stroke-width="3"/>
<line x1="320.8" y1="292.3" x2="320.8" y2="328.4" opacity="1.0" stroke="rgb(0,0,0)"  stroke-width="3"/>
<line x1="476.9" y1="274.3" x2="508.2" y2="292.3" opacity="1.0" stroke="rgb(0,0,0)"  stroke-width="3"/>
<line x1="508.2" y1="292.3" x2="539.4" y2="274.3" opacity="1.0" stroke="rgb(0,0,0)"  stroke-width="3"/>
<line x1="508.2" y1="292.3" x2="508.2" y2="328.4" opacity="1.0" stroke="rgb(0,0,0)"  stroke-width="3"/>
<line x1="508.2" y1="292.3" x2="539.4" y2="310.3" opacity="1.0" stroke="rgb(0,0,0)"  stroke-width="3"/>
<line x1="289.6" y1="382.4" x2="269.7" y2="394.0" opacity="1.0" stroke="rgb(0,0,0)"  stroke-width="3"/>
<line x1="352.1" y1="382.4" x2="372.0" y2="394.0" opacity="1.0" stroke="rgb(0,0,0)"  stroke-width="3"/>
<line x1="227.2" y1="166.2" x2="258.4" y2="184.2" opacity="1.0" stroke="rgb(0,0,0)"  stroke-width="3"/>
<line x1="228.8" y1="175.4" x2="249.6" y2="187.4" opacity="1.0" stroke="rgb(0,0,0)"  stroke-width="3"/>
<line x1="258.4" y1="184.2" x2="258.4" y2="207.2" opacity="1.0" stroke="rgb(0,0,0)"  stroke-width="3"/>
<line x1="247.2" y1="226.7" x2="227.2" y2="238.3" opacity="1.0" stroke="rgb(0,0,0)"  stroke-width="3"/>
<line x1="227.2" y1="238.3" x2="196.0" y2="220.2" opacity="1.0" stroke="rgb(0,0,0)"  stroke-width="3"/>
<line x1="225.6" y1="229.0" x2="204.8" y2="217.0" opacity="1.0" stroke="rgb(0,0,0)"  stroke-width="3"/>
<line x1="196.0" y1="220.2" x2="227.2" y2="166.2" opacity="1.0" stroke="rgb(0,0,0)"  stroke-width="3"/>
<line x1="445.7" y1="220.2" x2="414.5" y2="238.3" opacity="1.0" stroke="rgb(0,0,0)"  stroke-width="3"/>
<line x1="436.9" y1="217.0" x2="416.1" y2="229.0" opacity="1.0" stroke="rgb(0,0,0)"  stroke-width="3"/>
<line x1="414.5" y1="238.3" x2="394.5" y2="226.7" opacity="1.0" stroke="rgb(0,0,0)"  stroke-width="3"/>
<line x1="383.3" y1="207.2" x2="383.3" y2="184.2" opacity="1.0" stroke="rgb(0,0,0)"  stroke-width="3"/>
<line x1="383.3" y1="184.2" x2="414.5" y2="166.2" opacity="1.0" stroke="rgb(0,0,0)"  stroke-width="3"/>
<line x1="392.1" y1="187.4" x2="412.9" y2="175.4" opacity="1.0" stroke="rgb(0,0,0)"  stroke-width="3"/>
<line x1="414.5" y1="166.2" x2="445.7" y2="220.2" opacity="1.0" stroke="rgb(0,0,0)"  stroke-width="3"/>
<line x1="320.8" y1="292.3" x2="352.1" y2="274.3" opacity="1.0" stroke="rgb(0,0,0)"  stroke-width="3"/>
<line x1="322.4" y1="283.1" x2="343.3" y2="271.1" opacity="1.0" stroke="rgb(0,0,0)"  stroke-width="3"/>
<line x1="352.1" y1="274.3" x2="352.1" y2="238.3" opacity="1.0" stroke="rgb(0,0,0)"  stroke-width="3"/>
<line x1="352.1" y1="238.3" x2="320.8" y2="220.2" opacity="1.0" stroke="rgb(0,0,0)"  stroke-width="3"/>
<line x1="343.3" y1="241.5" x2="322.4" y2="229.5" opacity="1.0" stroke="rgb(0,0,0)"  stroke-width="3"/>
<line x1="320.8" y1="220.2" x2="289.6" y2="238.3" opacity="1.0" stroke="rgb(0,0,0)"  stroke-width="3"/>
<line x1="289.6" y1="238.3" x2="289.6" y2="274.3" opacity="1.0" stroke="rgb(0,0,0)"  stroke-width="3"/>
<line x1="296.8" y1="244.3" x2="296.8" y2="268.3" opacity="1.0" stroke="rgb(0,0,0)"  stroke-width="3"/>
<line x1="289.6" y1="274.3" x2="320.8" y2="292.3" opacity="1.0" stroke="rgb(0,0,0)"  stroke-width="3"/>
<line x1="476.9" y1="238.3" x2="445.7" y2="220.2" opacity="1.0" stroke="rgb(0,0,0)"  stroke-width="3"/>
<line x1="414.5" y1="238.3" x2="414.5" y2="274.3" opacity="1.0" stroke="rgb(0,0,0)"  stroke-width="3"/>
<line x1="414.5" y1="274.3" x2="445.7" y2="292.3" opacity="1.0" stroke="rgb(0,0,0)"  stroke-width="3"/>
<line x1="423.3" y1="271.1" x2="444.1" y2="283.1" opacity="1.0" stroke="rgb(0,0,0)"  stroke-width="3"/>
<line x1="445.7" y1="292.3" x2="476.9" y2="274.3" opacity="1.0" stroke="rgb(0,0,0)"  stroke-width="3"/>
<line x1="476.9" y1="274.3" x2="476.9" y2="238.3" opacity="1.0" stroke="rgb(0,0,0)"  stroke-width="3"/>
<line x1="469.7" y1="268.3" x2="469.7" y2="244.3" opacity="1.0" stroke="rgb(0,0,0)"  stroke-width="3"/>
<line x1="383.3" y1="112.1" x2="352.1" y2="130.1" opacity="1.0" stroke="rgb(0,0,0)"  stroke-width="3"/>
<line x1="352.1" y1="130.1" x2="352.1" y2="166.2" opacity="1.0" stroke="rgb(0,0,0)"  stroke-width="3"/>
<line x1="359.3" y1="136.1" x2="359.3" y2="160.2" opacity="1.0" stroke="rgb(0,0,0)"  stroke-width="3"/>
<line x1="352.1" y1="166.2" x2="383.3" y2="184.2" opacity="1.0" stroke="rgb(0,0,0)"  stroke-width="3"/>
<line x1="414.5" y1="166.2" x2="414.5" y2="130.1" opacity="1.0" stroke="rgb(0,0,0)"  stroke-width="3"/>
<line x1="414.5" y1="130.1" x2="383.3" y2="112.1" opacity="1.0" stroke="rgb(0,0,0)"  stroke-width="3"/>
<line x1="405.7" y1="133.4" x2="384.9" y2="121.3" opacity="1.0" stroke="rgb(0,0,0)"  stroke-width="3"/>
<line x1="164.8" y1="274.3" x2="164.8" y2="238.3" opacity="1.0" stroke="rgb(0,0,0)"  stroke-width="3"/>
<line x1="172.0" y1="268.3" x2="172.0" y2="244.3" opacity="1.0" stroke="rgb(0,0,0)"  stroke-width="3"/>
<line x1="164.8" y1="238.3" x2="196.0" y2="220.2" opacity="1.0" stroke="rgb(0,0,0)"  stroke-width="3"/>
<line x1="227.2" y1="238.3" x2="227.2" y2="274.3" opacity="1.0" stroke="rgb(0,0,0)"  stroke-width="3"/>
<line x1="227.2" y1="274.3" x2="196.0" y2="292.3" opacity="1.0" stroke="rgb(0,0,0)"  stroke-width="3"/>
<line x1="218.4" y1="271.1" x2="197.6" y2="283.1" opacity="1.0" stroke="rgb(0,0,0)"  stroke-width="3"/>
<line x1="196.0" y1="292.3" x2="164.8" y2="274.3" opacity="1.0" stroke="rgb(0,0,0)"  stroke-width="3"/>
<line x1="352.1" y1="166.2" x2="332.1" y2="177.7" opacity="1.0" stroke="rgb(0,0,0)"  stroke-width="3"/>
<line x1="320.8" y1="197.2" x2="320.8" y2="220.2" opacity="1.0" stroke="rgb(0,0,0)"  stroke-width="3"/>
<line x1="352.1" y1="238.3" x2="372.0" y2="226.7" opacity="1.0" stroke="rgb(0,0,0)"  stroke-width="3"/>
<line x1="258.4" y1="112.1" x2="289.6" y2="130.1" opacity="1.0" stroke="rgb(0,0,0)"  stroke-width="3"/>
<line x1="289.6" y1="130.1" x2="289.6" y2="166.2" opacity="1.0" stroke="rgb(0,0,0)"  stroke-width="3"/>
<line x1="282.4" y1="136.1" x2="282.4" y2="160.2" opacity="1.0" stroke="rgb(0,0,0)"  stroke-width="3"/>
<line x1="289.6" y1="166.2" x2="258.4" y2="184.2" opacity="1.0" stroke="rgb(0,0,0)"  stroke-width="3"/>
<line x1="227.2" y1="166.2" x2="227.2" y2="130.1" opacity="1.0" stroke="rgb(0,0,0)"  stroke-width="3"/>
<line x1="227.2" y1="130.1" x2="258.4" y2="112.1" opacity="1.0" stroke="rgb(0,0,0)"  stroke-width="3"/>
<line x1="236.0" y1="133.4" x2="256.8" y2="121.3" opacity="1.0" stroke="rgb(0,0,0)"  stroke-width="3"/>
<line x1="289.6" y1="238.3" x2="269.7" y2="226.7" opacity="1.0" stroke="rgb(0,0,0)"  stroke-width="3"/>
<line x1="289.6" y1="166.2" x2="309.6" y2="177.7" opacity="1.0" stroke="rgb(0,0,0)"  stroke-width="3"/>
<line x1="270.7" y1="454.3" x2="256.1" y2="421.4" opacity="1.0" stroke="rgb(0,0,0)"  stroke-width="3"/>
<line x1="261.7" y1="451.8" x2="251.9" y2="429.8" opacity="1.0" stroke="rgb(0,0,0)"  stroke-width="3"/>
<line x1="256.1" y1="421.4" x2="220.2" y2="417.7" opacity="1.0" stroke="rgb(0,0,0)"  stroke-width="3"/>
<line x1="220.2" y1="417.7" x2="199.0" y2="446.8" opacity="1.0" stroke="rgb(0,0,0)"  stroke-width="3"/>
<line x1="222.5" y1="426.7" x2="208.4" y2="446.2" opacity="1.0" stroke="rgb(0,0,0)"  stroke-width="3"/>
<line x1="199.0" y1="446.8" x2="213.7" y2="479.7" opacity="1.0" stroke="rgb(0,0,0)"  stroke-width="3"/>
<line x1="213.7" y1="479.7" x2="249.6" y2="483.5" opacity="1.0" stroke="rgb(0,0,0)"  stroke-width="3"/>
<line x1="220.4" y1="473.2" x2="244.3" y2="475.7" opacity="1.0" stroke="rgb(0,0,0)"  stroke-width="3"/>
<line x1="249.6" y1="483.5" x2="270.7" y2="454.3" opacity="1.0" stroke="rgb(0,0,0)"  stroke-width="3"/>
<line x1="102.3" y1="435.7" x2="133.5" y2="453.7" opacity="1.0" stroke="rgb(0,0,0)"  stroke-width="3"/>
<line x1="111.1" y1="432.5" x2="131.9" y2="444.5" opacity="1.0" stroke="rgb(0,0,0)"  stroke-width="3"/>
<line x1="133.5" y1="453.7" x2="164.8" y2="435.7" opacity="1.0" stroke="rgb(0,0,0)"  stroke-width="3"/>
<line x1="164.8" y1="435.7" x2="164.8" y2="399.7" opacity="1.0" stroke="rgb(0,0,0)"  stroke-width="3"/>
<line x1="157.6" y1="429.7" x2="157.6" y2="405.7" opacity="1.0" stroke="rgb(0,0,0)"  stroke-width="3"/>
<line x1="164.8" y1="399.7" x2="133.5" y2="381.6" opacity="1.0" stroke="rgb(0,0,0)"  stroke-width="3"/>
<line x1="133.5" y1="381.6" x2="102.3" y2="399.7" opacity="1.0" stroke="rgb(0,0,0)"  stroke-width="3"/>
<line x1="131.9" y1="390.9" x2="111.1" y2="402.9" opacity="1.0" stroke="rgb(0,0,0)"  stroke-width="3"/>
<line x1="102.3" y1="399.7" x2="102.3" y2="435.7" opacity="1.0" stroke="rgb(0,0,0)"  stroke-width="3"/>
<line x1="392.7" y1="487.3" x2="428.7" y2="487.3" opacity="1.0" stroke="rgb(0,0,0)"  stroke-width="3"/>
<line x1="398.7" y1="480.1" x2="422.7" y2="480.1" opacity="1.0" stroke="rgb(0,0,0)"  stroke-width="3"/>
<line x1="428.7" y1="487.3" x2="447.2" y2="456.4" opacity="1.0" stroke="rgb(0,0,0)"  stroke-width="3"/>
<line x1="447.2" y1="456.4" x2="428.7" y2="425.4" opacity="1.0" stroke="rgb(0,0,0)"  stroke-width="3"/>
<line x1="438.0" y1="454.9" x2="425.6" y2="434.3" opacity="1.0" stroke="rgb(0,0,0)"  stroke-width="3"/>
<line x1="428.7" y1="425.4" x2="392.7" y2="425.4" opacity="1.0" stroke="rgb(0,0,0)"  stroke-width="3"/>
<line x1="392.7" y1="425.4" x2="375.1" y2="456.4" opacity="1.0" stroke="rgb(0,0,0)"  stroke-width="3"/>
<line x1="396.0" y1="434.2" x2="384.4" y2="454.7" opacity="1.0" stroke="rgb(0,0,0)"  stroke-width="3"/>
<line x1="375.1" y1="456.4" x2="392.7" y2="487.3" opacity="1.0" stroke="rgb(0,0,0)"  stroke-width="3"/>
<line x1="547.8" y1="418.0" x2="518.3" y2="397.3" opacity="1.0" stroke="rgb(0,0,0)"  stroke-width="3"/>
<line x1="538.7" y1="420.4" x2="519.1" y2="406.6" opacity="1.0" stroke="rgb(0,0,0)"  stroke-width="3"/>
<line x1="518.3" y1="397.3" x2="485.6" y2="412.4" opacity="1.0" stroke="rgb(0,0,0)"  stroke-width="3"/>
<line x1="485.6" y1="412.4" x2="482.4" y2="448.3" opacity="1.0" stroke="rgb(0,0,0)"  stroke-width="3"/>
<line x1="492.2" y1="419.0" x2="490.1" y2="443.0" opacity="1.0" stroke="rgb(0,0,0)"  stroke-width="3"/>
<line x1="482.4" y1="448.3" x2="511.8" y2="469.1" opacity="1.0" stroke="rgb(0,0,0)"  stroke-width="3"/>
<line x1="511.8" y1="469.1" x2="544.5" y2="453.9" opacity="1.0" stroke="rgb(0,0,0)"  stroke-width="3"/>
<line x1="514.3" y1="460.0" x2="536.1" y2="449.9" opacity="1.0" stroke="rgb(0,0,0)"  stroke-width="3"/>
<line x1="544.5" y1="453.9" x2="547.8" y2="418.0" opacity="1.0" stroke="rgb(0,0,0)"  stroke-width="3"/>
<line x1="289.6" y1="346.4" x2="289.6" y2="382.4" opacity="1.0" stroke="rgb(0,0,0)"  stroke-width="3"/>
<line x1="289.6" y1="382.4" x2="320.8" y2="400.5" opacity="1.0" stroke="rgb(0,0,0)"  stroke-width="3"/>
<line x1="298.4" y1="379.2" x2="319.3" y2="391.2" opacity="1.0" stroke="rgb(0,0,0)"  stroke-width="3"/>
<line x1="320.8" y1="400.5" x2="352.1" y2="382.4" opacity="1.0" stroke="rgb(0,0,0)"  stroke-width="3"/>
<line x1="352.1" y1="382.4" x2="352.1" y2="346.4" opacity="1.0" stroke="rgb(0,0,0)"  stroke-width="3"/>
<line x1="344.9" y1="376.4" x2="344.9" y2="352.4" opacity="1.0" stroke="rgb(0,0,0)"  stroke-width="3"/>
<line x1="352.1" y1="346.4" x2="320.8" y2="328.4" opacity="1.0" stroke="rgb(0,0,0)"  stroke-width="3"/>
<line x1="320.8" y1="328.4" x2="289.6" y2="346.4" opacity="1.0" stroke="rgb(0,0,0)"  stroke-width="3"/>
<line x1="319.3" y1="337.6" x2="298.4" y2="349.6" opacity="1.0" stroke="rgb(0,0,0)"  stroke-width="3"/>
<line x1="164.8" y1="435.7" x2="199.0" y2="446.8" opacity="1.0" stroke="rgb(0,0,0)"  stroke-width="3"/>
<line x1="220.2" y1="417.7" x2="199.0" y2="388.5" opacity="1.0" stroke="rgb(0,0,0)"  stroke-width="3"/>
<line x1="199.0" y1="388.5" x2="164.8" y2="399.7" opacity="1.0" stroke="rgb(0,0,0)"  stroke-width="3"/>
<line x1="447.2" y1="456.4" x2="482.4" y2="448.3" opacity="1.0" stroke="rgb(0,0,0)"  stroke-width="3"/>
<line x1="485.6" y1="412.4" x2="452.4" y2="398.3" opacity="1.0" stroke="rgb(0,0,0)"  stroke-width="3"/>
<line x1="452.4" y1="398.3" x2="428.7" y2="425.4" opacity="1.0" stroke="rgb(0,0,0)"  stroke-width="3"/>
<line x1="289.6" y1="274.3" x2="199.0" y2="388.5" opacity="1.0" stroke="rgb(0,0,0)"  stroke-width="3"/>
<line x1="199.0" y1="388.5" x2="227.2" y2="274.3" opacity="1.0" stroke="rgb(0,0,0)"  stroke-width="3"/>
<line x1="352.1" y1="274.3" x2="452.4" y2="398.3" opacity="1.0" stroke="rgb(0,0,0)"  stroke-width="3"/>
<line x1="452.4" y1="398.3" x2="414.5" y2="274.3" opacity="1.0" stroke="rgb(0,0,0)"  stroke-width="3"/>
<text x="377.284066" y="408.464269" fill="rgb(127,178,255)" stroke-width="0" font-weight="bold" font-size="25.92" >F</text>
<text x="252.415790" y="408.464269" fill="rgb(127,178,255)" stroke-width="0" font-weight="bold" font-size="25.92" >F</text>
<text x="314.849425" y="192.185306" fill="rgb(255,181,181)" stroke-width="0" font-weight="bold" font-size="25.92" >B</text>
<text x="252.415353" y="228.231632" fill="rgb(12,12,255)" stroke-width="0" font-weight="bold" font-size="25.92" >N</text>
<text x="377.283498" y="228.231632" fill="rgb(12,12,255)" stroke-width="0" font-weight="bold" font-size="25.92" >N</text>
</svg>
</g>
</svg>
