<?xml version="1.0"?>
<svg version="1.1" id="topsvg"
xmlns="http://www.w3.org/2000/svg" xmlns:xlink="http://www.w3.org/1999/xlink"
xmlns:cml="http://www.xml-cml.org/schema" x="0" y="0" width="200px" height="200px" viewBox="0 0 100 100">
<title>GD46.sdf - Open Babel Depiction</title>
<rect x="0" y="0" width="100" height="100" fill="white"/>
<g transform="translate(0,0)">
<svg width="100" height="100" x="0" y="0" viewBox="0 0 546.196 656.204"
font-family="sans-serif" stroke="rgb(0,0,0)" stroke-width="3"  stroke-linecap="round">
<line x1="289.1" y1="377.2" x2="289.1" y2="417.1" opacity="1.0" stroke="rgb(0,0,0)"  stroke-width="3"/>
<line x1="289.1" y1="496.7" x2="289.1" y2="536.6" opacity="1.0" stroke="rgb(0,0,0)"  stroke-width="3"/>
<line x1="220.1" y1="178.1" x2="220.1" y2="138.3" opacity="1.0" stroke="rgb(0,0,0)"  stroke-width="3"/>
<line x1="103.0" y1="318.2" x2="63.4" y2="322.4" opacity="1.0" stroke="rgb(0,0,0)"  stroke-width="3"/>
<line x1="63.4" y1="322.4" x2="40.0" y2="290.2" opacity="1.0" stroke="rgb(0,0,0)"  stroke-width="3"/>
<line x1="47.2" y1="358.8" x2="63.4" y2="322.4" opacity="1.0" stroke="rgb(0,0,0)"  stroke-width="3"/>
<line x1="220.1" y1="138.3" x2="254.6" y2="118.4" opacity="1.0" stroke="rgb(0,0,0)"  stroke-width="3"/>
<line x1="185.6" y1="118.4" x2="220.1" y2="138.3" opacity="1.0" stroke="rgb(0,0,0)"  stroke-width="3"/>
<line x1="63.4" y1="322.4" x2="79.6" y2="286.0" opacity="1.0" stroke="rgb(0,0,0)"  stroke-width="3"/>
<line x1="220.1" y1="138.3" x2="220.1" y2="98.5" opacity="1.0" stroke="rgb(0,0,0)"  stroke-width="3"/>
<line x1="384.3" y1="132.2" x2="370.9" y2="109.0" opacity="1.0" stroke="rgb(0,0,0)"  stroke-width="3"/>
<line x1="158.8" y1="277.7" x2="182.2" y2="245.5" opacity="1.0" stroke="rgb(0,0,0)"  stroke-width="3"/>
<line x1="182.2" y1="245.5" x2="220.1" y2="257.8" opacity="1.0" stroke="rgb(0,0,0)"  stroke-width="3"/>
<line x1="220.1" y1="257.8" x2="220.1" y2="284.6" opacity="1.0" stroke="rgb(0,0,0)"  stroke-width="3"/>
<line x1="207.7" y1="301.6" x2="182.2" y2="309.9" opacity="1.0" stroke="rgb(0,0,0)"  stroke-width="3"/>
<line x1="182.2" y1="309.9" x2="158.8" y2="277.7" opacity="1.0" stroke="rgb(0,0,0)"  stroke-width="3"/>
<line x1="184.5" y1="300.8" x2="168.2" y2="278.3" opacity="1.0" stroke="rgb(0,0,0)"  stroke-width="3"/>
<line x1="419.4" y1="277.7" x2="396.0" y2="245.5" opacity="1.0" stroke="rgb(0,0,0)"  stroke-width="3"/>
<line x1="396.0" y1="245.5" x2="358.1" y2="257.8" opacity="1.0" stroke="rgb(0,0,0)"  stroke-width="3"/>
<line x1="392.5" y1="254.2" x2="366.0" y2="262.8" opacity="1.0" stroke="rgb(0,0,0)"  stroke-width="3"/>
<line x1="358.1" y1="257.8" x2="358.1" y2="284.6" opacity="1.0" stroke="rgb(0,0,0)"  stroke-width="3"/>
<line x1="370.4" y1="301.6" x2="396.0" y2="309.9" opacity="1.0" stroke="rgb(0,0,0)"  stroke-width="3"/>
<line x1="396.0" y1="309.9" x2="419.4" y2="277.7" opacity="1.0" stroke="rgb(0,0,0)"  stroke-width="3"/>
<line x1="393.7" y1="300.8" x2="410.0" y2="278.3" opacity="1.0" stroke="rgb(0,0,0)"  stroke-width="3"/>
<line x1="430.4" y1="147.6" x2="403.8" y2="144.8" opacity="1.0" stroke="rgb(0,0,0)"  stroke-width="3"/>
<line x1="385.5" y1="155.3" x2="374.6" y2="179.9" opacity="1.0" stroke="rgb(0,0,0)"  stroke-width="3"/>
<line x1="374.6" y1="179.9" x2="404.2" y2="206.5" opacity="1.0" stroke="rgb(0,0,0)"  stroke-width="3"/>
<line x1="383.9" y1="178.5" x2="404.6" y2="197.1" opacity="1.0" stroke="rgb(0,0,0)"  stroke-width="3"/>
<line x1="404.2" y1="206.5" x2="438.7" y2="186.6" opacity="1.0" stroke="rgb(0,0,0)"  stroke-width="3"/>
<line x1="438.7" y1="186.6" x2="430.4" y2="147.6" opacity="1.0" stroke="rgb(0,0,0)"  stroke-width="3"/>
<line x1="430.4" y1="182.2" x2="424.6" y2="155.0" opacity="1.0" stroke="rgb(0,0,0)"  stroke-width="3"/>
<line x1="254.6" y1="357.3" x2="289.1" y2="377.2" opacity="1.0" stroke="rgb(0,0,0)"  stroke-width="3"/>
<line x1="289.1" y1="377.2" x2="323.6" y2="357.3" opacity="1.0" stroke="rgb(0,0,0)"  stroke-width="3"/>
<line x1="290.7" y1="368.0" x2="314.8" y2="354.1" opacity="1.0" stroke="rgb(0,0,0)"  stroke-width="3"/>
<line x1="323.6" y1="357.3" x2="323.6" y2="317.5" opacity="1.0" stroke="rgb(0,0,0)"  stroke-width="3"/>
<line x1="323.6" y1="317.5" x2="289.1" y2="297.6" opacity="1.0" stroke="rgb(0,0,0)"  stroke-width="3"/>
<line x1="314.8" y1="320.7" x2="290.7" y2="306.8" opacity="1.0" stroke="rgb(0,0,0)"  stroke-width="3"/>
<line x1="289.1" y1="297.6" x2="254.6" y2="317.5" opacity="1.0" stroke="rgb(0,0,0)"  stroke-width="3"/>
<line x1="254.6" y1="317.5" x2="254.6" y2="357.3" opacity="1.0" stroke="rgb(0,0,0)"  stroke-width="3"/>
<line x1="261.8" y1="323.5" x2="261.8" y2="351.3" opacity="1.0" stroke="rgb(0,0,0)"  stroke-width="3"/>
<line x1="289.1" y1="270.8" x2="289.1" y2="297.6" opacity="1.0" stroke="rgb(0,0,0)"  stroke-width="3"/>
<line x1="254.6" y1="317.5" x2="231.4" y2="304.1" opacity="1.0" stroke="rgb(0,0,0)"  stroke-width="3"/>
<line x1="220.1" y1="257.8" x2="254.6" y2="237.9" opacity="1.0" stroke="rgb(0,0,0)"  stroke-width="3"/>
<line x1="228.9" y1="261.0" x2="253.0" y2="247.1" opacity="1.0" stroke="rgb(0,0,0)"  stroke-width="3"/>
<line x1="254.6" y1="237.9" x2="277.8" y2="251.3" opacity="1.0" stroke="rgb(0,0,0)"  stroke-width="3"/>
<line x1="358.1" y1="257.8" x2="323.6" y2="237.9" opacity="1.0" stroke="rgb(0,0,0)"  stroke-width="3"/>
<line x1="323.6" y1="237.9" x2="300.4" y2="251.3" opacity="1.0" stroke="rgb(0,0,0)"  stroke-width="3"/>
<line x1="323.6" y1="317.5" x2="346.8" y2="304.1" opacity="1.0" stroke="rgb(0,0,0)"  stroke-width="3"/>
<line x1="126.4" y1="350.4" x2="166.0" y2="346.3" opacity="1.0" stroke="rgb(0,0,0)"  stroke-width="3"/>
<line x1="131.6" y1="342.7" x2="159.3" y2="339.8" opacity="1.0" stroke="rgb(0,0,0)"  stroke-width="3"/>
<line x1="166.0" y1="346.3" x2="182.2" y2="309.9" opacity="1.0" stroke="rgb(0,0,0)"  stroke-width="3"/>
<line x1="158.8" y1="277.7" x2="119.2" y2="281.8" opacity="1.0" stroke="rgb(0,0,0)"  stroke-width="3"/>
<line x1="119.2" y1="281.8" x2="103.0" y2="318.2" opacity="1.0" stroke="rgb(0,0,0)"  stroke-width="3"/>
<line x1="123.4" y1="290.3" x2="112.0" y2="315.7" opacity="1.0" stroke="rgb(0,0,0)"  stroke-width="3"/>
<line x1="103.0" y1="318.2" x2="126.4" y2="350.4" opacity="1.0" stroke="rgb(0,0,0)"  stroke-width="3"/>
<line x1="475.2" y1="318.2" x2="459.0" y2="281.8" opacity="1.0" stroke="rgb(0,0,0)"  stroke-width="3"/>
<line x1="466.1" y1="315.7" x2="454.8" y2="290.3" opacity="1.0" stroke="rgb(0,0,0)"  stroke-width="3"/>
<line x1="459.0" y1="281.8" x2="419.4" y2="277.7" opacity="1.0" stroke="rgb(0,0,0)"  stroke-width="3"/>
<line x1="396.0" y1="309.9" x2="412.1" y2="346.3" opacity="1.0" stroke="rgb(0,0,0)"  stroke-width="3"/>
<line x1="412.1" y1="346.3" x2="451.8" y2="350.4" opacity="1.0" stroke="rgb(0,0,0)"  stroke-width="3"/>
<line x1="418.9" y1="339.8" x2="446.5" y2="342.7" opacity="1.0" stroke="rgb(0,0,0)"  stroke-width="3"/>
<line x1="451.8" y1="350.4" x2="475.2" y2="318.2" opacity="1.0" stroke="rgb(0,0,0)"  stroke-width="3"/>
<line x1="374.6" y1="179.9" x2="336.8" y2="192.2" opacity="1.0" stroke="rgb(0,0,0)"  stroke-width="3"/>
<line x1="336.8" y1="192.2" x2="323.6" y2="237.9" opacity="1.0" stroke="rgb(0,0,0)"  stroke-width="3"/>
<line x1="342.0" y1="199.9" x2="332.2" y2="234.1" opacity="1.0" stroke="rgb(0,0,0)"  stroke-width="3"/>
<line x1="396.0" y1="245.5" x2="404.2" y2="206.5" opacity="1.0" stroke="rgb(0,0,0)"  stroke-width="3"/>
<line x1="497.9" y1="133.3" x2="460.0" y2="121.0" opacity="1.0" stroke="rgb(0,0,0)"  stroke-width="3"/>
<line x1="490.0" y1="138.3" x2="463.5" y2="129.7" opacity="1.0" stroke="rgb(0,0,0)"  stroke-width="3"/>
<line x1="460.0" y1="121.0" x2="430.4" y2="147.6" opacity="1.0" stroke="rgb(0,0,0)"  stroke-width="3"/>
<line x1="438.7" y1="186.6" x2="476.6" y2="198.9" opacity="1.0" stroke="rgb(0,0,0)"  stroke-width="3"/>
<line x1="476.6" y1="198.9" x2="506.2" y2="172.2" opacity="1.0" stroke="rgb(0,0,0)"  stroke-width="3"/>
<line x1="476.2" y1="189.5" x2="496.9" y2="170.9" opacity="1.0" stroke="rgb(0,0,0)"  stroke-width="3"/>
<line x1="506.2" y1="172.2" x2="497.9" y2="133.3" opacity="1.0" stroke="rgb(0,0,0)"  stroke-width="3"/>
<line x1="182.2" y1="245.5" x2="185.6" y2="198.0" opacity="1.0" stroke="rgb(0,0,0)"  stroke-width="3"/>
<line x1="189.8" y1="240.0" x2="192.4" y2="204.5" opacity="1.0" stroke="rgb(0,0,0)"  stroke-width="3"/>
<line x1="185.6" y1="198.0" x2="220.1" y2="178.1" opacity="1.0" stroke="rgb(0,0,0)"  stroke-width="3"/>
<line x1="220.1" y1="178.1" x2="254.6" y2="198.0" opacity="1.0" stroke="rgb(0,0,0)"  stroke-width="3"/>
<line x1="221.7" y1="187.3" x2="245.8" y2="201.3" opacity="1.0" stroke="rgb(0,0,0)"  stroke-width="3"/>
<line x1="254.6" y1="198.0" x2="254.6" y2="237.9" opacity="1.0" stroke="rgb(0,0,0)"  stroke-width="3"/>
<line x1="254.6" y1="437.0" x2="254.6" y2="476.8" opacity="1.0" stroke="rgb(0,0,0)"  stroke-width="3"/>
<line x1="254.6" y1="476.8" x2="289.1" y2="496.7" opacity="1.0" stroke="rgb(0,0,0)"  stroke-width="3"/>
<line x1="263.4" y1="473.6" x2="287.5" y2="487.5" opacity="1.0" stroke="rgb(0,0,0)"  stroke-width="3"/>
<line x1="289.1" y1="496.7" x2="323.6" y2="476.8" opacity="1.0" stroke="rgb(0,0,0)"  stroke-width="3"/>
<line x1="323.6" y1="476.8" x2="323.6" y2="437.0" opacity="1.0" stroke="rgb(0,0,0)"  stroke-width="3"/>
<line x1="316.4" y1="470.8" x2="316.4" y2="443.0" opacity="1.0" stroke="rgb(0,0,0)"  stroke-width="3"/>
<line x1="323.6" y1="437.0" x2="289.1" y2="417.1" opacity="1.0" stroke="rgb(0,0,0)"  stroke-width="3"/>
<line x1="289.1" y1="417.1" x2="254.6" y2="437.0" opacity="1.0" stroke="rgb(0,0,0)"  stroke-width="3"/>
<line x1="287.5" y1="426.3" x2="263.4" y2="440.2" opacity="1.0" stroke="rgb(0,0,0)"  stroke-width="3"/>
<line x1="185.6" y1="476.8" x2="220.1" y2="496.7" opacity="1.0" stroke="rgb(0,0,0)"  stroke-width="3"/>
<line x1="194.4" y1="473.6" x2="218.5" y2="487.5" opacity="1.0" stroke="rgb(0,0,0)"  stroke-width="3"/>
<line x1="220.1" y1="496.7" x2="254.6" y2="476.8" opacity="1.0" stroke="rgb(0,0,0)"  stroke-width="3"/>
<line x1="254.6" y1="437.0" x2="220.1" y2="417.1" opacity="1.0" stroke="rgb(0,0,0)"  stroke-width="3"/>
<line x1="220.1" y1="417.1" x2="185.6" y2="437.0" opacity="1.0" stroke="rgb(0,0,0)"  stroke-width="3"/>
<line x1="218.5" y1="426.3" x2="194.4" y2="440.2" opacity="1.0" stroke="rgb(0,0,0)"  stroke-width="3"/>
<line x1="185.6" y1="437.0" x2="185.6" y2="476.8" opacity="1.0" stroke="rgb(0,0,0)"  stroke-width="3"/>
<line x1="392.6" y1="437.0" x2="358.1" y2="417.1" opacity="1.0" stroke="rgb(0,0,0)"  stroke-width="3"/>
<line x1="383.8" y1="440.2" x2="359.7" y2="426.3" opacity="1.0" stroke="rgb(0,0,0)"  stroke-width="3"/>
<line x1="358.1" y1="417.1" x2="323.6" y2="437.0" opacity="1.0" stroke="rgb(0,0,0)"  stroke-width="3"/>
<line x1="323.6" y1="476.8" x2="358.1" y2="496.7" opacity="1.0" stroke="rgb(0,0,0)"  stroke-width="3"/>
<line x1="358.1" y1="496.7" x2="392.6" y2="476.8" opacity="1.0" stroke="rgb(0,0,0)"  stroke-width="3"/>
<line x1="359.7" y1="487.5" x2="383.8" y2="473.6" opacity="1.0" stroke="rgb(0,0,0)"  stroke-width="3"/>
<line x1="392.6" y1="476.8" x2="392.6" y2="437.0" opacity="1.0" stroke="rgb(0,0,0)"  stroke-width="3"/>
<line x1="390.8" y1="74.5" x2="370.9" y2="40.0" opacity="1.0" stroke="rgb(0,0,0)"  stroke-width="3"/>
<line x1="370.9" y1="40.0" x2="331.1" y2="40.0" opacity="1.0" stroke="rgb(0,0,0)"  stroke-width="3"/>
<line x1="364.9" y1="47.2" x2="337.1" y2="47.2" opacity="1.0" stroke="rgb(0,0,0)"  stroke-width="3"/>
<line x1="331.1" y1="40.0" x2="311.2" y2="74.5" opacity="1.0" stroke="rgb(0,0,0)"  stroke-width="3"/>
<line x1="311.2" y1="74.5" x2="331.1" y2="109.0" opacity="1.0" stroke="rgb(0,0,0)"  stroke-width="3"/>
<line x1="320.4" y1="76.1" x2="334.3" y2="100.2" opacity="1.0" stroke="rgb(0,0,0)"  stroke-width="3"/>
<line x1="331.1" y1="109.0" x2="370.9" y2="109.0" opacity="1.0" stroke="rgb(0,0,0)"  stroke-width="3"/>
<line x1="370.9" y1="109.0" x2="390.8" y2="74.5" opacity="1.0" stroke="rgb(0,0,0)"  stroke-width="3"/>
<line x1="367.7" y1="100.2" x2="381.6" y2="76.1" opacity="1.0" stroke="rgb(0,0,0)"  stroke-width="3"/>
<line x1="254.6" y1="556.5" x2="254.6" y2="596.3" opacity="1.0" stroke="rgb(0,0,0)"  stroke-width="3"/>
<line x1="254.6" y1="596.3" x2="289.1" y2="616.2" opacity="1.0" stroke="rgb(0,0,0)"  stroke-width="3"/>
<line x1="263.4" y1="593.1" x2="287.5" y2="607.0" opacity="1.0" stroke="rgb(0,0,0)"  stroke-width="3"/>
<line x1="289.1" y1="616.2" x2="323.6" y2="596.3" opacity="1.0" stroke="rgb(0,0,0)"  stroke-width="3"/>
<line x1="323.6" y1="596.3" x2="323.6" y2="556.5" opacity="1.0" stroke="rgb(0,0,0)"  stroke-width="3"/>
<line x1="316.4" y1="590.3" x2="316.4" y2="562.5" opacity="1.0" stroke="rgb(0,0,0)"  stroke-width="3"/>
<line x1="323.6" y1="556.5" x2="289.1" y2="536.6" opacity="1.0" stroke="rgb(0,0,0)"  stroke-width="3"/>
<line x1="289.1" y1="536.6" x2="254.6" y2="556.5" opacity="1.0" stroke="rgb(0,0,0)"  stroke-width="3"/>
<line x1="287.5" y1="545.8" x2="263.4" y2="559.7" opacity="1.0" stroke="rgb(0,0,0)"  stroke-width="3"/>
<text x="384.833236" y="151.471919" fill="rgb(12,12,255)" stroke-width="0" font-weight="bold" font-size="25.92" >N</text>
<text x="214.111011" y="305.593601" fill="rgb(12,12,255)" stroke-width="0" font-weight="bold" font-size="25.92" >N</text>
<text x="352.073619" y="305.593601" fill="rgb(12,12,255)" stroke-width="0" font-weight="bold" font-size="25.92" >N</text>
<text x="283.092339" y="265.767243" fill="rgb(255,181,181)" stroke-width="0" font-weight="bold" font-size="25.92" >B</text>
</svg>
</g>
</svg>
