<?xml version="1.0"?>
<svg version="1.1" id="topsvg"
xmlns="http://www.w3.org/2000/svg" xmlns:xlink="http://www.w3.org/1999/xlink"
xmlns:cml="http://www.xml-cml.org/schema" x="0" y="0" width="200px" height="200px" viewBox="0 0 100 100">
<title>GD49.sdf - Open Babel Depiction</title>
<rect x="0" y="0" width="100" height="100" fill="white"/>
<g transform="translate(0,0)">
<svg width="100" height="100" x="0" y="0" viewBox="0 0 546.023 576.368"
font-family="sans-serif" stroke="rgb(0,0,0)" stroke-width="3"  stroke-linecap="round">
<line x1="289.0" y1="377.1" x2="289.0" y2="416.9" opacity="1.0" stroke="rgb(0,0,0)"  stroke-width="3"/>
<line x1="384.2" y1="132.2" x2="370.8" y2="109.0" opacity="1.0" stroke="rgb(0,0,0)"  stroke-width="3"/>
<line x1="254.5" y1="476.7" x2="220.0" y2="496.6" opacity="1.0" stroke="rgb(0,0,0)"  stroke-width="3"/>
<line x1="220.0" y1="496.6" x2="185.6" y2="476.7" opacity="1.0" stroke="rgb(0,0,0)"  stroke-width="3"/>
<line x1="220.0" y1="496.6" x2="220.0" y2="536.4" opacity="1.0" stroke="rgb(0,0,0)"  stroke-width="3"/>
<line x1="220.0" y1="496.6" x2="220.0" y2="456.7" opacity="1.0" stroke="rgb(0,0,0)"  stroke-width="3"/>
<line x1="323.5" y1="476.7" x2="358.0" y2="496.6" opacity="1.0" stroke="rgb(0,0,0)"  stroke-width="3"/>
<line x1="358.0" y1="496.6" x2="392.4" y2="476.7" opacity="1.0" stroke="rgb(0,0,0)"  stroke-width="3"/>
<line x1="358.0" y1="496.6" x2="358.0" y2="536.4" opacity="1.0" stroke="rgb(0,0,0)"  stroke-width="3"/>
<line x1="358.0" y1="496.6" x2="358.0" y2="456.7" opacity="1.0" stroke="rgb(0,0,0)"  stroke-width="3"/>
<line x1="158.8" y1="277.6" x2="182.2" y2="245.4" opacity="1.0" stroke="rgb(0,0,0)"  stroke-width="3"/>
<line x1="182.2" y1="245.4" x2="220.0" y2="257.7" opacity="1.0" stroke="rgb(0,0,0)"  stroke-width="3"/>
<line x1="220.0" y1="257.7" x2="220.0" y2="284.5" opacity="1.0" stroke="rgb(0,0,0)"  stroke-width="3"/>
<line x1="207.7" y1="301.5" x2="182.2" y2="309.8" opacity="1.0" stroke="rgb(0,0,0)"  stroke-width="3"/>
<line x1="182.2" y1="309.8" x2="158.8" y2="277.6" opacity="1.0" stroke="rgb(0,0,0)"  stroke-width="3"/>
<line x1="184.5" y1="300.7" x2="168.1" y2="278.2" opacity="1.0" stroke="rgb(0,0,0)"  stroke-width="3"/>
<line x1="419.2" y1="277.6" x2="395.8" y2="245.4" opacity="1.0" stroke="rgb(0,0,0)"  stroke-width="3"/>
<line x1="395.8" y1="245.4" x2="358.0" y2="257.7" opacity="1.0" stroke="rgb(0,0,0)"  stroke-width="3"/>
<line x1="392.3" y1="254.1" x2="365.9" y2="262.7" opacity="1.0" stroke="rgb(0,0,0)"  stroke-width="3"/>
<line x1="358.0" y1="257.7" x2="358.0" y2="284.5" opacity="1.0" stroke="rgb(0,0,0)"  stroke-width="3"/>
<line x1="370.3" y1="301.5" x2="395.8" y2="309.8" opacity="1.0" stroke="rgb(0,0,0)"  stroke-width="3"/>
<line x1="395.8" y1="309.8" x2="419.2" y2="277.6" opacity="1.0" stroke="rgb(0,0,0)"  stroke-width="3"/>
<line x1="393.5" y1="300.7" x2="409.9" y2="278.2" opacity="1.0" stroke="rgb(0,0,0)"  stroke-width="3"/>
<line x1="430.3" y1="147.6" x2="403.6" y2="144.8" opacity="1.0" stroke="rgb(0,0,0)"  stroke-width="3"/>
<line x1="385.4" y1="155.3" x2="374.5" y2="179.8" opacity="1.0" stroke="rgb(0,0,0)"  stroke-width="3"/>
<line x1="374.5" y1="179.8" x2="404.1" y2="206.4" opacity="1.0" stroke="rgb(0,0,0)"  stroke-width="3"/>
<line x1="383.8" y1="178.5" x2="404.5" y2="197.1" opacity="1.0" stroke="rgb(0,0,0)"  stroke-width="3"/>
<line x1="404.1" y1="206.4" x2="438.6" y2="186.5" opacity="1.0" stroke="rgb(0,0,0)"  stroke-width="3"/>
<line x1="438.6" y1="186.5" x2="430.3" y2="147.6" opacity="1.0" stroke="rgb(0,0,0)"  stroke-width="3"/>
<line x1="430.3" y1="182.2" x2="424.5" y2="155.0" opacity="1.0" stroke="rgb(0,0,0)"  stroke-width="3"/>
<line x1="254.5" y1="357.2" x2="289.0" y2="377.1" opacity="1.0" stroke="rgb(0,0,0)"  stroke-width="3"/>
<line x1="289.0" y1="377.1" x2="323.5" y2="357.2" opacity="1.0" stroke="rgb(0,0,0)"  stroke-width="3"/>
<line x1="290.6" y1="367.9" x2="314.7" y2="354.0" opacity="1.0" stroke="rgb(0,0,0)"  stroke-width="3"/>
<line x1="323.5" y1="357.2" x2="323.5" y2="317.4" opacity="1.0" stroke="rgb(0,0,0)"  stroke-width="3"/>
<line x1="323.5" y1="317.4" x2="289.0" y2="297.5" opacity="1.0" stroke="rgb(0,0,0)"  stroke-width="3"/>
<line x1="314.7" y1="320.6" x2="290.6" y2="306.7" opacity="1.0" stroke="rgb(0,0,0)"  stroke-width="3"/>
<line x1="289.0" y1="297.5" x2="254.5" y2="317.4" opacity="1.0" stroke="rgb(0,0,0)"  stroke-width="3"/>
<line x1="254.5" y1="317.4" x2="254.5" y2="357.2" opacity="1.0" stroke="rgb(0,0,0)"  stroke-width="3"/>
<line x1="261.7" y1="323.4" x2="261.7" y2="351.2" opacity="1.0" stroke="rgb(0,0,0)"  stroke-width="3"/>
<line x1="289.0" y1="270.7" x2="289.0" y2="297.5" opacity="1.0" stroke="rgb(0,0,0)"  stroke-width="3"/>
<line x1="254.5" y1="317.4" x2="231.3" y2="304.0" opacity="1.0" stroke="rgb(0,0,0)"  stroke-width="3"/>
<line x1="220.0" y1="257.7" x2="254.5" y2="237.8" opacity="1.0" stroke="rgb(0,0,0)"  stroke-width="3"/>
<line x1="228.8" y1="260.9" x2="252.9" y2="247.0" opacity="1.0" stroke="rgb(0,0,0)"  stroke-width="3"/>
<line x1="254.5" y1="237.8" x2="277.7" y2="251.2" opacity="1.0" stroke="rgb(0,0,0)"  stroke-width="3"/>
<line x1="151.1" y1="138.3" x2="185.6" y2="118.3" opacity="1.0" stroke="rgb(0,0,0)"  stroke-width="3"/>
<line x1="185.6" y1="118.3" x2="220.0" y2="138.3" opacity="1.0" stroke="rgb(0,0,0)"  stroke-width="3"/>
<line x1="187.2" y1="127.6" x2="211.2" y2="141.5" opacity="1.0" stroke="rgb(0,0,0)"  stroke-width="3"/>
<line x1="220.0" y1="138.3" x2="220.0" y2="178.1" opacity="1.0" stroke="rgb(0,0,0)"  stroke-width="3"/>
<line x1="220.0" y1="178.1" x2="185.6" y2="198.0" opacity="1.0" stroke="rgb(0,0,0)"  stroke-width="3"/>
<line x1="185.6" y1="198.0" x2="151.1" y2="178.1" opacity="1.0" stroke="rgb(0,0,0)"  stroke-width="3"/>
<line x1="151.1" y1="178.1" x2="151.1" y2="138.3" opacity="1.0" stroke="rgb(0,0,0)"  stroke-width="3"/>
<line x1="158.3" y1="172.1" x2="158.3" y2="144.3" opacity="1.0" stroke="rgb(0,0,0)"  stroke-width="3"/>
<line x1="358.0" y1="257.7" x2="323.5" y2="237.8" opacity="1.0" stroke="rgb(0,0,0)"  stroke-width="3"/>
<line x1="323.5" y1="237.8" x2="300.3" y2="251.2" opacity="1.0" stroke="rgb(0,0,0)"  stroke-width="3"/>
<line x1="323.5" y1="317.4" x2="346.7" y2="304.0" opacity="1.0" stroke="rgb(0,0,0)"  stroke-width="3"/>
<line x1="126.4" y1="350.3" x2="166.0" y2="346.2" opacity="1.0" stroke="rgb(0,0,0)"  stroke-width="3"/>
<line x1="131.6" y1="342.5" x2="159.3" y2="339.6" opacity="1.0" stroke="rgb(0,0,0)"  stroke-width="3"/>
<line x1="166.0" y1="346.2" x2="182.2" y2="309.8" opacity="1.0" stroke="rgb(0,0,0)"  stroke-width="3"/>
<line x1="158.8" y1="277.6" x2="119.2" y2="281.8" opacity="1.0" stroke="rgb(0,0,0)"  stroke-width="3"/>
<line x1="119.2" y1="281.8" x2="103.0" y2="318.1" opacity="1.0" stroke="rgb(0,0,0)"  stroke-width="3"/>
<line x1="123.3" y1="290.2" x2="112.0" y2="315.6" opacity="1.0" stroke="rgb(0,0,0)"  stroke-width="3"/>
<line x1="103.0" y1="318.1" x2="126.4" y2="350.3" opacity="1.0" stroke="rgb(0,0,0)"  stroke-width="3"/>
<line x1="475.0" y1="318.1" x2="458.8" y2="281.8" opacity="1.0" stroke="rgb(0,0,0)"  stroke-width="3"/>
<line x1="466.0" y1="315.6" x2="454.7" y2="290.2" opacity="1.0" stroke="rgb(0,0,0)"  stroke-width="3"/>
<line x1="458.8" y1="281.8" x2="419.2" y2="277.6" opacity="1.0" stroke="rgb(0,0,0)"  stroke-width="3"/>
<line x1="395.8" y1="309.8" x2="412.0" y2="346.2" opacity="1.0" stroke="rgb(0,0,0)"  stroke-width="3"/>
<line x1="412.0" y1="346.2" x2="451.6" y2="350.3" opacity="1.0" stroke="rgb(0,0,0)"  stroke-width="3"/>
<line x1="418.7" y1="339.6" x2="446.4" y2="342.5" opacity="1.0" stroke="rgb(0,0,0)"  stroke-width="3"/>
<line x1="451.6" y1="350.3" x2="475.0" y2="318.1" opacity="1.0" stroke="rgb(0,0,0)"  stroke-width="3"/>
<line x1="374.5" y1="179.8" x2="336.6" y2="192.1" opacity="1.0" stroke="rgb(0,0,0)"  stroke-width="3"/>
<line x1="336.6" y1="192.1" x2="323.5" y2="237.8" opacity="1.0" stroke="rgb(0,0,0)"  stroke-width="3"/>
<line x1="341.9" y1="199.9" x2="332.1" y2="234.0" opacity="1.0" stroke="rgb(0,0,0)"  stroke-width="3"/>
<line x1="395.8" y1="245.4" x2="404.1" y2="206.4" opacity="1.0" stroke="rgb(0,0,0)"  stroke-width="3"/>
<line x1="497.7" y1="133.3" x2="459.9" y2="121.0" opacity="1.0" stroke="rgb(0,0,0)"  stroke-width="3"/>
<line x1="489.8" y1="138.3" x2="463.4" y2="129.7" opacity="1.0" stroke="rgb(0,0,0)"  stroke-width="3"/>
<line x1="459.9" y1="121.0" x2="430.3" y2="147.6" opacity="1.0" stroke="rgb(0,0,0)"  stroke-width="3"/>
<line x1="438.6" y1="186.5" x2="476.4" y2="198.8" opacity="1.0" stroke="rgb(0,0,0)"  stroke-width="3"/>
<line x1="476.4" y1="198.8" x2="506.0" y2="172.2" opacity="1.0" stroke="rgb(0,0,0)"  stroke-width="3"/>
<line x1="476.1" y1="189.5" x2="496.7" y2="170.9" opacity="1.0" stroke="rgb(0,0,0)"  stroke-width="3"/>
<line x1="506.0" y1="172.2" x2="497.7" y2="133.3" opacity="1.0" stroke="rgb(0,0,0)"  stroke-width="3"/>
<line x1="182.2" y1="245.4" x2="185.6" y2="198.0" opacity="1.0" stroke="rgb(0,0,0)"  stroke-width="3"/>
<line x1="189.8" y1="239.9" x2="192.3" y2="204.5" opacity="1.0" stroke="rgb(0,0,0)"  stroke-width="3"/>
<line x1="220.0" y1="178.1" x2="254.5" y2="198.0" opacity="1.0" stroke="rgb(0,0,0)"  stroke-width="3"/>
<line x1="221.6" y1="187.3" x2="245.7" y2="201.2" opacity="1.0" stroke="rgb(0,0,0)"  stroke-width="3"/>
<line x1="254.5" y1="198.0" x2="254.5" y2="237.8" opacity="1.0" stroke="rgb(0,0,0)"  stroke-width="3"/>
<line x1="40.0" y1="290.1" x2="63.4" y2="322.3" opacity="1.0" stroke="rgb(0,0,0)"  stroke-width="3"/>
<line x1="49.4" y1="290.7" x2="65.7" y2="313.2" opacity="1.0" stroke="rgb(0,0,0)"  stroke-width="3"/>
<line x1="63.4" y1="322.3" x2="103.0" y2="318.1" opacity="1.0" stroke="rgb(0,0,0)"  stroke-width="3"/>
<line x1="119.2" y1="281.8" x2="95.8" y2="249.5" opacity="1.0" stroke="rgb(0,0,0)"  stroke-width="3"/>
<line x1="95.8" y1="249.5" x2="56.2" y2="253.7" opacity="1.0" stroke="rgb(0,0,0)"  stroke-width="3"/>
<line x1="90.6" y1="257.3" x2="62.9" y2="260.2" opacity="1.0" stroke="rgb(0,0,0)"  stroke-width="3"/>
<line x1="56.2" y1="253.7" x2="40.0" y2="290.1" opacity="1.0" stroke="rgb(0,0,0)"  stroke-width="3"/>
<line x1="254.5" y1="436.8" x2="254.5" y2="476.7" opacity="1.0" stroke="rgb(0,0,0)"  stroke-width="3"/>
<line x1="254.5" y1="476.7" x2="289.0" y2="496.6" opacity="1.0" stroke="rgb(0,0,0)"  stroke-width="3"/>
<line x1="263.3" y1="473.4" x2="287.4" y2="487.3" opacity="1.0" stroke="rgb(0,0,0)"  stroke-width="3"/>
<line x1="289.0" y1="496.6" x2="323.5" y2="476.7" opacity="1.0" stroke="rgb(0,0,0)"  stroke-width="3"/>
<line x1="323.5" y1="476.7" x2="323.5" y2="436.8" opacity="1.0" stroke="rgb(0,0,0)"  stroke-width="3"/>
<line x1="316.3" y1="470.7" x2="316.3" y2="442.8" opacity="1.0" stroke="rgb(0,0,0)"  stroke-width="3"/>
<line x1="323.5" y1="436.8" x2="289.0" y2="416.9" opacity="1.0" stroke="rgb(0,0,0)"  stroke-width="3"/>
<line x1="289.0" y1="416.9" x2="254.5" y2="436.8" opacity="1.0" stroke="rgb(0,0,0)"  stroke-width="3"/>
<line x1="287.4" y1="426.2" x2="263.3" y2="440.1" opacity="1.0" stroke="rgb(0,0,0)"  stroke-width="3"/>
<line x1="390.7" y1="74.5" x2="370.8" y2="40.0" opacity="1.0" stroke="rgb(0,0,0)"  stroke-width="3"/>
<line x1="370.8" y1="40.0" x2="331.0" y2="40.0" opacity="1.0" stroke="rgb(0,0,0)"  stroke-width="3"/>
<line x1="364.8" y1="47.2" x2="337.0" y2="47.2" opacity="1.0" stroke="rgb(0,0,0)"  stroke-width="3"/>
<line x1="331.0" y1="40.0" x2="311.1" y2="74.5" opacity="1.0" stroke="rgb(0,0,0)"  stroke-width="3"/>
<line x1="311.1" y1="74.5" x2="331.0" y2="109.0" opacity="1.0" stroke="rgb(0,0,0)"  stroke-width="3"/>
<line x1="320.3" y1="76.1" x2="334.2" y2="100.2" opacity="1.0" stroke="rgb(0,0,0)"  stroke-width="3"/>
<line x1="331.0" y1="109.0" x2="370.8" y2="109.0" opacity="1.0" stroke="rgb(0,0,0)"  stroke-width="3"/>
<line x1="370.8" y1="109.0" x2="390.7" y2="74.5" opacity="1.0" stroke="rgb(0,0,0)"  stroke-width="3"/>
<line x1="367.6" y1="100.2" x2="381.5" y2="76.1" opacity="1.0" stroke="rgb(0,0,0)"  stroke-width="3"/>
<text x="384.703321" y="151.433589" fill="rgb(12,12,255)" stroke-width="0" font-weight="bold" font-size="25.92" >N</text>
<text x="351.955791" y="305.498178" fill="rgb(12,12,255)" stroke-width="0" font-weight="bold" font-size="25.92" >N</text>
<text x="214.044339" y="305.498178" fill="rgb(12,12,255)" stroke-width="0" font-weight="bold" font-size="25.92" >N</text>
<text x="283.000065" y="265.686573" fill="rgb(255,181,181)" stroke-width="0" font-weight="bold" font-size="25.92" >B</text>
</svg>
</g>
</svg>
