<?xml version="1.0"?>
<svg version="1.1" id="topsvg"
xmlns="http://www.w3.org/2000/svg" xmlns:xlink="http://www.w3.org/1999/xlink"
xmlns:cml="http://www.xml-cml.org/schema" x="0" y="0" width="200px" height="200px" viewBox="0 0 100 100">
<title>GD52.sdf - Open Babel Depiction</title>
<rect x="0" y="0" width="100" height="100" fill="white"/>
<g transform="translate(0,0)">
<svg width="100" height="100" x="0" y="0" viewBox="0 0 545.556 496.189"
font-family="sans-serif" stroke="rgb(0,0,0)" stroke-width="3"  stroke-linecap="round">
<line x1="288.8" y1="416.6" x2="288.8" y2="443.2" opacity="1.0" stroke="rgb(0,0,0)"  stroke-width="3"/>
<line x1="293.0" y1="416.6" x2="293.0" y2="443.2" opacity="1.0" stroke="rgb(0,0,0)"  stroke-width="3"/>
<line x1="284.6" y1="416.6" x2="284.6" y2="443.2" opacity="1.0" stroke="rgb(0,0,0)"  stroke-width="3"/>
<line x1="288.8" y1="376.8" x2="288.8" y2="416.6" opacity="1.0" stroke="rgb(0,0,0)"  stroke-width="3"/>
<line x1="219.9" y1="177.9" x2="219.9" y2="138.2" opacity="1.0" stroke="rgb(0,0,0)"  stroke-width="3"/>
<line x1="102.9" y1="317.8" x2="63.4" y2="322.0" opacity="1.0" stroke="rgb(0,0,0)"  stroke-width="3"/>
<line x1="63.4" y1="322.0" x2="40.0" y2="289.8" opacity="1.0" stroke="rgb(0,0,0)"  stroke-width="3"/>
<line x1="47.2" y1="358.3" x2="63.4" y2="322.0" opacity="1.0" stroke="rgb(0,0,0)"  stroke-width="3"/>
<line x1="219.9" y1="138.2" x2="254.3" y2="118.3" opacity="1.0" stroke="rgb(0,0,0)"  stroke-width="3"/>
<line x1="185.4" y1="118.3" x2="219.9" y2="138.2" opacity="1.0" stroke="rgb(0,0,0)"  stroke-width="3"/>
<line x1="63.4" y1="322.0" x2="79.6" y2="285.7" opacity="1.0" stroke="rgb(0,0,0)"  stroke-width="3"/>
<line x1="219.9" y1="138.2" x2="219.9" y2="98.4" opacity="1.0" stroke="rgb(0,0,0)"  stroke-width="3"/>
<line x1="383.9" y1="132.1" x2="370.5" y2="108.9" opacity="1.0" stroke="rgb(0,0,0)"  stroke-width="3"/>
<line x1="158.7" y1="277.4" x2="182.0" y2="245.2" opacity="1.0" stroke="rgb(0,0,0)"  stroke-width="3"/>
<line x1="182.0" y1="245.2" x2="219.9" y2="257.5" opacity="1.0" stroke="rgb(0,0,0)"  stroke-width="3"/>
<line x1="219.9" y1="257.5" x2="219.9" y2="284.2" opacity="1.0" stroke="rgb(0,0,0)"  stroke-width="3"/>
<line x1="207.5" y1="301.3" x2="182.0" y2="309.5" opacity="1.0" stroke="rgb(0,0,0)"  stroke-width="3"/>
<line x1="182.0" y1="309.5" x2="158.7" y2="277.4" opacity="1.0" stroke="rgb(0,0,0)"  stroke-width="3"/>
<line x1="184.3" y1="300.4" x2="168.0" y2="278.0" opacity="1.0" stroke="rgb(0,0,0)"  stroke-width="3"/>
<line x1="418.8" y1="277.4" x2="395.5" y2="245.2" opacity="1.0" stroke="rgb(0,0,0)"  stroke-width="3"/>
<line x1="395.5" y1="245.2" x2="357.6" y2="257.5" opacity="1.0" stroke="rgb(0,0,0)"  stroke-width="3"/>
<line x1="392.0" y1="253.9" x2="365.6" y2="262.5" opacity="1.0" stroke="rgb(0,0,0)"  stroke-width="3"/>
<line x1="357.6" y1="257.5" x2="357.6" y2="284.2" opacity="1.0" stroke="rgb(0,0,0)"  stroke-width="3"/>
<line x1="370.0" y1="301.3" x2="395.5" y2="309.5" opacity="1.0" stroke="rgb(0,0,0)"  stroke-width="3"/>
<line x1="395.5" y1="309.5" x2="418.8" y2="277.4" opacity="1.0" stroke="rgb(0,0,0)"  stroke-width="3"/>
<line x1="393.2" y1="300.4" x2="409.5" y2="278.0" opacity="1.0" stroke="rgb(0,0,0)"  stroke-width="3"/>
<line x1="429.9" y1="147.5" x2="403.3" y2="144.7" opacity="1.0" stroke="rgb(0,0,0)"  stroke-width="3"/>
<line x1="385.1" y1="155.2" x2="374.2" y2="179.7" opacity="1.0" stroke="rgb(0,0,0)"  stroke-width="3"/>
<line x1="374.2" y1="179.7" x2="403.7" y2="206.3" opacity="1.0" stroke="rgb(0,0,0)"  stroke-width="3"/>
<line x1="383.5" y1="178.3" x2="404.1" y2="196.9" opacity="1.0" stroke="rgb(0,0,0)"  stroke-width="3"/>
<line x1="403.7" y1="206.3" x2="438.2" y2="186.4" opacity="1.0" stroke="rgb(0,0,0)"  stroke-width="3"/>
<line x1="438.2" y1="186.4" x2="429.9" y2="147.5" opacity="1.0" stroke="rgb(0,0,0)"  stroke-width="3"/>
<line x1="429.9" y1="182.0" x2="424.1" y2="154.9" opacity="1.0" stroke="rgb(0,0,0)"  stroke-width="3"/>
<line x1="254.3" y1="356.9" x2="288.8" y2="376.8" opacity="1.0" stroke="rgb(0,0,0)"  stroke-width="3"/>
<line x1="288.8" y1="376.8" x2="323.2" y2="356.9" opacity="1.0" stroke="rgb(0,0,0)"  stroke-width="3"/>
<line x1="290.3" y1="367.5" x2="314.4" y2="353.7" opacity="1.0" stroke="rgb(0,0,0)"  stroke-width="3"/>
<line x1="323.2" y1="356.9" x2="323.2" y2="317.1" opacity="1.0" stroke="rgb(0,0,0)"  stroke-width="3"/>
<line x1="323.2" y1="317.1" x2="288.8" y2="297.2" opacity="1.0" stroke="rgb(0,0,0)"  stroke-width="3"/>
<line x1="314.4" y1="320.4" x2="290.3" y2="306.5" opacity="1.0" stroke="rgb(0,0,0)"  stroke-width="3"/>
<line x1="288.8" y1="297.2" x2="254.3" y2="317.1" opacity="1.0" stroke="rgb(0,0,0)"  stroke-width="3"/>
<line x1="254.3" y1="317.1" x2="254.3" y2="356.9" opacity="1.0" stroke="rgb(0,0,0)"  stroke-width="3"/>
<line x1="261.5" y1="323.1" x2="261.5" y2="350.9" opacity="1.0" stroke="rgb(0,0,0)"  stroke-width="3"/>
<line x1="288.8" y1="270.5" x2="288.8" y2="297.2" opacity="1.0" stroke="rgb(0,0,0)"  stroke-width="3"/>
<line x1="254.3" y1="317.1" x2="231.1" y2="303.7" opacity="1.0" stroke="rgb(0,0,0)"  stroke-width="3"/>
<line x1="219.9" y1="257.5" x2="254.3" y2="237.6" opacity="1.0" stroke="rgb(0,0,0)"  stroke-width="3"/>
<line x1="228.7" y1="260.7" x2="252.7" y2="246.8" opacity="1.0" stroke="rgb(0,0,0)"  stroke-width="3"/>
<line x1="254.3" y1="237.6" x2="277.5" y2="251.0" opacity="1.0" stroke="rgb(0,0,0)"  stroke-width="3"/>
<line x1="357.6" y1="257.5" x2="323.2" y2="237.6" opacity="1.0" stroke="rgb(0,0,0)"  stroke-width="3"/>
<line x1="323.2" y1="237.6" x2="300.0" y2="251.0" opacity="1.0" stroke="rgb(0,0,0)"  stroke-width="3"/>
<line x1="323.2" y1="317.1" x2="346.4" y2="303.7" opacity="1.0" stroke="rgb(0,0,0)"  stroke-width="3"/>
<line x1="126.3" y1="350.0" x2="165.9" y2="345.9" opacity="1.0" stroke="rgb(0,0,0)"  stroke-width="3"/>
<line x1="131.5" y1="342.2" x2="159.1" y2="339.3" opacity="1.0" stroke="rgb(0,0,0)"  stroke-width="3"/>
<line x1="165.9" y1="345.9" x2="182.0" y2="309.5" opacity="1.0" stroke="rgb(0,0,0)"  stroke-width="3"/>
<line x1="158.7" y1="277.4" x2="119.1" y2="281.5" opacity="1.0" stroke="rgb(0,0,0)"  stroke-width="3"/>
<line x1="119.1" y1="281.5" x2="102.9" y2="317.8" opacity="1.0" stroke="rgb(0,0,0)"  stroke-width="3"/>
<line x1="123.2" y1="289.9" x2="111.9" y2="315.3" opacity="1.0" stroke="rgb(0,0,0)"  stroke-width="3"/>
<line x1="102.9" y1="317.8" x2="126.3" y2="350.0" opacity="1.0" stroke="rgb(0,0,0)"  stroke-width="3"/>
<line x1="474.6" y1="317.8" x2="458.4" y2="281.5" opacity="1.0" stroke="rgb(0,0,0)"  stroke-width="3"/>
<line x1="465.6" y1="315.3" x2="454.3" y2="289.9" opacity="1.0" stroke="rgb(0,0,0)"  stroke-width="3"/>
<line x1="458.4" y1="281.5" x2="418.8" y2="277.4" opacity="1.0" stroke="rgb(0,0,0)"  stroke-width="3"/>
<line x1="395.5" y1="309.5" x2="411.6" y2="345.9" opacity="1.0" stroke="rgb(0,0,0)"  stroke-width="3"/>
<line x1="411.6" y1="345.9" x2="451.2" y2="350.0" opacity="1.0" stroke="rgb(0,0,0)"  stroke-width="3"/>
<line x1="418.4" y1="339.3" x2="446.0" y2="342.2" opacity="1.0" stroke="rgb(0,0,0)"  stroke-width="3"/>
<line x1="451.2" y1="350.0" x2="474.6" y2="317.8" opacity="1.0" stroke="rgb(0,0,0)"  stroke-width="3"/>
<line x1="374.2" y1="179.7" x2="336.4" y2="192.0" opacity="1.0" stroke="rgb(0,0,0)"  stroke-width="3"/>
<line x1="336.4" y1="192.0" x2="323.2" y2="237.6" opacity="1.0" stroke="rgb(0,0,0)"  stroke-width="3"/>
<line x1="341.6" y1="199.7" x2="331.8" y2="233.8" opacity="1.0" stroke="rgb(0,0,0)"  stroke-width="3"/>
<line x1="395.5" y1="245.2" x2="403.7" y2="206.3" opacity="1.0" stroke="rgb(0,0,0)"  stroke-width="3"/>
<line x1="497.3" y1="133.2" x2="459.5" y2="120.9" opacity="1.0" stroke="rgb(0,0,0)"  stroke-width="3"/>
<line x1="489.4" y1="138.2" x2="462.9" y2="129.6" opacity="1.0" stroke="rgb(0,0,0)"  stroke-width="3"/>
<line x1="459.5" y1="120.9" x2="429.9" y2="147.5" opacity="1.0" stroke="rgb(0,0,0)"  stroke-width="3"/>
<line x1="438.2" y1="186.4" x2="476.0" y2="198.7" opacity="1.0" stroke="rgb(0,0,0)"  stroke-width="3"/>
<line x1="476.0" y1="198.7" x2="505.6" y2="172.1" opacity="1.0" stroke="rgb(0,0,0)"  stroke-width="3"/>
<line x1="475.6" y1="189.3" x2="496.3" y2="170.7" opacity="1.0" stroke="rgb(0,0,0)"  stroke-width="3"/>
<line x1="505.6" y1="172.1" x2="497.3" y2="133.2" opacity="1.0" stroke="rgb(0,0,0)"  stroke-width="3"/>
<line x1="182.0" y1="245.2" x2="185.4" y2="197.8" opacity="1.0" stroke="rgb(0,0,0)"  stroke-width="3"/>
<line x1="189.6" y1="239.7" x2="192.2" y2="204.3" opacity="1.0" stroke="rgb(0,0,0)"  stroke-width="3"/>
<line x1="185.4" y1="197.8" x2="219.9" y2="177.9" opacity="1.0" stroke="rgb(0,0,0)"  stroke-width="3"/>
<line x1="219.9" y1="177.9" x2="254.3" y2="197.8" opacity="1.0" stroke="rgb(0,0,0)"  stroke-width="3"/>
<line x1="221.5" y1="187.2" x2="245.5" y2="201.0" opacity="1.0" stroke="rgb(0,0,0)"  stroke-width="3"/>
<line x1="254.3" y1="197.8" x2="254.3" y2="237.6" opacity="1.0" stroke="rgb(0,0,0)"  stroke-width="3"/>
<line x1="390.4" y1="74.4" x2="370.5" y2="40.0" opacity="1.0" stroke="rgb(0,0,0)"  stroke-width="3"/>
<line x1="370.5" y1="40.0" x2="330.7" y2="40.0" opacity="1.0" stroke="rgb(0,0,0)"  stroke-width="3"/>
<line x1="364.5" y1="47.2" x2="336.7" y2="47.2" opacity="1.0" stroke="rgb(0,0,0)"  stroke-width="3"/>
<line x1="330.7" y1="40.0" x2="310.8" y2="74.4" opacity="1.0" stroke="rgb(0,0,0)"  stroke-width="3"/>
<line x1="310.8" y1="74.4" x2="330.7" y2="108.9" opacity="1.0" stroke="rgb(0,0,0)"  stroke-width="3"/>
<line x1="320.0" y1="76.0" x2="333.9" y2="100.1" opacity="1.0" stroke="rgb(0,0,0)"  stroke-width="3"/>
<line x1="330.7" y1="108.9" x2="370.5" y2="108.9" opacity="1.0" stroke="rgb(0,0,0)"  stroke-width="3"/>
<line x1="370.5" y1="108.9" x2="390.4" y2="74.4" opacity="1.0" stroke="rgb(0,0,0)"  stroke-width="3"/>
<line x1="367.2" y1="100.1" x2="381.1" y2="76.0" opacity="1.0" stroke="rgb(0,0,0)"  stroke-width="3"/>
<text x="384.351904" y="151.329959" fill="rgb(12,12,255)" stroke-width="0" font-weight="bold" font-size="25.92" >N</text>
<text x="282.750544" y="464.188993" fill="rgb(12,12,255)" stroke-width="0" font-weight="bold" font-size="25.92" >N</text>
<text x="282.750592" y="265.468473" fill="rgb(255,181,181)" stroke-width="0" font-weight="bold" font-size="25.92" >B</text>
<text x="213.863905" y="305.240191" fill="rgb(12,12,255)" stroke-width="0" font-weight="bold" font-size="25.92" >N</text>
<text x="351.637232" y="305.240191" fill="rgb(12,12,255)" stroke-width="0" font-weight="bold" font-size="25.92" >N</text>
</svg>
</g>
</svg>
