<?xml version="1.0"?>
<svg version="1.1" id="topsvg"
xmlns="http://www.w3.org/2000/svg" xmlns:xlink="http://www.w3.org/1999/xlink"
xmlns:cml="http://www.xml-cml.org/schema" x="0" y="0" width="200px" height="200px" viewBox="0 0 100 100">
<title>GD54.sdf - Open Babel Depiction</title>
<rect x="0" y="0" width="100" height="100" fill="white"/>
<g transform="translate(0,0)">
<svg width="100" height="100" x="0" y="0" viewBox="0 0 545.808 556.173"
font-family="sans-serif" stroke="rgb(0,0,0)" stroke-width="3"  stroke-linecap="round">
<line x1="357.8" y1="496.3" x2="380.9" y2="509.7" opacity="1.0" stroke="rgb(0,0,0)"  stroke-width="3"/>
<line x1="359.9" y1="492.7" x2="383.0" y2="506.0" opacity="1.0" stroke="rgb(0,0,0)"  stroke-width="3"/>
<line x1="355.7" y1="500.0" x2="378.8" y2="513.3" opacity="1.0" stroke="rgb(0,0,0)"  stroke-width="3"/>
<line x1="323.3" y1="476.4" x2="357.8" y2="496.3" opacity="1.0" stroke="rgb(0,0,0)"  stroke-width="3"/>
<line x1="288.9" y1="377.0" x2="288.9" y2="416.8" opacity="1.0" stroke="rgb(0,0,0)"  stroke-width="3"/>
<line x1="220.0" y1="178.0" x2="220.0" y2="138.2" opacity="1.0" stroke="rgb(0,0,0)"  stroke-width="3"/>
<line x1="103.0" y1="318.0" x2="63.4" y2="322.2" opacity="1.0" stroke="rgb(0,0,0)"  stroke-width="3"/>
<line x1="63.4" y1="322.2" x2="40.0" y2="290.0" opacity="1.0" stroke="rgb(0,0,0)"  stroke-width="3"/>
<line x1="47.2" y1="358.5" x2="63.4" y2="322.2" opacity="1.0" stroke="rgb(0,0,0)"  stroke-width="3"/>
<line x1="220.0" y1="138.2" x2="254.4" y2="118.3" opacity="1.0" stroke="rgb(0,0,0)"  stroke-width="3"/>
<line x1="185.5" y1="118.3" x2="220.0" y2="138.2" opacity="1.0" stroke="rgb(0,0,0)"  stroke-width="3"/>
<line x1="63.4" y1="322.2" x2="79.6" y2="285.8" opacity="1.0" stroke="rgb(0,0,0)"  stroke-width="3"/>
<line x1="220.0" y1="138.2" x2="220.0" y2="98.4" opacity="1.0" stroke="rgb(0,0,0)"  stroke-width="3"/>
<line x1="384.0" y1="132.1" x2="370.6" y2="108.9" opacity="1.0" stroke="rgb(0,0,0)"  stroke-width="3"/>
<line x1="158.7" y1="277.5" x2="182.1" y2="245.3" opacity="1.0" stroke="rgb(0,0,0)"  stroke-width="3"/>
<line x1="182.1" y1="245.3" x2="220.0" y2="257.6" opacity="1.0" stroke="rgb(0,0,0)"  stroke-width="3"/>
<line x1="220.0" y1="257.6" x2="220.0" y2="284.4" opacity="1.0" stroke="rgb(0,0,0)"  stroke-width="3"/>
<line x1="207.6" y1="301.4" x2="182.1" y2="309.7" opacity="1.0" stroke="rgb(0,0,0)"  stroke-width="3"/>
<line x1="182.1" y1="309.7" x2="158.7" y2="277.5" opacity="1.0" stroke="rgb(0,0,0)"  stroke-width="3"/>
<line x1="184.4" y1="300.6" x2="168.1" y2="278.1" opacity="1.0" stroke="rgb(0,0,0)"  stroke-width="3"/>
<line x1="419.0" y1="277.5" x2="395.7" y2="245.3" opacity="1.0" stroke="rgb(0,0,0)"  stroke-width="3"/>
<line x1="395.7" y1="245.3" x2="357.8" y2="257.6" opacity="1.0" stroke="rgb(0,0,0)"  stroke-width="3"/>
<line x1="392.2" y1="254.0" x2="365.7" y2="262.6" opacity="1.0" stroke="rgb(0,0,0)"  stroke-width="3"/>
<line x1="357.8" y1="257.6" x2="357.8" y2="284.4" opacity="1.0" stroke="rgb(0,0,0)"  stroke-width="3"/>
<line x1="370.2" y1="301.4" x2="395.7" y2="309.7" opacity="1.0" stroke="rgb(0,0,0)"  stroke-width="3"/>
<line x1="395.7" y1="309.7" x2="419.0" y2="277.5" opacity="1.0" stroke="rgb(0,0,0)"  stroke-width="3"/>
<line x1="393.4" y1="300.6" x2="409.7" y2="278.1" opacity="1.0" stroke="rgb(0,0,0)"  stroke-width="3"/>
<line x1="430.1" y1="147.5" x2="403.5" y2="144.7" opacity="1.0" stroke="rgb(0,0,0)"  stroke-width="3"/>
<line x1="385.3" y1="155.3" x2="374.4" y2="179.7" opacity="1.0" stroke="rgb(0,0,0)"  stroke-width="3"/>
<line x1="374.4" y1="179.7" x2="403.9" y2="206.4" opacity="1.0" stroke="rgb(0,0,0)"  stroke-width="3"/>
<line x1="383.6" y1="178.4" x2="404.3" y2="197.0" opacity="1.0" stroke="rgb(0,0,0)"  stroke-width="3"/>
<line x1="403.9" y1="206.4" x2="438.4" y2="186.5" opacity="1.0" stroke="rgb(0,0,0)"  stroke-width="3"/>
<line x1="438.4" y1="186.5" x2="430.1" y2="147.5" opacity="1.0" stroke="rgb(0,0,0)"  stroke-width="3"/>
<line x1="430.1" y1="182.1" x2="424.3" y2="154.9" opacity="1.0" stroke="rgb(0,0,0)"  stroke-width="3"/>
<line x1="254.4" y1="357.1" x2="288.9" y2="377.0" opacity="1.0" stroke="rgb(0,0,0)"  stroke-width="3"/>
<line x1="288.9" y1="377.0" x2="323.3" y2="357.1" opacity="1.0" stroke="rgb(0,0,0)"  stroke-width="3"/>
<line x1="290.5" y1="367.7" x2="314.6" y2="353.8" opacity="1.0" stroke="rgb(0,0,0)"  stroke-width="3"/>
<line x1="323.3" y1="357.1" x2="323.3" y2="317.3" opacity="1.0" stroke="rgb(0,0,0)"  stroke-width="3"/>
<line x1="323.3" y1="317.3" x2="288.9" y2="297.4" opacity="1.0" stroke="rgb(0,0,0)"  stroke-width="3"/>
<line x1="314.6" y1="320.5" x2="290.5" y2="306.6" opacity="1.0" stroke="rgb(0,0,0)"  stroke-width="3"/>
<line x1="288.9" y1="297.4" x2="254.4" y2="317.3" opacity="1.0" stroke="rgb(0,0,0)"  stroke-width="3"/>
<line x1="254.4" y1="317.3" x2="254.4" y2="357.1" opacity="1.0" stroke="rgb(0,0,0)"  stroke-width="3"/>
<line x1="261.6" y1="323.3" x2="261.6" y2="351.1" opacity="1.0" stroke="rgb(0,0,0)"  stroke-width="3"/>
<line x1="288.9" y1="270.6" x2="288.9" y2="297.4" opacity="1.0" stroke="rgb(0,0,0)"  stroke-width="3"/>
<line x1="254.4" y1="317.3" x2="231.2" y2="303.9" opacity="1.0" stroke="rgb(0,0,0)"  stroke-width="3"/>
<line x1="220.0" y1="257.6" x2="254.4" y2="237.7" opacity="1.0" stroke="rgb(0,0,0)"  stroke-width="3"/>
<line x1="228.8" y1="260.8" x2="252.8" y2="246.9" opacity="1.0" stroke="rgb(0,0,0)"  stroke-width="3"/>
<line x1="254.4" y1="237.7" x2="277.6" y2="251.1" opacity="1.0" stroke="rgb(0,0,0)"  stroke-width="3"/>
<line x1="357.8" y1="257.6" x2="323.3" y2="237.7" opacity="1.0" stroke="rgb(0,0,0)"  stroke-width="3"/>
<line x1="323.3" y1="237.7" x2="300.1" y2="251.1" opacity="1.0" stroke="rgb(0,0,0)"  stroke-width="3"/>
<line x1="323.3" y1="317.3" x2="346.6" y2="303.9" opacity="1.0" stroke="rgb(0,0,0)"  stroke-width="3"/>
<line x1="126.4" y1="350.2" x2="165.9" y2="346.0" opacity="1.0" stroke="rgb(0,0,0)"  stroke-width="3"/>
<line x1="131.6" y1="342.4" x2="159.2" y2="339.5" opacity="1.0" stroke="rgb(0,0,0)"  stroke-width="3"/>
<line x1="165.9" y1="346.0" x2="182.1" y2="309.7" opacity="1.0" stroke="rgb(0,0,0)"  stroke-width="3"/>
<line x1="158.7" y1="277.5" x2="119.2" y2="281.6" opacity="1.0" stroke="rgb(0,0,0)"  stroke-width="3"/>
<line x1="119.2" y1="281.6" x2="103.0" y2="318.0" opacity="1.0" stroke="rgb(0,0,0)"  stroke-width="3"/>
<line x1="123.3" y1="290.1" x2="112.0" y2="315.4" opacity="1.0" stroke="rgb(0,0,0)"  stroke-width="3"/>
<line x1="103.0" y1="318.0" x2="126.4" y2="350.2" opacity="1.0" stroke="rgb(0,0,0)"  stroke-width="3"/>
<line x1="474.8" y1="318.0" x2="458.6" y2="281.6" opacity="1.0" stroke="rgb(0,0,0)"  stroke-width="3"/>
<line x1="465.8" y1="315.4" x2="454.5" y2="290.1" opacity="1.0" stroke="rgb(0,0,0)"  stroke-width="3"/>
<line x1="458.6" y1="281.6" x2="419.0" y2="277.5" opacity="1.0" stroke="rgb(0,0,0)"  stroke-width="3"/>
<line x1="395.7" y1="309.7" x2="411.8" y2="346.0" opacity="1.0" stroke="rgb(0,0,0)"  stroke-width="3"/>
<line x1="411.8" y1="346.0" x2="451.4" y2="350.2" opacity="1.0" stroke="rgb(0,0,0)"  stroke-width="3"/>
<line x1="418.6" y1="339.5" x2="446.2" y2="342.4" opacity="1.0" stroke="rgb(0,0,0)"  stroke-width="3"/>
<line x1="451.4" y1="350.2" x2="474.8" y2="318.0" opacity="1.0" stroke="rgb(0,0,0)"  stroke-width="3"/>
<line x1="374.4" y1="179.7" x2="336.5" y2="192.0" opacity="1.0" stroke="rgb(0,0,0)"  stroke-width="3"/>
<line x1="336.5" y1="192.0" x2="323.3" y2="237.7" opacity="1.0" stroke="rgb(0,0,0)"  stroke-width="3"/>
<line x1="341.8" y1="199.8" x2="331.9" y2="233.9" opacity="1.0" stroke="rgb(0,0,0)"  stroke-width="3"/>
<line x1="395.7" y1="245.3" x2="403.9" y2="206.4" opacity="1.0" stroke="rgb(0,0,0)"  stroke-width="3"/>
<line x1="497.5" y1="133.2" x2="459.7" y2="120.9" opacity="1.0" stroke="rgb(0,0,0)"  stroke-width="3"/>
<line x1="489.6" y1="138.2" x2="463.2" y2="129.6" opacity="1.0" stroke="rgb(0,0,0)"  stroke-width="3"/>
<line x1="459.7" y1="120.9" x2="430.1" y2="147.5" opacity="1.0" stroke="rgb(0,0,0)"  stroke-width="3"/>
<line x1="438.4" y1="186.5" x2="476.2" y2="198.8" opacity="1.0" stroke="rgb(0,0,0)"  stroke-width="3"/>
<line x1="476.2" y1="198.8" x2="505.8" y2="172.1" opacity="1.0" stroke="rgb(0,0,0)"  stroke-width="3"/>
<line x1="475.9" y1="189.4" x2="496.5" y2="170.8" opacity="1.0" stroke="rgb(0,0,0)"  stroke-width="3"/>
<line x1="505.8" y1="172.1" x2="497.5" y2="133.2" opacity="1.0" stroke="rgb(0,0,0)"  stroke-width="3"/>
<line x1="182.1" y1="245.3" x2="185.5" y2="197.9" opacity="1.0" stroke="rgb(0,0,0)"  stroke-width="3"/>
<line x1="189.7" y1="239.8" x2="192.3" y2="204.4" opacity="1.0" stroke="rgb(0,0,0)"  stroke-width="3"/>
<line x1="185.5" y1="197.9" x2="220.0" y2="178.0" opacity="1.0" stroke="rgb(0,0,0)"  stroke-width="3"/>
<line x1="220.0" y1="178.0" x2="254.4" y2="197.9" opacity="1.0" stroke="rgb(0,0,0)"  stroke-width="3"/>
<line x1="221.6" y1="187.2" x2="245.6" y2="201.1" opacity="1.0" stroke="rgb(0,0,0)"  stroke-width="3"/>
<line x1="254.4" y1="197.9" x2="254.4" y2="237.7" opacity="1.0" stroke="rgb(0,0,0)"  stroke-width="3"/>
<line x1="390.5" y1="74.5" x2="370.6" y2="40.0" opacity="1.0" stroke="rgb(0,0,0)"  stroke-width="3"/>
<line x1="370.6" y1="40.0" x2="330.9" y2="40.0" opacity="1.0" stroke="rgb(0,0,0)"  stroke-width="3"/>
<line x1="364.6" y1="47.2" x2="336.9" y2="47.2" opacity="1.0" stroke="rgb(0,0,0)"  stroke-width="3"/>
<line x1="330.9" y1="40.0" x2="311.0" y2="74.5" opacity="1.0" stroke="rgb(0,0,0)"  stroke-width="3"/>
<line x1="311.0" y1="74.5" x2="330.9" y2="108.9" opacity="1.0" stroke="rgb(0,0,0)"  stroke-width="3"/>
<line x1="320.2" y1="76.1" x2="334.1" y2="100.1" opacity="1.0" stroke="rgb(0,0,0)"  stroke-width="3"/>
<line x1="330.9" y1="108.9" x2="370.6" y2="108.9" opacity="1.0" stroke="rgb(0,0,0)"  stroke-width="3"/>
<line x1="370.6" y1="108.9" x2="390.5" y2="74.5" opacity="1.0" stroke="rgb(0,0,0)"  stroke-width="3"/>
<line x1="367.4" y1="100.1" x2="381.3" y2="76.1" opacity="1.0" stroke="rgb(0,0,0)"  stroke-width="3"/>
<line x1="254.4" y1="436.7" x2="254.4" y2="476.4" opacity="1.0" stroke="rgb(0,0,0)"  stroke-width="3"/>
<line x1="254.4" y1="476.4" x2="288.9" y2="496.3" opacity="1.0" stroke="rgb(0,0,0)"  stroke-width="3"/>
<line x1="263.2" y1="473.2" x2="287.3" y2="487.1" opacity="1.0" stroke="rgb(0,0,0)"  stroke-width="3"/>
<line x1="288.9" y1="496.3" x2="323.3" y2="476.4" opacity="1.0" stroke="rgb(0,0,0)"  stroke-width="3"/>
<line x1="323.3" y1="476.4" x2="323.3" y2="436.7" opacity="1.0" stroke="rgb(0,0,0)"  stroke-width="3"/>
<line x1="316.1" y1="470.4" x2="316.1" y2="442.7" opacity="1.0" stroke="rgb(0,0,0)"  stroke-width="3"/>
<line x1="323.3" y1="436.7" x2="288.9" y2="416.8" opacity="1.0" stroke="rgb(0,0,0)"  stroke-width="3"/>
<line x1="288.9" y1="416.8" x2="254.4" y2="436.7" opacity="1.0" stroke="rgb(0,0,0)"  stroke-width="3"/>
<line x1="287.3" y1="426.0" x2="263.2" y2="439.9" opacity="1.0" stroke="rgb(0,0,0)"  stroke-width="3"/>
<text x="384.541171" y="151.385732" fill="rgb(12,12,255)" stroke-width="0" font-weight="bold" font-size="25.92" >N</text>
<text x="386.151035" y="524.172606" fill="rgb(12,12,255)" stroke-width="0" font-weight="bold" font-size="25.92" >N</text>
<text x="282.884972" y="265.585906" fill="rgb(255,181,181)" stroke-width="0" font-weight="bold" font-size="25.92" >B</text>
<text x="213.961071" y="305.379109" fill="rgb(12,12,255)" stroke-width="0" font-weight="bold" font-size="25.92" >N</text>
<text x="351.808826" y="305.379109" fill="rgb(12,12,255)" stroke-width="0" font-weight="bold" font-size="25.92" >N</text>
</svg>
</g>
</svg>
