<?xml version="1.0"?>
<svg version="1.1" id="topsvg"
xmlns="http://www.w3.org/2000/svg" xmlns:xlink="http://www.w3.org/1999/xlink"
xmlns:cml="http://www.xml-cml.org/schema" x="0" y="0" width="200px" height="200px" viewBox="0 0 100 100">
<title>GD55.sdf - Open Babel Depiction</title>
<rect x="0" y="0" width="100" height="100" fill="white"/>
<g transform="translate(0,0)">
<svg width="100" height="100" x="0" y="0" viewBox="0 0 606.702 535.681"
font-family="sans-serif" stroke="rgb(0,0,0)" stroke-width="3"  stroke-linecap="round">
<line x1="450.3" y1="136.7" x2="439.5" y2="112.4" opacity="1.0" stroke="rgb(0,0,0)"  stroke-width="3"/>
<line x1="241.3" y1="182.9" x2="229.1" y2="145.2" opacity="1.0" stroke="rgb(0,0,0)"  stroke-width="3"/>
<line x1="156.2" y1="330.2" x2="117.5" y2="338.4" opacity="1.0" stroke="rgb(0,0,0)"  stroke-width="3"/>
<line x1="338.5" y1="376.8" x2="338.5" y2="416.5" opacity="1.0" stroke="rgb(0,0,0)"  stroke-width="3"/>
<line x1="207.2" y1="284.3" x2="227.0" y2="250.0" opacity="1.0" stroke="rgb(0,0,0)"  stroke-width="3"/>
<line x1="227.0" y1="250.0" x2="265.8" y2="258.2" opacity="1.0" stroke="rgb(0,0,0)"  stroke-width="3"/>
<line x1="231.4" y1="258.3" x2="258.4" y2="264.0" opacity="1.0" stroke="rgb(0,0,0)"  stroke-width="3"/>
<line x1="265.8" y1="258.2" x2="268.6" y2="284.7" opacity="1.0" stroke="rgb(0,0,0)"  stroke-width="3"/>
<line x1="258.0" y1="302.9" x2="233.7" y2="313.7" opacity="1.0" stroke="rgb(0,0,0)"  stroke-width="3"/>
<line x1="233.7" y1="313.7" x2="207.2" y2="284.3" opacity="1.0" stroke="rgb(0,0,0)"  stroke-width="3"/>
<line x1="235.1" y1="304.5" x2="216.6" y2="283.9" opacity="1.0" stroke="rgb(0,0,0)"  stroke-width="3"/>
<line x1="443.3" y1="313.7" x2="469.8" y2="284.3" opacity="1.0" stroke="rgb(0,0,0)"  stroke-width="3"/>
<line x1="442.0" y1="304.5" x2="460.5" y2="283.9" opacity="1.0" stroke="rgb(0,0,0)"  stroke-width="3"/>
<line x1="469.8" y1="284.3" x2="450.0" y2="250.0" opacity="1.0" stroke="rgb(0,0,0)"  stroke-width="3"/>
<line x1="450.0" y1="250.0" x2="411.3" y2="258.2" opacity="1.0" stroke="rgb(0,0,0)"  stroke-width="3"/>
<line x1="445.7" y1="258.3" x2="418.7" y2="264.0" opacity="1.0" stroke="rgb(0,0,0)"  stroke-width="3"/>
<line x1="411.3" y1="258.2" x2="408.5" y2="284.7" opacity="1.0" stroke="rgb(0,0,0)"  stroke-width="3"/>
<line x1="419.0" y1="302.9" x2="443.3" y2="313.7" opacity="1.0" stroke="rgb(0,0,0)"  stroke-width="3"/>
<line x1="494.3" y1="156.8" x2="468.3" y2="151.3" opacity="1.0" stroke="rgb(0,0,0)"  stroke-width="3"/>
<line x1="449.1" y1="159.8" x2="435.8" y2="182.9" opacity="1.0" stroke="rgb(0,0,0)"  stroke-width="3"/>
<line x1="435.8" y1="182.9" x2="462.3" y2="212.3" opacity="1.0" stroke="rgb(0,0,0)"  stroke-width="3"/>
<line x1="445.1" y1="182.5" x2="463.6" y2="203.0" opacity="1.0" stroke="rgb(0,0,0)"  stroke-width="3"/>
<line x1="462.3" y1="212.3" x2="498.5" y2="196.2" opacity="1.0" stroke="rgb(0,0,0)"  stroke-width="3"/>
<line x1="498.5" y1="196.2" x2="494.3" y2="156.8" opacity="1.0" stroke="rgb(0,0,0)"  stroke-width="3"/>
<line x1="490.7" y1="191.0" x2="487.8" y2="163.5" opacity="1.0" stroke="rgb(0,0,0)"  stroke-width="3"/>
<line x1="304.2" y1="357.0" x2="338.5" y2="376.8" opacity="1.0" stroke="rgb(0,0,0)"  stroke-width="3"/>
<line x1="338.5" y1="376.8" x2="372.8" y2="357.0" opacity="1.0" stroke="rgb(0,0,0)"  stroke-width="3"/>
<line x1="340.1" y1="367.6" x2="364.0" y2="353.8" opacity="1.0" stroke="rgb(0,0,0)"  stroke-width="3"/>
<line x1="372.8" y1="357.0" x2="372.8" y2="317.4" opacity="1.0" stroke="rgb(0,0,0)"  stroke-width="3"/>
<line x1="372.8" y1="317.4" x2="338.5" y2="297.6" opacity="1.0" stroke="rgb(0,0,0)"  stroke-width="3"/>
<line x1="364.0" y1="320.7" x2="340.1" y2="306.9" opacity="1.0" stroke="rgb(0,0,0)"  stroke-width="3"/>
<line x1="338.5" y1="297.6" x2="304.2" y2="317.4" opacity="1.0" stroke="rgb(0,0,0)"  stroke-width="3"/>
<line x1="304.2" y1="317.4" x2="304.2" y2="357.0" opacity="1.0" stroke="rgb(0,0,0)"  stroke-width="3"/>
<line x1="311.4" y1="323.4" x2="311.4" y2="351.0" opacity="1.0" stroke="rgb(0,0,0)"  stroke-width="3"/>
<line x1="338.5" y1="271.0" x2="338.5" y2="297.6" opacity="1.0" stroke="rgb(0,0,0)"  stroke-width="3"/>
<line x1="304.2" y1="317.4" x2="281.2" y2="304.1" opacity="1.0" stroke="rgb(0,0,0)"  stroke-width="3"/>
<line x1="265.8" y1="258.2" x2="292.3" y2="228.8" opacity="1.0" stroke="rgb(0,0,0)"  stroke-width="3"/>
<line x1="292.3" y1="228.8" x2="327.5" y2="251.1" opacity="1.0" stroke="rgb(0,0,0)"  stroke-width="3"/>
<line x1="372.8" y1="317.4" x2="395.9" y2="304.1" opacity="1.0" stroke="rgb(0,0,0)"  stroke-width="3"/>
<line x1="411.3" y1="258.2" x2="384.8" y2="228.8" opacity="1.0" stroke="rgb(0,0,0)"  stroke-width="3"/>
<line x1="384.8" y1="228.8" x2="349.5" y2="251.1" opacity="1.0" stroke="rgb(0,0,0)"  stroke-width="3"/>
<line x1="435.8" y1="182.9" x2="397.0" y2="191.1" opacity="1.0" stroke="rgb(0,0,0)"  stroke-width="3"/>
<line x1="397.0" y1="191.1" x2="384.8" y2="228.8" opacity="1.0" stroke="rgb(0,0,0)"  stroke-width="3"/>
<line x1="402.0" y1="199.0" x2="393.5" y2="225.3" opacity="1.0" stroke="rgb(0,0,0)"  stroke-width="3"/>
<line x1="450.0" y1="250.0" x2="462.3" y2="212.3" opacity="1.0" stroke="rgb(0,0,0)"  stroke-width="3"/>
<line x1="520.8" y1="330.2" x2="508.6" y2="292.5" opacity="1.0" stroke="rgb(0,0,0)"  stroke-width="3"/>
<line x1="512.1" y1="326.7" x2="503.6" y2="300.5" opacity="1.0" stroke="rgb(0,0,0)"  stroke-width="3"/>
<line x1="508.6" y1="292.5" x2="469.8" y2="284.3" opacity="1.0" stroke="rgb(0,0,0)"  stroke-width="3"/>
<line x1="443.3" y1="313.7" x2="455.6" y2="351.4" opacity="1.0" stroke="rgb(0,0,0)"  stroke-width="3"/>
<line x1="455.6" y1="351.4" x2="494.3" y2="359.6" opacity="1.0" stroke="rgb(0,0,0)"  stroke-width="3"/>
<line x1="462.9" y1="345.6" x2="490.0" y2="351.3" opacity="1.0" stroke="rgb(0,0,0)"  stroke-width="3"/>
<line x1="494.3" y1="359.6" x2="520.8" y2="330.2" opacity="1.0" stroke="rgb(0,0,0)"  stroke-width="3"/>
<line x1="562.6" y1="149.6" x2="526.4" y2="133.5" opacity="1.0" stroke="rgb(0,0,0)"  stroke-width="3"/>
<line x1="554.2" y1="153.8" x2="528.9" y2="142.5" opacity="1.0" stroke="rgb(0,0,0)"  stroke-width="3"/>
<line x1="526.4" y1="133.5" x2="494.3" y2="156.8" opacity="1.0" stroke="rgb(0,0,0)"  stroke-width="3"/>
<line x1="498.5" y1="196.2" x2="534.7" y2="212.3" opacity="1.0" stroke="rgb(0,0,0)"  stroke-width="3"/>
<line x1="534.7" y1="212.3" x2="566.7" y2="189.0" opacity="1.0" stroke="rgb(0,0,0)"  stroke-width="3"/>
<line x1="535.3" y1="203.0" x2="557.6" y2="186.7" opacity="1.0" stroke="rgb(0,0,0)"  stroke-width="3"/>
<line x1="566.7" y1="189.0" x2="562.6" y2="149.6" opacity="1.0" stroke="rgb(0,0,0)"  stroke-width="3"/>
<line x1="182.7" y1="359.6" x2="156.2" y2="330.2" opacity="1.0" stroke="rgb(0,0,0)"  stroke-width="3"/>
<line x1="156.2" y1="330.2" x2="168.5" y2="292.5" opacity="1.0" stroke="rgb(0,0,0)"  stroke-width="3"/>
<line x1="164.9" y1="326.7" x2="173.5" y2="300.5" opacity="1.0" stroke="rgb(0,0,0)"  stroke-width="3"/>
<line x1="168.5" y1="292.5" x2="207.2" y2="284.3" opacity="1.0" stroke="rgb(0,0,0)"  stroke-width="3"/>
<line x1="233.7" y1="313.7" x2="221.5" y2="351.4" opacity="1.0" stroke="rgb(0,0,0)"  stroke-width="3"/>
<line x1="221.5" y1="351.4" x2="182.7" y2="359.6" opacity="1.0" stroke="rgb(0,0,0)"  stroke-width="3"/>
<line x1="214.1" y1="345.6" x2="187.1" y2="351.3" opacity="1.0" stroke="rgb(0,0,0)"  stroke-width="3"/>
<line x1="227.0" y1="250.0" x2="214.8" y2="212.3" opacity="1.0" stroke="rgb(0,0,0)"  stroke-width="3"/>
<line x1="214.8" y1="212.3" x2="241.3" y2="182.9" opacity="1.0" stroke="rgb(0,0,0)"  stroke-width="3"/>
<line x1="224.2" y1="212.7" x2="242.6" y2="192.1" opacity="1.0" stroke="rgb(0,0,0)"  stroke-width="3"/>
<line x1="241.3" y1="182.9" x2="280.0" y2="191.1" opacity="1.0" stroke="rgb(0,0,0)"  stroke-width="3"/>
<line x1="280.0" y1="191.1" x2="292.3" y2="228.8" opacity="1.0" stroke="rgb(0,0,0)"  stroke-width="3"/>
<line x1="275.1" y1="199.0" x2="283.6" y2="225.3" opacity="1.0" stroke="rgb(0,0,0)"  stroke-width="3"/>
<line x1="462.8" y1="80.3" x2="446.6" y2="44.1" opacity="1.0" stroke="rgb(0,0,0)"  stroke-width="3"/>
<line x1="446.6" y1="44.1" x2="407.2" y2="40.0" opacity="1.0" stroke="rgb(0,0,0)"  stroke-width="3"/>
<line x1="439.9" y1="50.7" x2="412.5" y2="47.8" opacity="1.0" stroke="rgb(0,0,0)"  stroke-width="3"/>
<line x1="407.2" y1="40.0" x2="384.0" y2="72.0" opacity="1.0" stroke="rgb(0,0,0)"  stroke-width="3"/>
<line x1="384.0" y1="72.0" x2="400.1" y2="108.2" opacity="1.0" stroke="rgb(0,0,0)"  stroke-width="3"/>
<line x1="393.0" y1="74.6" x2="404.2" y2="99.8" opacity="1.0" stroke="rgb(0,0,0)"  stroke-width="3"/>
<line x1="400.1" y1="108.2" x2="439.5" y2="112.4" opacity="1.0" stroke="rgb(0,0,0)"  stroke-width="3"/>
<line x1="439.5" y1="112.4" x2="462.8" y2="80.3" opacity="1.0" stroke="rgb(0,0,0)"  stroke-width="3"/>
<line x1="437.2" y1="103.3" x2="453.4" y2="81.0" opacity="1.0" stroke="rgb(0,0,0)"  stroke-width="3"/>
<line x1="304.2" y1="436.3" x2="304.2" y2="475.9" opacity="1.0" stroke="rgb(0,0,0)"  stroke-width="3"/>
<line x1="304.2" y1="475.9" x2="338.5" y2="495.7" opacity="1.0" stroke="rgb(0,0,0)"  stroke-width="3"/>
<line x1="313.0" y1="472.6" x2="336.9" y2="486.4" opacity="1.0" stroke="rgb(0,0,0)"  stroke-width="3"/>
<line x1="338.5" y1="495.7" x2="372.8" y2="475.9" opacity="1.0" stroke="rgb(0,0,0)"  stroke-width="3"/>
<line x1="372.8" y1="475.9" x2="372.8" y2="436.3" opacity="1.0" stroke="rgb(0,0,0)"  stroke-width="3"/>
<line x1="365.6" y1="469.9" x2="365.6" y2="442.3" opacity="1.0" stroke="rgb(0,0,0)"  stroke-width="3"/>
<line x1="372.8" y1="436.3" x2="338.5" y2="416.5" opacity="1.0" stroke="rgb(0,0,0)"  stroke-width="3"/>
<line x1="338.5" y1="416.5" x2="304.2" y2="436.3" opacity="1.0" stroke="rgb(0,0,0)"  stroke-width="3"/>
<line x1="336.9" y1="425.7" x2="313.0" y2="439.5" opacity="1.0" stroke="rgb(0,0,0)"  stroke-width="3"/>
<line x1="91.0" y1="309.0" x2="52.2" y2="317.2" opacity="1.0" stroke="rgb(0,0,0)"  stroke-width="3"/>
<line x1="52.2" y1="317.2" x2="40.0" y2="354.9" opacity="1.0" stroke="rgb(0,0,0)"  stroke-width="3"/>
<line x1="57.2" y1="325.2" x2="48.7" y2="351.4" opacity="1.0" stroke="rgb(0,0,0)"  stroke-width="3"/>
<line x1="40.0" y1="354.9" x2="66.5" y2="384.3" opacity="1.0" stroke="rgb(0,0,0)"  stroke-width="3"/>
<line x1="66.5" y1="384.3" x2="105.3" y2="376.1" opacity="1.0" stroke="rgb(0,0,0)"  stroke-width="3"/>
<line x1="70.9" y1="376.1" x2="97.9" y2="370.3" opacity="1.0" stroke="rgb(0,0,0)"  stroke-width="3"/>
<line x1="105.3" y1="376.1" x2="117.5" y2="338.4" opacity="1.0" stroke="rgb(0,0,0)"  stroke-width="3"/>
<line x1="117.5" y1="338.4" x2="91.0" y2="309.0" opacity="1.0" stroke="rgb(0,0,0)"  stroke-width="3"/>
<line x1="108.1" y1="338.8" x2="89.7" y2="318.3" opacity="1.0" stroke="rgb(0,0,0)"  stroke-width="3"/>
<line x1="255.6" y1="115.8" x2="243.3" y2="78.1" opacity="1.0" stroke="rgb(0,0,0)"  stroke-width="3"/>
<line x1="243.3" y1="78.1" x2="204.6" y2="69.8" opacity="1.0" stroke="rgb(0,0,0)"  stroke-width="3"/>
<line x1="236.0" y1="83.9" x2="209.0" y2="78.1" opacity="1.0" stroke="rgb(0,0,0)"  stroke-width="3"/>
<line x1="204.6" y1="69.8" x2="178.1" y2="99.3" opacity="1.0" stroke="rgb(0,0,0)"  stroke-width="3"/>
<line x1="178.1" y1="99.3" x2="190.3" y2="137.0" opacity="1.0" stroke="rgb(0,0,0)"  stroke-width="3"/>
<line x1="186.8" y1="102.8" x2="195.3" y2="129.0" opacity="1.0" stroke="rgb(0,0,0)"  stroke-width="3"/>
<line x1="190.3" y1="137.0" x2="229.1" y2="145.2" opacity="1.0" stroke="rgb(0,0,0)"  stroke-width="3"/>
<line x1="229.1" y1="145.2" x2="255.6" y2="115.8" opacity="1.0" stroke="rgb(0,0,0)"  stroke-width="3"/>
<line x1="227.7" y1="135.9" x2="246.2" y2="115.4" opacity="1.0" stroke="rgb(0,0,0)"  stroke-width="3"/>
<text x="449.578347" y="156.564940" fill="rgb(12,12,255)" stroke-width="0" font-weight="bold" font-size="25.92" >N</text>
<text x="332.537176" y="266.002328" fill="rgb(255,181,181)" stroke-width="0" font-weight="bold" font-size="25.92" >B</text>
<text x="401.148980" y="305.615321" fill="rgb(12,12,255)" stroke-width="0" font-weight="bold" font-size="25.92" >N</text>
<text x="263.925373" y="305.615369" fill="rgb(12,12,255)" stroke-width="0" font-weight="bold" font-size="25.92" >N</text>
</svg>
</g>
</svg>
