<?xml version="1.0"?>
<svg version="1.1" id="topsvg"
xmlns="http://www.w3.org/2000/svg" xmlns:xlink="http://www.w3.org/1999/xlink"
xmlns:cml="http://www.xml-cml.org/schema" x="0" y="0" width="200px" height="200px" viewBox="0 0 100 100">
<title>GD57.sdf - Open Babel Depiction</title>
<rect x="0" y="0" width="100" height="100" fill="white"/>
<g transform="translate(0,0)">
<svg width="100" height="100" x="0" y="0" viewBox="0 0 490.409 575.231"
font-family="sans-serif" stroke="rgb(0,0,0)" stroke-width="3"  stroke-linecap="round">
<line x1="334.0" y1="136.7" x2="323.2" y2="112.4" opacity="1.0" stroke="rgb(0,0,0)"  stroke-width="3"/>
<line x1="222.3" y1="376.8" x2="222.3" y2="416.4" opacity="1.0" stroke="rgb(0,0,0)"  stroke-width="3"/>
<line x1="188.0" y1="475.8" x2="153.7" y2="495.6" opacity="1.0" stroke="rgb(0,0,0)"  stroke-width="3"/>
<line x1="153.7" y1="495.6" x2="119.4" y2="475.8" opacity="1.0" stroke="rgb(0,0,0)"  stroke-width="3"/>
<line x1="153.7" y1="495.6" x2="153.7" y2="535.2" opacity="1.0" stroke="rgb(0,0,0)"  stroke-width="3"/>
<line x1="153.7" y1="495.6" x2="115.4" y2="505.9" opacity="1.0" stroke="rgb(0,0,0)"  stroke-width="3"/>
<line x1="256.6" y1="475.8" x2="290.9" y2="495.6" opacity="1.0" stroke="rgb(0,0,0)"  stroke-width="3"/>
<line x1="290.9" y1="495.6" x2="325.2" y2="475.8" opacity="1.0" stroke="rgb(0,0,0)"  stroke-width="3"/>
<line x1="290.9" y1="495.6" x2="290.9" y2="535.2" opacity="1.0" stroke="rgb(0,0,0)"  stroke-width="3"/>
<line x1="290.9" y1="495.6" x2="325.2" y2="515.4" opacity="1.0" stroke="rgb(0,0,0)"  stroke-width="3"/>
<line x1="91.0" y1="284.3" x2="110.8" y2="250.0" opacity="1.0" stroke="rgb(0,0,0)"  stroke-width="3"/>
<line x1="110.8" y1="250.0" x2="149.5" y2="258.2" opacity="1.0" stroke="rgb(0,0,0)"  stroke-width="3"/>
<line x1="115.2" y1="258.2" x2="142.2" y2="264.0" opacity="1.0" stroke="rgb(0,0,0)"  stroke-width="3"/>
<line x1="149.5" y1="258.2" x2="152.3" y2="284.7" opacity="1.0" stroke="rgb(0,0,0)"  stroke-width="3"/>
<line x1="141.8" y1="302.9" x2="117.5" y2="313.7" opacity="1.0" stroke="rgb(0,0,0)"  stroke-width="3"/>
<line x1="117.5" y1="313.7" x2="91.0" y2="284.3" opacity="1.0" stroke="rgb(0,0,0)"  stroke-width="3"/>
<line x1="118.8" y1="304.4" x2="100.3" y2="283.9" opacity="1.0" stroke="rgb(0,0,0)"  stroke-width="3"/>
<line x1="327.1" y1="313.7" x2="353.6" y2="284.3" opacity="1.0" stroke="rgb(0,0,0)"  stroke-width="3"/>
<line x1="325.7" y1="304.4" x2="344.2" y2="283.9" opacity="1.0" stroke="rgb(0,0,0)"  stroke-width="3"/>
<line x1="353.6" y1="284.3" x2="333.8" y2="250.0" opacity="1.0" stroke="rgb(0,0,0)"  stroke-width="3"/>
<line x1="333.8" y1="250.0" x2="295.0" y2="258.2" opacity="1.0" stroke="rgb(0,0,0)"  stroke-width="3"/>
<line x1="329.4" y1="258.2" x2="302.4" y2="264.0" opacity="1.0" stroke="rgb(0,0,0)"  stroke-width="3"/>
<line x1="295.0" y1="258.2" x2="292.2" y2="284.7" opacity="1.0" stroke="rgb(0,0,0)"  stroke-width="3"/>
<line x1="302.8" y1="302.9" x2="327.1" y2="313.7" opacity="1.0" stroke="rgb(0,0,0)"  stroke-width="3"/>
<line x1="378.0" y1="156.8" x2="352.0" y2="151.3" opacity="1.0" stroke="rgb(0,0,0)"  stroke-width="3"/>
<line x1="332.8" y1="159.8" x2="319.5" y2="182.9" opacity="1.0" stroke="rgb(0,0,0)"  stroke-width="3"/>
<line x1="319.5" y1="182.9" x2="346.0" y2="212.3" opacity="1.0" stroke="rgb(0,0,0)"  stroke-width="3"/>
<line x1="328.9" y1="182.5" x2="347.3" y2="203.0" opacity="1.0" stroke="rgb(0,0,0)"  stroke-width="3"/>
<line x1="346.0" y1="212.3" x2="382.2" y2="196.2" opacity="1.0" stroke="rgb(0,0,0)"  stroke-width="3"/>
<line x1="382.2" y1="196.2" x2="378.0" y2="156.8" opacity="1.0" stroke="rgb(0,0,0)"  stroke-width="3"/>
<line x1="374.4" y1="191.0" x2="371.5" y2="163.5" opacity="1.0" stroke="rgb(0,0,0)"  stroke-width="3"/>
<line x1="188.0" y1="357.0" x2="222.3" y2="376.8" opacity="1.0" stroke="rgb(0,0,0)"  stroke-width="3"/>
<line x1="222.3" y1="376.8" x2="256.6" y2="357.0" opacity="1.0" stroke="rgb(0,0,0)"  stroke-width="3"/>
<line x1="223.9" y1="367.6" x2="247.8" y2="353.8" opacity="1.0" stroke="rgb(0,0,0)"  stroke-width="3"/>
<line x1="256.6" y1="357.0" x2="256.6" y2="317.4" opacity="1.0" stroke="rgb(0,0,0)"  stroke-width="3"/>
<line x1="256.6" y1="317.4" x2="222.3" y2="297.6" opacity="1.0" stroke="rgb(0,0,0)"  stroke-width="3"/>
<line x1="247.8" y1="320.6" x2="223.9" y2="306.8" opacity="1.0" stroke="rgb(0,0,0)"  stroke-width="3"/>
<line x1="222.3" y1="297.6" x2="188.0" y2="317.4" opacity="1.0" stroke="rgb(0,0,0)"  stroke-width="3"/>
<line x1="188.0" y1="317.4" x2="188.0" y2="357.0" opacity="1.0" stroke="rgb(0,0,0)"  stroke-width="3"/>
<line x1="195.2" y1="323.4" x2="195.2" y2="351.0" opacity="1.0" stroke="rgb(0,0,0)"  stroke-width="3"/>
<line x1="222.3" y1="271.0" x2="222.3" y2="297.6" opacity="1.0" stroke="rgb(0,0,0)"  stroke-width="3"/>
<line x1="188.0" y1="317.4" x2="164.9" y2="304.1" opacity="1.0" stroke="rgb(0,0,0)"  stroke-width="3"/>
<line x1="149.5" y1="258.2" x2="176.0" y2="228.8" opacity="1.0" stroke="rgb(0,0,0)"  stroke-width="3"/>
<line x1="176.0" y1="228.8" x2="211.3" y2="251.0" opacity="1.0" stroke="rgb(0,0,0)"  stroke-width="3"/>
<line x1="256.6" y1="317.4" x2="279.6" y2="304.1" opacity="1.0" stroke="rgb(0,0,0)"  stroke-width="3"/>
<line x1="295.0" y1="258.2" x2="268.5" y2="228.8" opacity="1.0" stroke="rgb(0,0,0)"  stroke-width="3"/>
<line x1="268.5" y1="228.8" x2="233.3" y2="251.0" opacity="1.0" stroke="rgb(0,0,0)"  stroke-width="3"/>
<line x1="319.5" y1="182.9" x2="280.8" y2="191.1" opacity="1.0" stroke="rgb(0,0,0)"  stroke-width="3"/>
<line x1="280.8" y1="191.1" x2="268.5" y2="228.8" opacity="1.0" stroke="rgb(0,0,0)"  stroke-width="3"/>
<line x1="285.7" y1="199.0" x2="277.2" y2="225.3" opacity="1.0" stroke="rgb(0,0,0)"  stroke-width="3"/>
<line x1="333.8" y1="250.0" x2="346.0" y2="212.3" opacity="1.0" stroke="rgb(0,0,0)"  stroke-width="3"/>
<line x1="404.5" y1="330.2" x2="392.3" y2="292.5" opacity="1.0" stroke="rgb(0,0,0)"  stroke-width="3"/>
<line x1="395.8" y1="326.7" x2="387.3" y2="300.4" opacity="1.0" stroke="rgb(0,0,0)"  stroke-width="3"/>
<line x1="392.3" y1="292.5" x2="353.6" y2="284.3" opacity="1.0" stroke="rgb(0,0,0)"  stroke-width="3"/>
<line x1="327.1" y1="313.7" x2="339.3" y2="351.4" opacity="1.0" stroke="rgb(0,0,0)"  stroke-width="3"/>
<line x1="339.3" y1="351.4" x2="378.0" y2="359.6" opacity="1.0" stroke="rgb(0,0,0)"  stroke-width="3"/>
<line x1="346.7" y1="345.6" x2="373.7" y2="351.3" opacity="1.0" stroke="rgb(0,0,0)"  stroke-width="3"/>
<line x1="378.0" y1="359.6" x2="404.5" y2="330.2" opacity="1.0" stroke="rgb(0,0,0)"  stroke-width="3"/>
<line x1="446.3" y1="149.6" x2="410.1" y2="133.5" opacity="1.0" stroke="rgb(0,0,0)"  stroke-width="3"/>
<line x1="437.9" y1="153.8" x2="412.6" y2="142.5" opacity="1.0" stroke="rgb(0,0,0)"  stroke-width="3"/>
<line x1="410.1" y1="133.5" x2="378.0" y2="156.8" opacity="1.0" stroke="rgb(0,0,0)"  stroke-width="3"/>
<line x1="382.2" y1="196.2" x2="418.4" y2="212.3" opacity="1.0" stroke="rgb(0,0,0)"  stroke-width="3"/>
<line x1="418.4" y1="212.3" x2="450.4" y2="189.0" opacity="1.0" stroke="rgb(0,0,0)"  stroke-width="3"/>
<line x1="419.0" y1="202.9" x2="441.3" y2="186.7" opacity="1.0" stroke="rgb(0,0,0)"  stroke-width="3"/>
<line x1="450.4" y1="189.0" x2="446.3" y2="149.6" opacity="1.0" stroke="rgb(0,0,0)"  stroke-width="3"/>
<line x1="66.5" y1="359.6" x2="40.0" y2="330.2" opacity="1.0" stroke="rgb(0,0,0)"  stroke-width="3"/>
<line x1="40.0" y1="330.2" x2="52.2" y2="292.5" opacity="1.0" stroke="rgb(0,0,0)"  stroke-width="3"/>
<line x1="48.7" y1="326.7" x2="57.2" y2="300.4" opacity="1.0" stroke="rgb(0,0,0)"  stroke-width="3"/>
<line x1="52.2" y1="292.5" x2="91.0" y2="284.3" opacity="1.0" stroke="rgb(0,0,0)"  stroke-width="3"/>
<line x1="117.5" y1="313.7" x2="105.2" y2="351.4" opacity="1.0" stroke="rgb(0,0,0)"  stroke-width="3"/>
<line x1="105.2" y1="351.4" x2="66.5" y2="359.6" opacity="1.0" stroke="rgb(0,0,0)"  stroke-width="3"/>
<line x1="97.9" y1="345.6" x2="70.9" y2="351.3" opacity="1.0" stroke="rgb(0,0,0)"  stroke-width="3"/>
<line x1="110.8" y1="250.0" x2="98.5" y2="212.3" opacity="1.0" stroke="rgb(0,0,0)"  stroke-width="3"/>
<line x1="98.5" y1="212.3" x2="125.0" y2="182.9" opacity="1.0" stroke="rgb(0,0,0)"  stroke-width="3"/>
<line x1="107.9" y1="212.6" x2="126.4" y2="192.1" opacity="1.0" stroke="rgb(0,0,0)"  stroke-width="3"/>
<line x1="125.0" y1="182.9" x2="163.8" y2="191.1" opacity="1.0" stroke="rgb(0,0,0)"  stroke-width="3"/>
<line x1="163.8" y1="191.1" x2="176.0" y2="228.8" opacity="1.0" stroke="rgb(0,0,0)"  stroke-width="3"/>
<line x1="158.8" y1="199.0" x2="167.3" y2="225.3" opacity="1.0" stroke="rgb(0,0,0)"  stroke-width="3"/>
<line x1="119.5" y1="418.5" x2="131.7" y2="380.8" opacity="1.0" stroke="rgb(0,0,0)"  stroke-width="3"/>
<line x1="114.5" y1="410.5" x2="123.0" y2="384.3" opacity="1.0" stroke="rgb(0,0,0)"  stroke-width="3"/>
<line x1="131.7" y1="380.8" x2="105.2" y2="351.4" opacity="1.0" stroke="rgb(0,0,0)"  stroke-width="3"/>
<line x1="66.5" y1="359.6" x2="54.3" y2="397.3" opacity="1.0" stroke="rgb(0,0,0)"  stroke-width="3"/>
<line x1="54.3" y1="397.3" x2="80.8" y2="426.7" opacity="1.0" stroke="rgb(0,0,0)"  stroke-width="3"/>
<line x1="63.6" y1="396.9" x2="82.1" y2="417.4" opacity="1.0" stroke="rgb(0,0,0)"  stroke-width="3"/>
<line x1="80.8" y1="426.7" x2="119.5" y2="418.5" opacity="1.0" stroke="rgb(0,0,0)"  stroke-width="3"/>
<line x1="346.5" y1="80.3" x2="330.4" y2="44.1" opacity="1.0" stroke="rgb(0,0,0)"  stroke-width="3"/>
<line x1="330.4" y1="44.1" x2="291.0" y2="40.0" opacity="1.0" stroke="rgb(0,0,0)"  stroke-width="3"/>
<line x1="323.6" y1="50.7" x2="296.2" y2="47.8" opacity="1.0" stroke="rgb(0,0,0)"  stroke-width="3"/>
<line x1="291.0" y1="40.0" x2="267.7" y2="72.0" opacity="1.0" stroke="rgb(0,0,0)"  stroke-width="3"/>
<line x1="267.7" y1="72.0" x2="283.8" y2="108.2" opacity="1.0" stroke="rgb(0,0,0)"  stroke-width="3"/>
<line x1="276.7" y1="74.6" x2="287.9" y2="99.8" opacity="1.0" stroke="rgb(0,0,0)"  stroke-width="3"/>
<line x1="283.8" y1="108.2" x2="323.2" y2="112.4" opacity="1.0" stroke="rgb(0,0,0)"  stroke-width="3"/>
<line x1="323.2" y1="112.4" x2="346.5" y2="80.3" opacity="1.0" stroke="rgb(0,0,0)"  stroke-width="3"/>
<line x1="320.9" y1="103.3" x2="337.1" y2="80.9" opacity="1.0" stroke="rgb(0,0,0)"  stroke-width="3"/>
<line x1="188.0" y1="436.2" x2="188.0" y2="475.8" opacity="1.0" stroke="rgb(0,0,0)"  stroke-width="3"/>
<line x1="188.0" y1="475.8" x2="222.3" y2="495.6" opacity="1.0" stroke="rgb(0,0,0)"  stroke-width="3"/>
<line x1="196.8" y1="472.6" x2="220.7" y2="486.4" opacity="1.0" stroke="rgb(0,0,0)"  stroke-width="3"/>
<line x1="222.3" y1="495.6" x2="256.6" y2="475.8" opacity="1.0" stroke="rgb(0,0,0)"  stroke-width="3"/>
<line x1="256.6" y1="475.8" x2="256.6" y2="436.2" opacity="1.0" stroke="rgb(0,0,0)"  stroke-width="3"/>
<line x1="249.4" y1="469.8" x2="249.4" y2="442.2" opacity="1.0" stroke="rgb(0,0,0)"  stroke-width="3"/>
<line x1="256.6" y1="436.2" x2="222.3" y2="416.4" opacity="1.0" stroke="rgb(0,0,0)"  stroke-width="3"/>
<line x1="222.3" y1="416.4" x2="188.0" y2="436.2" opacity="1.0" stroke="rgb(0,0,0)"  stroke-width="3"/>
<line x1="220.7" y1="425.6" x2="196.8" y2="439.4" opacity="1.0" stroke="rgb(0,0,0)"  stroke-width="3"/>
<text x="333.298496" y="156.551298" fill="rgb(12,12,255)" stroke-width="0" font-weight="bold" font-size="25.92" >N</text>
<text x="216.272033" y="265.974933" fill="rgb(255,181,181)" stroke-width="0" font-weight="bold" font-size="25.92" >B</text>
<text x="284.875167" y="305.582948" fill="rgb(12,12,255)" stroke-width="0" font-weight="bold" font-size="25.92" >N</text>
<text x="147.668804" y="305.582996" fill="rgb(12,12,255)" stroke-width="0" font-weight="bold" font-size="25.92" >N</text>
</svg>
</g>
</svg>
