<?xml version="1.0"?>
<svg version="1.1" id="topsvg"
xmlns="http://www.w3.org/2000/svg" xmlns:xlink="http://www.w3.org/1999/xlink"
xmlns:cml="http://www.xml-cml.org/schema" x="0" y="0" width="200px" height="200px" viewBox="0 0 100 100">
<title>GD47.sdf - Open Babel Depiction</title>
<rect x="0" y="0" width="100" height="100" fill="white"/>
<g transform="translate(0,0)">
<svg width="100" height="100" x="0" y="0" viewBox="0 0 530.326 508.606"
font-family="sans-serif" stroke="rgb(0,0,0)" stroke-width="3"  stroke-linecap="round">
<line x1="288.9" y1="308.2" x2="289.1" y2="348.3" opacity="1.0" stroke="rgb(0,0,0)"  stroke-width="3"/>
<line x1="254.3" y1="408.4" x2="219.5" y2="428.5" opacity="1.0" stroke="rgb(0,0,0)"  stroke-width="3"/>
<line x1="219.5" y1="428.5" x2="184.8" y2="408.4" opacity="1.0" stroke="rgb(0,0,0)"  stroke-width="3"/>
<line x1="219.5" y1="428.5" x2="219.5" y2="468.6" opacity="1.0" stroke="rgb(0,0,0)"  stroke-width="3"/>
<line x1="219.5" y1="428.5" x2="219.5" y2="388.3" opacity="1.0" stroke="rgb(0,0,0)"  stroke-width="3"/>
<line x1="323.9" y1="408.4" x2="358.7" y2="428.5" opacity="1.0" stroke="rgb(0,0,0)"  stroke-width="3"/>
<line x1="358.7" y1="428.5" x2="393.5" y2="408.4" opacity="1.0" stroke="rgb(0,0,0)"  stroke-width="3"/>
<line x1="358.7" y1="428.5" x2="358.7" y2="468.6" opacity="1.0" stroke="rgb(0,0,0)"  stroke-width="3"/>
<line x1="358.7" y1="428.5" x2="358.7" y2="388.3" opacity="1.0" stroke="rgb(0,0,0)"  stroke-width="3"/>
<line x1="158.7" y1="201.6" x2="182.9" y2="169.8" opacity="1.0" stroke="rgb(0,0,0)"  stroke-width="3"/>
<line x1="182.9" y1="169.8" x2="217.9" y2="189.2" opacity="1.0" stroke="rgb(0,0,0)"  stroke-width="3"/>
<line x1="217.9" y1="189.2" x2="218.5" y2="216.2" opacity="1.0" stroke="rgb(0,0,0)"  stroke-width="3"/>
<line x1="205.9" y1="231.4" x2="179.3" y2="235.9" opacity="1.0" stroke="rgb(0,0,0)"  stroke-width="3"/>
<line x1="179.3" y1="235.9" x2="158.7" y2="201.6" opacity="1.0" stroke="rgb(0,0,0)"  stroke-width="3"/>
<line x1="182.4" y1="227.0" x2="167.9" y2="203.0" opacity="1.0" stroke="rgb(0,0,0)"  stroke-width="3"/>
<line x1="416.9" y1="201.2" x2="389.5" y2="172.0" opacity="1.0" stroke="rgb(0,0,0)"  stroke-width="3"/>
<line x1="389.5" y1="172.0" x2="353.3" y2="189.0" opacity="1.0" stroke="rgb(0,0,0)"  stroke-width="3"/>
<line x1="387.2" y1="181.1" x2="361.8" y2="193.0" opacity="1.0" stroke="rgb(0,0,0)"  stroke-width="3"/>
<line x1="353.3" y1="189.0" x2="356.7" y2="215.8" opacity="1.0" stroke="rgb(0,0,0)"  stroke-width="3"/>
<line x1="371.0" y1="231.2" x2="397.5" y2="236.3" opacity="1.0" stroke="rgb(0,0,0)"  stroke-width="3"/>
<line x1="397.5" y1="236.3" x2="416.9" y2="201.2" opacity="1.0" stroke="rgb(0,0,0)"  stroke-width="3"/>
<line x1="394.1" y1="227.5" x2="407.7" y2="203.0" opacity="1.0" stroke="rgb(0,0,0)"  stroke-width="3"/>
<line x1="411.8" y1="70.2" x2="384.8" y2="70.8" opacity="1.0" stroke="rgb(0,0,0)"  stroke-width="3"/>
<line x1="368.0" y1="83.4" x2="360.1" y2="109.3" opacity="1.0" stroke="rgb(0,0,0)"  stroke-width="3"/>
<line x1="360.1" y1="109.3" x2="392.9" y2="132.2" opacity="1.0" stroke="rgb(0,0,0)"  stroke-width="3"/>
<line x1="369.2" y1="106.8" x2="392.1" y2="122.8" opacity="1.0" stroke="rgb(0,0,0)"  stroke-width="3"/>
<line x1="392.9" y1="132.2" x2="424.9" y2="108.0" opacity="1.0" stroke="rgb(0,0,0)"  stroke-width="3"/>
<line x1="424.9" y1="108.0" x2="411.8" y2="70.2" opacity="1.0" stroke="rgb(0,0,0)"  stroke-width="3"/>
<line x1="416.1" y1="104.7" x2="406.9" y2="78.3" opacity="1.0" stroke="rgb(0,0,0)"  stroke-width="3"/>
<line x1="254.1" y1="288.4" x2="288.9" y2="308.2" opacity="1.0" stroke="rgb(0,0,0)"  stroke-width="3"/>
<line x1="288.9" y1="308.2" x2="323.4" y2="288.0" opacity="1.0" stroke="rgb(0,0,0)"  stroke-width="3"/>
<line x1="290.4" y1="298.9" x2="314.6" y2="284.8" opacity="1.0" stroke="rgb(0,0,0)"  stroke-width="3"/>
<line x1="323.4" y1="288.0" x2="323.2" y2="248.0" opacity="1.0" stroke="rgb(0,0,0)"  stroke-width="3"/>
<line x1="323.2" y1="248.0" x2="288.4" y2="228.1" opacity="1.0" stroke="rgb(0,0,0)"  stroke-width="3"/>
<line x1="314.4" y1="251.2" x2="290.1" y2="237.4" opacity="1.0" stroke="rgb(0,0,0)"  stroke-width="3"/>
<line x1="288.4" y1="228.1" x2="253.9" y2="248.3" opacity="1.0" stroke="rgb(0,0,0)"  stroke-width="3"/>
<line x1="253.9" y1="248.3" x2="254.1" y2="288.4" opacity="1.0" stroke="rgb(0,0,0)"  stroke-width="3"/>
<line x1="261.1" y1="254.3" x2="261.3" y2="282.3" opacity="1.0" stroke="rgb(0,0,0)"  stroke-width="3"/>
<line x1="287.5" y1="201.2" x2="288.4" y2="228.1" opacity="1.0" stroke="rgb(0,0,0)"  stroke-width="3"/>
<line x1="253.9" y1="248.3" x2="230.2" y2="235.4" opacity="1.0" stroke="rgb(0,0,0)"  stroke-width="3"/>
<line x1="217.9" y1="189.2" x2="252.2" y2="168.6" opacity="1.0" stroke="rgb(0,0,0)"  stroke-width="3"/>
<line x1="226.8" y1="192.3" x2="250.8" y2="177.9" opacity="1.0" stroke="rgb(0,0,0)"  stroke-width="3"/>
<line x1="252.2" y1="168.6" x2="275.8" y2="181.8" opacity="1.0" stroke="rgb(0,0,0)"  stroke-width="3"/>
<line x1="147.9" y1="69.2" x2="182.2" y2="49.8" opacity="1.0" stroke="rgb(0,0,0)"  stroke-width="3"/>
<line x1="182.2" y1="49.8" x2="216.5" y2="69.2" opacity="1.0" stroke="rgb(0,0,0)"  stroke-width="3"/>
<line x1="183.9" y1="59.1" x2="207.8" y2="72.5" opacity="1.0" stroke="rgb(0,0,0)"  stroke-width="3"/>
<line x1="216.5" y1="69.2" x2="216.5" y2="109.2" opacity="1.0" stroke="rgb(0,0,0)"  stroke-width="3"/>
<line x1="216.5" y1="109.2" x2="182.2" y2="129.8" opacity="1.0" stroke="rgb(0,0,0)"  stroke-width="3"/>
<line x1="182.2" y1="129.8" x2="147.9" y2="109.2" opacity="1.0" stroke="rgb(0,0,0)"  stroke-width="3"/>
<line x1="147.9" y1="109.2" x2="147.9" y2="69.2" opacity="1.0" stroke="rgb(0,0,0)"  stroke-width="3"/>
<line x1="155.1" y1="103.2" x2="155.1" y2="75.2" opacity="1.0" stroke="rgb(0,0,0)"  stroke-width="3"/>
<line x1="353.3" y1="189.0" x2="320.5" y2="166.1" opacity="1.0" stroke="rgb(0,0,0)"  stroke-width="3"/>
<line x1="320.5" y1="166.1" x2="298.0" y2="181.0" opacity="1.0" stroke="rgb(0,0,0)"  stroke-width="3"/>
<line x1="323.2" y1="248.0" x2="346.9" y2="235.0" opacity="1.0" stroke="rgb(0,0,0)"  stroke-width="3"/>
<line x1="120.0" y1="271.7" x2="160.0" y2="270.9" opacity="1.0" stroke="rgb(0,0,0)"  stroke-width="3"/>
<line x1="125.9" y1="264.4" x2="153.9" y2="263.8" opacity="1.0" stroke="rgb(0,0,0)"  stroke-width="3"/>
<line x1="160.0" y1="270.9" x2="179.3" y2="235.9" opacity="1.0" stroke="rgb(0,0,0)"  stroke-width="3"/>
<line x1="158.7" y1="201.6" x2="118.7" y2="202.4" opacity="1.0" stroke="rgb(0,0,0)"  stroke-width="3"/>
<line x1="118.7" y1="202.4" x2="99.3" y2="237.4" opacity="1.0" stroke="rgb(0,0,0)"  stroke-width="3"/>
<line x1="122.1" y1="211.1" x2="108.5" y2="235.6" opacity="1.0" stroke="rgb(0,0,0)"  stroke-width="3"/>
<line x1="99.3" y1="237.4" x2="120.0" y2="271.7" opacity="1.0" stroke="rgb(0,0,0)"  stroke-width="3"/>
<line x1="477.5" y1="234.7" x2="456.9" y2="200.5" opacity="1.0" stroke="rgb(0,0,0)"  stroke-width="3"/>
<line x1="468.3" y1="233.3" x2="453.8" y2="209.3" opacity="1.0" stroke="rgb(0,0,0)"  stroke-width="3"/>
<line x1="456.9" y1="200.5" x2="416.9" y2="201.2" opacity="1.0" stroke="rgb(0,0,0)"  stroke-width="3"/>
<line x1="397.5" y1="236.3" x2="418.2" y2="270.5" opacity="1.0" stroke="rgb(0,0,0)"  stroke-width="3"/>
<line x1="418.2" y1="270.5" x2="458.2" y2="269.7" opacity="1.0" stroke="rgb(0,0,0)"  stroke-width="3"/>
<line x1="424.1" y1="263.2" x2="452.1" y2="262.7" opacity="1.0" stroke="rgb(0,0,0)"  stroke-width="3"/>
<line x1="458.2" y1="269.7" x2="477.5" y2="234.7" opacity="1.0" stroke="rgb(0,0,0)"  stroke-width="3"/>
<line x1="360.1" y1="109.3" x2="323.9" y2="126.3" opacity="1.0" stroke="rgb(0,0,0)"  stroke-width="3"/>
<line x1="323.9" y1="126.3" x2="320.5" y2="166.1" opacity="1.0" stroke="rgb(0,0,0)"  stroke-width="3"/>
<line x1="330.6" y1="132.9" x2="328.2" y2="160.8" opacity="1.0" stroke="rgb(0,0,0)"  stroke-width="3"/>
<line x1="389.5" y1="172.0" x2="392.9" y2="132.2" opacity="1.0" stroke="rgb(0,0,0)"  stroke-width="3"/>
<line x1="477.2" y1="47.6" x2="437.9" y2="40.0" opacity="1.0" stroke="rgb(0,0,0)"  stroke-width="3"/>
<line x1="470.0" y1="53.5" x2="442.5" y2="48.2" opacity="1.0" stroke="rgb(0,0,0)"  stroke-width="3"/>
<line x1="437.9" y1="40.0" x2="411.8" y2="70.2" opacity="1.0" stroke="rgb(0,0,0)"  stroke-width="3"/>
<line x1="424.9" y1="108.0" x2="464.1" y2="115.6" opacity="1.0" stroke="rgb(0,0,0)"  stroke-width="3"/>
<line x1="464.1" y1="115.6" x2="490.3" y2="85.4" opacity="1.0" stroke="rgb(0,0,0)"  stroke-width="3"/>
<line x1="462.6" y1="106.4" x2="481.0" y2="85.2" opacity="1.0" stroke="rgb(0,0,0)"  stroke-width="3"/>
<line x1="490.3" y1="85.4" x2="477.2" y2="47.6" opacity="1.0" stroke="rgb(0,0,0)"  stroke-width="3"/>
<line x1="182.9" y1="169.8" x2="182.2" y2="129.8" opacity="1.0" stroke="rgb(0,0,0)"  stroke-width="3"/>
<line x1="190.0" y1="163.7" x2="189.5" y2="135.7" opacity="1.0" stroke="rgb(0,0,0)"  stroke-width="3"/>
<line x1="216.5" y1="109.2" x2="251.5" y2="128.6" opacity="1.0" stroke="rgb(0,0,0)"  stroke-width="3"/>
<line x1="218.3" y1="118.4" x2="242.8" y2="132.0" opacity="1.0" stroke="rgb(0,0,0)"  stroke-width="3"/>
<line x1="251.5" y1="128.6" x2="252.2" y2="168.6" opacity="1.0" stroke="rgb(0,0,0)"  stroke-width="3"/>
<line x1="40.0" y1="202.4" x2="59.3" y2="237.4" opacity="1.0" stroke="rgb(0,0,0)"  stroke-width="3"/>
<line x1="49.2" y1="204.2" x2="62.7" y2="228.7" opacity="1.0" stroke="rgb(0,0,0)"  stroke-width="3"/>
<line x1="59.3" y1="237.4" x2="99.3" y2="237.4" opacity="1.0" stroke="rgb(0,0,0)"  stroke-width="3"/>
<line x1="118.7" y1="202.4" x2="99.3" y2="168.1" opacity="1.0" stroke="rgb(0,0,0)"  stroke-width="3"/>
<line x1="99.3" y1="168.1" x2="59.3" y2="168.1" opacity="1.0" stroke="rgb(0,0,0)"  stroke-width="3"/>
<line x1="93.3" y1="175.3" x2="65.3" y2="175.3" opacity="1.0" stroke="rgb(0,0,0)"  stroke-width="3"/>
<line x1="59.3" y1="168.1" x2="40.0" y2="202.4" opacity="1.0" stroke="rgb(0,0,0)"  stroke-width="3"/>
<line x1="254.3" y1="368.3" x2="254.3" y2="408.4" opacity="1.0" stroke="rgb(0,0,0)"  stroke-width="3"/>
<line x1="254.3" y1="408.4" x2="289.1" y2="428.6" opacity="1.0" stroke="rgb(0,0,0)"  stroke-width="3"/>
<line x1="263.1" y1="405.2" x2="287.5" y2="419.3" opacity="1.0" stroke="rgb(0,0,0)"  stroke-width="3"/>
<line x1="289.1" y1="428.6" x2="323.9" y2="408.4" opacity="1.0" stroke="rgb(0,0,0)"  stroke-width="3"/>
<line x1="323.9" y1="408.4" x2="323.9" y2="368.3" opacity="1.0" stroke="rgb(0,0,0)"  stroke-width="3"/>
<line x1="316.7" y1="402.4" x2="316.7" y2="374.3" opacity="1.0" stroke="rgb(0,0,0)"  stroke-width="3"/>
<line x1="323.9" y1="368.3" x2="289.1" y2="348.3" opacity="1.0" stroke="rgb(0,0,0)"  stroke-width="3"/>
<line x1="289.1" y1="348.3" x2="254.3" y2="368.3" opacity="1.0" stroke="rgb(0,0,0)"  stroke-width="3"/>
<line x1="287.5" y1="357.5" x2="263.1" y2="371.5" opacity="1.0" stroke="rgb(0,0,0)"  stroke-width="3"/>
<text x="365.763561" y="79.010907" fill="rgb(178,178,0)" stroke-width="0" font-weight="bold" font-size="25.92" >S</text>
<text x="281.118707" y="196.165888" fill="rgb(255,181,181)" stroke-width="0" font-weight="bold" font-size="25.92" >B</text>
<text x="212.766798" y="237.223386" fill="rgb(12,12,255)" stroke-width="0" font-weight="bold" font-size="25.92" >N</text>
<text x="352.258609" y="236.701231" fill="rgb(12,12,255)" stroke-width="0" font-weight="bold" font-size="25.92" >N</text>
</svg>
</g>
</svg>
