<?xml version="1.0"?>
<svg version="1.1" id="topsvg"
xmlns="http://www.w3.org/2000/svg" xmlns:xlink="http://www.w3.org/1999/xlink"
xmlns:cml="http://www.xml-cml.org/schema" x="0" y="0" width="200px" height="200px" viewBox="0 0 100 100">
<title>GD69.sdf - Open Babel Depiction</title>
<rect x="0" y="0" width="100" height="100" fill="white"/>
<g transform="translate(0,0)">
<svg width="100" height="100" x="0" y="0" viewBox="0 0 549.234 589.399"
font-family="sans-serif" stroke="rgb(0,0,0)" stroke-width="3"  stroke-linecap="round">
<line x1="304.9" y1="372.0" x2="304.9" y2="470.8" opacity="1.0" stroke="rgb(0,0,0)"  stroke-width="3"/>
<line x1="233.8" y1="176.5" x2="233.8" y2="137.2" opacity="1.0" stroke="rgb(0,0,0)"  stroke-width="3"/>
<line x1="118.6" y1="302.5" x2="79.3" y2="302.5" opacity="1.0" stroke="rgb(0,0,0)"  stroke-width="3"/>
<line x1="79.3" y1="302.5" x2="40.0" y2="302.5" opacity="1.0" stroke="rgb(0,0,0)"  stroke-width="3"/>
<line x1="59.7" y1="336.5" x2="79.3" y2="302.5" opacity="1.0" stroke="rgb(0,0,0)"  stroke-width="3"/>
<line x1="233.8" y1="137.2" x2="267.9" y2="117.5" opacity="1.0" stroke="rgb(0,0,0)"  stroke-width="3"/>
<line x1="199.8" y1="117.5" x2="233.8" y2="137.2" opacity="1.0" stroke="rgb(0,0,0)"  stroke-width="3"/>
<line x1="79.3" y1="302.5" x2="59.7" y2="268.4" opacity="1.0" stroke="rgb(0,0,0)"  stroke-width="3"/>
<line x1="233.8" y1="137.2" x2="233.8" y2="97.9" opacity="1.0" stroke="rgb(0,0,0)"  stroke-width="3"/>
<line x1="378.5" y1="128.6" x2="362.7" y2="107.6" opacity="1.0" stroke="rgb(0,0,0)"  stroke-width="3"/>
<line x1="339.0" y1="490.4" x2="373.0" y2="470.8" opacity="1.0" stroke="rgb(0,0,0)"  stroke-width="3"/>
<line x1="407.1" y1="411.8" x2="407.1" y2="372.5" opacity="1.0" stroke="rgb(0,0,0)"  stroke-width="3"/>
<line x1="407.1" y1="372.5" x2="441.1" y2="352.8" opacity="1.0" stroke="rgb(0,0,0)"  stroke-width="3"/>
<line x1="407.1" y1="372.5" x2="373.0" y2="352.8" opacity="1.0" stroke="rgb(0,0,0)"  stroke-width="3"/>
<line x1="407.1" y1="372.5" x2="407.1" y2="333.2" opacity="1.0" stroke="rgb(0,0,0)"  stroke-width="3"/>
<line x1="441.1" y1="470.8" x2="475.2" y2="490.4" opacity="1.0" stroke="rgb(0,0,0)"  stroke-width="3"/>
<line x1="475.2" y1="490.4" x2="509.2" y2="510.1" opacity="1.0" stroke="rgb(0,0,0)"  stroke-width="3"/>
<line x1="475.2" y1="490.4" x2="475.2" y2="529.7" opacity="1.0" stroke="rgb(0,0,0)"  stroke-width="3"/>
<line x1="475.2" y1="490.4" x2="509.2" y2="470.8" opacity="1.0" stroke="rgb(0,0,0)"  stroke-width="3"/>
<line x1="176.9" y1="267.3" x2="200.8" y2="236.1" opacity="1.0" stroke="rgb(0,0,0)"  stroke-width="3"/>
<line x1="200.8" y1="236.1" x2="235.2" y2="255.1" opacity="1.0" stroke="rgb(0,0,0)"  stroke-width="3"/>
<line x1="235.2" y1="255.1" x2="235.7" y2="281.4" opacity="1.0" stroke="rgb(0,0,0)"  stroke-width="3"/>
<line x1="223.2" y1="296.6" x2="197.3" y2="301.0" opacity="1.0" stroke="rgb(0,0,0)"  stroke-width="3"/>
<line x1="197.3" y1="301.0" x2="176.9" y2="267.3" opacity="1.0" stroke="rgb(0,0,0)"  stroke-width="3"/>
<line x1="200.3" y1="292.1" x2="186.2" y2="268.7" opacity="1.0" stroke="rgb(0,0,0)"  stroke-width="3"/>
<line x1="430.7" y1="266.9" x2="403.9" y2="238.2" opacity="1.0" stroke="rgb(0,0,0)"  stroke-width="3"/>
<line x1="403.9" y1="238.2" x2="368.3" y2="254.9" opacity="1.0" stroke="rgb(0,0,0)"  stroke-width="3"/>
<line x1="401.5" y1="247.3" x2="376.7" y2="258.9" opacity="1.0" stroke="rgb(0,0,0)"  stroke-width="3"/>
<line x1="368.3" y1="254.9" x2="371.5" y2="281.0" opacity="1.0" stroke="rgb(0,0,0)"  stroke-width="3"/>
<line x1="385.9" y1="296.4" x2="411.7" y2="301.3" opacity="1.0" stroke="rgb(0,0,0)"  stroke-width="3"/>
<line x1="411.7" y1="301.3" x2="430.7" y2="266.9" opacity="1.0" stroke="rgb(0,0,0)"  stroke-width="3"/>
<line x1="408.3" y1="292.6" x2="421.5" y2="268.7" opacity="1.0" stroke="rgb(0,0,0)"  stroke-width="3"/>
<line x1="425.7" y1="138.2" x2="399.4" y2="138.7" opacity="1.0" stroke="rgb(0,0,0)"  stroke-width="3"/>
<line x1="382.6" y1="151.4" x2="375.0" y2="176.6" opacity="1.0" stroke="rgb(0,0,0)"  stroke-width="3"/>
<line x1="375.0" y1="176.6" x2="407.2" y2="199.0" opacity="1.0" stroke="rgb(0,0,0)"  stroke-width="3"/>
<line x1="384.0" y1="174.1" x2="406.4" y2="189.7" opacity="1.0" stroke="rgb(0,0,0)"  stroke-width="3"/>
<line x1="407.2" y1="199.0" x2="438.6" y2="175.3" opacity="1.0" stroke="rgb(0,0,0)"  stroke-width="3"/>
<line x1="438.6" y1="175.3" x2="425.7" y2="138.2" opacity="1.0" stroke="rgb(0,0,0)"  stroke-width="3"/>
<line x1="429.8" y1="172.0" x2="420.9" y2="146.2" opacity="1.0" stroke="rgb(0,0,0)"  stroke-width="3"/>
<line x1="270.8" y1="352.5" x2="304.9" y2="372.0" opacity="1.0" stroke="rgb(0,0,0)"  stroke-width="3"/>
<line x1="304.9" y1="372.0" x2="338.9" y2="352.2" opacity="1.0" stroke="rgb(0,0,0)"  stroke-width="3"/>
<line x1="306.5" y1="362.8" x2="330.1" y2="349.0" opacity="1.0" stroke="rgb(0,0,0)"  stroke-width="3"/>
<line x1="338.9" y1="352.2" x2="338.7" y2="312.8" opacity="1.0" stroke="rgb(0,0,0)"  stroke-width="3"/>
<line x1="338.7" y1="312.8" x2="304.5" y2="293.4" opacity="1.0" stroke="rgb(0,0,0)"  stroke-width="3"/>
<line x1="329.9" y1="316.1" x2="306.1" y2="302.6" opacity="1.0" stroke="rgb(0,0,0)"  stroke-width="3"/>
<line x1="304.5" y1="293.4" x2="270.6" y2="313.2" opacity="1.0" stroke="rgb(0,0,0)"  stroke-width="3"/>
<line x1="270.6" y1="313.2" x2="270.8" y2="352.5" opacity="1.0" stroke="rgb(0,0,0)"  stroke-width="3"/>
<line x1="277.8" y1="319.2" x2="277.9" y2="346.5" opacity="1.0" stroke="rgb(0,0,0)"  stroke-width="3"/>
<line x1="303.6" y1="267.1" x2="304.5" y2="293.4" opacity="1.0" stroke="rgb(0,0,0)"  stroke-width="3"/>
<line x1="270.6" y1="313.2" x2="247.4" y2="300.6" opacity="1.0" stroke="rgb(0,0,0)"  stroke-width="3"/>
<line x1="235.2" y1="255.1" x2="268.9" y2="234.9" opacity="1.0" stroke="rgb(0,0,0)"  stroke-width="3"/>
<line x1="244.0" y1="258.2" x2="267.5" y2="244.1" opacity="1.0" stroke="rgb(0,0,0)"  stroke-width="3"/>
<line x1="268.9" y1="234.9" x2="291.9" y2="247.7" opacity="1.0" stroke="rgb(0,0,0)"  stroke-width="3"/>
<line x1="368.3" y1="254.9" x2="336.0" y2="232.4" opacity="1.0" stroke="rgb(0,0,0)"  stroke-width="3"/>
<line x1="336.0" y1="232.4" x2="314.0" y2="246.9" opacity="1.0" stroke="rgb(0,0,0)"  stroke-width="3"/>
<line x1="338.7" y1="312.8" x2="361.7" y2="300.2" opacity="1.0" stroke="rgb(0,0,0)"  stroke-width="3"/>
<line x1="138.9" y1="336.1" x2="178.3" y2="335.4" opacity="1.0" stroke="rgb(0,0,0)"  stroke-width="3"/>
<line x1="144.8" y1="328.8" x2="172.1" y2="328.3" opacity="1.0" stroke="rgb(0,0,0)"  stroke-width="3"/>
<line x1="178.3" y1="335.4" x2="197.3" y2="301.0" opacity="1.0" stroke="rgb(0,0,0)"  stroke-width="3"/>
<line x1="176.9" y1="267.3" x2="137.6" y2="268.1" opacity="1.0" stroke="rgb(0,0,0)"  stroke-width="3"/>
<line x1="137.6" y1="268.1" x2="118.6" y2="302.5" opacity="1.0" stroke="rgb(0,0,0)"  stroke-width="3"/>
<line x1="141.0" y1="276.8" x2="127.8" y2="300.7" opacity="1.0" stroke="rgb(0,0,0)"  stroke-width="3"/>
<line x1="118.6" y1="302.5" x2="138.9" y2="336.1" opacity="1.0" stroke="rgb(0,0,0)"  stroke-width="3"/>
<line x1="490.3" y1="299.8" x2="470.0" y2="266.2" opacity="1.0" stroke="rgb(0,0,0)"  stroke-width="3"/>
<line x1="481.1" y1="298.4" x2="467.0" y2="275.0" opacity="1.0" stroke="rgb(0,0,0)"  stroke-width="3"/>
<line x1="470.0" y1="266.2" x2="430.7" y2="266.9" opacity="1.0" stroke="rgb(0,0,0)"  stroke-width="3"/>
<line x1="411.7" y1="301.3" x2="432.0" y2="335.0" opacity="1.0" stroke="rgb(0,0,0)"  stroke-width="3"/>
<line x1="432.0" y1="335.0" x2="471.3" y2="334.2" opacity="1.0" stroke="rgb(0,0,0)"  stroke-width="3"/>
<line x1="437.9" y1="327.7" x2="465.2" y2="327.2" opacity="1.0" stroke="rgb(0,0,0)"  stroke-width="3"/>
<line x1="471.3" y1="334.2" x2="490.3" y2="299.8" opacity="1.0" stroke="rgb(0,0,0)"  stroke-width="3"/>
<line x1="375.0" y1="176.6" x2="339.4" y2="193.2" opacity="1.0" stroke="rgb(0,0,0)"  stroke-width="3"/>
<line x1="339.4" y1="193.2" x2="336.0" y2="232.4" opacity="1.0" stroke="rgb(0,0,0)"  stroke-width="3"/>
<line x1="346.0" y1="199.8" x2="343.7" y2="227.0" opacity="1.0" stroke="rgb(0,0,0)"  stroke-width="3"/>
<line x1="403.9" y1="238.2" x2="407.2" y2="199.0" opacity="1.0" stroke="rgb(0,0,0)"  stroke-width="3"/>
<line x1="490.0" y1="115.9" x2="451.4" y2="108.5" opacity="1.0" stroke="rgb(0,0,0)"  stroke-width="3"/>
<line x1="482.8" y1="121.8" x2="456.0" y2="116.7" opacity="1.0" stroke="rgb(0,0,0)"  stroke-width="3"/>
<line x1="451.4" y1="108.5" x2="425.7" y2="138.2" opacity="1.0" stroke="rgb(0,0,0)"  stroke-width="3"/>
<line x1="438.6" y1="175.3" x2="477.2" y2="182.8" opacity="1.0" stroke="rgb(0,0,0)"  stroke-width="3"/>
<line x1="477.2" y1="182.8" x2="502.9" y2="153.0" opacity="1.0" stroke="rgb(0,0,0)"  stroke-width="3"/>
<line x1="475.7" y1="173.5" x2="493.5" y2="152.9" opacity="1.0" stroke="rgb(0,0,0)"  stroke-width="3"/>
<line x1="502.9" y1="153.0" x2="490.0" y2="115.9" opacity="1.0" stroke="rgb(0,0,0)"  stroke-width="3"/>
<line x1="200.8" y1="236.1" x2="200.1" y2="196.7" opacity="1.0" stroke="rgb(0,0,0)"  stroke-width="3"/>
<line x1="207.9" y1="229.9" x2="207.4" y2="202.6" opacity="1.0" stroke="rgb(0,0,0)"  stroke-width="3"/>
<line x1="200.1" y1="196.7" x2="233.8" y2="176.5" opacity="1.0" stroke="rgb(0,0,0)"  stroke-width="3"/>
<line x1="233.8" y1="176.5" x2="268.2" y2="195.6" opacity="1.0" stroke="rgb(0,0,0)"  stroke-width="3"/>
<line x1="235.6" y1="185.7" x2="259.5" y2="198.9" opacity="1.0" stroke="rgb(0,0,0)"  stroke-width="3"/>
<line x1="268.2" y1="195.6" x2="268.9" y2="234.9" opacity="1.0" stroke="rgb(0,0,0)"  stroke-width="3"/>
<line x1="378.0" y1="71.4" x2="354.2" y2="40.0" opacity="1.0" stroke="rgb(0,0,0)"  stroke-width="3"/>
<line x1="354.2" y1="40.0" x2="315.2" y2="44.9" opacity="1.0" stroke="rgb(0,0,0)"  stroke-width="3"/>
<line x1="349.2" y1="47.9" x2="322.1" y2="51.3" opacity="1.0" stroke="rgb(0,0,0)"  stroke-width="3"/>
<line x1="315.2" y1="44.9" x2="299.9" y2="81.1" opacity="1.0" stroke="rgb(0,0,0)"  stroke-width="3"/>
<line x1="299.9" y1="81.1" x2="323.7" y2="112.4" opacity="1.0" stroke="rgb(0,0,0)"  stroke-width="3"/>
<line x1="309.3" y1="81.5" x2="325.8" y2="103.3" opacity="1.0" stroke="rgb(0,0,0)"  stroke-width="3"/>
<line x1="323.7" y1="112.4" x2="362.7" y2="107.6" opacity="1.0" stroke="rgb(0,0,0)"  stroke-width="3"/>
<line x1="362.7" y1="107.6" x2="378.0" y2="71.4" opacity="1.0" stroke="rgb(0,0,0)"  stroke-width="3"/>
<line x1="358.4" y1="99.2" x2="369.0" y2="74.1" opacity="1.0" stroke="rgb(0,0,0)"  stroke-width="3"/>
<line x1="270.9" y1="490.4" x2="270.9" y2="529.7" opacity="1.0" stroke="rgb(0,0,0)"  stroke-width="3"/>
<line x1="270.9" y1="529.7" x2="304.9" y2="549.4" opacity="1.0" stroke="rgb(0,0,0)"  stroke-width="3"/>
<line x1="279.7" y1="526.5" x2="303.3" y2="540.2" opacity="1.0" stroke="rgb(0,0,0)"  stroke-width="3"/>
<line x1="304.9" y1="549.4" x2="339.0" y2="529.7" opacity="1.0" stroke="rgb(0,0,0)"  stroke-width="3"/>
<line x1="339.0" y1="529.7" x2="339.0" y2="490.4" opacity="1.0" stroke="rgb(0,0,0)"  stroke-width="3"/>
<line x1="331.8" y1="523.7" x2="331.8" y2="496.4" opacity="1.0" stroke="rgb(0,0,0)"  stroke-width="3"/>
<line x1="339.0" y1="490.4" x2="304.9" y2="470.8" opacity="1.0" stroke="rgb(0,0,0)"  stroke-width="3"/>
<line x1="304.9" y1="470.8" x2="270.9" y2="490.4" opacity="1.0" stroke="rgb(0,0,0)"  stroke-width="3"/>
<line x1="303.3" y1="480.0" x2="279.7" y2="493.7" opacity="1.0" stroke="rgb(0,0,0)"  stroke-width="3"/>
<line x1="407.1" y1="490.4" x2="441.1" y2="470.8" opacity="1.0" stroke="rgb(0,0,0)"  stroke-width="3"/>
<line x1="441.1" y1="470.8" x2="441.1" y2="431.4" opacity="1.0" stroke="rgb(0,0,0)"  stroke-width="3"/>
<line x1="433.9" y1="464.8" x2="433.9" y2="437.4" opacity="1.0" stroke="rgb(0,0,0)"  stroke-width="3"/>
<line x1="441.1" y1="431.4" x2="407.1" y2="411.8" opacity="1.0" stroke="rgb(0,0,0)"  stroke-width="3"/>
<line x1="407.1" y1="411.8" x2="373.0" y2="431.4" opacity="1.0" stroke="rgb(0,0,0)"  stroke-width="3"/>
<line x1="405.5" y1="421.0" x2="381.8" y2="434.7" opacity="1.0" stroke="rgb(0,0,0)"  stroke-width="3"/>
<line x1="373.0" y1="431.4" x2="373.0" y2="470.8" opacity="1.0" stroke="rgb(0,0,0)"  stroke-width="3"/>
<line x1="373.0" y1="470.8" x2="407.1" y2="490.4" opacity="1.0" stroke="rgb(0,0,0)"  stroke-width="3"/>
<line x1="381.8" y1="467.5" x2="405.5" y2="481.2" opacity="1.0" stroke="rgb(0,0,0)"  stroke-width="3"/>
<text x="380.389691" y="146.931885" fill="rgb(12,12,255)" stroke-width="0" font-weight="bold" font-size="25.92" >N</text>
<text x="230.021499" y="302.426234" fill="rgb(12,12,255)" stroke-width="0" font-weight="bold" font-size="25.92" >N</text>
<text x="367.116757" y="301.913049" fill="rgb(12,12,255)" stroke-width="0" font-weight="bold" font-size="25.92" >N</text>
<text x="297.199057" y="262.074114" fill="rgb(255,181,181)" stroke-width="0" font-weight="bold" font-size="25.92" >B</text>
</svg>
</g>
</svg>
