<?xml version="1.0"?>
<svg version="1.1" id="topsvg"
xmlns="http://www.w3.org/2000/svg" xmlns:xlink="http://www.w3.org/1999/xlink"
xmlns:cml="http://www.xml-cml.org/schema" x="0" y="0" width="200px" height="200px" viewBox="0 0 100 100">
<title>GD71.sdf - Open Babel Depiction</title>
<rect x="0" y="0" width="100" height="100" fill="white"/>
<g transform="translate(0,0)">
<svg width="100" height="100" x="0" y="0" viewBox="0 0 582.559 533.701"
font-family="sans-serif" stroke="rgb(0,0,0)" stroke-width="3"  stroke-linecap="round">
<line x1="446.4" y1="155.8" x2="470.6" y2="166.6" opacity="1.0" stroke="rgb(0,0,0)"  stroke-width="3"/>
<line x1="320.6" y1="319.5" x2="383.4" y2="355.8" opacity="1.0" stroke="rgb(0,0,0)"  stroke-width="3"/>
<line x1="417.5" y1="414.9" x2="417.5" y2="454.3" opacity="1.0" stroke="rgb(0,0,0)"  stroke-width="3"/>
<line x1="417.5" y1="454.3" x2="417.5" y2="493.7" opacity="1.0" stroke="rgb(0,0,0)"  stroke-width="3"/>
<line x1="417.5" y1="454.3" x2="383.4" y2="474.0" opacity="1.0" stroke="rgb(0,0,0)"  stroke-width="3"/>
<line x1="417.5" y1="454.3" x2="451.7" y2="474.0" opacity="1.0" stroke="rgb(0,0,0)"  stroke-width="3"/>
<line x1="451.7" y1="355.8" x2="485.8" y2="336.1" opacity="1.0" stroke="rgb(0,0,0)"  stroke-width="3"/>
<line x1="485.8" y1="336.1" x2="519.9" y2="316.4" opacity="1.0" stroke="rgb(0,0,0)"  stroke-width="3"/>
<line x1="485.8" y1="336.1" x2="519.9" y2="355.8" opacity="1.0" stroke="rgb(0,0,0)"  stroke-width="3"/>
<line x1="485.8" y1="336.1" x2="485.8" y2="296.7" opacity="1.0" stroke="rgb(0,0,0)"  stroke-width="3"/>
<line x1="157.6" y1="240.7" x2="180.7" y2="208.8" opacity="1.0" stroke="rgb(0,0,0)"  stroke-width="3"/>
<line x1="180.7" y1="208.8" x2="218.2" y2="221.0" opacity="1.0" stroke="rgb(0,0,0)"  stroke-width="3"/>
<line x1="218.2" y1="221.0" x2="218.2" y2="247.4" opacity="1.0" stroke="rgb(0,0,0)"  stroke-width="3"/>
<line x1="205.9" y1="264.4" x2="180.7" y2="272.6" opacity="1.0" stroke="rgb(0,0,0)"  stroke-width="3"/>
<line x1="180.7" y1="272.6" x2="157.6" y2="240.7" opacity="1.0" stroke="rgb(0,0,0)"  stroke-width="3"/>
<line x1="183.0" y1="263.5" x2="166.9" y2="241.3" opacity="1.0" stroke="rgb(0,0,0)"  stroke-width="3"/>
<line x1="415.4" y1="240.7" x2="392.2" y2="208.8" opacity="1.0" stroke="rgb(0,0,0)"  stroke-width="3"/>
<line x1="392.2" y1="208.8" x2="354.7" y2="221.0" opacity="1.0" stroke="rgb(0,0,0)"  stroke-width="3"/>
<line x1="388.7" y1="217.5" x2="362.7" y2="226.0" opacity="1.0" stroke="rgb(0,0,0)"  stroke-width="3"/>
<line x1="354.7" y1="221.0" x2="354.7" y2="247.4" opacity="1.0" stroke="rgb(0,0,0)"  stroke-width="3"/>
<line x1="367.1" y1="264.4" x2="392.2" y2="272.6" opacity="1.0" stroke="rgb(0,0,0)"  stroke-width="3"/>
<line x1="392.2" y1="272.6" x2="415.4" y2="240.7" opacity="1.0" stroke="rgb(0,0,0)"  stroke-width="3"/>
<line x1="389.9" y1="263.5" x2="406.0" y2="241.3" opacity="1.0" stroke="rgb(0,0,0)"  stroke-width="3"/>
<line x1="426.4" y1="112.0" x2="387.2" y2="107.9" opacity="1.0" stroke="rgb(0,0,0)"  stroke-width="3"/>
<line x1="419.6" y1="118.5" x2="392.4" y2="115.7" opacity="1.0" stroke="rgb(0,0,0)"  stroke-width="3"/>
<line x1="387.2" y1="107.9" x2="371.1" y2="143.9" opacity="1.0" stroke="rgb(0,0,0)"  stroke-width="3"/>
<line x1="371.1" y1="143.9" x2="400.4" y2="170.3" opacity="1.0" stroke="rgb(0,0,0)"  stroke-width="3"/>
<line x1="380.4" y1="142.6" x2="400.8" y2="160.9" opacity="1.0" stroke="rgb(0,0,0)"  stroke-width="3"/>
<line x1="400.4" y1="170.3" x2="423.3" y2="157.1" opacity="1.0" stroke="rgb(0,0,0)"  stroke-width="3"/>
<line x1="431.8" y1="137.8" x2="426.4" y2="112.0" opacity="1.0" stroke="rgb(0,0,0)"  stroke-width="3"/>
<line x1="252.4" y1="319.5" x2="286.5" y2="339.2" opacity="1.0" stroke="rgb(0,0,0)"  stroke-width="3"/>
<line x1="286.5" y1="339.2" x2="320.6" y2="319.5" opacity="1.0" stroke="rgb(0,0,0)"  stroke-width="3"/>
<line x1="288.1" y1="330.0" x2="311.8" y2="316.3" opacity="1.0" stroke="rgb(0,0,0)"  stroke-width="3"/>
<line x1="320.6" y1="319.5" x2="320.6" y2="280.1" opacity="1.0" stroke="rgb(0,0,0)"  stroke-width="3"/>
<line x1="320.6" y1="280.1" x2="286.5" y2="260.4" opacity="1.0" stroke="rgb(0,0,0)"  stroke-width="3"/>
<line x1="311.8" y1="283.3" x2="288.1" y2="269.6" opacity="1.0" stroke="rgb(0,0,0)"  stroke-width="3"/>
<line x1="286.5" y1="260.4" x2="252.4" y2="280.1" opacity="1.0" stroke="rgb(0,0,0)"  stroke-width="3"/>
<line x1="252.4" y1="280.1" x2="252.4" y2="319.5" opacity="1.0" stroke="rgb(0,0,0)"  stroke-width="3"/>
<line x1="259.6" y1="286.1" x2="259.6" y2="313.5" opacity="1.0" stroke="rgb(0,0,0)"  stroke-width="3"/>
<line x1="286.5" y1="234.0" x2="286.5" y2="260.4" opacity="1.0" stroke="rgb(0,0,0)"  stroke-width="3"/>
<line x1="252.4" y1="280.1" x2="229.5" y2="266.9" opacity="1.0" stroke="rgb(0,0,0)"  stroke-width="3"/>
<line x1="218.2" y1="221.0" x2="252.4" y2="201.3" opacity="1.0" stroke="rgb(0,0,0)"  stroke-width="3"/>
<line x1="227.0" y1="224.2" x2="250.8" y2="210.5" opacity="1.0" stroke="rgb(0,0,0)"  stroke-width="3"/>
<line x1="252.4" y1="201.3" x2="275.2" y2="214.5" opacity="1.0" stroke="rgb(0,0,0)"  stroke-width="3"/>
<line x1="150.0" y1="102.8" x2="184.1" y2="83.1" opacity="1.0" stroke="rgb(0,0,0)"  stroke-width="3"/>
<line x1="184.1" y1="83.1" x2="218.2" y2="102.8" opacity="1.0" stroke="rgb(0,0,0)"  stroke-width="3"/>
<line x1="185.7" y1="92.3" x2="209.4" y2="106.0" opacity="1.0" stroke="rgb(0,0,0)"  stroke-width="3"/>
<line x1="218.2" y1="102.8" x2="218.2" y2="142.2" opacity="1.0" stroke="rgb(0,0,0)"  stroke-width="3"/>
<line x1="218.2" y1="142.2" x2="184.1" y2="161.9" opacity="1.0" stroke="rgb(0,0,0)"  stroke-width="3"/>
<line x1="184.1" y1="161.9" x2="150.0" y2="142.2" opacity="1.0" stroke="rgb(0,0,0)"  stroke-width="3"/>
<line x1="150.0" y1="142.2" x2="150.0" y2="102.8" opacity="1.0" stroke="rgb(0,0,0)"  stroke-width="3"/>
<line x1="157.2" y1="136.2" x2="157.2" y2="108.8" opacity="1.0" stroke="rgb(0,0,0)"  stroke-width="3"/>
<line x1="354.7" y1="221.0" x2="320.6" y2="201.3" opacity="1.0" stroke="rgb(0,0,0)"  stroke-width="3"/>
<line x1="320.6" y1="201.3" x2="297.7" y2="214.5" opacity="1.0" stroke="rgb(0,0,0)"  stroke-width="3"/>
<line x1="320.6" y1="280.1" x2="343.5" y2="266.9" opacity="1.0" stroke="rgb(0,0,0)"  stroke-width="3"/>
<line x1="125.5" y1="312.7" x2="164.7" y2="308.6" opacity="1.0" stroke="rgb(0,0,0)"  stroke-width="3"/>
<line x1="130.7" y1="304.9" x2="158.0" y2="302.0" opacity="1.0" stroke="rgb(0,0,0)"  stroke-width="3"/>
<line x1="164.7" y1="308.6" x2="180.7" y2="272.6" opacity="1.0" stroke="rgb(0,0,0)"  stroke-width="3"/>
<line x1="157.6" y1="240.7" x2="118.4" y2="244.8" opacity="1.0" stroke="rgb(0,0,0)"  stroke-width="3"/>
<line x1="118.4" y1="244.8" x2="102.4" y2="280.8" opacity="1.0" stroke="rgb(0,0,0)"  stroke-width="3"/>
<line x1="122.5" y1="253.2" x2="111.4" y2="278.3" opacity="1.0" stroke="rgb(0,0,0)"  stroke-width="3"/>
<line x1="102.4" y1="280.8" x2="125.5" y2="312.7" opacity="1.0" stroke="rgb(0,0,0)"  stroke-width="3"/>
<line x1="470.6" y1="280.8" x2="454.6" y2="244.8" opacity="1.0" stroke="rgb(0,0,0)"  stroke-width="3"/>
<line x1="461.6" y1="278.3" x2="450.4" y2="253.2" opacity="1.0" stroke="rgb(0,0,0)"  stroke-width="3"/>
<line x1="454.6" y1="244.8" x2="415.4" y2="240.7" opacity="1.0" stroke="rgb(0,0,0)"  stroke-width="3"/>
<line x1="392.2" y1="272.6" x2="408.3" y2="308.6" opacity="1.0" stroke="rgb(0,0,0)"  stroke-width="3"/>
<line x1="408.3" y1="308.6" x2="447.5" y2="312.7" opacity="1.0" stroke="rgb(0,0,0)"  stroke-width="3"/>
<line x1="415.0" y1="302.0" x2="442.2" y2="304.9" opacity="1.0" stroke="rgb(0,0,0)"  stroke-width="3"/>
<line x1="447.5" y1="312.7" x2="470.6" y2="280.8" opacity="1.0" stroke="rgb(0,0,0)"  stroke-width="3"/>
<line x1="371.1" y1="143.9" x2="333.7" y2="156.1" opacity="1.0" stroke="rgb(0,0,0)"  stroke-width="3"/>
<line x1="333.7" y1="156.1" x2="320.6" y2="201.3" opacity="1.0" stroke="rgb(0,0,0)"  stroke-width="3"/>
<line x1="338.9" y1="163.8" x2="329.2" y2="197.5" opacity="1.0" stroke="rgb(0,0,0)"  stroke-width="3"/>
<line x1="392.2" y1="208.8" x2="400.4" y2="170.3" opacity="1.0" stroke="rgb(0,0,0)"  stroke-width="3"/>
<line x1="180.7" y1="208.8" x2="184.1" y2="161.9" opacity="1.0" stroke="rgb(0,0,0)"  stroke-width="3"/>
<line x1="188.4" y1="203.3" x2="190.9" y2="168.4" opacity="1.0" stroke="rgb(0,0,0)"  stroke-width="3"/>
<line x1="218.2" y1="142.2" x2="252.4" y2="161.9" opacity="1.0" stroke="rgb(0,0,0)"  stroke-width="3"/>
<line x1="219.8" y1="151.4" x2="243.6" y2="165.1" opacity="1.0" stroke="rgb(0,0,0)"  stroke-width="3"/>
<line x1="252.4" y1="161.9" x2="252.4" y2="201.3" opacity="1.0" stroke="rgb(0,0,0)"  stroke-width="3"/>
<line x1="40.0" y1="253.0" x2="63.2" y2="284.9" opacity="1.0" stroke="rgb(0,0,0)"  stroke-width="3"/>
<line x1="49.4" y1="253.7" x2="65.5" y2="275.8" opacity="1.0" stroke="rgb(0,0,0)"  stroke-width="3"/>
<line x1="63.2" y1="284.9" x2="102.4" y2="280.8" opacity="1.0" stroke="rgb(0,0,0)"  stroke-width="3"/>
<line x1="118.4" y1="244.8" x2="95.2" y2="212.9" opacity="1.0" stroke="rgb(0,0,0)"  stroke-width="3"/>
<line x1="95.2" y1="212.9" x2="56.0" y2="217.0" opacity="1.0" stroke="rgb(0,0,0)"  stroke-width="3"/>
<line x1="90.0" y1="220.7" x2="62.7" y2="223.6" opacity="1.0" stroke="rgb(0,0,0)"  stroke-width="3"/>
<line x1="56.0" y1="217.0" x2="40.0" y2="253.0" opacity="1.0" stroke="rgb(0,0,0)"  stroke-width="3"/>
<line x1="394.3" y1="40.0" x2="371.1" y2="71.9" opacity="1.0" stroke="rgb(0,0,0)"  stroke-width="3"/>
<line x1="396.6" y1="49.1" x2="380.5" y2="71.3" opacity="1.0" stroke="rgb(0,0,0)"  stroke-width="3"/>
<line x1="371.1" y1="71.9" x2="387.2" y2="107.9" opacity="1.0" stroke="rgb(0,0,0)"  stroke-width="3"/>
<line x1="426.4" y1="112.0" x2="449.5" y2="80.1" opacity="1.0" stroke="rgb(0,0,0)"  stroke-width="3"/>
<line x1="449.5" y1="80.1" x2="433.5" y2="44.1" opacity="1.0" stroke="rgb(0,0,0)"  stroke-width="3"/>
<line x1="440.5" y1="77.6" x2="429.4" y2="52.5" opacity="1.0" stroke="rgb(0,0,0)"  stroke-width="3"/>
<line x1="433.5" y1="44.1" x2="394.3" y2="40.0" opacity="1.0" stroke="rgb(0,0,0)"  stroke-width="3"/>
<line x1="474.7" y1="205.8" x2="510.7" y2="221.8" opacity="1.0" stroke="rgb(0,0,0)"  stroke-width="3"/>
<line x1="510.7" y1="221.8" x2="542.6" y2="198.6" opacity="1.0" stroke="rgb(0,0,0)"  stroke-width="3"/>
<line x1="511.3" y1="212.5" x2="533.5" y2="196.3" opacity="1.0" stroke="rgb(0,0,0)"  stroke-width="3"/>
<line x1="542.6" y1="198.6" x2="538.4" y2="159.4" opacity="1.0" stroke="rgb(0,0,0)"  stroke-width="3"/>
<line x1="538.4" y1="159.4" x2="502.4" y2="143.4" opacity="1.0" stroke="rgb(0,0,0)"  stroke-width="3"/>
<line x1="530.0" y1="163.6" x2="505.0" y2="152.4" opacity="1.0" stroke="rgb(0,0,0)"  stroke-width="3"/>
<line x1="502.4" y1="143.4" x2="470.6" y2="166.6" opacity="1.0" stroke="rgb(0,0,0)"  stroke-width="3"/>
<line x1="470.6" y1="166.6" x2="474.7" y2="205.8" opacity="1.0" stroke="rgb(0,0,0)"  stroke-width="3"/>
<line x1="478.3" y1="171.8" x2="481.2" y2="199.1" opacity="1.0" stroke="rgb(0,0,0)"  stroke-width="3"/>
<line x1="383.4" y1="395.2" x2="417.5" y2="414.9" opacity="1.0" stroke="rgb(0,0,0)"  stroke-width="3"/>
<line x1="417.5" y1="414.9" x2="451.7" y2="395.2" opacity="1.0" stroke="rgb(0,0,0)"  stroke-width="3"/>
<line x1="419.1" y1="405.6" x2="442.9" y2="391.9" opacity="1.0" stroke="rgb(0,0,0)"  stroke-width="3"/>
<line x1="451.7" y1="395.2" x2="451.7" y2="355.8" opacity="1.0" stroke="rgb(0,0,0)"  stroke-width="3"/>
<line x1="451.7" y1="355.8" x2="417.5" y2="336.1" opacity="1.0" stroke="rgb(0,0,0)"  stroke-width="3"/>
<line x1="442.9" y1="359.0" x2="419.1" y2="345.3" opacity="1.0" stroke="rgb(0,0,0)"  stroke-width="3"/>
<line x1="417.5" y1="336.1" x2="383.4" y2="355.8" opacity="1.0" stroke="rgb(0,0,0)"  stroke-width="3"/>
<line x1="383.4" y1="355.8" x2="383.4" y2="395.2" opacity="1.0" stroke="rgb(0,0,0)"  stroke-width="3"/>
<line x1="390.6" y1="361.8" x2="390.6" y2="389.2" opacity="1.0" stroke="rgb(0,0,0)"  stroke-width="3"/>
<text x="348.746809" y="268.395490" fill="rgb(12,12,255)" stroke-width="0" font-weight="bold" font-size="25.92" >N</text>
<text x="212.227212" y="268.395490" fill="rgb(12,12,255)" stroke-width="0" font-weight="bold" font-size="25.92" >N</text>
<text x="280.486986" y="228.985729" fill="rgb(255,181,181)" stroke-width="0" font-weight="bold" font-size="25.92" >B</text>
<text x="428.551412" y="158.553932" fill="rgb(12,12,255)" stroke-width="0" font-weight="bold" font-size="25.92" >N</text>
</svg>
</g>
</svg>
