<?xml version="1.0"?>
<svg version="1.1" id="topsvg"
xmlns="http://www.w3.org/2000/svg" xmlns:xlink="http://www.w3.org/1999/xlink"
xmlns:cml="http://www.xml-cml.org/schema" x="0" y="0" width="200px" height="200px" viewBox="0 0 100 100">
<title>GD72.sdf - Open Babel Depiction</title>
<rect x="0" y="0" width="100" height="100" fill="white"/>
<g transform="translate(0,0)">
<svg width="100" height="100" x="0" y="0" viewBox="0 0 581.403 536.432"
font-family="sans-serif" stroke="rgb(0,0,0)" stroke-width="3"  stroke-linecap="round">
<line x1="445.5" y1="155.6" x2="469.6" y2="166.3" opacity="1.0" stroke="rgb(0,0,0)"  stroke-width="3"/>
<line x1="251.9" y1="318.9" x2="182.7" y2="358.8" opacity="1.0" stroke="rgb(0,0,0)"  stroke-width="3"/>
<line x1="114.6" y1="358.8" x2="80.5" y2="339.2" opacity="1.0" stroke="rgb(0,0,0)"  stroke-width="3"/>
<line x1="80.5" y1="339.2" x2="46.5" y2="319.5" opacity="1.0" stroke="rgb(0,0,0)"  stroke-width="3"/>
<line x1="80.5" y1="339.2" x2="46.5" y2="358.8" opacity="1.0" stroke="rgb(0,0,0)"  stroke-width="3"/>
<line x1="80.5" y1="339.2" x2="80.5" y2="299.8" opacity="1.0" stroke="rgb(0,0,0)"  stroke-width="3"/>
<line x1="148.6" y1="417.8" x2="148.6" y2="457.1" opacity="1.0" stroke="rgb(0,0,0)"  stroke-width="3"/>
<line x1="148.6" y1="457.1" x2="148.6" y2="496.4" opacity="1.0" stroke="rgb(0,0,0)"  stroke-width="3"/>
<line x1="148.6" y1="457.1" x2="114.6" y2="476.8" opacity="1.0" stroke="rgb(0,0,0)"  stroke-width="3"/>
<line x1="148.6" y1="457.1" x2="182.7" y2="476.8" opacity="1.0" stroke="rgb(0,0,0)"  stroke-width="3"/>
<line x1="157.3" y1="240.2" x2="180.4" y2="208.4" opacity="1.0" stroke="rgb(0,0,0)"  stroke-width="3"/>
<line x1="180.4" y1="208.4" x2="217.8" y2="220.6" opacity="1.0" stroke="rgb(0,0,0)"  stroke-width="3"/>
<line x1="217.8" y1="220.6" x2="217.8" y2="246.9" opacity="1.0" stroke="rgb(0,0,0)"  stroke-width="3"/>
<line x1="205.5" y1="263.9" x2="180.4" y2="272.0" opacity="1.0" stroke="rgb(0,0,0)"  stroke-width="3"/>
<line x1="180.4" y1="272.0" x2="157.3" y2="240.2" opacity="1.0" stroke="rgb(0,0,0)"  stroke-width="3"/>
<line x1="182.7" y1="263.0" x2="166.7" y2="240.9" opacity="1.0" stroke="rgb(0,0,0)"  stroke-width="3"/>
<line x1="414.5" y1="240.2" x2="391.4" y2="208.4" opacity="1.0" stroke="rgb(0,0,0)"  stroke-width="3"/>
<line x1="391.4" y1="208.4" x2="354.0" y2="220.6" opacity="1.0" stroke="rgb(0,0,0)"  stroke-width="3"/>
<line x1="387.9" y1="217.1" x2="362.0" y2="225.6" opacity="1.0" stroke="rgb(0,0,0)"  stroke-width="3"/>
<line x1="354.0" y1="220.6" x2="354.0" y2="246.9" opacity="1.0" stroke="rgb(0,0,0)"  stroke-width="3"/>
<line x1="366.4" y1="263.9" x2="391.4" y2="272.0" opacity="1.0" stroke="rgb(0,0,0)"  stroke-width="3"/>
<line x1="391.4" y1="272.0" x2="414.5" y2="240.2" opacity="1.0" stroke="rgb(0,0,0)"  stroke-width="3"/>
<line x1="389.1" y1="263.0" x2="405.2" y2="240.9" opacity="1.0" stroke="rgb(0,0,0)"  stroke-width="3"/>
<line x1="425.5" y1="111.8" x2="386.4" y2="107.7" opacity="1.0" stroke="rgb(0,0,0)"  stroke-width="3"/>
<line x1="418.7" y1="118.4" x2="391.6" y2="115.5" opacity="1.0" stroke="rgb(0,0,0)"  stroke-width="3"/>
<line x1="386.4" y1="107.7" x2="370.4" y2="143.6" opacity="1.0" stroke="rgb(0,0,0)"  stroke-width="3"/>
<line x1="370.4" y1="143.6" x2="399.6" y2="170.0" opacity="1.0" stroke="rgb(0,0,0)"  stroke-width="3"/>
<line x1="379.6" y1="142.3" x2="400.0" y2="160.6" opacity="1.0" stroke="rgb(0,0,0)"  stroke-width="3"/>
<line x1="399.6" y1="170.0" x2="422.4" y2="156.8" opacity="1.0" stroke="rgb(0,0,0)"  stroke-width="3"/>
<line x1="430.9" y1="137.6" x2="425.5" y2="111.8" opacity="1.0" stroke="rgb(0,0,0)"  stroke-width="3"/>
<line x1="251.9" y1="318.9" x2="285.9" y2="338.5" opacity="1.0" stroke="rgb(0,0,0)"  stroke-width="3"/>
<line x1="285.9" y1="338.5" x2="320.0" y2="318.9" opacity="1.0" stroke="rgb(0,0,0)"  stroke-width="3"/>
<line x1="287.5" y1="329.3" x2="311.2" y2="315.6" opacity="1.0" stroke="rgb(0,0,0)"  stroke-width="3"/>
<line x1="320.0" y1="318.9" x2="320.0" y2="279.5" opacity="1.0" stroke="rgb(0,0,0)"  stroke-width="3"/>
<line x1="320.0" y1="279.5" x2="285.9" y2="259.9" opacity="1.0" stroke="rgb(0,0,0)"  stroke-width="3"/>
<line x1="311.2" y1="282.8" x2="287.5" y2="269.1" opacity="1.0" stroke="rgb(0,0,0)"  stroke-width="3"/>
<line x1="285.9" y1="259.9" x2="251.9" y2="279.5" opacity="1.0" stroke="rgb(0,0,0)"  stroke-width="3"/>
<line x1="251.9" y1="279.5" x2="251.9" y2="318.9" opacity="1.0" stroke="rgb(0,0,0)"  stroke-width="3"/>
<line x1="259.1" y1="285.5" x2="259.1" y2="312.9" opacity="1.0" stroke="rgb(0,0,0)"  stroke-width="3"/>
<line x1="285.9" y1="233.6" x2="285.9" y2="259.9" opacity="1.0" stroke="rgb(0,0,0)"  stroke-width="3"/>
<line x1="251.9" y1="279.5" x2="229.1" y2="266.4" opacity="1.0" stroke="rgb(0,0,0)"  stroke-width="3"/>
<line x1="217.8" y1="220.6" x2="251.9" y2="200.9" opacity="1.0" stroke="rgb(0,0,0)"  stroke-width="3"/>
<line x1="226.6" y1="223.8" x2="250.3" y2="210.1" opacity="1.0" stroke="rgb(0,0,0)"  stroke-width="3"/>
<line x1="251.9" y1="200.9" x2="274.7" y2="214.1" opacity="1.0" stroke="rgb(0,0,0)"  stroke-width="3"/>
<line x1="149.7" y1="102.6" x2="183.8" y2="83.0" opacity="1.0" stroke="rgb(0,0,0)"  stroke-width="3"/>
<line x1="183.8" y1="83.0" x2="217.8" y2="102.6" opacity="1.0" stroke="rgb(0,0,0)"  stroke-width="3"/>
<line x1="185.4" y1="92.2" x2="209.0" y2="105.8" opacity="1.0" stroke="rgb(0,0,0)"  stroke-width="3"/>
<line x1="217.8" y1="102.6" x2="217.8" y2="141.9" opacity="1.0" stroke="rgb(0,0,0)"  stroke-width="3"/>
<line x1="217.8" y1="141.9" x2="183.8" y2="161.6" opacity="1.0" stroke="rgb(0,0,0)"  stroke-width="3"/>
<line x1="183.8" y1="161.6" x2="149.7" y2="141.9" opacity="1.0" stroke="rgb(0,0,0)"  stroke-width="3"/>
<line x1="149.7" y1="141.9" x2="149.7" y2="102.6" opacity="1.0" stroke="rgb(0,0,0)"  stroke-width="3"/>
<line x1="156.9" y1="135.9" x2="156.9" y2="108.6" opacity="1.0" stroke="rgb(0,0,0)"  stroke-width="3"/>
<line x1="354.0" y1="220.6" x2="320.0" y2="200.9" opacity="1.0" stroke="rgb(0,0,0)"  stroke-width="3"/>
<line x1="320.0" y1="200.9" x2="297.2" y2="214.1" opacity="1.0" stroke="rgb(0,0,0)"  stroke-width="3"/>
<line x1="320.0" y1="279.5" x2="342.8" y2="266.4" opacity="1.0" stroke="rgb(0,0,0)"  stroke-width="3"/>
<line x1="125.3" y1="312.1" x2="164.4" y2="308.0" opacity="1.0" stroke="rgb(0,0,0)"  stroke-width="3"/>
<line x1="130.5" y1="304.3" x2="157.7" y2="301.4" opacity="1.0" stroke="rgb(0,0,0)"  stroke-width="3"/>
<line x1="164.4" y1="308.0" x2="180.4" y2="272.0" opacity="1.0" stroke="rgb(0,0,0)"  stroke-width="3"/>
<line x1="157.3" y1="240.2" x2="118.2" y2="244.3" opacity="1.0" stroke="rgb(0,0,0)"  stroke-width="3"/>
<line x1="118.2" y1="244.3" x2="102.2" y2="280.3" opacity="1.0" stroke="rgb(0,0,0)"  stroke-width="3"/>
<line x1="122.3" y1="252.7" x2="111.2" y2="277.7" opacity="1.0" stroke="rgb(0,0,0)"  stroke-width="3"/>
<line x1="102.2" y1="280.3" x2="125.3" y2="312.1" opacity="1.0" stroke="rgb(0,0,0)"  stroke-width="3"/>
<line x1="469.6" y1="280.3" x2="453.6" y2="244.3" opacity="1.0" stroke="rgb(0,0,0)"  stroke-width="3"/>
<line x1="460.6" y1="277.7" x2="449.5" y2="252.7" opacity="1.0" stroke="rgb(0,0,0)"  stroke-width="3"/>
<line x1="453.6" y1="244.3" x2="414.5" y2="240.2" opacity="1.0" stroke="rgb(0,0,0)"  stroke-width="3"/>
<line x1="391.4" y1="272.0" x2="407.4" y2="308.0" opacity="1.0" stroke="rgb(0,0,0)"  stroke-width="3"/>
<line x1="407.4" y1="308.0" x2="446.5" y2="312.1" opacity="1.0" stroke="rgb(0,0,0)"  stroke-width="3"/>
<line x1="414.1" y1="301.4" x2="441.3" y2="304.3" opacity="1.0" stroke="rgb(0,0,0)"  stroke-width="3"/>
<line x1="446.5" y1="312.1" x2="469.6" y2="280.3" opacity="1.0" stroke="rgb(0,0,0)"  stroke-width="3"/>
<line x1="370.4" y1="143.6" x2="333.0" y2="155.8" opacity="1.0" stroke="rgb(0,0,0)"  stroke-width="3"/>
<line x1="333.0" y1="155.8" x2="320.0" y2="200.9" opacity="1.0" stroke="rgb(0,0,0)"  stroke-width="3"/>
<line x1="338.2" y1="163.6" x2="328.6" y2="197.1" opacity="1.0" stroke="rgb(0,0,0)"  stroke-width="3"/>
<line x1="391.4" y1="208.4" x2="399.6" y2="170.0" opacity="1.0" stroke="rgb(0,0,0)"  stroke-width="3"/>
<line x1="180.4" y1="208.4" x2="183.8" y2="161.6" opacity="1.0" stroke="rgb(0,0,0)"  stroke-width="3"/>
<line x1="188.0" y1="202.9" x2="190.5" y2="168.1" opacity="1.0" stroke="rgb(0,0,0)"  stroke-width="3"/>
<line x1="217.8" y1="141.9" x2="251.9" y2="161.6" opacity="1.0" stroke="rgb(0,0,0)"  stroke-width="3"/>
<line x1="219.4" y1="151.2" x2="243.1" y2="164.8" opacity="1.0" stroke="rgb(0,0,0)"  stroke-width="3"/>
<line x1="251.9" y1="161.6" x2="251.9" y2="200.9" opacity="1.0" stroke="rgb(0,0,0)"  stroke-width="3"/>
<line x1="40.0" y1="252.6" x2="63.1" y2="284.4" opacity="1.0" stroke="rgb(0,0,0)"  stroke-width="3"/>
<line x1="49.4" y1="253.2" x2="65.4" y2="275.3" opacity="1.0" stroke="rgb(0,0,0)"  stroke-width="3"/>
<line x1="63.1" y1="284.4" x2="102.2" y2="280.3" opacity="1.0" stroke="rgb(0,0,0)"  stroke-width="3"/>
<line x1="118.2" y1="244.3" x2="95.1" y2="212.5" opacity="1.0" stroke="rgb(0,0,0)"  stroke-width="3"/>
<line x1="95.1" y1="212.5" x2="56.0" y2="216.6" opacity="1.0" stroke="rgb(0,0,0)"  stroke-width="3"/>
<line x1="89.9" y1="220.3" x2="62.7" y2="223.2" opacity="1.0" stroke="rgb(0,0,0)"  stroke-width="3"/>
<line x1="56.0" y1="216.6" x2="40.0" y2="252.6" opacity="1.0" stroke="rgb(0,0,0)"  stroke-width="3"/>
<line x1="393.5" y1="40.0" x2="370.4" y2="71.8" opacity="1.0" stroke="rgb(0,0,0)"  stroke-width="3"/>
<line x1="395.8" y1="49.1" x2="379.7" y2="71.2" opacity="1.0" stroke="rgb(0,0,0)"  stroke-width="3"/>
<line x1="370.4" y1="71.8" x2="386.4" y2="107.7" opacity="1.0" stroke="rgb(0,0,0)"  stroke-width="3"/>
<line x1="425.5" y1="111.8" x2="448.6" y2="80.0" opacity="1.0" stroke="rgb(0,0,0)"  stroke-width="3"/>
<line x1="448.6" y1="80.0" x2="432.6" y2="44.1" opacity="1.0" stroke="rgb(0,0,0)"  stroke-width="3"/>
<line x1="439.6" y1="77.5" x2="428.4" y2="52.5" opacity="1.0" stroke="rgb(0,0,0)"  stroke-width="3"/>
<line x1="432.6" y1="44.1" x2="393.5" y2="40.0" opacity="1.0" stroke="rgb(0,0,0)"  stroke-width="3"/>
<line x1="473.7" y1="205.4" x2="509.6" y2="221.4" opacity="1.0" stroke="rgb(0,0,0)"  stroke-width="3"/>
<line x1="509.6" y1="221.4" x2="541.4" y2="198.3" opacity="1.0" stroke="rgb(0,0,0)"  stroke-width="3"/>
<line x1="510.2" y1="212.0" x2="532.3" y2="196.0" opacity="1.0" stroke="rgb(0,0,0)"  stroke-width="3"/>
<line x1="541.4" y1="198.3" x2="537.3" y2="159.2" opacity="1.0" stroke="rgb(0,0,0)"  stroke-width="3"/>
<line x1="537.3" y1="159.2" x2="501.4" y2="143.2" opacity="1.0" stroke="rgb(0,0,0)"  stroke-width="3"/>
<line x1="528.9" y1="163.3" x2="503.9" y2="152.2" opacity="1.0" stroke="rgb(0,0,0)"  stroke-width="3"/>
<line x1="501.4" y1="143.2" x2="469.6" y2="166.3" opacity="1.0" stroke="rgb(0,0,0)"  stroke-width="3"/>
<line x1="469.6" y1="166.3" x2="473.7" y2="205.4" opacity="1.0" stroke="rgb(0,0,0)"  stroke-width="3"/>
<line x1="477.4" y1="171.5" x2="480.2" y2="198.7" opacity="1.0" stroke="rgb(0,0,0)"  stroke-width="3"/>
<line x1="148.6" y1="339.2" x2="114.6" y2="358.8" opacity="1.0" stroke="rgb(0,0,0)"  stroke-width="3"/>
<line x1="114.6" y1="358.8" x2="114.6" y2="398.1" opacity="1.0" stroke="rgb(0,0,0)"  stroke-width="3"/>
<line x1="121.8" y1="364.8" x2="121.8" y2="392.1" opacity="1.0" stroke="rgb(0,0,0)"  stroke-width="3"/>
<line x1="114.6" y1="398.1" x2="148.6" y2="417.8" opacity="1.0" stroke="rgb(0,0,0)"  stroke-width="3"/>
<line x1="148.6" y1="417.8" x2="182.7" y2="398.1" opacity="1.0" stroke="rgb(0,0,0)"  stroke-width="3"/>
<line x1="150.2" y1="408.6" x2="173.9" y2="394.9" opacity="1.0" stroke="rgb(0,0,0)"  stroke-width="3"/>
<line x1="182.7" y1="398.1" x2="182.7" y2="358.8" opacity="1.0" stroke="rgb(0,0,0)"  stroke-width="3"/>
<line x1="182.7" y1="358.8" x2="148.6" y2="339.2" opacity="1.0" stroke="rgb(0,0,0)"  stroke-width="3"/>
<line x1="173.9" y1="362.1" x2="150.2" y2="348.4" opacity="1.0" stroke="rgb(0,0,0)"  stroke-width="3"/>
<text x="348.022297" y="267.888264" fill="rgb(12,12,255)" stroke-width="0" font-weight="bold" font-size="25.92" >N</text>
<text x="211.816938" y="267.888264" fill="rgb(12,12,255)" stroke-width="0" font-weight="bold" font-size="25.92" >N</text>
<text x="279.919617" y="228.569155" fill="rgb(255,181,181)" stroke-width="0" font-weight="bold" font-size="25.92" >B</text>
<text x="427.643234" y="158.299452" fill="rgb(12,12,255)" stroke-width="0" font-weight="bold" font-size="25.92" >N</text>
</svg>
</g>
</svg>
