<?xml version="1.0"?>
<svg version="1.1" id="topsvg"
xmlns="http://www.w3.org/2000/svg" xmlns:xlink="http://www.w3.org/1999/xlink"
xmlns:cml="http://www.xml-cml.org/schema" x="0" y="0" width="200px" height="200px" viewBox="0 0 100 100">
<title>GD73.sdf - Open Babel Depiction</title>
<rect x="0" y="0" width="100" height="100" fill="white"/>
<g transform="translate(0,0)">
<svg width="100" height="100" x="0" y="0" viewBox="0 0 530.617 508.447"
font-family="sans-serif" stroke="rgb(0,0,0)" stroke-width="3"  stroke-linecap="round">
<line x1="289.0" y1="308.3" x2="289.0" y2="335.4" opacity="1.0" stroke="rgb(0,0,0)"  stroke-width="3"/>
<line x1="277.8" y1="354.9" x2="254.4" y2="368.4" opacity="1.0" stroke="rgb(0,0,0)"  stroke-width="3"/>
<line x1="323.7" y1="368.4" x2="300.3" y2="354.9" opacity="1.0" stroke="rgb(0,0,0)"  stroke-width="3"/>
<line x1="185.1" y1="408.4" x2="150.4" y2="428.4" opacity="1.0" stroke="rgb(0,0,0)"  stroke-width="3"/>
<line x1="150.4" y1="428.4" x2="115.7" y2="448.4" opacity="1.0" stroke="rgb(0,0,0)"  stroke-width="3"/>
<line x1="150.4" y1="428.4" x2="150.4" y2="468.4" opacity="1.0" stroke="rgb(0,0,0)"  stroke-width="3"/>
<line x1="150.4" y1="428.4" x2="115.7" y2="408.4" opacity="1.0" stroke="rgb(0,0,0)"  stroke-width="3"/>
<line x1="393.2" y1="408.4" x2="427.9" y2="428.4" opacity="1.0" stroke="rgb(0,0,0)"  stroke-width="3"/>
<line x1="427.9" y1="428.4" x2="462.6" y2="448.4" opacity="1.0" stroke="rgb(0,0,0)"  stroke-width="3"/>
<line x1="427.9" y1="428.4" x2="427.9" y2="468.4" opacity="1.0" stroke="rgb(0,0,0)"  stroke-width="3"/>
<line x1="427.9" y1="428.4" x2="462.6" y2="408.4" opacity="1.0" stroke="rgb(0,0,0)"  stroke-width="3"/>
<line x1="158.7" y1="201.7" x2="183.0" y2="169.9" opacity="1.0" stroke="rgb(0,0,0)"  stroke-width="3"/>
<line x1="183.0" y1="169.9" x2="218.0" y2="189.3" opacity="1.0" stroke="rgb(0,0,0)"  stroke-width="3"/>
<line x1="218.0" y1="189.3" x2="218.6" y2="216.3" opacity="1.0" stroke="rgb(0,0,0)"  stroke-width="3"/>
<line x1="206.1" y1="231.5" x2="179.4" y2="236.0" opacity="1.0" stroke="rgb(0,0,0)"  stroke-width="3"/>
<line x1="179.4" y1="236.0" x2="158.7" y2="201.7" opacity="1.0" stroke="rgb(0,0,0)"  stroke-width="3"/>
<line x1="182.5" y1="227.1" x2="168.0" y2="203.1" opacity="1.0" stroke="rgb(0,0,0)"  stroke-width="3"/>
<line x1="417.1" y1="201.3" x2="389.8" y2="172.1" opacity="1.0" stroke="rgb(0,0,0)"  stroke-width="3"/>
<line x1="389.8" y1="172.1" x2="353.5" y2="189.1" opacity="1.0" stroke="rgb(0,0,0)"  stroke-width="3"/>
<line x1="387.4" y1="181.2" x2="362.0" y2="193.1" opacity="1.0" stroke="rgb(0,0,0)"  stroke-width="3"/>
<line x1="353.5" y1="189.1" x2="356.9" y2="215.9" opacity="1.0" stroke="rgb(0,0,0)"  stroke-width="3"/>
<line x1="371.2" y1="231.3" x2="397.8" y2="236.4" opacity="1.0" stroke="rgb(0,0,0)"  stroke-width="3"/>
<line x1="397.8" y1="236.4" x2="417.1" y2="201.3" opacity="1.0" stroke="rgb(0,0,0)"  stroke-width="3"/>
<line x1="394.4" y1="227.7" x2="407.9" y2="203.1" opacity="1.0" stroke="rgb(0,0,0)"  stroke-width="3"/>
<line x1="412.0" y1="70.3" x2="385.0" y2="70.8" opacity="1.0" stroke="rgb(0,0,0)"  stroke-width="3"/>
<line x1="368.2" y1="83.5" x2="360.3" y2="109.3" opacity="1.0" stroke="rgb(0,0,0)"  stroke-width="3"/>
<line x1="360.3" y1="109.3" x2="393.2" y2="132.2" opacity="1.0" stroke="rgb(0,0,0)"  stroke-width="3"/>
<line x1="369.4" y1="106.9" x2="392.4" y2="122.9" opacity="1.0" stroke="rgb(0,0,0)"  stroke-width="3"/>
<line x1="393.2" y1="132.2" x2="425.1" y2="108.1" opacity="1.0" stroke="rgb(0,0,0)"  stroke-width="3"/>
<line x1="425.1" y1="108.1" x2="412.0" y2="70.3" opacity="1.0" stroke="rgb(0,0,0)"  stroke-width="3"/>
<line x1="416.3" y1="104.8" x2="407.2" y2="78.3" opacity="1.0" stroke="rgb(0,0,0)"  stroke-width="3"/>
<line x1="254.3" y1="288.5" x2="289.0" y2="308.3" opacity="1.0" stroke="rgb(0,0,0)"  stroke-width="3"/>
<line x1="289.0" y1="308.3" x2="323.6" y2="288.1" opacity="1.0" stroke="rgb(0,0,0)"  stroke-width="3"/>
<line x1="290.6" y1="299.1" x2="314.8" y2="284.9" opacity="1.0" stroke="rgb(0,0,0)"  stroke-width="3"/>
<line x1="323.6" y1="288.1" x2="323.4" y2="248.1" opacity="1.0" stroke="rgb(0,0,0)"  stroke-width="3"/>
<line x1="323.4" y1="248.1" x2="288.6" y2="228.3" opacity="1.0" stroke="rgb(0,0,0)"  stroke-width="3"/>
<line x1="314.6" y1="251.4" x2="290.2" y2="237.5" opacity="1.0" stroke="rgb(0,0,0)"  stroke-width="3"/>
<line x1="288.6" y1="228.3" x2="254.0" y2="248.5" opacity="1.0" stroke="rgb(0,0,0)"  stroke-width="3"/>
<line x1="254.0" y1="248.5" x2="254.3" y2="288.5" opacity="1.0" stroke="rgb(0,0,0)"  stroke-width="3"/>
<line x1="261.3" y1="254.4" x2="261.4" y2="282.5" opacity="1.0" stroke="rgb(0,0,0)"  stroke-width="3"/>
<line x1="287.7" y1="201.3" x2="288.6" y2="228.3" opacity="1.0" stroke="rgb(0,0,0)"  stroke-width="3"/>
<line x1="254.0" y1="248.5" x2="230.3" y2="235.6" opacity="1.0" stroke="rgb(0,0,0)"  stroke-width="3"/>
<line x1="218.0" y1="189.3" x2="252.3" y2="168.7" opacity="1.0" stroke="rgb(0,0,0)"  stroke-width="3"/>
<line x1="226.9" y1="192.4" x2="250.9" y2="178.0" opacity="1.0" stroke="rgb(0,0,0)"  stroke-width="3"/>
<line x1="252.3" y1="168.7" x2="275.9" y2="181.9" opacity="1.0" stroke="rgb(0,0,0)"  stroke-width="3"/>
<line x1="148.0" y1="69.3" x2="182.3" y2="49.8" opacity="1.0" stroke="rgb(0,0,0)"  stroke-width="3"/>
<line x1="182.3" y1="49.8" x2="216.6" y2="69.3" opacity="1.0" stroke="rgb(0,0,0)"  stroke-width="3"/>
<line x1="184.0" y1="59.1" x2="207.9" y2="72.6" opacity="1.0" stroke="rgb(0,0,0)"  stroke-width="3"/>
<line x1="216.6" y1="69.3" x2="216.6" y2="109.3" opacity="1.0" stroke="rgb(0,0,0)"  stroke-width="3"/>
<line x1="216.6" y1="109.3" x2="182.3" y2="129.9" opacity="1.0" stroke="rgb(0,0,0)"  stroke-width="3"/>
<line x1="182.3" y1="129.9" x2="148.0" y2="109.3" opacity="1.0" stroke="rgb(0,0,0)"  stroke-width="3"/>
<line x1="148.0" y1="109.3" x2="148.0" y2="69.3" opacity="1.0" stroke="rgb(0,0,0)"  stroke-width="3"/>
<line x1="155.2" y1="103.3" x2="155.2" y2="75.3" opacity="1.0" stroke="rgb(0,0,0)"  stroke-width="3"/>
<line x1="353.5" y1="189.1" x2="320.7" y2="166.2" opacity="1.0" stroke="rgb(0,0,0)"  stroke-width="3"/>
<line x1="320.7" y1="166.2" x2="298.1" y2="181.1" opacity="1.0" stroke="rgb(0,0,0)"  stroke-width="3"/>
<line x1="323.4" y1="248.1" x2="347.1" y2="235.1" opacity="1.0" stroke="rgb(0,0,0)"  stroke-width="3"/>
<line x1="120.0" y1="271.8" x2="160.1" y2="271.0" opacity="1.0" stroke="rgb(0,0,0)"  stroke-width="3"/>
<line x1="125.9" y1="264.5" x2="153.9" y2="264.0" opacity="1.0" stroke="rgb(0,0,0)"  stroke-width="3"/>
<line x1="160.1" y1="271.0" x2="179.4" y2="236.0" opacity="1.0" stroke="rgb(0,0,0)"  stroke-width="3"/>
<line x1="158.7" y1="201.7" x2="118.7" y2="202.5" opacity="1.0" stroke="rgb(0,0,0)"  stroke-width="3"/>
<line x1="118.7" y1="202.5" x2="99.4" y2="237.5" opacity="1.0" stroke="rgb(0,0,0)"  stroke-width="3"/>
<line x1="122.1" y1="211.2" x2="108.6" y2="235.8" opacity="1.0" stroke="rgb(0,0,0)"  stroke-width="3"/>
<line x1="99.4" y1="237.5" x2="120.0" y2="271.8" opacity="1.0" stroke="rgb(0,0,0)"  stroke-width="3"/>
<line x1="477.8" y1="234.8" x2="457.1" y2="200.6" opacity="1.0" stroke="rgb(0,0,0)"  stroke-width="3"/>
<line x1="468.6" y1="233.4" x2="454.1" y2="209.4" opacity="1.0" stroke="rgb(0,0,0)"  stroke-width="3"/>
<line x1="457.1" y1="200.6" x2="417.1" y2="201.3" opacity="1.0" stroke="rgb(0,0,0)"  stroke-width="3"/>
<line x1="397.8" y1="236.4" x2="418.5" y2="270.7" opacity="1.0" stroke="rgb(0,0,0)"  stroke-width="3"/>
<line x1="418.5" y1="270.7" x2="458.5" y2="269.9" opacity="1.0" stroke="rgb(0,0,0)"  stroke-width="3"/>
<line x1="424.3" y1="263.3" x2="452.3" y2="262.8" opacity="1.0" stroke="rgb(0,0,0)"  stroke-width="3"/>
<line x1="458.5" y1="269.9" x2="477.8" y2="234.8" opacity="1.0" stroke="rgb(0,0,0)"  stroke-width="3"/>
<line x1="360.3" y1="109.3" x2="324.1" y2="126.3" opacity="1.0" stroke="rgb(0,0,0)"  stroke-width="3"/>
<line x1="324.1" y1="126.3" x2="320.7" y2="166.2" opacity="1.0" stroke="rgb(0,0,0)"  stroke-width="3"/>
<line x1="330.8" y1="132.9" x2="328.4" y2="160.8" opacity="1.0" stroke="rgb(0,0,0)"  stroke-width="3"/>
<line x1="389.8" y1="172.1" x2="393.2" y2="132.2" opacity="1.0" stroke="rgb(0,0,0)"  stroke-width="3"/>
<line x1="477.5" y1="47.6" x2="438.2" y2="40.0" opacity="1.0" stroke="rgb(0,0,0)"  stroke-width="3"/>
<line x1="470.3" y1="53.5" x2="442.7" y2="48.2" opacity="1.0" stroke="rgb(0,0,0)"  stroke-width="3"/>
<line x1="438.2" y1="40.0" x2="412.0" y2="70.3" opacity="1.0" stroke="rgb(0,0,0)"  stroke-width="3"/>
<line x1="425.1" y1="108.1" x2="464.4" y2="115.7" opacity="1.0" stroke="rgb(0,0,0)"  stroke-width="3"/>
<line x1="464.4" y1="115.7" x2="490.6" y2="85.4" opacity="1.0" stroke="rgb(0,0,0)"  stroke-width="3"/>
<line x1="462.9" y1="106.4" x2="481.2" y2="85.2" opacity="1.0" stroke="rgb(0,0,0)"  stroke-width="3"/>
<line x1="490.6" y1="85.4" x2="477.5" y2="47.6" opacity="1.0" stroke="rgb(0,0,0)"  stroke-width="3"/>
<line x1="183.0" y1="169.9" x2="182.3" y2="129.9" opacity="1.0" stroke="rgb(0,0,0)"  stroke-width="3"/>
<line x1="190.1" y1="163.8" x2="189.6" y2="135.8" opacity="1.0" stroke="rgb(0,0,0)"  stroke-width="3"/>
<line x1="216.6" y1="109.3" x2="251.7" y2="128.7" opacity="1.0" stroke="rgb(0,0,0)"  stroke-width="3"/>
<line x1="218.4" y1="118.5" x2="242.9" y2="132.1" opacity="1.0" stroke="rgb(0,0,0)"  stroke-width="3"/>
<line x1="251.7" y1="128.7" x2="252.3" y2="168.7" opacity="1.0" stroke="rgb(0,0,0)"  stroke-width="3"/>
<line x1="40.0" y1="202.5" x2="59.3" y2="237.5" opacity="1.0" stroke="rgb(0,0,0)"  stroke-width="3"/>
<line x1="49.2" y1="204.3" x2="62.7" y2="228.8" opacity="1.0" stroke="rgb(0,0,0)"  stroke-width="3"/>
<line x1="59.3" y1="237.5" x2="99.4" y2="237.5" opacity="1.0" stroke="rgb(0,0,0)"  stroke-width="3"/>
<line x1="118.7" y1="202.5" x2="99.4" y2="168.2" opacity="1.0" stroke="rgb(0,0,0)"  stroke-width="3"/>
<line x1="99.4" y1="168.2" x2="59.3" y2="168.2" opacity="1.0" stroke="rgb(0,0,0)"  stroke-width="3"/>
<line x1="93.4" y1="175.4" x2="65.3" y2="175.4" opacity="1.0" stroke="rgb(0,0,0)"  stroke-width="3"/>
<line x1="59.3" y1="168.2" x2="40.0" y2="202.5" opacity="1.0" stroke="rgb(0,0,0)"  stroke-width="3"/>
<line x1="219.8" y1="348.3" x2="185.1" y2="368.4" opacity="1.0" stroke="rgb(0,0,0)"  stroke-width="3"/>
<line x1="185.1" y1="368.4" x2="185.1" y2="408.4" opacity="1.0" stroke="rgb(0,0,0)"  stroke-width="3"/>
<line x1="192.3" y1="374.4" x2="192.3" y2="402.4" opacity="1.0" stroke="rgb(0,0,0)"  stroke-width="3"/>
<line x1="185.1" y1="408.4" x2="219.8" y2="428.6" opacity="1.0" stroke="rgb(0,0,0)"  stroke-width="3"/>
<line x1="219.8" y1="428.6" x2="254.4" y2="408.4" opacity="1.0" stroke="rgb(0,0,0)"  stroke-width="3"/>
<line x1="221.4" y1="419.4" x2="245.6" y2="405.2" opacity="1.0" stroke="rgb(0,0,0)"  stroke-width="3"/>
<line x1="254.4" y1="408.4" x2="254.4" y2="368.4" opacity="1.0" stroke="rgb(0,0,0)"  stroke-width="3"/>
<line x1="254.4" y1="368.4" x2="219.8" y2="348.3" opacity="1.0" stroke="rgb(0,0,0)"  stroke-width="3"/>
<line x1="245.6" y1="371.6" x2="221.3" y2="357.5" opacity="1.0" stroke="rgb(0,0,0)"  stroke-width="3"/>
<line x1="323.9" y1="408.4" x2="358.6" y2="428.3" opacity="1.0" stroke="rgb(0,0,0)"  stroke-width="3"/>
<line x1="358.6" y1="428.3" x2="393.2" y2="408.4" opacity="1.0" stroke="rgb(0,0,0)"  stroke-width="3"/>
<line x1="360.3" y1="419.0" x2="384.4" y2="405.1" opacity="1.0" stroke="rgb(0,0,0)"  stroke-width="3"/>
<line x1="393.2" y1="408.4" x2="393.2" y2="368.4" opacity="1.0" stroke="rgb(0,0,0)"  stroke-width="3"/>
<line x1="393.2" y1="368.4" x2="358.6" y2="348.5" opacity="1.0" stroke="rgb(0,0,0)"  stroke-width="3"/>
<line x1="384.4" y1="371.6" x2="360.3" y2="357.7" opacity="1.0" stroke="rgb(0,0,0)"  stroke-width="3"/>
<line x1="358.6" y1="348.5" x2="323.7" y2="368.4" opacity="1.0" stroke="rgb(0,0,0)"  stroke-width="3"/>
<line x1="323.7" y1="368.4" x2="323.9" y2="408.4" opacity="1.0" stroke="rgb(0,0,0)"  stroke-width="3"/>
<line x1="330.9" y1="374.3" x2="331.1" y2="402.4" opacity="1.0" stroke="rgb(0,0,0)"  stroke-width="3"/>
<text x="283.049798" y="356.358159" fill="rgb(12,12,255)" stroke-width="0" font-weight="bold" font-size="25.92" >N</text>
<text x="365.978203" y="79.030966" fill="rgb(178,178,0)" stroke-width="0" font-weight="bold" font-size="25.92" >S</text>
<text x="352.464515" y="236.823287" fill="rgb(12,12,255)" stroke-width="0" font-weight="bold" font-size="25.92" >N</text>
<text x="212.882478" y="237.345781" fill="rgb(12,12,255)" stroke-width="0" font-weight="bold" font-size="25.92" >N</text>
<text x="281.278599" y="196.261726" fill="rgb(255,181,181)" stroke-width="0" font-weight="bold" font-size="25.92" >B</text>
</svg>
</g>
</svg>
