<?xml version="1.0"?>
<svg version="1.1" id="topsvg"
xmlns="http://www.w3.org/2000/svg" xmlns:xlink="http://www.w3.org/1999/xlink"
xmlns:cml="http://www.xml-cml.org/schema" x="0" y="0" width="200px" height="200px" viewBox="0 0 100 100">
<title>GD75.sdf - Open Babel Depiction</title>
<rect x="0" y="0" width="100" height="100" fill="white"/>
<g transform="translate(0,0)">
<svg width="100" height="100" x="0" y="0" viewBox="0 0 564.974 540"
font-family="sans-serif" stroke="rgb(0,0,0)" stroke-width="3"  stroke-linecap="round">
<line x1="282.5" y1="320.0" x2="282.5" y2="360.0" opacity="1.0" stroke="rgb(0,0,0)"  stroke-width="3"/>
<line x1="247.8" y1="420.0" x2="213.2" y2="440.0" opacity="1.0" stroke="rgb(0,0,0)"  stroke-width="3"/>
<line x1="317.1" y1="420.0" x2="351.8" y2="440.0" opacity="1.0" stroke="rgb(0,0,0)"  stroke-width="3"/>
<line x1="363.0" y1="246.5" x2="386.4" y2="260.0" opacity="1.0" stroke="rgb(0,0,0)"  stroke-width="3"/>
<line x1="201.9" y1="246.5" x2="178.6" y2="260.0" opacity="1.0" stroke="rgb(0,0,0)"  stroke-width="3"/>
<line x1="213.2" y1="120.0" x2="213.2" y2="80.0" opacity="1.0" stroke="rgb(0,0,0)"  stroke-width="3"/>
<line x1="351.8" y1="120.0" x2="351.8" y2="80.0" opacity="1.0" stroke="rgb(0,0,0)"  stroke-width="3"/>
<line x1="455.7" y1="300.0" x2="490.3" y2="320.0" opacity="1.0" stroke="rgb(0,0,0)"  stroke-width="3"/>
<line x1="109.3" y1="300.0" x2="74.6" y2="320.0" opacity="1.0" stroke="rgb(0,0,0)"  stroke-width="3"/>
<line x1="74.6" y1="320.0" x2="40.0" y2="300.0" opacity="1.0" stroke="rgb(0,0,0)"  stroke-width="3"/>
<line x1="74.6" y1="360.0" x2="74.6" y2="320.0" opacity="1.0" stroke="rgb(0,0,0)"  stroke-width="3"/>
<line x1="490.3" y1="320.0" x2="490.3" y2="360.0" opacity="1.0" stroke="rgb(0,0,0)"  stroke-width="3"/>
<line x1="525.0" y1="300.0" x2="490.3" y2="320.0" opacity="1.0" stroke="rgb(0,0,0)"  stroke-width="3"/>
<line x1="351.8" y1="80.0" x2="386.4" y2="60.0" opacity="1.0" stroke="rgb(0,0,0)"  stroke-width="3"/>
<line x1="317.1" y1="60.0" x2="351.8" y2="80.0" opacity="1.0" stroke="rgb(0,0,0)"  stroke-width="3"/>
<line x1="213.2" y1="80.0" x2="247.8" y2="60.0" opacity="1.0" stroke="rgb(0,0,0)"  stroke-width="3"/>
<line x1="178.6" y1="60.0" x2="213.2" y2="80.0" opacity="1.0" stroke="rgb(0,0,0)"  stroke-width="3"/>
<line x1="213.2" y1="80.0" x2="213.2" y2="40.0" opacity="1.0" stroke="rgb(0,0,0)"  stroke-width="3"/>
<line x1="351.8" y1="80.0" x2="351.8" y2="40.0" opacity="1.0" stroke="rgb(0,0,0)"  stroke-width="3"/>
<line x1="74.6" y1="320.0" x2="74.6" y2="280.0" opacity="1.0" stroke="rgb(0,0,0)"  stroke-width="3"/>
<line x1="490.3" y1="320.0" x2="490.3" y2="280.0" opacity="1.0" stroke="rgb(0,0,0)"  stroke-width="3"/>
<line x1="247.8" y1="300.0" x2="282.5" y2="320.0" opacity="1.0" stroke="rgb(0,0,0)"  stroke-width="3"/>
<line x1="282.5" y1="320.0" x2="317.1" y2="300.0" opacity="1.0" stroke="rgb(0,0,0)"  stroke-width="3"/>
<line x1="284.1" y1="310.8" x2="308.3" y2="296.8" opacity="1.0" stroke="rgb(0,0,0)"  stroke-width="3"/>
<line x1="317.1" y1="300.0" x2="317.1" y2="260.0" opacity="1.0" stroke="rgb(0,0,0)"  stroke-width="3"/>
<line x1="317.1" y1="260.0" x2="282.5" y2="240.0" opacity="1.0" stroke="rgb(0,0,0)"  stroke-width="3"/>
<line x1="308.3" y1="263.2" x2="284.1" y2="249.2" opacity="1.0" stroke="rgb(0,0,0)"  stroke-width="3"/>
<line x1="282.5" y1="240.0" x2="247.8" y2="260.0" opacity="1.0" stroke="rgb(0,0,0)"  stroke-width="3"/>
<line x1="247.8" y1="260.0" x2="247.8" y2="300.0" opacity="1.0" stroke="rgb(0,0,0)"  stroke-width="3"/>
<line x1="255.0" y1="266.0" x2="255.0" y2="294.0" opacity="1.0" stroke="rgb(0,0,0)"  stroke-width="3"/>
<line x1="282.5" y1="213.0" x2="282.5" y2="240.0" opacity="1.0" stroke="rgb(0,0,0)"  stroke-width="3"/>
<line x1="247.8" y1="260.0" x2="224.5" y2="246.5" opacity="1.0" stroke="rgb(0,0,0)"  stroke-width="3"/>
<line x1="213.2" y1="227.0" x2="213.2" y2="200.0" opacity="1.0" stroke="rgb(0,0,0)"  stroke-width="3"/>
<line x1="213.2" y1="200.0" x2="247.8" y2="180.0" opacity="1.0" stroke="rgb(0,0,0)"  stroke-width="3"/>
<line x1="222.0" y1="203.2" x2="246.2" y2="189.2" opacity="1.0" stroke="rgb(0,0,0)"  stroke-width="3"/>
<line x1="247.8" y1="180.0" x2="271.2" y2="193.5" opacity="1.0" stroke="rgb(0,0,0)"  stroke-width="3"/>
<line x1="178.6" y1="140.0" x2="213.2" y2="120.0" opacity="1.0" stroke="rgb(0,0,0)"  stroke-width="3"/>
<line x1="213.2" y1="120.0" x2="247.8" y2="140.0" opacity="1.0" stroke="rgb(0,0,0)"  stroke-width="3"/>
<line x1="214.8" y1="129.2" x2="239.0" y2="143.2" opacity="1.0" stroke="rgb(0,0,0)"  stroke-width="3"/>
<line x1="247.8" y1="140.0" x2="247.8" y2="180.0" opacity="1.0" stroke="rgb(0,0,0)"  stroke-width="3"/>
<line x1="213.2" y1="200.0" x2="178.6" y2="180.0" opacity="1.0" stroke="rgb(0,0,0)"  stroke-width="3"/>
<line x1="178.6" y1="180.0" x2="178.6" y2="140.0" opacity="1.0" stroke="rgb(0,0,0)"  stroke-width="3"/>
<line x1="185.8" y1="174.0" x2="185.8" y2="146.0" opacity="1.0" stroke="rgb(0,0,0)"  stroke-width="3"/>
<line x1="351.8" y1="200.0" x2="317.1" y2="180.0" opacity="1.0" stroke="rgb(0,0,0)"  stroke-width="3"/>
<line x1="343.0" y1="203.2" x2="318.7" y2="189.2" opacity="1.0" stroke="rgb(0,0,0)"  stroke-width="3"/>
<line x1="317.1" y1="180.0" x2="293.7" y2="193.5" opacity="1.0" stroke="rgb(0,0,0)"  stroke-width="3"/>
<line x1="317.1" y1="260.0" x2="340.5" y2="246.5" opacity="1.0" stroke="rgb(0,0,0)"  stroke-width="3"/>
<line x1="351.8" y1="227.0" x2="351.8" y2="200.0" opacity="1.0" stroke="rgb(0,0,0)"  stroke-width="3"/>
<line x1="351.8" y1="120.0" x2="317.1" y2="140.0" opacity="1.0" stroke="rgb(0,0,0)"  stroke-width="3"/>
<line x1="350.2" y1="129.2" x2="325.9" y2="143.2" opacity="1.0" stroke="rgb(0,0,0)"  stroke-width="3"/>
<line x1="317.1" y1="140.0" x2="317.1" y2="180.0" opacity="1.0" stroke="rgb(0,0,0)"  stroke-width="3"/>
<line x1="351.8" y1="200.0" x2="386.4" y2="180.0" opacity="1.0" stroke="rgb(0,0,0)"  stroke-width="3"/>
<line x1="386.4" y1="180.0" x2="386.4" y2="140.0" opacity="1.0" stroke="rgb(0,0,0)"  stroke-width="3"/>
<line x1="379.2" y1="174.0" x2="379.2" y2="146.0" opacity="1.0" stroke="rgb(0,0,0)"  stroke-width="3"/>
<line x1="386.4" y1="140.0" x2="351.8" y2="120.0" opacity="1.0" stroke="rgb(0,0,0)"  stroke-width="3"/>
<line x1="247.8" y1="393.0" x2="247.8" y2="420.0" opacity="1.0" stroke="rgb(0,0,0)"  stroke-width="3"/>
<line x1="247.8" y1="420.0" x2="271.1" y2="433.4" opacity="1.0" stroke="rgb(0,0,0)"  stroke-width="3"/>
<line x1="256.6" y1="416.8" x2="272.9" y2="426.2" opacity="1.0" stroke="rgb(0,0,0)"  stroke-width="3"/>
<line x1="293.7" y1="433.5" x2="317.1" y2="420.0" opacity="1.0" stroke="rgb(0,0,0)"  stroke-width="3"/>
<line x1="317.1" y1="420.0" x2="317.1" y2="393.2" opacity="1.0" stroke="rgb(0,0,0)"  stroke-width="3"/>
<line x1="309.9" y1="414.0" x2="309.9" y2="395.2" opacity="1.0" stroke="rgb(0,0,0)"  stroke-width="3"/>
<line x1="305.9" y1="373.5" x2="282.5" y2="360.0" opacity="1.0" stroke="rgb(0,0,0)"  stroke-width="3"/>
<line x1="282.5" y1="360.0" x2="259.3" y2="373.4" opacity="1.0" stroke="rgb(0,0,0)"  stroke-width="3"/>
<line x1="280.9" y1="369.2" x2="264.6" y2="378.6" opacity="1.0" stroke="rgb(0,0,0)"  stroke-width="3"/>
<line x1="351.8" y1="480.0" x2="386.4" y2="500.0" opacity="1.0" stroke="rgb(0,0,0)"  stroke-width="3"/>
<line x1="386.4" y1="500.0" x2="421.1" y2="480.0" opacity="1.0" stroke="rgb(0,0,0)"  stroke-width="3"/>
<line x1="388.0" y1="490.8" x2="412.3" y2="476.8" opacity="1.0" stroke="rgb(0,0,0)"  stroke-width="3"/>
<line x1="421.1" y1="480.0" x2="421.1" y2="440.0" opacity="1.0" stroke="rgb(0,0,0)"  stroke-width="3"/>
<line x1="421.1" y1="440.0" x2="386.4" y2="420.0" opacity="1.0" stroke="rgb(0,0,0)"  stroke-width="3"/>
<line x1="412.3" y1="443.2" x2="388.0" y2="429.2" opacity="1.0" stroke="rgb(0,0,0)"  stroke-width="3"/>
<line x1="386.4" y1="420.0" x2="351.8" y2="440.0" opacity="1.0" stroke="rgb(0,0,0)"  stroke-width="3"/>
<line x1="351.8" y1="440.0" x2="351.8" y2="480.0" opacity="1.0" stroke="rgb(0,0,0)"  stroke-width="3"/>
<line x1="359.0" y1="446.0" x2="359.0" y2="474.0" opacity="1.0" stroke="rgb(0,0,0)"  stroke-width="3"/>
<line x1="178.6" y1="420.0" x2="143.9" y2="440.0" opacity="1.0" stroke="rgb(0,0,0)"  stroke-width="3"/>
<line x1="143.9" y1="440.0" x2="143.9" y2="480.0" opacity="1.0" stroke="rgb(0,0,0)"  stroke-width="3"/>
<line x1="151.1" y1="446.0" x2="151.1" y2="474.0" opacity="1.0" stroke="rgb(0,0,0)"  stroke-width="3"/>
<line x1="143.9" y1="480.0" x2="178.6" y2="500.0" opacity="1.0" stroke="rgb(0,0,0)"  stroke-width="3"/>
<line x1="178.6" y1="500.0" x2="213.2" y2="480.0" opacity="1.0" stroke="rgb(0,0,0)"  stroke-width="3"/>
<line x1="180.2" y1="490.8" x2="204.4" y2="476.8" opacity="1.0" stroke="rgb(0,0,0)"  stroke-width="3"/>
<line x1="213.2" y1="480.0" x2="213.2" y2="440.0" opacity="1.0" stroke="rgb(0,0,0)"  stroke-width="3"/>
<line x1="213.2" y1="440.0" x2="178.6" y2="420.0" opacity="1.0" stroke="rgb(0,0,0)"  stroke-width="3"/>
<line x1="204.4" y1="443.2" x2="180.2" y2="429.2" opacity="1.0" stroke="rgb(0,0,0)"  stroke-width="3"/>
<line x1="143.9" y1="240.0" x2="109.3" y2="260.0" opacity="1.0" stroke="rgb(0,0,0)"  stroke-width="3"/>
<line x1="109.3" y1="260.0" x2="109.3" y2="300.0" opacity="1.0" stroke="rgb(0,0,0)"  stroke-width="3"/>
<line x1="116.5" y1="266.0" x2="116.5" y2="294.0" opacity="1.0" stroke="rgb(0,0,0)"  stroke-width="3"/>
<line x1="109.3" y1="300.0" x2="143.9" y2="320.0" opacity="1.0" stroke="rgb(0,0,0)"  stroke-width="3"/>
<line x1="143.9" y1="320.0" x2="178.6" y2="300.0" opacity="1.0" stroke="rgb(0,0,0)"  stroke-width="3"/>
<line x1="145.5" y1="310.8" x2="169.8" y2="296.8" opacity="1.0" stroke="rgb(0,0,0)"  stroke-width="3"/>
<line x1="178.6" y1="300.0" x2="178.6" y2="260.0" opacity="1.0" stroke="rgb(0,0,0)"  stroke-width="3"/>
<line x1="178.6" y1="260.0" x2="143.9" y2="240.0" opacity="1.0" stroke="rgb(0,0,0)"  stroke-width="3"/>
<line x1="169.8" y1="263.2" x2="145.5" y2="249.2" opacity="1.0" stroke="rgb(0,0,0)"  stroke-width="3"/>
<line x1="386.4" y1="300.0" x2="421.1" y2="320.0" opacity="1.0" stroke="rgb(0,0,0)"  stroke-width="3"/>
<line x1="421.1" y1="320.0" x2="455.7" y2="300.0" opacity="1.0" stroke="rgb(0,0,0)"  stroke-width="3"/>
<line x1="422.6" y1="310.8" x2="446.9" y2="296.8" opacity="1.0" stroke="rgb(0,0,0)"  stroke-width="3"/>
<line x1="455.7" y1="300.0" x2="455.7" y2="260.0" opacity="1.0" stroke="rgb(0,0,0)"  stroke-width="3"/>
<line x1="455.7" y1="260.0" x2="421.1" y2="240.0" opacity="1.0" stroke="rgb(0,0,0)"  stroke-width="3"/>
<line x1="446.9" y1="263.2" x2="422.6" y2="249.2" opacity="1.0" stroke="rgb(0,0,0)"  stroke-width="3"/>
<line x1="421.1" y1="240.0" x2="386.4" y2="260.0" opacity="1.0" stroke="rgb(0,0,0)"  stroke-width="3"/>
<line x1="386.4" y1="260.0" x2="386.4" y2="300.0" opacity="1.0" stroke="rgb(0,0,0)"  stroke-width="3"/>
<line x1="393.6" y1="266.0" x2="393.6" y2="294.0" opacity="1.0" stroke="rgb(0,0,0)"  stroke-width="3"/>
<text x="276.487127" y="448.000000" fill="rgb(12,12,255)" stroke-width="0" font-weight="bold" font-size="25.92" >N</text>
<text x="241.846109" y="388.000000" fill="rgb(12,12,255)" stroke-width="0" font-weight="bold" font-size="25.92" >N</text>
<text x="345.769164" y="248.000000" fill="rgb(12,12,255)" stroke-width="0" font-weight="bold" font-size="25.92" >N</text>
<text x="207.205091" y="248.000000" fill="rgb(12,12,255)" stroke-width="0" font-weight="bold" font-size="25.92" >N</text>
<text x="276.487127" y="208.000000" fill="rgb(255,181,181)" stroke-width="0" font-weight="bold" font-size="25.92" >B</text>
<text x="311.128145" y="388.000000" fill="rgb(12,12,255)" stroke-width="0" font-weight="bold" font-size="25.92" >N</text>
</svg>
</g>
</svg>
