<?xml version="1.0"?>
<svg version="1.1" id="topsvg"
xmlns="http://www.w3.org/2000/svg" xmlns:xlink="http://www.w3.org/1999/xlink"
xmlns:cml="http://www.xml-cml.org/schema" x="0" y="0" width="200px" height="200px" viewBox="0 0 100 100">
<title>GD77.sdf - Open Babel Depiction</title>
<rect x="0" y="0" width="100" height="100" fill="white"/>
<g transform="translate(0,0)">
<svg width="100" height="100" x="0" y="0" viewBox="0 0 603.692 552.832"
font-family="sans-serif" stroke="rgb(0,0,0)" stroke-width="3"  stroke-linecap="round">
<line x1="204.5" y1="138.5" x2="192.8" y2="100.7" opacity="1.0" stroke="rgb(0,0,0)"  stroke-width="3"/>
<line x1="117.7" y1="284.7" x2="78.8" y2="292.5" opacity="1.0" stroke="rgb(0,0,0)"  stroke-width="3"/>
<line x1="192.8" y1="100.7" x2="181.0" y2="62.9" opacity="1.0" stroke="rgb(0,0,0)"  stroke-width="3"/>
<line x1="219.6" y1="71.6" x2="192.8" y2="100.7" opacity="1.0" stroke="rgb(0,0,0)"  stroke-width="3"/>
<line x1="78.8" y1="292.5" x2="40.0" y2="300.2" opacity="1.0" stroke="rgb(0,0,0)"  stroke-width="3"/>
<line x1="66.1" y1="330.0" x2="78.8" y2="292.5" opacity="1.0" stroke="rgb(0,0,0)"  stroke-width="3"/>
<line x1="192.8" y1="100.7" x2="154.1" y2="92.0" opacity="1.0" stroke="rgb(0,0,0)"  stroke-width="3"/>
<line x1="472.6" y1="161.7" x2="495.6" y2="175.4" opacity="1.0" stroke="rgb(0,0,0)"  stroke-width="3"/>
<line x1="78.8" y1="292.5" x2="71.1" y2="253.5" opacity="1.0" stroke="rgb(0,0,0)"  stroke-width="3"/>
<line x1="299.3" y1="333.6" x2="298.8" y2="373.4" opacity="1.0" stroke="rgb(0,0,0)"  stroke-width="3"/>
<line x1="264.5" y1="433.2" x2="230.2" y2="453.1" opacity="1.0" stroke="rgb(0,0,0)"  stroke-width="3"/>
<line x1="333.1" y1="433.2" x2="367.5" y2="453.1" opacity="1.0" stroke="rgb(0,0,0)"  stroke-width="3"/>
<line x1="404.9" y1="271.9" x2="431.7" y2="242.8" opacity="1.0" stroke="rgb(0,0,0)"  stroke-width="3"/>
<line x1="431.7" y1="242.8" x2="412.4" y2="208.2" opacity="1.0" stroke="rgb(0,0,0)"  stroke-width="3"/>
<line x1="412.4" y1="208.2" x2="373.5" y2="216.0" opacity="1.0" stroke="rgb(0,0,0)"  stroke-width="3"/>
<line x1="407.9" y1="216.5" x2="380.8" y2="221.9" opacity="1.0" stroke="rgb(0,0,0)"  stroke-width="3"/>
<line x1="373.5" y1="216.0" x2="370.4" y2="242.4" opacity="1.0" stroke="rgb(0,0,0)"  stroke-width="3"/>
<line x1="380.7" y1="260.7" x2="404.9" y2="271.9" opacity="1.0" stroke="rgb(0,0,0)"  stroke-width="3"/>
<line x1="169.2" y1="239.5" x2="195.3" y2="269.2" opacity="1.0" stroke="rgb(0,0,0)"  stroke-width="3"/>
<line x1="178.6" y1="239.2" x2="196.8" y2="260.0" opacity="1.0" stroke="rgb(0,0,0)"  stroke-width="3"/>
<line x1="195.3" y1="269.2" x2="219.8" y2="258.7" opacity="1.0" stroke="rgb(0,0,0)"  stroke-width="3"/>
<line x1="230.5" y1="240.6" x2="228.1" y2="214.2" opacity="1.0" stroke="rgb(0,0,0)"  stroke-width="3"/>
<line x1="228.1" y1="214.2" x2="189.4" y2="205.4" opacity="1.0" stroke="rgb(0,0,0)"  stroke-width="3"/>
<line x1="220.6" y1="219.9" x2="193.7" y2="213.8" opacity="1.0" stroke="rgb(0,0,0)"  stroke-width="3"/>
<line x1="189.4" y1="205.4" x2="169.2" y2="239.5" opacity="1.0" stroke="rgb(0,0,0)"  stroke-width="3"/>
<line x1="457.8" y1="115.6" x2="419.2" y2="106.9" opacity="1.0" stroke="rgb(0,0,0)"  stroke-width="3"/>
<line x1="450.4" y1="121.3" x2="423.4" y2="115.3" opacity="1.0" stroke="rgb(0,0,0)"  stroke-width="3"/>
<line x1="419.2" y1="106.9" x2="398.9" y2="141.0" opacity="1.0" stroke="rgb(0,0,0)"  stroke-width="3"/>
<line x1="398.9" y1="141.0" x2="425.1" y2="170.7" opacity="1.0" stroke="rgb(0,0,0)"  stroke-width="3"/>
<line x1="408.3" y1="140.7" x2="426.5" y2="161.5" opacity="1.0" stroke="rgb(0,0,0)"  stroke-width="3"/>
<line x1="425.1" y1="170.7" x2="449.5" y2="160.2" opacity="1.0" stroke="rgb(0,0,0)"  stroke-width="3"/>
<line x1="460.3" y1="142.1" x2="457.8" y2="115.6" opacity="1.0" stroke="rgb(0,0,0)"  stroke-width="3"/>
<line x1="299.3" y1="333.6" x2="333.9" y2="314.3" opacity="1.0" stroke="rgb(0,0,0)"  stroke-width="3"/>
<line x1="301.0" y1="324.4" x2="325.1" y2="310.9" opacity="1.0" stroke="rgb(0,0,0)"  stroke-width="3"/>
<line x1="333.9" y1="314.3" x2="334.4" y2="274.7" opacity="1.0" stroke="rgb(0,0,0)"  stroke-width="3"/>
<line x1="334.4" y1="274.7" x2="300.3" y2="254.4" opacity="1.0" stroke="rgb(0,0,0)"  stroke-width="3"/>
<line x1="325.5" y1="277.8" x2="301.8" y2="263.7" opacity="1.0" stroke="rgb(0,0,0)"  stroke-width="3"/>
<line x1="300.3" y1="254.4" x2="265.8" y2="273.8" opacity="1.0" stroke="rgb(0,0,0)"  stroke-width="3"/>
<line x1="265.8" y1="273.8" x2="265.3" y2="313.4" opacity="1.0" stroke="rgb(0,0,0)"  stroke-width="3"/>
<line x1="272.9" y1="279.9" x2="272.5" y2="307.5" opacity="1.0" stroke="rgb(0,0,0)"  stroke-width="3"/>
<line x1="265.3" y1="313.4" x2="299.3" y2="333.6" opacity="1.0" stroke="rgb(0,0,0)"  stroke-width="3"/>
<line x1="334.4" y1="274.7" x2="357.6" y2="261.7" opacity="1.0" stroke="rgb(0,0,0)"  stroke-width="3"/>
<line x1="373.5" y1="216.0" x2="347.4" y2="186.2" opacity="1.0" stroke="rgb(0,0,0)"  stroke-width="3"/>
<line x1="347.4" y1="186.2" x2="311.9" y2="208.0" opacity="1.0" stroke="rgb(0,0,0)"  stroke-width="3"/>
<line x1="300.6" y1="227.8" x2="300.3" y2="254.4" opacity="1.0" stroke="rgb(0,0,0)"  stroke-width="3"/>
<line x1="482.1" y1="289.3" x2="470.4" y2="251.5" opacity="1.0" stroke="rgb(0,0,0)"  stroke-width="3"/>
<line x1="470.4" y1="251.5" x2="431.7" y2="242.8" opacity="1.0" stroke="rgb(0,0,0)"  stroke-width="3"/>
<line x1="462.9" y1="257.2" x2="436.0" y2="251.1" opacity="1.0" stroke="rgb(0,0,0)"  stroke-width="3"/>
<line x1="404.9" y1="271.9" x2="416.6" y2="309.7" opacity="1.0" stroke="rgb(0,0,0)"  stroke-width="3"/>
<line x1="413.5" y1="275.5" x2="421.7" y2="301.8" opacity="1.0" stroke="rgb(0,0,0)"  stroke-width="3"/>
<line x1="416.6" y1="309.7" x2="455.3" y2="318.4" opacity="1.0" stroke="rgb(0,0,0)"  stroke-width="3"/>
<line x1="455.3" y1="318.4" x2="482.1" y2="289.3" opacity="1.0" stroke="rgb(0,0,0)"  stroke-width="3"/>
<line x1="454.0" y1="309.1" x2="472.8" y2="288.8" opacity="1.0" stroke="rgb(0,0,0)"  stroke-width="3"/>
<line x1="360.1" y1="148.7" x2="347.4" y2="186.2" opacity="1.0" stroke="rgb(0,0,0)"  stroke-width="3"/>
<line x1="365.0" y1="156.7" x2="356.1" y2="182.8" opacity="1.0" stroke="rgb(0,0,0)"  stroke-width="3"/>
<line x1="412.4" y1="208.2" x2="425.1" y2="170.7" opacity="1.0" stroke="rgb(0,0,0)"  stroke-width="3"/>
<line x1="398.9" y1="141.0" x2="360.1" y2="148.7" opacity="1.0" stroke="rgb(0,0,0)"  stroke-width="3"/>
<line x1="254.9" y1="185.1" x2="243.2" y2="147.2" opacity="1.0" stroke="rgb(0,0,0)"  stroke-width="3"/>
<line x1="246.3" y1="181.5" x2="238.1" y2="155.1" opacity="1.0" stroke="rgb(0,0,0)"  stroke-width="3"/>
<line x1="243.2" y1="147.2" x2="204.5" y2="138.5" opacity="1.0" stroke="rgb(0,0,0)"  stroke-width="3"/>
<line x1="204.5" y1="138.5" x2="177.7" y2="167.6" opacity="1.0" stroke="rgb(0,0,0)"  stroke-width="3"/>
<line x1="205.8" y1="147.8" x2="187.0" y2="168.1" opacity="1.0" stroke="rgb(0,0,0)"  stroke-width="3"/>
<line x1="177.7" y1="167.6" x2="189.4" y2="205.4" opacity="1.0" stroke="rgb(0,0,0)"  stroke-width="3"/>
<line x1="228.1" y1="214.2" x2="254.9" y2="185.1" opacity="1.0" stroke="rgb(0,0,0)"  stroke-width="3"/>
<line x1="143.8" y1="314.5" x2="117.7" y2="284.7" opacity="1.0" stroke="rgb(0,0,0)"  stroke-width="3"/>
<line x1="117.7" y1="284.7" x2="130.4" y2="247.2" opacity="1.0" stroke="rgb(0,0,0)"  stroke-width="3"/>
<line x1="126.4" y1="281.4" x2="135.3" y2="255.2" opacity="1.0" stroke="rgb(0,0,0)"  stroke-width="3"/>
<line x1="130.4" y1="247.2" x2="169.2" y2="239.5" opacity="1.0" stroke="rgb(0,0,0)"  stroke-width="3"/>
<line x1="195.3" y1="269.2" x2="182.6" y2="306.8" opacity="1.0" stroke="rgb(0,0,0)"  stroke-width="3"/>
<line x1="182.6" y1="306.8" x2="143.8" y2="314.5" opacity="1.0" stroke="rgb(0,0,0)"  stroke-width="3"/>
<line x1="175.3" y1="300.9" x2="148.3" y2="306.3" opacity="1.0" stroke="rgb(0,0,0)"  stroke-width="3"/>
<line x1="242.9" y1="260.2" x2="265.8" y2="273.8" opacity="1.0" stroke="rgb(0,0,0)"  stroke-width="3"/>
<line x1="289.9" y1="207.8" x2="254.9" y2="185.1" opacity="1.0" stroke="rgb(0,0,0)"  stroke-width="3"/>
<line x1="434.3" y1="40.0" x2="407.4" y2="69.1" opacity="1.0" stroke="rgb(0,0,0)"  stroke-width="3"/>
<line x1="435.5" y1="49.3" x2="416.8" y2="69.6" opacity="1.0" stroke="rgb(0,0,0)"  stroke-width="3"/>
<line x1="407.4" y1="69.1" x2="419.2" y2="106.9" opacity="1.0" stroke="rgb(0,0,0)"  stroke-width="3"/>
<line x1="457.8" y1="115.6" x2="484.7" y2="86.5" opacity="1.0" stroke="rgb(0,0,0)"  stroke-width="3"/>
<line x1="484.7" y1="86.5" x2="472.9" y2="48.7" opacity="1.0" stroke="rgb(0,0,0)"  stroke-width="3"/>
<line x1="476.0" y1="82.9" x2="467.8" y2="56.6" opacity="1.0" stroke="rgb(0,0,0)"  stroke-width="3"/>
<line x1="472.9" y1="48.7" x2="434.3" y2="40.0" opacity="1.0" stroke="rgb(0,0,0)"  stroke-width="3"/>
<line x1="494.9" y1="215.1" x2="528.9" y2="235.6" opacity="1.0" stroke="rgb(0,0,0)"  stroke-width="3"/>
<line x1="528.9" y1="235.6" x2="563.7" y2="215.1" opacity="1.0" stroke="rgb(0,0,0)"  stroke-width="3"/>
<line x1="530.4" y1="226.4" x2="554.9" y2="211.9" opacity="1.0" stroke="rgb(0,0,0)"  stroke-width="3"/>
<line x1="563.7" y1="215.1" x2="563.7" y2="175.4" opacity="1.0" stroke="rgb(0,0,0)"  stroke-width="3"/>
<line x1="563.7" y1="175.4" x2="528.9" y2="154.9" opacity="1.0" stroke="rgb(0,0,0)"  stroke-width="3"/>
<line x1="554.9" y1="178.5" x2="530.4" y2="164.1" opacity="1.0" stroke="rgb(0,0,0)"  stroke-width="3"/>
<line x1="528.9" y1="154.9" x2="495.6" y2="175.4" opacity="1.0" stroke="rgb(0,0,0)"  stroke-width="3"/>
<line x1="495.6" y1="175.4" x2="494.9" y2="215.1" opacity="1.0" stroke="rgb(0,0,0)"  stroke-width="3"/>
<line x1="502.7" y1="181.5" x2="502.2" y2="209.2" opacity="1.0" stroke="rgb(0,0,0)"  stroke-width="3"/>
<line x1="264.5" y1="406.5" x2="264.5" y2="433.2" opacity="1.0" stroke="rgb(0,0,0)"  stroke-width="3"/>
<line x1="264.5" y1="433.2" x2="287.5" y2="446.4" opacity="1.0" stroke="rgb(0,0,0)"  stroke-width="3"/>
<line x1="273.3" y1="429.9" x2="289.3" y2="439.1" opacity="1.0" stroke="rgb(0,0,0)"  stroke-width="3"/>
<line x1="310.1" y1="446.4" x2="333.1" y2="433.2" opacity="1.0" stroke="rgb(0,0,0)"  stroke-width="3"/>
<line x1="333.1" y1="433.2" x2="333.1" y2="406.6" opacity="1.0" stroke="rgb(0,0,0)"  stroke-width="3"/>
<line x1="325.9" y1="427.2" x2="325.9" y2="408.6" opacity="1.0" stroke="rgb(0,0,0)"  stroke-width="3"/>
<line x1="321.9" y1="386.9" x2="298.8" y2="373.4" opacity="1.0" stroke="rgb(0,0,0)"  stroke-width="3"/>
<line x1="298.8" y1="373.4" x2="275.9" y2="386.8" opacity="1.0" stroke="rgb(0,0,0)"  stroke-width="3"/>
<line x1="297.3" y1="382.6" x2="281.2" y2="392.0" opacity="1.0" stroke="rgb(0,0,0)"  stroke-width="3"/>
<line x1="195.7" y1="433.4" x2="161.3" y2="453.1" opacity="1.0" stroke="rgb(0,0,0)"  stroke-width="3"/>
<line x1="161.3" y1="453.1" x2="161.3" y2="492.9" opacity="1.0" stroke="rgb(0,0,0)"  stroke-width="3"/>
<line x1="168.5" y1="459.1" x2="168.5" y2="486.9" opacity="1.0" stroke="rgb(0,0,0)"  stroke-width="3"/>
<line x1="161.3" y1="492.9" x2="195.7" y2="512.6" opacity="1.0" stroke="rgb(0,0,0)"  stroke-width="3"/>
<line x1="195.7" y1="512.6" x2="230.2" y2="492.9" opacity="1.0" stroke="rgb(0,0,0)"  stroke-width="3"/>
<line x1="197.3" y1="503.4" x2="221.4" y2="489.6" opacity="1.0" stroke="rgb(0,0,0)"  stroke-width="3"/>
<line x1="230.2" y1="492.9" x2="230.2" y2="453.1" opacity="1.0" stroke="rgb(0,0,0)"  stroke-width="3"/>
<line x1="230.2" y1="453.1" x2="195.7" y2="433.4" opacity="1.0" stroke="rgb(0,0,0)"  stroke-width="3"/>
<line x1="221.4" y1="456.4" x2="197.3" y2="442.6" opacity="1.0" stroke="rgb(0,0,0)"  stroke-width="3"/>
<line x1="367.4" y1="492.9" x2="401.8" y2="512.8" opacity="1.0" stroke="rgb(0,0,0)"  stroke-width="3"/>
<line x1="401.8" y1="512.8" x2="436.2" y2="492.9" opacity="1.0" stroke="rgb(0,0,0)"  stroke-width="3"/>
<line x1="403.4" y1="503.6" x2="427.4" y2="489.7" opacity="1.0" stroke="rgb(0,0,0)"  stroke-width="3"/>
<line x1="436.2" y1="492.9" x2="436.2" y2="453.1" opacity="1.0" stroke="rgb(0,0,0)"  stroke-width="3"/>
<line x1="436.2" y1="453.1" x2="401.8" y2="433.2" opacity="1.0" stroke="rgb(0,0,0)"  stroke-width="3"/>
<line x1="427.4" y1="456.4" x2="403.4" y2="442.4" opacity="1.0" stroke="rgb(0,0,0)"  stroke-width="3"/>
<line x1="401.8" y1="433.2" x2="367.5" y2="453.1" opacity="1.0" stroke="rgb(0,0,0)"  stroke-width="3"/>
<line x1="367.5" y1="453.1" x2="367.4" y2="492.9" opacity="1.0" stroke="rgb(0,0,0)"  stroke-width="3"/>
<line x1="374.7" y1="459.2" x2="374.6" y2="486.9" opacity="1.0" stroke="rgb(0,0,0)"  stroke-width="3"/>
<text x="455.448234" y="163.061036" fill="rgb(12,12,255)" stroke-width="0" font-weight="bold" font-size="25.92" >N</text>
<text x="294.804269" y="222.848258" fill="rgb(255,181,181)" stroke-width="0" font-weight="bold" font-size="25.92" >B</text>
<text x="327.111762" y="401.473746" fill="rgb(12,12,255)" stroke-width="0" font-weight="bold" font-size="25.92" >N</text>
<text x="292.824782" y="460.860484" fill="rgb(12,12,255)" stroke-width="0" font-weight="bold" font-size="25.92" >N</text>
<text x="258.537802" y="401.473746" fill="rgb(12,12,255)" stroke-width="0" font-weight="bold" font-size="25.92" >N</text>
<text x="225.722407" y="261.590843" fill="rgb(12,12,255)" stroke-width="0" font-weight="bold" font-size="25.92" >N</text>
<text x="362.897255" y="263.303614" fill="rgb(12,12,255)" stroke-width="0" font-weight="bold" font-size="25.92" >N</text>
</svg>
</g>
</svg>
