<?xml version="1.0"?>
<svg version="1.1" id="topsvg"
xmlns="http://www.w3.org/2000/svg" xmlns:xlink="http://www.w3.org/1999/xlink"
xmlns:cml="http://www.xml-cml.org/schema" x="0" y="0" width="200px" height="200px" viewBox="0 0 100 100">
<title>GD78.sdf - Open Babel Depiction</title>
<rect x="0" y="0" width="100" height="100" fill="white"/>
<g transform="translate(0,0)">
<svg width="100" height="100" x="0" y="0" viewBox="0 0 564.974 500"
font-family="sans-serif" stroke="rgb(0,0,0)" stroke-width="3"  stroke-linecap="round">
<line x1="282.5" y1="280.0" x2="282.5" y2="320.0" opacity="1.0" stroke="rgb(0,0,0)"  stroke-width="3"/>
<line x1="247.8" y1="380.0" x2="213.2" y2="400.0" opacity="1.0" stroke="rgb(0,0,0)"  stroke-width="3"/>
<line x1="317.1" y1="380.0" x2="351.8" y2="400.0" opacity="1.0" stroke="rgb(0,0,0)"  stroke-width="3"/>
<line x1="363.0" y1="206.5" x2="386.4" y2="220.0" opacity="1.0" stroke="rgb(0,0,0)"  stroke-width="3"/>
<line x1="201.9" y1="206.5" x2="178.6" y2="220.0" opacity="1.0" stroke="rgb(0,0,0)"  stroke-width="3"/>
<line x1="178.6" y1="100.0" x2="143.9" y2="80.0" opacity="1.0" stroke="rgb(0,0,0)"  stroke-width="3"/>
<line x1="109.3" y1="220.0" x2="74.6" y2="200.0" opacity="1.0" stroke="rgb(0,0,0)"  stroke-width="3"/>
<line x1="386.4" y1="100.0" x2="421.1" y2="80.0" opacity="1.0" stroke="rgb(0,0,0)"  stroke-width="3"/>
<line x1="455.7" y1="220.0" x2="490.3" y2="200.0" opacity="1.0" stroke="rgb(0,0,0)"  stroke-width="3"/>
<line x1="490.3" y1="200.0" x2="525.0" y2="220.0" opacity="1.0" stroke="rgb(0,0,0)"  stroke-width="3"/>
<line x1="490.3" y1="200.0" x2="490.3" y2="160.0" opacity="1.0" stroke="rgb(0,0,0)"  stroke-width="3"/>
<line x1="490.3" y1="200.0" x2="525.0" y2="180.0" opacity="1.0" stroke="rgb(0,0,0)"  stroke-width="3"/>
<line x1="421.1" y1="80.0" x2="455.7" y2="100.0" opacity="1.0" stroke="rgb(0,0,0)"  stroke-width="3"/>
<line x1="421.1" y1="80.0" x2="421.1" y2="40.0" opacity="1.0" stroke="rgb(0,0,0)"  stroke-width="3"/>
<line x1="421.1" y1="80.0" x2="455.7" y2="60.0" opacity="1.0" stroke="rgb(0,0,0)"  stroke-width="3"/>
<line x1="143.9" y1="80.0" x2="109.3" y2="100.0" opacity="1.0" stroke="rgb(0,0,0)"  stroke-width="3"/>
<line x1="143.9" y1="80.0" x2="143.9" y2="40.0" opacity="1.0" stroke="rgb(0,0,0)"  stroke-width="3"/>
<line x1="143.9" y1="80.0" x2="178.6" y2="60.0" opacity="1.0" stroke="rgb(0,0,0)"  stroke-width="3"/>
<line x1="74.6" y1="200.0" x2="40.0" y2="220.0" opacity="1.0" stroke="rgb(0,0,0)"  stroke-width="3"/>
<line x1="74.6" y1="200.0" x2="74.6" y2="160.0" opacity="1.0" stroke="rgb(0,0,0)"  stroke-width="3"/>
<line x1="74.6" y1="200.0" x2="109.3" y2="180.0" opacity="1.0" stroke="rgb(0,0,0)"  stroke-width="3"/>
<line x1="247.8" y1="260.0" x2="282.5" y2="280.0" opacity="1.0" stroke="rgb(0,0,0)"  stroke-width="3"/>
<line x1="282.5" y1="280.0" x2="317.1" y2="260.0" opacity="1.0" stroke="rgb(0,0,0)"  stroke-width="3"/>
<line x1="284.1" y1="270.8" x2="308.3" y2="256.8" opacity="1.0" stroke="rgb(0,0,0)"  stroke-width="3"/>
<line x1="317.1" y1="260.0" x2="317.1" y2="220.0" opacity="1.0" stroke="rgb(0,0,0)"  stroke-width="3"/>
<line x1="317.1" y1="220.0" x2="282.5" y2="200.0" opacity="1.0" stroke="rgb(0,0,0)"  stroke-width="3"/>
<line x1="308.3" y1="223.2" x2="284.1" y2="209.2" opacity="1.0" stroke="rgb(0,0,0)"  stroke-width="3"/>
<line x1="282.5" y1="200.0" x2="247.8" y2="220.0" opacity="1.0" stroke="rgb(0,0,0)"  stroke-width="3"/>
<line x1="247.8" y1="220.0" x2="247.8" y2="260.0" opacity="1.0" stroke="rgb(0,0,0)"  stroke-width="3"/>
<line x1="255.0" y1="226.0" x2="255.0" y2="254.0" opacity="1.0" stroke="rgb(0,0,0)"  stroke-width="3"/>
<line x1="282.5" y1="173.0" x2="282.5" y2="200.0" opacity="1.0" stroke="rgb(0,0,0)"  stroke-width="3"/>
<line x1="247.8" y1="220.0" x2="224.5" y2="206.5" opacity="1.0" stroke="rgb(0,0,0)"  stroke-width="3"/>
<line x1="213.2" y1="187.0" x2="213.2" y2="160.0" opacity="1.0" stroke="rgb(0,0,0)"  stroke-width="3"/>
<line x1="213.2" y1="160.0" x2="247.8" y2="140.0" opacity="1.0" stroke="rgb(0,0,0)"  stroke-width="3"/>
<line x1="222.0" y1="163.2" x2="246.2" y2="149.2" opacity="1.0" stroke="rgb(0,0,0)"  stroke-width="3"/>
<line x1="247.8" y1="140.0" x2="271.2" y2="153.5" opacity="1.0" stroke="rgb(0,0,0)"  stroke-width="3"/>
<line x1="178.6" y1="100.0" x2="213.2" y2="80.0" opacity="1.0" stroke="rgb(0,0,0)"  stroke-width="3"/>
<line x1="213.2" y1="80.0" x2="247.8" y2="100.0" opacity="1.0" stroke="rgb(0,0,0)"  stroke-width="3"/>
<line x1="214.8" y1="89.2" x2="239.0" y2="103.2" opacity="1.0" stroke="rgb(0,0,0)"  stroke-width="3"/>
<line x1="247.8" y1="100.0" x2="247.8" y2="140.0" opacity="1.0" stroke="rgb(0,0,0)"  stroke-width="3"/>
<line x1="213.2" y1="160.0" x2="178.6" y2="140.0" opacity="1.0" stroke="rgb(0,0,0)"  stroke-width="3"/>
<line x1="178.6" y1="140.0" x2="178.6" y2="100.0" opacity="1.0" stroke="rgb(0,0,0)"  stroke-width="3"/>
<line x1="185.8" y1="134.0" x2="185.8" y2="106.0" opacity="1.0" stroke="rgb(0,0,0)"  stroke-width="3"/>
<line x1="351.8" y1="160.0" x2="317.1" y2="140.0" opacity="1.0" stroke="rgb(0,0,0)"  stroke-width="3"/>
<line x1="343.0" y1="163.2" x2="318.7" y2="149.2" opacity="1.0" stroke="rgb(0,0,0)"  stroke-width="3"/>
<line x1="317.1" y1="140.0" x2="293.7" y2="153.5" opacity="1.0" stroke="rgb(0,0,0)"  stroke-width="3"/>
<line x1="317.1" y1="220.0" x2="340.5" y2="206.5" opacity="1.0" stroke="rgb(0,0,0)"  stroke-width="3"/>
<line x1="351.8" y1="187.0" x2="351.8" y2="160.0" opacity="1.0" stroke="rgb(0,0,0)"  stroke-width="3"/>
<line x1="351.8" y1="80.0" x2="317.1" y2="100.0" opacity="1.0" stroke="rgb(0,0,0)"  stroke-width="3"/>
<line x1="350.2" y1="89.2" x2="325.9" y2="103.2" opacity="1.0" stroke="rgb(0,0,0)"  stroke-width="3"/>
<line x1="317.1" y1="100.0" x2="317.1" y2="140.0" opacity="1.0" stroke="rgb(0,0,0)"  stroke-width="3"/>
<line x1="351.8" y1="160.0" x2="386.4" y2="140.0" opacity="1.0" stroke="rgb(0,0,0)"  stroke-width="3"/>
<line x1="386.4" y1="140.0" x2="386.4" y2="100.0" opacity="1.0" stroke="rgb(0,0,0)"  stroke-width="3"/>
<line x1="379.2" y1="134.0" x2="379.2" y2="106.0" opacity="1.0" stroke="rgb(0,0,0)"  stroke-width="3"/>
<line x1="386.4" y1="100.0" x2="351.8" y2="80.0" opacity="1.0" stroke="rgb(0,0,0)"  stroke-width="3"/>
<line x1="247.8" y1="353.0" x2="247.8" y2="380.0" opacity="1.0" stroke="rgb(0,0,0)"  stroke-width="3"/>
<line x1="247.8" y1="380.0" x2="271.1" y2="393.4" opacity="1.0" stroke="rgb(0,0,0)"  stroke-width="3"/>
<line x1="256.6" y1="376.8" x2="272.9" y2="386.2" opacity="1.0" stroke="rgb(0,0,0)"  stroke-width="3"/>
<line x1="293.7" y1="393.5" x2="317.1" y2="380.0" opacity="1.0" stroke="rgb(0,0,0)"  stroke-width="3"/>
<line x1="317.1" y1="380.0" x2="317.1" y2="353.2" opacity="1.0" stroke="rgb(0,0,0)"  stroke-width="3"/>
<line x1="309.9" y1="374.0" x2="309.9" y2="355.2" opacity="1.0" stroke="rgb(0,0,0)"  stroke-width="3"/>
<line x1="305.9" y1="333.5" x2="282.5" y2="320.0" opacity="1.0" stroke="rgb(0,0,0)"  stroke-width="3"/>
<line x1="282.5" y1="320.0" x2="259.3" y2="333.4" opacity="1.0" stroke="rgb(0,0,0)"  stroke-width="3"/>
<line x1="280.9" y1="329.2" x2="264.6" y2="338.6" opacity="1.0" stroke="rgb(0,0,0)"  stroke-width="3"/>
<line x1="351.8" y1="440.0" x2="386.4" y2="460.0" opacity="1.0" stroke="rgb(0,0,0)"  stroke-width="3"/>
<line x1="386.4" y1="460.0" x2="421.1" y2="440.0" opacity="1.0" stroke="rgb(0,0,0)"  stroke-width="3"/>
<line x1="388.0" y1="450.8" x2="412.3" y2="436.8" opacity="1.0" stroke="rgb(0,0,0)"  stroke-width="3"/>
<line x1="421.1" y1="440.0" x2="421.1" y2="400.0" opacity="1.0" stroke="rgb(0,0,0)"  stroke-width="3"/>
<line x1="421.1" y1="400.0" x2="386.4" y2="380.0" opacity="1.0" stroke="rgb(0,0,0)"  stroke-width="3"/>
<line x1="412.3" y1="403.2" x2="388.0" y2="389.2" opacity="1.0" stroke="rgb(0,0,0)"  stroke-width="3"/>
<line x1="386.4" y1="380.0" x2="351.8" y2="400.0" opacity="1.0" stroke="rgb(0,0,0)"  stroke-width="3"/>
<line x1="351.8" y1="400.0" x2="351.8" y2="440.0" opacity="1.0" stroke="rgb(0,0,0)"  stroke-width="3"/>
<line x1="359.0" y1="406.0" x2="359.0" y2="434.0" opacity="1.0" stroke="rgb(0,0,0)"  stroke-width="3"/>
<line x1="178.6" y1="380.0" x2="143.9" y2="400.0" opacity="1.0" stroke="rgb(0,0,0)"  stroke-width="3"/>
<line x1="143.9" y1="400.0" x2="143.9" y2="440.0" opacity="1.0" stroke="rgb(0,0,0)"  stroke-width="3"/>
<line x1="151.1" y1="406.0" x2="151.1" y2="434.0" opacity="1.0" stroke="rgb(0,0,0)"  stroke-width="3"/>
<line x1="143.9" y1="440.0" x2="178.6" y2="460.0" opacity="1.0" stroke="rgb(0,0,0)"  stroke-width="3"/>
<line x1="178.6" y1="460.0" x2="213.2" y2="440.0" opacity="1.0" stroke="rgb(0,0,0)"  stroke-width="3"/>
<line x1="180.2" y1="450.8" x2="204.4" y2="436.8" opacity="1.0" stroke="rgb(0,0,0)"  stroke-width="3"/>
<line x1="213.2" y1="440.0" x2="213.2" y2="400.0" opacity="1.0" stroke="rgb(0,0,0)"  stroke-width="3"/>
<line x1="213.2" y1="400.0" x2="178.6" y2="380.0" opacity="1.0" stroke="rgb(0,0,0)"  stroke-width="3"/>
<line x1="204.4" y1="403.2" x2="180.2" y2="389.2" opacity="1.0" stroke="rgb(0,0,0)"  stroke-width="3"/>
<line x1="143.9" y1="200.0" x2="109.3" y2="220.0" opacity="1.0" stroke="rgb(0,0,0)"  stroke-width="3"/>
<line x1="109.3" y1="220.0" x2="109.3" y2="260.0" opacity="1.0" stroke="rgb(0,0,0)"  stroke-width="3"/>
<line x1="116.5" y1="226.0" x2="116.5" y2="254.0" opacity="1.0" stroke="rgb(0,0,0)"  stroke-width="3"/>
<line x1="109.3" y1="260.0" x2="143.9" y2="280.0" opacity="1.0" stroke="rgb(0,0,0)"  stroke-width="3"/>
<line x1="143.9" y1="280.0" x2="178.6" y2="260.0" opacity="1.0" stroke="rgb(0,0,0)"  stroke-width="3"/>
<line x1="145.5" y1="270.8" x2="169.8" y2="256.8" opacity="1.0" stroke="rgb(0,0,0)"  stroke-width="3"/>
<line x1="178.6" y1="260.0" x2="178.6" y2="220.0" opacity="1.0" stroke="rgb(0,0,0)"  stroke-width="3"/>
<line x1="178.6" y1="220.0" x2="143.9" y2="200.0" opacity="1.0" stroke="rgb(0,0,0)"  stroke-width="3"/>
<line x1="169.8" y1="223.2" x2="145.5" y2="209.2" opacity="1.0" stroke="rgb(0,0,0)"  stroke-width="3"/>
<line x1="386.4" y1="260.0" x2="421.1" y2="280.0" opacity="1.0" stroke="rgb(0,0,0)"  stroke-width="3"/>
<line x1="421.1" y1="280.0" x2="455.7" y2="260.0" opacity="1.0" stroke="rgb(0,0,0)"  stroke-width="3"/>
<line x1="422.6" y1="270.8" x2="446.9" y2="256.8" opacity="1.0" stroke="rgb(0,0,0)"  stroke-width="3"/>
<line x1="455.7" y1="260.0" x2="455.7" y2="220.0" opacity="1.0" stroke="rgb(0,0,0)"  stroke-width="3"/>
<line x1="455.7" y1="220.0" x2="421.1" y2="200.0" opacity="1.0" stroke="rgb(0,0,0)"  stroke-width="3"/>
<line x1="446.9" y1="223.2" x2="422.6" y2="209.2" opacity="1.0" stroke="rgb(0,0,0)"  stroke-width="3"/>
<line x1="421.1" y1="200.0" x2="386.4" y2="220.0" opacity="1.0" stroke="rgb(0,0,0)"  stroke-width="3"/>
<line x1="386.4" y1="220.0" x2="386.4" y2="260.0" opacity="1.0" stroke="rgb(0,0,0)"  stroke-width="3"/>
<line x1="393.6" y1="226.0" x2="393.6" y2="254.0" opacity="1.0" stroke="rgb(0,0,0)"  stroke-width="3"/>
<text x="276.487130" y="408.000004" fill="rgb(12,12,255)" stroke-width="0" font-weight="bold" font-size="25.92" >N</text>
<text x="241.846111" y="348.000003" fill="rgb(12,12,255)" stroke-width="0" font-weight="bold" font-size="25.92" >N</text>
<text x="345.769119" y="208.000002" fill="rgb(12,12,255)" stroke-width="0" font-weight="bold" font-size="25.92" >N</text>
<text x="207.205093" y="208.000002" fill="rgb(12,12,255)" stroke-width="0" font-weight="bold" font-size="25.92" >N</text>
<text x="276.487130" y="168.000001" fill="rgb(255,181,181)" stroke-width="0" font-weight="bold" font-size="25.92" >B</text>
<text x="311.128100" y="348.000003" fill="rgb(12,12,255)" stroke-width="0" font-weight="bold" font-size="25.92" >N</text>
</svg>
</g>
</svg>
