<?xml version="1.0"?>
<svg version="1.1" id="topsvg"
xmlns="http://www.w3.org/2000/svg" xmlns:xlink="http://www.w3.org/1999/xlink"
xmlns:cml="http://www.xml-cml.org/schema" x="0" y="0" width="200px" height="200px" viewBox="0 0 100 100">
<title>GD81.sdf - Open Babel Depiction</title>
<rect x="0" y="0" width="100" height="100" fill="white"/>
<g transform="translate(0,0)">
<svg width="100" height="100" x="0" y="0" viewBox="0 0 574.907 603.474"
font-family="sans-serif" stroke="rgb(0,0,0)" stroke-width="3"  stroke-linecap="round">
<line x1="394.1" y1="132.6" x2="382.4" y2="109.4" opacity="1.0" stroke="rgb(0,0,0)"  stroke-width="3"/>
<line x1="191.4" y1="188.5" x2="177.5" y2="152.1" opacity="1.0" stroke="rgb(0,0,0)"  stroke-width="3"/>
<line x1="115.2" y1="337.3" x2="77.6" y2="347.3" opacity="1.0" stroke="rgb(0,0,0)"  stroke-width="3"/>
<line x1="296.5" y1="374.0" x2="302.2" y2="485.7" opacity="1.0" stroke="rgb(0,0,0)"  stroke-width="3"/>
<line x1="177.5" y1="152.1" x2="200.5" y2="120.7" opacity="1.0" stroke="rgb(0,0,0)"  stroke-width="3"/>
<line x1="177.5" y1="152.1" x2="138.8" y2="148.0" opacity="1.0" stroke="rgb(0,0,0)"  stroke-width="3"/>
<line x1="177.5" y1="152.1" x2="161.7" y2="116.5" opacity="1.0" stroke="rgb(0,0,0)"  stroke-width="3"/>
<line x1="77.6" y1="347.3" x2="40.0" y2="357.3" opacity="1.0" stroke="rgb(0,0,0)"  stroke-width="3"/>
<line x1="77.6" y1="347.3" x2="50.1" y2="319.8" opacity="1.0" stroke="rgb(0,0,0)"  stroke-width="3"/>
<line x1="77.6" y1="347.3" x2="67.5" y2="384.9" opacity="1.0" stroke="rgb(0,0,0)"  stroke-width="3"/>
<line x1="336.8" y1="503.4" x2="369.5" y2="482.3" opacity="1.0" stroke="rgb(0,0,0)"  stroke-width="3"/>
<line x1="434.9" y1="440.0" x2="467.6" y2="418.9" opacity="1.0" stroke="rgb(0,0,0)"  stroke-width="3"/>
<line x1="163.0" y1="289.7" x2="180.7" y2="255.1" opacity="1.0" stroke="rgb(0,0,0)"  stroke-width="3"/>
<line x1="180.7" y1="255.1" x2="219.2" y2="261.2" opacity="1.0" stroke="rgb(0,0,0)"  stroke-width="3"/>
<line x1="185.5" y1="263.1" x2="212.1" y2="267.4" opacity="1.0" stroke="rgb(0,0,0)"  stroke-width="3"/>
<line x1="219.2" y1="261.2" x2="223.2" y2="286.8" opacity="1.0" stroke="rgb(0,0,0)"  stroke-width="3"/>
<line x1="213.6" y1="305.6" x2="190.5" y2="317.3" opacity="1.0" stroke="rgb(0,0,0)"  stroke-width="3"/>
<line x1="190.5" y1="317.3" x2="163.0" y2="289.7" opacity="1.0" stroke="rgb(0,0,0)"  stroke-width="3"/>
<line x1="191.4" y1="308.0" x2="172.3" y2="288.9" opacity="1.0" stroke="rgb(0,0,0)"  stroke-width="3"/>
<line x1="396.2" y1="306.9" x2="420.8" y2="276.7" opacity="1.0" stroke="rgb(0,0,0)"  stroke-width="3"/>
<line x1="394.4" y1="297.7" x2="411.4" y2="276.8" opacity="1.0" stroke="rgb(0,0,0)"  stroke-width="3"/>
<line x1="420.8" y1="276.7" x2="399.6" y2="244.0" opacity="1.0" stroke="rgb(0,0,0)"  stroke-width="3"/>
<line x1="399.6" y1="244.0" x2="362.0" y2="254.0" opacity="1.0" stroke="rgb(0,0,0)"  stroke-width="3"/>
<line x1="395.7" y1="252.5" x2="369.7" y2="259.4" opacity="1.0" stroke="rgb(0,0,0)"  stroke-width="3"/>
<line x1="362.0" y1="254.0" x2="360.6" y2="279.9" opacity="1.0" stroke="rgb(0,0,0)"  stroke-width="3"/>
<line x1="372.0" y1="297.5" x2="396.2" y2="306.9" opacity="1.0" stroke="rgb(0,0,0)"  stroke-width="3"/>
<line x1="438.5" y1="150.3" x2="412.9" y2="146.2" opacity="1.0" stroke="rgb(0,0,0)"  stroke-width="3"/>
<line x1="394.1" y1="155.7" x2="382.3" y2="178.8" opacity="1.0" stroke="rgb(0,0,0)"  stroke-width="3"/>
<line x1="382.3" y1="178.8" x2="409.8" y2="206.4" opacity="1.0" stroke="rgb(0,0,0)"  stroke-width="3"/>
<line x1="391.6" y1="178.0" x2="410.6" y2="197.1" opacity="1.0" stroke="rgb(0,0,0)"  stroke-width="3"/>
<line x1="409.8" y1="206.4" x2="444.5" y2="188.8" opacity="1.0" stroke="rgb(0,0,0)"  stroke-width="3"/>
<line x1="444.5" y1="188.8" x2="438.5" y2="150.3" opacity="1.0" stroke="rgb(0,0,0)"  stroke-width="3"/>
<line x1="436.4" y1="184.0" x2="432.3" y2="157.4" opacity="1.0" stroke="rgb(0,0,0)"  stroke-width="3"/>
<line x1="261.8" y1="356.3" x2="296.5" y2="374.0" opacity="1.0" stroke="rgb(0,0,0)"  stroke-width="3"/>
<line x1="296.5" y1="374.0" x2="329.2" y2="352.9" opacity="1.0" stroke="rgb(0,0,0)"  stroke-width="3"/>
<line x1="297.6" y1="364.7" x2="320.2" y2="350.1" opacity="1.0" stroke="rgb(0,0,0)"  stroke-width="3"/>
<line x1="329.2" y1="352.9" x2="327.2" y2="314.0" opacity="1.0" stroke="rgb(0,0,0)"  stroke-width="3"/>
<line x1="327.2" y1="314.0" x2="292.6" y2="296.3" opacity="1.0" stroke="rgb(0,0,0)"  stroke-width="3"/>
<line x1="318.6" y1="317.7" x2="294.6" y2="305.4" opacity="1.0" stroke="rgb(0,0,0)"  stroke-width="3"/>
<line x1="292.6" y1="296.3" x2="259.9" y2="317.4" opacity="1.0" stroke="rgb(0,0,0)"  stroke-width="3"/>
<line x1="259.9" y1="317.4" x2="261.8" y2="356.3" opacity="1.0" stroke="rgb(0,0,0)"  stroke-width="3"/>
<line x1="267.4" y1="323.1" x2="268.7" y2="349.9" opacity="1.0" stroke="rgb(0,0,0)"  stroke-width="3"/>
<line x1="291.2" y1="270.4" x2="292.6" y2="296.3" opacity="1.0" stroke="rgb(0,0,0)"  stroke-width="3"/>
<line x1="259.9" y1="317.4" x2="236.8" y2="305.6" opacity="1.0" stroke="rgb(0,0,0)"  stroke-width="3"/>
<line x1="219.2" y1="261.2" x2="243.7" y2="231.0" opacity="1.0" stroke="rgb(0,0,0)"  stroke-width="3"/>
<line x1="243.7" y1="231.0" x2="279.3" y2="251.0" opacity="1.0" stroke="rgb(0,0,0)"  stroke-width="3"/>
<line x1="327.2" y1="314.0" x2="349.0" y2="299.9" opacity="1.0" stroke="rgb(0,0,0)"  stroke-width="3"/>
<line x1="362.0" y1="254.0" x2="334.5" y2="226.4" opacity="1.0" stroke="rgb(0,0,0)"  stroke-width="3"/>
<line x1="334.5" y1="226.4" x2="301.2" y2="249.9" opacity="1.0" stroke="rgb(0,0,0)"  stroke-width="3"/>
<line x1="382.3" y1="178.8" x2="344.7" y2="188.8" opacity="1.0" stroke="rgb(0,0,0)"  stroke-width="3"/>
<line x1="344.7" y1="188.8" x2="334.5" y2="226.4" opacity="1.0" stroke="rgb(0,0,0)"  stroke-width="3"/>
<line x1="350.1" y1="196.5" x2="343.0" y2="222.5" opacity="1.0" stroke="rgb(0,0,0)"  stroke-width="3"/>
<line x1="399.6" y1="244.0" x2="409.8" y2="206.4" opacity="1.0" stroke="rgb(0,0,0)"  stroke-width="3"/>
<line x1="473.1" y1="319.2" x2="459.2" y2="282.8" opacity="1.0" stroke="rgb(0,0,0)"  stroke-width="3"/>
<line x1="464.2" y1="316.2" x2="454.6" y2="291.0" opacity="1.0" stroke="rgb(0,0,0)"  stroke-width="3"/>
<line x1="459.2" y1="282.8" x2="420.8" y2="276.7" opacity="1.0" stroke="rgb(0,0,0)"  stroke-width="3"/>
<line x1="396.2" y1="306.9" x2="410.1" y2="343.3" opacity="1.0" stroke="rgb(0,0,0)"  stroke-width="3"/>
<line x1="410.1" y1="343.3" x2="448.6" y2="349.4" opacity="1.0" stroke="rgb(0,0,0)"  stroke-width="3"/>
<line x1="417.2" y1="337.1" x2="443.8" y2="341.3" opacity="1.0" stroke="rgb(0,0,0)"  stroke-width="3"/>
<line x1="448.6" y1="349.4" x2="473.1" y2="319.2" opacity="1.0" stroke="rgb(0,0,0)"  stroke-width="3"/>
<line x1="505.1" y1="139.9" x2="468.8" y2="125.9" opacity="1.0" stroke="rgb(0,0,0)"  stroke-width="3"/>
<line x1="496.9" y1="144.4" x2="471.8" y2="134.7" opacity="1.0" stroke="rgb(0,0,0)"  stroke-width="3"/>
<line x1="468.8" y1="125.9" x2="438.5" y2="150.3" opacity="1.0" stroke="rgb(0,0,0)"  stroke-width="3"/>
<line x1="444.5" y1="188.8" x2="480.8" y2="202.8" opacity="1.0" stroke="rgb(0,0,0)"  stroke-width="3"/>
<line x1="480.8" y1="202.8" x2="511.1" y2="178.3" opacity="1.0" stroke="rgb(0,0,0)"  stroke-width="3"/>
<line x1="481.0" y1="193.4" x2="501.9" y2="176.5" opacity="1.0" stroke="rgb(0,0,0)"  stroke-width="3"/>
<line x1="511.1" y1="178.3" x2="505.1" y2="139.9" opacity="1.0" stroke="rgb(0,0,0)"  stroke-width="3"/>
<line x1="142.7" y1="364.9" x2="115.2" y2="337.3" opacity="1.0" stroke="rgb(0,0,0)"  stroke-width="3"/>
<line x1="115.2" y1="337.3" x2="125.4" y2="299.7" opacity="1.0" stroke="rgb(0,0,0)"  stroke-width="3"/>
<line x1="123.8" y1="333.4" x2="130.8" y2="307.4" opacity="1.0" stroke="rgb(0,0,0)"  stroke-width="3"/>
<line x1="125.4" y1="299.7" x2="163.0" y2="289.7" opacity="1.0" stroke="rgb(0,0,0)"  stroke-width="3"/>
<line x1="190.5" y1="317.3" x2="180.3" y2="354.9" opacity="1.0" stroke="rgb(0,0,0)"  stroke-width="3"/>
<line x1="180.3" y1="354.9" x2="142.7" y2="364.9" opacity="1.0" stroke="rgb(0,0,0)"  stroke-width="3"/>
<line x1="172.7" y1="349.5" x2="146.7" y2="356.4" opacity="1.0" stroke="rgb(0,0,0)"  stroke-width="3"/>
<line x1="180.7" y1="255.1" x2="166.9" y2="218.7" opacity="1.0" stroke="rgb(0,0,0)"  stroke-width="3"/>
<line x1="166.9" y1="218.7" x2="191.4" y2="188.5" opacity="1.0" stroke="rgb(0,0,0)"  stroke-width="3"/>
<line x1="176.2" y1="218.6" x2="193.2" y2="197.7" opacity="1.0" stroke="rgb(0,0,0)"  stroke-width="3"/>
<line x1="191.4" y1="188.5" x2="229.9" y2="194.6" opacity="1.0" stroke="rgb(0,0,0)"  stroke-width="3"/>
<line x1="229.9" y1="194.6" x2="243.7" y2="231.0" opacity="1.0" stroke="rgb(0,0,0)"  stroke-width="3"/>
<line x1="225.3" y1="202.8" x2="234.9" y2="228.0" opacity="1.0" stroke="rgb(0,0,0)"  stroke-width="3"/>
<line x1="403.7" y1="76.8" x2="386.1" y2="42.1" opacity="1.0" stroke="rgb(0,0,0)"  stroke-width="3"/>
<line x1="386.1" y1="42.1" x2="347.2" y2="40.0" opacity="1.0" stroke="rgb(0,0,0)"  stroke-width="3"/>
<line x1="379.7" y1="49.0" x2="352.8" y2="47.5" opacity="1.0" stroke="rgb(0,0,0)"  stroke-width="3"/>
<line x1="347.2" y1="40.0" x2="325.9" y2="72.6" opacity="1.0" stroke="rgb(0,0,0)"  stroke-width="3"/>
<line x1="325.9" y1="72.6" x2="343.5" y2="107.3" opacity="1.0" stroke="rgb(0,0,0)"  stroke-width="3"/>
<line x1="335.1" y1="74.7" x2="347.2" y2="98.7" opacity="1.0" stroke="rgb(0,0,0)"  stroke-width="3"/>
<line x1="343.5" y1="107.3" x2="382.4" y2="109.4" opacity="1.0" stroke="rgb(0,0,0)"  stroke-width="3"/>
<line x1="382.4" y1="109.4" x2="403.7" y2="76.8" opacity="1.0" stroke="rgb(0,0,0)"  stroke-width="3"/>
<line x1="379.7" y1="100.5" x2="394.4" y2="77.9" opacity="1.0" stroke="rgb(0,0,0)"  stroke-width="3"/>
<line x1="269.5" y1="506.9" x2="271.4" y2="545.7" opacity="1.0" stroke="rgb(0,0,0)"  stroke-width="3"/>
<line x1="271.4" y1="545.7" x2="306.1" y2="563.5" opacity="1.0" stroke="rgb(0,0,0)"  stroke-width="3"/>
<line x1="280.1" y1="542.1" x2="304.0" y2="554.3" opacity="1.0" stroke="rgb(0,0,0)"  stroke-width="3"/>
<line x1="306.1" y1="563.5" x2="338.8" y2="542.3" opacity="1.0" stroke="rgb(0,0,0)"  stroke-width="3"/>
<line x1="338.8" y1="542.3" x2="336.8" y2="503.4" opacity="1.0" stroke="rgb(0,0,0)"  stroke-width="3"/>
<line x1="331.3" y1="536.7" x2="329.9" y2="509.8" opacity="1.0" stroke="rgb(0,0,0)"  stroke-width="3"/>
<line x1="336.8" y1="503.4" x2="302.2" y2="485.7" opacity="1.0" stroke="rgb(0,0,0)"  stroke-width="3"/>
<line x1="302.2" y1="485.7" x2="269.5" y2="506.9" opacity="1.0" stroke="rgb(0,0,0)"  stroke-width="3"/>
<line x1="301.0" y1="495.0" x2="278.4" y2="509.6" opacity="1.0" stroke="rgb(0,0,0)"  stroke-width="3"/>
<line x1="404.2" y1="500.0" x2="436.8" y2="478.9" opacity="1.0" stroke="rgb(0,0,0)"  stroke-width="3"/>
<line x1="436.8" y1="478.9" x2="434.9" y2="440.0" opacity="1.0" stroke="rgb(0,0,0)"  stroke-width="3"/>
<line x1="429.3" y1="473.3" x2="428.0" y2="446.4" opacity="1.0" stroke="rgb(0,0,0)"  stroke-width="3"/>
<line x1="434.9" y1="440.0" x2="400.2" y2="422.3" opacity="1.0" stroke="rgb(0,0,0)"  stroke-width="3"/>
<line x1="400.2" y1="422.3" x2="367.5" y2="443.4" opacity="1.0" stroke="rgb(0,0,0)"  stroke-width="3"/>
<line x1="399.1" y1="431.6" x2="376.5" y2="446.2" opacity="1.0" stroke="rgb(0,0,0)"  stroke-width="3"/>
<line x1="367.5" y1="443.4" x2="369.5" y2="482.3" opacity="1.0" stroke="rgb(0,0,0)"  stroke-width="3"/>
<line x1="369.5" y1="482.3" x2="404.2" y2="500.0" opacity="1.0" stroke="rgb(0,0,0)"  stroke-width="3"/>
<line x1="378.1" y1="478.6" x2="402.1" y2="490.9" opacity="1.0" stroke="rgb(0,0,0)"  stroke-width="3"/>
<line x1="330.9" y1="386.8" x2="332.9" y2="425.7" opacity="1.0" stroke="rgb(0,0,0)"  stroke-width="3"/>
<line x1="338.4" y1="392.4" x2="339.8" y2="419.3" opacity="1.0" stroke="rgb(0,0,0)"  stroke-width="3"/>
<line x1="332.9" y1="425.7" x2="367.5" y2="443.4" opacity="1.0" stroke="rgb(0,0,0)"  stroke-width="3"/>
<line x1="400.2" y1="422.3" x2="398.2" y2="383.4" opacity="1.0" stroke="rgb(0,0,0)"  stroke-width="3"/>
<line x1="398.2" y1="383.4" x2="363.6" y2="365.7" opacity="1.0" stroke="rgb(0,0,0)"  stroke-width="3"/>
<line x1="389.6" y1="387.1" x2="365.7" y2="374.8" opacity="1.0" stroke="rgb(0,0,0)"  stroke-width="3"/>
<line x1="363.6" y1="365.7" x2="330.9" y2="386.8" opacity="1.0" stroke="rgb(0,0,0)"  stroke-width="3"/>
<line x1="473.5" y1="535.5" x2="471.5" y2="496.6" opacity="1.0" stroke="rgb(0,0,0)"  stroke-width="3"/>
<line x1="466.0" y1="529.9" x2="464.6" y2="503.0" opacity="1.0" stroke="rgb(0,0,0)"  stroke-width="3"/>
<line x1="471.5" y1="496.6" x2="436.8" y2="478.9" opacity="1.0" stroke="rgb(0,0,0)"  stroke-width="3"/>
<line x1="404.2" y1="500.0" x2="406.1" y2="538.9" opacity="1.0" stroke="rgb(0,0,0)"  stroke-width="3"/>
<line x1="406.1" y1="538.9" x2="440.8" y2="556.7" opacity="1.0" stroke="rgb(0,0,0)"  stroke-width="3"/>
<line x1="414.7" y1="535.2" x2="438.7" y2="547.5" opacity="1.0" stroke="rgb(0,0,0)"  stroke-width="3"/>
<line x1="440.8" y1="556.7" x2="473.5" y2="535.5" opacity="1.0" stroke="rgb(0,0,0)"  stroke-width="3"/>
<line x1="502.2" y1="436.6" x2="534.9" y2="415.4" opacity="1.0" stroke="rgb(0,0,0)"  stroke-width="3"/>
<line x1="534.9" y1="415.4" x2="532.9" y2="376.6" opacity="1.0" stroke="rgb(0,0,0)"  stroke-width="3"/>
<line x1="527.4" y1="409.8" x2="526.1" y2="382.9" opacity="1.0" stroke="rgb(0,0,0)"  stroke-width="3"/>
<line x1="532.9" y1="376.6" x2="498.3" y2="358.8" opacity="1.0" stroke="rgb(0,0,0)"  stroke-width="3"/>
<line x1="498.3" y1="358.8" x2="465.6" y2="380.0" opacity="1.0" stroke="rgb(0,0,0)"  stroke-width="3"/>
<line x1="497.2" y1="368.1" x2="474.5" y2="382.8" opacity="1.0" stroke="rgb(0,0,0)"  stroke-width="3"/>
<line x1="465.6" y1="380.0" x2="467.6" y2="418.9" opacity="1.0" stroke="rgb(0,0,0)"  stroke-width="3"/>
<line x1="467.6" y1="418.9" x2="502.2" y2="436.6" opacity="1.0" stroke="rgb(0,0,0)"  stroke-width="3"/>
<line x1="476.2" y1="415.2" x2="500.2" y2="427.4" opacity="1.0" stroke="rgb(0,0,0)"  stroke-width="3"/>
<text x="219.210214" y="307.689416" fill="rgb(12,12,255)" stroke-width="0" font-weight="bold" font-size="25.92" >N</text>
<text x="353.901229" y="300.865586" fill="rgb(12,12,255)" stroke-width="0" font-weight="bold" font-size="25.92" >N</text>
<text x="284.585893" y="265.395551" fill="rgb(255,181,181)" stroke-width="0" font-weight="bold" font-size="25.92" >B</text>
<text x="394.024979" y="152.157734" fill="rgb(12,12,255)" stroke-width="0" font-weight="bold" font-size="25.92" >N</text>
</svg>
</g>
</svg>
