<?xml version="1.0"?>
<svg version="1.1" id="topsvg"
xmlns="http://www.w3.org/2000/svg" xmlns:xlink="http://www.w3.org/1999/xlink"
xmlns:cml="http://www.xml-cml.org/schema" x="0" y="0" width="200px" height="200px" viewBox="0 0 100 100">
<title>GD83.sdf - Open Babel Depiction</title>
<rect x="0" y="0" width="100" height="100" fill="white"/>
<g transform="translate(0,0)">
<svg width="100" height="100" x="0" y="0" viewBox="0 0 608.577 597.787"
font-family="sans-serif" stroke="rgb(0,0,0)" stroke-width="3"  stroke-linecap="round">
<line x1="259.0" y1="305.5" x2="235.9" y2="318.8" opacity="1.0" stroke="rgb(0,0,0)"  stroke-width="3"/>
<line x1="339.2" y1="378.6" x2="339.2" y2="418.4" opacity="1.0" stroke="rgb(0,0,0)"  stroke-width="3"/>
<line x1="304.7" y1="478.1" x2="270.3" y2="498.1" opacity="1.0" stroke="rgb(0,0,0)"  stroke-width="3"/>
<line x1="373.7" y1="478.1" x2="408.2" y2="498.1" opacity="1.0" stroke="rgb(0,0,0)"  stroke-width="3"/>
<line x1="451.6" y1="137.3" x2="440.7" y2="112.8" opacity="1.0" stroke="rgb(0,0,0)"  stroke-width="3"/>
<line x1="267.4" y1="179.6" x2="266.7" y2="139.7" opacity="1.0" stroke="rgb(0,0,0)"  stroke-width="3"/>
<line x1="266.7" y1="139.7" x2="300.8" y2="119.2" opacity="1.0" stroke="rgb(0,0,0)"  stroke-width="3"/>
<line x1="266.7" y1="139.7" x2="231.9" y2="120.4" opacity="1.0" stroke="rgb(0,0,0)"  stroke-width="3"/>
<line x1="266.7" y1="139.7" x2="266.0" y2="99.9" opacity="1.0" stroke="rgb(0,0,0)"  stroke-width="3"/>
<line x1="201.4" y1="298.9" x2="173.2" y2="270.7" opacity="1.0" stroke="rgb(0,0,0)"  stroke-width="3"/>
<line x1="106.6" y1="252.9" x2="68.2" y2="263.2" opacity="1.0" stroke="rgb(0,0,0)"  stroke-width="3"/>
<line x1="68.2" y1="263.2" x2="40.0" y2="235.0" opacity="1.0" stroke="rgb(0,0,0)"  stroke-width="3"/>
<line x1="68.2" y1="263.2" x2="57.9" y2="301.7" opacity="1.0" stroke="rgb(0,0,0)"  stroke-width="3"/>
<line x1="68.2" y1="263.2" x2="78.5" y2="224.7" opacity="1.0" stroke="rgb(0,0,0)"  stroke-width="3"/>
<line x1="155.4" y1="204.1" x2="165.7" y2="165.7" opacity="1.0" stroke="rgb(0,0,0)"  stroke-width="3"/>
<line x1="165.7" y1="165.7" x2="137.5" y2="137.5" opacity="1.0" stroke="rgb(0,0,0)"  stroke-width="3"/>
<line x1="165.7" y1="165.7" x2="204.2" y2="155.4" opacity="1.0" stroke="rgb(0,0,0)"  stroke-width="3"/>
<line x1="165.7" y1="165.7" x2="176.0" y2="127.2" opacity="1.0" stroke="rgb(0,0,0)"  stroke-width="3"/>
<line x1="166.9" y1="358.6" x2="132.4" y2="378.5" opacity="1.0" stroke="rgb(0,0,0)"  stroke-width="3"/>
<line x1="132.4" y1="378.5" x2="97.9" y2="358.6" opacity="1.0" stroke="rgb(0,0,0)"  stroke-width="3"/>
<line x1="132.4" y1="378.5" x2="132.4" y2="418.4" opacity="1.0" stroke="rgb(0,0,0)"  stroke-width="3"/>
<line x1="132.4" y1="378.5" x2="132.4" y2="338.7" opacity="1.0" stroke="rgb(0,0,0)"  stroke-width="3"/>
<line x1="495.8" y1="157.4" x2="469.6" y2="151.8" opacity="1.0" stroke="rgb(0,0,0)"  stroke-width="3"/>
<line x1="450.4" y1="160.4" x2="437.0" y2="183.6" opacity="1.0" stroke="rgb(0,0,0)"  stroke-width="3"/>
<line x1="437.0" y1="183.6" x2="463.6" y2="213.2" opacity="1.0" stroke="rgb(0,0,0)"  stroke-width="3"/>
<line x1="446.3" y1="183.3" x2="464.9" y2="203.9" opacity="1.0" stroke="rgb(0,0,0)"  stroke-width="3"/>
<line x1="463.6" y1="213.2" x2="500.0" y2="197.0" opacity="1.0" stroke="rgb(0,0,0)"  stroke-width="3"/>
<line x1="500.0" y1="197.0" x2="495.8" y2="157.4" opacity="1.0" stroke="rgb(0,0,0)"  stroke-width="3"/>
<line x1="492.2" y1="191.8" x2="489.3" y2="164.1" opacity="1.0" stroke="rgb(0,0,0)"  stroke-width="3"/>
<line x1="444.6" y1="315.2" x2="471.2" y2="285.6" opacity="1.0" stroke="rgb(0,0,0)"  stroke-width="3"/>
<line x1="443.2" y1="305.9" x2="461.8" y2="285.2" opacity="1.0" stroke="rgb(0,0,0)"  stroke-width="3"/>
<line x1="471.2" y1="285.6" x2="451.3" y2="251.1" opacity="1.0" stroke="rgb(0,0,0)"  stroke-width="3"/>
<line x1="451.3" y1="251.1" x2="412.4" y2="259.4" opacity="1.0" stroke="rgb(0,0,0)"  stroke-width="3"/>
<line x1="446.9" y1="259.4" x2="419.7" y2="265.2" opacity="1.0" stroke="rgb(0,0,0)"  stroke-width="3"/>
<line x1="412.4" y1="259.4" x2="409.5" y2="286.0" opacity="1.0" stroke="rgb(0,0,0)"  stroke-width="3"/>
<line x1="420.1" y1="304.2" x2="444.6" y2="315.2" opacity="1.0" stroke="rgb(0,0,0)"  stroke-width="3"/>
<line x1="373.7" y1="358.7" x2="373.7" y2="318.9" opacity="1.0" stroke="rgb(0,0,0)"  stroke-width="3"/>
<line x1="373.7" y1="318.9" x2="339.2" y2="299.0" opacity="1.0" stroke="rgb(0,0,0)"  stroke-width="3"/>
<line x1="364.9" y1="322.1" x2="340.8" y2="308.2" opacity="1.0" stroke="rgb(0,0,0)"  stroke-width="3"/>
<line x1="339.2" y1="299.0" x2="304.7" y2="318.9" opacity="1.0" stroke="rgb(0,0,0)"  stroke-width="3"/>
<line x1="304.7" y1="318.9" x2="304.7" y2="358.7" opacity="1.0" stroke="rgb(0,0,0)"  stroke-width="3"/>
<line x1="311.9" y1="324.9" x2="311.9" y2="352.7" opacity="1.0" stroke="rgb(0,0,0)"  stroke-width="3"/>
<line x1="304.7" y1="358.7" x2="339.2" y2="378.6" opacity="1.0" stroke="rgb(0,0,0)"  stroke-width="3"/>
<line x1="339.2" y1="378.6" x2="373.7" y2="358.7" opacity="1.0" stroke="rgb(0,0,0)"  stroke-width="3"/>
<line x1="340.8" y1="369.4" x2="364.9" y2="355.5" opacity="1.0" stroke="rgb(0,0,0)"  stroke-width="3"/>
<line x1="303.3" y1="239.3" x2="268.9" y2="260.4" opacity="1.0" stroke="rgb(0,0,0)"  stroke-width="3"/>
<line x1="302.0" y1="248.5" x2="277.7" y2="263.4" opacity="1.0" stroke="rgb(0,0,0)"  stroke-width="3"/>
<line x1="268.9" y1="260.4" x2="269.8" y2="286.0" opacity="1.0" stroke="rgb(0,0,0)"  stroke-width="3"/>
<line x1="281.5" y1="305.5" x2="304.7" y2="318.9" opacity="1.0" stroke="rgb(0,0,0)"  stroke-width="3"/>
<line x1="339.2" y1="299.0" x2="339.2" y2="272.1" opacity="1.0" stroke="rgb(0,0,0)"  stroke-width="3"/>
<line x1="327.8" y1="252.8" x2="303.3" y2="239.3" opacity="1.0" stroke="rgb(0,0,0)"  stroke-width="3"/>
<line x1="232.9" y1="200.1" x2="233.7" y2="240.5" opacity="1.0" stroke="rgb(0,0,0)"  stroke-width="3"/>
<line x1="240.2" y1="205.9" x2="240.8" y2="234.4" opacity="1.0" stroke="rgb(0,0,0)"  stroke-width="3"/>
<line x1="233.7" y1="240.5" x2="268.9" y2="260.4" opacity="1.0" stroke="rgb(0,0,0)"  stroke-width="3"/>
<line x1="303.3" y1="239.3" x2="302.6" y2="198.8" opacity="1.0" stroke="rgb(0,0,0)"  stroke-width="3"/>
<line x1="302.6" y1="198.8" x2="267.4" y2="179.6" opacity="1.0" stroke="rgb(0,0,0)"  stroke-width="3"/>
<line x1="293.9" y1="202.3" x2="269.2" y2="188.7" opacity="1.0" stroke="rgb(0,0,0)"  stroke-width="3"/>
<line x1="267.4" y1="179.6" x2="232.9" y2="200.1" opacity="1.0" stroke="rgb(0,0,0)"  stroke-width="3"/>
<line x1="437.0" y1="183.6" x2="398.0" y2="191.9" opacity="1.0" stroke="rgb(0,0,0)"  stroke-width="3"/>
<line x1="398.0" y1="191.9" x2="385.7" y2="229.8" opacity="1.0" stroke="rgb(0,0,0)"  stroke-width="3"/>
<line x1="403.0" y1="199.8" x2="394.4" y2="226.3" opacity="1.0" stroke="rgb(0,0,0)"  stroke-width="3"/>
<line x1="385.7" y1="229.8" x2="412.4" y2="259.4" opacity="1.0" stroke="rgb(0,0,0)"  stroke-width="3"/>
<line x1="451.3" y1="251.1" x2="463.6" y2="213.2" opacity="1.0" stroke="rgb(0,0,0)"  stroke-width="3"/>
<line x1="385.7" y1="229.8" x2="350.2" y2="252.2" opacity="1.0" stroke="rgb(0,0,0)"  stroke-width="3"/>
<line x1="373.7" y1="318.9" x2="396.9" y2="305.5" opacity="1.0" stroke="rgb(0,0,0)"  stroke-width="3"/>
<line x1="564.4" y1="150.2" x2="528.0" y2="134.0" opacity="1.0" stroke="rgb(0,0,0)"  stroke-width="3"/>
<line x1="556.0" y1="154.3" x2="530.6" y2="143.0" opacity="1.0" stroke="rgb(0,0,0)"  stroke-width="3"/>
<line x1="528.0" y1="134.0" x2="495.8" y2="157.4" opacity="1.0" stroke="rgb(0,0,0)"  stroke-width="3"/>
<line x1="500.0" y1="197.0" x2="536.4" y2="213.2" opacity="1.0" stroke="rgb(0,0,0)"  stroke-width="3"/>
<line x1="536.4" y1="213.2" x2="568.6" y2="189.8" opacity="1.0" stroke="rgb(0,0,0)"  stroke-width="3"/>
<line x1="537.0" y1="203.9" x2="559.5" y2="187.5" opacity="1.0" stroke="rgb(0,0,0)"  stroke-width="3"/>
<line x1="568.6" y1="189.8" x2="564.4" y2="150.2" opacity="1.0" stroke="rgb(0,0,0)"  stroke-width="3"/>
<line x1="201.4" y1="298.9" x2="166.9" y2="318.8" opacity="1.0" stroke="rgb(0,0,0)"  stroke-width="3"/>
<line x1="166.9" y1="318.8" x2="166.9" y2="358.6" opacity="1.0" stroke="rgb(0,0,0)"  stroke-width="3"/>
<line x1="174.1" y1="324.8" x2="174.1" y2="352.6" opacity="1.0" stroke="rgb(0,0,0)"  stroke-width="3"/>
<line x1="166.9" y1="358.6" x2="201.4" y2="378.5" opacity="1.0" stroke="rgb(0,0,0)"  stroke-width="3"/>
<line x1="201.4" y1="378.5" x2="235.9" y2="358.6" opacity="1.0" stroke="rgb(0,0,0)"  stroke-width="3"/>
<line x1="203.0" y1="369.3" x2="227.1" y2="355.4" opacity="1.0" stroke="rgb(0,0,0)"  stroke-width="3"/>
<line x1="235.9" y1="358.6" x2="235.9" y2="318.8" opacity="1.0" stroke="rgb(0,0,0)"  stroke-width="3"/>
<line x1="235.9" y1="318.8" x2="201.4" y2="298.9" opacity="1.0" stroke="rgb(0,0,0)"  stroke-width="3"/>
<line x1="227.1" y1="322.0" x2="203.0" y2="308.1" opacity="1.0" stroke="rgb(0,0,0)"  stroke-width="3"/>
<line x1="304.7" y1="451.3" x2="304.7" y2="478.1" opacity="1.0" stroke="rgb(0,0,0)"  stroke-width="3"/>
<line x1="304.7" y1="478.1" x2="327.8" y2="491.5" opacity="1.0" stroke="rgb(0,0,0)"  stroke-width="3"/>
<line x1="313.5" y1="474.9" x2="329.7" y2="484.2" opacity="1.0" stroke="rgb(0,0,0)"  stroke-width="3"/>
<line x1="350.5" y1="491.6" x2="373.7" y2="478.1" opacity="1.0" stroke="rgb(0,0,0)"  stroke-width="3"/>
<line x1="373.7" y1="478.1" x2="373.7" y2="438.3" opacity="1.0" stroke="rgb(0,0,0)"  stroke-width="3"/>
<line x1="366.5" y1="472.1" x2="366.5" y2="444.3" opacity="1.0" stroke="rgb(0,0,0)"  stroke-width="3"/>
<line x1="373.7" y1="438.3" x2="339.2" y2="418.4" opacity="1.0" stroke="rgb(0,0,0)"  stroke-width="3"/>
<line x1="339.2" y1="418.4" x2="316.1" y2="431.8" opacity="1.0" stroke="rgb(0,0,0)"  stroke-width="3"/>
<line x1="337.6" y1="427.7" x2="321.5" y2="437.0" opacity="1.0" stroke="rgb(0,0,0)"  stroke-width="3"/>
<line x1="235.8" y1="478.1" x2="201.3" y2="498.1" opacity="1.0" stroke="rgb(0,0,0)"  stroke-width="3"/>
<line x1="201.3" y1="498.1" x2="201.3" y2="537.9" opacity="1.0" stroke="rgb(0,0,0)"  stroke-width="3"/>
<line x1="208.5" y1="504.1" x2="208.5" y2="531.9" opacity="1.0" stroke="rgb(0,0,0)"  stroke-width="3"/>
<line x1="201.3" y1="537.9" x2="235.8" y2="557.8" opacity="1.0" stroke="rgb(0,0,0)"  stroke-width="3"/>
<line x1="235.8" y1="557.8" x2="270.3" y2="537.9" opacity="1.0" stroke="rgb(0,0,0)"  stroke-width="3"/>
<line x1="237.4" y1="548.6" x2="261.5" y2="534.6" opacity="1.0" stroke="rgb(0,0,0)"  stroke-width="3"/>
<line x1="270.3" y1="537.9" x2="270.3" y2="498.1" opacity="1.0" stroke="rgb(0,0,0)"  stroke-width="3"/>
<line x1="270.3" y1="498.1" x2="235.8" y2="478.1" opacity="1.0" stroke="rgb(0,0,0)"  stroke-width="3"/>
<line x1="261.5" y1="501.3" x2="237.4" y2="487.4" opacity="1.0" stroke="rgb(0,0,0)"  stroke-width="3"/>
<line x1="408.2" y1="537.9" x2="442.7" y2="557.8" opacity="1.0" stroke="rgb(0,0,0)"  stroke-width="3"/>
<line x1="442.7" y1="557.8" x2="477.2" y2="537.9" opacity="1.0" stroke="rgb(0,0,0)"  stroke-width="3"/>
<line x1="444.3" y1="548.6" x2="468.4" y2="534.6" opacity="1.0" stroke="rgb(0,0,0)"  stroke-width="3"/>
<line x1="477.2" y1="537.9" x2="477.2" y2="498.1" opacity="1.0" stroke="rgb(0,0,0)"  stroke-width="3"/>
<line x1="477.2" y1="498.1" x2="442.7" y2="478.1" opacity="1.0" stroke="rgb(0,0,0)"  stroke-width="3"/>
<line x1="468.4" y1="501.3" x2="444.3" y2="487.4" opacity="1.0" stroke="rgb(0,0,0)"  stroke-width="3"/>
<line x1="442.7" y1="478.1" x2="408.2" y2="498.1" opacity="1.0" stroke="rgb(0,0,0)"  stroke-width="3"/>
<line x1="408.2" y1="498.1" x2="408.2" y2="537.9" opacity="1.0" stroke="rgb(0,0,0)"  stroke-width="3"/>
<line x1="415.4" y1="504.1" x2="415.4" y2="531.9" opacity="1.0" stroke="rgb(0,0,0)"  stroke-width="3"/>
<line x1="522.5" y1="331.7" x2="510.2" y2="293.8" opacity="1.0" stroke="rgb(0,0,0)"  stroke-width="3"/>
<line x1="513.8" y1="328.2" x2="505.2" y2="301.8" opacity="1.0" stroke="rgb(0,0,0)"  stroke-width="3"/>
<line x1="510.2" y1="293.8" x2="471.2" y2="285.6" opacity="1.0" stroke="rgb(0,0,0)"  stroke-width="3"/>
<line x1="444.6" y1="315.2" x2="456.9" y2="353.0" opacity="1.0" stroke="rgb(0,0,0)"  stroke-width="3"/>
<line x1="456.9" y1="353.0" x2="495.8" y2="361.3" opacity="1.0" stroke="rgb(0,0,0)"  stroke-width="3"/>
<line x1="464.2" y1="347.2" x2="491.5" y2="353.0" opacity="1.0" stroke="rgb(0,0,0)"  stroke-width="3"/>
<line x1="495.8" y1="361.3" x2="522.5" y2="331.7" opacity="1.0" stroke="rgb(0,0,0)"  stroke-width="3"/>
<line x1="464.1" y1="80.5" x2="447.9" y2="44.2" opacity="1.0" stroke="rgb(0,0,0)"  stroke-width="3"/>
<line x1="447.9" y1="44.2" x2="408.3" y2="40.0" opacity="1.0" stroke="rgb(0,0,0)"  stroke-width="3"/>
<line x1="441.2" y1="50.7" x2="413.5" y2="47.8" opacity="1.0" stroke="rgb(0,0,0)"  stroke-width="3"/>
<line x1="408.3" y1="40.0" x2="384.9" y2="72.2" opacity="1.0" stroke="rgb(0,0,0)"  stroke-width="3"/>
<line x1="384.9" y1="72.2" x2="401.1" y2="108.6" opacity="1.0" stroke="rgb(0,0,0)"  stroke-width="3"/>
<line x1="393.9" y1="74.8" x2="405.2" y2="100.2" opacity="1.0" stroke="rgb(0,0,0)"  stroke-width="3"/>
<line x1="401.1" y1="108.6" x2="440.7" y2="112.8" opacity="1.0" stroke="rgb(0,0,0)"  stroke-width="3"/>
<line x1="440.7" y1="112.8" x2="464.1" y2="80.5" opacity="1.0" stroke="rgb(0,0,0)"  stroke-width="3"/>
<line x1="438.4" y1="103.7" x2="454.7" y2="81.2" opacity="1.0" stroke="rgb(0,0,0)"  stroke-width="3"/>
<line x1="183.5" y1="232.3" x2="155.4" y2="204.1" opacity="1.0" stroke="rgb(0,0,0)"  stroke-width="3"/>
<line x1="155.4" y1="204.1" x2="116.9" y2="214.4" opacity="1.0" stroke="rgb(0,0,0)"  stroke-width="3"/>
<line x1="151.5" y1="212.6" x2="124.6" y2="219.8" opacity="1.0" stroke="rgb(0,0,0)"  stroke-width="3"/>
<line x1="116.9" y1="214.4" x2="106.6" y2="252.9" opacity="1.0" stroke="rgb(0,0,0)"  stroke-width="3"/>
<line x1="106.6" y1="252.9" x2="134.8" y2="281.0" opacity="1.0" stroke="rgb(0,0,0)"  stroke-width="3"/>
<line x1="116.0" y1="252.0" x2="135.6" y2="271.7" opacity="1.0" stroke="rgb(0,0,0)"  stroke-width="3"/>
<line x1="134.8" y1="281.0" x2="173.2" y2="270.7" opacity="1.0" stroke="rgb(0,0,0)"  stroke-width="3"/>
<line x1="173.2" y1="270.7" x2="183.5" y2="232.3" opacity="1.0" stroke="rgb(0,0,0)"  stroke-width="3"/>
<line x1="167.8" y1="263.1" x2="175.0" y2="236.2" opacity="1.0" stroke="rgb(0,0,0)"  stroke-width="3"/>
<text x="333.221249" y="267.139492" fill="rgb(255,181,181)" stroke-width="0" font-weight="bold" font-size="25.92" >B</text>
<text x="450.872892" y="157.131247" fill="rgb(12,12,255)" stroke-width="0" font-weight="bold" font-size="25.92" >N</text>
<text x="298.736446" y="446.328025" fill="rgb(12,12,255)" stroke-width="0" font-weight="bold" font-size="25.92" >N</text>
<text x="333.221297" y="506.057537" fill="rgb(12,12,255)" stroke-width="0" font-weight="bold" font-size="25.92" >N</text>
<text x="264.251594" y="306.959214" fill="rgb(12,12,255)" stroke-width="0" font-weight="bold" font-size="25.92" >N</text>
<text x="402.190952" y="306.959166" fill="rgb(12,12,255)" stroke-width="0" font-weight="bold" font-size="25.92" >N</text>
</svg>
</g>
</svg>
