<?xml version="1.0" standalone="no" ?>
<!DOCTYPE svg PUBLIC "-//W3C//DTD SVG 1.1//EN" "http://www.w3.org/Graphics/SVG/1.1/DTD/svg11.dtd">
<svg width="274px" height="245px" viewBox="0 0 274 245" style="background-color: #ffffff00" xmlns="http://www.w3.org/2000/svg" xmlns:xlink="http://www.w3.org/1999/xlink" version="1.1" >
<text x="0" y="0" stroke="none" fill="#000000" transform="matrix(0.0666667 0 0 0.0666667 165.492 123.667)" font-style="normal" font-weight="normal" font-size="200px" font-family="Arial" >
N</text>
<text x="0" y="0" stroke="none" fill="#000000" transform="matrix(0.0666667 0 0 0.0666667 132.607 104.467)" font-style="normal" font-weight="normal" font-size="200px" font-family="Arial" >
B</text>
<text x="0" y="0" stroke="none" fill="#000000" transform="matrix(0.0666667 0 0 0.0666667 98.9722 123.667)" font-style="normal" font-weight="normal" font-size="200px" font-family="Arial" >
N</text>
<path stroke="none" fill="#000000" transform="matrix(0.0666667 0 0 0.0666667 -102.533 -251)" d="M 3338.34,5689.26 L 3344.2,5686 L 3350.06,5689.38 L 3350.06,5970.62 L 3344.2,5974 L 3338.28,5972.14 L 3338.34,5689.26 Z " />
<path stroke="none" fill="#000000" transform="matrix(0.0666667 0 0 0.0666667 -102.533 -251)" d="M 3390.04,5715.94 L 3402.04,5715.94 L 3402.04,5944.06 L 3390.04,5944.06 L 3390.04,5715.94 Z " />
<path stroke="none" fill="#000000" transform="matrix(0.0666667 0 0 0.0666667 -102.533 -251)" d="M 3346.15,5981.78 L 3344.2,5974 L 3350.06,5970.62 L 3593.8,6111.24 L 3593.8,6125.1 L 3346.15,5981.78 Z " />
<path stroke="none" fill="#000000" transform="matrix(0.0666667 0 0 0.0666667 -102.533 -251)" d="M 3593.8,6125.1 L 3593.8,6111.24 L 3837.34,5970.62 L 3843.2,5974 L 3841.27,5981.78 L 3593.8,6125.1 Z " />
<path stroke="none" fill="#000000" transform="matrix(0.0666667 0 0 0.0666667 -102.533 -251)" d="M 3596.79,6063.34 L 3590.79,6052.95 L 3788.36,5938.88 L 3794.36,5949.27 L 3596.79,6063.34 Z " />
<path stroke="none" fill="#000000" transform="matrix(0.0666667 0 0 0.0666667 -102.533 -251)" d="M 3849.12,5972.12 L 3843.2,5974 L 3837.34,5970.62 L 3837.34,5689.38 L 3843.2,5686 L 3849.06,5689.26 L 3849.12,5972.12 Z " />
<path stroke="none" fill="#000000" transform="matrix(0.0666667 0 0 0.0666667 -102.533 -251)" d="M 3849.06,5689.26 L 3843.2,5686 L 3843.31,5679.29 L 3986.74,5596.19 L 3992.74,5606.58 L 3849.06,5689.26 Z " />
<path stroke="none" fill="#000000" transform="matrix(0.0666667 0 0 0.0666667 -102.533 -251)" d="M 4098.6,5447.17 L 4086.6,5447.17 L 4086.81,5257.43 L 4092.6,5254 L 4098.39,5257.43 L 4098.6,5447.17 Z " />
<path stroke="none" fill="#000000" transform="matrix(0.0666667 0 0 0.0666667 -102.533 -251)" d="M 4098.39,5257.43 L 4092.6,5254 L 4092.6,5247.23 L 4336.14,5106.62 L 4342,5110 L 4339.8,5117.92 L 4098.39,5257.43 Z " />
<path stroke="none" fill="#000000" transform="matrix(0.0666667 0 0 0.0666667 -102.533 -251)" d="M 4095.6,5199.34 L 4089.6,5188.95 L 4287.16,5074.88 L 4293.16,5085.27 L 4095.6,5199.34 Z " />
<path stroke="none" fill="#000000" transform="matrix(0.0666667 0 0 0.0666667 -102.533 -251)" d="M 4339.8,5117.92 L 4342,5110 L 4347.93,5108.35 L 4595.8,5537.69 L 4591.4,5542 L 4583.45,5539.95 L 4339.8,5117.92 Z " />
<path stroke="none" fill="#000000" transform="matrix(0.0666667 0 0 0.0666667 -102.533 -251)" d="M 4583.45,5539.95 L 4591.4,5542 L 4591.4,5548.77 L 4347.86,5689.38 L 4342,5686 L 4341.89,5679.29 L 4583.45,5539.95 Z " />
<path stroke="none" fill="#000000" transform="matrix(0.0666667 0 0 0.0666667 -102.533 -251)" d="M 4588.4,5596.66 L 4594.4,5607.05 L 4396.84,5721.12 L 4390.84,5710.73 L 4588.4,5596.66 Z " />
<path stroke="none" fill="#000000" transform="matrix(0.0666667 0 0 0.0666667 -102.533 -251)" d="M 4191.7,5606.15 L 4197.7,5595.75 L 4341.89,5679.29 L 4342,5686 L 4336.14,5689.26 L 4191.7,5606.15 Z " />
<path stroke="none" fill="#000000" transform="matrix(0.0666667 0 0 0.0666667 -102.533 -251)" d="M 4336.14,5689.26 L 4342,5686 L 4347.86,5689.38 L 4347.86,5970.62 L 4342,5974 L 4336,5974 L 4336.14,5689.26 Z " />
<path stroke="none" fill="#000000" transform="matrix(0.0666667 0 0 0.0666667 -102.533 -251)" d="M 4346.82,5983.29 L 4342,5974 L 4347.86,5970.62 L 4591.4,6111.23 L 4591.4,6125.1 L 4346.82,5983.29 Z " />
<path stroke="none" fill="#000000" transform="matrix(0.0666667 0 0 0.0666667 -102.533 -251)" d="M 4390.84,5949.27 L 4396.84,5938.88 L 4594.4,6052.95 L 4588.4,6063.34 L 4390.84,5949.27 Z " />
<path stroke="none" fill="#000000" transform="matrix(0.0666667 0 0 0.0666667 -102.533 -251)" d="M 4591.4,6125.1 L 4591.4,6111.23 L 4834.94,5970.62 L 4840.8,5974 L 4840.8,5980.77 L 4591.4,6125.1 Z " />
<path stroke="none" fill="#000000" transform="matrix(0.0666667 0 0 0.0666667 -102.533 -251)" d="M 4840.8,5980.77 L 4840.8,5974 L 4846.66,5970.62 L 5090.2,6111.23 L 5090.2,6118 L 5084.34,6121.38 L 4840.8,5980.77 Z " />
<path stroke="none" fill="#000000" transform="matrix(0.0666667 0 0 0.0666667 -102.533 -251)" d="M 5096.06,6121.38 L 5090.2,6118 L 5090.2,6111.23 L 5339.6,5966.9 L 5339.6,5980.77 L 5096.06,6121.38 Z " />
<path stroke="none" fill="#000000" transform="matrix(0.0666667 0 0 0.0666667 -102.533 -251)" d="M 5145.04,6153.12 L 5139.04,6142.73 L 5336.6,6028.66 L 5342.6,6039.05 L 5145.04,6153.12 Z " />
<path stroke="none" fill="#000000" transform="matrix(0.0666667 0 0 0.0666667 -102.533 -251)" d="M 5339.6,5980.77 L 5339.6,5966.9 L 5595.15,6114.45 L 5583.14,6121.38 L 5339.6,5980.77 Z " />
<path stroke="none" fill="#000000" transform="matrix(0.0666667 0 0 0.0666667 -102.533 -251)" d="M 5583.14,6121.38 L 5595.15,6114.45 L 5595.15,6409.55 L 5583.14,6402.62 L 5583.14,6121.38 Z " />
<path stroke="none" fill="#000000" transform="matrix(0.0666667 0 0 0.0666667 -102.533 -251)" d="M 5531.16,6147.93 L 5543.16,6147.93 L 5543.16,6376.07 L 5531.16,6376.07 L 5531.16,6147.93 Z " />
<path stroke="none" fill="#000000" transform="matrix(0.0666667 0 0 0.0666667 -102.533 -251)" d="M 5583.14,6402.62 L 5595.15,6409.55 L 5339.6,6557.1 L 5339.6,6543.23 L 5583.14,6402.62 Z " />
<path stroke="none" fill="#000000" transform="matrix(0.0666667 0 0 0.0666667 -102.533 -251)" d="M 5339.6,6543.23 L 5339.6,6557.1 L 5084.05,6409.55 L 5096.06,6402.62 L 5339.6,6543.23 Z " />
<path stroke="none" fill="#000000" transform="matrix(0.0666667 0 0 0.0666667 -102.533 -251)" d="M 5342.6,6484.95 L 5336.6,6495.34 L 5139.04,6381.27 L 5145.04,6370.88 L 5342.6,6484.95 Z " />
<path stroke="none" fill="#000000" transform="matrix(0.0666667 0 0 0.0666667 -102.533 -251)" d="M 5084.34,6121.38 L 5090.2,6118 L 5096.06,6121.38 L 5096.06,6402.62 L 5084.05,6409.55 L 5084.34,6121.38 Z " />
<path stroke="none" fill="#000000" transform="matrix(0.0666667 0 0 0.0666667 -102.533 -251)" d="M 4846.66,5970.62 L 4840.8,5974 L 4834.94,5970.62 L 4834.94,5689.38 L 4846.95,5682.45 L 4846.66,5970.62 Z " />
<path stroke="none" fill="#000000" transform="matrix(0.0666667 0 0 0.0666667 -102.533 -251)" d="M 4794.96,5944.07 L 4782.96,5944.07 L 4782.96,5715.93 L 4794.96,5715.93 L 4794.96,5944.07 Z " />
<path stroke="none" fill="#000000" transform="matrix(0.0666667 0 0 0.0666667 -102.533 -251)" d="M 4591.4,5548.77 L 4591.4,5542 L 4595.8,5537.69 L 4846.95,5682.45 L 4834.94,5689.38 L 4591.4,5548.77 Z " />
<path stroke="none" fill="#000000" transform="matrix(0.0666667 0 0 0.0666667 -102.533 -251)" d="M 4347.93,5108.35 L 4342,5110 L 4336.14,5106.62 L 4336.14,4825.38 L 4348.15,4818.45 L 4347.93,5108.35 Z " />
<path stroke="none" fill="#000000" transform="matrix(0.0666667 0 0 0.0666667 -102.533 -251)" d="M 4348.15,4818.45 L 4336.14,4825.38 L 4092.6,4684.77 L 4092.6,4678 L 4098.46,4674.62 L 4348.15,4818.45 Z " />
<path stroke="none" fill="#000000" transform="matrix(0.0666667 0 0 0.0666667 -102.533 -251)" d="M 4293.16,4846.73 L 4287.16,4857.12 L 4089.6,4743.05 L 4095.6,4732.66 L 4293.16,4846.73 Z " />
<path stroke="none" fill="#000000" transform="matrix(0.0666667 0 0 0.0666667 -102.533 -251)" d="M 4098.46,4674.62 L 4092.6,4678 L 4086.74,4674.62 L 4086.74,4393.38 L 4092.6,4390 L 4098.46,4393.38 L 4098.46,4674.62 Z " />
<path stroke="none" fill="#000000" transform="matrix(0.0666667 0 0 0.0666667 -102.533 -251)" d="M 4092.6,4383.23 L 4092.6,4390 L 4086.74,4393.38 L 3837.05,4249.55 L 3849.06,4242.62 L 4092.6,4383.23 Z " />
<path stroke="none" fill="#000000" transform="matrix(0.0666667 0 0 0.0666667 -102.533 -251)" d="M 4095.6,4324.95 L 4089.6,4335.34 L 3892.04,4221.27 L 3898.04,4210.88 L 4095.6,4324.95 Z " />
<path stroke="none" fill="#000000" transform="matrix(0.0666667 0 0 0.0666667 -102.533 -251)" d="M 3849.06,4242.62 L 3837.05,4249.55 L 3837.05,3954.45 L 3849.06,3961.38 L 3849.06,4242.62 Z " />
<path stroke="none" fill="#000000" transform="matrix(0.0666667 0 0 0.0666667 -102.533 -251)" d="M 3849.06,3961.38 L 3837.05,3954.45 L 4092.6,3806.9 L 4092.6,3820.77 L 3849.06,3961.38 Z " />
<path stroke="none" fill="#000000" transform="matrix(0.0666667 0 0 0.0666667 -102.533 -251)" d="M 3898.04,3993.12 L 3892.04,3982.73 L 4089.6,3868.66 L 4095.6,3879.05 L 3898.04,3993.12 Z " />
<path stroke="none" fill="#000000" transform="matrix(0.0666667 0 0 0.0666667 -102.533 -251)" d="M 4092.6,3820.77 L 4092.6,3806.9 L 4348.15,3954.45 L 4336.14,3961.38 L 4092.6,3820.77 Z " />
<path stroke="none" fill="#000000" transform="matrix(0.0666667 0 0 0.0666667 -102.533 -251)" d="M 4336.14,3961.38 L 4348.15,3954.45 L 4348.15,4249.55 L 4336.14,4242.62 L 4336.14,3961.38 Z " />
<path stroke="none" fill="#000000" transform="matrix(0.0666667 0 0 0.0666667 -102.533 -251)" d="M 4284.16,3987.93 L 4296.16,3987.93 L 4296.16,4216.07 L 4284.16,4216.07 L 4284.16,3987.93 Z " />
<path stroke="none" fill="#000000" transform="matrix(0.0666667 0 0 0.0666667 -102.533 -251)" d="M 4098.46,4393.38 L 4092.6,4390 L 4092.6,4383.23 L 4336.14,4242.62 L 4348.15,4249.55 L 4098.46,4393.38 Z " />
<path stroke="none" fill="#000000" transform="matrix(0.0666667 0 0 0.0666667 -102.533 -251)" d="M 4086.74,4674.62 L 4092.6,4678 L 4092.6,4684.77 L 3849.06,4825.38 L 3837.05,4818.45 L 4086.74,4674.62 Z " />
<path stroke="none" fill="#000000" transform="matrix(0.0666667 0 0 0.0666667 -102.533 -251)" d="M 3837.05,4818.45 L 3849.06,4825.38 L 3849.06,5106.62 L 3843.2,5110 L 3837.34,5106.7 L 3837.05,4818.45 Z " />
<path stroke="none" fill="#000000" transform="matrix(0.0666667 0 0 0.0666667 -102.533 -251)" d="M 3889.04,4851.93 L 3901.04,4851.93 L 3901.04,5080.07 L 3889.04,5080.07 L 3889.04,4851.93 Z " />
<path stroke="none" fill="#000000" transform="matrix(0.0666667 0 0 0.0666667 -102.533 -251)" d="M 4092.6,5247.23 L 4092.6,5254 L 4086.81,5257.43 L 3843.13,5116.73 L 3843.2,5110 L 3849.06,5106.62 L 4092.6,5247.23 Z " />
<path stroke="none" fill="#000000" transform="matrix(0.0666667 0 0 0.0666667 -102.533 -251)" d="M 3843.31,5679.29 L 3843.2,5686 L 3837.34,5689.38 L 3593.8,5548.76 L 3593.8,5542 L 3599.57,5538.56 L 3843.31,5679.29 Z " />
<path stroke="none" fill="#000000" transform="matrix(0.0666667 0 0 0.0666667 -102.533 -251)" d="M 3794.36,5710.73 L 3788.36,5721.12 L 3590.79,5607.05 L 3596.79,5596.66 L 3794.36,5710.73 Z " />
<path stroke="none" fill="#000000" transform="matrix(0.0666667 0 0 0.0666667 -102.533 -251)" d="M 3350.06,5689.38 L 3344.2,5686 L 3344.09,5679.29 L 3588.03,5538.56 L 3593.8,5542 L 3593.8,5548.76 L 3350.06,5689.38 Z " />
<path stroke="none" fill="#000000" transform="matrix(0.0666667 0 0 0.0666667 -102.533 -251)" d="M 3599.57,5538.56 L 3593.8,5542 L 3588.03,5538.56 L 3587.8,5363.17 L 3599.8,5363.17 L 3599.57,5538.56 Z " />
<path stroke="none" fill="#000000" transform="matrix(0.0666667 0 0 0.0666667 -102.533 -251)" d="M 3837.34,5106.7 L 3843.2,5110 L 3843.13,5116.73 L 3676.72,5213.05 L 3670.72,5202.66 L 3837.34,5106.7 Z " />
<path stroke="none" fill="#000000" transform="matrix(0.0666667 0 0 0.0666667 -102.533 -251)" d="M 3503.09,5194.74 L 3497.1,5205.14 L 3344.29,5116.72 L 3344.2,5110 L 3350.06,5106.72 L 3503.09,5194.74 Z " />
<path stroke="none" fill="#000000" transform="matrix(0.0666667 0 0 0.0666667 -102.533 -251)" d="M 3350.06,5106.72 L 3344.2,5110 L 3338.34,5106.62 L 3338.34,4825.38 L 3350.35,4818.45 L 3350.06,5106.72 Z " />
<path stroke="none" fill="#000000" transform="matrix(0.0666667 0 0 0.0666667 -102.533 -251)" d="M 3298.36,5080.07 L 3286.36,5080.07 L 3286.36,4851.93 L 3298.36,4851.93 L 3298.36,5080.07 Z " />
<path stroke="none" fill="#000000" transform="matrix(0.0666667 0 0 0.0666667 -102.533 -251)" d="M 3350.35,4818.45 L 3338.34,4825.38 L 3094.8,4684.77 L 3094.8,4678 L 3100.66,4674.62 L 3350.35,4818.45 Z " />
<path stroke="none" fill="#000000" transform="matrix(0.0666667 0 0 0.0666667 -102.533 -251)" d="M 3100.66,4674.62 L 3094.8,4678 L 3088.94,4674.62 L 3088.94,4393.38 L 3094.8,4390 L 3100.66,4393.38 L 3100.66,4674.62 Z " />
<path stroke="none" fill="#000000" transform="matrix(0.0666667 0 0 0.0666667 -102.533 -251)" d="M 3094.8,4383.23 L 3094.8,4390 L 3088.94,4393.38 L 2839.25,4249.55 L 2851.26,4242.62 L 3094.8,4383.23 Z " />
<path stroke="none" fill="#000000" transform="matrix(0.0666667 0 0 0.0666667 -102.533 -251)" d="M 3097.8,4324.95 L 3091.8,4335.34 L 2894.24,4221.27 L 2900.24,4210.88 L 3097.8,4324.95 Z " />
<path stroke="none" fill="#000000" transform="matrix(0.0666667 0 0 0.0666667 -102.533 -251)" d="M 2851.26,4242.62 L 2839.25,4249.55 L 2839.25,3954.45 L 2851.26,3961.38 L 2851.26,4242.62 Z " />
<path stroke="none" fill="#000000" transform="matrix(0.0666667 0 0 0.0666667 -102.533 -251)" d="M 2851.26,3961.38 L 2839.25,3954.45 L 3094.8,3806.9 L 3094.8,3820.77 L 2851.26,3961.38 Z " />
<path stroke="none" fill="#000000" transform="matrix(0.0666667 0 0 0.0666667 -102.533 -251)" d="M 2900.24,3993.12 L 2894.24,3982.73 L 3091.8,3868.66 L 3097.8,3879.05 L 2900.24,3993.12 Z " />
<path stroke="none" fill="#000000" transform="matrix(0.0666667 0 0 0.0666667 -102.533 -251)" d="M 3094.8,3820.77 L 3094.8,3806.9 L 3350.35,3954.45 L 3338.34,3961.38 L 3094.8,3820.77 Z " />
<path stroke="none" fill="#000000" transform="matrix(0.0666667 0 0 0.0666667 -102.533 -251)" d="M 3338.34,3961.38 L 3350.35,3954.45 L 3350.35,4249.55 L 3338.34,4242.62 L 3338.34,3961.38 Z " />
<path stroke="none" fill="#000000" transform="matrix(0.0666667 0 0 0.0666667 -102.533 -251)" d="M 3286.36,3987.93 L 3298.36,3987.93 L 3298.36,4216.07 L 3286.36,4216.07 L 3286.36,3987.93 Z " />
<path stroke="none" fill="#000000" transform="matrix(0.0666667 0 0 0.0666667 -102.533 -251)" d="M 3100.66,4393.38 L 3094.8,4390 L 3094.8,4383.23 L 3338.34,4242.62 L 3350.35,4249.55 L 3100.66,4393.38 Z " />
<path stroke="none" fill="#000000" transform="matrix(0.0666667 0 0 0.0666667 -102.533 -251)" d="M 3088.94,4674.62 L 3094.8,4678 L 3094.8,4684.77 L 2851.26,4825.38 L 2839.25,4818.45 L 3088.94,4674.62 Z " />
<path stroke="none" fill="#000000" transform="matrix(0.0666667 0 0 0.0666667 -102.533 -251)" d="M 3091.8,4732.66 L 3097.8,4743.05 L 2900.24,4857.12 L 2894.24,4846.73 L 3091.8,4732.66 Z " />
<path stroke="none" fill="#000000" transform="matrix(0.0666667 0 0 0.0666667 -102.533 -251)" d="M 2839.25,4818.45 L 2851.26,4825.38 L 2851.26,5106.62 L 2845.4,5110 L 2839.47,5108.35 L 2839.25,4818.45 Z " />
<path stroke="none" fill="#000000" transform="matrix(0.0666667 0 0 0.0666667 -102.533 -251)" d="M 2847.6,5117.92 L 2845.4,5110 L 2851.26,5106.62 L 3094.8,5247.23 L 3094.8,5254 L 3089.01,5257.43 L 2847.6,5117.92 Z " />
<path stroke="none" fill="#000000" transform="matrix(0.0666667 0 0 0.0666667 -102.533 -251)" d="M 2894.24,5085.27 L 2900.24,5074.88 L 3097.8,5188.95 L 3091.8,5199.34 L 2894.24,5085.27 Z " />
<path stroke="none" fill="#000000" transform="matrix(0.0666667 0 0 0.0666667 -102.533 -251)" d="M 3338.34,5106.62 L 3344.2,5110 L 3344.29,5116.72 L 3100.59,5257.43 L 3094.8,5254 L 3094.8,5247.23 L 3338.34,5106.62 Z " />
<path stroke="none" fill="#000000" transform="matrix(0.0666667 0 0 0.0666667 -102.533 -251)" d="M 3089.01,5257.43 L 3094.8,5254 L 3100.59,5257.43 L 3100.8,5447.17 L 3088.8,5447.17 L 3089.01,5257.43 Z " />
<path stroke="none" fill="#000000" transform="matrix(0.0666667 0 0 0.0666667 -102.533 -251)" d="M 3344.09,5679.29 L 3344.2,5686 L 3338.34,5689.26 L 3193.9,5606.15 L 3199.9,5595.75 L 3344.09,5679.29 Z " />
<path stroke="none" fill="#000000" transform="matrix(0.0666667 0 0 0.0666667 -102.533 -251)" d="M 2988.94,5596.19 L 2994.94,5606.58 L 2851.26,5689.26 L 2845.4,5686 L 2845.51,5679.29 L 2988.94,5596.19 Z " />
<path stroke="none" fill="#000000" transform="matrix(0.0666667 0 0 0.0666667 -102.533 -251)" d="M 2845.51,5679.29 L 2845.4,5686 L 2839.54,5689.38 L 2596,5548.77 L 2596,5542 L 2603.95,5539.95 L 2845.51,5679.29 Z " />
<path stroke="none" fill="#000000" transform="matrix(0.0666667 0 0 0.0666667 -102.533 -251)" d="M 2796.56,5710.73 L 2790.56,5721.12 L 2593,5607.05 L 2599,5596.66 L 2796.56,5710.73 Z " />
<path stroke="none" fill="#000000" transform="matrix(0.0666667 0 0 0.0666667 -102.533 -251)" d="M 2839.47,5108.35 L 2845.4,5110 L 2847.6,5117.92 L 2603.95,5539.95 L 2596,5542 L 2591.6,5537.69 L 2839.47,5108.35 Z " />
<path stroke="none" fill="#000000" transform="matrix(0.0666667 0 0 0.0666667 -102.533 -251)" d="M 2591.6,5537.69 L 2596,5542 L 2596,5548.77 L 2352.46,5689.38 L 2340.45,5682.45 L 2591.6,5537.69 Z " />
<path stroke="none" fill="#000000" transform="matrix(0.0666667 0 0 0.0666667 -102.533 -251)" d="M 2340.45,5682.45 L 2352.46,5689.38 L 2352.46,5970.62 L 2346.6,5974 L 2340.74,5970.62 L 2340.45,5682.45 Z " />
<path stroke="none" fill="#000000" transform="matrix(0.0666667 0 0 0.0666667 -102.533 -251)" d="M 2392.44,5715.93 L 2404.44,5715.93 L 2404.44,5944.07 L 2392.44,5944.07 L 2392.44,5715.93 Z " />
<path stroke="none" fill="#000000" transform="matrix(0.0666667 0 0 0.0666667 -102.533 -251)" d="M 2340.74,5970.62 L 2346.6,5974 L 2346.6,5980.77 L 2103.06,6121.38 L 2097.2,6118 L 2097.2,6111.23 L 2340.74,5970.62 Z " />
<path stroke="none" fill="#000000" transform="matrix(0.0666667 0 0 0.0666667 -102.533 -251)" d="M 2091.34,6121.38 L 2097.2,6118 L 2103.06,6121.38 L 2103.35,6409.55 L 2091.34,6402.62 L 2091.34,6121.38 Z " />
<path stroke="none" fill="#000000" transform="matrix(0.0666667 0 0 0.0666667 -102.533 -251)" d="M 2039.36,6147.93 L 2051.36,6147.93 L 2051.36,6376.07 L 2039.36,6376.07 L 2039.36,6147.93 Z " />
<path stroke="none" fill="#000000" transform="matrix(0.0666667 0 0 0.0666667 -102.533 -251)" d="M 2091.34,6402.62 L 2103.35,6409.55 L 1847.8,6557.1 L 1847.8,6543.23 L 2091.34,6402.62 Z " />
<path stroke="none" fill="#000000" transform="matrix(0.0666667 0 0 0.0666667 -102.533 -251)" d="M 1847.8,6543.23 L 1847.8,6557.1 L 1592.25,6409.55 L 1604.26,6402.62 L 1847.8,6543.23 Z " />
<path stroke="none" fill="#000000" transform="matrix(0.0666667 0 0 0.0666667 -102.533 -251)" d="M 1850.8,6484.95 L 1844.8,6495.34 L 1647.24,6381.27 L 1653.24,6370.88 L 1850.8,6484.95 Z " />
<path stroke="none" fill="#000000" transform="matrix(0.0666667 0 0 0.0666667 -102.533 -251)" d="M 1604.26,6402.62 L 1592.25,6409.55 L 1592.25,6114.45 L 1604.26,6121.38 L 1604.26,6402.62 Z " />
<path stroke="none" fill="#000000" transform="matrix(0.0666667 0 0 0.0666667 -102.533 -251)" d="M 1604.26,6121.38 L 1592.25,6114.45 L 1847.8,5966.9 L 1847.8,5980.77 L 1604.26,6121.38 Z " />
<path stroke="none" fill="#000000" transform="matrix(0.0666667 0 0 0.0666667 -102.533 -251)" d="M 1653.24,6153.12 L 1647.24,6142.73 L 1844.8,6028.66 L 1850.8,6039.05 L 1653.24,6153.12 Z " />
<path stroke="none" fill="#000000" transform="matrix(0.0666667 0 0 0.0666667 -102.533 -251)" d="M 2097.2,6111.23 L 2097.2,6118 L 2091.34,6121.38 L 1847.8,5980.77 L 1847.8,5966.9 L 2097.2,6111.23 Z " />
<path stroke="none" fill="#000000" transform="matrix(0.0666667 0 0 0.0666667 -102.533 -251)" d="M 2346.6,5980.77 L 2346.6,5974 L 2352.46,5970.62 L 2596,6111.23 L 2596,6125.1 L 2346.6,5980.77 Z " />
<path stroke="none" fill="#000000" transform="matrix(0.0666667 0 0 0.0666667 -102.533 -251)" d="M 2596,6125.1 L 2596,6111.23 L 2839.54,5970.62 L 2845.4,5974 L 2841.24,5982.94 L 2596,6125.1 Z " />
<path stroke="none" fill="#000000" transform="matrix(0.0666667 0 0 0.0666667 -102.533 -251)" d="M 2599,6063.34 L 2593,6052.95 L 2790.56,5938.88 L 2796.56,5949.27 L 2599,6063.34 Z " />
<path stroke="none" fill="#000000" transform="matrix(0.0666667 0 0 0.0666667 -102.533 -251)" d="M 2839.54,5689.38 L 2845.4,5686 L 2851.26,5689.26 L 2851.37,5973.31 L 2845.4,5974 L 2839.54,5970.62 L 2839.54,5689.38 Z " />
<path stroke="none" fill="#000000" transform="matrix(0.0666667 0 0 0.0666667 -102.533 -251)" d="M 2841.24,5982.94 L 2845.4,5974 L 2851.37,5973.31 L 2964.66,6539.39 L 2961.8,6554.2 L 2954.98,6550.15 L 2841.24,5982.94 Z " />
<path stroke="none" fill="#000000" transform="matrix(0.0666667 0 0 0.0666667 -102.533 -251)" d="M 3338.28,5972.14 L 3344.2,5974 L 3346.15,5981.78 L 2968.87,6554.25 L 2961.8,6554.2 L 2964.66,6539.39 L 3338.28,5972.14 Z " />
<path stroke="none" fill="#000000" transform="matrix(0.0666667 0 0 0.0666667 -102.533 -251)" d="M 2954.98,6550.15 L 2961.8,6554.2 L 2959.34,6560.97 L 2690.68,6638.23 L 2685,6633.8 L 2685.9,6627.41 L 2954.98,6550.15 Z " />
<path stroke="none" fill="#000000" transform="matrix(0.0666667 0 0 0.0666667 -102.533 -251)" d="M 2685.9,6627.41 L 2685,6633.8 L 2679.03,6636.98 L 2440.57,6487.96 L 2441.05,6474.1 L 2685.9,6627.41 Z " />
<path stroke="none" fill="#000000" transform="matrix(0.0666667 0 0 0.0666667 -102.533 -251)" d="M 2441.05,6474.1 L 2440.57,6487.96 L 2192.34,6620.18 L 2180.58,6612.84 L 2441.05,6474.1 Z " />
<path stroke="none" fill="#000000" transform="matrix(0.0666667 0 0 0.0666667 -102.533 -251)" d="M 2435.91,6535.74 L 2441.55,6546.33 L 2240.19,6653.59 L 2234.55,6643 L 2435.91,6535.74 Z " />
<path stroke="none" fill="#000000" transform="matrix(0.0666667 0 0 0.0666667 -102.533 -251)" d="M 2180.58,6612.84 L 2192.34,6620.18 L 2182.57,6901.22 L 2170.33,6907.74 L 2180.58,6612.84 Z " />
<path stroke="none" fill="#000000" transform="matrix(0.0666667 0 0 0.0666667 -102.533 -251)" d="M 2170.33,6907.74 L 2182.57,6901.22 L 2421.03,7050.04 L 2420.55,7063.89 L 2170.33,6907.74 Z " />
<path stroke="none" fill="#000000" transform="matrix(0.0666667 0 0 0.0666667 -102.533 -251)" d="M 2226.24,6881.38 L 2232.6,6871.2 L 2426.05,6991.93 L 2419.7,7002.11 L 2226.24,6881.38 Z " />
<path stroke="none" fill="#000000" transform="matrix(0.0666667 0 0 0.0666667 -102.533 -251)" d="M 2679.03,6636.98 L 2685,6633.8 L 2690.68,6638.23 L 2681.16,6917.57 L 2675.2,6921.6 L 2669.46,6918.02 L 2679.03,6636.98 Z " />
<path stroke="none" fill="#000000" transform="matrix(0.0666667 0 0 0.0666667 -102.533 -251)" d="M 2626.18,6661.71 L 2638.18,6662.12 L 2630.41,6890.09 L 2618.42,6889.69 L 2626.18,6661.71 Z " />
<path stroke="none" fill="#000000" transform="matrix(0.0666667 0 0 0.0666667 -102.533 -251)" d="M 2420.55,7063.89 L 2421.03,7050.04 L 2669.46,6918.02 L 2675.2,6921.6 L 2675.65,6928.03 L 2420.55,7063.89 Z " />
<path stroke="none" fill="#000000" transform="matrix(0.0666667 0 0 0.0666667 -102.533 -251)" d="M 2675.65,6928.03 L 2675.2,6921.6 L 2681.16,6917.57 L 2943.81,7013.08 L 2945.8,7020 L 2941.32,7024.64 L 2675.65,6928.03 Z " />
<path stroke="none" fill="#000000" transform="matrix(0.0666667 0 0 0.0666667 -102.533 -251)" d="M 2952.5,7020.94 L 2945.8,7020 L 2943.81,7013.08 L 3115.81,6792.75 L 3123,6793 L 3125.54,6799.27 L 2952.5,7020.94 Z " />
<path stroke="none" fill="#000000" transform="matrix(0.0666667 0 0 0.0666667 -102.533 -251)" d="M 3009.8,7032 L 3000.35,7024.61 L 3140.71,6844.8 L 3150.17,6852.18 L 3009.8,7032 Z " />
<path stroke="none" fill="#000000" transform="matrix(0.0666667 0 0 0.0666667 -102.533 -251)" d="M 2959.34,6560.97 L 2961.8,6554.2 L 2968.87,6554.25 L 3126.42,6787.53 L 3123,6793 L 3115.81,6792.75 L 2959.34,6560.97 Z " />
<path stroke="none" fill="#000000" transform="matrix(0.0666667 0 0 0.0666667 -102.533 -251)" d="M 3125.54,6799.27 L 3123,6793 L 3126.42,6787.53 L 3412.57,6827.4 L 3404.04,6838.33 L 3125.54,6799.27 Z " />
<path stroke="none" fill="#000000" transform="matrix(0.0666667 0 0 0.0666667 -102.533 -251)" d="M 3404.04,6838.33 L 3412.57,6827.4 L 3523.23,7100.78 L 3509.5,7098.86 L 3404.04,6838.33 Z " />
<path stroke="none" fill="#000000" transform="matrix(0.0666667 0 0 0.0666667 -102.533 -251)" d="M 3365.83,6882.41 L 3376.96,6877.9 L 3462.52,7089.27 L 3451.39,7093.77 L 3365.83,6882.41 Z " />
<path stroke="none" fill="#000000" transform="matrix(0.0666667 0 0 0.0666667 -102.533 -251)" d="M 3509.5,7098.86 L 3523.23,7100.78 L 3341.66,7333.58 L 3336.46,7320.73 L 3509.5,7098.86 Z " />
<path stroke="none" fill="#000000" transform="matrix(0.0666667 0 0 0.0666667 -102.533 -251)" d="M 3336.46,7320.73 L 3341.66,7333.58 L 3049.43,7292.6 L 3057.96,7281.67 L 3336.46,7320.73 Z " />
<path stroke="none" fill="#000000" transform="matrix(0.0666667 0 0 0.0666667 -102.533 -251)" d="M 3317.38,7265.56 L 3315.71,7277.45 L 3089.8,7245.76 L 3091.47,7233.88 L 3317.38,7265.56 Z " />
<path stroke="none" fill="#000000" transform="matrix(0.0666667 0 0 0.0666667 -102.533 -251)" d="M 2941.32,7024.64 L 2945.8,7020 L 2952.5,7020.94 L 3057.96,7281.67 L 3049.43,7292.6 L 2941.32,7024.64 Z " />
<path stroke="none" fill="#000000" transform="matrix(0.0666667 0 0 0.0666667 -102.533 -251)" d="M 4271.66,6621.77 L 4269.2,6615 L 4275.62,6610.82 L 4545.1,6688.21 L 4546,6694.6 L 4540.33,6699.03 L 4271.66,6621.77 Z " />
<path stroke="none" fill="#000000" transform="matrix(0.0666667 0 0 0.0666667 -102.533 -251)" d="M 4551.97,6697.78 L 4546,6694.6 L 4545.1,6688.21 L 4789.95,6534.9 L 4790.43,6548.76 L 4551.97,6697.78 Z " />
<path stroke="none" fill="#000000" transform="matrix(0.0666667 0 0 0.0666667 -102.533 -251)" d="M 4790.43,6548.76 L 4789.95,6534.9 L 5050.42,6673.64 L 5038.66,6680.98 L 4790.43,6548.76 Z " />
<path stroke="none" fill="#000000" transform="matrix(0.0666667 0 0 0.0666667 -102.533 -251)" d="M 4789.45,6607.13 L 4795.09,6596.54 L 4996.45,6703.8 L 4990.81,6714.39 L 4789.45,6607.13 Z " />
<path stroke="none" fill="#000000" transform="matrix(0.0666667 0 0 0.0666667 -102.533 -251)" d="M 5038.66,6680.98 L 5050.42,6673.64 L 5060.67,6968.53 L 5048.43,6962.02 L 5038.66,6680.98 Z " />
<path stroke="none" fill="#000000" transform="matrix(0.0666667 0 0 0.0666667 -102.533 -251)" d="M 5048.43,6962.02 L 5060.67,6968.53 L 4810.45,7124.9 L 4809.97,7111.04 L 5048.43,6962.02 Z " />
<path stroke="none" fill="#000000" transform="matrix(0.0666667 0 0 0.0666667 -102.533 -251)" d="M 4998.38,6932.01 L 5004.74,6942.19 L 4811.31,7063.06 L 4804.95,7052.88 L 4998.38,6932.01 Z " />
<path stroke="none" fill="#000000" transform="matrix(0.0666667 0 0 0.0666667 -102.533 -251)" d="M 4540.33,6699.03 L 4546,6694.6 L 4551.97,6697.78 L 4561.74,6978.82 L 4556,6982.4 L 4550.03,6978.37 L 4540.33,6699.03 Z " />
<path stroke="none" fill="#000000" transform="matrix(0.0666667 0 0 0.0666667 -102.533 -251)" d="M 4592.85,6722.91 L 4604.84,6722.49 L 4612.76,6950.5 L 4600.77,6950.92 L 4592.85,6722.91 Z " />
<path stroke="none" fill="#000000" transform="matrix(0.0666667 0 0 0.0666667 -102.533 -251)" d="M 4809.97,7111.04 L 4810.45,7124.9 L 4555.55,6988.83 L 4556,6982.4 L 4561.74,6978.82 L 4809.97,7111.04 Z " />
<path stroke="none" fill="#000000" transform="matrix(0.0666667 0 0 0.0666667 -102.533 -251)" d="M 4550.03,6978.37 L 4556,6982.4 L 4555.55,6988.83 L 4289.68,7085.44 L 4285.2,7080.8 L 4287.19,7073.88 L 4550.03,6978.37 Z " />
<path stroke="none" fill="#000000" transform="matrix(0.0666667 0 0 0.0666667 -102.533 -251)" d="M 4287.19,7073.88 L 4285.2,7080.8 L 4278.5,7081.74 L 4105.46,6860.07 L 4108,6853.8 L 4115.19,6853.55 L 4287.19,7073.88 Z " />
<path stroke="none" fill="#000000" transform="matrix(0.0666667 0 0 0.0666667 -102.533 -251)" d="M 4230.65,7085.41 L 4221.2,7092.8 L 4080.83,6912.98 L 4090.29,6905.6 L 4230.65,7085.41 Z " />
<path stroke="none" fill="#000000" transform="matrix(0.0666667 0 0 0.0666667 -102.533 -251)" d="M 4262.12,6615.07 L 4269.2,6615 L 4271.66,6621.77 L 4115.19,6853.55 L 4108,6853.8 L 4104.58,6848.33 L 4262.12,6615.07 Z " />
<path stroke="none" fill="#000000" transform="matrix(0.0666667 0 0 0.0666667 -102.533 -251)" d="M 4104.58,6848.33 L 4108,6853.8 L 4105.46,6860.07 L 3826.96,6899.13 L 3818.43,6888.2 L 4104.58,6848.33 Z " />
<path stroke="none" fill="#000000" transform="matrix(0.0666667 0 0 0.0666667 -102.533 -251)" d="M 3818.43,6888.2 L 3826.96,6899.13 L 3721.5,7159.86 L 3707.77,7161.78 L 3818.43,6888.2 Z " />
<path stroke="none" fill="#000000" transform="matrix(0.0666667 0 0 0.0666667 -102.533 -251)" d="M 3854.08,6938.73 L 3865.2,6943.23 L 3779.65,7154.74 L 3768.52,7150.24 L 3854.08,6938.73 Z " />
<path stroke="none" fill="#000000" transform="matrix(0.0666667 0 0 0.0666667 -102.533 -251)" d="M 3707.77,7161.78 L 3721.5,7159.86 L 3894.54,7381.53 L 3889.34,7394.38 L 3707.77,7161.78 Z " />
<path stroke="none" fill="#000000" transform="matrix(0.0666667 0 0 0.0666667 -102.533 -251)" d="M 3889.34,7394.38 L 3894.54,7381.53 L 4173.04,7342.47 L 4181.57,7353.4 L 3889.34,7394.38 Z " />
<path stroke="none" fill="#000000" transform="matrix(0.0666667 0 0 0.0666667 -102.533 -251)" d="M 3915.28,7338.25 L 3913.61,7326.36 L 4139.53,7294.68 L 4141.2,7306.56 L 3915.28,7338.25 Z " />
<path stroke="none" fill="#000000" transform="matrix(0.0666667 0 0 0.0666667 -102.533 -251)" d="M 4278.5,7081.74 L 4285.2,7080.8 L 4289.68,7085.44 L 4181.57,7353.4 L 4173.04,7342.47 L 4278.5,7081.74 Z " />
<path stroke="none" fill="#000000" transform="matrix(0.0666667 0 0 0.0666667 -102.533 -251)" d="M 3841.27,5981.78 L 3843.2,5974 L 3849.12,5972.12 L 4265.3,6598.74 L 4269.2,6615 L 4262.12,6615.07 L 3841.27,5981.78 Z " />
<path stroke="none" fill="#000000" transform="matrix(0.0666667 0 0 0.0666667 -102.533 -251)" d="M 4336.02,5973.51 L 4342,5974 L 4346.82,5983.29 L 4275.62,6610.82 L 4269.2,6615 L 4265.3,6598.74 L 4336.02,5973.51 Z " />
</svg>
