<?xml version="1.0"?>
<svg version="1.1" id="topsvg"
xmlns="http://www.w3.org/2000/svg" xmlns:xlink="http://www.w3.org/1999/xlink"
xmlns:cml="http://www.xml-cml.org/schema" x="0" y="0" width="200px" height="200px" viewBox="0 0 100 100">
<title>GD95.sdf - Open Babel Depiction</title>
<rect x="0" y="0" width="100" height="100" fill="white"/>
<g transform="translate(0,0)">
<svg width="100" height="100" x="0" y="0" viewBox="0 0 641.887 663.178"
font-family="sans-serif" stroke="rgb(0,0,0)" stroke-width="3"  stroke-linecap="round">
<line x1="300.3" y1="366.1" x2="300.3" y2="545.9" opacity="1.0" stroke="rgb(0,0,0)"  stroke-width="3"/>
<line x1="230.4" y1="174.1" x2="230.4" y2="135.5" opacity="1.0" stroke="rgb(0,0,0)"  stroke-width="3"/>
<line x1="117.2" y1="297.9" x2="78.6" y2="297.9" opacity="1.0" stroke="rgb(0,0,0)"  stroke-width="3"/>
<line x1="78.6" y1="297.9" x2="40.0" y2="297.9" opacity="1.0" stroke="rgb(0,0,0)"  stroke-width="3"/>
<line x1="59.3" y1="331.3" x2="78.6" y2="297.9" opacity="1.0" stroke="rgb(0,0,0)"  stroke-width="3"/>
<line x1="230.4" y1="135.5" x2="263.9" y2="116.2" opacity="1.0" stroke="rgb(0,0,0)"  stroke-width="3"/>
<line x1="197.0" y1="116.2" x2="230.4" y2="135.5" opacity="1.0" stroke="rgb(0,0,0)"  stroke-width="3"/>
<line x1="78.6" y1="297.9" x2="59.3" y2="264.4" opacity="1.0" stroke="rgb(0,0,0)"  stroke-width="3"/>
<line x1="230.4" y1="135.5" x2="230.4" y2="96.8" opacity="1.0" stroke="rgb(0,0,0)"  stroke-width="3"/>
<line x1="372.4" y1="126.8" x2="357.0" y2="106.4" opacity="1.0" stroke="rgb(0,0,0)"  stroke-width="3"/>
<line x1="333.7" y1="565.2" x2="367.2" y2="545.9" opacity="1.0" stroke="rgb(0,0,0)"  stroke-width="3"/>
<line x1="434.1" y1="507.3" x2="467.6" y2="487.9" opacity="1.0" stroke="rgb(0,0,0)"  stroke-width="3"/>
<line x1="501.2" y1="429.8" x2="501.2" y2="391.0" opacity="1.0" stroke="rgb(0,0,0)"  stroke-width="3"/>
<line x1="501.2" y1="391.0" x2="467.6" y2="371.7" opacity="1.0" stroke="rgb(0,0,0)"  stroke-width="3"/>
<line x1="501.2" y1="391.0" x2="534.8" y2="371.7" opacity="1.0" stroke="rgb(0,0,0)"  stroke-width="3"/>
<line x1="501.2" y1="391.0" x2="501.2" y2="352.3" opacity="1.0" stroke="rgb(0,0,0)"  stroke-width="3"/>
<line x1="534.8" y1="487.9" x2="568.3" y2="507.3" opacity="1.0" stroke="rgb(0,0,0)"  stroke-width="3"/>
<line x1="568.3" y1="507.3" x2="601.9" y2="487.9" opacity="1.0" stroke="rgb(0,0,0)"  stroke-width="3"/>
<line x1="568.3" y1="507.3" x2="568.3" y2="546.1" opacity="1.0" stroke="rgb(0,0,0)"  stroke-width="3"/>
<line x1="568.3" y1="507.3" x2="568.3" y2="468.6" opacity="1.0" stroke="rgb(0,0,0)"  stroke-width="3"/>
<line x1="174.5" y1="263.3" x2="198.0" y2="232.6" opacity="1.0" stroke="rgb(0,0,0)"  stroke-width="3"/>
<line x1="198.0" y1="232.6" x2="231.7" y2="251.3" opacity="1.0" stroke="rgb(0,0,0)"  stroke-width="3"/>
<line x1="231.7" y1="251.3" x2="232.3" y2="276.9" opacity="1.0" stroke="rgb(0,0,0)"  stroke-width="3"/>
<line x1="219.7" y1="292.1" x2="194.5" y2="296.4" opacity="1.0" stroke="rgb(0,0,0)"  stroke-width="3"/>
<line x1="194.5" y1="296.4" x2="174.5" y2="263.3" opacity="1.0" stroke="rgb(0,0,0)"  stroke-width="3"/>
<line x1="197.5" y1="287.5" x2="183.8" y2="264.7" opacity="1.0" stroke="rgb(0,0,0)"  stroke-width="3"/>
<line x1="423.8" y1="262.9" x2="397.4" y2="234.7" opacity="1.0" stroke="rgb(0,0,0)"  stroke-width="3"/>
<line x1="397.4" y1="234.7" x2="362.5" y2="251.1" opacity="1.0" stroke="rgb(0,0,0)"  stroke-width="3"/>
<line x1="395.1" y1="243.8" x2="371.0" y2="255.1" opacity="1.0" stroke="rgb(0,0,0)"  stroke-width="3"/>
<line x1="362.5" y1="251.1" x2="365.6" y2="276.5" opacity="1.0" stroke="rgb(0,0,0)"  stroke-width="3"/>
<line x1="380.0" y1="291.9" x2="405.2" y2="296.7" opacity="1.0" stroke="rgb(0,0,0)"  stroke-width="3"/>
<line x1="405.2" y1="296.7" x2="423.8" y2="262.9" opacity="1.0" stroke="rgb(0,0,0)"  stroke-width="3"/>
<line x1="401.8" y1="288.0" x2="414.6" y2="264.7" opacity="1.0" stroke="rgb(0,0,0)"  stroke-width="3"/>
<line x1="418.9" y1="136.4" x2="393.3" y2="136.9" opacity="1.0" stroke="rgb(0,0,0)"  stroke-width="3"/>
<line x1="376.5" y1="149.6" x2="369.1" y2="174.1" opacity="1.0" stroke="rgb(0,0,0)"  stroke-width="3"/>
<line x1="369.1" y1="174.1" x2="400.7" y2="196.2" opacity="1.0" stroke="rgb(0,0,0)"  stroke-width="3"/>
<line x1="378.1" y1="171.7" x2="399.9" y2="186.9" opacity="1.0" stroke="rgb(0,0,0)"  stroke-width="3"/>
<line x1="400.7" y1="196.2" x2="431.5" y2="172.9" opacity="1.0" stroke="rgb(0,0,0)"  stroke-width="3"/>
<line x1="431.5" y1="172.9" x2="418.9" y2="136.4" opacity="1.0" stroke="rgb(0,0,0)"  stroke-width="3"/>
<line x1="422.8" y1="169.6" x2="414.1" y2="144.5" opacity="1.0" stroke="rgb(0,0,0)"  stroke-width="3"/>
<line x1="266.7" y1="347.0" x2="300.3" y2="366.1" opacity="1.0" stroke="rgb(0,0,0)"  stroke-width="3"/>
<line x1="300.3" y1="366.1" x2="333.6" y2="346.6" opacity="1.0" stroke="rgb(0,0,0)"  stroke-width="3"/>
<line x1="301.8" y1="356.9" x2="324.8" y2="343.5" opacity="1.0" stroke="rgb(0,0,0)"  stroke-width="3"/>
<line x1="333.6" y1="346.6" x2="333.4" y2="308.0" opacity="1.0" stroke="rgb(0,0,0)"  stroke-width="3"/>
<line x1="333.4" y1="308.0" x2="299.8" y2="288.9" opacity="1.0" stroke="rgb(0,0,0)"  stroke-width="3"/>
<line x1="324.6" y1="311.3" x2="301.5" y2="298.1" opacity="1.0" stroke="rgb(0,0,0)"  stroke-width="3"/>
<line x1="299.8" y1="288.9" x2="266.5" y2="308.4" opacity="1.0" stroke="rgb(0,0,0)"  stroke-width="3"/>
<line x1="266.5" y1="308.4" x2="266.7" y2="347.0" opacity="1.0" stroke="rgb(0,0,0)"  stroke-width="3"/>
<line x1="273.7" y1="314.4" x2="273.9" y2="341.0" opacity="1.0" stroke="rgb(0,0,0)"  stroke-width="3"/>
<line x1="299.0" y1="263.3" x2="299.8" y2="288.9" opacity="1.0" stroke="rgb(0,0,0)"  stroke-width="3"/>
<line x1="266.5" y1="308.4" x2="244.0" y2="296.2" opacity="1.0" stroke="rgb(0,0,0)"  stroke-width="3"/>
<line x1="231.7" y1="251.3" x2="264.9" y2="231.4" opacity="1.0" stroke="rgb(0,0,0)"  stroke-width="3"/>
<line x1="240.6" y1="254.4" x2="263.4" y2="240.7" opacity="1.0" stroke="rgb(0,0,0)"  stroke-width="3"/>
<line x1="264.9" y1="231.4" x2="287.2" y2="243.9" opacity="1.0" stroke="rgb(0,0,0)"  stroke-width="3"/>
<line x1="362.5" y1="251.1" x2="330.8" y2="229.0" opacity="1.0" stroke="rgb(0,0,0)"  stroke-width="3"/>
<line x1="330.8" y1="229.0" x2="309.4" y2="243.1" opacity="1.0" stroke="rgb(0,0,0)"  stroke-width="3"/>
<line x1="333.4" y1="308.0" x2="355.8" y2="295.7" opacity="1.0" stroke="rgb(0,0,0)"  stroke-width="3"/>
<line x1="137.2" y1="330.9" x2="175.8" y2="330.2" opacity="1.0" stroke="rgb(0,0,0)"  stroke-width="3"/>
<line x1="143.1" y1="323.6" x2="169.7" y2="323.1" opacity="1.0" stroke="rgb(0,0,0)"  stroke-width="3"/>
<line x1="175.8" y1="330.2" x2="194.5" y2="296.4" opacity="1.0" stroke="rgb(0,0,0)"  stroke-width="3"/>
<line x1="174.5" y1="263.3" x2="135.9" y2="264.0" opacity="1.0" stroke="rgb(0,0,0)"  stroke-width="3"/>
<line x1="135.9" y1="264.0" x2="117.2" y2="297.9" opacity="1.0" stroke="rgb(0,0,0)"  stroke-width="3"/>
<line x1="139.3" y1="272.8" x2="126.4" y2="296.1" opacity="1.0" stroke="rgb(0,0,0)"  stroke-width="3"/>
<line x1="117.2" y1="297.9" x2="137.2" y2="330.9" opacity="1.0" stroke="rgb(0,0,0)"  stroke-width="3"/>
<line x1="482.4" y1="295.2" x2="462.4" y2="262.2" opacity="1.0" stroke="rgb(0,0,0)"  stroke-width="3"/>
<line x1="473.1" y1="293.8" x2="459.4" y2="271.0" opacity="1.0" stroke="rgb(0,0,0)"  stroke-width="3"/>
<line x1="462.4" y1="262.2" x2="423.8" y2="262.9" opacity="1.0" stroke="rgb(0,0,0)"  stroke-width="3"/>
<line x1="405.2" y1="296.7" x2="425.1" y2="329.8" opacity="1.0" stroke="rgb(0,0,0)"  stroke-width="3"/>
<line x1="425.1" y1="329.8" x2="463.7" y2="329.1" opacity="1.0" stroke="rgb(0,0,0)"  stroke-width="3"/>
<line x1="431.0" y1="322.5" x2="457.6" y2="322.0" opacity="1.0" stroke="rgb(0,0,0)"  stroke-width="3"/>
<line x1="463.7" y1="329.1" x2="482.4" y2="295.2" opacity="1.0" stroke="rgb(0,0,0)"  stroke-width="3"/>
<line x1="369.1" y1="174.1" x2="334.1" y2="190.5" opacity="1.0" stroke="rgb(0,0,0)"  stroke-width="3"/>
<line x1="334.1" y1="190.5" x2="330.8" y2="229.0" opacity="1.0" stroke="rgb(0,0,0)"  stroke-width="3"/>
<line x1="340.7" y1="197.1" x2="338.5" y2="223.6" opacity="1.0" stroke="rgb(0,0,0)"  stroke-width="3"/>
<line x1="397.4" y1="234.7" x2="400.7" y2="196.2" opacity="1.0" stroke="rgb(0,0,0)"  stroke-width="3"/>
<line x1="482.1" y1="114.5" x2="444.2" y2="107.2" opacity="1.0" stroke="rgb(0,0,0)"  stroke-width="3"/>
<line x1="474.9" y1="120.5" x2="448.7" y2="115.5" opacity="1.0" stroke="rgb(0,0,0)"  stroke-width="3"/>
<line x1="444.2" y1="107.2" x2="418.9" y2="136.4" opacity="1.0" stroke="rgb(0,0,0)"  stroke-width="3"/>
<line x1="431.5" y1="172.9" x2="469.5" y2="180.2" opacity="1.0" stroke="rgb(0,0,0)"  stroke-width="3"/>
<line x1="469.5" y1="180.2" x2="494.8" y2="151.0" opacity="1.0" stroke="rgb(0,0,0)"  stroke-width="3"/>
<line x1="468.0" y1="171.0" x2="485.4" y2="150.9" opacity="1.0" stroke="rgb(0,0,0)"  stroke-width="3"/>
<line x1="494.8" y1="151.0" x2="482.1" y2="114.5" opacity="1.0" stroke="rgb(0,0,0)"  stroke-width="3"/>
<line x1="198.0" y1="232.6" x2="197.3" y2="194.0" opacity="1.0" stroke="rgb(0,0,0)"  stroke-width="3"/>
<line x1="205.1" y1="226.5" x2="204.6" y2="199.9" opacity="1.0" stroke="rgb(0,0,0)"  stroke-width="3"/>
<line x1="197.3" y1="194.0" x2="230.4" y2="174.1" opacity="1.0" stroke="rgb(0,0,0)"  stroke-width="3"/>
<line x1="230.4" y1="174.1" x2="264.2" y2="192.8" opacity="1.0" stroke="rgb(0,0,0)"  stroke-width="3"/>
<line x1="232.2" y1="183.3" x2="255.4" y2="196.2" opacity="1.0" stroke="rgb(0,0,0)"  stroke-width="3"/>
<line x1="264.2" y1="192.8" x2="264.9" y2="231.4" opacity="1.0" stroke="rgb(0,0,0)"  stroke-width="3"/>
<line x1="372.0" y1="70.8" x2="348.7" y2="40.0" opacity="1.0" stroke="rgb(0,0,0)"  stroke-width="3"/>
<line x1="348.7" y1="40.0" x2="310.4" y2="44.8" opacity="1.0" stroke="rgb(0,0,0)"  stroke-width="3"/>
<line x1="343.6" y1="47.9" x2="317.2" y2="51.2" opacity="1.0" stroke="rgb(0,0,0)"  stroke-width="3"/>
<line x1="310.4" y1="44.8" x2="295.4" y2="80.4" opacity="1.0" stroke="rgb(0,0,0)"  stroke-width="3"/>
<line x1="295.4" y1="80.4" x2="318.7" y2="111.2" opacity="1.0" stroke="rgb(0,0,0)"  stroke-width="3"/>
<line x1="304.7" y1="80.8" x2="320.8" y2="102.0" opacity="1.0" stroke="rgb(0,0,0)"  stroke-width="3"/>
<line x1="318.7" y1="111.2" x2="357.0" y2="106.4" opacity="1.0" stroke="rgb(0,0,0)"  stroke-width="3"/>
<line x1="357.0" y1="106.4" x2="372.0" y2="70.8" opacity="1.0" stroke="rgb(0,0,0)"  stroke-width="3"/>
<line x1="352.7" y1="98.1" x2="363.0" y2="73.5" opacity="1.0" stroke="rgb(0,0,0)"  stroke-width="3"/>
<line x1="266.8" y1="565.2" x2="266.8" y2="603.9" opacity="1.0" stroke="rgb(0,0,0)"  stroke-width="3"/>
<line x1="266.8" y1="603.9" x2="300.3" y2="623.2" opacity="1.0" stroke="rgb(0,0,0)"  stroke-width="3"/>
<line x1="275.6" y1="600.6" x2="298.7" y2="613.9" opacity="1.0" stroke="rgb(0,0,0)"  stroke-width="3"/>
<line x1="300.3" y1="623.2" x2="333.7" y2="603.9" opacity="1.0" stroke="rgb(0,0,0)"  stroke-width="3"/>
<line x1="333.7" y1="603.9" x2="333.7" y2="565.2" opacity="1.0" stroke="rgb(0,0,0)"  stroke-width="3"/>
<line x1="326.5" y1="597.9" x2="326.5" y2="571.2" opacity="1.0" stroke="rgb(0,0,0)"  stroke-width="3"/>
<line x1="333.7" y1="565.2" x2="300.3" y2="545.9" opacity="1.0" stroke="rgb(0,0,0)"  stroke-width="3"/>
<line x1="300.3" y1="545.9" x2="266.8" y2="565.2" opacity="1.0" stroke="rgb(0,0,0)"  stroke-width="3"/>
<line x1="298.7" y1="555.2" x2="275.6" y2="568.5" opacity="1.0" stroke="rgb(0,0,0)"  stroke-width="3"/>
<line x1="400.6" y1="565.2" x2="434.1" y2="545.9" opacity="1.0" stroke="rgb(0,0,0)"  stroke-width="3"/>
<line x1="434.1" y1="545.9" x2="434.1" y2="507.3" opacity="1.0" stroke="rgb(0,0,0)"  stroke-width="3"/>
<line x1="426.9" y1="539.9" x2="426.9" y2="513.3" opacity="1.0" stroke="rgb(0,0,0)"  stroke-width="3"/>
<line x1="434.1" y1="507.3" x2="400.6" y2="488.0" opacity="1.0" stroke="rgb(0,0,0)"  stroke-width="3"/>
<line x1="400.6" y1="488.0" x2="367.2" y2="507.3" opacity="1.0" stroke="rgb(0,0,0)"  stroke-width="3"/>
<line x1="399.0" y1="497.2" x2="376.0" y2="510.5" opacity="1.0" stroke="rgb(0,0,0)"  stroke-width="3"/>
<line x1="367.2" y1="507.3" x2="367.2" y2="545.9" opacity="1.0" stroke="rgb(0,0,0)"  stroke-width="3"/>
<line x1="367.2" y1="545.9" x2="400.6" y2="565.2" opacity="1.0" stroke="rgb(0,0,0)"  stroke-width="3"/>
<line x1="376.0" y1="542.7" x2="399.0" y2="556.0" opacity="1.0" stroke="rgb(0,0,0)"  stroke-width="3"/>
<line x1="333.7" y1="449.4" x2="333.7" y2="488.0" opacity="1.0" stroke="rgb(0,0,0)"  stroke-width="3"/>
<line x1="340.9" y1="455.4" x2="340.9" y2="482.0" opacity="1.0" stroke="rgb(0,0,0)"  stroke-width="3"/>
<line x1="333.7" y1="488.0" x2="367.2" y2="507.3" opacity="1.0" stroke="rgb(0,0,0)"  stroke-width="3"/>
<line x1="400.6" y1="488.0" x2="400.6" y2="449.4" opacity="1.0" stroke="rgb(0,0,0)"  stroke-width="3"/>
<line x1="400.6" y1="449.4" x2="367.2" y2="430.1" opacity="1.0" stroke="rgb(0,0,0)"  stroke-width="3"/>
<line x1="391.8" y1="452.6" x2="368.8" y2="439.3" opacity="1.0" stroke="rgb(0,0,0)"  stroke-width="3"/>
<line x1="367.2" y1="430.1" x2="333.7" y2="449.4" opacity="1.0" stroke="rgb(0,0,0)"  stroke-width="3"/>
<line x1="467.5" y1="603.9" x2="467.5" y2="565.2" opacity="1.0" stroke="rgb(0,0,0)"  stroke-width="3"/>
<line x1="460.3" y1="597.9" x2="460.3" y2="571.2" opacity="1.0" stroke="rgb(0,0,0)"  stroke-width="3"/>
<line x1="467.5" y1="565.2" x2="434.1" y2="545.9" opacity="1.0" stroke="rgb(0,0,0)"  stroke-width="3"/>
<line x1="400.6" y1="565.2" x2="400.6" y2="603.9" opacity="1.0" stroke="rgb(0,0,0)"  stroke-width="3"/>
<line x1="400.6" y1="603.9" x2="434.1" y2="623.2" opacity="1.0" stroke="rgb(0,0,0)"  stroke-width="3"/>
<line x1="409.4" y1="600.6" x2="432.5" y2="613.9" opacity="1.0" stroke="rgb(0,0,0)"  stroke-width="3"/>
<line x1="434.1" y1="623.2" x2="467.5" y2="603.9" opacity="1.0" stroke="rgb(0,0,0)"  stroke-width="3"/>
<line x1="501.2" y1="507.3" x2="534.8" y2="487.9" opacity="1.0" stroke="rgb(0,0,0)"  stroke-width="3"/>
<line x1="534.8" y1="487.9" x2="534.8" y2="449.2" opacity="1.0" stroke="rgb(0,0,0)"  stroke-width="3"/>
<line x1="527.6" y1="481.9" x2="527.6" y2="455.2" opacity="1.0" stroke="rgb(0,0,0)"  stroke-width="3"/>
<line x1="534.8" y1="449.2" x2="501.2" y2="429.8" opacity="1.0" stroke="rgb(0,0,0)"  stroke-width="3"/>
<line x1="501.2" y1="429.8" x2="467.6" y2="449.2" opacity="1.0" stroke="rgb(0,0,0)"  stroke-width="3"/>
<line x1="499.6" y1="439.0" x2="476.4" y2="452.4" opacity="1.0" stroke="rgb(0,0,0)"  stroke-width="3"/>
<line x1="467.6" y1="449.2" x2="467.6" y2="487.9" opacity="1.0" stroke="rgb(0,0,0)"  stroke-width="3"/>
<line x1="467.6" y1="487.9" x2="501.2" y2="507.3" opacity="1.0" stroke="rgb(0,0,0)"  stroke-width="3"/>
<line x1="476.4" y1="484.7" x2="499.6" y2="498.1" opacity="1.0" stroke="rgb(0,0,0)"  stroke-width="3"/>
<text x="374.280345" y="145.186990" fill="rgb(12,12,255)" stroke-width="0" font-weight="bold" font-size="25.92" >N</text>
<text x="361.241510" y="297.434698" fill="rgb(12,12,255)" stroke-width="0" font-weight="bold" font-size="25.92" >N</text>
<text x="226.564201" y="297.938831" fill="rgb(12,12,255)" stroke-width="0" font-weight="bold" font-size="25.92" >N</text>
<text x="292.556925" y="258.298369" fill="rgb(255,181,181)" stroke-width="0" font-weight="bold" font-size="25.92" >B</text>
</svg>
</g>
</svg>
