<?xml version="1.0"?>
<svg version="1.1" id="topsvg"
xmlns="http://www.w3.org/2000/svg" xmlns:xlink="http://www.w3.org/1999/xlink"
xmlns:cml="http://www.xml-cml.org/schema" x="0" y="0" width="200px" height="200px" viewBox="0 0 100 100">
<title>GD99.sdf - Open Babel Depiction</title>
<rect x="0" y="0" width="100" height="100" fill="white"/>
<g transform="translate(0,0)">
<svg width="100" height="100" x="0" y="0" viewBox="0 0 571.116 488.083"
font-family="sans-serif" stroke="rgb(0,0,0)" stroke-width="3"  stroke-linecap="round">
<line x1="430.7" y1="149.3" x2="455.9" y2="157.1" opacity="1.0" stroke="rgb(0,0,0)"  stroke-width="3"/>
<line x1="384.3" y1="272.0" x2="407.4" y2="240.2" opacity="1.0" stroke="rgb(0,0,0)"  stroke-width="3"/>
<line x1="407.4" y1="240.2" x2="384.3" y2="208.3" opacity="1.0" stroke="rgb(0,0,0)"  stroke-width="3"/>
<line x1="384.3" y1="208.3" x2="346.8" y2="220.5" opacity="1.0" stroke="rgb(0,0,0)"  stroke-width="3"/>
<line x1="380.8" y1="217.0" x2="354.8" y2="225.5" opacity="1.0" stroke="rgb(0,0,0)"  stroke-width="3"/>
<line x1="346.8" y1="220.5" x2="346.8" y2="246.8" opacity="1.0" stroke="rgb(0,0,0)"  stroke-width="3"/>
<line x1="359.2" y1="263.9" x2="384.3" y2="272.0" opacity="1.0" stroke="rgb(0,0,0)"  stroke-width="3"/>
<line x1="142.3" y1="259.8" x2="176.4" y2="279.5" opacity="1.0" stroke="rgb(0,0,0)"  stroke-width="3"/>
<line x1="151.1" y1="256.6" x2="174.8" y2="270.3" opacity="1.0" stroke="rgb(0,0,0)"  stroke-width="3"/>
<line x1="176.4" y1="279.5" x2="199.2" y2="266.3" opacity="1.0" stroke="rgb(0,0,0)"  stroke-width="3"/>
<line x1="210.5" y1="246.8" x2="210.5" y2="220.5" opacity="1.0" stroke="rgb(0,0,0)"  stroke-width="3"/>
<line x1="210.5" y1="220.5" x2="176.4" y2="200.8" opacity="1.0" stroke="rgb(0,0,0)"  stroke-width="3"/>
<line x1="201.7" y1="223.7" x2="178.0" y2="210.0" opacity="1.0" stroke="rgb(0,0,0)"  stroke-width="3"/>
<line x1="176.4" y1="200.8" x2="142.3" y2="259.8" opacity="1.0" stroke="rgb(0,0,0)"  stroke-width="3"/>
<line x1="405.6" y1="108.2" x2="366.3" y2="108.7" opacity="1.0" stroke="rgb(0,0,0)"  stroke-width="3"/>
<line x1="399.7" y1="115.5" x2="372.4" y2="115.8" opacity="1.0" stroke="rgb(0,0,0)"  stroke-width="3"/>
<line x1="366.3" y1="108.7" x2="354.6" y2="146.3" opacity="1.0" stroke="rgb(0,0,0)"  stroke-width="3"/>
<line x1="354.6" y1="146.3" x2="386.8" y2="169.0" opacity="1.0" stroke="rgb(0,0,0)"  stroke-width="3"/>
<line x1="363.7" y1="143.9" x2="386.0" y2="159.7" opacity="1.0" stroke="rgb(0,0,0)"  stroke-width="3"/>
<line x1="386.8" y1="169.0" x2="407.9" y2="153.2" opacity="1.0" stroke="rgb(0,0,0)"  stroke-width="3"/>
<line x1="414.1" y1="133.1" x2="405.6" y2="108.2" opacity="1.0" stroke="rgb(0,0,0)"  stroke-width="3"/>
<line x1="278.6" y1="338.6" x2="312.7" y2="318.9" opacity="1.0" stroke="rgb(0,0,0)"  stroke-width="3"/>
<line x1="280.2" y1="329.3" x2="303.9" y2="315.6" opacity="1.0" stroke="rgb(0,0,0)"  stroke-width="3"/>
<line x1="312.7" y1="318.9" x2="312.7" y2="279.5" opacity="1.0" stroke="rgb(0,0,0)"  stroke-width="3"/>
<line x1="312.7" y1="279.5" x2="278.6" y2="259.8" opacity="1.0" stroke="rgb(0,0,0)"  stroke-width="3"/>
<line x1="303.9" y1="282.8" x2="280.2" y2="269.1" opacity="1.0" stroke="rgb(0,0,0)"  stroke-width="3"/>
<line x1="278.6" y1="259.8" x2="244.6" y2="279.5" opacity="1.0" stroke="rgb(0,0,0)"  stroke-width="3"/>
<line x1="244.6" y1="279.5" x2="244.6" y2="318.9" opacity="1.0" stroke="rgb(0,0,0)"  stroke-width="3"/>
<line x1="251.8" y1="285.5" x2="251.8" y2="312.9" opacity="1.0" stroke="rgb(0,0,0)"  stroke-width="3"/>
<line x1="244.6" y1="318.9" x2="278.6" y2="338.6" opacity="1.0" stroke="rgb(0,0,0)"  stroke-width="3"/>
<line x1="312.7" y1="279.5" x2="335.6" y2="266.3" opacity="1.0" stroke="rgb(0,0,0)"  stroke-width="3"/>
<line x1="346.8" y1="220.5" x2="312.7" y2="200.8" opacity="1.0" stroke="rgb(0,0,0)"  stroke-width="3"/>
<line x1="312.7" y1="200.8" x2="289.9" y2="214.0" opacity="1.0" stroke="rgb(0,0,0)"  stroke-width="3"/>
<line x1="278.6" y1="233.5" x2="278.6" y2="259.8" opacity="1.0" stroke="rgb(0,0,0)"  stroke-width="3"/>
<line x1="462.6" y1="280.2" x2="446.6" y2="244.3" opacity="1.0" stroke="rgb(0,0,0)"  stroke-width="3"/>
<line x1="446.6" y1="244.3" x2="407.4" y2="240.2" opacity="1.0" stroke="rgb(0,0,0)"  stroke-width="3"/>
<line x1="439.8" y1="250.8" x2="412.6" y2="247.9" opacity="1.0" stroke="rgb(0,0,0)"  stroke-width="3"/>
<line x1="384.3" y1="272.0" x2="400.3" y2="308.0" opacity="1.0" stroke="rgb(0,0,0)"  stroke-width="3"/>
<line x1="393.3" y1="274.6" x2="404.4" y2="299.6" opacity="1.0" stroke="rgb(0,0,0)"  stroke-width="3"/>
<line x1="400.3" y1="308.0" x2="439.4" y2="312.1" opacity="1.0" stroke="rgb(0,0,0)"  stroke-width="3"/>
<line x1="439.4" y1="312.1" x2="462.6" y2="280.2" opacity="1.0" stroke="rgb(0,0,0)"  stroke-width="3"/>
<line x1="437.1" y1="303.0" x2="453.2" y2="280.9" opacity="1.0" stroke="rgb(0,0,0)"  stroke-width="3"/>
<line x1="267.4" y1="214.0" x2="244.6" y2="200.8" opacity="1.0" stroke="rgb(0,0,0)"  stroke-width="3"/>
<line x1="244.6" y1="200.8" x2="210.5" y2="220.5" opacity="1.0" stroke="rgb(0,0,0)"  stroke-width="3"/>
<line x1="221.7" y1="266.3" x2="244.6" y2="279.5" opacity="1.0" stroke="rgb(0,0,0)"  stroke-width="3"/>
<line x1="176.4" y1="161.4" x2="176.4" y2="200.8" opacity="1.0" stroke="rgb(0,0,0)"  stroke-width="3"/>
<line x1="244.6" y1="200.8" x2="244.6" y2="161.4" opacity="1.0" stroke="rgb(0,0,0)"  stroke-width="3"/>
<line x1="237.4" y1="194.8" x2="237.4" y2="167.4" opacity="1.0" stroke="rgb(0,0,0)"  stroke-width="3"/>
<line x1="244.6" y1="161.4" x2="210.5" y2="141.7" opacity="1.0" stroke="rgb(0,0,0)"  stroke-width="3"/>
<line x1="210.5" y1="141.7" x2="176.4" y2="161.4" opacity="1.0" stroke="rgb(0,0,0)"  stroke-width="3"/>
<line x1="208.9" y1="151.0" x2="185.2" y2="164.7" opacity="1.0" stroke="rgb(0,0,0)"  stroke-width="3"/>
<line x1="142.3" y1="102.4" x2="142.3" y2="141.7" opacity="1.0" stroke="rgb(0,0,0)"  stroke-width="3"/>
<line x1="149.5" y1="108.4" x2="149.5" y2="135.7" opacity="1.0" stroke="rgb(0,0,0)"  stroke-width="3"/>
<line x1="142.3" y1="141.7" x2="176.4" y2="161.4" opacity="1.0" stroke="rgb(0,0,0)"  stroke-width="3"/>
<line x1="210.5" y1="141.7" x2="210.5" y2="102.4" opacity="1.0" stroke="rgb(0,0,0)"  stroke-width="3"/>
<line x1="210.5" y1="102.4" x2="176.4" y2="82.7" opacity="1.0" stroke="rgb(0,0,0)"  stroke-width="3"/>
<line x1="201.7" y1="105.6" x2="178.0" y2="91.9" opacity="1.0" stroke="rgb(0,0,0)"  stroke-width="3"/>
<line x1="176.4" y1="82.7" x2="142.3" y2="102.4" opacity="1.0" stroke="rgb(0,0,0)"  stroke-width="3"/>
<line x1="108.2" y1="318.9" x2="108.2" y2="279.5" opacity="1.0" stroke="rgb(0,0,0)"  stroke-width="3"/>
<line x1="115.4" y1="312.9" x2="115.4" y2="285.5" opacity="1.0" stroke="rgb(0,0,0)"  stroke-width="3"/>
<line x1="108.2" y1="279.5" x2="142.3" y2="259.8" opacity="1.0" stroke="rgb(0,0,0)"  stroke-width="3"/>
<line x1="176.4" y1="279.5" x2="176.4" y2="318.9" opacity="1.0" stroke="rgb(0,0,0)"  stroke-width="3"/>
<line x1="176.4" y1="318.9" x2="142.3" y2="338.6" opacity="1.0" stroke="rgb(0,0,0)"  stroke-width="3"/>
<line x1="167.6" y1="315.6" x2="143.9" y2="329.3" opacity="1.0" stroke="rgb(0,0,0)"  stroke-width="3"/>
<line x1="142.3" y1="338.6" x2="108.2" y2="318.9" opacity="1.0" stroke="rgb(0,0,0)"  stroke-width="3"/>
<line x1="40.0" y1="318.9" x2="40.0" y2="279.5" opacity="1.0" stroke="rgb(0,0,0)"  stroke-width="3"/>
<line x1="40.0" y1="279.5" x2="74.1" y2="259.8" opacity="1.0" stroke="rgb(0,0,0)"  stroke-width="3"/>
<line x1="48.8" y1="282.8" x2="72.5" y2="269.1" opacity="1.0" stroke="rgb(0,0,0)"  stroke-width="3"/>
<line x1="74.1" y1="259.8" x2="108.2" y2="279.5" opacity="1.0" stroke="rgb(0,0,0)"  stroke-width="3"/>
<line x1="108.2" y1="318.9" x2="74.1" y2="338.6" opacity="1.0" stroke="rgb(0,0,0)"  stroke-width="3"/>
<line x1="74.1" y1="338.6" x2="40.0" y2="318.9" opacity="1.0" stroke="rgb(0,0,0)"  stroke-width="3"/>
<line x1="72.5" y1="329.3" x2="48.8" y2="315.6" opacity="1.0" stroke="rgb(0,0,0)"  stroke-width="3"/>
<line x1="318.4" y1="161.8" x2="312.7" y2="200.8" opacity="1.0" stroke="rgb(0,0,0)"  stroke-width="3"/>
<line x1="324.7" y1="168.8" x2="320.7" y2="195.9" opacity="1.0" stroke="rgb(0,0,0)"  stroke-width="3"/>
<line x1="384.3" y1="208.3" x2="386.8" y2="169.0" opacity="1.0" stroke="rgb(0,0,0)"  stroke-width="3"/>
<line x1="354.6" y1="146.3" x2="318.4" y2="161.8" opacity="1.0" stroke="rgb(0,0,0)"  stroke-width="3"/>
<line x1="365.3" y1="40.5" x2="346.1" y2="74.9" opacity="1.0" stroke="rgb(0,0,0)"  stroke-width="3"/>
<line x1="368.7" y1="49.3" x2="355.3" y2="73.2" opacity="1.0" stroke="rgb(0,0,0)"  stroke-width="3"/>
<line x1="346.1" y1="74.9" x2="366.3" y2="108.7" opacity="1.0" stroke="rgb(0,0,0)"  stroke-width="3"/>
<line x1="405.6" y1="108.2" x2="424.9" y2="73.8" opacity="1.0" stroke="rgb(0,0,0)"  stroke-width="3"/>
<line x1="424.9" y1="73.8" x2="404.7" y2="40.0" opacity="1.0" stroke="rgb(0,0,0)"  stroke-width="3"/>
<line x1="415.6" y1="72.4" x2="401.6" y2="48.8" opacity="1.0" stroke="rgb(0,0,0)"  stroke-width="3"/>
<line x1="404.7" y1="40.0" x2="365.3" y2="40.5" opacity="1.0" stroke="rgb(0,0,0)"  stroke-width="3"/>
<line x1="464.6" y1="195.5" x2="502.2" y2="207.1" opacity="1.0" stroke="rgb(0,0,0)"  stroke-width="3"/>
<line x1="502.2" y1="207.1" x2="531.1" y2="180.4" opacity="1.0" stroke="rgb(0,0,0)"  stroke-width="3"/>
<line x1="501.7" y1="197.8" x2="521.8" y2="179.2" opacity="1.0" stroke="rgb(0,0,0)"  stroke-width="3"/>
<line x1="531.1" y1="180.4" x2="522.4" y2="142.0" opacity="1.0" stroke="rgb(0,0,0)"  stroke-width="3"/>
<line x1="522.4" y1="142.0" x2="484.8" y2="130.4" opacity="1.0" stroke="rgb(0,0,0)"  stroke-width="3"/>
<line x1="514.5" y1="147.1" x2="488.4" y2="139.0" opacity="1.0" stroke="rgb(0,0,0)"  stroke-width="3"/>
<line x1="484.8" y1="130.4" x2="455.9" y2="157.1" opacity="1.0" stroke="rgb(0,0,0)"  stroke-width="3"/>
<line x1="455.9" y1="157.1" x2="464.6" y2="195.5" opacity="1.0" stroke="rgb(0,0,0)"  stroke-width="3"/>
<line x1="464.3" y1="161.4" x2="470.3" y2="188.0" opacity="1.0" stroke="rgb(0,0,0)"  stroke-width="3"/>
<line x1="125.9" y1="439.9" x2="164.4" y2="448.1" opacity="1.0" stroke="rgb(0,0,0)"  stroke-width="3"/>
<line x1="133.3" y1="434.1" x2="160.1" y2="439.8" opacity="1.0" stroke="rgb(0,0,0)"  stroke-width="3"/>
<line x1="164.4" y1="448.1" x2="190.8" y2="418.8" opacity="1.0" stroke="rgb(0,0,0)"  stroke-width="3"/>
<line x1="190.8" y1="418.8" x2="178.6" y2="381.4" opacity="1.0" stroke="rgb(0,0,0)"  stroke-width="3"/>
<line x1="182.1" y1="415.3" x2="173.6" y2="389.3" opacity="1.0" stroke="rgb(0,0,0)"  stroke-width="3"/>
<line x1="178.6" y1="381.4" x2="140.1" y2="373.2" opacity="1.0" stroke="rgb(0,0,0)"  stroke-width="3"/>
<line x1="140.1" y1="373.2" x2="113.8" y2="402.5" opacity="1.0" stroke="rgb(0,0,0)"  stroke-width="3"/>
<line x1="141.4" y1="382.5" x2="123.1" y2="402.8" opacity="1.0" stroke="rgb(0,0,0)"  stroke-width="3"/>
<line x1="113.8" y1="402.5" x2="125.9" y2="439.9" opacity="1.0" stroke="rgb(0,0,0)"  stroke-width="3"/>
<line x1="307.2" y1="402.5" x2="280.8" y2="373.2" opacity="1.0" stroke="rgb(0,0,0)"  stroke-width="3"/>
<line x1="297.8" y1="402.8" x2="279.5" y2="382.5" opacity="1.0" stroke="rgb(0,0,0)"  stroke-width="3"/>
<line x1="280.8" y1="373.2" x2="242.3" y2="381.4" opacity="1.0" stroke="rgb(0,0,0)"  stroke-width="3"/>
<line x1="242.3" y1="381.4" x2="230.1" y2="418.8" opacity="1.0" stroke="rgb(0,0,0)"  stroke-width="3"/>
<line x1="247.3" y1="389.3" x2="238.8" y2="415.3" opacity="1.0" stroke="rgb(0,0,0)"  stroke-width="3"/>
<line x1="230.1" y1="418.8" x2="256.5" y2="448.1" opacity="1.0" stroke="rgb(0,0,0)"  stroke-width="3"/>
<line x1="256.5" y1="448.1" x2="295.0" y2="439.9" opacity="1.0" stroke="rgb(0,0,0)"  stroke-width="3"/>
<line x1="260.9" y1="439.8" x2="287.6" y2="434.1" opacity="1.0" stroke="rgb(0,0,0)"  stroke-width="3"/>
<line x1="295.0" y1="439.9" x2="307.2" y2="402.5" opacity="1.0" stroke="rgb(0,0,0)"  stroke-width="3"/>
<line x1="190.8" y1="418.8" x2="230.1" y2="418.8" opacity="1.0" stroke="rgb(0,0,0)"  stroke-width="3"/>
<line x1="242.3" y1="381.4" x2="210.5" y2="348.4" opacity="1.0" stroke="rgb(0,0,0)"  stroke-width="3"/>
<line x1="210.5" y1="348.4" x2="178.6" y2="381.4" opacity="1.0" stroke="rgb(0,0,0)"  stroke-width="3"/>
<line x1="244.6" y1="318.9" x2="210.5" y2="348.4" opacity="1.0" stroke="rgb(0,0,0)"  stroke-width="3"/>
<line x1="210.5" y1="348.4" x2="176.4" y2="318.9" opacity="1.0" stroke="rgb(0,0,0)"  stroke-width="3"/>
<text x="412.312055" y="153.448207" fill="rgb(12,12,255)" stroke-width="0" font-weight="bold" font-size="25.92" >N</text>
<text x="204.460216" y="267.834779" fill="rgb(12,12,255)" stroke-width="0" font-weight="bold" font-size="25.92" >N</text>
<text x="340.828456" y="267.834779" fill="rgb(12,12,255)" stroke-width="0" font-weight="bold" font-size="25.92" >N</text>
<text x="272.644312" y="228.468664" fill="rgb(255,181,181)" stroke-width="0" font-weight="bold" font-size="25.92" >B</text>
</svg>
</g>
</svg>
